# Walk of Industry low-poly (generated, wi_lib.py)
mtllib wi.mtl
vt 0 0
vt 0.03125 0.03125
vt 0.09375 0.03125
vt 0.15625 0.03125
vt 0.21875 0.03125
vt 0.28125 0.03125
vt 0.34375 0.03125
vt 0.40625 0.03125
vt 0.46875 0.03125
vt 0.53125 0.03125
vt 0.59375 0.03125
vt 0.65625 0.03125
vt 0.71875 0.03125
vt 0.78125 0.03125
vt 0.84375 0.03125
vt 0.90625 0.03125
vt 0.96875 0.03125
vt 0.03125 0.09375
vt 0.09375 0.09375
vt 0.15625 0.09375
vt 0.21875 0.09375
vt 0.28125 0.09375
vt 0.34375 0.09375
vt 0.40625 0.09375
vt 0.46875 0.09375
vt 0.53125 0.09375
vt 0.59375 0.09375
vt 0.65625 0.09375
vt 0.71875 0.09375
vt 0.78125 0.09375
vt 0.84375 0.09375
vt 0.90625 0.09375
vt 0.96875 0.09375
o Body
usemtl wi_palette
v -0.0175 0.0000 -0.4497
v -0.0350 0.0000 -0.4800
v -0.0350 1.2500 -0.4800
v -0.0175 1.2500 -0.4497
f 4/7 3/7 2/7 1/7
v -0.0350 0.0000 -0.4800
v -0.0175 0.0000 -0.5103
v -0.0175 1.2500 -0.5103
v -0.0350 1.2500 -0.4800
f 8/7 7/7 6/7 5/7
v -0.0175 0.0000 -0.5103
v 0.0175 0.0000 -0.5103
v 0.0175 1.2500 -0.5103
v -0.0175 1.2500 -0.5103
f 12/7 11/7 10/7 9/7
v 0.0175 0.0000 -0.5103
v 0.0350 0.0000 -0.4800
v 0.0350 1.2500 -0.4800
v 0.0175 1.2500 -0.5103
f 16/7 15/7 14/7 13/7
v 0.0350 0.0000 -0.4800
v 0.0175 0.0000 -0.4497
v 0.0175 1.2500 -0.4497
v 0.0350 1.2500 -0.4800
f 20/7 19/7 18/7 17/7
v 0.0175 0.0000 -0.4497
v -0.0175 0.0000 -0.4497
v -0.0175 1.2500 -0.4497
v 0.0175 1.2500 -0.4497
f 24/7 23/7 22/7 21/7
v 0.0175 0.0000 -0.4497
v 0.0350 0.0000 -0.4800
v 0.0175 0.0000 -0.5103
v -0.0175 0.0000 -0.5103
v -0.0350 0.0000 -0.4800
v -0.0175 0.0000 -0.4497
f 30/7 29/7 28/7 27/7 26/7 25/7
v -0.0175 1.2500 -0.4497
v -0.0350 1.2500 -0.4800
v -0.0175 1.2500 -0.5103
v 0.0175 1.2500 -0.5103
v 0.0350 1.2500 -0.4800
v 0.0175 1.2500 -0.4497
f 36/7 35/7 34/7 33/7 32/7 31/7
v -0.1693 1.3717 -0.4675
v -0.1507 1.3883 -0.4675
v 0.0093 1.2083 -0.4675
v -0.0093 1.1917 -0.4675
f 40/7 39/7 38/7 37/7
v -0.0093 1.1917 -0.4925
v 0.0093 1.2083 -0.4925
v -0.1507 1.3883 -0.4925
v -0.1693 1.3717 -0.4925
f 44/7 43/7 42/7 41/7
v -0.0093 1.1917 -0.4675
v -0.0093 1.1917 -0.4925
v -0.1693 1.3717 -0.4925
v -0.1693 1.3717 -0.4675
f 48/7 47/7 46/7 45/7
v -0.1507 1.3883 -0.4675
v -0.1507 1.3883 -0.4925
v 0.0093 1.2083 -0.4925
v 0.0093 1.2083 -0.4675
f 52/7 51/7 50/7 49/7
v 0.0093 1.2083 -0.4675
v 0.0093 1.2083 -0.4925
v -0.0093 1.1917 -0.4925
v -0.0093 1.1917 -0.4675
f 56/7 55/7 54/7 53/7
v -0.1693 1.3717 -0.4675
v -0.1693 1.3717 -0.4925
v -0.1507 1.3883 -0.4925
v -0.1507 1.3883 -0.4675
f 60/7 59/7 58/7 57/7
v -0.0175 0.0000 0.5103
v -0.0350 0.0000 0.4800
v -0.0350 1.2500 0.4800
v -0.0175 1.2500 0.5103
f 64/7 63/7 62/7 61/7
v -0.0350 0.0000 0.4800
v -0.0175 0.0000 0.4497
v -0.0175 1.2500 0.4497
v -0.0350 1.2500 0.4800
f 68/7 67/7 66/7 65/7
v -0.0175 0.0000 0.4497
v 0.0175 0.0000 0.4497
v 0.0175 1.2500 0.4497
v -0.0175 1.2500 0.4497
f 72/7 71/7 70/7 69/7
v 0.0175 0.0000 0.4497
v 0.0350 0.0000 0.4800
v 0.0350 1.2500 0.4800
v 0.0175 1.2500 0.4497
f 76/7 75/7 74/7 73/7
v 0.0350 0.0000 0.4800
v 0.0175 0.0000 0.5103
v 0.0175 1.2500 0.5103
v 0.0350 1.2500 0.4800
f 80/7 79/7 78/7 77/7
v 0.0175 0.0000 0.5103
v -0.0175 0.0000 0.5103
v -0.0175 1.2500 0.5103
v 0.0175 1.2500 0.5103
f 84/7 83/7 82/7 81/7
v 0.0175 0.0000 0.5103
v 0.0350 0.0000 0.4800
v 0.0175 0.0000 0.4497
v -0.0175 0.0000 0.4497
v -0.0350 0.0000 0.4800
v -0.0175 0.0000 0.5103
f 90/7 89/7 88/7 87/7 86/7 85/7
v -0.0175 1.2500 0.5103
v -0.0350 1.2500 0.4800
v -0.0175 1.2500 0.4497
v 0.0175 1.2500 0.4497
v 0.0350 1.2500 0.4800
v 0.0175 1.2500 0.5103
f 96/7 95/7 94/7 93/7 92/7 91/7
v -0.1693 1.3717 0.4925
v -0.1507 1.3883 0.4925
v 0.0093 1.2083 0.4925
v -0.0093 1.1917 0.4925
f 100/7 99/7 98/7 97/7
v -0.0093 1.1917 0.4675
v 0.0093 1.2083 0.4675
v -0.1507 1.3883 0.4675
v -0.1693 1.3717 0.4675
f 104/7 103/7 102/7 101/7
v -0.0093 1.1917 0.4925
v -0.0093 1.1917 0.4675
v -0.1693 1.3717 0.4675
v -0.1693 1.3717 0.4925
f 108/7 107/7 106/7 105/7
v -0.1507 1.3883 0.4925
v -0.1507 1.3883 0.4675
v 0.0093 1.2083 0.4675
v 0.0093 1.2083 0.4925
f 112/7 111/7 110/7 109/7
v 0.0093 1.2083 0.4925
v 0.0093 1.2083 0.4675
v -0.0093 1.1917 0.4675
v -0.0093 1.1917 0.4925
f 116/7 115/7 114/7 113/7
v -0.1693 1.3717 0.4925
v -0.1693 1.3717 0.4675
v -0.1507 1.3883 0.4675
v -0.1507 1.3883 0.4925
f 120/7 119/7 118/7 117/7
v -0.0106 1.0106 -0.5000
v 0.0106 1.0106 -0.5000
v 0.0106 1.0106 0.5000
v -0.0106 1.0106 0.5000
f 124/7 123/7 122/7 121/7
v 0.0106 1.0106 -0.5000
v 0.0106 0.9894 -0.5000
v 0.0106 0.9894 0.5000
v 0.0106 1.0106 0.5000
f 128/7 127/7 126/7 125/7
v 0.0106 0.9894 -0.5000
v -0.0106 0.9894 -0.5000
v -0.0106 0.9894 0.5000
v 0.0106 0.9894 0.5000
f 132/7 131/7 130/7 129/7
v -0.0106 0.9894 -0.5000
v -0.0106 1.0106 -0.5000
v -0.0106 1.0106 0.5000
v -0.0106 0.9894 0.5000
f 136/7 135/7 134/7 133/7
v -0.0106 0.9894 -0.5000
v 0.0106 0.9894 -0.5000
v 0.0106 1.0106 -0.5000
v -0.0106 1.0106 -0.5000
f 140/7 139/7 138/7 137/7
v -0.0106 1.0106 0.5000
v 0.0106 1.0106 0.5000
v 0.0106 0.9894 0.5000
v -0.0106 0.9894 0.5000
f 144/7 143/7 142/7 141/7
v -0.0106 0.0906 -0.5000
v 0.0106 0.0906 -0.5000
v 0.0106 0.0906 0.5000
v -0.0106 0.0906 0.5000
f 148/7 147/7 146/7 145/7
v 0.0106 0.0906 -0.5000
v 0.0106 0.0694 -0.5000
v 0.0106 0.0694 0.5000
v 0.0106 0.0906 0.5000
f 152/7 151/7 150/7 149/7
v 0.0106 0.0694 -0.5000
v -0.0106 0.0694 -0.5000
v -0.0106 0.0694 0.5000
v 0.0106 0.0694 0.5000
f 156/7 155/7 154/7 153/7
v -0.0106 0.0694 -0.5000
v -0.0106 0.0906 -0.5000
v -0.0106 0.0906 0.5000
v -0.0106 0.0694 0.5000
f 160/7 159/7 158/7 157/7
v -0.0106 0.0694 -0.5000
v 0.0106 0.0694 -0.5000
v 0.0106 0.0906 -0.5000
v -0.0106 0.0906 -0.5000
f 164/7 163/7 162/7 161/7
v -0.0106 0.0906 0.5000
v 0.0106 0.0906 0.5000
v 0.0106 0.0694 0.5000
v -0.0106 0.0694 0.5000
f 168/7 167/7 166/7 165/7
v 0.0040 0.9808 -0.2799
v -0.0040 0.9808 -0.2799
v -0.0040 0.1008 -0.4639
v 0.0040 0.1008 -0.4639
f 172/7 171/7 170/7 169/7
v 0.0040 0.0992 -0.4561
v -0.0040 0.0992 -0.4561
v -0.0040 0.9792 -0.2721
v 0.0040 0.9792 -0.2721
f 176/7 175/7 174/7 173/7
v 0.0040 0.1008 -0.4639
v 0.0040 0.0992 -0.4561
v 0.0040 0.9792 -0.2721
v 0.0040 0.9808 -0.2799
f 180/7 179/7 178/7 177/7
v -0.0040 0.9808 -0.2799
v -0.0040 0.9792 -0.2721
v -0.0040 0.0992 -0.4561
v -0.0040 0.1008 -0.4639
f 184/7 183/7 182/7 181/7
v -0.0040 0.1008 -0.4639
v -0.0040 0.0992 -0.4561
v 0.0040 0.0992 -0.4561
v 0.0040 0.1008 -0.4639
f 188/7 187/7 186/7 185/7
v 0.0040 0.9808 -0.2799
v 0.0040 0.9792 -0.2721
v -0.0040 0.9792 -0.2721
v -0.0040 0.9808 -0.2799
f 192/7 191/7 190/7 189/7
v 0.0040 0.9792 -0.4639
v -0.0040 0.9792 -0.4639
v -0.0040 0.0992 -0.2799
v 0.0040 0.0992 -0.2799
f 196/7 195/7 194/7 193/7
v 0.0040 0.1008 -0.2721
v -0.0040 0.1008 -0.2721
v -0.0040 0.9808 -0.4561
v 0.0040 0.9808 -0.4561
f 200/7 199/7 198/7 197/7
v 0.0040 0.0992 -0.2799
v 0.0040 0.1008 -0.2721
v 0.0040 0.9808 -0.4561
v 0.0040 0.9792 -0.4639
f 204/7 203/7 202/7 201/7
v -0.0040 0.9792 -0.4639
v -0.0040 0.9808 -0.4561
v -0.0040 0.1008 -0.2721
v -0.0040 0.0992 -0.2799
f 208/7 207/7 206/7 205/7
v -0.0040 0.0992 -0.2799
v -0.0040 0.1008 -0.2721
v 0.0040 0.1008 -0.2721
v 0.0040 0.0992 -0.2799
f 212/7 211/7 210/7 209/7
v 0.0040 0.9792 -0.4639
v 0.0040 0.9808 -0.4561
v -0.0040 0.9808 -0.4561
v -0.0040 0.9792 -0.4639
f 216/7 215/7 214/7 213/7
v 0.0040 0.9808 -0.0959
v -0.0040 0.9808 -0.0959
v -0.0040 0.1008 -0.2799
v 0.0040 0.1008 -0.2799
f 220/7 219/7 218/7 217/7
v 0.0040 0.0992 -0.2721
v -0.0040 0.0992 -0.2721
v -0.0040 0.9792 -0.0881
v 0.0040 0.9792 -0.0881
f 224/7 223/7 222/7 221/7
v 0.0040 0.1008 -0.2799
v 0.0040 0.0992 -0.2721
v 0.0040 0.9792 -0.0881
v 0.0040 0.9808 -0.0959
f 228/7 227/7 226/7 225/7
v -0.0040 0.9808 -0.0959
v -0.0040 0.9792 -0.0881
v -0.0040 0.0992 -0.2721
v -0.0040 0.1008 -0.2799
f 232/7 231/7 230/7 229/7
v -0.0040 0.1008 -0.2799
v -0.0040 0.0992 -0.2721
v 0.0040 0.0992 -0.2721
v 0.0040 0.1008 -0.2799
f 236/7 235/7 234/7 233/7
v 0.0040 0.9808 -0.0959
v 0.0040 0.9792 -0.0881
v -0.0040 0.9792 -0.0881
v -0.0040 0.9808 -0.0959
f 240/7 239/7 238/7 237/7
v 0.0040 0.9792 -0.2799
v -0.0040 0.9792 -0.2799
v -0.0040 0.0992 -0.0959
v 0.0040 0.0992 -0.0959
f 244/7 243/7 242/7 241/7
v 0.0040 0.1008 -0.0881
v -0.0040 0.1008 -0.0881
v -0.0040 0.9808 -0.2721
v 0.0040 0.9808 -0.2721
f 248/7 247/7 246/7 245/7
v 0.0040 0.0992 -0.0959
v 0.0040 0.1008 -0.0881
v 0.0040 0.9808 -0.2721
v 0.0040 0.9792 -0.2799
f 252/7 251/7 250/7 249/7
v -0.0040 0.9792 -0.2799
v -0.0040 0.9808 -0.2721
v -0.0040 0.1008 -0.0881
v -0.0040 0.0992 -0.0959
f 256/7 255/7 254/7 253/7
v -0.0040 0.0992 -0.0959
v -0.0040 0.1008 -0.0881
v 0.0040 0.1008 -0.0881
v 0.0040 0.0992 -0.0959
f 260/7 259/7 258/7 257/7
v 0.0040 0.9792 -0.2799
v 0.0040 0.9808 -0.2721
v -0.0040 0.9808 -0.2721
v -0.0040 0.9792 -0.2799
f 264/7 263/7 262/7 261/7
v 0.0040 0.9808 0.0881
v -0.0040 0.9808 0.0881
v -0.0040 0.1008 -0.0959
v 0.0040 0.1008 -0.0959
f 268/7 267/7 266/7 265/7
v 0.0040 0.0992 -0.0881
v -0.0040 0.0992 -0.0881
v -0.0040 0.9792 0.0959
v 0.0040 0.9792 0.0959
f 272/7 271/7 270/7 269/7
v 0.0040 0.1008 -0.0959
v 0.0040 0.0992 -0.0881
v 0.0040 0.9792 0.0959
v 0.0040 0.9808 0.0881
f 276/7 275/7 274/7 273/7
v -0.0040 0.9808 0.0881
v -0.0040 0.9792 0.0959
v -0.0040 0.0992 -0.0881
v -0.0040 0.1008 -0.0959
f 280/7 279/7 278/7 277/7
v -0.0040 0.1008 -0.0959
v -0.0040 0.0992 -0.0881
v 0.0040 0.0992 -0.0881
v 0.0040 0.1008 -0.0959
f 284/7 283/7 282/7 281/7
v 0.0040 0.9808 0.0881
v 0.0040 0.9792 0.0959
v -0.0040 0.9792 0.0959
v -0.0040 0.9808 0.0881
f 288/7 287/7 286/7 285/7
v 0.0040 0.9792 -0.0959
v -0.0040 0.9792 -0.0959
v -0.0040 0.0992 0.0881
v 0.0040 0.0992 0.0881
f 292/7 291/7 290/7 289/7
v 0.0040 0.1008 0.0959
v -0.0040 0.1008 0.0959
v -0.0040 0.9808 -0.0881
v 0.0040 0.9808 -0.0881
f 296/7 295/7 294/7 293/7
v 0.0040 0.0992 0.0881
v 0.0040 0.1008 0.0959
v 0.0040 0.9808 -0.0881
v 0.0040 0.9792 -0.0959
f 300/7 299/7 298/7 297/7
v -0.0040 0.9792 -0.0959
v -0.0040 0.9808 -0.0881
v -0.0040 0.1008 0.0959
v -0.0040 0.0992 0.0881
f 304/7 303/7 302/7 301/7
v -0.0040 0.0992 0.0881
v -0.0040 0.1008 0.0959
v 0.0040 0.1008 0.0959
v 0.0040 0.0992 0.0881
f 308/7 307/7 306/7 305/7
v 0.0040 0.9792 -0.0959
v 0.0040 0.9808 -0.0881
v -0.0040 0.9808 -0.0881
v -0.0040 0.9792 -0.0959
f 312/7 311/7 310/7 309/7
v 0.0040 0.9808 0.2721
v -0.0040 0.9808 0.2721
v -0.0040 0.1008 0.0881
v 0.0040 0.1008 0.0881
f 316/7 315/7 314/7 313/7
v 0.0040 0.0992 0.0959
v -0.0040 0.0992 0.0959
v -0.0040 0.9792 0.2799
v 0.0040 0.9792 0.2799
f 320/7 319/7 318/7 317/7
v 0.0040 0.1008 0.0881
v 0.0040 0.0992 0.0959
v 0.0040 0.9792 0.2799
v 0.0040 0.9808 0.2721
f 324/7 323/7 322/7 321/7
v -0.0040 0.9808 0.2721
v -0.0040 0.9792 0.2799
v -0.0040 0.0992 0.0959
v -0.0040 0.1008 0.0881
f 328/7 327/7 326/7 325/7
v -0.0040 0.1008 0.0881
v -0.0040 0.0992 0.0959
v 0.0040 0.0992 0.0959
v 0.0040 0.1008 0.0881
f 332/7 331/7 330/7 329/7
v 0.0040 0.9808 0.2721
v 0.0040 0.9792 0.2799
v -0.0040 0.9792 0.2799
v -0.0040 0.9808 0.2721
f 336/7 335/7 334/7 333/7
v 0.0040 0.9792 0.0881
v -0.0040 0.9792 0.0881
v -0.0040 0.0992 0.2721
v 0.0040 0.0992 0.2721
f 340/7 339/7 338/7 337/7
v 0.0040 0.1008 0.2799
v -0.0040 0.1008 0.2799
v -0.0040 0.9808 0.0959
v 0.0040 0.9808 0.0959
f 344/7 343/7 342/7 341/7
v 0.0040 0.0992 0.2721
v 0.0040 0.1008 0.2799
v 0.0040 0.9808 0.0959
v 0.0040 0.9792 0.0881
f 348/7 347/7 346/7 345/7
v -0.0040 0.9792 0.0881
v -0.0040 0.9808 0.0959
v -0.0040 0.1008 0.2799
v -0.0040 0.0992 0.2721
f 352/7 351/7 350/7 349/7
v -0.0040 0.0992 0.2721
v -0.0040 0.1008 0.2799
v 0.0040 0.1008 0.2799
v 0.0040 0.0992 0.2721
f 356/7 355/7 354/7 353/7
v 0.0040 0.9792 0.0881
v 0.0040 0.9808 0.0959
v -0.0040 0.9808 0.0959
v -0.0040 0.9792 0.0881
f 360/7 359/7 358/7 357/7
v 0.0040 0.9808 0.4561
v -0.0040 0.9808 0.4561
v -0.0040 0.1008 0.2721
v 0.0040 0.1008 0.2721
f 364/7 363/7 362/7 361/7
v 0.0040 0.0992 0.2799
v -0.0040 0.0992 0.2799
v -0.0040 0.9792 0.4639
v 0.0040 0.9792 0.4639
f 368/7 367/7 366/7 365/7
v 0.0040 0.1008 0.2721
v 0.0040 0.0992 0.2799
v 0.0040 0.9792 0.4639
v 0.0040 0.9808 0.4561
f 372/7 371/7 370/7 369/7
v -0.0040 0.9808 0.4561
v -0.0040 0.9792 0.4639
v -0.0040 0.0992 0.2799
v -0.0040 0.1008 0.2721
f 376/7 375/7 374/7 373/7
v -0.0040 0.1008 0.2721
v -0.0040 0.0992 0.2799
v 0.0040 0.0992 0.2799
v 0.0040 0.1008 0.2721
f 380/7 379/7 378/7 377/7
v 0.0040 0.9808 0.4561
v 0.0040 0.9792 0.4639
v -0.0040 0.9792 0.4639
v -0.0040 0.9808 0.4561
f 384/7 383/7 382/7 381/7
v 0.0040 0.9792 0.2721
v -0.0040 0.9792 0.2721
v -0.0040 0.0992 0.4561
v 0.0040 0.0992 0.4561
f 388/7 387/7 386/7 385/7
v 0.0040 0.1008 0.4639
v -0.0040 0.1008 0.4639
v -0.0040 0.9808 0.2799
v 0.0040 0.9808 0.2799
f 392/7 391/7 390/7 389/7
v 0.0040 0.0992 0.4561
v 0.0040 0.1008 0.4639
v 0.0040 0.9808 0.2799
v 0.0040 0.9792 0.2721
f 396/7 395/7 394/7 393/7
v -0.0040 0.9792 0.2721
v -0.0040 0.9808 0.2799
v -0.0040 0.1008 0.4639
v -0.0040 0.0992 0.4561
f 400/7 399/7 398/7 397/7
v -0.0040 0.0992 0.4561
v -0.0040 0.1008 0.4639
v 0.0040 0.1008 0.4639
v 0.0040 0.0992 0.4561
f 404/7 403/7 402/7 401/7
v 0.0040 0.9792 0.2721
v 0.0040 0.9808 0.2799
v -0.0040 0.9808 0.2799
v -0.0040 0.9792 0.2721
f 408/7 407/7 406/7 405/7
v -0.0557 1.2457 -0.5000
v -0.0443 1.2457 -0.5000
v -0.0443 1.2457 0.5000
v -0.0557 1.2457 0.5000
f 412/6 411/6 410/6 409/6
v -0.0443 1.2457 -0.5000
v -0.0443 1.2343 -0.5000
v -0.0443 1.2343 0.5000
v -0.0443 1.2457 0.5000
f 416/6 415/6 414/6 413/6
v -0.0443 1.2343 -0.5000
v -0.0557 1.2343 -0.5000
v -0.0557 1.2343 0.5000
v -0.0443 1.2343 0.5000
f 420/6 419/6 418/6 417/6
v -0.0557 1.2343 -0.5000
v -0.0557 1.2457 -0.5000
v -0.0557 1.2457 0.5000
v -0.0557 1.2343 0.5000
f 424/6 423/6 422/6 421/6
v -0.0557 1.2343 -0.5000
v -0.0443 1.2343 -0.5000
v -0.0443 1.2457 -0.5000
v -0.0557 1.2457 -0.5000
f 428/6 427/6 426/6 425/6
v -0.0557 1.2457 0.5000
v -0.0443 1.2457 0.5000
v -0.0443 1.2343 0.5000
v -0.0557 1.2343 0.5000
f 432/6 431/6 430/6 429/6
v -0.0250 1.2195 -0.4348
v -0.0250 1.2548 -0.3995
v -0.0250 1.2605 -0.4052
v -0.0250 1.2252 -0.4405
f 436/6 435/6 434/6 433/6
v -0.0750 1.2252 -0.4405
v -0.0750 1.2605 -0.4052
v -0.0750 1.2548 -0.3995
v -0.0750 1.2195 -0.4348
f 440/6 439/6 438/6 437/6
v -0.0250 1.2252 -0.4405
v -0.0750 1.2252 -0.4405
v -0.0750 1.2195 -0.4348
v -0.0250 1.2195 -0.4348
f 444/6 443/6 442/6 441/6
v -0.0250 1.2548 -0.3995
v -0.0750 1.2548 -0.3995
v -0.0750 1.2605 -0.4052
v -0.0250 1.2605 -0.4052
f 448/6 447/6 446/6 445/6
v -0.0250 1.2605 -0.4052
v -0.0750 1.2605 -0.4052
v -0.0750 1.2252 -0.4405
v -0.0250 1.2252 -0.4405
f 452/6 451/6 450/6 449/6
v -0.0250 1.2195 -0.4348
v -0.0750 1.2195 -0.4348
v -0.0750 1.2548 -0.3995
v -0.0250 1.2548 -0.3995
f 456/6 455/6 454/6 453/6
v -0.0250 1.2195 -0.2648
v -0.0250 1.2548 -0.2295
v -0.0250 1.2605 -0.2352
v -0.0250 1.2252 -0.2705
f 460/6 459/6 458/6 457/6
v -0.0750 1.2252 -0.2705
v -0.0750 1.2605 -0.2352
v -0.0750 1.2548 -0.2295
v -0.0750 1.2195 -0.2648
f 464/6 463/6 462/6 461/6
v -0.0250 1.2252 -0.2705
v -0.0750 1.2252 -0.2705
v -0.0750 1.2195 -0.2648
v -0.0250 1.2195 -0.2648
f 468/6 467/6 466/6 465/6
v -0.0250 1.2548 -0.2295
v -0.0750 1.2548 -0.2295
v -0.0750 1.2605 -0.2352
v -0.0250 1.2605 -0.2352
f 472/6 471/6 470/6 469/6
v -0.0250 1.2605 -0.2352
v -0.0750 1.2605 -0.2352
v -0.0750 1.2252 -0.2705
v -0.0250 1.2252 -0.2705
f 476/6 475/6 474/6 473/6
v -0.0250 1.2195 -0.2648
v -0.0750 1.2195 -0.2648
v -0.0750 1.2548 -0.2295
v -0.0250 1.2548 -0.2295
f 480/6 479/6 478/6 477/6
v -0.0250 1.2195 -0.0948
v -0.0250 1.2548 -0.0595
v -0.0250 1.2605 -0.0652
v -0.0250 1.2252 -0.1005
f 484/6 483/6 482/6 481/6
v -0.0750 1.2252 -0.1005
v -0.0750 1.2605 -0.0652
v -0.0750 1.2548 -0.0595
v -0.0750 1.2195 -0.0948
f 488/6 487/6 486/6 485/6
v -0.0250 1.2252 -0.1005
v -0.0750 1.2252 -0.1005
v -0.0750 1.2195 -0.0948
v -0.0250 1.2195 -0.0948
f 492/6 491/6 490/6 489/6
v -0.0250 1.2548 -0.0595
v -0.0750 1.2548 -0.0595
v -0.0750 1.2605 -0.0652
v -0.0250 1.2605 -0.0652
f 496/6 495/6 494/6 493/6
v -0.0250 1.2605 -0.0652
v -0.0750 1.2605 -0.0652
v -0.0750 1.2252 -0.1005
v -0.0250 1.2252 -0.1005
f 500/6 499/6 498/6 497/6
v -0.0250 1.2195 -0.0948
v -0.0750 1.2195 -0.0948
v -0.0750 1.2548 -0.0595
v -0.0250 1.2548 -0.0595
f 504/6 503/6 502/6 501/6
v -0.0250 1.2195 0.0752
v -0.0250 1.2548 0.1105
v -0.0250 1.2605 0.1048
v -0.0250 1.2252 0.0695
f 508/6 507/6 506/6 505/6
v -0.0750 1.2252 0.0695
v -0.0750 1.2605 0.1048
v -0.0750 1.2548 0.1105
v -0.0750 1.2195 0.0752
f 512/6 511/6 510/6 509/6
v -0.0250 1.2252 0.0695
v -0.0750 1.2252 0.0695
v -0.0750 1.2195 0.0752
v -0.0250 1.2195 0.0752
f 516/6 515/6 514/6 513/6
v -0.0250 1.2548 0.1105
v -0.0750 1.2548 0.1105
v -0.0750 1.2605 0.1048
v -0.0250 1.2605 0.1048
f 520/6 519/6 518/6 517/6
v -0.0250 1.2605 0.1048
v -0.0750 1.2605 0.1048
v -0.0750 1.2252 0.0695
v -0.0250 1.2252 0.0695
f 524/6 523/6 522/6 521/6
v -0.0250 1.2195 0.0752
v -0.0750 1.2195 0.0752
v -0.0750 1.2548 0.1105
v -0.0250 1.2548 0.1105
f 528/6 527/6 526/6 525/6
v -0.0250 1.2195 0.2452
v -0.0250 1.2548 0.2805
v -0.0250 1.2605 0.2748
v -0.0250 1.2252 0.2395
f 532/6 531/6 530/6 529/6
v -0.0750 1.2252 0.2395
v -0.0750 1.2605 0.2748
v -0.0750 1.2548 0.2805
v -0.0750 1.2195 0.2452
f 536/6 535/6 534/6 533/6
v -0.0250 1.2252 0.2395
v -0.0750 1.2252 0.2395
v -0.0750 1.2195 0.2452
v -0.0250 1.2195 0.2452
f 540/6 539/6 538/6 537/6
v -0.0250 1.2548 0.2805
v -0.0750 1.2548 0.2805
v -0.0750 1.2605 0.2748
v -0.0250 1.2605 0.2748
f 544/6 543/6 542/6 541/6
v -0.0250 1.2605 0.2748
v -0.0750 1.2605 0.2748
v -0.0750 1.2252 0.2395
v -0.0250 1.2252 0.2395
f 548/6 547/6 546/6 545/6
v -0.0250 1.2195 0.2452
v -0.0750 1.2195 0.2452
v -0.0750 1.2548 0.2805
v -0.0250 1.2548 0.2805
f 552/6 551/6 550/6 549/6
v -0.0250 1.2195 0.4152
v -0.0250 1.2548 0.4505
v -0.0250 1.2605 0.4448
v -0.0250 1.2252 0.4095
f 556/6 555/6 554/6 553/6
v -0.0750 1.2252 0.4095
v -0.0750 1.2605 0.4448
v -0.0750 1.2548 0.4505
v -0.0750 1.2195 0.4152
f 560/6 559/6 558/6 557/6
v -0.0250 1.2252 0.4095
v -0.0750 1.2252 0.4095
v -0.0750 1.2195 0.4152
v -0.0250 1.2195 0.4152
f 564/6 563/6 562/6 561/6
v -0.0250 1.2548 0.4505
v -0.0750 1.2548 0.4505
v -0.0750 1.2605 0.4448
v -0.0250 1.2605 0.4448
f 568/6 567/6 566/6 565/6
v -0.0250 1.2605 0.4448
v -0.0750 1.2605 0.4448
v -0.0750 1.2252 0.4095
v -0.0250 1.2252 0.4095
f 572/6 571/6 570/6 569/6
v -0.0250 1.2195 0.4152
v -0.0750 1.2195 0.4152
v -0.0750 1.2548 0.4505
v -0.0250 1.2548 0.4505
f 576/6 575/6 574/6 573/6
v -0.1157 1.3157 -0.5000
v -0.1043 1.3157 -0.5000
v -0.1043 1.3157 0.5000
v -0.1157 1.3157 0.5000
f 580/6 579/6 578/6 577/6
v -0.1043 1.3157 -0.5000
v -0.1043 1.3043 -0.5000
v -0.1043 1.3043 0.5000
v -0.1043 1.3157 0.5000
f 584/6 583/6 582/6 581/6
v -0.1043 1.3043 -0.5000
v -0.1157 1.3043 -0.5000
v -0.1157 1.3043 0.5000
v -0.1043 1.3043 0.5000
f 588/6 587/6 586/6 585/6
v -0.1157 1.3043 -0.5000
v -0.1157 1.3157 -0.5000
v -0.1157 1.3157 0.5000
v -0.1157 1.3043 0.5000
f 592/6 591/6 590/6 589/6
v -0.1157 1.3043 -0.5000
v -0.1043 1.3043 -0.5000
v -0.1043 1.3157 -0.5000
v -0.1157 1.3157 -0.5000
f 596/6 595/6 594/6 593/6
v -0.1157 1.3157 0.5000
v -0.1043 1.3157 0.5000
v -0.1043 1.3043 0.5000
v -0.1157 1.3043 0.5000
f 600/6 599/6 598/6 597/6
v -0.0850 1.2895 -0.4348
v -0.0850 1.3248 -0.3995
v -0.0850 1.3305 -0.4052
v -0.0850 1.2952 -0.4405
f 604/6 603/6 602/6 601/6
v -0.1350 1.2952 -0.4405
v -0.1350 1.3305 -0.4052
v -0.1350 1.3248 -0.3995
v -0.1350 1.2895 -0.4348
f 608/6 607/6 606/6 605/6
v -0.0850 1.2952 -0.4405
v -0.1350 1.2952 -0.4405
v -0.1350 1.2895 -0.4348
v -0.0850 1.2895 -0.4348
f 612/6 611/6 610/6 609/6
v -0.0850 1.3248 -0.3995
v -0.1350 1.3248 -0.3995
v -0.1350 1.3305 -0.4052
v -0.0850 1.3305 -0.4052
f 616/6 615/6 614/6 613/6
v -0.0850 1.3305 -0.4052
v -0.1350 1.3305 -0.4052
v -0.1350 1.2952 -0.4405
v -0.0850 1.2952 -0.4405
f 620/6 619/6 618/6 617/6
v -0.0850 1.2895 -0.4348
v -0.1350 1.2895 -0.4348
v -0.1350 1.3248 -0.3995
v -0.0850 1.3248 -0.3995
f 624/6 623/6 622/6 621/6
v -0.0850 1.2895 -0.2648
v -0.0850 1.3248 -0.2295
v -0.0850 1.3305 -0.2352
v -0.0850 1.2952 -0.2705
f 628/6 627/6 626/6 625/6
v -0.1350 1.2952 -0.2705
v -0.1350 1.3305 -0.2352
v -0.1350 1.3248 -0.2295
v -0.1350 1.2895 -0.2648
f 632/6 631/6 630/6 629/6
v -0.0850 1.2952 -0.2705
v -0.1350 1.2952 -0.2705
v -0.1350 1.2895 -0.2648
v -0.0850 1.2895 -0.2648
f 636/6 635/6 634/6 633/6
v -0.0850 1.3248 -0.2295
v -0.1350 1.3248 -0.2295
v -0.1350 1.3305 -0.2352
v -0.0850 1.3305 -0.2352
f 640/6 639/6 638/6 637/6
v -0.0850 1.3305 -0.2352
v -0.1350 1.3305 -0.2352
v -0.1350 1.2952 -0.2705
v -0.0850 1.2952 -0.2705
f 644/6 643/6 642/6 641/6
v -0.0850 1.2895 -0.2648
v -0.1350 1.2895 -0.2648
v -0.1350 1.3248 -0.2295
v -0.0850 1.3248 -0.2295
f 648/6 647/6 646/6 645/6
v -0.0850 1.2895 -0.0948
v -0.0850 1.3248 -0.0595
v -0.0850 1.3305 -0.0652
v -0.0850 1.2952 -0.1005
f 652/6 651/6 650/6 649/6
v -0.1350 1.2952 -0.1005
v -0.1350 1.3305 -0.0652
v -0.1350 1.3248 -0.0595
v -0.1350 1.2895 -0.0948
f 656/6 655/6 654/6 653/6
v -0.0850 1.2952 -0.1005
v -0.1350 1.2952 -0.1005
v -0.1350 1.2895 -0.0948
v -0.0850 1.2895 -0.0948
f 660/6 659/6 658/6 657/6
v -0.0850 1.3248 -0.0595
v -0.1350 1.3248 -0.0595
v -0.1350 1.3305 -0.0652
v -0.0850 1.3305 -0.0652
f 664/6 663/6 662/6 661/6
v -0.0850 1.3305 -0.0652
v -0.1350 1.3305 -0.0652
v -0.1350 1.2952 -0.1005
v -0.0850 1.2952 -0.1005
f 668/6 667/6 666/6 665/6
v -0.0850 1.2895 -0.0948
v -0.1350 1.2895 -0.0948
v -0.1350 1.3248 -0.0595
v -0.0850 1.3248 -0.0595
f 672/6 671/6 670/6 669/6
v -0.0850 1.2895 0.0752
v -0.0850 1.3248 0.1105
v -0.0850 1.3305 0.1048
v -0.0850 1.2952 0.0695
f 676/6 675/6 674/6 673/6
v -0.1350 1.2952 0.0695
v -0.1350 1.3305 0.1048
v -0.1350 1.3248 0.1105
v -0.1350 1.2895 0.0752
f 680/6 679/6 678/6 677/6
v -0.0850 1.2952 0.0695
v -0.1350 1.2952 0.0695
v -0.1350 1.2895 0.0752
v -0.0850 1.2895 0.0752
f 684/6 683/6 682/6 681/6
v -0.0850 1.3248 0.1105
v -0.1350 1.3248 0.1105
v -0.1350 1.3305 0.1048
v -0.0850 1.3305 0.1048
f 688/6 687/6 686/6 685/6
v -0.0850 1.3305 0.1048
v -0.1350 1.3305 0.1048
v -0.1350 1.2952 0.0695
v -0.0850 1.2952 0.0695
f 692/6 691/6 690/6 689/6
v -0.0850 1.2895 0.0752
v -0.1350 1.2895 0.0752
v -0.1350 1.3248 0.1105
v -0.0850 1.3248 0.1105
f 696/6 695/6 694/6 693/6
v -0.0850 1.2895 0.2452
v -0.0850 1.3248 0.2805
v -0.0850 1.3305 0.2748
v -0.0850 1.2952 0.2395
f 700/6 699/6 698/6 697/6
v -0.1350 1.2952 0.2395
v -0.1350 1.3305 0.2748
v -0.1350 1.3248 0.2805
v -0.1350 1.2895 0.2452
f 704/6 703/6 702/6 701/6
v -0.0850 1.2952 0.2395
v -0.1350 1.2952 0.2395
v -0.1350 1.2895 0.2452
v -0.0850 1.2895 0.2452
f 708/6 707/6 706/6 705/6
v -0.0850 1.3248 0.2805
v -0.1350 1.3248 0.2805
v -0.1350 1.3305 0.2748
v -0.0850 1.3305 0.2748
f 712/6 711/6 710/6 709/6
v -0.0850 1.3305 0.2748
v -0.1350 1.3305 0.2748
v -0.1350 1.2952 0.2395
v -0.0850 1.2952 0.2395
f 716/6 715/6 714/6 713/6
v -0.0850 1.2895 0.2452
v -0.1350 1.2895 0.2452
v -0.1350 1.3248 0.2805
v -0.0850 1.3248 0.2805
f 720/6 719/6 718/6 717/6
v -0.0850 1.2895 0.4152
v -0.0850 1.3248 0.4505
v -0.0850 1.3305 0.4448
v -0.0850 1.2952 0.4095
f 724/6 723/6 722/6 721/6
v -0.1350 1.2952 0.4095
v -0.1350 1.3305 0.4448
v -0.1350 1.3248 0.4505
v -0.1350 1.2895 0.4152
f 728/6 727/6 726/6 725/6
v -0.0850 1.2952 0.4095
v -0.1350 1.2952 0.4095
v -0.1350 1.2895 0.4152
v -0.0850 1.2895 0.4152
f 732/6 731/6 730/6 729/6
v -0.0850 1.3248 0.4505
v -0.1350 1.3248 0.4505
v -0.1350 1.3305 0.4448
v -0.0850 1.3305 0.4448
f 736/6 735/6 734/6 733/6
v -0.0850 1.3305 0.4448
v -0.1350 1.3305 0.4448
v -0.1350 1.2952 0.4095
v -0.0850 1.2952 0.4095
f 740/6 739/6 738/6 737/6
v -0.0850 1.2895 0.4152
v -0.1350 1.2895 0.4152
v -0.1350 1.3248 0.4505
v -0.0850 1.3248 0.4505
f 744/6 743/6 742/6 741/6
v -0.0150 0.5200 0.1200
v -0.0150 0.6800 0.1200
v -0.0150 0.6800 -0.1200
v -0.0150 0.5200 -0.1200
f 748/8 747/8 746/8 745/8
v -0.0250 0.5200 -0.1200
v -0.0250 0.6800 -0.1200
v -0.0250 0.6800 0.1200
v -0.0250 0.5200 0.1200
f 752/8 751/8 750/8 749/8
v -0.0150 0.5200 -0.1200
v -0.0250 0.5200 -0.1200
v -0.0250 0.5200 0.1200
v -0.0150 0.5200 0.1200
f 756/8 755/8 754/8 753/8
v -0.0150 0.6800 0.1200
v -0.0250 0.6800 0.1200
v -0.0250 0.6800 -0.1200
v -0.0150 0.6800 -0.1200
f 760/8 759/8 758/8 757/8
v -0.0150 0.6800 -0.1200
v -0.0250 0.6800 -0.1200
v -0.0250 0.5200 -0.1200
v -0.0150 0.5200 -0.1200
f 764/8 763/8 762/8 761/8
v -0.0150 0.5200 0.1200
v -0.0250 0.5200 0.1200
v -0.0250 0.6800 0.1200
v -0.0150 0.6800 0.1200
f 768/8 767/8 766/8 765/8
v -0.0210 0.5576 -0.0000
v -0.0210 0.6000 0.0424
v -0.0210 0.6424 0.0000
v -0.0210 0.6000 -0.0424
f 772/6 771/6 770/6 769/6
v -0.0310 0.6000 -0.0424
v -0.0310 0.6424 0.0000
v -0.0310 0.6000 0.0424
v -0.0310 0.5576 -0.0000
f 776/6 775/6 774/6 773/6
v -0.0210 0.6000 -0.0424
v -0.0310 0.6000 -0.0424
v -0.0310 0.5576 -0.0000
v -0.0210 0.5576 -0.0000
f 780/6 779/6 778/6 777/6
v -0.0210 0.6000 0.0424
v -0.0310 0.6000 0.0424
v -0.0310 0.6424 0.0000
v -0.0210 0.6424 0.0000
f 784/6 783/6 782/6 781/6
v -0.0210 0.6424 0.0000
v -0.0310 0.6424 0.0000
v -0.0310 0.6000 -0.0424
v -0.0210 0.6000 -0.0424
f 788/6 787/6 786/6 785/6
v -0.0210 0.5576 -0.0000
v -0.0310 0.5576 -0.0000
v -0.0310 0.6000 0.0424
v -0.0210 0.6000 0.0424
f 792/6 791/6 790/6 789/6
