# Walk of Industry low-poly (generated, wi_lib.py)
mtllib wi.mtl
vt 0 0
vt 0.03125 0.03125
vt 0.09375 0.03125
vt 0.15625 0.03125
vt 0.21875 0.03125
vt 0.28125 0.03125
vt 0.34375 0.03125
vt 0.40625 0.03125
vt 0.46875 0.03125
vt 0.53125 0.03125
vt 0.59375 0.03125
vt 0.65625 0.03125
vt 0.71875 0.03125
vt 0.78125 0.03125
vt 0.84375 0.03125
vt 0.90625 0.03125
vt 0.96875 0.03125
vt 0.03125 0.09375
vt 0.09375 0.09375
vt 0.15625 0.09375
vt 0.21875 0.09375
vt 0.28125 0.09375
vt 0.34375 0.09375
vt 0.40625 0.09375
vt 0.46875 0.09375
vt 0.53125 0.09375
vt 0.59375 0.09375
vt 0.65625 0.09375
vt 0.71875 0.09375
vt 0.78125 0.09375
vt 0.84375 0.09375
vt 0.90625 0.09375
vt 0.96875 0.09375
o Body
usemtl wi_palette
v 0.2100 0.0000 0.2100
v 0.2100 0.1200 0.2100
v 0.2100 0.1200 -0.2100
v 0.2100 0.0000 -0.2100
f 4/6 3/6 2/6 1/6
v -0.2100 0.0000 -0.2100
v -0.2100 0.1200 -0.2100
v -0.2100 0.1200 0.2100
v -0.2100 0.0000 0.2100
f 8/6 7/6 6/6 5/6
v 0.2100 0.0000 -0.2100
v -0.2100 0.0000 -0.2100
v -0.2100 0.0000 0.2100
v 0.2100 0.0000 0.2100
f 12/6 11/6 10/6 9/6
v 0.2100 0.1200 0.2100
v -0.2100 0.1200 0.2100
v -0.2100 0.1200 -0.2100
v 0.2100 0.1200 -0.2100
f 16/6 15/6 14/6 13/6
v 0.2100 0.1200 -0.2100
v -0.2100 0.1200 -0.2100
v -0.2100 0.0000 -0.2100
v 0.2100 0.0000 -0.2100
f 20/6 19/6 18/6 17/6
v 0.2100 0.0000 0.2100
v -0.2100 0.0000 0.2100
v -0.2100 0.1200 0.2100
v 0.2100 0.1200 0.2100
f 24/6 23/6 22/6 21/6
v 0.0800 0.1200 0.0800
v 0.0800 0.2500 0.0800
v 0.0800 0.2500 -0.0800
v 0.0800 0.1200 -0.0800
f 28/8 27/8 26/8 25/8
v -0.0800 0.1200 -0.0800
v -0.0800 0.2500 -0.0800
v -0.0800 0.2500 0.0800
v -0.0800 0.1200 0.0800
f 32/8 31/8 30/8 29/8
v 0.0800 0.1200 -0.0800
v -0.0800 0.1200 -0.0800
v -0.0800 0.1200 0.0800
v 0.0800 0.1200 0.0800
f 36/8 35/8 34/8 33/8
v 0.0800 0.2500 0.0800
v -0.0800 0.2500 0.0800
v -0.0800 0.2500 -0.0800
v 0.0800 0.2500 -0.0800
f 40/8 39/8 38/8 37/8
v 0.0800 0.2500 -0.0800
v -0.0800 0.2500 -0.0800
v -0.0800 0.1200 -0.0800
v 0.0800 0.1200 -0.0800
f 44/8 43/8 42/8 41/8
v 0.0800 0.1200 0.0800
v -0.0800 0.1200 0.0800
v -0.0800 0.2500 0.0800
v 0.0800 0.2500 0.0800
f 48/8 47/8 46/8 45/8
v 0.0800 0.2500 0.0800
v 0.0800 0.3800 0.0800
v 0.0800 0.3800 -0.0800
v 0.0800 0.2500 -0.0800
f 52/6 51/6 50/6 49/6
v -0.0800 0.2500 -0.0800
v -0.0800 0.3800 -0.0800
v -0.0800 0.3800 0.0800
v -0.0800 0.2500 0.0800
f 56/6 55/6 54/6 53/6
v 0.0800 0.2500 -0.0800
v -0.0800 0.2500 -0.0800
v -0.0800 0.2500 0.0800
v 0.0800 0.2500 0.0800
f 60/6 59/6 58/6 57/6
v 0.0800 0.3800 0.0800
v -0.0800 0.3800 0.0800
v -0.0800 0.3800 -0.0800
v 0.0800 0.3800 -0.0800
f 64/6 63/6 62/6 61/6
v 0.0800 0.3800 -0.0800
v -0.0800 0.3800 -0.0800
v -0.0800 0.2500 -0.0800
v 0.0800 0.2500 -0.0800
f 68/6 67/6 66/6 65/6
v 0.0800 0.2500 0.0800
v -0.0800 0.2500 0.0800
v -0.0800 0.3800 0.0800
v 0.0800 0.3800 0.0800
f 72/6 71/6 70/6 69/6
v 0.0800 0.3800 0.0800
v 0.0800 0.5100 0.0800
v 0.0800 0.5100 -0.0800
v 0.0800 0.3800 -0.0800
f 76/8 75/8 74/8 73/8
v -0.0800 0.3800 -0.0800
v -0.0800 0.5100 -0.0800
v -0.0800 0.5100 0.0800
v -0.0800 0.3800 0.0800
f 80/8 79/8 78/8 77/8
v 0.0800 0.3800 -0.0800
v -0.0800 0.3800 -0.0800
v -0.0800 0.3800 0.0800
v 0.0800 0.3800 0.0800
f 84/8 83/8 82/8 81/8
v 0.0800 0.5100 0.0800
v -0.0800 0.5100 0.0800
v -0.0800 0.5100 -0.0800
v 0.0800 0.5100 -0.0800
f 88/8 87/8 86/8 85/8
v 0.0800 0.5100 -0.0800
v -0.0800 0.5100 -0.0800
v -0.0800 0.3800 -0.0800
v 0.0800 0.3800 -0.0800
f 92/8 91/8 90/8 89/8
v 0.0800 0.3800 0.0800
v -0.0800 0.3800 0.0800
v -0.0800 0.5100 0.0800
v 0.0800 0.5100 0.0800
f 96/8 95/8 94/8 93/8
v 0.0800 0.5100 0.0800
v 0.0800 0.6400 0.0800
v 0.0800 0.6400 -0.0800
v 0.0800 0.5100 -0.0800
f 100/6 99/6 98/6 97/6
v -0.0800 0.5100 -0.0800
v -0.0800 0.6400 -0.0800
v -0.0800 0.6400 0.0800
v -0.0800 0.5100 0.0800
f 104/6 103/6 102/6 101/6
v 0.0800 0.5100 -0.0800
v -0.0800 0.5100 -0.0800
v -0.0800 0.5100 0.0800
v 0.0800 0.5100 0.0800
f 108/6 107/6 106/6 105/6
v 0.0800 0.6400 0.0800
v -0.0800 0.6400 0.0800
v -0.0800 0.6400 -0.0800
v 0.0800 0.6400 -0.0800
f 112/6 111/6 110/6 109/6
v 0.0800 0.6400 -0.0800
v -0.0800 0.6400 -0.0800
v -0.0800 0.5100 -0.0800
v 0.0800 0.5100 -0.0800
f 116/6 115/6 114/6 113/6
v 0.0800 0.5100 0.0800
v -0.0800 0.5100 0.0800
v -0.0800 0.6400 0.0800
v 0.0800 0.6400 0.0800
f 120/6 119/6 118/6 117/6
v -0.0494 0.6400 0.1522
v -0.1294 0.6400 0.0940
v -0.1294 0.7200 0.0940
v -0.0494 0.7200 0.1522
f 124/6 123/6 122/6 121/6
v -0.1294 0.6400 0.0940
v -0.1600 0.6400 0.0000
v -0.1600 0.7200 0.0000
v -0.1294 0.7200 0.0940
f 128/6 127/6 126/6 125/6
v -0.1600 0.6400 0.0000
v -0.1294 0.6400 -0.0940
v -0.1294 0.7200 -0.0940
v -0.1600 0.7200 0.0000
f 132/6 131/6 130/6 129/6
v -0.1294 0.6400 -0.0940
v -0.0494 0.6400 -0.1522
v -0.0494 0.7200 -0.1522
v -0.1294 0.7200 -0.0940
f 136/6 135/6 134/6 133/6
v -0.0494 0.6400 -0.1522
v 0.0494 0.6400 -0.1522
v 0.0494 0.7200 -0.1522
v -0.0494 0.7200 -0.1522
f 140/6 139/6 138/6 137/6
v 0.0494 0.6400 -0.1522
v 0.1294 0.6400 -0.0940
v 0.1294 0.7200 -0.0940
v 0.0494 0.7200 -0.1522
f 144/6 143/6 142/6 141/6
v 0.1294 0.6400 -0.0940
v 0.1600 0.6400 -0.0000
v 0.1600 0.7200 -0.0000
v 0.1294 0.7200 -0.0940
f 148/6 147/6 146/6 145/6
v 0.1600 0.6400 -0.0000
v 0.1294 0.6400 0.0940
v 0.1294 0.7200 0.0940
v 0.1600 0.7200 -0.0000
f 152/6 151/6 150/6 149/6
v 0.1294 0.6400 0.0940
v 0.0494 0.6400 0.1522
v 0.0494 0.7200 0.1522
v 0.1294 0.7200 0.0940
f 156/6 155/6 154/6 153/6
v 0.0494 0.6400 0.1522
v -0.0494 0.6400 0.1522
v -0.0494 0.7200 0.1522
v 0.0494 0.7200 0.1522
f 160/6 159/6 158/6 157/6
v 0.0494 0.6400 0.1522
v 0.1294 0.6400 0.0940
v 0.1600 0.6400 -0.0000
v 0.1294 0.6400 -0.0940
v 0.0494 0.6400 -0.1522
v -0.0494 0.6400 -0.1522
v -0.1294 0.6400 -0.0940
v -0.1600 0.6400 0.0000
v -0.1294 0.6400 0.0940
v -0.0494 0.6400 0.1522
f 170/6 169/6 168/6 167/6 166/6 165/6 164/6 163/6 162/6 161/6
v -0.0494 0.7200 0.1522
v -0.1294 0.7200 0.0940
v -0.1600 0.7200 0.0000
v -0.1294 0.7200 -0.0940
v -0.0494 0.7200 -0.1522
v 0.0494 0.7200 -0.1522
v 0.1294 0.7200 -0.0940
v 0.1600 0.7200 -0.0000
v 0.1294 0.7200 0.0940
v 0.0494 0.7200 0.1522
f 180/6 179/6 178/6 177/6 176/6 175/6 174/6 173/6 172/6 171/6
v -0.0464 0.9200 0.1427
v -0.1214 0.9200 0.0882
v -0.1214 0.9500 0.0882
v -0.0464 0.9500 0.1427
f 184/6 183/6 182/6 181/6
v -0.1214 0.9200 0.0882
v -0.1500 0.9200 0.0000
v -0.1500 0.9500 0.0000
v -0.1214 0.9500 0.0882
f 188/6 187/6 186/6 185/6
v -0.1500 0.9200 0.0000
v -0.1214 0.9200 -0.0882
v -0.1214 0.9500 -0.0882
v -0.1500 0.9500 0.0000
f 192/6 191/6 190/6 189/6
v -0.1214 0.9200 -0.0882
v -0.0464 0.9200 -0.1427
v -0.0464 0.9500 -0.1427
v -0.1214 0.9500 -0.0882
f 196/6 195/6 194/6 193/6
v -0.0464 0.9200 -0.1427
v 0.0464 0.9200 -0.1427
v 0.0464 0.9500 -0.1427
v -0.0464 0.9500 -0.1427
f 200/6 199/6 198/6 197/6
v 0.0464 0.9200 -0.1427
v 0.1214 0.9200 -0.0882
v 0.1214 0.9500 -0.0882
v 0.0464 0.9500 -0.1427
f 204/6 203/6 202/6 201/6
v 0.1214 0.9200 -0.0882
v 0.1500 0.9200 -0.0000
v 0.1500 0.9500 -0.0000
v 0.1214 0.9500 -0.0882
f 208/6 207/6 206/6 205/6
v 0.1500 0.9200 -0.0000
v 0.1214 0.9200 0.0882
v 0.1214 0.9500 0.0882
v 0.1500 0.9500 -0.0000
f 212/6 211/6 210/6 209/6
v 0.1214 0.9200 0.0882
v 0.0464 0.9200 0.1427
v 0.0464 0.9500 0.1427
v 0.1214 0.9500 0.0882
f 216/6 215/6 214/6 213/6
v 0.0464 0.9200 0.1427
v -0.0464 0.9200 0.1427
v -0.0464 0.9500 0.1427
v 0.0464 0.9500 0.1427
f 220/6 219/6 218/6 217/6
v 0.0464 0.9200 0.1427
v 0.1214 0.9200 0.0882
v 0.1500 0.9200 -0.0000
v 0.1214 0.9200 -0.0882
v 0.0464 0.9200 -0.1427
v -0.0464 0.9200 -0.1427
v -0.1214 0.9200 -0.0882
v -0.1500 0.9200 0.0000
v -0.1214 0.9200 0.0882
v -0.0464 0.9200 0.1427
f 230/6 229/6 228/6 227/6 226/6 225/6 224/6 223/6 222/6 221/6
v -0.0464 0.9500 0.1427
v -0.1214 0.9500 0.0882
v -0.1500 0.9500 0.0000
v -0.1214 0.9500 -0.0882
v -0.0464 0.9500 -0.1427
v 0.0464 0.9500 -0.1427
v 0.1214 0.9500 -0.0882
v 0.1500 0.9500 -0.0000
v 0.1214 0.9500 0.0882
v 0.0464 0.9500 0.1427
f 240/6 239/6 238/6 237/6 236/6 235/6 234/6 233/6 232/6 231/6
