# Walk of Industry low-poly (generated, wi_lib.py)
mtllib wi.mtl
vt 0 0
vt 0.03125 0.03125
vt 0.09375 0.03125
vt 0.15625 0.03125
vt 0.21875 0.03125
vt 0.28125 0.03125
vt 0.34375 0.03125
vt 0.40625 0.03125
vt 0.46875 0.03125
vt 0.53125 0.03125
vt 0.59375 0.03125
vt 0.65625 0.03125
vt 0.71875 0.03125
vt 0.78125 0.03125
vt 0.84375 0.03125
vt 0.90625 0.03125
vt 0.96875 0.03125
vt 0.03125 0.09375
vt 0.09375 0.09375
vt 0.15625 0.09375
vt 0.21875 0.09375
vt 0.28125 0.09375
vt 0.34375 0.09375
vt 0.40625 0.09375
vt 0.46875 0.09375
vt 0.53125 0.09375
vt 0.59375 0.09375
vt 0.65625 0.09375
vt 0.71875 0.09375
vt 0.78125 0.09375
vt 0.84375 0.09375
vt 0.90625 0.09375
vt 0.96875 0.09375
o Body
usemtl wi_paint
v 0.8200 1.8500 0.0520
v 0.7900 1.8500 0.0000
v 0.7900 1.9100 0.0000
v 0.8200 1.9100 0.0520
f 4/1 3/1 2/1 1/1
v 0.7900 1.8500 0.0000
v 0.8200 1.8500 -0.0520
v 0.8200 1.9100 -0.0520
v 0.7900 1.9100 0.0000
f 8/1 7/1 6/1 5/1
v 0.8200 1.8500 -0.0520
v 0.8800 1.8500 -0.0520
v 0.8800 1.9100 -0.0520
v 0.8200 1.9100 -0.0520
f 12/1 11/1 10/1 9/1
v 0.8800 1.8500 -0.0520
v 0.9100 1.8500 -0.0000
v 0.9100 1.9100 -0.0000
v 0.8800 1.9100 -0.0520
f 16/1 15/1 14/1 13/1
v 0.9100 1.8500 -0.0000
v 0.8800 1.8500 0.0520
v 0.8800 1.9100 0.0520
v 0.9100 1.9100 -0.0000
f 20/1 19/1 18/1 17/1
v 0.8800 1.8500 0.0520
v 0.8200 1.8500 0.0520
v 0.8200 1.9100 0.0520
v 0.8800 1.9100 0.0520
f 24/1 23/1 22/1 21/1
v 0.8800 1.8500 0.0520
v 0.9100 1.8500 -0.0000
v 0.8800 1.8500 -0.0520
v 0.8200 1.8500 -0.0520
v 0.7900 1.8500 0.0000
v 0.8200 1.8500 0.0520
f 30/1 29/1 28/1 27/1 26/1 25/1
v 0.8200 1.9100 0.0520
v 0.7900 1.9100 0.0000
v 0.8200 1.9100 -0.0520
v 0.8800 1.9100 -0.0520
v 0.9100 1.9100 -0.0000
v 0.8800 1.9100 0.0520
f 36/1 35/1 34/1 33/1 32/1 31/1
v -0.8800 1.8500 0.0520
v -0.9100 1.8500 0.0000
v -0.9100 1.9100 0.0000
v -0.8800 1.9100 0.0520
f 40/1 39/1 38/1 37/1
v -0.9100 1.8500 0.0000
v -0.8800 1.8500 -0.0520
v -0.8800 1.9100 -0.0520
v -0.9100 1.9100 0.0000
f 44/1 43/1 42/1 41/1
v -0.8800 1.8500 -0.0520
v -0.8200 1.8500 -0.0520
v -0.8200 1.9100 -0.0520
v -0.8800 1.9100 -0.0520
f 48/1 47/1 46/1 45/1
v -0.8200 1.8500 -0.0520
v -0.7900 1.8500 -0.0000
v -0.7900 1.9100 -0.0000
v -0.8200 1.9100 -0.0520
f 52/1 51/1 50/1 49/1
v -0.7900 1.8500 -0.0000
v -0.8200 1.8500 0.0520
v -0.8200 1.9100 0.0520
v -0.7900 1.9100 -0.0000
f 56/1 55/1 54/1 53/1
v -0.8200 1.8500 0.0520
v -0.8800 1.8500 0.0520
v -0.8800 1.9100 0.0520
v -0.8200 1.9100 0.0520
f 60/1 59/1 58/1 57/1
v -0.8200 1.8500 0.0520
v -0.7900 1.8500 -0.0000
v -0.8200 1.8500 -0.0520
v -0.8800 1.8500 -0.0520
v -0.9100 1.8500 0.0000
v -0.8800 1.8500 0.0520
f 66/1 65/1 64/1 63/1 62/1 61/1
v -0.8800 1.9100 0.0520
v -0.9100 1.9100 0.0000
v -0.8800 1.9100 -0.0520
v -0.8200 1.9100 -0.0520
v -0.7900 1.9100 -0.0000
v -0.8200 1.9100 0.0520
f 72/1 71/1 70/1 69/1 68/1 67/1
usemtl wi_palette
v 0.9700 0.0000 0.1200
v 0.9700 0.1000 0.1200
v 0.9700 0.1000 -0.1200
v 0.9700 0.0000 -0.1200
f 76/11 75/11 74/11 73/11
v 0.7300 0.0000 -0.1200
v 0.7300 0.1000 -0.1200
v 0.7300 0.1000 0.1200
v 0.7300 0.0000 0.1200
f 80/11 79/11 78/11 77/11
v 0.9700 0.0000 -0.1200
v 0.7300 0.0000 -0.1200
v 0.7300 0.0000 0.1200
v 0.9700 0.0000 0.1200
f 84/11 83/11 82/11 81/11
v 0.9700 0.1000 0.1200
v 0.7300 0.1000 0.1200
v 0.7300 0.1000 -0.1200
v 0.9700 0.1000 -0.1200
f 88/11 87/11 86/11 85/11
v 0.9700 0.1000 -0.1200
v 0.7300 0.1000 -0.1200
v 0.7300 0.0000 -0.1200
v 0.9700 0.0000 -0.1200
f 92/11 91/11 90/11 89/11
v 0.9700 0.0000 0.1200
v 0.7300 0.0000 0.1200
v 0.7300 0.1000 0.1200
v 0.9700 0.1000 0.1200
f 96/11 95/11 94/11 93/11
v 0.8300 0.1000 0.0346
v 0.8100 0.1000 0.0000
v 0.8100 1.8500 0.0000
v 0.8300 1.8500 0.0346
f 100/22 99/22 98/22 97/22
v 0.8100 0.1000 0.0000
v 0.8300 0.1000 -0.0346
v 0.8300 1.8500 -0.0346
v 0.8100 1.8500 0.0000
f 104/22 103/22 102/22 101/22
v 0.8300 0.1000 -0.0346
v 0.8700 0.1000 -0.0346
v 0.8700 1.8500 -0.0346
v 0.8300 1.8500 -0.0346
f 108/22 107/22 106/22 105/22
v 0.8700 0.1000 -0.0346
v 0.8900 0.1000 -0.0000
v 0.8900 1.8500 -0.0000
v 0.8700 1.8500 -0.0346
f 112/22 111/22 110/22 109/22
v 0.8900 0.1000 -0.0000
v 0.8700 0.1000 0.0346
v 0.8700 1.8500 0.0346
v 0.8900 1.8500 -0.0000
f 116/22 115/22 114/22 113/22
v 0.8700 0.1000 0.0346
v 0.8300 0.1000 0.0346
v 0.8300 1.8500 0.0346
v 0.8700 1.8500 0.0346
f 120/22 119/22 118/22 117/22
v 0.8700 0.1000 0.0346
v 0.8900 0.1000 -0.0000
v 0.8700 0.1000 -0.0346
v 0.8300 0.1000 -0.0346
v 0.8100 0.1000 0.0000
v 0.8300 0.1000 0.0346
f 126/22 125/22 124/22 123/22 122/22 121/22
v 0.8300 1.8500 0.0346
v 0.8100 1.8500 0.0000
v 0.8300 1.8500 -0.0346
v 0.8700 1.8500 -0.0346
v 0.8900 1.8500 -0.0000
v 0.8700 1.8500 0.0346
f 132/22 131/22 130/22 129/22 128/22 127/22
v -0.7300 0.0000 0.1200
v -0.7300 0.1000 0.1200
v -0.7300 0.1000 -0.1200
v -0.7300 0.0000 -0.1200
f 136/11 135/11 134/11 133/11
v -0.9700 0.0000 -0.1200
v -0.9700 0.1000 -0.1200
v -0.9700 0.1000 0.1200
v -0.9700 0.0000 0.1200
f 140/11 139/11 138/11 137/11
v -0.7300 0.0000 -0.1200
v -0.9700 0.0000 -0.1200
v -0.9700 0.0000 0.1200
v -0.7300 0.0000 0.1200
f 144/11 143/11 142/11 141/11
v -0.7300 0.1000 0.1200
v -0.9700 0.1000 0.1200
v -0.9700 0.1000 -0.1200
v -0.7300 0.1000 -0.1200
f 148/11 147/11 146/11 145/11
v -0.7300 0.1000 -0.1200
v -0.9700 0.1000 -0.1200
v -0.9700 0.0000 -0.1200
v -0.7300 0.0000 -0.1200
f 152/11 151/11 150/11 149/11
v -0.7300 0.0000 0.1200
v -0.9700 0.0000 0.1200
v -0.9700 0.1000 0.1200
v -0.7300 0.1000 0.1200
f 156/11 155/11 154/11 153/11
v -0.8700 0.1000 0.0346
v -0.8900 0.1000 0.0000
v -0.8900 1.8500 0.0000
v -0.8700 1.8500 0.0346
f 160/22 159/22 158/22 157/22
v -0.8900 0.1000 0.0000
v -0.8700 0.1000 -0.0346
v -0.8700 1.8500 -0.0346
v -0.8900 1.8500 0.0000
f 164/22 163/22 162/22 161/22
v -0.8700 0.1000 -0.0346
v -0.8300 0.1000 -0.0346
v -0.8300 1.8500 -0.0346
v -0.8700 1.8500 -0.0346
f 168/22 167/22 166/22 165/22
v -0.8300 0.1000 -0.0346
v -0.8100 0.1000 -0.0000
v -0.8100 1.8500 -0.0000
v -0.8300 1.8500 -0.0346
f 172/22 171/22 170/22 169/22
v -0.8100 0.1000 -0.0000
v -0.8300 0.1000 0.0346
v -0.8300 1.8500 0.0346
v -0.8100 1.8500 -0.0000
f 176/22 175/22 174/22 173/22
v -0.8300 0.1000 0.0346
v -0.8700 0.1000 0.0346
v -0.8700 1.8500 0.0346
v -0.8300 1.8500 0.0346
f 180/22 179/22 178/22 177/22
v -0.8300 0.1000 0.0346
v -0.8100 0.1000 -0.0000
v -0.8300 0.1000 -0.0346
v -0.8700 0.1000 -0.0346
v -0.8900 0.1000 0.0000
v -0.8700 0.1000 0.0346
f 186/22 185/22 184/22 183/22 182/22 181/22
v -0.8700 1.8500 0.0346
v -0.8900 1.8500 0.0000
v -0.8700 1.8500 -0.0346
v -0.8300 1.8500 -0.0346
v -0.8100 1.8500 -0.0000
v -0.8300 1.8500 0.0346
f 192/22 191/22 190/22 189/22 188/22 187/22
v 0.6649 1.6841 0.0075
v 0.6574 1.6970 0.0075
v 0.8462 1.8065 0.0075
v 0.8538 1.7935 0.0075
f 196/6 195/6 194/6 193/6
v 0.8538 1.7935 -0.0075
v 0.8462 1.8065 -0.0075
v 0.6574 1.6970 -0.0075
v 0.6649 1.6841 -0.0075
f 200/6 199/6 198/6 197/6
v 0.8538 1.7935 0.0075
v 0.8538 1.7935 -0.0075
v 0.6649 1.6841 -0.0075
v 0.6649 1.6841 0.0075
f 204/6 203/6 202/6 201/6
v 0.6574 1.6970 0.0075
v 0.6574 1.6970 -0.0075
v 0.8462 1.8065 -0.0075
v 0.8462 1.8065 0.0075
f 208/6 207/6 206/6 205/6
v 0.8462 1.8065 0.0075
v 0.8462 1.8065 -0.0075
v 0.8538 1.7935 -0.0075
v 0.8538 1.7935 0.0075
f 212/6 211/6 210/6 209/6
v 0.6649 1.6841 0.0075
v 0.6649 1.6841 -0.0075
v 0.6574 1.6970 -0.0075
v 0.6574 1.6970 0.0075
f 216/6 215/6 214/6 213/6
v 0.4756 1.5876 0.0075
v 0.4688 1.6010 0.0075
v 0.6577 1.6972 0.0075
v 0.6645 1.6839 0.0075
f 220/6 219/6 218/6 217/6
v 0.6645 1.6839 -0.0075
v 0.6577 1.6972 -0.0075
v 0.4688 1.6010 -0.0075
v 0.4756 1.5876 -0.0075
f 224/6 223/6 222/6 221/6
v 0.6645 1.6839 0.0075
v 0.6645 1.6839 -0.0075
v 0.4756 1.5876 -0.0075
v 0.4756 1.5876 0.0075
f 228/6 227/6 226/6 225/6
v 0.4688 1.6010 0.0075
v 0.4688 1.6010 -0.0075
v 0.6577 1.6972 -0.0075
v 0.6577 1.6972 0.0075
f 232/6 231/6 230/6 229/6
v 0.6577 1.6972 0.0075
v 0.6577 1.6972 -0.0075
v 0.6645 1.6839 -0.0075
v 0.6645 1.6839 0.0075
f 236/6 235/6 234/6 233/6
v 0.4756 1.5876 0.0075
v 0.4756 1.5876 -0.0075
v 0.4688 1.6010 -0.0075
v 0.4688 1.6010 0.0075
f 240/6 239/6 238/6 237/6
v 0.2860 1.5159 0.0075
v 0.2807 1.5299 0.0075
v 0.4696 1.6013 0.0075
v 0.4749 1.5873 0.0075
f 244/6 243/6 242/6 241/6
v 0.4749 1.5873 -0.0075
v 0.4696 1.6013 -0.0075
v 0.2807 1.5299 -0.0075
v 0.2860 1.5159 -0.0075
f 248/6 247/6 246/6 245/6
v 0.4749 1.5873 0.0075
v 0.4749 1.5873 -0.0075
v 0.2860 1.5159 -0.0075
v 0.2860 1.5159 0.0075
f 252/6 251/6 250/6 249/6
v 0.2807 1.5299 0.0075
v 0.2807 1.5299 -0.0075
v 0.4696 1.6013 -0.0075
v 0.4696 1.6013 0.0075
f 256/6 255/6 254/6 253/6
v 0.4696 1.6013 0.0075
v 0.4696 1.6013 -0.0075
v 0.4749 1.5873 -0.0075
v 0.4749 1.5873 0.0075
f 260/6 259/6 258/6 257/6
v 0.2860 1.5159 0.0075
v 0.2860 1.5159 -0.0075
v 0.2807 1.5299 -0.0075
v 0.2807 1.5299 0.0075
f 264/6 263/6 262/6 261/6
v 0.0959 1.4775 0.0075
v 0.0930 1.4922 0.0075
v 0.2819 1.5302 0.0075
v 0.2848 1.5155 0.0075
f 268/6 267/6 266/6 265/6
v 0.2848 1.5155 -0.0075
v 0.2819 1.5302 -0.0075
v 0.0930 1.4922 -0.0075
v 0.0959 1.4775 -0.0075
f 272/6 271/6 270/6 269/6
v 0.2848 1.5155 0.0075
v 0.2848 1.5155 -0.0075
v 0.0959 1.4775 -0.0075
v 0.0959 1.4775 0.0075
f 276/6 275/6 274/6 273/6
v 0.0930 1.4922 0.0075
v 0.0930 1.4922 -0.0075
v 0.2819 1.5302 -0.0075
v 0.2819 1.5302 0.0075
f 280/6 279/6 278/6 277/6
v 0.2819 1.5302 0.0075
v 0.2819 1.5302 -0.0075
v 0.2848 1.5155 -0.0075
v 0.2848 1.5155 0.0075
f 284/6 283/6 282/6 281/6
v 0.0959 1.4775 0.0075
v 0.0959 1.4775 -0.0075
v 0.0930 1.4922 -0.0075
v 0.0930 1.4922 0.0075
f 288/6 287/6 286/6 285/6
v -0.0944 1.4774 0.0075
v -0.0944 1.4924 0.0075
v 0.0944 1.4924 0.0075
v 0.0944 1.4774 0.0075
f 292/6 291/6 290/6 289/6
v 0.0944 1.4774 -0.0075
v 0.0944 1.4924 -0.0075
v -0.0944 1.4924 -0.0075
v -0.0944 1.4774 -0.0075
f 296/6 295/6 294/6 293/6
v 0.0944 1.4774 0.0075
v 0.0944 1.4774 -0.0075
v -0.0944 1.4774 -0.0075
v -0.0944 1.4774 0.0075
f 300/6 299/6 298/6 297/6
v -0.0944 1.4924 0.0075
v -0.0944 1.4924 -0.0075
v 0.0944 1.4924 -0.0075
v 0.0944 1.4924 0.0075
f 304/6 303/6 302/6 301/6
v 0.0944 1.4924 0.0075
v 0.0944 1.4924 -0.0075
v 0.0944 1.4774 -0.0075
v 0.0944 1.4774 0.0075
f 308/6 307/6 306/6 305/6
v -0.0944 1.4774 0.0075
v -0.0944 1.4774 -0.0075
v -0.0944 1.4924 -0.0075
v -0.0944 1.4924 0.0075
f 312/6 311/6 310/6 309/6
v -0.2848 1.5155 0.0075
v -0.2819 1.5302 0.0075
v -0.0930 1.4922 0.0075
v -0.0959 1.4775 0.0075
f 316/6 315/6 314/6 313/6
v -0.0959 1.4775 -0.0075
v -0.0930 1.4922 -0.0075
v -0.2819 1.5302 -0.0075
v -0.2848 1.5155 -0.0075
f 320/6 319/6 318/6 317/6
v -0.0959 1.4775 0.0075
v -0.0959 1.4775 -0.0075
v -0.2848 1.5155 -0.0075
v -0.2848 1.5155 0.0075
f 324/6 323/6 322/6 321/6
v -0.2819 1.5302 0.0075
v -0.2819 1.5302 -0.0075
v -0.0930 1.4922 -0.0075
v -0.0930 1.4922 0.0075
f 328/6 327/6 326/6 325/6
v -0.0930 1.4922 0.0075
v -0.0930 1.4922 -0.0075
v -0.0959 1.4775 -0.0075
v -0.0959 1.4775 0.0075
f 332/6 331/6 330/6 329/6
v -0.2848 1.5155 0.0075
v -0.2848 1.5155 -0.0075
v -0.2819 1.5302 -0.0075
v -0.2819 1.5302 0.0075
f 336/6 335/6 334/6 333/6
v -0.4749 1.5873 0.0075
v -0.4696 1.6013 0.0075
v -0.2807 1.5299 0.0075
v -0.2860 1.5159 0.0075
f 340/6 339/6 338/6 337/6
v -0.2860 1.5159 -0.0075
v -0.2807 1.5299 -0.0075
v -0.4696 1.6013 -0.0075
v -0.4749 1.5873 -0.0075
f 344/6 343/6 342/6 341/6
v -0.2860 1.5159 0.0075
v -0.2860 1.5159 -0.0075
v -0.4749 1.5873 -0.0075
v -0.4749 1.5873 0.0075
f 348/6 347/6 346/6 345/6
v -0.4696 1.6013 0.0075
v -0.4696 1.6013 -0.0075
v -0.2807 1.5299 -0.0075
v -0.2807 1.5299 0.0075
f 352/6 351/6 350/6 349/6
v -0.2807 1.5299 0.0075
v -0.2807 1.5299 -0.0075
v -0.2860 1.5159 -0.0075
v -0.2860 1.5159 0.0075
f 356/6 355/6 354/6 353/6
v -0.4749 1.5873 0.0075
v -0.4749 1.5873 -0.0075
v -0.4696 1.6013 -0.0075
v -0.4696 1.6013 0.0075
f 360/6 359/6 358/6 357/6
v -0.6645 1.6839 0.0075
v -0.6577 1.6972 0.0075
v -0.4688 1.6010 0.0075
v -0.4756 1.5876 0.0075
f 364/6 363/6 362/6 361/6
v -0.4756 1.5876 -0.0075
v -0.4688 1.6010 -0.0075
v -0.6577 1.6972 -0.0075
v -0.6645 1.6839 -0.0075
f 368/6 367/6 366/6 365/6
v -0.4756 1.5876 0.0075
v -0.4756 1.5876 -0.0075
v -0.6645 1.6839 -0.0075
v -0.6645 1.6839 0.0075
f 372/6 371/6 370/6 369/6
v -0.6577 1.6972 0.0075
v -0.6577 1.6972 -0.0075
v -0.4688 1.6010 -0.0075
v -0.4688 1.6010 0.0075
f 376/6 375/6 374/6 373/6
v -0.4688 1.6010 0.0075
v -0.4688 1.6010 -0.0075
v -0.4756 1.5876 -0.0075
v -0.4756 1.5876 0.0075
f 380/6 379/6 378/6 377/6
v -0.6645 1.6839 0.0075
v -0.6645 1.6839 -0.0075
v -0.6577 1.6972 -0.0075
v -0.6577 1.6972 0.0075
f 384/6 383/6 382/6 381/6
v -0.8538 1.7935 0.0075
v -0.8462 1.8065 0.0075
v -0.6574 1.6970 0.0075
v -0.6649 1.6841 0.0075
f 388/6 387/6 386/6 385/6
v -0.6649 1.6841 -0.0075
v -0.6574 1.6970 -0.0075
v -0.8462 1.8065 -0.0075
v -0.8538 1.7935 -0.0075
f 392/6 391/6 390/6 389/6
v -0.6649 1.6841 0.0075
v -0.6649 1.6841 -0.0075
v -0.8538 1.7935 -0.0075
v -0.8538 1.7935 0.0075
f 396/6 395/6 394/6 393/6
v -0.8462 1.8065 0.0075
v -0.8462 1.8065 -0.0075
v -0.6574 1.6970 -0.0075
v -0.6574 1.6970 0.0075
f 400/6 399/6 398/6 397/6
v -0.6574 1.6970 0.0075
v -0.6574 1.6970 -0.0075
v -0.6649 1.6841 -0.0075
v -0.6649 1.6841 0.0075
f 404/6 403/6 402/6 401/6
v -0.8538 1.7935 0.0075
v -0.8538 1.7935 -0.0075
v -0.8462 1.8065 -0.0075
v -0.8462 1.8065 0.0075
f 408/6 407/6 406/6 405/6
