# Walk of Industry low-poly (generated, wi_lib.py)
mtllib wi.mtl
vt 0 0
vt 0.03125 0.03125
vt 0.09375 0.03125
vt 0.15625 0.03125
vt 0.21875 0.03125
vt 0.28125 0.03125
vt 0.34375 0.03125
vt 0.40625 0.03125
vt 0.46875 0.03125
vt 0.53125 0.03125
vt 0.59375 0.03125
vt 0.65625 0.03125
vt 0.71875 0.03125
vt 0.78125 0.03125
vt 0.84375 0.03125
vt 0.90625 0.03125
vt 0.96875 0.03125
vt 0.03125 0.09375
vt 0.09375 0.09375
vt 0.15625 0.09375
vt 0.21875 0.09375
vt 0.28125 0.09375
vt 0.34375 0.09375
vt 0.40625 0.09375
vt 0.46875 0.09375
vt 0.53125 0.09375
vt 0.59375 0.09375
vt 0.65625 0.09375
vt 0.71875 0.09375
vt 0.78125 0.09375
vt 0.84375 0.09375
vt 0.90625 0.09375
vt 0.96875 0.09375
o Body
usemtl wi_palette
v 0.5022 1.4893 0.0300
v 0.5022 1.5793 0.0300
v 0.5022 1.5793 -0.0300
v 0.5022 1.4893 -0.0300
f 4/19 3/19 2/19 1/19
v 0.4422 1.4893 -0.0300
v 0.4422 1.5793 -0.0300
v 0.4422 1.5793 0.0300
v 0.4422 1.4893 0.0300
f 8/19 7/19 6/19 5/19
v 0.5022 1.4893 -0.0300
v 0.4422 1.4893 -0.0300
v 0.4422 1.4893 0.0300
v 0.5022 1.4893 0.0300
f 12/19 11/19 10/19 9/19
v 0.5022 1.5793 0.0300
v 0.4422 1.5793 0.0300
v 0.4422 1.5793 -0.0300
v 0.5022 1.5793 -0.0300
f 16/19 15/19 14/19 13/19
v 0.5022 1.5793 -0.0300
v 0.4422 1.5793 -0.0300
v 0.4422 1.4893 -0.0300
v 0.5022 1.4893 -0.0300
f 20/19 19/19 18/19 17/19
v 0.5022 1.4893 0.0300
v 0.4422 1.4893 0.0300
v 0.4422 1.5793 0.0300
v 0.5022 1.5793 0.0300
f 24/19 23/19 22/19 21/19
v 0.1244 1.3799 0.0300
v 0.1244 1.4699 0.0300
v 0.1244 1.4699 -0.0300
v 0.1244 1.3799 -0.0300
f 28/18 27/18 26/18 25/18
v 0.0644 1.3799 -0.0300
v 0.0644 1.4699 -0.0300
v 0.0644 1.4699 0.0300
v 0.0644 1.3799 0.0300
f 32/18 31/18 30/18 29/18
v 0.1244 1.3799 -0.0300
v 0.0644 1.3799 -0.0300
v 0.0644 1.3799 0.0300
v 0.1244 1.3799 0.0300
f 36/18 35/18 34/18 33/18
v 0.1244 1.4699 0.0300
v 0.0644 1.4699 0.0300
v 0.0644 1.4699 -0.0300
v 0.1244 1.4699 -0.0300
f 40/18 39/18 38/18 37/18
v 0.1244 1.4699 -0.0300
v 0.0644 1.4699 -0.0300
v 0.0644 1.3799 -0.0300
v 0.1244 1.3799 -0.0300
f 44/18 43/18 42/18 41/18
v 0.1244 1.3799 0.0300
v 0.0644 1.3799 0.0300
v 0.0644 1.4699 0.0300
v 0.1244 1.4699 0.0300
f 48/18 47/18 46/18 45/18
v -0.2533 1.4179 0.0300
v -0.2533 1.5079 0.0300
v -0.2533 1.5079 -0.0300
v -0.2533 1.4179 -0.0300
f 52/19 51/19 50/19 49/19
v -0.3133 1.4179 -0.0300
v -0.3133 1.5079 -0.0300
v -0.3133 1.5079 0.0300
v -0.3133 1.4179 0.0300
f 56/19 55/19 54/19 53/19
v -0.2533 1.4179 -0.0300
v -0.3133 1.4179 -0.0300
v -0.3133 1.4179 0.0300
v -0.2533 1.4179 0.0300
f 60/19 59/19 58/19 57/19
v -0.2533 1.5079 0.0300
v -0.3133 1.5079 0.0300
v -0.3133 1.5079 -0.0300
v -0.2533 1.5079 -0.0300
f 64/19 63/19 62/19 61/19
v -0.2533 1.5079 -0.0300
v -0.3133 1.5079 -0.0300
v -0.3133 1.4179 -0.0300
v -0.2533 1.4179 -0.0300
f 68/19 67/19 66/19 65/19
v -0.2533 1.4179 0.0300
v -0.3133 1.4179 0.0300
v -0.3133 1.5079 0.0300
v -0.2533 1.5079 0.0300
f 72/19 71/19 70/19 69/19
v -0.6311 1.5856 0.0300
v -0.6311 1.6756 0.0300
v -0.6311 1.6756 -0.0300
v -0.6311 1.5856 -0.0300
f 76/18 75/18 74/18 73/18
v -0.6911 1.5856 -0.0300
v -0.6911 1.6756 -0.0300
v -0.6911 1.6756 0.0300
v -0.6911 1.5856 0.0300
f 80/18 79/18 78/18 77/18
v -0.6311 1.5856 -0.0300
v -0.6911 1.5856 -0.0300
v -0.6911 1.5856 0.0300
v -0.6311 1.5856 0.0300
f 84/18 83/18 82/18 81/18
v -0.6311 1.6756 0.0300
v -0.6911 1.6756 0.0300
v -0.6911 1.6756 -0.0300
v -0.6311 1.6756 -0.0300
f 88/18 87/18 86/18 85/18
v -0.6311 1.6756 -0.0300
v -0.6911 1.6756 -0.0300
v -0.6911 1.5856 -0.0300
v -0.6311 1.5856 -0.0300
f 92/18 91/18 90/18 89/18
v -0.6311 1.5856 0.0300
v -0.6911 1.5856 0.0300
v -0.6911 1.6756 0.0300
v -0.6311 1.6756 0.0300
f 96/18 95/18 94/18 93/18
