# Walk of Industry low-poly (generated, wi_lib.py)
mtllib wi.mtl
vt 0 0
vt 0.03125 0.03125
vt 0.09375 0.03125
vt 0.15625 0.03125
vt 0.21875 0.03125
vt 0.28125 0.03125
vt 0.34375 0.03125
vt 0.40625 0.03125
vt 0.46875 0.03125
vt 0.53125 0.03125
vt 0.59375 0.03125
vt 0.65625 0.03125
vt 0.71875 0.03125
vt 0.78125 0.03125
vt 0.84375 0.03125
vt 0.90625 0.03125
vt 0.96875 0.03125
vt 0.03125 0.09375
vt 0.09375 0.09375
vt 0.15625 0.09375
vt 0.21875 0.09375
vt 0.28125 0.09375
vt 0.34375 0.09375
vt 0.40625 0.09375
vt 0.46875 0.09375
vt 0.53125 0.09375
vt 0.59375 0.09375
vt 0.65625 0.09375
vt 0.71875 0.09375
vt 0.78125 0.09375
vt 0.84375 0.09375
vt 0.90625 0.09375
vt 0.96875 0.09375
o Body
usemtl wi_paint
v 0.0000 -0.5600 0.0100
v 0.0000 0.0000 0.0100
v 0.0000 0.0000 -0.0100
v 0.0000 -0.5600 -0.0100
f 4/1 3/1 2/1 1/1
v -0.9200 -0.5600 -0.0100
v -0.9200 0.0000 -0.0100
v -0.9200 0.0000 0.0100
v -0.9200 -0.5600 0.0100
f 8/1 7/1 6/1 5/1
v 0.0000 -0.5600 -0.0100
v -0.9200 -0.5600 -0.0100
v -0.9200 -0.5600 0.0100
v 0.0000 -0.5600 0.0100
f 12/1 11/1 10/1 9/1
v 0.0000 0.0000 0.0100
v -0.9200 0.0000 0.0100
v -0.9200 0.0000 -0.0100
v 0.0000 0.0000 -0.0100
f 16/1 15/1 14/1 13/1
v 0.0000 0.0000 -0.0100
v -0.9200 0.0000 -0.0100
v -0.9200 -0.5600 -0.0100
v 0.0000 -0.5600 -0.0100
f 20/1 19/1 18/1 17/1
v 0.0000 -0.5600 0.0100
v -0.9200 -0.5600 0.0100
v -0.9200 0.0000 0.0100
v 0.0000 0.0000 0.0100
f 24/1 23/1 22/1 21/1
usemtl wi_palette
v -0.4600 -0.4921 0.0145
v -0.2479 -0.2800 0.0145
v -0.2479 -0.2800 0.0095
v -0.4600 -0.4921 0.0095
f 28/15 27/15 26/15 25/15
v -0.6721 -0.2800 0.0095
v -0.4600 -0.0679 0.0095
v -0.4600 -0.0679 0.0145
v -0.6721 -0.2800 0.0145
f 32/15 31/15 30/15 29/15
v -0.4600 -0.4921 0.0095
v -0.6721 -0.2800 0.0095
v -0.6721 -0.2800 0.0145
v -0.4600 -0.4921 0.0145
f 36/15 35/15 34/15 33/15
v -0.2479 -0.2800 0.0145
v -0.4600 -0.0679 0.0145
v -0.4600 -0.0679 0.0095
v -0.2479 -0.2800 0.0095
f 40/15 39/15 38/15 37/15
v -0.2479 -0.2800 0.0095
v -0.4600 -0.0679 0.0095
v -0.6721 -0.2800 0.0095
v -0.4600 -0.4921 0.0095
f 44/15 43/15 42/15 41/15
v -0.4600 -0.4921 0.0145
v -0.6721 -0.2800 0.0145
v -0.4600 -0.0679 0.0145
v -0.2479 -0.2800 0.0145
f 48/15 47/15 46/15 45/15
v -0.4600 -0.4921 -0.0095
v -0.2479 -0.2800 -0.0095
v -0.2479 -0.2800 -0.0145
v -0.4600 -0.4921 -0.0145
f 52/15 51/15 50/15 49/15
v -0.6721 -0.2800 -0.0145
v -0.4600 -0.0679 -0.0145
v -0.4600 -0.0679 -0.0095
v -0.6721 -0.2800 -0.0095
f 56/15 55/15 54/15 53/15
v -0.4600 -0.4921 -0.0145
v -0.6721 -0.2800 -0.0145
v -0.6721 -0.2800 -0.0095
v -0.4600 -0.4921 -0.0095
f 60/15 59/15 58/15 57/15
v -0.2479 -0.2800 -0.0095
v -0.4600 -0.0679 -0.0095
v -0.4600 -0.0679 -0.0145
v -0.2479 -0.2800 -0.0145
f 64/15 63/15 62/15 61/15
v -0.2479 -0.2800 -0.0145
v -0.4600 -0.0679 -0.0145
v -0.6721 -0.2800 -0.0145
v -0.4600 -0.4921 -0.0145
f 68/15 67/15 66/15 65/15
v -0.4600 -0.4921 -0.0095
v -0.6721 -0.2800 -0.0095
v -0.4600 -0.0679 -0.0095
v -0.2479 -0.2800 -0.0095
f 72/15 71/15 70/15 69/15
v 0.0150 -0.5800 0.0150
v 0.0150 0.0200 0.0150
v 0.0150 0.0200 -0.0150
v 0.0150 -0.5800 -0.0150
f 76/15 75/15 74/15 73/15
v -0.0150 -0.5800 -0.0150
v -0.0150 0.0200 -0.0150
v -0.0150 0.0200 0.0150
v -0.0150 -0.5800 0.0150
f 80/15 79/15 78/15 77/15
v 0.0150 -0.5800 -0.0150
v -0.0150 -0.5800 -0.0150
v -0.0150 -0.5800 0.0150
v 0.0150 -0.5800 0.0150
f 84/15 83/15 82/15 81/15
v 0.0150 0.0200 0.0150
v -0.0150 0.0200 0.0150
v -0.0150 0.0200 -0.0150
v 0.0150 0.0200 -0.0150
f 88/15 87/15 86/15 85/15
v 0.0150 0.0200 -0.0150
v -0.0150 0.0200 -0.0150
v -0.0150 -0.5800 -0.0150
v 0.0150 -0.5800 -0.0150
f 92/15 91/15 90/15 89/15
v 0.0150 -0.5800 0.0150
v -0.0150 -0.5800 0.0150
v -0.0150 0.0200 0.0150
v 0.0150 0.0200 0.0150
f 96/15 95/15 94/15 93/15
