# Walk of Industry low-poly (generated, wi_lib.py)
mtllib wi.mtl
vt 0 0
vt 0.03125 0.03125
vt 0.09375 0.03125
vt 0.15625 0.03125
vt 0.21875 0.03125
vt 0.28125 0.03125
vt 0.34375 0.03125
vt 0.40625 0.03125
vt 0.46875 0.03125
vt 0.53125 0.03125
vt 0.59375 0.03125
vt 0.65625 0.03125
vt 0.71875 0.03125
vt 0.78125 0.03125
vt 0.84375 0.03125
vt 0.90625 0.03125
vt 0.96875 0.03125
vt 0.03125 0.09375
vt 0.09375 0.09375
vt 0.15625 0.09375
vt 0.21875 0.09375
vt 0.28125 0.09375
vt 0.34375 0.09375
vt 0.40625 0.09375
vt 0.46875 0.09375
vt 0.53125 0.09375
vt 0.59375 0.09375
vt 0.65625 0.09375
vt 0.71875 0.09375
vt 0.78125 0.09375
vt 0.84375 0.09375
vt 0.90625 0.09375
vt 0.96875 0.09375
o Body
usemtl wi_palette
v -0.1916 0.0000 0.5897
v -0.5016 0.0000 0.3644
v -0.5016 0.0500 0.3644
v -0.1916 0.0500 0.5897
f 4/30 3/30 2/30 1/30
v -0.5016 0.0000 0.3644
v -0.6200 0.0000 0.0000
v -0.6200 0.0500 0.0000
v -0.5016 0.0500 0.3644
f 8/30 7/30 6/30 5/30
v -0.6200 0.0000 0.0000
v -0.5016 0.0000 -0.3644
v -0.5016 0.0500 -0.3644
v -0.6200 0.0500 0.0000
f 12/30 11/30 10/30 9/30
v -0.5016 0.0000 -0.3644
v -0.1916 0.0000 -0.5897
v -0.1916 0.0500 -0.5897
v -0.5016 0.0500 -0.3644
f 16/30 15/30 14/30 13/30
v -0.1916 0.0000 -0.5897
v 0.1916 0.0000 -0.5897
v 0.1916 0.0500 -0.5897
v -0.1916 0.0500 -0.5897
f 20/30 19/30 18/30 17/30
v 0.1916 0.0000 -0.5897
v 0.5016 0.0000 -0.3644
v 0.5016 0.0500 -0.3644
v 0.1916 0.0500 -0.5897
f 24/30 23/30 22/30 21/30
v 0.5016 0.0000 -0.3644
v 0.6200 0.0000 -0.0000
v 0.6200 0.0500 -0.0000
v 0.5016 0.0500 -0.3644
f 28/30 27/30 26/30 25/30
v 0.6200 0.0000 -0.0000
v 0.5016 0.0000 0.3644
v 0.5016 0.0500 0.3644
v 0.6200 0.0500 -0.0000
f 32/30 31/30 30/30 29/30
v 0.5016 0.0000 0.3644
v 0.1916 0.0000 0.5897
v 0.1916 0.0500 0.5897
v 0.5016 0.0500 0.3644
f 36/30 35/30 34/30 33/30
v 0.1916 0.0000 0.5897
v -0.1916 0.0000 0.5897
v -0.1916 0.0500 0.5897
v 0.1916 0.0500 0.5897
f 40/30 39/30 38/30 37/30
v 0.1916 0.0000 0.5897
v 0.5016 0.0000 0.3644
v 0.6200 0.0000 -0.0000
v 0.5016 0.0000 -0.3644
v 0.1916 0.0000 -0.5897
v -0.1916 0.0000 -0.5897
v -0.5016 0.0000 -0.3644
v -0.6200 0.0000 0.0000
v -0.5016 0.0000 0.3644
v -0.1916 0.0000 0.5897
f 50/30 49/30 48/30 47/30 46/30 45/30 44/30 43/30 42/30 41/30
v -0.1916 0.0500 0.5897
v -0.5016 0.0500 0.3644
v -0.6200 0.0500 0.0000
v -0.5016 0.0500 -0.3644
v -0.1916 0.0500 -0.5897
v 0.1916 0.0500 -0.5897
v 0.5016 0.0500 -0.3644
v 0.6200 0.0500 -0.0000
v 0.5016 0.0500 0.3644
v 0.1916 0.0500 0.5897
f 60/30 59/30 58/30 57/30 56/30 55/30 54/30 53/30 52/30 51/30
v -0.0868 0.0000 0.1802
v -0.1950 0.0000 0.0445
v -0.1267 1.6000 0.0289
v -0.0564 1.6000 0.1171
f 64/22 63/22 62/22 61/22
v -0.1950 0.0000 0.0445
v -0.1564 0.0000 -0.1247
v -0.1016 1.6000 -0.0811
v -0.1267 1.6000 0.0289
f 68/22 67/22 66/22 65/22
v -0.1564 0.0000 -0.1247
v -0.0000 0.0000 -0.2000
v -0.0000 1.6000 -0.1300
v -0.1016 1.6000 -0.0811
f 72/22 71/22 70/22 69/22
v -0.0000 0.0000 -0.2000
v 0.1564 0.0000 -0.1247
v 0.1016 1.6000 -0.0811
v -0.0000 1.6000 -0.1300
f 76/22 75/22 74/22 73/22
v 0.1564 0.0000 -0.1247
v 0.1950 0.0000 0.0445
v 0.1267 1.6000 0.0289
v 0.1016 1.6000 -0.0811
f 80/22 79/22 78/22 77/22
v 0.1950 0.0000 0.0445
v 0.0868 0.0000 0.1802
v 0.0564 1.6000 0.1171
v 0.1267 1.6000 0.0289
f 84/22 83/22 82/22 81/22
v 0.0868 0.0000 0.1802
v -0.0868 0.0000 0.1802
v -0.0564 1.6000 0.1171
v 0.0564 1.6000 0.1171
f 88/22 87/22 86/22 85/22
v 0.0868 0.0000 0.1802
v 0.1950 0.0000 0.0445
v 0.1564 0.0000 -0.1247
v -0.0000 0.0000 -0.2000
v -0.1564 0.0000 -0.1247
v -0.1950 0.0000 0.0445
v -0.0868 0.0000 0.1802
f 95/22 94/22 93/22 92/22 91/22 90/22 89/22
v -0.0564 1.6000 0.1171
v -0.1267 1.6000 0.0289
v -0.1016 1.6000 -0.0811
v -0.0000 1.6000 -0.1300
v 0.1016 1.6000 -0.0811
v 0.1267 1.6000 0.0289
v 0.0564 1.6000 0.1171
f 102/22 101/22 100/22 99/22 98/22 97/22 96/22
v -0.0169 0.0467 -0.0627
v 0.0169 0.0756 0.0202
v -0.3883 0.0783 0.1512
v -0.4010 0.0675 0.1201
f 106/22 105/22 104/22 103/22
v 0.0169 0.0756 0.0202
v 0.0274 0.0000 0.0752
v -0.3844 0.0500 0.1718
v -0.3883 0.0783 0.1512
f 110/22 109/22 108/22 107/22
v 0.0274 0.0000 0.0752
v 0.0000 -0.0756 0.0263
v -0.3947 0.0217 0.1535
v -0.3844 0.0500 0.1718
f 114/22 113/22 112/22 111/22
v 0.0000 -0.0756 0.0263
v -0.0274 -0.0467 -0.0589
v -0.4049 0.0325 0.1216
v -0.3947 0.0217 0.1535
f 118/22 117/22 116/22 115/22
v -0.0274 -0.0467 -0.0589
v -0.0169 0.0467 -0.0627
v -0.4010 0.0675 0.1201
v -0.4049 0.0325 0.1216
f 122/22 121/22 120/22 119/22
v -0.0274 -0.0467 -0.0589
v 0.0000 -0.0756 0.0263
v 0.0274 0.0000 0.0752
v 0.0169 0.0756 0.0202
v -0.0169 0.0467 -0.0627
f 127/22 126/22 125/22 124/22 123/22
v -0.4010 0.0675 0.1201
v -0.3883 0.0783 0.1512
v -0.3844 0.0500 0.1718
v -0.3947 0.0217 0.1535
v -0.4049 0.0325 0.1216
f 132/22 131/22 130/22 129/22 128/22
v 0.0080 1.2791 -0.0632
v 0.0516 1.2971 0.0042
v -0.4403 1.7769 0.1734
v -0.4653 1.7666 0.1349
f 136/22 135/22 134/22 133/22
v 0.0516 1.2971 0.0042
v 0.0239 1.2500 0.0658
v -0.4562 1.7500 0.2086
v -0.4403 1.7769 0.1734
f 140/22 139/22 138/22 137/22
v 0.0239 1.2500 0.0658
v -0.0368 1.2029 0.0364
v -0.4909 1.7231 0.1918
v -0.4562 1.7500 0.2086
f 144/22 143/22 142/22 141/22
v -0.0368 1.2029 0.0364
v -0.0467 1.2209 -0.0433
v -0.4965 1.7334 0.1463
v -0.4909 1.7231 0.1918
f 148/22 147/22 146/22 145/22
v -0.0467 1.2209 -0.0433
v 0.0080 1.2791 -0.0632
v -0.4653 1.7666 0.1349
v -0.4965 1.7334 0.1463
f 152/22 151/22 150/22 149/22
v -0.0467 1.2209 -0.0433
v -0.0368 1.2029 0.0364
v 0.0239 1.2500 0.0658
v 0.0516 1.2971 0.0042
v 0.0080 1.2791 -0.0632
f 157/22 156/22 155/22 154/22 153/22
v -0.4653 1.7666 0.1349
v -0.4403 1.7769 0.1734
v -0.4562 1.7500 0.2086
v -0.4909 1.7231 0.1918
v -0.4965 1.7334 0.1463
f 162/22 161/22 160/22 159/22 158/22
v -0.0459 0.0467 0.0460
v 0.0090 0.0756 -0.0247
v 0.3251 0.0783 0.2607
v 0.3045 0.0675 0.2872
f 166/22 165/22 164/22 163/22
v 0.0090 0.0756 -0.0247
v 0.0514 0.0000 -0.0613
v 0.3410 0.0500 0.2470
v 0.3251 0.0783 0.2607
f 170/22 169/22 168/22 167/22
v 0.0514 0.0000 -0.0613
v 0.0228 -0.0756 -0.0132
v 0.3303 0.0217 0.2650
v 0.3410 0.0500 0.2470
f 174/22 173/22 172/22 171/22
v 0.0228 -0.0756 -0.0132
v -0.0373 -0.0467 0.0532
v 0.3077 0.0325 0.2899
v 0.3303 0.0217 0.2650
f 178/22 177/22 176/22 175/22
v -0.0373 -0.0467 0.0532
v -0.0459 0.0467 0.0460
v 0.3045 0.0675 0.2872
v 0.3077 0.0325 0.2899
f 182/22 181/22 180/22 179/22
v -0.0373 -0.0467 0.0532
v 0.0228 -0.0756 -0.0132
v 0.0514 0.0000 -0.0613
v 0.0090 0.0756 -0.0247
v -0.0459 0.0467 0.0460
f 187/22 186/22 185/22 184/22 183/22
v 0.3045 0.0675 0.2872
v 0.3251 0.0783 0.2607
v 0.3410 0.0500 0.2470
v 0.3303 0.0217 0.2650
v 0.3077 0.0325 0.2899
f 192/22 191/22 190/22 189/22 188/22
v -0.0598 1.2775 0.0237
v -0.0240 1.2945 -0.0484
v 0.3310 1.7754 0.2616
v 0.3105 1.7657 0.3028
f 196/22 195/22 194/22 193/22
v -0.0240 1.2945 -0.0484
v 0.0450 1.2500 -0.0536
v 0.3704 1.7500 0.2586
v 0.3310 1.7754 0.2616
f 200/22 199/22 198/22 197/22
v 0.0450 1.2500 -0.0536
v 0.0518 1.2055 0.0152
v 0.3743 1.7246 0.2980
v 0.3704 1.7500 0.2586
f 204/22 203/22 202/22 201/22
v 0.0518 1.2055 0.0152
v -0.0130 1.2225 0.0630
v 0.3373 1.7343 0.3253
v 0.3743 1.7246 0.2980
f 208/22 207/22 206/22 205/22
v -0.0130 1.2225 0.0630
v -0.0598 1.2775 0.0237
v 0.3105 1.7657 0.3028
v 0.3373 1.7343 0.3253
f 212/22 211/22 210/22 209/22
v -0.0130 1.2225 0.0630
v 0.0518 1.2055 0.0152
v 0.0450 1.2500 -0.0536
v -0.0240 1.2945 -0.0484
v -0.0598 1.2775 0.0237
f 217/22 216/22 215/22 214/22 213/22
v 0.3105 1.7657 0.3028
v 0.3310 1.7754 0.2616
v 0.3704 1.7500 0.2586
v 0.3743 1.7246 0.2980
v 0.3373 1.7343 0.3253
f 222/22 221/22 220/22 219/22 218/22
v 0.0628 0.0467 0.0167
v -0.0259 0.0756 0.0046
v 0.0632 0.0783 -0.4119
v 0.0965 0.0675 -0.4074
f 226/22 225/22 224/22 223/22
v -0.0259 0.0756 0.0046
v -0.0788 0.0000 -0.0139
v 0.0434 0.0500 -0.4188
v 0.0632 0.0783 -0.4119
f 230/22 229/22 228/22 227/22
v -0.0788 0.0000 -0.0139
v -0.0228 -0.0756 -0.0132
v 0.0644 0.0217 -0.4186
v 0.0434 0.0500 -0.4188
f 234/22 233/22 232/22 231/22
v -0.0228 -0.0756 -0.0132
v 0.0647 -0.0467 0.0058
v 0.0972 0.0325 -0.4115
v 0.0644 0.0217 -0.4186
f 238/22 237/22 236/22 235/22
v 0.0647 -0.0467 0.0058
v 0.0628 0.0467 0.0167
v 0.0965 0.0675 -0.4074
v 0.0972 0.0325 -0.4115
f 242/22 241/22 240/22 239/22
v 0.0647 -0.0467 0.0058
v -0.0228 -0.0756 -0.0132
v -0.0788 0.0000 -0.0139
v -0.0259 0.0756 0.0046
v 0.0628 0.0467 0.0167
f 247/22 246/22 245/22 244/22 243/22
v 0.0965 0.0675 -0.4074
v 0.0632 0.0783 -0.4119
v 0.0434 0.0500 -0.4188
v 0.0644 0.0217 -0.4186
v 0.0972 0.0325 -0.4115
f 252/22 251/22 250/22 249/22 248/22
v 0.0507 1.2791 0.0385
v -0.0295 1.2971 0.0426
v 0.0700 1.7769 -0.4681
v 0.1158 1.7666 -0.4704
f 256/22 255/22 254/22 253/22
v -0.0295 1.2971 0.0426
v -0.0689 1.2500 -0.0122
v 0.0474 1.7500 -0.4993
v 0.0700 1.7769 -0.4681
f 260/22 259/22 258/22 257/22
v -0.0689 1.2500 -0.0122
v -0.0131 1.2029 -0.0501
v 0.0793 1.7231 -0.5210
v 0.0474 1.7500 -0.4993
f 264/22 263/22 262/22 261/22
v -0.0131 1.2029 -0.0501
v 0.0608 1.2209 -0.0188
v 0.1216 1.7334 -0.5032
v 0.0793 1.7231 -0.5210
f 268/22 267/22 266/22 265/22
v 0.0608 1.2209 -0.0188
v 0.0507 1.2791 0.0385
v 0.1158 1.7666 -0.4704
v 0.1216 1.7334 -0.5032
f 272/22 271/22 270/22 269/22
v 0.0608 1.2209 -0.0188
v -0.0131 1.2029 -0.0501
v -0.0689 1.2500 -0.0122
v -0.0295 1.2971 0.0426
v 0.0507 1.2791 0.0385
f 277/22 276/22 275/22 274/22 273/22
v 0.1158 1.7666 -0.4704
v 0.0700 1.7769 -0.4681
v 0.0474 1.7500 -0.4993
v 0.0793 1.7231 -0.5210
v 0.1216 1.7334 -0.5032
f 282/22 281/22 280/22 279/22 278/22
