# Walk of Industry low-poly (generated, wi_lib.py)
mtllib wi.mtl
vt 0 0
vt 0.03125 0.03125
vt 0.09375 0.03125
vt 0.15625 0.03125
vt 0.21875 0.03125
vt 0.28125 0.03125
vt 0.34375 0.03125
vt 0.40625 0.03125
vt 0.46875 0.03125
vt 0.53125 0.03125
vt 0.59375 0.03125
vt 0.65625 0.03125
vt 0.71875 0.03125
vt 0.78125 0.03125
vt 0.84375 0.03125
vt 0.90625 0.03125
vt 0.96875 0.03125
vt 0.03125 0.09375
vt 0.09375 0.09375
vt 0.15625 0.09375
vt 0.21875 0.09375
vt 0.28125 0.09375
vt 0.34375 0.09375
vt 0.40625 0.09375
vt 0.46875 0.09375
vt 0.53125 0.09375
vt 0.59375 0.09375
vt 0.65625 0.09375
vt 0.71875 0.09375
vt 0.78125 0.09375
vt 0.84375 0.09375
vt 0.90625 0.09375
vt 0.96875 0.09375
o Body
usemtl wi_palette
v 0.9500 0.0000 0.4700
v 0.9500 0.2000 0.4700
v 0.9500 0.2000 0.3700
v 0.9500 0.0000 0.3700
f 4/11 3/11 2/11 1/11
v -0.9500 0.0000 0.3700
v -0.9500 0.2000 0.3700
v -0.9500 0.2000 0.4700
v -0.9500 0.0000 0.4700
f 8/11 7/11 6/11 5/11
v 0.9500 0.0000 0.3700
v -0.9500 0.0000 0.3700
v -0.9500 0.0000 0.4700
v 0.9500 0.0000 0.4700
f 12/11 11/11 10/11 9/11
v 0.9500 0.2000 0.4700
v -0.9500 0.2000 0.4700
v -0.9500 0.2000 0.3700
v 0.9500 0.2000 0.3700
f 16/11 15/11 14/11 13/11
v 0.9500 0.2000 0.3700
v -0.9500 0.2000 0.3700
v -0.9500 0.0000 0.3700
v 0.9500 0.0000 0.3700
f 20/11 19/11 18/11 17/11
v 0.9500 0.0000 0.4700
v -0.9500 0.0000 0.4700
v -0.9500 0.2000 0.4700
v 0.9500 0.2000 0.4700
f 24/11 23/11 22/11 21/11
v 0.9500 0.0000 -0.3700
v 0.9500 0.2000 -0.3700
v 0.9500 0.2000 -0.4700
v 0.9500 0.0000 -0.4700
f 28/11 27/11 26/11 25/11
v -0.9500 0.0000 -0.4700
v -0.9500 0.2000 -0.4700
v -0.9500 0.2000 -0.3700
v -0.9500 0.0000 -0.3700
f 32/11 31/11 30/11 29/11
v 0.9500 0.0000 -0.4700
v -0.9500 0.0000 -0.4700
v -0.9500 0.0000 -0.3700
v 0.9500 0.0000 -0.3700
f 36/11 35/11 34/11 33/11
v 0.9500 0.2000 -0.3700
v -0.9500 0.2000 -0.3700
v -0.9500 0.2000 -0.4700
v 0.9500 0.2000 -0.4700
f 40/11 39/11 38/11 37/11
v 0.9500 0.2000 -0.4700
v -0.9500 0.2000 -0.4700
v -0.9500 0.0000 -0.4700
v 0.9500 0.0000 -0.4700
f 44/11 43/11 42/11 41/11
v 0.9500 0.0000 -0.3700
v -0.9500 0.0000 -0.3700
v -0.9500 0.2000 -0.3700
v 0.9500 0.2000 -0.3700
f 48/11 47/11 46/11 45/11
v -0.8500 0.0000 0.3700
v -0.8500 0.2000 0.3700
v -0.8500 0.2000 -0.3700
v -0.8500 0.0000 -0.3700
f 52/11 51/11 50/11 49/11
v -0.9500 0.0000 -0.3700
v -0.9500 0.2000 -0.3700
v -0.9500 0.2000 0.3700
v -0.9500 0.0000 0.3700
f 56/11 55/11 54/11 53/11
v -0.8500 0.0000 -0.3700
v -0.9500 0.0000 -0.3700
v -0.9500 0.0000 0.3700
v -0.8500 0.0000 0.3700
f 60/11 59/11 58/11 57/11
v -0.8500 0.2000 0.3700
v -0.9500 0.2000 0.3700
v -0.9500 0.2000 -0.3700
v -0.8500 0.2000 -0.3700
f 64/11 63/11 62/11 61/11
v -0.8500 0.2000 -0.3700
v -0.9500 0.2000 -0.3700
v -0.9500 0.0000 -0.3700
v -0.8500 0.0000 -0.3700
f 68/11 67/11 66/11 65/11
v -0.8500 0.0000 0.3700
v -0.9500 0.0000 0.3700
v -0.9500 0.2000 0.3700
v -0.8500 0.2000 0.3700
f 72/11 71/11 70/11 69/11
v 0.9500 0.0000 0.3700
v 0.9500 0.2000 0.3700
v 0.9500 0.2000 -0.3700
v 0.9500 0.0000 -0.3700
f 76/11 75/11 74/11 73/11
v 0.8500 0.0000 -0.3700
v 0.8500 0.2000 -0.3700
v 0.8500 0.2000 0.3700
v 0.8500 0.0000 0.3700
f 80/11 79/11 78/11 77/11
v 0.9500 0.0000 -0.3700
v 0.8500 0.0000 -0.3700
v 0.8500 0.0000 0.3700
v 0.9500 0.0000 0.3700
f 84/11 83/11 82/11 81/11
v 0.9500 0.2000 0.3700
v 0.8500 0.2000 0.3700
v 0.8500 0.2000 -0.3700
v 0.9500 0.2000 -0.3700
f 88/11 87/11 86/11 85/11
v 0.9500 0.2000 -0.3700
v 0.8500 0.2000 -0.3700
v 0.8500 0.0000 -0.3700
v 0.9500 0.0000 -0.3700
f 92/11 91/11 90/11 89/11
v 0.9500 0.0000 0.3700
v 0.8500 0.0000 0.3700
v 0.8500 0.2000 0.3700
v 0.9500 0.2000 0.3700
f 96/11 95/11 94/11 93/11
v 0.8600 0.0000 0.3800
v 0.8600 0.1600 0.3800
v 0.8600 0.1600 -0.3800
v 0.8600 0.0000 -0.3800
f 100/5 99/5 98/5 97/5
v -0.8600 0.0000 -0.3800
v -0.8600 0.1600 -0.3800
v -0.8600 0.1600 0.3800
v -0.8600 0.0000 0.3800
f 104/5 103/5 102/5 101/5
v 0.8600 0.0000 -0.3800
v -0.8600 0.0000 -0.3800
v -0.8600 0.0000 0.3800
v 0.8600 0.0000 0.3800
f 108/5 107/5 106/5 105/5
v 0.8600 0.1600 0.3800
v -0.8600 0.1600 0.3800
v -0.8600 0.1600 -0.3800
v 0.8600 0.1600 -0.3800
f 112/5 111/5 110/5 109/5
v 0.8600 0.1600 -0.3800
v -0.8600 0.1600 -0.3800
v -0.8600 0.0000 -0.3800
v 0.8600 0.0000 -0.3800
f 116/5 115/5 114/5 113/5
v 0.8600 0.0000 0.3800
v -0.8600 0.0000 0.3800
v -0.8600 0.1600 0.3800
v 0.8600 0.1600 0.3800
f 120/5 119/5 118/5 117/5
v 0.7656 0.1600 -0.2486
v 0.7656 0.4762 -0.2486
v 0.7656 0.4762 -0.2736
v 0.7656 0.1600 -0.2736
f 124/21 123/21 122/21 121/21
v 0.7406 0.1600 -0.2736
v 0.7406 0.4762 -0.2736
v 0.7406 0.4762 -0.2486
v 0.7406 0.1600 -0.2486
f 128/21 127/21 126/21 125/21
v 0.7656 0.1600 -0.2736
v 0.7406 0.1600 -0.2736
v 0.7406 0.1600 -0.2486
v 0.7656 0.1600 -0.2486
f 132/21 131/21 130/21 129/21
v 0.7656 0.4762 -0.2486
v 0.7406 0.4762 -0.2486
v 0.7406 0.4762 -0.2736
v 0.7656 0.4762 -0.2736
f 136/21 135/21 134/21 133/21
v 0.7656 0.4762 -0.2736
v 0.7406 0.4762 -0.2736
v 0.7406 0.1600 -0.2736
v 0.7656 0.1600 -0.2736
f 140/21 139/21 138/21 137/21
v 0.7656 0.1600 -0.2486
v 0.7406 0.1600 -0.2486
v 0.7406 0.4762 -0.2486
v 0.7656 0.4762 -0.2486
f 144/21 143/21 142/21 141/21
v 0.7278 0.1850 -0.2237
v 0.7278 0.2150 -0.2237
v 0.7478 0.2150 -0.2584
v 0.7478 0.1850 -0.2584
f 148/20 147/20 146/20 145/20
v 0.6785 0.1850 -0.2984
v 0.6785 0.2150 -0.2984
v 0.6585 0.2150 -0.2637
v 0.6585 0.1850 -0.2637
f 152/20 151/20 150/20 149/20
v 0.7478 0.1850 -0.2584
v 0.6785 0.1850 -0.2984
v 0.6585 0.1850 -0.2637
v 0.7278 0.1850 -0.2237
f 156/20 155/20 154/20 153/20
v 0.7278 0.2150 -0.2237
v 0.6585 0.2150 -0.2637
v 0.6785 0.2150 -0.2984
v 0.7478 0.2150 -0.2584
f 160/20 159/20 158/20 157/20
v 0.7478 0.2150 -0.2584
v 0.6785 0.2150 -0.2984
v 0.6785 0.1850 -0.2984
v 0.7478 0.1850 -0.2584
f 164/20 163/20 162/20 161/20
v 0.7278 0.1850 -0.2237
v 0.6585 0.1850 -0.2637
v 0.6585 0.2150 -0.2637
v 0.7278 0.2150 -0.2237
f 168/20 167/20 166/20 165/20
v 0.7531 0.4612 -0.1974
v 0.7531 0.5112 -0.1974
v 0.8168 0.5112 -0.2611
v 0.8168 0.4612 -0.2611
f 172/26 171/26 170/26 169/26
v 0.7531 0.4612 -0.3247
v 0.7531 0.5112 -0.3247
v 0.6895 0.5112 -0.2611
v 0.6895 0.4612 -0.2611
f 176/26 175/26 174/26 173/26
v 0.8168 0.4612 -0.2611
v 0.7531 0.4612 -0.3247
v 0.6895 0.4612 -0.2611
v 0.7531 0.4612 -0.1974
f 180/26 179/26 178/26 177/26
v 0.7531 0.5112 -0.1974
v 0.6895 0.5112 -0.2611
v 0.7531 0.5112 -0.3247
v 0.8168 0.5112 -0.2611
f 184/26 183/26 182/26 181/26
v 0.8168 0.5112 -0.2611
v 0.7531 0.5112 -0.3247
v 0.7531 0.4612 -0.3247
v 0.8168 0.4612 -0.2611
f 188/26 187/26 186/26 185/26
v 0.7531 0.4612 -0.1974
v 0.6895 0.4612 -0.2611
v 0.6895 0.5112 -0.2611
v 0.7531 0.5112 -0.1974
f 192/26 191/26 190/26 189/26
v 0.7259 0.1600 -0.0200
v 0.7259 0.4320 -0.0200
v 0.7259 0.4320 -0.0450
v 0.7259 0.1600 -0.0450
f 196/21 195/21 194/21 193/21
v 0.7009 0.1600 -0.0450
v 0.7009 0.4320 -0.0450
v 0.7009 0.4320 -0.0200
v 0.7009 0.1600 -0.0200
f 200/21 199/21 198/21 197/21
v 0.7259 0.1600 -0.0450
v 0.7009 0.1600 -0.0450
v 0.7009 0.1600 -0.0200
v 0.7259 0.1600 -0.0200
f 204/21 203/21 202/21 201/21
v 0.7259 0.4320 -0.0200
v 0.7009 0.4320 -0.0200
v 0.7009 0.4320 -0.0450
v 0.7259 0.4320 -0.0450
f 208/21 207/21 206/21 205/21
v 0.7259 0.4320 -0.0450
v 0.7009 0.4320 -0.0450
v 0.7009 0.1600 -0.0450
v 0.7259 0.1600 -0.0450
f 212/21 211/21 210/21 209/21
v 0.7259 0.1600 -0.0200
v 0.7009 0.1600 -0.0200
v 0.7009 0.4320 -0.0200
v 0.7259 0.4320 -0.0200
f 216/21 215/21 214/21 213/21
v 0.6881 0.1850 0.0049
v 0.6881 0.2150 0.0049
v 0.7081 0.2150 -0.0298
v 0.7081 0.1850 -0.0298
f 220/20 219/20 218/20 217/20
v 0.6388 0.1850 -0.0698
v 0.6388 0.2150 -0.0698
v 0.6188 0.2150 -0.0351
v 0.6188 0.1850 -0.0351
f 224/20 223/20 222/20 221/20
v 0.7081 0.1850 -0.0298
v 0.6388 0.1850 -0.0698
v 0.6188 0.1850 -0.0351
v 0.6881 0.1850 0.0049
f 228/20 227/20 226/20 225/20
v 0.6881 0.2150 0.0049
v 0.6188 0.2150 -0.0351
v 0.6388 0.2150 -0.0698
v 0.7081 0.2150 -0.0298
f 232/20 231/20 230/20 229/20
v 0.7081 0.2150 -0.0298
v 0.6388 0.2150 -0.0698
v 0.6388 0.1850 -0.0698
v 0.7081 0.1850 -0.0298
f 236/20 235/20 234/20 233/20
v 0.6881 0.1850 0.0049
v 0.6188 0.1850 -0.0351
v 0.6188 0.2150 -0.0351
v 0.6881 0.2150 0.0049
f 240/20 239/20 238/20 237/20
v 0.7134 0.4170 0.0312
v 0.7134 0.4670 0.0312
v 0.7771 0.4670 -0.0325
v 0.7771 0.4170 -0.0325
f 244/8 243/8 242/8 241/8
v 0.7134 0.4170 -0.0961
v 0.7134 0.4670 -0.0961
v 0.6498 0.4670 -0.0325
v 0.6498 0.4170 -0.0325
f 248/8 247/8 246/8 245/8
v 0.7771 0.4170 -0.0325
v 0.7134 0.4170 -0.0961
v 0.6498 0.4170 -0.0325
v 0.7134 0.4170 0.0312
f 252/8 251/8 250/8 249/8
v 0.7134 0.4670 0.0312
v 0.6498 0.4670 -0.0325
v 0.7134 0.4670 -0.0961
v 0.7771 0.4670 -0.0325
f 256/8 255/8 254/8 253/8
v 0.7771 0.4670 -0.0325
v 0.7134 0.4670 -0.0961
v 0.7134 0.4170 -0.0961
v 0.7771 0.4170 -0.0325
f 260/8 259/8 258/8 257/8
v 0.7134 0.4170 0.0312
v 0.6498 0.4170 -0.0325
v 0.6498 0.4670 -0.0325
v 0.7134 0.4670 0.0312
f 264/8 263/8 262/8 261/8
v 0.7342 0.1600 0.2253
v 0.7342 0.4681 0.2253
v 0.7342 0.4681 0.2003
v 0.7342 0.1600 0.2003
f 268/21 267/21 266/21 265/21
v 0.7092 0.1600 0.2003
v 0.7092 0.4681 0.2003
v 0.7092 0.4681 0.2253
v 0.7092 0.1600 0.2253
f 272/21 271/21 270/21 269/21
v 0.7342 0.1600 0.2003
v 0.7092 0.1600 0.2003
v 0.7092 0.1600 0.2253
v 0.7342 0.1600 0.2253
f 276/21 275/21 274/21 273/21
v 0.7342 0.4681 0.2253
v 0.7092 0.4681 0.2253
v 0.7092 0.4681 0.2003
v 0.7342 0.4681 0.2003
f 280/21 279/21 278/21 277/21
v 0.7342 0.4681 0.2003
v 0.7092 0.4681 0.2003
v 0.7092 0.1600 0.2003
v 0.7342 0.1600 0.2003
f 284/21 283/21 282/21 281/21
v 0.7342 0.1600 0.2253
v 0.7092 0.1600 0.2253
v 0.7092 0.4681 0.2253
v 0.7342 0.4681 0.2253
f 288/21 287/21 286/21 285/21
v 0.6963 0.1850 0.2501
v 0.6963 0.2150 0.2501
v 0.7163 0.2150 0.2155
v 0.7163 0.1850 0.2155
f 292/20 291/20 290/20 289/20
v 0.6470 0.1850 0.1755
v 0.6470 0.2150 0.1755
v 0.6270 0.2150 0.2101
v 0.6270 0.1850 0.2101
f 296/20 295/20 294/20 293/20
v 0.7163 0.1850 0.2155
v 0.6470 0.1850 0.1755
v 0.6270 0.1850 0.2101
v 0.6963 0.1850 0.2501
f 300/20 299/20 298/20 297/20
v 0.6963 0.2150 0.2501
v 0.6270 0.2150 0.2101
v 0.6470 0.2150 0.1755
v 0.7163 0.2150 0.2155
f 304/20 303/20 302/20 301/20
v 0.7163 0.2150 0.2155
v 0.6470 0.2150 0.1755
v 0.6470 0.1850 0.1755
v 0.7163 0.1850 0.2155
f 308/20 307/20 306/20 305/20
v 0.6963 0.1850 0.2501
v 0.6270 0.1850 0.2101
v 0.6270 0.2150 0.2101
v 0.6963 0.2150 0.2501
f 312/20 311/20 310/20 309/20
v 0.7217 0.4531 0.2764
v 0.7217 0.5031 0.2764
v 0.7853 0.5031 0.2128
v 0.7853 0.4531 0.2128
f 316/15 315/15 314/15 313/15
v 0.7217 0.4531 0.1491
v 0.7217 0.5031 0.1491
v 0.6580 0.5031 0.2128
v 0.6580 0.4531 0.2128
f 320/15 319/15 318/15 317/15
v 0.7853 0.4531 0.2128
v 0.7217 0.4531 0.1491
v 0.6580 0.4531 0.2128
v 0.7217 0.4531 0.2764
f 324/15 323/15 322/15 321/15
v 0.7217 0.5031 0.2764
v 0.6580 0.5031 0.2128
v 0.7217 0.5031 0.1491
v 0.7853 0.5031 0.2128
f 328/15 327/15 326/15 325/15
v 0.7853 0.5031 0.2128
v 0.7217 0.5031 0.1491
v 0.7217 0.4531 0.1491
v 0.7853 0.4531 0.2128
f 332/15 331/15 330/15 329/15
v 0.7217 0.4531 0.2764
v 0.6580 0.4531 0.2128
v 0.6580 0.5031 0.2128
v 0.7217 0.5031 0.2764
f 336/15 335/15 334/15 333/15
v 0.5234 0.1600 -0.2362
v 0.5234 0.4420 -0.2362
v 0.5234 0.4420 -0.2612
v 0.5234 0.1600 -0.2612
f 340/21 339/21 338/21 337/21
v 0.4984 0.1600 -0.2612
v 0.4984 0.4420 -0.2612
v 0.4984 0.4420 -0.2362
v 0.4984 0.1600 -0.2362
f 344/21 343/21 342/21 341/21
v 0.5234 0.1600 -0.2612
v 0.4984 0.1600 -0.2612
v 0.4984 0.1600 -0.2362
v 0.5234 0.1600 -0.2362
f 348/21 347/21 346/21 345/21
v 0.5234 0.4420 -0.2362
v 0.4984 0.4420 -0.2362
v 0.4984 0.4420 -0.2612
v 0.5234 0.4420 -0.2612
f 352/21 351/21 350/21 349/21
v 0.5234 0.4420 -0.2612
v 0.4984 0.4420 -0.2612
v 0.4984 0.1600 -0.2612
v 0.5234 0.1600 -0.2612
f 356/21 355/21 354/21 353/21
v 0.5234 0.1600 -0.2362
v 0.4984 0.1600 -0.2362
v 0.4984 0.4420 -0.2362
v 0.5234 0.4420 -0.2362
f 360/21 359/21 358/21 357/21
v 0.4855 0.1850 -0.2114
v 0.4855 0.2150 -0.2114
v 0.5055 0.2150 -0.2460
v 0.5055 0.1850 -0.2460
f 364/20 363/20 362/20 361/20
v 0.4363 0.1850 -0.2860
v 0.4363 0.2150 -0.2860
v 0.4163 0.2150 -0.2514
v 0.4163 0.1850 -0.2514
f 368/20 367/20 366/20 365/20
v 0.5055 0.1850 -0.2460
v 0.4363 0.1850 -0.2860
v 0.4163 0.1850 -0.2514
v 0.4855 0.1850 -0.2114
f 372/20 371/20 370/20 369/20
v 0.4855 0.2150 -0.2114
v 0.4163 0.2150 -0.2514
v 0.4363 0.2150 -0.2860
v 0.5055 0.2150 -0.2460
f 376/20 375/20 374/20 373/20
v 0.5055 0.2150 -0.2460
v 0.4363 0.2150 -0.2860
v 0.4363 0.1850 -0.2860
v 0.5055 0.1850 -0.2460
f 380/20 379/20 378/20 377/20
v 0.4855 0.1850 -0.2114
v 0.4163 0.1850 -0.2514
v 0.4163 0.2150 -0.2514
v 0.4855 0.2150 -0.2114
f 384/20 383/20 382/20 381/20
v 0.5109 0.4270 -0.1851
v 0.5109 0.4770 -0.1851
v 0.5745 0.4770 -0.2487
v 0.5745 0.4270 -0.2487
f 388/27 387/27 386/27 385/27
v 0.5109 0.4270 -0.3123
v 0.5109 0.4770 -0.3123
v 0.4473 0.4770 -0.2487
v 0.4473 0.4270 -0.2487
f 392/27 391/27 390/27 389/27
v 0.5745 0.4270 -0.2487
v 0.5109 0.4270 -0.3123
v 0.4473 0.4270 -0.2487
v 0.5109 0.4270 -0.1851
f 396/27 395/27 394/27 393/27
v 0.5109 0.4770 -0.1851
v 0.4473 0.4770 -0.2487
v 0.5109 0.4770 -0.3123
v 0.5745 0.4770 -0.2487
f 400/27 399/27 398/27 397/27
v 0.5745 0.4770 -0.2487
v 0.5109 0.4770 -0.3123
v 0.5109 0.4270 -0.3123
v 0.5745 0.4270 -0.2487
f 404/27 403/27 402/27 401/27
v 0.5109 0.4270 -0.1851
v 0.4473 0.4270 -0.2487
v 0.4473 0.4770 -0.2487
v 0.5109 0.4770 -0.1851
f 408/27 407/27 406/27 405/27
v 0.4980 0.1600 0.0194
v 0.4980 0.4685 0.0194
v 0.4980 0.4685 -0.0056
v 0.4980 0.1600 -0.0056
f 412/21 411/21 410/21 409/21
v 0.4730 0.1600 -0.0056
v 0.4730 0.4685 -0.0056
v 0.4730 0.4685 0.0194
v 0.4730 0.1600 0.0194
f 416/21 415/21 414/21 413/21
v 0.4980 0.1600 -0.0056
v 0.4730 0.1600 -0.0056
v 0.4730 0.1600 0.0194
v 0.4980 0.1600 0.0194
f 420/21 419/21 418/21 417/21
v 0.4980 0.4685 0.0194
v 0.4730 0.4685 0.0194
v 0.4730 0.4685 -0.0056
v 0.4980 0.4685 -0.0056
f 424/21 423/21 422/21 421/21
v 0.4980 0.4685 -0.0056
v 0.4730 0.4685 -0.0056
v 0.4730 0.1600 -0.0056
v 0.4980 0.1600 -0.0056
f 428/21 427/21 426/21 425/21
v 0.4980 0.1600 0.0194
v 0.4730 0.1600 0.0194
v 0.4730 0.4685 0.0194
v 0.4980 0.4685 0.0194
f 432/21 431/21 430/21 429/21
v 0.4602 0.1850 0.0443
v 0.4602 0.2150 0.0443
v 0.4802 0.2150 0.0096
v 0.4802 0.1850 0.0096
f 436/20 435/20 434/20 433/20
v 0.4109 0.1850 -0.0304
v 0.4109 0.2150 -0.0304
v 0.3909 0.2150 0.0043
v 0.3909 0.1850 0.0043
f 440/20 439/20 438/20 437/20
v 0.4802 0.1850 0.0096
v 0.4109 0.1850 -0.0304
v 0.3909 0.1850 0.0043
v 0.4602 0.1850 0.0443
f 444/20 443/20 442/20 441/20
v 0.4602 0.2150 0.0443
v 0.3909 0.2150 0.0043
v 0.4109 0.2150 -0.0304
v 0.4802 0.2150 0.0096
f 448/20 447/20 446/20 445/20
v 0.4802 0.2150 0.0096
v 0.4109 0.2150 -0.0304
v 0.4109 0.1850 -0.0304
v 0.4802 0.1850 0.0096
f 452/20 451/20 450/20 449/20
v 0.4602 0.1850 0.0443
v 0.3909 0.1850 0.0043
v 0.3909 0.2150 0.0043
v 0.4602 0.2150 0.0443
f 456/20 455/20 454/20 453/20
v 0.4855 0.4535 0.0706
v 0.4855 0.5035 0.0706
v 0.5492 0.5035 0.0069
v 0.5492 0.4535 0.0069
f 460/26 459/26 458/26 457/26
v 0.4855 0.4535 -0.0567
v 0.4855 0.5035 -0.0567
v 0.4219 0.5035 0.0069
v 0.4219 0.4535 0.0069
f 464/26 463/26 462/26 461/26
v 0.5492 0.4535 0.0069
v 0.4855 0.4535 -0.0567
v 0.4219 0.4535 0.0069
v 0.4855 0.4535 0.0706
f 468/26 467/26 466/26 465/26
v 0.4855 0.5035 0.0706
v 0.4219 0.5035 0.0069
v 0.4855 0.5035 -0.0567
v 0.5492 0.5035 0.0069
f 472/26 471/26 470/26 469/26
v 0.5492 0.5035 0.0069
v 0.4855 0.5035 -0.0567
v 0.4855 0.4535 -0.0567
v 0.5492 0.4535 0.0069
f 476/26 475/26 474/26 473/26
v 0.4855 0.4535 0.0706
v 0.4219 0.4535 0.0069
v 0.4219 0.5035 0.0069
v 0.4855 0.5035 0.0706
f 480/26 479/26 478/26 477/26
v 0.4560 0.1600 0.2352
v 0.4560 0.4578 0.2352
v 0.4560 0.4578 0.2102
v 0.4560 0.1600 0.2102
f 484/21 483/21 482/21 481/21
v 0.4310 0.1600 0.2102
v 0.4310 0.4578 0.2102
v 0.4310 0.4578 0.2352
v 0.4310 0.1600 0.2352
f 488/21 487/21 486/21 485/21
v 0.4560 0.1600 0.2102
v 0.4310 0.1600 0.2102
v 0.4310 0.1600 0.2352
v 0.4560 0.1600 0.2352
f 492/21 491/21 490/21 489/21
v 0.4560 0.4578 0.2352
v 0.4310 0.4578 0.2352
v 0.4310 0.4578 0.2102
v 0.4560 0.4578 0.2102
f 496/21 495/21 494/21 493/21
v 0.4560 0.4578 0.2102
v 0.4310 0.4578 0.2102
v 0.4310 0.1600 0.2102
v 0.4560 0.1600 0.2102
f 500/21 499/21 498/21 497/21
v 0.4560 0.1600 0.2352
v 0.4310 0.1600 0.2352
v 0.4310 0.4578 0.2352
v 0.4560 0.4578 0.2352
f 504/21 503/21 502/21 501/21
v 0.4181 0.1850 0.2601
v 0.4181 0.2150 0.2601
v 0.4381 0.2150 0.2254
v 0.4381 0.1850 0.2254
f 508/20 507/20 506/20 505/20
v 0.3689 0.1850 0.1854
v 0.3689 0.2150 0.1854
v 0.3489 0.2150 0.2201
v 0.3489 0.1850 0.2201
f 512/20 511/20 510/20 509/20
v 0.4381 0.1850 0.2254
v 0.3689 0.1850 0.1854
v 0.3489 0.1850 0.2201
v 0.4181 0.1850 0.2601
f 516/20 515/20 514/20 513/20
v 0.4181 0.2150 0.2601
v 0.3489 0.2150 0.2201
v 0.3689 0.2150 0.1854
v 0.4381 0.2150 0.2254
f 520/20 519/20 518/20 517/20
v 0.4381 0.2150 0.2254
v 0.3689 0.2150 0.1854
v 0.3689 0.1850 0.1854
v 0.4381 0.1850 0.2254
f 524/20 523/20 522/20 521/20
v 0.4181 0.1850 0.2601
v 0.3489 0.1850 0.2201
v 0.3489 0.2150 0.2201
v 0.4181 0.2150 0.2601
f 528/20 527/20 526/20 525/20
v 0.4435 0.4428 0.2864
v 0.4435 0.4928 0.2864
v 0.5071 0.4928 0.2227
v 0.5071 0.4428 0.2227
f 532/8 531/8 530/8 529/8
v 0.4435 0.4428 0.1591
v 0.4435 0.4928 0.1591
v 0.3799 0.4928 0.2227
v 0.3799 0.4428 0.2227
f 536/8 535/8 534/8 533/8
v 0.5071 0.4428 0.2227
v 0.4435 0.4428 0.1591
v 0.3799 0.4428 0.2227
v 0.4435 0.4428 0.2864
f 540/8 539/8 538/8 537/8
v 0.4435 0.4928 0.2864
v 0.3799 0.4928 0.2227
v 0.4435 0.4928 0.1591
v 0.5071 0.4928 0.2227
f 544/8 543/8 542/8 541/8
v 0.5071 0.4928 0.2227
v 0.4435 0.4928 0.1591
v 0.4435 0.4428 0.1591
v 0.5071 0.4428 0.2227
f 548/8 547/8 546/8 545/8
v 0.4435 0.4428 0.2864
v 0.3799 0.4428 0.2227
v 0.3799 0.4928 0.2227
v 0.4435 0.4928 0.2864
f 552/8 551/8 550/8 549/8
v 0.2368 0.1600 -0.2441
v 0.2368 0.3802 -0.2441
v 0.2368 0.3802 -0.2691
v 0.2368 0.1600 -0.2691
f 556/21 555/21 554/21 553/21
v 0.2118 0.1600 -0.2691
v 0.2118 0.3802 -0.2691
v 0.2118 0.3802 -0.2441
v 0.2118 0.1600 -0.2441
f 560/21 559/21 558/21 557/21
v 0.2368 0.1600 -0.2691
v 0.2118 0.1600 -0.2691
v 0.2118 0.1600 -0.2441
v 0.2368 0.1600 -0.2441
f 564/21 563/21 562/21 561/21
v 0.2368 0.3802 -0.2441
v 0.2118 0.3802 -0.2441
v 0.2118 0.3802 -0.2691
v 0.2368 0.3802 -0.2691
f 568/21 567/21 566/21 565/21
v 0.2368 0.3802 -0.2691
v 0.2118 0.3802 -0.2691
v 0.2118 0.1600 -0.2691
v 0.2368 0.1600 -0.2691
f 572/21 571/21 570/21 569/21
v 0.2368 0.1600 -0.2441
v 0.2118 0.1600 -0.2441
v 0.2118 0.3802 -0.2441
v 0.2368 0.3802 -0.2441
f 576/21 575/21 574/21 573/21
v 0.1989 0.1850 -0.2193
v 0.1989 0.2150 -0.2193
v 0.2189 0.2150 -0.2539
v 0.2189 0.1850 -0.2539
f 580/20 579/20 578/20 577/20
v 0.1497 0.1850 -0.2939
v 0.1497 0.2150 -0.2939
v 0.1297 0.2150 -0.2593
v 0.1297 0.1850 -0.2593
f 584/20 583/20 582/20 581/20
v 0.2189 0.1850 -0.2539
v 0.1497 0.1850 -0.2939
v 0.1297 0.1850 -0.2593
v 0.1989 0.1850 -0.2193
f 588/20 587/20 586/20 585/20
v 0.1989 0.2150 -0.2193
v 0.1297 0.2150 -0.2593
v 0.1497 0.2150 -0.2939
v 0.2189 0.2150 -0.2539
f 592/20 591/20 590/20 589/20
v 0.2189 0.2150 -0.2539
v 0.1497 0.2150 -0.2939
v 0.1497 0.1850 -0.2939
v 0.2189 0.1850 -0.2539
f 596/20 595/20 594/20 593/20
v 0.1989 0.1850 -0.2193
v 0.1297 0.1850 -0.2593
v 0.1297 0.2150 -0.2593
v 0.1989 0.2150 -0.2193
f 600/20 599/20 598/20 597/20
v 0.2243 0.3652 -0.1929
v 0.2243 0.4152 -0.1929
v 0.2879 0.4152 -0.2566
v 0.2879 0.3652 -0.2566
f 604/15 603/15 602/15 601/15
v 0.2243 0.3652 -0.3202
v 0.2243 0.4152 -0.3202
v 0.1607 0.4152 -0.2566
v 0.1607 0.3652 -0.2566
f 608/15 607/15 606/15 605/15
v 0.2879 0.3652 -0.2566
v 0.2243 0.3652 -0.3202
v 0.1607 0.3652 -0.2566
v 0.2243 0.3652 -0.1929
f 612/15 611/15 610/15 609/15
v 0.2243 0.4152 -0.1929
v 0.1607 0.4152 -0.2566
v 0.2243 0.4152 -0.3202
v 0.2879 0.4152 -0.2566
f 616/15 615/15 614/15 613/15
v 0.2879 0.4152 -0.2566
v 0.2243 0.4152 -0.3202
v 0.2243 0.3652 -0.3202
v 0.2879 0.3652 -0.2566
f 620/15 619/15 618/15 617/15
v 0.2243 0.3652 -0.1929
v 0.1607 0.3652 -0.2566
v 0.1607 0.4152 -0.2566
v 0.2243 0.4152 -0.1929
f 624/15 623/15 622/15 621/15
v 0.2146 0.1600 -0.0036
v 0.2146 0.4177 -0.0036
v 0.2146 0.4177 -0.0286
v 0.2146 0.1600 -0.0286
f 628/21 627/21 626/21 625/21
v 0.1896 0.1600 -0.0286
v 0.1896 0.4177 -0.0286
v 0.1896 0.4177 -0.0036
v 0.1896 0.1600 -0.0036
f 632/21 631/21 630/21 629/21
v 0.2146 0.1600 -0.0286
v 0.1896 0.1600 -0.0286
v 0.1896 0.1600 -0.0036
v 0.2146 0.1600 -0.0036
f 636/21 635/21 634/21 633/21
v 0.2146 0.4177 -0.0036
v 0.1896 0.4177 -0.0036
v 0.1896 0.4177 -0.0286
v 0.2146 0.4177 -0.0286
f 640/21 639/21 638/21 637/21
v 0.2146 0.4177 -0.0286
v 0.1896 0.4177 -0.0286
v 0.1896 0.1600 -0.0286
v 0.2146 0.1600 -0.0286
f 644/21 643/21 642/21 641/21
v 0.2146 0.1600 -0.0036
v 0.1896 0.1600 -0.0036
v 0.1896 0.4177 -0.0036
v 0.2146 0.4177 -0.0036
f 648/21 647/21 646/21 645/21
v 0.1768 0.1850 0.0212
v 0.1768 0.2150 0.0212
v 0.1968 0.2150 -0.0134
v 0.1968 0.1850 -0.0134
f 652/20 651/20 650/20 649/20
v 0.1275 0.1850 -0.0534
v 0.1275 0.2150 -0.0534
v 0.1075 0.2150 -0.0188
v 0.1075 0.1850 -0.0188
f 656/20 655/20 654/20 653/20
v 0.1968 0.1850 -0.0134
v 0.1275 0.1850 -0.0534
v 0.1075 0.1850 -0.0188
v 0.1768 0.1850 0.0212
f 660/20 659/20 658/20 657/20
v 0.1768 0.2150 0.0212
v 0.1075 0.2150 -0.0188
v 0.1275 0.2150 -0.0534
v 0.1968 0.2150 -0.0134
f 664/20 663/20 662/20 661/20
v 0.1968 0.2150 -0.0134
v 0.1275 0.2150 -0.0534
v 0.1275 0.1850 -0.0534
v 0.1968 0.1850 -0.0134
f 668/20 667/20 666/20 665/20
v 0.1768 0.1850 0.0212
v 0.1075 0.1850 -0.0188
v 0.1075 0.2150 -0.0188
v 0.1768 0.2150 0.0212
f 672/20 671/20 670/20 669/20
v 0.2021 0.4027 0.0475
v 0.2021 0.4527 0.0475
v 0.2658 0.4527 -0.0161
v 0.2658 0.4027 -0.0161
f 676/27 675/27 674/27 673/27
v 0.2021 0.4027 -0.0798
v 0.2021 0.4527 -0.0798
v 0.1385 0.4527 -0.0161
v 0.1385 0.4027 -0.0161
f 680/27 679/27 678/27 677/27
v 0.2658 0.4027 -0.0161
v 0.2021 0.4027 -0.0798
v 0.1385 0.4027 -0.0161
v 0.2021 0.4027 0.0475
f 684/27 683/27 682/27 681/27
v 0.2021 0.4527 0.0475
v 0.1385 0.4527 -0.0161
v 0.2021 0.4527 -0.0798
v 0.2658 0.4527 -0.0161
f 688/27 687/27 686/27 685/27
v 0.2658 0.4527 -0.0161
v 0.2021 0.4527 -0.0798
v 0.2021 0.4027 -0.0798
v 0.2658 0.4027 -0.0161
f 692/27 691/27 690/27 689/27
v 0.2021 0.4027 0.0475
v 0.1385 0.4027 -0.0161
v 0.1385 0.4527 -0.0161
v 0.2021 0.4527 0.0475
f 696/27 695/27 694/27 693/27
v 0.2212 0.1600 0.2593
v 0.2212 0.4366 0.2593
v 0.2212 0.4366 0.2343
v 0.2212 0.1600 0.2343
f 700/21 699/21 698/21 697/21
v 0.1962 0.1600 0.2343
v 0.1962 0.4366 0.2343
v 0.1962 0.4366 0.2593
v 0.1962 0.1600 0.2593
f 704/21 703/21 702/21 701/21
v 0.2212 0.1600 0.2343
v 0.1962 0.1600 0.2343
v 0.1962 0.1600 0.2593
v 0.2212 0.1600 0.2593
f 708/21 707/21 706/21 705/21
v 0.2212 0.4366 0.2593
v 0.1962 0.4366 0.2593
v 0.1962 0.4366 0.2343
v 0.2212 0.4366 0.2343
f 712/21 711/21 710/21 709/21
v 0.2212 0.4366 0.2343
v 0.1962 0.4366 0.2343
v 0.1962 0.1600 0.2343
v 0.2212 0.1600 0.2343
f 716/21 715/21 714/21 713/21
v 0.2212 0.1600 0.2593
v 0.1962 0.1600 0.2593
v 0.1962 0.4366 0.2593
v 0.2212 0.4366 0.2593
f 720/21 719/21 718/21 717/21
v 0.1833 0.1850 0.2841
v 0.1833 0.2150 0.2841
v 0.2033 0.2150 0.2495
v 0.2033 0.1850 0.2495
f 724/20 723/20 722/20 721/20
v 0.1340 0.1850 0.2095
v 0.1340 0.2150 0.2095
v 0.1140 0.2150 0.2441
v 0.1140 0.1850 0.2441
f 728/20 727/20 726/20 725/20
v 0.2033 0.1850 0.2495
v 0.1340 0.1850 0.2095
v 0.1140 0.1850 0.2441
v 0.1833 0.1850 0.2841
f 732/20 731/20 730/20 729/20
v 0.1833 0.2150 0.2841
v 0.1140 0.2150 0.2441
v 0.1340 0.2150 0.2095
v 0.2033 0.2150 0.2495
f 736/20 735/20 734/20 733/20
v 0.2033 0.2150 0.2495
v 0.1340 0.2150 0.2095
v 0.1340 0.1850 0.2095
v 0.2033 0.1850 0.2495
f 740/20 739/20 738/20 737/20
v 0.1833 0.1850 0.2841
v 0.1140 0.1850 0.2441
v 0.1140 0.2150 0.2441
v 0.1833 0.2150 0.2841
f 744/20 743/20 742/20 741/20
v 0.2087 0.4216 0.3105
v 0.2087 0.4716 0.3105
v 0.2723 0.4716 0.2468
v 0.2723 0.4216 0.2468
f 748/26 747/26 746/26 745/26
v 0.2087 0.4216 0.1832
v 0.2087 0.4716 0.1832
v 0.1450 0.4716 0.2468
v 0.1450 0.4216 0.2468
f 752/26 751/26 750/26 749/26
v 0.2723 0.4216 0.2468
v 0.2087 0.4216 0.1832
v 0.1450 0.4216 0.2468
v 0.2087 0.4216 0.3105
f 756/26 755/26 754/26 753/26
v 0.2087 0.4716 0.3105
v 0.1450 0.4716 0.2468
v 0.2087 0.4716 0.1832
v 0.2723 0.4716 0.2468
f 760/26 759/26 758/26 757/26
v 0.2723 0.4716 0.2468
v 0.2087 0.4716 0.1832
v 0.2087 0.4216 0.1832
v 0.2723 0.4216 0.2468
f 764/26 763/26 762/26 761/26
v 0.2087 0.4216 0.3105
v 0.1450 0.4216 0.2468
v 0.1450 0.4716 0.2468
v 0.2087 0.4716 0.3105
f 768/26 767/26 766/26 765/26
v -0.0094 0.1600 -0.2651
v -0.0094 0.4648 -0.2651
v -0.0094 0.4648 -0.2901
v -0.0094 0.1600 -0.2901
f 772/21 771/21 770/21 769/21
v -0.0344 0.1600 -0.2901
v -0.0344 0.4648 -0.2901
v -0.0344 0.4648 -0.2651
v -0.0344 0.1600 -0.2651
f 776/21 775/21 774/21 773/21
v -0.0094 0.1600 -0.2901
v -0.0344 0.1600 -0.2901
v -0.0344 0.1600 -0.2651
v -0.0094 0.1600 -0.2651
f 780/21 779/21 778/21 777/21
v -0.0094 0.4648 -0.2651
v -0.0344 0.4648 -0.2651
v -0.0344 0.4648 -0.2901
v -0.0094 0.4648 -0.2901
f 784/21 783/21 782/21 781/21
v -0.0094 0.4648 -0.2901
v -0.0344 0.4648 -0.2901
v -0.0344 0.1600 -0.2901
v -0.0094 0.1600 -0.2901
f 788/21 787/21 786/21 785/21
v -0.0094 0.1600 -0.2651
v -0.0344 0.1600 -0.2651
v -0.0344 0.4648 -0.2651
v -0.0094 0.4648 -0.2651
f 792/21 791/21 790/21 789/21
v -0.0472 0.1850 -0.2403
v -0.0472 0.2150 -0.2403
v -0.0272 0.2150 -0.2749
v -0.0272 0.1850 -0.2749
f 796/20 795/20 794/20 793/20
v -0.0965 0.1850 -0.3149
v -0.0965 0.2150 -0.3149
v -0.1165 0.2150 -0.2803
v -0.1165 0.1850 -0.2803
f 800/20 799/20 798/20 797/20
v -0.0272 0.1850 -0.2749
v -0.0965 0.1850 -0.3149
v -0.1165 0.1850 -0.2803
v -0.0472 0.1850 -0.2403
f 804/20 803/20 802/20 801/20
v -0.0472 0.2150 -0.2403
v -0.1165 0.2150 -0.2803
v -0.0965 0.2150 -0.3149
v -0.0272 0.2150 -0.2749
f 808/20 807/20 806/20 805/20
v -0.0272 0.2150 -0.2749
v -0.0965 0.2150 -0.3149
v -0.0965 0.1850 -0.3149
v -0.0272 0.1850 -0.2749
f 812/20 811/20 810/20 809/20
v -0.0472 0.1850 -0.2403
v -0.1165 0.1850 -0.2803
v -0.1165 0.2150 -0.2803
v -0.0472 0.2150 -0.2403
f 816/20 815/20 814/20 813/20
v -0.0219 0.4498 -0.2139
v -0.0219 0.4998 -0.2139
v 0.0418 0.4998 -0.2776
v 0.0418 0.4498 -0.2776
f 820/8 819/8 818/8 817/8
v -0.0219 0.4498 -0.3412
v -0.0219 0.4998 -0.3412
v -0.0855 0.4998 -0.2776
v -0.0855 0.4498 -0.2776
f 824/8 823/8 822/8 821/8
v 0.0418 0.4498 -0.2776
v -0.0219 0.4498 -0.3412
v -0.0855 0.4498 -0.2776
v -0.0219 0.4498 -0.2139
f 828/8 827/8 826/8 825/8
v -0.0219 0.4998 -0.2139
v -0.0855 0.4998 -0.2776
v -0.0219 0.4998 -0.3412
v 0.0418 0.4998 -0.2776
f 832/8 831/8 830/8 829/8
v 0.0418 0.4998 -0.2776
v -0.0219 0.4998 -0.3412
v -0.0219 0.4498 -0.3412
v 0.0418 0.4498 -0.2776
f 836/8 835/8 834/8 833/8
v -0.0219 0.4498 -0.2139
v -0.0855 0.4498 -0.2776
v -0.0855 0.4998 -0.2776
v -0.0219 0.4998 -0.2139
f 840/8 839/8 838/8 837/8
v 0.0226 0.1600 -0.0202
v 0.0226 0.4593 -0.0202
v 0.0226 0.4593 -0.0452
v 0.0226 0.1600 -0.0452
f 844/21 843/21 842/21 841/21
v -0.0024 0.1600 -0.0452
v -0.0024 0.4593 -0.0452
v -0.0024 0.4593 -0.0202
v -0.0024 0.1600 -0.0202
f 848/21 847/21 846/21 845/21
v 0.0226 0.1600 -0.0452
v -0.0024 0.1600 -0.0452
v -0.0024 0.1600 -0.0202
v 0.0226 0.1600 -0.0202
f 852/21 851/21 850/21 849/21
v 0.0226 0.4593 -0.0202
v -0.0024 0.4593 -0.0202
v -0.0024 0.4593 -0.0452
v 0.0226 0.4593 -0.0452
f 856/21 855/21 854/21 853/21
v 0.0226 0.4593 -0.0452
v -0.0024 0.4593 -0.0452
v -0.0024 0.1600 -0.0452
v 0.0226 0.1600 -0.0452
f 860/21 859/21 858/21 857/21
v 0.0226 0.1600 -0.0202
v -0.0024 0.1600 -0.0202
v -0.0024 0.4593 -0.0202
v 0.0226 0.4593 -0.0202
f 864/21 863/21 862/21 861/21
v -0.0153 0.1850 0.0046
v -0.0153 0.2150 0.0046
v 0.0047 0.2150 -0.0301
v 0.0047 0.1850 -0.0301
f 868/20 867/20 866/20 865/20
v -0.0646 0.1850 -0.0701
v -0.0646 0.2150 -0.0701
v -0.0846 0.2150 -0.0354
v -0.0846 0.1850 -0.0354
f 872/20 871/20 870/20 869/20
v 0.0047 0.1850 -0.0301
v -0.0646 0.1850 -0.0701
v -0.0846 0.1850 -0.0354
v -0.0153 0.1850 0.0046
f 876/20 875/20 874/20 873/20
v -0.0153 0.2150 0.0046
v -0.0846 0.2150 -0.0354
v -0.0646 0.2150 -0.0701
v 0.0047 0.2150 -0.0301
f 880/20 879/20 878/20 877/20
v 0.0047 0.2150 -0.0301
v -0.0646 0.2150 -0.0701
v -0.0646 0.1850 -0.0701
v 0.0047 0.1850 -0.0301
f 884/20 883/20 882/20 881/20
v -0.0153 0.1850 0.0046
v -0.0846 0.1850 -0.0354
v -0.0846 0.2150 -0.0354
v -0.0153 0.2150 0.0046
f 888/20 887/20 886/20 885/20
v 0.0101 0.4443 0.0309
v 0.0101 0.4943 0.0309
v 0.0737 0.4943 -0.0327
v 0.0737 0.4443 -0.0327
f 892/15 891/15 890/15 889/15
v 0.0101 0.4443 -0.0964
v 0.0101 0.4943 -0.0964
v -0.0536 0.4943 -0.0327
v -0.0536 0.4443 -0.0327
f 896/15 895/15 894/15 893/15
v 0.0737 0.4443 -0.0327
v 0.0101 0.4443 -0.0964
v -0.0536 0.4443 -0.0327
v 0.0101 0.4443 0.0309
f 900/15 899/15 898/15 897/15
v 0.0101 0.4943 0.0309
v -0.0536 0.4943 -0.0327
v 0.0101 0.4943 -0.0964
v 0.0737 0.4943 -0.0327
f 904/15 903/15 902/15 901/15
v 0.0737 0.4943 -0.0327
v 0.0101 0.4943 -0.0964
v 0.0101 0.4443 -0.0964
v 0.0737 0.4443 -0.0327
f 908/15 907/15 906/15 905/15
v 0.0101 0.4443 0.0309
v -0.0536 0.4443 -0.0327
v -0.0536 0.4943 -0.0327
v 0.0101 0.4943 0.0309
f 912/15 911/15 910/15 909/15
v -0.0220 0.1600 0.2291
v -0.0220 0.4556 0.2291
v -0.0220 0.4556 0.2041
v -0.0220 0.1600 0.2041
f 916/21 915/21 914/21 913/21
v -0.0470 0.1600 0.2041
v -0.0470 0.4556 0.2041
v -0.0470 0.4556 0.2291
v -0.0470 0.1600 0.2291
f 920/21 919/21 918/21 917/21
v -0.0220 0.1600 0.2041
v -0.0470 0.1600 0.2041
v -0.0470 0.1600 0.2291
v -0.0220 0.1600 0.2291
f 924/21 923/21 922/21 921/21
v -0.0220 0.4556 0.2291
v -0.0470 0.4556 0.2291
v -0.0470 0.4556 0.2041
v -0.0220 0.4556 0.2041
f 928/21 927/21 926/21 925/21
v -0.0220 0.4556 0.2041
v -0.0470 0.4556 0.2041
v -0.0470 0.1600 0.2041
v -0.0220 0.1600 0.2041
f 932/21 931/21 930/21 929/21
v -0.0220 0.1600 0.2291
v -0.0470 0.1600 0.2291
v -0.0470 0.4556 0.2291
v -0.0220 0.4556 0.2291
f 936/21 935/21 934/21 933/21
v -0.0599 0.1850 0.2539
v -0.0599 0.2150 0.2539
v -0.0399 0.2150 0.2193
v -0.0399 0.1850 0.2193
f 940/20 939/20 938/20 937/20
v -0.1092 0.1850 0.1793
v -0.1092 0.2150 0.1793
v -0.1292 0.2150 0.2139
v -0.1292 0.1850 0.2139
f 944/20 943/20 942/20 941/20
v -0.0399 0.1850 0.2193
v -0.1092 0.1850 0.1793
v -0.1292 0.1850 0.2139
v -0.0599 0.1850 0.2539
f 948/20 947/20 946/20 945/20
v -0.0599 0.2150 0.2539
v -0.1292 0.2150 0.2139
v -0.1092 0.2150 0.1793
v -0.0399 0.2150 0.2193
f 952/20 951/20 950/20 949/20
v -0.0399 0.2150 0.2193
v -0.1092 0.2150 0.1793
v -0.1092 0.1850 0.1793
v -0.0399 0.1850 0.2193
f 956/20 955/20 954/20 953/20
v -0.0599 0.1850 0.2539
v -0.1292 0.1850 0.2139
v -0.1292 0.2150 0.2139
v -0.0599 0.2150 0.2539
f 960/20 959/20 958/20 957/20
v -0.0345 0.4406 0.2802
v -0.0345 0.4906 0.2802
v 0.0291 0.4906 0.2166
v 0.0291 0.4406 0.2166
f 964/27 963/27 962/27 961/27
v -0.0345 0.4406 0.1529
v -0.0345 0.4906 0.1529
v -0.0982 0.4906 0.2166
v -0.0982 0.4406 0.2166
f 968/27 967/27 966/27 965/27
v 0.0291 0.4406 0.2166
v -0.0345 0.4406 0.1529
v -0.0982 0.4406 0.2166
v -0.0345 0.4406 0.2802
f 972/27 971/27 970/27 969/27
v -0.0345 0.4906 0.2802
v -0.0982 0.4906 0.2166
v -0.0345 0.4906 0.1529
v 0.0291 0.4906 0.2166
f 976/27 975/27 974/27 973/27
v 0.0291 0.4906 0.2166
v -0.0345 0.4906 0.1529
v -0.0345 0.4406 0.1529
v 0.0291 0.4406 0.2166
f 980/27 979/27 978/27 977/27
v -0.0345 0.4406 0.2802
v -0.0982 0.4406 0.2166
v -0.0982 0.4906 0.2166
v -0.0345 0.4906 0.2802
f 984/27 983/27 982/27 981/27
v -0.2114 0.1600 -0.2082
v -0.2114 0.4667 -0.2082
v -0.2114 0.4667 -0.2332
v -0.2114 0.1600 -0.2332
f 988/21 987/21 986/21 985/21
v -0.2364 0.1600 -0.2332
v -0.2364 0.4667 -0.2332
v -0.2364 0.4667 -0.2082
v -0.2364 0.1600 -0.2082
f 992/21 991/21 990/21 989/21
v -0.2114 0.1600 -0.2332
v -0.2364 0.1600 -0.2332
v -0.2364 0.1600 -0.2082
v -0.2114 0.1600 -0.2082
f 996/21 995/21 994/21 993/21
v -0.2114 0.4667 -0.2082
v -0.2364 0.4667 -0.2082
v -0.2364 0.4667 -0.2332
v -0.2114 0.4667 -0.2332
f 1000/21 999/21 998/21 997/21
v -0.2114 0.4667 -0.2332
v -0.2364 0.4667 -0.2332
v -0.2364 0.1600 -0.2332
v -0.2114 0.1600 -0.2332
f 1004/21 1003/21 1002/21 1001/21
v -0.2114 0.1600 -0.2082
v -0.2364 0.1600 -0.2082
v -0.2364 0.4667 -0.2082
v -0.2114 0.4667 -0.2082
f 1008/21 1007/21 1006/21 1005/21
v -0.2492 0.1850 -0.1833
v -0.2492 0.2150 -0.1833
v -0.2292 0.2150 -0.2180
v -0.2292 0.1850 -0.2180
f 1012/20 1011/20 1010/20 1009/20
v -0.2985 0.1850 -0.2580
v -0.2985 0.2150 -0.2580
v -0.3185 0.2150 -0.2233
v -0.3185 0.1850 -0.2233
f 1016/20 1015/20 1014/20 1013/20
v -0.2292 0.1850 -0.2180
v -0.2985 0.1850 -0.2580
v -0.3185 0.1850 -0.2233
v -0.2492 0.1850 -0.1833
f 1020/20 1019/20 1018/20 1017/20
v -0.2492 0.2150 -0.1833
v -0.3185 0.2150 -0.2233
v -0.2985 0.2150 -0.2580
v -0.2292 0.2150 -0.2180
f 1024/20 1023/20 1022/20 1021/20
v -0.2292 0.2150 -0.2180
v -0.2985 0.2150 -0.2580
v -0.2985 0.1850 -0.2580
v -0.2292 0.1850 -0.2180
f 1028/20 1027/20 1026/20 1025/20
v -0.2492 0.1850 -0.1833
v -0.3185 0.1850 -0.2233
v -0.3185 0.2150 -0.2233
v -0.2492 0.2150 -0.1833
f 1032/20 1031/20 1030/20 1029/20
v -0.2239 0.4517 -0.1570
v -0.2239 0.5017 -0.1570
v -0.1602 0.5017 -0.2207
v -0.1602 0.4517 -0.2207
f 1036/26 1035/26 1034/26 1033/26
v -0.2239 0.4517 -0.2843
v -0.2239 0.5017 -0.2843
v -0.2875 0.5017 -0.2207
v -0.2875 0.4517 -0.2207
f 1040/26 1039/26 1038/26 1037/26
v -0.1602 0.4517 -0.2207
v -0.2239 0.4517 -0.2843
v -0.2875 0.4517 -0.2207
v -0.2239 0.4517 -0.1570
f 1044/26 1043/26 1042/26 1041/26
v -0.2239 0.5017 -0.1570
v -0.2875 0.5017 -0.2207
v -0.2239 0.5017 -0.2843
v -0.1602 0.5017 -0.2207
f 1048/26 1047/26 1046/26 1045/26
v -0.1602 0.5017 -0.2207
v -0.2239 0.5017 -0.2843
v -0.2239 0.4517 -0.2843
v -0.1602 0.4517 -0.2207
f 1052/26 1051/26 1050/26 1049/26
v -0.2239 0.4517 -0.1570
v -0.2875 0.4517 -0.2207
v -0.2875 0.5017 -0.2207
v -0.2239 0.5017 -0.1570
f 1056/26 1055/26 1054/26 1053/26
v -0.2050 0.1600 0.0389
v -0.2050 0.4589 0.0389
v -0.2050 0.4589 0.0139
v -0.2050 0.1600 0.0139
f 1060/21 1059/21 1058/21 1057/21
v -0.2300 0.1600 0.0139
v -0.2300 0.4589 0.0139
v -0.2300 0.4589 0.0389
v -0.2300 0.1600 0.0389
f 1064/21 1063/21 1062/21 1061/21
v -0.2050 0.1600 0.0139
v -0.2300 0.1600 0.0139
v -0.2300 0.1600 0.0389
v -0.2050 0.1600 0.0389
f 1068/21 1067/21 1066/21 1065/21
v -0.2050 0.4589 0.0389
v -0.2300 0.4589 0.0389
v -0.2300 0.4589 0.0139
v -0.2050 0.4589 0.0139
f 1072/21 1071/21 1070/21 1069/21
v -0.2050 0.4589 0.0139
v -0.2300 0.4589 0.0139
v -0.2300 0.1600 0.0139
v -0.2050 0.1600 0.0139
f 1076/21 1075/21 1074/21 1073/21
v -0.2050 0.1600 0.0389
v -0.2300 0.1600 0.0389
v -0.2300 0.4589 0.0389
v -0.2050 0.4589 0.0389
f 1080/21 1079/21 1078/21 1077/21
v -0.2429 0.1850 0.0637
v -0.2429 0.2150 0.0637
v -0.2229 0.2150 0.0291
v -0.2229 0.1850 0.0291
f 1084/20 1083/20 1082/20 1081/20
v -0.2921 0.1850 -0.0109
v -0.2921 0.2150 -0.0109
v -0.3121 0.2150 0.0237
v -0.3121 0.1850 0.0237
f 1088/20 1087/20 1086/20 1085/20
v -0.2229 0.1850 0.0291
v -0.2921 0.1850 -0.0109
v -0.3121 0.1850 0.0237
v -0.2429 0.1850 0.0637
f 1092/20 1091/20 1090/20 1089/20
v -0.2429 0.2150 0.0637
v -0.3121 0.2150 0.0237
v -0.2921 0.2150 -0.0109
v -0.2229 0.2150 0.0291
f 1096/20 1095/20 1094/20 1093/20
v -0.2229 0.2150 0.0291
v -0.2921 0.2150 -0.0109
v -0.2921 0.1850 -0.0109
v -0.2229 0.1850 0.0291
f 1100/20 1099/20 1098/20 1097/20
v -0.2429 0.1850 0.0637
v -0.3121 0.1850 0.0237
v -0.3121 0.2150 0.0237
v -0.2429 0.2150 0.0637
f 1104/20 1103/20 1102/20 1101/20
v -0.2175 0.4439 0.0900
v -0.2175 0.4939 0.0900
v -0.1539 0.4939 0.0264
v -0.1539 0.4439 0.0264
f 1108/8 1107/8 1106/8 1105/8
v -0.2175 0.4439 -0.0372
v -0.2175 0.4939 -0.0372
v -0.2811 0.4939 0.0264
v -0.2811 0.4439 0.0264
f 1112/8 1111/8 1110/8 1109/8
v -0.1539 0.4439 0.0264
v -0.2175 0.4439 -0.0372
v -0.2811 0.4439 0.0264
v -0.2175 0.4439 0.0900
f 1116/8 1115/8 1114/8 1113/8
v -0.2175 0.4939 0.0900
v -0.2811 0.4939 0.0264
v -0.2175 0.4939 -0.0372
v -0.1539 0.4939 0.0264
f 1120/8 1119/8 1118/8 1117/8
v -0.1539 0.4939 0.0264
v -0.2175 0.4939 -0.0372
v -0.2175 0.4439 -0.0372
v -0.1539 0.4439 0.0264
f 1124/8 1123/8 1122/8 1121/8
v -0.2175 0.4439 0.0900
v -0.2811 0.4439 0.0264
v -0.2811 0.4939 0.0264
v -0.2175 0.4939 0.0900
f 1128/8 1127/8 1126/8 1125/8
v -0.2421 0.1600 0.2781
v -0.2421 0.4314 0.2781
v -0.2421 0.4314 0.2531
v -0.2421 0.1600 0.2531
f 1132/21 1131/21 1130/21 1129/21
v -0.2671 0.1600 0.2531
v -0.2671 0.4314 0.2531
v -0.2671 0.4314 0.2781
v -0.2671 0.1600 0.2781
f 1136/21 1135/21 1134/21 1133/21
v -0.2421 0.1600 0.2531
v -0.2671 0.1600 0.2531
v -0.2671 0.1600 0.2781
v -0.2421 0.1600 0.2781
f 1140/21 1139/21 1138/21 1137/21
v -0.2421 0.4314 0.2781
v -0.2671 0.4314 0.2781
v -0.2671 0.4314 0.2531
v -0.2421 0.4314 0.2531
f 1144/21 1143/21 1142/21 1141/21
v -0.2421 0.4314 0.2531
v -0.2671 0.4314 0.2531
v -0.2671 0.1600 0.2531
v -0.2421 0.1600 0.2531
f 1148/21 1147/21 1146/21 1145/21
v -0.2421 0.1600 0.2781
v -0.2671 0.1600 0.2781
v -0.2671 0.4314 0.2781
v -0.2421 0.4314 0.2781
f 1152/21 1151/21 1150/21 1149/21
v -0.2800 0.1850 0.3029
v -0.2800 0.2150 0.3029
v -0.2600 0.2150 0.2683
v -0.2600 0.1850 0.2683
f 1156/20 1155/20 1154/20 1153/20
v -0.3293 0.1850 0.2283
v -0.3293 0.2150 0.2283
v -0.3493 0.2150 0.2629
v -0.3493 0.1850 0.2629
f 1160/20 1159/20 1158/20 1157/20
v -0.2600 0.1850 0.2683
v -0.3293 0.1850 0.2283
v -0.3493 0.1850 0.2629
v -0.2800 0.1850 0.3029
f 1164/20 1163/20 1162/20 1161/20
v -0.2800 0.2150 0.3029
v -0.3493 0.2150 0.2629
v -0.3293 0.2150 0.2283
v -0.2600 0.2150 0.2683
f 1168/20 1167/20 1166/20 1165/20
v -0.2600 0.2150 0.2683
v -0.3293 0.2150 0.2283
v -0.3293 0.1850 0.2283
v -0.2600 0.1850 0.2683
f 1172/20 1171/20 1170/20 1169/20
v -0.2800 0.1850 0.3029
v -0.3493 0.1850 0.2629
v -0.3493 0.2150 0.2629
v -0.2800 0.2150 0.3029
f 1176/20 1175/20 1174/20 1173/20
v -0.2546 0.4164 0.3292
v -0.2546 0.4664 0.3292
v -0.1910 0.4664 0.2656
v -0.1910 0.4164 0.2656
f 1180/15 1179/15 1178/15 1177/15
v -0.2546 0.4164 0.2020
v -0.2546 0.4664 0.2020
v -0.3183 0.4664 0.2656
v -0.3183 0.4164 0.2656
f 1184/15 1183/15 1182/15 1181/15
v -0.1910 0.4164 0.2656
v -0.2546 0.4164 0.2020
v -0.3183 0.4164 0.2656
v -0.2546 0.4164 0.3292
f 1188/15 1187/15 1186/15 1185/15
v -0.2546 0.4664 0.3292
v -0.3183 0.4664 0.2656
v -0.2546 0.4664 0.2020
v -0.1910 0.4664 0.2656
f 1192/15 1191/15 1190/15 1189/15
v -0.1910 0.4664 0.2656
v -0.2546 0.4664 0.2020
v -0.2546 0.4164 0.2020
v -0.1910 0.4164 0.2656
f 1196/15 1195/15 1194/15 1193/15
v -0.2546 0.4164 0.3292
v -0.3183 0.4164 0.2656
v -0.3183 0.4664 0.2656
v -0.2546 0.4664 0.3292
f 1200/15 1199/15 1198/15 1197/15
v -0.4882 0.1600 -0.1972
v -0.4882 0.3923 -0.1972
v -0.4882 0.3923 -0.2222
v -0.4882 0.1600 -0.2222
f 1204/21 1203/21 1202/21 1201/21
v -0.5132 0.1600 -0.2222
v -0.5132 0.3923 -0.2222
v -0.5132 0.3923 -0.1972
v -0.5132 0.1600 -0.1972
f 1208/21 1207/21 1206/21 1205/21
v -0.4882 0.1600 -0.2222
v -0.5132 0.1600 -0.2222
v -0.5132 0.1600 -0.1972
v -0.4882 0.1600 -0.1972
f 1212/21 1211/21 1210/21 1209/21
v -0.4882 0.3923 -0.1972
v -0.5132 0.3923 -0.1972
v -0.5132 0.3923 -0.2222
v -0.4882 0.3923 -0.2222
f 1216/21 1215/21 1214/21 1213/21
v -0.4882 0.3923 -0.2222
v -0.5132 0.3923 -0.2222
v -0.5132 0.1600 -0.2222
v -0.4882 0.1600 -0.2222
f 1220/21 1219/21 1218/21 1217/21
v -0.4882 0.1600 -0.1972
v -0.5132 0.1600 -0.1972
v -0.5132 0.3923 -0.1972
v -0.4882 0.3923 -0.1972
f 1224/21 1223/21 1222/21 1221/21
v -0.5261 0.1850 -0.1724
v -0.5261 0.2150 -0.1724
v -0.5061 0.2150 -0.2070
v -0.5061 0.1850 -0.2070
f 1228/20 1227/20 1226/20 1225/20
v -0.5753 0.1850 -0.2470
v -0.5753 0.2150 -0.2470
v -0.5953 0.2150 -0.2124
v -0.5953 0.1850 -0.2124
f 1232/20 1231/20 1230/20 1229/20
v -0.5061 0.1850 -0.2070
v -0.5753 0.1850 -0.2470
v -0.5953 0.1850 -0.2124
v -0.5261 0.1850 -0.1724
f 1236/20 1235/20 1234/20 1233/20
v -0.5261 0.2150 -0.1724
v -0.5953 0.2150 -0.2124
v -0.5753 0.2150 -0.2470
v -0.5061 0.2150 -0.2070
f 1240/20 1239/20 1238/20 1237/20
v -0.5061 0.2150 -0.2070
v -0.5753 0.2150 -0.2470
v -0.5753 0.1850 -0.2470
v -0.5061 0.1850 -0.2070
f 1244/20 1243/20 1242/20 1241/20
v -0.5261 0.1850 -0.1724
v -0.5953 0.1850 -0.2124
v -0.5953 0.2150 -0.2124
v -0.5261 0.2150 -0.1724
f 1248/20 1247/20 1246/20 1245/20
v -0.5007 0.3773 -0.1461
v -0.5007 0.4273 -0.1461
v -0.4371 0.4273 -0.2097
v -0.4371 0.3773 -0.2097
f 1252/27 1251/27 1250/27 1249/27
v -0.5007 0.3773 -0.2734
v -0.5007 0.4273 -0.2734
v -0.5643 0.4273 -0.2097
v -0.5643 0.3773 -0.2097
f 1256/27 1255/27 1254/27 1253/27
v -0.4371 0.3773 -0.2097
v -0.5007 0.3773 -0.2734
v -0.5643 0.3773 -0.2097
v -0.5007 0.3773 -0.1461
f 1260/27 1259/27 1258/27 1257/27
v -0.5007 0.4273 -0.1461
v -0.5643 0.4273 -0.2097
v -0.5007 0.4273 -0.2734
v -0.4371 0.4273 -0.2097
f 1264/27 1263/27 1262/27 1261/27
v -0.4371 0.4273 -0.2097
v -0.5007 0.4273 -0.2734
v -0.5007 0.3773 -0.2734
v -0.4371 0.3773 -0.2097
f 1268/27 1267/27 1266/27 1265/27
v -0.5007 0.3773 -0.1461
v -0.5643 0.3773 -0.2097
v -0.5643 0.4273 -0.2097
v -0.5007 0.4273 -0.1461
f 1272/27 1271/27 1270/27 1269/27
v -0.4955 0.1600 0.0040
v -0.4955 0.4376 0.0040
v -0.4955 0.4376 -0.0210
v -0.4955 0.1600 -0.0210
f 1276/21 1275/21 1274/21 1273/21
v -0.5205 0.1600 -0.0210
v -0.5205 0.4376 -0.0210
v -0.5205 0.4376 0.0040
v -0.5205 0.1600 0.0040
f 1280/21 1279/21 1278/21 1277/21
v -0.4955 0.1600 -0.0210
v -0.5205 0.1600 -0.0210
v -0.5205 0.1600 0.0040
v -0.4955 0.1600 0.0040
f 1284/21 1283/21 1282/21 1281/21
v -0.4955 0.4376 0.0040
v -0.5205 0.4376 0.0040
v -0.5205 0.4376 -0.0210
v -0.4955 0.4376 -0.0210
f 1288/21 1287/21 1286/21 1285/21
v -0.4955 0.4376 -0.0210
v -0.5205 0.4376 -0.0210
v -0.5205 0.1600 -0.0210
v -0.4955 0.1600 -0.0210
f 1292/21 1291/21 1290/21 1289/21
v -0.4955 0.1600 0.0040
v -0.5205 0.1600 0.0040
v -0.5205 0.4376 0.0040
v -0.4955 0.4376 0.0040
f 1296/21 1295/21 1294/21 1293/21
v -0.5333 0.1850 0.0288
v -0.5333 0.2150 0.0288
v -0.5133 0.2150 -0.0058
v -0.5133 0.1850 -0.0058
f 1300/20 1299/20 1298/20 1297/20
v -0.5826 0.1850 -0.0458
v -0.5826 0.2150 -0.0458
v -0.6026 0.2150 -0.0112
v -0.6026 0.1850 -0.0112
f 1304/20 1303/20 1302/20 1301/20
v -0.5133 0.1850 -0.0058
v -0.5826 0.1850 -0.0458
v -0.6026 0.1850 -0.0112
v -0.5333 0.1850 0.0288
f 1308/20 1307/20 1306/20 1305/20
v -0.5333 0.2150 0.0288
v -0.6026 0.2150 -0.0112
v -0.5826 0.2150 -0.0458
v -0.5133 0.2150 -0.0058
f 1312/20 1311/20 1310/20 1309/20
v -0.5133 0.2150 -0.0058
v -0.5826 0.2150 -0.0458
v -0.5826 0.1850 -0.0458
v -0.5133 0.1850 -0.0058
f 1316/20 1315/20 1314/20 1313/20
v -0.5333 0.1850 0.0288
v -0.6026 0.1850 -0.0112
v -0.6026 0.2150 -0.0112
v -0.5333 0.2150 0.0288
f 1320/20 1319/20 1318/20 1317/20
v -0.5080 0.4226 0.0552
v -0.5080 0.4726 0.0552
v -0.4443 0.4726 -0.0085
v -0.4443 0.4226 -0.0085
f 1324/26 1323/26 1322/26 1321/26
v -0.5080 0.4226 -0.0721
v -0.5080 0.4726 -0.0721
v -0.5716 0.4726 -0.0085
v -0.5716 0.4226 -0.0085
f 1328/26 1327/26 1326/26 1325/26
v -0.4443 0.4226 -0.0085
v -0.5080 0.4226 -0.0721
v -0.5716 0.4226 -0.0085
v -0.5080 0.4226 0.0552
f 1332/26 1331/26 1330/26 1329/26
v -0.5080 0.4726 0.0552
v -0.5716 0.4726 -0.0085
v -0.5080 0.4726 -0.0721
v -0.4443 0.4726 -0.0085
f 1336/26 1335/26 1334/26 1333/26
v -0.4443 0.4726 -0.0085
v -0.5080 0.4726 -0.0721
v -0.5080 0.4226 -0.0721
v -0.4443 0.4226 -0.0085
f 1340/26 1339/26 1338/26 1337/26
v -0.5080 0.4226 0.0552
v -0.5716 0.4226 -0.0085
v -0.5716 0.4726 -0.0085
v -0.5080 0.4726 0.0552
f 1344/26 1343/26 1342/26 1341/26
v -0.4392 0.1600 0.2684
v -0.4392 0.4150 0.2684
v -0.4392 0.4150 0.2434
v -0.4392 0.1600 0.2434
f 1348/21 1347/21 1346/21 1345/21
v -0.4642 0.1600 0.2434
v -0.4642 0.4150 0.2434
v -0.4642 0.4150 0.2684
v -0.4642 0.1600 0.2684
f 1352/21 1351/21 1350/21 1349/21
v -0.4392 0.1600 0.2434
v -0.4642 0.1600 0.2434
v -0.4642 0.1600 0.2684
v -0.4392 0.1600 0.2684
f 1356/21 1355/21 1354/21 1353/21
v -0.4392 0.4150 0.2684
v -0.4642 0.4150 0.2684
v -0.4642 0.4150 0.2434
v -0.4392 0.4150 0.2434
f 1360/21 1359/21 1358/21 1357/21
v -0.4392 0.4150 0.2434
v -0.4642 0.4150 0.2434
v -0.4642 0.1600 0.2434
v -0.4392 0.1600 0.2434
f 1364/21 1363/21 1362/21 1361/21
v -0.4392 0.1600 0.2684
v -0.4642 0.1600 0.2684
v -0.4642 0.4150 0.2684
v -0.4392 0.4150 0.2684
f 1368/21 1367/21 1366/21 1365/21
v -0.4771 0.1850 0.2932
v -0.4771 0.2150 0.2932
v -0.4571 0.2150 0.2586
v -0.4571 0.1850 0.2586
f 1372/20 1371/20 1370/20 1369/20
v -0.5263 0.1850 0.2186
v -0.5263 0.2150 0.2186
v -0.5463 0.2150 0.2532
v -0.5463 0.1850 0.2532
f 1376/20 1375/20 1374/20 1373/20
v -0.4571 0.1850 0.2586
v -0.5263 0.1850 0.2186
v -0.5463 0.1850 0.2532
v -0.4771 0.1850 0.2932
f 1380/20 1379/20 1378/20 1377/20
v -0.4771 0.2150 0.2932
v -0.5463 0.2150 0.2532
v -0.5263 0.2150 0.2186
v -0.4571 0.2150 0.2586
f 1384/20 1383/20 1382/20 1381/20
v -0.4571 0.2150 0.2586
v -0.5263 0.2150 0.2186
v -0.5263 0.1850 0.2186
v -0.4571 0.1850 0.2586
f 1388/20 1387/20 1386/20 1385/20
v -0.4771 0.1850 0.2932
v -0.5463 0.1850 0.2532
v -0.5463 0.2150 0.2532
v -0.4771 0.2150 0.2932
f 1392/20 1391/20 1390/20 1389/20
v -0.4517 0.4000 0.3195
v -0.4517 0.4500 0.3195
v -0.3881 0.4500 0.2559
v -0.3881 0.4000 0.2559
f 1396/8 1395/8 1394/8 1393/8
v -0.4517 0.4000 0.1922
v -0.4517 0.4500 0.1922
v -0.5153 0.4500 0.2559
v -0.5153 0.4000 0.2559
f 1400/8 1399/8 1398/8 1397/8
v -0.3881 0.4000 0.2559
v -0.4517 0.4000 0.1922
v -0.5153 0.4000 0.2559
v -0.4517 0.4000 0.3195
f 1404/8 1403/8 1402/8 1401/8
v -0.4517 0.4500 0.3195
v -0.5153 0.4500 0.2559
v -0.4517 0.4500 0.1922
v -0.3881 0.4500 0.2559
f 1408/8 1407/8 1406/8 1405/8
v -0.3881 0.4500 0.2559
v -0.4517 0.4500 0.1922
v -0.4517 0.4000 0.1922
v -0.3881 0.4000 0.2559
f 1412/8 1411/8 1410/8 1409/8
v -0.4517 0.4000 0.3195
v -0.5153 0.4000 0.2559
v -0.5153 0.4500 0.2559
v -0.4517 0.4500 0.3195
f 1416/8 1415/8 1414/8 1413/8
v -0.7372 0.1600 -0.2455
v -0.7372 0.4474 -0.2455
v -0.7372 0.4474 -0.2705
v -0.7372 0.1600 -0.2705
f 1420/21 1419/21 1418/21 1417/21
v -0.7622 0.1600 -0.2705
v -0.7622 0.4474 -0.2705
v -0.7622 0.4474 -0.2455
v -0.7622 0.1600 -0.2455
f 1424/21 1423/21 1422/21 1421/21
v -0.7372 0.1600 -0.2705
v -0.7622 0.1600 -0.2705
v -0.7622 0.1600 -0.2455
v -0.7372 0.1600 -0.2455
f 1428/21 1427/21 1426/21 1425/21
v -0.7372 0.4474 -0.2455
v -0.7622 0.4474 -0.2455
v -0.7622 0.4474 -0.2705
v -0.7372 0.4474 -0.2705
f 1432/21 1431/21 1430/21 1429/21
v -0.7372 0.4474 -0.2705
v -0.7622 0.4474 -0.2705
v -0.7622 0.1600 -0.2705
v -0.7372 0.1600 -0.2705
f 1436/21 1435/21 1434/21 1433/21
v -0.7372 0.1600 -0.2455
v -0.7622 0.1600 -0.2455
v -0.7622 0.4474 -0.2455
v -0.7372 0.4474 -0.2455
f 1440/21 1439/21 1438/21 1437/21
v -0.7751 0.1850 -0.2206
v -0.7751 0.2150 -0.2206
v -0.7551 0.2150 -0.2553
v -0.7551 0.1850 -0.2553
f 1444/20 1443/20 1442/20 1441/20
v -0.8243 0.1850 -0.2953
v -0.8243 0.2150 -0.2953
v -0.8443 0.2150 -0.2606
v -0.8443 0.1850 -0.2606
f 1448/20 1447/20 1446/20 1445/20
v -0.7551 0.1850 -0.2553
v -0.8243 0.1850 -0.2953
v -0.8443 0.1850 -0.2606
v -0.7751 0.1850 -0.2206
f 1452/20 1451/20 1450/20 1449/20
v -0.7751 0.2150 -0.2206
v -0.8443 0.2150 -0.2606
v -0.8243 0.2150 -0.2953
v -0.7551 0.2150 -0.2553
f 1456/20 1455/20 1454/20 1453/20
v -0.7551 0.2150 -0.2553
v -0.8243 0.2150 -0.2953
v -0.8243 0.1850 -0.2953
v -0.7551 0.1850 -0.2553
f 1460/20 1459/20 1458/20 1457/20
v -0.7751 0.1850 -0.2206
v -0.8443 0.1850 -0.2606
v -0.8443 0.2150 -0.2606
v -0.7751 0.2150 -0.2206
f 1464/20 1463/20 1462/20 1461/20
v -0.7497 0.4324 -0.1943
v -0.7497 0.4824 -0.1943
v -0.6861 0.4824 -0.2580
v -0.6861 0.4324 -0.2580
f 1468/15 1467/15 1466/15 1465/15
v -0.7497 0.4324 -0.3216
v -0.7497 0.4824 -0.3216
v -0.8133 0.4824 -0.2580
v -0.8133 0.4324 -0.2580
f 1472/15 1471/15 1470/15 1469/15
v -0.6861 0.4324 -0.2580
v -0.7497 0.4324 -0.3216
v -0.8133 0.4324 -0.2580
v -0.7497 0.4324 -0.1943
f 1476/15 1475/15 1474/15 1473/15
v -0.7497 0.4824 -0.1943
v -0.8133 0.4824 -0.2580
v -0.7497 0.4824 -0.3216
v -0.6861 0.4824 -0.2580
f 1480/15 1479/15 1478/15 1477/15
v -0.6861 0.4824 -0.2580
v -0.7497 0.4824 -0.3216
v -0.7497 0.4324 -0.3216
v -0.6861 0.4324 -0.2580
f 1484/15 1483/15 1482/15 1481/15
v -0.7497 0.4324 -0.1943
v -0.8133 0.4324 -0.2580
v -0.8133 0.4824 -0.2580
v -0.7497 0.4824 -0.1943
f 1488/15 1487/15 1486/15 1485/15
v -0.6995 0.1600 0.0215
v -0.6995 0.4036 0.0215
v -0.6995 0.4036 -0.0035
v -0.6995 0.1600 -0.0035
f 1492/21 1491/21 1490/21 1489/21
v -0.7245 0.1600 -0.0035
v -0.7245 0.4036 -0.0035
v -0.7245 0.4036 0.0215
v -0.7245 0.1600 0.0215
f 1496/21 1495/21 1494/21 1493/21
v -0.6995 0.1600 -0.0035
v -0.7245 0.1600 -0.0035
v -0.7245 0.1600 0.0215
v -0.6995 0.1600 0.0215
f 1500/21 1499/21 1498/21 1497/21
v -0.6995 0.4036 0.0215
v -0.7245 0.4036 0.0215
v -0.7245 0.4036 -0.0035
v -0.6995 0.4036 -0.0035
f 1504/21 1503/21 1502/21 1501/21
v -0.6995 0.4036 -0.0035
v -0.7245 0.4036 -0.0035
v -0.7245 0.1600 -0.0035
v -0.6995 0.1600 -0.0035
f 1508/21 1507/21 1506/21 1505/21
v -0.6995 0.1600 0.0215
v -0.7245 0.1600 0.0215
v -0.7245 0.4036 0.0215
v -0.6995 0.4036 0.0215
f 1512/21 1511/21 1510/21 1509/21
v -0.7373 0.1850 0.0464
v -0.7373 0.2150 0.0464
v -0.7173 0.2150 0.0117
v -0.7173 0.1850 0.0117
f 1516/20 1515/20 1514/20 1513/20
v -0.7866 0.1850 -0.0283
v -0.7866 0.2150 -0.0283
v -0.8066 0.2150 0.0064
v -0.8066 0.1850 0.0064
f 1520/20 1519/20 1518/20 1517/20
v -0.7173 0.1850 0.0117
v -0.7866 0.1850 -0.0283
v -0.8066 0.1850 0.0064
v -0.7373 0.1850 0.0464
f 1524/20 1523/20 1522/20 1521/20
v -0.7373 0.2150 0.0464
v -0.8066 0.2150 0.0064
v -0.7866 0.2150 -0.0283
v -0.7173 0.2150 0.0117
f 1528/20 1527/20 1526/20 1525/20
v -0.7173 0.2150 0.0117
v -0.7866 0.2150 -0.0283
v -0.7866 0.1850 -0.0283
v -0.7173 0.1850 0.0117
f 1532/20 1531/20 1530/20 1529/20
v -0.7373 0.1850 0.0464
v -0.8066 0.1850 0.0064
v -0.8066 0.2150 0.0064
v -0.7373 0.2150 0.0464
f 1536/20 1535/20 1534/20 1533/20
v -0.7120 0.3886 0.0727
v -0.7120 0.4386 0.0727
v -0.6483 0.4386 0.0090
v -0.6483 0.3886 0.0090
f 1540/27 1539/27 1538/27 1537/27
v -0.7120 0.3886 -0.0546
v -0.7120 0.4386 -0.0546
v -0.7756 0.4386 0.0090
v -0.7756 0.3886 0.0090
f 1544/27 1543/27 1542/27 1541/27
v -0.6483 0.3886 0.0090
v -0.7120 0.3886 -0.0546
v -0.7756 0.3886 0.0090
v -0.7120 0.3886 0.0727
f 1548/27 1547/27 1546/27 1545/27
v -0.7120 0.4386 0.0727
v -0.7756 0.4386 0.0090
v -0.7120 0.4386 -0.0546
v -0.6483 0.4386 0.0090
f 1552/27 1551/27 1550/27 1549/27
v -0.6483 0.4386 0.0090
v -0.7120 0.4386 -0.0546
v -0.7120 0.3886 -0.0546
v -0.6483 0.3886 0.0090
f 1556/27 1555/27 1554/27 1553/27
v -0.7120 0.3886 0.0727
v -0.7756 0.3886 0.0090
v -0.7756 0.4386 0.0090
v -0.7120 0.4386 0.0727
f 1560/27 1559/27 1558/27 1557/27
v -0.6819 0.1600 0.2722
v -0.6819 0.4703 0.2722
v -0.6819 0.4703 0.2472
v -0.6819 0.1600 0.2472
f 1564/21 1563/21 1562/21 1561/21
v -0.7069 0.1600 0.2472
v -0.7069 0.4703 0.2472
v -0.7069 0.4703 0.2722
v -0.7069 0.1600 0.2722
f 1568/21 1567/21 1566/21 1565/21
v -0.6819 0.1600 0.2472
v -0.7069 0.1600 0.2472
v -0.7069 0.1600 0.2722
v -0.6819 0.1600 0.2722
f 1572/21 1571/21 1570/21 1569/21
v -0.6819 0.4703 0.2722
v -0.7069 0.4703 0.2722
v -0.7069 0.4703 0.2472
v -0.6819 0.4703 0.2472
f 1576/21 1575/21 1574/21 1573/21
v -0.6819 0.4703 0.2472
v -0.7069 0.4703 0.2472
v -0.7069 0.1600 0.2472
v -0.6819 0.1600 0.2472
f 1580/21 1579/21 1578/21 1577/21
v -0.6819 0.1600 0.2722
v -0.7069 0.1600 0.2722
v -0.7069 0.4703 0.2722
v -0.6819 0.4703 0.2722
f 1584/21 1583/21 1582/21 1581/21
v -0.7198 0.1850 0.2971
v -0.7198 0.2150 0.2971
v -0.6998 0.2150 0.2624
v -0.6998 0.1850 0.2624
f 1588/20 1587/20 1586/20 1585/20
v -0.7691 0.1850 0.2224
v -0.7691 0.2150 0.2224
v -0.7891 0.2150 0.2571
v -0.7891 0.1850 0.2571
f 1592/20 1591/20 1590/20 1589/20
v -0.6998 0.1850 0.2624
v -0.7691 0.1850 0.2224
v -0.7891 0.1850 0.2571
v -0.7198 0.1850 0.2971
f 1596/20 1595/20 1594/20 1593/20
v -0.7198 0.2150 0.2971
v -0.7891 0.2150 0.2571
v -0.7691 0.2150 0.2224
v -0.6998 0.2150 0.2624
f 1600/20 1599/20 1598/20 1597/20
v -0.6998 0.2150 0.2624
v -0.7691 0.2150 0.2224
v -0.7691 0.1850 0.2224
v -0.6998 0.1850 0.2624
f 1604/20 1603/20 1602/20 1601/20
v -0.7198 0.1850 0.2971
v -0.7891 0.1850 0.2571
v -0.7891 0.2150 0.2571
v -0.7198 0.2150 0.2971
f 1608/20 1607/20 1606/20 1605/20
v -0.6944 0.4553 0.3234
v -0.6944 0.5053 0.3234
v -0.6308 0.5053 0.2597
v -0.6308 0.4553 0.2597
f 1612/26 1611/26 1610/26 1609/26
v -0.6944 0.4553 0.1961
v -0.6944 0.5053 0.1961
v -0.7581 0.5053 0.2597
v -0.7581 0.4553 0.2597
f 1616/26 1615/26 1614/26 1613/26
v -0.6308 0.4553 0.2597
v -0.6944 0.4553 0.1961
v -0.7581 0.4553 0.2597
v -0.6944 0.4553 0.3234
f 1620/26 1619/26 1618/26 1617/26
v -0.6944 0.5053 0.3234
v -0.7581 0.5053 0.2597
v -0.6944 0.5053 0.1961
v -0.6308 0.5053 0.2597
f 1624/26 1623/26 1622/26 1621/26
v -0.6308 0.5053 0.2597
v -0.6944 0.5053 0.1961
v -0.6944 0.4553 0.1961
v -0.6308 0.4553 0.2597
f 1628/26 1627/26 1626/26 1625/26
v -0.6944 0.4553 0.3234
v -0.7581 0.4553 0.2597
v -0.7581 0.5053 0.2597
v -0.6944 0.5053 0.3234
f 1632/26 1631/26 1630/26 1629/26
