# Walk of Industry low-poly (generated, wi_lib.py)
mtllib wi.mtl
vt 0 0
vt 0.03125 0.03125
vt 0.09375 0.03125
vt 0.15625 0.03125
vt 0.21875 0.03125
vt 0.28125 0.03125
vt 0.34375 0.03125
vt 0.40625 0.03125
vt 0.46875 0.03125
vt 0.53125 0.03125
vt 0.59375 0.03125
vt 0.65625 0.03125
vt 0.71875 0.03125
vt 0.78125 0.03125
vt 0.84375 0.03125
vt 0.90625 0.03125
vt 0.96875 0.03125
vt 0.03125 0.09375
vt 0.09375 0.09375
vt 0.15625 0.09375
vt 0.21875 0.09375
vt 0.28125 0.09375
vt 0.34375 0.09375
vt 0.40625 0.09375
vt 0.46875 0.09375
vt 0.53125 0.09375
vt 0.59375 0.09375
vt 0.65625 0.09375
vt 0.71875 0.09375
vt 0.78125 0.09375
vt 0.84375 0.09375
vt 0.90625 0.09375
vt 0.96875 0.09375
o Body
usemtl wi_paint
v 0.1100 3.3400 -0.2900
v 0.1100 3.5600 -0.2900
v 0.1100 3.5600 -0.3500
v 0.1100 3.3400 -0.3500
f 4/1 3/1 2/1 1/1
v -0.1100 3.3400 -0.3500
v -0.1100 3.5600 -0.3500
v -0.1100 3.5600 -0.2900
v -0.1100 3.3400 -0.2900
f 8/1 7/1 6/1 5/1
v 0.1100 3.3400 -0.3500
v -0.1100 3.3400 -0.3500
v -0.1100 3.3400 -0.2900
v 0.1100 3.3400 -0.2900
f 12/1 11/1 10/1 9/1
v 0.1100 3.5600 -0.2900
v -0.1100 3.5600 -0.2900
v -0.1100 3.5600 -0.3500
v 0.1100 3.5600 -0.3500
f 16/1 15/1 14/1 13/1
v 0.1100 3.5600 -0.3500
v -0.1100 3.5600 -0.3500
v -0.1100 3.3400 -0.3500
v 0.1100 3.3400 -0.3500
f 20/1 19/1 18/1 17/1
v 0.1100 3.3400 -0.2900
v -0.1100 3.3400 -0.2900
v -0.1100 3.5600 -0.2900
v 0.1100 3.5600 -0.2900
f 24/1 23/1 22/1 21/1
v 0.0250 3.5600 0.0000
v 0.0250 3.6800 0.0000
v 0.0250 3.6800 -0.3000
v 0.0250 3.5600 -0.3000
f 28/1 27/1 26/1 25/1
v -0.0250 3.5600 -0.3000
v -0.0250 3.6800 -0.3000
v -0.0250 3.6800 0.0000
v -0.0250 3.5600 0.0000
f 32/1 31/1 30/1 29/1
v 0.0250 3.5600 -0.3000
v -0.0250 3.5600 -0.3000
v -0.0250 3.5600 0.0000
v 0.0250 3.5600 0.0000
f 36/1 35/1 34/1 33/1
v 0.0250 3.6800 0.0000
v -0.0250 3.6800 0.0000
v -0.0250 3.6800 -0.3000
v 0.0250 3.6800 -0.3000
f 40/1 39/1 38/1 37/1
v 0.0250 3.6800 -0.3000
v -0.0250 3.6800 -0.3000
v -0.0250 3.5600 -0.3000
v 0.0250 3.5600 -0.3000
f 44/1 43/1 42/1 41/1
v 0.0250 3.5600 0.0000
v -0.0250 3.5600 0.0000
v -0.0250 3.6800 0.0000
v 0.0250 3.6800 0.0000
f 48/1 47/1 46/1 45/1
usemtl wi_palette
v 0.5000 0.0000 0.5000
v 0.5000 0.2000 0.5000
v 0.5000 0.2000 -0.5000
v 0.5000 0.0000 -0.5000
f 52/11 51/11 50/11 49/11
v -0.5000 0.0000 -0.5000
v -0.5000 0.2000 -0.5000
v -0.5000 0.2000 0.5000
v -0.5000 0.0000 0.5000
f 56/11 55/11 54/11 53/11
v 0.5000 0.0000 -0.5000
v -0.5000 0.0000 -0.5000
v -0.5000 0.0000 0.5000
v 0.5000 0.0000 0.5000
f 60/11 59/11 58/11 57/11
v 0.5000 0.2000 0.5000
v -0.5000 0.2000 0.5000
v -0.5000 0.2000 -0.5000
v 0.5000 0.2000 -0.5000
f 64/11 63/11 62/11 61/11
v 0.5000 0.2000 -0.5000
v -0.5000 0.2000 -0.5000
v -0.5000 0.0000 -0.5000
v 0.5000 0.0000 -0.5000
f 68/11 67/11 66/11 65/11
v 0.5000 0.0000 0.5000
v -0.5000 0.0000 0.5000
v -0.5000 0.2000 0.5000
v 0.5000 0.2000 0.5000
f 72/11 71/11 70/11 69/11
v -0.0742 0.2000 0.2283
v -0.1942 0.2000 0.1411
v -0.0809 3.4000 0.0588
v -0.0309 3.4000 0.0951
f 76/15 75/15 74/15 73/15
v -0.1942 0.2000 0.1411
v -0.2400 0.2000 0.0000
v -0.1000 3.4000 0.0000
v -0.0809 3.4000 0.0588
f 80/15 79/15 78/15 77/15
v -0.2400 0.2000 0.0000
v -0.1942 0.2000 -0.1411
v -0.0809 3.4000 -0.0588
v -0.1000 3.4000 0.0000
f 84/15 83/15 82/15 81/15
v -0.1942 0.2000 -0.1411
v -0.0742 0.2000 -0.2283
v -0.0309 3.4000 -0.0951
v -0.0809 3.4000 -0.0588
f 88/15 87/15 86/15 85/15
v -0.0742 0.2000 -0.2283
v 0.0742 0.2000 -0.2283
v 0.0309 3.4000 -0.0951
v -0.0309 3.4000 -0.0951
f 92/15 91/15 90/15 89/15
v 0.0742 0.2000 -0.2283
v 0.1942 0.2000 -0.1411
v 0.0809 3.4000 -0.0588
v 0.0309 3.4000 -0.0951
f 96/15 95/15 94/15 93/15
v 0.1942 0.2000 -0.1411
v 0.2400 0.2000 -0.0000
v 0.1000 3.4000 -0.0000
v 0.0809 3.4000 -0.0588
f 100/15 99/15 98/15 97/15
v 0.2400 0.2000 -0.0000
v 0.1942 0.2000 0.1411
v 0.0809 3.4000 0.0588
v 0.1000 3.4000 -0.0000
f 104/15 103/15 102/15 101/15
v 0.1942 0.2000 0.1411
v 0.0742 0.2000 0.2283
v 0.0309 3.4000 0.0951
v 0.0809 3.4000 0.0588
f 108/15 107/15 106/15 105/15
v 0.0742 0.2000 0.2283
v -0.0742 0.2000 0.2283
v -0.0309 3.4000 0.0951
v 0.0309 3.4000 0.0951
f 112/15 111/15 110/15 109/15
v 0.0742 0.2000 0.2283
v 0.1942 0.2000 0.1411
v 0.2400 0.2000 -0.0000
v 0.1942 0.2000 -0.1411
v 0.0742 0.2000 -0.2283
v -0.0742 0.2000 -0.2283
v -0.1942 0.2000 -0.1411
v -0.2400 0.2000 0.0000
v -0.1942 0.2000 0.1411
v -0.0742 0.2000 0.2283
f 122/15 121/15 120/15 119/15 118/15 117/15 116/15 115/15 114/15 113/15
v -0.0309 3.4000 0.0951
v -0.0809 3.4000 0.0588
v -0.1000 3.4000 0.0000
v -0.0809 3.4000 -0.0588
v -0.0309 3.4000 -0.0951
v 0.0309 3.4000 -0.0951
v 0.0809 3.4000 -0.0588
v 0.1000 3.4000 -0.0000
v 0.0809 3.4000 0.0588
v 0.0309 3.4000 0.0951
f 132/15 131/15 130/15 129/15 128/15 127/15 126/15 125/15 124/15 123/15
v 0.1500 3.3000 0.3000
v 0.1500 3.6000 0.3000
v 0.1500 3.6000 -0.3000
v 0.1500 3.3000 -0.3000
f 136/15 135/15 134/15 133/15
v -0.1500 3.3000 -0.3000
v -0.1500 3.6000 -0.3000
v -0.1500 3.6000 0.3000
v -0.1500 3.3000 0.3000
f 140/15 139/15 138/15 137/15
v 0.1500 3.3000 -0.3000
v -0.1500 3.3000 -0.3000
v -0.1500 3.3000 0.3000
v 0.1500 3.3000 0.3000
f 144/15 143/15 142/15 141/15
v 0.1500 3.6000 0.3000
v -0.1500 3.6000 0.3000
v -0.1500 3.6000 -0.3000
v 0.1500 3.6000 -0.3000
f 148/15 147/15 146/15 145/15
v 0.1500 3.6000 -0.3000
v -0.1500 3.6000 -0.3000
v -0.1500 3.3000 -0.3000
v 0.1500 3.3000 -0.3000
f 152/15 151/15 150/15 149/15
v 0.1500 3.3000 0.3000
v -0.1500 3.3000 0.3000
v -0.1500 3.6000 0.3000
v 0.1500 3.6000 0.3000
f 156/15 155/15 154/15 153/15
v 0.1000 0.3500 0.2550
v 0.1000 0.7500 0.2550
v 0.1000 0.7500 0.2350
v 0.1000 0.3500 0.2350
f 160/6 159/6 158/6 157/6
v -0.1000 0.3500 0.2350
v -0.1000 0.7500 0.2350
v -0.1000 0.7500 0.2550
v -0.1000 0.3500 0.2550
f 164/6 163/6 162/6 161/6
v 0.1000 0.3500 0.2350
v -0.1000 0.3500 0.2350
v -0.1000 0.3500 0.2550
v 0.1000 0.3500 0.2550
f 168/6 167/6 166/6 165/6
v 0.1000 0.7500 0.2550
v -0.1000 0.7500 0.2550
v -0.1000 0.7500 0.2350
v 0.1000 0.7500 0.2350
f 172/6 171/6 170/6 169/6
v 0.1000 0.7500 0.2350
v -0.1000 0.7500 0.2350
v -0.1000 0.3500 0.2350
v 0.1000 0.3500 0.2350
f 176/6 175/6 174/6 173/6
v 0.1000 0.3500 0.2550
v -0.1000 0.3500 0.2550
v -0.1000 0.7500 0.2550
v 0.1000 0.7500 0.2550
f 180/6 179/6 178/6 177/6
