# Walk of Industry low-poly (generated, wi_lib.py)
mtllib wi.mtl
vt 0 0
vt 0.03125 0.03125
vt 0.09375 0.03125
vt 0.15625 0.03125
vt 0.21875 0.03125
vt 0.28125 0.03125
vt 0.34375 0.03125
vt 0.40625 0.03125
vt 0.46875 0.03125
vt 0.53125 0.03125
vt 0.59375 0.03125
vt 0.65625 0.03125
vt 0.71875 0.03125
vt 0.78125 0.03125
vt 0.84375 0.03125
vt 0.90625 0.03125
vt 0.96875 0.03125
vt 0.03125 0.09375
vt 0.09375 0.09375
vt 0.15625 0.09375
vt 0.21875 0.09375
vt 0.28125 0.09375
vt 0.34375 0.09375
vt 0.40625 0.09375
vt 0.46875 0.09375
vt 0.53125 0.09375
vt 0.59375 0.09375
vt 0.65625 0.09375
vt 0.71875 0.09375
vt 0.78125 0.09375
vt 0.84375 0.09375
vt 0.90625 0.09375
vt 0.96875 0.09375
o Body
usemtl wi_paint
v 0.9500 1.1400 -0.0450
v 0.9500 1.9600 -0.0450
v 0.9500 1.9600 -0.0750
v 0.9500 1.1400 -0.0750
f 4/1 3/1 2/1 1/1
v -0.9500 1.1400 -0.0750
v -0.9500 1.9600 -0.0750
v -0.9500 1.9600 -0.0450
v -0.9500 1.1400 -0.0450
f 8/1 7/1 6/1 5/1
v 0.9500 1.1400 -0.0750
v -0.9500 1.1400 -0.0750
v -0.9500 1.1400 -0.0450
v 0.9500 1.1400 -0.0450
f 12/1 11/1 10/1 9/1
v 0.9500 1.9600 -0.0450
v -0.9500 1.9600 -0.0450
v -0.9500 1.9600 -0.0750
v 0.9500 1.9600 -0.0750
f 16/1 15/1 14/1 13/1
v 0.9500 1.9600 -0.0750
v -0.9500 1.9600 -0.0750
v -0.9500 1.1400 -0.0750
v 0.9500 1.1400 -0.0750
f 20/1 19/1 18/1 17/1
v 0.9500 1.1400 -0.0450
v -0.9500 1.1400 -0.0450
v -0.9500 1.9600 -0.0450
v 0.9500 1.9600 -0.0450
f 24/1 23/1 22/1 21/1
usemtl wi_palette
v 0.8000 0.0000 0.1000
v 0.8000 0.1000 0.1000
v 0.8000 0.1000 -0.1000
v 0.8000 0.0000 -0.1000
f 28/11 27/11 26/11 25/11
v 0.6000 0.0000 -0.1000
v 0.6000 0.1000 -0.1000
v 0.6000 0.1000 0.1000
v 0.6000 0.0000 0.1000
f 32/11 31/11 30/11 29/11
v 0.8000 0.0000 -0.1000
v 0.6000 0.0000 -0.1000
v 0.6000 0.0000 0.1000
v 0.8000 0.0000 0.1000
f 36/11 35/11 34/11 33/11
v 0.8000 0.1000 0.1000
v 0.6000 0.1000 0.1000
v 0.6000 0.1000 -0.1000
v 0.8000 0.1000 -0.1000
f 40/11 39/11 38/11 37/11
v 0.8000 0.1000 -0.1000
v 0.6000 0.1000 -0.1000
v 0.6000 0.0000 -0.1000
v 0.8000 0.0000 -0.1000
f 44/11 43/11 42/11 41/11
v 0.8000 0.0000 0.1000
v 0.6000 0.0000 0.1000
v 0.6000 0.1000 0.1000
v 0.8000 0.1000 0.1000
f 48/11 47/11 46/11 45/11
v 0.7350 0.0500 0.0350
v 0.7350 1.1500 0.0350
v 0.7350 1.1500 -0.0350
v 0.7350 0.0500 -0.0350
f 52/6 51/6 50/6 49/6
v 0.6650 0.0500 -0.0350
v 0.6650 1.1500 -0.0350
v 0.6650 1.1500 0.0350
v 0.6650 0.0500 0.0350
f 56/6 55/6 54/6 53/6
v 0.7350 0.0500 -0.0350
v 0.6650 0.0500 -0.0350
v 0.6650 0.0500 0.0350
v 0.7350 0.0500 0.0350
f 60/6 59/6 58/6 57/6
v 0.7350 1.1500 0.0350
v 0.6650 1.1500 0.0350
v 0.6650 1.1500 -0.0350
v 0.7350 1.1500 -0.0350
f 64/6 63/6 62/6 61/6
v 0.7350 1.1500 -0.0350
v 0.6650 1.1500 -0.0350
v 0.6650 0.0500 -0.0350
v 0.7350 0.0500 -0.0350
f 68/6 67/6 66/6 65/6
v 0.7350 0.0500 0.0350
v 0.6650 0.0500 0.0350
v 0.6650 1.1500 0.0350
v 0.7350 1.1500 0.0350
f 72/6 71/6 70/6 69/6
v -0.6000 0.0000 0.1000
v -0.6000 0.1000 0.1000
v -0.6000 0.1000 -0.1000
v -0.6000 0.0000 -0.1000
f 76/11 75/11 74/11 73/11
v -0.8000 0.0000 -0.1000
v -0.8000 0.1000 -0.1000
v -0.8000 0.1000 0.1000
v -0.8000 0.0000 0.1000
f 80/11 79/11 78/11 77/11
v -0.6000 0.0000 -0.1000
v -0.8000 0.0000 -0.1000
v -0.8000 0.0000 0.1000
v -0.6000 0.0000 0.1000
f 84/11 83/11 82/11 81/11
v -0.6000 0.1000 0.1000
v -0.8000 0.1000 0.1000
v -0.8000 0.1000 -0.1000
v -0.6000 0.1000 -0.1000
f 88/11 87/11 86/11 85/11
v -0.6000 0.1000 -0.1000
v -0.8000 0.1000 -0.1000
v -0.8000 0.0000 -0.1000
v -0.6000 0.0000 -0.1000
f 92/11 91/11 90/11 89/11
v -0.6000 0.0000 0.1000
v -0.8000 0.0000 0.1000
v -0.8000 0.1000 0.1000
v -0.6000 0.1000 0.1000
f 96/11 95/11 94/11 93/11
v -0.6650 0.0500 0.0350
v -0.6650 1.1500 0.0350
v -0.6650 1.1500 -0.0350
v -0.6650 0.0500 -0.0350
f 100/6 99/6 98/6 97/6
v -0.7350 0.0500 -0.0350
v -0.7350 1.1500 -0.0350
v -0.7350 1.1500 0.0350
v -0.7350 0.0500 0.0350
f 104/6 103/6 102/6 101/6
v -0.6650 0.0500 -0.0350
v -0.7350 0.0500 -0.0350
v -0.7350 0.0500 0.0350
v -0.6650 0.0500 0.0350
f 108/6 107/6 106/6 105/6
v -0.6650 1.1500 0.0350
v -0.7350 1.1500 0.0350
v -0.7350 1.1500 -0.0350
v -0.6650 1.1500 -0.0350
f 112/6 111/6 110/6 109/6
v -0.6650 1.1500 -0.0350
v -0.7350 1.1500 -0.0350
v -0.7350 0.0500 -0.0350
v -0.6650 0.0500 -0.0350
f 116/6 115/6 114/6 113/6
v -0.6650 0.0500 0.0350
v -0.7350 0.0500 0.0350
v -0.7350 1.1500 0.0350
v -0.6650 1.1500 0.0350
f 120/6 119/6 118/6 117/6
v 0.9300 1.1600 0.0500
v 0.9300 1.9400 0.0500
v 0.9300 1.9400 -0.0500
v 0.9300 1.1600 -0.0500
f 124/6 123/6 122/6 121/6
v -0.9300 1.1600 -0.0500
v -0.9300 1.9400 -0.0500
v -0.9300 1.9400 0.0500
v -0.9300 1.1600 0.0500
f 128/6 127/6 126/6 125/6
v 0.9300 1.1600 -0.0500
v -0.9300 1.1600 -0.0500
v -0.9300 1.1600 0.0500
v 0.9300 1.1600 0.0500
f 132/6 131/6 130/6 129/6
v 0.9300 1.9400 0.0500
v -0.9300 1.9400 0.0500
v -0.9300 1.9400 -0.0500
v 0.9300 1.9400 -0.0500
f 136/6 135/6 134/6 133/6
v 0.9300 1.9400 -0.0500
v -0.9300 1.9400 -0.0500
v -0.9300 1.1600 -0.0500
v 0.9300 1.1600 -0.0500
f 140/6 139/6 138/6 137/6
v 0.9300 1.1600 0.0500
v -0.9300 1.1600 0.0500
v -0.9300 1.9400 0.0500
v 0.9300 1.9400 0.0500
f 144/6 143/6 142/6 141/6
v 0.8800 1.1625 0.0750
v 0.8800 1.1975 0.0750
v 0.8800 1.1975 0.0450
v 0.8800 1.1625 0.0450
f 148/32 147/32 146/32 145/32
v -0.8800 1.1625 0.0450
v -0.8800 1.1975 0.0450
v -0.8800 1.1975 0.0750
v -0.8800 1.1625 0.0750
f 152/32 151/32 150/32 149/32
v 0.8800 1.1625 0.0450
v -0.8800 1.1625 0.0450
v -0.8800 1.1625 0.0750
v 0.8800 1.1625 0.0750
f 156/32 155/32 154/32 153/32
v 0.8800 1.1975 0.0750
v -0.8800 1.1975 0.0750
v -0.8800 1.1975 0.0450
v 0.8800 1.1975 0.0450
f 160/32 159/32 158/32 157/32
v 0.8800 1.1975 0.0450
v -0.8800 1.1975 0.0450
v -0.8800 1.1625 0.0450
v 0.8800 1.1625 0.0450
f 164/32 163/32 162/32 161/32
v 0.8800 1.1625 0.0750
v -0.8800 1.1625 0.0750
v -0.8800 1.1975 0.0750
v 0.8800 1.1975 0.0750
f 168/32 167/32 166/32 165/32
v 0.8800 1.9025 0.0750
v 0.8800 1.9375 0.0750
v 0.8800 1.9375 0.0450
v 0.8800 1.9025 0.0450
f 172/32 171/32 170/32 169/32
v -0.8800 1.9025 0.0450
v -0.8800 1.9375 0.0450
v -0.8800 1.9375 0.0750
v -0.8800 1.9025 0.0750
f 176/32 175/32 174/32 173/32
v 0.8800 1.9025 0.0450
v -0.8800 1.9025 0.0450
v -0.8800 1.9025 0.0750
v 0.8800 1.9025 0.0750
f 180/32 179/32 178/32 177/32
v 0.8800 1.9375 0.0750
v -0.8800 1.9375 0.0750
v -0.8800 1.9375 0.0450
v 0.8800 1.9375 0.0450
f 184/32 183/32 182/32 181/32
v 0.8800 1.9375 0.0450
v -0.8800 1.9375 0.0450
v -0.8800 1.9025 0.0450
v 0.8800 1.9025 0.0450
f 188/32 187/32 186/32 185/32
v 0.8800 1.9025 0.0750
v -0.8800 1.9025 0.0750
v -0.8800 1.9375 0.0750
v 0.8800 1.9375 0.0750
f 192/32 191/32 190/32 189/32
v 0.8975 1.1800 0.0750
v 0.8975 1.9200 0.0750
v 0.8975 1.9200 0.0450
v 0.8975 1.1800 0.0450
f 196/32 195/32 194/32 193/32
v 0.8625 1.1800 0.0450
v 0.8625 1.9200 0.0450
v 0.8625 1.9200 0.0750
v 0.8625 1.1800 0.0750
f 200/32 199/32 198/32 197/32
v 0.8975 1.1800 0.0450
v 0.8625 1.1800 0.0450
v 0.8625 1.1800 0.0750
v 0.8975 1.1800 0.0750
f 204/32 203/32 202/32 201/32
v 0.8975 1.9200 0.0750
v 0.8625 1.9200 0.0750
v 0.8625 1.9200 0.0450
v 0.8975 1.9200 0.0450
f 208/32 207/32 206/32 205/32
v 0.8975 1.9200 0.0450
v 0.8625 1.9200 0.0450
v 0.8625 1.1800 0.0450
v 0.8975 1.1800 0.0450
f 212/32 211/32 210/32 209/32
v 0.8975 1.1800 0.0750
v 0.8625 1.1800 0.0750
v 0.8625 1.9200 0.0750
v 0.8975 1.9200 0.0750
f 216/32 215/32 214/32 213/32
v -0.8625 1.1800 0.0750
v -0.8625 1.9200 0.0750
v -0.8625 1.9200 0.0450
v -0.8625 1.1800 0.0450
f 220/32 219/32 218/32 217/32
v -0.8975 1.1800 0.0450
v -0.8975 1.9200 0.0450
v -0.8975 1.9200 0.0750
v -0.8975 1.1800 0.0750
f 224/32 223/32 222/32 221/32
v -0.8625 1.1800 0.0450
v -0.8975 1.1800 0.0450
v -0.8975 1.1800 0.0750
v -0.8625 1.1800 0.0750
f 228/32 227/32 226/32 225/32
v -0.8625 1.9200 0.0750
v -0.8975 1.9200 0.0750
v -0.8975 1.9200 0.0450
v -0.8625 1.9200 0.0450
f 232/32 231/32 230/32 229/32
v -0.8625 1.9200 0.0450
v -0.8975 1.9200 0.0450
v -0.8975 1.1800 0.0450
v -0.8625 1.1800 0.0450
f 236/32 235/32 234/32 233/32
v -0.8625 1.1800 0.0750
v -0.8975 1.1800 0.0750
v -0.8975 1.9200 0.0750
v -0.8625 1.9200 0.0750
f 240/32 239/32 238/32 237/32
v 0.8000 1.0650 0.0750
v 0.8000 1.0950 0.0750
v 0.8000 1.0950 0.0450
v 0.8000 1.0650 0.0450
f 244/33 243/33 242/33 241/33
v 0.4000 1.0650 0.0450
v 0.4000 1.0950 0.0450
v 0.4000 1.0950 0.0750
v 0.4000 1.0650 0.0750
f 248/33 247/33 246/33 245/33
v 0.8000 1.0650 0.0450
v 0.4000 1.0650 0.0450
v 0.4000 1.0650 0.0750
v 0.8000 1.0650 0.0750
f 252/33 251/33 250/33 249/33
v 0.8000 1.0950 0.0750
v 0.4000 1.0950 0.0750
v 0.4000 1.0950 0.0450
v 0.8000 1.0950 0.0450
f 256/33 255/33 254/33 253/33
v 0.8000 1.0950 0.0450
v 0.4000 1.0950 0.0450
v 0.4000 1.0650 0.0450
v 0.8000 1.0650 0.0450
f 260/33 259/33 258/33 257/33
v 0.8000 1.0650 0.0750
v 0.4000 1.0650 0.0750
v 0.4000 1.0950 0.0750
v 0.8000 1.0950 0.0750
f 264/33 263/33 262/33 261/33
v -0.4000 1.0650 0.0750
v -0.4000 1.0950 0.0750
v -0.4000 1.0950 0.0450
v -0.4000 1.0650 0.0450
f 268/33 267/33 266/33 265/33
v -0.8000 1.0650 0.0450
v -0.8000 1.0950 0.0450
v -0.8000 1.0950 0.0750
v -0.8000 1.0650 0.0750
f 272/33 271/33 270/33 269/33
v -0.4000 1.0650 0.0450
v -0.8000 1.0650 0.0450
v -0.8000 1.0650 0.0750
v -0.4000 1.0650 0.0750
f 276/33 275/33 274/33 273/33
v -0.4000 1.0950 0.0750
v -0.8000 1.0950 0.0750
v -0.8000 1.0950 0.0450
v -0.4000 1.0950 0.0450
f 280/33 279/33 278/33 277/33
v -0.4000 1.0950 0.0450
v -0.8000 1.0950 0.0450
v -0.8000 1.0650 0.0450
v -0.4000 1.0650 0.0450
f 284/33 283/33 282/33 281/33
v -0.4000 1.0650 0.0750
v -0.8000 1.0650 0.0750
v -0.8000 1.0950 0.0750
v -0.4000 1.0950 0.0750
f 288/33 287/33 286/33 285/33
