# Walk of Industry low-poly (generated, wi_lib.py)
mtllib wi.mtl
vt 0 0
vt 0.03125 0.03125
vt 0.09375 0.03125
vt 0.15625 0.03125
vt 0.21875 0.03125
vt 0.28125 0.03125
vt 0.34375 0.03125
vt 0.40625 0.03125
vt 0.46875 0.03125
vt 0.53125 0.03125
vt 0.59375 0.03125
vt 0.65625 0.03125
vt 0.71875 0.03125
vt 0.78125 0.03125
vt 0.84375 0.03125
vt 0.90625 0.03125
vt 0.96875 0.03125
vt 0.03125 0.09375
vt 0.09375 0.09375
vt 0.15625 0.09375
vt 0.21875 0.09375
vt 0.28125 0.09375
vt 0.34375 0.09375
vt 0.40625 0.09375
vt 0.46875 0.09375
vt 0.53125 0.09375
vt 0.59375 0.09375
vt 0.65625 0.09375
vt 0.71875 0.09375
vt 0.78125 0.09375
vt 0.84375 0.09375
vt 0.90625 0.09375
vt 0.96875 0.09375
o Body
usemtl wi_paint
v -0.5932 2.1800 1.4320
v -1.4320 2.1800 0.5932
v -0.1109 2.9300 0.0459
v -0.0459 2.9300 0.1109
f 4/1 3/1 2/1 1/1
v -1.4320 2.1800 0.5932
v -1.4320 2.1800 -0.5932
v -0.1109 2.9300 -0.0459
v -0.1109 2.9300 0.0459
f 8/1 7/1 6/1 5/1
v -1.4320 2.1800 -0.5932
v -0.5932 2.1800 -1.4320
v -0.0459 2.9300 -0.1109
v -0.1109 2.9300 -0.0459
f 12/1 11/1 10/1 9/1
v -0.5932 2.1800 -1.4320
v 0.5932 2.1800 -1.4320
v 0.0459 2.9300 -0.1109
v -0.0459 2.9300 -0.1109
f 16/1 15/1 14/1 13/1
v 0.5932 2.1800 -1.4320
v 1.4320 2.1800 -0.5932
v 0.1109 2.9300 -0.0459
v 0.0459 2.9300 -0.1109
f 20/1 19/1 18/1 17/1
v 1.4320 2.1800 -0.5932
v 1.4320 2.1800 0.5932
v 0.1109 2.9300 0.0459
v 0.1109 2.9300 -0.0459
f 24/1 23/1 22/1 21/1
v 1.4320 2.1800 0.5932
v 0.5932 2.1800 1.4320
v 0.0459 2.9300 0.1109
v 0.1109 2.9300 0.0459
f 28/1 27/1 26/1 25/1
v 0.5932 2.1800 1.4320
v -0.5932 2.1800 1.4320
v -0.0459 2.9300 0.1109
v 0.0459 2.9300 0.1109
f 32/1 31/1 30/1 29/1
v 0.5932 2.1800 1.4320
v 1.4320 2.1800 0.5932
v 1.4320 2.1800 -0.5932
v 0.5932 2.1800 -1.4320
v -0.5932 2.1800 -1.4320
v -1.4320 2.1800 -0.5932
v -1.4320 2.1800 0.5932
v -0.5932 2.1800 1.4320
f 40/1 39/1 38/1 37/1 36/1 35/1 34/1 33/1
v -0.0459 2.9300 0.1109
v -0.1109 2.9300 0.0459
v -0.1109 2.9300 -0.0459
v -0.0459 2.9300 -0.1109
v 0.0459 2.9300 -0.1109
v 0.1109 2.9300 -0.0459
v 0.1109 2.9300 0.0459
v 0.0459 2.9300 0.1109
f 48/1 47/1 46/1 45/1 44/1 43/1 42/1 41/1
v -0.0536 2.9300 0.1293
v -0.1293 2.9300 0.0536
v -0.0185 3.1300 0.0077
v -0.0077 3.1300 0.0185
f 52/1 51/1 50/1 49/1
v -0.1293 2.9300 0.0536
v -0.1293 2.9300 -0.0536
v -0.0185 3.1300 -0.0077
v -0.0185 3.1300 0.0077
f 56/1 55/1 54/1 53/1
v -0.1293 2.9300 -0.0536
v -0.0536 2.9300 -0.1293
v -0.0077 3.1300 -0.0185
v -0.0185 3.1300 -0.0077
f 60/1 59/1 58/1 57/1
v -0.0536 2.9300 -0.1293
v 0.0536 2.9300 -0.1293
v 0.0077 3.1300 -0.0185
v -0.0077 3.1300 -0.0185
f 64/1 63/1 62/1 61/1
v 0.0536 2.9300 -0.1293
v 0.1293 2.9300 -0.0536
v 0.0185 3.1300 -0.0077
v 0.0077 3.1300 -0.0185
f 68/1 67/1 66/1 65/1
v 0.1293 2.9300 -0.0536
v 0.1293 2.9300 0.0536
v 0.0185 3.1300 0.0077
v 0.0185 3.1300 -0.0077
f 72/1 71/1 70/1 69/1
v 0.1293 2.9300 0.0536
v 0.0536 2.9300 0.1293
v 0.0077 3.1300 0.0185
v 0.0185 3.1300 0.0077
f 76/1 75/1 74/1 73/1
v 0.0536 2.9300 0.1293
v -0.0536 2.9300 0.1293
v -0.0077 3.1300 0.0185
v 0.0077 3.1300 0.0185
f 80/1 79/1 78/1 77/1
v 0.0536 2.9300 0.1293
v 0.1293 2.9300 0.0536
v 0.1293 2.9300 -0.0536
v 0.0536 2.9300 -0.1293
v -0.0536 2.9300 -0.1293
v -0.1293 2.9300 -0.0536
v -0.1293 2.9300 0.0536
v -0.0536 2.9300 0.1293
f 88/1 87/1 86/1 85/1 84/1 83/1 82/1 81/1
v -0.0077 3.1300 0.0185
v -0.0185 3.1300 0.0077
v -0.0185 3.1300 -0.0077
v -0.0077 3.1300 -0.0185
v 0.0077 3.1300 -0.0185
v 0.0185 3.1300 -0.0077
v 0.0185 3.1300 0.0077
v 0.0077 3.1300 0.0185
f 96/1 95/1 94/1 93/1 92/1 91/1 90/1 89/1
usemtl wi_palette
v -0.5434 0.0000 1.3119
v -1.3119 0.0000 0.5434
v -1.3119 0.1600 0.5434
v -0.5434 0.1600 1.3119
f 100/11 99/11 98/11 97/11
v -1.3119 0.0000 0.5434
v -1.3119 0.0000 -0.5434
v -1.3119 0.1600 -0.5434
v -1.3119 0.1600 0.5434
f 104/11 103/11 102/11 101/11
v -1.3119 0.0000 -0.5434
v -0.5434 0.0000 -1.3119
v -0.5434 0.1600 -1.3119
v -1.3119 0.1600 -0.5434
f 108/11 107/11 106/11 105/11
v -0.5434 0.0000 -1.3119
v 0.5434 0.0000 -1.3119
v 0.5434 0.1600 -1.3119
v -0.5434 0.1600 -1.3119
f 112/11 111/11 110/11 109/11
v 0.5434 0.0000 -1.3119
v 1.3119 0.0000 -0.5434
v 1.3119 0.1600 -0.5434
v 0.5434 0.1600 -1.3119
f 116/11 115/11 114/11 113/11
v 1.3119 0.0000 -0.5434
v 1.3119 0.0000 0.5434
v 1.3119 0.1600 0.5434
v 1.3119 0.1600 -0.5434
f 120/11 119/11 118/11 117/11
v 1.3119 0.0000 0.5434
v 0.5434 0.0000 1.3119
v 0.5434 0.1600 1.3119
v 1.3119 0.1600 0.5434
f 124/11 123/11 122/11 121/11
v 0.5434 0.0000 1.3119
v -0.5434 0.0000 1.3119
v -0.5434 0.1600 1.3119
v 0.5434 0.1600 1.3119
f 128/11 127/11 126/11 125/11
v 0.5434 0.0000 1.3119
v 1.3119 0.0000 0.5434
v 1.3119 0.0000 -0.5434
v 0.5434 0.0000 -1.3119
v -0.5434 0.0000 -1.3119
v -1.3119 0.0000 -0.5434
v -1.3119 0.0000 0.5434
v -0.5434 0.0000 1.3119
f 136/11 135/11 134/11 133/11 132/11 131/11 130/11 129/11
v -0.5434 0.1600 1.3119
v -1.3119 0.1600 0.5434
v -1.3119 0.1600 -0.5434
v -0.5434 0.1600 -1.3119
v 0.5434 0.1600 -1.3119
v 1.3119 0.1600 -0.5434
v 1.3119 0.1600 0.5434
v 0.5434 0.1600 1.3119
f 144/11 143/11 142/11 141/11 140/11 139/11 138/11 137/11
v -0.5051 0.1600 1.2195
v -1.2195 0.1600 0.5051
v -1.2195 0.2000 0.5051
v -0.5051 0.2000 1.2195
f 148/22 147/22 146/22 145/22
v -1.2195 0.1600 0.5051
v -1.2195 0.1600 -0.5051
v -1.2195 0.2000 -0.5051
v -1.2195 0.2000 0.5051
f 152/22 151/22 150/22 149/22
v -1.2195 0.1600 -0.5051
v -0.5051 0.1600 -1.2195
v -0.5051 0.2000 -1.2195
v -1.2195 0.2000 -0.5051
f 156/22 155/22 154/22 153/22
v -0.5051 0.1600 -1.2195
v 0.5051 0.1600 -1.2195
v 0.5051 0.2000 -1.2195
v -0.5051 0.2000 -1.2195
f 160/22 159/22 158/22 157/22
v 0.5051 0.1600 -1.2195
v 1.2195 0.1600 -0.5051
v 1.2195 0.2000 -0.5051
v 0.5051 0.2000 -1.2195
f 164/22 163/22 162/22 161/22
v 1.2195 0.1600 -0.5051
v 1.2195 0.1600 0.5051
v 1.2195 0.2000 0.5051
v 1.2195 0.2000 -0.5051
f 168/22 167/22 166/22 165/22
v 1.2195 0.1600 0.5051
v 0.5051 0.1600 1.2195
v 0.5051 0.2000 1.2195
v 1.2195 0.2000 0.5051
f 172/22 171/22 170/22 169/22
v 0.5051 0.1600 1.2195
v -0.5051 0.1600 1.2195
v -0.5051 0.2000 1.2195
v 0.5051 0.2000 1.2195
f 176/22 175/22 174/22 173/22
v 0.5051 0.1600 1.2195
v 1.2195 0.1600 0.5051
v 1.2195 0.1600 -0.5051
v 0.5051 0.1600 -1.2195
v -0.5051 0.1600 -1.2195
v -1.2195 0.1600 -0.5051
v -1.2195 0.1600 0.5051
v -0.5051 0.1600 1.2195
f 184/22 183/22 182/22 181/22 180/22 179/22 178/22 177/22
v -0.5051 0.2000 1.2195
v -1.2195 0.2000 0.5051
v -1.2195 0.2000 -0.5051
v -0.5051 0.2000 -1.2195
v 0.5051 0.2000 -1.2195
v 1.2195 0.2000 -0.5051
v 1.2195 0.2000 0.5051
v 0.5051 0.2000 1.2195
f 192/22 191/22 190/22 189/22 188/22 187/22 186/22 185/22
v -1.0402 0.2000 0.5016
v -1.0402 2.1000 0.5016
v -1.0402 2.1000 0.4016
v -1.0402 0.2000 0.4016
f 196/15 195/15 194/15 193/15
v -1.1402 0.2000 0.4016
v -1.1402 2.1000 0.4016
v -1.1402 2.1000 0.5016
v -1.1402 0.2000 0.5016
f 200/15 199/15 198/15 197/15
v -1.0402 0.2000 0.4016
v -1.1402 0.2000 0.4016
v -1.1402 0.2000 0.5016
v -1.0402 0.2000 0.5016
f 204/15 203/15 202/15 201/15
v -1.0402 2.1000 0.5016
v -1.1402 2.1000 0.5016
v -1.1402 2.1000 0.4016
v -1.0402 2.1000 0.4016
f 208/15 207/15 206/15 205/15
v -1.0402 2.1000 0.4016
v -1.1402 2.1000 0.4016
v -1.1402 0.2000 0.4016
v -1.0402 0.2000 0.4016
f 212/15 211/15 210/15 209/15
v -1.0402 0.2000 0.5016
v -1.1402 0.2000 0.5016
v -1.1402 2.1000 0.5016
v -1.0402 2.1000 0.5016
f 216/15 215/15 214/15 213/15
v -0.4304 0.7200 1.0690
v -0.4304 0.7800 1.0690
v -1.0690 0.7800 0.4304
v -1.0690 0.7200 0.4304
f 220/15 219/15 218/15 217/15
v -1.1114 0.7200 0.4728
v -1.1114 0.7800 0.4728
v -0.4728 0.7800 1.1114
v -0.4728 0.7200 1.1114
f 224/15 223/15 222/15 221/15
v -1.0690 0.7200 0.4304
v -1.1114 0.7200 0.4728
v -0.4728 0.7200 1.1114
v -0.4304 0.7200 1.0690
f 228/15 227/15 226/15 225/15
v -0.4304 0.7800 1.0690
v -0.4728 0.7800 1.1114
v -1.1114 0.7800 0.4728
v -1.0690 0.7800 0.4304
f 232/15 231/15 230/15 229/15
v -1.0690 0.7800 0.4304
v -1.1114 0.7800 0.4728
v -1.1114 0.7200 0.4728
v -1.0690 0.7200 0.4304
f 236/15 235/15 234/15 233/15
v -0.4304 0.7200 1.0690
v -0.4728 0.7200 1.1114
v -0.4728 0.7800 1.1114
v -0.4304 0.7800 1.0690
f 240/15 239/15 238/15 237/15
v -0.2752 0.3950 0.8244
v -0.2752 0.4450 0.8244
v -0.8244 0.4450 0.2752
v -0.8244 0.3950 0.2752
f 244/22 243/22 242/22 241/22
v -1.0507 0.3950 0.5015
v -1.0507 0.4450 0.5015
v -0.5015 0.4450 1.0507
v -0.5015 0.3950 1.0507
f 248/22 247/22 246/22 245/22
v -0.8244 0.3950 0.2752
v -1.0507 0.3950 0.5015
v -0.5015 0.3950 1.0507
v -0.2752 0.3950 0.8244
f 252/22 251/22 250/22 249/22
v -0.2752 0.4450 0.8244
v -0.5015 0.4450 1.0507
v -1.0507 0.4450 0.5015
v -0.8244 0.4450 0.2752
f 256/22 255/22 254/22 253/22
v -0.8244 0.4450 0.2752
v -1.0507 0.4450 0.5015
v -1.0507 0.3950 0.5015
v -0.8244 0.3950 0.2752
f 260/22 259/22 258/22 257/22
v -0.2752 0.3950 0.8244
v -0.5015 0.3950 1.0507
v -0.5015 0.4450 1.0507
v -0.2752 0.4450 0.8244
f 264/22 263/22 262/22 261/22
v -0.9105 0.2300 0.6312
v -0.9105 0.7300 0.6312
v -0.9105 0.7300 0.5912
v -0.9105 0.2300 0.5912
f 268/15 267/15 266/15 265/15
v -0.9505 0.2300 0.5912
v -0.9505 0.7300 0.5912
v -0.9505 0.7300 0.6312
v -0.9505 0.2300 0.6312
f 272/15 271/15 270/15 269/15
v -0.9105 0.2300 0.5912
v -0.9505 0.2300 0.5912
v -0.9505 0.2300 0.6312
v -0.9105 0.2300 0.6312
f 276/15 275/15 274/15 273/15
v -0.9105 0.7300 0.6312
v -0.9505 0.7300 0.6312
v -0.9505 0.7300 0.5912
v -0.9105 0.7300 0.5912
f 280/15 279/15 278/15 277/15
v -0.9105 0.7300 0.5912
v -0.9505 0.7300 0.5912
v -0.9505 0.2300 0.5912
v -0.9105 0.2300 0.5912
f 284/15 283/15 282/15 281/15
v -0.9105 0.2300 0.6312
v -0.9505 0.2300 0.6312
v -0.9505 0.7300 0.6312
v -0.9105 0.7300 0.6312
f 288/15 287/15 286/15 285/15
v -0.7509 0.2300 0.7909
v -0.7509 0.7300 0.7909
v -0.7509 0.7300 0.7509
v -0.7509 0.2300 0.7509
f 292/15 291/15 290/15 289/15
v -0.7909 0.2300 0.7509
v -0.7909 0.7300 0.7509
v -0.7909 0.7300 0.7909
v -0.7909 0.2300 0.7909
f 296/15 295/15 294/15 293/15
v -0.7509 0.2300 0.7509
v -0.7909 0.2300 0.7509
v -0.7909 0.2300 0.7909
v -0.7509 0.2300 0.7909
f 300/15 299/15 298/15 297/15
v -0.7509 0.7300 0.7909
v -0.7909 0.7300 0.7909
v -0.7909 0.7300 0.7509
v -0.7509 0.7300 0.7509
f 304/15 303/15 302/15 301/15
v -0.7509 0.7300 0.7509
v -0.7909 0.7300 0.7509
v -0.7909 0.2300 0.7509
v -0.7509 0.2300 0.7509
f 308/15 307/15 306/15 305/15
v -0.7509 0.2300 0.7909
v -0.7909 0.2300 0.7909
v -0.7909 0.7300 0.7909
v -0.7509 0.7300 0.7909
f 312/15 311/15 310/15 309/15
v -0.5912 0.2300 0.9505
v -0.5912 0.7300 0.9505
v -0.5912 0.7300 0.9105
v -0.5912 0.2300 0.9105
f 316/15 315/15 314/15 313/15
v -0.6312 0.2300 0.9105
v -0.6312 0.7300 0.9105
v -0.6312 0.7300 0.9505
v -0.6312 0.2300 0.9505
f 320/15 319/15 318/15 317/15
v -0.5912 0.2300 0.9105
v -0.6312 0.2300 0.9105
v -0.6312 0.2300 0.9505
v -0.5912 0.2300 0.9505
f 324/15 323/15 322/15 321/15
v -0.5912 0.7300 0.9505
v -0.6312 0.7300 0.9505
v -0.6312 0.7300 0.9105
v -0.5912 0.7300 0.9105
f 328/15 327/15 326/15 325/15
v -0.5912 0.7300 0.9105
v -0.6312 0.7300 0.9105
v -0.6312 0.2300 0.9105
v -0.5912 0.2300 0.9105
f 332/15 331/15 330/15 329/15
v -0.5912 0.2300 0.9505
v -0.6312 0.2300 0.9505
v -0.6312 0.7300 0.9505
v -0.5912 0.7300 0.9505
f 336/15 335/15 334/15 333/15
v -0.4016 0.2000 1.1402
v -0.4016 2.1000 1.1402
v -0.4016 2.1000 1.0402
v -0.4016 0.2000 1.0402
f 340/15 339/15 338/15 337/15
v -0.5016 0.2000 1.0402
v -0.5016 2.1000 1.0402
v -0.5016 2.1000 1.1402
v -0.5016 0.2000 1.1402
f 344/15 343/15 342/15 341/15
v -0.4016 0.2000 1.0402
v -0.5016 0.2000 1.0402
v -0.5016 0.2000 1.1402
v -0.4016 0.2000 1.1402
f 348/15 347/15 346/15 345/15
v -0.4016 2.1000 1.1402
v -0.5016 2.1000 1.1402
v -0.5016 2.1000 1.0402
v -0.4016 2.1000 1.0402
f 352/15 351/15 350/15 349/15
v -0.4016 2.1000 1.0402
v -0.5016 2.1000 1.0402
v -0.5016 0.2000 1.0402
v -0.4016 0.2000 1.0402
f 356/15 355/15 354/15 353/15
v -0.4016 0.2000 1.1402
v -0.5016 0.2000 1.1402
v -0.5016 2.1000 1.1402
v -0.4016 2.1000 1.1402
f 360/15 359/15 358/15 357/15
v 0.5016 0.2000 1.1402
v 0.5016 2.1000 1.1402
v 0.5016 2.1000 1.0402
v 0.5016 0.2000 1.0402
f 364/15 363/15 362/15 361/15
v 0.4016 0.2000 1.0402
v 0.4016 2.1000 1.0402
v 0.4016 2.1000 1.1402
v 0.4016 0.2000 1.1402
f 368/15 367/15 366/15 365/15
v 0.5016 0.2000 1.0402
v 0.4016 0.2000 1.0402
v 0.4016 0.2000 1.1402
v 0.5016 0.2000 1.1402
f 372/15 371/15 370/15 369/15
v 0.5016 2.1000 1.1402
v 0.4016 2.1000 1.1402
v 0.4016 2.1000 1.0402
v 0.5016 2.1000 1.0402
f 376/15 375/15 374/15 373/15
v 0.5016 2.1000 1.0402
v 0.4016 2.1000 1.0402
v 0.4016 0.2000 1.0402
v 0.5016 0.2000 1.0402
f 380/15 379/15 378/15 377/15
v 0.5016 0.2000 1.1402
v 0.4016 0.2000 1.1402
v 0.4016 2.1000 1.1402
v 0.5016 2.1000 1.1402
f 384/15 383/15 382/15 381/15
v 1.0690 0.7200 0.4304
v 1.0690 0.7800 0.4304
v 0.4304 0.7800 1.0690
v 0.4304 0.7200 1.0690
f 388/15 387/15 386/15 385/15
v 0.4728 0.7200 1.1114
v 0.4728 0.7800 1.1114
v 1.1114 0.7800 0.4728
v 1.1114 0.7200 0.4728
f 392/15 391/15 390/15 389/15
v 0.4304 0.7200 1.0690
v 0.4728 0.7200 1.1114
v 1.1114 0.7200 0.4728
v 1.0690 0.7200 0.4304
f 396/15 395/15 394/15 393/15
v 1.0690 0.7800 0.4304
v 1.1114 0.7800 0.4728
v 0.4728 0.7800 1.1114
v 0.4304 0.7800 1.0690
f 400/15 399/15 398/15 397/15
v 0.4304 0.7800 1.0690
v 0.4728 0.7800 1.1114
v 0.4728 0.7200 1.1114
v 0.4304 0.7200 1.0690
f 404/15 403/15 402/15 401/15
v 1.0690 0.7200 0.4304
v 1.1114 0.7200 0.4728
v 1.1114 0.7800 0.4728
v 1.0690 0.7800 0.4304
f 408/15 407/15 406/15 405/15
v 0.8244 0.3950 0.2752
v 0.8244 0.4450 0.2752
v 0.2752 0.4450 0.8244
v 0.2752 0.3950 0.8244
f 412/22 411/22 410/22 409/22
v 0.5015 0.3950 1.0507
v 0.5015 0.4450 1.0507
v 1.0507 0.4450 0.5015
v 1.0507 0.3950 0.5015
f 416/22 415/22 414/22 413/22
v 0.2752 0.3950 0.8244
v 0.5015 0.3950 1.0507
v 1.0507 0.3950 0.5015
v 0.8244 0.3950 0.2752
f 420/22 419/22 418/22 417/22
v 0.8244 0.4450 0.2752
v 1.0507 0.4450 0.5015
v 0.5015 0.4450 1.0507
v 0.2752 0.4450 0.8244
f 424/22 423/22 422/22 421/22
v 0.2752 0.4450 0.8244
v 0.5015 0.4450 1.0507
v 0.5015 0.3950 1.0507
v 0.2752 0.3950 0.8244
f 428/22 427/22 426/22 425/22
v 0.8244 0.3950 0.2752
v 1.0507 0.3950 0.5015
v 1.0507 0.4450 0.5015
v 0.8244 0.4450 0.2752
f 432/22 431/22 430/22 429/22
v 0.6312 0.2300 0.9505
v 0.6312 0.7300 0.9505
v 0.6312 0.7300 0.9105
v 0.6312 0.2300 0.9105
f 436/15 435/15 434/15 433/15
v 0.5912 0.2300 0.9105
v 0.5912 0.7300 0.9105
v 0.5912 0.7300 0.9505
v 0.5912 0.2300 0.9505
f 440/15 439/15 438/15 437/15
v 0.6312 0.2300 0.9105
v 0.5912 0.2300 0.9105
v 0.5912 0.2300 0.9505
v 0.6312 0.2300 0.9505
f 444/15 443/15 442/15 441/15
v 0.6312 0.7300 0.9505
v 0.5912 0.7300 0.9505
v 0.5912 0.7300 0.9105
v 0.6312 0.7300 0.9105
f 448/15 447/15 446/15 445/15
v 0.6312 0.7300 0.9105
v 0.5912 0.7300 0.9105
v 0.5912 0.2300 0.9105
v 0.6312 0.2300 0.9105
f 452/15 451/15 450/15 449/15
v 0.6312 0.2300 0.9505
v 0.5912 0.2300 0.9505
v 0.5912 0.7300 0.9505
v 0.6312 0.7300 0.9505
f 456/15 455/15 454/15 453/15
v 0.7909 0.2300 0.7909
v 0.7909 0.7300 0.7909
v 0.7909 0.7300 0.7509
v 0.7909 0.2300 0.7509
f 460/15 459/15 458/15 457/15
v 0.7509 0.2300 0.7509
v 0.7509 0.7300 0.7509
v 0.7509 0.7300 0.7909
v 0.7509 0.2300 0.7909
f 464/15 463/15 462/15 461/15
v 0.7909 0.2300 0.7509
v 0.7509 0.2300 0.7509
v 0.7509 0.2300 0.7909
v 0.7909 0.2300 0.7909
f 468/15 467/15 466/15 465/15
v 0.7909 0.7300 0.7909
v 0.7509 0.7300 0.7909
v 0.7509 0.7300 0.7509
v 0.7909 0.7300 0.7509
f 472/15 471/15 470/15 469/15
v 0.7909 0.7300 0.7509
v 0.7509 0.7300 0.7509
v 0.7509 0.2300 0.7509
v 0.7909 0.2300 0.7509
f 476/15 475/15 474/15 473/15
v 0.7909 0.2300 0.7909
v 0.7509 0.2300 0.7909
v 0.7509 0.7300 0.7909
v 0.7909 0.7300 0.7909
f 480/15 479/15 478/15 477/15
v 0.9505 0.2300 0.6312
v 0.9505 0.7300 0.6312
v 0.9505 0.7300 0.5912
v 0.9505 0.2300 0.5912
f 484/15 483/15 482/15 481/15
v 0.9105 0.2300 0.5912
v 0.9105 0.7300 0.5912
v 0.9105 0.7300 0.6312
v 0.9105 0.2300 0.6312
f 488/15 487/15 486/15 485/15
v 0.9505 0.2300 0.5912
v 0.9105 0.2300 0.5912
v 0.9105 0.2300 0.6312
v 0.9505 0.2300 0.6312
f 492/15 491/15 490/15 489/15
v 0.9505 0.7300 0.6312
v 0.9105 0.7300 0.6312
v 0.9105 0.7300 0.5912
v 0.9505 0.7300 0.5912
f 496/15 495/15 494/15 493/15
v 0.9505 0.7300 0.5912
v 0.9105 0.7300 0.5912
v 0.9105 0.2300 0.5912
v 0.9505 0.2300 0.5912
f 500/15 499/15 498/15 497/15
v 0.9505 0.2300 0.6312
v 0.9105 0.2300 0.6312
v 0.9105 0.7300 0.6312
v 0.9505 0.7300 0.6312
f 504/15 503/15 502/15 501/15
v 1.1402 0.2000 0.5016
v 1.1402 2.1000 0.5016
v 1.1402 2.1000 0.4016
v 1.1402 0.2000 0.4016
f 508/15 507/15 506/15 505/15
v 1.0402 0.2000 0.4016
v 1.0402 2.1000 0.4016
v 1.0402 2.1000 0.5016
v 1.0402 0.2000 0.5016
f 512/15 511/15 510/15 509/15
v 1.1402 0.2000 0.4016
v 1.0402 0.2000 0.4016
v 1.0402 0.2000 0.5016
v 1.1402 0.2000 0.5016
f 516/15 515/15 514/15 513/15
v 1.1402 2.1000 0.5016
v 1.0402 2.1000 0.5016
v 1.0402 2.1000 0.4016
v 1.1402 2.1000 0.4016
f 520/15 519/15 518/15 517/15
v 1.1402 2.1000 0.4016
v 1.0402 2.1000 0.4016
v 1.0402 0.2000 0.4016
v 1.1402 0.2000 0.4016
f 524/15 523/15 522/15 521/15
v 1.1402 0.2000 0.5016
v 1.0402 0.2000 0.5016
v 1.0402 2.1000 0.5016
v 1.1402 2.1000 0.5016
f 528/15 527/15 526/15 525/15
v 1.0602 0.7200 -0.4516
v 1.0602 0.7800 -0.4516
v 1.0602 0.7800 0.4516
v 1.0602 0.7200 0.4516
f 532/15 531/15 530/15 529/15
v 1.1202 0.7200 0.4516
v 1.1202 0.7800 0.4516
v 1.1202 0.7800 -0.4516
v 1.1202 0.7200 -0.4516
f 536/15 535/15 534/15 533/15
v 1.0602 0.7200 0.4516
v 1.1202 0.7200 0.4516
v 1.1202 0.7200 -0.4516
v 1.0602 0.7200 -0.4516
f 540/15 539/15 538/15 537/15
v 1.0602 0.7800 -0.4516
v 1.1202 0.7800 -0.4516
v 1.1202 0.7800 0.4516
v 1.0602 0.7800 0.4516
f 544/15 543/15 542/15 541/15
v 1.0602 0.7800 0.4516
v 1.1202 0.7800 0.4516
v 1.1202 0.7200 0.4516
v 1.0602 0.7200 0.4516
f 548/15 547/15 546/15 545/15
v 1.0602 0.7200 -0.4516
v 1.1202 0.7200 -0.4516
v 1.1202 0.7800 -0.4516
v 1.0602 0.7800 -0.4516
f 552/15 551/15 550/15 549/15
v 0.7776 0.3950 -0.3883
v 0.7776 0.4450 -0.3883
v 0.7776 0.4450 0.3883
v 0.7776 0.3950 0.3883
f 556/22 555/22 554/22 553/22
v 1.0976 0.3950 0.3883
v 1.0976 0.4450 0.3883
v 1.0976 0.4450 -0.3883
v 1.0976 0.3950 -0.3883
f 560/22 559/22 558/22 557/22
v 0.7776 0.3950 0.3883
v 1.0976 0.3950 0.3883
v 1.0976 0.3950 -0.3883
v 0.7776 0.3950 -0.3883
f 564/22 563/22 562/22 561/22
v 0.7776 0.4450 -0.3883
v 1.0976 0.4450 -0.3883
v 1.0976 0.4450 0.3883
v 0.7776 0.4450 0.3883
f 568/22 567/22 566/22 565/22
v 0.7776 0.4450 0.3883
v 1.0976 0.4450 0.3883
v 1.0976 0.3950 0.3883
v 0.7776 0.3950 0.3883
f 572/22 571/22 570/22 569/22
v 0.7776 0.3950 -0.3883
v 1.0976 0.3950 -0.3883
v 1.0976 0.4450 -0.3883
v 0.7776 0.4450 -0.3883
f 576/22 575/22 574/22 573/22
v 1.1102 0.2300 0.2458
v 1.1102 0.7300 0.2458
v 1.1102 0.7300 0.2058
v 1.1102 0.2300 0.2058
f 580/15 579/15 578/15 577/15
v 1.0702 0.2300 0.2058
v 1.0702 0.7300 0.2058
v 1.0702 0.7300 0.2458
v 1.0702 0.2300 0.2458
f 584/15 583/15 582/15 581/15
v 1.1102 0.2300 0.2058
v 1.0702 0.2300 0.2058
v 1.0702 0.2300 0.2458
v 1.1102 0.2300 0.2458
f 588/15 587/15 586/15 585/15
v 1.1102 0.7300 0.2458
v 1.0702 0.7300 0.2458
v 1.0702 0.7300 0.2058
v 1.1102 0.7300 0.2058
f 592/15 591/15 590/15 589/15
v 1.1102 0.7300 0.2058
v 1.0702 0.7300 0.2058
v 1.0702 0.2300 0.2058
v 1.1102 0.2300 0.2058
f 596/15 595/15 594/15 593/15
v 1.1102 0.2300 0.2458
v 1.0702 0.2300 0.2458
v 1.0702 0.7300 0.2458
v 1.1102 0.7300 0.2458
f 600/15 599/15 598/15 597/15
v 1.1102 0.2300 0.0200
v 1.1102 0.7300 0.0200
v 1.1102 0.7300 -0.0200
v 1.1102 0.2300 -0.0200
f 604/15 603/15 602/15 601/15
v 1.0702 0.2300 -0.0200
v 1.0702 0.7300 -0.0200
v 1.0702 0.7300 0.0200
v 1.0702 0.2300 0.0200
f 608/15 607/15 606/15 605/15
v 1.1102 0.2300 -0.0200
v 1.0702 0.2300 -0.0200
v 1.0702 0.2300 0.0200
v 1.1102 0.2300 0.0200
f 612/15 611/15 610/15 609/15
v 1.1102 0.7300 0.0200
v 1.0702 0.7300 0.0200
v 1.0702 0.7300 -0.0200
v 1.1102 0.7300 -0.0200
f 616/15 615/15 614/15 613/15
v 1.1102 0.7300 -0.0200
v 1.0702 0.7300 -0.0200
v 1.0702 0.2300 -0.0200
v 1.1102 0.2300 -0.0200
f 620/15 619/15 618/15 617/15
v 1.1102 0.2300 0.0200
v 1.0702 0.2300 0.0200
v 1.0702 0.7300 0.0200
v 1.1102 0.7300 0.0200
f 624/15 623/15 622/15 621/15
v 1.1102 0.2300 -0.2058
v 1.1102 0.7300 -0.2058
v 1.1102 0.7300 -0.2458
v 1.1102 0.2300 -0.2458
f 628/15 627/15 626/15 625/15
v 1.0702 0.2300 -0.2458
v 1.0702 0.7300 -0.2458
v 1.0702 0.7300 -0.2058
v 1.0702 0.2300 -0.2058
f 632/15 631/15 630/15 629/15
v 1.1102 0.2300 -0.2458
v 1.0702 0.2300 -0.2458
v 1.0702 0.2300 -0.2058
v 1.1102 0.2300 -0.2058
f 636/15 635/15 634/15 633/15
v 1.1102 0.7300 -0.2058
v 1.0702 0.7300 -0.2058
v 1.0702 0.7300 -0.2458
v 1.1102 0.7300 -0.2458
f 640/15 639/15 638/15 637/15
v 1.1102 0.7300 -0.2458
v 1.0702 0.7300 -0.2458
v 1.0702 0.2300 -0.2458
v 1.1102 0.2300 -0.2458
f 644/15 643/15 642/15 641/15
v 1.1102 0.2300 -0.2058
v 1.0702 0.2300 -0.2058
v 1.0702 0.7300 -0.2058
v 1.1102 0.7300 -0.2058
f 648/15 647/15 646/15 645/15
v 1.1402 0.2000 -0.4016
v 1.1402 2.1000 -0.4016
v 1.1402 2.1000 -0.5016
v 1.1402 0.2000 -0.5016
f 652/15 651/15 650/15 649/15
v 1.0402 0.2000 -0.5016
v 1.0402 2.1000 -0.5016
v 1.0402 2.1000 -0.4016
v 1.0402 0.2000 -0.4016
f 656/15 655/15 654/15 653/15
v 1.1402 0.2000 -0.5016
v 1.0402 0.2000 -0.5016
v 1.0402 0.2000 -0.4016
v 1.1402 0.2000 -0.4016
f 660/15 659/15 658/15 657/15
v 1.1402 2.1000 -0.4016
v 1.0402 2.1000 -0.4016
v 1.0402 2.1000 -0.5016
v 1.1402 2.1000 -0.5016
f 664/15 663/15 662/15 661/15
v 1.1402 2.1000 -0.5016
v 1.0402 2.1000 -0.5016
v 1.0402 0.2000 -0.5016
v 1.1402 0.2000 -0.5016
f 668/15 667/15 666/15 665/15
v 1.1402 0.2000 -0.4016
v 1.0402 0.2000 -0.4016
v 1.0402 2.1000 -0.4016
v 1.1402 2.1000 -0.4016
f 672/15 671/15 670/15 669/15
v 0.4304 0.7200 -1.0690
v 0.4304 0.7800 -1.0690
v 1.0690 0.7800 -0.4304
v 1.0690 0.7200 -0.4304
f 676/15 675/15 674/15 673/15
v 1.1114 0.7200 -0.4728
v 1.1114 0.7800 -0.4728
v 0.4728 0.7800 -1.1114
v 0.4728 0.7200 -1.1114
f 680/15 679/15 678/15 677/15
v 1.0690 0.7200 -0.4304
v 1.1114 0.7200 -0.4728
v 0.4728 0.7200 -1.1114
v 0.4304 0.7200 -1.0690
f 684/15 683/15 682/15 681/15
v 0.4304 0.7800 -1.0690
v 0.4728 0.7800 -1.1114
v 1.1114 0.7800 -0.4728
v 1.0690 0.7800 -0.4304
f 688/15 687/15 686/15 685/15
v 1.0690 0.7800 -0.4304
v 1.1114 0.7800 -0.4728
v 1.1114 0.7200 -0.4728
v 1.0690 0.7200 -0.4304
f 692/15 691/15 690/15 689/15
v 0.4304 0.7200 -1.0690
v 0.4728 0.7200 -1.1114
v 0.4728 0.7800 -1.1114
v 0.4304 0.7800 -1.0690
f 696/15 695/15 694/15 693/15
v 0.2752 0.3950 -0.8244
v 0.2752 0.4450 -0.8244
v 0.8244 0.4450 -0.2752
v 0.8244 0.3950 -0.2752
f 700/22 699/22 698/22 697/22
v 1.0507 0.3950 -0.5015
v 1.0507 0.4450 -0.5015
v 0.5015 0.4450 -1.0507
v 0.5015 0.3950 -1.0507
f 704/22 703/22 702/22 701/22
v 0.8244 0.3950 -0.2752
v 1.0507 0.3950 -0.5015
v 0.5015 0.3950 -1.0507
v 0.2752 0.3950 -0.8244
f 708/22 707/22 706/22 705/22
v 0.2752 0.4450 -0.8244
v 0.5015 0.4450 -1.0507
v 1.0507 0.4450 -0.5015
v 0.8244 0.4450 -0.2752
f 712/22 711/22 710/22 709/22
v 0.8244 0.4450 -0.2752
v 1.0507 0.4450 -0.5015
v 1.0507 0.3950 -0.5015
v 0.8244 0.3950 -0.2752
f 716/22 715/22 714/22 713/22
v 0.2752 0.3950 -0.8244
v 0.5015 0.3950 -1.0507
v 0.5015 0.4450 -1.0507
v 0.2752 0.4450 -0.8244
f 720/22 719/22 718/22 717/22
v 0.9505 0.2300 -0.5912
v 0.9505 0.7300 -0.5912
v 0.9505 0.7300 -0.6312
v 0.9505 0.2300 -0.6312
f 724/15 723/15 722/15 721/15
v 0.9105 0.2300 -0.6312
v 0.9105 0.7300 -0.6312
v 0.9105 0.7300 -0.5912
v 0.9105 0.2300 -0.5912
f 728/15 727/15 726/15 725/15
v 0.9505 0.2300 -0.6312
v 0.9105 0.2300 -0.6312
v 0.9105 0.2300 -0.5912
v 0.9505 0.2300 -0.5912
f 732/15 731/15 730/15 729/15
v 0.9505 0.7300 -0.5912
v 0.9105 0.7300 -0.5912
v 0.9105 0.7300 -0.6312
v 0.9505 0.7300 -0.6312
f 736/15 735/15 734/15 733/15
v 0.9505 0.7300 -0.6312
v 0.9105 0.7300 -0.6312
v 0.9105 0.2300 -0.6312
v 0.9505 0.2300 -0.6312
f 740/15 739/15 738/15 737/15
v 0.9505 0.2300 -0.5912
v 0.9105 0.2300 -0.5912
v 0.9105 0.7300 -0.5912
v 0.9505 0.7300 -0.5912
f 744/15 743/15 742/15 741/15
v 0.7909 0.2300 -0.7509
v 0.7909 0.7300 -0.7509
v 0.7909 0.7300 -0.7909
v 0.7909 0.2300 -0.7909
f 748/15 747/15 746/15 745/15
v 0.7509 0.2300 -0.7909
v 0.7509 0.7300 -0.7909
v 0.7509 0.7300 -0.7509
v 0.7509 0.2300 -0.7509
f 752/15 751/15 750/15 749/15
v 0.7909 0.2300 -0.7909
v 0.7509 0.2300 -0.7909
v 0.7509 0.2300 -0.7509
v 0.7909 0.2300 -0.7509
f 756/15 755/15 754/15 753/15
v 0.7909 0.7300 -0.7509
v 0.7509 0.7300 -0.7509
v 0.7509 0.7300 -0.7909
v 0.7909 0.7300 -0.7909
f 760/15 759/15 758/15 757/15
v 0.7909 0.7300 -0.7909
v 0.7509 0.7300 -0.7909
v 0.7509 0.2300 -0.7909
v 0.7909 0.2300 -0.7909
f 764/15 763/15 762/15 761/15
v 0.7909 0.2300 -0.7509
v 0.7509 0.2300 -0.7509
v 0.7509 0.7300 -0.7509
v 0.7909 0.7300 -0.7509
f 768/15 767/15 766/15 765/15
v 0.6312 0.2300 -0.9105
v 0.6312 0.7300 -0.9105
v 0.6312 0.7300 -0.9505
v 0.6312 0.2300 -0.9505
f 772/15 771/15 770/15 769/15
v 0.5912 0.2300 -0.9505
v 0.5912 0.7300 -0.9505
v 0.5912 0.7300 -0.9105
v 0.5912 0.2300 -0.9105
f 776/15 775/15 774/15 773/15
v 0.6312 0.2300 -0.9505
v 0.5912 0.2300 -0.9505
v 0.5912 0.2300 -0.9105
v 0.6312 0.2300 -0.9105
f 780/15 779/15 778/15 777/15
v 0.6312 0.7300 -0.9105
v 0.5912 0.7300 -0.9105
v 0.5912 0.7300 -0.9505
v 0.6312 0.7300 -0.9505
f 784/15 783/15 782/15 781/15
v 0.6312 0.7300 -0.9505
v 0.5912 0.7300 -0.9505
v 0.5912 0.2300 -0.9505
v 0.6312 0.2300 -0.9505
f 788/15 787/15 786/15 785/15
v 0.6312 0.2300 -0.9105
v 0.5912 0.2300 -0.9105
v 0.5912 0.7300 -0.9105
v 0.6312 0.7300 -0.9105
f 792/15 791/15 790/15 789/15
v 0.5016 0.2000 -1.0402
v 0.5016 2.1000 -1.0402
v 0.5016 2.1000 -1.1402
v 0.5016 0.2000 -1.1402
f 796/15 795/15 794/15 793/15
v 0.4016 0.2000 -1.1402
v 0.4016 2.1000 -1.1402
v 0.4016 2.1000 -1.0402
v 0.4016 0.2000 -1.0402
f 800/15 799/15 798/15 797/15
v 0.5016 0.2000 -1.1402
v 0.4016 0.2000 -1.1402
v 0.4016 0.2000 -1.0402
v 0.5016 0.2000 -1.0402
f 804/15 803/15 802/15 801/15
v 0.5016 2.1000 -1.0402
v 0.4016 2.1000 -1.0402
v 0.4016 2.1000 -1.1402
v 0.5016 2.1000 -1.1402
f 808/15 807/15 806/15 805/15
v 0.5016 2.1000 -1.1402
v 0.4016 2.1000 -1.1402
v 0.4016 0.2000 -1.1402
v 0.5016 0.2000 -1.1402
f 812/15 811/15 810/15 809/15
v 0.5016 0.2000 -1.0402
v 0.4016 0.2000 -1.0402
v 0.4016 2.1000 -1.0402
v 0.5016 2.1000 -1.0402
f 816/15 815/15 814/15 813/15
v -0.4516 0.7200 -1.0602
v -0.4516 0.7800 -1.0602
v 0.4516 0.7800 -1.0602
v 0.4516 0.7200 -1.0602
f 820/15 819/15 818/15 817/15
v 0.4516 0.7200 -1.1202
v 0.4516 0.7800 -1.1202
v -0.4516 0.7800 -1.1202
v -0.4516 0.7200 -1.1202
f 824/15 823/15 822/15 821/15
v 0.4516 0.7200 -1.0602
v 0.4516 0.7200 -1.1202
v -0.4516 0.7200 -1.1202
v -0.4516 0.7200 -1.0602
f 828/15 827/15 826/15 825/15
v -0.4516 0.7800 -1.0602
v -0.4516 0.7800 -1.1202
v 0.4516 0.7800 -1.1202
v 0.4516 0.7800 -1.0602
f 832/15 831/15 830/15 829/15
v 0.4516 0.7800 -1.0602
v 0.4516 0.7800 -1.1202
v 0.4516 0.7200 -1.1202
v 0.4516 0.7200 -1.0602
f 836/15 835/15 834/15 833/15
v -0.4516 0.7200 -1.0602
v -0.4516 0.7200 -1.1202
v -0.4516 0.7800 -1.1202
v -0.4516 0.7800 -1.0602
f 840/15 839/15 838/15 837/15
v -0.3883 0.3950 -0.7776
v -0.3883 0.4450 -0.7776
v 0.3883 0.4450 -0.7776
v 0.3883 0.3950 -0.7776
f 844/22 843/22 842/22 841/22
v 0.3883 0.3950 -1.0976
v 0.3883 0.4450 -1.0976
v -0.3883 0.4450 -1.0976
v -0.3883 0.3950 -1.0976
f 848/22 847/22 846/22 845/22
v 0.3883 0.3950 -0.7776
v 0.3883 0.3950 -1.0976
v -0.3883 0.3950 -1.0976
v -0.3883 0.3950 -0.7776
f 852/22 851/22 850/22 849/22
v -0.3883 0.4450 -0.7776
v -0.3883 0.4450 -1.0976
v 0.3883 0.4450 -1.0976
v 0.3883 0.4450 -0.7776
f 856/22 855/22 854/22 853/22
v 0.3883 0.4450 -0.7776
v 0.3883 0.4450 -1.0976
v 0.3883 0.3950 -1.0976
v 0.3883 0.3950 -0.7776
f 860/22 859/22 858/22 857/22
v -0.3883 0.3950 -0.7776
v -0.3883 0.3950 -1.0976
v -0.3883 0.4450 -1.0976
v -0.3883 0.4450 -0.7776
f 864/22 863/22 862/22 861/22
v 0.2458 0.2300 -1.0702
v 0.2458 0.7300 -1.0702
v 0.2458 0.7300 -1.1102
v 0.2458 0.2300 -1.1102
f 868/15 867/15 866/15 865/15
v 0.2058 0.2300 -1.1102
v 0.2058 0.7300 -1.1102
v 0.2058 0.7300 -1.0702
v 0.2058 0.2300 -1.0702
f 872/15 871/15 870/15 869/15
v 0.2458 0.2300 -1.1102
v 0.2058 0.2300 -1.1102
v 0.2058 0.2300 -1.0702
v 0.2458 0.2300 -1.0702
f 876/15 875/15 874/15 873/15
v 0.2458 0.7300 -1.0702
v 0.2058 0.7300 -1.0702
v 0.2058 0.7300 -1.1102
v 0.2458 0.7300 -1.1102
f 880/15 879/15 878/15 877/15
v 0.2458 0.7300 -1.1102
v 0.2058 0.7300 -1.1102
v 0.2058 0.2300 -1.1102
v 0.2458 0.2300 -1.1102
f 884/15 883/15 882/15 881/15
v 0.2458 0.2300 -1.0702
v 0.2058 0.2300 -1.0702
v 0.2058 0.7300 -1.0702
v 0.2458 0.7300 -1.0702
f 888/15 887/15 886/15 885/15
v 0.0200 0.2300 -1.0702
v 0.0200 0.7300 -1.0702
v 0.0200 0.7300 -1.1102
v 0.0200 0.2300 -1.1102
f 892/15 891/15 890/15 889/15
v -0.0200 0.2300 -1.1102
v -0.0200 0.7300 -1.1102
v -0.0200 0.7300 -1.0702
v -0.0200 0.2300 -1.0702
f 896/15 895/15 894/15 893/15
v 0.0200 0.2300 -1.1102
v -0.0200 0.2300 -1.1102
v -0.0200 0.2300 -1.0702
v 0.0200 0.2300 -1.0702
f 900/15 899/15 898/15 897/15
v 0.0200 0.7300 -1.0702
v -0.0200 0.7300 -1.0702
v -0.0200 0.7300 -1.1102
v 0.0200 0.7300 -1.1102
f 904/15 903/15 902/15 901/15
v 0.0200 0.7300 -1.1102
v -0.0200 0.7300 -1.1102
v -0.0200 0.2300 -1.1102
v 0.0200 0.2300 -1.1102
f 908/15 907/15 906/15 905/15
v 0.0200 0.2300 -1.0702
v -0.0200 0.2300 -1.0702
v -0.0200 0.7300 -1.0702
v 0.0200 0.7300 -1.0702
f 912/15 911/15 910/15 909/15
v -0.2058 0.2300 -1.0702
v -0.2058 0.7300 -1.0702
v -0.2058 0.7300 -1.1102
v -0.2058 0.2300 -1.1102
f 916/15 915/15 914/15 913/15
v -0.2458 0.2300 -1.1102
v -0.2458 0.7300 -1.1102
v -0.2458 0.7300 -1.0702
v -0.2458 0.2300 -1.0702
f 920/15 919/15 918/15 917/15
v -0.2058 0.2300 -1.1102
v -0.2458 0.2300 -1.1102
v -0.2458 0.2300 -1.0702
v -0.2058 0.2300 -1.0702
f 924/15 923/15 922/15 921/15
v -0.2058 0.7300 -1.0702
v -0.2458 0.7300 -1.0702
v -0.2458 0.7300 -1.1102
v -0.2058 0.7300 -1.1102
f 928/15 927/15 926/15 925/15
v -0.2058 0.7300 -1.1102
v -0.2458 0.7300 -1.1102
v -0.2458 0.2300 -1.1102
v -0.2058 0.2300 -1.1102
f 932/15 931/15 930/15 929/15
v -0.2058 0.2300 -1.0702
v -0.2458 0.2300 -1.0702
v -0.2458 0.7300 -1.0702
v -0.2058 0.7300 -1.0702
f 936/15 935/15 934/15 933/15
v -0.4016 0.2000 -1.0402
v -0.4016 2.1000 -1.0402
v -0.4016 2.1000 -1.1402
v -0.4016 0.2000 -1.1402
f 940/15 939/15 938/15 937/15
v -0.5016 0.2000 -1.1402
v -0.5016 2.1000 -1.1402
v -0.5016 2.1000 -1.0402
v -0.5016 0.2000 -1.0402
f 944/15 943/15 942/15 941/15
v -0.4016 0.2000 -1.1402
v -0.5016 0.2000 -1.1402
v -0.5016 0.2000 -1.0402
v -0.4016 0.2000 -1.0402
f 948/15 947/15 946/15 945/15
v -0.4016 2.1000 -1.0402
v -0.5016 2.1000 -1.0402
v -0.5016 2.1000 -1.1402
v -0.4016 2.1000 -1.1402
f 952/15 951/15 950/15 949/15
v -0.4016 2.1000 -1.1402
v -0.5016 2.1000 -1.1402
v -0.5016 0.2000 -1.1402
v -0.4016 0.2000 -1.1402
f 956/15 955/15 954/15 953/15
v -0.4016 0.2000 -1.0402
v -0.5016 0.2000 -1.0402
v -0.5016 2.1000 -1.0402
v -0.4016 2.1000 -1.0402
f 960/15 959/15 958/15 957/15
v -1.0690 0.7200 -0.4304
v -1.0690 0.7800 -0.4304
v -0.4304 0.7800 -1.0690
v -0.4304 0.7200 -1.0690
f 964/15 963/15 962/15 961/15
v -0.4728 0.7200 -1.1114
v -0.4728 0.7800 -1.1114
v -1.1114 0.7800 -0.4728
v -1.1114 0.7200 -0.4728
f 968/15 967/15 966/15 965/15
v -0.4304 0.7200 -1.0690
v -0.4728 0.7200 -1.1114
v -1.1114 0.7200 -0.4728
v -1.0690 0.7200 -0.4304
f 972/15 971/15 970/15 969/15
v -1.0690 0.7800 -0.4304
v -1.1114 0.7800 -0.4728
v -0.4728 0.7800 -1.1114
v -0.4304 0.7800 -1.0690
f 976/15 975/15 974/15 973/15
v -0.4304 0.7800 -1.0690
v -0.4728 0.7800 -1.1114
v -0.4728 0.7200 -1.1114
v -0.4304 0.7200 -1.0690
f 980/15 979/15 978/15 977/15
v -1.0690 0.7200 -0.4304
v -1.1114 0.7200 -0.4728
v -1.1114 0.7800 -0.4728
v -1.0690 0.7800 -0.4304
f 984/15 983/15 982/15 981/15
v -0.8244 0.3950 -0.2752
v -0.8244 0.4450 -0.2752
v -0.2752 0.4450 -0.8244
v -0.2752 0.3950 -0.8244
f 988/22 987/22 986/22 985/22
v -0.5015 0.3950 -1.0507
v -0.5015 0.4450 -1.0507
v -1.0507 0.4450 -0.5015
v -1.0507 0.3950 -0.5015
f 992/22 991/22 990/22 989/22
v -0.2752 0.3950 -0.8244
v -0.5015 0.3950 -1.0507
v -1.0507 0.3950 -0.5015
v -0.8244 0.3950 -0.2752
f 996/22 995/22 994/22 993/22
v -0.8244 0.4450 -0.2752
v -1.0507 0.4450 -0.5015
v -0.5015 0.4450 -1.0507
v -0.2752 0.4450 -0.8244
f 1000/22 999/22 998/22 997/22
v -0.2752 0.4450 -0.8244
v -0.5015 0.4450 -1.0507
v -0.5015 0.3950 -1.0507
v -0.2752 0.3950 -0.8244
f 1004/22 1003/22 1002/22 1001/22
v -0.8244 0.3950 -0.2752
v -1.0507 0.3950 -0.5015
v -1.0507 0.4450 -0.5015
v -0.8244 0.4450 -0.2752
f 1008/22 1007/22 1006/22 1005/22
v -0.5912 0.2300 -0.9105
v -0.5912 0.7300 -0.9105
v -0.5912 0.7300 -0.9505
v -0.5912 0.2300 -0.9505
f 1012/15 1011/15 1010/15 1009/15
v -0.6312 0.2300 -0.9505
v -0.6312 0.7300 -0.9505
v -0.6312 0.7300 -0.9105
v -0.6312 0.2300 -0.9105
f 1016/15 1015/15 1014/15 1013/15
v -0.5912 0.2300 -0.9505
v -0.6312 0.2300 -0.9505
v -0.6312 0.2300 -0.9105
v -0.5912 0.2300 -0.9105
f 1020/15 1019/15 1018/15 1017/15
v -0.5912 0.7300 -0.9105
v -0.6312 0.7300 -0.9105
v -0.6312 0.7300 -0.9505
v -0.5912 0.7300 -0.9505
f 1024/15 1023/15 1022/15 1021/15
v -0.5912 0.7300 -0.9505
v -0.6312 0.7300 -0.9505
v -0.6312 0.2300 -0.9505
v -0.5912 0.2300 -0.9505
f 1028/15 1027/15 1026/15 1025/15
v -0.5912 0.2300 -0.9105
v -0.6312 0.2300 -0.9105
v -0.6312 0.7300 -0.9105
v -0.5912 0.7300 -0.9105
f 1032/15 1031/15 1030/15 1029/15
v -0.7509 0.2300 -0.7509
v -0.7509 0.7300 -0.7509
v -0.7509 0.7300 -0.7909
v -0.7509 0.2300 -0.7909
f 1036/15 1035/15 1034/15 1033/15
v -0.7909 0.2300 -0.7909
v -0.7909 0.7300 -0.7909
v -0.7909 0.7300 -0.7509
v -0.7909 0.2300 -0.7509
f 1040/15 1039/15 1038/15 1037/15
v -0.7509 0.2300 -0.7909
v -0.7909 0.2300 -0.7909
v -0.7909 0.2300 -0.7509
v -0.7509 0.2300 -0.7509
f 1044/15 1043/15 1042/15 1041/15
v -0.7509 0.7300 -0.7509
v -0.7909 0.7300 -0.7509
v -0.7909 0.7300 -0.7909
v -0.7509 0.7300 -0.7909
f 1048/15 1047/15 1046/15 1045/15
v -0.7509 0.7300 -0.7909
v -0.7909 0.7300 -0.7909
v -0.7909 0.2300 -0.7909
v -0.7509 0.2300 -0.7909
f 1052/15 1051/15 1050/15 1049/15
v -0.7509 0.2300 -0.7509
v -0.7909 0.2300 -0.7509
v -0.7909 0.7300 -0.7509
v -0.7509 0.7300 -0.7509
f 1056/15 1055/15 1054/15 1053/15
v -0.9105 0.2300 -0.5912
v -0.9105 0.7300 -0.5912
v -0.9105 0.7300 -0.6312
v -0.9105 0.2300 -0.6312
f 1060/15 1059/15 1058/15 1057/15
v -0.9505 0.2300 -0.6312
v -0.9505 0.7300 -0.6312
v -0.9505 0.7300 -0.5912
v -0.9505 0.2300 -0.5912
f 1064/15 1063/15 1062/15 1061/15
v -0.9105 0.2300 -0.6312
v -0.9505 0.2300 -0.6312
v -0.9505 0.2300 -0.5912
v -0.9105 0.2300 -0.5912
f 1068/15 1067/15 1066/15 1065/15
v -0.9105 0.7300 -0.5912
v -0.9505 0.7300 -0.5912
v -0.9505 0.7300 -0.6312
v -0.9105 0.7300 -0.6312
f 1072/15 1071/15 1070/15 1069/15
v -0.9105 0.7300 -0.6312
v -0.9505 0.7300 -0.6312
v -0.9505 0.2300 -0.6312
v -0.9105 0.2300 -0.6312
f 1076/15 1075/15 1074/15 1073/15
v -0.9105 0.2300 -0.5912
v -0.9505 0.2300 -0.5912
v -0.9505 0.7300 -0.5912
v -0.9105 0.7300 -0.5912
f 1080/15 1079/15 1078/15 1077/15
v -1.0402 0.2000 -0.4016
v -1.0402 2.1000 -0.4016
v -1.0402 2.1000 -0.5016
v -1.0402 0.2000 -0.5016
f 1084/15 1083/15 1082/15 1081/15
v -1.1402 0.2000 -0.5016
v -1.1402 2.1000 -0.5016
v -1.1402 2.1000 -0.4016
v -1.1402 0.2000 -0.4016
f 1088/15 1087/15 1086/15 1085/15
v -1.0402 0.2000 -0.5016
v -1.1402 0.2000 -0.5016
v -1.1402 0.2000 -0.4016
v -1.0402 0.2000 -0.4016
f 1092/15 1091/15 1090/15 1089/15
v -1.0402 2.1000 -0.4016
v -1.1402 2.1000 -0.4016
v -1.1402 2.1000 -0.5016
v -1.0402 2.1000 -0.5016
f 1096/15 1095/15 1094/15 1093/15
v -1.0402 2.1000 -0.5016
v -1.1402 2.1000 -0.5016
v -1.1402 0.2000 -0.5016
v -1.0402 0.2000 -0.5016
f 1100/15 1099/15 1098/15 1097/15
v -1.0402 0.2000 -0.4016
v -1.1402 0.2000 -0.4016
v -1.1402 2.1000 -0.4016
v -1.0402 2.1000 -0.4016
f 1104/15 1103/15 1102/15 1101/15
v -1.0602 0.7200 0.4516
v -1.0602 0.7800 0.4516
v -1.0602 0.7800 -0.4516
v -1.0602 0.7200 -0.4516
f 1108/15 1107/15 1106/15 1105/15
v -1.1202 0.7200 -0.4516
v -1.1202 0.7800 -0.4516
v -1.1202 0.7800 0.4516
v -1.1202 0.7200 0.4516
f 1112/15 1111/15 1110/15 1109/15
v -1.0602 0.7200 -0.4516
v -1.1202 0.7200 -0.4516
v -1.1202 0.7200 0.4516
v -1.0602 0.7200 0.4516
f 1116/15 1115/15 1114/15 1113/15
v -1.0602 0.7800 0.4516
v -1.1202 0.7800 0.4516
v -1.1202 0.7800 -0.4516
v -1.0602 0.7800 -0.4516
f 1120/15 1119/15 1118/15 1117/15
v -1.0602 0.7800 -0.4516
v -1.1202 0.7800 -0.4516
v -1.1202 0.7200 -0.4516
v -1.0602 0.7200 -0.4516
f 1124/15 1123/15 1122/15 1121/15
v -1.0602 0.7200 0.4516
v -1.1202 0.7200 0.4516
v -1.1202 0.7800 0.4516
v -1.0602 0.7800 0.4516
f 1128/15 1127/15 1126/15 1125/15
v -0.7776 0.3950 0.3883
v -0.7776 0.4450 0.3883
v -0.7776 0.4450 -0.3883
v -0.7776 0.3950 -0.3883
f 1132/22 1131/22 1130/22 1129/22
v -1.0976 0.3950 -0.3883
v -1.0976 0.4450 -0.3883
v -1.0976 0.4450 0.3883
v -1.0976 0.3950 0.3883
f 1136/22 1135/22 1134/22 1133/22
v -0.7776 0.3950 -0.3883
v -1.0976 0.3950 -0.3883
v -1.0976 0.3950 0.3883
v -0.7776 0.3950 0.3883
f 1140/22 1139/22 1138/22 1137/22
v -0.7776 0.4450 0.3883
v -1.0976 0.4450 0.3883
v -1.0976 0.4450 -0.3883
v -0.7776 0.4450 -0.3883
f 1144/22 1143/22 1142/22 1141/22
v -0.7776 0.4450 -0.3883
v -1.0976 0.4450 -0.3883
v -1.0976 0.3950 -0.3883
v -0.7776 0.3950 -0.3883
f 1148/22 1147/22 1146/22 1145/22
v -0.7776 0.3950 0.3883
v -1.0976 0.3950 0.3883
v -1.0976 0.4450 0.3883
v -0.7776 0.4450 0.3883
f 1152/22 1151/22 1150/22 1149/22
v -1.0702 0.2300 -0.2058
v -1.0702 0.7300 -0.2058
v -1.0702 0.7300 -0.2458
v -1.0702 0.2300 -0.2458
f 1156/15 1155/15 1154/15 1153/15
v -1.1102 0.2300 -0.2458
v -1.1102 0.7300 -0.2458
v -1.1102 0.7300 -0.2058
v -1.1102 0.2300 -0.2058
f 1160/15 1159/15 1158/15 1157/15
v -1.0702 0.2300 -0.2458
v -1.1102 0.2300 -0.2458
v -1.1102 0.2300 -0.2058
v -1.0702 0.2300 -0.2058
f 1164/15 1163/15 1162/15 1161/15
v -1.0702 0.7300 -0.2058
v -1.1102 0.7300 -0.2058
v -1.1102 0.7300 -0.2458
v -1.0702 0.7300 -0.2458
f 1168/15 1167/15 1166/15 1165/15
v -1.0702 0.7300 -0.2458
v -1.1102 0.7300 -0.2458
v -1.1102 0.2300 -0.2458
v -1.0702 0.2300 -0.2458
f 1172/15 1171/15 1170/15 1169/15
v -1.0702 0.2300 -0.2058
v -1.1102 0.2300 -0.2058
v -1.1102 0.7300 -0.2058
v -1.0702 0.7300 -0.2058
f 1176/15 1175/15 1174/15 1173/15
v -1.0702 0.2300 0.0200
v -1.0702 0.7300 0.0200
v -1.0702 0.7300 -0.0200
v -1.0702 0.2300 -0.0200
f 1180/15 1179/15 1178/15 1177/15
v -1.1102 0.2300 -0.0200
v -1.1102 0.7300 -0.0200
v -1.1102 0.7300 0.0200
v -1.1102 0.2300 0.0200
f 1184/15 1183/15 1182/15 1181/15
v -1.0702 0.2300 -0.0200
v -1.1102 0.2300 -0.0200
v -1.1102 0.2300 0.0200
v -1.0702 0.2300 0.0200
f 1188/15 1187/15 1186/15 1185/15
v -1.0702 0.7300 0.0200
v -1.1102 0.7300 0.0200
v -1.1102 0.7300 -0.0200
v -1.0702 0.7300 -0.0200
f 1192/15 1191/15 1190/15 1189/15
v -1.0702 0.7300 -0.0200
v -1.1102 0.7300 -0.0200
v -1.1102 0.2300 -0.0200
v -1.0702 0.2300 -0.0200
f 1196/15 1195/15 1194/15 1193/15
v -1.0702 0.2300 0.0200
v -1.1102 0.2300 0.0200
v -1.1102 0.7300 0.0200
v -1.0702 0.7300 0.0200
f 1200/15 1199/15 1198/15 1197/15
v -1.0702 0.2300 0.2458
v -1.0702 0.7300 0.2458
v -1.0702 0.7300 0.2058
v -1.0702 0.2300 0.2058
f 1204/15 1203/15 1202/15 1201/15
v -1.1102 0.2300 0.2058
v -1.1102 0.7300 0.2058
v -1.1102 0.7300 0.2458
v -1.1102 0.2300 0.2458
f 1208/15 1207/15 1206/15 1205/15
v -1.0702 0.2300 0.2058
v -1.1102 0.2300 0.2058
v -1.1102 0.2300 0.2458
v -1.0702 0.2300 0.2458
f 1212/15 1211/15 1210/15 1209/15
v -1.0702 0.7300 0.2458
v -1.1102 0.7300 0.2458
v -1.1102 0.7300 0.2058
v -1.0702 0.7300 0.2058
f 1216/15 1215/15 1214/15 1213/15
v -1.0702 0.7300 0.2058
v -1.1102 0.7300 0.2058
v -1.1102 0.2300 0.2058
v -1.0702 0.2300 0.2058
f 1220/15 1219/15 1218/15 1217/15
v -1.0702 0.2300 0.2458
v -1.1102 0.2300 0.2458
v -1.1102 0.7300 0.2458
v -1.0702 0.7300 0.2458
f 1224/15 1223/15 1222/15 1221/15
v -0.5358 2.1000 1.2934
v -1.2934 2.1000 0.5358
v -1.2934 2.1800 0.5358
v -0.5358 2.1800 1.2934
f 1228/15 1227/15 1226/15 1225/15
v -1.2934 2.1000 0.5358
v -1.2934 2.1000 -0.5358
v -1.2934 2.1800 -0.5358
v -1.2934 2.1800 0.5358
f 1232/15 1231/15 1230/15 1229/15
v -1.2934 2.1000 -0.5358
v -0.5358 2.1000 -1.2934
v -0.5358 2.1800 -1.2934
v -1.2934 2.1800 -0.5358
f 1236/15 1235/15 1234/15 1233/15
v -0.5358 2.1000 -1.2934
v 0.5358 2.1000 -1.2934
v 0.5358 2.1800 -1.2934
v -0.5358 2.1800 -1.2934
f 1240/15 1239/15 1238/15 1237/15
v 0.5358 2.1000 -1.2934
v 1.2934 2.1000 -0.5358
v 1.2934 2.1800 -0.5358
v 0.5358 2.1800 -1.2934
f 1244/15 1243/15 1242/15 1241/15
v 1.2934 2.1000 -0.5358
v 1.2934 2.1000 0.5358
v 1.2934 2.1800 0.5358
v 1.2934 2.1800 -0.5358
f 1248/15 1247/15 1246/15 1245/15
v 1.2934 2.1000 0.5358
v 0.5358 2.1000 1.2934
v 0.5358 2.1800 1.2934
v 1.2934 2.1800 0.5358
f 1252/15 1251/15 1250/15 1249/15
v 0.5358 2.1000 1.2934
v -0.5358 2.1000 1.2934
v -0.5358 2.1800 1.2934
v 0.5358 2.1800 1.2934
f 1256/15 1255/15 1254/15 1253/15
v 0.5358 2.1000 1.2934
v 1.2934 2.1000 0.5358
v 1.2934 2.1000 -0.5358
v 0.5358 2.1000 -1.2934
v -0.5358 2.1000 -1.2934
v -1.2934 2.1000 -0.5358
v -1.2934 2.1000 0.5358
v -0.5358 2.1000 1.2934
f 1264/15 1263/15 1262/15 1261/15 1260/15 1259/15 1258/15 1257/15
v -0.5358 2.1800 1.2934
v -1.2934 2.1800 0.5358
v -1.2934 2.1800 -0.5358
v -0.5358 2.1800 -1.2934
v 0.5358 2.1800 -1.2934
v 1.2934 2.1800 -0.5358
v 1.2934 2.1800 0.5358
v 0.5358 2.1800 1.2934
f 1272/15 1271/15 1270/15 1269/15 1268/15 1267/15 1266/15 1265/15
v -0.0250 3.1000 0.0433
v -0.0500 3.1000 0.0000
v -0.0500 3.2200 0.0000
v -0.0250 3.2200 0.0433
f 1276/23 1275/23 1274/23 1273/23
v -0.0500 3.1000 0.0000
v -0.0250 3.1000 -0.0433
v -0.0250 3.2200 -0.0433
v -0.0500 3.2200 0.0000
f 1280/23 1279/23 1278/23 1277/23
v -0.0250 3.1000 -0.0433
v 0.0250 3.1000 -0.0433
v 0.0250 3.2200 -0.0433
v -0.0250 3.2200 -0.0433
f 1284/23 1283/23 1282/23 1281/23
v 0.0250 3.1000 -0.0433
v 0.0500 3.1000 -0.0000
v 0.0500 3.2200 -0.0000
v 0.0250 3.2200 -0.0433
f 1288/23 1287/23 1286/23 1285/23
v 0.0500 3.1000 -0.0000
v 0.0250 3.1000 0.0433
v 0.0250 3.2200 0.0433
v 0.0500 3.2200 -0.0000
f 1292/23 1291/23 1290/23 1289/23
v 0.0250 3.1000 0.0433
v -0.0250 3.1000 0.0433
v -0.0250 3.2200 0.0433
v 0.0250 3.2200 0.0433
f 1296/23 1295/23 1294/23 1293/23
v 0.0250 3.1000 0.0433
v 0.0500 3.1000 -0.0000
v 0.0250 3.1000 -0.0433
v -0.0250 3.1000 -0.0433
v -0.0500 3.1000 0.0000
v -0.0250 3.1000 0.0433
f 1302/23 1301/23 1300/23 1299/23 1298/23 1297/23
v -0.0250 3.2200 0.0433
v -0.0500 3.2200 0.0000
v -0.0250 3.2200 -0.0433
v 0.0250 3.2200 -0.0433
v 0.0500 3.2200 -0.0000
v 0.0250 3.2200 0.0433
f 1308/23 1307/23 1306/23 1305/23 1304/23 1303/23
v -0.0141 1.9000 0.0141
v -0.0141 1.9000 -0.0141
v -0.0141 2.1000 -0.0141
v -0.0141 2.1000 0.0141
f 1312/6 1311/6 1310/6 1309/6
v -0.0141 1.9000 -0.0141
v 0.0141 1.9000 -0.0141
v 0.0141 2.1000 -0.0141
v -0.0141 2.1000 -0.0141
f 1316/6 1315/6 1314/6 1313/6
v 0.0141 1.9000 -0.0141
v 0.0141 1.9000 0.0141
v 0.0141 2.1000 0.0141
v 0.0141 2.1000 -0.0141
f 1320/6 1319/6 1318/6 1317/6
v 0.0141 1.9000 0.0141
v -0.0141 1.9000 0.0141
v -0.0141 2.1000 0.0141
v 0.0141 2.1000 0.0141
f 1324/6 1323/6 1322/6 1321/6
v 0.0141 1.9000 0.0141
v 0.0141 1.9000 -0.0141
v -0.0141 1.9000 -0.0141
v -0.0141 1.9000 0.0141
f 1328/6 1327/6 1326/6 1325/6
v -0.0141 2.1000 0.0141
v -0.0141 2.1000 -0.0141
v 0.0141 2.1000 -0.0141
v 0.0141 2.1000 0.0141
f 1332/6 1331/6 1330/6 1329/6
v -0.1225 0.2000 0.2956
v -0.2956 0.2000 0.1225
v -0.2956 0.7500 0.1225
v -0.1225 0.7500 0.2956
f 1336/22 1335/22 1334/22 1333/22
v -0.2956 0.2000 0.1225
v -0.2956 0.2000 -0.1225
v -0.2956 0.7500 -0.1225
v -0.2956 0.7500 0.1225
f 1340/22 1339/22 1338/22 1337/22
v -0.2956 0.2000 -0.1225
v -0.1225 0.2000 -0.2956
v -0.1225 0.7500 -0.2956
v -0.2956 0.7500 -0.1225
f 1344/22 1343/22 1342/22 1341/22
v -0.1225 0.2000 -0.2956
v 0.1225 0.2000 -0.2956
v 0.1225 0.7500 -0.2956
v -0.1225 0.7500 -0.2956
f 1348/22 1347/22 1346/22 1345/22
v 0.1225 0.2000 -0.2956
v 0.2956 0.2000 -0.1225
v 0.2956 0.7500 -0.1225
v 0.1225 0.7500 -0.2956
f 1352/22 1351/22 1350/22 1349/22
v 0.2956 0.2000 -0.1225
v 0.2956 0.2000 0.1225
v 0.2956 0.7500 0.1225
v 0.2956 0.7500 -0.1225
f 1356/22 1355/22 1354/22 1353/22
v 0.2956 0.2000 0.1225
v 0.1225 0.2000 0.2956
v 0.1225 0.7500 0.2956
v 0.2956 0.7500 0.1225
f 1360/22 1359/22 1358/22 1357/22
v 0.1225 0.2000 0.2956
v -0.1225 0.2000 0.2956
v -0.1225 0.7500 0.2956
v 0.1225 0.7500 0.2956
f 1364/22 1363/22 1362/22 1361/22
v 0.1225 0.2000 0.2956
v 0.2956 0.2000 0.1225
v 0.2956 0.2000 -0.1225
v 0.1225 0.2000 -0.2956
v -0.1225 0.2000 -0.2956
v -0.2956 0.2000 -0.1225
v -0.2956 0.2000 0.1225
v -0.1225 0.2000 0.2956
f 1372/22 1371/22 1370/22 1369/22 1368/22 1367/22 1366/22 1365/22
v -0.1225 0.7500 0.2956
v -0.2956 0.7500 0.1225
v -0.2956 0.7500 -0.1225
v -0.1225 0.7500 -0.2956
v 0.1225 0.7500 -0.2956
v 0.2956 0.7500 -0.1225
v 0.2956 0.7500 0.1225
v 0.1225 0.7500 0.2956
f 1380/22 1379/22 1378/22 1377/22 1376/22 1375/22 1374/22 1373/22
v -0.1722 0.7500 0.4157
v -0.4157 0.7500 0.1722
v -0.4157 0.7900 0.1722
v -0.1722 0.7900 0.4157
f 1384/22 1383/22 1382/22 1381/22
v -0.4157 0.7500 0.1722
v -0.4157 0.7500 -0.1722
v -0.4157 0.7900 -0.1722
v -0.4157 0.7900 0.1722
f 1388/22 1387/22 1386/22 1385/22
v -0.4157 0.7500 -0.1722
v -0.1722 0.7500 -0.4157
v -0.1722 0.7900 -0.4157
v -0.4157 0.7900 -0.1722
f 1392/22 1391/22 1390/22 1389/22
v -0.1722 0.7500 -0.4157
v 0.1722 0.7500 -0.4157
v 0.1722 0.7900 -0.4157
v -0.1722 0.7900 -0.4157
f 1396/22 1395/22 1394/22 1393/22
v 0.1722 0.7500 -0.4157
v 0.4157 0.7500 -0.1722
v 0.4157 0.7900 -0.1722
v 0.1722 0.7900 -0.4157
f 1400/22 1399/22 1398/22 1397/22
v 0.4157 0.7500 -0.1722
v 0.4157 0.7500 0.1722
v 0.4157 0.7900 0.1722
v 0.4157 0.7900 -0.1722
f 1404/22 1403/22 1402/22 1401/22
v 0.4157 0.7500 0.1722
v 0.1722 0.7500 0.4157
v 0.1722 0.7900 0.4157
v 0.4157 0.7900 0.1722
f 1408/22 1407/22 1406/22 1405/22
v 0.1722 0.7500 0.4157
v -0.1722 0.7500 0.4157
v -0.1722 0.7900 0.4157
v 0.1722 0.7900 0.4157
f 1412/22 1411/22 1410/22 1409/22
v 0.1722 0.7500 0.4157
v 0.4157 0.7500 0.1722
v 0.4157 0.7500 -0.1722
v 0.1722 0.7500 -0.4157
v -0.1722 0.7500 -0.4157
v -0.4157 0.7500 -0.1722
v -0.4157 0.7500 0.1722
v -0.1722 0.7500 0.4157
f 1420/22 1419/22 1418/22 1417/22 1416/22 1415/22 1414/22 1413/22
v -0.1722 0.7900 0.4157
v -0.4157 0.7900 0.1722
v -0.4157 0.7900 -0.1722
v -0.1722 0.7900 -0.4157
v 0.1722 0.7900 -0.4157
v 0.4157 0.7900 -0.1722
v 0.4157 0.7900 0.1722
v 0.1722 0.7900 0.4157
f 1428/22 1427/22 1426/22 1425/22 1424/22 1423/22 1422/22 1421/22
o Lamp
usemtl wi_palette
v 0.0600 1.7900 0.0600
v 0.0600 1.9100 0.0600
v 0.0600 1.9100 -0.0600
v 0.0600 1.7900 -0.0600
f 1432/31 1431/31 1430/31 1429/31
v -0.0600 1.7900 -0.0600
v -0.0600 1.9100 -0.0600
v -0.0600 1.9100 0.0600
v -0.0600 1.7900 0.0600
f 1436/31 1435/31 1434/31 1433/31
v 0.0600 1.7900 -0.0600
v -0.0600 1.7900 -0.0600
v -0.0600 1.7900 0.0600
v 0.0600 1.7900 0.0600
f 1440/31 1439/31 1438/31 1437/31
v 0.0600 1.9100 0.0600
v -0.0600 1.9100 0.0600
v -0.0600 1.9100 -0.0600
v 0.0600 1.9100 -0.0600
f 1444/31 1443/31 1442/31 1441/31
v 0.0600 1.9100 -0.0600
v -0.0600 1.9100 -0.0600
v -0.0600 1.7900 -0.0600
v 0.0600 1.7900 -0.0600
f 1448/31 1447/31 1446/31 1445/31
v 0.0600 1.7900 0.0600
v -0.0600 1.7900 0.0600
v -0.0600 1.9100 0.0600
v 0.0600 1.9100 0.0600
f 1452/31 1451/31 1450/31 1449/31
