# Walk of Industry low-poly (generated, wi_lib.py)
mtllib wi.mtl
vt 0 0
vt 0.03125 0.03125
vt 0.09375 0.03125
vt 0.15625 0.03125
vt 0.21875 0.03125
vt 0.28125 0.03125
vt 0.34375 0.03125
vt 0.40625 0.03125
vt 0.46875 0.03125
vt 0.53125 0.03125
vt 0.59375 0.03125
vt 0.65625 0.03125
vt 0.71875 0.03125
vt 0.78125 0.03125
vt 0.84375 0.03125
vt 0.90625 0.03125
vt 0.96875 0.03125
vt 0.03125 0.09375
vt 0.09375 0.09375
vt 0.15625 0.09375
vt 0.21875 0.09375
vt 0.28125 0.09375
vt 0.34375 0.09375
vt 0.40625 0.09375
vt 0.46875 0.09375
vt 0.53125 0.09375
vt 0.59375 0.09375
vt 0.65625 0.09375
vt 0.71875 0.09375
vt 0.78125 0.09375
vt 0.84375 0.09375
vt 0.90625 0.09375
vt 0.96875 0.09375
o Body
usemtl wi_paint
v 0.1475 0.0800 -0.0183
v 0.0625 0.0800 -0.0801
v 0.0625 0.5600 -0.0801
v 0.1475 0.5600 -0.0183
f 4/1 3/1 2/1 1/1
v 0.0625 0.0800 -0.0801
v 0.0300 0.0800 -0.1800
v 0.0300 0.5600 -0.1800
v 0.0625 0.5600 -0.0801
f 8/1 7/1 6/1 5/1
v 0.0300 0.0800 -0.1800
v 0.0625 0.0800 -0.2799
v 0.0625 0.5600 -0.2799
v 0.0300 0.5600 -0.1800
f 12/1 11/1 10/1 9/1
v 0.0625 0.0800 -0.2799
v 0.1475 0.0800 -0.3417
v 0.1475 0.5600 -0.3417
v 0.0625 0.5600 -0.2799
f 16/1 15/1 14/1 13/1
v 0.1475 0.0800 -0.3417
v 0.2525 0.0800 -0.3417
v 0.2525 0.5600 -0.3417
v 0.1475 0.5600 -0.3417
f 20/1 19/1 18/1 17/1
v 0.2525 0.0800 -0.3417
v 0.3375 0.0800 -0.2799
v 0.3375 0.5600 -0.2799
v 0.2525 0.5600 -0.3417
f 24/1 23/1 22/1 21/1
v 0.3375 0.0800 -0.2799
v 0.3700 0.0800 -0.1800
v 0.3700 0.5600 -0.1800
v 0.3375 0.5600 -0.2799
f 28/1 27/1 26/1 25/1
v 0.3700 0.0800 -0.1800
v 0.3375 0.0800 -0.0801
v 0.3375 0.5600 -0.0801
v 0.3700 0.5600 -0.1800
f 32/1 31/1 30/1 29/1
v 0.3375 0.0800 -0.0801
v 0.2525 0.0800 -0.0183
v 0.2525 0.5600 -0.0183
v 0.3375 0.5600 -0.0801
f 36/1 35/1 34/1 33/1
v 0.2525 0.0800 -0.0183
v 0.1475 0.0800 -0.0183
v 0.1475 0.5600 -0.0183
v 0.2525 0.5600 -0.0183
f 40/1 39/1 38/1 37/1
v 0.2525 0.0800 -0.0183
v 0.3375 0.0800 -0.0801
v 0.3700 0.0800 -0.1800
v 0.3375 0.0800 -0.2799
v 0.2525 0.0800 -0.3417
v 0.1475 0.0800 -0.3417
v 0.0625 0.0800 -0.2799
v 0.0300 0.0800 -0.1800
v 0.0625 0.0800 -0.0801
v 0.1475 0.0800 -0.0183
f 50/1 49/1 48/1 47/1 46/1 45/1 44/1 43/1 42/1 41/1
v 0.1475 0.5600 -0.0183
v 0.0625 0.5600 -0.0801
v 0.0300 0.5600 -0.1800
v 0.0625 0.5600 -0.2799
v 0.1475 0.5600 -0.3417
v 0.2525 0.5600 -0.3417
v 0.3375 0.5600 -0.2799
v 0.3700 0.5600 -0.1800
v 0.3375 0.5600 -0.0801
v 0.2525 0.5600 -0.0183
f 60/1 59/1 58/1 57/1 56/1 55/1 54/1 53/1 52/1 51/1
usemtl wi_palette
v 0.4300 0.0000 0.4300
v 0.4300 0.0800 0.4300
v 0.4300 0.0800 -0.4300
v 0.4300 0.0000 -0.4300
f 64/22 63/22 62/22 61/22
v -0.4300 0.0000 -0.4300
v -0.4300 0.0800 -0.4300
v -0.4300 0.0800 0.4300
v -0.4300 0.0000 0.4300
f 68/22 67/22 66/22 65/22
v 0.4300 0.0000 -0.4300
v -0.4300 0.0000 -0.4300
v -0.4300 0.0000 0.4300
v 0.4300 0.0000 0.4300
f 72/22 71/22 70/22 69/22
v 0.4300 0.0800 0.4300
v -0.4300 0.0800 0.4300
v -0.4300 0.0800 -0.4300
v 0.4300 0.0800 -0.4300
f 76/22 75/22 74/22 73/22
v 0.4300 0.0800 -0.4300
v -0.4300 0.0800 -0.4300
v -0.4300 0.0000 -0.4300
v 0.4300 0.0000 -0.4300
f 80/22 79/22 78/22 77/22
v 0.4300 0.0000 0.4300
v -0.4300 0.0000 0.4300
v -0.4300 0.0800 0.4300
v 0.4300 0.0800 0.4300
f 84/22 83/22 82/22 81/22
v 0.1438 0.1600 -0.0069
v 0.0528 0.1600 -0.0730
v 0.0528 0.1900 -0.0730
v 0.1438 0.1900 -0.0069
f 88/7 87/7 86/7 85/7
v 0.0528 0.1600 -0.0730
v 0.0180 0.1600 -0.1800
v 0.0180 0.1900 -0.1800
v 0.0528 0.1900 -0.0730
f 92/7 91/7 90/7 89/7
v 0.0180 0.1600 -0.1800
v 0.0528 0.1600 -0.2870
v 0.0528 0.1900 -0.2870
v 0.0180 0.1900 -0.1800
f 96/7 95/7 94/7 93/7
v 0.0528 0.1600 -0.2870
v 0.1438 0.1600 -0.3531
v 0.1438 0.1900 -0.3531
v 0.0528 0.1900 -0.2870
f 100/7 99/7 98/7 97/7
v 0.1438 0.1600 -0.3531
v 0.2562 0.1600 -0.3531
v 0.2562 0.1900 -0.3531
v 0.1438 0.1900 -0.3531
f 104/7 103/7 102/7 101/7
v 0.2562 0.1600 -0.3531
v 0.3472 0.1600 -0.2870
v 0.3472 0.1900 -0.2870
v 0.2562 0.1900 -0.3531
f 108/7 107/7 106/7 105/7
v 0.3472 0.1600 -0.2870
v 0.3820 0.1600 -0.1800
v 0.3820 0.1900 -0.1800
v 0.3472 0.1900 -0.2870
f 112/7 111/7 110/7 109/7
v 0.3820 0.1600 -0.1800
v 0.3472 0.1600 -0.0730
v 0.3472 0.1900 -0.0730
v 0.3820 0.1900 -0.1800
f 116/7 115/7 114/7 113/7
v 0.3472 0.1600 -0.0730
v 0.2562 0.1600 -0.0069
v 0.2562 0.1900 -0.0069
v 0.3472 0.1900 -0.0730
f 120/7 119/7 118/7 117/7
v 0.2562 0.1600 -0.0069
v 0.1438 0.1600 -0.0069
v 0.1438 0.1900 -0.0069
v 0.2562 0.1900 -0.0069
f 124/7 123/7 122/7 121/7
v 0.2562 0.1600 -0.0069
v 0.3472 0.1600 -0.0730
v 0.3820 0.1600 -0.1800
v 0.3472 0.1600 -0.2870
v 0.2562 0.1600 -0.3531
v 0.1438 0.1600 -0.3531
v 0.0528 0.1600 -0.2870
v 0.0180 0.1600 -0.1800
v 0.0528 0.1600 -0.0730
v 0.1438 0.1600 -0.0069
f 134/7 133/7 132/7 131/7 130/7 129/7 128/7 127/7 126/7 125/7
v 0.1438 0.1900 -0.0069
v 0.0528 0.1900 -0.0730
v 0.0180 0.1900 -0.1800
v 0.0528 0.1900 -0.2870
v 0.1438 0.1900 -0.3531
v 0.2562 0.1900 -0.3531
v 0.3472 0.1900 -0.2870
v 0.3820 0.1900 -0.1800
v 0.3472 0.1900 -0.0730
v 0.2562 0.1900 -0.0069
f 144/7 143/7 142/7 141/7 140/7 139/7 138/7 137/7 136/7 135/7
v 0.1438 0.4600 -0.0069
v 0.0528 0.4600 -0.0730
v 0.0528 0.4900 -0.0730
v 0.1438 0.4900 -0.0069
f 148/7 147/7 146/7 145/7
v 0.0528 0.4600 -0.0730
v 0.0180 0.4600 -0.1800
v 0.0180 0.4900 -0.1800
v 0.0528 0.4900 -0.0730
f 152/7 151/7 150/7 149/7
v 0.0180 0.4600 -0.1800
v 0.0528 0.4600 -0.2870
v 0.0528 0.4900 -0.2870
v 0.0180 0.4900 -0.1800
f 156/7 155/7 154/7 153/7
v 0.0528 0.4600 -0.2870
v 0.1438 0.4600 -0.3531
v 0.1438 0.4900 -0.3531
v 0.0528 0.4900 -0.2870
f 160/7 159/7 158/7 157/7
v 0.1438 0.4600 -0.3531
v 0.2562 0.4600 -0.3531
v 0.2562 0.4900 -0.3531
v 0.1438 0.4900 -0.3531
f 164/7 163/7 162/7 161/7
v 0.2562 0.4600 -0.3531
v 0.3472 0.4600 -0.2870
v 0.3472 0.4900 -0.2870
v 0.2562 0.4900 -0.3531
f 168/7 167/7 166/7 165/7
v 0.3472 0.4600 -0.2870
v 0.3820 0.4600 -0.1800
v 0.3820 0.4900 -0.1800
v 0.3472 0.4900 -0.2870
f 172/7 171/7 170/7 169/7
v 0.3820 0.4600 -0.1800
v 0.3472 0.4600 -0.0730
v 0.3472 0.4900 -0.0730
v 0.3820 0.4900 -0.1800
f 176/7 175/7 174/7 173/7
v 0.3472 0.4600 -0.0730
v 0.2562 0.4600 -0.0069
v 0.2562 0.4900 -0.0069
v 0.3472 0.4900 -0.0730
f 180/7 179/7 178/7 177/7
v 0.2562 0.4600 -0.0069
v 0.1438 0.4600 -0.0069
v 0.1438 0.4900 -0.0069
v 0.2562 0.4900 -0.0069
f 184/7 183/7 182/7 181/7
v 0.2562 0.4600 -0.0069
v 0.3472 0.4600 -0.0730
v 0.3820 0.4600 -0.1800
v 0.3472 0.4600 -0.2870
v 0.2562 0.4600 -0.3531
v 0.1438 0.4600 -0.3531
v 0.0528 0.4600 -0.2870
v 0.0180 0.4600 -0.1800
v 0.0528 0.4600 -0.0730
v 0.1438 0.4600 -0.0069
f 194/7 193/7 192/7 191/7 190/7 189/7 188/7 187/7 186/7 185/7
v 0.1438 0.4900 -0.0069
v 0.0528 0.4900 -0.0730
v 0.0180 0.4900 -0.1800
v 0.0528 0.4900 -0.2870
v 0.1438 0.4900 -0.3531
v 0.2562 0.4900 -0.3531
v 0.3472 0.4900 -0.2870
v 0.3820 0.4900 -0.1800
v 0.3472 0.4900 -0.0730
v 0.2562 0.4900 -0.0069
f 204/7 203/7 202/7 201/7 200/7 199/7 198/7 197/7 196/7 195/7
v 0.1536 0.5600 -0.0373
v 0.0786 0.5600 -0.0918
v 0.0786 0.5700 -0.0918
v 0.1536 0.5700 -0.0373
f 208/6 207/6 206/6 205/6
v 0.0786 0.5600 -0.0918
v 0.0500 0.5600 -0.1800
v 0.0500 0.5700 -0.1800
v 0.0786 0.5700 -0.0918
f 212/6 211/6 210/6 209/6
v 0.0500 0.5600 -0.1800
v 0.0786 0.5600 -0.2682
v 0.0786 0.5700 -0.2682
v 0.0500 0.5700 -0.1800
f 216/6 215/6 214/6 213/6
v 0.0786 0.5600 -0.2682
v 0.1536 0.5600 -0.3227
v 0.1536 0.5700 -0.3227
v 0.0786 0.5700 -0.2682
f 220/6 219/6 218/6 217/6
v 0.1536 0.5600 -0.3227
v 0.2464 0.5600 -0.3227
v 0.2464 0.5700 -0.3227
v 0.1536 0.5700 -0.3227
f 224/6 223/6 222/6 221/6
v 0.2464 0.5600 -0.3227
v 0.3214 0.5600 -0.2682
v 0.3214 0.5700 -0.2682
v 0.2464 0.5700 -0.3227
f 228/6 227/6 226/6 225/6
v 0.3214 0.5600 -0.2682
v 0.3500 0.5600 -0.1800
v 0.3500 0.5700 -0.1800
v 0.3214 0.5700 -0.2682
f 232/6 231/6 230/6 229/6
v 0.3500 0.5600 -0.1800
v 0.3214 0.5600 -0.0918
v 0.3214 0.5700 -0.0918
v 0.3500 0.5700 -0.1800
f 236/6 235/6 234/6 233/6
v 0.3214 0.5600 -0.0918
v 0.2464 0.5600 -0.0373
v 0.2464 0.5700 -0.0373
v 0.3214 0.5700 -0.0918
f 240/6 239/6 238/6 237/6
v 0.2464 0.5600 -0.0373
v 0.1536 0.5600 -0.0373
v 0.1536 0.5700 -0.0373
v 0.2464 0.5700 -0.0373
f 244/6 243/6 242/6 241/6
v 0.2464 0.5600 -0.0373
v 0.3214 0.5600 -0.0918
v 0.3500 0.5600 -0.1800
v 0.3214 0.5600 -0.2682
v 0.2464 0.5600 -0.3227
v 0.1536 0.5600 -0.3227
v 0.0786 0.5600 -0.2682
v 0.0500 0.5600 -0.1800
v 0.0786 0.5600 -0.0918
v 0.1536 0.5600 -0.0373
f 254/6 253/6 252/6 251/6 250/6 249/6 248/6 247/6 246/6 245/6
v 0.1536 0.5700 -0.0373
v 0.0786 0.5700 -0.0918
v 0.0500 0.5700 -0.1800
v 0.0786 0.5700 -0.2682
v 0.1536 0.5700 -0.3227
v 0.2464 0.5700 -0.3227
v 0.3214 0.5700 -0.2682
v 0.3500 0.5700 -0.1800
v 0.3214 0.5700 -0.0918
v 0.2464 0.5700 -0.0373
f 264/6 263/6 262/6 261/6 260/6 259/6 258/6 257/6 256/6 255/6
v -0.2525 0.0800 -0.0183
v -0.3375 0.0800 -0.0801
v -0.3375 0.5600 -0.0801
v -0.2525 0.5600 -0.0183
f 268/6 267/6 266/6 265/6
v -0.3375 0.0800 -0.0801
v -0.3700 0.0800 -0.1800
v -0.3700 0.5600 -0.1800
v -0.3375 0.5600 -0.0801
f 272/6 271/6 270/6 269/6
v -0.3700 0.0800 -0.1800
v -0.3375 0.0800 -0.2799
v -0.3375 0.5600 -0.2799
v -0.3700 0.5600 -0.1800
f 276/6 275/6 274/6 273/6
v -0.3375 0.0800 -0.2799
v -0.2525 0.0800 -0.3417
v -0.2525 0.5600 -0.3417
v -0.3375 0.5600 -0.2799
f 280/6 279/6 278/6 277/6
v -0.2525 0.0800 -0.3417
v -0.1475 0.0800 -0.3417
v -0.1475 0.5600 -0.3417
v -0.2525 0.5600 -0.3417
f 284/6 283/6 282/6 281/6
v -0.1475 0.0800 -0.3417
v -0.0625 0.0800 -0.2799
v -0.0625 0.5600 -0.2799
v -0.1475 0.5600 -0.3417
f 288/6 287/6 286/6 285/6
v -0.0625 0.0800 -0.2799
v -0.0300 0.0800 -0.1800
v -0.0300 0.5600 -0.1800
v -0.0625 0.5600 -0.2799
f 292/6 291/6 290/6 289/6
v -0.0300 0.0800 -0.1800
v -0.0625 0.0800 -0.0801
v -0.0625 0.5600 -0.0801
v -0.0300 0.5600 -0.1800
f 296/6 295/6 294/6 293/6
v -0.0625 0.0800 -0.0801
v -0.1475 0.0800 -0.0183
v -0.1475 0.5600 -0.0183
v -0.0625 0.5600 -0.0801
f 300/6 299/6 298/6 297/6
v -0.1475 0.0800 -0.0183
v -0.2525 0.0800 -0.0183
v -0.2525 0.5600 -0.0183
v -0.1475 0.5600 -0.0183
f 304/6 303/6 302/6 301/6
v -0.1475 0.0800 -0.0183
v -0.0625 0.0800 -0.0801
v -0.0300 0.0800 -0.1800
v -0.0625 0.0800 -0.2799
v -0.1475 0.0800 -0.3417
v -0.2525 0.0800 -0.3417
v -0.3375 0.0800 -0.2799
v -0.3700 0.0800 -0.1800
v -0.3375 0.0800 -0.0801
v -0.2525 0.0800 -0.0183
f 314/6 313/6 312/6 311/6 310/6 309/6 308/6 307/6 306/6 305/6
v -0.2525 0.5600 -0.0183
v -0.3375 0.5600 -0.0801
v -0.3700 0.5600 -0.1800
v -0.3375 0.5600 -0.2799
v -0.2525 0.5600 -0.3417
v -0.1475 0.5600 -0.3417
v -0.0625 0.5600 -0.2799
v -0.0300 0.5600 -0.1800
v -0.0625 0.5600 -0.0801
v -0.1475 0.5600 -0.0183
f 324/6 323/6 322/6 321/6 320/6 319/6 318/6 317/6 316/6 315/6
v -0.2562 0.1600 -0.0069
v -0.3472 0.1600 -0.0730
v -0.3472 0.1900 -0.0730
v -0.2562 0.1900 -0.0069
f 328/8 327/8 326/8 325/8
v -0.3472 0.1600 -0.0730
v -0.3820 0.1600 -0.1800
v -0.3820 0.1900 -0.1800
v -0.3472 0.1900 -0.0730
f 332/8 331/8 330/8 329/8
v -0.3820 0.1600 -0.1800
v -0.3472 0.1600 -0.2870
v -0.3472 0.1900 -0.2870
v -0.3820 0.1900 -0.1800
f 336/8 335/8 334/8 333/8
v -0.3472 0.1600 -0.2870
v -0.2562 0.1600 -0.3531
v -0.2562 0.1900 -0.3531
v -0.3472 0.1900 -0.2870
f 340/8 339/8 338/8 337/8
v -0.2562 0.1600 -0.3531
v -0.1438 0.1600 -0.3531
v -0.1438 0.1900 -0.3531
v -0.2562 0.1900 -0.3531
f 344/8 343/8 342/8 341/8
v -0.1438 0.1600 -0.3531
v -0.0528 0.1600 -0.2870
v -0.0528 0.1900 -0.2870
v -0.1438 0.1900 -0.3531
f 348/8 347/8 346/8 345/8
v -0.0528 0.1600 -0.2870
v -0.0180 0.1600 -0.1800
v -0.0180 0.1900 -0.1800
v -0.0528 0.1900 -0.2870
f 352/8 351/8 350/8 349/8
v -0.0180 0.1600 -0.1800
v -0.0528 0.1600 -0.0730
v -0.0528 0.1900 -0.0730
v -0.0180 0.1900 -0.1800
f 356/8 355/8 354/8 353/8
v -0.0528 0.1600 -0.0730
v -0.1438 0.1600 -0.0069
v -0.1438 0.1900 -0.0069
v -0.0528 0.1900 -0.0730
f 360/8 359/8 358/8 357/8
v -0.1438 0.1600 -0.0069
v -0.2562 0.1600 -0.0069
v -0.2562 0.1900 -0.0069
v -0.1438 0.1900 -0.0069
f 364/8 363/8 362/8 361/8
v -0.1438 0.1600 -0.0069
v -0.0528 0.1600 -0.0730
v -0.0180 0.1600 -0.1800
v -0.0528 0.1600 -0.2870
v -0.1438 0.1600 -0.3531
v -0.2562 0.1600 -0.3531
v -0.3472 0.1600 -0.2870
v -0.3820 0.1600 -0.1800
v -0.3472 0.1600 -0.0730
v -0.2562 0.1600 -0.0069
f 374/8 373/8 372/8 371/8 370/8 369/8 368/8 367/8 366/8 365/8
v -0.2562 0.1900 -0.0069
v -0.3472 0.1900 -0.0730
v -0.3820 0.1900 -0.1800
v -0.3472 0.1900 -0.2870
v -0.2562 0.1900 -0.3531
v -0.1438 0.1900 -0.3531
v -0.0528 0.1900 -0.2870
v -0.0180 0.1900 -0.1800
v -0.0528 0.1900 -0.0730
v -0.1438 0.1900 -0.0069
f 384/8 383/8 382/8 381/8 380/8 379/8 378/8 377/8 376/8 375/8
v -0.2562 0.4600 -0.0069
v -0.3472 0.4600 -0.0730
v -0.3472 0.4900 -0.0730
v -0.2562 0.4900 -0.0069
f 388/8 387/8 386/8 385/8
v -0.3472 0.4600 -0.0730
v -0.3820 0.4600 -0.1800
v -0.3820 0.4900 -0.1800
v -0.3472 0.4900 -0.0730
f 392/8 391/8 390/8 389/8
v -0.3820 0.4600 -0.1800
v -0.3472 0.4600 -0.2870
v -0.3472 0.4900 -0.2870
v -0.3820 0.4900 -0.1800
f 396/8 395/8 394/8 393/8
v -0.3472 0.4600 -0.2870
v -0.2562 0.4600 -0.3531
v -0.2562 0.4900 -0.3531
v -0.3472 0.4900 -0.2870
f 400/8 399/8 398/8 397/8
v -0.2562 0.4600 -0.3531
v -0.1438 0.4600 -0.3531
v -0.1438 0.4900 -0.3531
v -0.2562 0.4900 -0.3531
f 404/8 403/8 402/8 401/8
v -0.1438 0.4600 -0.3531
v -0.0528 0.4600 -0.2870
v -0.0528 0.4900 -0.2870
v -0.1438 0.4900 -0.3531
f 408/8 407/8 406/8 405/8
v -0.0528 0.4600 -0.2870
v -0.0180 0.4600 -0.1800
v -0.0180 0.4900 -0.1800
v -0.0528 0.4900 -0.2870
f 412/8 411/8 410/8 409/8
v -0.0180 0.4600 -0.1800
v -0.0528 0.4600 -0.0730
v -0.0528 0.4900 -0.0730
v -0.0180 0.4900 -0.1800
f 416/8 415/8 414/8 413/8
v -0.0528 0.4600 -0.0730
v -0.1438 0.4600 -0.0069
v -0.1438 0.4900 -0.0069
v -0.0528 0.4900 -0.0730
f 420/8 419/8 418/8 417/8
v -0.1438 0.4600 -0.0069
v -0.2562 0.4600 -0.0069
v -0.2562 0.4900 -0.0069
v -0.1438 0.4900 -0.0069
f 424/8 423/8 422/8 421/8
v -0.1438 0.4600 -0.0069
v -0.0528 0.4600 -0.0730
v -0.0180 0.4600 -0.1800
v -0.0528 0.4600 -0.2870
v -0.1438 0.4600 -0.3531
v -0.2562 0.4600 -0.3531
v -0.3472 0.4600 -0.2870
v -0.3820 0.4600 -0.1800
v -0.3472 0.4600 -0.0730
v -0.2562 0.4600 -0.0069
f 434/8 433/8 432/8 431/8 430/8 429/8 428/8 427/8 426/8 425/8
v -0.2562 0.4900 -0.0069
v -0.3472 0.4900 -0.0730
v -0.3820 0.4900 -0.1800
v -0.3472 0.4900 -0.2870
v -0.2562 0.4900 -0.3531
v -0.1438 0.4900 -0.3531
v -0.0528 0.4900 -0.2870
v -0.0180 0.4900 -0.1800
v -0.0528 0.4900 -0.0730
v -0.1438 0.4900 -0.0069
f 444/8 443/8 442/8 441/8 440/8 439/8 438/8 437/8 436/8 435/8
v -0.2464 0.5600 -0.0373
v -0.3214 0.5600 -0.0918
v -0.3214 0.5700 -0.0918
v -0.2464 0.5700 -0.0373
f 448/6 447/6 446/6 445/6
v -0.3214 0.5600 -0.0918
v -0.3500 0.5600 -0.1800
v -0.3500 0.5700 -0.1800
v -0.3214 0.5700 -0.0918
f 452/6 451/6 450/6 449/6
v -0.3500 0.5600 -0.1800
v -0.3214 0.5600 -0.2682
v -0.3214 0.5700 -0.2682
v -0.3500 0.5700 -0.1800
f 456/6 455/6 454/6 453/6
v -0.3214 0.5600 -0.2682
v -0.2464 0.5600 -0.3227
v -0.2464 0.5700 -0.3227
v -0.3214 0.5700 -0.2682
f 460/6 459/6 458/6 457/6
v -0.2464 0.5600 -0.3227
v -0.1536 0.5600 -0.3227
v -0.1536 0.5700 -0.3227
v -0.2464 0.5700 -0.3227
f 464/6 463/6 462/6 461/6
v -0.1536 0.5600 -0.3227
v -0.0786 0.5600 -0.2682
v -0.0786 0.5700 -0.2682
v -0.1536 0.5700 -0.3227
f 468/6 467/6 466/6 465/6
v -0.0786 0.5600 -0.2682
v -0.0500 0.5600 -0.1800
v -0.0500 0.5700 -0.1800
v -0.0786 0.5700 -0.2682
f 472/6 471/6 470/6 469/6
v -0.0500 0.5600 -0.1800
v -0.0786 0.5600 -0.0918
v -0.0786 0.5700 -0.0918
v -0.0500 0.5700 -0.1800
f 476/6 475/6 474/6 473/6
v -0.0786 0.5600 -0.0918
v -0.1536 0.5600 -0.0373
v -0.1536 0.5700 -0.0373
v -0.0786 0.5700 -0.0918
f 480/6 479/6 478/6 477/6
v -0.1536 0.5600 -0.0373
v -0.2464 0.5600 -0.0373
v -0.2464 0.5700 -0.0373
v -0.1536 0.5700 -0.0373
f 484/6 483/6 482/6 481/6
v -0.1536 0.5600 -0.0373
v -0.0786 0.5600 -0.0918
v -0.0500 0.5600 -0.1800
v -0.0786 0.5600 -0.2682
v -0.1536 0.5600 -0.3227
v -0.2464 0.5600 -0.3227
v -0.3214 0.5600 -0.2682
v -0.3500 0.5600 -0.1800
v -0.3214 0.5600 -0.0918
v -0.2464 0.5600 -0.0373
f 494/6 493/6 492/6 491/6 490/6 489/6 488/6 487/6 486/6 485/6
v -0.2464 0.5700 -0.0373
v -0.3214 0.5700 -0.0918
v -0.3500 0.5700 -0.1800
v -0.3214 0.5700 -0.2682
v -0.2464 0.5700 -0.3227
v -0.1536 0.5700 -0.3227
v -0.0786 0.5700 -0.2682
v -0.0500 0.5700 -0.1800
v -0.0786 0.5700 -0.0918
v -0.1536 0.5700 -0.0373
f 504/6 503/6 502/6 501/6 500/6 499/6 498/6 497/6 496/6 495/6
v -0.0525 0.0800 0.3617
v -0.1375 0.0800 0.2999
v -0.1375 0.5600 0.2999
v -0.0525 0.5600 0.3617
f 508/27 507/27 506/27 505/27
v -0.1375 0.0800 0.2999
v -0.1700 0.0800 0.2000
v -0.1700 0.5600 0.2000
v -0.1375 0.5600 0.2999
f 512/27 511/27 510/27 509/27
v -0.1700 0.0800 0.2000
v -0.1375 0.0800 0.1001
v -0.1375 0.5600 0.1001
v -0.1700 0.5600 0.2000
f 516/27 515/27 514/27 513/27
v -0.1375 0.0800 0.1001
v -0.0525 0.0800 0.0383
v -0.0525 0.5600 0.0383
v -0.1375 0.5600 0.1001
f 520/27 519/27 518/27 517/27
v -0.0525 0.0800 0.0383
v 0.0525 0.0800 0.0383
v 0.0525 0.5600 0.0383
v -0.0525 0.5600 0.0383
f 524/27 523/27 522/27 521/27
v 0.0525 0.0800 0.0383
v 0.1375 0.0800 0.1001
v 0.1375 0.5600 0.1001
v 0.0525 0.5600 0.0383
f 528/27 527/27 526/27 525/27
v 0.1375 0.0800 0.1001
v 0.1700 0.0800 0.2000
v 0.1700 0.5600 0.2000
v 0.1375 0.5600 0.1001
f 532/27 531/27 530/27 529/27
v 0.1700 0.0800 0.2000
v 0.1375 0.0800 0.2999
v 0.1375 0.5600 0.2999
v 0.1700 0.5600 0.2000
f 536/27 535/27 534/27 533/27
v 0.1375 0.0800 0.2999
v 0.0525 0.0800 0.3617
v 0.0525 0.5600 0.3617
v 0.1375 0.5600 0.2999
f 540/27 539/27 538/27 537/27
v 0.0525 0.0800 0.3617
v -0.0525 0.0800 0.3617
v -0.0525 0.5600 0.3617
v 0.0525 0.5600 0.3617
f 544/27 543/27 542/27 541/27
v 0.0525 0.0800 0.3617
v 0.1375 0.0800 0.2999
v 0.1700 0.0800 0.2000
v 0.1375 0.0800 0.1001
v 0.0525 0.0800 0.0383
v -0.0525 0.0800 0.0383
v -0.1375 0.0800 0.1001
v -0.1700 0.0800 0.2000
v -0.1375 0.0800 0.2999
v -0.0525 0.0800 0.3617
f 554/27 553/27 552/27 551/27 550/27 549/27 548/27 547/27 546/27 545/27
v -0.0525 0.5600 0.3617
v -0.1375 0.5600 0.2999
v -0.1700 0.5600 0.2000
v -0.1375 0.5600 0.1001
v -0.0525 0.5600 0.0383
v 0.0525 0.5600 0.0383
v 0.1375 0.5600 0.1001
v 0.1700 0.5600 0.2000
v 0.1375 0.5600 0.2999
v 0.0525 0.5600 0.3617
f 564/27 563/27 562/27 561/27 560/27 559/27 558/27 557/27 556/27 555/27
v -0.0562 0.1600 0.3731
v -0.1472 0.1600 0.3070
v -0.1472 0.1900 0.3070
v -0.0562 0.1900 0.3731
f 568/7 567/7 566/7 565/7
v -0.1472 0.1600 0.3070
v -0.1820 0.1600 0.2000
v -0.1820 0.1900 0.2000
v -0.1472 0.1900 0.3070
f 572/7 571/7 570/7 569/7
v -0.1820 0.1600 0.2000
v -0.1472 0.1600 0.0930
v -0.1472 0.1900 0.0930
v -0.1820 0.1900 0.2000
f 576/7 575/7 574/7 573/7
v -0.1472 0.1600 0.0930
v -0.0562 0.1600 0.0269
v -0.0562 0.1900 0.0269
v -0.1472 0.1900 0.0930
f 580/7 579/7 578/7 577/7
v -0.0562 0.1600 0.0269
v 0.0562 0.1600 0.0269
v 0.0562 0.1900 0.0269
v -0.0562 0.1900 0.0269
f 584/7 583/7 582/7 581/7
v 0.0562 0.1600 0.0269
v 0.1472 0.1600 0.0930
v 0.1472 0.1900 0.0930
v 0.0562 0.1900 0.0269
f 588/7 587/7 586/7 585/7
v 0.1472 0.1600 0.0930
v 0.1820 0.1600 0.2000
v 0.1820 0.1900 0.2000
v 0.1472 0.1900 0.0930
f 592/7 591/7 590/7 589/7
v 0.1820 0.1600 0.2000
v 0.1472 0.1600 0.3070
v 0.1472 0.1900 0.3070
v 0.1820 0.1900 0.2000
f 596/7 595/7 594/7 593/7
v 0.1472 0.1600 0.3070
v 0.0562 0.1600 0.3731
v 0.0562 0.1900 0.3731
v 0.1472 0.1900 0.3070
f 600/7 599/7 598/7 597/7
v 0.0562 0.1600 0.3731
v -0.0562 0.1600 0.3731
v -0.0562 0.1900 0.3731
v 0.0562 0.1900 0.3731
f 604/7 603/7 602/7 601/7
v 0.0562 0.1600 0.3731
v 0.1472 0.1600 0.3070
v 0.1820 0.1600 0.2000
v 0.1472 0.1600 0.0930
v 0.0562 0.1600 0.0269
v -0.0562 0.1600 0.0269
v -0.1472 0.1600 0.0930
v -0.1820 0.1600 0.2000
v -0.1472 0.1600 0.3070
v -0.0562 0.1600 0.3731
f 614/7 613/7 612/7 611/7 610/7 609/7 608/7 607/7 606/7 605/7
v -0.0562 0.1900 0.3731
v -0.1472 0.1900 0.3070
v -0.1820 0.1900 0.2000
v -0.1472 0.1900 0.0930
v -0.0562 0.1900 0.0269
v 0.0562 0.1900 0.0269
v 0.1472 0.1900 0.0930
v 0.1820 0.1900 0.2000
v 0.1472 0.1900 0.3070
v 0.0562 0.1900 0.3731
f 624/7 623/7 622/7 621/7 620/7 619/7 618/7 617/7 616/7 615/7
v -0.0562 0.4600 0.3731
v -0.1472 0.4600 0.3070
v -0.1472 0.4900 0.3070
v -0.0562 0.4900 0.3731
f 628/7 627/7 626/7 625/7
v -0.1472 0.4600 0.3070
v -0.1820 0.4600 0.2000
v -0.1820 0.4900 0.2000
v -0.1472 0.4900 0.3070
f 632/7 631/7 630/7 629/7
v -0.1820 0.4600 0.2000
v -0.1472 0.4600 0.0930
v -0.1472 0.4900 0.0930
v -0.1820 0.4900 0.2000
f 636/7 635/7 634/7 633/7
v -0.1472 0.4600 0.0930
v -0.0562 0.4600 0.0269
v -0.0562 0.4900 0.0269
v -0.1472 0.4900 0.0930
f 640/7 639/7 638/7 637/7
v -0.0562 0.4600 0.0269
v 0.0562 0.4600 0.0269
v 0.0562 0.4900 0.0269
v -0.0562 0.4900 0.0269
f 644/7 643/7 642/7 641/7
v 0.0562 0.4600 0.0269
v 0.1472 0.4600 0.0930
v 0.1472 0.4900 0.0930
v 0.0562 0.4900 0.0269
f 648/7 647/7 646/7 645/7
v 0.1472 0.4600 0.0930
v 0.1820 0.4600 0.2000
v 0.1820 0.4900 0.2000
v 0.1472 0.4900 0.0930
f 652/7 651/7 650/7 649/7
v 0.1820 0.4600 0.2000
v 0.1472 0.4600 0.3070
v 0.1472 0.4900 0.3070
v 0.1820 0.4900 0.2000
f 656/7 655/7 654/7 653/7
v 0.1472 0.4600 0.3070
v 0.0562 0.4600 0.3731
v 0.0562 0.4900 0.3731
v 0.1472 0.4900 0.3070
f 660/7 659/7 658/7 657/7
v 0.0562 0.4600 0.3731
v -0.0562 0.4600 0.3731
v -0.0562 0.4900 0.3731
v 0.0562 0.4900 0.3731
f 664/7 663/7 662/7 661/7
v 0.0562 0.4600 0.3731
v 0.1472 0.4600 0.3070
v 0.1820 0.4600 0.2000
v 0.1472 0.4600 0.0930
v 0.0562 0.4600 0.0269
v -0.0562 0.4600 0.0269
v -0.1472 0.4600 0.0930
v -0.1820 0.4600 0.2000
v -0.1472 0.4600 0.3070
v -0.0562 0.4600 0.3731
f 674/7 673/7 672/7 671/7 670/7 669/7 668/7 667/7 666/7 665/7
v -0.0562 0.4900 0.3731
v -0.1472 0.4900 0.3070
v -0.1820 0.4900 0.2000
v -0.1472 0.4900 0.0930
v -0.0562 0.4900 0.0269
v 0.0562 0.4900 0.0269
v 0.1472 0.4900 0.0930
v 0.1820 0.4900 0.2000
v 0.1472 0.4900 0.3070
v 0.0562 0.4900 0.3731
f 684/7 683/7 682/7 681/7 680/7 679/7 678/7 677/7 676/7 675/7
v -0.0464 0.5600 0.3427
v -0.1214 0.5600 0.2882
v -0.1214 0.5700 0.2882
v -0.0464 0.5700 0.3427
f 688/6 687/6 686/6 685/6
v -0.1214 0.5600 0.2882
v -0.1500 0.5600 0.2000
v -0.1500 0.5700 0.2000
v -0.1214 0.5700 0.2882
f 692/6 691/6 690/6 689/6
v -0.1500 0.5600 0.2000
v -0.1214 0.5600 0.1118
v -0.1214 0.5700 0.1118
v -0.1500 0.5700 0.2000
f 696/6 695/6 694/6 693/6
v -0.1214 0.5600 0.1118
v -0.0464 0.5600 0.0573
v -0.0464 0.5700 0.0573
v -0.1214 0.5700 0.1118
f 700/6 699/6 698/6 697/6
v -0.0464 0.5600 0.0573
v 0.0464 0.5600 0.0573
v 0.0464 0.5700 0.0573
v -0.0464 0.5700 0.0573
f 704/6 703/6 702/6 701/6
v 0.0464 0.5600 0.0573
v 0.1214 0.5600 0.1118
v 0.1214 0.5700 0.1118
v 0.0464 0.5700 0.0573
f 708/6 707/6 706/6 705/6
v 0.1214 0.5600 0.1118
v 0.1500 0.5600 0.2000
v 0.1500 0.5700 0.2000
v 0.1214 0.5700 0.1118
f 712/6 711/6 710/6 709/6
v 0.1500 0.5600 0.2000
v 0.1214 0.5600 0.2882
v 0.1214 0.5700 0.2882
v 0.1500 0.5700 0.2000
f 716/6 715/6 714/6 713/6
v 0.1214 0.5600 0.2882
v 0.0464 0.5600 0.3427
v 0.0464 0.5700 0.3427
v 0.1214 0.5700 0.2882
f 720/6 719/6 718/6 717/6
v 0.0464 0.5600 0.3427
v -0.0464 0.5600 0.3427
v -0.0464 0.5700 0.3427
v 0.0464 0.5700 0.3427
f 724/6 723/6 722/6 721/6
v 0.0464 0.5600 0.3427
v 0.1214 0.5600 0.2882
v 0.1500 0.5600 0.2000
v 0.1214 0.5600 0.1118
v 0.0464 0.5600 0.0573
v -0.0464 0.5600 0.0573
v -0.1214 0.5600 0.1118
v -0.1500 0.5600 0.2000
v -0.1214 0.5600 0.2882
v -0.0464 0.5600 0.3427
f 734/6 733/6 732/6 731/6 730/6 729/6 728/6 727/6 726/6 725/6
v -0.0464 0.5700 0.3427
v -0.1214 0.5700 0.2882
v -0.1500 0.5700 0.2000
v -0.1214 0.5700 0.1118
v -0.0464 0.5700 0.0573
v 0.0464 0.5700 0.0573
v 0.1214 0.5700 0.1118
v 0.1500 0.5700 0.2000
v 0.1214 0.5700 0.2882
v 0.0464 0.5700 0.3427
f 744/6 743/6 742/6 741/6 740/6 739/6 738/6 737/6 736/6 735/6
v -0.0525 0.5600 -0.0183
v -0.1375 0.5600 -0.0801
v -0.1375 1.0400 -0.0801
v -0.0525 1.0400 -0.0183
f 748/8 747/8 746/8 745/8
v -0.1375 0.5600 -0.0801
v -0.1700 0.5600 -0.1800
v -0.1700 1.0400 -0.1800
v -0.1375 1.0400 -0.0801
f 752/8 751/8 750/8 749/8
v -0.1700 0.5600 -0.1800
v -0.1375 0.5600 -0.2799
v -0.1375 1.0400 -0.2799
v -0.1700 1.0400 -0.1800
f 756/8 755/8 754/8 753/8
v -0.1375 0.5600 -0.2799
v -0.0525 0.5600 -0.3417
v -0.0525 1.0400 -0.3417
v -0.1375 1.0400 -0.2799
f 760/8 759/8 758/8 757/8
v -0.0525 0.5600 -0.3417
v 0.0525 0.5600 -0.3417
v 0.0525 1.0400 -0.3417
v -0.0525 1.0400 -0.3417
f 764/8 763/8 762/8 761/8
v 0.0525 0.5600 -0.3417
v 0.1375 0.5600 -0.2799
v 0.1375 1.0400 -0.2799
v 0.0525 1.0400 -0.3417
f 768/8 767/8 766/8 765/8
v 0.1375 0.5600 -0.2799
v 0.1700 0.5600 -0.1800
v 0.1700 1.0400 -0.1800
v 0.1375 1.0400 -0.2799
f 772/8 771/8 770/8 769/8
v 0.1700 0.5600 -0.1800
v 0.1375 0.5600 -0.0801
v 0.1375 1.0400 -0.0801
v 0.1700 1.0400 -0.1800
f 776/8 775/8 774/8 773/8
v 0.1375 0.5600 -0.0801
v 0.0525 0.5600 -0.0183
v 0.0525 1.0400 -0.0183
v 0.1375 1.0400 -0.0801
f 780/8 779/8 778/8 777/8
v 0.0525 0.5600 -0.0183
v -0.0525 0.5600 -0.0183
v -0.0525 1.0400 -0.0183
v 0.0525 1.0400 -0.0183
f 784/8 783/8 782/8 781/8
v 0.0525 0.5600 -0.0183
v 0.1375 0.5600 -0.0801
v 0.1700 0.5600 -0.1800
v 0.1375 0.5600 -0.2799
v 0.0525 0.5600 -0.3417
v -0.0525 0.5600 -0.3417
v -0.1375 0.5600 -0.2799
v -0.1700 0.5600 -0.1800
v -0.1375 0.5600 -0.0801
v -0.0525 0.5600 -0.0183
f 794/8 793/8 792/8 791/8 790/8 789/8 788/8 787/8 786/8 785/8
v -0.0525 1.0400 -0.0183
v -0.1375 1.0400 -0.0801
v -0.1700 1.0400 -0.1800
v -0.1375 1.0400 -0.2799
v -0.0525 1.0400 -0.3417
v 0.0525 1.0400 -0.3417
v 0.1375 1.0400 -0.2799
v 0.1700 1.0400 -0.1800
v 0.1375 1.0400 -0.0801
v 0.0525 1.0400 -0.0183
f 804/8 803/8 802/8 801/8 800/8 799/8 798/8 797/8 796/8 795/8
v -0.0562 0.6400 -0.0069
v -0.1472 0.6400 -0.0730
v -0.1472 0.6700 -0.0730
v -0.0562 0.6700 -0.0069
f 808/6 807/6 806/6 805/6
v -0.1472 0.6400 -0.0730
v -0.1820 0.6400 -0.1800
v -0.1820 0.6700 -0.1800
v -0.1472 0.6700 -0.0730
f 812/6 811/6 810/6 809/6
v -0.1820 0.6400 -0.1800
v -0.1472 0.6400 -0.2870
v -0.1472 0.6700 -0.2870
v -0.1820 0.6700 -0.1800
f 816/6 815/6 814/6 813/6
v -0.1472 0.6400 -0.2870
v -0.0562 0.6400 -0.3531
v -0.0562 0.6700 -0.3531
v -0.1472 0.6700 -0.2870
f 820/6 819/6 818/6 817/6
v -0.0562 0.6400 -0.3531
v 0.0562 0.6400 -0.3531
v 0.0562 0.6700 -0.3531
v -0.0562 0.6700 -0.3531
f 824/6 823/6 822/6 821/6
v 0.0562 0.6400 -0.3531
v 0.1472 0.6400 -0.2870
v 0.1472 0.6700 -0.2870
v 0.0562 0.6700 -0.3531
f 828/6 827/6 826/6 825/6
v 0.1472 0.6400 -0.2870
v 0.1820 0.6400 -0.1800
v 0.1820 0.6700 -0.1800
v 0.1472 0.6700 -0.2870
f 832/6 831/6 830/6 829/6
v 0.1820 0.6400 -0.1800
v 0.1472 0.6400 -0.0730
v 0.1472 0.6700 -0.0730
v 0.1820 0.6700 -0.1800
f 836/6 835/6 834/6 833/6
v 0.1472 0.6400 -0.0730
v 0.0562 0.6400 -0.0069
v 0.0562 0.6700 -0.0069
v 0.1472 0.6700 -0.0730
f 840/6 839/6 838/6 837/6
v 0.0562 0.6400 -0.0069
v -0.0562 0.6400 -0.0069
v -0.0562 0.6700 -0.0069
v 0.0562 0.6700 -0.0069
f 844/6 843/6 842/6 841/6
v 0.0562 0.6400 -0.0069
v 0.1472 0.6400 -0.0730
v 0.1820 0.6400 -0.1800
v 0.1472 0.6400 -0.2870
v 0.0562 0.6400 -0.3531
v -0.0562 0.6400 -0.3531
v -0.1472 0.6400 -0.2870
v -0.1820 0.6400 -0.1800
v -0.1472 0.6400 -0.0730
v -0.0562 0.6400 -0.0069
f 854/6 853/6 852/6 851/6 850/6 849/6 848/6 847/6 846/6 845/6
v -0.0562 0.6700 -0.0069
v -0.1472 0.6700 -0.0730
v -0.1820 0.6700 -0.1800
v -0.1472 0.6700 -0.2870
v -0.0562 0.6700 -0.3531
v 0.0562 0.6700 -0.3531
v 0.1472 0.6700 -0.2870
v 0.1820 0.6700 -0.1800
v 0.1472 0.6700 -0.0730
v 0.0562 0.6700 -0.0069
f 864/6 863/6 862/6 861/6 860/6 859/6 858/6 857/6 856/6 855/6
v -0.0562 0.9400 -0.0069
v -0.1472 0.9400 -0.0730
v -0.1472 0.9700 -0.0730
v -0.0562 0.9700 -0.0069
f 868/6 867/6 866/6 865/6
v -0.1472 0.9400 -0.0730
v -0.1820 0.9400 -0.1800
v -0.1820 0.9700 -0.1800
v -0.1472 0.9700 -0.0730
f 872/6 871/6 870/6 869/6
v -0.1820 0.9400 -0.1800
v -0.1472 0.9400 -0.2870
v -0.1472 0.9700 -0.2870
v -0.1820 0.9700 -0.1800
f 876/6 875/6 874/6 873/6
v -0.1472 0.9400 -0.2870
v -0.0562 0.9400 -0.3531
v -0.0562 0.9700 -0.3531
v -0.1472 0.9700 -0.2870
f 880/6 879/6 878/6 877/6
v -0.0562 0.9400 -0.3531
v 0.0562 0.9400 -0.3531
v 0.0562 0.9700 -0.3531
v -0.0562 0.9700 -0.3531
f 884/6 883/6 882/6 881/6
v 0.0562 0.9400 -0.3531
v 0.1472 0.9400 -0.2870
v 0.1472 0.9700 -0.2870
v 0.0562 0.9700 -0.3531
f 888/6 887/6 886/6 885/6
v 0.1472 0.9400 -0.2870
v 0.1820 0.9400 -0.1800
v 0.1820 0.9700 -0.1800
v 0.1472 0.9700 -0.2870
f 892/6 891/6 890/6 889/6
v 0.1820 0.9400 -0.1800
v 0.1472 0.9400 -0.0730
v 0.1472 0.9700 -0.0730
v 0.1820 0.9700 -0.1800
f 896/6 895/6 894/6 893/6
v 0.1472 0.9400 -0.0730
v 0.0562 0.9400 -0.0069
v 0.0562 0.9700 -0.0069
v 0.1472 0.9700 -0.0730
f 900/6 899/6 898/6 897/6
v 0.0562 0.9400 -0.0069
v -0.0562 0.9400 -0.0069
v -0.0562 0.9700 -0.0069
v 0.0562 0.9700 -0.0069
f 904/6 903/6 902/6 901/6
v 0.0562 0.9400 -0.0069
v 0.1472 0.9400 -0.0730
v 0.1820 0.9400 -0.1800
v 0.1472 0.9400 -0.2870
v 0.0562 0.9400 -0.3531
v -0.0562 0.9400 -0.3531
v -0.1472 0.9400 -0.2870
v -0.1820 0.9400 -0.1800
v -0.1472 0.9400 -0.0730
v -0.0562 0.9400 -0.0069
f 914/6 913/6 912/6 911/6 910/6 909/6 908/6 907/6 906/6 905/6
v -0.0562 0.9700 -0.0069
v -0.1472 0.9700 -0.0730
v -0.1820 0.9700 -0.1800
v -0.1472 0.9700 -0.2870
v -0.0562 0.9700 -0.3531
v 0.0562 0.9700 -0.3531
v 0.1472 0.9700 -0.2870
v 0.1820 0.9700 -0.1800
v 0.1472 0.9700 -0.0730
v 0.0562 0.9700 -0.0069
f 924/6 923/6 922/6 921/6 920/6 919/6 918/6 917/6 916/6 915/6
v -0.0464 1.0400 -0.0373
v -0.1214 1.0400 -0.0918
v -0.1214 1.0500 -0.0918
v -0.0464 1.0500 -0.0373
f 928/6 927/6 926/6 925/6
v -0.1214 1.0400 -0.0918
v -0.1500 1.0400 -0.1800
v -0.1500 1.0500 -0.1800
v -0.1214 1.0500 -0.0918
f 932/6 931/6 930/6 929/6
v -0.1500 1.0400 -0.1800
v -0.1214 1.0400 -0.2682
v -0.1214 1.0500 -0.2682
v -0.1500 1.0500 -0.1800
f 936/6 935/6 934/6 933/6
v -0.1214 1.0400 -0.2682
v -0.0464 1.0400 -0.3227
v -0.0464 1.0500 -0.3227
v -0.1214 1.0500 -0.2682
f 940/6 939/6 938/6 937/6
v -0.0464 1.0400 -0.3227
v 0.0464 1.0400 -0.3227
v 0.0464 1.0500 -0.3227
v -0.0464 1.0500 -0.3227
f 944/6 943/6 942/6 941/6
v 0.0464 1.0400 -0.3227
v 0.1214 1.0400 -0.2682
v 0.1214 1.0500 -0.2682
v 0.0464 1.0500 -0.3227
f 948/6 947/6 946/6 945/6
v 0.1214 1.0400 -0.2682
v 0.1500 1.0400 -0.1800
v 0.1500 1.0500 -0.1800
v 0.1214 1.0500 -0.2682
f 952/6 951/6 950/6 949/6
v 0.1500 1.0400 -0.1800
v 0.1214 1.0400 -0.0918
v 0.1214 1.0500 -0.0918
v 0.1500 1.0500 -0.1800
f 956/6 955/6 954/6 953/6
v 0.1214 1.0400 -0.0918
v 0.0464 1.0400 -0.0373
v 0.0464 1.0500 -0.0373
v 0.1214 1.0500 -0.0918
f 960/6 959/6 958/6 957/6
v 0.0464 1.0400 -0.0373
v -0.0464 1.0400 -0.0373
v -0.0464 1.0500 -0.0373
v 0.0464 1.0500 -0.0373
f 964/6 963/6 962/6 961/6
v 0.0464 1.0400 -0.0373
v 0.1214 1.0400 -0.0918
v 0.1500 1.0400 -0.1800
v 0.1214 1.0400 -0.2682
v 0.0464 1.0400 -0.3227
v -0.0464 1.0400 -0.3227
v -0.1214 1.0400 -0.2682
v -0.1500 1.0400 -0.1800
v -0.1214 1.0400 -0.0918
v -0.0464 1.0400 -0.0373
f 974/6 973/6 972/6 971/6 970/6 969/6 968/6 967/6 966/6 965/6
v -0.0464 1.0500 -0.0373
v -0.1214 1.0500 -0.0918
v -0.1500 1.0500 -0.1800
v -0.1214 1.0500 -0.2682
v -0.0464 1.0500 -0.3227
v 0.0464 1.0500 -0.3227
v 0.1214 1.0500 -0.2682
v 0.1500 1.0500 -0.1800
v 0.1214 1.0500 -0.0918
v 0.0464 1.0500 -0.0373
f 984/6 983/6 982/6 981/6 980/6 979/6 978/6 977/6 976/6 975/6
v 0.0600 0.3600 0.3770
v 0.0600 0.4800 0.3770
v 0.0600 0.4800 0.3670
v 0.0600 0.3600 0.3670
f 988/15 987/15 986/15 985/15
v -0.0600 0.3600 0.3670
v -0.0600 0.4800 0.3670
v -0.0600 0.4800 0.3770
v -0.0600 0.3600 0.3770
f 992/15 991/15 990/15 989/15
v 0.0600 0.3600 0.3670
v -0.0600 0.3600 0.3670
v -0.0600 0.3600 0.3770
v 0.0600 0.3600 0.3770
f 996/15 995/15 994/15 993/15
v 0.0600 0.4800 0.3770
v -0.0600 0.4800 0.3770
v -0.0600 0.4800 0.3670
v 0.0600 0.4800 0.3670
f 1000/15 999/15 998/15 997/15
v 0.0600 0.4800 0.3670
v -0.0600 0.4800 0.3670
v -0.0600 0.3600 0.3670
v 0.0600 0.3600 0.3670
f 1004/15 1003/15 1002/15 1001/15
v 0.0600 0.3600 0.3770
v -0.0600 0.3600 0.3770
v -0.0600 0.4800 0.3770
v 0.0600 0.4800 0.3770
f 1008/15 1007/15 1006/15 1005/15
