# Walk of Industry low-poly (generated, wi_lib.py)
mtllib wi.mtl
vt 0 0
vt 0.03125 0.03125
vt 0.09375 0.03125
vt 0.15625 0.03125
vt 0.21875 0.03125
vt 0.28125 0.03125
vt 0.34375 0.03125
vt 0.40625 0.03125
vt 0.46875 0.03125
vt 0.53125 0.03125
vt 0.59375 0.03125
vt 0.65625 0.03125
vt 0.71875 0.03125
vt 0.78125 0.03125
vt 0.84375 0.03125
vt 0.90625 0.03125
vt 0.96875 0.03125
vt 0.03125 0.09375
vt 0.09375 0.09375
vt 0.15625 0.09375
vt 0.21875 0.09375
vt 0.28125 0.09375
vt 0.34375 0.09375
vt 0.40625 0.09375
vt 0.46875 0.09375
vt 0.53125 0.09375
vt 0.59375 0.09375
vt 0.65625 0.09375
vt 0.71875 0.09375
vt 0.78125 0.09375
vt 0.84375 0.09375
vt 0.90625 0.09375
vt 0.96875 0.09375
o Body
usemtl wi_palette
v 0.2550 0.0000 -0.1367
v 0.2300 0.0000 -0.1800
v 0.2300 0.0800 -0.1800
v 0.2550 0.0800 -0.1367
f 4/6 3/6 2/6 1/6
v 0.2300 0.0000 -0.1800
v 0.2550 0.0000 -0.2233
v 0.2550 0.0800 -0.2233
v 0.2300 0.0800 -0.1800
f 8/6 7/6 6/6 5/6
v 0.2550 0.0000 -0.2233
v 0.3050 0.0000 -0.2233
v 0.3050 0.0800 -0.2233
v 0.2550 0.0800 -0.2233
f 12/6 11/6 10/6 9/6
v 0.3050 0.0000 -0.2233
v 0.3300 0.0000 -0.1800
v 0.3300 0.0800 -0.1800
v 0.3050 0.0800 -0.2233
f 16/6 15/6 14/6 13/6
v 0.3300 0.0000 -0.1800
v 0.3050 0.0000 -0.1367
v 0.3050 0.0800 -0.1367
v 0.3300 0.0800 -0.1800
f 20/6 19/6 18/6 17/6
v 0.3050 0.0000 -0.1367
v 0.2550 0.0000 -0.1367
v 0.2550 0.0800 -0.1367
v 0.3050 0.0800 -0.1367
f 24/6 23/6 22/6 21/6
v 0.3050 0.0000 -0.1367
v 0.3300 0.0000 -0.1800
v 0.3050 0.0000 -0.2233
v 0.2550 0.0000 -0.2233
v 0.2300 0.0000 -0.1800
v 0.2550 0.0000 -0.1367
f 30/6 29/6 28/6 27/6 26/6 25/6
v 0.2550 0.0800 -0.1367
v 0.2300 0.0800 -0.1800
v 0.2550 0.0800 -0.2233
v 0.3050 0.0800 -0.2233
v 0.3300 0.0800 -0.1800
v 0.3050 0.0800 -0.1367
f 36/6 35/6 34/6 33/6 32/6 31/6
v 0.2550 0.0000 0.2233
v 0.2300 0.0000 0.1800
v 0.2300 0.0800 0.1800
v 0.2550 0.0800 0.2233
f 40/6 39/6 38/6 37/6
v 0.2300 0.0000 0.1800
v 0.2550 0.0000 0.1367
v 0.2550 0.0800 0.1367
v 0.2300 0.0800 0.1800
f 44/6 43/6 42/6 41/6
v 0.2550 0.0000 0.1367
v 0.3050 0.0000 0.1367
v 0.3050 0.0800 0.1367
v 0.2550 0.0800 0.1367
f 48/6 47/6 46/6 45/6
v 0.3050 0.0000 0.1367
v 0.3300 0.0000 0.1800
v 0.3300 0.0800 0.1800
v 0.3050 0.0800 0.1367
f 52/6 51/6 50/6 49/6
v 0.3300 0.0000 0.1800
v 0.3050 0.0000 0.2233
v 0.3050 0.0800 0.2233
v 0.3300 0.0800 0.1800
f 56/6 55/6 54/6 53/6
v 0.3050 0.0000 0.2233
v 0.2550 0.0000 0.2233
v 0.2550 0.0800 0.2233
v 0.3050 0.0800 0.2233
f 60/6 59/6 58/6 57/6
v 0.3050 0.0000 0.2233
v 0.3300 0.0000 0.1800
v 0.3050 0.0000 0.1367
v 0.2550 0.0000 0.1367
v 0.2300 0.0000 0.1800
v 0.2550 0.0000 0.2233
f 66/6 65/6 64/6 63/6 62/6 61/6
v 0.2550 0.0800 0.2233
v 0.2300 0.0800 0.1800
v 0.2550 0.0800 0.1367
v 0.3050 0.0800 0.1367
v 0.3300 0.0800 0.1800
v 0.3050 0.0800 0.2233
f 72/6 71/6 70/6 69/6 68/6 67/6
v -0.3050 0.0000 -0.1367
v -0.3300 0.0000 -0.1800
v -0.3300 0.0800 -0.1800
v -0.3050 0.0800 -0.1367
f 76/6 75/6 74/6 73/6
v -0.3300 0.0000 -0.1800
v -0.3050 0.0000 -0.2233
v -0.3050 0.0800 -0.2233
v -0.3300 0.0800 -0.1800
f 80/6 79/6 78/6 77/6
v -0.3050 0.0000 -0.2233
v -0.2550 0.0000 -0.2233
v -0.2550 0.0800 -0.2233
v -0.3050 0.0800 -0.2233
f 84/6 83/6 82/6 81/6
v -0.2550 0.0000 -0.2233
v -0.2300 0.0000 -0.1800
v -0.2300 0.0800 -0.1800
v -0.2550 0.0800 -0.2233
f 88/6 87/6 86/6 85/6
v -0.2300 0.0000 -0.1800
v -0.2550 0.0000 -0.1367
v -0.2550 0.0800 -0.1367
v -0.2300 0.0800 -0.1800
f 92/6 91/6 90/6 89/6
v -0.2550 0.0000 -0.1367
v -0.3050 0.0000 -0.1367
v -0.3050 0.0800 -0.1367
v -0.2550 0.0800 -0.1367
f 96/6 95/6 94/6 93/6
v -0.2550 0.0000 -0.1367
v -0.2300 0.0000 -0.1800
v -0.2550 0.0000 -0.2233
v -0.3050 0.0000 -0.2233
v -0.3300 0.0000 -0.1800
v -0.3050 0.0000 -0.1367
f 102/6 101/6 100/6 99/6 98/6 97/6
v -0.3050 0.0800 -0.1367
v -0.3300 0.0800 -0.1800
v -0.3050 0.0800 -0.2233
v -0.2550 0.0800 -0.2233
v -0.2300 0.0800 -0.1800
v -0.2550 0.0800 -0.1367
f 108/6 107/6 106/6 105/6 104/6 103/6
v -0.3050 0.0000 0.2233
v -0.3300 0.0000 0.1800
v -0.3300 0.0800 0.1800
v -0.3050 0.0800 0.2233
f 112/6 111/6 110/6 109/6
v -0.3300 0.0000 0.1800
v -0.3050 0.0000 0.1367
v -0.3050 0.0800 0.1367
v -0.3300 0.0800 0.1800
f 116/6 115/6 114/6 113/6
v -0.3050 0.0000 0.1367
v -0.2550 0.0000 0.1367
v -0.2550 0.0800 0.1367
v -0.3050 0.0800 0.1367
f 120/6 119/6 118/6 117/6
v -0.2550 0.0000 0.1367
v -0.2300 0.0000 0.1800
v -0.2300 0.0800 0.1800
v -0.2550 0.0800 0.1367
f 124/6 123/6 122/6 121/6
v -0.2300 0.0000 0.1800
v -0.2550 0.0000 0.2233
v -0.2550 0.0800 0.2233
v -0.2300 0.0800 0.1800
f 128/6 127/6 126/6 125/6
v -0.2550 0.0000 0.2233
v -0.3050 0.0000 0.2233
v -0.3050 0.0800 0.2233
v -0.2550 0.0800 0.2233
f 132/6 131/6 130/6 129/6
v -0.2550 0.0000 0.2233
v -0.2300 0.0000 0.1800
v -0.2550 0.0000 0.1367
v -0.3050 0.0000 0.1367
v -0.3300 0.0000 0.1800
v -0.3050 0.0000 0.2233
f 138/6 137/6 136/6 135/6 134/6 133/6
v -0.3050 0.0800 0.2233
v -0.3300 0.0800 0.1800
v -0.3050 0.0800 0.1367
v -0.2550 0.0800 0.1367
v -0.2300 0.0800 0.1800
v -0.2550 0.0800 0.2233
f 144/6 143/6 142/6 141/6 140/6 139/6
v 0.3500 0.0800 0.2300
v 0.3500 0.7600 0.2300
v 0.3500 0.7600 -0.2300
v 0.3500 0.0800 -0.2300
f 148/27 147/27 146/27 145/27
v -0.3500 0.0800 -0.2300
v -0.3500 0.7600 -0.2300
v -0.3500 0.7600 0.2300
v -0.3500 0.0800 0.2300
f 152/27 151/27 150/27 149/27
v 0.3500 0.0800 -0.2300
v -0.3500 0.0800 -0.2300
v -0.3500 0.0800 0.2300
v 0.3500 0.0800 0.2300
f 156/27 155/27 154/27 153/27
v 0.3500 0.7600 0.2300
v -0.3500 0.7600 0.2300
v -0.3500 0.7600 -0.2300
v 0.3500 0.7600 -0.2300
f 160/27 159/27 158/27 157/27
v 0.3500 0.7600 -0.2300
v -0.3500 0.7600 -0.2300
v -0.3500 0.0800 -0.2300
v 0.3500 0.0800 -0.2300
f 164/27 163/27 162/27 161/27
v 0.3500 0.0800 0.2300
v -0.3500 0.0800 0.2300
v -0.3500 0.7600 0.2300
v 0.3500 0.7600 0.2300
f 168/27 167/27 166/27 165/27
v 0.3100 0.1740 0.2370
v 0.3100 0.1860 0.2370
v 0.3100 0.1860 0.2270
v 0.3100 0.1740 0.2270
f 172/6 171/6 170/6 169/6
v -0.3100 0.1740 0.2270
v -0.3100 0.1860 0.2270
v -0.3100 0.1860 0.2370
v -0.3100 0.1740 0.2370
f 176/6 175/6 174/6 173/6
v 0.3100 0.1740 0.2270
v -0.3100 0.1740 0.2270
v -0.3100 0.1740 0.2370
v 0.3100 0.1740 0.2370
f 180/6 179/6 178/6 177/6
v 0.3100 0.1860 0.2370
v -0.3100 0.1860 0.2370
v -0.3100 0.1860 0.2270
v 0.3100 0.1860 0.2270
f 184/6 183/6 182/6 181/6
v 0.3100 0.1860 0.2270
v -0.3100 0.1860 0.2270
v -0.3100 0.1740 0.2270
v 0.3100 0.1740 0.2270
f 188/6 187/6 186/6 185/6
v 0.3100 0.1740 0.2370
v -0.3100 0.1740 0.2370
v -0.3100 0.1860 0.2370
v 0.3100 0.1860 0.2370
f 192/6 191/6 190/6 189/6
v 0.1000 0.2375 0.2525
v 0.1000 0.2625 0.2525
v 0.1000 0.2625 0.2275
v 0.1000 0.2375 0.2275
f 196/7 195/7 194/7 193/7
v -0.1000 0.2375 0.2275
v -0.1000 0.2625 0.2275
v -0.1000 0.2625 0.2525
v -0.1000 0.2375 0.2525
f 200/7 199/7 198/7 197/7
v 0.1000 0.2375 0.2275
v -0.1000 0.2375 0.2275
v -0.1000 0.2375 0.2525
v 0.1000 0.2375 0.2525
f 204/7 203/7 202/7 201/7
v 0.1000 0.2625 0.2525
v -0.1000 0.2625 0.2525
v -0.1000 0.2625 0.2275
v 0.1000 0.2625 0.2275
f 208/7 207/7 206/7 205/7
v 0.1000 0.2625 0.2275
v -0.1000 0.2625 0.2275
v -0.1000 0.2375 0.2275
v 0.1000 0.2375 0.2275
f 212/7 211/7 210/7 209/7
v 0.1000 0.2375 0.2525
v -0.1000 0.2375 0.2525
v -0.1000 0.2625 0.2525
v 0.1000 0.2625 0.2525
f 216/7 215/7 214/7 213/7
v 0.3100 0.3240 0.2370
v 0.3100 0.3360 0.2370
v 0.3100 0.3360 0.2270
v 0.3100 0.3240 0.2270
f 220/6 219/6 218/6 217/6
v -0.3100 0.3240 0.2270
v -0.3100 0.3360 0.2270
v -0.3100 0.3360 0.2370
v -0.3100 0.3240 0.2370
f 224/6 223/6 222/6 221/6
v 0.3100 0.3240 0.2270
v -0.3100 0.3240 0.2270
v -0.3100 0.3240 0.2370
v 0.3100 0.3240 0.2370
f 228/6 227/6 226/6 225/6
v 0.3100 0.3360 0.2370
v -0.3100 0.3360 0.2370
v -0.3100 0.3360 0.2270
v 0.3100 0.3360 0.2270
f 232/6 231/6 230/6 229/6
v 0.3100 0.3360 0.2270
v -0.3100 0.3360 0.2270
v -0.3100 0.3240 0.2270
v 0.3100 0.3240 0.2270
f 236/6 235/6 234/6 233/6
v 0.3100 0.3240 0.2370
v -0.3100 0.3240 0.2370
v -0.3100 0.3360 0.2370
v 0.3100 0.3360 0.2370
f 240/6 239/6 238/6 237/6
v 0.1000 0.3875 0.2525
v 0.1000 0.4125 0.2525
v 0.1000 0.4125 0.2275
v 0.1000 0.3875 0.2275
f 244/7 243/7 242/7 241/7
v -0.1000 0.3875 0.2275
v -0.1000 0.4125 0.2275
v -0.1000 0.4125 0.2525
v -0.1000 0.3875 0.2525
f 248/7 247/7 246/7 245/7
v 0.1000 0.3875 0.2275
v -0.1000 0.3875 0.2275
v -0.1000 0.3875 0.2525
v 0.1000 0.3875 0.2525
f 252/7 251/7 250/7 249/7
v 0.1000 0.4125 0.2525
v -0.1000 0.4125 0.2525
v -0.1000 0.4125 0.2275
v 0.1000 0.4125 0.2275
f 256/7 255/7 254/7 253/7
v 0.1000 0.4125 0.2275
v -0.1000 0.4125 0.2275
v -0.1000 0.3875 0.2275
v 0.1000 0.3875 0.2275
f 260/7 259/7 258/7 257/7
v 0.1000 0.3875 0.2525
v -0.1000 0.3875 0.2525
v -0.1000 0.4125 0.2525
v 0.1000 0.4125 0.2525
f 264/7 263/7 262/7 261/7
v 0.3100 0.4740 0.2370
v 0.3100 0.4860 0.2370
v 0.3100 0.4860 0.2270
v 0.3100 0.4740 0.2270
f 268/6 267/6 266/6 265/6
v -0.3100 0.4740 0.2270
v -0.3100 0.4860 0.2270
v -0.3100 0.4860 0.2370
v -0.3100 0.4740 0.2370
f 272/6 271/6 270/6 269/6
v 0.3100 0.4740 0.2270
v -0.3100 0.4740 0.2270
v -0.3100 0.4740 0.2370
v 0.3100 0.4740 0.2370
f 276/6 275/6 274/6 273/6
v 0.3100 0.4860 0.2370
v -0.3100 0.4860 0.2370
v -0.3100 0.4860 0.2270
v 0.3100 0.4860 0.2270
f 280/6 279/6 278/6 277/6
v 0.3100 0.4860 0.2270
v -0.3100 0.4860 0.2270
v -0.3100 0.4740 0.2270
v 0.3100 0.4740 0.2270
f 284/6 283/6 282/6 281/6
v 0.3100 0.4740 0.2370
v -0.3100 0.4740 0.2370
v -0.3100 0.4860 0.2370
v 0.3100 0.4860 0.2370
f 288/6 287/6 286/6 285/6
v 0.1000 0.5375 0.2525
v 0.1000 0.5625 0.2525
v 0.1000 0.5625 0.2275
v 0.1000 0.5375 0.2275
f 292/7 291/7 290/7 289/7
v -0.1000 0.5375 0.2275
v -0.1000 0.5625 0.2275
v -0.1000 0.5625 0.2525
v -0.1000 0.5375 0.2525
f 296/7 295/7 294/7 293/7
v 0.1000 0.5375 0.2275
v -0.1000 0.5375 0.2275
v -0.1000 0.5375 0.2525
v 0.1000 0.5375 0.2525
f 300/7 299/7 298/7 297/7
v 0.1000 0.5625 0.2525
v -0.1000 0.5625 0.2525
v -0.1000 0.5625 0.2275
v 0.1000 0.5625 0.2275
f 304/7 303/7 302/7 301/7
v 0.1000 0.5625 0.2275
v -0.1000 0.5625 0.2275
v -0.1000 0.5375 0.2275
v 0.1000 0.5375 0.2275
f 308/7 307/7 306/7 305/7
v 0.1000 0.5375 0.2525
v -0.1000 0.5375 0.2525
v -0.1000 0.5625 0.2525
v 0.1000 0.5625 0.2525
f 312/7 311/7 310/7 309/7
v 0.3100 0.6240 0.2370
v 0.3100 0.6360 0.2370
v 0.3100 0.6360 0.2270
v 0.3100 0.6240 0.2270
f 316/6 315/6 314/6 313/6
v -0.3100 0.6240 0.2270
v -0.3100 0.6360 0.2270
v -0.3100 0.6360 0.2370
v -0.3100 0.6240 0.2370
f 320/6 319/6 318/6 317/6
v 0.3100 0.6240 0.2270
v -0.3100 0.6240 0.2270
v -0.3100 0.6240 0.2370
v 0.3100 0.6240 0.2370
f 324/6 323/6 322/6 321/6
v 0.3100 0.6360 0.2370
v -0.3100 0.6360 0.2370
v -0.3100 0.6360 0.2270
v 0.3100 0.6360 0.2270
f 328/6 327/6 326/6 325/6
v 0.3100 0.6360 0.2270
v -0.3100 0.6360 0.2270
v -0.3100 0.6240 0.2270
v 0.3100 0.6240 0.2270
f 332/6 331/6 330/6 329/6
v 0.3100 0.6240 0.2370
v -0.3100 0.6240 0.2370
v -0.3100 0.6360 0.2370
v 0.3100 0.6360 0.2370
f 336/6 335/6 334/6 333/6
v 0.1000 0.6875 0.2525
v 0.1000 0.7125 0.2525
v 0.1000 0.7125 0.2275
v 0.1000 0.6875 0.2275
f 340/7 339/7 338/7 337/7
v -0.1000 0.6875 0.2275
v -0.1000 0.7125 0.2275
v -0.1000 0.7125 0.2525
v -0.1000 0.6875 0.2525
f 344/7 343/7 342/7 341/7
v 0.1000 0.6875 0.2275
v -0.1000 0.6875 0.2275
v -0.1000 0.6875 0.2525
v 0.1000 0.6875 0.2525
f 348/7 347/7 346/7 345/7
v 0.1000 0.7125 0.2525
v -0.1000 0.7125 0.2525
v -0.1000 0.7125 0.2275
v 0.1000 0.7125 0.2275
f 352/7 351/7 350/7 349/7
v 0.1000 0.7125 0.2275
v -0.1000 0.7125 0.2275
v -0.1000 0.6875 0.2275
v 0.1000 0.6875 0.2275
f 356/7 355/7 354/7 353/7
v 0.1000 0.6875 0.2525
v -0.1000 0.6875 0.2525
v -0.1000 0.7125 0.2525
v 0.1000 0.7125 0.2525
f 360/7 359/7 358/7 357/7
v 0.3600 0.7600 0.2200
v 0.3600 0.8200 0.2200
v 0.3600 0.8200 -0.2600
v 0.3600 0.7600 -0.2600
f 364/6 363/6 362/6 361/6
v -0.3600 0.7600 -0.2600
v -0.3600 0.8200 -0.2600
v -0.3600 0.8200 0.2200
v -0.3600 0.7600 0.2200
f 368/6 367/6 366/6 365/6
v 0.3600 0.7600 -0.2600
v -0.3600 0.7600 -0.2600
v -0.3600 0.7600 0.2200
v 0.3600 0.7600 0.2200
f 372/6 371/6 370/6 369/6
v 0.3600 0.8200 0.2200
v -0.3600 0.8200 0.2200
v -0.3600 0.8200 -0.2600
v 0.3600 0.8200 -0.2600
f 376/6 375/6 374/6 373/6
v 0.3600 0.8200 -0.2600
v -0.3600 0.8200 -0.2600
v -0.3600 0.7600 -0.2600
v 0.3600 0.7600 -0.2600
f 380/6 379/6 378/6 377/6
v 0.3600 0.7600 0.2200
v -0.3600 0.7600 0.2200
v -0.3600 0.8200 0.2200
v 0.3600 0.8200 0.2200
f 384/6 383/6 382/6 381/6
v 0.2500 0.8200 0.1000
v 0.2500 0.9000 0.1000
v 0.2500 0.9000 -0.2000
v 0.2500 0.8200 -0.2000
f 388/27 387/27 386/27 385/27
v -0.2500 0.8200 -0.2000
v -0.2500 0.9000 -0.2000
v -0.2500 0.9000 0.1000
v -0.2500 0.8200 0.1000
f 392/27 391/27 390/27 389/27
v 0.2500 0.8200 -0.2000
v -0.2500 0.8200 -0.2000
v -0.2500 0.8200 0.1000
v 0.2500 0.8200 0.1000
f 396/27 395/27 394/27 393/27
v 0.2500 0.9000 0.1000
v -0.2500 0.9000 0.1000
v -0.2500 0.9000 -0.2000
v 0.2500 0.9000 -0.2000
f 400/27 399/27 398/27 397/27
v 0.2500 0.9000 -0.2000
v -0.2500 0.9000 -0.2000
v -0.2500 0.8200 -0.2000
v 0.2500 0.8200 -0.2000
f 404/27 403/27 402/27 401/27
v 0.2500 0.8200 0.1000
v -0.2500 0.8200 0.1000
v -0.2500 0.9000 0.1000
v 0.2500 0.9000 0.1000
f 408/27 407/27 406/27 405/27
v 0.1000 0.9050 -0.0350
v 0.1000 0.9350 -0.0350
v 0.1000 0.9350 -0.0650
v 0.1000 0.9050 -0.0650
f 412/7 411/7 410/7 409/7
v -0.1000 0.9050 -0.0650
v -0.1000 0.9350 -0.0650
v -0.1000 0.9350 -0.0350
v -0.1000 0.9050 -0.0350
f 416/7 415/7 414/7 413/7
v 0.1000 0.9050 -0.0650
v -0.1000 0.9050 -0.0650
v -0.1000 0.9050 -0.0350
v 0.1000 0.9050 -0.0350
f 420/7 419/7 418/7 417/7
v 0.1000 0.9350 -0.0350
v -0.1000 0.9350 -0.0350
v -0.1000 0.9350 -0.0650
v 0.1000 0.9350 -0.0650
f 424/7 423/7 422/7 421/7
v 0.1000 0.9350 -0.0650
v -0.1000 0.9350 -0.0650
v -0.1000 0.9050 -0.0650
v 0.1000 0.9050 -0.0650
f 428/7 427/7 426/7 425/7
v 0.1000 0.9050 -0.0350
v -0.1000 0.9050 -0.0350
v -0.1000 0.9350 -0.0350
v 0.1000 0.9350 -0.0350
f 432/7 431/7 430/7 429/7
v -0.3479 0.8225 0.0327
v -0.3479 0.8375 0.0327
v -0.1879 0.8375 0.1327
v -0.1879 0.8225 0.1327
f 436/7 435/7 434/7 433/7
v -0.1721 0.8225 0.1073
v -0.1721 0.8375 0.1073
v -0.3321 0.8375 0.0073
v -0.3321 0.8225 0.0073
f 440/7 439/7 438/7 437/7
v -0.1879 0.8225 0.1327
v -0.1721 0.8225 0.1073
v -0.3321 0.8225 0.0073
v -0.3479 0.8225 0.0327
f 444/7 443/7 442/7 441/7
v -0.3479 0.8375 0.0327
v -0.3321 0.8375 0.0073
v -0.1721 0.8375 0.1073
v -0.1879 0.8375 0.1327
f 448/7 447/7 446/7 445/7
v -0.1879 0.8375 0.1327
v -0.1721 0.8375 0.1073
v -0.1721 0.8225 0.1073
v -0.1879 0.8225 0.1327
f 452/7 451/7 450/7 449/7
v -0.3479 0.8225 0.0327
v -0.3321 0.8225 0.0073
v -0.3321 0.8375 0.0073
v -0.3479 0.8375 0.0327
f 456/7 455/7 454/7 453/7
v -0.3300 0.8200 0.0400
v -0.3300 0.8400 0.0400
v -0.3300 0.8400 -0.0200
v -0.3300 0.8200 -0.0200
f 460/7 459/7 458/7 457/7
v -0.3900 0.8200 -0.0200
v -0.3900 0.8400 -0.0200
v -0.3900 0.8400 0.0400
v -0.3900 0.8200 0.0400
f 464/7 463/7 462/7 461/7
v -0.3300 0.8200 -0.0200
v -0.3900 0.8200 -0.0200
v -0.3900 0.8200 0.0400
v -0.3300 0.8200 0.0400
f 468/7 467/7 466/7 465/7
v -0.3300 0.8400 0.0400
v -0.3900 0.8400 0.0400
v -0.3900 0.8400 -0.0200
v -0.3300 0.8400 -0.0200
f 472/7 471/7 470/7 469/7
v -0.3300 0.8400 -0.0200
v -0.3900 0.8400 -0.0200
v -0.3900 0.8200 -0.0200
v -0.3300 0.8200 -0.0200
f 476/7 475/7 474/7 473/7
v -0.3300 0.8200 0.0400
v -0.3900 0.8200 0.0400
v -0.3900 0.8400 0.0400
v -0.3300 0.8400 0.0400
f 480/7 479/7 478/7 477/7
v 0.4000 0.5800 0.1500
v 0.4000 0.6200 0.1500
v 0.4000 0.6200 -0.1500
v 0.4000 0.5800 -0.1500
f 484/7 483/7 482/7 481/7
v 0.3600 0.5800 -0.1500
v 0.3600 0.6200 -0.1500
v 0.3600 0.6200 0.1500
v 0.3600 0.5800 0.1500
f 488/7 487/7 486/7 485/7
v 0.4000 0.5800 -0.1500
v 0.3600 0.5800 -0.1500
v 0.3600 0.5800 0.1500
v 0.4000 0.5800 0.1500
f 492/7 491/7 490/7 489/7
v 0.4000 0.6200 0.1500
v 0.3600 0.6200 0.1500
v 0.3600 0.6200 -0.1500
v 0.4000 0.6200 -0.1500
f 496/7 495/7 494/7 493/7
v 0.4000 0.6200 -0.1500
v 0.3600 0.6200 -0.1500
v 0.3600 0.5800 -0.1500
v 0.4000 0.5800 -0.1500
f 500/7 499/7 498/7 497/7
v 0.4000 0.5800 0.1500
v 0.3600 0.5800 0.1500
v 0.3600 0.6200 0.1500
v 0.4000 0.6200 0.1500
f 504/7 503/7 502/7 501/7
