# Walk of Industry low-poly (generated, wi_lib.py)
mtllib wi.mtl
vt 0 0
vt 0.03125 0.03125
vt 0.09375 0.03125
vt 0.15625 0.03125
vt 0.21875 0.03125
vt 0.28125 0.03125
vt 0.34375 0.03125
vt 0.40625 0.03125
vt 0.46875 0.03125
vt 0.53125 0.03125
vt 0.59375 0.03125
vt 0.65625 0.03125
vt 0.71875 0.03125
vt 0.78125 0.03125
vt 0.84375 0.03125
vt 0.90625 0.03125
vt 0.96875 0.03125
vt 0.03125 0.09375
vt 0.09375 0.09375
vt 0.15625 0.09375
vt 0.21875 0.09375
vt 0.28125 0.09375
vt 0.34375 0.09375
vt 0.40625 0.09375
vt 0.46875 0.09375
vt 0.53125 0.09375
vt 0.59375 0.09375
vt 0.65625 0.09375
vt 0.71875 0.09375
vt 0.78125 0.09375
vt 0.84375 0.09375
vt 0.90625 0.09375
vt 0.96875 0.09375
o Body
usemtl wi_palette
v 0.9200 0.0000 0.2000
v 0.9200 0.0800 0.2000
v 0.9200 0.0800 -0.2000
v 0.9200 0.0000 -0.2000
f 4/11 3/11 2/11 1/11
v 0.5200 0.0000 -0.2000
v 0.5200 0.0800 -0.2000
v 0.5200 0.0800 0.2000
v 0.5200 0.0000 0.2000
f 8/11 7/11 6/11 5/11
v 0.9200 0.0000 -0.2000
v 0.5200 0.0000 -0.2000
v 0.5200 0.0000 0.2000
v 0.9200 0.0000 0.2000
f 12/11 11/11 10/11 9/11
v 0.9200 0.0800 0.2000
v 0.5200 0.0800 0.2000
v 0.5200 0.0800 -0.2000
v 0.9200 0.0800 -0.2000
f 16/11 15/11 14/11 13/11
v 0.9200 0.0800 -0.2000
v 0.5200 0.0800 -0.2000
v 0.5200 0.0000 -0.2000
v 0.9200 0.0000 -0.2000
f 20/11 19/11 18/11 17/11
v 0.9200 0.0000 0.2000
v 0.5200 0.0000 0.2000
v 0.5200 0.0800 0.2000
v 0.9200 0.0800 0.2000
f 24/11 23/11 22/11 21/11
v 0.8600 0.0800 0.1400
v 0.8600 0.9200 0.1400
v 0.8600 0.9200 -0.1400
v 0.8600 0.0800 -0.1400
f 28/8 27/8 26/8 25/8
v 0.5800 0.0800 -0.1400
v 0.5800 0.9200 -0.1400
v 0.5800 0.9200 0.1400
v 0.5800 0.0800 0.1400
f 32/8 31/8 30/8 29/8
v 0.8600 0.0800 -0.1400
v 0.5800 0.0800 -0.1400
v 0.5800 0.0800 0.1400
v 0.8600 0.0800 0.1400
f 36/8 35/8 34/8 33/8
v 0.8600 0.9200 0.1400
v 0.5800 0.9200 0.1400
v 0.5800 0.9200 -0.1400
v 0.8600 0.9200 -0.1400
f 40/8 39/8 38/8 37/8
v 0.8600 0.9200 -0.1400
v 0.5800 0.9200 -0.1400
v 0.5800 0.0800 -0.1400
v 0.8600 0.0800 -0.1400
f 44/8 43/8 42/8 41/8
v 0.8600 0.0800 0.1400
v 0.5800 0.0800 0.1400
v 0.5800 0.9200 0.1400
v 0.8600 0.9200 0.1400
f 48/8 47/8 46/8 45/8
v 0.8600 0.1000 0.1470
v 0.8600 0.2200 0.1470
v 0.8600 0.2200 0.1370
v 0.8600 0.1000 0.1370
f 52/8 51/8 50/8 49/8
v 0.5800 0.1000 0.1370
v 0.5800 0.2200 0.1370
v 0.5800 0.2200 0.1470
v 0.5800 0.1000 0.1470
f 56/8 55/8 54/8 53/8
v 0.8600 0.1000 0.1370
v 0.5800 0.1000 0.1370
v 0.5800 0.1000 0.1470
v 0.8600 0.1000 0.1470
f 60/8 59/8 58/8 57/8
v 0.8600 0.2200 0.1470
v 0.5800 0.2200 0.1470
v 0.5800 0.2200 0.1370
v 0.8600 0.2200 0.1370
f 64/8 63/8 62/8 61/8
v 0.8600 0.2200 0.1370
v 0.5800 0.2200 0.1370
v 0.5800 0.1000 0.1370
v 0.8600 0.1000 0.1370
f 68/8 67/8 66/8 65/8
v 0.8600 0.1000 0.1470
v 0.5800 0.1000 0.1470
v 0.5800 0.2200 0.1470
v 0.8600 0.2200 0.1470
f 72/8 71/8 70/8 69/8
v 0.8600 0.2200 0.1470
v 0.8600 0.3400 0.1470
v 0.8600 0.3400 0.1370
v 0.8600 0.2200 0.1370
f 76/6 75/6 74/6 73/6
v 0.5800 0.2200 0.1370
v 0.5800 0.3400 0.1370
v 0.5800 0.3400 0.1470
v 0.5800 0.2200 0.1470
f 80/6 79/6 78/6 77/6
v 0.8600 0.2200 0.1370
v 0.5800 0.2200 0.1370
v 0.5800 0.2200 0.1470
v 0.8600 0.2200 0.1470
f 84/6 83/6 82/6 81/6
v 0.8600 0.3400 0.1470
v 0.5800 0.3400 0.1470
v 0.5800 0.3400 0.1370
v 0.8600 0.3400 0.1370
f 88/6 87/6 86/6 85/6
v 0.8600 0.3400 0.1370
v 0.5800 0.3400 0.1370
v 0.5800 0.2200 0.1370
v 0.8600 0.2200 0.1370
f 92/6 91/6 90/6 89/6
v 0.8600 0.2200 0.1470
v 0.5800 0.2200 0.1470
v 0.5800 0.3400 0.1470
v 0.8600 0.3400 0.1470
f 96/6 95/6 94/6 93/6
v 0.8600 0.3400 0.1470
v 0.8600 0.4600 0.1470
v 0.8600 0.4600 0.1370
v 0.8600 0.3400 0.1370
f 100/8 99/8 98/8 97/8
v 0.5800 0.3400 0.1370
v 0.5800 0.4600 0.1370
v 0.5800 0.4600 0.1470
v 0.5800 0.3400 0.1470
f 104/8 103/8 102/8 101/8
v 0.8600 0.3400 0.1370
v 0.5800 0.3400 0.1370
v 0.5800 0.3400 0.1470
v 0.8600 0.3400 0.1470
f 108/8 107/8 106/8 105/8
v 0.8600 0.4600 0.1470
v 0.5800 0.4600 0.1470
v 0.5800 0.4600 0.1370
v 0.8600 0.4600 0.1370
f 112/8 111/8 110/8 109/8
v 0.8600 0.4600 0.1370
v 0.5800 0.4600 0.1370
v 0.5800 0.3400 0.1370
v 0.8600 0.3400 0.1370
f 116/8 115/8 114/8 113/8
v 0.8600 0.3400 0.1470
v 0.5800 0.3400 0.1470
v 0.5800 0.4600 0.1470
v 0.8600 0.4600 0.1470
f 120/8 119/8 118/8 117/8
v 0.8600 0.4600 0.1470
v 0.8600 0.5800 0.1470
v 0.8600 0.5800 0.1370
v 0.8600 0.4600 0.1370
f 124/6 123/6 122/6 121/6
v 0.5800 0.4600 0.1370
v 0.5800 0.5800 0.1370
v 0.5800 0.5800 0.1470
v 0.5800 0.4600 0.1470
f 128/6 127/6 126/6 125/6
v 0.8600 0.4600 0.1370
v 0.5800 0.4600 0.1370
v 0.5800 0.4600 0.1470
v 0.8600 0.4600 0.1470
f 132/6 131/6 130/6 129/6
v 0.8600 0.5800 0.1470
v 0.5800 0.5800 0.1470
v 0.5800 0.5800 0.1370
v 0.8600 0.5800 0.1370
f 136/6 135/6 134/6 133/6
v 0.8600 0.5800 0.1370
v 0.5800 0.5800 0.1370
v 0.5800 0.4600 0.1370
v 0.8600 0.4600 0.1370
f 140/6 139/6 138/6 137/6
v 0.8600 0.4600 0.1470
v 0.5800 0.4600 0.1470
v 0.5800 0.5800 0.1470
v 0.8600 0.5800 0.1470
f 144/6 143/6 142/6 141/6
v 0.8600 0.5800 0.1470
v 0.8600 0.7000 0.1470
v 0.8600 0.7000 0.1370
v 0.8600 0.5800 0.1370
f 148/8 147/8 146/8 145/8
v 0.5800 0.5800 0.1370
v 0.5800 0.7000 0.1370
v 0.5800 0.7000 0.1470
v 0.5800 0.5800 0.1470
f 152/8 151/8 150/8 149/8
v 0.8600 0.5800 0.1370
v 0.5800 0.5800 0.1370
v 0.5800 0.5800 0.1470
v 0.8600 0.5800 0.1470
f 156/8 155/8 154/8 153/8
v 0.8600 0.7000 0.1470
v 0.5800 0.7000 0.1470
v 0.5800 0.7000 0.1370
v 0.8600 0.7000 0.1370
f 160/8 159/8 158/8 157/8
v 0.8600 0.7000 0.1370
v 0.5800 0.7000 0.1370
v 0.5800 0.5800 0.1370
v 0.8600 0.5800 0.1370
f 164/8 163/8 162/8 161/8
v 0.8600 0.5800 0.1470
v 0.5800 0.5800 0.1470
v 0.5800 0.7000 0.1470
v 0.8600 0.7000 0.1470
f 168/8 167/8 166/8 165/8
v 0.8800 0.9300 0.1600
v 0.8800 0.9900 0.1600
v 0.8800 0.9900 -0.1600
v 0.8800 0.9300 -0.1600
f 172/6 171/6 170/6 169/6
v 0.5600 0.9300 -0.1600
v 0.5600 0.9900 -0.1600
v 0.5600 0.9900 0.1600
v 0.5600 0.9300 0.1600
f 176/6 175/6 174/6 173/6
v 0.8800 0.9300 -0.1600
v 0.5600 0.9300 -0.1600
v 0.5600 0.9300 0.1600
v 0.8800 0.9300 0.1600
f 180/6 179/6 178/6 177/6
v 0.8800 0.9900 0.1600
v 0.5600 0.9900 0.1600
v 0.5600 0.9900 -0.1600
v 0.8800 0.9900 -0.1600
f 184/6 183/6 182/6 181/6
v 0.8800 0.9900 -0.1600
v 0.5600 0.9900 -0.1600
v 0.5600 0.9300 -0.1600
v 0.8800 0.9300 -0.1600
f 188/6 187/6 186/6 185/6
v 0.8800 0.9300 0.1600
v 0.5600 0.9300 0.1600
v 0.5600 0.9900 0.1600
v 0.8800 0.9900 0.1600
f 192/6 191/6 190/6 189/6
v -0.8200 0.0000 0.2000
v -0.8200 0.7000 0.2000
v -0.8200 0.7000 0.1400
v -0.8200 0.0000 0.1400
f 196/6 195/6 194/6 193/6
v -0.8800 0.0000 0.1400
v -0.8800 0.7000 0.1400
v -0.8800 0.7000 0.2000
v -0.8800 0.0000 0.2000
f 200/6 199/6 198/6 197/6
v -0.8200 0.0000 0.1400
v -0.8800 0.0000 0.1400
v -0.8800 0.0000 0.2000
v -0.8200 0.0000 0.2000
f 204/6 203/6 202/6 201/6
v -0.8200 0.7000 0.2000
v -0.8800 0.7000 0.2000
v -0.8800 0.7000 0.1400
v -0.8200 0.7000 0.1400
f 208/6 207/6 206/6 205/6
v -0.8200 0.7000 0.1400
v -0.8800 0.7000 0.1400
v -0.8800 0.0000 0.1400
v -0.8200 0.0000 0.1400
f 212/6 211/6 210/6 209/6
v -0.8200 0.0000 0.2000
v -0.8800 0.0000 0.2000
v -0.8800 0.7000 0.2000
v -0.8200 0.7000 0.2000
f 216/6 215/6 214/6 213/6
v -0.7800 0.6950 0.2200
v -0.7800 0.7450 0.2200
v -0.7800 0.7450 0.1200
v -0.7800 0.6950 0.1200
f 220/8 219/8 218/8 217/8
v -0.9200 0.6950 0.1200
v -0.9200 0.7450 0.1200
v -0.9200 0.7450 0.2200
v -0.9200 0.6950 0.2200
f 224/8 223/8 222/8 221/8
v -0.7800 0.6950 0.1200
v -0.9200 0.6950 0.1200
v -0.9200 0.6950 0.2200
v -0.7800 0.6950 0.2200
f 228/8 227/8 226/8 225/8
v -0.7800 0.7450 0.2200
v -0.9200 0.7450 0.2200
v -0.9200 0.7450 0.1200
v -0.7800 0.7450 0.1200
f 232/8 231/8 230/8 229/8
v -0.7800 0.7450 0.1200
v -0.9200 0.7450 0.1200
v -0.9200 0.6950 0.1200
v -0.7800 0.6950 0.1200
f 236/8 235/8 234/8 233/8
v -0.7800 0.6950 0.2200
v -0.9200 0.6950 0.2200
v -0.9200 0.7450 0.2200
v -0.7800 0.7450 0.2200
f 240/8 239/8 238/8 237/8
v -0.7500 0.0000 0.2700
v -0.7500 0.0600 0.2700
v -0.7500 0.0600 0.0700
v -0.7500 0.0000 0.0700
f 244/11 243/11 242/11 241/11
v -0.9500 0.0000 0.0700
v -0.9500 0.0600 0.0700
v -0.9500 0.0600 0.2700
v -0.9500 0.0000 0.2700
f 248/11 247/11 246/11 245/11
v -0.7500 0.0000 0.0700
v -0.9500 0.0000 0.0700
v -0.9500 0.0000 0.2700
v -0.7500 0.0000 0.2700
f 252/11 251/11 250/11 249/11
v -0.7500 0.0600 0.2700
v -0.9500 0.0600 0.2700
v -0.9500 0.0600 0.0700
v -0.7500 0.0600 0.0700
f 256/11 255/11 254/11 253/11
v -0.7500 0.0600 0.0700
v -0.9500 0.0600 0.0700
v -0.9500 0.0000 0.0700
v -0.7500 0.0000 0.0700
f 260/11 259/11 258/11 257/11
v -0.7500 0.0000 0.2700
v -0.9500 0.0000 0.2700
v -0.9500 0.0600 0.2700
v -0.7500 0.0600 0.2700
f 264/11 263/11 262/11 261/11
o Lamp
usemtl wi_palette
v 0.7600 0.9900 0.0400
v 0.7600 1.0500 0.0400
v 0.7600 1.0500 -0.0400
v 0.7600 0.9900 -0.0400
f 268/18 267/18 266/18 265/18
v 0.6800 0.9900 -0.0400
v 0.6800 1.0500 -0.0400
v 0.6800 1.0500 0.0400
v 0.6800 0.9900 0.0400
f 272/18 271/18 270/18 269/18
v 0.7600 0.9900 -0.0400
v 0.6800 0.9900 -0.0400
v 0.6800 0.9900 0.0400
v 0.7600 0.9900 0.0400
f 276/18 275/18 274/18 273/18
v 0.7600 1.0500 0.0400
v 0.6800 1.0500 0.0400
v 0.6800 1.0500 -0.0400
v 0.7600 1.0500 -0.0400
f 280/18 279/18 278/18 277/18
v 0.7600 1.0500 -0.0400
v 0.6800 1.0500 -0.0400
v 0.6800 0.9900 -0.0400
v 0.7600 0.9900 -0.0400
f 284/18 283/18 282/18 281/18
v 0.7600 0.9900 0.0400
v 0.6800 0.9900 0.0400
v 0.6800 1.0500 0.0400
v 0.7600 1.0500 0.0400
f 288/18 287/18 286/18 285/18
