# Walk of Industry low-poly (generated, wi_lib.py)
mtllib wi.mtl
vt 0 0
vt 0.03125 0.03125
vt 0.09375 0.03125
vt 0.15625 0.03125
vt 0.21875 0.03125
vt 0.28125 0.03125
vt 0.34375 0.03125
vt 0.40625 0.03125
vt 0.46875 0.03125
vt 0.53125 0.03125
vt 0.59375 0.03125
vt 0.65625 0.03125
vt 0.71875 0.03125
vt 0.78125 0.03125
vt 0.84375 0.03125
vt 0.90625 0.03125
vt 0.96875 0.03125
vt 0.03125 0.09375
vt 0.09375 0.09375
vt 0.15625 0.09375
vt 0.21875 0.09375
vt 0.28125 0.09375
vt 0.34375 0.09375
vt 0.40625 0.09375
vt 0.46875 0.09375
vt 0.53125 0.09375
vt 0.59375 0.09375
vt 0.65625 0.09375
vt 0.71875 0.09375
vt 0.78125 0.09375
vt 0.84375 0.09375
vt 0.90625 0.09375
vt 0.96875 0.09375
o Body
usemtl wi_palette
v -0.0803 0.0000 0.2473
v -0.2103 0.0000 0.1528
v -0.2103 0.7200 0.1528
v -0.0803 0.7200 0.2473
f 4/6 3/6 2/6 1/6
v -0.2103 0.0000 0.1528
v -0.2600 0.0000 0.0000
v -0.2600 0.7200 0.0000
v -0.2103 0.7200 0.1528
f 8/6 7/6 6/6 5/6
v -0.2600 0.0000 0.0000
v -0.2103 0.0000 -0.1528
v -0.2103 0.7200 -0.1528
v -0.2600 0.7200 0.0000
f 12/6 11/6 10/6 9/6
v -0.2103 0.0000 -0.1528
v -0.0803 0.0000 -0.2473
v -0.0803 0.7200 -0.2473
v -0.2103 0.7200 -0.1528
f 16/6 15/6 14/6 13/6
v -0.0803 0.0000 -0.2473
v 0.0803 0.0000 -0.2473
v 0.0803 0.7200 -0.2473
v -0.0803 0.7200 -0.2473
f 20/6 19/6 18/6 17/6
v 0.0803 0.0000 -0.2473
v 0.2103 0.0000 -0.1528
v 0.2103 0.7200 -0.1528
v 0.0803 0.7200 -0.2473
f 24/6 23/6 22/6 21/6
v 0.2103 0.0000 -0.1528
v 0.2600 0.0000 -0.0000
v 0.2600 0.7200 -0.0000
v 0.2103 0.7200 -0.1528
f 28/6 27/6 26/6 25/6
v 0.2600 0.0000 -0.0000
v 0.2103 0.0000 0.1528
v 0.2103 0.7200 0.1528
v 0.2600 0.7200 -0.0000
f 32/6 31/6 30/6 29/6
v 0.2103 0.0000 0.1528
v 0.0803 0.0000 0.2473
v 0.0803 0.7200 0.2473
v 0.2103 0.7200 0.1528
f 36/6 35/6 34/6 33/6
v 0.0803 0.0000 0.2473
v -0.0803 0.0000 0.2473
v -0.0803 0.7200 0.2473
v 0.0803 0.7200 0.2473
f 40/6 39/6 38/6 37/6
v 0.0803 0.0000 0.2473
v 0.2103 0.0000 0.1528
v 0.2600 0.0000 -0.0000
v 0.2103 0.0000 -0.1528
v 0.0803 0.0000 -0.2473
v -0.0803 0.0000 -0.2473
v -0.2103 0.0000 -0.1528
v -0.2600 0.0000 0.0000
v -0.2103 0.0000 0.1528
v -0.0803 0.0000 0.2473
f 50/6 49/6 48/6 47/6 46/6 45/6 44/6 43/6 42/6 41/6
v -0.0803 0.7200 0.2473
v -0.2103 0.7200 0.1528
v -0.2600 0.7200 0.0000
v -0.2103 0.7200 -0.1528
v -0.0803 0.7200 -0.2473
v 0.0803 0.7200 -0.2473
v 0.2103 0.7200 -0.1528
v 0.2600 0.7200 -0.0000
v 0.2103 0.7200 0.1528
v 0.0803 0.7200 0.2473
f 60/6 59/6 58/6 57/6 56/6 55/6 54/6 53/6 52/6 51/6
v -0.0841 0.1200 0.2587
v -0.2201 0.1200 0.1599
v -0.2201 0.1700 0.1599
v -0.0841 0.1700 0.2587
f 64/4 63/4 62/4 61/4
v -0.2201 0.1200 0.1599
v -0.2720 0.1200 0.0000
v -0.2720 0.1700 0.0000
v -0.2201 0.1700 0.1599
f 68/4 67/4 66/4 65/4
v -0.2720 0.1200 0.0000
v -0.2201 0.1200 -0.1599
v -0.2201 0.1700 -0.1599
v -0.2720 0.1700 0.0000
f 72/4 71/4 70/4 69/4
v -0.2201 0.1200 -0.1599
v -0.0841 0.1200 -0.2587
v -0.0841 0.1700 -0.2587
v -0.2201 0.1700 -0.1599
f 76/4 75/4 74/4 73/4
v -0.0841 0.1200 -0.2587
v 0.0841 0.1200 -0.2587
v 0.0841 0.1700 -0.2587
v -0.0841 0.1700 -0.2587
f 80/4 79/4 78/4 77/4
v 0.0841 0.1200 -0.2587
v 0.2201 0.1200 -0.1599
v 0.2201 0.1700 -0.1599
v 0.0841 0.1700 -0.2587
f 84/4 83/4 82/4 81/4
v 0.2201 0.1200 -0.1599
v 0.2720 0.1200 -0.0000
v 0.2720 0.1700 -0.0000
v 0.2201 0.1700 -0.1599
f 88/4 87/4 86/4 85/4
v 0.2720 0.1200 -0.0000
v 0.2201 0.1200 0.1599
v 0.2201 0.1700 0.1599
v 0.2720 0.1700 -0.0000
f 92/4 91/4 90/4 89/4
v 0.2201 0.1200 0.1599
v 0.0841 0.1200 0.2587
v 0.0841 0.1700 0.2587
v 0.2201 0.1700 0.1599
f 96/4 95/4 94/4 93/4
v 0.0841 0.1200 0.2587
v -0.0841 0.1200 0.2587
v -0.0841 0.1700 0.2587
v 0.0841 0.1700 0.2587
f 100/4 99/4 98/4 97/4
v 0.0841 0.1200 0.2587
v 0.2201 0.1200 0.1599
v 0.2720 0.1200 -0.0000
v 0.2201 0.1200 -0.1599
v 0.0841 0.1200 -0.2587
v -0.0841 0.1200 -0.2587
v -0.2201 0.1200 -0.1599
v -0.2720 0.1200 0.0000
v -0.2201 0.1200 0.1599
v -0.0841 0.1200 0.2587
f 110/4 109/4 108/4 107/4 106/4 105/4 104/4 103/4 102/4 101/4
v -0.0841 0.1700 0.2587
v -0.2201 0.1700 0.1599
v -0.2720 0.1700 0.0000
v -0.2201 0.1700 -0.1599
v -0.0841 0.1700 -0.2587
v 0.0841 0.1700 -0.2587
v 0.2201 0.1700 -0.1599
v 0.2720 0.1700 -0.0000
v 0.2201 0.1700 0.1599
v 0.0841 0.1700 0.2587
f 120/4 119/4 118/4 117/4 116/4 115/4 114/4 113/4 112/4 111/4
v -0.0841 0.3800 0.2587
v -0.2201 0.3800 0.1599
v -0.2201 0.4300 0.1599
v -0.0841 0.4300 0.2587
f 124/4 123/4 122/4 121/4
v -0.2201 0.3800 0.1599
v -0.2720 0.3800 0.0000
v -0.2720 0.4300 0.0000
v -0.2201 0.4300 0.1599
f 128/4 127/4 126/4 125/4
v -0.2720 0.3800 0.0000
v -0.2201 0.3800 -0.1599
v -0.2201 0.4300 -0.1599
v -0.2720 0.4300 0.0000
f 132/4 131/4 130/4 129/4
v -0.2201 0.3800 -0.1599
v -0.0841 0.3800 -0.2587
v -0.0841 0.4300 -0.2587
v -0.2201 0.4300 -0.1599
f 136/4 135/4 134/4 133/4
v -0.0841 0.3800 -0.2587
v 0.0841 0.3800 -0.2587
v 0.0841 0.4300 -0.2587
v -0.0841 0.4300 -0.2587
f 140/4 139/4 138/4 137/4
v 0.0841 0.3800 -0.2587
v 0.2201 0.3800 -0.1599
v 0.2201 0.4300 -0.1599
v 0.0841 0.4300 -0.2587
f 144/4 143/4 142/4 141/4
v 0.2201 0.3800 -0.1599
v 0.2720 0.3800 -0.0000
v 0.2720 0.4300 -0.0000
v 0.2201 0.4300 -0.1599
f 148/4 147/4 146/4 145/4
v 0.2720 0.3800 -0.0000
v 0.2201 0.3800 0.1599
v 0.2201 0.4300 0.1599
v 0.2720 0.4300 -0.0000
f 152/4 151/4 150/4 149/4
v 0.2201 0.3800 0.1599
v 0.0841 0.3800 0.2587
v 0.0841 0.4300 0.2587
v 0.2201 0.4300 0.1599
f 156/4 155/4 154/4 153/4
v 0.0841 0.3800 0.2587
v -0.0841 0.3800 0.2587
v -0.0841 0.4300 0.2587
v 0.0841 0.4300 0.2587
f 160/4 159/4 158/4 157/4
v 0.0841 0.3800 0.2587
v 0.2201 0.3800 0.1599
v 0.2720 0.3800 -0.0000
v 0.2201 0.3800 -0.1599
v 0.0841 0.3800 -0.2587
v -0.0841 0.3800 -0.2587
v -0.2201 0.3800 -0.1599
v -0.2720 0.3800 0.0000
v -0.2201 0.3800 0.1599
v -0.0841 0.3800 0.2587
f 170/4 169/4 168/4 167/4 166/4 165/4 164/4 163/4 162/4 161/4
v -0.0841 0.4300 0.2587
v -0.2201 0.4300 0.1599
v -0.2720 0.4300 0.0000
v -0.2201 0.4300 -0.1599
v -0.0841 0.4300 -0.2587
v 0.0841 0.4300 -0.2587
v 0.2201 0.4300 -0.1599
v 0.2720 0.4300 -0.0000
v 0.2201 0.4300 0.1599
v 0.0841 0.4300 0.2587
f 180/4 179/4 178/4 177/4 176/4 175/4 174/4 173/4 172/4 171/4
v -0.0841 0.6400 0.2587
v -0.2201 0.6400 0.1599
v -0.2201 0.6900 0.1599
v -0.0841 0.6900 0.2587
f 184/4 183/4 182/4 181/4
v -0.2201 0.6400 0.1599
v -0.2720 0.6400 0.0000
v -0.2720 0.6900 0.0000
v -0.2201 0.6900 0.1599
f 188/4 187/4 186/4 185/4
v -0.2720 0.6400 0.0000
v -0.2201 0.6400 -0.1599
v -0.2201 0.6900 -0.1599
v -0.2720 0.6900 0.0000
f 192/4 191/4 190/4 189/4
v -0.2201 0.6400 -0.1599
v -0.0841 0.6400 -0.2587
v -0.0841 0.6900 -0.2587
v -0.2201 0.6900 -0.1599
f 196/4 195/4 194/4 193/4
v -0.0841 0.6400 -0.2587
v 0.0841 0.6400 -0.2587
v 0.0841 0.6900 -0.2587
v -0.0841 0.6900 -0.2587
f 200/4 199/4 198/4 197/4
v 0.0841 0.6400 -0.2587
v 0.2201 0.6400 -0.1599
v 0.2201 0.6900 -0.1599
v 0.0841 0.6900 -0.2587
f 204/4 203/4 202/4 201/4
v 0.2201 0.6400 -0.1599
v 0.2720 0.6400 -0.0000
v 0.2720 0.6900 -0.0000
v 0.2201 0.6900 -0.1599
f 208/4 207/4 206/4 205/4
v 0.2720 0.6400 -0.0000
v 0.2201 0.6400 0.1599
v 0.2201 0.6900 0.1599
v 0.2720 0.6900 -0.0000
f 212/4 211/4 210/4 209/4
v 0.2201 0.6400 0.1599
v 0.0841 0.6400 0.2587
v 0.0841 0.6900 0.2587
v 0.2201 0.6900 0.1599
f 216/4 215/4 214/4 213/4
v 0.0841 0.6400 0.2587
v -0.0841 0.6400 0.2587
v -0.0841 0.6900 0.2587
v 0.0841 0.6900 0.2587
f 220/4 219/4 218/4 217/4
v 0.0841 0.6400 0.2587
v 0.2201 0.6400 0.1599
v 0.2720 0.6400 -0.0000
v 0.2201 0.6400 -0.1599
v 0.0841 0.6400 -0.2587
v -0.0841 0.6400 -0.2587
v -0.2201 0.6400 -0.1599
v -0.2720 0.6400 0.0000
v -0.2201 0.6400 0.1599
v -0.0841 0.6400 0.2587
f 230/4 229/4 228/4 227/4 226/4 225/4 224/4 223/4 222/4 221/4
v -0.0841 0.6900 0.2587
v -0.2201 0.6900 0.1599
v -0.2720 0.6900 0.0000
v -0.2201 0.6900 -0.1599
v -0.0841 0.6900 -0.2587
v 0.0841 0.6900 -0.2587
v 0.2201 0.6900 -0.1599
v 0.2720 0.6900 -0.0000
v 0.2201 0.6900 0.1599
v 0.0841 0.6900 0.2587
f 240/4 239/4 238/4 237/4 236/4 235/4 234/4 233/4 232/4 231/4
v -0.2470 0.2100 0.0300
v -0.2470 0.2900 0.0300
v -0.2470 0.2900 -0.0300
v -0.2470 0.2100 -0.0300
f 244/17 243/17 242/17 241/17
v -0.2770 0.2100 -0.0300
v -0.2770 0.2900 -0.0300
v -0.2770 0.2900 0.0300
v -0.2770 0.2100 0.0300
f 248/17 247/17 246/17 245/17
v -0.2470 0.2100 -0.0300
v -0.2770 0.2100 -0.0300
v -0.2770 0.2100 0.0300
v -0.2470 0.2100 0.0300
f 252/17 251/17 250/17 249/17
v -0.2470 0.2900 0.0300
v -0.2770 0.2900 0.0300
v -0.2770 0.2900 -0.0300
v -0.2470 0.2900 -0.0300
f 256/17 255/17 254/17 253/17
v -0.2470 0.2900 -0.0300
v -0.2770 0.2900 -0.0300
v -0.2770 0.2100 -0.0300
v -0.2470 0.2100 -0.0300
f 260/17 259/17 258/17 257/17
v -0.2470 0.2100 0.0300
v -0.2770 0.2100 0.0300
v -0.2770 0.2900 0.0300
v -0.2470 0.2900 0.0300
f 264/17 263/17 262/17 261/17
v -0.0975 0.2100 0.2289
v -0.0975 0.2900 0.2289
v -0.1495 0.2900 0.1989
v -0.1495 0.2100 0.1989
f 268/17 267/17 266/17 265/17
v -0.1645 0.2100 0.2249
v -0.1645 0.2900 0.2249
v -0.1125 0.2900 0.2549
v -0.1125 0.2100 0.2549
f 272/17 271/17 270/17 269/17
v -0.1495 0.2100 0.1989
v -0.1645 0.2100 0.2249
v -0.1125 0.2100 0.2549
v -0.0975 0.2100 0.2289
f 276/17 275/17 274/17 273/17
v -0.0975 0.2900 0.2289
v -0.1125 0.2900 0.2549
v -0.1645 0.2900 0.2249
v -0.1495 0.2900 0.1989
f 280/17 279/17 278/17 277/17
v -0.1495 0.2900 0.1989
v -0.1645 0.2900 0.2249
v -0.1645 0.2100 0.2249
v -0.1495 0.2100 0.1989
f 284/17 283/17 282/17 281/17
v -0.0975 0.2100 0.2289
v -0.1125 0.2100 0.2549
v -0.1125 0.2900 0.2549
v -0.0975 0.2900 0.2289
f 288/17 287/17 286/17 285/17
v 0.1495 0.2100 0.1989
v 0.1495 0.2900 0.1989
v 0.0975 0.2900 0.2289
v 0.0975 0.2100 0.2289
f 292/17 291/17 290/17 289/17
v 0.1125 0.2100 0.2549
v 0.1125 0.2900 0.2549
v 0.1645 0.2900 0.2249
v 0.1645 0.2100 0.2249
f 296/17 295/17 294/17 293/17
v 0.0975 0.2100 0.2289
v 0.1125 0.2100 0.2549
v 0.1645 0.2100 0.2249
v 0.1495 0.2100 0.1989
f 300/17 299/17 298/17 297/17
v 0.1495 0.2900 0.1989
v 0.1645 0.2900 0.2249
v 0.1125 0.2900 0.2549
v 0.0975 0.2900 0.2289
f 304/17 303/17 302/17 301/17
v 0.0975 0.2900 0.2289
v 0.1125 0.2900 0.2549
v 0.1125 0.2100 0.2549
v 0.0975 0.2100 0.2289
f 308/17 307/17 306/17 305/17
v 0.1495 0.2100 0.1989
v 0.1645 0.2100 0.2249
v 0.1645 0.2900 0.2249
v 0.1495 0.2900 0.1989
f 312/17 311/17 310/17 309/17
v 0.2470 0.2100 -0.0300
v 0.2470 0.2900 -0.0300
v 0.2470 0.2900 0.0300
v 0.2470 0.2100 0.0300
f 316/17 315/17 314/17 313/17
v 0.2770 0.2100 0.0300
v 0.2770 0.2900 0.0300
v 0.2770 0.2900 -0.0300
v 0.2770 0.2100 -0.0300
f 320/17 319/17 318/17 317/17
v 0.2470 0.2100 0.0300
v 0.2770 0.2100 0.0300
v 0.2770 0.2100 -0.0300
v 0.2470 0.2100 -0.0300
f 324/17 323/17 322/17 321/17
v 0.2470 0.2900 -0.0300
v 0.2770 0.2900 -0.0300
v 0.2770 0.2900 0.0300
v 0.2470 0.2900 0.0300
f 328/17 327/17 326/17 325/17
v 0.2470 0.2900 0.0300
v 0.2770 0.2900 0.0300
v 0.2770 0.2100 0.0300
v 0.2470 0.2100 0.0300
f 332/17 331/17 330/17 329/17
v 0.2470 0.2100 -0.0300
v 0.2770 0.2100 -0.0300
v 0.2770 0.2900 -0.0300
v 0.2470 0.2900 -0.0300
f 336/17 335/17 334/17 333/17
v 0.0975 0.2100 -0.2289
v 0.0975 0.2900 -0.2289
v 0.1495 0.2900 -0.1989
v 0.1495 0.2100 -0.1989
f 340/17 339/17 338/17 337/17
v 0.1645 0.2100 -0.2249
v 0.1645 0.2900 -0.2249
v 0.1125 0.2900 -0.2549
v 0.1125 0.2100 -0.2549
f 344/17 343/17 342/17 341/17
v 0.1495 0.2100 -0.1989
v 0.1645 0.2100 -0.2249
v 0.1125 0.2100 -0.2549
v 0.0975 0.2100 -0.2289
f 348/17 347/17 346/17 345/17
v 0.0975 0.2900 -0.2289
v 0.1125 0.2900 -0.2549
v 0.1645 0.2900 -0.2249
v 0.1495 0.2900 -0.1989
f 352/17 351/17 350/17 349/17
v 0.1495 0.2900 -0.1989
v 0.1645 0.2900 -0.2249
v 0.1645 0.2100 -0.2249
v 0.1495 0.2100 -0.1989
f 356/17 355/17 354/17 353/17
v 0.0975 0.2100 -0.2289
v 0.1125 0.2100 -0.2549
v 0.1125 0.2900 -0.2549
v 0.0975 0.2900 -0.2289
f 360/17 359/17 358/17 357/17
v -0.1495 0.2100 -0.1989
v -0.1495 0.2900 -0.1989
v -0.0975 0.2900 -0.2289
v -0.0975 0.2100 -0.2289
f 364/17 363/17 362/17 361/17
v -0.1125 0.2100 -0.2549
v -0.1125 0.2900 -0.2549
v -0.1645 0.2900 -0.2249
v -0.1645 0.2100 -0.2249
f 368/17 367/17 366/17 365/17
v -0.0975 0.2100 -0.2289
v -0.1125 0.2100 -0.2549
v -0.1645 0.2100 -0.2249
v -0.1495 0.2100 -0.1989
f 372/17 371/17 370/17 369/17
v -0.1495 0.2900 -0.1989
v -0.1645 0.2900 -0.2249
v -0.1125 0.2900 -0.2549
v -0.0975 0.2900 -0.2289
f 376/17 375/17 374/17 373/17
v -0.0975 0.2900 -0.2289
v -0.1125 0.2900 -0.2549
v -0.1125 0.2100 -0.2549
v -0.0975 0.2100 -0.2289
f 380/17 379/17 378/17 377/17
v -0.1495 0.2100 -0.1989
v -0.1645 0.2100 -0.2249
v -0.1645 0.2900 -0.2249
v -0.1495 0.2900 -0.1989
f 384/17 383/17 382/17 381/17
v -0.0711 0.6600 0.2187
v -0.1861 0.6600 0.1352
v -0.1861 0.7000 0.1352
v -0.0711 0.7000 0.2187
f 388/5 387/5 386/5 385/5
v -0.1861 0.6600 0.1352
v -0.2300 0.6600 0.0000
v -0.2300 0.7000 0.0000
v -0.1861 0.7000 0.1352
f 392/5 391/5 390/5 389/5
v -0.2300 0.6600 0.0000
v -0.1861 0.6600 -0.1352
v -0.1861 0.7000 -0.1352
v -0.2300 0.7000 0.0000
f 396/5 395/5 394/5 393/5
v -0.1861 0.6600 -0.1352
v -0.0711 0.6600 -0.2187
v -0.0711 0.7000 -0.2187
v -0.1861 0.7000 -0.1352
f 400/5 399/5 398/5 397/5
v -0.0711 0.6600 -0.2187
v 0.0711 0.6600 -0.2187
v 0.0711 0.7000 -0.2187
v -0.0711 0.7000 -0.2187
f 404/5 403/5 402/5 401/5
v 0.0711 0.6600 -0.2187
v 0.1861 0.6600 -0.1352
v 0.1861 0.7000 -0.1352
v 0.0711 0.7000 -0.2187
f 408/5 407/5 406/5 405/5
v 0.1861 0.6600 -0.1352
v 0.2300 0.6600 -0.0000
v 0.2300 0.7000 -0.0000
v 0.1861 0.7000 -0.1352
f 412/5 411/5 410/5 409/5
v 0.2300 0.6600 -0.0000
v 0.1861 0.6600 0.1352
v 0.1861 0.7000 0.1352
v 0.2300 0.7000 -0.0000
f 416/5 415/5 414/5 413/5
v 0.1861 0.6600 0.1352
v 0.0711 0.6600 0.2187
v 0.0711 0.7000 0.2187
v 0.1861 0.7000 0.1352
f 420/5 419/5 418/5 417/5
v 0.0711 0.6600 0.2187
v -0.0711 0.6600 0.2187
v -0.0711 0.7000 0.2187
v 0.0711 0.7000 0.2187
f 424/5 423/5 422/5 421/5
v 0.0711 0.6600 0.2187
v 0.1861 0.6600 0.1352
v 0.2300 0.6600 -0.0000
v 0.1861 0.6600 -0.1352
v 0.0711 0.6600 -0.2187
v -0.0711 0.6600 -0.2187
v -0.1861 0.6600 -0.1352
v -0.2300 0.6600 0.0000
v -0.1861 0.6600 0.1352
v -0.0711 0.6600 0.2187
f 434/5 433/5 432/5 431/5 430/5 429/5 428/5 427/5 426/5 425/5
v -0.0711 0.7000 0.2187
v -0.1861 0.7000 0.1352
v -0.2300 0.7000 0.0000
v -0.1861 0.7000 -0.1352
v -0.0711 0.7000 -0.2187
v 0.0711 0.7000 -0.2187
v 0.1861 0.7000 -0.1352
v 0.2300 0.7000 -0.0000
v 0.1861 0.7000 0.1352
v 0.0711 0.7000 0.2187
f 444/5 443/5 442/5 441/5 440/5 439/5 438/5 437/5 436/5 435/5
v 0.1073 0.7560 -0.0725
v 0.0943 0.8040 -0.0670
v -0.1544 0.7240 0.0382
v -0.1414 0.6760 0.0326
f 448/22 447/22 446/22 445/22
v -0.1219 0.6760 0.0787
v -0.1350 0.7240 0.0842
v 0.1137 0.8040 -0.0209
v 0.1268 0.7560 -0.0265
f 452/22 451/22 450/22 449/22
v -0.1414 0.6760 0.0326
v -0.1219 0.6760 0.0787
v 0.1268 0.7560 -0.0265
v 0.1073 0.7560 -0.0725
f 456/22 455/22 454/22 453/22
v 0.0943 0.8040 -0.0670
v 0.1137 0.8040 -0.0209
v -0.1350 0.7240 0.0842
v -0.1544 0.7240 0.0382
f 460/22 459/22 458/22 457/22
v -0.1544 0.7240 0.0382
v -0.1350 0.7240 0.0842
v -0.1219 0.6760 0.0787
v -0.1414 0.6760 0.0326
f 464/22 463/22 462/22 461/22
v 0.1073 0.7560 -0.0725
v 0.1268 0.7560 -0.0265
v 0.1137 0.8040 -0.0209
v 0.0943 0.8040 -0.0670
f 468/22 467/22 466/22 465/22
v -0.0725 0.7560 -0.1073
v -0.0670 0.8040 -0.0943
v 0.0382 0.7240 0.1544
v 0.0326 0.6760 0.1414
f 472/22 471/22 470/22 469/22
v 0.0787 0.6760 0.1219
v 0.0842 0.7240 0.1350
v -0.0209 0.8040 -0.1137
v -0.0265 0.7560 -0.1268
f 476/22 475/22 474/22 473/22
v 0.0326 0.6760 0.1414
v 0.0787 0.6760 0.1219
v -0.0265 0.7560 -0.1268
v -0.0725 0.7560 -0.1073
f 480/22 479/22 478/22 477/22
v -0.0670 0.8040 -0.0943
v -0.0209 0.8040 -0.1137
v 0.0842 0.7240 0.1350
v 0.0382 0.7240 0.1544
f 484/22 483/22 482/22 481/22
v 0.0382 0.7240 0.1544
v 0.0842 0.7240 0.1350
v 0.0787 0.6760 0.1219
v 0.0326 0.6760 0.1414
f 488/22 487/22 486/22 485/22
v -0.0725 0.7560 -0.1073
v -0.0265 0.7560 -0.1268
v -0.0209 0.8040 -0.1137
v -0.0670 0.8040 -0.0943
f 492/22 491/22 490/22 489/22
v -0.1073 0.7560 0.0725
v -0.0943 0.8040 0.0670
v 0.1544 0.7240 -0.0382
v 0.1414 0.6760 -0.0326
f 496/22 495/22 494/22 493/22
v 0.1219 0.6760 -0.0787
v 0.1350 0.7240 -0.0842
v -0.1137 0.8040 0.0209
v -0.1268 0.7560 0.0265
f 500/22 499/22 498/22 497/22
v 0.1414 0.6760 -0.0326
v 0.1219 0.6760 -0.0787
v -0.1268 0.7560 0.0265
v -0.1073 0.7560 0.0725
f 504/22 503/22 502/22 501/22
v -0.0943 0.8040 0.0670
v -0.1137 0.8040 0.0209
v 0.1350 0.7240 -0.0842
v 0.1544 0.7240 -0.0382
f 508/22 507/22 506/22 505/22
v 0.1544 0.7240 -0.0382
v 0.1350 0.7240 -0.0842
v 0.1219 0.6760 -0.0787
v 0.1414 0.6760 -0.0326
f 512/22 511/22 510/22 509/22
v -0.1073 0.7560 0.0725
v -0.1268 0.7560 0.0265
v -0.1137 0.8040 0.0209
v -0.0943 0.8040 0.0670
f 516/22 515/22 514/22 513/22
v 0.0725 0.7560 0.1073
v 0.0670 0.8040 0.0943
v -0.0382 0.7240 -0.1544
v -0.0326 0.6760 -0.1414
f 520/22 519/22 518/22 517/22
v -0.0787 0.6760 -0.1219
v -0.0842 0.7240 -0.1350
v 0.0209 0.8040 0.1137
v 0.0265 0.7560 0.1268
f 524/22 523/22 522/22 521/22
v -0.0326 0.6760 -0.1414
v -0.0787 0.6760 -0.1219
v 0.0265 0.7560 0.1268
v 0.0725 0.7560 0.1073
f 528/22 527/22 526/22 525/22
v 0.0670 0.8040 0.0943
v 0.0209 0.8040 0.1137
v -0.0842 0.7240 -0.1350
v -0.0382 0.7240 -0.1544
f 532/22 531/22 530/22 529/22
v -0.0382 0.7240 -0.1544
v -0.0842 0.7240 -0.1350
v -0.0787 0.6760 -0.1219
v -0.0326 0.6760 -0.1414
f 536/22 535/22 534/22 533/22
v 0.0725 0.7560 0.1073
v 0.0265 0.7560 0.1268
v 0.0209 0.8040 0.1137
v 0.0670 0.8040 0.0943
f 540/22 539/22 538/22 537/22
