# Walk of Industry low-poly (generated, wi_lib.py)
mtllib wi.mtl
vt 0 0
vt 0.03125 0.03125
vt 0.09375 0.03125
vt 0.15625 0.03125
vt 0.21875 0.03125
vt 0.28125 0.03125
vt 0.34375 0.03125
vt 0.40625 0.03125
vt 0.46875 0.03125
vt 0.53125 0.03125
vt 0.59375 0.03125
vt 0.65625 0.03125
vt 0.71875 0.03125
vt 0.78125 0.03125
vt 0.84375 0.03125
vt 0.90625 0.03125
vt 0.96875 0.03125
vt 0.03125 0.09375
vt 0.09375 0.09375
vt 0.15625 0.09375
vt 0.21875 0.09375
vt 0.28125 0.09375
vt 0.34375 0.09375
vt 0.40625 0.09375
vt 0.46875 0.09375
vt 0.53125 0.09375
vt 0.59375 0.09375
vt 0.65625 0.09375
vt 0.71875 0.09375
vt 0.78125 0.09375
vt 0.84375 0.09375
vt 0.90625 0.09375
vt 0.96875 0.09375
o Body
usemtl wi_palette
v 0.2800 0.0000 0.2800
v 0.2800 0.5000 0.2800
v 0.2800 0.5000 -0.2800
v 0.2800 0.0000 -0.2800
f 4/11 3/11 2/11 1/11
v -0.2800 0.0000 -0.2800
v -0.2800 0.5000 -0.2800
v -0.2800 0.5000 0.2800
v -0.2800 0.0000 0.2800
f 8/11 7/11 6/11 5/11
v 0.2800 0.0000 -0.2800
v -0.2800 0.0000 -0.2800
v -0.2800 0.0000 0.2800
v 0.2800 0.0000 0.2800
f 12/11 11/11 10/11 9/11
v 0.2800 0.5000 0.2800
v -0.2800 0.5000 0.2800
v -0.2800 0.5000 -0.2800
v 0.2800 0.5000 -0.2800
f 16/11 15/11 14/11 13/11
v 0.2800 0.5000 -0.2800
v -0.2800 0.5000 -0.2800
v -0.2800 0.0000 -0.2800
v 0.2800 0.0000 -0.2800
f 20/11 19/11 18/11 17/11
v 0.2800 0.0000 0.2800
v -0.2800 0.0000 0.2800
v -0.2800 0.5000 0.2800
v 0.2800 0.5000 0.2800
f 24/11 23/11 22/11 21/11
v 0.3100 0.4950 0.3100
v 0.3100 0.5450 0.3100
v 0.3100 0.5450 -0.3100
v 0.3100 0.4950 -0.3100
f 28/6 27/6 26/6 25/6
v -0.3100 0.4950 -0.3100
v -0.3100 0.5450 -0.3100
v -0.3100 0.5450 0.3100
v -0.3100 0.4950 0.3100
f 32/6 31/6 30/6 29/6
v 0.3100 0.4950 -0.3100
v -0.3100 0.4950 -0.3100
v -0.3100 0.4950 0.3100
v 0.3100 0.4950 0.3100
f 36/6 35/6 34/6 33/6
v 0.3100 0.5450 0.3100
v -0.3100 0.5450 0.3100
v -0.3100 0.5450 -0.3100
v 0.3100 0.5450 -0.3100
f 40/6 39/6 38/6 37/6
v 0.3100 0.5450 -0.3100
v -0.3100 0.5450 -0.3100
v -0.3100 0.4950 -0.3100
v 0.3100 0.4950 -0.3100
f 44/6 43/6 42/6 41/6
v 0.3100 0.4950 0.3100
v -0.3100 0.4950 0.3100
v -0.3100 0.5450 0.3100
v 0.3100 0.5450 0.3100
f 48/6 47/6 46/6 45/6
v 0.1800 0.2300 0.2870
v 0.1800 0.3700 0.2870
v 0.1800 0.3700 0.2770
v 0.1800 0.2300 0.2770
f 52/23 51/23 50/23 49/23
v -0.1800 0.2300 0.2770
v -0.1800 0.3700 0.2770
v -0.1800 0.3700 0.2870
v -0.1800 0.2300 0.2870
f 56/23 55/23 54/23 53/23
v 0.1800 0.2300 0.2770
v -0.1800 0.2300 0.2770
v -0.1800 0.2300 0.2870
v 0.1800 0.2300 0.2870
f 60/23 59/23 58/23 57/23
v 0.1800 0.3700 0.2870
v -0.1800 0.3700 0.2870
v -0.1800 0.3700 0.2770
v 0.1800 0.3700 0.2770
f 64/23 63/23 62/23 61/23
v 0.1800 0.3700 0.2770
v -0.1800 0.3700 0.2770
v -0.1800 0.2300 0.2770
v 0.1800 0.2300 0.2770
f 68/23 67/23 66/23 65/23
v 0.1800 0.2300 0.2870
v -0.1800 0.2300 0.2870
v -0.1800 0.3700 0.2870
v 0.1800 0.3700 0.2870
f 72/23 71/23 70/23 69/23
v 0.1500 0.5500 0.1500
v 0.1500 0.6500 0.1500
v 0.1500 0.6500 -0.1500
v 0.1500 0.5500 -0.1500
f 76/6 75/6 74/6 73/6
v -0.1500 0.5500 -0.1500
v -0.1500 0.6500 -0.1500
v -0.1500 0.6500 0.1500
v -0.1500 0.5500 0.1500
f 80/6 79/6 78/6 77/6
v 0.1500 0.5500 -0.1500
v -0.1500 0.5500 -0.1500
v -0.1500 0.5500 0.1500
v 0.1500 0.5500 0.1500
f 84/6 83/6 82/6 81/6
v 0.1500 0.6500 0.1500
v -0.1500 0.6500 0.1500
v -0.1500 0.6500 -0.1500
v 0.1500 0.6500 -0.1500
f 88/6 87/6 86/6 85/6
v 0.1500 0.6500 -0.1500
v -0.1500 0.6500 -0.1500
v -0.1500 0.5500 -0.1500
v 0.1500 0.5500 -0.1500
f 92/6 91/6 90/6 89/6
v 0.1500 0.5500 0.1500
v -0.1500 0.5500 0.1500
v -0.1500 0.6500 0.1500
v 0.1500 0.6500 0.1500
f 96/6 95/6 94/6 93/6
v -0.0371 0.6500 0.1141
v -0.0971 0.6500 0.0705
v -0.0971 0.7000 0.0705
v -0.0371 0.7000 0.1141
f 100/23 99/23 98/23 97/23
v -0.0971 0.6500 0.0705
v -0.1200 0.6500 0.0000
v -0.1200 0.7000 0.0000
v -0.0971 0.7000 0.0705
f 104/23 103/23 102/23 101/23
v -0.1200 0.6500 0.0000
v -0.0971 0.6500 -0.0705
v -0.0971 0.7000 -0.0705
v -0.1200 0.7000 0.0000
f 108/23 107/23 106/23 105/23
v -0.0971 0.6500 -0.0705
v -0.0371 0.6500 -0.1141
v -0.0371 0.7000 -0.1141
v -0.0971 0.7000 -0.0705
f 112/23 111/23 110/23 109/23
v -0.0371 0.6500 -0.1141
v 0.0371 0.6500 -0.1141
v 0.0371 0.7000 -0.1141
v -0.0371 0.7000 -0.1141
f 116/23 115/23 114/23 113/23
v 0.0371 0.6500 -0.1141
v 0.0971 0.6500 -0.0705
v 0.0971 0.7000 -0.0705
v 0.0371 0.7000 -0.1141
f 120/23 119/23 118/23 117/23
v 0.0971 0.6500 -0.0705
v 0.1200 0.6500 -0.0000
v 0.1200 0.7000 -0.0000
v 0.0971 0.7000 -0.0705
f 124/23 123/23 122/23 121/23
v 0.1200 0.6500 -0.0000
v 0.0971 0.6500 0.0705
v 0.0971 0.7000 0.0705
v 0.1200 0.7000 -0.0000
f 128/23 127/23 126/23 125/23
v 0.0971 0.6500 0.0705
v 0.0371 0.6500 0.1141
v 0.0371 0.7000 0.1141
v 0.0971 0.7000 0.0705
f 132/23 131/23 130/23 129/23
v 0.0371 0.6500 0.1141
v -0.0371 0.6500 0.1141
v -0.0371 0.7000 0.1141
v 0.0371 0.7000 0.1141
f 136/23 135/23 134/23 133/23
v 0.0371 0.6500 0.1141
v 0.0971 0.6500 0.0705
v 0.1200 0.6500 -0.0000
v 0.0971 0.6500 -0.0705
v 0.0371 0.6500 -0.1141
v -0.0371 0.6500 -0.1141
v -0.0971 0.6500 -0.0705
v -0.1200 0.6500 0.0000
v -0.0971 0.6500 0.0705
v -0.0371 0.6500 0.1141
f 146/23 145/23 144/23 143/23 142/23 141/23 140/23 139/23 138/23 137/23
v -0.0371 0.7000 0.1141
v -0.0971 0.7000 0.0705
v -0.1200 0.7000 0.0000
v -0.0971 0.7000 -0.0705
v -0.0371 0.7000 -0.1141
v 0.0371 0.7000 -0.1141
v 0.0971 0.7000 -0.0705
v 0.1200 0.7000 -0.0000
v 0.0971 0.7000 0.0705
v 0.0371 0.7000 0.1141
f 156/23 155/23 154/23 153/23 152/23 151/23 150/23 149/23 148/23 147/23
v -0.0153 0.7000 0.0370
v -0.0370 0.7000 0.0153
v -0.0370 0.9200 0.0153
v -0.0153 0.9200 0.0370
f 160/23 159/23 158/23 157/23
v -0.0370 0.7000 0.0153
v -0.0370 0.7000 -0.0153
v -0.0370 0.9200 -0.0153
v -0.0370 0.9200 0.0153
f 164/23 163/23 162/23 161/23
v -0.0370 0.7000 -0.0153
v -0.0153 0.7000 -0.0370
v -0.0153 0.9200 -0.0370
v -0.0370 0.9200 -0.0153
f 168/23 167/23 166/23 165/23
v -0.0153 0.7000 -0.0370
v 0.0153 0.7000 -0.0370
v 0.0153 0.9200 -0.0370
v -0.0153 0.9200 -0.0370
f 172/23 171/23 170/23 169/23
v 0.0153 0.7000 -0.0370
v 0.0370 0.7000 -0.0153
v 0.0370 0.9200 -0.0153
v 0.0153 0.9200 -0.0370
f 176/23 175/23 174/23 173/23
v 0.0370 0.7000 -0.0153
v 0.0370 0.7000 0.0153
v 0.0370 0.9200 0.0153
v 0.0370 0.9200 -0.0153
f 180/23 179/23 178/23 177/23
v 0.0370 0.7000 0.0153
v 0.0153 0.7000 0.0370
v 0.0153 0.9200 0.0370
v 0.0370 0.9200 0.0153
f 184/23 183/23 182/23 181/23
v 0.0153 0.7000 0.0370
v -0.0153 0.7000 0.0370
v -0.0153 0.9200 0.0370
v 0.0153 0.9200 0.0370
f 188/23 187/23 186/23 185/23
v 0.0153 0.7000 0.0370
v 0.0370 0.7000 0.0153
v 0.0370 0.7000 -0.0153
v 0.0153 0.7000 -0.0370
v -0.0153 0.7000 -0.0370
v -0.0370 0.7000 -0.0153
v -0.0370 0.7000 0.0153
v -0.0153 0.7000 0.0370
f 196/23 195/23 194/23 193/23 192/23 191/23 190/23 189/23
v -0.0153 0.9200 0.0370
v -0.0370 0.9200 0.0153
v -0.0370 0.9200 -0.0153
v -0.0153 0.9200 -0.0370
v 0.0153 0.9200 -0.0370
v 0.0370 0.9200 -0.0153
v 0.0370 0.9200 0.0153
v 0.0153 0.9200 0.0370
f 204/23 203/23 202/23 201/23 200/23 199/23 198/23 197/23
v -0.0216 0.9000 0.0666
v -0.0566 0.9000 0.0411
v -0.1618 1.0000 0.1176
v -0.0618 1.0000 0.1902
f 208/23 207/23 206/23 205/23
v -0.0566 0.9000 0.0411
v -0.0700 0.9000 0.0000
v -0.2000 1.0000 0.0000
v -0.1618 1.0000 0.1176
f 212/23 211/23 210/23 209/23
v -0.0700 0.9000 0.0000
v -0.0566 0.9000 -0.0411
v -0.1618 1.0000 -0.1176
v -0.2000 1.0000 0.0000
f 216/23 215/23 214/23 213/23
v -0.0566 0.9000 -0.0411
v -0.0216 0.9000 -0.0666
v -0.0618 1.0000 -0.1902
v -0.1618 1.0000 -0.1176
f 220/23 219/23 218/23 217/23
v -0.0216 0.9000 -0.0666
v 0.0216 0.9000 -0.0666
v 0.0618 1.0000 -0.1902
v -0.0618 1.0000 -0.1902
f 224/23 223/23 222/23 221/23
v 0.0216 0.9000 -0.0666
v 0.0566 0.9000 -0.0411
v 0.1618 1.0000 -0.1176
v 0.0618 1.0000 -0.1902
f 228/23 227/23 226/23 225/23
v 0.0566 0.9000 -0.0411
v 0.0700 0.9000 -0.0000
v 0.2000 1.0000 -0.0000
v 0.1618 1.0000 -0.1176
f 232/23 231/23 230/23 229/23
v 0.0700 0.9000 -0.0000
v 0.0566 0.9000 0.0411
v 0.1618 1.0000 0.1176
v 0.2000 1.0000 -0.0000
f 236/23 235/23 234/23 233/23
v 0.0566 0.9000 0.0411
v 0.0216 0.9000 0.0666
v 0.0618 1.0000 0.1902
v 0.1618 1.0000 0.1176
f 240/23 239/23 238/23 237/23
v 0.0216 0.9000 0.0666
v -0.0216 0.9000 0.0666
v -0.0618 1.0000 0.1902
v 0.0618 1.0000 0.1902
f 244/23 243/23 242/23 241/23
v 0.0216 0.9000 0.0666
v 0.0566 0.9000 0.0411
v 0.0700 0.9000 -0.0000
v 0.0566 0.9000 -0.0411
v 0.0216 0.9000 -0.0666
v -0.0216 0.9000 -0.0666
v -0.0566 0.9000 -0.0411
v -0.0700 0.9000 0.0000
v -0.0566 0.9000 0.0411
v -0.0216 0.9000 0.0666
f 254/23 253/23 252/23 251/23 250/23 249/23 248/23 247/23 246/23 245/23
v -0.0618 1.0000 0.1902
v -0.1618 1.0000 0.1176
v -0.2000 1.0000 0.0000
v -0.1618 1.0000 -0.1176
v -0.0618 1.0000 -0.1902
v 0.0618 1.0000 -0.1902
v 0.1618 1.0000 -0.1176
v 0.2000 1.0000 -0.0000
v 0.1618 1.0000 0.1176
v 0.0618 1.0000 0.1902
f 264/23 263/23 262/23 261/23 260/23 259/23 258/23 257/23 256/23 255/23
v -0.0618 1.0000 0.1902
v -0.1618 1.0000 0.1176
v -0.2023 1.3200 0.1469
v -0.0773 1.3200 0.2378
f 268/23 267/23 266/23 265/23
v -0.1618 1.0000 0.1176
v -0.2000 1.0000 0.0000
v -0.2500 1.3200 0.0000
v -0.2023 1.3200 0.1469
f 272/23 271/23 270/23 269/23
v -0.2000 1.0000 0.0000
v -0.1618 1.0000 -0.1176
v -0.2023 1.3200 -0.1469
v -0.2500 1.3200 0.0000
f 276/23 275/23 274/23 273/23
v -0.1618 1.0000 -0.1176
v -0.0618 1.0000 -0.1902
v -0.0773 1.3200 -0.2378
v -0.2023 1.3200 -0.1469
f 280/23 279/23 278/23 277/23
v -0.0618 1.0000 -0.1902
v 0.0618 1.0000 -0.1902
v 0.0773 1.3200 -0.2378
v -0.0773 1.3200 -0.2378
f 284/23 283/23 282/23 281/23
v 0.0618 1.0000 -0.1902
v 0.1618 1.0000 -0.1176
v 0.2023 1.3200 -0.1469
v 0.0773 1.3200 -0.2378
f 288/23 287/23 286/23 285/23
v 0.1618 1.0000 -0.1176
v 0.2000 1.0000 -0.0000
v 0.2500 1.3200 -0.0000
v 0.2023 1.3200 -0.1469
f 292/23 291/23 290/23 289/23
v 0.2000 1.0000 -0.0000
v 0.1618 1.0000 0.1176
v 0.2023 1.3200 0.1469
v 0.2500 1.3200 -0.0000
f 296/23 295/23 294/23 293/23
v 0.1618 1.0000 0.1176
v 0.0618 1.0000 0.1902
v 0.0773 1.3200 0.2378
v 0.2023 1.3200 0.1469
f 300/23 299/23 298/23 297/23
v 0.0618 1.0000 0.1902
v -0.0618 1.0000 0.1902
v -0.0773 1.3200 0.2378
v 0.0773 1.3200 0.2378
f 304/23 303/23 302/23 301/23
v 0.0618 1.0000 0.1902
v 0.1618 1.0000 0.1176
v 0.2000 1.0000 -0.0000
v 0.1618 1.0000 -0.1176
v 0.0618 1.0000 -0.1902
v -0.0618 1.0000 -0.1902
v -0.1618 1.0000 -0.1176
v -0.2000 1.0000 0.0000
v -0.1618 1.0000 0.1176
v -0.0618 1.0000 0.1902
f 314/23 313/23 312/23 311/23 310/23 309/23 308/23 307/23 306/23 305/23
v -0.0773 1.3200 0.2378
v -0.2023 1.3200 0.1469
v -0.2500 1.3200 0.0000
v -0.2023 1.3200 -0.1469
v -0.0773 1.3200 -0.2378
v 0.0773 1.3200 -0.2378
v 0.2023 1.3200 -0.1469
v 0.2500 1.3200 -0.0000
v 0.2023 1.3200 0.1469
v 0.0773 1.3200 0.2378
f 324/23 323/23 322/23 321/23 320/23 319/23 318/23 317/23 316/23 315/23
v -0.0788 1.3200 0.2425
v -0.2063 1.3200 0.1499
v -0.2063 1.3400 0.1499
v -0.0788 1.3400 0.2425
f 328/23 327/23 326/23 325/23
v -0.2063 1.3200 0.1499
v -0.2550 1.3200 0.0000
v -0.2550 1.3400 0.0000
v -0.2063 1.3400 0.1499
f 332/23 331/23 330/23 329/23
v -0.2550 1.3200 0.0000
v -0.2063 1.3200 -0.1499
v -0.2063 1.3400 -0.1499
v -0.2550 1.3400 0.0000
f 336/23 335/23 334/23 333/23
v -0.2063 1.3200 -0.1499
v -0.0788 1.3200 -0.2425
v -0.0788 1.3400 -0.2425
v -0.2063 1.3400 -0.1499
f 340/23 339/23 338/23 337/23
v -0.0788 1.3200 -0.2425
v 0.0788 1.3200 -0.2425
v 0.0788 1.3400 -0.2425
v -0.0788 1.3400 -0.2425
f 344/23 343/23 342/23 341/23
v 0.0788 1.3200 -0.2425
v 0.2063 1.3200 -0.1499
v 0.2063 1.3400 -0.1499
v 0.0788 1.3400 -0.2425
f 348/23 347/23 346/23 345/23
v 0.2063 1.3200 -0.1499
v 0.2550 1.3200 -0.0000
v 0.2550 1.3400 -0.0000
v 0.2063 1.3400 -0.1499
f 352/23 351/23 350/23 349/23
v 0.2550 1.3200 -0.0000
v 0.2063 1.3200 0.1499
v 0.2063 1.3400 0.1499
v 0.2550 1.3400 -0.0000
f 356/23 355/23 354/23 353/23
v 0.2063 1.3200 0.1499
v 0.0788 1.3200 0.2425
v 0.0788 1.3400 0.2425
v 0.2063 1.3400 0.1499
f 360/23 359/23 358/23 357/23
v 0.0788 1.3200 0.2425
v -0.0788 1.3200 0.2425
v -0.0788 1.3400 0.2425
v 0.0788 1.3400 0.2425
f 364/23 363/23 362/23 361/23
v 0.0788 1.3200 0.2425
v 0.2063 1.3200 0.1499
v 0.2550 1.3200 -0.0000
v 0.2063 1.3200 -0.1499
v 0.0788 1.3200 -0.2425
v -0.0788 1.3200 -0.2425
v -0.2063 1.3200 -0.1499
v -0.2550 1.3200 0.0000
v -0.2063 1.3200 0.1499
v -0.0788 1.3200 0.2425
f 374/23 373/23 372/23 371/23 370/23 369/23 368/23 367/23 366/23 365/23
v -0.0788 1.3400 0.2425
v -0.2063 1.3400 0.1499
v -0.2550 1.3400 0.0000
v -0.2063 1.3400 -0.1499
v -0.0788 1.3400 -0.2425
v 0.0788 1.3400 -0.2425
v 0.2063 1.3400 -0.1499
v 0.2550 1.3400 -0.0000
v 0.2063 1.3400 0.1499
v 0.0788 1.3400 0.2425
f 384/23 383/23 382/23 381/23 380/23 379/23 378/23 377/23 376/23 375/23
v 0.3345 1.1808 -0.0200
v 0.3455 1.2192 -0.0200
v 0.2055 1.2592 -0.0200
v 0.1945 1.2208 -0.0200
f 388/23 387/23 386/23 385/23
v 0.1945 1.2208 0.0200
v 0.2055 1.2592 0.0200
v 0.3455 1.2192 0.0200
v 0.3345 1.1808 0.0200
f 392/23 391/23 390/23 389/23
v 0.1945 1.2208 -0.0200
v 0.1945 1.2208 0.0200
v 0.3345 1.1808 0.0200
v 0.3345 1.1808 -0.0200
f 396/23 395/23 394/23 393/23
v 0.3455 1.2192 -0.0200
v 0.3455 1.2192 0.0200
v 0.2055 1.2592 0.0200
v 0.2055 1.2592 -0.0200
f 400/23 399/23 398/23 397/23
v 0.2055 1.2592 -0.0200
v 0.2055 1.2592 0.0200
v 0.1945 1.2208 0.0200
v 0.1945 1.2208 -0.0200
f 404/23 403/23 402/23 401/23
v 0.3345 1.1808 -0.0200
v 0.3345 1.1808 0.0200
v 0.3455 1.2192 0.0200
v 0.3455 1.2192 -0.0200
f 408/23 407/23 406/23 405/23
v 0.3195 1.0157 0.0200
v 0.2805 1.0243 0.0200
v 0.3205 1.2043 0.0200
v 0.3595 1.1957 0.0200
f 412/23 411/23 410/23 409/23
v 0.3595 1.1957 -0.0200
v 0.3205 1.2043 -0.0200
v 0.2805 1.0243 -0.0200
v 0.3195 1.0157 -0.0200
f 416/23 415/23 414/23 413/23
v 0.3595 1.1957 0.0200
v 0.3595 1.1957 -0.0200
v 0.3195 1.0157 -0.0200
v 0.3195 1.0157 0.0200
f 420/23 419/23 418/23 417/23
v 0.2805 1.0243 0.0200
v 0.2805 1.0243 -0.0200
v 0.3205 1.2043 -0.0200
v 0.3205 1.2043 0.0200
f 424/23 423/23 422/23 421/23
v 0.3205 1.2043 0.0200
v 0.3205 1.2043 -0.0200
v 0.3595 1.1957 -0.0200
v 0.3595 1.1957 0.0200
f 428/23 427/23 426/23 425/23
v 0.3195 1.0157 0.0200
v 0.3195 1.0157 -0.0200
v 0.2805 1.0243 -0.0200
v 0.2805 1.0243 0.0200
f 432/23 431/23 430/23 429/23
v 0.1833 0.9803 0.0200
v 0.1767 1.0197 0.0200
v 0.2967 1.0397 0.0200
v 0.3033 1.0003 0.0200
f 436/23 435/23 434/23 433/23
v 0.3033 1.0003 -0.0200
v 0.2967 1.0397 -0.0200
v 0.1767 1.0197 -0.0200
v 0.1833 0.9803 -0.0200
f 440/23 439/23 438/23 437/23
v 0.3033 1.0003 0.0200
v 0.3033 1.0003 -0.0200
v 0.1833 0.9803 -0.0200
v 0.1833 0.9803 0.0200
f 444/23 443/23 442/23 441/23
v 0.1767 1.0197 0.0200
v 0.1767 1.0197 -0.0200
v 0.2967 1.0397 -0.0200
v 0.2967 1.0397 0.0200
f 448/23 447/23 446/23 445/23
v 0.2967 1.0397 0.0200
v 0.2967 1.0397 -0.0200
v 0.3033 1.0003 -0.0200
v 0.3033 1.0003 0.0200
f 452/23 451/23 450/23 449/23
v 0.1833 0.9803 0.0200
v 0.1833 0.9803 -0.0200
v 0.1767 1.0197 -0.0200
v 0.1767 1.0197 0.0200
f 456/23 455/23 454/23 453/23
v -0.3345 1.1808 0.0200
v -0.3455 1.2192 0.0200
v -0.2055 1.2592 0.0200
v -0.1945 1.2208 0.0200
f 460/23 459/23 458/23 457/23
v -0.1945 1.2208 -0.0200
v -0.2055 1.2592 -0.0200
v -0.3455 1.2192 -0.0200
v -0.3345 1.1808 -0.0200
f 464/23 463/23 462/23 461/23
v -0.1945 1.2208 0.0200
v -0.1945 1.2208 -0.0200
v -0.3345 1.1808 -0.0200
v -0.3345 1.1808 0.0200
f 468/23 467/23 466/23 465/23
v -0.3455 1.2192 0.0200
v -0.3455 1.2192 -0.0200
v -0.2055 1.2592 -0.0200
v -0.2055 1.2592 0.0200
f 472/23 471/23 470/23 469/23
v -0.2055 1.2592 0.0200
v -0.2055 1.2592 -0.0200
v -0.1945 1.2208 -0.0200
v -0.1945 1.2208 0.0200
f 476/23 475/23 474/23 473/23
v -0.3345 1.1808 0.0200
v -0.3345 1.1808 -0.0200
v -0.3455 1.2192 -0.0200
v -0.3455 1.2192 0.0200
f 480/23 479/23 478/23 477/23
v -0.2805 1.0243 0.0200
v -0.3195 1.0157 0.0200
v -0.3595 1.1957 0.0200
v -0.3205 1.2043 0.0200
f 484/23 483/23 482/23 481/23
v -0.3205 1.2043 -0.0200
v -0.3595 1.1957 -0.0200
v -0.3195 1.0157 -0.0200
v -0.2805 1.0243 -0.0200
f 488/23 487/23 486/23 485/23
v -0.3205 1.2043 0.0200
v -0.3205 1.2043 -0.0200
v -0.2805 1.0243 -0.0200
v -0.2805 1.0243 0.0200
f 492/23 491/23 490/23 489/23
v -0.3195 1.0157 0.0200
v -0.3195 1.0157 -0.0200
v -0.3595 1.1957 -0.0200
v -0.3595 1.1957 0.0200
f 496/23 495/23 494/23 493/23
v -0.3595 1.1957 0.0200
v -0.3595 1.1957 -0.0200
v -0.3205 1.2043 -0.0200
v -0.3205 1.2043 0.0200
f 500/23 499/23 498/23 497/23
v -0.2805 1.0243 0.0200
v -0.2805 1.0243 -0.0200
v -0.3195 1.0157 -0.0200
v -0.3195 1.0157 0.0200
f 504/23 503/23 502/23 501/23
v -0.1833 0.9803 -0.0200
v -0.1767 1.0197 -0.0200
v -0.2967 1.0397 -0.0200
v -0.3033 1.0003 -0.0200
f 508/23 507/23 506/23 505/23
v -0.3033 1.0003 0.0200
v -0.2967 1.0397 0.0200
v -0.1767 1.0197 0.0200
v -0.1833 0.9803 0.0200
f 512/23 511/23 510/23 509/23
v -0.3033 1.0003 -0.0200
v -0.3033 1.0003 0.0200
v -0.1833 0.9803 0.0200
v -0.1833 0.9803 -0.0200
f 516/23 515/23 514/23 513/23
v -0.1767 1.0197 -0.0200
v -0.1767 1.0197 0.0200
v -0.2967 1.0397 0.0200
v -0.2967 1.0397 -0.0200
f 520/23 519/23 518/23 517/23
v -0.2967 1.0397 -0.0200
v -0.2967 1.0397 0.0200
v -0.3033 1.0003 0.0200
v -0.3033 1.0003 -0.0200
f 524/23 523/23 522/23 521/23
v -0.1833 0.9803 -0.0200
v -0.1833 0.9803 0.0200
v -0.1767 1.0197 0.0200
v -0.1767 1.0197 -0.0200
f 528/23 527/23 526/23 525/23
v -0.0000 1.0351 0.2200
v 0.0849 1.1200 0.2200
v 0.0849 1.1200 0.2100
v -0.0000 1.0351 0.2100
f 532/27 531/27 530/27 529/27
v -0.0849 1.1200 0.2100
v 0.0000 1.2049 0.2100
v 0.0000 1.2049 0.2200
v -0.0849 1.1200 0.2200
f 536/27 535/27 534/27 533/27
v -0.0000 1.0351 0.2100
v -0.0849 1.1200 0.2100
v -0.0849 1.1200 0.2200
v -0.0000 1.0351 0.2200
f 540/27 539/27 538/27 537/27
v 0.0849 1.1200 0.2200
v 0.0000 1.2049 0.2200
v 0.0000 1.2049 0.2100
v 0.0849 1.1200 0.2100
f 544/27 543/27 542/27 541/27
v 0.0849 1.1200 0.2100
v 0.0000 1.2049 0.2100
v -0.0849 1.1200 0.2100
v -0.0000 1.0351 0.2100
f 548/27 547/27 546/27 545/27
v -0.0000 1.0351 0.2200
v -0.0849 1.1200 0.2200
v 0.0000 1.2049 0.2200
v 0.0849 1.1200 0.2200
f 552/27 551/27 550/27 549/27
