# Walk of Industry low-poly (generated, wi_lib.py)
mtllib wi.mtl
vt 0 0
vt 0.03125 0.03125
vt 0.09375 0.03125
vt 0.15625 0.03125
vt 0.21875 0.03125
vt 0.28125 0.03125
vt 0.34375 0.03125
vt 0.40625 0.03125
vt 0.46875 0.03125
vt 0.53125 0.03125
vt 0.59375 0.03125
vt 0.65625 0.03125
vt 0.71875 0.03125
vt 0.78125 0.03125
vt 0.84375 0.03125
vt 0.90625 0.03125
vt 0.96875 0.03125
vt 0.03125 0.09375
vt 0.09375 0.09375
vt 0.15625 0.09375
vt 0.21875 0.09375
vt 0.28125 0.09375
vt 0.34375 0.09375
vt 0.40625 0.09375
vt 0.46875 0.09375
vt 0.53125 0.09375
vt 0.59375 0.09375
vt 0.65625 0.09375
vt 0.71875 0.09375
vt 0.78125 0.09375
vt 0.84375 0.09375
vt 0.90625 0.09375
vt 0.96875 0.09375
o Body
usemtl wi_palette
v -0.0300 0.0000 0.0520
v -0.0600 0.0000 0.0000
v -0.0200 0.7500 0.0000
v -0.0100 0.7500 0.0173
f 4/13 3/13 2/13 1/13
v -0.0600 0.0000 0.0000
v -0.0300 0.0000 -0.0520
v -0.0100 0.7500 -0.0173
v -0.0200 0.7500 0.0000
f 8/13 7/13 6/13 5/13
v -0.0300 0.0000 -0.0520
v 0.0300 0.0000 -0.0520
v 0.0100 0.7500 -0.0173
v -0.0100 0.7500 -0.0173
f 12/13 11/13 10/13 9/13
v 0.0300 0.0000 -0.0520
v 0.0600 0.0000 -0.0000
v 0.0200 0.7500 -0.0000
v 0.0100 0.7500 -0.0173
f 16/13 15/13 14/13 13/13
v 0.0600 0.0000 -0.0000
v 0.0300 0.0000 0.0520
v 0.0100 0.7500 0.0173
v 0.0200 0.7500 -0.0000
f 20/13 19/13 18/13 17/13
v 0.0300 0.0000 0.0520
v -0.0300 0.0000 0.0520
v -0.0100 0.7500 0.0173
v 0.0100 0.7500 0.0173
f 24/13 23/13 22/13 21/13
v 0.0300 0.0000 0.0520
v 0.0600 0.0000 -0.0000
v 0.0300 0.0000 -0.0520
v -0.0300 0.0000 -0.0520
v -0.0600 0.0000 0.0000
v -0.0300 0.0000 0.0520
f 30/13 29/13 28/13 27/13 26/13 25/13
v -0.0100 0.7500 0.0173
v -0.0200 0.7500 0.0000
v -0.0100 0.7500 -0.0173
v 0.0100 0.7500 -0.0173
v 0.0200 0.7500 -0.0000
v 0.0100 0.7500 0.0173
f 36/13 35/13 34/13 33/13 32/13 31/13
v -0.3656 0.0401 0.0175
v -0.3944 0.0599 0.0175
v -0.0144 0.6099 0.0175
v 0.0144 0.5901 0.0175
f 40/13 39/13 38/13 37/13
v 0.0144 0.5901 -0.0175
v -0.0144 0.6099 -0.0175
v -0.3944 0.0599 -0.0175
v -0.3656 0.0401 -0.0175
f 44/13 43/13 42/13 41/13
v 0.0144 0.5901 0.0175
v 0.0144 0.5901 -0.0175
v -0.3656 0.0401 -0.0175
v -0.3656 0.0401 0.0175
f 48/13 47/13 46/13 45/13
v -0.3944 0.0599 0.0175
v -0.3944 0.0599 -0.0175
v -0.0144 0.6099 -0.0175
v -0.0144 0.6099 0.0175
f 52/13 51/13 50/13 49/13
v -0.0144 0.6099 0.0175
v -0.0144 0.6099 -0.0175
v 0.0144 0.5901 -0.0175
v 0.0144 0.5901 0.0175
f 56/13 55/13 54/13 53/13
v -0.3656 0.0401 0.0175
v -0.3656 0.0401 -0.0175
v -0.3944 0.0599 -0.0175
v -0.3944 0.0599 0.0175
f 60/13 59/13 58/13 57/13
v -0.1676 0.0401 0.3254
v -0.1820 0.0599 0.3503
v 0.0080 0.6099 0.0212
v 0.0224 0.5901 -0.0037
f 64/13 63/13 62/13 61/13
v -0.0080 0.5901 -0.0212
v -0.0224 0.6099 0.0037
v -0.2124 0.0599 0.3328
v -0.1980 0.0401 0.3079
f 68/13 67/13 66/13 65/13
v 0.0224 0.5901 -0.0037
v -0.0080 0.5901 -0.0212
v -0.1980 0.0401 0.3079
v -0.1676 0.0401 0.3254
f 72/13 71/13 70/13 69/13
v -0.1820 0.0599 0.3503
v -0.2124 0.0599 0.3328
v -0.0224 0.6099 0.0037
v 0.0080 0.6099 0.0212
f 76/13 75/13 74/13 73/13
v 0.0080 0.6099 0.0212
v -0.0224 0.6099 0.0037
v -0.0080 0.5901 -0.0212
v 0.0224 0.5901 -0.0037
f 80/13 79/13 78/13 77/13
v -0.1676 0.0401 0.3254
v -0.1980 0.0401 0.3079
v -0.2124 0.0599 0.3328
v -0.1820 0.0599 0.3503
f 84/13 83/13 82/13 81/13
v 0.1980 0.0401 0.3079
v 0.2124 0.0599 0.3328
v 0.0224 0.6099 0.0037
v 0.0080 0.5901 -0.0212
f 88/13 87/13 86/13 85/13
v -0.0224 0.5901 -0.0037
v -0.0080 0.6099 0.0212
v 0.1820 0.0599 0.3503
v 0.1676 0.0401 0.3254
f 92/13 91/13 90/13 89/13
v 0.0080 0.5901 -0.0212
v -0.0224 0.5901 -0.0037
v 0.1676 0.0401 0.3254
v 0.1980 0.0401 0.3079
f 96/13 95/13 94/13 93/13
v 0.2124 0.0599 0.3328
v 0.1820 0.0599 0.3503
v -0.0080 0.6099 0.0212
v 0.0224 0.6099 0.0037
f 100/13 99/13 98/13 97/13
v 0.0224 0.6099 0.0037
v -0.0080 0.6099 0.0212
v -0.0224 0.5901 -0.0037
v 0.0080 0.5901 -0.0212
f 104/13 103/13 102/13 101/13
v 0.1980 0.0401 0.3079
v 0.1676 0.0401 0.3254
v 0.1820 0.0599 0.3503
v 0.2124 0.0599 0.3328
f 108/13 107/13 106/13 105/13
v 0.3656 0.0401 -0.0175
v 0.3944 0.0599 -0.0175
v 0.0144 0.6099 -0.0175
v -0.0144 0.5901 -0.0175
f 112/13 111/13 110/13 109/13
v -0.0144 0.5901 0.0175
v 0.0144 0.6099 0.0175
v 0.3944 0.0599 0.0175
v 0.3656 0.0401 0.0175
f 116/13 115/13 114/13 113/13
v -0.0144 0.5901 -0.0175
v -0.0144 0.5901 0.0175
v 0.3656 0.0401 0.0175
v 0.3656 0.0401 -0.0175
f 120/13 119/13 118/13 117/13
v 0.3944 0.0599 -0.0175
v 0.3944 0.0599 0.0175
v 0.0144 0.6099 0.0175
v 0.0144 0.6099 -0.0175
f 124/13 123/13 122/13 121/13
v 0.0144 0.6099 -0.0175
v 0.0144 0.6099 0.0175
v -0.0144 0.5901 0.0175
v -0.0144 0.5901 -0.0175
f 128/13 127/13 126/13 125/13
v 0.3656 0.0401 -0.0175
v 0.3656 0.0401 0.0175
v 0.3944 0.0599 0.0175
v 0.3944 0.0599 -0.0175
f 132/13 131/13 130/13 129/13
v 0.1676 0.0401 -0.3254
v 0.1820 0.0599 -0.3503
v -0.0080 0.6099 -0.0212
v -0.0224 0.5901 0.0037
f 136/13 135/13 134/13 133/13
v 0.0080 0.5901 0.0212
v 0.0224 0.6099 -0.0037
v 0.2124 0.0599 -0.3328
v 0.1980 0.0401 -0.3079
f 140/13 139/13 138/13 137/13
v -0.0224 0.5901 0.0037
v 0.0080 0.5901 0.0212
v 0.1980 0.0401 -0.3079
v 0.1676 0.0401 -0.3254
f 144/13 143/13 142/13 141/13
v 0.1820 0.0599 -0.3503
v 0.2124 0.0599 -0.3328
v 0.0224 0.6099 -0.0037
v -0.0080 0.6099 -0.0212
f 148/13 147/13 146/13 145/13
v -0.0080 0.6099 -0.0212
v 0.0224 0.6099 -0.0037
v 0.0080 0.5901 0.0212
v -0.0224 0.5901 0.0037
f 152/13 151/13 150/13 149/13
v 0.1676 0.0401 -0.3254
v 0.1980 0.0401 -0.3079
v 0.2124 0.0599 -0.3328
v 0.1820 0.0599 -0.3503
f 156/13 155/13 154/13 153/13
v -0.1980 0.0401 -0.3079
v -0.2124 0.0599 -0.3328
v -0.0224 0.6099 -0.0037
v -0.0080 0.5901 0.0212
f 160/13 159/13 158/13 157/13
v 0.0224 0.5901 0.0037
v 0.0080 0.6099 -0.0212
v -0.1820 0.0599 -0.3503
v -0.1676 0.0401 -0.3254
f 164/13 163/13 162/13 161/13
v -0.0080 0.5901 0.0212
v 0.0224 0.5901 0.0037
v -0.1676 0.0401 -0.3254
v -0.1980 0.0401 -0.3079
f 168/13 167/13 166/13 165/13
v -0.2124 0.0599 -0.3328
v -0.1820 0.0599 -0.3503
v 0.0080 0.6099 -0.0212
v -0.0224 0.6099 -0.0037
f 172/13 171/13 170/13 169/13
v -0.0224 0.6099 -0.0037
v 0.0080 0.6099 -0.0212
v 0.0224 0.5901 0.0037
v -0.0080 0.5901 0.0212
f 176/13 175/13 174/13 173/13
v -0.1980 0.0401 -0.3079
v -0.1676 0.0401 -0.3254
v -0.1820 0.0599 -0.3503
v -0.2124 0.0599 -0.3328
f 180/13 179/13 178/13 177/13
