# Walk of Industry low-poly (generated, wi_lib.py)
mtllib wi.mtl
vt 0 0
vt 0.03125 0.03125
vt 0.09375 0.03125
vt 0.15625 0.03125
vt 0.21875 0.03125
vt 0.28125 0.03125
vt 0.34375 0.03125
vt 0.40625 0.03125
vt 0.46875 0.03125
vt 0.53125 0.03125
vt 0.59375 0.03125
vt 0.65625 0.03125
vt 0.71875 0.03125
vt 0.78125 0.03125
vt 0.84375 0.03125
vt 0.90625 0.03125
vt 0.96875 0.03125
vt 0.03125 0.09375
vt 0.09375 0.09375
vt 0.15625 0.09375
vt 0.21875 0.09375
vt 0.28125 0.09375
vt 0.34375 0.09375
vt 0.40625 0.09375
vt 0.46875 0.09375
vt 0.53125 0.09375
vt 0.59375 0.09375
vt 0.65625 0.09375
vt 0.71875 0.09375
vt 0.78125 0.09375
vt 0.84375 0.09375
vt 0.90625 0.09375
vt 0.96875 0.09375
o Body
usemtl wi_palette
v 0.5000 0.0000 0.5000
v 0.5000 0.0240 0.5000
v 0.5000 0.0240 -0.5000
v 0.5000 0.0000 -0.5000
f 4/6 3/6 2/6 1/6
v -0.5000 0.0000 -0.5000
v -0.5000 0.0240 -0.5000
v -0.5000 0.0240 0.5000
v -0.5000 0.0000 0.5000
f 8/6 7/6 6/6 5/6
v 0.5000 0.0000 -0.5000
v -0.5000 0.0000 -0.5000
v -0.5000 0.0000 0.5000
v 0.5000 0.0000 0.5000
f 12/6 11/6 10/6 9/6
v 0.5000 0.0240 0.5000
v -0.5000 0.0240 0.5000
v -0.5000 0.0240 -0.5000
v 0.5000 0.0240 -0.5000
f 16/6 15/6 14/6 13/6
v 0.5000 0.0240 -0.5000
v -0.5000 0.0240 -0.5000
v -0.5000 0.0000 -0.5000
v 0.5000 0.0000 -0.5000
f 20/6 19/6 18/6 17/6
v 0.5000 0.0000 0.5000
v -0.5000 0.0000 0.5000
v -0.5000 0.0240 0.5000
v 0.5000 0.0240 0.5000
f 24/6 23/6 22/6 21/6
v 0.4850 0.0060 -0.0150
v 0.4850 0.0460 -0.0150
v 0.4850 0.0460 -0.4850
v 0.4850 0.0060 -0.4850
f 28/29 27/29 26/29 25/29
v 0.0150 0.0060 -0.4850
v 0.0150 0.0460 -0.4850
v 0.0150 0.0460 -0.0150
v 0.0150 0.0060 -0.0150
f 32/29 31/29 30/29 29/29
v 0.4850 0.0060 -0.4850
v 0.0150 0.0060 -0.4850
v 0.0150 0.0060 -0.0150
v 0.4850 0.0060 -0.0150
f 36/29 35/29 34/29 33/29
v 0.4850 0.0460 -0.0150
v 0.0150 0.0460 -0.0150
v 0.0150 0.0460 -0.4850
v 0.4850 0.0460 -0.4850
f 40/29 39/29 38/29 37/29
v 0.4850 0.0460 -0.4850
v 0.0150 0.0460 -0.4850
v 0.0150 0.0060 -0.4850
v 0.4850 0.0060 -0.4850
f 44/29 43/29 42/29 41/29
v 0.4850 0.0060 -0.0150
v 0.0150 0.0060 -0.0150
v 0.0150 0.0460 -0.0150
v 0.4850 0.0460 -0.0150
f 48/29 47/29 46/29 45/29
v 0.4850 0.0060 0.4850
v 0.4850 0.0460 0.4850
v 0.4850 0.0460 0.0150
v 0.4850 0.0060 0.0150
f 52/29 51/29 50/29 49/29
v 0.0150 0.0060 0.0150
v 0.0150 0.0460 0.0150
v 0.0150 0.0460 0.4850
v 0.0150 0.0060 0.4850
f 56/29 55/29 54/29 53/29
v 0.4850 0.0060 0.0150
v 0.0150 0.0060 0.0150
v 0.0150 0.0060 0.4850
v 0.4850 0.0060 0.4850
f 60/29 59/29 58/29 57/29
v 0.4850 0.0460 0.4850
v 0.0150 0.0460 0.4850
v 0.0150 0.0460 0.0150
v 0.4850 0.0460 0.0150
f 64/29 63/29 62/29 61/29
v 0.4850 0.0460 0.0150
v 0.0150 0.0460 0.0150
v 0.0150 0.0060 0.0150
v 0.4850 0.0060 0.0150
f 68/29 67/29 66/29 65/29
v 0.4850 0.0060 0.4850
v 0.0150 0.0060 0.4850
v 0.0150 0.0460 0.4850
v 0.4850 0.0460 0.4850
f 72/29 71/29 70/29 69/29
v -0.0150 0.0060 -0.0150
v -0.0150 0.0460 -0.0150
v -0.0150 0.0460 -0.4850
v -0.0150 0.0060 -0.4850
f 76/29 75/29 74/29 73/29
v -0.4850 0.0060 -0.4850
v -0.4850 0.0460 -0.4850
v -0.4850 0.0460 -0.0150
v -0.4850 0.0060 -0.0150
f 80/29 79/29 78/29 77/29
v -0.0150 0.0060 -0.4850
v -0.4850 0.0060 -0.4850
v -0.4850 0.0060 -0.0150
v -0.0150 0.0060 -0.0150
f 84/29 83/29 82/29 81/29
v -0.0150 0.0460 -0.0150
v -0.4850 0.0460 -0.0150
v -0.4850 0.0460 -0.4850
v -0.0150 0.0460 -0.4850
f 88/29 87/29 86/29 85/29
v -0.0150 0.0460 -0.4850
v -0.4850 0.0460 -0.4850
v -0.4850 0.0060 -0.4850
v -0.0150 0.0060 -0.4850
f 92/29 91/29 90/29 89/29
v -0.0150 0.0060 -0.0150
v -0.4850 0.0060 -0.0150
v -0.4850 0.0460 -0.0150
v -0.0150 0.0460 -0.0150
f 96/29 95/29 94/29 93/29
v -0.0150 0.0060 0.4850
v -0.0150 0.0460 0.4850
v -0.0150 0.0460 0.0150
v -0.0150 0.0060 0.0150
f 100/29 99/29 98/29 97/29
v -0.4850 0.0060 0.0150
v -0.4850 0.0460 0.0150
v -0.4850 0.0460 0.4850
v -0.4850 0.0060 0.4850
f 104/29 103/29 102/29 101/29
v -0.0150 0.0060 0.0150
v -0.4850 0.0060 0.0150
v -0.4850 0.0060 0.4850
v -0.0150 0.0060 0.4850
f 108/29 107/29 106/29 105/29
v -0.0150 0.0460 0.4850
v -0.4850 0.0460 0.4850
v -0.4850 0.0460 0.0150
v -0.0150 0.0460 0.0150
f 112/29 111/29 110/29 109/29
v -0.0150 0.0460 0.0150
v -0.4850 0.0460 0.0150
v -0.4850 0.0060 0.0150
v -0.0150 0.0060 0.0150
f 116/29 115/29 114/29 113/29
v -0.0150 0.0060 0.4850
v -0.4850 0.0060 0.4850
v -0.4850 0.0460 0.4850
v -0.0150 0.0460 0.4850
f 120/29 119/29 118/29 117/29
v -0.0150 0.0460 -0.0150
v -0.0150 0.0480 -0.0150
v -0.0150 0.0480 -0.4850
v -0.0150 0.0460 -0.4850
f 124/11 123/11 122/11 121/11
v -0.4850 0.0460 -0.4850
v -0.4850 0.0480 -0.4850
v -0.4850 0.0480 -0.0150
v -0.4850 0.0460 -0.0150
f 128/11 127/11 126/11 125/11
v -0.0150 0.0460 -0.4850
v -0.4850 0.0460 -0.4850
v -0.4850 0.0460 -0.0150
v -0.0150 0.0460 -0.0150
f 132/11 131/11 130/11 129/11
v -0.0150 0.0480 -0.0150
v -0.4850 0.0480 -0.0150
v -0.4850 0.0480 -0.4850
v -0.0150 0.0480 -0.4850
f 136/11 135/11 134/11 133/11
v -0.0150 0.0480 -0.4850
v -0.4850 0.0480 -0.4850
v -0.4850 0.0460 -0.4850
v -0.0150 0.0460 -0.4850
f 140/11 139/11 138/11 137/11
v -0.0150 0.0460 -0.0150
v -0.4850 0.0460 -0.0150
v -0.4850 0.0480 -0.0150
v -0.0150 0.0480 -0.0150
f 144/11 143/11 142/11 141/11
