# Walk of Industry low-poly (generated, wi_lib.py)
mtllib wi.mtl
vt 0 0
vt 0.03125 0.03125
vt 0.09375 0.03125
vt 0.15625 0.03125
vt 0.21875 0.03125
vt 0.28125 0.03125
vt 0.34375 0.03125
vt 0.40625 0.03125
vt 0.46875 0.03125
vt 0.53125 0.03125
vt 0.59375 0.03125
vt 0.65625 0.03125
vt 0.71875 0.03125
vt 0.78125 0.03125
vt 0.84375 0.03125
vt 0.90625 0.03125
vt 0.96875 0.03125
vt 0.03125 0.09375
vt 0.09375 0.09375
vt 0.15625 0.09375
vt 0.21875 0.09375
vt 0.28125 0.09375
vt 0.34375 0.09375
vt 0.40625 0.09375
vt 0.46875 0.09375
vt 0.53125 0.09375
vt 0.59375 0.09375
vt 0.65625 0.09375
vt 0.71875 0.09375
vt 0.78125 0.09375
vt 0.84375 0.09375
vt 0.90625 0.09375
vt 0.96875 0.09375
o Body
usemtl wi_palette
v 0.9500 0.0000 0.9500
v 0.9500 0.0500 0.9500
v 0.9500 0.0500 -0.9500
v 0.9500 0.0000 -0.9500
f 4/29 3/29 2/29 1/29
v -0.9500 0.0000 -0.9500
v -0.9500 0.0500 -0.9500
v -0.9500 0.0500 0.9500
v -0.9500 0.0000 0.9500
f 8/29 7/29 6/29 5/29
v 0.9500 0.0000 -0.9500
v -0.9500 0.0000 -0.9500
v -0.9500 0.0000 0.9500
v 0.9500 0.0000 0.9500
f 12/29 11/29 10/29 9/29
v 0.9500 0.0500 0.9500
v -0.9500 0.0500 0.9500
v -0.9500 0.0500 -0.9500
v 0.9500 0.0500 -0.9500
f 16/29 15/29 14/29 13/29
v 0.9500 0.0500 -0.9500
v -0.9500 0.0500 -0.9500
v -0.9500 0.0000 -0.9500
v 0.9500 0.0000 -0.9500
f 20/29 19/29 18/29 17/29
v 0.9500 0.0000 0.9500
v -0.9500 0.0000 0.9500
v -0.9500 0.0500 0.9500
v 0.9500 0.0500 0.9500
f 24/29 23/29 22/29 21/29
v 0.5500 0.0490 -0.7850
v 0.5500 0.0610 -0.7850
v 0.5500 0.0610 -0.8150
v 0.5500 0.0490 -0.8150
f 28/15 27/15 26/15 25/15
v -0.8500 0.0490 -0.8150
v -0.8500 0.0610 -0.8150
v -0.8500 0.0610 -0.7850
v -0.8500 0.0490 -0.7850
f 32/15 31/15 30/15 29/15
v 0.5500 0.0490 -0.8150
v -0.8500 0.0490 -0.8150
v -0.8500 0.0490 -0.7850
v 0.5500 0.0490 -0.7850
f 36/15 35/15 34/15 33/15
v 0.5500 0.0610 -0.7850
v -0.8500 0.0610 -0.7850
v -0.8500 0.0610 -0.8150
v 0.5500 0.0610 -0.8150
f 40/15 39/15 38/15 37/15
v 0.5500 0.0610 -0.8150
v -0.8500 0.0610 -0.8150
v -0.8500 0.0490 -0.8150
v 0.5500 0.0490 -0.8150
f 44/15 43/15 42/15 41/15
v 0.5500 0.0490 -0.7850
v -0.8500 0.0490 -0.7850
v -0.8500 0.0610 -0.7850
v 0.5500 0.0610 -0.7850
f 48/15 47/15 46/15 45/15
v 0.5500 0.0490 -0.5850
v 0.5500 0.0610 -0.5850
v 0.5500 0.0610 -0.6150
v 0.5500 0.0490 -0.6150
f 52/15 51/15 50/15 49/15
v -0.8500 0.0490 -0.6150
v -0.8500 0.0610 -0.6150
v -0.8500 0.0610 -0.5850
v -0.8500 0.0490 -0.5850
f 56/15 55/15 54/15 53/15
v 0.5500 0.0490 -0.6150
v -0.8500 0.0490 -0.6150
v -0.8500 0.0490 -0.5850
v 0.5500 0.0490 -0.5850
f 60/15 59/15 58/15 57/15
v 0.5500 0.0610 -0.5850
v -0.8500 0.0610 -0.5850
v -0.8500 0.0610 -0.6150
v 0.5500 0.0610 -0.6150
f 64/15 63/15 62/15 61/15
v 0.5500 0.0610 -0.6150
v -0.8500 0.0610 -0.6150
v -0.8500 0.0490 -0.6150
v 0.5500 0.0490 -0.6150
f 68/15 67/15 66/15 65/15
v 0.5500 0.0490 -0.5850
v -0.8500 0.0490 -0.5850
v -0.8500 0.0610 -0.5850
v 0.5500 0.0610 -0.5850
f 72/15 71/15 70/15 69/15
v 0.5500 0.0490 -0.3850
v 0.5500 0.0610 -0.3850
v 0.5500 0.0610 -0.4150
v 0.5500 0.0490 -0.4150
f 76/15 75/15 74/15 73/15
v -0.8500 0.0490 -0.4150
v -0.8500 0.0610 -0.4150
v -0.8500 0.0610 -0.3850
v -0.8500 0.0490 -0.3850
f 80/15 79/15 78/15 77/15
v 0.5500 0.0490 -0.4150
v -0.8500 0.0490 -0.4150
v -0.8500 0.0490 -0.3850
v 0.5500 0.0490 -0.3850
f 84/15 83/15 82/15 81/15
v 0.5500 0.0610 -0.3850
v -0.8500 0.0610 -0.3850
v -0.8500 0.0610 -0.4150
v 0.5500 0.0610 -0.4150
f 88/15 87/15 86/15 85/15
v 0.5500 0.0610 -0.4150
v -0.8500 0.0610 -0.4150
v -0.8500 0.0490 -0.4150
v 0.5500 0.0490 -0.4150
f 92/15 91/15 90/15 89/15
v 0.5500 0.0490 -0.3850
v -0.8500 0.0490 -0.3850
v -0.8500 0.0610 -0.3850
v 0.5500 0.0610 -0.3850
f 96/15 95/15 94/15 93/15
v 0.5500 0.0490 -0.1850
v 0.5500 0.0610 -0.1850
v 0.5500 0.0610 -0.2150
v 0.5500 0.0490 -0.2150
f 100/15 99/15 98/15 97/15
v -0.8500 0.0490 -0.2150
v -0.8500 0.0610 -0.2150
v -0.8500 0.0610 -0.1850
v -0.8500 0.0490 -0.1850
f 104/15 103/15 102/15 101/15
v 0.5500 0.0490 -0.2150
v -0.8500 0.0490 -0.2150
v -0.8500 0.0490 -0.1850
v 0.5500 0.0490 -0.1850
f 108/15 107/15 106/15 105/15
v 0.5500 0.0610 -0.1850
v -0.8500 0.0610 -0.1850
v -0.8500 0.0610 -0.2150
v 0.5500 0.0610 -0.2150
f 112/15 111/15 110/15 109/15
v 0.5500 0.0610 -0.2150
v -0.8500 0.0610 -0.2150
v -0.8500 0.0490 -0.2150
v 0.5500 0.0490 -0.2150
f 116/15 115/15 114/15 113/15
v 0.5500 0.0490 -0.1850
v -0.8500 0.0490 -0.1850
v -0.8500 0.0610 -0.1850
v 0.5500 0.0610 -0.1850
f 120/15 119/15 118/15 117/15
v 0.5500 0.0490 0.0150
v 0.5500 0.0610 0.0150
v 0.5500 0.0610 -0.0150
v 0.5500 0.0490 -0.0150
f 124/15 123/15 122/15 121/15
v -0.8500 0.0490 -0.0150
v -0.8500 0.0610 -0.0150
v -0.8500 0.0610 0.0150
v -0.8500 0.0490 0.0150
f 128/15 127/15 126/15 125/15
v 0.5500 0.0490 -0.0150
v -0.8500 0.0490 -0.0150
v -0.8500 0.0490 0.0150
v 0.5500 0.0490 0.0150
f 132/15 131/15 130/15 129/15
v 0.5500 0.0610 0.0150
v -0.8500 0.0610 0.0150
v -0.8500 0.0610 -0.0150
v 0.5500 0.0610 -0.0150
f 136/15 135/15 134/15 133/15
v 0.5500 0.0610 -0.0150
v -0.8500 0.0610 -0.0150
v -0.8500 0.0490 -0.0150
v 0.5500 0.0490 -0.0150
f 140/15 139/15 138/15 137/15
v 0.5500 0.0490 0.0150
v -0.8500 0.0490 0.0150
v -0.8500 0.0610 0.0150
v 0.5500 0.0610 0.0150
f 144/15 143/15 142/15 141/15
v 0.5500 0.0490 0.2150
v 0.5500 0.0610 0.2150
v 0.5500 0.0610 0.1850
v 0.5500 0.0490 0.1850
f 148/15 147/15 146/15 145/15
v -0.8500 0.0490 0.1850
v -0.8500 0.0610 0.1850
v -0.8500 0.0610 0.2150
v -0.8500 0.0490 0.2150
f 152/15 151/15 150/15 149/15
v 0.5500 0.0490 0.1850
v -0.8500 0.0490 0.1850
v -0.8500 0.0490 0.2150
v 0.5500 0.0490 0.2150
f 156/15 155/15 154/15 153/15
v 0.5500 0.0610 0.2150
v -0.8500 0.0610 0.2150
v -0.8500 0.0610 0.1850
v 0.5500 0.0610 0.1850
f 160/15 159/15 158/15 157/15
v 0.5500 0.0610 0.1850
v -0.8500 0.0610 0.1850
v -0.8500 0.0490 0.1850
v 0.5500 0.0490 0.1850
f 164/15 163/15 162/15 161/15
v 0.5500 0.0490 0.2150
v -0.8500 0.0490 0.2150
v -0.8500 0.0610 0.2150
v 0.5500 0.0610 0.2150
f 168/15 167/15 166/15 165/15
v 0.5500 0.0490 0.4150
v 0.5500 0.0610 0.4150
v 0.5500 0.0610 0.3850
v 0.5500 0.0490 0.3850
f 172/15 171/15 170/15 169/15
v -0.8500 0.0490 0.3850
v -0.8500 0.0610 0.3850
v -0.8500 0.0610 0.4150
v -0.8500 0.0490 0.4150
f 176/15 175/15 174/15 173/15
v 0.5500 0.0490 0.3850
v -0.8500 0.0490 0.3850
v -0.8500 0.0490 0.4150
v 0.5500 0.0490 0.4150
f 180/15 179/15 178/15 177/15
v 0.5500 0.0610 0.4150
v -0.8500 0.0610 0.4150
v -0.8500 0.0610 0.3850
v 0.5500 0.0610 0.3850
f 184/15 183/15 182/15 181/15
v 0.5500 0.0610 0.3850
v -0.8500 0.0610 0.3850
v -0.8500 0.0490 0.3850
v 0.5500 0.0490 0.3850
f 188/15 187/15 186/15 185/15
v 0.5500 0.0490 0.4150
v -0.8500 0.0490 0.4150
v -0.8500 0.0610 0.4150
v 0.5500 0.0610 0.4150
f 192/15 191/15 190/15 189/15
v 0.5500 0.0490 0.6150
v 0.5500 0.0610 0.6150
v 0.5500 0.0610 0.5850
v 0.5500 0.0490 0.5850
f 196/15 195/15 194/15 193/15
v -0.8500 0.0490 0.5850
v -0.8500 0.0610 0.5850
v -0.8500 0.0610 0.6150
v -0.8500 0.0490 0.6150
f 200/15 199/15 198/15 197/15
v 0.5500 0.0490 0.5850
v -0.8500 0.0490 0.5850
v -0.8500 0.0490 0.6150
v 0.5500 0.0490 0.6150
f 204/15 203/15 202/15 201/15
v 0.5500 0.0610 0.6150
v -0.8500 0.0610 0.6150
v -0.8500 0.0610 0.5850
v 0.5500 0.0610 0.5850
f 208/15 207/15 206/15 205/15
v 0.5500 0.0610 0.5850
v -0.8500 0.0610 0.5850
v -0.8500 0.0490 0.5850
v 0.5500 0.0490 0.5850
f 212/15 211/15 210/15 209/15
v 0.5500 0.0490 0.6150
v -0.8500 0.0490 0.6150
v -0.8500 0.0610 0.6150
v 0.5500 0.0610 0.6150
f 216/15 215/15 214/15 213/15
v 0.5500 0.0490 0.8150
v 0.5500 0.0610 0.8150
v 0.5500 0.0610 0.7850
v 0.5500 0.0490 0.7850
f 220/15 219/15 218/15 217/15
v -0.8500 0.0490 0.7850
v -0.8500 0.0610 0.7850
v -0.8500 0.0610 0.8150
v -0.8500 0.0490 0.8150
f 224/15 223/15 222/15 221/15
v 0.5500 0.0490 0.7850
v -0.8500 0.0490 0.7850
v -0.8500 0.0490 0.8150
v 0.5500 0.0490 0.8150
f 228/15 227/15 226/15 225/15
v 0.5500 0.0610 0.8150
v -0.8500 0.0610 0.8150
v -0.8500 0.0610 0.7850
v 0.5500 0.0610 0.7850
f 232/15 231/15 230/15 229/15
v 0.5500 0.0610 0.7850
v -0.8500 0.0610 0.7850
v -0.8500 0.0490 0.7850
v 0.5500 0.0490 0.7850
f 236/15 235/15 234/15 233/15
v 0.5500 0.0490 0.8150
v -0.8500 0.0490 0.8150
v -0.8500 0.0610 0.8150
v 0.5500 0.0610 0.8150
f 240/15 239/15 238/15 237/15
v 0.4500 0.3960 0.3500
v 0.3820 0.3327 0.5982
v 0.1748 0.3327 0.4604
f 243/11 242/11 241/11
v 0.4500 0.3960 0.3500
v 0.6405 0.3327 0.5490
v 0.3820 0.3327 0.5982
f 246/11 245/11 244/11
v 0.4500 0.3960 0.3500
v 0.7555 0.3327 0.3500
v 0.6405 0.3327 0.5490
f 249/11 248/11 247/11
v 0.4500 0.3960 0.3500
v 0.6405 0.3327 0.1510
v 0.7555 0.3327 0.3500
f 252/11 251/11 250/11
v 0.4500 0.3960 0.3500
v 0.3820 0.3327 0.1018
v 0.6405 0.3327 0.1510
f 255/11 254/11 253/11
v 0.4500 0.3960 0.3500
v 0.1748 0.3327 0.2396
v 0.3820 0.3327 0.1018
f 258/11 257/11 256/11
v 0.4500 0.3960 0.3500
v 0.1748 0.3327 0.4604
v 0.1748 0.3327 0.2396
f 261/11 260/11 259/11
v 0.1748 0.3327 0.4604
v 0.3820 0.3327 0.5982
v 0.1807 0.1800 0.6315
v 0.0180 0.1800 0.3500
f 265/11 264/11 263/11 262/11
v 0.3820 0.3327 0.5982
v 0.6405 0.3327 0.5490
v 0.5461 0.1800 0.7010
v 0.1807 0.1800 0.6315
f 269/11 268/11 267/11 266/11
v 0.6405 0.3327 0.5490
v 0.7555 0.3327 0.3500
v 0.8392 0.1800 0.5062
v 0.5461 0.1800 0.7010
f 273/11 272/11 271/11 270/11
v 0.7555 0.3327 0.3500
v 0.6405 0.3327 0.1510
v 0.8392 0.1800 0.1938
v 0.8392 0.1800 0.5062
f 277/11 276/11 275/11 274/11
v 0.6405 0.3327 0.1510
v 0.3820 0.3327 0.1018
v 0.5461 0.1800 -0.0010
v 0.8392 0.1800 0.1938
f 281/11 280/11 279/11 278/11
v 0.3820 0.3327 0.1018
v 0.1748 0.3327 0.2396
v 0.1807 0.1800 0.0685
v 0.5461 0.1800 -0.0010
f 285/11 284/11 283/11 282/11
v 0.1748 0.3327 0.2396
v 0.1748 0.3327 0.4604
v 0.0180 0.1800 0.3500
v 0.1807 0.1800 0.0685
f 289/11 288/11 287/11 286/11
v 0.0180 0.1800 0.3500
v 0.1807 0.1800 0.6315
v 0.3820 0.0273 0.5982
v 0.1748 0.0273 0.4604
f 293/11 292/11 291/11 290/11
v 0.1807 0.1800 0.6315
v 0.5461 0.1800 0.7010
v 0.6405 0.0273 0.5490
v 0.3820 0.0273 0.5982
f 297/11 296/11 295/11 294/11
v 0.5461 0.1800 0.7010
v 0.8392 0.1800 0.5062
v 0.7555 0.0273 0.3500
v 0.6405 0.0273 0.5490
f 301/11 300/11 299/11 298/11
v 0.8392 0.1800 0.5062
v 0.8392 0.1800 0.1938
v 0.6405 0.0273 0.1510
v 0.7555 0.0273 0.3500
f 305/11 304/11 303/11 302/11
v 0.8392 0.1800 0.1938
v 0.5461 0.1800 -0.0010
v 0.3820 0.0273 0.1018
v 0.6405 0.0273 0.1510
f 309/11 308/11 307/11 306/11
v 0.5461 0.1800 -0.0010
v 0.1807 0.1800 0.0685
v 0.1748 0.0273 0.2396
v 0.3820 0.0273 0.1018
f 313/11 312/11 311/11 310/11
v 0.1807 0.1800 0.0685
v 0.0180 0.1800 0.3500
v 0.1748 0.0273 0.4604
v 0.1748 0.0273 0.2396
f 317/11 316/11 315/11 314/11
v 0.1748 0.0273 0.4604
v 0.3820 0.0273 0.5982
v 0.4500 -0.0360 0.3500
f 320/11 319/11 318/11
v 0.3820 0.0273 0.5982
v 0.6405 0.0273 0.5490
v 0.4500 -0.0360 0.3500
f 323/11 322/11 321/11
v 0.6405 0.0273 0.5490
v 0.7555 0.0273 0.3500
v 0.4500 -0.0360 0.3500
f 326/11 325/11 324/11
v 0.7555 0.0273 0.3500
v 0.6405 0.0273 0.1510
v 0.4500 -0.0360 0.3500
f 329/11 328/11 327/11
v 0.6405 0.0273 0.1510
v 0.3820 0.0273 0.1018
v 0.4500 -0.0360 0.3500
f 332/11 331/11 330/11
v 0.3820 0.0273 0.1018
v 0.1748 0.0273 0.2396
v 0.4500 -0.0360 0.3500
f 335/11 334/11 333/11
v 0.1748 0.0273 0.2396
v 0.1748 0.0273 0.4604
v 0.4500 -0.0360 0.3500
f 338/11 337/11 336/11
v -0.4000 0.5350 -0.3500
v -0.4661 0.4427 -0.0605
v -0.6676 0.4427 -0.2211
f 341/11 340/11 339/11
v -0.4000 0.5350 -0.3500
v -0.2148 0.4427 -0.1178
v -0.4661 0.4427 -0.0605
f 344/11 343/11 342/11
v -0.4000 0.5350 -0.3500
v -0.1030 0.4427 -0.3500
v -0.2148 0.4427 -0.1178
f 347/11 346/11 345/11
v -0.4000 0.5350 -0.3500
v -0.2148 0.4427 -0.5822
v -0.1030 0.4427 -0.3500
f 350/11 349/11 348/11
v -0.4000 0.5350 -0.3500
v -0.4661 0.4427 -0.6395
v -0.2148 0.4427 -0.5822
f 353/11 352/11 351/11
v -0.4000 0.5350 -0.3500
v -0.6676 0.4427 -0.4789
v -0.4661 0.4427 -0.6395
f 356/11 355/11 354/11
v -0.4000 0.5350 -0.3500
v -0.6676 0.4427 -0.2211
v -0.6676 0.4427 -0.4789
f 359/11 358/11 357/11
v -0.6676 0.4427 -0.2211
v -0.4661 0.4427 -0.0605
v -0.6619 0.2200 -0.0216
v -0.8200 0.2200 -0.3500
f 363/11 362/11 361/11 360/11
v -0.4661 0.4427 -0.0605
v -0.2148 0.4427 -0.1178
v -0.3065 0.2200 0.0595
v -0.6619 0.2200 -0.0216
f 367/11 366/11 365/11 364/11
v -0.2148 0.4427 -0.1178
v -0.1030 0.4427 -0.3500
v -0.0216 0.2200 -0.1678
v -0.3065 0.2200 0.0595
f 371/11 370/11 369/11 368/11
v -0.1030 0.4427 -0.3500
v -0.2148 0.4427 -0.5822
v -0.0216 0.2200 -0.5322
v -0.0216 0.2200 -0.1678
f 375/11 374/11 373/11 372/11
v -0.2148 0.4427 -0.5822
v -0.4661 0.4427 -0.6395
v -0.3065 0.2200 -0.7595
v -0.0216 0.2200 -0.5322
f 379/11 378/11 377/11 376/11
v -0.4661 0.4427 -0.6395
v -0.6676 0.4427 -0.4789
v -0.6619 0.2200 -0.6784
v -0.3065 0.2200 -0.7595
f 383/11 382/11 381/11 380/11
v -0.6676 0.4427 -0.4789
v -0.6676 0.4427 -0.2211
v -0.8200 0.2200 -0.3500
v -0.6619 0.2200 -0.6784
f 387/11 386/11 385/11 384/11
v -0.8200 0.2200 -0.3500
v -0.6619 0.2200 -0.0216
v -0.4661 -0.0027 -0.0605
v -0.6676 -0.0027 -0.2211
f 391/11 390/11 389/11 388/11
v -0.6619 0.2200 -0.0216
v -0.3065 0.2200 0.0595
v -0.2148 -0.0027 -0.1178
v -0.4661 -0.0027 -0.0605
f 395/11 394/11 393/11 392/11
v -0.3065 0.2200 0.0595
v -0.0216 0.2200 -0.1678
v -0.1030 -0.0027 -0.3500
v -0.2148 -0.0027 -0.1178
f 399/11 398/11 397/11 396/11
v -0.0216 0.2200 -0.1678
v -0.0216 0.2200 -0.5322
v -0.2148 -0.0027 -0.5822
v -0.1030 -0.0027 -0.3500
f 403/11 402/11 401/11 400/11
v -0.0216 0.2200 -0.5322
v -0.3065 0.2200 -0.7595
v -0.4661 -0.0027 -0.6395
v -0.2148 -0.0027 -0.5822
f 407/11 406/11 405/11 404/11
v -0.3065 0.2200 -0.7595
v -0.6619 0.2200 -0.6784
v -0.6676 -0.0027 -0.4789
v -0.4661 -0.0027 -0.6395
f 411/11 410/11 409/11 408/11
v -0.6619 0.2200 -0.6784
v -0.8200 0.2200 -0.3500
v -0.6676 -0.0027 -0.2211
v -0.6676 -0.0027 -0.4789
f 415/11 414/11 413/11 412/11
v -0.6676 -0.0027 -0.2211
v -0.4661 -0.0027 -0.0605
v -0.4000 -0.0950 -0.3500
f 418/11 417/11 416/11
v -0.4661 -0.0027 -0.0605
v -0.2148 -0.0027 -0.1178
v -0.4000 -0.0950 -0.3500
f 421/11 420/11 419/11
v -0.2148 -0.0027 -0.1178
v -0.1030 -0.0027 -0.3500
v -0.4000 -0.0950 -0.3500
f 424/11 423/11 422/11
v -0.1030 -0.0027 -0.3500
v -0.2148 -0.0027 -0.5822
v -0.4000 -0.0950 -0.3500
f 427/11 426/11 425/11
v -0.2148 -0.0027 -0.5822
v -0.4661 -0.0027 -0.6395
v -0.4000 -0.0950 -0.3500
f 430/11 429/11 428/11
v -0.4661 -0.0027 -0.6395
v -0.6676 -0.0027 -0.4789
v -0.4000 -0.0950 -0.3500
f 433/11 432/11 431/11
v -0.6676 -0.0027 -0.4789
v -0.6676 -0.0027 -0.2211
v -0.4000 -0.0950 -0.3500
f 436/11 435/11 434/11
v -0.6000 0.2200 0.5000
v -0.6000 0.1600 0.6732
v -0.7500 0.1600 0.5866
f 439/6 438/6 437/6
v -0.6000 0.2200 0.5000
v -0.4500 0.1600 0.5866
v -0.6000 0.1600 0.6732
f 442/6 441/6 440/6
v -0.6000 0.2200 0.5000
v -0.4500 0.1600 0.4134
v -0.4500 0.1600 0.5866
f 445/6 444/6 443/6
v -0.6000 0.2200 0.5000
v -0.6000 0.1600 0.3268
v -0.4500 0.1600 0.4134
f 448/6 447/6 446/6
v -0.6000 0.2200 0.5000
v -0.7500 0.1600 0.4134
v -0.6000 0.1600 0.3268
f 451/6 450/6 449/6
v -0.6000 0.2200 0.5000
v -0.7500 0.1600 0.5866
v -0.7500 0.1600 0.4134
f 454/6 453/6 452/6
v -0.7500 0.1600 0.5866
v -0.6000 0.1600 0.6732
v -0.6866 0.0400 0.6500
v -0.7732 0.0400 0.5000
f 458/6 457/6 456/6 455/6
v -0.6000 0.1600 0.6732
v -0.4500 0.1600 0.5866
v -0.5134 0.0400 0.6500
v -0.6866 0.0400 0.6500
f 462/6 461/6 460/6 459/6
v -0.4500 0.1600 0.5866
v -0.4500 0.1600 0.4134
v -0.4268 0.0400 0.5000
v -0.5134 0.0400 0.6500
f 466/6 465/6 464/6 463/6
v -0.4500 0.1600 0.4134
v -0.6000 0.1600 0.3268
v -0.5134 0.0400 0.3500
v -0.4268 0.0400 0.5000
f 470/6 469/6 468/6 467/6
v -0.6000 0.1600 0.3268
v -0.7500 0.1600 0.4134
v -0.6866 0.0400 0.3500
v -0.5134 0.0400 0.3500
f 474/6 473/6 472/6 471/6
v -0.7500 0.1600 0.4134
v -0.7500 0.1600 0.5866
v -0.7732 0.0400 0.5000
v -0.6866 0.0400 0.3500
f 478/6 477/6 476/6 475/6
v -0.7732 0.0400 0.5000
v -0.6866 0.0400 0.6500
v -0.6000 -0.0200 0.5000
f 481/6 480/6 479/6
v -0.6866 0.0400 0.6500
v -0.5134 0.0400 0.6500
v -0.6000 -0.0200 0.5000
f 484/6 483/6 482/6
v -0.5134 0.0400 0.6500
v -0.4268 0.0400 0.5000
v -0.6000 -0.0200 0.5000
f 487/6 486/6 485/6
v -0.4268 0.0400 0.5000
v -0.5134 0.0400 0.3500
v -0.6000 -0.0200 0.5000
f 490/6 489/6 488/6
v -0.5134 0.0400 0.3500
v -0.6866 0.0400 0.3500
v -0.6000 -0.0200 0.5000
f 493/6 492/6 491/6
v -0.6866 0.0400 0.3500
v -0.7732 0.0400 0.5000
v -0.6000 -0.0200 0.5000
f 496/6 495/6 494/6
v 0.5500 0.2520 -0.5000
v 0.5500 0.1860 -0.3095
v 0.3850 0.1860 -0.4047
f 499/11 498/11 497/11
v 0.5500 0.2520 -0.5000
v 0.7150 0.1860 -0.4047
v 0.5500 0.1860 -0.3095
f 502/11 501/11 500/11
v 0.5500 0.2520 -0.5000
v 0.7150 0.1860 -0.5953
v 0.7150 0.1860 -0.4047
f 505/11 504/11 503/11
v 0.5500 0.2520 -0.5000
v 0.5500 0.1860 -0.6905
v 0.7150 0.1860 -0.5953
f 508/11 507/11 506/11
v 0.5500 0.2520 -0.5000
v 0.3850 0.1860 -0.5953
v 0.5500 0.1860 -0.6905
f 511/11 510/11 509/11
v 0.5500 0.2520 -0.5000
v 0.3850 0.1860 -0.4047
v 0.3850 0.1860 -0.5953
f 514/11 513/11 512/11
v 0.3850 0.1860 -0.4047
v 0.5500 0.1860 -0.3095
v 0.4547 0.0540 -0.3350
v 0.3595 0.0540 -0.5000
f 518/11 517/11 516/11 515/11
v 0.5500 0.1860 -0.3095
v 0.7150 0.1860 -0.4047
v 0.6453 0.0540 -0.3350
v 0.4547 0.0540 -0.3350
f 522/11 521/11 520/11 519/11
v 0.7150 0.1860 -0.4047
v 0.7150 0.1860 -0.5953
v 0.7405 0.0540 -0.5000
v 0.6453 0.0540 -0.3350
f 526/11 525/11 524/11 523/11
v 0.7150 0.1860 -0.5953
v 0.5500 0.1860 -0.6905
v 0.6453 0.0540 -0.6650
v 0.7405 0.0540 -0.5000
f 530/11 529/11 528/11 527/11
v 0.5500 0.1860 -0.6905
v 0.3850 0.1860 -0.5953
v 0.4547 0.0540 -0.6650
v 0.6453 0.0540 -0.6650
f 534/11 533/11 532/11 531/11
v 0.3850 0.1860 -0.5953
v 0.3850 0.1860 -0.4047
v 0.3595 0.0540 -0.5000
v 0.4547 0.0540 -0.6650
f 538/11 537/11 536/11 535/11
v 0.3595 0.0540 -0.5000
v 0.4547 0.0540 -0.3350
v 0.5500 -0.0120 -0.5000
f 541/11 540/11 539/11
v 0.4547 0.0540 -0.3350
v 0.6453 0.0540 -0.3350
v 0.5500 -0.0120 -0.5000
f 544/11 543/11 542/11
v 0.6453 0.0540 -0.3350
v 0.7405 0.0540 -0.5000
v 0.5500 -0.0120 -0.5000
f 547/11 546/11 545/11
v 0.7405 0.0540 -0.5000
v 0.6453 0.0540 -0.6650
v 0.5500 -0.0120 -0.5000
f 550/11 549/11 548/11
v 0.6453 0.0540 -0.6650
v 0.4547 0.0540 -0.6650
v 0.5500 -0.0120 -0.5000
f 553/11 552/11 551/11
v 0.4547 0.0540 -0.6650
v 0.3595 0.0540 -0.5000
v 0.5500 -0.0120 -0.5000
f 556/11 555/11 554/11
v -0.0500 0.3350 0.6500
v -0.0893 0.2837 0.8223
v -0.2093 0.2837 0.7267
f 559/20 558/20 557/20
v -0.0500 0.3350 0.6500
v 0.0602 0.2837 0.7882
v -0.0893 0.2837 0.8223
f 562/20 561/20 560/20
v -0.0500 0.3350 0.6500
v 0.1268 0.2837 0.6500
v 0.0602 0.2837 0.7882
f 565/20 564/20 563/20
v -0.0500 0.3350 0.6500
v 0.0602 0.2837 0.5118
v 0.1268 0.2837 0.6500
f 568/20 567/20 566/20
v -0.0500 0.3350 0.6500
v -0.0893 0.2837 0.4777
v 0.0602 0.2837 0.5118
f 571/20 570/20 569/20
v -0.0500 0.3350 0.6500
v -0.2093 0.2837 0.5733
v -0.0893 0.2837 0.4777
f 574/20 573/20 572/20
v -0.0500 0.3350 0.6500
v -0.2093 0.2837 0.7267
v -0.2093 0.2837 0.5733
f 577/20 576/20 575/20
v -0.2093 0.2837 0.7267
v -0.0893 0.2837 0.8223
v -0.2059 0.1600 0.8455
v -0.3000 0.1600 0.6500
f 581/20 580/20 579/20 578/20
v -0.0893 0.2837 0.8223
v 0.0602 0.2837 0.7882
v 0.0056 0.1600 0.8937
v -0.2059 0.1600 0.8455
f 585/20 584/20 583/20 582/20
v 0.0602 0.2837 0.7882
v 0.1268 0.2837 0.6500
v 0.1752 0.1600 0.7585
v 0.0056 0.1600 0.8937
f 589/20 588/20 587/20 586/20
v 0.1268 0.2837 0.6500
v 0.0602 0.2837 0.5118
v 0.1752 0.1600 0.5415
v 0.1752 0.1600 0.7585
f 593/20 592/20 591/20 590/20
v 0.0602 0.2837 0.5118
v -0.0893 0.2837 0.4777
v 0.0056 0.1600 0.4063
v 0.1752 0.1600 0.5415
f 597/20 596/20 595/20 594/20
v -0.0893 0.2837 0.4777
v -0.2093 0.2837 0.5733
v -0.2059 0.1600 0.4545
v 0.0056 0.1600 0.4063
f 601/20 600/20 599/20 598/20
v -0.2093 0.2837 0.5733
v -0.2093 0.2837 0.7267
v -0.3000 0.1600 0.6500
v -0.2059 0.1600 0.4545
f 605/20 604/20 603/20 602/20
v -0.3000 0.1600 0.6500
v -0.2059 0.1600 0.8455
v -0.0893 0.0363 0.8223
v -0.2093 0.0363 0.7267
f 609/20 608/20 607/20 606/20
v -0.2059 0.1600 0.8455
v 0.0056 0.1600 0.8937
v 0.0602 0.0363 0.7882
v -0.0893 0.0363 0.8223
f 613/20 612/20 611/20 610/20
v 0.0056 0.1600 0.8937
v 0.1752 0.1600 0.7585
v 0.1268 0.0363 0.6500
v 0.0602 0.0363 0.7882
f 617/20 616/20 615/20 614/20
v 0.1752 0.1600 0.7585
v 0.1752 0.1600 0.5415
v 0.0602 0.0363 0.5118
v 0.1268 0.0363 0.6500
f 621/20 620/20 619/20 618/20
v 0.1752 0.1600 0.5415
v 0.0056 0.1600 0.4063
v -0.0893 0.0363 0.4777
v 0.0602 0.0363 0.5118
f 625/20 624/20 623/20 622/20
v 0.0056 0.1600 0.4063
v -0.2059 0.1600 0.4545
v -0.2093 0.0363 0.5733
v -0.0893 0.0363 0.4777
f 629/20 628/20 627/20 626/20
v -0.2059 0.1600 0.4545
v -0.3000 0.1600 0.6500
v -0.2093 0.0363 0.7267
v -0.2093 0.0363 0.5733
f 633/20 632/20 631/20 630/20
v -0.2093 0.0363 0.7267
v -0.0893 0.0363 0.8223
v -0.0500 -0.0150 0.6500
f 636/20 635/20 634/20
v -0.0893 0.0363 0.8223
v 0.0602 0.0363 0.7882
v -0.0500 -0.0150 0.6500
f 639/20 638/20 637/20
v 0.0602 0.0363 0.7882
v 0.1268 0.0363 0.6500
v -0.0500 -0.0150 0.6500
f 642/20 641/20 640/20
v 0.1268 0.0363 0.6500
v 0.0602 0.0363 0.5118
v -0.0500 -0.0150 0.6500
f 645/20 644/20 643/20
v 0.0602 0.0363 0.5118
v -0.0893 0.0363 0.4777
v -0.0500 -0.0150 0.6500
f 648/20 647/20 646/20
v -0.0893 0.0363 0.4777
v -0.2093 0.0363 0.5733
v -0.0500 -0.0150 0.6500
f 651/20 650/20 649/20
v -0.2093 0.0363 0.5733
v -0.2093 0.0363 0.7267
v -0.0500 -0.0150 0.6500
f 654/20 653/20 652/20
v 0.7000 0.2800 -0.0500
v 0.6685 0.2390 0.0879
v 0.5726 0.2390 0.0114
f 657/21 656/21 655/21
v 0.7000 0.2800 -0.0500
v 0.7882 0.2390 0.0606
v 0.6685 0.2390 0.0879
f 660/21 659/21 658/21
v 0.7000 0.2800 -0.0500
v 0.8414 0.2390 -0.0500
v 0.7882 0.2390 0.0606
f 663/21 662/21 661/21
v 0.7000 0.2800 -0.0500
v 0.7882 0.2390 -0.1606
v 0.8414 0.2390 -0.0500
f 666/21 665/21 664/21
v 0.7000 0.2800 -0.0500
v 0.6685 0.2390 -0.1879
v 0.7882 0.2390 -0.1606
f 669/21 668/21 667/21
v 0.7000 0.2800 -0.0500
v 0.5726 0.2390 -0.1114
v 0.6685 0.2390 -0.1879
f 672/21 671/21 670/21
v 0.7000 0.2800 -0.0500
v 0.5726 0.2390 0.0114
v 0.5726 0.2390 -0.1114
f 675/21 674/21 673/21
v 0.5726 0.2390 0.0114
v 0.6685 0.2390 0.0879
v 0.5753 0.1400 0.1064
v 0.5000 0.1400 -0.0500
f 679/21 678/21 677/21 676/21
v 0.6685 0.2390 0.0879
v 0.7882 0.2390 0.0606
v 0.7445 0.1400 0.1450
v 0.5753 0.1400 0.1064
f 683/21 682/21 681/21 680/21
v 0.7882 0.2390 0.0606
v 0.8414 0.2390 -0.0500
v 0.8802 0.1400 0.0368
v 0.7445 0.1400 0.1450
f 687/21 686/21 685/21 684/21
v 0.8414 0.2390 -0.0500
v 0.7882 0.2390 -0.1606
v 0.8802 0.1400 -0.1368
v 0.8802 0.1400 0.0368
f 691/21 690/21 689/21 688/21
v 0.7882 0.2390 -0.1606
v 0.6685 0.2390 -0.1879
v 0.7445 0.1400 -0.2450
v 0.8802 0.1400 -0.1368
f 695/21 694/21 693/21 692/21
v 0.6685 0.2390 -0.1879
v 0.5726 0.2390 -0.1114
v 0.5753 0.1400 -0.2064
v 0.7445 0.1400 -0.2450
f 699/21 698/21 697/21 696/21
v 0.5726 0.2390 -0.1114
v 0.5726 0.2390 0.0114
v 0.5000 0.1400 -0.0500
v 0.5753 0.1400 -0.2064
f 703/21 702/21 701/21 700/21
v 0.5000 0.1400 -0.0500
v 0.5753 0.1400 0.1064
v 0.6685 0.0410 0.0879
v 0.5726 0.0410 0.0114
f 707/21 706/21 705/21 704/21
v 0.5753 0.1400 0.1064
v 0.7445 0.1400 0.1450
v 0.7882 0.0410 0.0606
v 0.6685 0.0410 0.0879
f 711/21 710/21 709/21 708/21
v 0.7445 0.1400 0.1450
v 0.8802 0.1400 0.0368
v 0.8414 0.0410 -0.0500
v 0.7882 0.0410 0.0606
f 715/21 714/21 713/21 712/21
v 0.8802 0.1400 0.0368
v 0.8802 0.1400 -0.1368
v 0.7882 0.0410 -0.1606
v 0.8414 0.0410 -0.0500
f 719/21 718/21 717/21 716/21
v 0.8802 0.1400 -0.1368
v 0.7445 0.1400 -0.2450
v 0.6685 0.0410 -0.1879
v 0.7882 0.0410 -0.1606
f 723/21 722/21 721/21 720/21
v 0.7445 0.1400 -0.2450
v 0.5753 0.1400 -0.2064
v 0.5726 0.0410 -0.1114
v 0.6685 0.0410 -0.1879
f 727/21 726/21 725/21 724/21
v 0.5753 0.1400 -0.2064
v 0.5000 0.1400 -0.0500
v 0.5726 0.0410 0.0114
v 0.5726 0.0410 -0.1114
f 731/21 730/21 729/21 728/21
v 0.5726 0.0410 0.0114
v 0.6685 0.0410 0.0879
v 0.7000 0.0000 -0.0500
f 734/21 733/21 732/21
v 0.6685 0.0410 0.0879
v 0.7882 0.0410 0.0606
v 0.7000 0.0000 -0.0500
f 737/21 736/21 735/21
v 0.7882 0.0410 0.0606
v 0.8414 0.0410 -0.0500
v 0.7000 0.0000 -0.0500
f 740/21 739/21 738/21
v 0.8414 0.0410 -0.0500
v 0.7882 0.0410 -0.1606
v 0.7000 0.0000 -0.0500
f 743/21 742/21 741/21
v 0.7882 0.0410 -0.1606
v 0.6685 0.0410 -0.1879
v 0.7000 0.0000 -0.0500
f 746/21 745/21 744/21
v 0.6685 0.0410 -0.1879
v 0.5726 0.0410 -0.1114
v 0.7000 0.0000 -0.0500
f 749/21 748/21 747/21
v 0.5726 0.0410 -0.1114
v 0.5726 0.0410 0.0114
v 0.7000 0.0000 -0.0500
f 752/21 751/21 750/21
v -0.7900 0.0500 -0.6807
v -0.8300 0.0500 -0.7500
v -0.8300 0.3000 -0.7500
v -0.7900 0.3000 -0.6807
f 756/11 755/11 754/11 753/11
v -0.8300 0.0500 -0.7500
v -0.7900 0.0500 -0.8193
v -0.7900 0.3000 -0.8193
v -0.8300 0.3000 -0.7500
f 760/11 759/11 758/11 757/11
v -0.7900 0.0500 -0.8193
v -0.7100 0.0500 -0.8193
v -0.7100 0.3000 -0.8193
v -0.7900 0.3000 -0.8193
f 764/11 763/11 762/11 761/11
v -0.7100 0.0500 -0.8193
v -0.6700 0.0500 -0.7500
v -0.6700 0.3000 -0.7500
v -0.7100 0.3000 -0.8193
f 768/11 767/11 766/11 765/11
v -0.6700 0.0500 -0.7500
v -0.7100 0.0500 -0.6807
v -0.7100 0.3000 -0.6807
v -0.6700 0.3000 -0.7500
f 772/11 771/11 770/11 769/11
v -0.7100 0.0500 -0.6807
v -0.7900 0.0500 -0.6807
v -0.7900 0.3000 -0.6807
v -0.7100 0.3000 -0.6807
f 776/11 775/11 774/11 773/11
v -0.7100 0.0500 -0.6807
v -0.6700 0.0500 -0.7500
v -0.7100 0.0500 -0.8193
v -0.7900 0.0500 -0.8193
v -0.8300 0.0500 -0.7500
v -0.7900 0.0500 -0.6807
f 782/11 781/11 780/11 779/11 778/11 777/11
v -0.7900 0.3000 -0.6807
v -0.8300 0.3000 -0.7500
v -0.7900 0.3000 -0.8193
v -0.7100 0.3000 -0.8193
v -0.6700 0.3000 -0.7500
v -0.7100 0.3000 -0.6807
f 788/11 787/11 786/11 785/11 784/11 783/11
v -0.8150 0.3000 -0.6374
v -0.8800 0.3000 -0.7500
v -0.7900 0.3500 -0.7500
v -0.7700 0.3500 -0.7154
f 792/11 791/11 790/11 789/11
v -0.8800 0.3000 -0.7500
v -0.8150 0.3000 -0.8626
v -0.7700 0.3500 -0.7846
v -0.7900 0.3500 -0.7500
f 796/11 795/11 794/11 793/11
v -0.8150 0.3000 -0.8626
v -0.6850 0.3000 -0.8626
v -0.7300 0.3500 -0.7846
v -0.7700 0.3500 -0.7846
f 800/11 799/11 798/11 797/11
v -0.6850 0.3000 -0.8626
v -0.6200 0.3000 -0.7500
v -0.7100 0.3500 -0.7500
v -0.7300 0.3500 -0.7846
f 804/11 803/11 802/11 801/11
v -0.6200 0.3000 -0.7500
v -0.6850 0.3000 -0.6374
v -0.7300 0.3500 -0.7154
v -0.7100 0.3500 -0.7500
f 808/11 807/11 806/11 805/11
v -0.6850 0.3000 -0.6374
v -0.8150 0.3000 -0.6374
v -0.7700 0.3500 -0.7154
v -0.7300 0.3500 -0.7154
f 812/11 811/11 810/11 809/11
v -0.6850 0.3000 -0.6374
v -0.6200 0.3000 -0.7500
v -0.6850 0.3000 -0.8626
v -0.8150 0.3000 -0.8626
v -0.8800 0.3000 -0.7500
v -0.8150 0.3000 -0.6374
f 818/11 817/11 816/11 815/11 814/11 813/11
v -0.7700 0.3500 -0.7154
v -0.7900 0.3500 -0.7500
v -0.7700 0.3500 -0.7846
v -0.7300 0.3500 -0.7846
v -0.7100 0.3500 -0.7500
v -0.7300 0.3500 -0.7154
f 824/11 823/11 822/11 821/11 820/11 819/11
