# Walk of Industry low-poly (generated, wi_lib.py)
mtllib wi.mtl
vt 0 0
vt 0.03125 0.03125
vt 0.09375 0.03125
vt 0.15625 0.03125
vt 0.21875 0.03125
vt 0.28125 0.03125
vt 0.34375 0.03125
vt 0.40625 0.03125
vt 0.46875 0.03125
vt 0.53125 0.03125
vt 0.59375 0.03125
vt 0.65625 0.03125
vt 0.71875 0.03125
vt 0.78125 0.03125
vt 0.84375 0.03125
vt 0.90625 0.03125
vt 0.96875 0.03125
vt 0.03125 0.09375
vt 0.09375 0.09375
vt 0.15625 0.09375
vt 0.21875 0.09375
vt 0.28125 0.09375
vt 0.34375 0.09375
vt 0.40625 0.09375
vt 0.46875 0.09375
vt 0.53125 0.09375
vt 0.59375 0.09375
vt 0.65625 0.09375
vt 0.71875 0.09375
vt 0.78125 0.09375
vt 0.84375 0.09375
vt 0.90625 0.09375
vt 0.96875 0.09375
o Body
usemtl wi_paint
v -0.3635 1.7500 0.8777
v -0.8777 1.7500 0.3635
v -0.0462 2.0700 0.0191
v -0.0191 2.0700 0.0462
f 4/1 3/1 2/1 1/1
v -0.8777 1.7500 0.3635
v -0.8777 1.7500 -0.3635
v -0.0462 2.0700 -0.0191
v -0.0462 2.0700 0.0191
f 8/1 7/1 6/1 5/1
v -0.8777 1.7500 -0.3635
v -0.3635 1.7500 -0.8777
v -0.0191 2.0700 -0.0462
v -0.0462 2.0700 -0.0191
f 12/1 11/1 10/1 9/1
v -0.3635 1.7500 -0.8777
v 0.3635 1.7500 -0.8777
v 0.0191 2.0700 -0.0462
v -0.0191 2.0700 -0.0462
f 16/1 15/1 14/1 13/1
v 0.3635 1.7500 -0.8777
v 0.8777 1.7500 -0.3635
v 0.0462 2.0700 -0.0191
v 0.0191 2.0700 -0.0462
f 20/1 19/1 18/1 17/1
v 0.8777 1.7500 -0.3635
v 0.8777 1.7500 0.3635
v 0.0462 2.0700 0.0191
v 0.0462 2.0700 -0.0191
f 24/1 23/1 22/1 21/1
v 0.8777 1.7500 0.3635
v 0.3635 1.7500 0.8777
v 0.0191 2.0700 0.0462
v 0.0462 2.0700 0.0191
f 28/1 27/1 26/1 25/1
v 0.3635 1.7500 0.8777
v -0.3635 1.7500 0.8777
v -0.0191 2.0700 0.0462
v 0.0191 2.0700 0.0462
f 32/1 31/1 30/1 29/1
v 0.3635 1.7500 0.8777
v 0.8777 1.7500 0.3635
v 0.8777 1.7500 -0.3635
v 0.3635 1.7500 -0.8777
v -0.3635 1.7500 -0.8777
v -0.8777 1.7500 -0.3635
v -0.8777 1.7500 0.3635
v -0.3635 1.7500 0.8777
f 40/1 39/1 38/1 37/1 36/1 35/1 34/1 33/1
v -0.0191 2.0700 0.0462
v -0.0462 2.0700 0.0191
v -0.0462 2.0700 -0.0191
v -0.0191 2.0700 -0.0462
v 0.0191 2.0700 -0.0462
v 0.0462 2.0700 -0.0191
v 0.0462 2.0700 0.0191
v 0.0191 2.0700 0.0462
f 48/1 47/1 46/1 45/1 44/1 43/1 42/1 41/1
usemtl wi_palette
v 0.6500 0.7018 0.0238
v 0.6500 0.7382 -0.0238
v 0.6500 0.0182 -0.5738
v 0.6500 -0.0182 -0.5262
f 52/22 51/22 50/22 49/22
v 0.5900 -0.0182 -0.5262
v 0.5900 0.0182 -0.5738
v 0.5900 0.7382 -0.0238
v 0.5900 0.7018 0.0238
f 56/22 55/22 54/22 53/22
v 0.6500 -0.0182 -0.5262
v 0.5900 -0.0182 -0.5262
v 0.5900 0.7018 0.0238
v 0.6500 0.7018 0.0238
f 60/22 59/22 58/22 57/22
v 0.6500 0.7382 -0.0238
v 0.5900 0.7382 -0.0238
v 0.5900 0.0182 -0.5738
v 0.6500 0.0182 -0.5738
f 64/22 63/22 62/22 61/22
v 0.6500 0.0182 -0.5738
v 0.5900 0.0182 -0.5738
v 0.5900 -0.0182 -0.5262
v 0.6500 -0.0182 -0.5262
f 68/22 67/22 66/22 65/22
v 0.6500 0.7018 0.0238
v 0.5900 0.7018 0.0238
v 0.5900 0.7382 -0.0238
v 0.6500 0.7382 -0.0238
f 72/22 71/22 70/22 69/22
v 0.5900 0.7018 -0.0238
v 0.5900 0.7382 0.0238
v 0.5900 0.0182 0.5738
v 0.5900 -0.0182 0.5262
f 76/22 75/22 74/22 73/22
v 0.6500 -0.0182 0.5262
v 0.6500 0.0182 0.5738
v 0.6500 0.7382 0.0238
v 0.6500 0.7018 -0.0238
f 80/22 79/22 78/22 77/22
v 0.5900 -0.0182 0.5262
v 0.6500 -0.0182 0.5262
v 0.6500 0.7018 -0.0238
v 0.5900 0.7018 -0.0238
f 84/22 83/22 82/22 81/22
v 0.5900 0.7382 0.0238
v 0.6500 0.7382 0.0238
v 0.6500 0.0182 0.5738
v 0.5900 0.0182 0.5738
f 88/22 87/22 86/22 85/22
v 0.5900 0.0182 0.5738
v 0.6500 0.0182 0.5738
v 0.6500 -0.0182 0.5262
v 0.5900 -0.0182 0.5262
f 92/22 91/22 90/22 89/22
v 0.5900 0.7018 -0.0238
v 0.6500 0.7018 -0.0238
v 0.6500 0.7382 0.0238
v 0.5900 0.7382 0.0238
f 96/22 95/22 94/22 93/22
v 0.6500 0.3950 0.6500
v 0.6500 0.4450 0.6500
v 0.6500 0.4450 -0.6500
v 0.6500 0.3950 -0.6500
f 100/22 99/22 98/22 97/22
v 0.5900 0.3950 -0.6500
v 0.5900 0.4450 -0.6500
v 0.5900 0.4450 0.6500
v 0.5900 0.3950 0.6500
f 104/22 103/22 102/22 101/22
v 0.6500 0.3950 -0.6500
v 0.5900 0.3950 -0.6500
v 0.5900 0.3950 0.6500
v 0.6500 0.3950 0.6500
f 108/22 107/22 106/22 105/22
v 0.6500 0.4450 0.6500
v 0.5900 0.4450 0.6500
v 0.5900 0.4450 -0.6500
v 0.6500 0.4450 -0.6500
f 112/22 111/22 110/22 109/22
v 0.6500 0.4450 -0.6500
v 0.5900 0.4450 -0.6500
v 0.5900 0.3950 -0.6500
v 0.6500 0.3950 -0.6500
f 116/22 115/22 114/22 113/22
v 0.6500 0.3950 0.6500
v 0.5900 0.3950 0.6500
v 0.5900 0.4450 0.6500
v 0.6500 0.4450 0.6500
f 120/22 119/22 118/22 117/22
v -0.5900 0.7018 0.0238
v -0.5900 0.7382 -0.0238
v -0.5900 0.0182 -0.5738
v -0.5900 -0.0182 -0.5262
f 124/22 123/22 122/22 121/22
v -0.6500 -0.0182 -0.5262
v -0.6500 0.0182 -0.5738
v -0.6500 0.7382 -0.0238
v -0.6500 0.7018 0.0238
f 128/22 127/22 126/22 125/22
v -0.5900 -0.0182 -0.5262
v -0.6500 -0.0182 -0.5262
v -0.6500 0.7018 0.0238
v -0.5900 0.7018 0.0238
f 132/22 131/22 130/22 129/22
v -0.5900 0.7382 -0.0238
v -0.6500 0.7382 -0.0238
v -0.6500 0.0182 -0.5738
v -0.5900 0.0182 -0.5738
f 136/22 135/22 134/22 133/22
v -0.5900 0.0182 -0.5738
v -0.6500 0.0182 -0.5738
v -0.6500 -0.0182 -0.5262
v -0.5900 -0.0182 -0.5262
f 140/22 139/22 138/22 137/22
v -0.5900 0.7018 0.0238
v -0.6500 0.7018 0.0238
v -0.6500 0.7382 -0.0238
v -0.5900 0.7382 -0.0238
f 144/22 143/22 142/22 141/22
v -0.6500 0.7018 -0.0238
v -0.6500 0.7382 0.0238
v -0.6500 0.0182 0.5738
v -0.6500 -0.0182 0.5262
f 148/22 147/22 146/22 145/22
v -0.5900 -0.0182 0.5262
v -0.5900 0.0182 0.5738
v -0.5900 0.7382 0.0238
v -0.5900 0.7018 -0.0238
f 152/22 151/22 150/22 149/22
v -0.6500 -0.0182 0.5262
v -0.5900 -0.0182 0.5262
v -0.5900 0.7018 -0.0238
v -0.6500 0.7018 -0.0238
f 156/22 155/22 154/22 153/22
v -0.6500 0.7382 0.0238
v -0.5900 0.7382 0.0238
v -0.5900 0.0182 0.5738
v -0.6500 0.0182 0.5738
f 160/22 159/22 158/22 157/22
v -0.6500 0.0182 0.5738
v -0.5900 0.0182 0.5738
v -0.5900 -0.0182 0.5262
v -0.6500 -0.0182 0.5262
f 164/22 163/22 162/22 161/22
v -0.6500 0.7018 -0.0238
v -0.5900 0.7018 -0.0238
v -0.5900 0.7382 0.0238
v -0.6500 0.7382 0.0238
f 168/22 167/22 166/22 165/22
v -0.5900 0.3950 0.6500
v -0.5900 0.4450 0.6500
v -0.5900 0.4450 -0.6500
v -0.5900 0.3950 -0.6500
f 172/22 171/22 170/22 169/22
v -0.6500 0.3950 -0.6500
v -0.6500 0.4450 -0.6500
v -0.6500 0.4450 0.6500
v -0.6500 0.3950 0.6500
f 176/22 175/22 174/22 173/22
v -0.5900 0.3950 -0.6500
v -0.6500 0.3950 -0.6500
v -0.6500 0.3950 0.6500
v -0.5900 0.3950 0.6500
f 180/22 179/22 178/22 177/22
v -0.5900 0.4450 0.6500
v -0.6500 0.4450 0.6500
v -0.6500 0.4450 -0.6500
v -0.5900 0.4450 -0.6500
f 184/22 183/22 182/22 181/22
v -0.5900 0.4450 -0.6500
v -0.6500 0.4450 -0.6500
v -0.6500 0.3950 -0.6500
v -0.5900 0.3950 -0.6500
f 188/22 187/22 186/22 185/22
v -0.5900 0.3950 0.6500
v -0.6500 0.3950 0.6500
v -0.6500 0.4450 0.6500
v -0.5900 0.4450 0.6500
f 192/22 191/22 190/22 189/22
v 0.8000 0.7300 -0.1700
v 0.8000 0.7700 -0.1700
v 0.8000 0.7700 -0.3100
v 0.8000 0.7300 -0.3100
f 196/22 195/22 194/22 193/22
v -0.8000 0.7300 -0.3100
v -0.8000 0.7700 -0.3100
v -0.8000 0.7700 -0.1700
v -0.8000 0.7300 -0.1700
f 200/22 199/22 198/22 197/22
v 0.8000 0.7300 -0.3100
v -0.8000 0.7300 -0.3100
v -0.8000 0.7300 -0.1700
v 0.8000 0.7300 -0.1700
f 204/22 203/22 202/22 201/22
v 0.8000 0.7700 -0.1700
v -0.8000 0.7700 -0.1700
v -0.8000 0.7700 -0.3100
v 0.8000 0.7700 -0.3100
f 208/22 207/22 206/22 205/22
v 0.8000 0.7700 -0.3100
v -0.8000 0.7700 -0.3100
v -0.8000 0.7300 -0.3100
v 0.8000 0.7300 -0.3100
f 212/22 211/22 210/22 209/22
v 0.8000 0.7300 -0.1700
v -0.8000 0.7300 -0.1700
v -0.8000 0.7700 -0.1700
v 0.8000 0.7700 -0.1700
f 216/22 215/22 214/22 213/22
v 0.8000 0.7300 -0.0100
v 0.8000 0.7700 -0.0100
v 0.8000 0.7700 -0.1500
v 0.8000 0.7300 -0.1500
f 220/22 219/22 218/22 217/22
v -0.8000 0.7300 -0.1500
v -0.8000 0.7700 -0.1500
v -0.8000 0.7700 -0.0100
v -0.8000 0.7300 -0.0100
f 224/22 223/22 222/22 221/22
v 0.8000 0.7300 -0.1500
v -0.8000 0.7300 -0.1500
v -0.8000 0.7300 -0.0100
v 0.8000 0.7300 -0.0100
f 228/22 227/22 226/22 225/22
v 0.8000 0.7700 -0.0100
v -0.8000 0.7700 -0.0100
v -0.8000 0.7700 -0.1500
v 0.8000 0.7700 -0.1500
f 232/22 231/22 230/22 229/22
v 0.8000 0.7700 -0.1500
v -0.8000 0.7700 -0.1500
v -0.8000 0.7300 -0.1500
v 0.8000 0.7300 -0.1500
f 236/22 235/22 234/22 233/22
v 0.8000 0.7300 -0.0100
v -0.8000 0.7300 -0.0100
v -0.8000 0.7700 -0.0100
v 0.8000 0.7700 -0.0100
f 240/22 239/22 238/22 237/22
v 0.8000 0.7300 0.1500
v 0.8000 0.7700 0.1500
v 0.8000 0.7700 0.0100
v 0.8000 0.7300 0.0100
f 244/22 243/22 242/22 241/22
v -0.8000 0.7300 0.0100
v -0.8000 0.7700 0.0100
v -0.8000 0.7700 0.1500
v -0.8000 0.7300 0.1500
f 248/22 247/22 246/22 245/22
v 0.8000 0.7300 0.0100
v -0.8000 0.7300 0.0100
v -0.8000 0.7300 0.1500
v 0.8000 0.7300 0.1500
f 252/22 251/22 250/22 249/22
v 0.8000 0.7700 0.1500
v -0.8000 0.7700 0.1500
v -0.8000 0.7700 0.0100
v 0.8000 0.7700 0.0100
f 256/22 255/22 254/22 253/22
v 0.8000 0.7700 0.0100
v -0.8000 0.7700 0.0100
v -0.8000 0.7300 0.0100
v 0.8000 0.7300 0.0100
f 260/22 259/22 258/22 257/22
v 0.8000 0.7300 0.1500
v -0.8000 0.7300 0.1500
v -0.8000 0.7700 0.1500
v 0.8000 0.7700 0.1500
f 264/22 263/22 262/22 261/22
v 0.8000 0.7300 0.3100
v 0.8000 0.7700 0.3100
v 0.8000 0.7700 0.1700
v 0.8000 0.7300 0.1700
f 268/22 267/22 266/22 265/22
v -0.8000 0.7300 0.1700
v -0.8000 0.7700 0.1700
v -0.8000 0.7700 0.3100
v -0.8000 0.7300 0.3100
f 272/22 271/22 270/22 269/22
v 0.8000 0.7300 0.1700
v -0.8000 0.7300 0.1700
v -0.8000 0.7300 0.3100
v 0.8000 0.7300 0.3100
f 276/22 275/22 274/22 273/22
v 0.8000 0.7700 0.3100
v -0.8000 0.7700 0.3100
v -0.8000 0.7700 0.1700
v 0.8000 0.7700 0.1700
f 280/22 279/22 278/22 277/22
v 0.8000 0.7700 0.1700
v -0.8000 0.7700 0.1700
v -0.8000 0.7300 0.1700
v 0.8000 0.7300 0.1700
f 284/22 283/22 282/22 281/22
v 0.8000 0.7300 0.3100
v -0.8000 0.7300 0.3100
v -0.8000 0.7700 0.3100
v 0.8000 0.7700 0.3100
f 288/22 287/22 286/22 285/22
v 0.8000 0.4300 -0.4250
v 0.8000 0.4700 -0.4250
v 0.8000 0.4700 -0.5350
v 0.8000 0.4300 -0.5350
f 292/22 291/22 290/22 289/22
v -0.8000 0.4300 -0.5350
v -0.8000 0.4700 -0.5350
v -0.8000 0.4700 -0.4250
v -0.8000 0.4300 -0.4250
f 296/22 295/22 294/22 293/22
v 0.8000 0.4300 -0.5350
v -0.8000 0.4300 -0.5350
v -0.8000 0.4300 -0.4250
v 0.8000 0.4300 -0.4250
f 300/22 299/22 298/22 297/22
v 0.8000 0.4700 -0.4250
v -0.8000 0.4700 -0.4250
v -0.8000 0.4700 -0.5350
v 0.8000 0.4700 -0.5350
f 304/22 303/22 302/22 301/22
v 0.8000 0.4700 -0.5350
v -0.8000 0.4700 -0.5350
v -0.8000 0.4300 -0.5350
v 0.8000 0.4300 -0.5350
f 308/22 307/22 306/22 305/22
v 0.8000 0.4300 -0.4250
v -0.8000 0.4300 -0.4250
v -0.8000 0.4700 -0.4250
v 0.8000 0.4700 -0.4250
f 312/22 311/22 310/22 309/22
v 0.8000 0.4300 -0.5450
v 0.8000 0.4700 -0.5450
v 0.8000 0.4700 -0.6550
v 0.8000 0.4300 -0.6550
f 316/22 315/22 314/22 313/22
v -0.8000 0.4300 -0.6550
v -0.8000 0.4700 -0.6550
v -0.8000 0.4700 -0.5450
v -0.8000 0.4300 -0.5450
f 320/22 319/22 318/22 317/22
v 0.8000 0.4300 -0.6550
v -0.8000 0.4300 -0.6550
v -0.8000 0.4300 -0.5450
v 0.8000 0.4300 -0.5450
f 324/22 323/22 322/22 321/22
v 0.8000 0.4700 -0.5450
v -0.8000 0.4700 -0.5450
v -0.8000 0.4700 -0.6550
v 0.8000 0.4700 -0.6550
f 328/22 327/22 326/22 325/22
v 0.8000 0.4700 -0.6550
v -0.8000 0.4700 -0.6550
v -0.8000 0.4300 -0.6550
v 0.8000 0.4300 -0.6550
f 332/22 331/22 330/22 329/22
v 0.8000 0.4300 -0.5450
v -0.8000 0.4300 -0.5450
v -0.8000 0.4700 -0.5450
v 0.8000 0.4700 -0.5450
f 336/22 335/22 334/22 333/22
v 0.8000 0.4300 0.5350
v 0.8000 0.4700 0.5350
v 0.8000 0.4700 0.4250
v 0.8000 0.4300 0.4250
f 340/22 339/22 338/22 337/22
v -0.8000 0.4300 0.4250
v -0.8000 0.4700 0.4250
v -0.8000 0.4700 0.5350
v -0.8000 0.4300 0.5350
f 344/22 343/22 342/22 341/22
v 0.8000 0.4300 0.4250
v -0.8000 0.4300 0.4250
v -0.8000 0.4300 0.5350
v 0.8000 0.4300 0.5350
f 348/22 347/22 346/22 345/22
v 0.8000 0.4700 0.5350
v -0.8000 0.4700 0.5350
v -0.8000 0.4700 0.4250
v 0.8000 0.4700 0.4250
f 352/22 351/22 350/22 349/22
v 0.8000 0.4700 0.4250
v -0.8000 0.4700 0.4250
v -0.8000 0.4300 0.4250
v 0.8000 0.4300 0.4250
f 356/22 355/22 354/22 353/22
v 0.8000 0.4300 0.5350
v -0.8000 0.4300 0.5350
v -0.8000 0.4700 0.5350
v 0.8000 0.4700 0.5350
f 360/22 359/22 358/22 357/22
v 0.8000 0.4300 0.6550
v 0.8000 0.4700 0.6550
v 0.8000 0.4700 0.5450
v 0.8000 0.4300 0.5450
f 364/22 363/22 362/22 361/22
v -0.8000 0.4300 0.5450
v -0.8000 0.4700 0.5450
v -0.8000 0.4700 0.6550
v -0.8000 0.4300 0.6550
f 368/22 367/22 366/22 365/22
v 0.8000 0.4300 0.5450
v -0.8000 0.4300 0.5450
v -0.8000 0.4300 0.6550
v 0.8000 0.4300 0.6550
f 372/22 371/22 370/22 369/22
v 0.8000 0.4700 0.6550
v -0.8000 0.4700 0.6550
v -0.8000 0.4700 0.5450
v 0.8000 0.4700 0.5450
f 376/22 375/22 374/22 373/22
v 0.8000 0.4700 0.5450
v -0.8000 0.4700 0.5450
v -0.8000 0.4300 0.5450
v 0.8000 0.4300 0.5450
f 380/22 379/22 378/22 377/22
v 0.8000 0.4300 0.6550
v -0.8000 0.4300 0.6550
v -0.8000 0.4700 0.6550
v 0.8000 0.4700 0.6550
f 384/22 383/22 382/22 381/22
v -0.0125 0.0000 0.0217
v -0.0250 0.0000 0.0000
v -0.0250 2.0000 0.0000
v -0.0125 2.0000 0.0217
f 388/7 387/7 386/7 385/7
v -0.0250 0.0000 0.0000
v -0.0125 0.0000 -0.0217
v -0.0125 2.0000 -0.0217
v -0.0250 2.0000 0.0000
f 392/7 391/7 390/7 389/7
v -0.0125 0.0000 -0.0217
v 0.0125 0.0000 -0.0217
v 0.0125 2.0000 -0.0217
v -0.0125 2.0000 -0.0217
f 396/7 395/7 394/7 393/7
v 0.0125 0.0000 -0.0217
v 0.0250 0.0000 -0.0000
v 0.0250 2.0000 -0.0000
v 0.0125 2.0000 -0.0217
f 400/7 399/7 398/7 397/7
v 0.0250 0.0000 -0.0000
v 0.0125 0.0000 0.0217
v 0.0125 2.0000 0.0217
v 0.0250 2.0000 -0.0000
f 404/7 403/7 402/7 401/7
v 0.0125 0.0000 0.0217
v -0.0125 0.0000 0.0217
v -0.0125 2.0000 0.0217
v 0.0125 2.0000 0.0217
f 408/7 407/7 406/7 405/7
v 0.0125 0.0000 0.0217
v 0.0250 0.0000 -0.0000
v 0.0125 0.0000 -0.0217
v -0.0125 0.0000 -0.0217
v -0.0250 0.0000 0.0000
v -0.0125 0.0000 0.0217
f 414/7 413/7 412/7 411/7 410/7 409/7
v -0.0125 2.0000 0.0217
v -0.0250 2.0000 0.0000
v -0.0125 2.0000 -0.0217
v 0.0125 2.0000 -0.0217
v 0.0250 2.0000 -0.0000
v 0.0125 2.0000 0.0217
f 420/7 419/7 418/7 417/7 416/7 415/7
v -0.7649 1.6800 0.4792
v -0.7649 1.7600 0.4792
v -0.8797 1.7600 0.2020
v -0.8797 1.6800 0.2020
f 424/15 423/15 422/15 421/15
v -0.9536 1.6800 0.2326
v -0.9536 1.7600 0.2326
v -0.8388 1.7600 0.5098
v -0.8388 1.6800 0.5098
f 428/15 427/15 426/15 425/15
v -0.8797 1.6800 0.2020
v -0.9536 1.6800 0.2326
v -0.8388 1.6800 0.5098
v -0.7649 1.6800 0.4792
f 432/15 431/15 430/15 429/15
v -0.7649 1.7600 0.4792
v -0.8388 1.7600 0.5098
v -0.9536 1.7600 0.2326
v -0.8797 1.7600 0.2020
f 436/15 435/15 434/15 433/15
v -0.8797 1.7600 0.2020
v -0.9536 1.7600 0.2326
v -0.9536 1.6800 0.2326
v -0.8797 1.6800 0.2020
f 440/15 439/15 438/15 437/15
v -0.7649 1.6800 0.4792
v -0.8388 1.6800 0.5098
v -0.8388 1.7600 0.5098
v -0.7649 1.7600 0.4792
f 444/15 443/15 442/15 441/15
v -0.2020 1.6800 0.8797
v -0.2020 1.7600 0.8797
v -0.4792 1.7600 0.7649
v -0.4792 1.6800 0.7649
f 448/15 447/15 446/15 445/15
v -0.5098 1.6800 0.8388
v -0.5098 1.7600 0.8388
v -0.2326 1.7600 0.9536
v -0.2326 1.6800 0.9536
f 452/15 451/15 450/15 449/15
v -0.4792 1.6800 0.7649
v -0.5098 1.6800 0.8388
v -0.2326 1.6800 0.9536
v -0.2020 1.6800 0.8797
f 456/15 455/15 454/15 453/15
v -0.2020 1.7600 0.8797
v -0.2326 1.7600 0.9536
v -0.5098 1.7600 0.8388
v -0.4792 1.7600 0.7649
f 460/15 459/15 458/15 457/15
v -0.4792 1.7600 0.7649
v -0.5098 1.7600 0.8388
v -0.5098 1.6800 0.8388
v -0.4792 1.6800 0.7649
f 464/15 463/15 462/15 461/15
v -0.2020 1.6800 0.8797
v -0.2326 1.6800 0.9536
v -0.2326 1.7600 0.9536
v -0.2020 1.7600 0.8797
f 468/15 467/15 466/15 465/15
v 0.4792 1.6800 0.7649
v 0.4792 1.7600 0.7649
v 0.2020 1.7600 0.8797
v 0.2020 1.6800 0.8797
f 472/15 471/15 470/15 469/15
v 0.2326 1.6800 0.9536
v 0.2326 1.7600 0.9536
v 0.5098 1.7600 0.8388
v 0.5098 1.6800 0.8388
f 476/15 475/15 474/15 473/15
v 0.2020 1.6800 0.8797
v 0.2326 1.6800 0.9536
v 0.5098 1.6800 0.8388
v 0.4792 1.6800 0.7649
f 480/15 479/15 478/15 477/15
v 0.4792 1.7600 0.7649
v 0.5098 1.7600 0.8388
v 0.2326 1.7600 0.9536
v 0.2020 1.7600 0.8797
f 484/15 483/15 482/15 481/15
v 0.2020 1.7600 0.8797
v 0.2326 1.7600 0.9536
v 0.2326 1.6800 0.9536
v 0.2020 1.6800 0.8797
f 488/15 487/15 486/15 485/15
v 0.4792 1.6800 0.7649
v 0.5098 1.6800 0.8388
v 0.5098 1.7600 0.8388
v 0.4792 1.7600 0.7649
f 492/15 491/15 490/15 489/15
v 0.8797 1.6800 0.2020
v 0.8797 1.7600 0.2020
v 0.7649 1.7600 0.4792
v 0.7649 1.6800 0.4792
f 496/15 495/15 494/15 493/15
v 0.8388 1.6800 0.5098
v 0.8388 1.7600 0.5098
v 0.9536 1.7600 0.2326
v 0.9536 1.6800 0.2326
f 500/15 499/15 498/15 497/15
v 0.7649 1.6800 0.4792
v 0.8388 1.6800 0.5098
v 0.9536 1.6800 0.2326
v 0.8797 1.6800 0.2020
f 504/15 503/15 502/15 501/15
v 0.8797 1.7600 0.2020
v 0.9536 1.7600 0.2326
v 0.8388 1.7600 0.5098
v 0.7649 1.7600 0.4792
f 508/15 507/15 506/15 505/15
v 0.7649 1.7600 0.4792
v 0.8388 1.7600 0.5098
v 0.8388 1.6800 0.5098
v 0.7649 1.6800 0.4792
f 512/15 511/15 510/15 509/15
v 0.8797 1.6800 0.2020
v 0.9536 1.6800 0.2326
v 0.9536 1.7600 0.2326
v 0.8797 1.7600 0.2020
f 516/15 515/15 514/15 513/15
v 0.7649 1.6800 -0.4792
v 0.7649 1.7600 -0.4792
v 0.8797 1.7600 -0.2020
v 0.8797 1.6800 -0.2020
f 520/15 519/15 518/15 517/15
v 0.9536 1.6800 -0.2326
v 0.9536 1.7600 -0.2326
v 0.8388 1.7600 -0.5098
v 0.8388 1.6800 -0.5098
f 524/15 523/15 522/15 521/15
v 0.8797 1.6800 -0.2020
v 0.9536 1.6800 -0.2326
v 0.8388 1.6800 -0.5098
v 0.7649 1.6800 -0.4792
f 528/15 527/15 526/15 525/15
v 0.7649 1.7600 -0.4792
v 0.8388 1.7600 -0.5098
v 0.9536 1.7600 -0.2326
v 0.8797 1.7600 -0.2020
f 532/15 531/15 530/15 529/15
v 0.8797 1.7600 -0.2020
v 0.9536 1.7600 -0.2326
v 0.9536 1.6800 -0.2326
v 0.8797 1.6800 -0.2020
f 536/15 535/15 534/15 533/15
v 0.7649 1.6800 -0.4792
v 0.8388 1.6800 -0.5098
v 0.8388 1.7600 -0.5098
v 0.7649 1.7600 -0.4792
f 540/15 539/15 538/15 537/15
v 0.2020 1.6800 -0.8797
v 0.2020 1.7600 -0.8797
v 0.4792 1.7600 -0.7649
v 0.4792 1.6800 -0.7649
f 544/15 543/15 542/15 541/15
v 0.5098 1.6800 -0.8388
v 0.5098 1.7600 -0.8388
v 0.2326 1.7600 -0.9536
v 0.2326 1.6800 -0.9536
f 548/15 547/15 546/15 545/15
v 0.4792 1.6800 -0.7649
v 0.5098 1.6800 -0.8388
v 0.2326 1.6800 -0.9536
v 0.2020 1.6800 -0.8797
f 552/15 551/15 550/15 549/15
v 0.2020 1.7600 -0.8797
v 0.2326 1.7600 -0.9536
v 0.5098 1.7600 -0.8388
v 0.4792 1.7600 -0.7649
f 556/15 555/15 554/15 553/15
v 0.4792 1.7600 -0.7649
v 0.5098 1.7600 -0.8388
v 0.5098 1.6800 -0.8388
v 0.4792 1.6800 -0.7649
f 560/15 559/15 558/15 557/15
v 0.2020 1.6800 -0.8797
v 0.2326 1.6800 -0.9536
v 0.2326 1.7600 -0.9536
v 0.2020 1.7600 -0.8797
f 564/15 563/15 562/15 561/15
v -0.4792 1.6800 -0.7649
v -0.4792 1.7600 -0.7649
v -0.2020 1.7600 -0.8797
v -0.2020 1.6800 -0.8797
f 568/15 567/15 566/15 565/15
v -0.2326 1.6800 -0.9536
v -0.2326 1.7600 -0.9536
v -0.5098 1.7600 -0.8388
v -0.5098 1.6800 -0.8388
f 572/15 571/15 570/15 569/15
v -0.2020 1.6800 -0.8797
v -0.2326 1.6800 -0.9536
v -0.5098 1.6800 -0.8388
v -0.4792 1.6800 -0.7649
f 576/15 575/15 574/15 573/15
v -0.4792 1.7600 -0.7649
v -0.5098 1.7600 -0.8388
v -0.2326 1.7600 -0.9536
v -0.2020 1.7600 -0.8797
f 580/15 579/15 578/15 577/15
v -0.2020 1.7600 -0.8797
v -0.2326 1.7600 -0.9536
v -0.2326 1.6800 -0.9536
v -0.2020 1.6800 -0.8797
f 584/15 583/15 582/15 581/15
v -0.4792 1.6800 -0.7649
v -0.5098 1.6800 -0.8388
v -0.5098 1.7600 -0.8388
v -0.4792 1.7600 -0.7649
f 588/15 587/15 586/15 585/15
v -0.8797 1.6800 -0.2020
v -0.8797 1.7600 -0.2020
v -0.7649 1.7600 -0.4792
v -0.7649 1.6800 -0.4792
f 592/15 591/15 590/15 589/15
v -0.8388 1.6800 -0.5098
v -0.8388 1.7600 -0.5098
v -0.9536 1.7600 -0.2326
v -0.9536 1.6800 -0.2326
f 596/15 595/15 594/15 593/15
v -0.7649 1.6800 -0.4792
v -0.8388 1.6800 -0.5098
v -0.9536 1.6800 -0.2326
v -0.8797 1.6800 -0.2020
f 600/15 599/15 598/15 597/15
v -0.8797 1.7600 -0.2020
v -0.9536 1.7600 -0.2326
v -0.8388 1.7600 -0.5098
v -0.7649 1.7600 -0.4792
f 604/15 603/15 602/15 601/15
v -0.7649 1.7600 -0.4792
v -0.8388 1.7600 -0.5098
v -0.8388 1.6800 -0.5098
v -0.7649 1.6800 -0.4792
f 608/15 607/15 606/15 605/15
v -0.8797 1.6800 -0.2020
v -0.9536 1.6800 -0.2326
v -0.9536 1.7600 -0.2326
v -0.8797 1.7600 -0.2020
f 612/15 611/15 610/15 609/15
v -0.2100 0.7700 0.1200
v -0.2100 0.8300 0.1200
v -0.2100 0.8300 -0.0200
v -0.2100 0.7700 -0.0200
f 616/9 615/9 614/9 613/9
v -0.3900 0.7700 -0.0200
v -0.3900 0.8300 -0.0200
v -0.3900 0.8300 0.1200
v -0.3900 0.7700 0.1200
f 620/9 619/9 618/9 617/9
v -0.2100 0.7700 -0.0200
v -0.3900 0.7700 -0.0200
v -0.3900 0.7700 0.1200
v -0.2100 0.7700 0.1200
f 624/9 623/9 622/9 621/9
v -0.2100 0.8300 0.1200
v -0.3900 0.8300 0.1200
v -0.3900 0.8300 -0.0200
v -0.2100 0.8300 -0.0200
f 628/9 627/9 626/9 625/9
v -0.2100 0.8300 -0.0200
v -0.3900 0.8300 -0.0200
v -0.3900 0.7700 -0.0200
v -0.2100 0.7700 -0.0200
f 632/9 631/9 630/9 629/9
v -0.2100 0.7700 0.1200
v -0.3900 0.7700 0.1200
v -0.3900 0.8300 0.1200
v -0.2100 0.8300 0.1200
f 636/9 635/9 634/9 633/9
v 0.3300 0.7700 -0.0154
v 0.3100 0.7700 -0.0500
v 0.3100 0.8900 -0.0500
v 0.3300 0.8900 -0.0154
f 640/27 639/27 638/27 637/27
v 0.3100 0.7700 -0.0500
v 0.3300 0.7700 -0.0846
v 0.3300 0.8900 -0.0846
v 0.3100 0.8900 -0.0500
f 644/27 643/27 642/27 641/27
v 0.3300 0.7700 -0.0846
v 0.3700 0.7700 -0.0846
v 0.3700 0.8900 -0.0846
v 0.3300 0.8900 -0.0846
f 648/27 647/27 646/27 645/27
v 0.3700 0.7700 -0.0846
v 0.3900 0.7700 -0.0500
v 0.3900 0.8900 -0.0500
v 0.3700 0.8900 -0.0846
f 652/27 651/27 650/27 649/27
v 0.3900 0.7700 -0.0500
v 0.3700 0.7700 -0.0154
v 0.3700 0.8900 -0.0154
v 0.3900 0.8900 -0.0500
f 656/27 655/27 654/27 653/27
v 0.3700 0.7700 -0.0154
v 0.3300 0.7700 -0.0154
v 0.3300 0.8900 -0.0154
v 0.3700 0.8900 -0.0154
f 660/27 659/27 658/27 657/27
v 0.3700 0.7700 -0.0154
v 0.3900 0.7700 -0.0500
v 0.3700 0.7700 -0.0846
v 0.3300 0.7700 -0.0846
v 0.3100 0.7700 -0.0500
v 0.3300 0.7700 -0.0154
f 666/27 665/27 664/27 663/27 662/27 661/27
v 0.3300 0.8900 -0.0154
v 0.3100 0.8900 -0.0500
v 0.3300 0.8900 -0.0846
v 0.3700 0.8900 -0.0846
v 0.3900 0.8900 -0.0500
v 0.3700 0.8900 -0.0154
f 672/27 671/27 670/27 669/27 668/27 667/27
