# Walk of Industry low-poly (generated, wi_lib.py)
mtllib wi.mtl
vt 0 0
vt 0.03125 0.03125
vt 0.09375 0.03125
vt 0.15625 0.03125
vt 0.21875 0.03125
vt 0.28125 0.03125
vt 0.34375 0.03125
vt 0.40625 0.03125
vt 0.46875 0.03125
vt 0.53125 0.03125
vt 0.59375 0.03125
vt 0.65625 0.03125
vt 0.71875 0.03125
vt 0.78125 0.03125
vt 0.84375 0.03125
vt 0.90625 0.03125
vt 0.96875 0.03125
vt 0.03125 0.09375
vt 0.09375 0.09375
vt 0.15625 0.09375
vt 0.21875 0.09375
vt 0.28125 0.09375
vt 0.34375 0.09375
vt 0.40625 0.09375
vt 0.46875 0.09375
vt 0.53125 0.09375
vt 0.59375 0.09375
vt 0.65625 0.09375
vt 0.71875 0.09375
vt 0.78125 0.09375
vt 0.84375 0.09375
vt 0.90625 0.09375
vt 0.96875 0.09375
o Body
usemtl wi_palette
v 0.3500 0.0000 0.3500
v 0.3500 0.1000 0.3500
v 0.3500 0.1000 -0.3500
v 0.3500 0.0000 -0.3500
f 4/11 3/11 2/11 1/11
v -0.3500 0.0000 -0.3500
v -0.3500 0.1000 -0.3500
v -0.3500 0.1000 0.3500
v -0.3500 0.0000 0.3500
f 8/11 7/11 6/11 5/11
v 0.3500 0.0000 -0.3500
v -0.3500 0.0000 -0.3500
v -0.3500 0.0000 0.3500
v 0.3500 0.0000 0.3500
f 12/11 11/11 10/11 9/11
v 0.3500 0.1000 0.3500
v -0.3500 0.1000 0.3500
v -0.3500 0.1000 -0.3500
v 0.3500 0.1000 -0.3500
f 16/11 15/11 14/11 13/11
v 0.3500 0.1000 -0.3500
v -0.3500 0.1000 -0.3500
v -0.3500 0.0000 -0.3500
v 0.3500 0.0000 -0.3500
f 20/11 19/11 18/11 17/11
v 0.3500 0.0000 0.3500
v -0.3500 0.0000 0.3500
v -0.3500 0.1000 0.3500
v 0.3500 0.1000 0.3500
f 24/11 23/11 22/11 21/11
v 0.1420 2.9025 -0.1419
v 0.0920 2.9000 -0.1420
v 0.2350 0.1000 -0.2850
v 0.2850 0.1025 -0.2849
f 28/7 27/7 26/7 25/7
v 0.2850 0.1000 -0.2350
v 0.2350 0.0975 -0.2351
v 0.0920 2.8975 -0.0921
v 0.1420 2.9000 -0.0920
f 32/7 31/7 30/7 29/7
v 0.2850 0.1025 -0.2849
v 0.2850 0.1000 -0.2350
v 0.1420 2.9000 -0.0920
v 0.1420 2.9025 -0.1419
f 36/7 35/7 34/7 33/7
v 0.0920 2.9000 -0.1420
v 0.0920 2.8975 -0.0921
v 0.2350 0.0975 -0.2351
v 0.2350 0.1000 -0.2850
f 40/7 39/7 38/7 37/7
v 0.2350 0.1000 -0.2850
v 0.2350 0.0975 -0.2351
v 0.2850 0.1000 -0.2350
v 0.2850 0.1025 -0.2849
f 44/7 43/7 42/7 41/7
v 0.1420 2.9025 -0.1419
v 0.1420 2.9000 -0.0920
v 0.0920 2.8975 -0.0921
v 0.0920 2.9000 -0.1420
f 48/7 47/7 46/7 45/7
v -0.0920 2.9000 -0.1420
v -0.1420 2.9025 -0.1419
v -0.2850 0.1025 -0.2849
v -0.2350 0.1000 -0.2850
f 52/7 51/7 50/7 49/7
v -0.2350 0.0975 -0.2351
v -0.2850 0.1000 -0.2350
v -0.1420 2.9000 -0.0920
v -0.0920 2.8975 -0.0921
f 56/7 55/7 54/7 53/7
v -0.2350 0.1000 -0.2850
v -0.2350 0.0975 -0.2351
v -0.0920 2.8975 -0.0921
v -0.0920 2.9000 -0.1420
f 60/7 59/7 58/7 57/7
v -0.1420 2.9025 -0.1419
v -0.1420 2.9000 -0.0920
v -0.2850 0.1000 -0.2350
v -0.2850 0.1025 -0.2849
f 64/7 63/7 62/7 61/7
v -0.2850 0.1025 -0.2849
v -0.2850 0.1000 -0.2350
v -0.2350 0.0975 -0.2351
v -0.2350 0.1000 -0.2850
f 68/7 67/7 66/7 65/7
v -0.0920 2.9000 -0.1420
v -0.0920 2.8975 -0.0921
v -0.1420 2.9000 -0.0920
v -0.1420 2.9025 -0.1419
f 72/7 71/7 70/7 69/7
v -0.0920 2.8975 0.0921
v -0.1420 2.9000 0.0920
v -0.2850 0.1000 0.2350
v -0.2350 0.0975 0.2351
f 76/7 75/7 74/7 73/7
v -0.2350 0.1000 0.2850
v -0.2850 0.1025 0.2849
v -0.1420 2.9025 0.1419
v -0.0920 2.9000 0.1420
f 80/7 79/7 78/7 77/7
v -0.2350 0.0975 0.2351
v -0.2350 0.1000 0.2850
v -0.0920 2.9000 0.1420
v -0.0920 2.8975 0.0921
f 84/7 83/7 82/7 81/7
v -0.1420 2.9000 0.0920
v -0.1420 2.9025 0.1419
v -0.2850 0.1025 0.2849
v -0.2850 0.1000 0.2350
f 88/7 87/7 86/7 85/7
v -0.2850 0.1000 0.2350
v -0.2850 0.1025 0.2849
v -0.2350 0.1000 0.2850
v -0.2350 0.0975 0.2351
f 92/7 91/7 90/7 89/7
v -0.0920 2.8975 0.0921
v -0.0920 2.9000 0.1420
v -0.1420 2.9025 0.1419
v -0.1420 2.9000 0.0920
f 96/7 95/7 94/7 93/7
v 0.1420 2.9000 0.0920
v 0.0920 2.8975 0.0921
v 0.2350 0.0975 0.2351
v 0.2850 0.1000 0.2350
f 100/7 99/7 98/7 97/7
v 0.2850 0.1025 0.2849
v 0.2350 0.1000 0.2850
v 0.0920 2.9000 0.1420
v 0.1420 2.9025 0.1419
f 104/7 103/7 102/7 101/7
v 0.2850 0.1000 0.2350
v 0.2850 0.1025 0.2849
v 0.1420 2.9025 0.1419
v 0.1420 2.9000 0.0920
f 108/7 107/7 106/7 105/7
v 0.0920 2.8975 0.0921
v 0.0920 2.9000 0.1420
v 0.2350 0.1000 0.2850
v 0.2350 0.0975 0.2351
f 112/7 111/7 110/7 109/7
v 0.2350 0.0975 0.2351
v 0.2350 0.1000 0.2850
v 0.2850 0.1025 0.2849
v 0.2850 0.1000 0.2350
f 116/7 115/7 114/7 113/7
v 0.1420 2.9000 0.0920
v 0.1420 2.9025 0.1419
v 0.0920 2.9000 0.1420
v 0.0920 2.8975 0.0921
f 120/7 119/7 118/7 117/7
v -0.2600 0.0850 -0.2450
v -0.2600 0.1150 -0.2450
v 0.2600 0.1150 -0.2450
v 0.2600 0.0850 -0.2450
f 124/7 123/7 122/7 121/7
v 0.2600 0.0850 -0.2750
v 0.2600 0.1150 -0.2750
v -0.2600 0.1150 -0.2750
v -0.2600 0.0850 -0.2750
f 128/7 127/7 126/7 125/7
v 0.2600 0.0850 -0.2450
v 0.2600 0.0850 -0.2750
v -0.2600 0.0850 -0.2750
v -0.2600 0.0850 -0.2450
f 132/7 131/7 130/7 129/7
v -0.2600 0.1150 -0.2450
v -0.2600 0.1150 -0.2750
v 0.2600 0.1150 -0.2750
v 0.2600 0.1150 -0.2450
f 136/7 135/7 134/7 133/7
v 0.2600 0.1150 -0.2450
v 0.2600 0.1150 -0.2750
v 0.2600 0.0850 -0.2750
v 0.2600 0.0850 -0.2450
f 140/7 139/7 138/7 137/7
v -0.2600 0.0850 -0.2450
v -0.2600 0.0850 -0.2750
v -0.2600 0.1150 -0.2750
v -0.2600 0.1150 -0.2450
f 144/7 143/7 142/7 141/7
v -0.2450 0.0850 0.2600
v -0.2450 0.1150 0.2600
v -0.2450 0.1150 -0.2600
v -0.2450 0.0850 -0.2600
f 148/7 147/7 146/7 145/7
v -0.2750 0.0850 -0.2600
v -0.2750 0.1150 -0.2600
v -0.2750 0.1150 0.2600
v -0.2750 0.0850 0.2600
f 152/7 151/7 150/7 149/7
v -0.2450 0.0850 -0.2600
v -0.2750 0.0850 -0.2600
v -0.2750 0.0850 0.2600
v -0.2450 0.0850 0.2600
f 156/7 155/7 154/7 153/7
v -0.2450 0.1150 0.2600
v -0.2750 0.1150 0.2600
v -0.2750 0.1150 -0.2600
v -0.2450 0.1150 -0.2600
f 160/7 159/7 158/7 157/7
v -0.2450 0.1150 -0.2600
v -0.2750 0.1150 -0.2600
v -0.2750 0.0850 -0.2600
v -0.2450 0.0850 -0.2600
f 164/7 163/7 162/7 161/7
v -0.2450 0.0850 0.2600
v -0.2750 0.0850 0.2600
v -0.2750 0.1150 0.2600
v -0.2450 0.1150 0.2600
f 168/7 167/7 166/7 165/7
v 0.2600 0.0850 0.2450
v 0.2600 0.1150 0.2450
v -0.2600 0.1150 0.2450
v -0.2600 0.0850 0.2450
f 172/7 171/7 170/7 169/7
v -0.2600 0.0850 0.2750
v -0.2600 0.1150 0.2750
v 0.2600 0.1150 0.2750
v 0.2600 0.0850 0.2750
f 176/7 175/7 174/7 173/7
v -0.2600 0.0850 0.2450
v -0.2600 0.0850 0.2750
v 0.2600 0.0850 0.2750
v 0.2600 0.0850 0.2450
f 180/7 179/7 178/7 177/7
v 0.2600 0.1150 0.2450
v 0.2600 0.1150 0.2750
v -0.2600 0.1150 0.2750
v -0.2600 0.1150 0.2450
f 184/7 183/7 182/7 181/7
v -0.2600 0.1150 0.2450
v -0.2600 0.1150 0.2750
v -0.2600 0.0850 0.2750
v -0.2600 0.0850 0.2450
f 188/7 187/7 186/7 185/7
v 0.2600 0.0850 0.2450
v 0.2600 0.0850 0.2750
v 0.2600 0.1150 0.2750
v 0.2600 0.1150 0.2450
f 192/7 191/7 190/7 189/7
v 0.2450 0.0850 -0.2600
v 0.2450 0.1150 -0.2600
v 0.2450 0.1150 0.2600
v 0.2450 0.0850 0.2600
f 196/7 195/7 194/7 193/7
v 0.2750 0.0850 0.2600
v 0.2750 0.1150 0.2600
v 0.2750 0.1150 -0.2600
v 0.2750 0.0850 -0.2600
f 200/7 199/7 198/7 197/7
v 0.2450 0.0850 0.2600
v 0.2750 0.0850 0.2600
v 0.2750 0.0850 -0.2600
v 0.2450 0.0850 -0.2600
f 204/7 203/7 202/7 201/7
v 0.2450 0.1150 -0.2600
v 0.2750 0.1150 -0.2600
v 0.2750 0.1150 0.2600
v 0.2450 0.1150 0.2600
f 208/7 207/7 206/7 205/7
v 0.2450 0.1150 0.2600
v 0.2750 0.1150 0.2600
v 0.2750 0.0850 0.2600
v 0.2450 0.0850 0.2600
f 212/7 211/7 210/7 209/7
v 0.2450 0.0850 -0.2600
v 0.2750 0.0850 -0.2600
v 0.2750 0.1150 -0.2600
v 0.2450 0.1150 -0.2600
f 216/7 215/7 214/7 213/7
v -0.2433 0.5585 -0.2246
v -0.2279 0.5749 -0.2253
v 0.2682 0.1082 -0.2491
v 0.2528 0.0918 -0.2484
f 220/7 219/7 218/7 217/7
v 0.2518 0.0918 -0.2709
v 0.2672 0.1082 -0.2716
v -0.2290 0.5749 -0.2478
v -0.2444 0.5585 -0.2470
f 224/7 223/7 222/7 221/7
v 0.2528 0.0918 -0.2484
v 0.2518 0.0918 -0.2709
v -0.2444 0.5585 -0.2470
v -0.2433 0.5585 -0.2246
f 228/7 227/7 226/7 225/7
v -0.2279 0.5749 -0.2253
v -0.2290 0.5749 -0.2478
v 0.2672 0.1082 -0.2716
v 0.2682 0.1082 -0.2491
f 232/7 231/7 230/7 229/7
v 0.2682 0.1082 -0.2491
v 0.2672 0.1082 -0.2716
v 0.2518 0.0918 -0.2709
v 0.2528 0.0918 -0.2484
f 236/7 235/7 234/7 233/7
v -0.2433 0.5585 -0.2246
v -0.2444 0.5585 -0.2470
v -0.2290 0.5749 -0.2478
v -0.2279 0.5749 -0.2253
f 240/7 239/7 238/7 237/7
v -0.2246 0.5585 0.2433
v -0.2253 0.5749 0.2279
v -0.2491 0.1082 -0.2682
v -0.2484 0.0918 -0.2528
f 244/7 243/7 242/7 241/7
v -0.2709 0.0918 -0.2518
v -0.2716 0.1082 -0.2672
v -0.2478 0.5749 0.2290
v -0.2470 0.5585 0.2444
f 248/7 247/7 246/7 245/7
v -0.2484 0.0918 -0.2528
v -0.2709 0.0918 -0.2518
v -0.2470 0.5585 0.2444
v -0.2246 0.5585 0.2433
f 252/7 251/7 250/7 249/7
v -0.2253 0.5749 0.2279
v -0.2478 0.5749 0.2290
v -0.2716 0.1082 -0.2672
v -0.2491 0.1082 -0.2682
f 256/7 255/7 254/7 253/7
v -0.2491 0.1082 -0.2682
v -0.2716 0.1082 -0.2672
v -0.2709 0.0918 -0.2518
v -0.2484 0.0918 -0.2528
f 260/7 259/7 258/7 257/7
v -0.2246 0.5585 0.2433
v -0.2470 0.5585 0.2444
v -0.2478 0.5749 0.2290
v -0.2253 0.5749 0.2279
f 264/7 263/7 262/7 261/7
v 0.2433 0.5585 0.2246
v 0.2279 0.5749 0.2253
v -0.2682 0.1082 0.2491
v -0.2528 0.0918 0.2484
f 268/7 267/7 266/7 265/7
v -0.2518 0.0918 0.2709
v -0.2672 0.1082 0.2716
v 0.2290 0.5749 0.2478
v 0.2444 0.5585 0.2470
f 272/7 271/7 270/7 269/7
v -0.2528 0.0918 0.2484
v -0.2518 0.0918 0.2709
v 0.2444 0.5585 0.2470
v 0.2433 0.5585 0.2246
f 276/7 275/7 274/7 273/7
v 0.2279 0.5749 0.2253
v 0.2290 0.5749 0.2478
v -0.2672 0.1082 0.2716
v -0.2682 0.1082 0.2491
f 280/7 279/7 278/7 277/7
v -0.2682 0.1082 0.2491
v -0.2672 0.1082 0.2716
v -0.2518 0.0918 0.2709
v -0.2528 0.0918 0.2484
f 284/7 283/7 282/7 281/7
v 0.2433 0.5585 0.2246
v 0.2444 0.5585 0.2470
v 0.2290 0.5749 0.2478
v 0.2279 0.5749 0.2253
f 288/7 287/7 286/7 285/7
v 0.2246 0.5585 -0.2433
v 0.2253 0.5749 -0.2279
v 0.2491 0.1082 0.2682
v 0.2484 0.0918 0.2528
f 292/7 291/7 290/7 289/7
v 0.2709 0.0918 0.2518
v 0.2716 0.1082 0.2672
v 0.2478 0.5749 -0.2290
v 0.2470 0.5585 -0.2444
f 296/7 295/7 294/7 293/7
v 0.2484 0.0918 0.2528
v 0.2709 0.0918 0.2518
v 0.2470 0.5585 -0.2444
v 0.2246 0.5585 -0.2433
f 300/7 299/7 298/7 297/7
v 0.2253 0.5749 -0.2279
v 0.2478 0.5749 -0.2290
v 0.2716 0.1082 0.2672
v 0.2491 0.1082 0.2682
f 304/7 303/7 302/7 301/7
v 0.2491 0.1082 0.2682
v 0.2716 0.1082 0.2672
v 0.2709 0.0918 0.2518
v 0.2484 0.0918 0.2528
f 308/7 307/7 306/7 305/7
v 0.2246 0.5585 -0.2433
v 0.2470 0.5585 -0.2444
v 0.2478 0.5749 -0.2290
v 0.2253 0.5749 -0.2279
f 312/7 311/7 310/7 309/7
v -0.2362 0.5517 -0.2212
v -0.2362 0.5817 -0.2212
v 0.2362 0.5817 -0.2212
v 0.2362 0.5517 -0.2212
f 316/7 315/7 314/7 313/7
v 0.2362 0.5517 -0.2512
v 0.2362 0.5817 -0.2512
v -0.2362 0.5817 -0.2512
v -0.2362 0.5517 -0.2512
f 320/7 319/7 318/7 317/7
v 0.2362 0.5517 -0.2212
v 0.2362 0.5517 -0.2512
v -0.2362 0.5517 -0.2512
v -0.2362 0.5517 -0.2212
f 324/7 323/7 322/7 321/7
v -0.2362 0.5817 -0.2212
v -0.2362 0.5817 -0.2512
v 0.2362 0.5817 -0.2512
v 0.2362 0.5817 -0.2212
f 328/7 327/7 326/7 325/7
v 0.2362 0.5817 -0.2212
v 0.2362 0.5817 -0.2512
v 0.2362 0.5517 -0.2512
v 0.2362 0.5517 -0.2212
f 332/7 331/7 330/7 329/7
v -0.2362 0.5517 -0.2212
v -0.2362 0.5517 -0.2512
v -0.2362 0.5817 -0.2512
v -0.2362 0.5817 -0.2212
f 336/7 335/7 334/7 333/7
v -0.2212 0.5517 0.2362
v -0.2212 0.5817 0.2362
v -0.2212 0.5817 -0.2362
v -0.2212 0.5517 -0.2362
f 340/7 339/7 338/7 337/7
v -0.2512 0.5517 -0.2362
v -0.2512 0.5817 -0.2362
v -0.2512 0.5817 0.2362
v -0.2512 0.5517 0.2362
f 344/7 343/7 342/7 341/7
v -0.2212 0.5517 -0.2362
v -0.2512 0.5517 -0.2362
v -0.2512 0.5517 0.2362
v -0.2212 0.5517 0.2362
f 348/7 347/7 346/7 345/7
v -0.2212 0.5817 0.2362
v -0.2512 0.5817 0.2362
v -0.2512 0.5817 -0.2362
v -0.2212 0.5817 -0.2362
f 352/7 351/7 350/7 349/7
v -0.2212 0.5817 -0.2362
v -0.2512 0.5817 -0.2362
v -0.2512 0.5517 -0.2362
v -0.2212 0.5517 -0.2362
f 356/7 355/7 354/7 353/7
v -0.2212 0.5517 0.2362
v -0.2512 0.5517 0.2362
v -0.2512 0.5817 0.2362
v -0.2212 0.5817 0.2362
f 360/7 359/7 358/7 357/7
v 0.2362 0.5517 0.2212
v 0.2362 0.5817 0.2212
v -0.2362 0.5817 0.2212
v -0.2362 0.5517 0.2212
f 364/7 363/7 362/7 361/7
v -0.2362 0.5517 0.2512
v -0.2362 0.5817 0.2512
v 0.2362 0.5817 0.2512
v 0.2362 0.5517 0.2512
f 368/7 367/7 366/7 365/7
v -0.2362 0.5517 0.2212
v -0.2362 0.5517 0.2512
v 0.2362 0.5517 0.2512
v 0.2362 0.5517 0.2212
f 372/7 371/7 370/7 369/7
v 0.2362 0.5817 0.2212
v 0.2362 0.5817 0.2512
v -0.2362 0.5817 0.2512
v -0.2362 0.5817 0.2212
f 376/7 375/7 374/7 373/7
v -0.2362 0.5817 0.2212
v -0.2362 0.5817 0.2512
v -0.2362 0.5517 0.2512
v -0.2362 0.5517 0.2212
f 380/7 379/7 378/7 377/7
v 0.2362 0.5517 0.2212
v 0.2362 0.5517 0.2512
v 0.2362 0.5817 0.2512
v 0.2362 0.5817 0.2212
f 384/7 383/7 382/7 381/7
v 0.2212 0.5517 -0.2362
v 0.2212 0.5817 -0.2362
v 0.2212 0.5817 0.2362
v 0.2212 0.5517 0.2362
f 388/7 387/7 386/7 385/7
v 0.2512 0.5517 0.2362
v 0.2512 0.5817 0.2362
v 0.2512 0.5817 -0.2362
v 0.2512 0.5517 -0.2362
f 392/7 391/7 390/7 389/7
v 0.2212 0.5517 0.2362
v 0.2512 0.5517 0.2362
v 0.2512 0.5517 -0.2362
v 0.2212 0.5517 -0.2362
f 396/7 395/7 394/7 393/7
v 0.2212 0.5817 -0.2362
v 0.2512 0.5817 -0.2362
v 0.2512 0.5817 0.2362
v 0.2212 0.5817 0.2362
f 400/7 399/7 398/7 397/7
v 0.2212 0.5817 0.2362
v 0.2512 0.5817 0.2362
v 0.2512 0.5517 0.2362
v 0.2212 0.5517 0.2362
f 404/7 403/7 402/7 401/7
v 0.2212 0.5517 -0.2362
v 0.2512 0.5517 -0.2362
v 0.2512 0.5817 -0.2362
v 0.2212 0.5817 -0.2362
f 408/7 407/7 406/7 405/7
v -0.2198 1.0255 -0.2007
v -0.2036 1.0411 -0.2015
v 0.2449 0.5745 -0.2254
v 0.2287 0.5589 -0.2245
f 412/7 411/7 410/7 409/7
v 0.2275 0.5589 -0.2470
v 0.2437 0.5745 -0.2478
v -0.2048 1.0411 -0.2240
v -0.2210 1.0255 -0.2231
f 416/7 415/7 414/7 413/7
v 0.2287 0.5589 -0.2245
v 0.2275 0.5589 -0.2470
v -0.2210 1.0255 -0.2231
v -0.2198 1.0255 -0.2007
f 420/7 419/7 418/7 417/7
v -0.2036 1.0411 -0.2015
v -0.2048 1.0411 -0.2240
v 0.2437 0.5745 -0.2478
v 0.2449 0.5745 -0.2254
f 424/7 423/7 422/7 421/7
v 0.2449 0.5745 -0.2254
v 0.2437 0.5745 -0.2478
v 0.2275 0.5589 -0.2470
v 0.2287 0.5589 -0.2245
f 428/7 427/7 426/7 425/7
v -0.2198 1.0255 -0.2007
v -0.2210 1.0255 -0.2231
v -0.2048 1.0411 -0.2240
v -0.2036 1.0411 -0.2015
f 432/7 431/7 430/7 429/7
v -0.2007 1.0255 0.2198
v -0.2015 1.0411 0.2036
v -0.2254 0.5745 -0.2449
v -0.2245 0.5589 -0.2287
f 436/7 435/7 434/7 433/7
v -0.2470 0.5589 -0.2275
v -0.2478 0.5745 -0.2437
v -0.2240 1.0411 0.2048
v -0.2231 1.0255 0.2210
f 440/7 439/7 438/7 437/7
v -0.2245 0.5589 -0.2287
v -0.2470 0.5589 -0.2275
v -0.2231 1.0255 0.2210
v -0.2007 1.0255 0.2198
f 444/7 443/7 442/7 441/7
v -0.2015 1.0411 0.2036
v -0.2240 1.0411 0.2048
v -0.2478 0.5745 -0.2437
v -0.2254 0.5745 -0.2449
f 448/7 447/7 446/7 445/7
v -0.2254 0.5745 -0.2449
v -0.2478 0.5745 -0.2437
v -0.2470 0.5589 -0.2275
v -0.2245 0.5589 -0.2287
f 452/7 451/7 450/7 449/7
v -0.2007 1.0255 0.2198
v -0.2231 1.0255 0.2210
v -0.2240 1.0411 0.2048
v -0.2015 1.0411 0.2036
f 456/7 455/7 454/7 453/7
v 0.2198 1.0255 0.2007
v 0.2036 1.0411 0.2015
v -0.2449 0.5745 0.2254
v -0.2287 0.5589 0.2245
f 460/7 459/7 458/7 457/7
v -0.2275 0.5589 0.2470
v -0.2437 0.5745 0.2478
v 0.2048 1.0411 0.2240
v 0.2210 1.0255 0.2231
f 464/7 463/7 462/7 461/7
v -0.2287 0.5589 0.2245
v -0.2275 0.5589 0.2470
v 0.2210 1.0255 0.2231
v 0.2198 1.0255 0.2007
f 468/7 467/7 466/7 465/7
v 0.2036 1.0411 0.2015
v 0.2048 1.0411 0.2240
v -0.2437 0.5745 0.2478
v -0.2449 0.5745 0.2254
f 472/7 471/7 470/7 469/7
v -0.2449 0.5745 0.2254
v -0.2437 0.5745 0.2478
v -0.2275 0.5589 0.2470
v -0.2287 0.5589 0.2245
f 476/7 475/7 474/7 473/7
v 0.2198 1.0255 0.2007
v 0.2210 1.0255 0.2231
v 0.2048 1.0411 0.2240
v 0.2036 1.0411 0.2015
f 480/7 479/7 478/7 477/7
v 0.2007 1.0255 -0.2198
v 0.2015 1.0411 -0.2036
v 0.2254 0.5745 0.2449
v 0.2245 0.5589 0.2287
f 484/7 483/7 482/7 481/7
v 0.2470 0.5589 0.2275
v 0.2478 0.5745 0.2437
v 0.2240 1.0411 -0.2048
v 0.2231 1.0255 -0.2210
f 488/7 487/7 486/7 485/7
v 0.2245 0.5589 0.2287
v 0.2470 0.5589 0.2275
v 0.2231 1.0255 -0.2210
v 0.2007 1.0255 -0.2198
f 492/7 491/7 490/7 489/7
v 0.2015 1.0411 -0.2036
v 0.2240 1.0411 -0.2048
v 0.2478 0.5745 0.2437
v 0.2254 0.5745 0.2449
f 496/7 495/7 494/7 493/7
v 0.2254 0.5745 0.2449
v 0.2478 0.5745 0.2437
v 0.2470 0.5589 0.2275
v 0.2245 0.5589 0.2287
f 500/7 499/7 498/7 497/7
v 0.2007 1.0255 -0.2198
v 0.2231 1.0255 -0.2210
v 0.2240 1.0411 -0.2048
v 0.2015 1.0411 -0.2036
f 504/7 503/7 502/7 501/7
v -0.2123 1.0183 -0.1973
v -0.2123 1.0483 -0.1973
v 0.2123 1.0483 -0.1973
v 0.2123 1.0183 -0.1973
f 508/7 507/7 506/7 505/7
v 0.2123 1.0183 -0.2273
v 0.2123 1.0483 -0.2273
v -0.2123 1.0483 -0.2273
v -0.2123 1.0183 -0.2273
f 512/7 511/7 510/7 509/7
v 0.2123 1.0183 -0.1973
v 0.2123 1.0183 -0.2273
v -0.2123 1.0183 -0.2273
v -0.2123 1.0183 -0.1973
f 516/7 515/7 514/7 513/7
v -0.2123 1.0483 -0.1973
v -0.2123 1.0483 -0.2273
v 0.2123 1.0483 -0.2273
v 0.2123 1.0483 -0.1973
f 520/7 519/7 518/7 517/7
v 0.2123 1.0483 -0.1973
v 0.2123 1.0483 -0.2273
v 0.2123 1.0183 -0.2273
v 0.2123 1.0183 -0.1973
f 524/7 523/7 522/7 521/7
v -0.2123 1.0183 -0.1973
v -0.2123 1.0183 -0.2273
v -0.2123 1.0483 -0.2273
v -0.2123 1.0483 -0.1973
f 528/7 527/7 526/7 525/7
v -0.1973 1.0183 0.2123
v -0.1973 1.0483 0.2123
v -0.1973 1.0483 -0.2123
v -0.1973 1.0183 -0.2123
f 532/7 531/7 530/7 529/7
v -0.2273 1.0183 -0.2123
v -0.2273 1.0483 -0.2123
v -0.2273 1.0483 0.2123
v -0.2273 1.0183 0.2123
f 536/7 535/7 534/7 533/7
v -0.1973 1.0183 -0.2123
v -0.2273 1.0183 -0.2123
v -0.2273 1.0183 0.2123
v -0.1973 1.0183 0.2123
f 540/7 539/7 538/7 537/7
v -0.1973 1.0483 0.2123
v -0.2273 1.0483 0.2123
v -0.2273 1.0483 -0.2123
v -0.1973 1.0483 -0.2123
f 544/7 543/7 542/7 541/7
v -0.1973 1.0483 -0.2123
v -0.2273 1.0483 -0.2123
v -0.2273 1.0183 -0.2123
v -0.1973 1.0183 -0.2123
f 548/7 547/7 546/7 545/7
v -0.1973 1.0183 0.2123
v -0.2273 1.0183 0.2123
v -0.2273 1.0483 0.2123
v -0.1973 1.0483 0.2123
f 552/7 551/7 550/7 549/7
v 0.2123 1.0183 0.1973
v 0.2123 1.0483 0.1973
v -0.2123 1.0483 0.1973
v -0.2123 1.0183 0.1973
f 556/7 555/7 554/7 553/7
v -0.2123 1.0183 0.2273
v -0.2123 1.0483 0.2273
v 0.2123 1.0483 0.2273
v 0.2123 1.0183 0.2273
f 560/7 559/7 558/7 557/7
v -0.2123 1.0183 0.1973
v -0.2123 1.0183 0.2273
v 0.2123 1.0183 0.2273
v 0.2123 1.0183 0.1973
f 564/7 563/7 562/7 561/7
v 0.2123 1.0483 0.1973
v 0.2123 1.0483 0.2273
v -0.2123 1.0483 0.2273
v -0.2123 1.0483 0.1973
f 568/7 567/7 566/7 565/7
v -0.2123 1.0483 0.1973
v -0.2123 1.0483 0.2273
v -0.2123 1.0183 0.2273
v -0.2123 1.0183 0.1973
f 572/7 571/7 570/7 569/7
v 0.2123 1.0183 0.1973
v 0.2123 1.0183 0.2273
v 0.2123 1.0483 0.2273
v 0.2123 1.0483 0.1973
f 576/7 575/7 574/7 573/7
v 0.1973 1.0183 -0.2123
v 0.1973 1.0483 -0.2123
v 0.1973 1.0483 0.2123
v 0.1973 1.0183 0.2123
f 580/7 579/7 578/7 577/7
v 0.2273 1.0183 0.2123
v 0.2273 1.0483 0.2123
v 0.2273 1.0483 -0.2123
v 0.2273 1.0183 -0.2123
f 584/7 583/7 582/7 581/7
v 0.1973 1.0183 0.2123
v 0.2273 1.0183 0.2123
v 0.2273 1.0183 -0.2123
v 0.1973 1.0183 -0.2123
f 588/7 587/7 586/7 585/7
v 0.1973 1.0483 -0.2123
v 0.2273 1.0483 -0.2123
v 0.2273 1.0483 0.2123
v 0.1973 1.0483 0.2123
f 592/7 591/7 590/7 589/7
v 0.1973 1.0483 0.2123
v 0.2273 1.0483 0.2123
v 0.2273 1.0183 0.2123
v 0.1973 1.0183 0.2123
f 596/7 595/7 594/7 593/7
v 0.1973 1.0183 -0.2123
v 0.2273 1.0183 -0.2123
v 0.2273 1.0483 -0.2123
v 0.1973 1.0483 -0.2123
f 600/7 599/7 598/7 597/7
v -0.1963 1.4927 -0.1768
v -0.1793 1.5073 -0.1778
v 0.2215 1.0407 -0.2016
v 0.2045 1.0260 -0.2006
f 604/7 603/7 602/7 601/7
v 0.2032 1.0260 -0.2231
v 0.2202 1.0407 -0.2241
v -0.1807 1.5073 -0.2002
v -0.1977 1.4927 -0.1992
f 608/7 607/7 606/7 605/7
v 0.2045 1.0260 -0.2006
v 0.2032 1.0260 -0.2231
v -0.1977 1.4927 -0.1992
v -0.1963 1.4927 -0.1768
f 612/7 611/7 610/7 609/7
v -0.1793 1.5073 -0.1778
v -0.1807 1.5073 -0.2002
v 0.2202 1.0407 -0.2241
v 0.2215 1.0407 -0.2016
f 616/7 615/7 614/7 613/7
v 0.2215 1.0407 -0.2016
v 0.2202 1.0407 -0.2241
v 0.2032 1.0260 -0.2231
v 0.2045 1.0260 -0.2006
f 620/7 619/7 618/7 617/7
v -0.1963 1.4927 -0.1768
v -0.1977 1.4927 -0.1992
v -0.1807 1.5073 -0.2002
v -0.1793 1.5073 -0.1778
f 624/7 623/7 622/7 621/7
v -0.1768 1.4927 0.1963
v -0.1778 1.5073 0.1793
v -0.2016 1.0407 -0.2215
v -0.2006 1.0260 -0.2045
f 628/7 627/7 626/7 625/7
v -0.2231 1.0260 -0.2032
v -0.2241 1.0407 -0.2202
v -0.2002 1.5073 0.1807
v -0.1992 1.4927 0.1977
f 632/7 631/7 630/7 629/7
v -0.2006 1.0260 -0.2045
v -0.2231 1.0260 -0.2032
v -0.1992 1.4927 0.1977
v -0.1768 1.4927 0.1963
f 636/7 635/7 634/7 633/7
v -0.1778 1.5073 0.1793
v -0.2002 1.5073 0.1807
v -0.2241 1.0407 -0.2202
v -0.2016 1.0407 -0.2215
f 640/7 639/7 638/7 637/7
v -0.2016 1.0407 -0.2215
v -0.2241 1.0407 -0.2202
v -0.2231 1.0260 -0.2032
v -0.2006 1.0260 -0.2045
f 644/7 643/7 642/7 641/7
v -0.1768 1.4927 0.1963
v -0.1992 1.4927 0.1977
v -0.2002 1.5073 0.1807
v -0.1778 1.5073 0.1793
f 648/7 647/7 646/7 645/7
v 0.1963 1.4927 0.1768
v 0.1793 1.5073 0.1778
v -0.2215 1.0407 0.2016
v -0.2045 1.0260 0.2006
f 652/7 651/7 650/7 649/7
v -0.2032 1.0260 0.2231
v -0.2202 1.0407 0.2241
v 0.1807 1.5073 0.2002
v 0.1977 1.4927 0.1992
f 656/7 655/7 654/7 653/7
v -0.2045 1.0260 0.2006
v -0.2032 1.0260 0.2231
v 0.1977 1.4927 0.1992
v 0.1963 1.4927 0.1768
f 660/7 659/7 658/7 657/7
v 0.1793 1.5073 0.1778
v 0.1807 1.5073 0.2002
v -0.2202 1.0407 0.2241
v -0.2215 1.0407 0.2016
f 664/7 663/7 662/7 661/7
v -0.2215 1.0407 0.2016
v -0.2202 1.0407 0.2241
v -0.2032 1.0260 0.2231
v -0.2045 1.0260 0.2006
f 668/7 667/7 666/7 665/7
v 0.1963 1.4927 0.1768
v 0.1977 1.4927 0.1992
v 0.1807 1.5073 0.2002
v 0.1793 1.5073 0.1778
f 672/7 671/7 670/7 669/7
v 0.1768 1.4927 -0.1963
v 0.1778 1.5073 -0.1793
v 0.2016 1.0407 0.2215
v 0.2006 1.0260 0.2045
f 676/7 675/7 674/7 673/7
v 0.2231 1.0260 0.2032
v 0.2241 1.0407 0.2202
v 0.2002 1.5073 -0.1807
v 0.1992 1.4927 -0.1977
f 680/7 679/7 678/7 677/7
v 0.2006 1.0260 0.2045
v 0.2231 1.0260 0.2032
v 0.1992 1.4927 -0.1977
v 0.1768 1.4927 -0.1963
f 684/7 683/7 682/7 681/7
v 0.1778 1.5073 -0.1793
v 0.2002 1.5073 -0.1807
v 0.2241 1.0407 0.2202
v 0.2016 1.0407 0.2215
f 688/7 687/7 686/7 685/7
v 0.2016 1.0407 0.2215
v 0.2241 1.0407 0.2202
v 0.2231 1.0260 0.2032
v 0.2006 1.0260 0.2045
f 692/7 691/7 690/7 689/7
v 0.1768 1.4927 -0.1963
v 0.1992 1.4927 -0.1977
v 0.2002 1.5073 -0.1807
v 0.1778 1.5073 -0.1793
f 696/7 695/7 694/7 693/7
v -0.1885 1.4850 -0.1735
v -0.1885 1.5150 -0.1735
v 0.1885 1.5150 -0.1735
v 0.1885 1.4850 -0.1735
f 700/7 699/7 698/7 697/7
v 0.1885 1.4850 -0.2035
v 0.1885 1.5150 -0.2035
v -0.1885 1.5150 -0.2035
v -0.1885 1.4850 -0.2035
f 704/7 703/7 702/7 701/7
v 0.1885 1.4850 -0.1735
v 0.1885 1.4850 -0.2035
v -0.1885 1.4850 -0.2035
v -0.1885 1.4850 -0.1735
f 708/7 707/7 706/7 705/7
v -0.1885 1.5150 -0.1735
v -0.1885 1.5150 -0.2035
v 0.1885 1.5150 -0.2035
v 0.1885 1.5150 -0.1735
f 712/7 711/7 710/7 709/7
v 0.1885 1.5150 -0.1735
v 0.1885 1.5150 -0.2035
v 0.1885 1.4850 -0.2035
v 0.1885 1.4850 -0.1735
f 716/7 715/7 714/7 713/7
v -0.1885 1.4850 -0.1735
v -0.1885 1.4850 -0.2035
v -0.1885 1.5150 -0.2035
v -0.1885 1.5150 -0.1735
f 720/7 719/7 718/7 717/7
v -0.1735 1.4850 0.1885
v -0.1735 1.5150 0.1885
v -0.1735 1.5150 -0.1885
v -0.1735 1.4850 -0.1885
f 724/7 723/7 722/7 721/7
v -0.2035 1.4850 -0.1885
v -0.2035 1.5150 -0.1885
v -0.2035 1.5150 0.1885
v -0.2035 1.4850 0.1885
f 728/7 727/7 726/7 725/7
v -0.1735 1.4850 -0.1885
v -0.2035 1.4850 -0.1885
v -0.2035 1.4850 0.1885
v -0.1735 1.4850 0.1885
f 732/7 731/7 730/7 729/7
v -0.1735 1.5150 0.1885
v -0.2035 1.5150 0.1885
v -0.2035 1.5150 -0.1885
v -0.1735 1.5150 -0.1885
f 736/7 735/7 734/7 733/7
v -0.1735 1.5150 -0.1885
v -0.2035 1.5150 -0.1885
v -0.2035 1.4850 -0.1885
v -0.1735 1.4850 -0.1885
f 740/7 739/7 738/7 737/7
v -0.1735 1.4850 0.1885
v -0.2035 1.4850 0.1885
v -0.2035 1.5150 0.1885
v -0.1735 1.5150 0.1885
f 744/7 743/7 742/7 741/7
v 0.1885 1.4850 0.1735
v 0.1885 1.5150 0.1735
v -0.1885 1.5150 0.1735
v -0.1885 1.4850 0.1735
f 748/7 747/7 746/7 745/7
v -0.1885 1.4850 0.2035
v -0.1885 1.5150 0.2035
v 0.1885 1.5150 0.2035
v 0.1885 1.4850 0.2035
f 752/7 751/7 750/7 749/7
v -0.1885 1.4850 0.1735
v -0.1885 1.4850 0.2035
v 0.1885 1.4850 0.2035
v 0.1885 1.4850 0.1735
f 756/7 755/7 754/7 753/7
v 0.1885 1.5150 0.1735
v 0.1885 1.5150 0.2035
v -0.1885 1.5150 0.2035
v -0.1885 1.5150 0.1735
f 760/7 759/7 758/7 757/7
v -0.1885 1.5150 0.1735
v -0.1885 1.5150 0.2035
v -0.1885 1.4850 0.2035
v -0.1885 1.4850 0.1735
f 764/7 763/7 762/7 761/7
v 0.1885 1.4850 0.1735
v 0.1885 1.4850 0.2035
v 0.1885 1.5150 0.2035
v 0.1885 1.5150 0.1735
f 768/7 767/7 766/7 765/7
v 0.1735 1.4850 -0.1885
v 0.1735 1.5150 -0.1885
v 0.1735 1.5150 0.1885
v 0.1735 1.4850 0.1885
f 772/7 771/7 770/7 769/7
v 0.2035 1.4850 0.1885
v 0.2035 1.5150 0.1885
v 0.2035 1.5150 -0.1885
v 0.2035 1.4850 -0.1885
f 776/7 775/7 774/7 773/7
v 0.1735 1.4850 0.1885
v 0.2035 1.4850 0.1885
v 0.2035 1.4850 -0.1885
v 0.1735 1.4850 -0.1885
f 780/7 779/7 778/7 777/7
v 0.1735 1.5150 -0.1885
v 0.2035 1.5150 -0.1885
v 0.2035 1.5150 0.1885
v 0.1735 1.5150 0.1885
f 784/7 783/7 782/7 781/7
v 0.1735 1.5150 0.1885
v 0.2035 1.5150 0.1885
v 0.2035 1.4850 0.1885
v 0.1735 1.4850 0.1885
f 788/7 787/7 786/7 785/7
v 0.1735 1.4850 -0.1885
v 0.2035 1.4850 -0.1885
v 0.2035 1.5150 -0.1885
v 0.1735 1.5150 -0.1885
f 792/7 791/7 790/7 789/7
v -0.1729 1.9599 -0.1528
v -0.1550 1.9735 -0.1540
v 0.1982 1.5068 -0.1779
v 0.1803 1.4932 -0.1767
f 796/7 795/7 794/7 793/7
v 0.1788 1.4932 -0.1991
v 0.1967 1.5068 -0.2003
v -0.1565 1.9735 -0.1765
v -0.1744 1.9599 -0.1753
f 800/7 799/7 798/7 797/7
v 0.1803 1.4932 -0.1767
v 0.1788 1.4932 -0.1991
v -0.1744 1.9599 -0.1753
v -0.1729 1.9599 -0.1528
f 804/7 803/7 802/7 801/7
v -0.1550 1.9735 -0.1540
v -0.1565 1.9735 -0.1765
v 0.1967 1.5068 -0.2003
v 0.1982 1.5068 -0.1779
f 808/7 807/7 806/7 805/7
v 0.1982 1.5068 -0.1779
v 0.1967 1.5068 -0.2003
v 0.1788 1.4932 -0.1991
v 0.1803 1.4932 -0.1767
f 812/7 811/7 810/7 809/7
v -0.1729 1.9599 -0.1528
v -0.1744 1.9599 -0.1753
v -0.1565 1.9735 -0.1765
v -0.1550 1.9735 -0.1540
f 816/7 815/7 814/7 813/7
v -0.1528 1.9599 0.1729
v -0.1540 1.9735 0.1550
v -0.1779 1.5068 -0.1982
v -0.1767 1.4932 -0.1803
f 820/7 819/7 818/7 817/7
v -0.1991 1.4932 -0.1788
v -0.2003 1.5068 -0.1967
v -0.1765 1.9735 0.1565
v -0.1753 1.9599 0.1744
f 824/7 823/7 822/7 821/7
v -0.1767 1.4932 -0.1803
v -0.1991 1.4932 -0.1788
v -0.1753 1.9599 0.1744
v -0.1528 1.9599 0.1729
f 828/7 827/7 826/7 825/7
v -0.1540 1.9735 0.1550
v -0.1765 1.9735 0.1565
v -0.2003 1.5068 -0.1967
v -0.1779 1.5068 -0.1982
f 832/7 831/7 830/7 829/7
v -0.1779 1.5068 -0.1982
v -0.2003 1.5068 -0.1967
v -0.1991 1.4932 -0.1788
v -0.1767 1.4932 -0.1803
f 836/7 835/7 834/7 833/7
v -0.1528 1.9599 0.1729
v -0.1753 1.9599 0.1744
v -0.1765 1.9735 0.1565
v -0.1540 1.9735 0.1550
f 840/7 839/7 838/7 837/7
v 0.1729 1.9599 0.1528
v 0.1550 1.9735 0.1540
v -0.1982 1.5068 0.1779
v -0.1803 1.4932 0.1767
f 844/7 843/7 842/7 841/7
v -0.1788 1.4932 0.1991
v -0.1967 1.5068 0.2003
v 0.1565 1.9735 0.1765
v 0.1744 1.9599 0.1753
f 848/7 847/7 846/7 845/7
v -0.1803 1.4932 0.1767
v -0.1788 1.4932 0.1991
v 0.1744 1.9599 0.1753
v 0.1729 1.9599 0.1528
f 852/7 851/7 850/7 849/7
v 0.1550 1.9735 0.1540
v 0.1565 1.9735 0.1765
v -0.1967 1.5068 0.2003
v -0.1982 1.5068 0.1779
f 856/7 855/7 854/7 853/7
v -0.1982 1.5068 0.1779
v -0.1967 1.5068 0.2003
v -0.1788 1.4932 0.1991
v -0.1803 1.4932 0.1767
f 860/7 859/7 858/7 857/7
v 0.1729 1.9599 0.1528
v 0.1744 1.9599 0.1753
v 0.1565 1.9735 0.1765
v 0.1550 1.9735 0.1540
f 864/7 863/7 862/7 861/7
v 0.1528 1.9599 -0.1729
v 0.1540 1.9735 -0.1550
v 0.1779 1.5068 0.1982
v 0.1767 1.4932 0.1803
f 868/7 867/7 866/7 865/7
v 0.1991 1.4932 0.1788
v 0.2003 1.5068 0.1967
v 0.1765 1.9735 -0.1565
v 0.1753 1.9599 -0.1744
f 872/7 871/7 870/7 869/7
v 0.1767 1.4932 0.1803
v 0.1991 1.4932 0.1788
v 0.1753 1.9599 -0.1744
v 0.1528 1.9599 -0.1729
f 876/7 875/7 874/7 873/7
v 0.1540 1.9735 -0.1550
v 0.1765 1.9735 -0.1565
v 0.2003 1.5068 0.1967
v 0.1779 1.5068 0.1982
f 880/7 879/7 878/7 877/7
v 0.1779 1.5068 0.1982
v 0.2003 1.5068 0.1967
v 0.1991 1.4932 0.1788
v 0.1767 1.4932 0.1803
f 884/7 883/7 882/7 881/7
v 0.1528 1.9599 -0.1729
v 0.1753 1.9599 -0.1744
v 0.1765 1.9735 -0.1565
v 0.1540 1.9735 -0.1550
f 888/7 887/7 886/7 885/7
v -0.1647 1.9517 -0.1497
v -0.1647 1.9817 -0.1497
v 0.1647 1.9817 -0.1497
v 0.1647 1.9517 -0.1497
f 892/7 891/7 890/7 889/7
v 0.1647 1.9517 -0.1797
v 0.1647 1.9817 -0.1797
v -0.1647 1.9817 -0.1797
v -0.1647 1.9517 -0.1797
f 896/7 895/7 894/7 893/7
v 0.1647 1.9517 -0.1497
v 0.1647 1.9517 -0.1797
v -0.1647 1.9517 -0.1797
v -0.1647 1.9517 -0.1497
f 900/7 899/7 898/7 897/7
v -0.1647 1.9817 -0.1497
v -0.1647 1.9817 -0.1797
v 0.1647 1.9817 -0.1797
v 0.1647 1.9817 -0.1497
f 904/7 903/7 902/7 901/7
v 0.1647 1.9817 -0.1497
v 0.1647 1.9817 -0.1797
v 0.1647 1.9517 -0.1797
v 0.1647 1.9517 -0.1497
f 908/7 907/7 906/7 905/7
v -0.1647 1.9517 -0.1497
v -0.1647 1.9517 -0.1797
v -0.1647 1.9817 -0.1797
v -0.1647 1.9817 -0.1497
f 912/7 911/7 910/7 909/7
v -0.1497 1.9517 0.1647
v -0.1497 1.9817 0.1647
v -0.1497 1.9817 -0.1647
v -0.1497 1.9517 -0.1647
f 916/7 915/7 914/7 913/7
v -0.1797 1.9517 -0.1647
v -0.1797 1.9817 -0.1647
v -0.1797 1.9817 0.1647
v -0.1797 1.9517 0.1647
f 920/7 919/7 918/7 917/7
v -0.1497 1.9517 -0.1647
v -0.1797 1.9517 -0.1647
v -0.1797 1.9517 0.1647
v -0.1497 1.9517 0.1647
f 924/7 923/7 922/7 921/7
v -0.1497 1.9817 0.1647
v -0.1797 1.9817 0.1647
v -0.1797 1.9817 -0.1647
v -0.1497 1.9817 -0.1647
f 928/7 927/7 926/7 925/7
v -0.1497 1.9817 -0.1647
v -0.1797 1.9817 -0.1647
v -0.1797 1.9517 -0.1647
v -0.1497 1.9517 -0.1647
f 932/7 931/7 930/7 929/7
v -0.1497 1.9517 0.1647
v -0.1797 1.9517 0.1647
v -0.1797 1.9817 0.1647
v -0.1497 1.9817 0.1647
f 936/7 935/7 934/7 933/7
v 0.1647 1.9517 0.1497
v 0.1647 1.9817 0.1497
v -0.1647 1.9817 0.1497
v -0.1647 1.9517 0.1497
f 940/7 939/7 938/7 937/7
v -0.1647 1.9517 0.1797
v -0.1647 1.9817 0.1797
v 0.1647 1.9817 0.1797
v 0.1647 1.9517 0.1797
f 944/7 943/7 942/7 941/7
v -0.1647 1.9517 0.1497
v -0.1647 1.9517 0.1797
v 0.1647 1.9517 0.1797
v 0.1647 1.9517 0.1497
f 948/7 947/7 946/7 945/7
v 0.1647 1.9817 0.1497
v 0.1647 1.9817 0.1797
v -0.1647 1.9817 0.1797
v -0.1647 1.9817 0.1497
f 952/7 951/7 950/7 949/7
v -0.1647 1.9817 0.1497
v -0.1647 1.9817 0.1797
v -0.1647 1.9517 0.1797
v -0.1647 1.9517 0.1497
f 956/7 955/7 954/7 953/7
v 0.1647 1.9517 0.1497
v 0.1647 1.9517 0.1797
v 0.1647 1.9817 0.1797
v 0.1647 1.9817 0.1497
f 960/7 959/7 958/7 957/7
v 0.1497 1.9517 -0.1647
v 0.1497 1.9817 -0.1647
v 0.1497 1.9817 0.1647
v 0.1497 1.9517 0.1647
f 964/7 963/7 962/7 961/7
v 0.1797 1.9517 0.1647
v 0.1797 1.9817 0.1647
v 0.1797 1.9817 -0.1647
v 0.1797 1.9517 -0.1647
f 968/7 967/7 966/7 965/7
v 0.1497 1.9517 0.1647
v 0.1797 1.9517 0.1647
v 0.1797 1.9517 -0.1647
v 0.1497 1.9517 -0.1647
f 972/7 971/7 970/7 969/7
v 0.1497 1.9817 -0.1647
v 0.1797 1.9817 -0.1647
v 0.1797 1.9817 0.1647
v 0.1497 1.9817 0.1647
f 976/7 975/7 974/7 973/7
v 0.1497 1.9817 0.1647
v 0.1797 1.9817 0.1647
v 0.1797 1.9517 0.1647
v 0.1497 1.9517 0.1647
f 980/7 979/7 978/7 977/7
v 0.1497 1.9517 -0.1647
v 0.1797 1.9517 -0.1647
v 0.1797 1.9817 -0.1647
v 0.1497 1.9817 -0.1647
f 984/7 983/7 982/7 981/7
v -0.1493 2.4272 -0.1289
v -0.1306 2.4395 -0.1303
v 0.1749 1.9728 -0.1542
v 0.1562 1.9605 -0.1527
f 988/7 987/7 986/7 985/7
v 0.1544 1.9605 -0.1752
v 0.1732 1.9728 -0.1766
v -0.1323 2.4395 -0.1528
v -0.1511 2.4272 -0.1513
f 992/7 991/7 990/7 989/7
v 0.1562 1.9605 -0.1527
v 0.1544 1.9605 -0.1752
v -0.1511 2.4272 -0.1513
v -0.1493 2.4272 -0.1289
f 996/7 995/7 994/7 993/7
v -0.1306 2.4395 -0.1303
v -0.1323 2.4395 -0.1528
v 0.1732 1.9728 -0.1766
v 0.1749 1.9728 -0.1542
f 1000/7 999/7 998/7 997/7
v 0.1749 1.9728 -0.1542
v 0.1732 1.9728 -0.1766
v 0.1544 1.9605 -0.1752
v 0.1562 1.9605 -0.1527
f 1004/7 1003/7 1002/7 1001/7
v -0.1493 2.4272 -0.1289
v -0.1511 2.4272 -0.1513
v -0.1323 2.4395 -0.1528
v -0.1306 2.4395 -0.1303
f 1008/7 1007/7 1006/7 1005/7
v -0.1289 2.4272 0.1493
v -0.1303 2.4395 0.1306
v -0.1542 1.9728 -0.1749
v -0.1527 1.9605 -0.1562
f 1012/7 1011/7 1010/7 1009/7
v -0.1752 1.9605 -0.1544
v -0.1766 1.9728 -0.1732
v -0.1528 2.4395 0.1323
v -0.1513 2.4272 0.1511
f 1016/7 1015/7 1014/7 1013/7
v -0.1527 1.9605 -0.1562
v -0.1752 1.9605 -0.1544
v -0.1513 2.4272 0.1511
v -0.1289 2.4272 0.1493
f 1020/7 1019/7 1018/7 1017/7
v -0.1303 2.4395 0.1306
v -0.1528 2.4395 0.1323
v -0.1766 1.9728 -0.1732
v -0.1542 1.9728 -0.1749
f 1024/7 1023/7 1022/7 1021/7
v -0.1542 1.9728 -0.1749
v -0.1766 1.9728 -0.1732
v -0.1752 1.9605 -0.1544
v -0.1527 1.9605 -0.1562
f 1028/7 1027/7 1026/7 1025/7
v -0.1289 2.4272 0.1493
v -0.1513 2.4272 0.1511
v -0.1528 2.4395 0.1323
v -0.1303 2.4395 0.1306
f 1032/7 1031/7 1030/7 1029/7
v 0.1493 2.4272 0.1289
v 0.1306 2.4395 0.1303
v -0.1749 1.9728 0.1542
v -0.1562 1.9605 0.1527
f 1036/7 1035/7 1034/7 1033/7
v -0.1544 1.9605 0.1752
v -0.1732 1.9728 0.1766
v 0.1323 2.4395 0.1528
v 0.1511 2.4272 0.1513
f 1040/7 1039/7 1038/7 1037/7
v -0.1562 1.9605 0.1527
v -0.1544 1.9605 0.1752
v 0.1511 2.4272 0.1513
v 0.1493 2.4272 0.1289
f 1044/7 1043/7 1042/7 1041/7
v 0.1306 2.4395 0.1303
v 0.1323 2.4395 0.1528
v -0.1732 1.9728 0.1766
v -0.1749 1.9728 0.1542
f 1048/7 1047/7 1046/7 1045/7
v -0.1749 1.9728 0.1542
v -0.1732 1.9728 0.1766
v -0.1544 1.9605 0.1752
v -0.1562 1.9605 0.1527
f 1052/7 1051/7 1050/7 1049/7
v 0.1493 2.4272 0.1289
v 0.1511 2.4272 0.1513
v 0.1323 2.4395 0.1528
v 0.1306 2.4395 0.1303
f 1056/7 1055/7 1054/7 1053/7
v 0.1289 2.4272 -0.1493
v 0.1303 2.4395 -0.1306
v 0.1542 1.9728 0.1749
v 0.1527 1.9605 0.1562
f 1060/7 1059/7 1058/7 1057/7
v 0.1752 1.9605 0.1544
v 0.1766 1.9728 0.1732
v 0.1528 2.4395 -0.1323
v 0.1513 2.4272 -0.1511
f 1064/7 1063/7 1062/7 1061/7
v 0.1527 1.9605 0.1562
v 0.1752 1.9605 0.1544
v 0.1513 2.4272 -0.1511
v 0.1289 2.4272 -0.1493
f 1068/7 1067/7 1066/7 1065/7
v 0.1303 2.4395 -0.1306
v 0.1528 2.4395 -0.1323
v 0.1766 1.9728 0.1732
v 0.1542 1.9728 0.1749
f 1072/7 1071/7 1070/7 1069/7
v 0.1542 1.9728 0.1749
v 0.1766 1.9728 0.1732
v 0.1752 1.9605 0.1544
v 0.1527 1.9605 0.1562
f 1076/7 1075/7 1074/7 1073/7
v 0.1289 2.4272 -0.1493
v 0.1513 2.4272 -0.1511
v 0.1528 2.4395 -0.1323
v 0.1303 2.4395 -0.1306
f 1080/7 1079/7 1078/7 1077/7
v -0.1408 2.4183 -0.1258
v -0.1408 2.4483 -0.1258
v 0.1408 2.4483 -0.1258
v 0.1408 2.4183 -0.1258
f 1084/7 1083/7 1082/7 1081/7
v 0.1408 2.4183 -0.1558
v 0.1408 2.4483 -0.1558
v -0.1408 2.4483 -0.1558
v -0.1408 2.4183 -0.1558
f 1088/7 1087/7 1086/7 1085/7
v 0.1408 2.4183 -0.1258
v 0.1408 2.4183 -0.1558
v -0.1408 2.4183 -0.1558
v -0.1408 2.4183 -0.1258
f 1092/7 1091/7 1090/7 1089/7
v -0.1408 2.4483 -0.1258
v -0.1408 2.4483 -0.1558
v 0.1408 2.4483 -0.1558
v 0.1408 2.4483 -0.1258
f 1096/7 1095/7 1094/7 1093/7
v 0.1408 2.4483 -0.1258
v 0.1408 2.4483 -0.1558
v 0.1408 2.4183 -0.1558
v 0.1408 2.4183 -0.1258
f 1100/7 1099/7 1098/7 1097/7
v -0.1408 2.4183 -0.1258
v -0.1408 2.4183 -0.1558
v -0.1408 2.4483 -0.1558
v -0.1408 2.4483 -0.1258
f 1104/7 1103/7 1102/7 1101/7
v -0.1258 2.4183 0.1408
v -0.1258 2.4483 0.1408
v -0.1258 2.4483 -0.1408
v -0.1258 2.4183 -0.1408
f 1108/7 1107/7 1106/7 1105/7
v -0.1558 2.4183 -0.1408
v -0.1558 2.4483 -0.1408
v -0.1558 2.4483 0.1408
v -0.1558 2.4183 0.1408
f 1112/7 1111/7 1110/7 1109/7
v -0.1258 2.4183 -0.1408
v -0.1558 2.4183 -0.1408
v -0.1558 2.4183 0.1408
v -0.1258 2.4183 0.1408
f 1116/7 1115/7 1114/7 1113/7
v -0.1258 2.4483 0.1408
v -0.1558 2.4483 0.1408
v -0.1558 2.4483 -0.1408
v -0.1258 2.4483 -0.1408
f 1120/7 1119/7 1118/7 1117/7
v -0.1258 2.4483 -0.1408
v -0.1558 2.4483 -0.1408
v -0.1558 2.4183 -0.1408
v -0.1258 2.4183 -0.1408
f 1124/7 1123/7 1122/7 1121/7
v -0.1258 2.4183 0.1408
v -0.1558 2.4183 0.1408
v -0.1558 2.4483 0.1408
v -0.1258 2.4483 0.1408
f 1128/7 1127/7 1126/7 1125/7
v 0.1408 2.4183 0.1258
v 0.1408 2.4483 0.1258
v -0.1408 2.4483 0.1258
v -0.1408 2.4183 0.1258
f 1132/7 1131/7 1130/7 1129/7
v -0.1408 2.4183 0.1558
v -0.1408 2.4483 0.1558
v 0.1408 2.4483 0.1558
v 0.1408 2.4183 0.1558
f 1136/7 1135/7 1134/7 1133/7
v -0.1408 2.4183 0.1258
v -0.1408 2.4183 0.1558
v 0.1408 2.4183 0.1558
v 0.1408 2.4183 0.1258
f 1140/7 1139/7 1138/7 1137/7
v 0.1408 2.4483 0.1258
v 0.1408 2.4483 0.1558
v -0.1408 2.4483 0.1558
v -0.1408 2.4483 0.1258
f 1144/7 1143/7 1142/7 1141/7
v -0.1408 2.4483 0.1258
v -0.1408 2.4483 0.1558
v -0.1408 2.4183 0.1558
v -0.1408 2.4183 0.1258
f 1148/7 1147/7 1146/7 1145/7
v 0.1408 2.4183 0.1258
v 0.1408 2.4183 0.1558
v 0.1408 2.4483 0.1558
v 0.1408 2.4483 0.1258
f 1152/7 1151/7 1150/7 1149/7
v 0.1258 2.4183 -0.1408
v 0.1258 2.4483 -0.1408
v 0.1258 2.4483 0.1408
v 0.1258 2.4183 0.1408
f 1156/7 1155/7 1154/7 1153/7
v 0.1558 2.4183 0.1408
v 0.1558 2.4483 0.1408
v 0.1558 2.4483 -0.1408
v 0.1558 2.4183 -0.1408
f 1160/7 1159/7 1158/7 1157/7
v 0.1258 2.4183 0.1408
v 0.1558 2.4183 0.1408
v 0.1558 2.4183 -0.1408
v 0.1258 2.4183 -0.1408
f 1164/7 1163/7 1162/7 1161/7
v 0.1258 2.4483 -0.1408
v 0.1558 2.4483 -0.1408
v 0.1558 2.4483 0.1408
v 0.1258 2.4483 0.1408
f 1168/7 1167/7 1166/7 1165/7
v 0.1258 2.4483 0.1408
v 0.1558 2.4483 0.1408
v 0.1558 2.4183 0.1408
v 0.1258 2.4183 0.1408
f 1172/7 1171/7 1170/7 1169/7
v 0.1258 2.4183 -0.1408
v 0.1558 2.4183 -0.1408
v 0.1558 2.4483 -0.1408
v 0.1258 2.4483 -0.1408
f 1176/7 1175/7 1174/7 1173/7
v -0.1258 2.8945 -0.1049
v -0.1062 2.9055 -0.1067
v 0.1517 2.4388 -0.1305
v 0.1321 2.4279 -0.1287
f 1180/7 1179/7 1178/7 1177/7
v 0.1300 2.4279 -0.1511
v 0.1496 2.4388 -0.1529
v -0.1082 2.9055 -0.1291
v -0.1278 2.8945 -0.1273
f 1184/7 1183/7 1182/7 1181/7
v 0.1321 2.4279 -0.1287
v 0.1300 2.4279 -0.1511
v -0.1278 2.8945 -0.1273
v -0.1258 2.8945 -0.1049
f 1188/7 1187/7 1186/7 1185/7
v -0.1062 2.9055 -0.1067
v -0.1082 2.9055 -0.1291
v 0.1496 2.4388 -0.1529
v 0.1517 2.4388 -0.1305
f 1192/7 1191/7 1190/7 1189/7
v 0.1517 2.4388 -0.1305
v 0.1496 2.4388 -0.1529
v 0.1300 2.4279 -0.1511
v 0.1321 2.4279 -0.1287
f 1196/7 1195/7 1194/7 1193/7
v -0.1258 2.8945 -0.1049
v -0.1278 2.8945 -0.1273
v -0.1082 2.9055 -0.1291
v -0.1062 2.9055 -0.1067
f 1200/7 1199/7 1198/7 1197/7
v -0.1049 2.8945 0.1258
v -0.1067 2.9055 0.1062
v -0.1305 2.4388 -0.1517
v -0.1287 2.4279 -0.1321
f 1204/7 1203/7 1202/7 1201/7
v -0.1511 2.4279 -0.1300
v -0.1529 2.4388 -0.1496
v -0.1291 2.9055 0.1082
v -0.1273 2.8945 0.1278
f 1208/7 1207/7 1206/7 1205/7
v -0.1287 2.4279 -0.1321
v -0.1511 2.4279 -0.1300
v -0.1273 2.8945 0.1278
v -0.1049 2.8945 0.1258
f 1212/7 1211/7 1210/7 1209/7
v -0.1067 2.9055 0.1062
v -0.1291 2.9055 0.1082
v -0.1529 2.4388 -0.1496
v -0.1305 2.4388 -0.1517
f 1216/7 1215/7 1214/7 1213/7
v -0.1305 2.4388 -0.1517
v -0.1529 2.4388 -0.1496
v -0.1511 2.4279 -0.1300
v -0.1287 2.4279 -0.1321
f 1220/7 1219/7 1218/7 1217/7
v -0.1049 2.8945 0.1258
v -0.1273 2.8945 0.1278
v -0.1291 2.9055 0.1082
v -0.1067 2.9055 0.1062
f 1224/7 1223/7 1222/7 1221/7
v 0.1258 2.8945 0.1049
v 0.1062 2.9055 0.1067
v -0.1517 2.4388 0.1305
v -0.1321 2.4279 0.1287
f 1228/7 1227/7 1226/7 1225/7
v -0.1300 2.4279 0.1511
v -0.1496 2.4388 0.1529
v 0.1082 2.9055 0.1291
v 0.1278 2.8945 0.1273
f 1232/7 1231/7 1230/7 1229/7
v -0.1321 2.4279 0.1287
v -0.1300 2.4279 0.1511
v 0.1278 2.8945 0.1273
v 0.1258 2.8945 0.1049
f 1236/7 1235/7 1234/7 1233/7
v 0.1062 2.9055 0.1067
v 0.1082 2.9055 0.1291
v -0.1496 2.4388 0.1529
v -0.1517 2.4388 0.1305
f 1240/7 1239/7 1238/7 1237/7
v -0.1517 2.4388 0.1305
v -0.1496 2.4388 0.1529
v -0.1300 2.4279 0.1511
v -0.1321 2.4279 0.1287
f 1244/7 1243/7 1242/7 1241/7
v 0.1258 2.8945 0.1049
v 0.1278 2.8945 0.1273
v 0.1082 2.9055 0.1291
v 0.1062 2.9055 0.1067
f 1248/7 1247/7 1246/7 1245/7
v 0.1049 2.8945 -0.1258
v 0.1067 2.9055 -0.1062
v 0.1305 2.4388 0.1517
v 0.1287 2.4279 0.1321
f 1252/7 1251/7 1250/7 1249/7
v 0.1511 2.4279 0.1300
v 0.1529 2.4388 0.1496
v 0.1291 2.9055 -0.1082
v 0.1273 2.8945 -0.1278
f 1256/7 1255/7 1254/7 1253/7
v 0.1287 2.4279 0.1321
v 0.1511 2.4279 0.1300
v 0.1273 2.8945 -0.1278
v 0.1049 2.8945 -0.1258
f 1260/7 1259/7 1258/7 1257/7
v 0.1067 2.9055 -0.1062
v 0.1291 2.9055 -0.1082
v 0.1529 2.4388 0.1496
v 0.1305 2.4388 0.1517
f 1264/7 1263/7 1262/7 1261/7
v 0.1305 2.4388 0.1517
v 0.1529 2.4388 0.1496
v 0.1511 2.4279 0.1300
v 0.1287 2.4279 0.1321
f 1268/7 1267/7 1266/7 1265/7
v 0.1049 2.8945 -0.1258
v 0.1273 2.8945 -0.1278
v 0.1291 2.9055 -0.1082
v 0.1067 2.9055 -0.1062
f 1272/7 1271/7 1270/7 1269/7
v -0.1170 2.8850 -0.1020
v -0.1170 2.9150 -0.1020
v 0.1170 2.9150 -0.1020
v 0.1170 2.8850 -0.1020
f 1276/7 1275/7 1274/7 1273/7
v 0.1170 2.8850 -0.1320
v 0.1170 2.9150 -0.1320
v -0.1170 2.9150 -0.1320
v -0.1170 2.8850 -0.1320
f 1280/7 1279/7 1278/7 1277/7
v 0.1170 2.8850 -0.1020
v 0.1170 2.8850 -0.1320
v -0.1170 2.8850 -0.1320
v -0.1170 2.8850 -0.1020
f 1284/7 1283/7 1282/7 1281/7
v -0.1170 2.9150 -0.1020
v -0.1170 2.9150 -0.1320
v 0.1170 2.9150 -0.1320
v 0.1170 2.9150 -0.1020
f 1288/7 1287/7 1286/7 1285/7
v 0.1170 2.9150 -0.1020
v 0.1170 2.9150 -0.1320
v 0.1170 2.8850 -0.1320
v 0.1170 2.8850 -0.1020
f 1292/7 1291/7 1290/7 1289/7
v -0.1170 2.8850 -0.1020
v -0.1170 2.8850 -0.1320
v -0.1170 2.9150 -0.1320
v -0.1170 2.9150 -0.1020
f 1296/7 1295/7 1294/7 1293/7
v -0.1020 2.8850 0.1170
v -0.1020 2.9150 0.1170
v -0.1020 2.9150 -0.1170
v -0.1020 2.8850 -0.1170
f 1300/7 1299/7 1298/7 1297/7
v -0.1320 2.8850 -0.1170
v -0.1320 2.9150 -0.1170
v -0.1320 2.9150 0.1170
v -0.1320 2.8850 0.1170
f 1304/7 1303/7 1302/7 1301/7
v -0.1020 2.8850 -0.1170
v -0.1320 2.8850 -0.1170
v -0.1320 2.8850 0.1170
v -0.1020 2.8850 0.1170
f 1308/7 1307/7 1306/7 1305/7
v -0.1020 2.9150 0.1170
v -0.1320 2.9150 0.1170
v -0.1320 2.9150 -0.1170
v -0.1020 2.9150 -0.1170
f 1312/7 1311/7 1310/7 1309/7
v -0.1020 2.9150 -0.1170
v -0.1320 2.9150 -0.1170
v -0.1320 2.8850 -0.1170
v -0.1020 2.8850 -0.1170
f 1316/7 1315/7 1314/7 1313/7
v -0.1020 2.8850 0.1170
v -0.1320 2.8850 0.1170
v -0.1320 2.9150 0.1170
v -0.1020 2.9150 0.1170
f 1320/7 1319/7 1318/7 1317/7
v 0.1170 2.8850 0.1020
v 0.1170 2.9150 0.1020
v -0.1170 2.9150 0.1020
v -0.1170 2.8850 0.1020
f 1324/7 1323/7 1322/7 1321/7
v -0.1170 2.8850 0.1320
v -0.1170 2.9150 0.1320
v 0.1170 2.9150 0.1320
v 0.1170 2.8850 0.1320
f 1328/7 1327/7 1326/7 1325/7
v -0.1170 2.8850 0.1020
v -0.1170 2.8850 0.1320
v 0.1170 2.8850 0.1320
v 0.1170 2.8850 0.1020
f 1332/7 1331/7 1330/7 1329/7
v 0.1170 2.9150 0.1020
v 0.1170 2.9150 0.1320
v -0.1170 2.9150 0.1320
v -0.1170 2.9150 0.1020
f 1336/7 1335/7 1334/7 1333/7
v -0.1170 2.9150 0.1020
v -0.1170 2.9150 0.1320
v -0.1170 2.8850 0.1320
v -0.1170 2.8850 0.1020
f 1340/7 1339/7 1338/7 1337/7
v 0.1170 2.8850 0.1020
v 0.1170 2.8850 0.1320
v 0.1170 2.9150 0.1320
v 0.1170 2.9150 0.1020
f 1344/7 1343/7 1342/7 1341/7
v 0.1020 2.8850 -0.1170
v 0.1020 2.9150 -0.1170
v 0.1020 2.9150 0.1170
v 0.1020 2.8850 0.1170
f 1348/7 1347/7 1346/7 1345/7
v 0.1320 2.8850 0.1170
v 0.1320 2.9150 0.1170
v 0.1320 2.9150 -0.1170
v 0.1320 2.8850 -0.1170
f 1352/7 1351/7 1350/7 1349/7
v 0.1020 2.8850 0.1170
v 0.1320 2.8850 0.1170
v 0.1320 2.8850 -0.1170
v 0.1020 2.8850 -0.1170
f 1356/7 1355/7 1354/7 1353/7
v 0.1020 2.9150 -0.1170
v 0.1320 2.9150 -0.1170
v 0.1320 2.9150 0.1170
v 0.1020 2.9150 0.1170
f 1360/7 1359/7 1358/7 1357/7
v 0.1020 2.9150 0.1170
v 0.1320 2.9150 0.1170
v 0.1320 2.8850 0.1170
v 0.1020 2.8850 0.1170
f 1364/7 1363/7 1362/7 1361/7
v 0.1020 2.8850 -0.1170
v 0.1320 2.8850 -0.1170
v 0.1320 2.9150 -0.1170
v 0.1020 2.9150 -0.1170
f 1368/7 1367/7 1366/7 1365/7
v 0.3000 2.8900 0.3000
v 0.3000 2.9500 0.3000
v 0.3000 2.9500 -0.3000
v 0.3000 2.8900 -0.3000
f 1372/6 1371/6 1370/6 1369/6
v -0.3000 2.8900 -0.3000
v -0.3000 2.9500 -0.3000
v -0.3000 2.9500 0.3000
v -0.3000 2.8900 0.3000
f 1376/6 1375/6 1374/6 1373/6
v 0.3000 2.8900 -0.3000
v -0.3000 2.8900 -0.3000
v -0.3000 2.8900 0.3000
v 0.3000 2.8900 0.3000
f 1380/6 1379/6 1378/6 1377/6
v 0.3000 2.9500 0.3000
v -0.3000 2.9500 0.3000
v -0.3000 2.9500 -0.3000
v 0.3000 2.9500 -0.3000
f 1384/6 1383/6 1382/6 1381/6
v 0.3000 2.9500 -0.3000
v -0.3000 2.9500 -0.3000
v -0.3000 2.8900 -0.3000
v 0.3000 2.8900 -0.3000
f 1388/6 1387/6 1386/6 1385/6
v 0.3000 2.8900 0.3000
v -0.3000 2.8900 0.3000
v -0.3000 2.9500 0.3000
v 0.3000 2.9500 0.3000
f 1392/6 1391/6 1390/6 1389/6
v 0.3100 3.0341 0.2390
v 0.3100 3.2335 0.1460
v 0.3100 3.1659 0.0010
v 0.3100 2.9665 0.0940
f 1396/6 1395/6 1394/6 1393/6
v 0.0300 2.9665 0.0940
v 0.0300 3.1659 0.0010
v 0.0300 3.2335 0.1460
v 0.0300 3.0341 0.2390
f 1400/6 1399/6 1398/6 1397/6
v 0.3100 2.9665 0.0940
v 0.0300 2.9665 0.0940
v 0.0300 3.0341 0.2390
v 0.3100 3.0341 0.2390
f 1404/6 1403/6 1402/6 1401/6
v 0.3100 3.2335 0.1460
v 0.0300 3.2335 0.1460
v 0.0300 3.1659 0.0010
v 0.3100 3.1659 0.0010
f 1408/6 1407/6 1406/6 1405/6
v 0.3100 3.1659 0.0010
v 0.0300 3.1659 0.0010
v 0.0300 2.9665 0.0940
v 0.3100 2.9665 0.0940
f 1412/6 1411/6 1410/6 1409/6
v 0.3100 3.0341 0.2390
v 0.0300 3.0341 0.2390
v 0.0300 3.2335 0.1460
v 0.3100 3.2335 0.1460
f 1416/6 1415/6 1414/6 1413/6
v -0.0300 3.0341 0.2390
v -0.0300 3.2335 0.1460
v -0.0300 3.1659 0.0010
v -0.0300 2.9665 0.0940
f 1420/6 1419/6 1418/6 1417/6
v -0.3100 2.9665 0.0940
v -0.3100 3.1659 0.0010
v -0.3100 3.2335 0.1460
v -0.3100 3.0341 0.2390
f 1424/6 1423/6 1422/6 1421/6
v -0.0300 2.9665 0.0940
v -0.3100 2.9665 0.0940
v -0.3100 3.0341 0.2390
v -0.0300 3.0341 0.2390
f 1428/6 1427/6 1426/6 1425/6
v -0.0300 3.2335 0.1460
v -0.3100 3.2335 0.1460
v -0.3100 3.1659 0.0010
v -0.0300 3.1659 0.0010
f 1432/6 1431/6 1430/6 1429/6
v -0.0300 3.1659 0.0010
v -0.3100 3.1659 0.0010
v -0.3100 2.9665 0.0940
v -0.0300 2.9665 0.0940
f 1436/6 1435/6 1434/6 1433/6
v -0.0300 3.0341 0.2390
v -0.3100 3.0341 0.2390
v -0.3100 3.2335 0.1460
v -0.0300 3.2335 0.1460
f 1440/6 1439/6 1438/6 1437/6
v 0.0200 3.1000 -0.0800
v 0.0200 3.4000 -0.0800
v 0.0200 3.4000 -0.1200
v 0.0200 3.1000 -0.1200
f 1444/7 1443/7 1442/7 1441/7
v -0.0200 3.1000 -0.1200
v -0.0200 3.4000 -0.1200
v -0.0200 3.4000 -0.0800
v -0.0200 3.1000 -0.0800
f 1448/7 1447/7 1446/7 1445/7
v 0.0200 3.1000 -0.1200
v -0.0200 3.1000 -0.1200
v -0.0200 3.1000 -0.0800
v 0.0200 3.1000 -0.0800
f 1452/7 1451/7 1450/7 1449/7
v 0.0200 3.4000 -0.0800
v -0.0200 3.4000 -0.0800
v -0.0200 3.4000 -0.1200
v 0.0200 3.4000 -0.1200
f 1456/7 1455/7 1454/7 1453/7
v 0.0200 3.4000 -0.1200
v -0.0200 3.4000 -0.1200
v -0.0200 3.1000 -0.1200
v 0.0200 3.1000 -0.1200
f 1460/7 1459/7 1458/7 1457/7
v 0.0200 3.1000 -0.0800
v -0.0200 3.1000 -0.0800
v -0.0200 3.4000 -0.0800
v 0.0200 3.4000 -0.0800
f 1464/7 1463/7 1462/7 1461/7
v -0.1600 0.3800 0.3200
v -0.1600 0.6200 0.3200
v -0.1600 0.6200 0.2200
v -0.1600 0.3800 0.2200
f 1468/8 1467/8 1466/8 1465/8
v -0.3400 0.3800 0.2200
v -0.3400 0.6200 0.2200
v -0.3400 0.6200 0.3200
v -0.3400 0.3800 0.3200
f 1472/8 1471/8 1470/8 1469/8
v -0.1600 0.3800 0.2200
v -0.3400 0.3800 0.2200
v -0.3400 0.3800 0.3200
v -0.1600 0.3800 0.3200
f 1476/8 1475/8 1474/8 1473/8
v -0.1600 0.6200 0.3200
v -0.3400 0.6200 0.3200
v -0.3400 0.6200 0.2200
v -0.1600 0.6200 0.2200
f 1480/8 1479/8 1478/8 1477/8
v -0.1600 0.6200 0.2200
v -0.3400 0.6200 0.2200
v -0.3400 0.3800 0.2200
v -0.1600 0.3800 0.2200
f 1484/8 1483/8 1482/8 1481/8
v -0.1600 0.3800 0.3200
v -0.3400 0.3800 0.3200
v -0.3400 0.6200 0.3200
v -0.1600 0.6200 0.3200
f 1488/8 1487/8 1486/8 1485/8
o Lamp
usemtl wi_palette
v 0.2900 2.9927 0.2521
v 0.2900 3.1558 0.1760
v 0.2900 3.1473 0.1579
v 0.2900 2.9842 0.2340
f 1492/31 1491/31 1490/31 1489/31
v 0.0500 2.9842 0.2340
v 0.0500 3.1473 0.1579
v 0.0500 3.1558 0.1760
v 0.0500 2.9927 0.2521
f 1496/31 1495/31 1494/31 1493/31
v 0.2900 2.9842 0.2340
v 0.0500 2.9842 0.2340
v 0.0500 2.9927 0.2521
v 0.2900 2.9927 0.2521
f 1500/31 1499/31 1498/31 1497/31
v 0.2900 3.1558 0.1760
v 0.0500 3.1558 0.1760
v 0.0500 3.1473 0.1579
v 0.2900 3.1473 0.1579
f 1504/31 1503/31 1502/31 1501/31
v 0.2900 3.1473 0.1579
v 0.0500 3.1473 0.1579
v 0.0500 2.9842 0.2340
v 0.2900 2.9842 0.2340
f 1508/31 1507/31 1506/31 1505/31
v 0.2900 2.9927 0.2521
v 0.0500 2.9927 0.2521
v 0.0500 3.1558 0.1760
v 0.2900 3.1558 0.1760
f 1512/31 1511/31 1510/31 1509/31
v -0.0500 2.9927 0.2521
v -0.0500 3.1558 0.1760
v -0.0500 3.1473 0.1579
v -0.0500 2.9842 0.2340
f 1516/31 1515/31 1514/31 1513/31
v -0.2900 2.9842 0.2340
v -0.2900 3.1473 0.1579
v -0.2900 3.1558 0.1760
v -0.2900 2.9927 0.2521
f 1520/31 1519/31 1518/31 1517/31
v -0.0500 2.9842 0.2340
v -0.2900 2.9842 0.2340
v -0.2900 2.9927 0.2521
v -0.0500 2.9927 0.2521
f 1524/31 1523/31 1522/31 1521/31
v -0.0500 3.1558 0.1760
v -0.2900 3.1558 0.1760
v -0.2900 3.1473 0.1579
v -0.0500 3.1473 0.1579
f 1528/31 1527/31 1526/31 1525/31
v -0.0500 3.1473 0.1579
v -0.2900 3.1473 0.1579
v -0.2900 2.9842 0.2340
v -0.0500 2.9842 0.2340
f 1532/31 1531/31 1530/31 1529/31
v -0.0500 2.9927 0.2521
v -0.2900 2.9927 0.2521
v -0.2900 3.1558 0.1760
v -0.0500 3.1558 0.1760
f 1536/31 1535/31 1534/31 1533/31
