# Walk of Industry low-poly (generated, wi_lib.py)
mtllib wi.mtl
vt 0 0
vt 0.03125 0.03125
vt 0.09375 0.03125
vt 0.15625 0.03125
vt 0.21875 0.03125
vt 0.28125 0.03125
vt 0.34375 0.03125
vt 0.40625 0.03125
vt 0.46875 0.03125
vt 0.53125 0.03125
vt 0.59375 0.03125
vt 0.65625 0.03125
vt 0.71875 0.03125
vt 0.78125 0.03125
vt 0.84375 0.03125
vt 0.90625 0.03125
vt 0.96875 0.03125
vt 0.03125 0.09375
vt 0.09375 0.09375
vt 0.15625 0.09375
vt 0.21875 0.09375
vt 0.28125 0.09375
vt 0.34375 0.09375
vt 0.40625 0.09375
vt 0.46875 0.09375
vt 0.53125 0.09375
vt 0.59375 0.09375
vt 0.65625 0.09375
vt 0.71875 0.09375
vt 0.78125 0.09375
vt 0.84375 0.09375
vt 0.90625 0.09375
vt 0.96875 0.09375
o Body
usemtl wi_paint
v 0.7500 0.0000 0.0300
v 0.7500 0.4400 0.0300
v 0.7500 0.4400 -0.0300
v 0.7500 0.0000 -0.0300
f 4/1 3/1 2/1 1/1
v 0.6900 0.0000 -0.0300
v 0.6900 0.4400 -0.0300
v 0.6900 0.4400 0.0300
v 0.6900 0.0000 0.0300
f 8/1 7/1 6/1 5/1
v 0.7500 0.0000 -0.0300
v 0.6900 0.0000 -0.0300
v 0.6900 0.0000 0.0300
v 0.7500 0.0000 0.0300
f 12/1 11/1 10/1 9/1
v 0.7500 0.4400 0.0300
v 0.6900 0.4400 0.0300
v 0.6900 0.4400 -0.0300
v 0.7500 0.4400 -0.0300
f 16/1 15/1 14/1 13/1
v 0.7500 0.4400 -0.0300
v 0.6900 0.4400 -0.0300
v 0.6900 0.0000 -0.0300
v 0.7500 0.0000 -0.0300
f 20/1 19/1 18/1 17/1
v 0.7500 0.0000 0.0300
v 0.6900 0.0000 0.0300
v 0.6900 0.4400 0.0300
v 0.7500 0.4400 0.0300
f 24/1 23/1 22/1 21/1
v 0.7500 0.0000 0.2100
v 0.7500 0.4400 0.2100
v 0.7500 0.4400 0.1500
v 0.7500 0.0000 0.1500
f 28/1 27/1 26/1 25/1
v 0.6900 0.0000 0.1500
v 0.6900 0.4400 0.1500
v 0.6900 0.4400 0.2100
v 0.6900 0.0000 0.2100
f 32/1 31/1 30/1 29/1
v 0.7500 0.0000 0.1500
v 0.6900 0.0000 0.1500
v 0.6900 0.0000 0.2100
v 0.7500 0.0000 0.2100
f 36/1 35/1 34/1 33/1
v 0.7500 0.4400 0.2100
v 0.6900 0.4400 0.2100
v 0.6900 0.4400 0.1500
v 0.7500 0.4400 0.1500
f 40/1 39/1 38/1 37/1
v 0.7500 0.4400 0.1500
v 0.6900 0.4400 0.1500
v 0.6900 0.0000 0.1500
v 0.7500 0.0000 0.1500
f 44/1 43/1 42/1 41/1
v 0.7500 0.0000 0.2100
v 0.6900 0.0000 0.2100
v 0.6900 0.4400 0.2100
v 0.7500 0.4400 0.2100
f 48/1 47/1 46/1 45/1
v 0.7550 0.4200 0.2900
v 0.7550 0.4600 0.2900
v 0.7550 0.4600 -0.1700
v 0.7550 0.4200 -0.1700
f 52/1 51/1 50/1 49/1
v 0.6850 0.4200 -0.1700
v 0.6850 0.4600 -0.1700
v 0.6850 0.4600 0.2900
v 0.6850 0.4200 0.2900
f 56/1 55/1 54/1 53/1
v 0.7550 0.4200 -0.1700
v 0.6850 0.4200 -0.1700
v 0.6850 0.4200 0.2900
v 0.7550 0.4200 0.2900
f 60/1 59/1 58/1 57/1
v 0.7550 0.4600 0.2900
v 0.6850 0.4600 0.2900
v 0.6850 0.4600 -0.1700
v 0.7550 0.4600 -0.1700
f 64/1 63/1 62/1 61/1
v 0.7550 0.4600 -0.1700
v 0.6850 0.4600 -0.1700
v 0.6850 0.4200 -0.1700
v 0.7550 0.4200 -0.1700
f 68/1 67/1 66/1 65/1
v 0.7550 0.4200 0.2900
v 0.6850 0.4200 0.2900
v 0.6850 0.4600 0.2900
v 0.7550 0.4600 0.2900
f 72/1 71/1 70/1 69/1
v 0.7500 0.9157 -0.2497
v 0.6900 0.9157 -0.2497
v 0.6900 0.4357 -0.1797
v 0.7500 0.4357 -0.1797
f 76/1 75/1 74/1 73/1
v 0.7500 0.4443 -0.1203
v 0.6900 0.4443 -0.1203
v 0.6900 0.9243 -0.1903
v 0.7500 0.9243 -0.1903
f 80/1 79/1 78/1 77/1
v 0.7500 0.4357 -0.1797
v 0.7500 0.4443 -0.1203
v 0.7500 0.9243 -0.1903
v 0.7500 0.9157 -0.2497
f 84/1 83/1 82/1 81/1
v 0.6900 0.9157 -0.2497
v 0.6900 0.9243 -0.1903
v 0.6900 0.4443 -0.1203
v 0.6900 0.4357 -0.1797
f 88/1 87/1 86/1 85/1
v 0.6900 0.4357 -0.1797
v 0.6900 0.4443 -0.1203
v 0.7500 0.4443 -0.1203
v 0.7500 0.4357 -0.1797
f 92/1 91/1 90/1 89/1
v 0.7500 0.9157 -0.2497
v 0.7500 0.9243 -0.1903
v 0.6900 0.9243 -0.1903
v 0.6900 0.9157 -0.2497
f 96/1 95/1 94/1 93/1
v 0.7500 0.5800 0.3300
v 0.7500 0.6200 0.3300
v 0.7500 0.6200 0.0300
v 0.7500 0.5800 0.0300
f 100/1 99/1 98/1 97/1
v 0.6900 0.5800 0.0300
v 0.6900 0.6200 0.0300
v 0.6900 0.6200 0.3300
v 0.6900 0.5800 0.3300
f 104/1 103/1 102/1 101/1
v 0.7500 0.5800 0.0300
v 0.6900 0.5800 0.0300
v 0.6900 0.5800 0.3300
v 0.7500 0.5800 0.3300
f 108/1 107/1 106/1 105/1
v 0.7500 0.6200 0.3300
v 0.6900 0.6200 0.3300
v 0.6900 0.6200 0.0300
v 0.7500 0.6200 0.0300
f 112/1 111/1 110/1 109/1
v 0.7500 0.6200 0.0300
v 0.6900 0.6200 0.0300
v 0.6900 0.5800 0.0300
v 0.7500 0.5800 0.0300
f 116/1 115/1 114/1 113/1
v 0.7500 0.5800 0.3300
v 0.6900 0.5800 0.3300
v 0.6900 0.6200 0.3300
v 0.7500 0.6200 0.3300
f 120/1 119/1 118/1 117/1
v -0.6900 0.0000 0.0300
v -0.6900 0.4400 0.0300
v -0.6900 0.4400 -0.0300
v -0.6900 0.0000 -0.0300
f 124/1 123/1 122/1 121/1
v -0.7500 0.0000 -0.0300
v -0.7500 0.4400 -0.0300
v -0.7500 0.4400 0.0300
v -0.7500 0.0000 0.0300
f 128/1 127/1 126/1 125/1
v -0.6900 0.0000 -0.0300
v -0.7500 0.0000 -0.0300
v -0.7500 0.0000 0.0300
v -0.6900 0.0000 0.0300
f 132/1 131/1 130/1 129/1
v -0.6900 0.4400 0.0300
v -0.7500 0.4400 0.0300
v -0.7500 0.4400 -0.0300
v -0.6900 0.4400 -0.0300
f 136/1 135/1 134/1 133/1
v -0.6900 0.4400 -0.0300
v -0.7500 0.4400 -0.0300
v -0.7500 0.0000 -0.0300
v -0.6900 0.0000 -0.0300
f 140/1 139/1 138/1 137/1
v -0.6900 0.0000 0.0300
v -0.7500 0.0000 0.0300
v -0.7500 0.4400 0.0300
v -0.6900 0.4400 0.0300
f 144/1 143/1 142/1 141/1
v -0.6900 0.0000 0.2100
v -0.6900 0.4400 0.2100
v -0.6900 0.4400 0.1500
v -0.6900 0.0000 0.1500
f 148/1 147/1 146/1 145/1
v -0.7500 0.0000 0.1500
v -0.7500 0.4400 0.1500
v -0.7500 0.4400 0.2100
v -0.7500 0.0000 0.2100
f 152/1 151/1 150/1 149/1
v -0.6900 0.0000 0.1500
v -0.7500 0.0000 0.1500
v -0.7500 0.0000 0.2100
v -0.6900 0.0000 0.2100
f 156/1 155/1 154/1 153/1
v -0.6900 0.4400 0.2100
v -0.7500 0.4400 0.2100
v -0.7500 0.4400 0.1500
v -0.6900 0.4400 0.1500
f 160/1 159/1 158/1 157/1
v -0.6900 0.4400 0.1500
v -0.7500 0.4400 0.1500
v -0.7500 0.0000 0.1500
v -0.6900 0.0000 0.1500
f 164/1 163/1 162/1 161/1
v -0.6900 0.0000 0.2100
v -0.7500 0.0000 0.2100
v -0.7500 0.4400 0.2100
v -0.6900 0.4400 0.2100
f 168/1 167/1 166/1 165/1
v -0.6850 0.4200 0.2900
v -0.6850 0.4600 0.2900
v -0.6850 0.4600 -0.1700
v -0.6850 0.4200 -0.1700
f 172/1 171/1 170/1 169/1
v -0.7550 0.4200 -0.1700
v -0.7550 0.4600 -0.1700
v -0.7550 0.4600 0.2900
v -0.7550 0.4200 0.2900
f 176/1 175/1 174/1 173/1
v -0.6850 0.4200 -0.1700
v -0.7550 0.4200 -0.1700
v -0.7550 0.4200 0.2900
v -0.6850 0.4200 0.2900
f 180/1 179/1 178/1 177/1
v -0.6850 0.4600 0.2900
v -0.7550 0.4600 0.2900
v -0.7550 0.4600 -0.1700
v -0.6850 0.4600 -0.1700
f 184/1 183/1 182/1 181/1
v -0.6850 0.4600 -0.1700
v -0.7550 0.4600 -0.1700
v -0.7550 0.4200 -0.1700
v -0.6850 0.4200 -0.1700
f 188/1 187/1 186/1 185/1
v -0.6850 0.4200 0.2900
v -0.7550 0.4200 0.2900
v -0.7550 0.4600 0.2900
v -0.6850 0.4600 0.2900
f 192/1 191/1 190/1 189/1
v -0.6900 0.9157 -0.2497
v -0.7500 0.9157 -0.2497
v -0.7500 0.4357 -0.1797
v -0.6900 0.4357 -0.1797
f 196/1 195/1 194/1 193/1
v -0.6900 0.4443 -0.1203
v -0.7500 0.4443 -0.1203
v -0.7500 0.9243 -0.1903
v -0.6900 0.9243 -0.1903
f 200/1 199/1 198/1 197/1
v -0.6900 0.4357 -0.1797
v -0.6900 0.4443 -0.1203
v -0.6900 0.9243 -0.1903
v -0.6900 0.9157 -0.2497
f 204/1 203/1 202/1 201/1
v -0.7500 0.9157 -0.2497
v -0.7500 0.9243 -0.1903
v -0.7500 0.4443 -0.1203
v -0.7500 0.4357 -0.1797
f 208/1 207/1 206/1 205/1
v -0.7500 0.4357 -0.1797
v -0.7500 0.4443 -0.1203
v -0.6900 0.4443 -0.1203
v -0.6900 0.4357 -0.1797
f 212/1 211/1 210/1 209/1
v -0.6900 0.9157 -0.2497
v -0.6900 0.9243 -0.1903
v -0.7500 0.9243 -0.1903
v -0.7500 0.9157 -0.2497
f 216/1 215/1 214/1 213/1
v -0.6900 0.5800 0.3300
v -0.6900 0.6200 0.3300
v -0.6900 0.6200 0.0300
v -0.6900 0.5800 0.0300
f 220/1 219/1 218/1 217/1
v -0.7500 0.5800 0.0300
v -0.7500 0.6200 0.0300
v -0.7500 0.6200 0.3300
v -0.7500 0.5800 0.3300
f 224/1 223/1 222/1 221/1
v -0.6900 0.5800 0.0300
v -0.7500 0.5800 0.0300
v -0.7500 0.5800 0.3300
v -0.6900 0.5800 0.3300
f 228/1 227/1 226/1 225/1
v -0.6900 0.6200 0.3300
v -0.7500 0.6200 0.3300
v -0.7500 0.6200 0.0300
v -0.6900 0.6200 0.0300
f 232/1 231/1 230/1 229/1
v -0.6900 0.6200 0.0300
v -0.7500 0.6200 0.0300
v -0.7500 0.5800 0.0300
v -0.6900 0.5800 0.0300
f 236/1 235/1 234/1 233/1
v -0.6900 0.5800 0.3300
v -0.7500 0.5800 0.3300
v -0.7500 0.6200 0.3300
v -0.6900 0.6200 0.3300
f 240/1 239/1 238/1 237/1
usemtl wi_palette
v 0.8100 0.4575 -0.0650
v 0.8100 0.4925 -0.0650
v 0.8100 0.4925 -0.1550
v 0.8100 0.4575 -0.1550
f 244/22 243/22 242/22 241/22
v -0.8100 0.4575 -0.1550
v -0.8100 0.4925 -0.1550
v -0.8100 0.4925 -0.0650
v -0.8100 0.4575 -0.0650
f 248/22 247/22 246/22 245/22
v 0.8100 0.4575 -0.1550
v -0.8100 0.4575 -0.1550
v -0.8100 0.4575 -0.0650
v 0.8100 0.4575 -0.0650
f 252/22 251/22 250/22 249/22
v 0.8100 0.4925 -0.0650
v -0.8100 0.4925 -0.0650
v -0.8100 0.4925 -0.1550
v 0.8100 0.4925 -0.1550
f 256/22 255/22 254/22 253/22
v 0.8100 0.4925 -0.1550
v -0.8100 0.4925 -0.1550
v -0.8100 0.4575 -0.1550
v 0.8100 0.4575 -0.1550
f 260/22 259/22 258/22 257/22
v 0.8100 0.4575 -0.0650
v -0.8100 0.4575 -0.0650
v -0.8100 0.4925 -0.0650
v 0.8100 0.4925 -0.0650
f 264/22 263/22 262/22 261/22
v 0.8100 0.4575 0.0450
v 0.8100 0.4925 0.0450
v 0.8100 0.4925 -0.0450
v 0.8100 0.4575 -0.0450
f 268/22 267/22 266/22 265/22
v -0.8100 0.4575 -0.0450
v -0.8100 0.4925 -0.0450
v -0.8100 0.4925 0.0450
v -0.8100 0.4575 0.0450
f 272/22 271/22 270/22 269/22
v 0.8100 0.4575 -0.0450
v -0.8100 0.4575 -0.0450
v -0.8100 0.4575 0.0450
v 0.8100 0.4575 0.0450
f 276/22 275/22 274/22 273/22
v 0.8100 0.4925 0.0450
v -0.8100 0.4925 0.0450
v -0.8100 0.4925 -0.0450
v 0.8100 0.4925 -0.0450
f 280/22 279/22 278/22 277/22
v 0.8100 0.4925 -0.0450
v -0.8100 0.4925 -0.0450
v -0.8100 0.4575 -0.0450
v 0.8100 0.4575 -0.0450
f 284/22 283/22 282/22 281/22
v 0.8100 0.4575 0.0450
v -0.8100 0.4575 0.0450
v -0.8100 0.4925 0.0450
v 0.8100 0.4925 0.0450
f 288/22 287/22 286/22 285/22
v 0.8100 0.4575 0.1550
v 0.8100 0.4925 0.1550
v 0.8100 0.4925 0.0650
v 0.8100 0.4575 0.0650
f 292/22 291/22 290/22 289/22
v -0.8100 0.4575 0.0650
v -0.8100 0.4925 0.0650
v -0.8100 0.4925 0.1550
v -0.8100 0.4575 0.1550
f 296/22 295/22 294/22 293/22
v 0.8100 0.4575 0.0650
v -0.8100 0.4575 0.0650
v -0.8100 0.4575 0.1550
v 0.8100 0.4575 0.1550
f 300/22 299/22 298/22 297/22
v 0.8100 0.4925 0.1550
v -0.8100 0.4925 0.1550
v -0.8100 0.4925 0.0650
v 0.8100 0.4925 0.0650
f 304/22 303/22 302/22 301/22
v 0.8100 0.4925 0.0650
v -0.8100 0.4925 0.0650
v -0.8100 0.4575 0.0650
v 0.8100 0.4575 0.0650
f 308/22 307/22 306/22 305/22
v 0.8100 0.4575 0.1550
v -0.8100 0.4575 0.1550
v -0.8100 0.4925 0.1550
v 0.8100 0.4925 0.1550
f 312/22 311/22 310/22 309/22
v 0.8100 0.4575 0.2650
v 0.8100 0.4925 0.2650
v 0.8100 0.4925 0.1750
v 0.8100 0.4575 0.1750
f 316/22 315/22 314/22 313/22
v -0.8100 0.4575 0.1750
v -0.8100 0.4925 0.1750
v -0.8100 0.4925 0.2650
v -0.8100 0.4575 0.2650
f 320/22 319/22 318/22 317/22
v 0.8100 0.4575 0.1750
v -0.8100 0.4575 0.1750
v -0.8100 0.4575 0.2650
v 0.8100 0.4575 0.2650
f 324/22 323/22 322/22 321/22
v 0.8100 0.4925 0.2650
v -0.8100 0.4925 0.2650
v -0.8100 0.4925 0.1750
v 0.8100 0.4925 0.1750
f 328/22 327/22 326/22 325/22
v 0.8100 0.4925 0.1750
v -0.8100 0.4925 0.1750
v -0.8100 0.4575 0.1750
v 0.8100 0.4575 0.1750
f 332/22 331/22 330/22 329/22
v 0.8100 0.4575 0.2650
v -0.8100 0.4575 0.2650
v -0.8100 0.4925 0.2650
v 0.8100 0.4925 0.2650
f 336/22 335/22 334/22 333/22
v 0.8100 0.5575 -0.1489
v 0.8100 0.6466 -0.1614
v 0.8100 0.6425 -0.1911
v 0.8100 0.5534 -0.1786
f 340/22 339/22 338/22 337/22
v -0.8100 0.5534 -0.1786
v -0.8100 0.6425 -0.1911
v -0.8100 0.6466 -0.1614
v -0.8100 0.5575 -0.1489
f 344/22 343/22 342/22 341/22
v 0.8100 0.5534 -0.1786
v -0.8100 0.5534 -0.1786
v -0.8100 0.5575 -0.1489
v 0.8100 0.5575 -0.1489
f 348/22 347/22 346/22 345/22
v 0.8100 0.6466 -0.1614
v -0.8100 0.6466 -0.1614
v -0.8100 0.6425 -0.1911
v 0.8100 0.6425 -0.1911
f 352/22 351/22 350/22 349/22
v 0.8100 0.6425 -0.1911
v -0.8100 0.6425 -0.1911
v -0.8100 0.5534 -0.1786
v 0.8100 0.5534 -0.1786
f 356/22 355/22 354/22 353/22
v 0.8100 0.5575 -0.1489
v -0.8100 0.5575 -0.1489
v -0.8100 0.6466 -0.1614
v 0.8100 0.6466 -0.1614
f 360/22 359/22 358/22 357/22
v 0.8100 0.6775 -0.1669
v 0.8100 0.7666 -0.1794
v 0.8100 0.7625 -0.2091
v 0.8100 0.6734 -0.1966
f 364/22 363/22 362/22 361/22
v -0.8100 0.6734 -0.1966
v -0.8100 0.7625 -0.2091
v -0.8100 0.7666 -0.1794
v -0.8100 0.6775 -0.1669
f 368/22 367/22 366/22 365/22
v 0.8100 0.6734 -0.1966
v -0.8100 0.6734 -0.1966
v -0.8100 0.6775 -0.1669
v 0.8100 0.6775 -0.1669
f 372/22 371/22 370/22 369/22
v 0.8100 0.7666 -0.1794
v -0.8100 0.7666 -0.1794
v -0.8100 0.7625 -0.2091
v 0.8100 0.7625 -0.2091
f 376/22 375/22 374/22 373/22
v 0.8100 0.7625 -0.2091
v -0.8100 0.7625 -0.2091
v -0.8100 0.6734 -0.1966
v 0.8100 0.6734 -0.1966
f 380/22 379/22 378/22 377/22
v 0.8100 0.6775 -0.1669
v -0.8100 0.6775 -0.1669
v -0.8100 0.7666 -0.1794
v 0.8100 0.7666 -0.1794
f 384/22 383/22 382/22 381/22
v 0.8100 0.7975 -0.1849
v 0.8100 0.8866 -0.1974
v 0.8100 0.8825 -0.2271
v 0.8100 0.7934 -0.2146
f 388/22 387/22 386/22 385/22
v -0.8100 0.7934 -0.2146
v -0.8100 0.8825 -0.2271
v -0.8100 0.8866 -0.1974
v -0.8100 0.7975 -0.1849
f 392/22 391/22 390/22 389/22
v 0.8100 0.7934 -0.2146
v -0.8100 0.7934 -0.2146
v -0.8100 0.7975 -0.1849
v 0.8100 0.7975 -0.1849
f 396/22 395/22 394/22 393/22
v 0.8100 0.8866 -0.1974
v -0.8100 0.8866 -0.1974
v -0.8100 0.8825 -0.2271
v 0.8100 0.8825 -0.2271
f 400/22 399/22 398/22 397/22
v 0.8100 0.8825 -0.2271
v -0.8100 0.8825 -0.2271
v -0.8100 0.7934 -0.2146
v 0.8100 0.7934 -0.2146
f 404/22 403/22 402/22 401/22
v 0.8100 0.7975 -0.1849
v -0.8100 0.7975 -0.1849
v -0.8100 0.8866 -0.1974
v 0.8100 0.8866 -0.1974
f 408/22 407/22 406/22 405/22
