# Walk of Industry low-poly (generated, wi_lib.py)
mtllib wi.mtl
vt 0 0
vt 0.03125 0.03125
vt 0.09375 0.03125
vt 0.15625 0.03125
vt 0.21875 0.03125
vt 0.28125 0.03125
vt 0.34375 0.03125
vt 0.40625 0.03125
vt 0.46875 0.03125
vt 0.53125 0.03125
vt 0.59375 0.03125
vt 0.65625 0.03125
vt 0.71875 0.03125
vt 0.78125 0.03125
vt 0.84375 0.03125
vt 0.90625 0.03125
vt 0.96875 0.03125
vt 0.03125 0.09375
vt 0.09375 0.09375
vt 0.15625 0.09375
vt 0.21875 0.09375
vt 0.28125 0.09375
vt 0.34375 0.09375
vt 0.40625 0.09375
vt 0.46875 0.09375
vt 0.53125 0.09375
vt 0.59375 0.09375
vt 0.65625 0.09375
vt 0.71875 0.09375
vt 0.78125 0.09375
vt 0.84375 0.09375
vt 0.90625 0.09375
vt 0.96875 0.09375
o Body
usemtl wi_palette
v -0.5358 0.0000 1.2934
v -1.2934 0.0000 0.5358
v -1.2934 0.3000 0.5358
v -0.5358 0.3000 1.2934
f 4/11 3/11 2/11 1/11
v -1.2934 0.0000 0.5358
v -1.2934 0.0000 -0.5358
v -1.2934 0.3000 -0.5358
v -1.2934 0.3000 0.5358
f 8/11 7/11 6/11 5/11
v -1.2934 0.0000 -0.5358
v -0.5358 0.0000 -1.2934
v -0.5358 0.3000 -1.2934
v -1.2934 0.3000 -0.5358
f 12/11 11/11 10/11 9/11
v -0.5358 0.0000 -1.2934
v 0.5358 0.0000 -1.2934
v 0.5358 0.3000 -1.2934
v -0.5358 0.3000 -1.2934
f 16/11 15/11 14/11 13/11
v 0.5358 0.0000 -1.2934
v 1.2934 0.0000 -0.5358
v 1.2934 0.3000 -0.5358
v 0.5358 0.3000 -1.2934
f 20/11 19/11 18/11 17/11
v 1.2934 0.0000 -0.5358
v 1.2934 0.0000 0.5358
v 1.2934 0.3000 0.5358
v 1.2934 0.3000 -0.5358
f 24/11 23/11 22/11 21/11
v 1.2934 0.0000 0.5358
v 0.5358 0.0000 1.2934
v 0.5358 0.3000 1.2934
v 1.2934 0.3000 0.5358
f 28/11 27/11 26/11 25/11
v 0.5358 0.0000 1.2934
v -0.5358 0.0000 1.2934
v -0.5358 0.3000 1.2934
v 0.5358 0.3000 1.2934
f 32/11 31/11 30/11 29/11
v 0.5358 0.0000 1.2934
v 1.2934 0.0000 0.5358
v 1.2934 0.0000 -0.5358
v 0.5358 0.0000 -1.2934
v -0.5358 0.0000 -1.2934
v -1.2934 0.0000 -0.5358
v -1.2934 0.0000 0.5358
v -0.5358 0.0000 1.2934
f 40/11 39/11 38/11 37/11 36/11 35/11 34/11 33/11
v -0.5358 0.3000 1.2934
v -1.2934 0.3000 0.5358
v -1.2934 0.3000 -0.5358
v -0.5358 0.3000 -1.2934
v 0.5358 0.3000 -1.2934
v 1.2934 0.3000 -0.5358
v 1.2934 0.3000 0.5358
v 0.5358 0.3000 1.2934
f 48/11 47/11 46/11 45/11 44/11 43/11 42/11 41/11
v -0.4210 0.3000 1.0163
v -1.0163 0.3000 0.4210
v -1.0163 0.3800 0.4210
v -0.4210 0.3800 1.0163
f 52/6 51/6 50/6 49/6
v -1.0163 0.3000 0.4210
v -1.0163 0.3000 -0.4210
v -1.0163 0.3800 -0.4210
v -1.0163 0.3800 0.4210
f 56/6 55/6 54/6 53/6
v -1.0163 0.3000 -0.4210
v -0.4210 0.3000 -1.0163
v -0.4210 0.3800 -1.0163
v -1.0163 0.3800 -0.4210
f 60/6 59/6 58/6 57/6
v -0.4210 0.3000 -1.0163
v 0.4210 0.3000 -1.0163
v 0.4210 0.3800 -1.0163
v -0.4210 0.3800 -1.0163
f 64/6 63/6 62/6 61/6
v 0.4210 0.3000 -1.0163
v 1.0163 0.3000 -0.4210
v 1.0163 0.3800 -0.4210
v 0.4210 0.3800 -1.0163
f 68/6 67/6 66/6 65/6
v 1.0163 0.3000 -0.4210
v 1.0163 0.3000 0.4210
v 1.0163 0.3800 0.4210
v 1.0163 0.3800 -0.4210
f 72/6 71/6 70/6 69/6
v 1.0163 0.3000 0.4210
v 0.4210 0.3000 1.0163
v 0.4210 0.3800 1.0163
v 1.0163 0.3800 0.4210
f 76/6 75/6 74/6 73/6
v 0.4210 0.3000 1.0163
v -0.4210 0.3000 1.0163
v -0.4210 0.3800 1.0163
v 0.4210 0.3800 1.0163
f 80/6 79/6 78/6 77/6
v 0.4210 0.3000 1.0163
v 1.0163 0.3000 0.4210
v 1.0163 0.3000 -0.4210
v 0.4210 0.3000 -1.0163
v -0.4210 0.3000 -1.0163
v -1.0163 0.3000 -0.4210
v -1.0163 0.3000 0.4210
v -0.4210 0.3000 1.0163
f 88/6 87/6 86/6 85/6 84/6 83/6 82/6 81/6
v -0.4210 0.3800 1.0163
v -1.0163 0.3800 0.4210
v -1.0163 0.3800 -0.4210
v -0.4210 0.3800 -1.0163
v 0.4210 0.3800 -1.0163
v 1.0163 0.3800 -0.4210
v 1.0163 0.3800 0.4210
v 0.4210 0.3800 1.0163
f 96/6 95/6 94/6 93/6 92/6 91/6 90/6 89/6
v 0.7000 0.3800 1.0500
v 0.7000 0.4000 1.0500
v 0.7000 0.4000 0.8500
v 0.7000 0.3800 0.8500
f 100/8 99/8 98/8 97/8
v 0.5250 0.3800 0.8500
v 0.5250 0.4000 0.8500
v 0.5250 0.4000 1.0500
v 0.5250 0.3800 1.0500
f 104/8 103/8 102/8 101/8
v 0.7000 0.3800 0.8500
v 0.5250 0.3800 0.8500
v 0.5250 0.3800 1.0500
v 0.7000 0.3800 1.0500
f 108/8 107/8 106/8 105/8
v 0.7000 0.4000 1.0500
v 0.5250 0.4000 1.0500
v 0.5250 0.4000 0.8500
v 0.7000 0.4000 0.8500
f 112/8 111/8 110/8 109/8
v 0.7000 0.4000 0.8500
v 0.5250 0.4000 0.8500
v 0.5250 0.3800 0.8500
v 0.7000 0.3800 0.8500
f 116/8 115/8 114/8 113/8
v 0.7000 0.3800 1.0500
v 0.5250 0.3800 1.0500
v 0.5250 0.4000 1.0500
v 0.7000 0.4000 1.0500
f 120/8 119/8 118/8 117/8
v 0.5250 0.3800 1.0500
v 0.5250 0.4000 1.0500
v 0.5250 0.4000 0.8500
v 0.5250 0.3800 0.8500
f 124/6 123/6 122/6 121/6
v 0.3500 0.3800 0.8500
v 0.3500 0.4000 0.8500
v 0.3500 0.4000 1.0500
v 0.3500 0.3800 1.0500
f 128/6 127/6 126/6 125/6
v 0.5250 0.3800 0.8500
v 0.3500 0.3800 0.8500
v 0.3500 0.3800 1.0500
v 0.5250 0.3800 1.0500
f 132/6 131/6 130/6 129/6
v 0.5250 0.4000 1.0500
v 0.3500 0.4000 1.0500
v 0.3500 0.4000 0.8500
v 0.5250 0.4000 0.8500
f 136/6 135/6 134/6 133/6
v 0.5250 0.4000 0.8500
v 0.3500 0.4000 0.8500
v 0.3500 0.3800 0.8500
v 0.5250 0.3800 0.8500
f 140/6 139/6 138/6 137/6
v 0.5250 0.3800 1.0500
v 0.3500 0.3800 1.0500
v 0.3500 0.4000 1.0500
v 0.5250 0.4000 1.0500
f 144/6 143/6 142/6 141/6
v 0.3500 0.3800 1.0500
v 0.3500 0.4000 1.0500
v 0.3500 0.4000 0.8500
v 0.3500 0.3800 0.8500
f 148/8 147/8 146/8 145/8
v 0.1750 0.3800 0.8500
v 0.1750 0.4000 0.8500
v 0.1750 0.4000 1.0500
v 0.1750 0.3800 1.0500
f 152/8 151/8 150/8 149/8
v 0.3500 0.3800 0.8500
v 0.1750 0.3800 0.8500
v 0.1750 0.3800 1.0500
v 0.3500 0.3800 1.0500
f 156/8 155/8 154/8 153/8
v 0.3500 0.4000 1.0500
v 0.1750 0.4000 1.0500
v 0.1750 0.4000 0.8500
v 0.3500 0.4000 0.8500
f 160/8 159/8 158/8 157/8
v 0.3500 0.4000 0.8500
v 0.1750 0.4000 0.8500
v 0.1750 0.3800 0.8500
v 0.3500 0.3800 0.8500
f 164/8 163/8 162/8 161/8
v 0.3500 0.3800 1.0500
v 0.1750 0.3800 1.0500
v 0.1750 0.4000 1.0500
v 0.3500 0.4000 1.0500
f 168/8 167/8 166/8 165/8
v 0.1750 0.3800 1.0500
v 0.1750 0.4000 1.0500
v 0.1750 0.4000 0.8500
v 0.1750 0.3800 0.8500
f 172/6 171/6 170/6 169/6
v 0.0000 0.3800 0.8500
v 0.0000 0.4000 0.8500
v 0.0000 0.4000 1.0500
v 0.0000 0.3800 1.0500
f 176/6 175/6 174/6 173/6
v 0.1750 0.3800 0.8500
v 0.0000 0.3800 0.8500
v 0.0000 0.3800 1.0500
v 0.1750 0.3800 1.0500
f 180/6 179/6 178/6 177/6
v 0.1750 0.4000 1.0500
v 0.0000 0.4000 1.0500
v 0.0000 0.4000 0.8500
v 0.1750 0.4000 0.8500
f 184/6 183/6 182/6 181/6
v 0.1750 0.4000 0.8500
v 0.0000 0.4000 0.8500
v 0.0000 0.3800 0.8500
v 0.1750 0.3800 0.8500
f 188/6 187/6 186/6 185/6
v 0.1750 0.3800 1.0500
v 0.0000 0.3800 1.0500
v 0.0000 0.4000 1.0500
v 0.1750 0.4000 1.0500
f 192/6 191/6 190/6 189/6
v -0.0000 0.3800 1.0500
v -0.0000 0.4000 1.0500
v -0.0000 0.4000 0.8500
v -0.0000 0.3800 0.8500
f 196/8 195/8 194/8 193/8
v -0.1750 0.3800 0.8500
v -0.1750 0.4000 0.8500
v -0.1750 0.4000 1.0500
v -0.1750 0.3800 1.0500
f 200/8 199/8 198/8 197/8
v -0.0000 0.3800 0.8500
v -0.1750 0.3800 0.8500
v -0.1750 0.3800 1.0500
v -0.0000 0.3800 1.0500
f 204/8 203/8 202/8 201/8
v -0.0000 0.4000 1.0500
v -0.1750 0.4000 1.0500
v -0.1750 0.4000 0.8500
v -0.0000 0.4000 0.8500
f 208/8 207/8 206/8 205/8
v -0.0000 0.4000 0.8500
v -0.1750 0.4000 0.8500
v -0.1750 0.3800 0.8500
v -0.0000 0.3800 0.8500
f 212/8 211/8 210/8 209/8
v -0.0000 0.3800 1.0500
v -0.1750 0.3800 1.0500
v -0.1750 0.4000 1.0500
v -0.0000 0.4000 1.0500
f 216/8 215/8 214/8 213/8
v -0.1750 0.3800 1.0500
v -0.1750 0.4000 1.0500
v -0.1750 0.4000 0.8500
v -0.1750 0.3800 0.8500
f 220/6 219/6 218/6 217/6
v -0.3500 0.3800 0.8500
v -0.3500 0.4000 0.8500
v -0.3500 0.4000 1.0500
v -0.3500 0.3800 1.0500
f 224/6 223/6 222/6 221/6
v -0.1750 0.3800 0.8500
v -0.3500 0.3800 0.8500
v -0.3500 0.3800 1.0500
v -0.1750 0.3800 1.0500
f 228/6 227/6 226/6 225/6
v -0.1750 0.4000 1.0500
v -0.3500 0.4000 1.0500
v -0.3500 0.4000 0.8500
v -0.1750 0.4000 0.8500
f 232/6 231/6 230/6 229/6
v -0.1750 0.4000 0.8500
v -0.3500 0.4000 0.8500
v -0.3500 0.3800 0.8500
v -0.1750 0.3800 0.8500
f 236/6 235/6 234/6 233/6
v -0.1750 0.3800 1.0500
v -0.3500 0.3800 1.0500
v -0.3500 0.4000 1.0500
v -0.1750 0.4000 1.0500
f 240/6 239/6 238/6 237/6
v -0.3500 0.3800 1.0500
v -0.3500 0.4000 1.0500
v -0.3500 0.4000 0.8500
v -0.3500 0.3800 0.8500
f 244/8 243/8 242/8 241/8
v -0.5250 0.3800 0.8500
v -0.5250 0.4000 0.8500
v -0.5250 0.4000 1.0500
v -0.5250 0.3800 1.0500
f 248/8 247/8 246/8 245/8
v -0.3500 0.3800 0.8500
v -0.5250 0.3800 0.8500
v -0.5250 0.3800 1.0500
v -0.3500 0.3800 1.0500
f 252/8 251/8 250/8 249/8
v -0.3500 0.4000 1.0500
v -0.5250 0.4000 1.0500
v -0.5250 0.4000 0.8500
v -0.3500 0.4000 0.8500
f 256/8 255/8 254/8 253/8
v -0.3500 0.4000 0.8500
v -0.5250 0.4000 0.8500
v -0.5250 0.3800 0.8500
v -0.3500 0.3800 0.8500
f 260/8 259/8 258/8 257/8
v -0.3500 0.3800 1.0500
v -0.5250 0.3800 1.0500
v -0.5250 0.4000 1.0500
v -0.3500 0.4000 1.0500
f 264/8 263/8 262/8 261/8
v -0.5250 0.3800 1.0500
v -0.5250 0.4000 1.0500
v -0.5250 0.4000 0.8500
v -0.5250 0.3800 0.8500
f 268/6 267/6 266/6 265/6
v -0.7000 0.3800 0.8500
v -0.7000 0.4000 0.8500
v -0.7000 0.4000 1.0500
v -0.7000 0.3800 1.0500
f 272/6 271/6 270/6 269/6
v -0.5250 0.3800 0.8500
v -0.7000 0.3800 0.8500
v -0.7000 0.3800 1.0500
v -0.5250 0.3800 1.0500
f 276/6 275/6 274/6 273/6
v -0.5250 0.4000 1.0500
v -0.7000 0.4000 1.0500
v -0.7000 0.4000 0.8500
v -0.5250 0.4000 0.8500
f 280/6 279/6 278/6 277/6
v -0.5250 0.4000 0.8500
v -0.7000 0.4000 0.8500
v -0.7000 0.3800 0.8500
v -0.5250 0.3800 0.8500
f 284/6 283/6 282/6 281/6
v -0.5250 0.3800 1.0500
v -0.7000 0.3800 1.0500
v -0.7000 0.4000 1.0500
v -0.5250 0.4000 1.0500
f 288/6 287/6 286/6 285/6
v -0.2863 1.1808 0.2298
v -0.3359 1.2192 0.2794
v -0.6541 0.3992 0.5976
v -0.6045 0.3608 0.5480
f 292/7 291/7 290/7 289/7
v -0.5480 0.3608 0.6045
v -0.5976 0.3992 0.6541
v -0.2794 1.2192 0.3359
v -0.2298 1.1808 0.2863
f 296/7 295/7 294/7 293/7
v -0.6045 0.3608 0.5480
v -0.5480 0.3608 0.6045
v -0.2298 1.1808 0.2863
v -0.2863 1.1808 0.2298
f 300/7 299/7 298/7 297/7
v -0.3359 1.2192 0.2794
v -0.2794 1.2192 0.3359
v -0.5976 0.3992 0.6541
v -0.6541 0.3992 0.5976
f 304/7 303/7 302/7 301/7
v -0.6541 0.3992 0.5976
v -0.5976 0.3992 0.6541
v -0.5480 0.3608 0.6045
v -0.6045 0.3608 0.5480
f 308/7 307/7 306/7 305/7
v -0.2863 1.1808 0.2298
v -0.2298 1.1808 0.2863
v -0.2794 1.2192 0.3359
v -0.3359 1.2192 0.2794
f 312/7 311/7 310/7 309/7
v 0.2298 1.1808 0.2863
v 0.2794 1.2192 0.3359
v 0.5976 0.3992 0.6541
v 0.5480 0.3608 0.6045
f 316/7 315/7 314/7 313/7
v 0.6045 0.3608 0.5480
v 0.6541 0.3992 0.5976
v 0.3359 1.2192 0.2794
v 0.2863 1.1808 0.2298
f 320/7 319/7 318/7 317/7
v 0.5480 0.3608 0.6045
v 0.6045 0.3608 0.5480
v 0.2863 1.1808 0.2298
v 0.2298 1.1808 0.2863
f 324/7 323/7 322/7 321/7
v 0.2794 1.2192 0.3359
v 0.3359 1.2192 0.2794
v 0.6541 0.3992 0.5976
v 0.5976 0.3992 0.6541
f 328/7 327/7 326/7 325/7
v 0.5976 0.3992 0.6541
v 0.6541 0.3992 0.5976
v 0.6045 0.3608 0.5480
v 0.5480 0.3608 0.6045
f 332/7 331/7 330/7 329/7
v 0.2298 1.1808 0.2863
v 0.2863 1.1808 0.2298
v 0.3359 1.2192 0.2794
v 0.2794 1.2192 0.3359
f 336/7 335/7 334/7 333/7
v 0.2863 1.1808 -0.2298
v 0.3359 1.2192 -0.2794
v 0.6541 0.3992 -0.5976
v 0.6045 0.3608 -0.5480
f 340/7 339/7 338/7 337/7
v 0.5480 0.3608 -0.6045
v 0.5976 0.3992 -0.6541
v 0.2794 1.2192 -0.3359
v 0.2298 1.1808 -0.2863
f 344/7 343/7 342/7 341/7
v 0.6045 0.3608 -0.5480
v 0.5480 0.3608 -0.6045
v 0.2298 1.1808 -0.2863
v 0.2863 1.1808 -0.2298
f 348/7 347/7 346/7 345/7
v 0.3359 1.2192 -0.2794
v 0.2794 1.2192 -0.3359
v 0.5976 0.3992 -0.6541
v 0.6541 0.3992 -0.5976
f 352/7 351/7 350/7 349/7
v 0.6541 0.3992 -0.5976
v 0.5976 0.3992 -0.6541
v 0.5480 0.3608 -0.6045
v 0.6045 0.3608 -0.5480
f 356/7 355/7 354/7 353/7
v 0.2863 1.1808 -0.2298
v 0.2298 1.1808 -0.2863
v 0.2794 1.2192 -0.3359
v 0.3359 1.2192 -0.2794
f 360/7 359/7 358/7 357/7
v -0.2298 1.1808 -0.2863
v -0.2794 1.2192 -0.3359
v -0.5976 0.3992 -0.6541
v -0.5480 0.3608 -0.6045
f 364/7 363/7 362/7 361/7
v -0.6045 0.3608 -0.5480
v -0.6541 0.3992 -0.5976
v -0.3359 1.2192 -0.2794
v -0.2863 1.1808 -0.2298
f 368/7 367/7 366/7 365/7
v -0.5480 0.3608 -0.6045
v -0.6045 0.3608 -0.5480
v -0.2863 1.1808 -0.2298
v -0.2298 1.1808 -0.2863
f 372/7 371/7 370/7 369/7
v -0.2794 1.2192 -0.3359
v -0.3359 1.2192 -0.2794
v -0.6541 0.3992 -0.5976
v -0.5976 0.3992 -0.6541
f 376/7 375/7 374/7 373/7
v -0.5976 0.3992 -0.6541
v -0.6541 0.3992 -0.5976
v -0.6045 0.3608 -0.5480
v -0.5480 0.3608 -0.6045
f 380/7 379/7 378/7 377/7
v -0.2298 1.1808 -0.2863
v -0.2863 1.1808 -0.2298
v -0.3359 1.2192 -0.2794
v -0.2794 1.2192 -0.3359
f 384/7 383/7 382/7 381/7
v -0.0803 0.5500 0.2473
v -0.2103 0.5500 0.1528
v -0.2751 0.8500 0.1998
v -0.1051 0.8500 0.3234
f 388/6 387/6 386/6 385/6
v -0.2103 0.5500 0.1528
v -0.2600 0.5500 0.0000
v -0.3400 0.8500 0.0000
v -0.2751 0.8500 0.1998
f 392/6 391/6 390/6 389/6
v -0.2600 0.5500 0.0000
v -0.2103 0.5500 -0.1528
v -0.2751 0.8500 -0.1998
v -0.3400 0.8500 0.0000
f 396/6 395/6 394/6 393/6
v -0.2103 0.5500 -0.1528
v -0.0803 0.5500 -0.2473
v -0.1051 0.8500 -0.3234
v -0.2751 0.8500 -0.1998
f 400/6 399/6 398/6 397/6
v -0.0803 0.5500 -0.2473
v 0.0803 0.5500 -0.2473
v 0.1051 0.8500 -0.3234
v -0.1051 0.8500 -0.3234
f 404/6 403/6 402/6 401/6
v 0.0803 0.5500 -0.2473
v 0.2103 0.5500 -0.1528
v 0.2751 0.8500 -0.1998
v 0.1051 0.8500 -0.3234
f 408/6 407/6 406/6 405/6
v 0.2103 0.5500 -0.1528
v 0.2600 0.5500 -0.0000
v 0.3400 0.8500 -0.0000
v 0.2751 0.8500 -0.1998
f 412/6 411/6 410/6 409/6
v 0.2600 0.5500 -0.0000
v 0.2103 0.5500 0.1528
v 0.2751 0.8500 0.1998
v 0.3400 0.8500 -0.0000
f 416/6 415/6 414/6 413/6
v 0.2103 0.5500 0.1528
v 0.0803 0.5500 0.2473
v 0.1051 0.8500 0.3234
v 0.2751 0.8500 0.1998
f 420/6 419/6 418/6 417/6
v 0.0803 0.5500 0.2473
v -0.0803 0.5500 0.2473
v -0.1051 0.8500 0.3234
v 0.1051 0.8500 0.3234
f 424/6 423/6 422/6 421/6
v 0.0803 0.5500 0.2473
v 0.2103 0.5500 0.1528
v 0.2600 0.5500 -0.0000
v 0.2103 0.5500 -0.1528
v 0.0803 0.5500 -0.2473
v -0.0803 0.5500 -0.2473
v -0.2103 0.5500 -0.1528
v -0.2600 0.5500 0.0000
v -0.2103 0.5500 0.1528
v -0.0803 0.5500 0.2473
f 434/6 433/6 432/6 431/6 430/6 429/6 428/6 427/6 426/6 425/6
v -0.1051 0.8500 0.3234
v -0.2751 0.8500 0.1998
v -0.3400 0.8500 0.0000
v -0.2751 0.8500 -0.1998
v -0.1051 0.8500 -0.3234
v 0.1051 0.8500 -0.3234
v 0.2751 0.8500 -0.1998
v 0.3400 0.8500 -0.0000
v 0.2751 0.8500 0.1998
v 0.1051 0.8500 0.3234
f 444/6 443/6 442/6 441/6 440/6 439/6 438/6 437/6 436/6 435/6
v -0.1165 0.8500 0.4347
v -0.3182 0.8500 0.3182
v -0.3182 3.9500 0.3182
v -0.1165 3.9500 0.4347
f 448/15 447/15 446/15 445/15
v -0.3182 0.8500 0.3182
v -0.4347 0.8500 0.1165
v -0.4347 3.9500 0.1165
v -0.3182 3.9500 0.3182
f 452/15 451/15 450/15 449/15
v -0.4347 0.8500 0.1165
v -0.4347 0.8500 -0.1165
v -0.4347 3.9500 -0.1165
v -0.4347 3.9500 0.1165
f 456/15 455/15 454/15 453/15
v -0.4347 0.8500 -0.1165
v -0.3182 0.8500 -0.3182
v -0.3182 3.9500 -0.3182
v -0.4347 3.9500 -0.1165
f 460/15 459/15 458/15 457/15
v -0.3182 0.8500 -0.3182
v -0.1165 0.8500 -0.4347
v -0.1165 3.9500 -0.4347
v -0.3182 3.9500 -0.3182
f 464/15 463/15 462/15 461/15
v -0.1165 0.8500 -0.4347
v 0.1165 0.8500 -0.4347
v 0.1165 3.9500 -0.4347
v -0.1165 3.9500 -0.4347
f 468/15 467/15 466/15 465/15
v 0.1165 0.8500 -0.4347
v 0.3182 0.8500 -0.3182
v 0.3182 3.9500 -0.3182
v 0.1165 3.9500 -0.4347
f 472/15 471/15 470/15 469/15
v 0.3182 0.8500 -0.3182
v 0.4347 0.8500 -0.1165
v 0.4347 3.9500 -0.1165
v 0.3182 3.9500 -0.3182
f 476/15 475/15 474/15 473/15
v 0.4347 0.8500 -0.1165
v 0.4347 0.8500 0.1165
v 0.4347 3.9500 0.1165
v 0.4347 3.9500 -0.1165
f 480/15 479/15 478/15 477/15
v 0.4347 0.8500 0.1165
v 0.3182 0.8500 0.3182
v 0.3182 3.9500 0.3182
v 0.4347 3.9500 0.1165
f 484/15 483/15 482/15 481/15
v 0.3182 0.8500 0.3182
v 0.1165 0.8500 0.4347
v 0.1165 3.9500 0.4347
v 0.3182 3.9500 0.3182
f 488/15 487/15 486/15 485/15
v 0.1165 0.8500 0.4347
v -0.1165 0.8500 0.4347
v -0.1165 3.9500 0.4347
v 0.1165 3.9500 0.4347
f 492/15 491/15 490/15 489/15
v 0.1165 0.8500 0.4347
v 0.3182 0.8500 0.3182
v 0.4347 0.8500 0.1165
v 0.4347 0.8500 -0.1165
v 0.3182 0.8500 -0.3182
v 0.1165 0.8500 -0.4347
v -0.1165 0.8500 -0.4347
v -0.3182 0.8500 -0.3182
v -0.4347 0.8500 -0.1165
v -0.4347 0.8500 0.1165
v -0.3182 0.8500 0.3182
v -0.1165 0.8500 0.4347
f 504/15 503/15 502/15 501/15 500/15 499/15 498/15 497/15 496/15 495/15 494/15 493/15
v -0.1165 3.9500 0.4347
v -0.3182 3.9500 0.3182
v -0.4347 3.9500 0.1165
v -0.4347 3.9500 -0.1165
v -0.3182 3.9500 -0.3182
v -0.1165 3.9500 -0.4347
v 0.1165 3.9500 -0.4347
v 0.3182 3.9500 -0.3182
v 0.4347 3.9500 -0.1165
v 0.4347 3.9500 0.1165
v 0.3182 3.9500 0.3182
v 0.1165 3.9500 0.4347
f 516/15 515/15 514/15 513/15 512/15 511/15 510/15 509/15 508/15 507/15 506/15 505/15
v -0.1191 1.4500 0.4443
v -0.3253 1.4500 0.3253
v -0.3253 1.5700 0.3253
v -0.1191 1.5700 0.4443
f 520/27 519/27 518/27 517/27
v -0.3253 1.4500 0.3253
v -0.4443 1.4500 0.1191
v -0.4443 1.5700 0.1191
v -0.3253 1.5700 0.3253
f 524/27 523/27 522/27 521/27
v -0.4443 1.4500 0.1191
v -0.4443 1.4500 -0.1191
v -0.4443 1.5700 -0.1191
v -0.4443 1.5700 0.1191
f 528/27 527/27 526/27 525/27
v -0.4443 1.4500 -0.1191
v -0.3253 1.4500 -0.3253
v -0.3253 1.5700 -0.3253
v -0.4443 1.5700 -0.1191
f 532/27 531/27 530/27 529/27
v -0.3253 1.4500 -0.3253
v -0.1191 1.4500 -0.4443
v -0.1191 1.5700 -0.4443
v -0.3253 1.5700 -0.3253
f 536/27 535/27 534/27 533/27
v -0.1191 1.4500 -0.4443
v 0.1191 1.4500 -0.4443
v 0.1191 1.5700 -0.4443
v -0.1191 1.5700 -0.4443
f 540/27 539/27 538/27 537/27
v 0.1191 1.4500 -0.4443
v 0.3253 1.4500 -0.3253
v 0.3253 1.5700 -0.3253
v 0.1191 1.5700 -0.4443
f 544/27 543/27 542/27 541/27
v 0.3253 1.4500 -0.3253
v 0.4443 1.4500 -0.1191
v 0.4443 1.5700 -0.1191
v 0.3253 1.5700 -0.3253
f 548/27 547/27 546/27 545/27
v 0.4443 1.4500 -0.1191
v 0.4443 1.4500 0.1191
v 0.4443 1.5700 0.1191
v 0.4443 1.5700 -0.1191
f 552/27 551/27 550/27 549/27
v 0.4443 1.4500 0.1191
v 0.3253 1.4500 0.3253
v 0.3253 1.5700 0.3253
v 0.4443 1.5700 0.1191
f 556/27 555/27 554/27 553/27
v 0.3253 1.4500 0.3253
v 0.1191 1.4500 0.4443
v 0.1191 1.5700 0.4443
v 0.3253 1.5700 0.3253
f 560/27 559/27 558/27 557/27
v 0.1191 1.4500 0.4443
v -0.1191 1.4500 0.4443
v -0.1191 1.5700 0.4443
v 0.1191 1.5700 0.4443
f 564/27 563/27 562/27 561/27
v 0.1191 1.4500 0.4443
v 0.3253 1.4500 0.3253
v 0.4443 1.4500 0.1191
v 0.4443 1.4500 -0.1191
v 0.3253 1.4500 -0.3253
v 0.1191 1.4500 -0.4443
v -0.1191 1.4500 -0.4443
v -0.3253 1.4500 -0.3253
v -0.4443 1.4500 -0.1191
v -0.4443 1.4500 0.1191
v -0.3253 1.4500 0.3253
v -0.1191 1.4500 0.4443
f 576/27 575/27 574/27 573/27 572/27 571/27 570/27 569/27 568/27 567/27 566/27 565/27
v -0.1191 1.5700 0.4443
v -0.3253 1.5700 0.3253
v -0.4443 1.5700 0.1191
v -0.4443 1.5700 -0.1191
v -0.3253 1.5700 -0.3253
v -0.1191 1.5700 -0.4443
v 0.1191 1.5700 -0.4443
v 0.3253 1.5700 -0.3253
v 0.4443 1.5700 -0.1191
v 0.4443 1.5700 0.1191
v 0.3253 1.5700 0.3253
v 0.1191 1.5700 0.4443
f 588/27 587/27 586/27 585/27 584/27 583/27 582/27 581/27 580/27 579/27 578/27 577/27
v -0.1191 2.8500 0.4443
v -0.3253 2.8500 0.3253
v -0.3253 2.9700 0.3253
v -0.1191 2.9700 0.4443
f 592/27 591/27 590/27 589/27
v -0.3253 2.8500 0.3253
v -0.4443 2.8500 0.1191
v -0.4443 2.9700 0.1191
v -0.3253 2.9700 0.3253
f 596/27 595/27 594/27 593/27
v -0.4443 2.8500 0.1191
v -0.4443 2.8500 -0.1191
v -0.4443 2.9700 -0.1191
v -0.4443 2.9700 0.1191
f 600/27 599/27 598/27 597/27
v -0.4443 2.8500 -0.1191
v -0.3253 2.8500 -0.3253
v -0.3253 2.9700 -0.3253
v -0.4443 2.9700 -0.1191
f 604/27 603/27 602/27 601/27
v -0.3253 2.8500 -0.3253
v -0.1191 2.8500 -0.4443
v -0.1191 2.9700 -0.4443
v -0.3253 2.9700 -0.3253
f 608/27 607/27 606/27 605/27
v -0.1191 2.8500 -0.4443
v 0.1191 2.8500 -0.4443
v 0.1191 2.9700 -0.4443
v -0.1191 2.9700 -0.4443
f 612/27 611/27 610/27 609/27
v 0.1191 2.8500 -0.4443
v 0.3253 2.8500 -0.3253
v 0.3253 2.9700 -0.3253
v 0.1191 2.9700 -0.4443
f 616/27 615/27 614/27 613/27
v 0.3253 2.8500 -0.3253
v 0.4443 2.8500 -0.1191
v 0.4443 2.9700 -0.1191
v 0.3253 2.9700 -0.3253
f 620/27 619/27 618/27 617/27
v 0.4443 2.8500 -0.1191
v 0.4443 2.8500 0.1191
v 0.4443 2.9700 0.1191
v 0.4443 2.9700 -0.1191
f 624/27 623/27 622/27 621/27
v 0.4443 2.8500 0.1191
v 0.3253 2.8500 0.3253
v 0.3253 2.9700 0.3253
v 0.4443 2.9700 0.1191
f 628/27 627/27 626/27 625/27
v 0.3253 2.8500 0.3253
v 0.1191 2.8500 0.4443
v 0.1191 2.9700 0.4443
v 0.3253 2.9700 0.3253
f 632/27 631/27 630/27 629/27
v 0.1191 2.8500 0.4443
v -0.1191 2.8500 0.4443
v -0.1191 2.9700 0.4443
v 0.1191 2.9700 0.4443
f 636/27 635/27 634/27 633/27
v 0.1191 2.8500 0.4443
v 0.3253 2.8500 0.3253
v 0.4443 2.8500 0.1191
v 0.4443 2.8500 -0.1191
v 0.3253 2.8500 -0.3253
v 0.1191 2.8500 -0.4443
v -0.1191 2.8500 -0.4443
v -0.3253 2.8500 -0.3253
v -0.4443 2.8500 -0.1191
v -0.4443 2.8500 0.1191
v -0.3253 2.8500 0.3253
v -0.1191 2.8500 0.4443
f 648/27 647/27 646/27 645/27 644/27 643/27 642/27 641/27 640/27 639/27 638/27 637/27
v -0.1191 2.9700 0.4443
v -0.3253 2.9700 0.3253
v -0.4443 2.9700 0.1191
v -0.4443 2.9700 -0.1191
v -0.3253 2.9700 -0.3253
v -0.1191 2.9700 -0.4443
v 0.1191 2.9700 -0.4443
v 0.3253 2.9700 -0.3253
v 0.4443 2.9700 -0.1191
v 0.4443 2.9700 0.1191
v 0.3253 2.9700 0.3253
v 0.1191 2.9700 0.4443
f 660/27 659/27 658/27 657/27 656/27 655/27 654/27 653/27 652/27 651/27 650/27 649/27
v -0.1165 3.9500 0.4347
v -0.3182 3.9500 0.3182
v -0.0000 5.1500 0.0000
f 663/27 662/27 661/27
v -0.3182 3.9500 0.3182
v -0.4347 3.9500 0.1165
v -0.0000 5.1500 0.0000
f 666/27 665/27 664/27
v -0.4347 3.9500 0.1165
v -0.4347 3.9500 -0.1165
v -0.0000 5.1500 0.0000
f 669/27 668/27 667/27
v -0.4347 3.9500 -0.1165
v -0.3182 3.9500 -0.3182
v -0.0000 5.1500 0.0000
f 672/27 671/27 670/27
v -0.3182 3.9500 -0.3182
v -0.1165 3.9500 -0.4347
v -0.0000 5.1500 0.0000
f 675/27 674/27 673/27
v -0.1165 3.9500 -0.4347
v 0.1165 3.9500 -0.4347
v -0.0000 5.1500 0.0000
f 678/27 677/27 676/27
v 0.1165 3.9500 -0.4347
v 0.3182 3.9500 -0.3182
v -0.0000 5.1500 0.0000
f 681/27 680/27 679/27
v 0.3182 3.9500 -0.3182
v 0.4347 3.9500 -0.1165
v -0.0000 5.1500 0.0000
f 684/27 683/27 682/27
v 0.4347 3.9500 -0.1165
v 0.4347 3.9500 0.1165
v -0.0000 5.1500 0.0000
f 687/27 686/27 685/27
v 0.4347 3.9500 0.1165
v 0.3182 3.9500 0.3182
v -0.0000 5.1500 0.0000
f 690/27 689/27 688/27
v 0.3182 3.9500 0.3182
v 0.1165 3.9500 0.4347
v -0.0000 5.1500 0.0000
f 693/27 692/27 691/27
v 0.1165 3.9500 0.4347
v -0.1165 3.9500 0.4347
v -0.0000 5.1500 0.0000
f 696/27 695/27 694/27
v 0.1165 3.9500 0.4347
v 0.3182 3.9500 0.3182
v 0.4347 3.9500 0.1165
v 0.4347 3.9500 -0.1165
v 0.3182 3.9500 -0.3182
v 0.1165 3.9500 -0.4347
v -0.1165 3.9500 -0.4347
v -0.3182 3.9500 -0.3182
v -0.4347 3.9500 -0.1165
v -0.4347 3.9500 0.1165
v -0.3182 3.9500 0.3182
v -0.1165 3.9500 0.4347
f 708/27 707/27 706/27 705/27 704/27 703/27 702/27 701/27 700/27 699/27 698/27 697/27
v -0.1046 2.1840 0.4200
v -0.0647 2.2390 0.4200
v -0.0647 2.2390 0.4700
v -0.1046 2.1840 0.4700
f 712/7 711/7 710/7 709/7
v -0.0647 2.2390 0.4200
v -0.0000 2.2600 0.4200
v -0.0000 2.2600 0.4700
v -0.0647 2.2390 0.4700
f 716/7 715/7 714/7 713/7
v -0.0000 2.2600 0.4200
v 0.0647 2.2390 0.4200
v 0.0647 2.2390 0.4700
v -0.0000 2.2600 0.4700
f 720/7 719/7 718/7 717/7
v 0.0647 2.2390 0.4200
v 0.1046 2.1840 0.4200
v 0.1046 2.1840 0.4700
v 0.0647 2.2390 0.4700
f 724/7 723/7 722/7 721/7
v 0.1046 2.1840 0.4200
v 0.1046 2.1160 0.4200
v 0.1046 2.1160 0.4700
v 0.1046 2.1840 0.4700
f 728/7 727/7 726/7 725/7
v 0.1046 2.1160 0.4200
v 0.0647 2.0610 0.4200
v 0.0647 2.0610 0.4700
v 0.1046 2.1160 0.4700
f 732/7 731/7 730/7 729/7
v 0.0647 2.0610 0.4200
v 0.0000 2.0400 0.4200
v 0.0000 2.0400 0.4700
v 0.0647 2.0610 0.4700
f 736/7 735/7 734/7 733/7
v 0.0000 2.0400 0.4200
v -0.0647 2.0610 0.4200
v -0.0647 2.0610 0.4700
v 0.0000 2.0400 0.4700
f 740/7 739/7 738/7 737/7
v -0.0647 2.0610 0.4200
v -0.1046 2.1160 0.4200
v -0.1046 2.1160 0.4700
v -0.0647 2.0610 0.4700
f 744/7 743/7 742/7 741/7
v -0.1046 2.1160 0.4200
v -0.1046 2.1840 0.4200
v -0.1046 2.1840 0.4700
v -0.1046 2.1160 0.4700
f 748/7 747/7 746/7 745/7
v -0.1046 2.1160 0.4200
v -0.0647 2.0610 0.4200
v 0.0000 2.0400 0.4200
v 0.0647 2.0610 0.4200
v 0.1046 2.1160 0.4200
v 0.1046 2.1840 0.4200
v 0.0647 2.2390 0.4200
v -0.0000 2.2600 0.4200
v -0.0647 2.2390 0.4200
v -0.1046 2.1840 0.4200
f 758/7 757/7 756/7 755/7 754/7 753/7 752/7 751/7 750/7 749/7
v -0.1046 2.1840 0.4700
v -0.0647 2.2390 0.4700
v -0.0000 2.2600 0.4700
v 0.0647 2.2390 0.4700
v 0.1046 2.1840 0.4700
v 0.1046 2.1160 0.4700
v 0.0647 2.0610 0.4700
v 0.0000 2.0400 0.4700
v -0.0647 2.0610 0.4700
v -0.1046 2.1160 0.4700
f 768/7 767/7 766/7 765/7 764/7 763/7 762/7 761/7 760/7 759/7
v -0.0761 2.1747 0.4300
v -0.0470 2.2147 0.4300
v -0.0470 2.2147 0.4800
v -0.0761 2.1747 0.4800
f 772/19 771/19 770/19 769/19
v -0.0470 2.2147 0.4300
v -0.0000 2.2300 0.4300
v -0.0000 2.2300 0.4800
v -0.0470 2.2147 0.4800
f 776/19 775/19 774/19 773/19
v -0.0000 2.2300 0.4300
v 0.0470 2.2147 0.4300
v 0.0470 2.2147 0.4800
v -0.0000 2.2300 0.4800
f 780/19 779/19 778/19 777/19
v 0.0470 2.2147 0.4300
v 0.0761 2.1747 0.4300
v 0.0761 2.1747 0.4800
v 0.0470 2.2147 0.4800
f 784/19 783/19 782/19 781/19
v 0.0761 2.1747 0.4300
v 0.0761 2.1253 0.4300
v 0.0761 2.1253 0.4800
v 0.0761 2.1747 0.4800
f 788/19 787/19 786/19 785/19
v 0.0761 2.1253 0.4300
v 0.0470 2.0853 0.4300
v 0.0470 2.0853 0.4800
v 0.0761 2.1253 0.4800
f 792/19 791/19 790/19 789/19
v 0.0470 2.0853 0.4300
v 0.0000 2.0700 0.4300
v 0.0000 2.0700 0.4800
v 0.0470 2.0853 0.4800
f 796/19 795/19 794/19 793/19
v 0.0000 2.0700 0.4300
v -0.0470 2.0853 0.4300
v -0.0470 2.0853 0.4800
v 0.0000 2.0700 0.4800
f 800/19 799/19 798/19 797/19
v -0.0470 2.0853 0.4300
v -0.0761 2.1253 0.4300
v -0.0761 2.1253 0.4800
v -0.0470 2.0853 0.4800
f 804/19 803/19 802/19 801/19
v -0.0761 2.1253 0.4300
v -0.0761 2.1747 0.4300
v -0.0761 2.1747 0.4800
v -0.0761 2.1253 0.4800
f 808/19 807/19 806/19 805/19
v -0.0761 2.1253 0.4300
v -0.0470 2.0853 0.4300
v 0.0000 2.0700 0.4300
v 0.0470 2.0853 0.4300
v 0.0761 2.1253 0.4300
v 0.0761 2.1747 0.4300
v 0.0470 2.2147 0.4300
v -0.0000 2.2300 0.4300
v -0.0470 2.2147 0.4300
v -0.0761 2.1747 0.4300
f 818/19 817/19 816/19 815/19 814/19 813/19 812/19 811/19 810/19 809/19
v -0.0761 2.1747 0.4800
v -0.0470 2.2147 0.4800
v -0.0000 2.2300 0.4800
v 0.0470 2.2147 0.4800
v 0.0761 2.1747 0.4800
v 0.0761 2.1253 0.4800
v 0.0470 2.0853 0.4800
v 0.0000 2.0700 0.4800
v -0.0470 2.0853 0.4800
v -0.0761 2.1253 0.4800
f 828/19 827/19 826/19 825/19 824/19 823/19 822/19 821/19 820/19 819/19
v -0.1046 2.5840 0.4200
v -0.0647 2.6390 0.4200
v -0.0647 2.6390 0.4700
v -0.1046 2.5840 0.4700
f 832/7 831/7 830/7 829/7
v -0.0647 2.6390 0.4200
v -0.0000 2.6600 0.4200
v -0.0000 2.6600 0.4700
v -0.0647 2.6390 0.4700
f 836/7 835/7 834/7 833/7
v -0.0000 2.6600 0.4200
v 0.0647 2.6390 0.4200
v 0.0647 2.6390 0.4700
v -0.0000 2.6600 0.4700
f 840/7 839/7 838/7 837/7
v 0.0647 2.6390 0.4200
v 0.1046 2.5840 0.4200
v 0.1046 2.5840 0.4700
v 0.0647 2.6390 0.4700
f 844/7 843/7 842/7 841/7
v 0.1046 2.5840 0.4200
v 0.1046 2.5160 0.4200
v 0.1046 2.5160 0.4700
v 0.1046 2.5840 0.4700
f 848/7 847/7 846/7 845/7
v 0.1046 2.5160 0.4200
v 0.0647 2.4610 0.4200
v 0.0647 2.4610 0.4700
v 0.1046 2.5160 0.4700
f 852/7 851/7 850/7 849/7
v 0.0647 2.4610 0.4200
v 0.0000 2.4400 0.4200
v 0.0000 2.4400 0.4700
v 0.0647 2.4610 0.4700
f 856/7 855/7 854/7 853/7
v 0.0000 2.4400 0.4200
v -0.0647 2.4610 0.4200
v -0.0647 2.4610 0.4700
v 0.0000 2.4400 0.4700
f 860/7 859/7 858/7 857/7
v -0.0647 2.4610 0.4200
v -0.1046 2.5160 0.4200
v -0.1046 2.5160 0.4700
v -0.0647 2.4610 0.4700
f 864/7 863/7 862/7 861/7
v -0.1046 2.5160 0.4200
v -0.1046 2.5840 0.4200
v -0.1046 2.5840 0.4700
v -0.1046 2.5160 0.4700
f 868/7 867/7 866/7 865/7
v -0.1046 2.5160 0.4200
v -0.0647 2.4610 0.4200
v 0.0000 2.4400 0.4200
v 0.0647 2.4610 0.4200
v 0.1046 2.5160 0.4200
v 0.1046 2.5840 0.4200
v 0.0647 2.6390 0.4200
v -0.0000 2.6600 0.4200
v -0.0647 2.6390 0.4200
v -0.1046 2.5840 0.4200
f 878/7 877/7 876/7 875/7 874/7 873/7 872/7 871/7 870/7 869/7
v -0.1046 2.5840 0.4700
v -0.0647 2.6390 0.4700
v -0.0000 2.6600 0.4700
v 0.0647 2.6390 0.4700
v 0.1046 2.5840 0.4700
v 0.1046 2.5160 0.4700
v 0.0647 2.4610 0.4700
v 0.0000 2.4400 0.4700
v -0.0647 2.4610 0.4700
v -0.1046 2.5160 0.4700
f 888/7 887/7 886/7 885/7 884/7 883/7 882/7 881/7 880/7 879/7
v -0.0761 2.5747 0.4300
v -0.0470 2.6147 0.4300
v -0.0470 2.6147 0.4800
v -0.0761 2.5747 0.4800
f 892/19 891/19 890/19 889/19
v -0.0470 2.6147 0.4300
v -0.0000 2.6300 0.4300
v -0.0000 2.6300 0.4800
v -0.0470 2.6147 0.4800
f 896/19 895/19 894/19 893/19
v -0.0000 2.6300 0.4300
v 0.0470 2.6147 0.4300
v 0.0470 2.6147 0.4800
v -0.0000 2.6300 0.4800
f 900/19 899/19 898/19 897/19
v 0.0470 2.6147 0.4300
v 0.0761 2.5747 0.4300
v 0.0761 2.5747 0.4800
v 0.0470 2.6147 0.4800
f 904/19 903/19 902/19 901/19
v 0.0761 2.5747 0.4300
v 0.0761 2.5253 0.4300
v 0.0761 2.5253 0.4800
v 0.0761 2.5747 0.4800
f 908/19 907/19 906/19 905/19
v 0.0761 2.5253 0.4300
v 0.0470 2.4853 0.4300
v 0.0470 2.4853 0.4800
v 0.0761 2.5253 0.4800
f 912/19 911/19 910/19 909/19
v 0.0470 2.4853 0.4300
v 0.0000 2.4700 0.4300
v 0.0000 2.4700 0.4800
v 0.0470 2.4853 0.4800
f 916/19 915/19 914/19 913/19
v 0.0000 2.4700 0.4300
v -0.0470 2.4853 0.4300
v -0.0470 2.4853 0.4800
v 0.0000 2.4700 0.4800
f 920/19 919/19 918/19 917/19
v -0.0470 2.4853 0.4300
v -0.0761 2.5253 0.4300
v -0.0761 2.5253 0.4800
v -0.0470 2.4853 0.4800
f 924/19 923/19 922/19 921/19
v -0.0761 2.5253 0.4300
v -0.0761 2.5747 0.4300
v -0.0761 2.5747 0.4800
v -0.0761 2.5253 0.4800
f 928/19 927/19 926/19 925/19
v -0.0761 2.5253 0.4300
v -0.0470 2.4853 0.4300
v 0.0000 2.4700 0.4300
v 0.0470 2.4853 0.4300
v 0.0761 2.5253 0.4300
v 0.0761 2.5747 0.4300
v 0.0470 2.6147 0.4300
v -0.0000 2.6300 0.4300
v -0.0470 2.6147 0.4300
v -0.0761 2.5747 0.4300
f 938/19 937/19 936/19 935/19 934/19 933/19 932/19 931/19 930/19 929/19
v -0.0761 2.5747 0.4800
v -0.0470 2.6147 0.4800
v -0.0000 2.6300 0.4800
v 0.0470 2.6147 0.4800
v 0.0761 2.5747 0.4800
v 0.0761 2.5253 0.4800
v 0.0470 2.4853 0.4800
v 0.0000 2.4700 0.4800
v -0.0470 2.4853 0.4800
v -0.0761 2.5253 0.4800
f 948/19 947/19 946/19 945/19 944/19 943/19 942/19 941/19 940/19 939/19
v -0.9500 0.7500 0.0300
v -0.9000 1.2000 0.0300
v -0.4200 1.8500 0.0300
v -0.4200 0.9000 0.0300
f 952/27 951/27 950/27 949/27
v -0.4200 0.9000 -0.0300
v -0.4200 1.8500 -0.0300
v -0.9000 1.2000 -0.0300
v -0.9500 0.7500 -0.0300
f 956/27 955/27 954/27 953/27
v -0.9418 0.7211 0.0300
v -0.9582 0.7789 0.0300
v -0.4282 0.9289 0.0300
v -0.4118 0.8711 0.0300
f 960/27 959/27 958/27 957/27
v -0.4118 0.8711 -0.0300
v -0.4282 0.9289 -0.0300
v -0.9582 0.7789 -0.0300
v -0.9418 0.7211 -0.0300
f 964/27 963/27 962/27 961/27
v -0.4118 0.8711 0.0300
v -0.4118 0.8711 -0.0300
v -0.9418 0.7211 -0.0300
v -0.9418 0.7211 0.0300
f 968/27 967/27 966/27 965/27
v -0.9582 0.7789 0.0300
v -0.9582 0.7789 -0.0300
v -0.4282 0.9289 -0.0300
v -0.4282 0.9289 0.0300
f 972/27 971/27 970/27 969/27
v -0.4282 0.9289 0.0300
v -0.4282 0.9289 -0.0300
v -0.4118 0.8711 -0.0300
v -0.4118 0.8711 0.0300
f 976/27 975/27 974/27 973/27
v -0.9418 0.7211 0.0300
v -0.9418 0.7211 -0.0300
v -0.9582 0.7789 -0.0300
v -0.9582 0.7789 0.0300
f 980/27 979/27 978/27 977/27
v -0.8759 1.1822 0.0300
v -0.9241 1.2178 0.0300
v -0.4441 1.8678 0.0300
v -0.3959 1.8322 0.0300
f 984/27 983/27 982/27 981/27
v -0.3959 1.8322 -0.0300
v -0.4441 1.8678 -0.0300
v -0.9241 1.2178 -0.0300
v -0.8759 1.1822 -0.0300
f 988/27 987/27 986/27 985/27
v -0.3959 1.8322 0.0300
v -0.3959 1.8322 -0.0300
v -0.8759 1.1822 -0.0300
v -0.8759 1.1822 0.0300
f 992/27 991/27 990/27 989/27
v -0.9241 1.2178 0.0300
v -0.9241 1.2178 -0.0300
v -0.4441 1.8678 -0.0300
v -0.4441 1.8678 0.0300
f 996/27 995/27 994/27 993/27
v -0.4441 1.8678 0.0300
v -0.4441 1.8678 -0.0300
v -0.3959 1.8322 -0.0300
v -0.3959 1.8322 0.0300
f 1000/27 999/27 998/27 997/27
v -0.8759 1.1822 0.0300
v -0.8759 1.1822 -0.0300
v -0.9241 1.2178 -0.0300
v -0.9241 1.2178 0.0300
f 1004/27 1003/27 1002/27 1001/27
v -0.8702 1.1967 -0.0300
v -0.9298 1.2033 -0.0300
v -0.9798 0.7533 -0.0300
v -0.9202 0.7467 -0.0300
f 1008/27 1007/27 1006/27 1005/27
v -0.9202 0.7467 0.0300
v -0.9798 0.7533 0.0300
v -0.9298 1.2033 0.0300
v -0.8702 1.1967 0.0300
f 1012/27 1011/27 1010/27 1009/27
v -0.9202 0.7467 -0.0300
v -0.9202 0.7467 0.0300
v -0.8702 1.1967 0.0300
v -0.8702 1.1967 -0.0300
f 1016/27 1015/27 1014/27 1013/27
v -0.9298 1.2033 -0.0300
v -0.9298 1.2033 0.0300
v -0.9798 0.7533 0.0300
v -0.9798 0.7533 -0.0300
f 1020/27 1019/27 1018/27 1017/27
v -0.9798 0.7533 -0.0300
v -0.9798 0.7533 0.0300
v -0.9202 0.7467 0.0300
v -0.9202 0.7467 -0.0300
f 1024/27 1023/27 1022/27 1021/27
v -0.8702 1.1967 -0.0300
v -0.8702 1.1967 0.0300
v -0.9298 1.2033 0.0300
v -0.9298 1.2033 -0.0300
f 1028/27 1027/27 1026/27 1025/27
v 0.0300 0.7500 0.9500
v 0.0300 1.2000 0.9000
v 0.0300 1.8500 0.4200
v 0.0300 0.9000 0.4200
f 1032/27 1031/27 1030/27 1029/27
v -0.0300 0.9000 0.4200
v -0.0300 1.8500 0.4200
v -0.0300 1.2000 0.9000
v -0.0300 0.7500 0.9500
f 1036/27 1035/27 1034/27 1033/27
v 0.0300 0.7211 0.9418
v 0.0300 0.7789 0.9582
v 0.0300 0.9289 0.4282
v 0.0300 0.8711 0.4118
f 1040/27 1039/27 1038/27 1037/27
v -0.0300 0.8711 0.4118
v -0.0300 0.9289 0.4282
v -0.0300 0.7789 0.9582
v -0.0300 0.7211 0.9418
f 1044/27 1043/27 1042/27 1041/27
v 0.0300 0.8711 0.4118
v -0.0300 0.8711 0.4118
v -0.0300 0.7211 0.9418
v 0.0300 0.7211 0.9418
f 1048/27 1047/27 1046/27 1045/27
v 0.0300 0.7789 0.9582
v -0.0300 0.7789 0.9582
v -0.0300 0.9289 0.4282
v 0.0300 0.9289 0.4282
f 1052/27 1051/27 1050/27 1049/27
v 0.0300 0.9289 0.4282
v -0.0300 0.9289 0.4282
v -0.0300 0.8711 0.4118
v 0.0300 0.8711 0.4118
f 1056/27 1055/27 1054/27 1053/27
v 0.0300 0.7211 0.9418
v -0.0300 0.7211 0.9418
v -0.0300 0.7789 0.9582
v 0.0300 0.7789 0.9582
f 1060/27 1059/27 1058/27 1057/27
v 0.0300 1.1822 0.8759
v 0.0300 1.2178 0.9241
v 0.0300 1.8678 0.4441
v 0.0300 1.8322 0.3959
f 1064/27 1063/27 1062/27 1061/27
v -0.0300 1.8322 0.3959
v -0.0300 1.8678 0.4441
v -0.0300 1.2178 0.9241
v -0.0300 1.1822 0.8759
f 1068/27 1067/27 1066/27 1065/27
v 0.0300 1.8322 0.3959
v -0.0300 1.8322 0.3959
v -0.0300 1.1822 0.8759
v 0.0300 1.1822 0.8759
f 1072/27 1071/27 1070/27 1069/27
v 0.0300 1.2178 0.9241
v -0.0300 1.2178 0.9241
v -0.0300 1.8678 0.4441
v 0.0300 1.8678 0.4441
f 1076/27 1075/27 1074/27 1073/27
v 0.0300 1.8678 0.4441
v -0.0300 1.8678 0.4441
v -0.0300 1.8322 0.3959
v 0.0300 1.8322 0.3959
f 1080/27 1079/27 1078/27 1077/27
v 0.0300 1.1822 0.8759
v -0.0300 1.1822 0.8759
v -0.0300 1.2178 0.9241
v 0.0300 1.2178 0.9241
f 1084/27 1083/27 1082/27 1081/27
v 0.0300 1.1967 0.8702
v -0.0300 1.1967 0.8702
v -0.0300 0.7467 0.9202
v 0.0300 0.7467 0.9202
f 1088/27 1087/27 1086/27 1085/27
v 0.0300 0.7533 0.9798
v -0.0300 0.7533 0.9798
v -0.0300 1.2033 0.9298
v 0.0300 1.2033 0.9298
f 1092/27 1091/27 1090/27 1089/27
v 0.0300 0.7467 0.9202
v 0.0300 0.7533 0.9798
v 0.0300 1.2033 0.9298
v 0.0300 1.1967 0.8702
f 1096/27 1095/27 1094/27 1093/27
v -0.0300 1.1967 0.8702
v -0.0300 1.2033 0.9298
v -0.0300 0.7533 0.9798
v -0.0300 0.7467 0.9202
f 1100/27 1099/27 1098/27 1097/27
v -0.0300 0.7467 0.9202
v -0.0300 0.7533 0.9798
v 0.0300 0.7533 0.9798
v 0.0300 0.7467 0.9202
f 1104/27 1103/27 1102/27 1101/27
v 0.0300 1.1967 0.8702
v 0.0300 1.2033 0.9298
v -0.0300 1.2033 0.9298
v -0.0300 1.1967 0.8702
f 1108/27 1107/27 1106/27 1105/27
v 0.9500 0.7500 -0.0300
v 0.9000 1.2000 -0.0300
v 0.4200 1.8500 -0.0300
v 0.4200 0.9000 -0.0300
f 1112/27 1111/27 1110/27 1109/27
v 0.4200 0.9000 0.0300
v 0.4200 1.8500 0.0300
v 0.9000 1.2000 0.0300
v 0.9500 0.7500 0.0300
f 1116/27 1115/27 1114/27 1113/27
v 0.9418 0.7211 -0.0300
v 0.9582 0.7789 -0.0300
v 0.4282 0.9289 -0.0300
v 0.4118 0.8711 -0.0300
f 1120/27 1119/27 1118/27 1117/27
v 0.4118 0.8711 0.0300
v 0.4282 0.9289 0.0300
v 0.9582 0.7789 0.0300
v 0.9418 0.7211 0.0300
f 1124/27 1123/27 1122/27 1121/27
v 0.4118 0.8711 -0.0300
v 0.4118 0.8711 0.0300
v 0.9418 0.7211 0.0300
v 0.9418 0.7211 -0.0300
f 1128/27 1127/27 1126/27 1125/27
v 0.9582 0.7789 -0.0300
v 0.9582 0.7789 0.0300
v 0.4282 0.9289 0.0300
v 0.4282 0.9289 -0.0300
f 1132/27 1131/27 1130/27 1129/27
v 0.4282 0.9289 -0.0300
v 0.4282 0.9289 0.0300
v 0.4118 0.8711 0.0300
v 0.4118 0.8711 -0.0300
f 1136/27 1135/27 1134/27 1133/27
v 0.9418 0.7211 -0.0300
v 0.9418 0.7211 0.0300
v 0.9582 0.7789 0.0300
v 0.9582 0.7789 -0.0300
f 1140/27 1139/27 1138/27 1137/27
v 0.8759 1.1822 -0.0300
v 0.9241 1.2178 -0.0300
v 0.4441 1.8678 -0.0300
v 0.3959 1.8322 -0.0300
f 1144/27 1143/27 1142/27 1141/27
v 0.3959 1.8322 0.0300
v 0.4441 1.8678 0.0300
v 0.9241 1.2178 0.0300
v 0.8759 1.1822 0.0300
f 1148/27 1147/27 1146/27 1145/27
v 0.3959 1.8322 -0.0300
v 0.3959 1.8322 0.0300
v 0.8759 1.1822 0.0300
v 0.8759 1.1822 -0.0300
f 1152/27 1151/27 1150/27 1149/27
v 0.9241 1.2178 -0.0300
v 0.9241 1.2178 0.0300
v 0.4441 1.8678 0.0300
v 0.4441 1.8678 -0.0300
f 1156/27 1155/27 1154/27 1153/27
v 0.4441 1.8678 -0.0300
v 0.4441 1.8678 0.0300
v 0.3959 1.8322 0.0300
v 0.3959 1.8322 -0.0300
f 1160/27 1159/27 1158/27 1157/27
v 0.8759 1.1822 -0.0300
v 0.8759 1.1822 0.0300
v 0.9241 1.2178 0.0300
v 0.9241 1.2178 -0.0300
f 1164/27 1163/27 1162/27 1161/27
v 0.9298 1.2033 -0.0300
v 0.8702 1.1967 -0.0300
v 0.9202 0.7467 -0.0300
v 0.9798 0.7533 -0.0300
f 1168/27 1167/27 1166/27 1165/27
v 0.9798 0.7533 0.0300
v 0.9202 0.7467 0.0300
v 0.8702 1.1967 0.0300
v 0.9298 1.2033 0.0300
f 1172/27 1171/27 1170/27 1169/27
v 0.9798 0.7533 -0.0300
v 0.9798 0.7533 0.0300
v 0.9298 1.2033 0.0300
v 0.9298 1.2033 -0.0300
f 1176/27 1175/27 1174/27 1173/27
v 0.8702 1.1967 -0.0300
v 0.8702 1.1967 0.0300
v 0.9202 0.7467 0.0300
v 0.9202 0.7467 -0.0300
f 1180/27 1179/27 1178/27 1177/27
v 0.9202 0.7467 -0.0300
v 0.9202 0.7467 0.0300
v 0.9798 0.7533 0.0300
v 0.9798 0.7533 -0.0300
f 1184/27 1183/27 1182/27 1181/27
v 0.9298 1.2033 -0.0300
v 0.9298 1.2033 0.0300
v 0.8702 1.1967 0.0300
v 0.8702 1.1967 -0.0300
f 1188/27 1187/27 1186/27 1185/27
v -0.0300 0.7500 -0.9500
v -0.0300 1.2000 -0.9000
v -0.0300 1.8500 -0.4200
v -0.0300 0.9000 -0.4200
f 1192/27 1191/27 1190/27 1189/27
v 0.0300 0.9000 -0.4200
v 0.0300 1.8500 -0.4200
v 0.0300 1.2000 -0.9000
v 0.0300 0.7500 -0.9500
f 1196/27 1195/27 1194/27 1193/27
v -0.0300 0.7211 -0.9418
v -0.0300 0.7789 -0.9582
v -0.0300 0.9289 -0.4282
v -0.0300 0.8711 -0.4118
f 1200/27 1199/27 1198/27 1197/27
v 0.0300 0.8711 -0.4118
v 0.0300 0.9289 -0.4282
v 0.0300 0.7789 -0.9582
v 0.0300 0.7211 -0.9418
f 1204/27 1203/27 1202/27 1201/27
v -0.0300 0.8711 -0.4118
v 0.0300 0.8711 -0.4118
v 0.0300 0.7211 -0.9418
v -0.0300 0.7211 -0.9418
f 1208/27 1207/27 1206/27 1205/27
v -0.0300 0.7789 -0.9582
v 0.0300 0.7789 -0.9582
v 0.0300 0.9289 -0.4282
v -0.0300 0.9289 -0.4282
f 1212/27 1211/27 1210/27 1209/27
v -0.0300 0.9289 -0.4282
v 0.0300 0.9289 -0.4282
v 0.0300 0.8711 -0.4118
v -0.0300 0.8711 -0.4118
f 1216/27 1215/27 1214/27 1213/27
v -0.0300 0.7211 -0.9418
v 0.0300 0.7211 -0.9418
v 0.0300 0.7789 -0.9582
v -0.0300 0.7789 -0.9582
f 1220/27 1219/27 1218/27 1217/27
v -0.0300 1.1822 -0.8759
v -0.0300 1.2178 -0.9241
v -0.0300 1.8678 -0.4441
v -0.0300 1.8322 -0.3959
f 1224/27 1223/27 1222/27 1221/27
v 0.0300 1.8322 -0.3959
v 0.0300 1.8678 -0.4441
v 0.0300 1.2178 -0.9241
v 0.0300 1.1822 -0.8759
f 1228/27 1227/27 1226/27 1225/27
v -0.0300 1.8322 -0.3959
v 0.0300 1.8322 -0.3959
v 0.0300 1.1822 -0.8759
v -0.0300 1.1822 -0.8759
f 1232/27 1231/27 1230/27 1229/27
v -0.0300 1.2178 -0.9241
v 0.0300 1.2178 -0.9241
v 0.0300 1.8678 -0.4441
v -0.0300 1.8678 -0.4441
f 1236/27 1235/27 1234/27 1233/27
v -0.0300 1.8678 -0.4441
v 0.0300 1.8678 -0.4441
v 0.0300 1.8322 -0.3959
v -0.0300 1.8322 -0.3959
f 1240/27 1239/27 1238/27 1237/27
v -0.0300 1.1822 -0.8759
v 0.0300 1.1822 -0.8759
v 0.0300 1.2178 -0.9241
v -0.0300 1.2178 -0.9241
f 1244/27 1243/27 1242/27 1241/27
v 0.0300 1.2033 -0.9298
v -0.0300 1.2033 -0.9298
v -0.0300 0.7533 -0.9798
v 0.0300 0.7533 -0.9798
f 1248/27 1247/27 1246/27 1245/27
v 0.0300 0.7467 -0.9202
v -0.0300 0.7467 -0.9202
v -0.0300 1.1967 -0.8702
v 0.0300 1.1967 -0.8702
f 1252/27 1251/27 1250/27 1249/27
v 0.0300 0.7533 -0.9798
v 0.0300 0.7467 -0.9202
v 0.0300 1.1967 -0.8702
v 0.0300 1.2033 -0.9298
f 1256/27 1255/27 1254/27 1253/27
v -0.0300 1.2033 -0.9298
v -0.0300 1.1967 -0.8702
v -0.0300 0.7467 -0.9202
v -0.0300 0.7533 -0.9798
f 1260/27 1259/27 1258/27 1257/27
v -0.0300 0.7533 -0.9798
v -0.0300 0.7467 -0.9202
v 0.0300 0.7467 -0.9202
v 0.0300 0.7533 -0.9798
f 1264/27 1263/27 1262/27 1261/27
v 0.0300 1.2033 -0.9298
v 0.0300 1.1967 -0.8702
v -0.0300 1.1967 -0.8702
v -0.0300 1.2033 -0.9298
f 1268/27 1267/27 1266/27 1265/27
v 0.1100 1.4000 0.4650
v 0.1100 1.9000 0.4650
v 0.1100 1.9000 0.4450
v 0.1100 1.4000 0.4450
f 1272/6 1271/6 1270/6 1269/6
v -0.1100 1.4000 0.4450
v -0.1100 1.9000 0.4450
v -0.1100 1.9000 0.4650
v -0.1100 1.4000 0.4650
f 1276/6 1275/6 1274/6 1273/6
v 0.1100 1.4000 0.4450
v -0.1100 1.4000 0.4450
v -0.1100 1.4000 0.4650
v 0.1100 1.4000 0.4650
f 1280/6 1279/6 1278/6 1277/6
v 0.1100 1.9000 0.4650
v -0.1100 1.9000 0.4650
v -0.1100 1.9000 0.4450
v 0.1100 1.9000 0.4450
f 1284/6 1283/6 1282/6 1281/6
v 0.1100 1.9000 0.4450
v -0.1100 1.9000 0.4450
v -0.1100 1.4000 0.4450
v 0.1100 1.4000 0.4450
f 1288/6 1287/6 1286/6 1285/6
v 0.1100 1.4000 0.4650
v -0.1100 1.4000 0.4650
v -0.1100 1.9000 0.4650
v 0.1100 1.9000 0.4650
f 1292/6 1291/6 1290/6 1289/6
v 0.2500 0.1250 1.1700
v 0.2500 0.3750 1.1700
v 0.2500 0.3750 1.1300
v 0.2500 0.1250 1.1300
f 1296/23 1295/23 1294/23 1293/23
v -0.2500 0.1250 1.1300
v -0.2500 0.3750 1.1300
v -0.2500 0.3750 1.1700
v -0.2500 0.1250 1.1700
f 1300/23 1299/23 1298/23 1297/23
v 0.2500 0.1250 1.1300
v -0.2500 0.1250 1.1300
v -0.2500 0.1250 1.1700
v 0.2500 0.1250 1.1700
f 1304/23 1303/23 1302/23 1301/23
v 0.2500 0.3750 1.1700
v -0.2500 0.3750 1.1700
v -0.2500 0.3750 1.1300
v 0.2500 0.3750 1.1300
f 1308/23 1307/23 1306/23 1305/23
v 0.2500 0.3750 1.1300
v -0.2500 0.3750 1.1300
v -0.2500 0.1250 1.1300
v 0.2500 0.1250 1.1300
f 1312/23 1311/23 1310/23 1309/23
v 0.2500 0.1250 1.1700
v -0.2500 0.1250 1.1700
v -0.2500 0.3750 1.1700
v 0.2500 0.3750 1.1700
f 1316/23 1315/23 1314/23 1313/23
o Lamp
usemtl wi_palette
v -0.0618 0.5000 0.1902
v -0.1618 0.5000 0.1176
v -0.1618 0.5600 0.1176
v -0.0618 0.5600 0.1902
f 1320/17 1319/17 1318/17 1317/17
v -0.1618 0.5000 0.1176
v -0.2000 0.5000 0.0000
v -0.2000 0.5600 0.0000
v -0.1618 0.5600 0.1176
f 1324/17 1323/17 1322/17 1321/17
v -0.2000 0.5000 0.0000
v -0.1618 0.5000 -0.1176
v -0.1618 0.5600 -0.1176
v -0.2000 0.5600 0.0000
f 1328/17 1327/17 1326/17 1325/17
v -0.1618 0.5000 -0.1176
v -0.0618 0.5000 -0.1902
v -0.0618 0.5600 -0.1902
v -0.1618 0.5600 -0.1176
f 1332/17 1331/17 1330/17 1329/17
v -0.0618 0.5000 -0.1902
v 0.0618 0.5000 -0.1902
v 0.0618 0.5600 -0.1902
v -0.0618 0.5600 -0.1902
f 1336/17 1335/17 1334/17 1333/17
v 0.0618 0.5000 -0.1902
v 0.1618 0.5000 -0.1176
v 0.1618 0.5600 -0.1176
v 0.0618 0.5600 -0.1902
f 1340/17 1339/17 1338/17 1337/17
v 0.1618 0.5000 -0.1176
v 0.2000 0.5000 -0.0000
v 0.2000 0.5600 -0.0000
v 0.1618 0.5600 -0.1176
f 1344/17 1343/17 1342/17 1341/17
v 0.2000 0.5000 -0.0000
v 0.1618 0.5000 0.1176
v 0.1618 0.5600 0.1176
v 0.2000 0.5600 -0.0000
f 1348/17 1347/17 1346/17 1345/17
v 0.1618 0.5000 0.1176
v 0.0618 0.5000 0.1902
v 0.0618 0.5600 0.1902
v 0.1618 0.5600 0.1176
f 1352/17 1351/17 1350/17 1349/17
v 0.0618 0.5000 0.1902
v -0.0618 0.5000 0.1902
v -0.0618 0.5600 0.1902
v 0.0618 0.5600 0.1902
f 1356/17 1355/17 1354/17 1353/17
v 0.0618 0.5000 0.1902
v 0.1618 0.5000 0.1176
v 0.2000 0.5000 -0.0000
v 0.1618 0.5000 -0.1176
v 0.0618 0.5000 -0.1902
v -0.0618 0.5000 -0.1902
v -0.1618 0.5000 -0.1176
v -0.2000 0.5000 0.0000
v -0.1618 0.5000 0.1176
v -0.0618 0.5000 0.1902
f 1366/17 1365/17 1364/17 1363/17 1362/17 1361/17 1360/17 1359/17 1358/17 1357/17
v -0.0618 0.5600 0.1902
v -0.1618 0.5600 0.1176
v -0.2000 0.5600 0.0000
v -0.1618 0.5600 -0.1176
v -0.0618 0.5600 -0.1902
v 0.0618 0.5600 -0.1902
v 0.1618 0.5600 -0.1176
v 0.2000 0.5600 -0.0000
v 0.1618 0.5600 0.1176
v 0.0618 0.5600 0.1902
f 1376/17 1375/17 1374/17 1373/17 1372/17 1371/17 1370/17 1369/17 1368/17 1367/17
