# Walk of Industry low-poly (generated, wi_lib.py)
mtllib wi.mtl
vt 0 0
vt 0.03125 0.03125
vt 0.09375 0.03125
vt 0.15625 0.03125
vt 0.21875 0.03125
vt 0.28125 0.03125
vt 0.34375 0.03125
vt 0.40625 0.03125
vt 0.46875 0.03125
vt 0.53125 0.03125
vt 0.59375 0.03125
vt 0.65625 0.03125
vt 0.71875 0.03125
vt 0.78125 0.03125
vt 0.84375 0.03125
vt 0.90625 0.03125
vt 0.96875 0.03125
vt 0.03125 0.09375
vt 0.09375 0.09375
vt 0.15625 0.09375
vt 0.21875 0.09375
vt 0.28125 0.09375
vt 0.34375 0.09375
vt 0.40625 0.09375
vt 0.46875 0.09375
vt 0.53125 0.09375
vt 0.59375 0.09375
vt 0.65625 0.09375
vt 0.71875 0.09375
vt 0.78125 0.09375
vt 0.84375 0.09375
vt 0.90625 0.09375
vt 0.96875 0.09375
o Body
usemtl wi_palette
v 0.1383 0.7544 0.0800
v 0.1383 0.8856 0.0800
v 0.1383 0.8856 -0.0800
v 0.1383 0.7544 -0.0800
f 4/23 3/23 2/23 1/23
v -0.1383 0.7544 -0.0800
v -0.1383 0.8856 -0.0800
v -0.1383 0.8856 0.0800
v -0.1383 0.7544 0.0800
f 8/23 7/23 6/23 5/23
v 0.1383 0.7544 -0.0800
v -0.1383 0.7544 -0.0800
v -0.1383 0.7544 0.0800
v 0.1383 0.7544 0.0800
f 12/23 11/23 10/23 9/23
v 0.1383 0.8856 0.0800
v -0.1383 0.8856 0.0800
v -0.1383 0.8856 -0.0800
v 0.1383 0.8856 -0.0800
f 16/23 15/23 14/23 13/23
v 0.1383 0.8856 -0.0800
v -0.1383 0.8856 -0.0800
v -0.1383 0.7544 -0.0800
v 0.1383 0.7544 -0.0800
f 20/23 19/23 18/23 17/23
v 0.1383 0.7544 0.0800
v -0.1383 0.7544 0.0800
v -0.1383 0.8856 0.0800
v 0.1383 0.8856 0.0800
f 24/23 23/23 22/23 21/23
v -0.1016 0.7602 0.0800
v -0.1422 0.8850 0.0800
v -0.1422 0.8850 -0.0800
v -0.1016 0.7602 -0.0800
f 28/23 27/23 26/23 25/23
v -0.3646 0.6747 -0.0800
v -0.4052 0.7995 -0.0800
v -0.4052 0.7995 0.0800
v -0.3646 0.6747 0.0800
f 32/23 31/23 30/23 29/23
v -0.1016 0.7602 -0.0800
v -0.3646 0.6747 -0.0800
v -0.3646 0.6747 0.0800
v -0.1016 0.7602 0.0800
f 36/23 35/23 34/23 33/23
v -0.1422 0.8850 0.0800
v -0.4052 0.7995 0.0800
v -0.4052 0.7995 -0.0800
v -0.1422 0.8850 -0.0800
f 40/23 39/23 38/23 37/23
v -0.1422 0.8850 -0.0800
v -0.4052 0.7995 -0.0800
v -0.3646 0.6747 -0.0800
v -0.1016 0.7602 -0.0800
f 44/23 43/23 42/23 41/23
v -0.1016 0.7602 0.0800
v -0.3646 0.6747 0.0800
v -0.4052 0.7995 0.0800
v -0.1422 0.8850 0.0800
f 48/23 47/23 46/23 45/23
v -0.3316 0.6916 0.0800
v -0.4087 0.7977 0.0800
v -0.4087 0.7977 -0.0800
v -0.3316 0.6916 -0.0800
f 52/23 51/23 50/23 49/23
v -0.5553 0.5290 -0.0800
v -0.6324 0.6352 -0.0800
v -0.6324 0.6352 0.0800
v -0.5553 0.5290 0.0800
f 56/23 55/23 54/23 53/23
v -0.3316 0.6916 -0.0800
v -0.5553 0.5290 -0.0800
v -0.5553 0.5290 0.0800
v -0.3316 0.6916 0.0800
f 60/23 59/23 58/23 57/23
v -0.4087 0.7977 0.0800
v -0.6324 0.6352 0.0800
v -0.6324 0.6352 -0.0800
v -0.4087 0.7977 -0.0800
f 64/23 63/23 62/23 61/23
v -0.4087 0.7977 -0.0800
v -0.6324 0.6352 -0.0800
v -0.5553 0.5290 -0.0800
v -0.3316 0.6916 -0.0800
f 68/23 67/23 66/23 65/23
v -0.3316 0.6916 0.0800
v -0.5553 0.5290 0.0800
v -0.6324 0.6352 0.0800
v -0.4087 0.7977 0.0800
f 72/23 71/23 70/23 69/23
v -0.5290 0.5553 0.0800
v -0.6352 0.6324 0.0800
v -0.6352 0.6324 -0.0800
v -0.5290 0.5553 -0.0800
f 76/23 75/23 74/23 73/23
v -0.6916 0.3316 -0.0800
v -0.7977 0.4087 -0.0800
v -0.7977 0.4087 0.0800
v -0.6916 0.3316 0.0800
f 80/23 79/23 78/23 77/23
v -0.5290 0.5553 -0.0800
v -0.6916 0.3316 -0.0800
v -0.6916 0.3316 0.0800
v -0.5290 0.5553 0.0800
f 84/23 83/23 82/23 81/23
v -0.6352 0.6324 0.0800
v -0.7977 0.4087 0.0800
v -0.7977 0.4087 -0.0800
v -0.6352 0.6324 -0.0800
f 88/23 87/23 86/23 85/23
v -0.6352 0.6324 -0.0800
v -0.7977 0.4087 -0.0800
v -0.6916 0.3316 -0.0800
v -0.5290 0.5553 -0.0800
f 92/23 91/23 90/23 89/23
v -0.5290 0.5553 0.0800
v -0.6916 0.3316 0.0800
v -0.7977 0.4087 0.0800
v -0.6352 0.6324 0.0800
f 96/23 95/23 94/23 93/23
v -0.6747 0.3646 0.0800
v -0.7995 0.4052 0.0800
v -0.7995 0.4052 -0.0800
v -0.6747 0.3646 -0.0800
f 100/23 99/23 98/23 97/23
v -0.7602 0.1016 -0.0800
v -0.8850 0.1422 -0.0800
v -0.8850 0.1422 0.0800
v -0.7602 0.1016 0.0800
f 104/23 103/23 102/23 101/23
v -0.6747 0.3646 -0.0800
v -0.7602 0.1016 -0.0800
v -0.7602 0.1016 0.0800
v -0.6747 0.3646 0.0800
f 108/23 107/23 106/23 105/23
v -0.7995 0.4052 0.0800
v -0.8850 0.1422 0.0800
v -0.8850 0.1422 -0.0800
v -0.7995 0.4052 -0.0800
f 112/23 111/23 110/23 109/23
v -0.7995 0.4052 -0.0800
v -0.8850 0.1422 -0.0800
v -0.7602 0.1016 -0.0800
v -0.6747 0.3646 -0.0800
f 116/23 115/23 114/23 113/23
v -0.6747 0.3646 0.0800
v -0.7602 0.1016 0.0800
v -0.8850 0.1422 0.0800
v -0.7995 0.4052 0.0800
f 120/23 119/23 118/23 117/23
v -0.7544 0.1383 0.0800
v -0.8856 0.1383 0.0800
v -0.8856 0.1383 -0.0800
v -0.7544 0.1383 -0.0800
f 124/23 123/23 122/23 121/23
v -0.7544 -0.1383 -0.0800
v -0.8856 -0.1383 -0.0800
v -0.8856 -0.1383 0.0800
v -0.7544 -0.1383 0.0800
f 128/23 127/23 126/23 125/23
v -0.7544 0.1383 -0.0800
v -0.7544 -0.1383 -0.0800
v -0.7544 -0.1383 0.0800
v -0.7544 0.1383 0.0800
f 132/23 131/23 130/23 129/23
v -0.8856 0.1383 0.0800
v -0.8856 -0.1383 0.0800
v -0.8856 -0.1383 -0.0800
v -0.8856 0.1383 -0.0800
f 136/23 135/23 134/23 133/23
v -0.8856 0.1383 -0.0800
v -0.8856 -0.1383 -0.0800
v -0.7544 -0.1383 -0.0800
v -0.7544 0.1383 -0.0800
f 140/23 139/23 138/23 137/23
v -0.7544 0.1383 0.0800
v -0.7544 -0.1383 0.0800
v -0.8856 -0.1383 0.0800
v -0.8856 0.1383 0.0800
f 144/23 143/23 142/23 141/23
v -0.7602 -0.1016 0.0800
v -0.8850 -0.1422 0.0800
v -0.8850 -0.1422 -0.0800
v -0.7602 -0.1016 -0.0800
f 148/23 147/23 146/23 145/23
v -0.6747 -0.3646 -0.0800
v -0.7995 -0.4052 -0.0800
v -0.7995 -0.4052 0.0800
v -0.6747 -0.3646 0.0800
f 152/23 151/23 150/23 149/23
v -0.7602 -0.1016 -0.0800
v -0.6747 -0.3646 -0.0800
v -0.6747 -0.3646 0.0800
v -0.7602 -0.1016 0.0800
f 156/23 155/23 154/23 153/23
v -0.8850 -0.1422 0.0800
v -0.7995 -0.4052 0.0800
v -0.7995 -0.4052 -0.0800
v -0.8850 -0.1422 -0.0800
f 160/23 159/23 158/23 157/23
v -0.8850 -0.1422 -0.0800
v -0.7995 -0.4052 -0.0800
v -0.6747 -0.3646 -0.0800
v -0.7602 -0.1016 -0.0800
f 164/23 163/23 162/23 161/23
v -0.7602 -0.1016 0.0800
v -0.6747 -0.3646 0.0800
v -0.7995 -0.4052 0.0800
v -0.8850 -0.1422 0.0800
f 168/23 167/23 166/23 165/23
v -0.6916 -0.3316 0.0800
v -0.7977 -0.4087 0.0800
v -0.7977 -0.4087 -0.0800
v -0.6916 -0.3316 -0.0800
f 172/23 171/23 170/23 169/23
v -0.5290 -0.5553 -0.0800
v -0.6352 -0.6324 -0.0800
v -0.6352 -0.6324 0.0800
v -0.5290 -0.5553 0.0800
f 176/23 175/23 174/23 173/23
v -0.6916 -0.3316 -0.0800
v -0.5290 -0.5553 -0.0800
v -0.5290 -0.5553 0.0800
v -0.6916 -0.3316 0.0800
f 180/23 179/23 178/23 177/23
v -0.7977 -0.4087 0.0800
v -0.6352 -0.6324 0.0800
v -0.6352 -0.6324 -0.0800
v -0.7977 -0.4087 -0.0800
f 184/23 183/23 182/23 181/23
v -0.7977 -0.4087 -0.0800
v -0.6352 -0.6324 -0.0800
v -0.5290 -0.5553 -0.0800
v -0.6916 -0.3316 -0.0800
f 188/23 187/23 186/23 185/23
v -0.6916 -0.3316 0.0800
v -0.5290 -0.5553 0.0800
v -0.6352 -0.6324 0.0800
v -0.7977 -0.4087 0.0800
f 192/23 191/23 190/23 189/23
v -0.5553 -0.5290 0.0800
v -0.6324 -0.6352 0.0800
v -0.6324 -0.6352 -0.0800
v -0.5553 -0.5290 -0.0800
f 196/23 195/23 194/23 193/23
v -0.3316 -0.6916 -0.0800
v -0.4087 -0.7977 -0.0800
v -0.4087 -0.7977 0.0800
v -0.3316 -0.6916 0.0800
f 200/23 199/23 198/23 197/23
v -0.5553 -0.5290 -0.0800
v -0.3316 -0.6916 -0.0800
v -0.3316 -0.6916 0.0800
v -0.5553 -0.5290 0.0800
f 204/23 203/23 202/23 201/23
v -0.6324 -0.6352 0.0800
v -0.4087 -0.7977 0.0800
v -0.4087 -0.7977 -0.0800
v -0.6324 -0.6352 -0.0800
f 208/23 207/23 206/23 205/23
v -0.6324 -0.6352 -0.0800
v -0.4087 -0.7977 -0.0800
v -0.3316 -0.6916 -0.0800
v -0.5553 -0.5290 -0.0800
f 212/23 211/23 210/23 209/23
v -0.5553 -0.5290 0.0800
v -0.3316 -0.6916 0.0800
v -0.4087 -0.7977 0.0800
v -0.6324 -0.6352 0.0800
f 216/23 215/23 214/23 213/23
v -0.3646 -0.6747 0.0800
v -0.4052 -0.7995 0.0800
v -0.4052 -0.7995 -0.0800
v -0.3646 -0.6747 -0.0800
f 220/23 219/23 218/23 217/23
v -0.1016 -0.7602 -0.0800
v -0.1422 -0.8850 -0.0800
v -0.1422 -0.8850 0.0800
v -0.1016 -0.7602 0.0800
f 224/23 223/23 222/23 221/23
v -0.3646 -0.6747 -0.0800
v -0.1016 -0.7602 -0.0800
v -0.1016 -0.7602 0.0800
v -0.3646 -0.6747 0.0800
f 228/23 227/23 226/23 225/23
v -0.4052 -0.7995 0.0800
v -0.1422 -0.8850 0.0800
v -0.1422 -0.8850 -0.0800
v -0.4052 -0.7995 -0.0800
f 232/23 231/23 230/23 229/23
v -0.4052 -0.7995 -0.0800
v -0.1422 -0.8850 -0.0800
v -0.1016 -0.7602 -0.0800
v -0.3646 -0.6747 -0.0800
f 236/23 235/23 234/23 233/23
v -0.3646 -0.6747 0.0800
v -0.1016 -0.7602 0.0800
v -0.1422 -0.8850 0.0800
v -0.4052 -0.7995 0.0800
f 240/23 239/23 238/23 237/23
v -0.1383 -0.7544 0.0800
v -0.1383 -0.8856 0.0800
v -0.1383 -0.8856 -0.0800
v -0.1383 -0.7544 -0.0800
f 244/23 243/23 242/23 241/23
v 0.1383 -0.7544 -0.0800
v 0.1383 -0.8856 -0.0800
v 0.1383 -0.8856 0.0800
v 0.1383 -0.7544 0.0800
f 248/23 247/23 246/23 245/23
v -0.1383 -0.7544 -0.0800
v 0.1383 -0.7544 -0.0800
v 0.1383 -0.7544 0.0800
v -0.1383 -0.7544 0.0800
f 252/23 251/23 250/23 249/23
v -0.1383 -0.8856 0.0800
v 0.1383 -0.8856 0.0800
v 0.1383 -0.8856 -0.0800
v -0.1383 -0.8856 -0.0800
f 256/23 255/23 254/23 253/23
v -0.1383 -0.8856 -0.0800
v 0.1383 -0.8856 -0.0800
v 0.1383 -0.7544 -0.0800
v -0.1383 -0.7544 -0.0800
f 260/23 259/23 258/23 257/23
v -0.1383 -0.7544 0.0800
v 0.1383 -0.7544 0.0800
v 0.1383 -0.8856 0.0800
v -0.1383 -0.8856 0.0800
f 264/23 263/23 262/23 261/23
v 0.1016 -0.7602 0.0800
v 0.1422 -0.8850 0.0800
v 0.1422 -0.8850 -0.0800
v 0.1016 -0.7602 -0.0800
f 268/23 267/23 266/23 265/23
v 0.3646 -0.6747 -0.0800
v 0.4052 -0.7995 -0.0800
v 0.4052 -0.7995 0.0800
v 0.3646 -0.6747 0.0800
f 272/23 271/23 270/23 269/23
v 0.1016 -0.7602 -0.0800
v 0.3646 -0.6747 -0.0800
v 0.3646 -0.6747 0.0800
v 0.1016 -0.7602 0.0800
f 276/23 275/23 274/23 273/23
v 0.1422 -0.8850 0.0800
v 0.4052 -0.7995 0.0800
v 0.4052 -0.7995 -0.0800
v 0.1422 -0.8850 -0.0800
f 280/23 279/23 278/23 277/23
v 0.1422 -0.8850 -0.0800
v 0.4052 -0.7995 -0.0800
v 0.3646 -0.6747 -0.0800
v 0.1016 -0.7602 -0.0800
f 284/23 283/23 282/23 281/23
v 0.1016 -0.7602 0.0800
v 0.3646 -0.6747 0.0800
v 0.4052 -0.7995 0.0800
v 0.1422 -0.8850 0.0800
f 288/23 287/23 286/23 285/23
v 0.3316 -0.6916 0.0800
v 0.4087 -0.7977 0.0800
v 0.4087 -0.7977 -0.0800
v 0.3316 -0.6916 -0.0800
f 292/23 291/23 290/23 289/23
v 0.5553 -0.5290 -0.0800
v 0.6324 -0.6352 -0.0800
v 0.6324 -0.6352 0.0800
v 0.5553 -0.5290 0.0800
f 296/23 295/23 294/23 293/23
v 0.3316 -0.6916 -0.0800
v 0.5553 -0.5290 -0.0800
v 0.5553 -0.5290 0.0800
v 0.3316 -0.6916 0.0800
f 300/23 299/23 298/23 297/23
v 0.4087 -0.7977 0.0800
v 0.6324 -0.6352 0.0800
v 0.6324 -0.6352 -0.0800
v 0.4087 -0.7977 -0.0800
f 304/23 303/23 302/23 301/23
v 0.4087 -0.7977 -0.0800
v 0.6324 -0.6352 -0.0800
v 0.5553 -0.5290 -0.0800
v 0.3316 -0.6916 -0.0800
f 308/23 307/23 306/23 305/23
v 0.3316 -0.6916 0.0800
v 0.5553 -0.5290 0.0800
v 0.6324 -0.6352 0.0800
v 0.4087 -0.7977 0.0800
f 312/23 311/23 310/23 309/23
v 0.5290 -0.5553 0.0800
v 0.6352 -0.6324 0.0800
v 0.6352 -0.6324 -0.0800
v 0.5290 -0.5553 -0.0800
f 316/23 315/23 314/23 313/23
v 0.6916 -0.3316 -0.0800
v 0.7977 -0.4087 -0.0800
v 0.7977 -0.4087 0.0800
v 0.6916 -0.3316 0.0800
f 320/23 319/23 318/23 317/23
v 0.5290 -0.5553 -0.0800
v 0.6916 -0.3316 -0.0800
v 0.6916 -0.3316 0.0800
v 0.5290 -0.5553 0.0800
f 324/23 323/23 322/23 321/23
v 0.6352 -0.6324 0.0800
v 0.7977 -0.4087 0.0800
v 0.7977 -0.4087 -0.0800
v 0.6352 -0.6324 -0.0800
f 328/23 327/23 326/23 325/23
v 0.6352 -0.6324 -0.0800
v 0.7977 -0.4087 -0.0800
v 0.6916 -0.3316 -0.0800
v 0.5290 -0.5553 -0.0800
f 332/23 331/23 330/23 329/23
v 0.5290 -0.5553 0.0800
v 0.6916 -0.3316 0.0800
v 0.7977 -0.4087 0.0800
v 0.6352 -0.6324 0.0800
f 336/23 335/23 334/23 333/23
v 0.6747 -0.3646 0.0800
v 0.7995 -0.4052 0.0800
v 0.7995 -0.4052 -0.0800
v 0.6747 -0.3646 -0.0800
f 340/23 339/23 338/23 337/23
v 0.7602 -0.1016 -0.0800
v 0.8850 -0.1422 -0.0800
v 0.8850 -0.1422 0.0800
v 0.7602 -0.1016 0.0800
f 344/23 343/23 342/23 341/23
v 0.6747 -0.3646 -0.0800
v 0.7602 -0.1016 -0.0800
v 0.7602 -0.1016 0.0800
v 0.6747 -0.3646 0.0800
f 348/23 347/23 346/23 345/23
v 0.7995 -0.4052 0.0800
v 0.8850 -0.1422 0.0800
v 0.8850 -0.1422 -0.0800
v 0.7995 -0.4052 -0.0800
f 352/23 351/23 350/23 349/23
v 0.7995 -0.4052 -0.0800
v 0.8850 -0.1422 -0.0800
v 0.7602 -0.1016 -0.0800
v 0.6747 -0.3646 -0.0800
f 356/23 355/23 354/23 353/23
v 0.6747 -0.3646 0.0800
v 0.7602 -0.1016 0.0800
v 0.8850 -0.1422 0.0800
v 0.7995 -0.4052 0.0800
f 360/23 359/23 358/23 357/23
v 0.7544 -0.1383 0.0800
v 0.8856 -0.1383 0.0800
v 0.8856 -0.1383 -0.0800
v 0.7544 -0.1383 -0.0800
f 364/23 363/23 362/23 361/23
v 0.7544 0.1383 -0.0800
v 0.8856 0.1383 -0.0800
v 0.8856 0.1383 0.0800
v 0.7544 0.1383 0.0800
f 368/23 367/23 366/23 365/23
v 0.7544 -0.1383 -0.0800
v 0.7544 0.1383 -0.0800
v 0.7544 0.1383 0.0800
v 0.7544 -0.1383 0.0800
f 372/23 371/23 370/23 369/23
v 0.8856 -0.1383 0.0800
v 0.8856 0.1383 0.0800
v 0.8856 0.1383 -0.0800
v 0.8856 -0.1383 -0.0800
f 376/23 375/23 374/23 373/23
v 0.8856 -0.1383 -0.0800
v 0.8856 0.1383 -0.0800
v 0.7544 0.1383 -0.0800
v 0.7544 -0.1383 -0.0800
f 380/23 379/23 378/23 377/23
v 0.7544 -0.1383 0.0800
v 0.7544 0.1383 0.0800
v 0.8856 0.1383 0.0800
v 0.8856 -0.1383 0.0800
f 384/23 383/23 382/23 381/23
v 0.7602 0.1016 0.0800
v 0.8850 0.1422 0.0800
v 0.8850 0.1422 -0.0800
v 0.7602 0.1016 -0.0800
f 388/23 387/23 386/23 385/23
v 0.6747 0.3646 -0.0800
v 0.7995 0.4052 -0.0800
v 0.7995 0.4052 0.0800
v 0.6747 0.3646 0.0800
f 392/23 391/23 390/23 389/23
v 0.7602 0.1016 -0.0800
v 0.6747 0.3646 -0.0800
v 0.6747 0.3646 0.0800
v 0.7602 0.1016 0.0800
f 396/23 395/23 394/23 393/23
v 0.8850 0.1422 0.0800
v 0.7995 0.4052 0.0800
v 0.7995 0.4052 -0.0800
v 0.8850 0.1422 -0.0800
f 400/23 399/23 398/23 397/23
v 0.8850 0.1422 -0.0800
v 0.7995 0.4052 -0.0800
v 0.6747 0.3646 -0.0800
v 0.7602 0.1016 -0.0800
f 404/23 403/23 402/23 401/23
v 0.7602 0.1016 0.0800
v 0.6747 0.3646 0.0800
v 0.7995 0.4052 0.0800
v 0.8850 0.1422 0.0800
f 408/23 407/23 406/23 405/23
v 0.6916 0.3316 0.0800
v 0.7977 0.4087 0.0800
v 0.7977 0.4087 -0.0800
v 0.6916 0.3316 -0.0800
f 412/23 411/23 410/23 409/23
v 0.5290 0.5553 -0.0800
v 0.6352 0.6324 -0.0800
v 0.6352 0.6324 0.0800
v 0.5290 0.5553 0.0800
f 416/23 415/23 414/23 413/23
v 0.6916 0.3316 -0.0800
v 0.5290 0.5553 -0.0800
v 0.5290 0.5553 0.0800
v 0.6916 0.3316 0.0800
f 420/23 419/23 418/23 417/23
v 0.7977 0.4087 0.0800
v 0.6352 0.6324 0.0800
v 0.6352 0.6324 -0.0800
v 0.7977 0.4087 -0.0800
f 424/23 423/23 422/23 421/23
v 0.7977 0.4087 -0.0800
v 0.6352 0.6324 -0.0800
v 0.5290 0.5553 -0.0800
v 0.6916 0.3316 -0.0800
f 428/23 427/23 426/23 425/23
v 0.6916 0.3316 0.0800
v 0.5290 0.5553 0.0800
v 0.6352 0.6324 0.0800
v 0.7977 0.4087 0.0800
f 432/23 431/23 430/23 429/23
v 0.5553 0.5290 0.0800
v 0.6324 0.6352 0.0800
v 0.6324 0.6352 -0.0800
v 0.5553 0.5290 -0.0800
f 436/23 435/23 434/23 433/23
v 0.3316 0.6916 -0.0800
v 0.4087 0.7977 -0.0800
v 0.4087 0.7977 0.0800
v 0.3316 0.6916 0.0800
f 440/23 439/23 438/23 437/23
v 0.5553 0.5290 -0.0800
v 0.3316 0.6916 -0.0800
v 0.3316 0.6916 0.0800
v 0.5553 0.5290 0.0800
f 444/23 443/23 442/23 441/23
v 0.6324 0.6352 0.0800
v 0.4087 0.7977 0.0800
v 0.4087 0.7977 -0.0800
v 0.6324 0.6352 -0.0800
f 448/23 447/23 446/23 445/23
v 0.6324 0.6352 -0.0800
v 0.4087 0.7977 -0.0800
v 0.3316 0.6916 -0.0800
v 0.5553 0.5290 -0.0800
f 452/23 451/23 450/23 449/23
v 0.5553 0.5290 0.0800
v 0.3316 0.6916 0.0800
v 0.4087 0.7977 0.0800
v 0.6324 0.6352 0.0800
f 456/23 455/23 454/23 453/23
v 0.3646 0.6747 0.0800
v 0.4052 0.7995 0.0800
v 0.4052 0.7995 -0.0800
v 0.3646 0.6747 -0.0800
f 460/23 459/23 458/23 457/23
v 0.1016 0.7602 -0.0800
v 0.1422 0.8850 -0.0800
v 0.1422 0.8850 0.0800
v 0.1016 0.7602 0.0800
f 464/23 463/23 462/23 461/23
v 0.3646 0.6747 -0.0800
v 0.1016 0.7602 -0.0800
v 0.1016 0.7602 0.0800
v 0.3646 0.6747 0.0800
f 468/23 467/23 466/23 465/23
v 0.4052 0.7995 0.0800
v 0.1422 0.8850 0.0800
v 0.1422 0.8850 -0.0800
v 0.4052 0.7995 -0.0800
f 472/23 471/23 470/23 469/23
v 0.4052 0.7995 -0.0800
v 0.1422 0.8850 -0.0800
v 0.1016 0.7602 -0.0800
v 0.3646 0.6747 -0.0800
f 476/23 475/23 474/23 473/23
v 0.3646 0.6747 0.0800
v 0.1016 0.7602 0.0800
v 0.1422 0.8850 0.0800
v 0.4052 0.7995 0.0800
f 480/23 479/23 478/23 477/23
v 0.0656 0.8118 0.0720
v 0.0656 0.9922 0.0720
v 0.0656 0.9922 -0.0720
v 0.0656 0.8118 -0.0720
f 484/23 483/23 482/23 481/23
v -0.0656 0.8118 -0.0720
v -0.0656 0.9922 -0.0720
v -0.0656 0.9922 0.0720
v -0.0656 0.8118 0.0720
f 488/23 487/23 486/23 485/23
v 0.0656 0.8118 -0.0720
v -0.0656 0.8118 -0.0720
v -0.0656 0.8118 0.0720
v 0.0656 0.8118 0.0720
f 492/23 491/23 490/23 489/23
v 0.0656 0.9922 0.0720
v -0.0656 0.9922 0.0720
v -0.0656 0.9922 -0.0720
v 0.0656 0.9922 -0.0720
f 496/23 495/23 494/23 493/23
v 0.0656 0.9922 -0.0720
v -0.0656 0.9922 -0.0720
v -0.0656 0.8118 -0.0720
v 0.0656 0.8118 -0.0720
f 500/23 499/23 498/23 497/23
v 0.0656 0.8118 0.0720
v -0.0656 0.8118 0.0720
v -0.0656 0.9922 0.0720
v 0.0656 0.9922 0.0720
f 504/23 503/23 502/23 501/23
v -0.4241 0.6953 0.0720
v -0.5301 0.8413 0.0720
v -0.5301 0.8413 -0.0720
v -0.4241 0.6953 -0.0720
f 508/23 507/23 506/23 505/23
v -0.5302 0.6182 -0.0720
v -0.6363 0.7641 -0.0720
v -0.6363 0.7641 0.0720
v -0.5302 0.6182 0.0720
f 512/23 511/23 510/23 509/23
v -0.4241 0.6953 -0.0720
v -0.5302 0.6182 -0.0720
v -0.5302 0.6182 0.0720
v -0.4241 0.6953 0.0720
f 516/23 515/23 514/23 513/23
v -0.5301 0.8413 0.0720
v -0.6363 0.7641 0.0720
v -0.6363 0.7641 -0.0720
v -0.5301 0.8413 -0.0720
f 520/23 519/23 518/23 517/23
v -0.5301 0.8413 -0.0720
v -0.6363 0.7641 -0.0720
v -0.5302 0.6182 -0.0720
v -0.4241 0.6953 -0.0720
f 524/23 523/23 522/23 521/23
v -0.4241 0.6953 0.0720
v -0.5302 0.6182 0.0720
v -0.6363 0.7641 0.0720
v -0.5301 0.8413 0.0720
f 528/23 527/23 526/23 525/23
v -0.7518 0.3132 0.0720
v -0.9234 0.3690 0.0720
v -0.9234 0.3690 -0.0720
v -0.7518 0.3132 -0.0720
f 532/23 531/23 530/23 529/23
v -0.7923 0.1885 -0.0720
v -0.9639 0.2442 -0.0720
v -0.9639 0.2442 0.0720
v -0.7923 0.1885 0.0720
f 536/23 535/23 534/23 533/23
v -0.7518 0.3132 -0.0720
v -0.7923 0.1885 -0.0720
v -0.7923 0.1885 0.0720
v -0.7518 0.3132 0.0720
f 540/23 539/23 538/23 537/23
v -0.9234 0.3690 0.0720
v -0.9639 0.2442 0.0720
v -0.9639 0.2442 -0.0720
v -0.9234 0.3690 -0.0720
f 544/23 543/23 542/23 541/23
v -0.9234 0.3690 -0.0720
v -0.9639 0.2442 -0.0720
v -0.7923 0.1885 -0.0720
v -0.7518 0.3132 -0.0720
f 548/23 547/23 546/23 545/23
v -0.7518 0.3132 0.0720
v -0.7923 0.1885 0.0720
v -0.9639 0.2442 0.0720
v -0.9234 0.3690 0.0720
f 552/23 551/23 550/23 549/23
v -0.7923 -0.1885 0.0720
v -0.9639 -0.2442 0.0720
v -0.9639 -0.2442 -0.0720
v -0.7923 -0.1885 -0.0720
f 556/23 555/23 554/23 553/23
v -0.7518 -0.3132 -0.0720
v -0.9234 -0.3690 -0.0720
v -0.9234 -0.3690 0.0720
v -0.7518 -0.3132 0.0720
f 560/23 559/23 558/23 557/23
v -0.7923 -0.1885 -0.0720
v -0.7518 -0.3132 -0.0720
v -0.7518 -0.3132 0.0720
v -0.7923 -0.1885 0.0720
f 564/23 563/23 562/23 561/23
v -0.9639 -0.2442 0.0720
v -0.9234 -0.3690 0.0720
v -0.9234 -0.3690 -0.0720
v -0.9639 -0.2442 -0.0720
f 568/23 567/23 566/23 565/23
v -0.9639 -0.2442 -0.0720
v -0.9234 -0.3690 -0.0720
v -0.7518 -0.3132 -0.0720
v -0.7923 -0.1885 -0.0720
f 572/23 571/23 570/23 569/23
v -0.7923 -0.1885 0.0720
v -0.7518 -0.3132 0.0720
v -0.9234 -0.3690 0.0720
v -0.9639 -0.2442 0.0720
f 576/23 575/23 574/23 573/23
v -0.5302 -0.6182 0.0720
v -0.6363 -0.7641 0.0720
v -0.6363 -0.7641 -0.0720
v -0.5302 -0.6182 -0.0720
f 580/23 579/23 578/23 577/23
v -0.4241 -0.6953 -0.0720
v -0.5301 -0.8413 -0.0720
v -0.5301 -0.8413 0.0720
v -0.4241 -0.6953 0.0720
f 584/23 583/23 582/23 581/23
v -0.5302 -0.6182 -0.0720
v -0.4241 -0.6953 -0.0720
v -0.4241 -0.6953 0.0720
v -0.5302 -0.6182 0.0720
f 588/23 587/23 586/23 585/23
v -0.6363 -0.7641 0.0720
v -0.5301 -0.8413 0.0720
v -0.5301 -0.8413 -0.0720
v -0.6363 -0.7641 -0.0720
f 592/23 591/23 590/23 589/23
v -0.6363 -0.7641 -0.0720
v -0.5301 -0.8413 -0.0720
v -0.4241 -0.6953 -0.0720
v -0.5302 -0.6182 -0.0720
f 596/23 595/23 594/23 593/23
v -0.5302 -0.6182 0.0720
v -0.4241 -0.6953 0.0720
v -0.5301 -0.8413 0.0720
v -0.6363 -0.7641 0.0720
f 600/23 599/23 598/23 597/23
v -0.0656 -0.8118 0.0720
v -0.0656 -0.9922 0.0720
v -0.0656 -0.9922 -0.0720
v -0.0656 -0.8118 -0.0720
f 604/23 603/23 602/23 601/23
v 0.0656 -0.8118 -0.0720
v 0.0656 -0.9922 -0.0720
v 0.0656 -0.9922 0.0720
v 0.0656 -0.8118 0.0720
f 608/23 607/23 606/23 605/23
v -0.0656 -0.8118 -0.0720
v 0.0656 -0.8118 -0.0720
v 0.0656 -0.8118 0.0720
v -0.0656 -0.8118 0.0720
f 612/23 611/23 610/23 609/23
v -0.0656 -0.9922 0.0720
v 0.0656 -0.9922 0.0720
v 0.0656 -0.9922 -0.0720
v -0.0656 -0.9922 -0.0720
f 616/23 615/23 614/23 613/23
v -0.0656 -0.9922 -0.0720
v 0.0656 -0.9922 -0.0720
v 0.0656 -0.8118 -0.0720
v -0.0656 -0.8118 -0.0720
f 620/23 619/23 618/23 617/23
v -0.0656 -0.8118 0.0720
v 0.0656 -0.8118 0.0720
v 0.0656 -0.9922 0.0720
v -0.0656 -0.9922 0.0720
f 624/23 623/23 622/23 621/23
v 0.4241 -0.6953 0.0720
v 0.5301 -0.8413 0.0720
v 0.5301 -0.8413 -0.0720
v 0.4241 -0.6953 -0.0720
f 628/23 627/23 626/23 625/23
v 0.5302 -0.6182 -0.0720
v 0.6363 -0.7641 -0.0720
v 0.6363 -0.7641 0.0720
v 0.5302 -0.6182 0.0720
f 632/23 631/23 630/23 629/23
v 0.4241 -0.6953 -0.0720
v 0.5302 -0.6182 -0.0720
v 0.5302 -0.6182 0.0720
v 0.4241 -0.6953 0.0720
f 636/23 635/23 634/23 633/23
v 0.5301 -0.8413 0.0720
v 0.6363 -0.7641 0.0720
v 0.6363 -0.7641 -0.0720
v 0.5301 -0.8413 -0.0720
f 640/23 639/23 638/23 637/23
v 0.5301 -0.8413 -0.0720
v 0.6363 -0.7641 -0.0720
v 0.5302 -0.6182 -0.0720
v 0.4241 -0.6953 -0.0720
f 644/23 643/23 642/23 641/23
v 0.4241 -0.6953 0.0720
v 0.5302 -0.6182 0.0720
v 0.6363 -0.7641 0.0720
v 0.5301 -0.8413 0.0720
f 648/23 647/23 646/23 645/23
v 0.7518 -0.3132 0.0720
v 0.9234 -0.3690 0.0720
v 0.9234 -0.3690 -0.0720
v 0.7518 -0.3132 -0.0720
f 652/23 651/23 650/23 649/23
v 0.7923 -0.1885 -0.0720
v 0.9639 -0.2442 -0.0720
v 0.9639 -0.2442 0.0720
v 0.7923 -0.1885 0.0720
f 656/23 655/23 654/23 653/23
v 0.7518 -0.3132 -0.0720
v 0.7923 -0.1885 -0.0720
v 0.7923 -0.1885 0.0720
v 0.7518 -0.3132 0.0720
f 660/23 659/23 658/23 657/23
v 0.9234 -0.3690 0.0720
v 0.9639 -0.2442 0.0720
v 0.9639 -0.2442 -0.0720
v 0.9234 -0.3690 -0.0720
f 664/23 663/23 662/23 661/23
v 0.9234 -0.3690 -0.0720
v 0.9639 -0.2442 -0.0720
v 0.7923 -0.1885 -0.0720
v 0.7518 -0.3132 -0.0720
f 668/23 667/23 666/23 665/23
v 0.7518 -0.3132 0.0720
v 0.7923 -0.1885 0.0720
v 0.9639 -0.2442 0.0720
v 0.9234 -0.3690 0.0720
f 672/23 671/23 670/23 669/23
v 0.7923 0.1885 0.0720
v 0.9639 0.2442 0.0720
v 0.9639 0.2442 -0.0720
v 0.7923 0.1885 -0.0720
f 676/23 675/23 674/23 673/23
v 0.7518 0.3132 -0.0720
v 0.9234 0.3690 -0.0720
v 0.9234 0.3690 0.0720
v 0.7518 0.3132 0.0720
f 680/23 679/23 678/23 677/23
v 0.7923 0.1885 -0.0720
v 0.7518 0.3132 -0.0720
v 0.7518 0.3132 0.0720
v 0.7923 0.1885 0.0720
f 684/23 683/23 682/23 681/23
v 0.9639 0.2442 0.0720
v 0.9234 0.3690 0.0720
v 0.9234 0.3690 -0.0720
v 0.9639 0.2442 -0.0720
f 688/23 687/23 686/23 685/23
v 0.9639 0.2442 -0.0720
v 0.9234 0.3690 -0.0720
v 0.7518 0.3132 -0.0720
v 0.7923 0.1885 -0.0720
f 692/23 691/23 690/23 689/23
v 0.7923 0.1885 0.0720
v 0.7518 0.3132 0.0720
v 0.9234 0.3690 0.0720
v 0.9639 0.2442 0.0720
f 696/23 695/23 694/23 693/23
v 0.5302 0.6182 0.0720
v 0.6363 0.7641 0.0720
v 0.6363 0.7641 -0.0720
v 0.5302 0.6182 -0.0720
f 700/23 699/23 698/23 697/23
v 0.4241 0.6953 -0.0720
v 0.5301 0.8413 -0.0720
v 0.5301 0.8413 0.0720
v 0.4241 0.6953 0.0720
f 704/23 703/23 702/23 701/23
v 0.5302 0.6182 -0.0720
v 0.4241 0.6953 -0.0720
v 0.4241 0.6953 0.0720
v 0.5302 0.6182 0.0720
f 708/23 707/23 706/23 705/23
v 0.6363 0.7641 0.0720
v 0.5301 0.8413 0.0720
v 0.5301 0.8413 -0.0720
v 0.6363 0.7641 -0.0720
f 712/23 711/23 710/23 709/23
v 0.6363 0.7641 -0.0720
v 0.5301 0.8413 -0.0720
v 0.4241 0.6953 -0.0720
v 0.5302 0.6182 -0.0720
f 716/23 715/23 714/23 713/23
v 0.5302 0.6182 0.0720
v 0.4241 0.6953 0.0720
v 0.5301 0.8413 0.0720
v 0.6363 0.7641 0.0720
f 720/23 719/23 718/23 717/23
v 0.0560 0.7790 -0.0410
v -0.0560 0.7790 -0.0410
v -0.0560 0.0000 -0.0410
v 0.0560 0.0000 -0.0410
f 724/23 723/23 722/23 721/23
v 0.0560 0.0000 0.0410
v -0.0560 0.0000 0.0410
v -0.0560 0.7790 0.0410
v 0.0560 0.7790 0.0410
f 728/23 727/23 726/23 725/23
v 0.0560 0.0000 -0.0410
v 0.0560 0.0000 0.0410
v 0.0560 0.7790 0.0410
v 0.0560 0.7790 -0.0410
f 732/23 731/23 730/23 729/23
v -0.0560 0.7790 -0.0410
v -0.0560 0.7790 0.0410
v -0.0560 0.0000 0.0410
v -0.0560 0.0000 -0.0410
f 736/23 735/23 734/23 733/23
v -0.0560 0.0000 -0.0410
v -0.0560 0.0000 0.0410
v 0.0560 0.0000 0.0410
v 0.0560 0.0000 -0.0410
f 740/23 739/23 738/23 737/23
v 0.0560 0.7790 -0.0410
v 0.0560 0.7790 0.0410
v -0.0560 0.7790 0.0410
v -0.0560 0.7790 -0.0410
f 744/23 743/23 742/23 741/23
v -0.7582 0.1875 0.0410
v -0.7236 0.2940 0.0410
v 0.0173 0.0533 0.0410
v -0.0173 -0.0533 0.0410
f 748/23 747/23 746/23 745/23
v -0.0173 -0.0533 -0.0410
v 0.0173 0.0533 -0.0410
v -0.7236 0.2940 -0.0410
v -0.7582 0.1875 -0.0410
f 752/23 751/23 750/23 749/23
v -0.0173 -0.0533 0.0410
v -0.0173 -0.0533 -0.0410
v -0.7582 0.1875 -0.0410
v -0.7582 0.1875 0.0410
f 756/23 755/23 754/23 753/23
v -0.7236 0.2940 0.0410
v -0.7236 0.2940 -0.0410
v 0.0173 0.0533 -0.0410
v 0.0173 0.0533 0.0410
f 760/23 759/23 758/23 757/23
v 0.0173 0.0533 0.0410
v 0.0173 0.0533 -0.0410
v -0.0173 -0.0533 -0.0410
v -0.0173 -0.0533 0.0410
f 764/23 763/23 762/23 761/23
v -0.7582 0.1875 0.0410
v -0.7582 0.1875 -0.0410
v -0.7236 0.2940 -0.0410
v -0.7236 0.2940 0.0410
f 768/23 767/23 766/23 765/23
v -0.4126 -0.6631 0.0410
v -0.5032 -0.5973 0.0410
v -0.0453 0.0329 0.0410
v 0.0453 -0.0329 0.0410
f 772/23 771/23 770/23 769/23
v 0.0453 -0.0329 -0.0410
v -0.0453 0.0329 -0.0410
v -0.5032 -0.5973 -0.0410
v -0.4126 -0.6631 -0.0410
f 776/23 775/23 774/23 773/23
v 0.0453 -0.0329 0.0410
v 0.0453 -0.0329 -0.0410
v -0.4126 -0.6631 -0.0410
v -0.4126 -0.6631 0.0410
f 780/23 779/23 778/23 777/23
v -0.5032 -0.5973 0.0410
v -0.5032 -0.5973 -0.0410
v -0.0453 0.0329 -0.0410
v -0.0453 0.0329 0.0410
f 784/23 783/23 782/23 781/23
v -0.0453 0.0329 0.0410
v -0.0453 0.0329 -0.0410
v 0.0453 -0.0329 -0.0410
v 0.0453 -0.0329 0.0410
f 788/23 787/23 786/23 785/23
v -0.4126 -0.6631 0.0410
v -0.4126 -0.6631 -0.0410
v -0.5032 -0.5973 -0.0410
v -0.5032 -0.5973 0.0410
f 792/23 791/23 790/23 789/23
v 0.4126 -0.6631 -0.0410
v 0.5032 -0.5973 -0.0410
v 0.0453 0.0329 -0.0410
v -0.0453 -0.0329 -0.0410
f 796/23 795/23 794/23 793/23
v -0.0453 -0.0329 0.0410
v 0.0453 0.0329 0.0410
v 0.5032 -0.5973 0.0410
v 0.4126 -0.6631 0.0410
f 800/23 799/23 798/23 797/23
v -0.0453 -0.0329 -0.0410
v -0.0453 -0.0329 0.0410
v 0.4126 -0.6631 0.0410
v 0.4126 -0.6631 -0.0410
f 804/23 803/23 802/23 801/23
v 0.5032 -0.5973 -0.0410
v 0.5032 -0.5973 0.0410
v 0.0453 0.0329 0.0410
v 0.0453 0.0329 -0.0410
f 808/23 807/23 806/23 805/23
v 0.0453 0.0329 -0.0410
v 0.0453 0.0329 0.0410
v -0.0453 -0.0329 0.0410
v -0.0453 -0.0329 -0.0410
f 812/23 811/23 810/23 809/23
v 0.4126 -0.6631 -0.0410
v 0.4126 -0.6631 0.0410
v 0.5032 -0.5973 0.0410
v 0.5032 -0.5973 -0.0410
f 816/23 815/23 814/23 813/23
v 0.7582 0.1875 -0.0410
v 0.7236 0.2940 -0.0410
v -0.0173 0.0533 -0.0410
v 0.0173 -0.0533 -0.0410
f 820/23 819/23 818/23 817/23
v 0.0173 -0.0533 0.0410
v -0.0173 0.0533 0.0410
v 0.7236 0.2940 0.0410
v 0.7582 0.1875 0.0410
f 824/23 823/23 822/23 821/23
v 0.0173 -0.0533 -0.0410
v 0.0173 -0.0533 0.0410
v 0.7582 0.1875 0.0410
v 0.7582 0.1875 -0.0410
f 828/23 827/23 826/23 825/23
v 0.7236 0.2940 -0.0410
v 0.7236 0.2940 0.0410
v -0.0173 0.0533 0.0410
v -0.0173 0.0533 -0.0410
f 832/23 831/23 830/23 829/23
v -0.0173 0.0533 -0.0410
v -0.0173 0.0533 0.0410
v 0.0173 -0.0533 0.0410
v 0.0173 -0.0533 -0.0410
f 836/23 835/23 834/23 833/23
v 0.7582 0.1875 -0.0410
v 0.7582 0.1875 0.0410
v 0.7236 0.2940 0.0410
v 0.7236 0.2940 -0.0410
f 840/23 839/23 838/23 837/23
v -0.1560 0.0507 -0.1120
v -0.0964 0.1327 -0.1120
v -0.0964 0.1327 0.1120
v -0.1560 0.0507 0.1120
f 844/4 843/4 842/4 841/4
v -0.0964 0.1327 -0.1120
v -0.0000 0.1640 -0.1120
v -0.0000 0.1640 0.1120
v -0.0964 0.1327 0.1120
f 848/4 847/4 846/4 845/4
v -0.0000 0.1640 -0.1120
v 0.0964 0.1327 -0.1120
v 0.0964 0.1327 0.1120
v -0.0000 0.1640 0.1120
f 852/4 851/4 850/4 849/4
v 0.0964 0.1327 -0.1120
v 0.1560 0.0507 -0.1120
v 0.1560 0.0507 0.1120
v 0.0964 0.1327 0.1120
f 856/4 855/4 854/4 853/4
v 0.1560 0.0507 -0.1120
v 0.1560 -0.0507 -0.1120
v 0.1560 -0.0507 0.1120
v 0.1560 0.0507 0.1120
f 860/4 859/4 858/4 857/4
v 0.1560 -0.0507 -0.1120
v 0.0964 -0.1327 -0.1120
v 0.0964 -0.1327 0.1120
v 0.1560 -0.0507 0.1120
f 864/4 863/4 862/4 861/4
v 0.0964 -0.1327 -0.1120
v 0.0000 -0.1640 -0.1120
v 0.0000 -0.1640 0.1120
v 0.0964 -0.1327 0.1120
f 868/4 867/4 866/4 865/4
v 0.0000 -0.1640 -0.1120
v -0.0964 -0.1327 -0.1120
v -0.0964 -0.1327 0.1120
v 0.0000 -0.1640 0.1120
f 872/4 871/4 870/4 869/4
v -0.0964 -0.1327 -0.1120
v -0.1560 -0.0507 -0.1120
v -0.1560 -0.0507 0.1120
v -0.0964 -0.1327 0.1120
f 876/4 875/4 874/4 873/4
v -0.1560 -0.0507 -0.1120
v -0.1560 0.0507 -0.1120
v -0.1560 0.0507 0.1120
v -0.1560 -0.0507 0.1120
f 880/4 879/4 878/4 877/4
v -0.1560 -0.0507 -0.1120
v -0.0964 -0.1327 -0.1120
v 0.0000 -0.1640 -0.1120
v 0.0964 -0.1327 -0.1120
v 0.1560 -0.0507 -0.1120
v 0.1560 0.0507 -0.1120
v 0.0964 0.1327 -0.1120
v -0.0000 0.1640 -0.1120
v -0.0964 0.1327 -0.1120
v -0.1560 0.0507 -0.1120
f 890/4 889/4 888/4 887/4 886/4 885/4 884/4 883/4 882/4 881/4
v -0.1560 0.0507 0.1120
v -0.0964 0.1327 0.1120
v -0.0000 0.1640 0.1120
v 0.0964 0.1327 0.1120
v 0.1560 0.0507 0.1120
v 0.1560 -0.0507 0.1120
v 0.0964 -0.1327 0.1120
v 0.0000 -0.1640 0.1120
v -0.0964 -0.1327 0.1120
v -0.1560 -0.0507 0.1120
f 900/4 899/4 898/4 897/4 896/4 895/4 894/4 893/4 892/4 891/4
