# Walk of Industry low-poly (generated, wi_lib.py)
mtllib wi.mtl
vt 0 0
vt 0.03125 0.03125
vt 0.09375 0.03125
vt 0.15625 0.03125
vt 0.21875 0.03125
vt 0.28125 0.03125
vt 0.34375 0.03125
vt 0.40625 0.03125
vt 0.46875 0.03125
vt 0.53125 0.03125
vt 0.59375 0.03125
vt 0.65625 0.03125
vt 0.71875 0.03125
vt 0.78125 0.03125
vt 0.84375 0.03125
vt 0.90625 0.03125
vt 0.96875 0.03125
vt 0.03125 0.09375
vt 0.09375 0.09375
vt 0.15625 0.09375
vt 0.21875 0.09375
vt 0.28125 0.09375
vt 0.34375 0.09375
vt 0.40625 0.09375
vt 0.46875 0.09375
vt 0.53125 0.09375
vt 0.59375 0.09375
vt 0.65625 0.09375
vt 0.71875 0.09375
vt 0.78125 0.09375
vt 0.84375 0.09375
vt 0.90625 0.09375
vt 0.96875 0.09375
o Body
usemtl wi_palette
v -0.1298 0.0000 0.3994
v -0.3398 0.0000 0.2469
v -0.3398 0.0300 0.2469
v -0.1298 0.0300 0.3994
f 4/24 3/24 2/24 1/24
v -0.3398 0.0000 0.2469
v -0.4200 0.0000 0.0000
v -0.4200 0.0300 0.0000
v -0.3398 0.0300 0.2469
f 8/24 7/24 6/24 5/24
v -0.4200 0.0000 0.0000
v -0.3398 0.0000 -0.2469
v -0.3398 0.0300 -0.2469
v -0.4200 0.0300 0.0000
f 12/24 11/24 10/24 9/24
v -0.3398 0.0000 -0.2469
v -0.1298 0.0000 -0.3994
v -0.1298 0.0300 -0.3994
v -0.3398 0.0300 -0.2469
f 16/24 15/24 14/24 13/24
v -0.1298 0.0000 -0.3994
v 0.1298 0.0000 -0.3994
v 0.1298 0.0300 -0.3994
v -0.1298 0.0300 -0.3994
f 20/24 19/24 18/24 17/24
v 0.1298 0.0000 -0.3994
v 0.3398 0.0000 -0.2469
v 0.3398 0.0300 -0.2469
v 0.1298 0.0300 -0.3994
f 24/24 23/24 22/24 21/24
v 0.3398 0.0000 -0.2469
v 0.4200 0.0000 -0.0000
v 0.4200 0.0300 -0.0000
v 0.3398 0.0300 -0.2469
f 28/24 27/24 26/24 25/24
v 0.4200 0.0000 -0.0000
v 0.3398 0.0000 0.2469
v 0.3398 0.0300 0.2469
v 0.4200 0.0300 -0.0000
f 32/24 31/24 30/24 29/24
v 0.3398 0.0000 0.2469
v 0.1298 0.0000 0.3994
v 0.1298 0.0300 0.3994
v 0.3398 0.0300 0.2469
f 36/24 35/24 34/24 33/24
v 0.1298 0.0000 0.3994
v -0.1298 0.0000 0.3994
v -0.1298 0.0300 0.3994
v 0.1298 0.0300 0.3994
f 40/24 39/24 38/24 37/24
v 0.1298 0.0000 0.3994
v 0.3398 0.0000 0.2469
v 0.4200 0.0000 -0.0000
v 0.3398 0.0000 -0.2469
v 0.1298 0.0000 -0.3994
v -0.1298 0.0000 -0.3994
v -0.3398 0.0000 -0.2469
v -0.4200 0.0000 0.0000
v -0.3398 0.0000 0.2469
v -0.1298 0.0000 0.3994
f 50/24 49/24 48/24 47/24 46/24 45/24 44/24 43/24 42/24 41/24
v -0.1298 0.0300 0.3994
v -0.3398 0.0300 0.2469
v -0.4200 0.0300 0.0000
v -0.3398 0.0300 -0.2469
v -0.1298 0.0300 -0.3994
v 0.1298 0.0300 -0.3994
v 0.3398 0.0300 -0.2469
v 0.4200 0.0300 -0.0000
v 0.3398 0.0300 0.2469
v 0.1298 0.0300 0.3994
f 60/24 59/24 58/24 57/24 56/24 55/24 54/24 53/24 52/24 51/24
v -0.0000 0.6200 0.0000
v -0.1106 0.5589 0.1522
v -0.1789 0.5589 0.0581
f 63/24 62/24 61/24
v -0.0000 0.6200 0.0000
v -0.0000 0.5589 0.1881
v -0.1106 0.5589 0.1522
f 66/24 65/24 64/24
v -0.0000 0.6200 0.0000
v 0.1106 0.5589 0.1522
v -0.0000 0.5589 0.1881
f 69/24 68/24 67/24
v -0.0000 0.6200 0.0000
v 0.1789 0.5589 0.0581
v 0.1106 0.5589 0.1522
f 72/24 71/24 70/24
v -0.0000 0.6200 0.0000
v 0.1789 0.5589 -0.0581
v 0.1789 0.5589 0.0581
f 75/24 74/24 73/24
v -0.0000 0.6200 0.0000
v 0.1106 0.5589 -0.1522
v 0.1789 0.5589 -0.0581
f 78/24 77/24 76/24
v -0.0000 0.6200 0.0000
v 0.0000 0.5589 -0.1881
v 0.1106 0.5589 -0.1522
f 81/24 80/24 79/24
v -0.0000 0.6200 0.0000
v -0.1106 0.5589 -0.1522
v 0.0000 0.5589 -0.1881
f 84/24 83/24 82/24
v -0.0000 0.6200 0.0000
v -0.1789 0.5589 -0.0581
v -0.1106 0.5589 -0.1522
f 87/24 86/24 85/24
v -0.0000 0.6200 0.0000
v -0.1789 0.5589 0.0581
v -0.1789 0.5589 -0.0581
f 90/24 89/24 88/24
v -0.1789 0.5589 0.0581
v -0.1106 0.5589 0.1522
v -0.2462 0.3989 0.1789
v -0.3043 0.3989 0.0000
f 94/24 93/24 92/24 91/24
v -0.1106 0.5589 0.1522
v -0.0000 0.5589 0.1881
v -0.0940 0.3989 0.2894
v -0.2462 0.3989 0.1789
f 98/24 97/24 96/24 95/24
v -0.0000 0.5589 0.1881
v 0.1106 0.5589 0.1522
v 0.0940 0.3989 0.2894
v -0.0940 0.3989 0.2894
f 102/24 101/24 100/24 99/24
v 0.1106 0.5589 0.1522
v 0.1789 0.5589 0.0581
v 0.2462 0.3989 0.1789
v 0.0940 0.3989 0.2894
f 106/24 105/24 104/24 103/24
v 0.1789 0.5589 0.0581
v 0.1789 0.5589 -0.0581
v 0.3043 0.3989 0.0000
v 0.2462 0.3989 0.1789
f 110/24 109/24 108/24 107/24
v 0.1789 0.5589 -0.0581
v 0.1106 0.5589 -0.1522
v 0.2462 0.3989 -0.1789
v 0.3043 0.3989 0.0000
f 114/24 113/24 112/24 111/24
v 0.1106 0.5589 -0.1522
v 0.0000 0.5589 -0.1881
v 0.0940 0.3989 -0.2894
v 0.2462 0.3989 -0.1789
f 118/24 117/24 116/24 115/24
v 0.0000 0.5589 -0.1881
v -0.1106 0.5589 -0.1522
v -0.0940 0.3989 -0.2894
v 0.0940 0.3989 -0.2894
f 122/24 121/24 120/24 119/24
v -0.1106 0.5589 -0.1522
v -0.1789 0.5589 -0.0581
v -0.2462 0.3989 -0.1789
v -0.0940 0.3989 -0.2894
f 126/24 125/24 124/24 123/24
v -0.1789 0.5589 -0.0581
v -0.1789 0.5589 0.0581
v -0.3043 0.3989 0.0000
v -0.2462 0.3989 -0.1789
f 130/24 129/24 128/24 127/24
v -0.3043 0.3989 0.0000
v -0.2462 0.3989 0.1789
v -0.1789 0.2011 0.2462
v -0.2894 0.2011 0.0940
f 134/24 133/24 132/24 131/24
v -0.2462 0.3989 0.1789
v -0.0940 0.3989 0.2894
v -0.0000 0.2011 0.3043
v -0.1789 0.2011 0.2462
f 138/24 137/24 136/24 135/24
v -0.0940 0.3989 0.2894
v 0.0940 0.3989 0.2894
v 0.1789 0.2011 0.2462
v -0.0000 0.2011 0.3043
f 142/24 141/24 140/24 139/24
v 0.0940 0.3989 0.2894
v 0.2462 0.3989 0.1789
v 0.2894 0.2011 0.0940
v 0.1789 0.2011 0.2462
f 146/24 145/24 144/24 143/24
v 0.2462 0.3989 0.1789
v 0.3043 0.3989 0.0000
v 0.2894 0.2011 -0.0940
v 0.2894 0.2011 0.0940
f 150/24 149/24 148/24 147/24
v 0.3043 0.3989 0.0000
v 0.2462 0.3989 -0.1789
v 0.1789 0.2011 -0.2462
v 0.2894 0.2011 -0.0940
f 154/24 153/24 152/24 151/24
v 0.2462 0.3989 -0.1789
v 0.0940 0.3989 -0.2894
v 0.0000 0.2011 -0.3043
v 0.1789 0.2011 -0.2462
f 158/24 157/24 156/24 155/24
v 0.0940 0.3989 -0.2894
v -0.0940 0.3989 -0.2894
v -0.1789 0.2011 -0.2462
v 0.0000 0.2011 -0.3043
f 162/24 161/24 160/24 159/24
v -0.0940 0.3989 -0.2894
v -0.2462 0.3989 -0.1789
v -0.2894 0.2011 -0.0940
v -0.1789 0.2011 -0.2462
f 166/24 165/24 164/24 163/24
v -0.2462 0.3989 -0.1789
v -0.3043 0.3989 0.0000
v -0.2894 0.2011 0.0940
v -0.2894 0.2011 -0.0940
f 170/24 169/24 168/24 167/24
v -0.2894 0.2011 0.0940
v -0.1789 0.2011 0.2462
v -0.1522 0.0411 0.1106
v -0.1881 0.0411 0.0000
f 174/24 173/24 172/24 171/24
v -0.1789 0.2011 0.2462
v -0.0000 0.2011 0.3043
v -0.0581 0.0411 0.1789
v -0.1522 0.0411 0.1106
f 178/24 177/24 176/24 175/24
v -0.0000 0.2011 0.3043
v 0.1789 0.2011 0.2462
v 0.0581 0.0411 0.1789
v -0.0581 0.0411 0.1789
f 182/24 181/24 180/24 179/24
v 0.1789 0.2011 0.2462
v 0.2894 0.2011 0.0940
v 0.1522 0.0411 0.1106
v 0.0581 0.0411 0.1789
f 186/24 185/24 184/24 183/24
v 0.2894 0.2011 0.0940
v 0.2894 0.2011 -0.0940
v 0.1881 0.0411 0.0000
v 0.1522 0.0411 0.1106
f 190/24 189/24 188/24 187/24
v 0.2894 0.2011 -0.0940
v 0.1789 0.2011 -0.2462
v 0.1522 0.0411 -0.1106
v 0.1881 0.0411 0.0000
f 194/24 193/24 192/24 191/24
v 0.1789 0.2011 -0.2462
v 0.0000 0.2011 -0.3043
v 0.0581 0.0411 -0.1789
v 0.1522 0.0411 -0.1106
f 198/24 197/24 196/24 195/24
v 0.0000 0.2011 -0.3043
v -0.1789 0.2011 -0.2462
v -0.0581 0.0411 -0.1789
v 0.0581 0.0411 -0.1789
f 202/24 201/24 200/24 199/24
v -0.1789 0.2011 -0.2462
v -0.2894 0.2011 -0.0940
v -0.1522 0.0411 -0.1106
v -0.0581 0.0411 -0.1789
f 206/24 205/24 204/24 203/24
v -0.2894 0.2011 -0.0940
v -0.2894 0.2011 0.0940
v -0.1881 0.0411 0.0000
v -0.1522 0.0411 -0.1106
f 210/24 209/24 208/24 207/24
v -0.1881 0.0411 0.0000
v -0.1522 0.0411 0.1106
v -0.0000 -0.0200 0.0000
f 213/24 212/24 211/24
v -0.1522 0.0411 0.1106
v -0.0581 0.0411 0.1789
v -0.0000 -0.0200 0.0000
f 216/24 215/24 214/24
v -0.0581 0.0411 0.1789
v 0.0581 0.0411 0.1789
v -0.0000 -0.0200 0.0000
f 219/24 218/24 217/24
v 0.0581 0.0411 0.1789
v 0.1522 0.0411 0.1106
v 0.0000 -0.0200 0.0000
f 222/24 221/24 220/24
v 0.1522 0.0411 0.1106
v 0.1881 0.0411 0.0000
v 0.0000 -0.0200 0.0000
f 225/24 224/24 223/24
v 0.1881 0.0411 0.0000
v 0.1522 0.0411 -0.1106
v 0.0000 -0.0200 -0.0000
f 228/24 227/24 226/24
v 0.1522 0.0411 -0.1106
v 0.0581 0.0411 -0.1789
v 0.0000 -0.0200 -0.0000
f 231/24 230/24 229/24
v 0.0581 0.0411 -0.1789
v -0.0581 0.0411 -0.1789
v 0.0000 -0.0200 -0.0000
f 234/24 233/24 232/24
v -0.0581 0.0411 -0.1789
v -0.1522 0.0411 -0.1106
v -0.0000 -0.0200 -0.0000
f 237/24 236/24 235/24
v -0.1522 0.0411 -0.1106
v -0.1881 0.0411 0.0000
v -0.0000 -0.0200 -0.0000
f 240/24 239/24 238/24
v -0.0000 0.9900 0.0000
v -0.0795 0.9461 0.1094
v -0.1286 0.9461 0.0418
f 243/24 242/24 241/24
v -0.0000 0.9900 0.0000
v -0.0000 0.9461 0.1352
v -0.0795 0.9461 0.1094
f 246/24 245/24 244/24
v -0.0000 0.9900 0.0000
v 0.0795 0.9461 0.1094
v -0.0000 0.9461 0.1352
f 249/24 248/24 247/24
v -0.0000 0.9900 0.0000
v 0.1286 0.9461 0.0418
v 0.0795 0.9461 0.1094
f 252/24 251/24 250/24
v -0.0000 0.9900 0.0000
v 0.1286 0.9461 -0.0418
v 0.1286 0.9461 0.0418
f 255/24 254/24 253/24
v -0.0000 0.9900 0.0000
v 0.0795 0.9461 -0.1094
v 0.1286 0.9461 -0.0418
f 258/24 257/24 256/24
v -0.0000 0.9900 0.0000
v 0.0000 0.9461 -0.1352
v 0.0795 0.9461 -0.1094
f 261/24 260/24 259/24
v -0.0000 0.9900 0.0000
v -0.0795 0.9461 -0.1094
v 0.0000 0.9461 -0.1352
f 264/24 263/24 262/24
v -0.0000 0.9900 0.0000
v -0.1286 0.9461 -0.0418
v -0.0795 0.9461 -0.1094
f 267/24 266/24 265/24
v -0.0000 0.9900 0.0000
v -0.1286 0.9461 0.0418
v -0.1286 0.9461 -0.0418
f 270/24 269/24 268/24
v -0.1286 0.9461 0.0418
v -0.0795 0.9461 0.1094
v -0.1770 0.8311 0.1286
v -0.2187 0.8311 0.0000
f 274/24 273/24 272/24 271/24
v -0.0795 0.9461 0.1094
v -0.0000 0.9461 0.1352
v -0.0676 0.8311 0.2080
v -0.1770 0.8311 0.1286
f 278/24 277/24 276/24 275/24
v -0.0000 0.9461 0.1352
v 0.0795 0.9461 0.1094
v 0.0676 0.8311 0.2080
v -0.0676 0.8311 0.2080
f 282/24 281/24 280/24 279/24
v 0.0795 0.9461 0.1094
v 0.1286 0.9461 0.0418
v 0.1770 0.8311 0.1286
v 0.0676 0.8311 0.2080
f 286/24 285/24 284/24 283/24
v 0.1286 0.9461 0.0418
v 0.1286 0.9461 -0.0418
v 0.2187 0.8311 0.0000
v 0.1770 0.8311 0.1286
f 290/24 289/24 288/24 287/24
v 0.1286 0.9461 -0.0418
v 0.0795 0.9461 -0.1094
v 0.1770 0.8311 -0.1286
v 0.2187 0.8311 0.0000
f 294/24 293/24 292/24 291/24
v 0.0795 0.9461 -0.1094
v 0.0000 0.9461 -0.1352
v 0.0676 0.8311 -0.2080
v 0.1770 0.8311 -0.1286
f 298/24 297/24 296/24 295/24
v 0.0000 0.9461 -0.1352
v -0.0795 0.9461 -0.1094
v -0.0676 0.8311 -0.2080
v 0.0676 0.8311 -0.2080
f 302/24 301/24 300/24 299/24
v -0.0795 0.9461 -0.1094
v -0.1286 0.9461 -0.0418
v -0.1770 0.8311 -0.1286
v -0.0676 0.8311 -0.2080
f 306/24 305/24 304/24 303/24
v -0.1286 0.9461 -0.0418
v -0.1286 0.9461 0.0418
v -0.2187 0.8311 0.0000
v -0.1770 0.8311 -0.1286
f 310/24 309/24 308/24 307/24
v -0.2187 0.8311 0.0000
v -0.1770 0.8311 0.1286
v -0.1286 0.6889 0.1770
v -0.2080 0.6889 0.0676
f 314/24 313/24 312/24 311/24
v -0.1770 0.8311 0.1286
v -0.0676 0.8311 0.2080
v -0.0000 0.6889 0.2187
v -0.1286 0.6889 0.1770
f 318/24 317/24 316/24 315/24
v -0.0676 0.8311 0.2080
v 0.0676 0.8311 0.2080
v 0.1286 0.6889 0.1770
v -0.0000 0.6889 0.2187
f 322/24 321/24 320/24 319/24
v 0.0676 0.8311 0.2080
v 0.1770 0.8311 0.1286
v 0.2080 0.6889 0.0676
v 0.1286 0.6889 0.1770
f 326/24 325/24 324/24 323/24
v 0.1770 0.8311 0.1286
v 0.2187 0.8311 0.0000
v 0.2080 0.6889 -0.0676
v 0.2080 0.6889 0.0676
f 330/24 329/24 328/24 327/24
v 0.2187 0.8311 0.0000
v 0.1770 0.8311 -0.1286
v 0.1286 0.6889 -0.1770
v 0.2080 0.6889 -0.0676
f 334/24 333/24 332/24 331/24
v 0.1770 0.8311 -0.1286
v 0.0676 0.8311 -0.2080
v 0.0000 0.6889 -0.2187
v 0.1286 0.6889 -0.1770
f 338/24 337/24 336/24 335/24
v 0.0676 0.8311 -0.2080
v -0.0676 0.8311 -0.2080
v -0.1286 0.6889 -0.1770
v 0.0000 0.6889 -0.2187
f 342/24 341/24 340/24 339/24
v -0.0676 0.8311 -0.2080
v -0.1770 0.8311 -0.1286
v -0.2080 0.6889 -0.0676
v -0.1286 0.6889 -0.1770
f 346/24 345/24 344/24 343/24
v -0.1770 0.8311 -0.1286
v -0.2187 0.8311 0.0000
v -0.2080 0.6889 0.0676
v -0.2080 0.6889 -0.0676
f 350/24 349/24 348/24 347/24
v -0.2080 0.6889 0.0676
v -0.1286 0.6889 0.1770
v -0.1094 0.5739 0.0795
v -0.1352 0.5739 0.0000
f 354/24 353/24 352/24 351/24
v -0.1286 0.6889 0.1770
v -0.0000 0.6889 0.2187
v -0.0418 0.5739 0.1286
v -0.1094 0.5739 0.0795
f 358/24 357/24 356/24 355/24
v -0.0000 0.6889 0.2187
v 0.1286 0.6889 0.1770
v 0.0418 0.5739 0.1286
v -0.0418 0.5739 0.1286
f 362/24 361/24 360/24 359/24
v 0.1286 0.6889 0.1770
v 0.2080 0.6889 0.0676
v 0.1094 0.5739 0.0795
v 0.0418 0.5739 0.1286
f 366/24 365/24 364/24 363/24
v 0.2080 0.6889 0.0676
v 0.2080 0.6889 -0.0676
v 0.1352 0.5739 0.0000
v 0.1094 0.5739 0.0795
f 370/24 369/24 368/24 367/24
v 0.2080 0.6889 -0.0676
v 0.1286 0.6889 -0.1770
v 0.1094 0.5739 -0.0795
v 0.1352 0.5739 0.0000
f 374/24 373/24 372/24 371/24
v 0.1286 0.6889 -0.1770
v 0.0000 0.6889 -0.2187
v 0.0418 0.5739 -0.1286
v 0.1094 0.5739 -0.0795
f 378/24 377/24 376/24 375/24
v 0.0000 0.6889 -0.2187
v -0.1286 0.6889 -0.1770
v -0.0418 0.5739 -0.1286
v 0.0418 0.5739 -0.1286
f 382/24 381/24 380/24 379/24
v -0.1286 0.6889 -0.1770
v -0.2080 0.6889 -0.0676
v -0.1094 0.5739 -0.0795
v -0.0418 0.5739 -0.1286
f 386/24 385/24 384/24 383/24
v -0.2080 0.6889 -0.0676
v -0.2080 0.6889 0.0676
v -0.1352 0.5739 0.0000
v -0.1094 0.5739 -0.0795
f 390/24 389/24 388/24 387/24
v -0.1352 0.5739 0.0000
v -0.1094 0.5739 0.0795
v -0.0000 0.5300 0.0000
f 393/24 392/24 391/24
v -0.1094 0.5739 0.0795
v -0.0418 0.5739 0.1286
v -0.0000 0.5300 0.0000
f 396/24 395/24 394/24
v -0.0418 0.5739 0.1286
v 0.0418 0.5739 0.1286
v -0.0000 0.5300 0.0000
f 399/24 398/24 397/24
v 0.0418 0.5739 0.1286
v 0.1094 0.5739 0.0795
v 0.0000 0.5300 0.0000
f 402/24 401/24 400/24
v 0.1094 0.5739 0.0795
v 0.1352 0.5739 0.0000
v 0.0000 0.5300 0.0000
f 405/24 404/24 403/24
v 0.1352 0.5739 0.0000
v 0.1094 0.5739 -0.0795
v 0.0000 0.5300 -0.0000
f 408/24 407/24 406/24
v 0.1094 0.5739 -0.0795
v 0.0418 0.5739 -0.1286
v 0.0000 0.5300 -0.0000
f 411/24 410/24 409/24
v 0.0418 0.5739 -0.1286
v -0.0418 0.5739 -0.1286
v 0.0000 0.5300 -0.0000
f 414/24 413/24 412/24
v -0.0418 0.5739 -0.1286
v -0.1094 0.5739 -0.0795
v -0.0000 0.5300 -0.0000
f 417/24 416/24 415/24
v -0.1094 0.5739 -0.0795
v -0.1352 0.5739 0.0000
v -0.0000 0.5300 -0.0000
f 420/24 419/24 418/24
v -0.0000 1.2700 0.0000
v -0.0500 1.2375 0.0865
v -0.0939 1.2375 0.0342
f 423/24 422/24 421/24
v -0.0000 1.2700 0.0000
v 0.0174 1.2375 0.0984
v -0.0500 1.2375 0.0865
f 426/24 425/24 424/24
v -0.0000 1.2700 0.0000
v 0.0765 1.2375 0.0642
v 0.0174 1.2375 0.0984
f 429/24 428/24 427/24
v -0.0000 1.2700 0.0000
v 0.0999 1.2375 0.0000
v 0.0765 1.2375 0.0642
f 432/24 431/24 430/24
v -0.0000 1.2700 0.0000
v 0.0765 1.2375 -0.0642
v 0.0999 1.2375 0.0000
f 435/24 434/24 433/24
v -0.0000 1.2700 0.0000
v 0.0174 1.2375 -0.0984
v 0.0765 1.2375 -0.0642
f 438/24 437/24 436/24
v -0.0000 1.2700 0.0000
v -0.0500 1.2375 -0.0865
v 0.0174 1.2375 -0.0984
f 441/24 440/24 439/24
v -0.0000 1.2700 0.0000
v -0.0939 1.2375 -0.0342
v -0.0500 1.2375 -0.0865
f 444/24 443/24 442/24
v -0.0000 1.2700 0.0000
v -0.0939 1.2375 0.0342
v -0.0939 1.2375 -0.0342
f 447/24 446/24 445/24
v -0.0939 1.2375 0.0342
v -0.0500 1.2375 0.0865
v -0.1239 1.1525 0.1039
v -0.1617 1.1525 0.0000
f 451/24 450/24 449/24 448/24
v -0.0500 1.2375 0.0865
v 0.0174 1.2375 0.0984
v -0.0281 1.1525 0.1592
v -0.1239 1.1525 0.1039
f 455/24 454/24 453/24 452/24
v 0.0174 1.2375 0.0984
v 0.0765 1.2375 0.0642
v 0.0808 1.1525 0.1400
v -0.0281 1.1525 0.1592
f 459/24 458/24 457/24 456/24
v 0.0765 1.2375 0.0642
v 0.0999 1.2375 0.0000
v 0.1519 1.1525 0.0553
v 0.0808 1.1525 0.1400
f 463/24 462/24 461/24 460/24
v 0.0999 1.2375 0.0000
v 0.0765 1.2375 -0.0642
v 0.1519 1.1525 -0.0553
v 0.1519 1.1525 0.0553
f 467/24 466/24 465/24 464/24
v 0.0765 1.2375 -0.0642
v 0.0174 1.2375 -0.0984
v 0.0808 1.1525 -0.1400
v 0.1519 1.1525 -0.0553
f 471/24 470/24 469/24 468/24
v 0.0174 1.2375 -0.0984
v -0.0500 1.2375 -0.0865
v -0.0281 1.1525 -0.1592
v 0.0808 1.1525 -0.1400
f 475/24 474/24 473/24 472/24
v -0.0500 1.2375 -0.0865
v -0.0939 1.2375 -0.0342
v -0.1239 1.1525 -0.1039
v -0.0281 1.1525 -0.1592
f 479/24 478/24 477/24 476/24
v -0.0939 1.2375 -0.0342
v -0.0939 1.2375 0.0342
v -0.1617 1.1525 0.0000
v -0.1239 1.1525 -0.1039
f 483/24 482/24 481/24 480/24
v -0.1617 1.1525 0.0000
v -0.1239 1.1525 0.1039
v -0.0808 1.0475 0.1400
v -0.1519 1.0475 0.0553
f 487/24 486/24 485/24 484/24
v -0.1239 1.1525 0.1039
v -0.0281 1.1525 0.1592
v 0.0281 1.0475 0.1592
v -0.0808 1.0475 0.1400
f 491/24 490/24 489/24 488/24
v -0.0281 1.1525 0.1592
v 0.0808 1.1525 0.1400
v 0.1239 1.0475 0.1039
v 0.0281 1.0475 0.1592
f 495/24 494/24 493/24 492/24
v 0.0808 1.1525 0.1400
v 0.1519 1.1525 0.0553
v 0.1617 1.0475 0.0000
v 0.1239 1.0475 0.1039
f 499/24 498/24 497/24 496/24
v 0.1519 1.1525 0.0553
v 0.1519 1.1525 -0.0553
v 0.1239 1.0475 -0.1039
v 0.1617 1.0475 0.0000
f 503/24 502/24 501/24 500/24
v 0.1519 1.1525 -0.0553
v 0.0808 1.1525 -0.1400
v 0.0281 1.0475 -0.1592
v 0.1239 1.0475 -0.1039
f 507/24 506/24 505/24 504/24
v 0.0808 1.1525 -0.1400
v -0.0281 1.1525 -0.1592
v -0.0808 1.0475 -0.1400
v 0.0281 1.0475 -0.1592
f 511/24 510/24 509/24 508/24
v -0.0281 1.1525 -0.1592
v -0.1239 1.1525 -0.1039
v -0.1519 1.0475 -0.0553
v -0.0808 1.0475 -0.1400
f 515/24 514/24 513/24 512/24
v -0.1239 1.1525 -0.1039
v -0.1617 1.1525 0.0000
v -0.1519 1.0475 0.0553
v -0.1519 1.0475 -0.0553
f 519/24 518/24 517/24 516/24
v -0.1519 1.0475 0.0553
v -0.0808 1.0475 0.1400
v -0.0765 0.9625 0.0642
v -0.0999 0.9625 0.0000
f 523/24 522/24 521/24 520/24
v -0.0808 1.0475 0.1400
v 0.0281 1.0475 0.1592
v -0.0174 0.9625 0.0984
v -0.0765 0.9625 0.0642
f 527/24 526/24 525/24 524/24
v 0.0281 1.0475 0.1592
v 0.1239 1.0475 0.1039
v 0.0500 0.9625 0.0865
v -0.0174 0.9625 0.0984
f 531/24 530/24 529/24 528/24
v 0.1239 1.0475 0.1039
v 0.1617 1.0475 0.0000
v 0.0939 0.9625 0.0342
v 0.0500 0.9625 0.0865
f 535/24 534/24 533/24 532/24
v 0.1617 1.0475 0.0000
v 0.1239 1.0475 -0.1039
v 0.0939 0.9625 -0.0342
v 0.0939 0.9625 0.0342
f 539/24 538/24 537/24 536/24
v 0.1239 1.0475 -0.1039
v 0.0281 1.0475 -0.1592
v 0.0500 0.9625 -0.0865
v 0.0939 0.9625 -0.0342
f 543/24 542/24 541/24 540/24
v 0.0281 1.0475 -0.1592
v -0.0808 1.0475 -0.1400
v -0.0174 0.9625 -0.0984
v 0.0500 0.9625 -0.0865
f 547/24 546/24 545/24 544/24
v -0.0808 1.0475 -0.1400
v -0.1519 1.0475 -0.0553
v -0.0765 0.9625 -0.0642
v -0.0174 0.9625 -0.0984
f 551/24 550/24 549/24 548/24
v -0.1519 1.0475 -0.0553
v -0.1519 1.0475 0.0553
v -0.0999 0.9625 0.0000
v -0.0765 0.9625 -0.0642
f 555/24 554/24 553/24 552/24
v -0.0999 0.9625 0.0000
v -0.0765 0.9625 0.0642
v -0.0000 0.9300 0.0000
f 558/24 557/24 556/24
v -0.0765 0.9625 0.0642
v -0.0174 0.9625 0.0984
v -0.0000 0.9300 0.0000
f 561/24 560/24 559/24
v -0.0174 0.9625 0.0984
v 0.0500 0.9625 0.0865
v 0.0000 0.9300 0.0000
f 564/24 563/24 562/24
v 0.0500 0.9625 0.0865
v 0.0939 0.9625 0.0342
v 0.0000 0.9300 0.0000
f 567/24 566/24 565/24
v 0.0939 0.9625 0.0342
v 0.0939 0.9625 -0.0342
v 0.0000 0.9300 0.0000
f 570/24 569/24 568/24
v 0.0939 0.9625 -0.0342
v 0.0500 0.9625 -0.0865
v 0.0000 0.9300 -0.0000
f 573/24 572/24 571/24
v 0.0500 0.9625 -0.0865
v -0.0174 0.9625 -0.0984
v 0.0000 0.9300 -0.0000
f 576/24 575/24 574/24
v -0.0174 0.9625 -0.0984
v -0.0765 0.9625 -0.0642
v -0.0000 0.9300 -0.0000
f 579/24 578/24 577/24
v -0.0765 0.9625 -0.0642
v -0.0999 0.9625 0.0000
v -0.0000 0.9300 -0.0000
f 582/24 581/24 580/24
v -0.0303 1.1174 0.1517
v -0.0000 1.1348 0.1533
v -0.0000 1.0800 0.3600
f 585/25 584/25 583/25
v -0.0000 1.1348 0.1533
v 0.0303 1.1174 0.1517
v -0.0000 1.0800 0.3600
f 588/25 587/25 586/25
v 0.0303 1.1174 0.1517
v 0.0303 1.0826 0.1483
v -0.0000 1.0800 0.3600
f 591/25 590/25 589/25
v 0.0303 1.0826 0.1483
v 0.0000 1.0652 0.1467
v -0.0000 1.0800 0.3600
f 594/25 593/25 592/25
v 0.0000 1.0652 0.1467
v -0.0303 1.0826 0.1483
v -0.0000 1.0800 0.3600
f 597/25 596/25 595/25
v -0.0303 1.0826 0.1483
v -0.0303 1.1174 0.1517
v -0.0000 1.0800 0.3600
f 600/25 599/25 598/25
v -0.0303 1.0826 0.1483
v 0.0000 1.0652 0.1467
v 0.0303 1.0826 0.1483
v 0.0303 1.1174 0.1517
v -0.0000 1.1348 0.1533
v -0.0303 1.1174 0.1517
f 606/25 605/25 604/25 603/25 602/25 601/25
v 0.0775 1.1425 0.1600
v 0.0775 1.1775 0.1600
v 0.0775 1.1775 0.1400
v 0.0775 1.1425 0.1400
f 610/6 609/6 608/6 607/6
v 0.0425 1.1425 0.1400
v 0.0425 1.1775 0.1400
v 0.0425 1.1775 0.1600
v 0.0425 1.1425 0.1600
f 614/6 613/6 612/6 611/6
v 0.0775 1.1425 0.1400
v 0.0425 1.1425 0.1400
v 0.0425 1.1425 0.1600
v 0.0775 1.1425 0.1600
f 618/6 617/6 616/6 615/6
v 0.0775 1.1775 0.1600
v 0.0425 1.1775 0.1600
v 0.0425 1.1775 0.1400
v 0.0775 1.1775 0.1400
f 622/6 621/6 620/6 619/6
v 0.0775 1.1775 0.1400
v 0.0425 1.1775 0.1400
v 0.0425 1.1425 0.1400
v 0.0775 1.1425 0.1400
f 626/6 625/6 624/6 623/6
v 0.0775 1.1425 0.1600
v 0.0425 1.1425 0.1600
v 0.0425 1.1775 0.1600
v 0.0775 1.1775 0.1600
f 630/6 629/6 628/6 627/6
v 0.5093 1.0099 0.0389
v 0.4948 1.0301 0.0365
v 0.1948 0.8101 -0.0135
v 0.2093 0.7899 -0.0111
f 634/22 633/22 632/22 631/22
v 0.2052 0.7899 0.0135
v 0.1907 0.8101 0.0111
v 0.4907 1.0301 0.0611
v 0.5052 1.0099 0.0635
f 638/22 637/22 636/22 635/22
v 0.2093 0.7899 -0.0111
v 0.2052 0.7899 0.0135
v 0.5052 1.0099 0.0635
v 0.5093 1.0099 0.0389
f 642/22 641/22 640/22 639/22
v 0.4948 1.0301 0.0365
v 0.4907 1.0301 0.0611
v 0.1907 0.8101 0.0111
v 0.1948 0.8101 -0.0135
f 646/22 645/22 644/22 643/22
v 0.1948 0.8101 -0.0135
v 0.1907 0.8101 0.0111
v 0.2052 0.7899 0.0135
v 0.2093 0.7899 -0.0111
f 650/22 649/22 648/22 647/22
v 0.5093 1.0099 0.0389
v 0.5052 1.0099 0.0635
v 0.4907 1.0301 0.0611
v 0.4948 1.0301 0.0365
f 654/22 653/22 652/22 651/22
v 0.5022 1.0953 -0.0116
v 0.4889 1.1047 -0.0040
v 0.4189 0.9747 0.0360
v 0.4322 0.9653 0.0284
f 658/22 657/22 656/22 655/22
v 0.4411 0.9653 0.0440
v 0.4278 0.9747 0.0516
v 0.4978 1.1047 0.0116
v 0.5111 1.0953 0.0040
f 662/22 661/22 660/22 659/22
v 0.4322 0.9653 0.0284
v 0.4411 0.9653 0.0440
v 0.5111 1.0953 0.0040
v 0.5022 1.0953 -0.0116
f 666/22 665/22 664/22 663/22
v 0.4889 1.1047 -0.0040
v 0.4978 1.1047 0.0116
v 0.4278 0.9747 0.0516
v 0.4189 0.9747 0.0360
f 670/22 669/22 668/22 667/22
v 0.4189 0.9747 0.0360
v 0.4278 0.9747 0.0516
v 0.4411 0.9653 0.0440
v 0.4322 0.9653 0.0284
f 674/22 673/22 672/22 671/22
v 0.5022 1.0953 -0.0116
v 0.5111 1.0953 0.0040
v 0.4978 1.1047 0.0116
v 0.4889 1.1047 -0.0040
f 678/22 677/22 676/22 675/22
v -0.0425 1.1425 0.1600
v -0.0425 1.1775 0.1600
v -0.0425 1.1775 0.1400
v -0.0425 1.1425 0.1400
f 682/6 681/6 680/6 679/6
v -0.0775 1.1425 0.1400
v -0.0775 1.1775 0.1400
v -0.0775 1.1775 0.1600
v -0.0775 1.1425 0.1600
f 686/6 685/6 684/6 683/6
v -0.0425 1.1425 0.1400
v -0.0775 1.1425 0.1400
v -0.0775 1.1425 0.1600
v -0.0425 1.1425 0.1600
f 690/6 689/6 688/6 687/6
v -0.0425 1.1775 0.1600
v -0.0775 1.1775 0.1600
v -0.0775 1.1775 0.1400
v -0.0425 1.1775 0.1400
f 694/6 693/6 692/6 691/6
v -0.0425 1.1775 0.1400
v -0.0775 1.1775 0.1400
v -0.0775 1.1425 0.1400
v -0.0425 1.1425 0.1400
f 698/6 697/6 696/6 695/6
v -0.0425 1.1425 0.1600
v -0.0775 1.1425 0.1600
v -0.0775 1.1775 0.1600
v -0.0425 1.1775 0.1600
f 702/6 701/6 700/6 699/6
v -0.5052 1.0099 0.0635
v -0.4907 1.0301 0.0611
v -0.1907 0.8101 0.0111
v -0.2052 0.7899 0.0135
f 706/22 705/22 704/22 703/22
v -0.2093 0.7899 -0.0111
v -0.1948 0.8101 -0.0135
v -0.4948 1.0301 0.0365
v -0.5093 1.0099 0.0389
f 710/22 709/22 708/22 707/22
v -0.2052 0.7899 0.0135
v -0.2093 0.7899 -0.0111
v -0.5093 1.0099 0.0389
v -0.5052 1.0099 0.0635
f 714/22 713/22 712/22 711/22
v -0.4907 1.0301 0.0611
v -0.4948 1.0301 0.0365
v -0.1948 0.8101 -0.0135
v -0.1907 0.8101 0.0111
f 718/22 717/22 716/22 715/22
v -0.1907 0.8101 0.0111
v -0.1948 0.8101 -0.0135
v -0.2093 0.7899 -0.0111
v -0.2052 0.7899 0.0135
f 722/22 721/22 720/22 719/22
v -0.5052 1.0099 0.0635
v -0.5093 1.0099 0.0389
v -0.4948 1.0301 0.0365
v -0.4907 1.0301 0.0611
f 726/22 725/22 724/22 723/22
v -0.5111 1.0953 0.0040
v -0.4978 1.1047 0.0116
v -0.4278 0.9747 0.0516
v -0.4411 0.9653 0.0440
f 730/22 729/22 728/22 727/22
v -0.4322 0.9653 0.0284
v -0.4189 0.9747 0.0360
v -0.4889 1.1047 -0.0040
v -0.5022 1.0953 -0.0116
f 734/22 733/22 732/22 731/22
v -0.4411 0.9653 0.0440
v -0.4322 0.9653 0.0284
v -0.5022 1.0953 -0.0116
v -0.5111 1.0953 0.0040
f 738/22 737/22 736/22 735/22
v -0.4978 1.1047 0.0116
v -0.4889 1.1047 -0.0040
v -0.4189 0.9747 0.0360
v -0.4278 0.9747 0.0516
f 742/22 741/22 740/22 739/22
v -0.4278 0.9747 0.0516
v -0.4189 0.9747 0.0360
v -0.4322 0.9653 0.0284
v -0.4411 0.9653 0.0440
f 746/22 745/22 744/22 743/22
v -0.5111 1.0953 0.0040
v -0.5022 1.0953 -0.0116
v -0.4889 1.1047 -0.0040
v -0.4978 1.1047 0.0116
f 750/22 749/22 748/22 747/22
v 0.0175 0.6025 0.2350
v 0.0175 0.6375 0.2350
v 0.0175 0.6375 0.2150
v 0.0175 0.6025 0.2150
f 754/6 753/6 752/6 751/6
v -0.0175 0.6025 0.2150
v -0.0175 0.6375 0.2150
v -0.0175 0.6375 0.2350
v -0.0175 0.6025 0.2350
f 758/6 757/6 756/6 755/6
v 0.0175 0.6025 0.2150
v -0.0175 0.6025 0.2150
v -0.0175 0.6025 0.2350
v 0.0175 0.6025 0.2350
f 762/6 761/6 760/6 759/6
v 0.0175 0.6375 0.2350
v -0.0175 0.6375 0.2350
v -0.0175 0.6375 0.2150
v 0.0175 0.6375 0.2150
f 766/6 765/6 764/6 763/6
v 0.0175 0.6375 0.2150
v -0.0175 0.6375 0.2150
v -0.0175 0.6025 0.2150
v 0.0175 0.6025 0.2150
f 770/6 769/6 768/6 767/6
v 0.0175 0.6025 0.2350
v -0.0175 0.6025 0.2350
v -0.0175 0.6375 0.2350
v 0.0175 0.6375 0.2350
f 774/6 773/6 772/6 771/6
v 0.0175 0.7225 0.2350
v 0.0175 0.7575 0.2350
v 0.0175 0.7575 0.2150
v 0.0175 0.7225 0.2150
f 778/6 777/6 776/6 775/6
v -0.0175 0.7225 0.2150
v -0.0175 0.7575 0.2150
v -0.0175 0.7575 0.2350
v -0.0175 0.7225 0.2350
f 782/6 781/6 780/6 779/6
v 0.0175 0.7225 0.2150
v -0.0175 0.7225 0.2150
v -0.0175 0.7225 0.2350
v 0.0175 0.7225 0.2350
f 786/6 785/6 784/6 783/6
v 0.0175 0.7575 0.2350
v -0.0175 0.7575 0.2350
v -0.0175 0.7575 0.2150
v 0.0175 0.7575 0.2150
f 790/6 789/6 788/6 787/6
v 0.0175 0.7575 0.2150
v -0.0175 0.7575 0.2150
v -0.0175 0.7225 0.2150
v 0.0175 0.7225 0.2150
f 794/6 793/6 792/6 791/6
v 0.0175 0.7225 0.2350
v -0.0175 0.7225 0.2350
v -0.0175 0.7575 0.2350
v 0.0175 0.7575 0.2350
f 798/6 797/6 796/6 795/6
v 0.0175 0.8425 0.2350
v 0.0175 0.8775 0.2350
v 0.0175 0.8775 0.2150
v 0.0175 0.8425 0.2150
f 802/6 801/6 800/6 799/6
v -0.0175 0.8425 0.2150
v -0.0175 0.8775 0.2150
v -0.0175 0.8775 0.2350
v -0.0175 0.8425 0.2350
f 806/6 805/6 804/6 803/6
v 0.0175 0.8425 0.2150
v -0.0175 0.8425 0.2150
v -0.0175 0.8425 0.2350
v 0.0175 0.8425 0.2350
f 810/6 809/6 808/6 807/6
v 0.0175 0.8775 0.2350
v -0.0175 0.8775 0.2350
v -0.0175 0.8775 0.2150
v 0.0175 0.8775 0.2150
f 814/6 813/6 812/6 811/6
v 0.0175 0.8775 0.2150
v -0.0175 0.8775 0.2150
v -0.0175 0.8425 0.2150
v 0.0175 0.8425 0.2150
f 818/6 817/6 816/6 815/6
v 0.0175 0.8425 0.2350
v -0.0175 0.8425 0.2350
v -0.0175 0.8775 0.2350
v 0.0175 0.8775 0.2350
f 822/6 821/6 820/6 819/6
v -0.0587 0.9200 0.1807
v -0.1537 0.9200 0.1117
v -0.1537 0.9900 0.1117
v -0.0587 0.9900 0.1807
f 826/27 825/27 824/27 823/27
v -0.1537 0.9200 0.1117
v -0.1900 0.9200 0.0000
v -0.1900 0.9900 0.0000
v -0.1537 0.9900 0.1117
f 830/27 829/27 828/27 827/27
v -0.1900 0.9200 0.0000
v -0.1537 0.9200 -0.1117
v -0.1537 0.9900 -0.1117
v -0.1900 0.9900 0.0000
f 834/27 833/27 832/27 831/27
v -0.1537 0.9200 -0.1117
v -0.0587 0.9200 -0.1807
v -0.0587 0.9900 -0.1807
v -0.1537 0.9900 -0.1117
f 838/27 837/27 836/27 835/27
v -0.0587 0.9200 -0.1807
v 0.0587 0.9200 -0.1807
v 0.0587 0.9900 -0.1807
v -0.0587 0.9900 -0.1807
f 842/27 841/27 840/27 839/27
v 0.0587 0.9200 -0.1807
v 0.1537 0.9200 -0.1117
v 0.1537 0.9900 -0.1117
v 0.0587 0.9900 -0.1807
f 846/27 845/27 844/27 843/27
v 0.1537 0.9200 -0.1117
v 0.1900 0.9200 -0.0000
v 0.1900 0.9900 -0.0000
v 0.1537 0.9900 -0.1117
f 850/27 849/27 848/27 847/27
v 0.1900 0.9200 -0.0000
v 0.1537 0.9200 0.1117
v 0.1537 0.9900 0.1117
v 0.1900 0.9900 -0.0000
f 854/27 853/27 852/27 851/27
v 0.1537 0.9200 0.1117
v 0.0587 0.9200 0.1807
v 0.0587 0.9900 0.1807
v 0.1537 0.9900 0.1117
f 858/27 857/27 856/27 855/27
v 0.0587 0.9200 0.1807
v -0.0587 0.9200 0.1807
v -0.0587 0.9900 0.1807
v 0.0587 0.9900 0.1807
f 862/27 861/27 860/27 859/27
v 0.0587 0.9200 0.1807
v 0.1537 0.9200 0.1117
v 0.1900 0.9200 -0.0000
v 0.1537 0.9200 -0.1117
v 0.0587 0.9200 -0.1807
v -0.0587 0.9200 -0.1807
v -0.1537 0.9200 -0.1117
v -0.1900 0.9200 0.0000
v -0.1537 0.9200 0.1117
v -0.0587 0.9200 0.1807
f 872/27 871/27 870/27 869/27 868/27 867/27 866/27 865/27 864/27 863/27
v -0.0587 0.9900 0.1807
v -0.1537 0.9900 0.1117
v -0.1900 0.9900 0.0000
v -0.1537 0.9900 -0.1117
v -0.0587 0.9900 -0.1807
v 0.0587 0.9900 -0.1807
v 0.1537 0.9900 -0.1117
v 0.1900 0.9900 -0.0000
v 0.1537 0.9900 0.1117
v 0.0587 0.9900 0.1807
f 882/27 881/27 880/27 879/27 878/27 877/27 876/27 875/27 874/27 873/27
v -0.0762 0.7444 0.1650
v -0.0450 0.9217 0.1650
v -0.0450 0.9217 0.1350
v -0.0762 0.7444 0.1350
f 886/27 885/27 884/27 883/27
v -0.1550 0.7583 0.1350
v -0.1238 0.9356 0.1350
v -0.1238 0.9356 0.1650
v -0.1550 0.7583 0.1650
f 890/27 889/27 888/27 887/27
v -0.0762 0.7444 0.1350
v -0.1550 0.7583 0.1350
v -0.1550 0.7583 0.1650
v -0.0762 0.7444 0.1650
f 894/27 893/27 892/27 891/27
v -0.0450 0.9217 0.1650
v -0.1238 0.9356 0.1650
v -0.1238 0.9356 0.1350
v -0.0450 0.9217 0.1350
f 898/27 897/27 896/27 895/27
v -0.0450 0.9217 0.1350
v -0.1238 0.9356 0.1350
v -0.1550 0.7583 0.1350
v -0.0762 0.7444 0.1350
f 902/27 901/27 900/27 899/27
v -0.0762 0.7444 0.1650
v -0.1550 0.7583 0.1650
v -0.1238 0.9356 0.1650
v -0.0450 0.9217 0.1650
f 906/27 905/27 904/27 903/27
v -0.0587 1.2300 0.1807
v -0.1537 1.2300 0.1117
v -0.1537 1.2500 0.1117
v -0.0587 1.2500 0.1807
f 910/6 909/6 908/6 907/6
v -0.1537 1.2300 0.1117
v -0.1900 1.2300 0.0000
v -0.1900 1.2500 0.0000
v -0.1537 1.2500 0.1117
f 914/6 913/6 912/6 911/6
v -0.1900 1.2300 0.0000
v -0.1537 1.2300 -0.1117
v -0.1537 1.2500 -0.1117
v -0.1900 1.2500 0.0000
f 918/6 917/6 916/6 915/6
v -0.1537 1.2300 -0.1117
v -0.0587 1.2300 -0.1807
v -0.0587 1.2500 -0.1807
v -0.1537 1.2500 -0.1117
f 922/6 921/6 920/6 919/6
v -0.0587 1.2300 -0.1807
v 0.0587 1.2300 -0.1807
v 0.0587 1.2500 -0.1807
v -0.0587 1.2500 -0.1807
f 926/6 925/6 924/6 923/6
v 0.0587 1.2300 -0.1807
v 0.1537 1.2300 -0.1117
v 0.1537 1.2500 -0.1117
v 0.0587 1.2500 -0.1807
f 930/6 929/6 928/6 927/6
v 0.1537 1.2300 -0.1117
v 0.1900 1.2300 -0.0000
v 0.1900 1.2500 -0.0000
v 0.1537 1.2500 -0.1117
f 934/6 933/6 932/6 931/6
v 0.1900 1.2300 -0.0000
v 0.1537 1.2300 0.1117
v 0.1537 1.2500 0.1117
v 0.1900 1.2500 -0.0000
f 938/6 937/6 936/6 935/6
v 0.1537 1.2300 0.1117
v 0.0587 1.2300 0.1807
v 0.0587 1.2500 0.1807
v 0.1537 1.2500 0.1117
f 942/6 941/6 940/6 939/6
v 0.0587 1.2300 0.1807
v -0.0587 1.2300 0.1807
v -0.0587 1.2500 0.1807
v 0.0587 1.2500 0.1807
f 946/6 945/6 944/6 943/6
v 0.0587 1.2300 0.1807
v 0.1537 1.2300 0.1117
v 0.1900 1.2300 -0.0000
v 0.1537 1.2300 -0.1117
v 0.0587 1.2300 -0.1807
v -0.0587 1.2300 -0.1807
v -0.1537 1.2300 -0.1117
v -0.1900 1.2300 0.0000
v -0.1537 1.2300 0.1117
v -0.0587 1.2300 0.1807
f 956/6 955/6 954/6 953/6 952/6 951/6 950/6 949/6 948/6 947/6
v -0.0587 1.2500 0.1807
v -0.1537 1.2500 0.1117
v -0.1900 1.2500 0.0000
v -0.1537 1.2500 -0.1117
v -0.0587 1.2500 -0.1807
v 0.0587 1.2500 -0.1807
v 0.1537 1.2500 -0.1117
v 0.1900 1.2500 -0.0000
v 0.1537 1.2500 0.1117
v 0.0587 1.2500 0.1807
f 966/6 965/6 964/6 963/6 962/6 961/6 960/6 959/6 958/6 957/6
v -0.0402 1.2500 0.1236
v -0.1052 1.2500 0.0764
v -0.1052 1.4500 0.0764
v -0.0402 1.4500 0.1236
f 970/6 969/6 968/6 967/6
v -0.1052 1.2500 0.0764
v -0.1300 1.2500 0.0000
v -0.1300 1.4500 0.0000
v -0.1052 1.4500 0.0764
f 974/6 973/6 972/6 971/6
v -0.1300 1.2500 0.0000
v -0.1052 1.2500 -0.0764
v -0.1052 1.4500 -0.0764
v -0.1300 1.4500 0.0000
f 978/6 977/6 976/6 975/6
v -0.1052 1.2500 -0.0764
v -0.0402 1.2500 -0.1236
v -0.0402 1.4500 -0.1236
v -0.1052 1.4500 -0.0764
f 982/6 981/6 980/6 979/6
v -0.0402 1.2500 -0.1236
v 0.0402 1.2500 -0.1236
v 0.0402 1.4500 -0.1236
v -0.0402 1.4500 -0.1236
f 986/6 985/6 984/6 983/6
v 0.0402 1.2500 -0.1236
v 0.1052 1.2500 -0.0764
v 0.1052 1.4500 -0.0764
v 0.0402 1.4500 -0.1236
f 990/6 989/6 988/6 987/6
v 0.1052 1.2500 -0.0764
v 0.1300 1.2500 -0.0000
v 0.1300 1.4500 -0.0000
v 0.1052 1.4500 -0.0764
f 994/6 993/6 992/6 991/6
v 0.1300 1.2500 -0.0000
v 0.1052 1.2500 0.0764
v 0.1052 1.4500 0.0764
v 0.1300 1.4500 -0.0000
f 998/6 997/6 996/6 995/6
v 0.1052 1.2500 0.0764
v 0.0402 1.2500 0.1236
v 0.0402 1.4500 0.1236
v 0.1052 1.4500 0.0764
f 1002/6 1001/6 1000/6 999/6
v 0.0402 1.2500 0.1236
v -0.0402 1.2500 0.1236
v -0.0402 1.4500 0.1236
v 0.0402 1.4500 0.1236
f 1006/6 1005/6 1004/6 1003/6
v 0.0402 1.2500 0.1236
v 0.1052 1.2500 0.0764
v 0.1300 1.2500 -0.0000
v 0.1052 1.2500 -0.0764
v 0.0402 1.2500 -0.1236
v -0.0402 1.2500 -0.1236
v -0.1052 1.2500 -0.0764
v -0.1300 1.2500 0.0000
v -0.1052 1.2500 0.0764
v -0.0402 1.2500 0.1236
f 1016/6 1015/6 1014/6 1013/6 1012/6 1011/6 1010/6 1009/6 1008/6 1007/6
v -0.0402 1.4500 0.1236
v -0.1052 1.4500 0.0764
v -0.1300 1.4500 0.0000
v -0.1052 1.4500 -0.0764
v -0.0402 1.4500 -0.1236
v 0.0402 1.4500 -0.1236
v 0.1052 1.4500 -0.0764
v 0.1300 1.4500 -0.0000
v 0.1052 1.4500 0.0764
v 0.0402 1.4500 0.1236
f 1026/6 1025/6 1024/6 1023/6 1022/6 1021/6 1020/6 1019/6 1018/6 1017/6
v -0.0417 1.2700 0.1284
v -0.1092 1.2700 0.0794
v -0.1092 1.3000 0.0794
v -0.0417 1.3000 0.1284
f 1030/27 1029/27 1028/27 1027/27
v -0.1092 1.2700 0.0794
v -0.1350 1.2700 0.0000
v -0.1350 1.3000 0.0000
v -0.1092 1.3000 0.0794
f 1034/27 1033/27 1032/27 1031/27
v -0.1350 1.2700 0.0000
v -0.1092 1.2700 -0.0794
v -0.1092 1.3000 -0.0794
v -0.1350 1.3000 0.0000
f 1038/27 1037/27 1036/27 1035/27
v -0.1092 1.2700 -0.0794
v -0.0417 1.2700 -0.1284
v -0.0417 1.3000 -0.1284
v -0.1092 1.3000 -0.0794
f 1042/27 1041/27 1040/27 1039/27
v -0.0417 1.2700 -0.1284
v 0.0417 1.2700 -0.1284
v 0.0417 1.3000 -0.1284
v -0.0417 1.3000 -0.1284
f 1046/27 1045/27 1044/27 1043/27
v 0.0417 1.2700 -0.1284
v 0.1092 1.2700 -0.0794
v 0.1092 1.3000 -0.0794
v 0.0417 1.3000 -0.1284
f 1050/27 1049/27 1048/27 1047/27
v 0.1092 1.2700 -0.0794
v 0.1350 1.2700 -0.0000
v 0.1350 1.3000 -0.0000
v 0.1092 1.3000 -0.0794
f 1054/27 1053/27 1052/27 1051/27
v 0.1350 1.2700 -0.0000
v 0.1092 1.2700 0.0794
v 0.1092 1.3000 0.0794
v 0.1350 1.3000 -0.0000
f 1058/27 1057/27 1056/27 1055/27
v 0.1092 1.2700 0.0794
v 0.0417 1.2700 0.1284
v 0.0417 1.3000 0.1284
v 0.1092 1.3000 0.0794
f 1062/27 1061/27 1060/27 1059/27
v 0.0417 1.2700 0.1284
v -0.0417 1.2700 0.1284
v -0.0417 1.3000 0.1284
v 0.0417 1.3000 0.1284
f 1066/27 1065/27 1064/27 1063/27
v 0.0417 1.2700 0.1284
v 0.1092 1.2700 0.0794
v 0.1350 1.2700 -0.0000
v 0.1092 1.2700 -0.0794
v 0.0417 1.2700 -0.1284
v -0.0417 1.2700 -0.1284
v -0.1092 1.2700 -0.0794
v -0.1350 1.2700 0.0000
v -0.1092 1.2700 0.0794
v -0.0417 1.2700 0.1284
f 1076/27 1075/27 1074/27 1073/27 1072/27 1071/27 1070/27 1069/27 1068/27 1067/27
v -0.0417 1.3000 0.1284
v -0.1092 1.3000 0.0794
v -0.1350 1.3000 0.0000
v -0.1092 1.3000 -0.0794
v -0.0417 1.3000 -0.1284
v 0.0417 1.3000 -0.1284
v 0.1092 1.3000 -0.0794
v 0.1350 1.3000 -0.0000
v 0.1092 1.3000 0.0794
v 0.0417 1.3000 0.1284
f 1086/27 1085/27 1084/27 1083/27 1082/27 1081/27 1080/27 1079/27 1078/27 1077/27
