# Walk of Industry low-poly (generated, wi_lib.py)
mtllib wi.mtl
vt 0 0
vt 0.03125 0.03125
vt 0.09375 0.03125
vt 0.15625 0.03125
vt 0.21875 0.03125
vt 0.28125 0.03125
vt 0.34375 0.03125
vt 0.40625 0.03125
vt 0.46875 0.03125
vt 0.53125 0.03125
vt 0.59375 0.03125
vt 0.65625 0.03125
vt 0.71875 0.03125
vt 0.78125 0.03125
vt 0.84375 0.03125
vt 0.90625 0.03125
vt 0.96875 0.03125
vt 0.03125 0.09375
vt 0.09375 0.09375
vt 0.15625 0.09375
vt 0.21875 0.09375
vt 0.28125 0.09375
vt 0.34375 0.09375
vt 0.40625 0.09375
vt 0.46875 0.09375
vt 0.53125 0.09375
vt 0.59375 0.09375
vt 0.65625 0.09375
vt 0.71875 0.09375
vt 0.78125 0.09375
vt 0.84375 0.09375
vt 0.90625 0.09375
vt 0.96875 0.09375
o Body
usemtl wi_palette
v -0.0000 0.0153 0.1330
v -0.0000 0.0370 0.1547
v -1.6400 0.0370 0.1547
v -1.6400 0.0153 0.1330
f 4/15 3/15 2/15 1/15
v -0.0000 0.0370 0.1547
v -0.0000 0.0370 0.1853
v -1.6400 0.0370 0.1853
v -1.6400 0.0370 0.1547
f 8/15 7/15 6/15 5/15
v -0.0000 0.0370 0.1853
v -0.0000 0.0153 0.2070
v -1.6400 0.0153 0.2070
v -1.6400 0.0370 0.1853
f 12/15 11/15 10/15 9/15
v -0.0000 0.0153 0.2070
v -0.0000 -0.0153 0.2070
v -1.6400 -0.0153 0.2070
v -1.6400 0.0153 0.2070
f 16/15 15/15 14/15 13/15
v -0.0000 -0.0153 0.2070
v -0.0000 -0.0370 0.1853
v -1.6400 -0.0370 0.1853
v -1.6400 -0.0153 0.2070
f 20/15 19/15 18/15 17/15
v -0.0000 -0.0370 0.1853
v -0.0000 -0.0370 0.1547
v -1.6400 -0.0370 0.1547
v -1.6400 -0.0370 0.1853
f 24/15 23/15 22/15 21/15
v -0.0000 -0.0370 0.1547
v -0.0000 -0.0153 0.1330
v -1.6400 -0.0153 0.1330
v -1.6400 -0.0370 0.1547
f 28/15 27/15 26/15 25/15
v -0.0000 -0.0153 0.1330
v -0.0000 0.0153 0.1330
v -1.6400 0.0153 0.1330
v -1.6400 -0.0153 0.1330
f 32/15 31/15 30/15 29/15
v -0.0000 -0.0153 0.1330
v -0.0000 -0.0370 0.1547
v -0.0000 -0.0370 0.1853
v -0.0000 -0.0153 0.2070
v -0.0000 0.0153 0.2070
v -0.0000 0.0370 0.1853
v -0.0000 0.0370 0.1547
v -0.0000 0.0153 0.1330
f 40/15 39/15 38/15 37/15 36/15 35/15 34/15 33/15
v -1.6400 0.0153 0.1330
v -1.6400 0.0370 0.1547
v -1.6400 0.0370 0.1853
v -1.6400 0.0153 0.2070
v -1.6400 -0.0153 0.2070
v -1.6400 -0.0370 0.1853
v -1.6400 -0.0370 0.1547
v -1.6400 -0.0153 0.1330
f 48/15 47/15 46/15 45/15 44/15 43/15 42/15 41/15
v -0.2200 0.0165 0.1303
v -0.2200 0.0397 0.1535
v -0.3800 0.0397 0.1535
v -0.3800 0.0165 0.1303
f 52/27 51/27 50/27 49/27
v -0.2200 0.0397 0.1535
v -0.2200 0.0397 0.1865
v -0.3800 0.0397 0.1865
v -0.3800 0.0397 0.1535
f 56/27 55/27 54/27 53/27
v -0.2200 0.0397 0.1865
v -0.2200 0.0165 0.2097
v -0.3800 0.0165 0.2097
v -0.3800 0.0397 0.1865
f 60/27 59/27 58/27 57/27
v -0.2200 0.0165 0.2097
v -0.2200 -0.0165 0.2097
v -0.3800 -0.0165 0.2097
v -0.3800 0.0165 0.2097
f 64/27 63/27 62/27 61/27
v -0.2200 -0.0165 0.2097
v -0.2200 -0.0397 0.1865
v -0.3800 -0.0397 0.1865
v -0.3800 -0.0165 0.2097
f 68/27 67/27 66/27 65/27
v -0.2200 -0.0397 0.1865
v -0.2200 -0.0397 0.1535
v -0.3800 -0.0397 0.1535
v -0.3800 -0.0397 0.1865
f 72/27 71/27 70/27 69/27
v -0.2200 -0.0397 0.1535
v -0.2200 -0.0165 0.1303
v -0.3800 -0.0165 0.1303
v -0.3800 -0.0397 0.1535
f 76/27 75/27 74/27 73/27
v -0.2200 -0.0165 0.1303
v -0.2200 0.0165 0.1303
v -0.3800 0.0165 0.1303
v -0.3800 -0.0165 0.1303
f 80/27 79/27 78/27 77/27
v -0.2200 -0.0165 0.1303
v -0.2200 -0.0397 0.1535
v -0.2200 -0.0397 0.1865
v -0.2200 -0.0165 0.2097
v -0.2200 0.0165 0.2097
v -0.2200 0.0397 0.1865
v -0.2200 0.0397 0.1535
v -0.2200 0.0165 0.1303
f 88/27 87/27 86/27 85/27 84/27 83/27 82/27 81/27
v -0.3800 0.0165 0.1303
v -0.3800 0.0397 0.1535
v -0.3800 0.0397 0.1865
v -0.3800 0.0165 0.2097
v -0.3800 -0.0165 0.2097
v -0.3800 -0.0397 0.1865
v -0.3800 -0.0397 0.1535
v -0.3800 -0.0165 0.1303
f 96/27 95/27 94/27 93/27 92/27 91/27 90/27 89/27
v -0.5400 0.0165 0.1303
v -0.5400 0.0397 0.1535
v -0.7000 0.0397 0.1535
v -0.7000 0.0165 0.1303
f 100/27 99/27 98/27 97/27
v -0.5400 0.0397 0.1535
v -0.5400 0.0397 0.1865
v -0.7000 0.0397 0.1865
v -0.7000 0.0397 0.1535
f 104/27 103/27 102/27 101/27
v -0.5400 0.0397 0.1865
v -0.5400 0.0165 0.2097
v -0.7000 0.0165 0.2097
v -0.7000 0.0397 0.1865
f 108/27 107/27 106/27 105/27
v -0.5400 0.0165 0.2097
v -0.5400 -0.0165 0.2097
v -0.7000 -0.0165 0.2097
v -0.7000 0.0165 0.2097
f 112/27 111/27 110/27 109/27
v -0.5400 -0.0165 0.2097
v -0.5400 -0.0397 0.1865
v -0.7000 -0.0397 0.1865
v -0.7000 -0.0165 0.2097
f 116/27 115/27 114/27 113/27
v -0.5400 -0.0397 0.1865
v -0.5400 -0.0397 0.1535
v -0.7000 -0.0397 0.1535
v -0.7000 -0.0397 0.1865
f 120/27 119/27 118/27 117/27
v -0.5400 -0.0397 0.1535
v -0.5400 -0.0165 0.1303
v -0.7000 -0.0165 0.1303
v -0.7000 -0.0397 0.1535
f 124/27 123/27 122/27 121/27
v -0.5400 -0.0165 0.1303
v -0.5400 0.0165 0.1303
v -0.7000 0.0165 0.1303
v -0.7000 -0.0165 0.1303
f 128/27 127/27 126/27 125/27
v -0.5400 -0.0165 0.1303
v -0.5400 -0.0397 0.1535
v -0.5400 -0.0397 0.1865
v -0.5400 -0.0165 0.2097
v -0.5400 0.0165 0.2097
v -0.5400 0.0397 0.1865
v -0.5400 0.0397 0.1535
v -0.5400 0.0165 0.1303
f 136/27 135/27 134/27 133/27 132/27 131/27 130/27 129/27
v -0.7000 0.0165 0.1303
v -0.7000 0.0397 0.1535
v -0.7000 0.0397 0.1865
v -0.7000 0.0165 0.2097
v -0.7000 -0.0165 0.2097
v -0.7000 -0.0397 0.1865
v -0.7000 -0.0397 0.1535
v -0.7000 -0.0165 0.1303
f 144/27 143/27 142/27 141/27 140/27 139/27 138/27 137/27
v -0.8600 0.0165 0.1303
v -0.8600 0.0397 0.1535
v -1.0200 0.0397 0.1535
v -1.0200 0.0165 0.1303
f 148/27 147/27 146/27 145/27
v -0.8600 0.0397 0.1535
v -0.8600 0.0397 0.1865
v -1.0200 0.0397 0.1865
v -1.0200 0.0397 0.1535
f 152/27 151/27 150/27 149/27
v -0.8600 0.0397 0.1865
v -0.8600 0.0165 0.2097
v -1.0200 0.0165 0.2097
v -1.0200 0.0397 0.1865
f 156/27 155/27 154/27 153/27
v -0.8600 0.0165 0.2097
v -0.8600 -0.0165 0.2097
v -1.0200 -0.0165 0.2097
v -1.0200 0.0165 0.2097
f 160/27 159/27 158/27 157/27
v -0.8600 -0.0165 0.2097
v -0.8600 -0.0397 0.1865
v -1.0200 -0.0397 0.1865
v -1.0200 -0.0165 0.2097
f 164/27 163/27 162/27 161/27
v -0.8600 -0.0397 0.1865
v -0.8600 -0.0397 0.1535
v -1.0200 -0.0397 0.1535
v -1.0200 -0.0397 0.1865
f 168/27 167/27 166/27 165/27
v -0.8600 -0.0397 0.1535
v -0.8600 -0.0165 0.1303
v -1.0200 -0.0165 0.1303
v -1.0200 -0.0397 0.1535
f 172/27 171/27 170/27 169/27
v -0.8600 -0.0165 0.1303
v -0.8600 0.0165 0.1303
v -1.0200 0.0165 0.1303
v -1.0200 -0.0165 0.1303
f 176/27 175/27 174/27 173/27
v -0.8600 -0.0165 0.1303
v -0.8600 -0.0397 0.1535
v -0.8600 -0.0397 0.1865
v -0.8600 -0.0165 0.2097
v -0.8600 0.0165 0.2097
v -0.8600 0.0397 0.1865
v -0.8600 0.0397 0.1535
v -0.8600 0.0165 0.1303
f 184/27 183/27 182/27 181/27 180/27 179/27 178/27 177/27
v -1.0200 0.0165 0.1303
v -1.0200 0.0397 0.1535
v -1.0200 0.0397 0.1865
v -1.0200 0.0165 0.2097
v -1.0200 -0.0165 0.2097
v -1.0200 -0.0397 0.1865
v -1.0200 -0.0397 0.1535
v -1.0200 -0.0165 0.1303
f 192/27 191/27 190/27 189/27 188/27 187/27 186/27 185/27
v -1.1800 0.0165 0.1303
v -1.1800 0.0397 0.1535
v -1.3400 0.0397 0.1535
v -1.3400 0.0165 0.1303
f 196/27 195/27 194/27 193/27
v -1.1800 0.0397 0.1535
v -1.1800 0.0397 0.1865
v -1.3400 0.0397 0.1865
v -1.3400 0.0397 0.1535
f 200/27 199/27 198/27 197/27
v -1.1800 0.0397 0.1865
v -1.1800 0.0165 0.2097
v -1.3400 0.0165 0.2097
v -1.3400 0.0397 0.1865
f 204/27 203/27 202/27 201/27
v -1.1800 0.0165 0.2097
v -1.1800 -0.0165 0.2097
v -1.3400 -0.0165 0.2097
v -1.3400 0.0165 0.2097
f 208/27 207/27 206/27 205/27
v -1.1800 -0.0165 0.2097
v -1.1800 -0.0397 0.1865
v -1.3400 -0.0397 0.1865
v -1.3400 -0.0165 0.2097
f 212/27 211/27 210/27 209/27
v -1.1800 -0.0397 0.1865
v -1.1800 -0.0397 0.1535
v -1.3400 -0.0397 0.1535
v -1.3400 -0.0397 0.1865
f 216/27 215/27 214/27 213/27
v -1.1800 -0.0397 0.1535
v -1.1800 -0.0165 0.1303
v -1.3400 -0.0165 0.1303
v -1.3400 -0.0397 0.1535
f 220/27 219/27 218/27 217/27
v -1.1800 -0.0165 0.1303
v -1.1800 0.0165 0.1303
v -1.3400 0.0165 0.1303
v -1.3400 -0.0165 0.1303
f 224/27 223/27 222/27 221/27
v -1.1800 -0.0165 0.1303
v -1.1800 -0.0397 0.1535
v -1.1800 -0.0397 0.1865
v -1.1800 -0.0165 0.2097
v -1.1800 0.0165 0.2097
v -1.1800 0.0397 0.1865
v -1.1800 0.0397 0.1535
v -1.1800 0.0165 0.1303
f 232/27 231/27 230/27 229/27 228/27 227/27 226/27 225/27
v -1.3400 0.0165 0.1303
v -1.3400 0.0397 0.1535
v -1.3400 0.0397 0.1865
v -1.3400 0.0165 0.2097
v -1.3400 -0.0165 0.2097
v -1.3400 -0.0397 0.1865
v -1.3400 -0.0397 0.1535
v -1.3400 -0.0165 0.1303
f 240/27 239/27 238/27 237/27 236/27 235/27 234/27 233/27
v -1.5000 0.0165 0.1303
v -1.5000 0.0397 0.1535
v -1.6600 0.0397 0.1535
v -1.6600 0.0165 0.1303
f 244/27 243/27 242/27 241/27
v -1.5000 0.0397 0.1535
v -1.5000 0.0397 0.1865
v -1.6600 0.0397 0.1865
v -1.6600 0.0397 0.1535
f 248/27 247/27 246/27 245/27
v -1.5000 0.0397 0.1865
v -1.5000 0.0165 0.2097
v -1.6600 0.0165 0.2097
v -1.6600 0.0397 0.1865
f 252/27 251/27 250/27 249/27
v -1.5000 0.0165 0.2097
v -1.5000 -0.0165 0.2097
v -1.6600 -0.0165 0.2097
v -1.6600 0.0165 0.2097
f 256/27 255/27 254/27 253/27
v -1.5000 -0.0165 0.2097
v -1.5000 -0.0397 0.1865
v -1.6600 -0.0397 0.1865
v -1.6600 -0.0165 0.2097
f 260/27 259/27 258/27 257/27
v -1.5000 -0.0397 0.1865
v -1.5000 -0.0397 0.1535
v -1.6600 -0.0397 0.1535
v -1.6600 -0.0397 0.1865
f 264/27 263/27 262/27 261/27
v -1.5000 -0.0397 0.1535
v -1.5000 -0.0165 0.1303
v -1.6600 -0.0165 0.1303
v -1.6600 -0.0397 0.1535
f 268/27 267/27 266/27 265/27
v -1.5000 -0.0165 0.1303
v -1.5000 0.0165 0.1303
v -1.6600 0.0165 0.1303
v -1.6600 -0.0165 0.1303
f 272/27 271/27 270/27 269/27
v -1.5000 -0.0165 0.1303
v -1.5000 -0.0397 0.1535
v -1.5000 -0.0397 0.1865
v -1.5000 -0.0165 0.2097
v -1.5000 0.0165 0.2097
v -1.5000 0.0397 0.1865
v -1.5000 0.0397 0.1535
v -1.5000 0.0165 0.1303
f 280/27 279/27 278/27 277/27 276/27 275/27 274/27 273/27
v -1.6600 0.0165 0.1303
v -1.6600 0.0397 0.1535
v -1.6600 0.0397 0.1865
v -1.6600 0.0165 0.2097
v -1.6600 -0.0165 0.2097
v -1.6600 -0.0397 0.1865
v -1.6600 -0.0397 0.1535
v -1.6600 -0.0165 0.1303
f 288/27 287/27 286/27 285/27 284/27 283/27 282/27 281/27
v 0.0600 -0.0600 0.1700
v 0.0600 0.0600 0.1700
v 0.0600 0.0600 0.0700
v 0.0600 -0.0600 0.0700
f 292/6 291/6 290/6 289/6
v -0.0600 -0.0600 0.0700
v -0.0600 0.0600 0.0700
v -0.0600 0.0600 0.1700
v -0.0600 -0.0600 0.1700
f 296/6 295/6 294/6 293/6
v 0.0600 -0.0600 0.0700
v -0.0600 -0.0600 0.0700
v -0.0600 -0.0600 0.1700
v 0.0600 -0.0600 0.1700
f 300/6 299/6 298/6 297/6
v 0.0600 0.0600 0.1700
v -0.0600 0.0600 0.1700
v -0.0600 0.0600 0.0700
v 0.0600 0.0600 0.0700
f 304/6 303/6 302/6 301/6
v 0.0600 0.0600 0.0700
v -0.0600 0.0600 0.0700
v -0.0600 -0.0600 0.0700
v 0.0600 -0.0600 0.0700
f 308/6 307/6 306/6 305/6
v 0.0600 -0.0600 0.1700
v -0.0600 -0.0600 0.1700
v -0.0600 0.0600 0.1700
v 0.0600 0.0600 0.1700
f 312/6 311/6 310/6 309/6
