# Walk of Industry low-poly (generated, wi_lib.py)
mtllib wi.mtl
vt 0 0
vt 0.03125 0.03125
vt 0.09375 0.03125
vt 0.15625 0.03125
vt 0.21875 0.03125
vt 0.28125 0.03125
vt 0.34375 0.03125
vt 0.40625 0.03125
vt 0.46875 0.03125
vt 0.53125 0.03125
vt 0.59375 0.03125
vt 0.65625 0.03125
vt 0.71875 0.03125
vt 0.78125 0.03125
vt 0.84375 0.03125
vt 0.90625 0.03125
vt 0.96875 0.03125
vt 0.03125 0.09375
vt 0.09375 0.09375
vt 0.15625 0.09375
vt 0.21875 0.09375
vt 0.28125 0.09375
vt 0.34375 0.09375
vt 0.40625 0.09375
vt 0.46875 0.09375
vt 0.53125 0.09375
vt 0.59375 0.09375
vt 0.65625 0.09375
vt 0.71875 0.09375
vt 0.78125 0.09375
vt 0.84375 0.09375
vt 0.90625 0.09375
vt 0.96875 0.09375
o Body
usemtl wi_paint
v 0.0500 0.9000 -0.4300
v 0.0500 0.9400 -0.4300
v 0.0500 0.9400 -0.5100
v 0.0500 0.9000 -0.5100
f 4/1 3/1 2/1 1/1
v -0.0500 0.9000 -0.5100
v -0.0500 0.9400 -0.5100
v -0.0500 0.9400 -0.4300
v -0.0500 0.9000 -0.4300
f 8/1 7/1 6/1 5/1
v 0.0500 0.9000 -0.5100
v -0.0500 0.9000 -0.5100
v -0.0500 0.9000 -0.4300
v 0.0500 0.9000 -0.4300
f 12/1 11/1 10/1 9/1
v 0.0500 0.9400 -0.4300
v -0.0500 0.9400 -0.4300
v -0.0500 0.9400 -0.5100
v 0.0500 0.9400 -0.5100
f 16/1 15/1 14/1 13/1
v 0.0500 0.9400 -0.5100
v -0.0500 0.9400 -0.5100
v -0.0500 0.9000 -0.5100
v 0.0500 0.9000 -0.5100
f 20/1 19/1 18/1 17/1
v 0.0500 0.9000 -0.4300
v -0.0500 0.9000 -0.4300
v -0.0500 0.9400 -0.4300
v 0.0500 0.9400 -0.4300
f 24/1 23/1 22/1 21/1
v 0.0500 0.9000 0.5100
v 0.0500 0.9400 0.5100
v 0.0500 0.9400 0.4300
v 0.0500 0.9000 0.4300
f 28/1 27/1 26/1 25/1
v -0.0500 0.9000 0.4300
v -0.0500 0.9400 0.4300
v -0.0500 0.9400 0.5100
v -0.0500 0.9000 0.5100
f 32/1 31/1 30/1 29/1
v 0.0500 0.9000 0.4300
v -0.0500 0.9000 0.4300
v -0.0500 0.9000 0.5100
v 0.0500 0.9000 0.5100
f 36/1 35/1 34/1 33/1
v 0.0500 0.9400 0.5100
v -0.0500 0.9400 0.5100
v -0.0500 0.9400 0.4300
v 0.0500 0.9400 0.4300
f 40/1 39/1 38/1 37/1
v 0.0500 0.9400 0.4300
v -0.0500 0.9400 0.4300
v -0.0500 0.9000 0.4300
v 0.0500 0.9000 0.4300
f 44/1 43/1 42/1 41/1
v 0.0500 0.9000 0.5100
v -0.0500 0.9000 0.5100
v -0.0500 0.9400 0.5100
v 0.0500 0.9400 0.5100
f 48/1 47/1 46/1 45/1
v 0.0250 0.2400 0.5000
v 0.0250 0.3200 0.5000
v 0.0250 0.3200 -0.5000
v 0.0250 0.2400 -0.5000
f 52/1 51/1 50/1 49/1
v -0.0250 0.2400 -0.5000
v -0.0250 0.3200 -0.5000
v -0.0250 0.3200 0.5000
v -0.0250 0.2400 0.5000
f 56/1 55/1 54/1 53/1
v 0.0250 0.2400 -0.5000
v -0.0250 0.2400 -0.5000
v -0.0250 0.2400 0.5000
v 0.0250 0.2400 0.5000
f 60/1 59/1 58/1 57/1
v 0.0250 0.3200 0.5000
v -0.0250 0.3200 0.5000
v -0.0250 0.3200 -0.5000
v 0.0250 0.3200 -0.5000
f 64/1 63/1 62/1 61/1
v 0.0250 0.3200 -0.5000
v -0.0250 0.3200 -0.5000
v -0.0250 0.2400 -0.5000
v 0.0250 0.2400 -0.5000
f 68/1 67/1 66/1 65/1
v 0.0250 0.2400 0.5000
v -0.0250 0.2400 0.5000
v -0.0250 0.3200 0.5000
v 0.0250 0.3200 0.5000
f 72/1 71/1 70/1 69/1
v 0.0250 0.6600 0.5000
v 0.0250 0.7400 0.5000
v 0.0250 0.7400 -0.5000
v 0.0250 0.6600 -0.5000
f 76/1 75/1 74/1 73/1
v -0.0250 0.6600 -0.5000
v -0.0250 0.7400 -0.5000
v -0.0250 0.7400 0.5000
v -0.0250 0.6600 0.5000
f 80/1 79/1 78/1 77/1
v 0.0250 0.6600 -0.5000
v -0.0250 0.6600 -0.5000
v -0.0250 0.6600 0.5000
v 0.0250 0.6600 0.5000
f 84/1 83/1 82/1 81/1
v 0.0250 0.7400 0.5000
v -0.0250 0.7400 0.5000
v -0.0250 0.7400 -0.5000
v 0.0250 0.7400 -0.5000
f 88/1 87/1 86/1 85/1
v 0.0250 0.7400 -0.5000
v -0.0250 0.7400 -0.5000
v -0.0250 0.6600 -0.5000
v 0.0250 0.6600 -0.5000
f 92/1 91/1 90/1 89/1
v 0.0250 0.6600 0.5000
v -0.0250 0.6600 0.5000
v -0.0250 0.7400 0.5000
v 0.0250 0.7400 0.5000
f 96/1 95/1 94/1 93/1
usemtl wi_palette
v 0.0400 0.0000 -0.4400
v 0.0400 0.9000 -0.4400
v 0.0400 0.9000 -0.5000
v 0.0400 0.0000 -0.5000
f 100/22 99/22 98/22 97/22
v -0.0400 0.0000 -0.5000
v -0.0400 0.9000 -0.5000
v -0.0400 0.9000 -0.4400
v -0.0400 0.0000 -0.4400
f 104/22 103/22 102/22 101/22
v 0.0400 0.0000 -0.5000
v -0.0400 0.0000 -0.5000
v -0.0400 0.0000 -0.4400
v 0.0400 0.0000 -0.4400
f 108/22 107/22 106/22 105/22
v 0.0400 0.9000 -0.4400
v -0.0400 0.9000 -0.4400
v -0.0400 0.9000 -0.5000
v 0.0400 0.9000 -0.5000
f 112/22 111/22 110/22 109/22
v 0.0400 0.9000 -0.5000
v -0.0400 0.9000 -0.5000
v -0.0400 0.0000 -0.5000
v 0.0400 0.0000 -0.5000
f 116/22 115/22 114/22 113/22
v 0.0400 0.0000 -0.4400
v -0.0400 0.0000 -0.4400
v -0.0400 0.9000 -0.4400
v 0.0400 0.9000 -0.4400
f 120/22 119/22 118/22 117/22
v 0.0400 0.0000 0.5000
v 0.0400 0.9000 0.5000
v 0.0400 0.9000 0.4400
v 0.0400 0.0000 0.4400
f 124/22 123/22 122/22 121/22
v -0.0400 0.0000 0.4400
v -0.0400 0.9000 0.4400
v -0.0400 0.9000 0.5000
v -0.0400 0.0000 0.5000
f 128/22 127/22 126/22 125/22
v 0.0400 0.0000 0.4400
v -0.0400 0.0000 0.4400
v -0.0400 0.0000 0.5000
v 0.0400 0.0000 0.5000
f 132/22 131/22 130/22 129/22
v 0.0400 0.9000 0.5000
v -0.0400 0.9000 0.5000
v -0.0400 0.9000 0.4400
v 0.0400 0.9000 0.4400
f 136/22 135/22 134/22 133/22
v 0.0400 0.9000 0.4400
v -0.0400 0.9000 0.4400
v -0.0400 0.0000 0.4400
v 0.0400 0.0000 0.4400
f 140/22 139/22 138/22 137/22
v 0.0400 0.0000 0.5000
v -0.0400 0.0000 0.5000
v -0.0400 0.9000 0.5000
v 0.0400 0.9000 0.5000
f 144/22 143/22 142/22 141/22
v -0.0200 0.0600 -0.2700
v -0.0200 0.7800 -0.2700
v -0.0200 0.7800 -0.3700
v -0.0200 0.0600 -0.3700
f 148/22 147/22 146/22 145/22
v -0.0500 0.0600 -0.3700
v -0.0500 0.7800 -0.3700
v -0.0500 0.7800 -0.2700
v -0.0500 0.0600 -0.2700
f 152/22 151/22 150/22 149/22
v -0.0200 0.0600 -0.3700
v -0.0500 0.0600 -0.3700
v -0.0500 0.0600 -0.2700
v -0.0200 0.0600 -0.2700
f 156/22 155/22 154/22 153/22
v -0.0200 0.7800 -0.2700
v -0.0500 0.7800 -0.2700
v -0.0500 0.7800 -0.3700
v -0.0200 0.7800 -0.3700
f 160/22 159/22 158/22 157/22
v -0.0200 0.7800 -0.3700
v -0.0500 0.7800 -0.3700
v -0.0500 0.0600 -0.3700
v -0.0200 0.0600 -0.3700
f 164/22 163/22 162/22 161/22
v -0.0200 0.0600 -0.2700
v -0.0500 0.0600 -0.2700
v -0.0500 0.7800 -0.2700
v -0.0200 0.7800 -0.2700
f 168/22 167/22 166/22 165/22
v -0.0200 0.7800 -0.2850
v -0.0200 0.8400 -0.2850
v -0.0200 0.8400 -0.3550
v -0.0200 0.7800 -0.3550
f 172/22 171/22 170/22 169/22
v -0.0500 0.7800 -0.3550
v -0.0500 0.8400 -0.3550
v -0.0500 0.8400 -0.2850
v -0.0500 0.7800 -0.2850
f 176/22 175/22 174/22 173/22
v -0.0200 0.7800 -0.3550
v -0.0500 0.7800 -0.3550
v -0.0500 0.7800 -0.2850
v -0.0200 0.7800 -0.2850
f 180/22 179/22 178/22 177/22
v -0.0200 0.8400 -0.2850
v -0.0500 0.8400 -0.2850
v -0.0500 0.8400 -0.3550
v -0.0200 0.8400 -0.3550
f 184/22 183/22 182/22 181/22
v -0.0200 0.8400 -0.3550
v -0.0500 0.8400 -0.3550
v -0.0500 0.7800 -0.3550
v -0.0200 0.7800 -0.3550
f 188/22 187/22 186/22 185/22
v -0.0200 0.7800 -0.2850
v -0.0500 0.7800 -0.2850
v -0.0500 0.8400 -0.2850
v -0.0200 0.8400 -0.2850
f 192/22 191/22 190/22 189/22
v -0.0200 0.0600 -0.1100
v -0.0200 0.7800 -0.1100
v -0.0200 0.7800 -0.2100
v -0.0200 0.0600 -0.2100
f 196/22 195/22 194/22 193/22
v -0.0500 0.0600 -0.2100
v -0.0500 0.7800 -0.2100
v -0.0500 0.7800 -0.1100
v -0.0500 0.0600 -0.1100
f 200/22 199/22 198/22 197/22
v -0.0200 0.0600 -0.2100
v -0.0500 0.0600 -0.2100
v -0.0500 0.0600 -0.1100
v -0.0200 0.0600 -0.1100
f 204/22 203/22 202/22 201/22
v -0.0200 0.7800 -0.1100
v -0.0500 0.7800 -0.1100
v -0.0500 0.7800 -0.2100
v -0.0200 0.7800 -0.2100
f 208/22 207/22 206/22 205/22
v -0.0200 0.7800 -0.2100
v -0.0500 0.7800 -0.2100
v -0.0500 0.0600 -0.2100
v -0.0200 0.0600 -0.2100
f 212/22 211/22 210/22 209/22
v -0.0200 0.0600 -0.1100
v -0.0500 0.0600 -0.1100
v -0.0500 0.7800 -0.1100
v -0.0200 0.7800 -0.1100
f 216/22 215/22 214/22 213/22
v -0.0200 0.7800 -0.1250
v -0.0200 0.8400 -0.1250
v -0.0200 0.8400 -0.1950
v -0.0200 0.7800 -0.1950
f 220/22 219/22 218/22 217/22
v -0.0500 0.7800 -0.1950
v -0.0500 0.8400 -0.1950
v -0.0500 0.8400 -0.1250
v -0.0500 0.7800 -0.1250
f 224/22 223/22 222/22 221/22
v -0.0200 0.7800 -0.1950
v -0.0500 0.7800 -0.1950
v -0.0500 0.7800 -0.1250
v -0.0200 0.7800 -0.1250
f 228/22 227/22 226/22 225/22
v -0.0200 0.8400 -0.1250
v -0.0500 0.8400 -0.1250
v -0.0500 0.8400 -0.1950
v -0.0200 0.8400 -0.1950
f 232/22 231/22 230/22 229/22
v -0.0200 0.8400 -0.1950
v -0.0500 0.8400 -0.1950
v -0.0500 0.7800 -0.1950
v -0.0200 0.7800 -0.1950
f 236/22 235/22 234/22 233/22
v -0.0200 0.7800 -0.1250
v -0.0500 0.7800 -0.1250
v -0.0500 0.8400 -0.1250
v -0.0200 0.8400 -0.1250
f 240/22 239/22 238/22 237/22
v -0.0200 0.0600 0.0500
v -0.0200 0.7800 0.0500
v -0.0200 0.7800 -0.0500
v -0.0200 0.0600 -0.0500
f 244/22 243/22 242/22 241/22
v -0.0500 0.0600 -0.0500
v -0.0500 0.7800 -0.0500
v -0.0500 0.7800 0.0500
v -0.0500 0.0600 0.0500
f 248/22 247/22 246/22 245/22
v -0.0200 0.0600 -0.0500
v -0.0500 0.0600 -0.0500
v -0.0500 0.0600 0.0500
v -0.0200 0.0600 0.0500
f 252/22 251/22 250/22 249/22
v -0.0200 0.7800 0.0500
v -0.0500 0.7800 0.0500
v -0.0500 0.7800 -0.0500
v -0.0200 0.7800 -0.0500
f 256/22 255/22 254/22 253/22
v -0.0200 0.7800 -0.0500
v -0.0500 0.7800 -0.0500
v -0.0500 0.0600 -0.0500
v -0.0200 0.0600 -0.0500
f 260/22 259/22 258/22 257/22
v -0.0200 0.0600 0.0500
v -0.0500 0.0600 0.0500
v -0.0500 0.7800 0.0500
v -0.0200 0.7800 0.0500
f 264/22 263/22 262/22 261/22
v -0.0200 0.7800 0.0350
v -0.0200 0.8400 0.0350
v -0.0200 0.8400 -0.0350
v -0.0200 0.7800 -0.0350
f 268/22 267/22 266/22 265/22
v -0.0500 0.7800 -0.0350
v -0.0500 0.8400 -0.0350
v -0.0500 0.8400 0.0350
v -0.0500 0.7800 0.0350
f 272/22 271/22 270/22 269/22
v -0.0200 0.7800 -0.0350
v -0.0500 0.7800 -0.0350
v -0.0500 0.7800 0.0350
v -0.0200 0.7800 0.0350
f 276/22 275/22 274/22 273/22
v -0.0200 0.8400 0.0350
v -0.0500 0.8400 0.0350
v -0.0500 0.8400 -0.0350
v -0.0200 0.8400 -0.0350
f 280/22 279/22 278/22 277/22
v -0.0200 0.8400 -0.0350
v -0.0500 0.8400 -0.0350
v -0.0500 0.7800 -0.0350
v -0.0200 0.7800 -0.0350
f 284/22 283/22 282/22 281/22
v -0.0200 0.7800 0.0350
v -0.0500 0.7800 0.0350
v -0.0500 0.8400 0.0350
v -0.0200 0.8400 0.0350
f 288/22 287/22 286/22 285/22
v -0.0200 0.0600 0.2100
v -0.0200 0.7800 0.2100
v -0.0200 0.7800 0.1100
v -0.0200 0.0600 0.1100
f 292/22 291/22 290/22 289/22
v -0.0500 0.0600 0.1100
v -0.0500 0.7800 0.1100
v -0.0500 0.7800 0.2100
v -0.0500 0.0600 0.2100
f 296/22 295/22 294/22 293/22
v -0.0200 0.0600 0.1100
v -0.0500 0.0600 0.1100
v -0.0500 0.0600 0.2100
v -0.0200 0.0600 0.2100
f 300/22 299/22 298/22 297/22
v -0.0200 0.7800 0.2100
v -0.0500 0.7800 0.2100
v -0.0500 0.7800 0.1100
v -0.0200 0.7800 0.1100
f 304/22 303/22 302/22 301/22
v -0.0200 0.7800 0.1100
v -0.0500 0.7800 0.1100
v -0.0500 0.0600 0.1100
v -0.0200 0.0600 0.1100
f 308/22 307/22 306/22 305/22
v -0.0200 0.0600 0.2100
v -0.0500 0.0600 0.2100
v -0.0500 0.7800 0.2100
v -0.0200 0.7800 0.2100
f 312/22 311/22 310/22 309/22
v -0.0200 0.7800 0.1950
v -0.0200 0.8400 0.1950
v -0.0200 0.8400 0.1250
v -0.0200 0.7800 0.1250
f 316/22 315/22 314/22 313/22
v -0.0500 0.7800 0.1250
v -0.0500 0.8400 0.1250
v -0.0500 0.8400 0.1950
v -0.0500 0.7800 0.1950
f 320/22 319/22 318/22 317/22
v -0.0200 0.7800 0.1250
v -0.0500 0.7800 0.1250
v -0.0500 0.7800 0.1950
v -0.0200 0.7800 0.1950
f 324/22 323/22 322/22 321/22
v -0.0200 0.8400 0.1950
v -0.0500 0.8400 0.1950
v -0.0500 0.8400 0.1250
v -0.0200 0.8400 0.1250
f 328/22 327/22 326/22 325/22
v -0.0200 0.8400 0.1250
v -0.0500 0.8400 0.1250
v -0.0500 0.7800 0.1250
v -0.0200 0.7800 0.1250
f 332/22 331/22 330/22 329/22
v -0.0200 0.7800 0.1950
v -0.0500 0.7800 0.1950
v -0.0500 0.8400 0.1950
v -0.0200 0.8400 0.1950
f 336/22 335/22 334/22 333/22
v -0.0200 0.0600 0.3700
v -0.0200 0.7800 0.3700
v -0.0200 0.7800 0.2700
v -0.0200 0.0600 0.2700
f 340/22 339/22 338/22 337/22
v -0.0500 0.0600 0.2700
v -0.0500 0.7800 0.2700
v -0.0500 0.7800 0.3700
v -0.0500 0.0600 0.3700
f 344/22 343/22 342/22 341/22
v -0.0200 0.0600 0.2700
v -0.0500 0.0600 0.2700
v -0.0500 0.0600 0.3700
v -0.0200 0.0600 0.3700
f 348/22 347/22 346/22 345/22
v -0.0200 0.7800 0.3700
v -0.0500 0.7800 0.3700
v -0.0500 0.7800 0.2700
v -0.0200 0.7800 0.2700
f 352/22 351/22 350/22 349/22
v -0.0200 0.7800 0.2700
v -0.0500 0.7800 0.2700
v -0.0500 0.0600 0.2700
v -0.0200 0.0600 0.2700
f 356/22 355/22 354/22 353/22
v -0.0200 0.0600 0.3700
v -0.0500 0.0600 0.3700
v -0.0500 0.7800 0.3700
v -0.0200 0.7800 0.3700
f 360/22 359/22 358/22 357/22
v -0.0200 0.7800 0.3550
v -0.0200 0.8400 0.3550
v -0.0200 0.8400 0.2850
v -0.0200 0.7800 0.2850
f 364/22 363/22 362/22 361/22
v -0.0500 0.7800 0.2850
v -0.0500 0.8400 0.2850
v -0.0500 0.8400 0.3550
v -0.0500 0.7800 0.3550
f 368/22 367/22 366/22 365/22
v -0.0200 0.7800 0.2850
v -0.0500 0.7800 0.2850
v -0.0500 0.7800 0.3550
v -0.0200 0.7800 0.3550
f 372/22 371/22 370/22 369/22
v -0.0200 0.8400 0.3550
v -0.0500 0.8400 0.3550
v -0.0500 0.8400 0.2850
v -0.0200 0.8400 0.2850
f 376/22 375/22 374/22 373/22
v -0.0200 0.8400 0.2850
v -0.0500 0.8400 0.2850
v -0.0500 0.7800 0.2850
v -0.0200 0.7800 0.2850
f 380/22 379/22 378/22 377/22
v -0.0200 0.7800 0.3550
v -0.0500 0.7800 0.3550
v -0.0500 0.8400 0.3550
v -0.0200 0.8400 0.3550
f 384/22 383/22 382/22 381/22
