# Walk of Industry low-poly (generated, wi_lib.py)
mtllib wi.mtl
vt 0 0
vt 0.03125 0.03125
vt 0.09375 0.03125
vt 0.15625 0.03125
vt 0.21875 0.03125
vt 0.28125 0.03125
vt 0.34375 0.03125
vt 0.40625 0.03125
vt 0.46875 0.03125
vt 0.53125 0.03125
vt 0.59375 0.03125
vt 0.65625 0.03125
vt 0.71875 0.03125
vt 0.78125 0.03125
vt 0.84375 0.03125
vt 0.90625 0.03125
vt 0.96875 0.03125
vt 0.03125 0.09375
vt 0.09375 0.09375
vt 0.15625 0.09375
vt 0.21875 0.09375
vt 0.28125 0.09375
vt 0.34375 0.09375
vt 0.40625 0.09375
vt 0.46875 0.09375
vt 0.53125 0.09375
vt 0.59375 0.09375
vt 0.65625 0.09375
vt 0.71875 0.09375
vt 0.78125 0.09375
vt 0.84375 0.09375
vt 0.90625 0.09375
vt 0.96875 0.09375
o Body
usemtl wi_palette
v 0.3300 0.5235 -0.3864
v 0.3300 0.7028 -0.2828
v 0.2700 0.7028 -0.2828
v 0.2700 0.5235 -0.3864
f 4/22 3/22 2/22 1/22
v 0.3300 0.7028 -0.2828
v 0.3300 0.8064 -0.1035
v 0.2700 0.8064 -0.1035
v 0.2700 0.7028 -0.2828
f 8/22 7/22 6/22 5/22
v 0.3300 0.8064 -0.1035
v 0.3300 0.8064 0.1035
v 0.2700 0.8064 0.1035
v 0.2700 0.8064 -0.1035
f 12/22 11/22 10/22 9/22
v 0.3300 0.8064 0.1035
v 0.3300 0.7028 0.2828
v 0.2700 0.7028 0.2828
v 0.2700 0.8064 0.1035
f 16/22 15/22 14/22 13/22
v 0.3300 0.7028 0.2828
v 0.3300 0.5235 0.3864
v 0.2700 0.5235 0.3864
v 0.2700 0.7028 0.2828
f 20/22 19/22 18/22 17/22
v 0.3300 0.5235 0.3864
v 0.3300 0.3165 0.3864
v 0.2700 0.3165 0.3864
v 0.2700 0.5235 0.3864
f 24/22 23/22 22/22 21/22
v 0.3300 0.3165 0.3864
v 0.3300 0.1372 0.2828
v 0.2700 0.1372 0.2828
v 0.2700 0.3165 0.3864
f 28/22 27/22 26/22 25/22
v 0.3300 0.1372 0.2828
v 0.3300 0.0336 0.1035
v 0.2700 0.0336 0.1035
v 0.2700 0.1372 0.2828
f 32/22 31/22 30/22 29/22
v 0.3300 0.0336 0.1035
v 0.3300 0.0336 -0.1035
v 0.2700 0.0336 -0.1035
v 0.2700 0.0336 0.1035
f 36/22 35/22 34/22 33/22
v 0.3300 0.0336 -0.1035
v 0.3300 0.1372 -0.2828
v 0.2700 0.1372 -0.2828
v 0.2700 0.0336 -0.1035
f 40/22 39/22 38/22 37/22
v 0.3300 0.1372 -0.2828
v 0.3300 0.3165 -0.3864
v 0.2700 0.3165 -0.3864
v 0.2700 0.1372 -0.2828
f 44/22 43/22 42/22 41/22
v 0.3300 0.3165 -0.3864
v 0.3300 0.5235 -0.3864
v 0.2700 0.5235 -0.3864
v 0.2700 0.3165 -0.3864
f 48/22 47/22 46/22 45/22
v 0.3300 0.3165 -0.3864
v 0.3300 0.1372 -0.2828
v 0.3300 0.0336 -0.1035
v 0.3300 0.0336 0.1035
v 0.3300 0.1372 0.2828
v 0.3300 0.3165 0.3864
v 0.3300 0.5235 0.3864
v 0.3300 0.7028 0.2828
v 0.3300 0.8064 0.1035
v 0.3300 0.8064 -0.1035
v 0.3300 0.7028 -0.2828
v 0.3300 0.5235 -0.3864
f 60/22 59/22 58/22 57/22 56/22 55/22 54/22 53/22 52/22 51/22 50/22 49/22
v 0.2700 0.5235 -0.3864
v 0.2700 0.7028 -0.2828
v 0.2700 0.8064 -0.1035
v 0.2700 0.8064 0.1035
v 0.2700 0.7028 0.2828
v 0.2700 0.5235 0.3864
v 0.2700 0.3165 0.3864
v 0.2700 0.1372 0.2828
v 0.2700 0.0336 0.1035
v 0.2700 0.0336 -0.1035
v 0.2700 0.1372 -0.2828
v 0.2700 0.3165 -0.3864
f 72/22 71/22 70/22 69/22 68/22 67/22 66/22 65/22 64/22 63/22 62/22 61/22
v 0.3350 0.4583 -0.0924
v 0.3350 0.5124 -0.0383
v 0.2650 0.5124 -0.0383
v 0.2650 0.4583 -0.0924
f 76/6 75/6 74/6 73/6
v 0.3350 0.5124 -0.0383
v 0.3350 0.5124 0.0383
v 0.2650 0.5124 0.0383
v 0.2650 0.5124 -0.0383
f 80/6 79/6 78/6 77/6
v 0.3350 0.5124 0.0383
v 0.3350 0.4583 0.0924
v 0.2650 0.4583 0.0924
v 0.2650 0.5124 0.0383
f 84/6 83/6 82/6 81/6
v 0.3350 0.4583 0.0924
v 0.3350 0.3817 0.0924
v 0.2650 0.3817 0.0924
v 0.2650 0.4583 0.0924
f 88/6 87/6 86/6 85/6
v 0.3350 0.3817 0.0924
v 0.3350 0.3276 0.0383
v 0.2650 0.3276 0.0383
v 0.2650 0.3817 0.0924
f 92/6 91/6 90/6 89/6
v 0.3350 0.3276 0.0383
v 0.3350 0.3276 -0.0383
v 0.2650 0.3276 -0.0383
v 0.2650 0.3276 0.0383
f 96/6 95/6 94/6 93/6
v 0.3350 0.3276 -0.0383
v 0.3350 0.3817 -0.0924
v 0.2650 0.3817 -0.0924
v 0.2650 0.3276 -0.0383
f 100/6 99/6 98/6 97/6
v 0.3350 0.3817 -0.0924
v 0.3350 0.4583 -0.0924
v 0.2650 0.4583 -0.0924
v 0.2650 0.3817 -0.0924
f 104/6 103/6 102/6 101/6
v 0.3350 0.3817 -0.0924
v 0.3350 0.3276 -0.0383
v 0.3350 0.3276 0.0383
v 0.3350 0.3817 0.0924
v 0.3350 0.4583 0.0924
v 0.3350 0.5124 0.0383
v 0.3350 0.5124 -0.0383
v 0.3350 0.4583 -0.0924
f 112/6 111/6 110/6 109/6 108/6 107/6 106/6 105/6
v 0.2650 0.4583 -0.0924
v 0.2650 0.5124 -0.0383
v 0.2650 0.5124 0.0383
v 0.2650 0.4583 0.0924
v 0.2650 0.3817 0.0924
v 0.2650 0.3276 0.0383
v 0.2650 0.3276 -0.0383
v 0.2650 0.3817 -0.0924
f 120/6 119/6 118/6 117/6 116/6 115/6 114/6 113/6
v -0.2700 0.5235 -0.3864
v -0.2700 0.7028 -0.2828
v -0.3300 0.7028 -0.2828
v -0.3300 0.5235 -0.3864
f 124/22 123/22 122/22 121/22
v -0.2700 0.7028 -0.2828
v -0.2700 0.8064 -0.1035
v -0.3300 0.8064 -0.1035
v -0.3300 0.7028 -0.2828
f 128/22 127/22 126/22 125/22
v -0.2700 0.8064 -0.1035
v -0.2700 0.8064 0.1035
v -0.3300 0.8064 0.1035
v -0.3300 0.8064 -0.1035
f 132/22 131/22 130/22 129/22
v -0.2700 0.8064 0.1035
v -0.2700 0.7028 0.2828
v -0.3300 0.7028 0.2828
v -0.3300 0.8064 0.1035
f 136/22 135/22 134/22 133/22
v -0.2700 0.7028 0.2828
v -0.2700 0.5235 0.3864
v -0.3300 0.5235 0.3864
v -0.3300 0.7028 0.2828
f 140/22 139/22 138/22 137/22
v -0.2700 0.5235 0.3864
v -0.2700 0.3165 0.3864
v -0.3300 0.3165 0.3864
v -0.3300 0.5235 0.3864
f 144/22 143/22 142/22 141/22
v -0.2700 0.3165 0.3864
v -0.2700 0.1372 0.2828
v -0.3300 0.1372 0.2828
v -0.3300 0.3165 0.3864
f 148/22 147/22 146/22 145/22
v -0.2700 0.1372 0.2828
v -0.2700 0.0336 0.1035
v -0.3300 0.0336 0.1035
v -0.3300 0.1372 0.2828
f 152/22 151/22 150/22 149/22
v -0.2700 0.0336 0.1035
v -0.2700 0.0336 -0.1035
v -0.3300 0.0336 -0.1035
v -0.3300 0.0336 0.1035
f 156/22 155/22 154/22 153/22
v -0.2700 0.0336 -0.1035
v -0.2700 0.1372 -0.2828
v -0.3300 0.1372 -0.2828
v -0.3300 0.0336 -0.1035
f 160/22 159/22 158/22 157/22
v -0.2700 0.1372 -0.2828
v -0.2700 0.3165 -0.3864
v -0.3300 0.3165 -0.3864
v -0.3300 0.1372 -0.2828
f 164/22 163/22 162/22 161/22
v -0.2700 0.3165 -0.3864
v -0.2700 0.5235 -0.3864
v -0.3300 0.5235 -0.3864
v -0.3300 0.3165 -0.3864
f 168/22 167/22 166/22 165/22
v -0.2700 0.3165 -0.3864
v -0.2700 0.1372 -0.2828
v -0.2700 0.0336 -0.1035
v -0.2700 0.0336 0.1035
v -0.2700 0.1372 0.2828
v -0.2700 0.3165 0.3864
v -0.2700 0.5235 0.3864
v -0.2700 0.7028 0.2828
v -0.2700 0.8064 0.1035
v -0.2700 0.8064 -0.1035
v -0.2700 0.7028 -0.2828
v -0.2700 0.5235 -0.3864
f 180/22 179/22 178/22 177/22 176/22 175/22 174/22 173/22 172/22 171/22 170/22 169/22
v -0.3300 0.5235 -0.3864
v -0.3300 0.7028 -0.2828
v -0.3300 0.8064 -0.1035
v -0.3300 0.8064 0.1035
v -0.3300 0.7028 0.2828
v -0.3300 0.5235 0.3864
v -0.3300 0.3165 0.3864
v -0.3300 0.1372 0.2828
v -0.3300 0.0336 0.1035
v -0.3300 0.0336 -0.1035
v -0.3300 0.1372 -0.2828
v -0.3300 0.3165 -0.3864
f 192/22 191/22 190/22 189/22 188/22 187/22 186/22 185/22 184/22 183/22 182/22 181/22
v -0.2650 0.4583 -0.0924
v -0.2650 0.5124 -0.0383
v -0.3350 0.5124 -0.0383
v -0.3350 0.4583 -0.0924
f 196/6 195/6 194/6 193/6
v -0.2650 0.5124 -0.0383
v -0.2650 0.5124 0.0383
v -0.3350 0.5124 0.0383
v -0.3350 0.5124 -0.0383
f 200/6 199/6 198/6 197/6
v -0.2650 0.5124 0.0383
v -0.2650 0.4583 0.0924
v -0.3350 0.4583 0.0924
v -0.3350 0.5124 0.0383
f 204/6 203/6 202/6 201/6
v -0.2650 0.4583 0.0924
v -0.2650 0.3817 0.0924
v -0.3350 0.3817 0.0924
v -0.3350 0.4583 0.0924
f 208/6 207/6 206/6 205/6
v -0.2650 0.3817 0.0924
v -0.2650 0.3276 0.0383
v -0.3350 0.3276 0.0383
v -0.3350 0.3817 0.0924
f 212/6 211/6 210/6 209/6
v -0.2650 0.3276 0.0383
v -0.2650 0.3276 -0.0383
v -0.3350 0.3276 -0.0383
v -0.3350 0.3276 0.0383
f 216/6 215/6 214/6 213/6
v -0.2650 0.3276 -0.0383
v -0.2650 0.3817 -0.0924
v -0.3350 0.3817 -0.0924
v -0.3350 0.3276 -0.0383
f 220/6 219/6 218/6 217/6
v -0.2650 0.3817 -0.0924
v -0.2650 0.4583 -0.0924
v -0.3350 0.4583 -0.0924
v -0.3350 0.3817 -0.0924
f 224/6 223/6 222/6 221/6
v -0.2650 0.3817 -0.0924
v -0.2650 0.3276 -0.0383
v -0.2650 0.3276 0.0383
v -0.2650 0.3817 0.0924
v -0.2650 0.4583 0.0924
v -0.2650 0.5124 0.0383
v -0.2650 0.5124 -0.0383
v -0.2650 0.4583 -0.0924
f 232/6 231/6 230/6 229/6 228/6 227/6 226/6 225/6
v -0.3350 0.4583 -0.0924
v -0.3350 0.5124 -0.0383
v -0.3350 0.5124 0.0383
v -0.3350 0.4583 0.0924
v -0.3350 0.3817 0.0924
v -0.3350 0.3276 0.0383
v -0.3350 0.3276 -0.0383
v -0.3350 0.3817 -0.0924
f 240/6 239/6 238/6 237/6 236/6 235/6 234/6 233/6
v 0.2700 0.5054 -0.3188
v 0.2700 0.6533 -0.2333
v -0.2700 0.6533 -0.2333
v -0.2700 0.5054 -0.3188
f 244/4 243/4 242/4 241/4
v 0.2700 0.6533 -0.2333
v 0.2700 0.7388 -0.0854
v -0.2700 0.7388 -0.0854
v -0.2700 0.6533 -0.2333
f 248/4 247/4 246/4 245/4
v 0.2700 0.7388 -0.0854
v 0.2700 0.7388 0.0854
v -0.2700 0.7388 0.0854
v -0.2700 0.7388 -0.0854
f 252/4 251/4 250/4 249/4
v 0.2700 0.7388 0.0854
v 0.2700 0.6533 0.2333
v -0.2700 0.6533 0.2333
v -0.2700 0.7388 0.0854
f 256/4 255/4 254/4 253/4
v 0.2700 0.6533 0.2333
v 0.2700 0.5054 0.3188
v -0.2700 0.5054 0.3188
v -0.2700 0.6533 0.2333
f 260/4 259/4 258/4 257/4
v 0.2700 0.5054 0.3188
v 0.2700 0.3346 0.3188
v -0.2700 0.3346 0.3188
v -0.2700 0.5054 0.3188
f 264/4 263/4 262/4 261/4
v 0.2700 0.3346 0.3188
v 0.2700 0.1867 0.2333
v -0.2700 0.1867 0.2333
v -0.2700 0.3346 0.3188
f 268/4 267/4 266/4 265/4
v 0.2700 0.1867 0.2333
v 0.2700 0.1012 0.0854
v -0.2700 0.1012 0.0854
v -0.2700 0.1867 0.2333
f 272/4 271/4 270/4 269/4
v 0.2700 0.1012 0.0854
v 0.2700 0.1012 -0.0854
v -0.2700 0.1012 -0.0854
v -0.2700 0.1012 0.0854
f 276/4 275/4 274/4 273/4
v 0.2700 0.1012 -0.0854
v 0.2700 0.1867 -0.2333
v -0.2700 0.1867 -0.2333
v -0.2700 0.1012 -0.0854
f 280/4 279/4 278/4 277/4
v 0.2700 0.1867 -0.2333
v 0.2700 0.3346 -0.3188
v -0.2700 0.3346 -0.3188
v -0.2700 0.1867 -0.2333
f 284/4 283/4 282/4 281/4
v 0.2700 0.3346 -0.3188
v 0.2700 0.5054 -0.3188
v -0.2700 0.5054 -0.3188
v -0.2700 0.3346 -0.3188
f 288/4 287/4 286/4 285/4
v 0.2700 0.3346 -0.3188
v 0.2700 0.1867 -0.2333
v 0.2700 0.1012 -0.0854
v 0.2700 0.1012 0.0854
v 0.2700 0.1867 0.2333
v 0.2700 0.3346 0.3188
v 0.2700 0.5054 0.3188
v 0.2700 0.6533 0.2333
v 0.2700 0.7388 0.0854
v 0.2700 0.7388 -0.0854
v 0.2700 0.6533 -0.2333
v 0.2700 0.5054 -0.3188
f 300/4 299/4 298/4 297/4 296/4 295/4 294/4 293/4 292/4 291/4 290/4 289/4
v -0.2700 0.5054 -0.3188
v -0.2700 0.6533 -0.2333
v -0.2700 0.7388 -0.0854
v -0.2700 0.7388 0.0854
v -0.2700 0.6533 0.2333
v -0.2700 0.5054 0.3188
v -0.2700 0.3346 0.3188
v -0.2700 0.1867 0.2333
v -0.2700 0.1012 0.0854
v -0.2700 0.1012 -0.0854
v -0.2700 0.1867 -0.2333
v -0.2700 0.3346 -0.3188
f 312/4 311/4 310/4 309/4 308/4 307/4 306/4 305/4 304/4 303/4 302/4 301/4
v -0.3481 0.0075 0.3711
v -0.3667 0.0325 0.4103
v -0.1867 0.7625 0.0303
v -0.1681 0.7375 -0.0089
f 316/4 315/4 314/4 313/4
v -0.2133 0.7375 -0.0303
v -0.2319 0.7625 0.0089
v -0.4119 0.0325 0.3889
v -0.3933 0.0075 0.3497
f 320/4 319/4 318/4 317/4
v -0.1681 0.7375 -0.0089
v -0.2133 0.7375 -0.0303
v -0.3933 0.0075 0.3497
v -0.3481 0.0075 0.3711
f 324/4 323/4 322/4 321/4
v -0.3667 0.0325 0.4103
v -0.4119 0.0325 0.3889
v -0.2319 0.7625 0.0089
v -0.1867 0.7625 0.0303
f 328/4 327/4 326/4 325/4
v -0.1867 0.7625 0.0303
v -0.2319 0.7625 0.0089
v -0.2133 0.7375 -0.0303
v -0.1681 0.7375 -0.0089
f 332/4 331/4 330/4 329/4
v -0.3481 0.0075 0.3711
v -0.3933 0.0075 0.3497
v -0.4119 0.0325 0.3889
v -0.3667 0.0325 0.4103
f 336/4 335/4 334/4 333/4
v -0.3400 0.0000 0.4600
v -0.3400 0.0400 0.4600
v -0.3400 0.0400 0.3800
v -0.3400 0.0000 0.3800
f 340/4 339/4 338/4 337/4
v -0.5600 0.0000 0.3800
v -0.5600 0.0400 0.3800
v -0.5600 0.0400 0.4600
v -0.5600 0.0000 0.4600
f 344/4 343/4 342/4 341/4
v -0.3400 0.0000 0.3800
v -0.5600 0.0000 0.3800
v -0.5600 0.0000 0.4600
v -0.3400 0.0000 0.4600
f 348/4 347/4 346/4 345/4
v -0.3400 0.0400 0.4600
v -0.5600 0.0400 0.4600
v -0.5600 0.0400 0.3800
v -0.3400 0.0400 0.3800
f 352/4 351/4 350/4 349/4
v -0.3400 0.0400 0.3800
v -0.5600 0.0400 0.3800
v -0.5600 0.0000 0.3800
v -0.3400 0.0000 0.3800
f 356/4 355/4 354/4 353/4
v -0.3400 0.0000 0.4600
v -0.5600 0.0000 0.4600
v -0.5600 0.0400 0.4600
v -0.3400 0.0400 0.4600
f 360/4 359/4 358/4 357/4
v 0.4400 0.0000 0.3000
v 0.4400 0.0400 0.3000
v 0.4400 0.0400 0.1800
v 0.4400 0.0000 0.1800
f 364/22 363/22 362/22 361/22
v 0.3600 0.0000 0.1800
v 0.3600 0.0400 0.1800
v 0.3600 0.0400 0.3000
v 0.3600 0.0000 0.3000
f 368/22 367/22 366/22 365/22
v 0.4400 0.0000 0.1800
v 0.3600 0.0000 0.1800
v 0.3600 0.0000 0.3000
v 0.4400 0.0000 0.3000
f 372/22 371/22 370/22 369/22
v 0.4400 0.0400 0.3000
v 0.3600 0.0400 0.3000
v 0.3600 0.0400 0.1800
v 0.4400 0.0400 0.1800
f 376/22 375/22 374/22 373/22
v 0.4400 0.0400 0.1800
v 0.3600 0.0400 0.1800
v 0.3600 0.0000 0.1800
v 0.4400 0.0000 0.1800
f 380/22 379/22 378/22 377/22
v 0.4400 0.0000 0.3000
v 0.3600 0.0000 0.3000
v 0.3600 0.0400 0.3000
v 0.4400 0.0400 0.3000
f 384/22 383/22 382/22 381/22
v 0.4400 0.0000 -0.1800
v 0.4400 0.0400 -0.1800
v 0.4400 0.0400 -0.3000
v 0.4400 0.0000 -0.3000
f 388/22 387/22 386/22 385/22
v 0.3600 0.0000 -0.3000
v 0.3600 0.0400 -0.3000
v 0.3600 0.0400 -0.1800
v 0.3600 0.0000 -0.1800
f 392/22 391/22 390/22 389/22
v 0.4400 0.0000 -0.3000
v 0.3600 0.0000 -0.3000
v 0.3600 0.0000 -0.1800
v 0.4400 0.0000 -0.1800
f 396/22 395/22 394/22 393/22
v 0.4400 0.0400 -0.1800
v 0.3600 0.0400 -0.1800
v 0.3600 0.0400 -0.3000
v 0.4400 0.0400 -0.3000
f 400/22 399/22 398/22 397/22
v 0.4400 0.0400 -0.3000
v 0.3600 0.0400 -0.3000
v 0.3600 0.0000 -0.3000
v 0.4400 0.0000 -0.3000
f 404/22 403/22 402/22 401/22
v 0.4400 0.0000 -0.1800
v 0.3600 0.0000 -0.1800
v 0.3600 0.0400 -0.1800
v 0.4400 0.0400 -0.1800
f 408/22 407/22 406/22 405/22
v -0.3600 0.0000 0.3000
v -0.3600 0.0400 0.3000
v -0.3600 0.0400 0.1800
v -0.3600 0.0000 0.1800
f 412/22 411/22 410/22 409/22
v -0.4400 0.0000 0.1800
v -0.4400 0.0400 0.1800
v -0.4400 0.0400 0.3000
v -0.4400 0.0000 0.3000
f 416/22 415/22 414/22 413/22
v -0.3600 0.0000 0.1800
v -0.4400 0.0000 0.1800
v -0.4400 0.0000 0.3000
v -0.3600 0.0000 0.3000
f 420/22 419/22 418/22 417/22
v -0.3600 0.0400 0.3000
v -0.4400 0.0400 0.3000
v -0.4400 0.0400 0.1800
v -0.3600 0.0400 0.1800
f 424/22 423/22 422/22 421/22
v -0.3600 0.0400 0.1800
v -0.4400 0.0400 0.1800
v -0.4400 0.0000 0.1800
v -0.3600 0.0000 0.1800
f 428/22 427/22 426/22 425/22
v -0.3600 0.0000 0.3000
v -0.4400 0.0000 0.3000
v -0.4400 0.0400 0.3000
v -0.3600 0.0400 0.3000
f 432/22 431/22 430/22 429/22
v -0.3600 0.0000 -0.1800
v -0.3600 0.0400 -0.1800
v -0.3600 0.0400 -0.3000
v -0.3600 0.0000 -0.3000
f 436/22 435/22 434/22 433/22
v -0.4400 0.0000 -0.3000
v -0.4400 0.0400 -0.3000
v -0.4400 0.0400 -0.1800
v -0.4400 0.0000 -0.1800
f 440/22 439/22 438/22 437/22
v -0.3600 0.0000 -0.3000
v -0.4400 0.0000 -0.3000
v -0.4400 0.0000 -0.1800
v -0.3600 0.0000 -0.1800
f 444/22 443/22 442/22 441/22
v -0.3600 0.0400 -0.1800
v -0.4400 0.0400 -0.1800
v -0.4400 0.0400 -0.3000
v -0.3600 0.0400 -0.3000
f 448/22 447/22 446/22 445/22
v -0.3600 0.0400 -0.3000
v -0.4400 0.0400 -0.3000
v -0.4400 0.0000 -0.3000
v -0.3600 0.0000 -0.3000
f 452/22 451/22 450/22 449/22
v -0.3600 0.0000 -0.1800
v -0.4400 0.0000 -0.1800
v -0.4400 0.0400 -0.1800
v -0.3600 0.0400 -0.1800
f 456/22 455/22 454/22 453/22
usemtl wi_rubber
v 0.2100 0.5067 -0.3236
v 0.2100 0.6569 -0.2369
v 0.1500 0.6569 -0.2369
v 0.1500 0.5067 -0.3236
f 460/1 459/1 458/1 457/1
v 0.2100 0.6569 -0.2369
v 0.2100 0.7436 -0.0867
v 0.1500 0.7436 -0.0867
v 0.1500 0.6569 -0.2369
f 464/1 463/1 462/1 461/1
v 0.2100 0.7436 -0.0867
v 0.2100 0.7436 0.0867
v 0.1500 0.7436 0.0867
v 0.1500 0.7436 -0.0867
f 468/1 467/1 466/1 465/1
v 0.2100 0.7436 0.0867
v 0.2100 0.6569 0.2369
v 0.1500 0.6569 0.2369
v 0.1500 0.7436 0.0867
f 472/1 471/1 470/1 469/1
v 0.2100 0.6569 0.2369
v 0.2100 0.5067 0.3236
v 0.1500 0.5067 0.3236
v 0.1500 0.6569 0.2369
f 476/1 475/1 474/1 473/1
v 0.2100 0.5067 0.3236
v 0.2100 0.3333 0.3236
v 0.1500 0.3333 0.3236
v 0.1500 0.5067 0.3236
f 480/1 479/1 478/1 477/1
v 0.2100 0.3333 0.3236
v 0.2100 0.1831 0.2369
v 0.1500 0.1831 0.2369
v 0.1500 0.3333 0.3236
f 484/1 483/1 482/1 481/1
v 0.2100 0.1831 0.2369
v 0.2100 0.0964 0.0867
v 0.1500 0.0964 0.0867
v 0.1500 0.1831 0.2369
f 488/1 487/1 486/1 485/1
v 0.2100 0.0964 0.0867
v 0.2100 0.0964 -0.0867
v 0.1500 0.0964 -0.0867
v 0.1500 0.0964 0.0867
f 492/1 491/1 490/1 489/1
v 0.2100 0.0964 -0.0867
v 0.2100 0.1831 -0.2369
v 0.1500 0.1831 -0.2369
v 0.1500 0.0964 -0.0867
f 496/1 495/1 494/1 493/1
v 0.2100 0.1831 -0.2369
v 0.2100 0.3333 -0.3236
v 0.1500 0.3333 -0.3236
v 0.1500 0.1831 -0.2369
f 500/1 499/1 498/1 497/1
v 0.2100 0.3333 -0.3236
v 0.2100 0.5067 -0.3236
v 0.1500 0.5067 -0.3236
v 0.1500 0.3333 -0.3236
f 504/1 503/1 502/1 501/1
v 0.2100 0.3333 -0.3236
v 0.2100 0.1831 -0.2369
v 0.2100 0.0964 -0.0867
v 0.2100 0.0964 0.0867
v 0.2100 0.1831 0.2369
v 0.2100 0.3333 0.3236
v 0.2100 0.5067 0.3236
v 0.2100 0.6569 0.2369
v 0.2100 0.7436 0.0867
v 0.2100 0.7436 -0.0867
v 0.2100 0.6569 -0.2369
v 0.2100 0.5067 -0.3236
f 516/1 515/1 514/1 513/1 512/1 511/1 510/1 509/1 508/1 507/1 506/1 505/1
v 0.1500 0.5067 -0.3236
v 0.1500 0.6569 -0.2369
v 0.1500 0.7436 -0.0867
v 0.1500 0.7436 0.0867
v 0.1500 0.6569 0.2369
v 0.1500 0.5067 0.3236
v 0.1500 0.3333 0.3236
v 0.1500 0.1831 0.2369
v 0.1500 0.0964 0.0867
v 0.1500 0.0964 -0.0867
v 0.1500 0.1831 -0.2369
v 0.1500 0.3333 -0.3236
f 528/1 527/1 526/1 525/1 524/1 523/1 522/1 521/1 520/1 519/1 518/1 517/1
v 0.0300 0.5067 -0.3236
v 0.0300 0.6569 -0.2369
v -0.0300 0.6569 -0.2369
v -0.0300 0.5067 -0.3236
f 532/1 531/1 530/1 529/1
v 0.0300 0.6569 -0.2369
v 0.0300 0.7436 -0.0867
v -0.0300 0.7436 -0.0867
v -0.0300 0.6569 -0.2369
f 536/1 535/1 534/1 533/1
v 0.0300 0.7436 -0.0867
v 0.0300 0.7436 0.0867
v -0.0300 0.7436 0.0867
v -0.0300 0.7436 -0.0867
f 540/1 539/1 538/1 537/1
v 0.0300 0.7436 0.0867
v 0.0300 0.6569 0.2369
v -0.0300 0.6569 0.2369
v -0.0300 0.7436 0.0867
f 544/1 543/1 542/1 541/1
v 0.0300 0.6569 0.2369
v 0.0300 0.5067 0.3236
v -0.0300 0.5067 0.3236
v -0.0300 0.6569 0.2369
f 548/1 547/1 546/1 545/1
v 0.0300 0.5067 0.3236
v 0.0300 0.3333 0.3236
v -0.0300 0.3333 0.3236
v -0.0300 0.5067 0.3236
f 552/1 551/1 550/1 549/1
v 0.0300 0.3333 0.3236
v 0.0300 0.1831 0.2369
v -0.0300 0.1831 0.2369
v -0.0300 0.3333 0.3236
f 556/1 555/1 554/1 553/1
v 0.0300 0.1831 0.2369
v 0.0300 0.0964 0.0867
v -0.0300 0.0964 0.0867
v -0.0300 0.1831 0.2369
f 560/1 559/1 558/1 557/1
v 0.0300 0.0964 0.0867
v 0.0300 0.0964 -0.0867
v -0.0300 0.0964 -0.0867
v -0.0300 0.0964 0.0867
f 564/1 563/1 562/1 561/1
v 0.0300 0.0964 -0.0867
v 0.0300 0.1831 -0.2369
v -0.0300 0.1831 -0.2369
v -0.0300 0.0964 -0.0867
f 568/1 567/1 566/1 565/1
v 0.0300 0.1831 -0.2369
v 0.0300 0.3333 -0.3236
v -0.0300 0.3333 -0.3236
v -0.0300 0.1831 -0.2369
f 572/1 571/1 570/1 569/1
v 0.0300 0.3333 -0.3236
v 0.0300 0.5067 -0.3236
v -0.0300 0.5067 -0.3236
v -0.0300 0.3333 -0.3236
f 576/1 575/1 574/1 573/1
v 0.0300 0.3333 -0.3236
v 0.0300 0.1831 -0.2369
v 0.0300 0.0964 -0.0867
v 0.0300 0.0964 0.0867
v 0.0300 0.1831 0.2369
v 0.0300 0.3333 0.3236
v 0.0300 0.5067 0.3236
v 0.0300 0.6569 0.2369
v 0.0300 0.7436 0.0867
v 0.0300 0.7436 -0.0867
v 0.0300 0.6569 -0.2369
v 0.0300 0.5067 -0.3236
f 588/1 587/1 586/1 585/1 584/1 583/1 582/1 581/1 580/1 579/1 578/1 577/1
v -0.0300 0.5067 -0.3236
v -0.0300 0.6569 -0.2369
v -0.0300 0.7436 -0.0867
v -0.0300 0.7436 0.0867
v -0.0300 0.6569 0.2369
v -0.0300 0.5067 0.3236
v -0.0300 0.3333 0.3236
v -0.0300 0.1831 0.2369
v -0.0300 0.0964 0.0867
v -0.0300 0.0964 -0.0867
v -0.0300 0.1831 -0.2369
v -0.0300 0.3333 -0.3236
f 600/1 599/1 598/1 597/1 596/1 595/1 594/1 593/1 592/1 591/1 590/1 589/1
v -0.1500 0.5067 -0.3236
v -0.1500 0.6569 -0.2369
v -0.2100 0.6569 -0.2369
v -0.2100 0.5067 -0.3236
f 604/1 603/1 602/1 601/1
v -0.1500 0.6569 -0.2369
v -0.1500 0.7436 -0.0867
v -0.2100 0.7436 -0.0867
v -0.2100 0.6569 -0.2369
f 608/1 607/1 606/1 605/1
v -0.1500 0.7436 -0.0867
v -0.1500 0.7436 0.0867
v -0.2100 0.7436 0.0867
v -0.2100 0.7436 -0.0867
f 612/1 611/1 610/1 609/1
v -0.1500 0.7436 0.0867
v -0.1500 0.6569 0.2369
v -0.2100 0.6569 0.2369
v -0.2100 0.7436 0.0867
f 616/1 615/1 614/1 613/1
v -0.1500 0.6569 0.2369
v -0.1500 0.5067 0.3236
v -0.2100 0.5067 0.3236
v -0.2100 0.6569 0.2369
f 620/1 619/1 618/1 617/1
v -0.1500 0.5067 0.3236
v -0.1500 0.3333 0.3236
v -0.2100 0.3333 0.3236
v -0.2100 0.5067 0.3236
f 624/1 623/1 622/1 621/1
v -0.1500 0.3333 0.3236
v -0.1500 0.1831 0.2369
v -0.2100 0.1831 0.2369
v -0.2100 0.3333 0.3236
f 628/1 627/1 626/1 625/1
v -0.1500 0.1831 0.2369
v -0.1500 0.0964 0.0867
v -0.2100 0.0964 0.0867
v -0.2100 0.1831 0.2369
f 632/1 631/1 630/1 629/1
v -0.1500 0.0964 0.0867
v -0.1500 0.0964 -0.0867
v -0.2100 0.0964 -0.0867
v -0.2100 0.0964 0.0867
f 636/1 635/1 634/1 633/1
v -0.1500 0.0964 -0.0867
v -0.1500 0.1831 -0.2369
v -0.2100 0.1831 -0.2369
v -0.2100 0.0964 -0.0867
f 640/1 639/1 638/1 637/1
v -0.1500 0.1831 -0.2369
v -0.1500 0.3333 -0.3236
v -0.2100 0.3333 -0.3236
v -0.2100 0.1831 -0.2369
f 644/1 643/1 642/1 641/1
v -0.1500 0.3333 -0.3236
v -0.1500 0.5067 -0.3236
v -0.2100 0.5067 -0.3236
v -0.2100 0.3333 -0.3236
f 648/1 647/1 646/1 645/1
v -0.1500 0.3333 -0.3236
v -0.1500 0.1831 -0.2369
v -0.1500 0.0964 -0.0867
v -0.1500 0.0964 0.0867
v -0.1500 0.1831 0.2369
v -0.1500 0.3333 0.3236
v -0.1500 0.5067 0.3236
v -0.1500 0.6569 0.2369
v -0.1500 0.7436 0.0867
v -0.1500 0.7436 -0.0867
v -0.1500 0.6569 -0.2369
v -0.1500 0.5067 -0.3236
f 660/1 659/1 658/1 657/1 656/1 655/1 654/1 653/1 652/1 651/1 650/1 649/1
v -0.2100 0.5067 -0.3236
v -0.2100 0.6569 -0.2369
v -0.2100 0.7436 -0.0867
v -0.2100 0.7436 0.0867
v -0.2100 0.6569 0.2369
v -0.2100 0.5067 0.3236
v -0.2100 0.3333 0.3236
v -0.2100 0.1831 0.2369
v -0.2100 0.0964 0.0867
v -0.2100 0.0964 -0.0867
v -0.2100 0.1831 -0.2369
v -0.2100 0.3333 -0.3236
f 672/1 671/1 670/1 669/1 668/1 667/1 666/1 665/1 664/1 663/1 662/1 661/1
