# Walk of Industry low-poly (generated, wi_lib.py)
mtllib wi.mtl
vt 0 0
vt 0.03125 0.03125
vt 0.09375 0.03125
vt 0.15625 0.03125
vt 0.21875 0.03125
vt 0.28125 0.03125
vt 0.34375 0.03125
vt 0.40625 0.03125
vt 0.46875 0.03125
vt 0.53125 0.03125
vt 0.59375 0.03125
vt 0.65625 0.03125
vt 0.71875 0.03125
vt 0.78125 0.03125
vt 0.84375 0.03125
vt 0.90625 0.03125
vt 0.96875 0.03125
vt 0.03125 0.09375
vt 0.09375 0.09375
vt 0.15625 0.09375
vt 0.21875 0.09375
vt 0.28125 0.09375
vt 0.34375 0.09375
vt 0.40625 0.09375
vt 0.46875 0.09375
vt 0.53125 0.09375
vt 0.59375 0.09375
vt 0.65625 0.09375
vt 0.71875 0.09375
vt 0.78125 0.09375
vt 0.84375 0.09375
vt 0.90625 0.09375
vt 0.96875 0.09375
o Body
usemtl wi_palette
v -0.0000 0.5520 0.0000
v -0.0920 0.4723 0.2221
v -0.2221 0.4723 0.0920
f 3/20 2/20 1/20
v -0.0000 0.5520 0.0000
v 0.0920 0.4723 0.2221
v -0.0920 0.4723 0.2221
f 6/20 5/20 4/20
v -0.0000 0.5520 0.0000
v 0.2221 0.4723 0.0920
v 0.0920 0.4723 0.2221
f 9/20 8/20 7/20
v -0.0000 0.5520 0.0000
v 0.2221 0.4723 -0.0920
v 0.2221 0.4723 0.0920
f 12/20 11/20 10/20
v -0.0000 0.5520 0.0000
v 0.0920 0.4723 -0.2221
v 0.2221 0.4723 -0.0920
f 15/20 14/20 13/20
v -0.0000 0.5520 0.0000
v -0.0920 0.4723 -0.2221
v 0.0920 0.4723 -0.2221
f 18/20 17/20 16/20
v -0.0000 0.5520 0.0000
v -0.2221 0.4723 -0.0920
v -0.0920 0.4723 -0.2221
f 21/20 20/20 19/20
v -0.0000 0.5520 0.0000
v -0.2221 0.4723 0.0920
v -0.2221 0.4723 -0.0920
f 24/20 23/20 22/20
v -0.2221 0.4723 0.0920
v -0.0920 0.4723 0.2221
v -0.2404 0.2800 0.2404
v -0.3400 0.2800 0.0000
f 28/20 27/20 26/20 25/20
v -0.0920 0.4723 0.2221
v 0.0920 0.4723 0.2221
v -0.0000 0.2800 0.3400
v -0.2404 0.2800 0.2404
f 32/20 31/20 30/20 29/20
v 0.0920 0.4723 0.2221
v 0.2221 0.4723 0.0920
v 0.2404 0.2800 0.2404
v -0.0000 0.2800 0.3400
f 36/20 35/20 34/20 33/20
v 0.2221 0.4723 0.0920
v 0.2221 0.4723 -0.0920
v 0.3400 0.2800 0.0000
v 0.2404 0.2800 0.2404
f 40/20 39/20 38/20 37/20
v 0.2221 0.4723 -0.0920
v 0.0920 0.4723 -0.2221
v 0.2404 0.2800 -0.2404
v 0.3400 0.2800 0.0000
f 44/20 43/20 42/20 41/20
v 0.0920 0.4723 -0.2221
v -0.0920 0.4723 -0.2221
v 0.0000 0.2800 -0.3400
v 0.2404 0.2800 -0.2404
f 48/20 47/20 46/20 45/20
v -0.0920 0.4723 -0.2221
v -0.2221 0.4723 -0.0920
v -0.2404 0.2800 -0.2404
v 0.0000 0.2800 -0.3400
f 52/20 51/20 50/20 49/20
v -0.2221 0.4723 -0.0920
v -0.2221 0.4723 0.0920
v -0.3400 0.2800 0.0000
v -0.2404 0.2800 -0.2404
f 56/20 55/20 54/20 53/20
v -0.3400 0.2800 0.0000
v -0.2404 0.2800 0.2404
v -0.0920 0.0877 0.2221
v -0.2221 0.0877 0.0920
f 60/20 59/20 58/20 57/20
v -0.2404 0.2800 0.2404
v -0.0000 0.2800 0.3400
v 0.0920 0.0877 0.2221
v -0.0920 0.0877 0.2221
f 64/20 63/20 62/20 61/20
v -0.0000 0.2800 0.3400
v 0.2404 0.2800 0.2404
v 0.2221 0.0877 0.0920
v 0.0920 0.0877 0.2221
f 68/20 67/20 66/20 65/20
v 0.2404 0.2800 0.2404
v 0.3400 0.2800 0.0000
v 0.2221 0.0877 -0.0920
v 0.2221 0.0877 0.0920
f 72/20 71/20 70/20 69/20
v 0.3400 0.2800 0.0000
v 0.2404 0.2800 -0.2404
v 0.0920 0.0877 -0.2221
v 0.2221 0.0877 -0.0920
f 76/20 75/20 74/20 73/20
v 0.2404 0.2800 -0.2404
v 0.0000 0.2800 -0.3400
v -0.0920 0.0877 -0.2221
v 0.0920 0.0877 -0.2221
f 80/20 79/20 78/20 77/20
v 0.0000 0.2800 -0.3400
v -0.2404 0.2800 -0.2404
v -0.2221 0.0877 -0.0920
v -0.0920 0.0877 -0.2221
f 84/20 83/20 82/20 81/20
v -0.2404 0.2800 -0.2404
v -0.3400 0.2800 0.0000
v -0.2221 0.0877 0.0920
v -0.2221 0.0877 -0.0920
f 88/20 87/20 86/20 85/20
v -0.2221 0.0877 0.0920
v -0.0920 0.0877 0.2221
v -0.0000 0.0080 0.0000
f 91/20 90/20 89/20
v -0.0920 0.0877 0.2221
v 0.0920 0.0877 0.2221
v -0.0000 0.0080 0.0000
f 94/20 93/20 92/20
v 0.0920 0.0877 0.2221
v 0.2221 0.0877 0.0920
v -0.0000 0.0080 0.0000
f 97/20 96/20 95/20
v 0.2221 0.0877 0.0920
v 0.2221 0.0877 -0.0920
v 0.0000 0.0080 0.0000
f 100/20 99/20 98/20
v 0.2221 0.0877 -0.0920
v 0.0920 0.0877 -0.2221
v 0.0000 0.0080 0.0000
f 103/20 102/20 101/20
v 0.0920 0.0877 -0.2221
v -0.0920 0.0877 -0.2221
v 0.0000 0.0080 -0.0000
f 106/20 105/20 104/20
v -0.0920 0.0877 -0.2221
v -0.2221 0.0877 -0.0920
v 0.0000 0.0080 -0.0000
f 109/20 108/20 107/20
v -0.2221 0.0877 -0.0920
v -0.2221 0.0877 0.0920
v -0.0000 0.0080 -0.0000
f 112/20 111/20 110/20
v -0.1800 0.4240 0.1200
v -0.2178 0.3642 0.2855
v -0.3329 0.3642 0.1936
f 115/21 114/21 113/21
v -0.1800 0.4240 0.1200
v -0.0742 0.3642 0.2527
v -0.2178 0.3642 0.2855
f 118/21 117/21 116/21
v -0.1800 0.4240 0.1200
v -0.0103 0.3642 0.1200
v -0.0742 0.3642 0.2527
f 121/21 120/21 119/21
v -0.1800 0.4240 0.1200
v -0.0742 0.3642 -0.0127
v -0.0103 0.3642 0.1200
f 124/21 123/21 122/21
v -0.1800 0.4240 0.1200
v -0.2178 0.3642 -0.0455
v -0.0742 0.3642 -0.0127
f 127/21 126/21 125/21
v -0.1800 0.4240 0.1200
v -0.3329 0.3642 0.0464
v -0.2178 0.3642 -0.0455
f 130/21 129/21 128/21
v -0.1800 0.4240 0.1200
v -0.3329 0.3642 0.1936
v -0.3329 0.3642 0.0464
f 133/21 132/21 131/21
v -0.3329 0.3642 0.1936
v -0.2178 0.3642 0.2855
v -0.3296 0.2200 0.3076
v -0.4200 0.2200 0.1200
f 137/21 136/21 135/21 134/21
v -0.2178 0.3642 0.2855
v -0.0742 0.3642 0.2527
v -0.1266 0.2200 0.3540
v -0.3296 0.2200 0.3076
f 141/21 140/21 139/21 138/21
v -0.0742 0.3642 0.2527
v -0.0103 0.3642 0.1200
v 0.0362 0.2200 0.2241
v -0.1266 0.2200 0.3540
f 145/21 144/21 143/21 142/21
v -0.0103 0.3642 0.1200
v -0.0742 0.3642 -0.0127
v 0.0362 0.2200 0.0159
v 0.0362 0.2200 0.2241
f 149/21 148/21 147/21 146/21
v -0.0742 0.3642 -0.0127
v -0.2178 0.3642 -0.0455
v -0.1266 0.2200 -0.1140
v 0.0362 0.2200 0.0159
f 153/21 152/21 151/21 150/21
v -0.2178 0.3642 -0.0455
v -0.3329 0.3642 0.0464
v -0.3296 0.2200 -0.0676
v -0.1266 0.2200 -0.1140
f 157/21 156/21 155/21 154/21
v -0.3329 0.3642 0.0464
v -0.3329 0.3642 0.1936
v -0.4200 0.2200 0.1200
v -0.3296 0.2200 -0.0676
f 161/21 160/21 159/21 158/21
v -0.4200 0.2200 0.1200
v -0.3296 0.2200 0.3076
v -0.2178 0.0758 0.2855
v -0.3329 0.0758 0.1936
f 165/21 164/21 163/21 162/21
v -0.3296 0.2200 0.3076
v -0.1266 0.2200 0.3540
v -0.0742 0.0758 0.2527
v -0.2178 0.0758 0.2855
f 169/21 168/21 167/21 166/21
v -0.1266 0.2200 0.3540
v 0.0362 0.2200 0.2241
v -0.0103 0.0758 0.1200
v -0.0742 0.0758 0.2527
f 173/21 172/21 171/21 170/21
v 0.0362 0.2200 0.2241
v 0.0362 0.2200 0.0159
v -0.0742 0.0758 -0.0127
v -0.0103 0.0758 0.1200
f 177/21 176/21 175/21 174/21
v 0.0362 0.2200 0.0159
v -0.1266 0.2200 -0.1140
v -0.2178 0.0758 -0.0455
v -0.0742 0.0758 -0.0127
f 181/21 180/21 179/21 178/21
v -0.1266 0.2200 -0.1140
v -0.3296 0.2200 -0.0676
v -0.3329 0.0758 0.0464
v -0.2178 0.0758 -0.0455
f 185/21 184/21 183/21 182/21
v -0.3296 0.2200 -0.0676
v -0.4200 0.2200 0.1200
v -0.3329 0.0758 0.1936
v -0.3329 0.0758 0.0464
f 189/21 188/21 187/21 186/21
v -0.3329 0.0758 0.1936
v -0.2178 0.0758 0.2855
v -0.1800 0.0160 0.1200
f 192/21 191/21 190/21
v -0.2178 0.0758 0.2855
v -0.0742 0.0758 0.2527
v -0.1800 0.0160 0.1200
f 195/21 194/21 193/21
v -0.0742 0.0758 0.2527
v -0.0103 0.0758 0.1200
v -0.1800 0.0160 0.1200
f 198/21 197/21 196/21
v -0.0103 0.0758 0.1200
v -0.0742 0.0758 -0.0127
v -0.1800 0.0160 0.1200
f 201/21 200/21 199/21
v -0.0742 0.0758 -0.0127
v -0.2178 0.0758 -0.0455
v -0.1800 0.0160 0.1200
f 204/21 203/21 202/21
v -0.2178 0.0758 -0.0455
v -0.3329 0.0758 0.0464
v -0.1800 0.0160 0.1200
f 207/21 206/21 205/21
v -0.3329 0.0758 0.0464
v -0.3329 0.0758 0.1936
v -0.1800 0.0160 0.1200
f 210/21 209/21 208/21
v 0.1600 0.3870 -0.1400
v 0.1254 0.3322 0.0117
v 0.0198 0.3322 -0.0725
f 213/20 212/20 211/20
v 0.1600 0.3870 -0.1400
v 0.2570 0.3322 -0.0184
v 0.1254 0.3322 0.0117
f 216/20 215/20 214/20
v 0.1600 0.3870 -0.1400
v 0.3156 0.3322 -0.1400
v 0.2570 0.3322 -0.0184
f 219/20 218/20 217/20
v 0.1600 0.3870 -0.1400
v 0.2570 0.3322 -0.2616
v 0.3156 0.3322 -0.1400
f 222/20 221/20 220/20
v 0.1600 0.3870 -0.1400
v 0.1254 0.3322 -0.2917
v 0.2570 0.3322 -0.2616
f 225/20 224/20 223/20
v 0.1600 0.3870 -0.1400
v 0.0198 0.3322 -0.2075
v 0.1254 0.3322 -0.2917
f 228/20 227/20 226/20
v 0.1600 0.3870 -0.1400
v 0.0198 0.3322 -0.0725
v 0.0198 0.3322 -0.2075
f 231/20 230/20 229/20
v 0.0198 0.3322 -0.0725
v 0.1254 0.3322 0.0117
v 0.0228 0.2000 0.0320
v -0.0600 0.2000 -0.1400
f 235/20 234/20 233/20 232/20
v 0.1254 0.3322 0.0117
v 0.2570 0.3322 -0.0184
v 0.2090 0.2000 0.0745
v 0.0228 0.2000 0.0320
f 239/20 238/20 237/20 236/20
v 0.2570 0.3322 -0.0184
v 0.3156 0.3322 -0.1400
v 0.3582 0.2000 -0.0445
v 0.2090 0.2000 0.0745
f 243/20 242/20 241/20 240/20
v 0.3156 0.3322 -0.1400
v 0.2570 0.3322 -0.2616
v 0.3582 0.2000 -0.2355
v 0.3582 0.2000 -0.0445
f 247/20 246/20 245/20 244/20
v 0.2570 0.3322 -0.2616
v 0.1254 0.3322 -0.2917
v 0.2090 0.2000 -0.3545
v 0.3582 0.2000 -0.2355
f 251/20 250/20 249/20 248/20
v 0.1254 0.3322 -0.2917
v 0.0198 0.3322 -0.2075
v 0.0228 0.2000 -0.3120
v 0.2090 0.2000 -0.3545
f 255/20 254/20 253/20 252/20
v 0.0198 0.3322 -0.2075
v 0.0198 0.3322 -0.0725
v -0.0600 0.2000 -0.1400
v 0.0228 0.2000 -0.3120
f 259/20 258/20 257/20 256/20
v -0.0600 0.2000 -0.1400
v 0.0228 0.2000 0.0320
v 0.1254 0.0678 0.0117
v 0.0198 0.0678 -0.0725
f 263/20 262/20 261/20 260/20
v 0.0228 0.2000 0.0320
v 0.2090 0.2000 0.0745
v 0.2570 0.0678 -0.0184
v 0.1254 0.0678 0.0117
f 267/20 266/20 265/20 264/20
v 0.2090 0.2000 0.0745
v 0.3582 0.2000 -0.0445
v 0.3156 0.0678 -0.1400
v 0.2570 0.0678 -0.0184
f 271/20 270/20 269/20 268/20
v 0.3582 0.2000 -0.0445
v 0.3582 0.2000 -0.2355
v 0.2570 0.0678 -0.2616
v 0.3156 0.0678 -0.1400
f 275/20 274/20 273/20 272/20
v 0.3582 0.2000 -0.2355
v 0.2090 0.2000 -0.3545
v 0.1254 0.0678 -0.2917
v 0.2570 0.0678 -0.2616
f 279/20 278/20 277/20 276/20
v 0.2090 0.2000 -0.3545
v 0.0228 0.2000 -0.3120
v 0.0198 0.0678 -0.2075
v 0.1254 0.0678 -0.2917
f 283/20 282/20 281/20 280/20
v 0.0228 0.2000 -0.3120
v -0.0600 0.2000 -0.1400
v 0.0198 0.0678 -0.0725
v 0.0198 0.0678 -0.2075
f 287/20 286/20 285/20 284/20
v 0.0198 0.0678 -0.0725
v 0.1254 0.0678 0.0117
v 0.1600 0.0130 -0.1400
f 290/20 289/20 288/20
v 0.1254 0.0678 0.0117
v 0.2570 0.0678 -0.0184
v 0.1600 0.0130 -0.1400
f 293/20 292/20 291/20
v 0.2570 0.0678 -0.0184
v 0.3156 0.0678 -0.1400
v 0.1600 0.0130 -0.1400
f 296/20 295/20 294/20
v 0.3156 0.0678 -0.1400
v 0.2570 0.0678 -0.2616
v 0.1600 0.0130 -0.1400
f 299/20 298/20 297/20
v 0.2570 0.0678 -0.2616
v 0.1254 0.0678 -0.2917
v 0.1600 0.0130 -0.1400
f 302/20 301/20 300/20
v 0.1254 0.0678 -0.2917
v 0.0198 0.0678 -0.2075
v 0.1600 0.0130 -0.1400
f 305/20 304/20 303/20
v 0.0198 0.0678 -0.2075
v 0.0198 0.0678 -0.0725
v 0.1600 0.0130 -0.1400
f 308/20 307/20 306/20
v -0.0500 0.6600 -0.0500
v -0.0885 0.5600 0.1189
v -0.2061 0.5600 0.0252
f 311/21 310/21 309/21
v -0.0500 0.6600 -0.0500
v 0.0580 0.5600 0.0854
v -0.0885 0.5600 0.1189
f 314/21 313/21 312/21
v -0.0500 0.6600 -0.0500
v 0.1232 0.5600 -0.0500
v 0.0580 0.5600 0.0854
f 317/21 316/21 315/21
v -0.0500 0.6600 -0.0500
v 0.0580 0.5600 -0.1854
v 0.1232 0.5600 -0.0500
f 320/21 319/21 318/21
v -0.0500 0.6600 -0.0500
v -0.0885 0.5600 -0.2189
v 0.0580 0.5600 -0.1854
f 323/21 322/21 321/21
v -0.0500 0.6600 -0.0500
v -0.2061 0.5600 -0.1252
v -0.0885 0.5600 -0.2189
f 326/21 325/21 324/21
v -0.0500 0.6600 -0.0500
v -0.2061 0.5600 0.0252
v -0.2061 0.5600 -0.1252
f 329/21 328/21 327/21
v -0.2061 0.5600 0.0252
v -0.0885 0.5600 0.1189
v -0.1580 0.3600 0.0854
v -0.2232 0.3600 -0.0500
f 333/21 332/21 331/21 330/21
v -0.0885 0.5600 0.1189
v 0.0580 0.5600 0.0854
v -0.0115 0.3600 0.1189
v -0.1580 0.3600 0.0854
f 337/21 336/21 335/21 334/21
v 0.0580 0.5600 0.0854
v 0.1232 0.5600 -0.0500
v 0.1061 0.3600 0.0252
v -0.0115 0.3600 0.1189
f 341/21 340/21 339/21 338/21
v 0.1232 0.5600 -0.0500
v 0.0580 0.5600 -0.1854
v 0.1061 0.3600 -0.1252
v 0.1061 0.3600 0.0252
f 345/21 344/21 343/21 342/21
v 0.0580 0.5600 -0.1854
v -0.0885 0.5600 -0.2189
v -0.0115 0.3600 -0.2189
v 0.1061 0.3600 -0.1252
f 349/21 348/21 347/21 346/21
v -0.0885 0.5600 -0.2189
v -0.2061 0.5600 -0.1252
v -0.1580 0.3600 -0.1854
v -0.0115 0.3600 -0.2189
f 353/21 352/21 351/21 350/21
v -0.2061 0.5600 -0.1252
v -0.2061 0.5600 0.0252
v -0.2232 0.3600 -0.0500
v -0.1580 0.3600 -0.1854
f 357/21 356/21 355/21 354/21
v -0.2232 0.3600 -0.0500
v -0.1580 0.3600 0.0854
v -0.0500 0.2600 -0.0500
f 360/21 359/21 358/21
v -0.1580 0.3600 0.0854
v -0.0115 0.3600 0.1189
v -0.0500 0.2600 -0.0500
f 363/21 362/21 361/21
v -0.0115 0.3600 0.1189
v 0.1061 0.3600 0.0252
v -0.0500 0.2600 -0.0500
f 366/21 365/21 364/21
v 0.1061 0.3600 0.0252
v 0.1061 0.3600 -0.1252
v -0.0500 0.2600 -0.0500
f 369/21 368/21 367/21
v 0.1061 0.3600 -0.1252
v -0.0115 0.3600 -0.2189
v -0.0500 0.2600 -0.0500
f 372/21 371/21 370/21
v -0.0115 0.3600 -0.2189
v -0.1580 0.3600 -0.1854
v -0.0500 0.2600 -0.0500
f 375/21 374/21 373/21
v -0.1580 0.3600 -0.1854
v -0.2232 0.3600 -0.0500
v -0.0500 0.2600 -0.0500
f 378/21 377/21 376/21
v -0.0950 0.3350 0.3050
v -0.0950 0.3850 0.3050
v -0.0950 0.3850 0.2550
v -0.0950 0.3350 0.2550
f 382/26 381/26 380/26 379/26
v -0.1450 0.3350 0.2550
v -0.1450 0.3850 0.2550
v -0.1450 0.3850 0.3050
v -0.1450 0.3350 0.3050
f 386/26 385/26 384/26 383/26
v -0.0950 0.3350 0.2550
v -0.1450 0.3350 0.2550
v -0.1450 0.3350 0.3050
v -0.0950 0.3350 0.3050
f 390/26 389/26 388/26 387/26
v -0.0950 0.3850 0.3050
v -0.1450 0.3850 0.3050
v -0.1450 0.3850 0.2550
v -0.0950 0.3850 0.2550
f 394/26 393/26 392/26 391/26
v -0.0950 0.3850 0.2550
v -0.1450 0.3850 0.2550
v -0.1450 0.3350 0.2550
v -0.0950 0.3350 0.2550
f 398/26 397/26 396/26 395/26
v -0.0950 0.3350 0.3050
v -0.1450 0.3350 0.3050
v -0.1450 0.3850 0.3050
v -0.0950 0.3850 0.3050
f 402/26 401/26 400/26 399/26
v 0.2750 0.3350 0.1050
v 0.2750 0.3850 0.1050
v 0.2750 0.3850 0.0550
v 0.2750 0.3350 0.0550
f 406/26 405/26 404/26 403/26
v 0.2250 0.3350 0.0550
v 0.2250 0.3850 0.0550
v 0.2250 0.3850 0.1050
v 0.2250 0.3350 0.1050
f 410/26 409/26 408/26 407/26
v 0.2750 0.3350 0.0550
v 0.2250 0.3350 0.0550
v 0.2250 0.3350 0.1050
v 0.2750 0.3350 0.1050
f 414/26 413/26 412/26 411/26
v 0.2750 0.3850 0.1050
v 0.2250 0.3850 0.1050
v 0.2250 0.3850 0.0550
v 0.2750 0.3850 0.0550
f 418/26 417/26 416/26 415/26
v 0.2750 0.3850 0.0550
v 0.2250 0.3850 0.0550
v 0.2250 0.3350 0.0550
v 0.2750 0.3350 0.0550
f 422/26 421/26 420/26 419/26
v 0.2750 0.3350 0.1050
v 0.2250 0.3350 0.1050
v 0.2250 0.3850 0.1050
v 0.2750 0.3850 0.1050
f 426/26 425/26 424/26 423/26
v -0.2550 0.3350 -0.0750
v -0.2550 0.3850 -0.0750
v -0.2550 0.3850 -0.1250
v -0.2550 0.3350 -0.1250
f 430/26 429/26 428/26 427/26
v -0.3050 0.3350 -0.1250
v -0.3050 0.3850 -0.1250
v -0.3050 0.3850 -0.0750
v -0.3050 0.3350 -0.0750
f 434/26 433/26 432/26 431/26
v -0.2550 0.3350 -0.1250
v -0.3050 0.3350 -0.1250
v -0.3050 0.3350 -0.0750
v -0.2550 0.3350 -0.0750
f 438/26 437/26 436/26 435/26
v -0.2550 0.3850 -0.0750
v -0.3050 0.3850 -0.0750
v -0.3050 0.3850 -0.1250
v -0.2550 0.3850 -0.1250
f 442/26 441/26 440/26 439/26
v -0.2550 0.3850 -0.1250
v -0.3050 0.3850 -0.1250
v -0.3050 0.3350 -0.1250
v -0.2550 0.3350 -0.1250
f 446/26 445/26 444/26 443/26
v -0.2550 0.3350 -0.0750
v -0.3050 0.3350 -0.0750
v -0.3050 0.3850 -0.0750
v -0.2550 0.3850 -0.0750
f 450/26 449/26 448/26 447/26
