# Walk of Industry low-poly (generated, wi_lib.py)
mtllib wi.mtl
vt 0 0
vt 0.03125 0.03125
vt 0.09375 0.03125
vt 0.15625 0.03125
vt 0.21875 0.03125
vt 0.28125 0.03125
vt 0.34375 0.03125
vt 0.40625 0.03125
vt 0.46875 0.03125
vt 0.53125 0.03125
vt 0.59375 0.03125
vt 0.65625 0.03125
vt 0.71875 0.03125
vt 0.78125 0.03125
vt 0.84375 0.03125
vt 0.90625 0.03125
vt 0.96875 0.03125
vt 0.03125 0.09375
vt 0.09375 0.09375
vt 0.15625 0.09375
vt 0.21875 0.09375
vt 0.28125 0.09375
vt 0.34375 0.09375
vt 0.40625 0.09375
vt 0.46875 0.09375
vt 0.53125 0.09375
vt 0.59375 0.09375
vt 0.65625 0.09375
vt 0.71875 0.09375
vt 0.78125 0.09375
vt 0.84375 0.09375
vt 0.90625 0.09375
vt 0.96875 0.09375
o Body
usemtl wi_palette
v 0.1200 0.0000 0.1200
v 0.1200 0.0800 0.1200
v 0.1200 0.0800 -0.1200
v 0.1200 0.0000 -0.1200
f 4/11 3/11 2/11 1/11
v -0.1200 0.0000 -0.1200
v -0.1200 0.0800 -0.1200
v -0.1200 0.0800 0.1200
v -0.1200 0.0000 0.1200
f 8/11 7/11 6/11 5/11
v 0.1200 0.0000 -0.1200
v -0.1200 0.0000 -0.1200
v -0.1200 0.0000 0.1200
v 0.1200 0.0000 0.1200
f 12/11 11/11 10/11 9/11
v 0.1200 0.0800 0.1200
v -0.1200 0.0800 0.1200
v -0.1200 0.0800 -0.1200
v 0.1200 0.0800 -0.1200
f 16/11 15/11 14/11 13/11
v 0.1200 0.0800 -0.1200
v -0.1200 0.0800 -0.1200
v -0.1200 0.0000 -0.1200
v 0.1200 0.0000 -0.1200
f 20/11 19/11 18/11 17/11
v 0.1200 0.0000 0.1200
v -0.1200 0.0000 0.1200
v -0.1200 0.0800 0.1200
v 0.1200 0.0800 0.1200
f 24/11 23/11 22/11 21/11
v -0.0200 0.0800 0.0346
v -0.0400 0.0800 0.0000
v -0.0400 1.4300 0.0000
v -0.0200 1.4300 0.0346
f 28/7 27/7 26/7 25/7
v -0.0400 0.0800 0.0000
v -0.0200 0.0800 -0.0346
v -0.0200 1.4300 -0.0346
v -0.0400 1.4300 0.0000
f 32/7 31/7 30/7 29/7
v -0.0200 0.0800 -0.0346
v 0.0200 0.0800 -0.0346
v 0.0200 1.4300 -0.0346
v -0.0200 1.4300 -0.0346
f 36/7 35/7 34/7 33/7
v 0.0200 0.0800 -0.0346
v 0.0400 0.0800 -0.0000
v 0.0400 1.4300 -0.0000
v 0.0200 1.4300 -0.0346
f 40/7 39/7 38/7 37/7
v 0.0400 0.0800 -0.0000
v 0.0200 0.0800 0.0346
v 0.0200 1.4300 0.0346
v 0.0400 1.4300 -0.0000
f 44/7 43/7 42/7 41/7
v 0.0200 0.0800 0.0346
v -0.0200 0.0800 0.0346
v -0.0200 1.4300 0.0346
v 0.0200 1.4300 0.0346
f 48/7 47/7 46/7 45/7
v 0.0200 0.0800 0.0346
v 0.0400 0.0800 -0.0000
v 0.0200 0.0800 -0.0346
v -0.0200 0.0800 -0.0346
v -0.0400 0.0800 0.0000
v -0.0200 0.0800 0.0346
f 54/7 53/7 52/7 51/7 50/7 49/7
v -0.0200 1.4300 0.0346
v -0.0400 1.4300 0.0000
v -0.0200 1.4300 -0.0346
v 0.0200 1.4300 -0.0346
v 0.0400 1.4300 -0.0000
v 0.0200 1.4300 0.0346
f 60/7 59/7 58/7 57/7 56/7 55/7
v -0.0350 1.1000 0.1950
v -0.0350 1.4000 0.1950
v -0.0350 1.4000 -0.3550
v -0.0350 1.1000 -0.3550
f 64/8 63/8 62/8 61/8
v -0.0650 1.1000 -0.3550
v -0.0650 1.4000 -0.3550
v -0.0650 1.4000 0.1950
v -0.0650 1.1000 0.1950
f 68/8 67/8 66/8 65/8
v -0.0350 1.1000 -0.3550
v -0.0650 1.1000 -0.3550
v -0.0650 1.1000 0.1950
v -0.0350 1.1000 0.1950
f 72/8 71/8 70/8 69/8
v -0.0350 1.4000 0.1950
v -0.0650 1.4000 0.1950
v -0.0650 1.4000 -0.3550
v -0.0350 1.4000 -0.3550
f 76/8 75/8 74/8 73/8
v -0.0350 1.4000 -0.3550
v -0.0650 1.4000 -0.3550
v -0.0650 1.1000 -0.3550
v -0.0350 1.1000 -0.3550
f 80/8 79/8 78/8 77/8
v -0.0350 1.1000 0.1950
v -0.0650 1.1000 0.1950
v -0.0650 1.4000 0.1950
v -0.0350 1.4000 0.1950
f 84/8 83/8 82/8 81/8
v -0.0350 1.2500 0.4500
v -0.0350 1.0100 0.1900
v -0.0350 1.4900 0.1900
f 87/8 86/8 85/8
v -0.0650 1.4900 0.1900
v -0.0650 1.0100 0.1900
v -0.0650 1.2500 0.4500
f 90/8 89/8 88/8
v -0.0350 1.5850 0.4365
v -0.0350 1.5996 0.4229
v -0.0350 1.3950 0.2035
v -0.0350 1.3804 0.2171
f 94/8 93/8 92/8 91/8
v -0.0650 1.3804 0.2171
v -0.0650 1.3950 0.2035
v -0.0650 1.5996 0.4229
v -0.0650 1.5850 0.4365
f 98/8 97/8 96/8 95/8
v -0.0350 1.3804 0.2171
v -0.0650 1.3804 0.2171
v -0.0650 1.5850 0.4365
v -0.0350 1.5850 0.4365
f 102/8 101/8 100/8 99/8
v -0.0350 1.5996 0.4229
v -0.0650 1.5996 0.4229
v -0.0650 1.3950 0.2035
v -0.0350 1.3950 0.2035
f 106/8 105/8 104/8 103/8
v -0.0350 1.3950 0.2035
v -0.0650 1.3950 0.2035
v -0.0650 1.3804 0.2171
v -0.0350 1.3804 0.2171
f 110/8 109/8 108/8 107/8
v -0.0350 1.5850 0.4365
v -0.0650 1.5850 0.4365
v -0.0650 1.5996 0.4229
v -0.0350 1.5996 0.4229
f 114/8 113/8 112/8 111/8
v 0.0223 1.2440 -0.0377
v 0.0223 1.2560 -0.0377
v -0.0877 1.2560 0.0723
v -0.0877 1.2440 0.0723
f 118/6 117/6 116/6 115/6
v -0.0523 1.2440 0.1077
v -0.0523 1.2560 0.1077
v 0.0577 1.2560 -0.0023
v 0.0577 1.2440 -0.0023
f 122/6 121/6 120/6 119/6
v -0.0877 1.2440 0.0723
v -0.0523 1.2440 0.1077
v 0.0577 1.2440 -0.0023
v 0.0223 1.2440 -0.0377
f 126/6 125/6 124/6 123/6
v 0.0223 1.2560 -0.0377
v 0.0577 1.2560 -0.0023
v -0.0523 1.2560 0.1077
v -0.0877 1.2560 0.0723
f 130/6 129/6 128/6 127/6
v -0.0877 1.2560 0.0723
v -0.0523 1.2560 0.1077
v -0.0523 1.2440 0.1077
v -0.0877 1.2440 0.0723
f 134/6 133/6 132/6 131/6
v 0.0223 1.2440 -0.0377
v 0.0577 1.2440 -0.0023
v 0.0577 1.2560 -0.0023
v 0.0223 1.2560 -0.0377
f 138/6 137/6 136/6 135/6
v -0.1977 1.2440 -0.0023
v -0.1977 1.2560 -0.0023
v -0.0877 1.2560 0.1077
v -0.0877 1.2440 0.1077
f 142/6 141/6 140/6 139/6
v -0.0523 1.2440 0.0723
v -0.0523 1.2560 0.0723
v -0.1623 1.2560 -0.0377
v -0.1623 1.2440 -0.0377
f 146/6 145/6 144/6 143/6
v -0.0877 1.2440 0.1077
v -0.0523 1.2440 0.0723
v -0.1623 1.2440 -0.0377
v -0.1977 1.2440 -0.0023
f 150/6 149/6 148/6 147/6
v -0.1977 1.2560 -0.0023
v -0.1623 1.2560 -0.0377
v -0.0523 1.2560 0.0723
v -0.0877 1.2560 0.1077
f 154/6 153/6 152/6 151/6
v -0.0877 1.2560 0.1077
v -0.0523 1.2560 0.0723
v -0.0523 1.2440 0.0723
v -0.0877 1.2440 0.1077
f 158/6 157/6 156/6 155/6
v -0.1977 1.2440 -0.0023
v -0.1623 1.2440 -0.0377
v -0.1623 1.2560 -0.0377
v -0.1977 1.2560 -0.0023
f 162/6 161/6 160/6 159/6
v -0.0630 1.2200 -0.0700
v -0.0630 1.2800 -0.0700
v -0.0630 1.2800 -0.2900
v -0.0630 1.2200 -0.2900
f 166/6 165/6 164/6 163/6
v -0.0730 1.2200 -0.2900
v -0.0730 1.2800 -0.2900
v -0.0730 1.2800 -0.0700
v -0.0730 1.2200 -0.0700
f 170/6 169/6 168/6 167/6
v -0.0630 1.2200 -0.2900
v -0.0730 1.2200 -0.2900
v -0.0730 1.2200 -0.0700
v -0.0630 1.2200 -0.0700
f 174/6 173/6 172/6 171/6
v -0.0630 1.2800 -0.0700
v -0.0730 1.2800 -0.0700
v -0.0730 1.2800 -0.2900
v -0.0630 1.2800 -0.2900
f 178/6 177/6 176/6 175/6
v -0.0630 1.2800 -0.2900
v -0.0730 1.2800 -0.2900
v -0.0730 1.2200 -0.2900
v -0.0630 1.2200 -0.2900
f 182/6 181/6 180/6 179/6
v -0.0630 1.2200 -0.0700
v -0.0730 1.2200 -0.0700
v -0.0730 1.2800 -0.0700
v -0.0630 1.2800 -0.0700
f 186/6 185/6 184/6 183/6
