# Walk of Industry low-poly (generated, wi_lib.py)
mtllib wi.mtl
vt 0 0
vt 0.03125 0.03125
vt 0.09375 0.03125
vt 0.15625 0.03125
vt 0.21875 0.03125
vt 0.28125 0.03125
vt 0.34375 0.03125
vt 0.40625 0.03125
vt 0.46875 0.03125
vt 0.53125 0.03125
vt 0.59375 0.03125
vt 0.65625 0.03125
vt 0.71875 0.03125
vt 0.78125 0.03125
vt 0.84375 0.03125
vt 0.90625 0.03125
vt 0.96875 0.03125
vt 0.03125 0.09375
vt 0.09375 0.09375
vt 0.15625 0.09375
vt 0.21875 0.09375
vt 0.28125 0.09375
vt 0.34375 0.09375
vt 0.40625 0.09375
vt 0.46875 0.09375
vt 0.53125 0.09375
vt 0.59375 0.09375
vt 0.65625 0.09375
vt 0.71875 0.09375
vt 0.78125 0.09375
vt 0.84375 0.09375
vt 0.90625 0.09375
vt 0.96875 0.09375
o Body
usemtl wi_palette
v 0.1800 0.0000 0.1700
v 0.1800 1.0000 0.1700
v 0.1800 1.0000 -0.1700
v 0.1800 0.0000 -0.1700
f 4/15 3/15 2/15 1/15
v -0.1800 0.0000 -0.1700
v -0.1800 1.0000 -0.1700
v -0.1800 1.0000 0.1700
v -0.1800 0.0000 0.1700
f 8/15 7/15 6/15 5/15
v 0.1800 0.0000 -0.1700
v -0.1800 0.0000 -0.1700
v -0.1800 0.0000 0.1700
v 0.1800 0.0000 0.1700
f 12/15 11/15 10/15 9/15
v 0.1800 1.0000 0.1700
v -0.1800 1.0000 0.1700
v -0.1800 1.0000 -0.1700
v 0.1800 1.0000 -0.1700
f 16/15 15/15 14/15 13/15
v 0.1800 1.0000 -0.1700
v -0.1800 1.0000 -0.1700
v -0.1800 0.0000 -0.1700
v 0.1800 0.0000 -0.1700
f 20/15 19/15 18/15 17/15
v 0.1800 0.0000 0.1700
v -0.1800 0.0000 0.1700
v -0.1800 1.0000 0.1700
v 0.1800 1.0000 0.1700
f 24/15 23/15 22/15 21/15
v 0.1300 0.5000 0.1770
v 0.1300 0.7400 0.1770
v 0.1300 0.7400 0.1670
v 0.1300 0.5000 0.1670
f 28/6 27/6 26/6 25/6
v -0.1300 0.5000 0.1670
v -0.1300 0.7400 0.1670
v -0.1300 0.7400 0.1770
v -0.1300 0.5000 0.1770
f 32/6 31/6 30/6 29/6
v 0.1300 0.5000 0.1670
v -0.1300 0.5000 0.1670
v -0.1300 0.5000 0.1770
v 0.1300 0.5000 0.1770
f 36/6 35/6 34/6 33/6
v 0.1300 0.7400 0.1770
v -0.1300 0.7400 0.1770
v -0.1300 0.7400 0.1670
v 0.1300 0.7400 0.1670
f 40/6 39/6 38/6 37/6
v 0.1300 0.7400 0.1670
v -0.1300 0.7400 0.1670
v -0.1300 0.5000 0.1670
v 0.1300 0.5000 0.1670
f 44/6 43/6 42/6 41/6
v 0.1300 0.5000 0.1770
v -0.1300 0.5000 0.1770
v -0.1300 0.7400 0.1770
v 0.1300 0.7400 0.1770
f 48/6 47/6 46/6 45/6
v 0.0850 0.6300 0.2000
v 0.0850 0.6900 0.2000
v 0.0850 0.6900 0.1600
v 0.0850 0.6300 0.1600
f 52/19 51/19 50/19 49/19
v 0.0350 0.6300 0.1600
v 0.0350 0.6900 0.1600
v 0.0350 0.6900 0.2000
v 0.0350 0.6300 0.2000
f 56/19 55/19 54/19 53/19
v 0.0850 0.6300 0.1600
v 0.0350 0.6300 0.1600
v 0.0350 0.6300 0.2000
v 0.0850 0.6300 0.2000
f 60/19 59/19 58/19 57/19
v 0.0850 0.6900 0.2000
v 0.0350 0.6900 0.2000
v 0.0350 0.6900 0.1600
v 0.0850 0.6900 0.1600
f 64/19 63/19 62/19 61/19
v 0.0850 0.6900 0.1600
v 0.0350 0.6900 0.1600
v 0.0350 0.6300 0.1600
v 0.0850 0.6300 0.1600
f 68/19 67/19 66/19 65/19
v 0.0850 0.6300 0.2000
v 0.0350 0.6300 0.2000
v 0.0350 0.6900 0.2000
v 0.0850 0.6900 0.2000
f 72/19 71/19 70/19 69/19
v -0.0350 0.6300 0.2000
v -0.0350 0.6900 0.2000
v -0.0350 0.6900 0.1600
v -0.0350 0.6300 0.1600
f 76/18 75/18 74/18 73/18
v -0.0850 0.6300 0.1600
v -0.0850 0.6900 0.1600
v -0.0850 0.6900 0.2000
v -0.0850 0.6300 0.2000
f 80/18 79/18 78/18 77/18
v -0.0350 0.6300 0.1600
v -0.0850 0.6300 0.1600
v -0.0850 0.6300 0.2000
v -0.0350 0.6300 0.2000
f 84/18 83/18 82/18 81/18
v -0.0350 0.6900 0.2000
v -0.0850 0.6900 0.2000
v -0.0850 0.6900 0.1600
v -0.0350 0.6900 0.1600
f 88/18 87/18 86/18 85/18
v -0.0350 0.6900 0.1600
v -0.0850 0.6900 0.1600
v -0.0850 0.6300 0.1600
v -0.0350 0.6300 0.1600
f 92/18 91/18 90/18 89/18
v -0.0350 0.6300 0.2000
v -0.0850 0.6300 0.2000
v -0.0850 0.6900 0.2000
v -0.0350 0.6900 0.2000
f 96/18 95/18 94/18 93/18
v 0.1000 0.5100 0.2200
v 0.1000 0.5300 0.2200
v 0.1000 0.5300 0.1600
v 0.1000 0.5100 0.1600
f 100/7 99/7 98/7 97/7
v -0.1000 0.5100 0.1600
v -0.1000 0.5300 0.1600
v -0.1000 0.5300 0.2200
v -0.1000 0.5100 0.2200
f 104/7 103/7 102/7 101/7
v 0.1000 0.5100 0.1600
v -0.1000 0.5100 0.1600
v -0.1000 0.5100 0.2200
v 0.1000 0.5100 0.2200
f 108/7 107/7 106/7 105/7
v 0.1000 0.5300 0.2200
v -0.1000 0.5300 0.2200
v -0.1000 0.5300 0.1600
v 0.1000 0.5300 0.1600
f 112/7 111/7 110/7 109/7
v 0.1000 0.5300 0.1600
v -0.1000 0.5300 0.1600
v -0.1000 0.5100 0.1600
v 0.1000 0.5100 0.1600
f 116/7 115/7 114/7 113/7
v 0.1000 0.5100 0.2200
v -0.1000 0.5100 0.2200
v -0.1000 0.5300 0.2200
v 0.1000 0.5300 0.2200
f 120/7 119/7 118/7 117/7
v -0.0464 1.0000 0.1427
v -0.1214 1.0000 0.0882
v -0.1214 1.0400 0.0882
v -0.0464 1.0400 0.1427
f 124/7 123/7 122/7 121/7
v -0.1214 1.0000 0.0882
v -0.1500 1.0000 0.0000
v -0.1500 1.0400 0.0000
v -0.1214 1.0400 0.0882
f 128/7 127/7 126/7 125/7
v -0.1500 1.0000 0.0000
v -0.1214 1.0000 -0.0882
v -0.1214 1.0400 -0.0882
v -0.1500 1.0400 0.0000
f 132/7 131/7 130/7 129/7
v -0.1214 1.0000 -0.0882
v -0.0464 1.0000 -0.1427
v -0.0464 1.0400 -0.1427
v -0.1214 1.0400 -0.0882
f 136/7 135/7 134/7 133/7
v -0.0464 1.0000 -0.1427
v 0.0464 1.0000 -0.1427
v 0.0464 1.0400 -0.1427
v -0.0464 1.0400 -0.1427
f 140/7 139/7 138/7 137/7
v 0.0464 1.0000 -0.1427
v 0.1214 1.0000 -0.0882
v 0.1214 1.0400 -0.0882
v 0.0464 1.0400 -0.1427
f 144/7 143/7 142/7 141/7
v 0.1214 1.0000 -0.0882
v 0.1500 1.0000 -0.0000
v 0.1500 1.0400 -0.0000
v 0.1214 1.0400 -0.0882
f 148/7 147/7 146/7 145/7
v 0.1500 1.0000 -0.0000
v 0.1214 1.0000 0.0882
v 0.1214 1.0400 0.0882
v 0.1500 1.0400 -0.0000
f 152/7 151/7 150/7 149/7
v 0.1214 1.0000 0.0882
v 0.0464 1.0000 0.1427
v 0.0464 1.0400 0.1427
v 0.1214 1.0400 0.0882
f 156/7 155/7 154/7 153/7
v 0.0464 1.0000 0.1427
v -0.0464 1.0000 0.1427
v -0.0464 1.0400 0.1427
v 0.0464 1.0400 0.1427
f 160/7 159/7 158/7 157/7
v 0.0464 1.0000 0.1427
v 0.1214 1.0000 0.0882
v 0.1500 1.0000 -0.0000
v 0.1214 1.0000 -0.0882
v 0.0464 1.0000 -0.1427
v -0.0464 1.0000 -0.1427
v -0.1214 1.0000 -0.0882
v -0.1500 1.0000 0.0000
v -0.1214 1.0000 0.0882
v -0.0464 1.0000 0.1427
f 170/7 169/7 168/7 167/7 166/7 165/7 164/7 163/7 162/7 161/7
v -0.0464 1.0400 0.1427
v -0.1214 1.0400 0.0882
v -0.1500 1.0400 0.0000
v -0.1214 1.0400 -0.0882
v -0.0464 1.0400 -0.1427
v 0.0464 1.0400 -0.1427
v 0.1214 1.0400 -0.0882
v 0.1500 1.0400 -0.0000
v 0.1214 1.0400 0.0882
v 0.0464 1.0400 0.1427
f 180/7 179/7 178/7 177/7 176/7 175/7 174/7 173/7 172/7 171/7
v -0.0525 1.0400 0.1617
v -0.1375 1.0400 0.0999
v -0.1375 1.4600 0.0999
v -0.0525 1.4600 0.1617
f 184/13 183/13 182/13 181/13
v -0.1375 1.0400 0.0999
v -0.1700 1.0400 0.0000
v -0.1700 1.4600 0.0000
v -0.1375 1.4600 0.0999
f 188/13 187/13 186/13 185/13
v -0.1700 1.0400 0.0000
v -0.1375 1.0400 -0.0999
v -0.1375 1.4600 -0.0999
v -0.1700 1.4600 0.0000
f 192/13 191/13 190/13 189/13
v -0.1375 1.0400 -0.0999
v -0.0525 1.0400 -0.1617
v -0.0525 1.4600 -0.1617
v -0.1375 1.4600 -0.0999
f 196/13 195/13 194/13 193/13
v -0.0525 1.0400 -0.1617
v 0.0525 1.0400 -0.1617
v 0.0525 1.4600 -0.1617
v -0.0525 1.4600 -0.1617
f 200/13 199/13 198/13 197/13
v 0.0525 1.0400 -0.1617
v 0.1375 1.0400 -0.0999
v 0.1375 1.4600 -0.0999
v 0.0525 1.4600 -0.1617
f 204/13 203/13 202/13 201/13
v 0.1375 1.0400 -0.0999
v 0.1700 1.0400 -0.0000
v 0.1700 1.4600 -0.0000
v 0.1375 1.4600 -0.0999
f 208/13 207/13 206/13 205/13
v 0.1700 1.0400 -0.0000
v 0.1375 1.0400 0.0999
v 0.1375 1.4600 0.0999
v 0.1700 1.4600 -0.0000
f 212/13 211/13 210/13 209/13
v 0.1375 1.0400 0.0999
v 0.0525 1.0400 0.1617
v 0.0525 1.4600 0.1617
v 0.1375 1.4600 0.0999
f 216/13 215/13 214/13 213/13
v 0.0525 1.0400 0.1617
v -0.0525 1.0400 0.1617
v -0.0525 1.4600 0.1617
v 0.0525 1.4600 0.1617
f 220/13 219/13 218/13 217/13
v 0.0525 1.0400 0.1617
v 0.1375 1.0400 0.0999
v 0.1700 1.0400 -0.0000
v 0.1375 1.0400 -0.0999
v 0.0525 1.0400 -0.1617
v -0.0525 1.0400 -0.1617
v -0.1375 1.0400 -0.0999
v -0.1700 1.0400 0.0000
v -0.1375 1.0400 0.0999
v -0.0525 1.0400 0.1617
f 230/13 229/13 228/13 227/13 226/13 225/13 224/13 223/13 222/13 221/13
v -0.0525 1.4600 0.1617
v -0.1375 1.4600 0.0999
v -0.1700 1.4600 0.0000
v -0.1375 1.4600 -0.0999
v -0.0525 1.4600 -0.1617
v 0.0525 1.4600 -0.1617
v 0.1375 1.4600 -0.0999
v 0.1700 1.4600 -0.0000
v 0.1375 1.4600 0.0999
v 0.0525 1.4600 0.1617
f 240/13 239/13 238/13 237/13 236/13 235/13 234/13 233/13 232/13 231/13
v -0.0525 1.4600 0.1617
v -0.1375 1.4600 0.0999
v -0.0485 1.5400 0.0353
v -0.0185 1.5400 0.0571
f 244/13 243/13 242/13 241/13
v -0.1375 1.4600 0.0999
v -0.1700 1.4600 0.0000
v -0.0600 1.5400 0.0000
v -0.0485 1.5400 0.0353
f 248/13 247/13 246/13 245/13
v -0.1700 1.4600 0.0000
v -0.1375 1.4600 -0.0999
v -0.0485 1.5400 -0.0353
v -0.0600 1.5400 0.0000
f 252/13 251/13 250/13 249/13
v -0.1375 1.4600 -0.0999
v -0.0525 1.4600 -0.1617
v -0.0185 1.5400 -0.0571
v -0.0485 1.5400 -0.0353
f 256/13 255/13 254/13 253/13
v -0.0525 1.4600 -0.1617
v 0.0525 1.4600 -0.1617
v 0.0185 1.5400 -0.0571
v -0.0185 1.5400 -0.0571
f 260/13 259/13 258/13 257/13
v 0.0525 1.4600 -0.1617
v 0.1375 1.4600 -0.0999
v 0.0485 1.5400 -0.0353
v 0.0185 1.5400 -0.0571
f 264/13 263/13 262/13 261/13
v 0.1375 1.4600 -0.0999
v 0.1700 1.4600 -0.0000
v 0.0600 1.5400 -0.0000
v 0.0485 1.5400 -0.0353
f 268/13 267/13 266/13 265/13
v 0.1700 1.4600 -0.0000
v 0.1375 1.4600 0.0999
v 0.0485 1.5400 0.0353
v 0.0600 1.5400 -0.0000
f 272/13 271/13 270/13 269/13
v 0.1375 1.4600 0.0999
v 0.0525 1.4600 0.1617
v 0.0185 1.5400 0.0571
v 0.0485 1.5400 0.0353
f 276/13 275/13 274/13 273/13
v 0.0525 1.4600 0.1617
v -0.0525 1.4600 0.1617
v -0.0185 1.5400 0.0571
v 0.0185 1.5400 0.0571
f 280/13 279/13 278/13 277/13
v 0.0525 1.4600 0.1617
v 0.1375 1.4600 0.0999
v 0.1700 1.4600 -0.0000
v 0.1375 1.4600 -0.0999
v 0.0525 1.4600 -0.1617
v -0.0525 1.4600 -0.1617
v -0.1375 1.4600 -0.0999
v -0.1700 1.4600 0.0000
v -0.1375 1.4600 0.0999
v -0.0525 1.4600 0.1617
f 290/13 289/13 288/13 287/13 286/13 285/13 284/13 283/13 282/13 281/13
v -0.0185 1.5400 0.0571
v -0.0485 1.5400 0.0353
v -0.0600 1.5400 0.0000
v -0.0485 1.5400 -0.0353
v -0.0185 1.5400 -0.0571
v 0.0185 1.5400 -0.0571
v 0.0485 1.5400 -0.0353
v 0.0600 1.5400 -0.0000
v 0.0485 1.5400 0.0353
v 0.0185 1.5400 0.0571
f 300/13 299/13 298/13 297/13 296/13 295/13 294/13 293/13 292/13 291/13
v -0.0230 1.5400 0.0554
v -0.0554 1.5400 0.0230
v -0.0554 1.5800 0.0230
v -0.0230 1.5800 0.0554
f 304/19 303/19 302/19 301/19
v -0.0554 1.5400 0.0230
v -0.0554 1.5400 -0.0230
v -0.0554 1.5800 -0.0230
v -0.0554 1.5800 0.0230
f 308/19 307/19 306/19 305/19
v -0.0554 1.5400 -0.0230
v -0.0230 1.5400 -0.0554
v -0.0230 1.5800 -0.0554
v -0.0554 1.5800 -0.0230
f 312/19 311/19 310/19 309/19
v -0.0230 1.5400 -0.0554
v 0.0230 1.5400 -0.0554
v 0.0230 1.5800 -0.0554
v -0.0230 1.5800 -0.0554
f 316/19 315/19 314/19 313/19
v 0.0230 1.5400 -0.0554
v 0.0554 1.5400 -0.0230
v 0.0554 1.5800 -0.0230
v 0.0230 1.5800 -0.0554
f 320/19 319/19 318/19 317/19
v 0.0554 1.5400 -0.0230
v 0.0554 1.5400 0.0230
v 0.0554 1.5800 0.0230
v 0.0554 1.5800 -0.0230
f 324/19 323/19 322/19 321/19
v 0.0554 1.5400 0.0230
v 0.0230 1.5400 0.0554
v 0.0230 1.5800 0.0554
v 0.0554 1.5800 0.0230
f 328/19 327/19 326/19 325/19
v 0.0230 1.5400 0.0554
v -0.0230 1.5400 0.0554
v -0.0230 1.5800 0.0554
v 0.0230 1.5800 0.0554
f 332/19 331/19 330/19 329/19
v 0.0230 1.5400 0.0554
v 0.0554 1.5400 0.0230
v 0.0554 1.5400 -0.0230
v 0.0230 1.5400 -0.0554
v -0.0230 1.5400 -0.0554
v -0.0554 1.5400 -0.0230
v -0.0554 1.5400 0.0230
v -0.0230 1.5400 0.0554
f 340/19 339/19 338/19 337/19 336/19 335/19 334/19 333/19
v -0.0230 1.5800 0.0554
v -0.0554 1.5800 0.0230
v -0.0554 1.5800 -0.0230
v -0.0230 1.5800 -0.0554
v 0.0230 1.5800 -0.0554
v 0.0554 1.5800 -0.0230
v 0.0554 1.5800 0.0230
v 0.0230 1.5800 0.0554
f 348/19 347/19 346/19 345/19 344/19 343/19 342/19 341/19
v -0.3100 0.0000 0.1520
v -0.3400 0.0000 0.1000
v -0.3400 0.5500 0.1000
v -0.3100 0.5500 0.1520
f 352/7 351/7 350/7 349/7
v -0.3400 0.0000 0.1000
v -0.3100 0.0000 0.0480
v -0.3100 0.5500 0.0480
v -0.3400 0.5500 0.1000
f 356/7 355/7 354/7 353/7
v -0.3100 0.0000 0.0480
v -0.2500 0.0000 0.0480
v -0.2500 0.5500 0.0480
v -0.3100 0.5500 0.0480
f 360/7 359/7 358/7 357/7
v -0.2500 0.0000 0.0480
v -0.2200 0.0000 0.1000
v -0.2200 0.5500 0.1000
v -0.2500 0.5500 0.0480
f 364/7 363/7 362/7 361/7
v -0.2200 0.0000 0.1000
v -0.2500 0.0000 0.1520
v -0.2500 0.5500 0.1520
v -0.2200 0.5500 0.1000
f 368/7 367/7 366/7 365/7
v -0.2500 0.0000 0.1520
v -0.3100 0.0000 0.1520
v -0.3100 0.5500 0.1520
v -0.2500 0.5500 0.1520
f 372/7 371/7 370/7 369/7
v -0.2500 0.0000 0.1520
v -0.2200 0.0000 0.1000
v -0.2500 0.0000 0.0480
v -0.3100 0.0000 0.0480
v -0.3400 0.0000 0.1000
v -0.3100 0.0000 0.1520
f 378/7 377/7 376/7 375/7 374/7 373/7
v -0.3100 0.5500 0.1520
v -0.3400 0.5500 0.1000
v -0.3100 0.5500 0.0480
v -0.2500 0.5500 0.0480
v -0.2200 0.5500 0.1000
v -0.2500 0.5500 0.1520
f 384/7 383/7 382/7 381/7 380/7 379/7
v -0.3100 0.5500 0.1520
v -0.3400 0.5500 0.1000
v -0.3300 0.6200 0.1000
v -0.3050 0.6200 0.1433
f 388/15 387/15 386/15 385/15
v -0.3400 0.5500 0.1000
v -0.3100 0.5500 0.0480
v -0.3050 0.6200 0.0567
v -0.3300 0.6200 0.1000
f 392/15 391/15 390/15 389/15
v -0.3100 0.5500 0.0480
v -0.2500 0.5500 0.0480
v -0.2550 0.6200 0.0567
v -0.3050 0.6200 0.0567
f 396/15 395/15 394/15 393/15
v -0.2500 0.5500 0.0480
v -0.2200 0.5500 0.1000
v -0.2300 0.6200 0.1000
v -0.2550 0.6200 0.0567
f 400/15 399/15 398/15 397/15
v -0.2200 0.5500 0.1000
v -0.2500 0.5500 0.1520
v -0.2550 0.6200 0.1433
v -0.2300 0.6200 0.1000
f 404/15 403/15 402/15 401/15
v -0.2500 0.5500 0.1520
v -0.3100 0.5500 0.1520
v -0.3050 0.6200 0.1433
v -0.2550 0.6200 0.1433
f 408/15 407/15 406/15 405/15
v -0.2500 0.5500 0.1520
v -0.2200 0.5500 0.1000
v -0.2500 0.5500 0.0480
v -0.3100 0.5500 0.0480
v -0.3400 0.5500 0.1000
v -0.3100 0.5500 0.1520
f 414/15 413/15 412/15 411/15 410/15 409/15
v -0.3050 0.6200 0.1433
v -0.3300 0.6200 0.1000
v -0.3050 0.6200 0.0567
v -0.2550 0.6200 0.0567
v -0.2300 0.6200 0.1000
v -0.2550 0.6200 0.1433
f 420/15 419/15 418/15 417/15 416/15 415/15
v -0.3100 0.6200 0.1520
v -0.3400 0.6200 0.1000
v -0.3300 0.6900 0.1000
v -0.3050 0.6900 0.1433
f 424/15 423/15 422/15 421/15
v -0.3400 0.6200 0.1000
v -0.3100 0.6200 0.0480
v -0.3050 0.6900 0.0567
v -0.3300 0.6900 0.1000
f 428/15 427/15 426/15 425/15
v -0.3100 0.6200 0.0480
v -0.2500 0.6200 0.0480
v -0.2550 0.6900 0.0567
v -0.3050 0.6900 0.0567
f 432/15 431/15 430/15 429/15
v -0.2500 0.6200 0.0480
v -0.2200 0.6200 0.1000
v -0.2300 0.6900 0.1000
v -0.2550 0.6900 0.0567
f 436/15 435/15 434/15 433/15
v -0.2200 0.6200 0.1000
v -0.2500 0.6200 0.1520
v -0.2550 0.6900 0.1433
v -0.2300 0.6900 0.1000
f 440/15 439/15 438/15 437/15
v -0.2500 0.6200 0.1520
v -0.3100 0.6200 0.1520
v -0.3050 0.6900 0.1433
v -0.2550 0.6900 0.1433
f 444/15 443/15 442/15 441/15
v -0.2500 0.6200 0.1520
v -0.2200 0.6200 0.1000
v -0.2500 0.6200 0.0480
v -0.3100 0.6200 0.0480
v -0.3400 0.6200 0.1000
v -0.3100 0.6200 0.1520
f 450/15 449/15 448/15 447/15 446/15 445/15
v -0.3050 0.6900 0.1433
v -0.3300 0.6900 0.1000
v -0.3050 0.6900 0.0567
v -0.2550 0.6900 0.0567
v -0.2300 0.6900 0.1000
v -0.2550 0.6900 0.1433
f 456/15 455/15 454/15 453/15 452/15 451/15
v -0.3100 0.6900 0.1520
v -0.3400 0.6900 0.1000
v -0.3300 0.7600 0.1000
v -0.3050 0.7600 0.1433
f 460/15 459/15 458/15 457/15
v -0.3400 0.6900 0.1000
v -0.3100 0.6900 0.0480
v -0.3050 0.7600 0.0567
v -0.3300 0.7600 0.1000
f 464/15 463/15 462/15 461/15
v -0.3100 0.6900 0.0480
v -0.2500 0.6900 0.0480
v -0.2550 0.7600 0.0567
v -0.3050 0.7600 0.0567
f 468/15 467/15 466/15 465/15
v -0.2500 0.6900 0.0480
v -0.2200 0.6900 0.1000
v -0.2300 0.7600 0.1000
v -0.2550 0.7600 0.0567
f 472/15 471/15 470/15 469/15
v -0.2200 0.6900 0.1000
v -0.2500 0.6900 0.1520
v -0.2550 0.7600 0.1433
v -0.2300 0.7600 0.1000
f 476/15 475/15 474/15 473/15
v -0.2500 0.6900 0.1520
v -0.3100 0.6900 0.1520
v -0.3050 0.7600 0.1433
v -0.2550 0.7600 0.1433
f 480/15 479/15 478/15 477/15
v -0.2500 0.6900 0.1520
v -0.2200 0.6900 0.1000
v -0.2500 0.6900 0.0480
v -0.3100 0.6900 0.0480
v -0.3400 0.6900 0.1000
v -0.3100 0.6900 0.1520
f 486/15 485/15 484/15 483/15 482/15 481/15
v -0.3050 0.7600 0.1433
v -0.3300 0.7600 0.1000
v -0.3050 0.7600 0.0567
v -0.2550 0.7600 0.0567
v -0.2300 0.7600 0.1000
v -0.2550 0.7600 0.1433
f 492/15 491/15 490/15 489/15 488/15 487/15
v -0.3100 0.7600 0.1520
v -0.3400 0.7600 0.1000
v -0.3300 0.8300 0.1000
v -0.3050 0.8300 0.1433
f 496/15 495/15 494/15 493/15
v -0.3400 0.7600 0.1000
v -0.3100 0.7600 0.0480
v -0.3050 0.8300 0.0567
v -0.3300 0.8300 0.1000
f 500/15 499/15 498/15 497/15
v -0.3100 0.7600 0.0480
v -0.2500 0.7600 0.0480
v -0.2550 0.8300 0.0567
v -0.3050 0.8300 0.0567
f 504/15 503/15 502/15 501/15
v -0.2500 0.7600 0.0480
v -0.2200 0.7600 0.1000
v -0.2300 0.8300 0.1000
v -0.2550 0.8300 0.0567
f 508/15 507/15 506/15 505/15
v -0.2200 0.7600 0.1000
v -0.2500 0.7600 0.1520
v -0.2550 0.8300 0.1433
v -0.2300 0.8300 0.1000
f 512/15 511/15 510/15 509/15
v -0.2500 0.7600 0.1520
v -0.3100 0.7600 0.1520
v -0.3050 0.8300 0.1433
v -0.2550 0.8300 0.1433
f 516/15 515/15 514/15 513/15
v -0.2500 0.7600 0.1520
v -0.2200 0.7600 0.1000
v -0.2500 0.7600 0.0480
v -0.3100 0.7600 0.0480
v -0.3400 0.7600 0.1000
v -0.3100 0.7600 0.1520
f 522/15 521/15 520/15 519/15 518/15 517/15
v -0.3050 0.8300 0.1433
v -0.3300 0.8300 0.1000
v -0.3050 0.8300 0.0567
v -0.2550 0.8300 0.0567
v -0.2300 0.8300 0.1000
v -0.2550 0.8300 0.1433
f 528/15 527/15 526/15 525/15 524/15 523/15
