# Walk of Industry low-poly (generated, wi_lib.py)
mtllib wi.mtl
vt 0 0
vt 0.03125 0.03125
vt 0.09375 0.03125
vt 0.15625 0.03125
vt 0.21875 0.03125
vt 0.28125 0.03125
vt 0.34375 0.03125
vt 0.40625 0.03125
vt 0.46875 0.03125
vt 0.53125 0.03125
vt 0.59375 0.03125
vt 0.65625 0.03125
vt 0.71875 0.03125
vt 0.78125 0.03125
vt 0.84375 0.03125
vt 0.90625 0.03125
vt 0.96875 0.03125
vt 0.03125 0.09375
vt 0.09375 0.09375
vt 0.15625 0.09375
vt 0.21875 0.09375
vt 0.28125 0.09375
vt 0.34375 0.09375
vt 0.40625 0.09375
vt 0.46875 0.09375
vt 0.53125 0.09375
vt 0.59375 0.09375
vt 0.65625 0.09375
vt 0.71875 0.09375
vt 0.78125 0.09375
vt 0.84375 0.09375
vt 0.90625 0.09375
vt 0.96875 0.09375
o Body
usemtl wi_palette
v -0.2781 0.0000 0.8560
v -0.7281 0.0000 0.5290
v -0.7281 0.0400 0.5290
v -0.2781 0.0400 0.8560
f 4/24 3/24 2/24 1/24
v -0.7281 0.0000 0.5290
v -0.9000 0.0000 0.0000
v -0.9000 0.0400 0.0000
v -0.7281 0.0400 0.5290
f 8/24 7/24 6/24 5/24
v -0.9000 0.0000 0.0000
v -0.7281 0.0000 -0.5290
v -0.7281 0.0400 -0.5290
v -0.9000 0.0400 0.0000
f 12/24 11/24 10/24 9/24
v -0.7281 0.0000 -0.5290
v -0.2781 0.0000 -0.8560
v -0.2781 0.0400 -0.8560
v -0.7281 0.0400 -0.5290
f 16/24 15/24 14/24 13/24
v -0.2781 0.0000 -0.8560
v 0.2781 0.0000 -0.8560
v 0.2781 0.0400 -0.8560
v -0.2781 0.0400 -0.8560
f 20/24 19/24 18/24 17/24
v 0.2781 0.0000 -0.8560
v 0.7281 0.0000 -0.5290
v 0.7281 0.0400 -0.5290
v 0.2781 0.0400 -0.8560
f 24/24 23/24 22/24 21/24
v 0.7281 0.0000 -0.5290
v 0.9000 0.0000 -0.0000
v 0.9000 0.0400 -0.0000
v 0.7281 0.0400 -0.5290
f 28/24 27/24 26/24 25/24
v 0.9000 0.0000 -0.0000
v 0.7281 0.0000 0.5290
v 0.7281 0.0400 0.5290
v 0.9000 0.0400 -0.0000
f 32/24 31/24 30/24 29/24
v 0.7281 0.0000 0.5290
v 0.2781 0.0000 0.8560
v 0.2781 0.0400 0.8560
v 0.7281 0.0400 0.5290
f 36/24 35/24 34/24 33/24
v 0.2781 0.0000 0.8560
v -0.2781 0.0000 0.8560
v -0.2781 0.0400 0.8560
v 0.2781 0.0400 0.8560
f 40/24 39/24 38/24 37/24
v 0.2781 0.0000 0.8560
v 0.7281 0.0000 0.5290
v 0.9000 0.0000 -0.0000
v 0.7281 0.0000 -0.5290
v 0.2781 0.0000 -0.8560
v -0.2781 0.0000 -0.8560
v -0.7281 0.0000 -0.5290
v -0.9000 0.0000 0.0000
v -0.7281 0.0000 0.5290
v -0.2781 0.0000 0.8560
f 50/24 49/24 48/24 47/24 46/24 45/24 44/24 43/24 42/24 41/24
v -0.2781 0.0400 0.8560
v -0.7281 0.0400 0.5290
v -0.9000 0.0400 0.0000
v -0.7281 0.0400 -0.5290
v -0.2781 0.0400 -0.8560
v 0.2781 0.0400 -0.8560
v 0.7281 0.0400 -0.5290
v 0.9000 0.0400 -0.0000
v 0.7281 0.0400 0.5290
v 0.2781 0.0400 0.8560
f 60/24 59/24 58/24 57/24 56/24 55/24 54/24 53/24 52/24 51/24
v -0.1225 0.0400 0.2956
v -0.2956 0.0400 0.1225
v -0.2956 0.2600 0.1225
v -0.1225 0.2600 0.2956
f 64/27 63/27 62/27 61/27
v -0.2956 0.0400 0.1225
v -0.2956 0.0400 -0.1225
v -0.2956 0.2600 -0.1225
v -0.2956 0.2600 0.1225
f 68/27 67/27 66/27 65/27
v -0.2956 0.0400 -0.1225
v -0.1225 0.0400 -0.2956
v -0.1225 0.2600 -0.2956
v -0.2956 0.2600 -0.1225
f 72/27 71/27 70/27 69/27
v -0.1225 0.0400 -0.2956
v 0.1225 0.0400 -0.2956
v 0.1225 0.2600 -0.2956
v -0.1225 0.2600 -0.2956
f 76/27 75/27 74/27 73/27
v 0.1225 0.0400 -0.2956
v 0.2956 0.0400 -0.1225
v 0.2956 0.2600 -0.1225
v 0.1225 0.2600 -0.2956
f 80/27 79/27 78/27 77/27
v 0.2956 0.0400 -0.1225
v 0.2956 0.0400 0.1225
v 0.2956 0.2600 0.1225
v 0.2956 0.2600 -0.1225
f 84/27 83/27 82/27 81/27
v 0.2956 0.0400 0.1225
v 0.1225 0.0400 0.2956
v 0.1225 0.2600 0.2956
v 0.2956 0.2600 0.1225
f 88/27 87/27 86/27 85/27
v 0.1225 0.0400 0.2956
v -0.1225 0.0400 0.2956
v -0.1225 0.2600 0.2956
v 0.1225 0.2600 0.2956
f 92/27 91/27 90/27 89/27
v 0.1225 0.0400 0.2956
v 0.2956 0.0400 0.1225
v 0.2956 0.0400 -0.1225
v 0.1225 0.0400 -0.2956
v -0.1225 0.0400 -0.2956
v -0.2956 0.0400 -0.1225
v -0.2956 0.0400 0.1225
v -0.1225 0.0400 0.2956
f 100/27 99/27 98/27 97/27 96/27 95/27 94/27 93/27
v -0.1225 0.2600 0.2956
v -0.2956 0.2600 0.1225
v -0.2956 0.2600 -0.1225
v -0.1225 0.2600 -0.2956
v 0.1225 0.2600 -0.2956
v 0.2956 0.2600 -0.1225
v 0.2956 0.2600 0.1225
v 0.1225 0.2600 0.2956
f 108/27 107/27 106/27 105/27 104/27 103/27 102/27 101/27
v -0.0600 0.2600 0.1039
v -0.1200 0.2600 0.0000
v -0.1200 0.5600 0.0000
v -0.0600 0.5600 0.1039
f 112/22 111/22 110/22 109/22
v -0.1200 0.2600 0.0000
v -0.0600 0.2600 -0.1039
v -0.0600 0.5600 -0.1039
v -0.1200 0.5600 0.0000
f 116/22 115/22 114/22 113/22
v -0.0600 0.2600 -0.1039
v 0.0600 0.2600 -0.1039
v 0.0600 0.5600 -0.1039
v -0.0600 0.5600 -0.1039
f 120/22 119/22 118/22 117/22
v 0.0600 0.2600 -0.1039
v 0.1200 0.2600 -0.0000
v 0.1200 0.5600 -0.0000
v 0.0600 0.5600 -0.1039
f 124/22 123/22 122/22 121/22
v 0.1200 0.2600 -0.0000
v 0.0600 0.2600 0.1039
v 0.0600 0.5600 0.1039
v 0.1200 0.5600 -0.0000
f 128/22 127/22 126/22 125/22
v 0.0600 0.2600 0.1039
v -0.0600 0.2600 0.1039
v -0.0600 0.5600 0.1039
v 0.0600 0.5600 0.1039
f 132/22 131/22 130/22 129/22
v 0.0600 0.2600 0.1039
v 0.1200 0.2600 -0.0000
v 0.0600 0.2600 -0.1039
v -0.0600 0.2600 -0.1039
v -0.1200 0.2600 0.0000
v -0.0600 0.2600 0.1039
f 138/22 137/22 136/22 135/22 134/22 133/22
v -0.0600 0.5600 0.1039
v -0.1200 0.5600 0.0000
v -0.0600 0.5600 -0.1039
v 0.0600 0.5600 -0.1039
v 0.1200 0.5600 -0.0000
v 0.0600 0.5600 0.1039
f 144/22 143/22 142/22 141/22 140/22 139/22
v -0.2907 0.5000 0.7987
v -0.7361 0.5000 0.4250
v -0.0173 1.3500 0.0100
v -0.0068 1.3500 0.0188
f 148/21 147/21 146/21 145/21
v -0.7361 0.5000 0.4250
v -0.8371 0.5000 -0.1476
v -0.0197 1.3500 -0.0035
v -0.0173 1.3500 0.0100
f 152/21 151/21 150/21 149/21
v -0.8371 0.5000 -0.1476
v -0.5464 0.5000 -0.6511
v -0.0129 1.3500 -0.0153
v -0.0197 1.3500 -0.0035
f 156/21 155/21 154/21 153/21
v -0.5464 0.5000 -0.6511
v -0.0000 0.5000 -0.8500
v -0.0000 1.3500 -0.0200
v -0.0129 1.3500 -0.0153
f 160/21 159/21 158/21 157/21
v -0.0000 0.5000 -0.8500
v 0.5464 0.5000 -0.6511
v 0.0129 1.3500 -0.0153
v -0.0000 1.3500 -0.0200
f 164/21 163/21 162/21 161/21
v 0.5464 0.5000 -0.6511
v 0.8371 0.5000 -0.1476
v 0.0197 1.3500 -0.0035
v 0.0129 1.3500 -0.0153
f 168/21 167/21 166/21 165/21
v 0.8371 0.5000 -0.1476
v 0.7361 0.5000 0.4250
v 0.0173 1.3500 0.0100
v 0.0197 1.3500 -0.0035
f 172/21 171/21 170/21 169/21
v 0.7361 0.5000 0.4250
v 0.2907 0.5000 0.7987
v 0.0068 1.3500 0.0188
v 0.0173 1.3500 0.0100
f 176/21 175/21 174/21 173/21
v 0.2907 0.5000 0.7987
v -0.2907 0.5000 0.7987
v -0.0068 1.3500 0.0188
v 0.0068 1.3500 0.0188
f 180/21 179/21 178/21 177/21
v 0.2907 0.5000 0.7987
v 0.7361 0.5000 0.4250
v 0.8371 0.5000 -0.1476
v 0.5464 0.5000 -0.6511
v -0.0000 0.5000 -0.8500
v -0.5464 0.5000 -0.6511
v -0.8371 0.5000 -0.1476
v -0.7361 0.5000 0.4250
v -0.2907 0.5000 0.7987
f 189/21 188/21 187/21 186/21 185/21 184/21 183/21 182/21 181/21
v -0.0068 1.3500 0.0188
v -0.0173 1.3500 0.0100
v -0.0197 1.3500 -0.0035
v -0.0129 1.3500 -0.0153
v -0.0000 1.3500 -0.0200
v 0.0129 1.3500 -0.0153
v 0.0197 1.3500 -0.0035
v 0.0173 1.3500 0.0100
v 0.0068 1.3500 0.0188
f 198/21 197/21 196/21 195/21 194/21 193/21 192/21 191/21 190/21
v -0.2326 1.0500 0.6390
v -0.5889 1.0500 0.3400
v -0.0173 1.8000 0.0100
v -0.0068 1.8000 0.0188
f 202/21 201/21 200/21 199/21
v -0.5889 1.0500 0.3400
v -0.6697 1.0500 -0.1181
v -0.0197 1.8000 -0.0035
v -0.0173 1.8000 0.0100
f 206/21 205/21 204/21 203/21
v -0.6697 1.0500 -0.1181
v -0.4371 1.0500 -0.5209
v -0.0129 1.8000 -0.0153
v -0.0197 1.8000 -0.0035
f 210/21 209/21 208/21 207/21
v -0.4371 1.0500 -0.5209
v -0.0000 1.0500 -0.6800
v -0.0000 1.8000 -0.0200
v -0.0129 1.8000 -0.0153
f 214/21 213/21 212/21 211/21
v -0.0000 1.0500 -0.6800
v 0.4371 1.0500 -0.5209
v 0.0129 1.8000 -0.0153
v -0.0000 1.8000 -0.0200
f 218/21 217/21 216/21 215/21
v 0.4371 1.0500 -0.5209
v 0.6697 1.0500 -0.1181
v 0.0197 1.8000 -0.0035
v 0.0129 1.8000 -0.0153
f 222/21 221/21 220/21 219/21
v 0.6697 1.0500 -0.1181
v 0.5889 1.0500 0.3400
v 0.0173 1.8000 0.0100
v 0.0197 1.8000 -0.0035
f 226/21 225/21 224/21 223/21
v 0.5889 1.0500 0.3400
v 0.2326 1.0500 0.6390
v 0.0068 1.8000 0.0188
v 0.0173 1.8000 0.0100
f 230/21 229/21 228/21 227/21
v 0.2326 1.0500 0.6390
v -0.2326 1.0500 0.6390
v -0.0068 1.8000 0.0188
v 0.0068 1.8000 0.0188
f 234/21 233/21 232/21 231/21
v 0.2326 1.0500 0.6390
v 0.5889 1.0500 0.3400
v 0.6697 1.0500 -0.1181
v 0.4371 1.0500 -0.5209
v -0.0000 1.0500 -0.6800
v -0.4371 1.0500 -0.5209
v -0.6697 1.0500 -0.1181
v -0.5889 1.0500 0.3400
v -0.2326 1.0500 0.6390
f 243/21 242/21 241/21 240/21 239/21 238/21 237/21 236/21 235/21
v -0.0068 1.8000 0.0188
v -0.0173 1.8000 0.0100
v -0.0197 1.8000 -0.0035
v -0.0129 1.8000 -0.0153
v -0.0000 1.8000 -0.0200
v 0.0129 1.8000 -0.0153
v 0.0197 1.8000 -0.0035
v 0.0173 1.8000 0.0100
v 0.0068 1.8000 0.0188
f 252/21 251/21 250/21 249/21 248/21 247/21 246/21 245/21 244/21
v -0.1710 1.5500 0.4698
v -0.4330 1.5500 0.2500
v -0.0173 2.2500 0.0100
v -0.0068 2.2500 0.0188
f 256/21 255/21 254/21 253/21
v -0.4330 1.5500 0.2500
v -0.4924 1.5500 -0.0868
v -0.0197 2.2500 -0.0035
v -0.0173 2.2500 0.0100
f 260/21 259/21 258/21 257/21
v -0.4924 1.5500 -0.0868
v -0.3214 1.5500 -0.3830
v -0.0129 2.2500 -0.0153
v -0.0197 2.2500 -0.0035
f 264/21 263/21 262/21 261/21
v -0.3214 1.5500 -0.3830
v -0.0000 1.5500 -0.5000
v -0.0000 2.2500 -0.0200
v -0.0129 2.2500 -0.0153
f 268/21 267/21 266/21 265/21
v -0.0000 1.5500 -0.5000
v 0.3214 1.5500 -0.3830
v 0.0129 2.2500 -0.0153
v -0.0000 2.2500 -0.0200
f 272/21 271/21 270/21 269/21
v 0.3214 1.5500 -0.3830
v 0.4924 1.5500 -0.0868
v 0.0197 2.2500 -0.0035
v 0.0129 2.2500 -0.0153
f 276/21 275/21 274/21 273/21
v 0.4924 1.5500 -0.0868
v 0.4330 1.5500 0.2500
v 0.0173 2.2500 0.0100
v 0.0197 2.2500 -0.0035
f 280/21 279/21 278/21 277/21
v 0.4330 1.5500 0.2500
v 0.1710 1.5500 0.4698
v 0.0068 2.2500 0.0188
v 0.0173 2.2500 0.0100
f 284/21 283/21 282/21 281/21
v 0.1710 1.5500 0.4698
v -0.1710 1.5500 0.4698
v -0.0068 2.2500 0.0188
v 0.0068 2.2500 0.0188
f 288/21 287/21 286/21 285/21
v 0.1710 1.5500 0.4698
v 0.4330 1.5500 0.2500
v 0.4924 1.5500 -0.0868
v 0.3214 1.5500 -0.3830
v -0.0000 1.5500 -0.5000
v -0.3214 1.5500 -0.3830
v -0.4924 1.5500 -0.0868
v -0.4330 1.5500 0.2500
v -0.1710 1.5500 0.4698
f 297/21 296/21 295/21 294/21 293/21 292/21 291/21 290/21 289/21
v -0.0068 2.2500 0.0188
v -0.0173 2.2500 0.0100
v -0.0197 2.2500 -0.0035
v -0.0129 2.2500 -0.0153
v -0.0000 2.2500 -0.0200
v 0.0129 2.2500 -0.0153
v 0.0197 2.2500 -0.0035
v 0.0173 2.2500 0.0100
v 0.0068 2.2500 0.0188
f 306/21 305/21 304/21 303/21 302/21 301/21 300/21 299/21 298/21
v -0.1094 2.0000 0.3007
v -0.2771 2.0000 0.1600
v -0.0173 2.6000 0.0100
v -0.0068 2.6000 0.0188
f 310/21 309/21 308/21 307/21
v -0.2771 2.0000 0.1600
v -0.3151 2.0000 -0.0556
v -0.0197 2.6000 -0.0035
v -0.0173 2.6000 0.0100
f 314/21 313/21 312/21 311/21
v -0.3151 2.0000 -0.0556
v -0.2057 2.0000 -0.2451
v -0.0129 2.6000 -0.0153
v -0.0197 2.6000 -0.0035
f 318/21 317/21 316/21 315/21
v -0.2057 2.0000 -0.2451
v -0.0000 2.0000 -0.3200
v -0.0000 2.6000 -0.0200
v -0.0129 2.6000 -0.0153
f 322/21 321/21 320/21 319/21
v -0.0000 2.0000 -0.3200
v 0.2057 2.0000 -0.2451
v 0.0129 2.6000 -0.0153
v -0.0000 2.6000 -0.0200
f 326/21 325/21 324/21 323/21
v 0.2057 2.0000 -0.2451
v 0.3151 2.0000 -0.0556
v 0.0197 2.6000 -0.0035
v 0.0129 2.6000 -0.0153
f 330/21 329/21 328/21 327/21
v 0.3151 2.0000 -0.0556
v 0.2771 2.0000 0.1600
v 0.0173 2.6000 0.0100
v 0.0197 2.6000 -0.0035
f 334/21 333/21 332/21 331/21
v 0.2771 2.0000 0.1600
v 0.1094 2.0000 0.3007
v 0.0068 2.6000 0.0188
v 0.0173 2.6000 0.0100
f 338/21 337/21 336/21 335/21
v 0.1094 2.0000 0.3007
v -0.1094 2.0000 0.3007
v -0.0068 2.6000 0.0188
v 0.0068 2.6000 0.0188
f 342/21 341/21 340/21 339/21
v 0.1094 2.0000 0.3007
v 0.2771 2.0000 0.1600
v 0.3151 2.0000 -0.0556
v 0.2057 2.0000 -0.2451
v -0.0000 2.0000 -0.3200
v -0.2057 2.0000 -0.2451
v -0.3151 2.0000 -0.0556
v -0.2771 2.0000 0.1600
v -0.1094 2.0000 0.3007
f 351/21 350/21 349/21 348/21 347/21 346/21 345/21 344/21 343/21
v -0.0068 2.6000 0.0188
v -0.0173 2.6000 0.0100
v -0.0197 2.6000 -0.0035
v -0.0129 2.6000 -0.0153
v -0.0000 2.6000 -0.0200
v 0.0129 2.6000 -0.0153
v 0.0197 2.6000 -0.0035
v 0.0173 2.6000 0.0100
v 0.0068 2.6000 0.0188
f 360/21 359/21 358/21 357/21 356/21 355/21 354/21 353/21 352/21
v -0.4971 0.6750 0.3342
v -0.4971 0.7550 0.3342
v -0.4571 0.7550 0.2649
v -0.4571 0.6750 0.2649
f 364/27 363/27 362/27 361/27
v -0.5264 0.6750 0.2249
v -0.5264 0.7550 0.2249
v -0.5664 0.7550 0.2942
v -0.5664 0.6750 0.2942
f 368/27 367/27 366/27 365/27
v -0.4571 0.6750 0.2649
v -0.5264 0.6750 0.2249
v -0.5664 0.6750 0.2942
v -0.4971 0.6750 0.3342
f 372/27 371/27 370/27 369/27
v -0.4971 0.7550 0.3342
v -0.5664 0.7550 0.2942
v -0.5264 0.7550 0.2249
v -0.4571 0.7550 0.2649
f 376/27 375/27 374/27 373/27
v -0.4571 0.7550 0.2649
v -0.5264 0.7550 0.2249
v -0.5264 0.6750 0.2249
v -0.4571 0.6750 0.2649
f 380/27 379/27 378/27 377/27
v -0.4971 0.6750 0.3342
v -0.5664 0.6750 0.2942
v -0.5664 0.7550 0.2942
v -0.4971 0.7550 0.3342
f 384/27 383/27 382/27 381/27
v 0.0009 0.6750 0.6376
v 0.0009 0.7550 0.6376
v 0.0409 0.7550 0.5683
v 0.0409 0.6750 0.5683
f 388/23 387/23 386/23 385/23
v -0.0284 0.6750 0.5283
v -0.0284 0.7550 0.5283
v -0.0684 0.7550 0.5976
v -0.0684 0.6750 0.5976
f 392/23 391/23 390/23 389/23
v 0.0409 0.6750 0.5683
v -0.0284 0.6750 0.5283
v -0.0684 0.6750 0.5976
v 0.0009 0.6750 0.6376
f 396/23 395/23 394/23 393/23
v 0.0009 0.7550 0.6376
v -0.0684 0.7550 0.5976
v -0.0284 0.7550 0.5283
v 0.0409 0.7550 0.5683
f 400/23 399/23 398/23 397/23
v 0.0409 0.7550 0.5683
v -0.0284 0.7550 0.5283
v -0.0284 0.6750 0.5283
v 0.0409 0.6750 0.5683
f 404/23 403/23 402/23 401/23
v 0.0009 0.6750 0.6376
v -0.0684 0.6750 0.5976
v -0.0684 0.7550 0.5976
v 0.0009 0.7550 0.6376
f 408/23 407/23 406/23 405/23
v 0.5126 0.6750 0.3580
v 0.5126 0.7550 0.3580
v 0.5526 0.7550 0.2887
v 0.5526 0.6750 0.2887
f 412/19 411/19 410/19 409/19
v 0.4833 0.6750 0.2487
v 0.4833 0.7550 0.2487
v 0.4433 0.7550 0.3180
v 0.4433 0.6750 0.3180
f 416/19 415/19 414/19 413/19
v 0.5526 0.6750 0.2887
v 0.4833 0.6750 0.2487
v 0.4433 0.6750 0.3180
v 0.5126 0.6750 0.3580
f 420/19 419/19 418/19 417/19
v 0.5126 0.7550 0.3580
v 0.4433 0.7550 0.3180
v 0.4833 0.7550 0.2487
v 0.5526 0.7550 0.2887
f 424/19 423/19 422/19 421/19
v 0.5526 0.7550 0.2887
v 0.4833 0.7550 0.2487
v 0.4833 0.6750 0.2487
v 0.5526 0.6750 0.2887
f 428/19 427/19 426/19 425/19
v 0.5126 0.6750 0.3580
v 0.4433 0.6750 0.3180
v 0.4433 0.7550 0.3180
v 0.5126 0.7550 0.3580
f 432/19 431/19 430/19 429/19
v 0.5264 0.6750 -0.2249
v 0.5264 0.7550 -0.2249
v 0.5664 0.7550 -0.2942
v 0.5664 0.6750 -0.2942
f 436/15 435/15 434/15 433/15
v 0.4971 0.6750 -0.3342
v 0.4971 0.7550 -0.3342
v 0.4571 0.7550 -0.2649
v 0.4571 0.6750 -0.2649
f 440/15 439/15 438/15 437/15
v 0.5664 0.6750 -0.2942
v 0.4971 0.6750 -0.3342
v 0.4571 0.6750 -0.2649
v 0.5264 0.6750 -0.2249
f 444/15 443/15 442/15 441/15
v 0.5264 0.7550 -0.2249
v 0.4571 0.7550 -0.2649
v 0.4971 0.7550 -0.3342
v 0.5664 0.7550 -0.2942
f 448/15 447/15 446/15 445/15
v 0.5664 0.7550 -0.2942
v 0.4971 0.7550 -0.3342
v 0.4971 0.6750 -0.3342
v 0.5664 0.6750 -0.2942
f 452/15 451/15 450/15 449/15
v 0.5264 0.6750 -0.2249
v 0.4571 0.6750 -0.2649
v 0.4571 0.7550 -0.2649
v 0.5264 0.7550 -0.2249
f 456/15 455/15 454/15 453/15
v 0.0284 0.6750 -0.5283
v 0.0284 0.7550 -0.5283
v 0.0684 0.7550 -0.5976
v 0.0684 0.6750 -0.5976
f 460/27 459/27 458/27 457/27
v -0.0009 0.6750 -0.6376
v -0.0009 0.7550 -0.6376
v -0.0409 0.7550 -0.5683
v -0.0409 0.6750 -0.5683
f 464/27 463/27 462/27 461/27
v 0.0684 0.6750 -0.5976
v -0.0009 0.6750 -0.6376
v -0.0409 0.6750 -0.5683
v 0.0284 0.6750 -0.5283
f 468/27 467/27 466/27 465/27
v 0.0284 0.7550 -0.5283
v -0.0409 0.7550 -0.5683
v -0.0009 0.7550 -0.6376
v 0.0684 0.7550 -0.5976
f 472/27 471/27 470/27 469/27
v 0.0684 0.7550 -0.5976
v -0.0009 0.7550 -0.6376
v -0.0009 0.6750 -0.6376
v 0.0684 0.6750 -0.5976
f 476/27 475/27 474/27 473/27
v 0.0284 0.6750 -0.5283
v -0.0409 0.6750 -0.5683
v -0.0409 0.7550 -0.5683
v 0.0284 0.7550 -0.5283
f 480/27 479/27 478/27 477/27
v -0.4833 0.6750 -0.2487
v -0.4833 0.7550 -0.2487
v -0.4433 0.7550 -0.3180
v -0.4433 0.6750 -0.3180
f 484/23 483/23 482/23 481/23
v -0.5126 0.6750 -0.3580
v -0.5126 0.7550 -0.3580
v -0.5526 0.7550 -0.2887
v -0.5526 0.6750 -0.2887
f 488/23 487/23 486/23 485/23
v -0.4433 0.6750 -0.3180
v -0.5126 0.6750 -0.3580
v -0.5526 0.6750 -0.2887
v -0.4833 0.6750 -0.2487
f 492/23 491/23 490/23 489/23
v -0.4833 0.7550 -0.2487
v -0.5526 0.7550 -0.2887
v -0.5126 0.7550 -0.3580
v -0.4433 0.7550 -0.3180
f 496/23 495/23 494/23 493/23
v -0.4433 0.7550 -0.3180
v -0.5126 0.7550 -0.3580
v -0.5126 0.6750 -0.3580
v -0.4433 0.6750 -0.3180
f 500/23 499/23 498/23 497/23
v -0.4833 0.6750 -0.2487
v -0.5526 0.6750 -0.2887
v -0.5526 0.7550 -0.2887
v -0.4833 0.7550 -0.2487
f 504/23 503/23 502/23 501/23
v -0.2175 1.1950 0.4593
v -0.2175 1.2750 0.4593
v -0.1775 1.2750 0.3900
v -0.1775 1.1950 0.3900
f 508/19 507/19 506/19 505/19
v -0.2467 1.1950 0.3500
v -0.2467 1.2750 0.3500
v -0.2867 1.2750 0.4193
v -0.2867 1.1950 0.4193
f 512/19 511/19 510/19 509/19
v -0.1775 1.1950 0.3900
v -0.2467 1.1950 0.3500
v -0.2867 1.1950 0.4193
v -0.2175 1.1950 0.4593
f 516/19 515/19 514/19 513/19
v -0.2175 1.2750 0.4593
v -0.2867 1.2750 0.4193
v -0.2467 1.2750 0.3500
v -0.1775 1.2750 0.3900
f 520/19 519/19 518/19 517/19
v -0.1775 1.2750 0.3900
v -0.2467 1.2750 0.3500
v -0.2467 1.1950 0.3500
v -0.1775 1.1950 0.3900
f 524/19 523/19 522/19 521/19
v -0.2175 1.1950 0.4593
v -0.2867 1.1950 0.4193
v -0.2867 1.2750 0.4193
v -0.2175 1.2750 0.4593
f 528/19 527/19 526/19 525/19
v 0.2490 1.1950 0.4580
v 0.2490 1.2750 0.4580
v 0.2890 1.2750 0.3887
v 0.2890 1.1950 0.3887
f 532/15 531/15 530/15 529/15
v 0.2197 1.1950 0.3487
v 0.2197 1.2750 0.3487
v 0.1797 1.2750 0.4180
v 0.1797 1.1950 0.4180
f 536/15 535/15 534/15 533/15
v 0.2890 1.1950 0.3887
v 0.2197 1.1950 0.3487
v 0.1797 1.1950 0.4180
v 0.2490 1.1950 0.4580
f 540/15 539/15 538/15 537/15
v 0.2490 1.2750 0.4580
v 0.1797 1.2750 0.4180
v 0.2197 1.2750 0.3487
v 0.2890 1.2750 0.3887
f 544/15 543/15 542/15 541/15
v 0.2890 1.2750 0.3887
v 0.2197 1.2750 0.3487
v 0.2197 1.1950 0.3487
v 0.2890 1.1950 0.3887
f 548/15 547/15 546/15 545/15
v 0.2490 1.1950 0.4580
v 0.1797 1.1950 0.4180
v 0.1797 1.2750 0.4180
v 0.2490 1.2750 0.4580
f 552/15 551/15 550/15 549/15
v 0.4811 1.1950 0.0533
v 0.4811 1.2750 0.0533
v 0.5211 1.2750 -0.0159
v 0.5211 1.1950 -0.0159
f 556/27 555/27 554/27 553/27
v 0.4518 1.1950 -0.0559
v 0.4518 1.2750 -0.0559
v 0.4118 1.2750 0.0133
v 0.4118 1.1950 0.0133
f 560/27 559/27 558/27 557/27
v 0.5211 1.1950 -0.0159
v 0.4518 1.1950 -0.0559
v 0.4118 1.1950 0.0133
v 0.4811 1.1950 0.0533
f 564/27 563/27 562/27 561/27
v 0.4811 1.2750 0.0533
v 0.4118 1.2750 0.0133
v 0.4518 1.2750 -0.0559
v 0.5211 1.2750 -0.0159
f 568/27 567/27 566/27 565/27
v 0.5211 1.2750 -0.0159
v 0.4518 1.2750 -0.0559
v 0.4518 1.1950 -0.0559
v 0.5211 1.1950 -0.0159
f 572/27 571/27 570/27 569/27
v 0.4811 1.1950 0.0533
v 0.4118 1.1950 0.0133
v 0.4118 1.2750 0.0133
v 0.4811 1.2750 0.0533
f 576/27 575/27 574/27 573/27
v 0.2467 1.1950 -0.3500
v 0.2467 1.2750 -0.3500
v 0.2867 1.2750 -0.4193
v 0.2867 1.1950 -0.4193
f 580/23 579/23 578/23 577/23
v 0.2175 1.1950 -0.4593
v 0.2175 1.2750 -0.4593
v 0.1775 1.2750 -0.3900
v 0.1775 1.1950 -0.3900
f 584/23 583/23 582/23 581/23
v 0.2867 1.1950 -0.4193
v 0.2175 1.1950 -0.4593
v 0.1775 1.1950 -0.3900
v 0.2467 1.1950 -0.3500
f 588/23 587/23 586/23 585/23
v 0.2467 1.2750 -0.3500
v 0.1775 1.2750 -0.3900
v 0.2175 1.2750 -0.4593
v 0.2867 1.2750 -0.4193
f 592/23 591/23 590/23 589/23
v 0.2867 1.2750 -0.4193
v 0.2175 1.2750 -0.4593
v 0.2175 1.1950 -0.4593
v 0.2867 1.1950 -0.4193
f 596/23 595/23 594/23 593/23
v 0.2467 1.1950 -0.3500
v 0.1775 1.1950 -0.3900
v 0.1775 1.2750 -0.3900
v 0.2467 1.2750 -0.3500
f 600/23 599/23 598/23 597/23
v -0.2197 1.1950 -0.3487
v -0.2197 1.2750 -0.3487
v -0.1797 1.2750 -0.4180
v -0.1797 1.1950 -0.4180
f 604/19 603/19 602/19 601/19
v -0.2490 1.1950 -0.4580
v -0.2490 1.2750 -0.4580
v -0.2890 1.2750 -0.3887
v -0.2890 1.1950 -0.3887
f 608/19 607/19 606/19 605/19
v -0.1797 1.1950 -0.4180
v -0.2490 1.1950 -0.4580
v -0.2890 1.1950 -0.3887
v -0.2197 1.1950 -0.3487
f 612/19 611/19 610/19 609/19
v -0.2197 1.2750 -0.3487
v -0.2890 1.2750 -0.3887
v -0.2490 1.2750 -0.4580
v -0.1797 1.2750 -0.4180
f 616/19 615/19 614/19 613/19
v -0.1797 1.2750 -0.4180
v -0.2490 1.2750 -0.4580
v -0.2490 1.1950 -0.4580
v -0.1797 1.1950 -0.4180
f 620/19 619/19 618/19 617/19
v -0.2197 1.1950 -0.3487
v -0.2890 1.1950 -0.3887
v -0.2890 1.2750 -0.3887
v -0.2197 1.2750 -0.3487
f 624/19 623/19 622/19 621/19
v -0.4518 1.1950 0.0559
v -0.4518 1.2750 0.0559
v -0.4118 1.2750 -0.0133
v -0.4118 1.1950 -0.0133
f 628/15 627/15 626/15 625/15
v -0.4811 1.1950 -0.0533
v -0.4811 1.2750 -0.0533
v -0.5211 1.2750 0.0159
v -0.5211 1.1950 0.0159
f 632/15 631/15 630/15 629/15
v -0.4118 1.1950 -0.0133
v -0.4811 1.1950 -0.0533
v -0.5211 1.1950 0.0159
v -0.4518 1.1950 0.0559
f 636/15 635/15 634/15 633/15
v -0.4518 1.2750 0.0559
v -0.5211 1.2750 0.0159
v -0.4811 1.2750 -0.0533
v -0.4118 1.2750 -0.0133
f 640/15 639/15 638/15 637/15
v -0.4118 1.2750 -0.0133
v -0.4811 1.2750 -0.0533
v -0.4811 1.1950 -0.0533
v -0.4118 1.1950 -0.0133
f 644/15 643/15 642/15 641/15
v -0.4518 1.1950 0.0559
v -0.5211 1.1950 0.0159
v -0.5211 1.2750 0.0159
v -0.4518 1.2750 0.0559
f 648/15 647/15 646/15 645/15
v 0.0075 1.6800 0.3976
v 0.0075 1.7600 0.3976
v 0.0475 1.7600 0.3283
v 0.0475 1.6800 0.3283
f 652/27 651/27 650/27 649/27
v -0.0218 1.6800 0.2883
v -0.0218 1.7600 0.2883
v -0.0618 1.7600 0.3576
v -0.0618 1.6800 0.3576
f 656/27 655/27 654/27 653/27
v 0.0475 1.6800 0.3283
v -0.0218 1.6800 0.2883
v -0.0618 1.6800 0.3576
v 0.0075 1.6800 0.3976
f 660/27 659/27 658/27 657/27
v 0.0075 1.7600 0.3976
v -0.0618 1.7600 0.3576
v -0.0218 1.7600 0.2883
v 0.0475 1.7600 0.3283
f 664/27 663/27 662/27 661/27
v 0.0475 1.7600 0.3283
v -0.0218 1.7600 0.2883
v -0.0218 1.6800 0.2883
v 0.0475 1.6800 0.3283
f 668/27 667/27 666/27 665/27
v 0.0075 1.6800 0.3976
v -0.0618 1.6800 0.3576
v -0.0618 1.7600 0.3576
v 0.0075 1.7600 0.3976
f 672/27 671/27 670/27 669/27
v 0.3081 1.6800 0.2323
v 0.3081 1.7600 0.2323
v 0.3481 1.7600 0.1630
v 0.3481 1.6800 0.1630
f 676/23 675/23 674/23 673/23
v 0.2788 1.6800 0.1230
v 0.2788 1.7600 0.1230
v 0.2388 1.7600 0.1923
v 0.2388 1.6800 0.1923
f 680/23 679/23 678/23 677/23
v 0.3481 1.6800 0.1630
v 0.2788 1.6800 0.1230
v 0.2388 1.6800 0.1923
v 0.3081 1.6800 0.2323
f 684/23 683/23 682/23 681/23
v 0.3081 1.7600 0.2323
v 0.2388 1.7600 0.1923
v 0.2788 1.7600 0.1230
v 0.3481 1.7600 0.1630
f 688/23 687/23 686/23 685/23
v 0.3481 1.7600 0.1630
v 0.2788 1.7600 0.1230
v 0.2788 1.6800 0.1230
v 0.3481 1.6800 0.1630
f 692/23 691/23 690/23 689/23
v 0.3081 1.6800 0.2323
v 0.2388 1.6800 0.1923
v 0.2388 1.7600 0.1923
v 0.3081 1.7600 0.2323
f 696/23 695/23 694/23 693/23
v 0.3152 1.6800 -0.1106
v 0.3152 1.7600 -0.1106
v 0.3552 1.7600 -0.1799
v 0.3552 1.6800 -0.1799
f 700/19 699/19 698/19 697/19
v 0.2859 1.6800 -0.2199
v 0.2859 1.7600 -0.2199
v 0.2459 1.7600 -0.1506
v 0.2459 1.6800 -0.1506
f 704/19 703/19 702/19 701/19
v 0.3552 1.6800 -0.1799
v 0.2859 1.6800 -0.2199
v 0.2459 1.6800 -0.1506
v 0.3152 1.6800 -0.1106
f 708/19 707/19 706/19 705/19
v 0.3152 1.7600 -0.1106
v 0.2459 1.7600 -0.1506
v 0.2859 1.7600 -0.2199
v 0.3552 1.7600 -0.1799
f 712/19 711/19 710/19 709/19
v 0.3552 1.7600 -0.1799
v 0.2859 1.7600 -0.2199
v 0.2859 1.6800 -0.2199
v 0.3552 1.6800 -0.1799
f 716/19 715/19 714/19 713/19
v 0.3152 1.6800 -0.1106
v 0.2459 1.6800 -0.1506
v 0.2459 1.7600 -0.1506
v 0.3152 1.7600 -0.1106
f 720/19 719/19 718/19 717/19
v 0.0218 1.6800 -0.2883
v 0.0218 1.7600 -0.2883
v 0.0618 1.7600 -0.3576
v 0.0618 1.6800 -0.3576
f 724/15 723/15 722/15 721/15
v -0.0075 1.6800 -0.3976
v -0.0075 1.7600 -0.3976
v -0.0475 1.7600 -0.3283
v -0.0475 1.6800 -0.3283
f 728/15 727/15 726/15 725/15
v 0.0618 1.6800 -0.3576
v -0.0075 1.6800 -0.3976
v -0.0475 1.6800 -0.3283
v 0.0218 1.6800 -0.2883
f 732/15 731/15 730/15 729/15
v 0.0218 1.7600 -0.2883
v -0.0475 1.7600 -0.3283
v -0.0075 1.7600 -0.3976
v 0.0618 1.7600 -0.3576
f 736/15 735/15 734/15 733/15
v 0.0618 1.7600 -0.3576
v -0.0075 1.7600 -0.3976
v -0.0075 1.6800 -0.3976
v 0.0618 1.6800 -0.3576
f 740/15 739/15 738/15 737/15
v 0.0218 1.6800 -0.2883
v -0.0475 1.6800 -0.3283
v -0.0475 1.7600 -0.3283
v 0.0218 1.7600 -0.2883
f 744/15 743/15 742/15 741/15
v -0.2788 1.6800 -0.1230
v -0.2788 1.7600 -0.1230
v -0.2388 1.7600 -0.1923
v -0.2388 1.6800 -0.1923
f 748/27 747/27 746/27 745/27
v -0.3081 1.6800 -0.2323
v -0.3081 1.7600 -0.2323
v -0.3481 1.7600 -0.1630
v -0.3481 1.6800 -0.1630
f 752/27 751/27 750/27 749/27
v -0.2388 1.6800 -0.1923
v -0.3081 1.6800 -0.2323
v -0.3481 1.6800 -0.1630
v -0.2788 1.6800 -0.1230
f 756/27 755/27 754/27 753/27
v -0.2788 1.7600 -0.1230
v -0.3481 1.7600 -0.1630
v -0.3081 1.7600 -0.2323
v -0.2388 1.7600 -0.1923
f 760/27 759/27 758/27 757/27
v -0.2388 1.7600 -0.1923
v -0.3081 1.7600 -0.2323
v -0.3081 1.6800 -0.2323
v -0.2388 1.6800 -0.1923
f 764/27 763/27 762/27 761/27
v -0.2788 1.6800 -0.1230
v -0.3481 1.6800 -0.1630
v -0.3481 1.7600 -0.1630
v -0.2788 1.7600 -0.1230
f 768/27 767/27 766/27 765/27
v -0.2859 1.6800 0.2199
v -0.2859 1.7600 0.2199
v -0.2459 1.7600 0.1506
v -0.2459 1.6800 0.1506
f 772/23 771/23 770/23 769/23
v -0.3152 1.6800 0.1106
v -0.3152 1.7600 0.1106
v -0.3552 1.7600 0.1799
v -0.3552 1.6800 0.1799
f 776/23 775/23 774/23 773/23
v -0.2459 1.6800 0.1506
v -0.3152 1.6800 0.1106
v -0.3552 1.6800 0.1799
v -0.2859 1.6800 0.2199
f 780/23 779/23 778/23 777/23
v -0.2859 1.7600 0.2199
v -0.3552 1.7600 0.1799
v -0.3152 1.7600 0.1106
v -0.2459 1.7600 0.1506
f 784/23 783/23 782/23 781/23
v -0.2459 1.7600 0.1506
v -0.3152 1.7600 0.1106
v -0.3152 1.6800 0.1106
v -0.2459 1.6800 0.1506
f 788/23 787/23 786/23 785/23
v -0.2859 1.6800 0.2199
v -0.3552 1.6800 0.1799
v -0.3552 1.7600 0.1799
v -0.2859 1.7600 0.2199
f 792/23 791/23 790/23 789/23
v 0.1060 2.1000 0.2542
v 0.1060 2.1800 0.2542
v 0.1460 2.1800 0.1850
v 0.1460 2.1000 0.1850
f 796/19 795/19 794/19 793/19
v 0.0767 2.1000 0.1450
v 0.0767 2.1800 0.1450
v 0.0367 2.1800 0.2142
v 0.0367 2.1000 0.2142
f 800/19 799/19 798/19 797/19
v 0.1460 2.1000 0.1850
v 0.0767 2.1000 0.1450
v 0.0367 2.1000 0.2142
v 0.1060 2.1000 0.2542
f 804/19 803/19 802/19 801/19
v 0.1060 2.1800 0.2542
v 0.0367 2.1800 0.2142
v 0.0767 2.1800 0.1450
v 0.1460 2.1800 0.1850
f 808/19 807/19 806/19 805/19
v 0.1460 2.1800 0.1850
v 0.0767 2.1800 0.1450
v 0.0767 2.1000 0.1450
v 0.1460 2.1000 0.1850
f 812/19 811/19 810/19 809/19
v 0.1060 2.1000 0.2542
v 0.0367 2.1000 0.2142
v 0.0367 2.1800 0.2142
v 0.1060 2.1800 0.2542
f 816/19 815/19 814/19 813/19
v 0.2332 2.1000 0.0753
v 0.2332 2.1800 0.0753
v 0.2732 2.1800 0.0060
v 0.2732 2.1000 0.0060
f 820/15 819/15 818/15 817/15
v 0.2039 2.1000 -0.0340
v 0.2039 2.1800 -0.0340
v 0.1639 2.1800 0.0353
v 0.1639 2.1000 0.0353
f 824/15 823/15 822/15 821/15
v 0.2732 2.1000 0.0060
v 0.2039 2.1000 -0.0340
v 0.1639 2.1000 0.0353
v 0.2332 2.1000 0.0753
f 828/15 827/15 826/15 825/15
v 0.2332 2.1800 0.0753
v 0.1639 2.1800 0.0353
v 0.2039 2.1800 -0.0340
v 0.2732 2.1800 0.0060
f 832/15 831/15 830/15 829/15
v 0.2732 2.1800 0.0060
v 0.2039 2.1800 -0.0340
v 0.2039 2.1000 -0.0340
v 0.2732 2.1000 0.0060
f 836/15 835/15 834/15 833/15
v 0.2332 2.1000 0.0753
v 0.1639 2.1000 0.0353
v 0.1639 2.1800 0.0353
v 0.2332 2.1800 0.0753
f 840/15 839/15 838/15 837/15
v 0.1418 2.1000 -0.1243
v 0.1418 2.1800 -0.1243
v 0.1818 2.1800 -0.1936
v 0.1818 2.1000 -0.1936
f 844/27 843/27 842/27 841/27
v 0.1125 2.1000 -0.2336
v 0.1125 2.1800 -0.2336
v 0.0725 2.1800 -0.1643
v 0.0725 2.1000 -0.1643
f 848/27 847/27 846/27 845/27
v 0.1818 2.1000 -0.1936
v 0.1125 2.1000 -0.2336
v 0.0725 2.1000 -0.1643
v 0.1418 2.1000 -0.1243
f 852/27 851/27 850/27 849/27
v 0.1418 2.1800 -0.1243
v 0.0725 2.1800 -0.1643
v 0.1125 2.1800 -0.2336
v 0.1818 2.1800 -0.1936
f 856/27 855/27 854/27 853/27
v 0.1818 2.1800 -0.1936
v 0.1125 2.1800 -0.2336
v 0.1125 2.1000 -0.2336
v 0.1818 2.1000 -0.1936
f 860/27 859/27 858/27 857/27
v 0.1418 2.1000 -0.1243
v 0.0725 2.1000 -0.1643
v 0.0725 2.1800 -0.1643
v 0.1418 2.1800 -0.1243
f 864/27 863/27 862/27 861/27
v -0.0767 2.1000 -0.1450
v -0.0767 2.1800 -0.1450
v -0.0367 2.1800 -0.2142
v -0.0367 2.1000 -0.2142
f 868/23 867/23 866/23 865/23
v -0.1060 2.1000 -0.2542
v -0.1060 2.1800 -0.2542
v -0.1460 2.1800 -0.1850
v -0.1460 2.1000 -0.1850
f 872/23 871/23 870/23 869/23
v -0.0367 2.1000 -0.2142
v -0.1060 2.1000 -0.2542
v -0.1460 2.1000 -0.1850
v -0.0767 2.1000 -0.1450
f 876/23 875/23 874/23 873/23
v -0.0767 2.1800 -0.1450
v -0.1460 2.1800 -0.1850
v -0.1060 2.1800 -0.2542
v -0.0367 2.1800 -0.2142
f 880/23 879/23 878/23 877/23
v -0.0367 2.1800 -0.2142
v -0.1060 2.1800 -0.2542
v -0.1060 2.1000 -0.2542
v -0.0367 2.1000 -0.2142
f 884/23 883/23 882/23 881/23
v -0.0767 2.1000 -0.1450
v -0.1460 2.1000 -0.1850
v -0.1460 2.1800 -0.1850
v -0.0767 2.1800 -0.1450
f 888/23 887/23 886/23 885/23
v -0.2039 2.1000 0.0340
v -0.2039 2.1800 0.0340
v -0.1639 2.1800 -0.0353
v -0.1639 2.1000 -0.0353
f 892/19 891/19 890/19 889/19
v -0.2332 2.1000 -0.0753
v -0.2332 2.1800 -0.0753
v -0.2732 2.1800 -0.0060
v -0.2732 2.1000 -0.0060
f 896/19 895/19 894/19 893/19
v -0.1639 2.1000 -0.0353
v -0.2332 2.1000 -0.0753
v -0.2732 2.1000 -0.0060
v -0.2039 2.1000 0.0340
f 900/19 899/19 898/19 897/19
v -0.2039 2.1800 0.0340
v -0.2732 2.1800 -0.0060
v -0.2332 2.1800 -0.0753
v -0.1639 2.1800 -0.0353
f 904/19 903/19 902/19 901/19
v -0.1639 2.1800 -0.0353
v -0.2332 2.1800 -0.0753
v -0.2332 2.1000 -0.0753
v -0.1639 2.1000 -0.0353
f 908/19 907/19 906/19 905/19
v -0.2039 2.1000 0.0340
v -0.2732 2.1000 -0.0060
v -0.2732 2.1800 -0.0060
v -0.2039 2.1800 0.0340
f 912/19 911/19 910/19 909/19
v -0.1125 2.1000 0.2336
v -0.1125 2.1800 0.2336
v -0.0725 2.1800 0.1643
v -0.0725 2.1000 0.1643
f 916/15 915/15 914/15 913/15
v -0.1418 2.1000 0.1243
v -0.1418 2.1800 0.1243
v -0.1818 2.1800 0.1936
v -0.1818 2.1000 0.1936
f 920/15 919/15 918/15 917/15
v -0.0725 2.1000 0.1643
v -0.1418 2.1000 0.1243
v -0.1818 2.1000 0.1936
v -0.1125 2.1000 0.2336
f 924/15 923/15 922/15 921/15
v -0.1125 2.1800 0.2336
v -0.1818 2.1800 0.1936
v -0.1418 2.1800 0.1243
v -0.0725 2.1800 0.1643
f 928/15 927/15 926/15 925/15
v -0.0725 2.1800 0.1643
v -0.1418 2.1800 0.1243
v -0.1418 2.1000 0.1243
v -0.0725 2.1000 0.1643
f 932/15 931/15 930/15 929/15
v -0.1125 2.1000 0.2336
v -0.1818 2.1000 0.1936
v -0.1818 2.1800 0.1936
v -0.1125 2.1800 0.2336
f 936/15 935/15 934/15 933/15
v -0.0000 2.8500 0.0150
v -0.0600 2.6800 0.0150
v -0.1600 2.6800 0.0150
v -0.0800 2.6000 0.0150
v -0.1100 2.4800 0.0150
v -0.0000 2.5600 0.0150
v 0.1100 2.4800 0.0150
v 0.0800 2.6000 0.0150
v 0.1600 2.6800 0.0150
v 0.0600 2.6800 0.0150
f 946/23 945/23 944/23 943/23 942/23 941/23 940/23 939/23 938/23 937/23
v 0.0600 2.6800 -0.0150
v 0.1600 2.6800 -0.0150
v 0.0800 2.6000 -0.0150
v 0.1100 2.4800 -0.0150
v -0.0000 2.5600 -0.0150
v -0.1100 2.4800 -0.0150
v -0.0800 2.6000 -0.0150
v -0.1600 2.6800 -0.0150
v -0.0600 2.6800 -0.0150
v -0.0000 2.8500 -0.0150
f 956/23 955/23 954/23 953/23 952/23 951/23 950/23 949/23 948/23 947/23
v -0.4723 0.0400 0.6166
v -0.4723 0.3000 0.6166
v -0.3834 0.3000 0.3723
v -0.3834 0.0400 0.3723
f 960/27 959/27 958/27 957/27
v -0.6277 0.0400 0.2834
v -0.6277 0.3000 0.2834
v -0.7166 0.3000 0.5277
v -0.7166 0.0400 0.5277
f 964/27 963/27 962/27 961/27
v -0.3834 0.0400 0.3723
v -0.6277 0.0400 0.2834
v -0.7166 0.0400 0.5277
v -0.4723 0.0400 0.6166
f 968/27 967/27 966/27 965/27
v -0.4723 0.3000 0.6166
v -0.7166 0.3000 0.5277
v -0.6277 0.3000 0.2834
v -0.3834 0.3000 0.3723
f 972/27 971/27 970/27 969/27
v -0.3834 0.3000 0.3723
v -0.6277 0.3000 0.2834
v -0.6277 0.0400 0.2834
v -0.3834 0.0400 0.3723
f 976/27 975/27 974/27 973/27
v -0.4723 0.0400 0.6166
v -0.7166 0.0400 0.5277
v -0.7166 0.3000 0.5277
v -0.4723 0.3000 0.6166
f 980/27 979/27 978/27 977/27
v -0.4300 0.0350 0.5150
v -0.4300 0.3050 0.5150
v -0.4163 0.3050 0.4774
v -0.4163 0.0350 0.4774
f 984/15 983/15 982/15 981/15
v -0.6700 0.0350 0.3850
v -0.6700 0.3050 0.3850
v -0.6837 0.3050 0.4226
v -0.6837 0.0350 0.4226
f 988/15 987/15 986/15 985/15
v -0.4163 0.0350 0.4774
v -0.6700 0.0350 0.3850
v -0.6837 0.0350 0.4226
v -0.4300 0.0350 0.5150
f 992/15 991/15 990/15 989/15
v -0.4300 0.3050 0.5150
v -0.6837 0.3050 0.4226
v -0.6700 0.3050 0.3850
v -0.4163 0.3050 0.4774
f 996/15 995/15 994/15 993/15
v -0.4163 0.3050 0.4774
v -0.6700 0.3050 0.3850
v -0.6700 0.0350 0.3850
v -0.4163 0.0350 0.4774
f 1000/15 999/15 998/15 997/15
v -0.4300 0.0350 0.5150
v -0.6837 0.0350 0.4226
v -0.6837 0.3050 0.4226
v -0.4300 0.3050 0.5150
f 1004/15 1003/15 1002/15 1001/15
v 0.5657 0.0400 0.6410
v 0.5657 0.2600 0.6410
v 0.6410 0.2600 0.4343
v 0.6410 0.0400 0.4343
f 1008/19 1007/19 1006/19 1005/19
v 0.4343 0.0400 0.3590
v 0.4343 0.2600 0.3590
v 0.3590 0.2600 0.5657
v 0.3590 0.0400 0.5657
f 1012/19 1011/19 1010/19 1009/19
v 0.6410 0.0400 0.4343
v 0.4343 0.0400 0.3590
v 0.3590 0.0400 0.5657
v 0.5657 0.0400 0.6410
f 1016/19 1015/19 1014/19 1013/19
v 0.5657 0.2600 0.6410
v 0.3590 0.2600 0.5657
v 0.4343 0.2600 0.3590
v 0.6410 0.2600 0.4343
f 1020/19 1019/19 1018/19 1017/19
v 0.6410 0.2600 0.4343
v 0.4343 0.2600 0.3590
v 0.4343 0.0400 0.3590
v 0.6410 0.0400 0.4343
f 1024/19 1023/19 1022/19 1021/19
v 0.5657 0.0400 0.6410
v 0.3590 0.0400 0.5657
v 0.3590 0.2600 0.5657
v 0.5657 0.2600 0.6410
f 1028/19 1027/19 1026/19 1025/19
v 0.6012 0.0350 0.5581
v 0.6012 0.2650 0.5581
v 0.6149 0.2650 0.5205
v 0.6149 0.0350 0.5205
f 1032/15 1031/15 1030/15 1029/15
v 0.3988 0.0350 0.4419
v 0.3988 0.2650 0.4419
v 0.3851 0.2650 0.4795
v 0.3851 0.0350 0.4795
f 1036/15 1035/15 1034/15 1033/15
v 0.6149 0.0350 0.5205
v 0.3988 0.0350 0.4419
v 0.3851 0.0350 0.4795
v 0.6012 0.0350 0.5581
f 1040/15 1039/15 1038/15 1037/15
v 0.6012 0.2650 0.5581
v 0.3851 0.2650 0.4795
v 0.3988 0.2650 0.4419
v 0.6149 0.2650 0.5205
f 1044/15 1043/15 1042/15 1041/15
v 0.6149 0.2650 0.5205
v 0.3988 0.2650 0.4419
v 0.3988 0.0350 0.4419
v 0.6149 0.0350 0.5205
f 1048/15 1047/15 1046/15 1045/15
v 0.6012 0.0350 0.5581
v 0.3851 0.0350 0.4795
v 0.3851 0.2650 0.4795
v 0.6012 0.2650 0.5581
f 1052/15 1051/15 1050/15 1049/15
v -0.3902 0.0400 -0.4218
v -0.3902 0.2400 -0.4218
v -0.3218 0.2400 -0.6098
v -0.3218 0.0400 -0.6098
f 1056/23 1055/23 1054/23 1053/23
v -0.5098 0.0400 -0.6782
v -0.5098 0.2400 -0.6782
v -0.5782 0.2400 -0.4902
v -0.5782 0.0400 -0.4902
f 1060/23 1059/23 1058/23 1057/23
v -0.3218 0.0400 -0.6098
v -0.5098 0.0400 -0.6782
v -0.5782 0.0400 -0.4902
v -0.3902 0.0400 -0.4218
f 1064/23 1063/23 1062/23 1061/23
v -0.3902 0.2400 -0.4218
v -0.5782 0.2400 -0.4902
v -0.5098 0.2400 -0.6782
v -0.3218 0.2400 -0.6098
f 1068/23 1067/23 1066/23 1065/23
v -0.3218 0.2400 -0.6098
v -0.5098 0.2400 -0.6782
v -0.5098 0.0400 -0.6782
v -0.3218 0.0400 -0.6098
f 1072/23 1071/23 1070/23 1069/23
v -0.3902 0.0400 -0.4218
v -0.5782 0.0400 -0.4902
v -0.5782 0.2400 -0.4902
v -0.3902 0.2400 -0.4218
f 1076/23 1075/23 1074/23 1073/23
v -0.3582 0.0350 -0.4953
v -0.3582 0.2450 -0.4953
v -0.3445 0.2450 -0.5329
v -0.3445 0.0350 -0.5329
f 1080/15 1079/15 1078/15 1077/15
v -0.5418 0.0350 -0.6047
v -0.5418 0.2450 -0.6047
v -0.5555 0.2450 -0.5671
v -0.5555 0.0350 -0.5671
f 1084/15 1083/15 1082/15 1081/15
v -0.3445 0.0350 -0.5329
v -0.5418 0.0350 -0.6047
v -0.5555 0.0350 -0.5671
v -0.3582 0.0350 -0.4953
f 1088/15 1087/15 1086/15 1085/15
v -0.3582 0.2450 -0.4953
v -0.5555 0.2450 -0.5671
v -0.5418 0.2450 -0.6047
v -0.3445 0.2450 -0.5329
f 1092/15 1091/15 1090/15 1089/15
v -0.3445 0.2450 -0.5329
v -0.5418 0.2450 -0.6047
v -0.5418 0.0350 -0.6047
v -0.3445 0.0350 -0.5329
f 1096/15 1095/15 1094/15 1093/15
v -0.3582 0.0350 -0.4953
v -0.5555 0.0350 -0.5671
v -0.5555 0.2450 -0.5671
v -0.3582 0.2450 -0.4953
f 1100/15 1099/15 1098/15 1097/15
