# Walk of Industry low-poly (generated, wi_lib.py)
mtllib wi.mtl
vt 0 0
vt 0.03125 0.03125
vt 0.09375 0.03125
vt 0.15625 0.03125
vt 0.21875 0.03125
vt 0.28125 0.03125
vt 0.34375 0.03125
vt 0.40625 0.03125
vt 0.46875 0.03125
vt 0.53125 0.03125
vt 0.59375 0.03125
vt 0.65625 0.03125
vt 0.71875 0.03125
vt 0.78125 0.03125
vt 0.84375 0.03125
vt 0.90625 0.03125
vt 0.96875 0.03125
vt 0.03125 0.09375
vt 0.09375 0.09375
vt 0.15625 0.09375
vt 0.21875 0.09375
vt 0.28125 0.09375
vt 0.34375 0.09375
vt 0.40625 0.09375
vt 0.46875 0.09375
vt 0.53125 0.09375
vt 0.59375 0.09375
vt 0.65625 0.09375
vt 0.71875 0.09375
vt 0.78125 0.09375
vt 0.84375 0.09375
vt 0.90625 0.09375
vt 0.96875 0.09375
o Body
usemtl wi_palette
v 0.2500 0.0000 0.2500
v 0.2500 0.1600 0.2500
v 0.2500 0.1600 -0.2500
v 0.2500 0.0000 -0.2500
f 4/11 3/11 2/11 1/11
v -0.2500 0.0000 -0.2500
v -0.2500 0.1600 -0.2500
v -0.2500 0.1600 0.2500
v -0.2500 0.0000 0.2500
f 8/11 7/11 6/11 5/11
v 0.2500 0.0000 -0.2500
v -0.2500 0.0000 -0.2500
v -0.2500 0.0000 0.2500
v 0.2500 0.0000 0.2500
f 12/11 11/11 10/11 9/11
v 0.2500 0.1600 0.2500
v -0.2500 0.1600 0.2500
v -0.2500 0.1600 -0.2500
v 0.2500 0.1600 -0.2500
f 16/11 15/11 14/11 13/11
v 0.2500 0.1600 -0.2500
v -0.2500 0.1600 -0.2500
v -0.2500 0.0000 -0.2500
v 0.2500 0.0000 -0.2500
f 20/11 19/11 18/11 17/11
v 0.2500 0.0000 0.2500
v -0.2500 0.0000 0.2500
v -0.2500 0.1600 0.2500
v 0.2500 0.1600 0.2500
f 24/11 23/11 22/11 21/11
v 0.1600 0.1600 0.1600
v 0.1600 0.2400 0.1600
v 0.1600 0.2400 -0.1600
v 0.1600 0.1600 -0.1600
f 28/11 27/11 26/11 25/11
v -0.1600 0.1600 -0.1600
v -0.1600 0.2400 -0.1600
v -0.1600 0.2400 0.1600
v -0.1600 0.1600 0.1600
f 32/11 31/11 30/11 29/11
v 0.1600 0.1600 -0.1600
v -0.1600 0.1600 -0.1600
v -0.1600 0.1600 0.1600
v 0.1600 0.1600 0.1600
f 36/11 35/11 34/11 33/11
v 0.1600 0.2400 0.1600
v -0.1600 0.2400 0.1600
v -0.1600 0.2400 -0.1600
v 0.1600 0.2400 -0.1600
f 40/11 39/11 38/11 37/11
v 0.1600 0.2400 -0.1600
v -0.1600 0.2400 -0.1600
v -0.1600 0.1600 -0.1600
v 0.1600 0.1600 -0.1600
f 44/11 43/11 42/11 41/11
v 0.1600 0.1600 0.1600
v -0.1600 0.1600 0.1600
v -0.1600 0.2400 0.1600
v 0.1600 0.2400 0.1600
f 48/11 47/11 46/11 45/11
v -0.0153 0.2400 0.0370
v -0.0370 0.2400 0.0153
v -0.0231 3.2400 0.0096
v -0.0096 3.2400 0.0231
f 52/7 51/7 50/7 49/7
v -0.0370 0.2400 0.0153
v -0.0370 0.2400 -0.0153
v -0.0231 3.2400 -0.0096
v -0.0231 3.2400 0.0096
f 56/7 55/7 54/7 53/7
v -0.0370 0.2400 -0.0153
v -0.0153 0.2400 -0.0370
v -0.0096 3.2400 -0.0231
v -0.0231 3.2400 -0.0096
f 60/7 59/7 58/7 57/7
v -0.0153 0.2400 -0.0370
v 0.0153 0.2400 -0.0370
v 0.0096 3.2400 -0.0231
v -0.0096 3.2400 -0.0231
f 64/7 63/7 62/7 61/7
v 0.0153 0.2400 -0.0370
v 0.0370 0.2400 -0.0153
v 0.0231 3.2400 -0.0096
v 0.0096 3.2400 -0.0231
f 68/7 67/7 66/7 65/7
v 0.0370 0.2400 -0.0153
v 0.0370 0.2400 0.0153
v 0.0231 3.2400 0.0096
v 0.0231 3.2400 -0.0096
f 72/7 71/7 70/7 69/7
v 0.0370 0.2400 0.0153
v 0.0153 0.2400 0.0370
v 0.0096 3.2400 0.0231
v 0.0231 3.2400 0.0096
f 76/7 75/7 74/7 73/7
v 0.0153 0.2400 0.0370
v -0.0153 0.2400 0.0370
v -0.0096 3.2400 0.0231
v 0.0096 3.2400 0.0231
f 80/7 79/7 78/7 77/7
v 0.0153 0.2400 0.0370
v 0.0370 0.2400 0.0153
v 0.0370 0.2400 -0.0153
v 0.0153 0.2400 -0.0370
v -0.0153 0.2400 -0.0370
v -0.0370 0.2400 -0.0153
v -0.0370 0.2400 0.0153
v -0.0153 0.2400 0.0370
f 88/7 87/7 86/7 85/7 84/7 83/7 82/7 81/7
v -0.0096 3.2400 0.0231
v -0.0231 3.2400 0.0096
v -0.0231 3.2400 -0.0096
v -0.0096 3.2400 -0.0231
v 0.0096 3.2400 -0.0231
v 0.0231 3.2400 -0.0096
v 0.0231 3.2400 0.0096
v 0.0096 3.2400 0.0231
f 96/7 95/7 94/7 93/7 92/7 91/7 90/7 89/7
v -0.0000 3.3500 0.0000
v -0.0000 3.3200 0.0520
v -0.0450 3.3200 0.0260
f 99/23 98/23 97/23
v -0.0000 3.3500 0.0000
v 0.0450 3.3200 0.0260
v -0.0000 3.3200 0.0520
f 102/23 101/23 100/23
v -0.0000 3.3500 0.0000
v 0.0450 3.3200 -0.0260
v 0.0450 3.3200 0.0260
f 105/23 104/23 103/23
v -0.0000 3.3500 0.0000
v 0.0000 3.3200 -0.0520
v 0.0450 3.3200 -0.0260
f 108/23 107/23 106/23
v -0.0000 3.3500 0.0000
v -0.0450 3.3200 -0.0260
v 0.0000 3.3200 -0.0520
f 111/23 110/23 109/23
v -0.0000 3.3500 0.0000
v -0.0450 3.3200 0.0260
v -0.0450 3.3200 -0.0260
f 114/23 113/23 112/23
v -0.0450 3.3200 0.0260
v -0.0000 3.3200 0.0520
v -0.0260 3.2600 0.0450
v -0.0520 3.2600 0.0000
f 118/23 117/23 116/23 115/23
v -0.0000 3.3200 0.0520
v 0.0450 3.3200 0.0260
v 0.0260 3.2600 0.0450
v -0.0260 3.2600 0.0450
f 122/23 121/23 120/23 119/23
v 0.0450 3.3200 0.0260
v 0.0450 3.3200 -0.0260
v 0.0520 3.2600 0.0000
v 0.0260 3.2600 0.0450
f 126/23 125/23 124/23 123/23
v 0.0450 3.3200 -0.0260
v 0.0000 3.3200 -0.0520
v 0.0260 3.2600 -0.0450
v 0.0520 3.2600 0.0000
f 130/23 129/23 128/23 127/23
v 0.0000 3.3200 -0.0520
v -0.0450 3.3200 -0.0260
v -0.0260 3.2600 -0.0450
v 0.0260 3.2600 -0.0450
f 134/23 133/23 132/23 131/23
v -0.0450 3.3200 -0.0260
v -0.0450 3.3200 0.0260
v -0.0520 3.2600 0.0000
v -0.0260 3.2600 -0.0450
f 138/23 137/23 136/23 135/23
v -0.0520 3.2600 0.0000
v -0.0260 3.2600 0.0450
v -0.0000 3.2300 0.0000
f 141/23 140/23 139/23
v -0.0260 3.2600 0.0450
v 0.0260 3.2600 0.0450
v -0.0000 3.2300 0.0000
f 144/23 143/23 142/23
v 0.0260 3.2600 0.0450
v 0.0520 3.2600 0.0000
v 0.0000 3.2300 0.0000
f 147/23 146/23 145/23
v 0.0520 3.2600 0.0000
v 0.0260 3.2600 -0.0450
v 0.0000 3.2300 -0.0000
f 150/23 149/23 148/23
v 0.0260 3.2600 -0.0450
v -0.0260 3.2600 -0.0450
v 0.0000 3.2300 -0.0000
f 153/23 152/23 151/23
v -0.0260 3.2600 -0.0450
v -0.0520 3.2600 0.0000
v -0.0000 3.2300 -0.0000
f 156/23 155/23 154/23
