# Walk of Industry low-poly (generated, wi_lib.py)
mtllib wi.mtl
vt 0 0
vt 0.03125 0.03125
vt 0.09375 0.03125
vt 0.15625 0.03125
vt 0.21875 0.03125
vt 0.28125 0.03125
vt 0.34375 0.03125
vt 0.40625 0.03125
vt 0.46875 0.03125
vt 0.53125 0.03125
vt 0.59375 0.03125
vt 0.65625 0.03125
vt 0.71875 0.03125
vt 0.78125 0.03125
vt 0.84375 0.03125
vt 0.90625 0.03125
vt 0.96875 0.03125
vt 0.03125 0.09375
vt 0.09375 0.09375
vt 0.15625 0.09375
vt 0.21875 0.09375
vt 0.28125 0.09375
vt 0.34375 0.09375
vt 0.40625 0.09375
vt 0.46875 0.09375
vt 0.53125 0.09375
vt 0.59375 0.09375
vt 0.65625 0.09375
vt 0.71875 0.09375
vt 0.78125 0.09375
vt 0.84375 0.09375
vt 0.90625 0.09375
vt 0.96875 0.09375
o Body
usemtl wi_palette
v 0.2599 0.5543 -0.1196
v 0.2201 0.5515 -0.1200
v 0.2601 0.0015 -0.2000
v 0.2999 0.0043 -0.1996
f 4/6 3/6 2/6 1/6
v 0.2999 -0.0015 -0.1600
v 0.2601 -0.0043 -0.1604
v 0.2201 0.5457 -0.0804
v 0.2599 0.5485 -0.0800
f 8/6 7/6 6/6 5/6
v 0.2999 0.0043 -0.1996
v 0.2999 -0.0015 -0.1600
v 0.2599 0.5485 -0.0800
v 0.2599 0.5543 -0.1196
f 12/6 11/6 10/6 9/6
v 0.2201 0.5515 -0.1200
v 0.2201 0.5457 -0.0804
v 0.2601 -0.0043 -0.1604
v 0.2601 0.0015 -0.2000
f 16/6 15/6 14/6 13/6
v 0.2601 0.0015 -0.2000
v 0.2601 -0.0043 -0.1604
v 0.2999 -0.0015 -0.1600
v 0.2999 0.0043 -0.1996
f 20/6 19/6 18/6 17/6
v 0.2599 0.5543 -0.1196
v 0.2599 0.5485 -0.0800
v 0.2201 0.5457 -0.0804
v 0.2201 0.5515 -0.1200
f 24/6 23/6 22/6 21/6
v 0.2599 0.5485 0.0800
v 0.2201 0.5457 0.0804
v 0.2601 -0.0043 0.1604
v 0.2999 -0.0015 0.1600
f 28/6 27/6 26/6 25/6
v 0.2999 0.0043 0.1996
v 0.2601 0.0015 0.2000
v 0.2201 0.5515 0.1200
v 0.2599 0.5543 0.1196
f 32/6 31/6 30/6 29/6
v 0.2999 -0.0015 0.1600
v 0.2999 0.0043 0.1996
v 0.2599 0.5543 0.1196
v 0.2599 0.5485 0.0800
f 36/6 35/6 34/6 33/6
v 0.2201 0.5457 0.0804
v 0.2201 0.5515 0.1200
v 0.2601 0.0015 0.2000
v 0.2601 -0.0043 0.1604
f 40/6 39/6 38/6 37/6
v 0.2601 -0.0043 0.1604
v 0.2601 0.0015 0.2000
v 0.2999 0.0043 0.1996
v 0.2999 -0.0015 0.1600
f 44/6 43/6 42/6 41/6
v 0.2599 0.5485 0.0800
v 0.2599 0.5543 0.1196
v 0.2201 0.5515 0.1200
v 0.2201 0.5457 0.0804
f 48/6 47/6 46/6 45/6
v -0.2201 0.5515 -0.1200
v -0.2599 0.5543 -0.1196
v -0.2999 0.0043 -0.1996
v -0.2601 0.0015 -0.2000
f 52/6 51/6 50/6 49/6
v -0.2601 -0.0043 -0.1604
v -0.2999 -0.0015 -0.1600
v -0.2599 0.5485 -0.0800
v -0.2201 0.5457 -0.0804
f 56/6 55/6 54/6 53/6
v -0.2601 0.0015 -0.2000
v -0.2601 -0.0043 -0.1604
v -0.2201 0.5457 -0.0804
v -0.2201 0.5515 -0.1200
f 60/6 59/6 58/6 57/6
v -0.2599 0.5543 -0.1196
v -0.2599 0.5485 -0.0800
v -0.2999 -0.0015 -0.1600
v -0.2999 0.0043 -0.1996
f 64/6 63/6 62/6 61/6
v -0.2999 0.0043 -0.1996
v -0.2999 -0.0015 -0.1600
v -0.2601 -0.0043 -0.1604
v -0.2601 0.0015 -0.2000
f 68/6 67/6 66/6 65/6
v -0.2201 0.5515 -0.1200
v -0.2201 0.5457 -0.0804
v -0.2599 0.5485 -0.0800
v -0.2599 0.5543 -0.1196
f 72/6 71/6 70/6 69/6
v -0.2201 0.5457 0.0804
v -0.2599 0.5485 0.0800
v -0.2999 -0.0015 0.1600
v -0.2601 -0.0043 0.1604
f 76/6 75/6 74/6 73/6
v -0.2601 0.0015 0.2000
v -0.2999 0.0043 0.1996
v -0.2599 0.5543 0.1196
v -0.2201 0.5515 0.1200
f 80/6 79/6 78/6 77/6
v -0.2601 -0.0043 0.1604
v -0.2601 0.0015 0.2000
v -0.2201 0.5515 0.1200
v -0.2201 0.5457 0.0804
f 84/6 83/6 82/6 81/6
v -0.2599 0.5485 0.0800
v -0.2599 0.5543 0.1196
v -0.2999 0.0043 0.1996
v -0.2999 -0.0015 0.1600
f 88/6 87/6 86/6 85/6
v -0.2999 -0.0015 0.1600
v -0.2999 0.0043 0.1996
v -0.2601 0.0015 0.2000
v -0.2601 -0.0043 0.1604
f 92/6 91/6 90/6 89/6
v -0.2201 0.5457 0.0804
v -0.2201 0.5515 0.1200
v -0.2599 0.5543 0.1196
v -0.2599 0.5485 0.0800
f 96/6 95/6 94/6 93/6
v 0.2400 0.2850 0.1500
v 0.2400 0.3150 0.1500
v 0.2400 0.3150 -0.1500
v 0.2400 0.2850 -0.1500
f 100/6 99/6 98/6 97/6
v -0.2400 0.2850 -0.1500
v -0.2400 0.3150 -0.1500
v -0.2400 0.3150 0.1500
v -0.2400 0.2850 0.1500
f 104/6 103/6 102/6 101/6
v 0.2400 0.2850 -0.1500
v -0.2400 0.2850 -0.1500
v -0.2400 0.2850 0.1500
v 0.2400 0.2850 0.1500
f 108/6 107/6 106/6 105/6
v 0.2400 0.3150 0.1500
v -0.2400 0.3150 0.1500
v -0.2400 0.3150 -0.1500
v 0.2400 0.3150 -0.1500
f 112/6 111/6 110/6 109/6
v 0.2400 0.3150 -0.1500
v -0.2400 0.3150 -0.1500
v -0.2400 0.2850 -0.1500
v 0.2400 0.2850 -0.1500
f 116/6 115/6 114/6 113/6
v 0.2400 0.2850 0.1500
v -0.2400 0.2850 0.1500
v -0.2400 0.3150 0.1500
v 0.2400 0.3150 0.1500
f 120/6 119/6 118/6 117/6
v 0.3200 0.5400 0.1800
v 0.3200 0.7000 0.1800
v 0.3200 0.7000 -0.1800
v 0.3200 0.5400 -0.1800
f 124/6 123/6 122/6 121/6
v -0.3200 0.5400 -0.1800
v -0.3200 0.7000 -0.1800
v -0.3200 0.7000 0.1800
v -0.3200 0.5400 0.1800
f 128/6 127/6 126/6 125/6
v 0.3200 0.5400 -0.1800
v -0.3200 0.5400 -0.1800
v -0.3200 0.5400 0.1800
v 0.3200 0.5400 0.1800
f 132/6 131/6 130/6 129/6
v 0.3200 0.7000 0.1800
v -0.3200 0.7000 0.1800
v -0.3200 0.7000 -0.1800
v 0.3200 0.7000 -0.1800
f 136/6 135/6 134/6 133/6
v 0.3200 0.7000 -0.1800
v -0.3200 0.7000 -0.1800
v -0.3200 0.5400 -0.1800
v 0.3200 0.5400 -0.1800
f 140/6 139/6 138/6 137/6
v 0.3200 0.5400 0.1800
v -0.3200 0.5400 0.1800
v -0.3200 0.7000 0.1800
v 0.3200 0.7000 0.1800
f 144/6 143/6 142/6 141/6
v 0.3000 0.5450 0.1600
v 0.3000 0.5650 0.1600
v 0.3000 0.5650 -0.1600
v 0.3000 0.5450 -0.1600
f 148/7 147/7 146/7 145/7
v -0.3000 0.5450 -0.1600
v -0.3000 0.5650 -0.1600
v -0.3000 0.5650 0.1600
v -0.3000 0.5450 0.1600
f 152/7 151/7 150/7 149/7
v 0.3000 0.5450 -0.1600
v -0.3000 0.5450 -0.1600
v -0.3000 0.5450 0.1600
v 0.3000 0.5450 0.1600
f 156/7 155/7 154/7 153/7
v 0.3000 0.5650 0.1600
v -0.3000 0.5650 0.1600
v -0.3000 0.5650 -0.1600
v 0.3000 0.5650 -0.1600
f 160/7 159/7 158/7 157/7
v 0.3000 0.5650 -0.1600
v -0.3000 0.5650 -0.1600
v -0.3000 0.5450 -0.1600
v 0.3000 0.5450 -0.1600
f 164/7 163/7 162/7 161/7
v 0.3000 0.5450 0.1600
v -0.3000 0.5450 0.1600
v -0.3000 0.5650 0.1600
v 0.3000 0.5650 0.1600
f 168/7 167/7 166/7 165/7
v 0.2775 0.6975 0.1700
v 0.2775 0.7125 0.1700
v 0.2775 0.7125 -0.1700
v 0.2775 0.6975 -0.1700
f 172/7 171/7 170/7 169/7
v 0.2625 0.6975 -0.1700
v 0.2625 0.7125 -0.1700
v 0.2625 0.7125 0.1700
v 0.2625 0.6975 0.1700
f 176/7 175/7 174/7 173/7
v 0.2775 0.6975 -0.1700
v 0.2625 0.6975 -0.1700
v 0.2625 0.6975 0.1700
v 0.2775 0.6975 0.1700
f 180/7 179/7 178/7 177/7
v 0.2775 0.7125 0.1700
v 0.2625 0.7125 0.1700
v 0.2625 0.7125 -0.1700
v 0.2775 0.7125 -0.1700
f 184/7 183/7 182/7 181/7
v 0.2775 0.7125 -0.1700
v 0.2625 0.7125 -0.1700
v 0.2625 0.6975 -0.1700
v 0.2775 0.6975 -0.1700
f 188/7 187/7 186/7 185/7
v 0.2775 0.6975 0.1700
v 0.2625 0.6975 0.1700
v 0.2625 0.7125 0.1700
v 0.2775 0.7125 0.1700
f 192/7 191/7 190/7 189/7
v 0.1875 0.6975 0.1700
v 0.1875 0.7125 0.1700
v 0.1875 0.7125 -0.1700
v 0.1875 0.6975 -0.1700
f 196/7 195/7 194/7 193/7
v 0.1725 0.6975 -0.1700
v 0.1725 0.7125 -0.1700
v 0.1725 0.7125 0.1700
v 0.1725 0.6975 0.1700
f 200/7 199/7 198/7 197/7
v 0.1875 0.6975 -0.1700
v 0.1725 0.6975 -0.1700
v 0.1725 0.6975 0.1700
v 0.1875 0.6975 0.1700
f 204/7 203/7 202/7 201/7
v 0.1875 0.7125 0.1700
v 0.1725 0.7125 0.1700
v 0.1725 0.7125 -0.1700
v 0.1875 0.7125 -0.1700
f 208/7 207/7 206/7 205/7
v 0.1875 0.7125 -0.1700
v 0.1725 0.7125 -0.1700
v 0.1725 0.6975 -0.1700
v 0.1875 0.6975 -0.1700
f 212/7 211/7 210/7 209/7
v 0.1875 0.6975 0.1700
v 0.1725 0.6975 0.1700
v 0.1725 0.7125 0.1700
v 0.1875 0.7125 0.1700
f 216/7 215/7 214/7 213/7
v 0.0975 0.6975 0.1700
v 0.0975 0.7125 0.1700
v 0.0975 0.7125 -0.1700
v 0.0975 0.6975 -0.1700
f 220/7 219/7 218/7 217/7
v 0.0825 0.6975 -0.1700
v 0.0825 0.7125 -0.1700
v 0.0825 0.7125 0.1700
v 0.0825 0.6975 0.1700
f 224/7 223/7 222/7 221/7
v 0.0975 0.6975 -0.1700
v 0.0825 0.6975 -0.1700
v 0.0825 0.6975 0.1700
v 0.0975 0.6975 0.1700
f 228/7 227/7 226/7 225/7
v 0.0975 0.7125 0.1700
v 0.0825 0.7125 0.1700
v 0.0825 0.7125 -0.1700
v 0.0975 0.7125 -0.1700
f 232/7 231/7 230/7 229/7
v 0.0975 0.7125 -0.1700
v 0.0825 0.7125 -0.1700
v 0.0825 0.6975 -0.1700
v 0.0975 0.6975 -0.1700
f 236/7 235/7 234/7 233/7
v 0.0975 0.6975 0.1700
v 0.0825 0.6975 0.1700
v 0.0825 0.7125 0.1700
v 0.0975 0.7125 0.1700
f 240/7 239/7 238/7 237/7
v 0.0075 0.6975 0.1700
v 0.0075 0.7125 0.1700
v 0.0075 0.7125 -0.1700
v 0.0075 0.6975 -0.1700
f 244/7 243/7 242/7 241/7
v -0.0075 0.6975 -0.1700
v -0.0075 0.7125 -0.1700
v -0.0075 0.7125 0.1700
v -0.0075 0.6975 0.1700
f 248/7 247/7 246/7 245/7
v 0.0075 0.6975 -0.1700
v -0.0075 0.6975 -0.1700
v -0.0075 0.6975 0.1700
v 0.0075 0.6975 0.1700
f 252/7 251/7 250/7 249/7
v 0.0075 0.7125 0.1700
v -0.0075 0.7125 0.1700
v -0.0075 0.7125 -0.1700
v 0.0075 0.7125 -0.1700
f 256/7 255/7 254/7 253/7
v 0.0075 0.7125 -0.1700
v -0.0075 0.7125 -0.1700
v -0.0075 0.6975 -0.1700
v 0.0075 0.6975 -0.1700
f 260/7 259/7 258/7 257/7
v 0.0075 0.6975 0.1700
v -0.0075 0.6975 0.1700
v -0.0075 0.7125 0.1700
v 0.0075 0.7125 0.1700
f 264/7 263/7 262/7 261/7
v -0.0825 0.6975 0.1700
v -0.0825 0.7125 0.1700
v -0.0825 0.7125 -0.1700
v -0.0825 0.6975 -0.1700
f 268/7 267/7 266/7 265/7
v -0.0975 0.6975 -0.1700
v -0.0975 0.7125 -0.1700
v -0.0975 0.7125 0.1700
v -0.0975 0.6975 0.1700
f 272/7 271/7 270/7 269/7
v -0.0825 0.6975 -0.1700
v -0.0975 0.6975 -0.1700
v -0.0975 0.6975 0.1700
v -0.0825 0.6975 0.1700
f 276/7 275/7 274/7 273/7
v -0.0825 0.7125 0.1700
v -0.0975 0.7125 0.1700
v -0.0975 0.7125 -0.1700
v -0.0825 0.7125 -0.1700
f 280/7 279/7 278/7 277/7
v -0.0825 0.7125 -0.1700
v -0.0975 0.7125 -0.1700
v -0.0975 0.6975 -0.1700
v -0.0825 0.6975 -0.1700
f 284/7 283/7 282/7 281/7
v -0.0825 0.6975 0.1700
v -0.0975 0.6975 0.1700
v -0.0975 0.7125 0.1700
v -0.0825 0.7125 0.1700
f 288/7 287/7 286/7 285/7
v -0.1725 0.6975 0.1700
v -0.1725 0.7125 0.1700
v -0.1725 0.7125 -0.1700
v -0.1725 0.6975 -0.1700
f 292/7 291/7 290/7 289/7
v -0.1875 0.6975 -0.1700
v -0.1875 0.7125 -0.1700
v -0.1875 0.7125 0.1700
v -0.1875 0.6975 0.1700
f 296/7 295/7 294/7 293/7
v -0.1725 0.6975 -0.1700
v -0.1875 0.6975 -0.1700
v -0.1875 0.6975 0.1700
v -0.1725 0.6975 0.1700
f 300/7 299/7 298/7 297/7
v -0.1725 0.7125 0.1700
v -0.1875 0.7125 0.1700
v -0.1875 0.7125 -0.1700
v -0.1725 0.7125 -0.1700
f 304/7 303/7 302/7 301/7
v -0.1725 0.7125 -0.1700
v -0.1875 0.7125 -0.1700
v -0.1875 0.6975 -0.1700
v -0.1725 0.6975 -0.1700
f 308/7 307/7 306/7 305/7
v -0.1725 0.6975 0.1700
v -0.1875 0.6975 0.1700
v -0.1875 0.7125 0.1700
v -0.1725 0.7125 0.1700
f 312/7 311/7 310/7 309/7
v -0.2625 0.6975 0.1700
v -0.2625 0.7125 0.1700
v -0.2625 0.7125 -0.1700
v -0.2625 0.6975 -0.1700
f 316/7 315/7 314/7 313/7
v -0.2775 0.6975 -0.1700
v -0.2775 0.7125 -0.1700
v -0.2775 0.7125 0.1700
v -0.2775 0.6975 0.1700
f 320/7 319/7 318/7 317/7
v -0.2625 0.6975 -0.1700
v -0.2775 0.6975 -0.1700
v -0.2775 0.6975 0.1700
v -0.2625 0.6975 0.1700
f 324/7 323/7 322/7 321/7
v -0.2625 0.7125 0.1700
v -0.2775 0.7125 0.1700
v -0.2775 0.7125 -0.1700
v -0.2625 0.7125 -0.1700
f 328/7 327/7 326/7 325/7
v -0.2625 0.7125 -0.1700
v -0.2775 0.7125 -0.1700
v -0.2775 0.6975 -0.1700
v -0.2625 0.6975 -0.1700
f 332/7 331/7 330/7 329/7
v -0.2625 0.6975 0.1700
v -0.2775 0.6975 0.1700
v -0.2775 0.7125 0.1700
v -0.2625 0.7125 0.1700
f 336/7 335/7 334/7 333/7
v 0.1800 0.7100 0.0700
v 0.1800 0.7400 0.0700
v 0.1800 0.7400 0.0100
v 0.1800 0.7100 0.0100
f 340/10 339/10 338/10 337/10
v 0.0200 0.7100 0.0100
v 0.0200 0.7400 0.0100
v 0.0200 0.7400 0.0700
v 0.0200 0.7100 0.0700
f 344/10 343/10 342/10 341/10
v 0.1800 0.7100 0.0100
v 0.0200 0.7100 0.0100
v 0.0200 0.7100 0.0700
v 0.1800 0.7100 0.0700
f 348/10 347/10 346/10 345/10
v 0.1800 0.7400 0.0700
v 0.0200 0.7400 0.0700
v 0.0200 0.7400 0.0100
v 0.1800 0.7400 0.0100
f 352/10 351/10 350/10 349/10
v 0.1800 0.7400 0.0100
v 0.0200 0.7400 0.0100
v 0.0200 0.7100 0.0100
v 0.1800 0.7100 0.0100
f 356/10 355/10 354/10 353/10
v 0.1800 0.7100 0.0700
v 0.0200 0.7100 0.0700
v 0.0200 0.7400 0.0700
v 0.1800 0.7400 0.0700
f 360/10 359/10 358/10 357/10
v -0.0500 0.7100 -0.0200
v -0.0500 0.7400 -0.0200
v -0.0500 0.7400 -0.0800
v -0.0500 0.7100 -0.0800
f 364/10 363/10 362/10 361/10
v -0.1900 0.7100 -0.0800
v -0.1900 0.7400 -0.0800
v -0.1900 0.7400 -0.0200
v -0.1900 0.7100 -0.0200
f 368/10 367/10 366/10 365/10
v -0.0500 0.7100 -0.0800
v -0.1900 0.7100 -0.0800
v -0.1900 0.7100 -0.0200
v -0.0500 0.7100 -0.0200
f 372/10 371/10 370/10 369/10
v -0.0500 0.7400 -0.0200
v -0.1900 0.7400 -0.0200
v -0.1900 0.7400 -0.0800
v -0.0500 0.7400 -0.0800
f 376/10 375/10 374/10 373/10
v -0.0500 0.7400 -0.0800
v -0.1900 0.7400 -0.0800
v -0.1900 0.7100 -0.0800
v -0.0500 0.7100 -0.0800
f 380/10 379/10 378/10 377/10
v -0.0500 0.7100 -0.0200
v -0.1900 0.7100 -0.0200
v -0.1900 0.7400 -0.0200
v -0.0500 0.7400 -0.0200
f 384/10 383/10 382/10 381/10
v 0.3200 0.7107 -0.1337
v 0.3200 1.0971 -0.2373
v 0.3200 1.0893 -0.2663
v 0.3200 0.7029 -0.1627
f 388/6 387/6 386/6 385/6
v -0.3200 0.7029 -0.1627
v -0.3200 1.0893 -0.2663
v -0.3200 1.0971 -0.2373
v -0.3200 0.7107 -0.1337
f 392/6 391/6 390/6 389/6
v 0.3200 0.7029 -0.1627
v -0.3200 0.7029 -0.1627
v -0.3200 0.7107 -0.1337
v 0.3200 0.7107 -0.1337
f 396/6 395/6 394/6 393/6
v 0.3200 1.0971 -0.2373
v -0.3200 1.0971 -0.2373
v -0.3200 1.0893 -0.2663
v 0.3200 1.0893 -0.2663
f 400/6 399/6 398/6 397/6
v 0.3200 1.0893 -0.2663
v -0.3200 1.0893 -0.2663
v -0.3200 0.7029 -0.1627
v 0.3200 0.7029 -0.1627
f 404/6 403/6 402/6 401/6
v 0.3200 0.7107 -0.1337
v -0.3200 0.7107 -0.1337
v -0.3200 1.0971 -0.2373
v 0.3200 1.0971 -0.2373
f 408/6 407/6 406/6 405/6
v 0.1000 1.0650 -0.1350
v 0.1000 1.0950 -0.1350
v 0.1000 1.0950 -0.1850
v 0.1000 1.0650 -0.1850
f 412/22 411/22 410/22 409/22
v -0.1000 1.0650 -0.1850
v -0.1000 1.0950 -0.1850
v -0.1000 1.0950 -0.1350
v -0.1000 1.0650 -0.1350
f 416/22 415/22 414/22 413/22
v 0.1000 1.0650 -0.1850
v -0.1000 1.0650 -0.1850
v -0.1000 1.0650 -0.1350
v 0.1000 1.0650 -0.1350
f 420/22 419/22 418/22 417/22
v 0.1000 1.0950 -0.1350
v -0.1000 1.0950 -0.1350
v -0.1000 1.0950 -0.1850
v 0.1000 1.0950 -0.1850
f 424/22 423/22 422/22 421/22
v 0.1000 1.0950 -0.1850
v -0.1000 1.0950 -0.1850
v -0.1000 1.0650 -0.1850
v 0.1000 1.0650 -0.1850
f 428/22 427/22 426/22 425/22
v 0.1000 1.0650 -0.1350
v -0.1000 1.0650 -0.1350
v -0.1000 1.0950 -0.1350
v 0.1000 1.0950 -0.1350
f 432/22 431/22 430/22 429/22
v -0.3300 0.5900 0.1400
v -0.3300 0.6100 0.1400
v -0.3300 0.6100 -0.1400
v -0.3300 0.5900 -0.1400
f 436/22 435/22 434/22 433/22
v -0.5100 0.5900 -0.1400
v -0.5100 0.6100 -0.1400
v -0.5100 0.6100 0.1400
v -0.5100 0.5900 0.1400
f 440/22 439/22 438/22 437/22
v -0.3300 0.5900 -0.1400
v -0.5100 0.5900 -0.1400
v -0.5100 0.5900 0.1400
v -0.3300 0.5900 0.1400
f 444/22 443/22 442/22 441/22
v -0.3300 0.6100 0.1400
v -0.5100 0.6100 0.1400
v -0.5100 0.6100 -0.1400
v -0.3300 0.6100 -0.1400
f 448/22 447/22 446/22 445/22
v -0.3300 0.6100 -0.1400
v -0.5100 0.6100 -0.1400
v -0.5100 0.5900 -0.1400
v -0.3300 0.5900 -0.1400
f 452/22 451/22 450/22 449/22
v -0.3300 0.5900 0.1400
v -0.5100 0.5900 0.1400
v -0.5100 0.6100 0.1400
v -0.3300 0.6100 0.1400
f 456/22 455/22 454/22 453/22
