# Walk of Industry low-poly (generated, wi_lib.py)
mtllib wi.mtl
vt 0 0
vt 0.03125 0.03125
vt 0.09375 0.03125
vt 0.15625 0.03125
vt 0.21875 0.03125
vt 0.28125 0.03125
vt 0.34375 0.03125
vt 0.40625 0.03125
vt 0.46875 0.03125
vt 0.53125 0.03125
vt 0.59375 0.03125
vt 0.65625 0.03125
vt 0.71875 0.03125
vt 0.78125 0.03125
vt 0.84375 0.03125
vt 0.90625 0.03125
vt 0.96875 0.03125
vt 0.03125 0.09375
vt 0.09375 0.09375
vt 0.15625 0.09375
vt 0.21875 0.09375
vt 0.28125 0.09375
vt 0.34375 0.09375
vt 0.40625 0.09375
vt 0.46875 0.09375
vt 0.53125 0.09375
vt 0.59375 0.09375
vt 0.65625 0.09375
vt 0.71875 0.09375
vt 0.78125 0.09375
vt 0.84375 0.09375
vt 0.90625 0.09375
vt 0.96875 0.09375
o Body
usemtl wi_paint
v 1.2000 2.3400 0.0700
v 1.2000 2.7600 0.0700
v 1.2000 2.7600 -0.0700
v 1.2000 2.3400 -0.0700
f 4/1 3/1 2/1 1/1
v -1.2000 2.3400 -0.0700
v -1.2000 2.7600 -0.0700
v -1.2000 2.7600 0.0700
v -1.2000 2.3400 0.0700
f 8/1 7/1 6/1 5/1
v 1.2000 2.3400 -0.0700
v -1.2000 2.3400 -0.0700
v -1.2000 2.3400 0.0700
v 1.2000 2.3400 0.0700
f 12/1 11/1 10/1 9/1
v 1.2000 2.7600 0.0700
v -1.2000 2.7600 0.0700
v -1.2000 2.7600 -0.0700
v 1.2000 2.7600 -0.0700
f 16/1 15/1 14/1 13/1
v 1.2000 2.7600 -0.0700
v -1.2000 2.7600 -0.0700
v -1.2000 2.3400 -0.0700
v 1.2000 2.3400 -0.0700
f 20/1 19/1 18/1 17/1
v 1.2000 2.3400 0.0700
v -1.2000 2.3400 0.0700
v -1.2000 2.7600 0.0700
v 1.2000 2.7600 0.0700
f 24/1 23/1 22/1 21/1
usemtl wi_palette
v 1.4800 0.0000 0.1800
v 1.4800 2.4000 0.1800
v 1.4800 2.4000 -0.1800
v 1.4800 0.0000 -0.1800
f 28/10 27/10 26/10 25/10
v 1.1600 0.0000 -0.1800
v 1.1600 2.4000 -0.1800
v 1.1600 2.4000 0.1800
v 1.1600 0.0000 0.1800
f 32/10 31/10 30/10 29/10
v 1.4800 0.0000 -0.1800
v 1.1600 0.0000 -0.1800
v 1.1600 0.0000 0.1800
v 1.4800 0.0000 0.1800
f 36/10 35/10 34/10 33/10
v 1.4800 2.4000 0.1800
v 1.1600 2.4000 0.1800
v 1.1600 2.4000 -0.1800
v 1.4800 2.4000 -0.1800
f 40/10 39/10 38/10 37/10
v 1.4800 2.4000 -0.1800
v 1.1600 2.4000 -0.1800
v 1.1600 0.0000 -0.1800
v 1.4800 0.0000 -0.1800
f 44/10 43/10 42/10 41/10
v 1.4800 0.0000 0.1800
v 1.1600 0.0000 0.1800
v 1.1600 2.4000 0.1800
v 1.4800 2.4000 0.1800
f 48/10 47/10 46/10 45/10
v 1.5200 2.4000 0.2200
v 1.5200 2.4800 0.2200
v 1.5200 2.4800 -0.2200
v 1.5200 2.4000 -0.2200
f 52/11 51/11 50/11 49/11
v 1.1200 2.4000 -0.2200
v 1.1200 2.4800 -0.2200
v 1.1200 2.4800 0.2200
v 1.1200 2.4000 0.2200
f 56/11 55/11 54/11 53/11
v 1.5200 2.4000 -0.2200
v 1.1200 2.4000 -0.2200
v 1.1200 2.4000 0.2200
v 1.5200 2.4000 0.2200
f 60/11 59/11 58/11 57/11
v 1.5200 2.4800 0.2200
v 1.1200 2.4800 0.2200
v 1.1200 2.4800 -0.2200
v 1.5200 2.4800 -0.2200
f 64/11 63/11 62/11 61/11
v 1.5200 2.4800 -0.2200
v 1.1200 2.4800 -0.2200
v 1.1200 2.4000 -0.2200
v 1.5200 2.4000 -0.2200
f 68/11 67/11 66/11 65/11
v 1.5200 2.4000 0.2200
v 1.1200 2.4000 0.2200
v 1.1200 2.4800 0.2200
v 1.5200 2.4800 0.2200
f 72/11 71/11 70/11 69/11
v 1.5200 0.0000 0.2200
v 1.5200 0.1200 0.2200
v 1.5200 0.1200 -0.2200
v 1.5200 0.0000 -0.2200
f 76/11 75/11 74/11 73/11
v 1.1200 0.0000 -0.2200
v 1.1200 0.1200 -0.2200
v 1.1200 0.1200 0.2200
v 1.1200 0.0000 0.2200
f 80/11 79/11 78/11 77/11
v 1.5200 0.0000 -0.2200
v 1.1200 0.0000 -0.2200
v 1.1200 0.0000 0.2200
v 1.5200 0.0000 0.2200
f 84/11 83/11 82/11 81/11
v 1.5200 0.1200 0.2200
v 1.1200 0.1200 0.2200
v 1.1200 0.1200 -0.2200
v 1.5200 0.1200 -0.2200
f 88/11 87/11 86/11 85/11
v 1.5200 0.1200 -0.2200
v 1.1200 0.1200 -0.2200
v 1.1200 0.0000 -0.2200
v 1.5200 0.0000 -0.2200
f 92/11 91/11 90/11 89/11
v 1.5200 0.0000 0.2200
v 1.1200 0.0000 0.2200
v 1.1200 0.1200 0.2200
v 1.5200 0.1200 0.2200
f 96/11 95/11 94/11 93/11
v 1.2800 2.4800 0.0693
v 1.2400 2.4800 0.0000
v 1.2400 2.6200 0.0000
v 1.2800 2.6200 0.0693
f 100/6 99/6 98/6 97/6
v 1.2400 2.4800 0.0000
v 1.2800 2.4800 -0.0693
v 1.2800 2.6200 -0.0693
v 1.2400 2.6200 0.0000
f 104/6 103/6 102/6 101/6
v 1.2800 2.4800 -0.0693
v 1.3600 2.4800 -0.0693
v 1.3600 2.6200 -0.0693
v 1.2800 2.6200 -0.0693
f 108/6 107/6 106/6 105/6
v 1.3600 2.4800 -0.0693
v 1.4000 2.4800 -0.0000
v 1.4000 2.6200 -0.0000
v 1.3600 2.6200 -0.0693
f 112/6 111/6 110/6 109/6
v 1.4000 2.4800 -0.0000
v 1.3600 2.4800 0.0693
v 1.3600 2.6200 0.0693
v 1.4000 2.6200 -0.0000
f 116/6 115/6 114/6 113/6
v 1.3600 2.4800 0.0693
v 1.2800 2.4800 0.0693
v 1.2800 2.6200 0.0693
v 1.3600 2.6200 0.0693
f 120/6 119/6 118/6 117/6
v 1.3600 2.4800 0.0693
v 1.4000 2.4800 -0.0000
v 1.3600 2.4800 -0.0693
v 1.2800 2.4800 -0.0693
v 1.2400 2.4800 0.0000
v 1.2800 2.4800 0.0693
f 126/6 125/6 124/6 123/6 122/6 121/6
v 1.2800 2.6200 0.0693
v 1.2400 2.6200 0.0000
v 1.2800 2.6200 -0.0693
v 1.3600 2.6200 -0.0693
v 1.4000 2.6200 -0.0000
v 1.3600 2.6200 0.0693
f 132/6 131/6 130/6 129/6 128/6 127/6
v 1.2700 2.7400 0.0866
v 1.2200 2.7400 0.0000
v 1.3000 2.8000 0.0000
v 1.3100 2.8000 0.0173
f 136/6 135/6 134/6 133/6
v 1.2200 2.7400 0.0000
v 1.2700 2.7400 -0.0866
v 1.3100 2.8000 -0.0173
v 1.3000 2.8000 0.0000
f 140/6 139/6 138/6 137/6
v 1.2700 2.7400 -0.0866
v 1.3700 2.7400 -0.0866
v 1.3300 2.8000 -0.0173
v 1.3100 2.8000 -0.0173
f 144/6 143/6 142/6 141/6
v 1.3700 2.7400 -0.0866
v 1.4200 2.7400 -0.0000
v 1.3400 2.8000 -0.0000
v 1.3300 2.8000 -0.0173
f 148/6 147/6 146/6 145/6
v 1.4200 2.7400 -0.0000
v 1.3700 2.7400 0.0866
v 1.3300 2.8000 0.0173
v 1.3400 2.8000 -0.0000
f 152/6 151/6 150/6 149/6
v 1.3700 2.7400 0.0866
v 1.2700 2.7400 0.0866
v 1.3100 2.8000 0.0173
v 1.3300 2.8000 0.0173
f 156/6 155/6 154/6 153/6
v 1.3700 2.7400 0.0866
v 1.4200 2.7400 -0.0000
v 1.3700 2.7400 -0.0866
v 1.2700 2.7400 -0.0866
v 1.2200 2.7400 0.0000
v 1.2700 2.7400 0.0866
f 162/6 161/6 160/6 159/6 158/6 157/6
v 1.3100 2.8000 0.0173
v 1.3000 2.8000 0.0000
v 1.3100 2.8000 -0.0173
v 1.3300 2.8000 -0.0173
v 1.3400 2.8000 -0.0000
v 1.3300 2.8000 0.0173
f 168/6 167/6 166/6 165/6 164/6 163/6
v 1.1350 0.1000 -0.0650
v 1.1350 1.8000 -0.0650
v 1.1350 1.8000 -0.0950
v 1.1350 0.1000 -0.0950
f 172/6 171/6 170/6 169/6
v 1.1050 0.1000 -0.0950
v 1.1050 1.8000 -0.0950
v 1.1050 1.8000 -0.0650
v 1.1050 0.1000 -0.0650
f 176/6 175/6 174/6 173/6
v 1.1350 0.1000 -0.0950
v 1.1050 0.1000 -0.0950
v 1.1050 0.1000 -0.0650
v 1.1350 0.1000 -0.0650
f 180/6 179/6 178/6 177/6
v 1.1350 1.8000 -0.0650
v 1.1050 1.8000 -0.0650
v 1.1050 1.8000 -0.0950
v 1.1350 1.8000 -0.0950
f 184/6 183/6 182/6 181/6
v 1.1350 1.8000 -0.0950
v 1.1050 1.8000 -0.0950
v 1.1050 0.1000 -0.0950
v 1.1350 0.1000 -0.0950
f 188/6 187/6 186/6 185/6
v 1.1350 0.1000 -0.0650
v 1.1050 0.1000 -0.0650
v 1.1050 1.8000 -0.0650
v 1.1350 1.8000 -0.0650
f 192/6 191/6 190/6 189/6
v 1.1350 0.1000 -0.2250
v 1.1350 1.8000 -0.2250
v 1.1350 1.8000 -0.2550
v 1.1350 0.1000 -0.2550
f 196/6 195/6 194/6 193/6
v 1.1050 0.1000 -0.2550
v 1.1050 1.8000 -0.2550
v 1.1050 1.8000 -0.2250
v 1.1050 0.1000 -0.2250
f 200/6 199/6 198/6 197/6
v 1.1350 0.1000 -0.2550
v 1.1050 0.1000 -0.2550
v 1.1050 0.1000 -0.2250
v 1.1350 0.1000 -0.2250
f 204/6 203/6 202/6 201/6
v 1.1350 1.8000 -0.2250
v 1.1050 1.8000 -0.2250
v 1.1050 1.8000 -0.2550
v 1.1350 1.8000 -0.2550
f 208/6 207/6 206/6 205/6
v 1.1350 1.8000 -0.2550
v 1.1050 1.8000 -0.2550
v 1.1050 0.1000 -0.2550
v 1.1350 0.1000 -0.2550
f 212/6 211/6 210/6 209/6
v 1.1350 0.1000 -0.2250
v 1.1050 0.1000 -0.2250
v 1.1050 1.8000 -0.2250
v 1.1350 1.8000 -0.2250
f 216/6 215/6 214/6 213/6
v 1.1350 0.1000 -0.3850
v 1.1350 1.8000 -0.3850
v 1.1350 1.8000 -0.4150
v 1.1350 0.1000 -0.4150
f 220/6 219/6 218/6 217/6
v 1.1050 0.1000 -0.4150
v 1.1050 1.8000 -0.4150
v 1.1050 1.8000 -0.3850
v 1.1050 0.1000 -0.3850
f 224/6 223/6 222/6 221/6
v 1.1350 0.1000 -0.4150
v 1.1050 0.1000 -0.4150
v 1.1050 0.1000 -0.3850
v 1.1350 0.1000 -0.3850
f 228/6 227/6 226/6 225/6
v 1.1350 1.8000 -0.3850
v 1.1050 1.8000 -0.3850
v 1.1050 1.8000 -0.4150
v 1.1350 1.8000 -0.4150
f 232/6 231/6 230/6 229/6
v 1.1350 1.8000 -0.4150
v 1.1050 1.8000 -0.4150
v 1.1050 0.1000 -0.4150
v 1.1350 0.1000 -0.4150
f 236/6 235/6 234/6 233/6
v 1.1350 0.1000 -0.3850
v 1.1050 0.1000 -0.3850
v 1.1050 1.8000 -0.3850
v 1.1350 1.8000 -0.3850
f 240/6 239/6 238/6 237/6
v 1.1350 0.1000 -0.5450
v 1.1350 1.8000 -0.5450
v 1.1350 1.8000 -0.5750
v 1.1350 0.1000 -0.5750
f 244/6 243/6 242/6 241/6
v 1.1050 0.1000 -0.5750
v 1.1050 1.8000 -0.5750
v 1.1050 1.8000 -0.5450
v 1.1050 0.1000 -0.5450
f 248/6 247/6 246/6 245/6
v 1.1350 0.1000 -0.5750
v 1.1050 0.1000 -0.5750
v 1.1050 0.1000 -0.5450
v 1.1350 0.1000 -0.5450
f 252/6 251/6 250/6 249/6
v 1.1350 1.8000 -0.5450
v 1.1050 1.8000 -0.5450
v 1.1050 1.8000 -0.5750
v 1.1350 1.8000 -0.5750
f 256/6 255/6 254/6 253/6
v 1.1350 1.8000 -0.5750
v 1.1050 1.8000 -0.5750
v 1.1050 0.1000 -0.5750
v 1.1350 0.1000 -0.5750
f 260/6 259/6 258/6 257/6
v 1.1350 0.1000 -0.5450
v 1.1050 0.1000 -0.5450
v 1.1050 1.8000 -0.5450
v 1.1350 1.8000 -0.5450
f 264/6 263/6 262/6 261/6
v 1.1350 0.1000 -0.7050
v 1.1350 1.8000 -0.7050
v 1.1350 1.8000 -0.7350
v 1.1350 0.1000 -0.7350
f 268/6 267/6 266/6 265/6
v 1.1050 0.1000 -0.7350
v 1.1050 1.8000 -0.7350
v 1.1050 1.8000 -0.7050
v 1.1050 0.1000 -0.7050
f 272/6 271/6 270/6 269/6
v 1.1350 0.1000 -0.7350
v 1.1050 0.1000 -0.7350
v 1.1050 0.1000 -0.7050
v 1.1350 0.1000 -0.7050
f 276/6 275/6 274/6 273/6
v 1.1350 1.8000 -0.7050
v 1.1050 1.8000 -0.7050
v 1.1050 1.8000 -0.7350
v 1.1350 1.8000 -0.7350
f 280/6 279/6 278/6 277/6
v 1.1350 1.8000 -0.7350
v 1.1050 1.8000 -0.7350
v 1.1050 0.1000 -0.7350
v 1.1350 0.1000 -0.7350
f 284/6 283/6 282/6 281/6
v 1.1350 0.1000 -0.7050
v 1.1050 0.1000 -0.7050
v 1.1050 1.8000 -0.7050
v 1.1350 1.8000 -0.7050
f 288/6 287/6 286/6 285/6
v 1.1350 0.1000 -0.8650
v 1.1350 1.8000 -0.8650
v 1.1350 1.8000 -0.8950
v 1.1350 0.1000 -0.8950
f 292/6 291/6 290/6 289/6
v 1.1050 0.1000 -0.8950
v 1.1050 1.8000 -0.8950
v 1.1050 1.8000 -0.8650
v 1.1050 0.1000 -0.8650
f 296/6 295/6 294/6 293/6
v 1.1350 0.1000 -0.8950
v 1.1050 0.1000 -0.8950
v 1.1050 0.1000 -0.8650
v 1.1350 0.1000 -0.8650
f 300/6 299/6 298/6 297/6
v 1.1350 1.8000 -0.8650
v 1.1050 1.8000 -0.8650
v 1.1050 1.8000 -0.8950
v 1.1350 1.8000 -0.8950
f 304/6 303/6 302/6 301/6
v 1.1350 1.8000 -0.8950
v 1.1050 1.8000 -0.8950
v 1.1050 0.1000 -0.8950
v 1.1350 0.1000 -0.8950
f 308/6 307/6 306/6 305/6
v 1.1350 0.1000 -0.8650
v 1.1050 0.1000 -0.8650
v 1.1050 1.8000 -0.8650
v 1.1350 1.8000 -0.8650
f 312/6 311/6 310/6 309/6
v 1.1400 0.1750 -0.0500
v 1.1400 0.2250 -0.0500
v 1.1400 0.2250 -0.9100
v 1.1400 0.1750 -0.9100
f 316/6 315/6 314/6 313/6
v 1.1000 0.1750 -0.9100
v 1.1000 0.2250 -0.9100
v 1.1000 0.2250 -0.0500
v 1.1000 0.1750 -0.0500
f 320/6 319/6 318/6 317/6
v 1.1400 0.1750 -0.9100
v 1.1000 0.1750 -0.9100
v 1.1000 0.1750 -0.0500
v 1.1400 0.1750 -0.0500
f 324/6 323/6 322/6 321/6
v 1.1400 0.2250 -0.0500
v 1.1000 0.2250 -0.0500
v 1.1000 0.2250 -0.9100
v 1.1400 0.2250 -0.9100
f 328/6 327/6 326/6 325/6
v 1.1400 0.2250 -0.9100
v 1.1000 0.2250 -0.9100
v 1.1000 0.1750 -0.9100
v 1.1400 0.1750 -0.9100
f 332/6 331/6 330/6 329/6
v 1.1400 0.1750 -0.0500
v 1.1000 0.1750 -0.0500
v 1.1000 0.2250 -0.0500
v 1.1400 0.2250 -0.0500
f 336/6 335/6 334/6 333/6
v 1.1400 1.7250 -0.0500
v 1.1400 1.7750 -0.0500
v 1.1400 1.7750 -0.9100
v 1.1400 1.7250 -0.9100
f 340/6 339/6 338/6 337/6
v 1.1000 1.7250 -0.9100
v 1.1000 1.7750 -0.9100
v 1.1000 1.7750 -0.0500
v 1.1000 1.7250 -0.0500
f 344/6 343/6 342/6 341/6
v 1.1400 1.7250 -0.9100
v 1.1000 1.7250 -0.9100
v 1.1000 1.7250 -0.0500
v 1.1400 1.7250 -0.0500
f 348/6 347/6 346/6 345/6
v 1.1400 1.7750 -0.0500
v 1.1000 1.7750 -0.0500
v 1.1000 1.7750 -0.9100
v 1.1400 1.7750 -0.9100
f 352/6 351/6 350/6 349/6
v 1.1400 1.7750 -0.9100
v 1.1000 1.7750 -0.9100
v 1.1000 1.7250 -0.9100
v 1.1400 1.7250 -0.9100
f 356/6 355/6 354/6 353/6
v 1.1400 1.7250 -0.0500
v 1.1000 1.7250 -0.0500
v 1.1000 1.7750 -0.0500
v 1.1400 1.7750 -0.0500
f 360/6 359/6 358/6 357/6
v 1.1350 0.9700 -0.0500
v 1.1350 1.0300 -0.0500
v 1.1350 1.0300 -0.9100
v 1.1350 0.9700 -0.9100
f 364/23 363/23 362/23 361/23
v 1.1050 0.9700 -0.9100
v 1.1050 1.0300 -0.9100
v 1.1050 1.0300 -0.0500
v 1.1050 0.9700 -0.0500
f 368/23 367/23 366/23 365/23
v 1.1350 0.9700 -0.9100
v 1.1050 0.9700 -0.9100
v 1.1050 0.9700 -0.0500
v 1.1350 0.9700 -0.0500
f 372/23 371/23 370/23 369/23
v 1.1350 1.0300 -0.0500
v 1.1050 1.0300 -0.0500
v 1.1050 1.0300 -0.9100
v 1.1350 1.0300 -0.9100
f 376/23 375/23 374/23 373/23
v 1.1350 1.0300 -0.9100
v 1.1050 1.0300 -0.9100
v 1.1050 0.9700 -0.9100
v 1.1350 0.9700 -0.9100
f 380/23 379/23 378/23 377/23
v 1.1350 0.9700 -0.0500
v 1.1050 0.9700 -0.0500
v 1.1050 1.0300 -0.0500
v 1.1350 1.0300 -0.0500
f 384/23 383/23 382/23 381/23
v -1.1600 0.0000 0.1800
v -1.1600 2.4000 0.1800
v -1.1600 2.4000 -0.1800
v -1.1600 0.0000 -0.1800
f 388/10 387/10 386/10 385/10
v -1.4800 0.0000 -0.1800
v -1.4800 2.4000 -0.1800
v -1.4800 2.4000 0.1800
v -1.4800 0.0000 0.1800
f 392/10 391/10 390/10 389/10
v -1.1600 0.0000 -0.1800
v -1.4800 0.0000 -0.1800
v -1.4800 0.0000 0.1800
v -1.1600 0.0000 0.1800
f 396/10 395/10 394/10 393/10
v -1.1600 2.4000 0.1800
v -1.4800 2.4000 0.1800
v -1.4800 2.4000 -0.1800
v -1.1600 2.4000 -0.1800
f 400/10 399/10 398/10 397/10
v -1.1600 2.4000 -0.1800
v -1.4800 2.4000 -0.1800
v -1.4800 0.0000 -0.1800
v -1.1600 0.0000 -0.1800
f 404/10 403/10 402/10 401/10
v -1.1600 0.0000 0.1800
v -1.4800 0.0000 0.1800
v -1.4800 2.4000 0.1800
v -1.1600 2.4000 0.1800
f 408/10 407/10 406/10 405/10
v -1.1200 2.4000 0.2200
v -1.1200 2.4800 0.2200
v -1.1200 2.4800 -0.2200
v -1.1200 2.4000 -0.2200
f 412/11 411/11 410/11 409/11
v -1.5200 2.4000 -0.2200
v -1.5200 2.4800 -0.2200
v -1.5200 2.4800 0.2200
v -1.5200 2.4000 0.2200
f 416/11 415/11 414/11 413/11
v -1.1200 2.4000 -0.2200
v -1.5200 2.4000 -0.2200
v -1.5200 2.4000 0.2200
v -1.1200 2.4000 0.2200
f 420/11 419/11 418/11 417/11
v -1.1200 2.4800 0.2200
v -1.5200 2.4800 0.2200
v -1.5200 2.4800 -0.2200
v -1.1200 2.4800 -0.2200
f 424/11 423/11 422/11 421/11
v -1.1200 2.4800 -0.2200
v -1.5200 2.4800 -0.2200
v -1.5200 2.4000 -0.2200
v -1.1200 2.4000 -0.2200
f 428/11 427/11 426/11 425/11
v -1.1200 2.4000 0.2200
v -1.5200 2.4000 0.2200
v -1.5200 2.4800 0.2200
v -1.1200 2.4800 0.2200
f 432/11 431/11 430/11 429/11
v -1.1200 0.0000 0.2200
v -1.1200 0.1200 0.2200
v -1.1200 0.1200 -0.2200
v -1.1200 0.0000 -0.2200
f 436/11 435/11 434/11 433/11
v -1.5200 0.0000 -0.2200
v -1.5200 0.1200 -0.2200
v -1.5200 0.1200 0.2200
v -1.5200 0.0000 0.2200
f 440/11 439/11 438/11 437/11
v -1.1200 0.0000 -0.2200
v -1.5200 0.0000 -0.2200
v -1.5200 0.0000 0.2200
v -1.1200 0.0000 0.2200
f 444/11 443/11 442/11 441/11
v -1.1200 0.1200 0.2200
v -1.5200 0.1200 0.2200
v -1.5200 0.1200 -0.2200
v -1.1200 0.1200 -0.2200
f 448/11 447/11 446/11 445/11
v -1.1200 0.1200 -0.2200
v -1.5200 0.1200 -0.2200
v -1.5200 0.0000 -0.2200
v -1.1200 0.0000 -0.2200
f 452/11 451/11 450/11 449/11
v -1.1200 0.0000 0.2200
v -1.5200 0.0000 0.2200
v -1.5200 0.1200 0.2200
v -1.1200 0.1200 0.2200
f 456/11 455/11 454/11 453/11
v -1.3600 2.4800 0.0693
v -1.4000 2.4800 0.0000
v -1.4000 2.6200 0.0000
v -1.3600 2.6200 0.0693
f 460/6 459/6 458/6 457/6
v -1.4000 2.4800 0.0000
v -1.3600 2.4800 -0.0693
v -1.3600 2.6200 -0.0693
v -1.4000 2.6200 0.0000
f 464/6 463/6 462/6 461/6
v -1.3600 2.4800 -0.0693
v -1.2800 2.4800 -0.0693
v -1.2800 2.6200 -0.0693
v -1.3600 2.6200 -0.0693
f 468/6 467/6 466/6 465/6
v -1.2800 2.4800 -0.0693
v -1.2400 2.4800 -0.0000
v -1.2400 2.6200 -0.0000
v -1.2800 2.6200 -0.0693
f 472/6 471/6 470/6 469/6
v -1.2400 2.4800 -0.0000
v -1.2800 2.4800 0.0693
v -1.2800 2.6200 0.0693
v -1.2400 2.6200 -0.0000
f 476/6 475/6 474/6 473/6
v -1.2800 2.4800 0.0693
v -1.3600 2.4800 0.0693
v -1.3600 2.6200 0.0693
v -1.2800 2.6200 0.0693
f 480/6 479/6 478/6 477/6
v -1.2800 2.4800 0.0693
v -1.2400 2.4800 -0.0000
v -1.2800 2.4800 -0.0693
v -1.3600 2.4800 -0.0693
v -1.4000 2.4800 0.0000
v -1.3600 2.4800 0.0693
f 486/6 485/6 484/6 483/6 482/6 481/6
v -1.3600 2.6200 0.0693
v -1.4000 2.6200 0.0000
v -1.3600 2.6200 -0.0693
v -1.2800 2.6200 -0.0693
v -1.2400 2.6200 -0.0000
v -1.2800 2.6200 0.0693
f 492/6 491/6 490/6 489/6 488/6 487/6
v -1.3700 2.7400 0.0866
v -1.4200 2.7400 0.0000
v -1.3400 2.8000 0.0000
v -1.3300 2.8000 0.0173
f 496/6 495/6 494/6 493/6
v -1.4200 2.7400 0.0000
v -1.3700 2.7400 -0.0866
v -1.3300 2.8000 -0.0173
v -1.3400 2.8000 0.0000
f 500/6 499/6 498/6 497/6
v -1.3700 2.7400 -0.0866
v -1.2700 2.7400 -0.0866
v -1.3100 2.8000 -0.0173
v -1.3300 2.8000 -0.0173
f 504/6 503/6 502/6 501/6
v -1.2700 2.7400 -0.0866
v -1.2200 2.7400 -0.0000
v -1.3000 2.8000 -0.0000
v -1.3100 2.8000 -0.0173
f 508/6 507/6 506/6 505/6
v -1.2200 2.7400 -0.0000
v -1.2700 2.7400 0.0866
v -1.3100 2.8000 0.0173
v -1.3000 2.8000 -0.0000
f 512/6 511/6 510/6 509/6
v -1.2700 2.7400 0.0866
v -1.3700 2.7400 0.0866
v -1.3300 2.8000 0.0173
v -1.3100 2.8000 0.0173
f 516/6 515/6 514/6 513/6
v -1.2700 2.7400 0.0866
v -1.2200 2.7400 -0.0000
v -1.2700 2.7400 -0.0866
v -1.3700 2.7400 -0.0866
v -1.4200 2.7400 0.0000
v -1.3700 2.7400 0.0866
f 522/6 521/6 520/6 519/6 518/6 517/6
v -1.3300 2.8000 0.0173
v -1.3400 2.8000 0.0000
v -1.3300 2.8000 -0.0173
v -1.3100 2.8000 -0.0173
v -1.3000 2.8000 -0.0000
v -1.3100 2.8000 0.0173
f 528/6 527/6 526/6 525/6 524/6 523/6
v -1.1050 0.1000 -0.0650
v -1.1050 1.8000 -0.0650
v -1.1050 1.8000 -0.0950
v -1.1050 0.1000 -0.0950
f 532/6 531/6 530/6 529/6
v -1.1350 0.1000 -0.0950
v -1.1350 1.8000 -0.0950
v -1.1350 1.8000 -0.0650
v -1.1350 0.1000 -0.0650
f 536/6 535/6 534/6 533/6
v -1.1050 0.1000 -0.0950
v -1.1350 0.1000 -0.0950
v -1.1350 0.1000 -0.0650
v -1.1050 0.1000 -0.0650
f 540/6 539/6 538/6 537/6
v -1.1050 1.8000 -0.0650
v -1.1350 1.8000 -0.0650
v -1.1350 1.8000 -0.0950
v -1.1050 1.8000 -0.0950
f 544/6 543/6 542/6 541/6
v -1.1050 1.8000 -0.0950
v -1.1350 1.8000 -0.0950
v -1.1350 0.1000 -0.0950
v -1.1050 0.1000 -0.0950
f 548/6 547/6 546/6 545/6
v -1.1050 0.1000 -0.0650
v -1.1350 0.1000 -0.0650
v -1.1350 1.8000 -0.0650
v -1.1050 1.8000 -0.0650
f 552/6 551/6 550/6 549/6
v -1.1050 0.1000 -0.2250
v -1.1050 1.8000 -0.2250
v -1.1050 1.8000 -0.2550
v -1.1050 0.1000 -0.2550
f 556/6 555/6 554/6 553/6
v -1.1350 0.1000 -0.2550
v -1.1350 1.8000 -0.2550
v -1.1350 1.8000 -0.2250
v -1.1350 0.1000 -0.2250
f 560/6 559/6 558/6 557/6
v -1.1050 0.1000 -0.2550
v -1.1350 0.1000 -0.2550
v -1.1350 0.1000 -0.2250
v -1.1050 0.1000 -0.2250
f 564/6 563/6 562/6 561/6
v -1.1050 1.8000 -0.2250
v -1.1350 1.8000 -0.2250
v -1.1350 1.8000 -0.2550
v -1.1050 1.8000 -0.2550
f 568/6 567/6 566/6 565/6
v -1.1050 1.8000 -0.2550
v -1.1350 1.8000 -0.2550
v -1.1350 0.1000 -0.2550
v -1.1050 0.1000 -0.2550
f 572/6 571/6 570/6 569/6
v -1.1050 0.1000 -0.2250
v -1.1350 0.1000 -0.2250
v -1.1350 1.8000 -0.2250
v -1.1050 1.8000 -0.2250
f 576/6 575/6 574/6 573/6
v -1.1050 0.1000 -0.3850
v -1.1050 1.8000 -0.3850
v -1.1050 1.8000 -0.4150
v -1.1050 0.1000 -0.4150
f 580/6 579/6 578/6 577/6
v -1.1350 0.1000 -0.4150
v -1.1350 1.8000 -0.4150
v -1.1350 1.8000 -0.3850
v -1.1350 0.1000 -0.3850
f 584/6 583/6 582/6 581/6
v -1.1050 0.1000 -0.4150
v -1.1350 0.1000 -0.4150
v -1.1350 0.1000 -0.3850
v -1.1050 0.1000 -0.3850
f 588/6 587/6 586/6 585/6
v -1.1050 1.8000 -0.3850
v -1.1350 1.8000 -0.3850
v -1.1350 1.8000 -0.4150
v -1.1050 1.8000 -0.4150
f 592/6 591/6 590/6 589/6
v -1.1050 1.8000 -0.4150
v -1.1350 1.8000 -0.4150
v -1.1350 0.1000 -0.4150
v -1.1050 0.1000 -0.4150
f 596/6 595/6 594/6 593/6
v -1.1050 0.1000 -0.3850
v -1.1350 0.1000 -0.3850
v -1.1350 1.8000 -0.3850
v -1.1050 1.8000 -0.3850
f 600/6 599/6 598/6 597/6
v -1.1050 0.1000 -0.5450
v -1.1050 1.8000 -0.5450
v -1.1050 1.8000 -0.5750
v -1.1050 0.1000 -0.5750
f 604/6 603/6 602/6 601/6
v -1.1350 0.1000 -0.5750
v -1.1350 1.8000 -0.5750
v -1.1350 1.8000 -0.5450
v -1.1350 0.1000 -0.5450
f 608/6 607/6 606/6 605/6
v -1.1050 0.1000 -0.5750
v -1.1350 0.1000 -0.5750
v -1.1350 0.1000 -0.5450
v -1.1050 0.1000 -0.5450
f 612/6 611/6 610/6 609/6
v -1.1050 1.8000 -0.5450
v -1.1350 1.8000 -0.5450
v -1.1350 1.8000 -0.5750
v -1.1050 1.8000 -0.5750
f 616/6 615/6 614/6 613/6
v -1.1050 1.8000 -0.5750
v -1.1350 1.8000 -0.5750
v -1.1350 0.1000 -0.5750
v -1.1050 0.1000 -0.5750
f 620/6 619/6 618/6 617/6
v -1.1050 0.1000 -0.5450
v -1.1350 0.1000 -0.5450
v -1.1350 1.8000 -0.5450
v -1.1050 1.8000 -0.5450
f 624/6 623/6 622/6 621/6
v -1.1050 0.1000 -0.7050
v -1.1050 1.8000 -0.7050
v -1.1050 1.8000 -0.7350
v -1.1050 0.1000 -0.7350
f 628/6 627/6 626/6 625/6
v -1.1350 0.1000 -0.7350
v -1.1350 1.8000 -0.7350
v -1.1350 1.8000 -0.7050
v -1.1350 0.1000 -0.7050
f 632/6 631/6 630/6 629/6
v -1.1050 0.1000 -0.7350
v -1.1350 0.1000 -0.7350
v -1.1350 0.1000 -0.7050
v -1.1050 0.1000 -0.7050
f 636/6 635/6 634/6 633/6
v -1.1050 1.8000 -0.7050
v -1.1350 1.8000 -0.7050
v -1.1350 1.8000 -0.7350
v -1.1050 1.8000 -0.7350
f 640/6 639/6 638/6 637/6
v -1.1050 1.8000 -0.7350
v -1.1350 1.8000 -0.7350
v -1.1350 0.1000 -0.7350
v -1.1050 0.1000 -0.7350
f 644/6 643/6 642/6 641/6
v -1.1050 0.1000 -0.7050
v -1.1350 0.1000 -0.7050
v -1.1350 1.8000 -0.7050
v -1.1050 1.8000 -0.7050
f 648/6 647/6 646/6 645/6
v -1.1050 0.1000 -0.8650
v -1.1050 1.8000 -0.8650
v -1.1050 1.8000 -0.8950
v -1.1050 0.1000 -0.8950
f 652/6 651/6 650/6 649/6
v -1.1350 0.1000 -0.8950
v -1.1350 1.8000 -0.8950
v -1.1350 1.8000 -0.8650
v -1.1350 0.1000 -0.8650
f 656/6 655/6 654/6 653/6
v -1.1050 0.1000 -0.8950
v -1.1350 0.1000 -0.8950
v -1.1350 0.1000 -0.8650
v -1.1050 0.1000 -0.8650
f 660/6 659/6 658/6 657/6
v -1.1050 1.8000 -0.8650
v -1.1350 1.8000 -0.8650
v -1.1350 1.8000 -0.8950
v -1.1050 1.8000 -0.8950
f 664/6 663/6 662/6 661/6
v -1.1050 1.8000 -0.8950
v -1.1350 1.8000 -0.8950
v -1.1350 0.1000 -0.8950
v -1.1050 0.1000 -0.8950
f 668/6 667/6 666/6 665/6
v -1.1050 0.1000 -0.8650
v -1.1350 0.1000 -0.8650
v -1.1350 1.8000 -0.8650
v -1.1050 1.8000 -0.8650
f 672/6 671/6 670/6 669/6
v -1.1000 0.1750 -0.0500
v -1.1000 0.2250 -0.0500
v -1.1000 0.2250 -0.9100
v -1.1000 0.1750 -0.9100
f 676/6 675/6 674/6 673/6
v -1.1400 0.1750 -0.9100
v -1.1400 0.2250 -0.9100
v -1.1400 0.2250 -0.0500
v -1.1400 0.1750 -0.0500
f 680/6 679/6 678/6 677/6
v -1.1000 0.1750 -0.9100
v -1.1400 0.1750 -0.9100
v -1.1400 0.1750 -0.0500
v -1.1000 0.1750 -0.0500
f 684/6 683/6 682/6 681/6
v -1.1000 0.2250 -0.0500
v -1.1400 0.2250 -0.0500
v -1.1400 0.2250 -0.9100
v -1.1000 0.2250 -0.9100
f 688/6 687/6 686/6 685/6
v -1.1000 0.2250 -0.9100
v -1.1400 0.2250 -0.9100
v -1.1400 0.1750 -0.9100
v -1.1000 0.1750 -0.9100
f 692/6 691/6 690/6 689/6
v -1.1000 0.1750 -0.0500
v -1.1400 0.1750 -0.0500
v -1.1400 0.2250 -0.0500
v -1.1000 0.2250 -0.0500
f 696/6 695/6 694/6 693/6
v -1.1000 1.7250 -0.0500
v -1.1000 1.7750 -0.0500
v -1.1000 1.7750 -0.9100
v -1.1000 1.7250 -0.9100
f 700/6 699/6 698/6 697/6
v -1.1400 1.7250 -0.9100
v -1.1400 1.7750 -0.9100
v -1.1400 1.7750 -0.0500
v -1.1400 1.7250 -0.0500
f 704/6 703/6 702/6 701/6
v -1.1000 1.7250 -0.9100
v -1.1400 1.7250 -0.9100
v -1.1400 1.7250 -0.0500
v -1.1000 1.7250 -0.0500
f 708/6 707/6 706/6 705/6
v -1.1000 1.7750 -0.0500
v -1.1400 1.7750 -0.0500
v -1.1400 1.7750 -0.9100
v -1.1000 1.7750 -0.9100
f 712/6 711/6 710/6 709/6
v -1.1000 1.7750 -0.9100
v -1.1400 1.7750 -0.9100
v -1.1400 1.7250 -0.9100
v -1.1000 1.7250 -0.9100
f 716/6 715/6 714/6 713/6
v -1.1000 1.7250 -0.0500
v -1.1400 1.7250 -0.0500
v -1.1400 1.7750 -0.0500
v -1.1000 1.7750 -0.0500
f 720/6 719/6 718/6 717/6
v -1.1050 0.9700 -0.0500
v -1.1050 1.0300 -0.0500
v -1.1050 1.0300 -0.9100
v -1.1050 0.9700 -0.9100
f 724/23 723/23 722/23 721/23
v -1.1350 0.9700 -0.9100
v -1.1350 1.0300 -0.9100
v -1.1350 1.0300 -0.0500
v -1.1350 0.9700 -0.0500
f 728/23 727/23 726/23 725/23
v -1.1050 0.9700 -0.9100
v -1.1350 0.9700 -0.9100
v -1.1350 0.9700 -0.0500
v -1.1050 0.9700 -0.0500
f 732/23 731/23 730/23 729/23
v -1.1050 1.0300 -0.0500
v -1.1350 1.0300 -0.0500
v -1.1350 1.0300 -0.9100
v -1.1050 1.0300 -0.9100
f 736/23 735/23 734/23 733/23
v -1.1050 1.0300 -0.9100
v -1.1350 1.0300 -0.9100
v -1.1350 0.9700 -0.9100
v -1.1050 0.9700 -0.9100
f 740/23 739/23 738/23 737/23
v -1.1050 0.9700 -0.0500
v -1.1350 0.9700 -0.0500
v -1.1350 1.0300 -0.0500
v -1.1050 1.0300 -0.0500
f 744/23 743/23 742/23 741/23
v 1.1500 2.3800 0.0750
v 1.1500 2.7200 0.0750
v 1.1500 2.7200 0.0650
v 1.1500 2.3800 0.0650
f 748/6 747/6 746/6 745/6
v -1.1500 2.3800 0.0650
v -1.1500 2.7200 0.0650
v -1.1500 2.7200 0.0750
v -1.1500 2.3800 0.0750
f 752/6 751/6 750/6 749/6
v 1.1500 2.3800 0.0650
v -1.1500 2.3800 0.0650
v -1.1500 2.3800 0.0750
v 1.1500 2.3800 0.0750
f 756/6 755/6 754/6 753/6
v 1.1500 2.7200 0.0750
v -1.1500 2.7200 0.0750
v -1.1500 2.7200 0.0650
v 1.1500 2.7200 0.0650
f 760/6 759/6 758/6 757/6
v 1.1500 2.7200 0.0650
v -1.1500 2.7200 0.0650
v -1.1500 2.3800 0.0650
v 1.1500 2.3800 0.0650
f 764/6 763/6 762/6 761/6
v 1.1500 2.3800 0.0750
v -1.1500 2.3800 0.0750
v -1.1500 2.7200 0.0750
v 1.1500 2.7200 0.0750
f 768/6 767/6 766/6 765/6
v 1.2500 2.7700 0.0900
v 1.2500 2.8300 0.0900
v 1.2500 2.8300 -0.0900
v 1.2500 2.7700 -0.0900
f 772/4 771/4 770/4 769/4
v -1.2500 2.7700 -0.0900
v -1.2500 2.8300 -0.0900
v -1.2500 2.8300 0.0900
v -1.2500 2.7700 0.0900
f 776/4 775/4 774/4 773/4
v 1.2500 2.7700 -0.0900
v -1.2500 2.7700 -0.0900
v -1.2500 2.7700 0.0900
v 1.2500 2.7700 0.0900
f 780/4 779/4 778/4 777/4
v 1.2500 2.8300 0.0900
v -1.2500 2.8300 0.0900
v -1.2500 2.8300 -0.0900
v 1.2500 2.8300 -0.0900
f 784/4 783/4 782/4 781/4
v 1.2500 2.8300 -0.0900
v -1.2500 2.8300 -0.0900
v -1.2500 2.7700 -0.0900
v 1.2500 2.7700 -0.0900
f 788/4 787/4 786/4 785/4
v 1.2500 2.7700 0.0900
v -1.2500 2.7700 0.0900
v -1.2500 2.8300 0.0900
v 1.2500 2.8300 0.0900
f 792/4 791/4 790/4 789/4
v 1.2500 2.2700 0.0900
v 1.2500 2.3300 0.0900
v 1.2500 2.3300 -0.0900
v 1.2500 2.2700 -0.0900
f 796/4 795/4 794/4 793/4
v -1.2500 2.2700 -0.0900
v -1.2500 2.3300 -0.0900
v -1.2500 2.3300 0.0900
v -1.2500 2.2700 0.0900
f 800/4 799/4 798/4 797/4
v 1.2500 2.2700 -0.0900
v -1.2500 2.2700 -0.0900
v -1.2500 2.2700 0.0900
v 1.2500 2.2700 0.0900
f 804/4 803/4 802/4 801/4
v 1.2500 2.3300 0.0900
v -1.2500 2.3300 0.0900
v -1.2500 2.3300 -0.0900
v 1.2500 2.3300 -0.0900
f 808/4 807/4 806/4 805/4
v 1.2500 2.3300 -0.0900
v -1.2500 2.3300 -0.0900
v -1.2500 2.2700 -0.0900
v 1.2500 2.2700 -0.0900
f 812/4 811/4 810/4 809/4
v 1.2500 2.2700 0.0900
v -1.2500 2.2700 0.0900
v -1.2500 2.3300 0.0900
v 1.2500 2.3300 0.0900
f 816/4 815/4 814/4 813/4
v 1.1500 0.0050 0.3600
v 1.1500 0.0150 0.3600
v 1.1500 0.0150 0.2400
v 1.1500 0.0050 0.2400
f 820/8 819/8 818/8 817/8
v 0.8625 0.0050 0.2400
v 0.8625 0.0150 0.2400
v 0.8625 0.0150 0.3600
v 0.8625 0.0050 0.3600
f 824/8 823/8 822/8 821/8
v 1.1500 0.0050 0.2400
v 0.8625 0.0050 0.2400
v 0.8625 0.0050 0.3600
v 1.1500 0.0050 0.3600
f 828/8 827/8 826/8 825/8
v 1.1500 0.0150 0.3600
v 0.8625 0.0150 0.3600
v 0.8625 0.0150 0.2400
v 1.1500 0.0150 0.2400
f 832/8 831/8 830/8 829/8
v 1.1500 0.0150 0.2400
v 0.8625 0.0150 0.2400
v 0.8625 0.0050 0.2400
v 1.1500 0.0050 0.2400
f 836/8 835/8 834/8 833/8
v 1.1500 0.0050 0.3600
v 0.8625 0.0050 0.3600
v 0.8625 0.0150 0.3600
v 1.1500 0.0150 0.3600
f 840/8 839/8 838/8 837/8
v 0.8625 0.0050 0.3600
v 0.8625 0.0150 0.3600
v 0.8625 0.0150 0.2400
v 0.8625 0.0050 0.2400
f 844/6 843/6 842/6 841/6
v 0.5750 0.0050 0.2400
v 0.5750 0.0150 0.2400
v 0.5750 0.0150 0.3600
v 0.5750 0.0050 0.3600
f 848/6 847/6 846/6 845/6
v 0.8625 0.0050 0.2400
v 0.5750 0.0050 0.2400
v 0.5750 0.0050 0.3600
v 0.8625 0.0050 0.3600
f 852/6 851/6 850/6 849/6
v 0.8625 0.0150 0.3600
v 0.5750 0.0150 0.3600
v 0.5750 0.0150 0.2400
v 0.8625 0.0150 0.2400
f 856/6 855/6 854/6 853/6
v 0.8625 0.0150 0.2400
v 0.5750 0.0150 0.2400
v 0.5750 0.0050 0.2400
v 0.8625 0.0050 0.2400
f 860/6 859/6 858/6 857/6
v 0.8625 0.0050 0.3600
v 0.5750 0.0050 0.3600
v 0.5750 0.0150 0.3600
v 0.8625 0.0150 0.3600
f 864/6 863/6 862/6 861/6
v 0.5750 0.0050 0.3600
v 0.5750 0.0150 0.3600
v 0.5750 0.0150 0.2400
v 0.5750 0.0050 0.2400
f 868/8 867/8 866/8 865/8
v 0.2875 0.0050 0.2400
v 0.2875 0.0150 0.2400
v 0.2875 0.0150 0.3600
v 0.2875 0.0050 0.3600
f 872/8 871/8 870/8 869/8
v 0.5750 0.0050 0.2400
v 0.2875 0.0050 0.2400
v 0.2875 0.0050 0.3600
v 0.5750 0.0050 0.3600
f 876/8 875/8 874/8 873/8
v 0.5750 0.0150 0.3600
v 0.2875 0.0150 0.3600
v 0.2875 0.0150 0.2400
v 0.5750 0.0150 0.2400
f 880/8 879/8 878/8 877/8
v 0.5750 0.0150 0.2400
v 0.2875 0.0150 0.2400
v 0.2875 0.0050 0.2400
v 0.5750 0.0050 0.2400
f 884/8 883/8 882/8 881/8
v 0.5750 0.0050 0.3600
v 0.2875 0.0050 0.3600
v 0.2875 0.0150 0.3600
v 0.5750 0.0150 0.3600
f 888/8 887/8 886/8 885/8
v 0.2875 0.0050 0.3600
v 0.2875 0.0150 0.3600
v 0.2875 0.0150 0.2400
v 0.2875 0.0050 0.2400
f 892/6 891/6 890/6 889/6
v 0.0000 0.0050 0.2400
v 0.0000 0.0150 0.2400
v 0.0000 0.0150 0.3600
v 0.0000 0.0050 0.3600
f 896/6 895/6 894/6 893/6
v 0.2875 0.0050 0.2400
v 0.0000 0.0050 0.2400
v 0.0000 0.0050 0.3600
v 0.2875 0.0050 0.3600
f 900/6 899/6 898/6 897/6
v 0.2875 0.0150 0.3600
v 0.0000 0.0150 0.3600
v 0.0000 0.0150 0.2400
v 0.2875 0.0150 0.2400
f 904/6 903/6 902/6 901/6
v 0.2875 0.0150 0.2400
v 0.0000 0.0150 0.2400
v 0.0000 0.0050 0.2400
v 0.2875 0.0050 0.2400
f 908/6 907/6 906/6 905/6
v 0.2875 0.0050 0.3600
v 0.0000 0.0050 0.3600
v 0.0000 0.0150 0.3600
v 0.2875 0.0150 0.3600
f 912/6 911/6 910/6 909/6
v -0.0000 0.0050 0.3600
v -0.0000 0.0150 0.3600
v -0.0000 0.0150 0.2400
v -0.0000 0.0050 0.2400
f 916/8 915/8 914/8 913/8
v -0.2875 0.0050 0.2400
v -0.2875 0.0150 0.2400
v -0.2875 0.0150 0.3600
v -0.2875 0.0050 0.3600
f 920/8 919/8 918/8 917/8
v -0.0000 0.0050 0.2400
v -0.2875 0.0050 0.2400
v -0.2875 0.0050 0.3600
v -0.0000 0.0050 0.3600
f 924/8 923/8 922/8 921/8
v -0.0000 0.0150 0.3600
v -0.2875 0.0150 0.3600
v -0.2875 0.0150 0.2400
v -0.0000 0.0150 0.2400
f 928/8 927/8 926/8 925/8
v -0.0000 0.0150 0.2400
v -0.2875 0.0150 0.2400
v -0.2875 0.0050 0.2400
v -0.0000 0.0050 0.2400
f 932/8 931/8 930/8 929/8
v -0.0000 0.0050 0.3600
v -0.2875 0.0050 0.3600
v -0.2875 0.0150 0.3600
v -0.0000 0.0150 0.3600
f 936/8 935/8 934/8 933/8
v -0.2875 0.0050 0.3600
v -0.2875 0.0150 0.3600
v -0.2875 0.0150 0.2400
v -0.2875 0.0050 0.2400
f 940/6 939/6 938/6 937/6
v -0.5750 0.0050 0.2400
v -0.5750 0.0150 0.2400
v -0.5750 0.0150 0.3600
v -0.5750 0.0050 0.3600
f 944/6 943/6 942/6 941/6
v -0.2875 0.0050 0.2400
v -0.5750 0.0050 0.2400
v -0.5750 0.0050 0.3600
v -0.2875 0.0050 0.3600
f 948/6 947/6 946/6 945/6
v -0.2875 0.0150 0.3600
v -0.5750 0.0150 0.3600
v -0.5750 0.0150 0.2400
v -0.2875 0.0150 0.2400
f 952/6 951/6 950/6 949/6
v -0.2875 0.0150 0.2400
v -0.5750 0.0150 0.2400
v -0.5750 0.0050 0.2400
v -0.2875 0.0050 0.2400
f 956/6 955/6 954/6 953/6
v -0.2875 0.0050 0.3600
v -0.5750 0.0050 0.3600
v -0.5750 0.0150 0.3600
v -0.2875 0.0150 0.3600
f 960/6 959/6 958/6 957/6
v -0.5750 0.0050 0.3600
v -0.5750 0.0150 0.3600
v -0.5750 0.0150 0.2400
v -0.5750 0.0050 0.2400
f 964/8 963/8 962/8 961/8
v -0.8625 0.0050 0.2400
v -0.8625 0.0150 0.2400
v -0.8625 0.0150 0.3600
v -0.8625 0.0050 0.3600
f 968/8 967/8 966/8 965/8
v -0.5750 0.0050 0.2400
v -0.8625 0.0050 0.2400
v -0.8625 0.0050 0.3600
v -0.5750 0.0050 0.3600
f 972/8 971/8 970/8 969/8
v -0.5750 0.0150 0.3600
v -0.8625 0.0150 0.3600
v -0.8625 0.0150 0.2400
v -0.5750 0.0150 0.2400
f 976/8 975/8 974/8 973/8
v -0.5750 0.0150 0.2400
v -0.8625 0.0150 0.2400
v -0.8625 0.0050 0.2400
v -0.5750 0.0050 0.2400
f 980/8 979/8 978/8 977/8
v -0.5750 0.0050 0.3600
v -0.8625 0.0050 0.3600
v -0.8625 0.0150 0.3600
v -0.5750 0.0150 0.3600
f 984/8 983/8 982/8 981/8
v -0.8625 0.0050 0.3600
v -0.8625 0.0150 0.3600
v -0.8625 0.0150 0.2400
v -0.8625 0.0050 0.2400
f 988/6 987/6 986/6 985/6
v -1.1500 0.0050 0.2400
v -1.1500 0.0150 0.2400
v -1.1500 0.0150 0.3600
v -1.1500 0.0050 0.3600
f 992/6 991/6 990/6 989/6
v -0.8625 0.0050 0.2400
v -1.1500 0.0050 0.2400
v -1.1500 0.0050 0.3600
v -0.8625 0.0050 0.3600
f 996/6 995/6 994/6 993/6
v -0.8625 0.0150 0.3600
v -1.1500 0.0150 0.3600
v -1.1500 0.0150 0.2400
v -0.8625 0.0150 0.2400
f 1000/6 999/6 998/6 997/6
v -0.8625 0.0150 0.2400
v -1.1500 0.0150 0.2400
v -1.1500 0.0050 0.2400
v -0.8625 0.0050 0.2400
f 1004/6 1003/6 1002/6 1001/6
v -0.8625 0.0050 0.3600
v -1.1500 0.0050 0.3600
v -1.1500 0.0150 0.3600
v -0.8625 0.0150 0.3600
f 1008/6 1007/6 1006/6 1005/6
o Lamp
usemtl wi_palette
v 1.3800 2.6200 0.0600
v 1.3800 2.7400 0.0600
v 1.3800 2.7400 -0.0600
v 1.3800 2.6200 -0.0600
f 1012/31 1011/31 1010/31 1009/31
v 1.2600 2.6200 -0.0600
v 1.2600 2.7400 -0.0600
v 1.2600 2.7400 0.0600
v 1.2600 2.6200 0.0600
f 1016/31 1015/31 1014/31 1013/31
v 1.3800 2.6200 -0.0600
v 1.2600 2.6200 -0.0600
v 1.2600 2.6200 0.0600
v 1.3800 2.6200 0.0600
f 1020/31 1019/31 1018/31 1017/31
v 1.3800 2.7400 0.0600
v 1.2600 2.7400 0.0600
v 1.2600 2.7400 -0.0600
v 1.3800 2.7400 -0.0600
f 1024/31 1023/31 1022/31 1021/31
v 1.3800 2.7400 -0.0600
v 1.2600 2.7400 -0.0600
v 1.2600 2.6200 -0.0600
v 1.3800 2.6200 -0.0600
f 1028/31 1027/31 1026/31 1025/31
v 1.3800 2.6200 0.0600
v 1.2600 2.6200 0.0600
v 1.2600 2.7400 0.0600
v 1.3800 2.7400 0.0600
f 1032/31 1031/31 1030/31 1029/31
v -1.2600 2.6200 0.0600
v -1.2600 2.7400 0.0600
v -1.2600 2.7400 -0.0600
v -1.2600 2.6200 -0.0600
f 1036/31 1035/31 1034/31 1033/31
v -1.3800 2.6200 -0.0600
v -1.3800 2.7400 -0.0600
v -1.3800 2.7400 0.0600
v -1.3800 2.6200 0.0600
f 1040/31 1039/31 1038/31 1037/31
v -1.2600 2.6200 -0.0600
v -1.3800 2.6200 -0.0600
v -1.3800 2.6200 0.0600
v -1.2600 2.6200 0.0600
f 1044/31 1043/31 1042/31 1041/31
v -1.2600 2.7400 0.0600
v -1.3800 2.7400 0.0600
v -1.3800 2.7400 -0.0600
v -1.2600 2.7400 -0.0600
f 1048/31 1047/31 1046/31 1045/31
v -1.2600 2.7400 -0.0600
v -1.3800 2.7400 -0.0600
v -1.3800 2.6200 -0.0600
v -1.2600 2.6200 -0.0600
f 1052/31 1051/31 1050/31 1049/31
v -1.2600 2.6200 0.0600
v -1.3800 2.6200 0.0600
v -1.3800 2.7400 0.0600
v -1.2600 2.7400 0.0600
f 1056/31 1055/31 1054/31 1053/31
