# Walk of Industry low-poly (generated, wi_lib.py)
mtllib wi.mtl
vt 0 0
vt 0.03125 0.03125
vt 0.09375 0.03125
vt 0.15625 0.03125
vt 0.21875 0.03125
vt 0.28125 0.03125
vt 0.34375 0.03125
vt 0.40625 0.03125
vt 0.46875 0.03125
vt 0.53125 0.03125
vt 0.59375 0.03125
vt 0.65625 0.03125
vt 0.71875 0.03125
vt 0.78125 0.03125
vt 0.84375 0.03125
vt 0.90625 0.03125
vt 0.96875 0.03125
vt 0.03125 0.09375
vt 0.09375 0.09375
vt 0.15625 0.09375
vt 0.21875 0.09375
vt 0.28125 0.09375
vt 0.34375 0.09375
vt 0.40625 0.09375
vt 0.46875 0.09375
vt 0.53125 0.09375
vt 0.59375 0.09375
vt 0.65625 0.09375
vt 0.71875 0.09375
vt 0.78125 0.09375
vt 0.84375 0.09375
vt 0.90625 0.09375
vt 0.96875 0.09375
o Body
usemtl wi_palette
v 0.3700 0.0000 0.2900
v 0.3700 0.0800 0.2900
v 0.3700 0.0800 -0.3300
v 0.3700 0.0000 -0.3300
f 4/6 3/6 2/6 1/6
v -0.3700 0.0000 -0.3300
v -0.3700 0.0800 -0.3300
v -0.3700 0.0800 0.2900
v -0.3700 0.0000 0.2900
f 8/6 7/6 6/6 5/6
v 0.3700 0.0000 -0.3300
v -0.3700 0.0000 -0.3300
v -0.3700 0.0000 0.2900
v 0.3700 0.0000 0.2900
f 12/6 11/6 10/6 9/6
v 0.3700 0.0800 0.2900
v -0.3700 0.0800 0.2900
v -0.3700 0.0800 -0.3300
v 0.3700 0.0800 -0.3300
f 16/6 15/6 14/6 13/6
v 0.3700 0.0800 -0.3300
v -0.3700 0.0800 -0.3300
v -0.3700 0.0000 -0.3300
v 0.3700 0.0000 -0.3300
f 20/6 19/6 18/6 17/6
v 0.3700 0.0000 0.2900
v -0.3700 0.0000 0.2900
v -0.3700 0.0800 0.2900
v 0.3700 0.0800 0.2900
f 24/6 23/6 22/6 21/6
v 0.3600 0.0600 0.2700
v 0.3600 1.8400 0.2700
v 0.3600 1.8400 -0.3100
v 0.3600 0.0600 -0.3100
f 28/27 27/27 26/27 25/27
v -0.3600 0.0600 -0.3100
v -0.3600 1.8400 -0.3100
v -0.3600 1.8400 0.2700
v -0.3600 0.0600 0.2700
f 32/27 31/27 30/27 29/27
v 0.3600 0.0600 -0.3100
v -0.3600 0.0600 -0.3100
v -0.3600 0.0600 0.2700
v 0.3600 0.0600 0.2700
f 36/27 35/27 34/27 33/27
v 0.3600 1.8400 0.2700
v -0.3600 1.8400 0.2700
v -0.3600 1.8400 -0.3100
v 0.3600 1.8400 -0.3100
f 40/27 39/27 38/27 37/27
v 0.3600 1.8400 -0.3100
v -0.3600 1.8400 -0.3100
v -0.3600 0.0600 -0.3100
v 0.3600 0.0600 -0.3100
f 44/27 43/27 42/27 41/27
v 0.3600 0.0600 0.2700
v -0.3600 0.0600 0.2700
v -0.3600 1.8400 0.2700
v 0.3600 1.8400 0.2700
f 48/27 47/27 46/27 45/27
v 0.3200 0.6000 0.2820
v 0.3200 1.7000 0.2820
v 0.3200 1.7000 0.2620
v 0.3200 0.6000 0.2620
f 52/12 51/12 50/12 49/12
v -0.1200 0.6000 0.2620
v -0.1200 1.7000 0.2620
v -0.1200 1.7000 0.2820
v -0.1200 0.6000 0.2820
f 56/12 55/12 54/12 53/12
v 0.3200 0.6000 0.2620
v -0.1200 0.6000 0.2620
v -0.1200 0.6000 0.2820
v 0.3200 0.6000 0.2820
f 60/12 59/12 58/12 57/12
v 0.3200 1.7000 0.2820
v -0.1200 1.7000 0.2820
v -0.1200 1.7000 0.2620
v 0.3200 1.7000 0.2620
f 64/12 63/12 62/12 61/12
v 0.3200 1.7000 0.2620
v -0.1200 1.7000 0.2620
v -0.1200 0.6000 0.2620
v 0.3200 0.6000 0.2620
f 68/12 67/12 66/12 65/12
v 0.3200 0.6000 0.2820
v -0.1200 0.6000 0.2820
v -0.1200 1.7000 0.2820
v 0.3200 1.7000 0.2820
f 72/12 71/12 70/12 69/12
v 0.3100 0.6525 0.2800
v 0.3100 0.6675 0.2800
v 0.3100 0.6675 0.2200
v 0.3100 0.6525 0.2200
f 76/7 75/7 74/7 73/7
v -0.1100 0.6525 0.2200
v -0.1100 0.6675 0.2200
v -0.1100 0.6675 0.2800
v -0.1100 0.6525 0.2800
f 80/7 79/7 78/7 77/7
v 0.3100 0.6525 0.2200
v -0.1100 0.6525 0.2200
v -0.1100 0.6525 0.2800
v 0.3100 0.6525 0.2800
f 84/7 83/7 82/7 81/7
v 0.3100 0.6675 0.2800
v -0.1100 0.6675 0.2800
v -0.1100 0.6675 0.2200
v 0.3100 0.6675 0.2200
f 88/7 87/7 86/7 85/7
v 0.3100 0.6675 0.2200
v -0.1100 0.6675 0.2200
v -0.1100 0.6525 0.2200
v 0.3100 0.6525 0.2200
f 92/7 91/7 90/7 89/7
v 0.3100 0.6525 0.2800
v -0.1100 0.6525 0.2800
v -0.1100 0.6675 0.2800
v 0.3100 0.6675 0.2800
f 96/7 95/7 94/7 93/7
v 0.3000 0.6700 0.2750
v 0.3000 0.7700 0.2750
v 0.3000 0.7700 0.2250
v 0.3000 0.6700 0.2250
f 100/8 99/8 98/8 97/8
v 0.2400 0.6700 0.2250
v 0.2400 0.7700 0.2250
v 0.2400 0.7700 0.2750
v 0.2400 0.6700 0.2750
f 104/8 103/8 102/8 101/8
v 0.3000 0.6700 0.2250
v 0.2400 0.6700 0.2250
v 0.2400 0.6700 0.2750
v 0.3000 0.6700 0.2750
f 108/8 107/8 106/8 105/8
v 0.3000 0.7700 0.2750
v 0.2400 0.7700 0.2750
v 0.2400 0.7700 0.2250
v 0.3000 0.7700 0.2250
f 112/8 111/8 110/8 109/8
v 0.3000 0.7700 0.2250
v 0.2400 0.7700 0.2250
v 0.2400 0.6700 0.2250
v 0.3000 0.6700 0.2250
f 116/8 115/8 114/8 113/8
v 0.3000 0.6700 0.2750
v 0.2400 0.6700 0.2750
v 0.2400 0.7700 0.2750
v 0.3000 0.7700 0.2750
f 120/8 119/8 118/8 117/8
v 0.1900 0.6700 0.2750
v 0.1900 0.7700 0.2750
v 0.1900 0.7700 0.2250
v 0.1900 0.6700 0.2250
f 124/19 123/19 122/19 121/19
v 0.1300 0.6700 0.2250
v 0.1300 0.7700 0.2250
v 0.1300 0.7700 0.2750
v 0.1300 0.6700 0.2750
f 128/19 127/19 126/19 125/19
v 0.1900 0.6700 0.2250
v 0.1300 0.6700 0.2250
v 0.1300 0.6700 0.2750
v 0.1900 0.6700 0.2750
f 132/19 131/19 130/19 129/19
v 0.1900 0.7700 0.2750
v 0.1300 0.7700 0.2750
v 0.1300 0.7700 0.2250
v 0.1900 0.7700 0.2250
f 136/19 135/19 134/19 133/19
v 0.1900 0.7700 0.2250
v 0.1300 0.7700 0.2250
v 0.1300 0.6700 0.2250
v 0.1900 0.6700 0.2250
f 140/19 139/19 138/19 137/19
v 0.1900 0.6700 0.2750
v 0.1300 0.6700 0.2750
v 0.1300 0.7700 0.2750
v 0.1900 0.7700 0.2750
f 144/19 143/19 142/19 141/19
v 0.0800 0.6700 0.2750
v 0.0800 0.7700 0.2750
v 0.0800 0.7700 0.2250
v 0.0800 0.6700 0.2250
f 148/16 147/16 146/16 145/16
v 0.0200 0.6700 0.2250
v 0.0200 0.7700 0.2250
v 0.0200 0.7700 0.2750
v 0.0200 0.6700 0.2750
f 152/16 151/16 150/16 149/16
v 0.0800 0.6700 0.2250
v 0.0200 0.6700 0.2250
v 0.0200 0.6700 0.2750
v 0.0800 0.6700 0.2750
f 156/16 155/16 154/16 153/16
v 0.0800 0.7700 0.2750
v 0.0200 0.7700 0.2750
v 0.0200 0.7700 0.2250
v 0.0800 0.7700 0.2250
f 160/16 159/16 158/16 157/16
v 0.0800 0.7700 0.2250
v 0.0200 0.7700 0.2250
v 0.0200 0.6700 0.2250
v 0.0800 0.6700 0.2250
f 164/16 163/16 162/16 161/16
v 0.0800 0.6700 0.2750
v 0.0200 0.6700 0.2750
v 0.0200 0.7700 0.2750
v 0.0800 0.7700 0.2750
f 168/16 167/16 166/16 165/16
v -0.0300 0.6700 0.2750
v -0.0300 0.7700 0.2750
v -0.0300 0.7700 0.2250
v -0.0300 0.6700 0.2250
f 172/15 171/15 170/15 169/15
v -0.0900 0.6700 0.2250
v -0.0900 0.7700 0.2250
v -0.0900 0.7700 0.2750
v -0.0900 0.6700 0.2750
f 176/15 175/15 174/15 173/15
v -0.0300 0.6700 0.2250
v -0.0900 0.6700 0.2250
v -0.0900 0.6700 0.2750
v -0.0300 0.6700 0.2750
f 180/15 179/15 178/15 177/15
v -0.0300 0.7700 0.2750
v -0.0900 0.7700 0.2750
v -0.0900 0.7700 0.2250
v -0.0300 0.7700 0.2250
f 184/15 183/15 182/15 181/15
v -0.0300 0.7700 0.2250
v -0.0900 0.7700 0.2250
v -0.0900 0.6700 0.2250
v -0.0300 0.6700 0.2250
f 188/15 187/15 186/15 185/15
v -0.0300 0.6700 0.2750
v -0.0900 0.6700 0.2750
v -0.0900 0.7700 0.2750
v -0.0300 0.7700 0.2750
f 192/15 191/15 190/15 189/15
v 0.3100 0.8625 0.2800
v 0.3100 0.8775 0.2800
v 0.3100 0.8775 0.2200
v 0.3100 0.8625 0.2200
f 196/7 195/7 194/7 193/7
v -0.1100 0.8625 0.2200
v -0.1100 0.8775 0.2200
v -0.1100 0.8775 0.2800
v -0.1100 0.8625 0.2800
f 200/7 199/7 198/7 197/7
v 0.3100 0.8625 0.2200
v -0.1100 0.8625 0.2200
v -0.1100 0.8625 0.2800
v 0.3100 0.8625 0.2800
f 204/7 203/7 202/7 201/7
v 0.3100 0.8775 0.2800
v -0.1100 0.8775 0.2800
v -0.1100 0.8775 0.2200
v 0.3100 0.8775 0.2200
f 208/7 207/7 206/7 205/7
v 0.3100 0.8775 0.2200
v -0.1100 0.8775 0.2200
v -0.1100 0.8625 0.2200
v 0.3100 0.8625 0.2200
f 212/7 211/7 210/7 209/7
v 0.3100 0.8625 0.2800
v -0.1100 0.8625 0.2800
v -0.1100 0.8775 0.2800
v 0.3100 0.8775 0.2800
f 216/7 215/7 214/7 213/7
v 0.3000 0.8800 0.2750
v 0.3000 0.9800 0.2750
v 0.3000 0.9800 0.2250
v 0.3000 0.8800 0.2250
f 220/19 219/19 218/19 217/19
v 0.2400 0.8800 0.2250
v 0.2400 0.9800 0.2250
v 0.2400 0.9800 0.2750
v 0.2400 0.8800 0.2750
f 224/19 223/19 222/19 221/19
v 0.3000 0.8800 0.2250
v 0.2400 0.8800 0.2250
v 0.2400 0.8800 0.2750
v 0.3000 0.8800 0.2750
f 228/19 227/19 226/19 225/19
v 0.3000 0.9800 0.2750
v 0.2400 0.9800 0.2750
v 0.2400 0.9800 0.2250
v 0.3000 0.9800 0.2250
f 232/19 231/19 230/19 229/19
v 0.3000 0.9800 0.2250
v 0.2400 0.9800 0.2250
v 0.2400 0.8800 0.2250
v 0.3000 0.8800 0.2250
f 236/19 235/19 234/19 233/19
v 0.3000 0.8800 0.2750
v 0.2400 0.8800 0.2750
v 0.2400 0.9800 0.2750
v 0.3000 0.9800 0.2750
f 240/19 239/19 238/19 237/19
v 0.1900 0.8800 0.2750
v 0.1900 0.9800 0.2750
v 0.1900 0.9800 0.2250
v 0.1900 0.8800 0.2250
f 244/16 243/16 242/16 241/16
v 0.1300 0.8800 0.2250
v 0.1300 0.9800 0.2250
v 0.1300 0.9800 0.2750
v 0.1300 0.8800 0.2750
f 248/16 247/16 246/16 245/16
v 0.1900 0.8800 0.2250
v 0.1300 0.8800 0.2250
v 0.1300 0.8800 0.2750
v 0.1900 0.8800 0.2750
f 252/16 251/16 250/16 249/16
v 0.1900 0.9800 0.2750
v 0.1300 0.9800 0.2750
v 0.1300 0.9800 0.2250
v 0.1900 0.9800 0.2250
f 256/16 255/16 254/16 253/16
v 0.1900 0.9800 0.2250
v 0.1300 0.9800 0.2250
v 0.1300 0.8800 0.2250
v 0.1900 0.8800 0.2250
f 260/16 259/16 258/16 257/16
v 0.1900 0.8800 0.2750
v 0.1300 0.8800 0.2750
v 0.1300 0.9800 0.2750
v 0.1900 0.9800 0.2750
f 264/16 263/16 262/16 261/16
v 0.0800 0.8800 0.2750
v 0.0800 0.9800 0.2750
v 0.0800 0.9800 0.2250
v 0.0800 0.8800 0.2250
f 268/15 267/15 266/15 265/15
v 0.0200 0.8800 0.2250
v 0.0200 0.9800 0.2250
v 0.0200 0.9800 0.2750
v 0.0200 0.8800 0.2750
f 272/15 271/15 270/15 269/15
v 0.0800 0.8800 0.2250
v 0.0200 0.8800 0.2250
v 0.0200 0.8800 0.2750
v 0.0800 0.8800 0.2750
f 276/15 275/15 274/15 273/15
v 0.0800 0.9800 0.2750
v 0.0200 0.9800 0.2750
v 0.0200 0.9800 0.2250
v 0.0800 0.9800 0.2250
f 280/15 279/15 278/15 277/15
v 0.0800 0.9800 0.2250
v 0.0200 0.9800 0.2250
v 0.0200 0.8800 0.2250
v 0.0800 0.8800 0.2250
f 284/15 283/15 282/15 281/15
v 0.0800 0.8800 0.2750
v 0.0200 0.8800 0.2750
v 0.0200 0.9800 0.2750
v 0.0800 0.9800 0.2750
f 288/15 287/15 286/15 285/15
v -0.0300 0.8800 0.2750
v -0.0300 0.9800 0.2750
v -0.0300 0.9800 0.2250
v -0.0300 0.8800 0.2250
f 292/25 291/25 290/25 289/25
v -0.0900 0.8800 0.2250
v -0.0900 0.9800 0.2250
v -0.0900 0.9800 0.2750
v -0.0900 0.8800 0.2750
f 296/25 295/25 294/25 293/25
v -0.0300 0.8800 0.2250
v -0.0900 0.8800 0.2250
v -0.0900 0.8800 0.2750
v -0.0300 0.8800 0.2750
f 300/25 299/25 298/25 297/25
v -0.0300 0.9800 0.2750
v -0.0900 0.9800 0.2750
v -0.0900 0.9800 0.2250
v -0.0300 0.9800 0.2250
f 304/25 303/25 302/25 301/25
v -0.0300 0.9800 0.2250
v -0.0900 0.9800 0.2250
v -0.0900 0.8800 0.2250
v -0.0300 0.8800 0.2250
f 308/25 307/25 306/25 305/25
v -0.0300 0.8800 0.2750
v -0.0900 0.8800 0.2750
v -0.0900 0.9800 0.2750
v -0.0300 0.9800 0.2750
f 312/25 311/25 310/25 309/25
v 0.3100 1.0725 0.2800
v 0.3100 1.0875 0.2800
v 0.3100 1.0875 0.2200
v 0.3100 1.0725 0.2200
f 316/7 315/7 314/7 313/7
v -0.1100 1.0725 0.2200
v -0.1100 1.0875 0.2200
v -0.1100 1.0875 0.2800
v -0.1100 1.0725 0.2800
f 320/7 319/7 318/7 317/7
v 0.3100 1.0725 0.2200
v -0.1100 1.0725 0.2200
v -0.1100 1.0725 0.2800
v 0.3100 1.0725 0.2800
f 324/7 323/7 322/7 321/7
v 0.3100 1.0875 0.2800
v -0.1100 1.0875 0.2800
v -0.1100 1.0875 0.2200
v 0.3100 1.0875 0.2200
f 328/7 327/7 326/7 325/7
v 0.3100 1.0875 0.2200
v -0.1100 1.0875 0.2200
v -0.1100 1.0725 0.2200
v 0.3100 1.0725 0.2200
f 332/7 331/7 330/7 329/7
v 0.3100 1.0725 0.2800
v -0.1100 1.0725 0.2800
v -0.1100 1.0875 0.2800
v 0.3100 1.0875 0.2800
f 336/7 335/7 334/7 333/7
v 0.3000 1.0900 0.2750
v 0.3000 1.1900 0.2750
v 0.3000 1.1900 0.2250
v 0.3000 1.0900 0.2250
f 340/16 339/16 338/16 337/16
v 0.2400 1.0900 0.2250
v 0.2400 1.1900 0.2250
v 0.2400 1.1900 0.2750
v 0.2400 1.0900 0.2750
f 344/16 343/16 342/16 341/16
v 0.3000 1.0900 0.2250
v 0.2400 1.0900 0.2250
v 0.2400 1.0900 0.2750
v 0.3000 1.0900 0.2750
f 348/16 347/16 346/16 345/16
v 0.3000 1.1900 0.2750
v 0.2400 1.1900 0.2750
v 0.2400 1.1900 0.2250
v 0.3000 1.1900 0.2250
f 352/16 351/16 350/16 349/16
v 0.3000 1.1900 0.2250
v 0.2400 1.1900 0.2250
v 0.2400 1.0900 0.2250
v 0.3000 1.0900 0.2250
f 356/16 355/16 354/16 353/16
v 0.3000 1.0900 0.2750
v 0.2400 1.0900 0.2750
v 0.2400 1.1900 0.2750
v 0.3000 1.1900 0.2750
f 360/16 359/16 358/16 357/16
v 0.1900 1.0900 0.2750
v 0.1900 1.1900 0.2750
v 0.1900 1.1900 0.2250
v 0.1900 1.0900 0.2250
f 364/15 363/15 362/15 361/15
v 0.1300 1.0900 0.2250
v 0.1300 1.1900 0.2250
v 0.1300 1.1900 0.2750
v 0.1300 1.0900 0.2750
f 368/15 367/15 366/15 365/15
v 0.1900 1.0900 0.2250
v 0.1300 1.0900 0.2250
v 0.1300 1.0900 0.2750
v 0.1900 1.0900 0.2750
f 372/15 371/15 370/15 369/15
v 0.1900 1.1900 0.2750
v 0.1300 1.1900 0.2750
v 0.1300 1.1900 0.2250
v 0.1900 1.1900 0.2250
f 376/15 375/15 374/15 373/15
v 0.1900 1.1900 0.2250
v 0.1300 1.1900 0.2250
v 0.1300 1.0900 0.2250
v 0.1900 1.0900 0.2250
f 380/15 379/15 378/15 377/15
v 0.1900 1.0900 0.2750
v 0.1300 1.0900 0.2750
v 0.1300 1.1900 0.2750
v 0.1900 1.1900 0.2750
f 384/15 383/15 382/15 381/15
v 0.0800 1.0900 0.2750
v 0.0800 1.1900 0.2750
v 0.0800 1.1900 0.2250
v 0.0800 1.0900 0.2250
f 388/25 387/25 386/25 385/25
v 0.0200 1.0900 0.2250
v 0.0200 1.1900 0.2250
v 0.0200 1.1900 0.2750
v 0.0200 1.0900 0.2750
f 392/25 391/25 390/25 389/25
v 0.0800 1.0900 0.2250
v 0.0200 1.0900 0.2250
v 0.0200 1.0900 0.2750
v 0.0800 1.0900 0.2750
f 396/25 395/25 394/25 393/25
v 0.0800 1.1900 0.2750
v 0.0200 1.1900 0.2750
v 0.0200 1.1900 0.2250
v 0.0800 1.1900 0.2250
f 400/25 399/25 398/25 397/25
v 0.0800 1.1900 0.2250
v 0.0200 1.1900 0.2250
v 0.0200 1.0900 0.2250
v 0.0800 1.0900 0.2250
f 404/25 403/25 402/25 401/25
v 0.0800 1.0900 0.2750
v 0.0200 1.0900 0.2750
v 0.0200 1.1900 0.2750
v 0.0800 1.1900 0.2750
f 408/25 407/25 406/25 405/25
v -0.0300 1.0900 0.2750
v -0.0300 1.1900 0.2750
v -0.0300 1.1900 0.2250
v -0.0300 1.0900 0.2250
f 412/8 411/8 410/8 409/8
v -0.0900 1.0900 0.2250
v -0.0900 1.1900 0.2250
v -0.0900 1.1900 0.2750
v -0.0900 1.0900 0.2750
f 416/8 415/8 414/8 413/8
v -0.0300 1.0900 0.2250
v -0.0900 1.0900 0.2250
v -0.0900 1.0900 0.2750
v -0.0300 1.0900 0.2750
f 420/8 419/8 418/8 417/8
v -0.0300 1.1900 0.2750
v -0.0900 1.1900 0.2750
v -0.0900 1.1900 0.2250
v -0.0300 1.1900 0.2250
f 424/8 423/8 422/8 421/8
v -0.0300 1.1900 0.2250
v -0.0900 1.1900 0.2250
v -0.0900 1.0900 0.2250
v -0.0300 1.0900 0.2250
f 428/8 427/8 426/8 425/8
v -0.0300 1.0900 0.2750
v -0.0900 1.0900 0.2750
v -0.0900 1.1900 0.2750
v -0.0300 1.1900 0.2750
f 432/8 431/8 430/8 429/8
v 0.3100 1.2825 0.2800
v 0.3100 1.2975 0.2800
v 0.3100 1.2975 0.2200
v 0.3100 1.2825 0.2200
f 436/7 435/7 434/7 433/7
v -0.1100 1.2825 0.2200
v -0.1100 1.2975 0.2200
v -0.1100 1.2975 0.2800
v -0.1100 1.2825 0.2800
f 440/7 439/7 438/7 437/7
v 0.3100 1.2825 0.2200
v -0.1100 1.2825 0.2200
v -0.1100 1.2825 0.2800
v 0.3100 1.2825 0.2800
f 444/7 443/7 442/7 441/7
v 0.3100 1.2975 0.2800
v -0.1100 1.2975 0.2800
v -0.1100 1.2975 0.2200
v 0.3100 1.2975 0.2200
f 448/7 447/7 446/7 445/7
v 0.3100 1.2975 0.2200
v -0.1100 1.2975 0.2200
v -0.1100 1.2825 0.2200
v 0.3100 1.2825 0.2200
f 452/7 451/7 450/7 449/7
v 0.3100 1.2825 0.2800
v -0.1100 1.2825 0.2800
v -0.1100 1.2975 0.2800
v 0.3100 1.2975 0.2800
f 456/7 455/7 454/7 453/7
v 0.3000 1.3000 0.2750
v 0.3000 1.4000 0.2750
v 0.3000 1.4000 0.2250
v 0.3000 1.3000 0.2250
f 460/15 459/15 458/15 457/15
v 0.2400 1.3000 0.2250
v 0.2400 1.4000 0.2250
v 0.2400 1.4000 0.2750
v 0.2400 1.3000 0.2750
f 464/15 463/15 462/15 461/15
v 0.3000 1.3000 0.2250
v 0.2400 1.3000 0.2250
v 0.2400 1.3000 0.2750
v 0.3000 1.3000 0.2750
f 468/15 467/15 466/15 465/15
v 0.3000 1.4000 0.2750
v 0.2400 1.4000 0.2750
v 0.2400 1.4000 0.2250
v 0.3000 1.4000 0.2250
f 472/15 471/15 470/15 469/15
v 0.3000 1.4000 0.2250
v 0.2400 1.4000 0.2250
v 0.2400 1.3000 0.2250
v 0.3000 1.3000 0.2250
f 476/15 475/15 474/15 473/15
v 0.3000 1.3000 0.2750
v 0.2400 1.3000 0.2750
v 0.2400 1.4000 0.2750
v 0.3000 1.4000 0.2750
f 480/15 479/15 478/15 477/15
v 0.1900 1.3000 0.2750
v 0.1900 1.4000 0.2750
v 0.1900 1.4000 0.2250
v 0.1900 1.3000 0.2250
f 484/25 483/25 482/25 481/25
v 0.1300 1.3000 0.2250
v 0.1300 1.4000 0.2250
v 0.1300 1.4000 0.2750
v 0.1300 1.3000 0.2750
f 488/25 487/25 486/25 485/25
v 0.1900 1.3000 0.2250
v 0.1300 1.3000 0.2250
v 0.1300 1.3000 0.2750
v 0.1900 1.3000 0.2750
f 492/25 491/25 490/25 489/25
v 0.1900 1.4000 0.2750
v 0.1300 1.4000 0.2750
v 0.1300 1.4000 0.2250
v 0.1900 1.4000 0.2250
f 496/25 495/25 494/25 493/25
v 0.1900 1.4000 0.2250
v 0.1300 1.4000 0.2250
v 0.1300 1.3000 0.2250
v 0.1900 1.3000 0.2250
f 500/25 499/25 498/25 497/25
v 0.1900 1.3000 0.2750
v 0.1300 1.3000 0.2750
v 0.1300 1.4000 0.2750
v 0.1900 1.4000 0.2750
f 504/25 503/25 502/25 501/25
v 0.0800 1.3000 0.2750
v 0.0800 1.4000 0.2750
v 0.0800 1.4000 0.2250
v 0.0800 1.3000 0.2250
f 508/8 507/8 506/8 505/8
v 0.0200 1.3000 0.2250
v 0.0200 1.4000 0.2250
v 0.0200 1.4000 0.2750
v 0.0200 1.3000 0.2750
f 512/8 511/8 510/8 509/8
v 0.0800 1.3000 0.2250
v 0.0200 1.3000 0.2250
v 0.0200 1.3000 0.2750
v 0.0800 1.3000 0.2750
f 516/8 515/8 514/8 513/8
v 0.0800 1.4000 0.2750
v 0.0200 1.4000 0.2750
v 0.0200 1.4000 0.2250
v 0.0800 1.4000 0.2250
f 520/8 519/8 518/8 517/8
v 0.0800 1.4000 0.2250
v 0.0200 1.4000 0.2250
v 0.0200 1.3000 0.2250
v 0.0800 1.3000 0.2250
f 524/8 523/8 522/8 521/8
v 0.0800 1.3000 0.2750
v 0.0200 1.3000 0.2750
v 0.0200 1.4000 0.2750
v 0.0800 1.4000 0.2750
f 528/8 527/8 526/8 525/8
v -0.0300 1.3000 0.2750
v -0.0300 1.4000 0.2750
v -0.0300 1.4000 0.2250
v -0.0300 1.3000 0.2250
f 532/19 531/19 530/19 529/19
v -0.0900 1.3000 0.2250
v -0.0900 1.4000 0.2250
v -0.0900 1.4000 0.2750
v -0.0900 1.3000 0.2750
f 536/19 535/19 534/19 533/19
v -0.0300 1.3000 0.2250
v -0.0900 1.3000 0.2250
v -0.0900 1.3000 0.2750
v -0.0300 1.3000 0.2750
f 540/19 539/19 538/19 537/19
v -0.0300 1.4000 0.2750
v -0.0900 1.4000 0.2750
v -0.0900 1.4000 0.2250
v -0.0300 1.4000 0.2250
f 544/19 543/19 542/19 541/19
v -0.0300 1.4000 0.2250
v -0.0900 1.4000 0.2250
v -0.0900 1.3000 0.2250
v -0.0300 1.3000 0.2250
f 548/19 547/19 546/19 545/19
v -0.0300 1.3000 0.2750
v -0.0900 1.3000 0.2750
v -0.0900 1.4000 0.2750
v -0.0300 1.4000 0.2750
f 552/19 551/19 550/19 549/19
v 0.3100 1.4925 0.2800
v 0.3100 1.5075 0.2800
v 0.3100 1.5075 0.2200
v 0.3100 1.4925 0.2200
f 556/7 555/7 554/7 553/7
v -0.1100 1.4925 0.2200
v -0.1100 1.5075 0.2200
v -0.1100 1.5075 0.2800
v -0.1100 1.4925 0.2800
f 560/7 559/7 558/7 557/7
v 0.3100 1.4925 0.2200
v -0.1100 1.4925 0.2200
v -0.1100 1.4925 0.2800
v 0.3100 1.4925 0.2800
f 564/7 563/7 562/7 561/7
v 0.3100 1.5075 0.2800
v -0.1100 1.5075 0.2800
v -0.1100 1.5075 0.2200
v 0.3100 1.5075 0.2200
f 568/7 567/7 566/7 565/7
v 0.3100 1.5075 0.2200
v -0.1100 1.5075 0.2200
v -0.1100 1.4925 0.2200
v 0.3100 1.4925 0.2200
f 572/7 571/7 570/7 569/7
v 0.3100 1.4925 0.2800
v -0.1100 1.4925 0.2800
v -0.1100 1.5075 0.2800
v 0.3100 1.5075 0.2800
f 576/7 575/7 574/7 573/7
v 0.3000 1.5100 0.2750
v 0.3000 1.6100 0.2750
v 0.3000 1.6100 0.2250
v 0.3000 1.5100 0.2250
f 580/25 579/25 578/25 577/25
v 0.2400 1.5100 0.2250
v 0.2400 1.6100 0.2250
v 0.2400 1.6100 0.2750
v 0.2400 1.5100 0.2750
f 584/25 583/25 582/25 581/25
v 0.3000 1.5100 0.2250
v 0.2400 1.5100 0.2250
v 0.2400 1.5100 0.2750
v 0.3000 1.5100 0.2750
f 588/25 587/25 586/25 585/25
v 0.3000 1.6100 0.2750
v 0.2400 1.6100 0.2750
v 0.2400 1.6100 0.2250
v 0.3000 1.6100 0.2250
f 592/25 591/25 590/25 589/25
v 0.3000 1.6100 0.2250
v 0.2400 1.6100 0.2250
v 0.2400 1.5100 0.2250
v 0.3000 1.5100 0.2250
f 596/25 595/25 594/25 593/25
v 0.3000 1.5100 0.2750
v 0.2400 1.5100 0.2750
v 0.2400 1.6100 0.2750
v 0.3000 1.6100 0.2750
f 600/25 599/25 598/25 597/25
v 0.1900 1.5100 0.2750
v 0.1900 1.6100 0.2750
v 0.1900 1.6100 0.2250
v 0.1900 1.5100 0.2250
f 604/8 603/8 602/8 601/8
v 0.1300 1.5100 0.2250
v 0.1300 1.6100 0.2250
v 0.1300 1.6100 0.2750
v 0.1300 1.5100 0.2750
f 608/8 607/8 606/8 605/8
v 0.1900 1.5100 0.2250
v 0.1300 1.5100 0.2250
v 0.1300 1.5100 0.2750
v 0.1900 1.5100 0.2750
f 612/8 611/8 610/8 609/8
v 0.1900 1.6100 0.2750
v 0.1300 1.6100 0.2750
v 0.1300 1.6100 0.2250
v 0.1900 1.6100 0.2250
f 616/8 615/8 614/8 613/8
v 0.1900 1.6100 0.2250
v 0.1300 1.6100 0.2250
v 0.1300 1.5100 0.2250
v 0.1900 1.5100 0.2250
f 620/8 619/8 618/8 617/8
v 0.1900 1.5100 0.2750
v 0.1300 1.5100 0.2750
v 0.1300 1.6100 0.2750
v 0.1900 1.6100 0.2750
f 624/8 623/8 622/8 621/8
v 0.0800 1.5100 0.2750
v 0.0800 1.6100 0.2750
v 0.0800 1.6100 0.2250
v 0.0800 1.5100 0.2250
f 628/19 627/19 626/19 625/19
v 0.0200 1.5100 0.2250
v 0.0200 1.6100 0.2250
v 0.0200 1.6100 0.2750
v 0.0200 1.5100 0.2750
f 632/19 631/19 630/19 629/19
v 0.0800 1.5100 0.2250
v 0.0200 1.5100 0.2250
v 0.0200 1.5100 0.2750
v 0.0800 1.5100 0.2750
f 636/19 635/19 634/19 633/19
v 0.0800 1.6100 0.2750
v 0.0200 1.6100 0.2750
v 0.0200 1.6100 0.2250
v 0.0800 1.6100 0.2250
f 640/19 639/19 638/19 637/19
v 0.0800 1.6100 0.2250
v 0.0200 1.6100 0.2250
v 0.0200 1.5100 0.2250
v 0.0800 1.5100 0.2250
f 644/19 643/19 642/19 641/19
v 0.0800 1.5100 0.2750
v 0.0200 1.5100 0.2750
v 0.0200 1.6100 0.2750
v 0.0800 1.6100 0.2750
f 648/19 647/19 646/19 645/19
v -0.0300 1.5100 0.2750
v -0.0300 1.6100 0.2750
v -0.0300 1.6100 0.2250
v -0.0300 1.5100 0.2250
f 652/16 651/16 650/16 649/16
v -0.0900 1.5100 0.2250
v -0.0900 1.6100 0.2250
v -0.0900 1.6100 0.2750
v -0.0900 1.5100 0.2750
f 656/16 655/16 654/16 653/16
v -0.0300 1.5100 0.2250
v -0.0900 1.5100 0.2250
v -0.0900 1.5100 0.2750
v -0.0300 1.5100 0.2750
f 660/16 659/16 658/16 657/16
v -0.0300 1.6100 0.2750
v -0.0900 1.6100 0.2750
v -0.0900 1.6100 0.2250
v -0.0300 1.6100 0.2250
f 664/16 663/16 662/16 661/16
v -0.0300 1.6100 0.2250
v -0.0900 1.6100 0.2250
v -0.0900 1.5100 0.2250
v -0.0300 1.5100 0.2250
f 668/16 667/16 666/16 665/16
v -0.0300 1.5100 0.2750
v -0.0900 1.5100 0.2750
v -0.0900 1.6100 0.2750
v -0.0300 1.6100 0.2750
f 672/16 671/16 670/16 669/16
v -0.1700 1.1400 0.2820
v -0.1700 1.3600 0.2820
v -0.1700 1.3600 0.2620
v -0.1700 1.1400 0.2620
f 676/6 675/6 674/6 673/6
v -0.3100 1.1400 0.2620
v -0.3100 1.3600 0.2620
v -0.3100 1.3600 0.2820
v -0.3100 1.1400 0.2820
f 680/6 679/6 678/6 677/6
v -0.1700 1.1400 0.2620
v -0.3100 1.1400 0.2620
v -0.3100 1.1400 0.2820
v -0.1700 1.1400 0.2820
f 684/6 683/6 682/6 681/6
v -0.1700 1.3600 0.2820
v -0.3100 1.3600 0.2820
v -0.3100 1.3600 0.2620
v -0.1700 1.3600 0.2620
f 688/6 687/6 686/6 685/6
v -0.1700 1.3600 0.2620
v -0.3100 1.3600 0.2620
v -0.3100 1.1400 0.2620
v -0.1700 1.1400 0.2620
f 692/6 691/6 690/6 689/6
v -0.1700 1.1400 0.2820
v -0.3100 1.1400 0.2820
v -0.3100 1.3600 0.2820
v -0.1700 1.3600 0.2820
f 696/6 695/6 694/6 693/6
v -0.2000 0.9800 0.2850
v -0.2000 1.0200 0.2850
v -0.2000 1.0200 0.2650
v -0.2000 0.9800 0.2650
f 700/7 699/7 698/7 697/7
v -0.2800 0.9800 0.2650
v -0.2800 1.0200 0.2650
v -0.2800 1.0200 0.2850
v -0.2800 0.9800 0.2850
f 704/7 703/7 702/7 701/7
v -0.2000 0.9800 0.2650
v -0.2800 0.9800 0.2650
v -0.2800 0.9800 0.2850
v -0.2000 0.9800 0.2850
f 708/7 707/7 706/7 705/7
v -0.2000 1.0200 0.2850
v -0.2800 1.0200 0.2850
v -0.2800 1.0200 0.2650
v -0.2000 1.0200 0.2650
f 712/7 711/7 710/7 709/7
v -0.2000 1.0200 0.2650
v -0.2800 1.0200 0.2650
v -0.2800 0.9800 0.2650
v -0.2000 0.9800 0.2650
f 716/7 715/7 714/7 713/7
v -0.2000 0.9800 0.2850
v -0.2800 0.9800 0.2850
v -0.2800 1.0200 0.2850
v -0.2000 1.0200 0.2850
f 720/7 719/7 718/7 717/7
v -0.2000 0.9000 0.2850
v -0.2000 0.9400 0.2850
v -0.2000 0.9400 0.2650
v -0.2000 0.9000 0.2650
f 724/7 723/7 722/7 721/7
v -0.2800 0.9000 0.2650
v -0.2800 0.9400 0.2650
v -0.2800 0.9400 0.2850
v -0.2800 0.9000 0.2850
f 728/7 727/7 726/7 725/7
v -0.2000 0.9000 0.2650
v -0.2800 0.9000 0.2650
v -0.2800 0.9000 0.2850
v -0.2000 0.9000 0.2850
f 732/7 731/7 730/7 729/7
v -0.2000 0.9400 0.2850
v -0.2800 0.9400 0.2850
v -0.2800 0.9400 0.2650
v -0.2000 0.9400 0.2650
f 736/7 735/7 734/7 733/7
v -0.2000 0.9400 0.2650
v -0.2800 0.9400 0.2650
v -0.2800 0.9000 0.2650
v -0.2000 0.9000 0.2650
f 740/7 739/7 738/7 737/7
v -0.2000 0.9000 0.2850
v -0.2800 0.9000 0.2850
v -0.2800 0.9400 0.2850
v -0.2000 0.9400 0.2850
f 744/7 743/7 742/7 741/7
v -0.2000 0.8200 0.2850
v -0.2000 0.8600 0.2850
v -0.2000 0.8600 0.2650
v -0.2000 0.8200 0.2650
f 748/7 747/7 746/7 745/7
v -0.2800 0.8200 0.2650
v -0.2800 0.8600 0.2650
v -0.2800 0.8600 0.2850
v -0.2800 0.8200 0.2850
f 752/7 751/7 750/7 749/7
v -0.2000 0.8200 0.2650
v -0.2800 0.8200 0.2650
v -0.2800 0.8200 0.2850
v -0.2000 0.8200 0.2850
f 756/7 755/7 754/7 753/7
v -0.2000 0.8600 0.2850
v -0.2800 0.8600 0.2850
v -0.2800 0.8600 0.2650
v -0.2000 0.8600 0.2650
f 760/7 759/7 758/7 757/7
v -0.2000 0.8600 0.2650
v -0.2800 0.8600 0.2650
v -0.2800 0.8200 0.2650
v -0.2000 0.8200 0.2650
f 764/7 763/7 762/7 761/7
v -0.2000 0.8200 0.2850
v -0.2800 0.8200 0.2850
v -0.2800 0.8600 0.2850
v -0.2000 0.8600 0.2850
f 768/7 767/7 766/7 765/7
v 0.3000 0.3000 0.2900
v 0.3000 0.4600 0.2900
v 0.3000 0.4600 0.2500
v 0.3000 0.3000 0.2500
f 772/6 771/6 770/6 769/6
v -0.2000 0.3000 0.2500
v -0.2000 0.4600 0.2500
v -0.2000 0.4600 0.2900
v -0.2000 0.3000 0.2900
f 776/6 775/6 774/6 773/6
v 0.3000 0.3000 0.2500
v -0.2000 0.3000 0.2500
v -0.2000 0.3000 0.2900
v 0.3000 0.3000 0.2900
f 780/6 779/6 778/6 777/6
v 0.3000 0.4600 0.2900
v -0.2000 0.4600 0.2900
v -0.2000 0.4600 0.2500
v 0.3000 0.4600 0.2500
f 784/6 783/6 782/6 781/6
v 0.3000 0.4600 0.2500
v -0.2000 0.4600 0.2500
v -0.2000 0.3000 0.2500
v 0.3000 0.3000 0.2500
f 788/6 787/6 786/6 785/6
v 0.3000 0.3000 0.2900
v -0.2000 0.3000 0.2900
v -0.2000 0.4600 0.2900
v 0.3000 0.4600 0.2900
f 792/6 791/6 790/6 789/6
v 0.3800 1.8400 0.2900
v 0.3800 1.8800 0.2900
v 0.3800 1.8800 -0.3300
v 0.3800 1.8400 -0.3300
f 796/6 795/6 794/6 793/6
v -0.3800 1.8400 -0.3300
v -0.3800 1.8800 -0.3300
v -0.3800 1.8800 0.2900
v -0.3800 1.8400 0.2900
f 800/6 799/6 798/6 797/6
v 0.3800 1.8400 -0.3300
v -0.3800 1.8400 -0.3300
v -0.3800 1.8400 0.2900
v 0.3800 1.8400 0.2900
f 804/6 803/6 802/6 801/6
v 0.3800 1.8800 0.2900
v -0.3800 1.8800 0.2900
v -0.3800 1.8800 -0.3300
v 0.3800 1.8800 -0.3300
f 808/6 807/6 806/6 805/6
v 0.3800 1.8800 -0.3300
v -0.3800 1.8800 -0.3300
v -0.3800 1.8400 -0.3300
v 0.3800 1.8400 -0.3300
f 812/6 811/6 810/6 809/6
v 0.3800 1.8400 0.2900
v -0.3800 1.8400 0.2900
v -0.3800 1.8800 0.2900
v 0.3800 1.8800 0.2900
f 816/6 815/6 814/6 813/6
o Lamp
usemtl wi_palette
v 0.3300 1.8300 0.2850
v 0.3300 1.9300 0.2850
v 0.3300 1.9300 0.2550
v 0.3300 1.8300 0.2550
f 820/31 819/31 818/31 817/31
v -0.3300 1.8300 0.2550
v -0.3300 1.9300 0.2550
v -0.3300 1.9300 0.2850
v -0.3300 1.8300 0.2850
f 824/31 823/31 822/31 821/31
v 0.3300 1.8300 0.2550
v -0.3300 1.8300 0.2550
v -0.3300 1.8300 0.2850
v 0.3300 1.8300 0.2850
f 828/31 827/31 826/31 825/31
v 0.3300 1.9300 0.2850
v -0.3300 1.9300 0.2850
v -0.3300 1.9300 0.2550
v 0.3300 1.9300 0.2550
f 832/31 831/31 830/31 829/31
v 0.3300 1.9300 0.2550
v -0.3300 1.9300 0.2550
v -0.3300 1.8300 0.2550
v 0.3300 1.8300 0.2550
f 836/31 835/31 834/31 833/31
v 0.3300 1.8300 0.2850
v -0.3300 1.8300 0.2850
v -0.3300 1.9300 0.2850
v 0.3300 1.9300 0.2850
f 840/31 839/31 838/31 837/31
