# Walk of Industry low-poly (generated, wi_lib.py)
mtllib wi.mtl
vt 0 0
vt 0.03125 0.03125
vt 0.09375 0.03125
vt 0.15625 0.03125
vt 0.21875 0.03125
vt 0.28125 0.03125
vt 0.34375 0.03125
vt 0.40625 0.03125
vt 0.46875 0.03125
vt 0.53125 0.03125
vt 0.59375 0.03125
vt 0.65625 0.03125
vt 0.71875 0.03125
vt 0.78125 0.03125
vt 0.84375 0.03125
vt 0.90625 0.03125
vt 0.96875 0.03125
vt 0.03125 0.09375
vt 0.09375 0.09375
vt 0.15625 0.09375
vt 0.21875 0.09375
vt 0.28125 0.09375
vt 0.34375 0.09375
vt 0.40625 0.09375
vt 0.46875 0.09375
vt 0.53125 0.09375
vt 0.59375 0.09375
vt 0.65625 0.09375
vt 0.71875 0.09375
vt 0.78125 0.09375
vt 0.84375 0.09375
vt 0.90625 0.09375
vt 0.96875 0.09375
o Body
usemtl wi_palette
v 0.9000 0.0000 0.7000
v 0.9000 0.2000 0.7000
v 0.9000 0.2000 -0.7000
v 0.9000 0.0000 -0.7000
f 4/11 3/11 2/11 1/11
v -0.9000 0.0000 -0.7000
v -0.9000 0.2000 -0.7000
v -0.9000 0.2000 0.7000
v -0.9000 0.0000 0.7000
f 8/11 7/11 6/11 5/11
v 0.9000 0.0000 -0.7000
v -0.9000 0.0000 -0.7000
v -0.9000 0.0000 0.7000
v 0.9000 0.0000 0.7000
f 12/11 11/11 10/11 9/11
v 0.9000 0.2000 0.7000
v -0.9000 0.2000 0.7000
v -0.9000 0.2000 -0.7000
v 0.9000 0.2000 -0.7000
f 16/11 15/11 14/11 13/11
v 0.9000 0.2000 -0.7000
v -0.9000 0.2000 -0.7000
v -0.9000 0.0000 -0.7000
v 0.9000 0.0000 -0.7000
f 20/11 19/11 18/11 17/11
v 0.9000 0.0000 0.7000
v -0.9000 0.0000 0.7000
v -0.9000 0.2000 0.7000
v 0.9000 0.2000 0.7000
f 24/11 23/11 22/11 21/11
v 0.7000 0.2000 0.5000
v 0.7000 0.5000 0.5000
v 0.7000 0.5000 -0.5000
v 0.7000 0.2000 -0.5000
f 28/11 27/11 26/11 25/11
v -0.7000 0.2000 -0.5000
v -0.7000 0.5000 -0.5000
v -0.7000 0.5000 0.5000
v -0.7000 0.2000 0.5000
f 32/11 31/11 30/11 29/11
v 0.7000 0.2000 -0.5000
v -0.7000 0.2000 -0.5000
v -0.7000 0.2000 0.5000
v 0.7000 0.2000 0.5000
f 36/11 35/11 34/11 33/11
v 0.7000 0.5000 0.5000
v -0.7000 0.5000 0.5000
v -0.7000 0.5000 -0.5000
v 0.7000 0.5000 -0.5000
f 40/11 39/11 38/11 37/11
v 0.7000 0.5000 -0.5000
v -0.7000 0.5000 -0.5000
v -0.7000 0.2000 -0.5000
v 0.7000 0.2000 -0.5000
f 44/11 43/11 42/11 41/11
v 0.7000 0.2000 0.5000
v -0.7000 0.2000 0.5000
v -0.7000 0.5000 0.5000
v 0.7000 0.5000 0.5000
f 48/11 47/11 46/11 45/11
v 0.3000 0.5000 0.2500
v 0.3000 0.7400 0.2500
v 0.3000 0.7400 -0.2500
v 0.3000 0.5000 -0.2500
f 52/6 51/6 50/6 49/6
v -0.3000 0.5000 -0.2500
v -0.3000 0.7400 -0.2500
v -0.3000 0.7400 0.2500
v -0.3000 0.5000 0.2500
f 56/6 55/6 54/6 53/6
v 0.3000 0.5000 -0.2500
v -0.3000 0.5000 -0.2500
v -0.3000 0.5000 0.2500
v 0.3000 0.5000 0.2500
f 60/6 59/6 58/6 57/6
v 0.3000 0.7400 0.2500
v -0.3000 0.7400 0.2500
v -0.3000 0.7400 -0.2500
v 0.3000 0.7400 -0.2500
f 64/6 63/6 62/6 61/6
v 0.3000 0.7400 -0.2500
v -0.3000 0.7400 -0.2500
v -0.3000 0.5000 -0.2500
v 0.3000 0.5000 -0.2500
f 68/6 67/6 66/6 65/6
v 0.3000 0.5000 0.2500
v -0.3000 0.5000 0.2500
v -0.3000 0.7400 0.2500
v 0.3000 0.7400 0.2500
f 72/6 71/6 70/6 69/6
v 0.3500 0.2600 0.5100
v 0.3500 0.4400 0.5100
v 0.3500 0.4400 0.5000
v 0.3500 0.2600 0.5000
f 76/23 75/23 74/23 73/23
v -0.3500 0.2600 0.5000
v -0.3500 0.4400 0.5000
v -0.3500 0.4400 0.5100
v -0.3500 0.2600 0.5100
f 80/23 79/23 78/23 77/23
v 0.3500 0.2600 0.5000
v -0.3500 0.2600 0.5000
v -0.3500 0.2600 0.5100
v 0.3500 0.2600 0.5100
f 84/23 83/23 82/23 81/23
v 0.3500 0.4400 0.5100
v -0.3500 0.4400 0.5100
v -0.3500 0.4400 0.5000
v 0.3500 0.4400 0.5000
f 88/23 87/23 86/23 85/23
v 0.3500 0.4400 0.5000
v -0.3500 0.4400 0.5000
v -0.3500 0.2600 0.5000
v 0.3500 0.2600 0.5000
f 92/23 91/23 90/23 89/23
v 0.3500 0.2600 0.5100
v -0.3500 0.2600 0.5100
v -0.3500 0.4400 0.5100
v 0.3500 0.4400 0.5100
f 96/23 95/23 94/23 93/23
v 0.0900 0.6000 0.0900
v 0.0900 0.9000 0.0900
v 0.0900 0.9000 -0.0900
v 0.0900 0.6000 -0.0900
f 100/7 99/7 98/7 97/7
v -0.0900 0.6000 -0.0900
v -0.0900 0.9000 -0.0900
v -0.0900 0.9000 0.0900
v -0.0900 0.6000 0.0900
f 104/7 103/7 102/7 101/7
v 0.0900 0.6000 -0.0900
v -0.0900 0.6000 -0.0900
v -0.0900 0.6000 0.0900
v 0.0900 0.6000 0.0900
f 108/7 107/7 106/7 105/7
v 0.0900 0.9000 0.0900
v -0.0900 0.9000 0.0900
v -0.0900 0.9000 -0.0900
v 0.0900 0.9000 -0.0900
f 112/7 111/7 110/7 109/7
v 0.0900 0.9000 -0.0900
v -0.0900 0.9000 -0.0900
v -0.0900 0.6000 -0.0900
v 0.0900 0.6000 -0.0900
f 116/7 115/7 114/7 113/7
v 0.0900 0.6000 0.0900
v -0.0900 0.6000 0.0900
v -0.0900 0.9000 0.0900
v 0.0900 0.9000 0.0900
f 120/7 119/7 118/7 117/7
v 0.8500 0.2300 0.6500
v 0.8500 0.3300 0.6500
v 0.8500 0.3300 0.5500
v 0.8500 0.2300 0.5500
f 124/31 123/31 122/31 121/31
v 0.7500 0.2300 0.5500
v 0.7500 0.3300 0.5500
v 0.7500 0.3300 0.6500
v 0.7500 0.2300 0.6500
f 128/31 127/31 126/31 125/31
v 0.8500 0.2300 0.5500
v 0.7500 0.2300 0.5500
v 0.7500 0.2300 0.6500
v 0.8500 0.2300 0.6500
f 132/31 131/31 130/31 129/31
v 0.8500 0.3300 0.6500
v 0.7500 0.3300 0.6500
v 0.7500 0.3300 0.5500
v 0.8500 0.3300 0.5500
f 136/31 135/31 134/31 133/31
v 0.8500 0.3300 0.5500
v 0.7500 0.3300 0.5500
v 0.7500 0.2300 0.5500
v 0.8500 0.2300 0.5500
f 140/31 139/31 138/31 137/31
v 0.8500 0.2300 0.6500
v 0.7500 0.2300 0.6500
v 0.7500 0.3300 0.6500
v 0.8500 0.3300 0.6500
f 144/31 143/31 142/31 141/31
v -0.7500 0.2300 0.6500
v -0.7500 0.3300 0.6500
v -0.7500 0.3300 0.5500
v -0.7500 0.2300 0.5500
f 148/31 147/31 146/31 145/31
v -0.8500 0.2300 0.5500
v -0.8500 0.3300 0.5500
v -0.8500 0.3300 0.6500
v -0.8500 0.2300 0.6500
f 152/31 151/31 150/31 149/31
v -0.7500 0.2300 0.5500
v -0.8500 0.2300 0.5500
v -0.8500 0.2300 0.6500
v -0.7500 0.2300 0.6500
f 156/31 155/31 154/31 153/31
v -0.7500 0.3300 0.6500
v -0.8500 0.3300 0.6500
v -0.8500 0.3300 0.5500
v -0.7500 0.3300 0.5500
f 160/31 159/31 158/31 157/31
v -0.7500 0.3300 0.5500
v -0.8500 0.3300 0.5500
v -0.8500 0.2300 0.5500
v -0.7500 0.2300 0.5500
f 164/31 163/31 162/31 161/31
v -0.7500 0.2300 0.6500
v -0.8500 0.2300 0.6500
v -0.8500 0.3300 0.6500
v -0.7500 0.3300 0.6500
f 168/31 167/31 166/31 165/31
