# Walk of Industry low-poly (generated, wi_lib.py)
mtllib wi.mtl
vt 0 0
vt 0.03125 0.03125
vt 0.09375 0.03125
vt 0.15625 0.03125
vt 0.21875 0.03125
vt 0.28125 0.03125
vt 0.34375 0.03125
vt 0.40625 0.03125
vt 0.46875 0.03125
vt 0.53125 0.03125
vt 0.59375 0.03125
vt 0.65625 0.03125
vt 0.71875 0.03125
vt 0.78125 0.03125
vt 0.84375 0.03125
vt 0.90625 0.03125
vt 0.96875 0.03125
vt 0.03125 0.09375
vt 0.09375 0.09375
vt 0.15625 0.09375
vt 0.21875 0.09375
vt 0.28125 0.09375
vt 0.34375 0.09375
vt 0.40625 0.09375
vt 0.46875 0.09375
vt 0.53125 0.09375
vt 0.59375 0.09375
vt 0.65625 0.09375
vt 0.71875 0.09375
vt 0.78125 0.09375
vt 0.84375 0.09375
vt 0.90625 0.09375
vt 0.96875 0.09375
o Body
usemtl wi_palette
v -0.0989 -0.1000 0.3043
v -0.2589 -0.1000 0.1881
v -0.2589 0.0200 0.1881
v -0.0989 0.0200 0.3043
f 4/6 3/6 2/6 1/6
v -0.2589 -0.1000 0.1881
v -0.3200 -0.1000 0.0000
v -0.3200 0.0200 0.0000
v -0.2589 0.0200 0.1881
f 8/6 7/6 6/6 5/6
v -0.3200 -0.1000 0.0000
v -0.2589 -0.1000 -0.1881
v -0.2589 0.0200 -0.1881
v -0.3200 0.0200 0.0000
f 12/6 11/6 10/6 9/6
v -0.2589 -0.1000 -0.1881
v -0.0989 -0.1000 -0.3043
v -0.0989 0.0200 -0.3043
v -0.2589 0.0200 -0.1881
f 16/6 15/6 14/6 13/6
v -0.0989 -0.1000 -0.3043
v 0.0989 -0.1000 -0.3043
v 0.0989 0.0200 -0.3043
v -0.0989 0.0200 -0.3043
f 20/6 19/6 18/6 17/6
v 0.0989 -0.1000 -0.3043
v 0.2589 -0.1000 -0.1881
v 0.2589 0.0200 -0.1881
v 0.0989 0.0200 -0.3043
f 24/6 23/6 22/6 21/6
v 0.2589 -0.1000 -0.1881
v 0.3200 -0.1000 -0.0000
v 0.3200 0.0200 -0.0000
v 0.2589 0.0200 -0.1881
f 28/6 27/6 26/6 25/6
v 0.3200 -0.1000 -0.0000
v 0.2589 -0.1000 0.1881
v 0.2589 0.0200 0.1881
v 0.3200 0.0200 -0.0000
f 32/6 31/6 30/6 29/6
v 0.2589 -0.1000 0.1881
v 0.0989 -0.1000 0.3043
v 0.0989 0.0200 0.3043
v 0.2589 0.0200 0.1881
f 36/6 35/6 34/6 33/6
v 0.0989 -0.1000 0.3043
v -0.0989 -0.1000 0.3043
v -0.0989 0.0200 0.3043
v 0.0989 0.0200 0.3043
f 40/6 39/6 38/6 37/6
v 0.0989 -0.1000 0.3043
v 0.2589 -0.1000 0.1881
v 0.3200 -0.1000 -0.0000
v 0.2589 -0.1000 -0.1881
v 0.0989 -0.1000 -0.3043
v -0.0989 -0.1000 -0.3043
v -0.2589 -0.1000 -0.1881
v -0.3200 -0.1000 0.0000
v -0.2589 -0.1000 0.1881
v -0.0989 -0.1000 0.3043
f 50/6 49/6 48/6 47/6 46/6 45/6 44/6 43/6 42/6 41/6
v -0.0989 0.0200 0.3043
v -0.2589 0.0200 0.1881
v -0.3200 0.0200 0.0000
v -0.2589 0.0200 -0.1881
v -0.0989 0.0200 -0.3043
v 0.0989 0.0200 -0.3043
v 0.2589 0.0200 -0.1881
v 0.3200 0.0200 -0.0000
v 0.2589 0.0200 0.1881
v 0.0989 0.0200 0.3043
f 60/6 59/6 58/6 57/6 56/6 55/6 54/6 53/6 52/6 51/6
v -0.1300 -0.0000 0.3600
v -0.1300 0.4000 0.3600
v -0.1300 0.4000 -0.0600
v -0.1300 -0.0000 -0.0600
f 64/8 63/8 62/8 61/8
v -0.5100 -0.0000 -0.0600
v -0.5100 0.4000 -0.0600
v -0.5100 0.4000 0.3600
v -0.5100 -0.0000 0.3600
f 68/8 67/8 66/8 65/8
v -0.1300 -0.0000 -0.0600
v -0.5100 -0.0000 -0.0600
v -0.5100 -0.0000 0.3600
v -0.1300 -0.0000 0.3600
f 72/8 71/8 70/8 69/8
v -0.1300 0.4000 0.3600
v -0.5100 0.4000 0.3600
v -0.5100 0.4000 -0.0600
v -0.1300 0.4000 -0.0600
f 76/8 75/8 74/8 73/8
v -0.1300 0.4000 -0.0600
v -0.5100 0.4000 -0.0600
v -0.5100 -0.0000 -0.0600
v -0.1300 -0.0000 -0.0600
f 80/8 79/8 78/8 77/8
v -0.1300 -0.0000 0.3600
v -0.5100 -0.0000 0.3600
v -0.5100 0.4000 0.3600
v -0.1300 0.4000 0.3600
f 84/8 83/8 82/8 81/8
v -0.1700 0.1500 0.3800
v -0.1700 0.3500 0.3800
v -0.1700 0.3500 0.3600
v -0.1700 0.1500 0.3600
f 88/12 87/12 86/12 85/12
v -0.4700 0.1500 0.3600
v -0.4700 0.3500 0.3600
v -0.4700 0.3500 0.3800
v -0.4700 0.1500 0.3800
f 92/12 91/12 90/12 89/12
v -0.1700 0.1500 0.3600
v -0.4700 0.1500 0.3600
v -0.4700 0.1500 0.3800
v -0.1700 0.1500 0.3800
f 96/12 95/12 94/12 93/12
v -0.1700 0.3500 0.3800
v -0.4700 0.3500 0.3800
v -0.4700 0.3500 0.3600
v -0.1700 0.3500 0.3600
f 100/12 99/12 98/12 97/12
v -0.1700 0.3500 0.3600
v -0.4700 0.3500 0.3600
v -0.4700 0.1500 0.3600
v -0.1700 0.1500 0.3600
f 104/12 103/12 102/12 101/12
v -0.1700 0.1500 0.3800
v -0.4700 0.1500 0.3800
v -0.4700 0.3500 0.3800
v -0.1700 0.3500 0.3800
f 108/12 107/12 106/12 105/12
v 0.1800 0.0200 3.8000
v 0.1800 0.0800 3.8000
v 0.1800 0.0800 -1.4000
v 0.1800 0.0200 -1.4000
f 112/8 111/8 110/8 109/8
v 0.1200 0.0200 -1.4000
v 0.1200 0.0800 -1.4000
v 0.1200 0.0800 3.8000
v 0.1200 0.0200 3.8000
f 116/8 115/8 114/8 113/8
v 0.1800 0.0200 -1.4000
v 0.1200 0.0200 -1.4000
v 0.1200 0.0200 3.8000
v 0.1800 0.0200 3.8000
f 120/8 119/8 118/8 117/8
v 0.1800 0.0800 3.8000
v 0.1200 0.0800 3.8000
v 0.1200 0.0800 -1.4000
v 0.1800 0.0800 -1.4000
f 124/8 123/8 122/8 121/8
v 0.1800 0.0800 -1.4000
v 0.1200 0.0800 -1.4000
v 0.1200 0.0200 -1.4000
v 0.1800 0.0200 -1.4000
f 128/8 127/8 126/8 125/8
v 0.1800 0.0200 3.8000
v 0.1200 0.0200 3.8000
v 0.1200 0.0800 3.8000
v 0.1800 0.0800 3.8000
f 132/8 131/8 130/8 129/8
v -0.1200 0.0200 3.8000
v -0.1200 0.0800 3.8000
v -0.1200 0.0800 -1.4000
v -0.1200 0.0200 -1.4000
f 136/8 135/8 134/8 133/8
v -0.1800 0.0200 -1.4000
v -0.1800 0.0800 -1.4000
v -0.1800 0.0800 3.8000
v -0.1800 0.0200 3.8000
f 140/8 139/8 138/8 137/8
v -0.1200 0.0200 -1.4000
v -0.1800 0.0200 -1.4000
v -0.1800 0.0200 3.8000
v -0.1200 0.0200 3.8000
f 144/8 143/8 142/8 141/8
v -0.1200 0.0800 3.8000
v -0.1800 0.0800 3.8000
v -0.1800 0.0800 -1.4000
v -0.1200 0.0800 -1.4000
f 148/8 147/8 146/8 145/8
v -0.1200 0.0800 -1.4000
v -0.1800 0.0800 -1.4000
v -0.1800 0.0200 -1.4000
v -0.1200 0.0200 -1.4000
f 152/8 151/8 150/8 149/8
v -0.1200 0.0200 3.8000
v -0.1800 0.0200 3.8000
v -0.1800 0.0800 3.8000
v -0.1200 0.0800 3.8000
f 156/8 155/8 154/8 153/8
v 0.0250 0.3250 3.6000
v 0.0250 0.3750 3.6000
v 0.0250 0.3750 0.2000
v 0.0250 0.3250 0.2000
f 160/8 159/8 158/8 157/8
v -0.0250 0.3250 0.2000
v -0.0250 0.3750 0.2000
v -0.0250 0.3750 3.6000
v -0.0250 0.3250 3.6000
f 164/8 163/8 162/8 161/8
v 0.0250 0.3250 0.2000
v -0.0250 0.3250 0.2000
v -0.0250 0.3250 3.6000
v 0.0250 0.3250 3.6000
f 168/8 167/8 166/8 165/8
v 0.0250 0.3750 3.6000
v -0.0250 0.3750 3.6000
v -0.0250 0.3750 0.2000
v 0.0250 0.3750 0.2000
f 172/8 171/8 170/8 169/8
v 0.0250 0.3750 0.2000
v -0.0250 0.3750 0.2000
v -0.0250 0.3250 0.2000
v 0.0250 0.3250 0.2000
f 176/8 175/8 174/8 173/8
v 0.0250 0.3250 3.6000
v -0.0250 0.3250 3.6000
v -0.0250 0.3750 3.6000
v 0.0250 0.3750 3.6000
f 180/8 179/8 178/8 177/8
v 0.0016 0.3428 0.3661
v 0.0161 0.3572 0.3516
v 0.1661 0.0572 0.2016
v 0.1516 0.0428 0.2161
f 184/8 183/8 182/8 181/8
v 0.1339 0.0428 0.1984
v 0.1484 0.0572 0.1839
v -0.0016 0.3572 0.3339
v -0.0161 0.3428 0.3484
f 188/8 187/8 186/8 185/8
v 0.1516 0.0428 0.2161
v 0.1339 0.0428 0.1984
v -0.0161 0.3428 0.3484
v 0.0016 0.3428 0.3661
f 192/8 191/8 190/8 189/8
v 0.0161 0.3572 0.3516
v -0.0016 0.3572 0.3339
v 0.1484 0.0572 0.1839
v 0.1661 0.0572 0.2016
f 196/8 195/8 194/8 193/8
v 0.1661 0.0572 0.2016
v 0.1484 0.0572 0.1839
v 0.1339 0.0428 0.1984
v 0.1516 0.0428 0.2161
f 200/8 199/8 198/8 197/8
v 0.0016 0.3428 0.3661
v -0.0161 0.3428 0.3484
v -0.0016 0.3572 0.3339
v 0.0161 0.3572 0.3516
f 204/8 203/8 202/8 201/8
v 0.0161 0.3428 0.3484
v 0.0016 0.3572 0.3339
v -0.1484 0.0572 0.1839
v -0.1339 0.0428 0.1984
f 208/8 207/8 206/8 205/8
v -0.1516 0.0428 0.2161
v -0.1661 0.0572 0.2016
v -0.0161 0.3572 0.3516
v -0.0016 0.3428 0.3661
f 212/8 211/8 210/8 209/8
v -0.1339 0.0428 0.1984
v -0.1516 0.0428 0.2161
v -0.0016 0.3428 0.3661
v 0.0161 0.3428 0.3484
f 216/8 215/8 214/8 213/8
v 0.0016 0.3572 0.3339
v -0.0161 0.3572 0.3516
v -0.1661 0.0572 0.2016
v -0.1484 0.0572 0.1839
f 220/8 219/8 218/8 217/8
v -0.1484 0.0572 0.1839
v -0.1661 0.0572 0.2016
v -0.1516 0.0428 0.2161
v -0.1339 0.0428 0.1984
f 224/8 223/8 222/8 221/8
v 0.0161 0.3428 0.3484
v -0.0016 0.3428 0.3661
v -0.0161 0.3572 0.3516
v 0.0016 0.3572 0.3339
f 228/8 227/8 226/8 225/8
v 0.0016 0.3428 0.6661
v 0.0161 0.3572 0.6516
v 0.1661 0.0572 0.5016
v 0.1516 0.0428 0.5161
f 232/8 231/8 230/8 229/8
v 0.1339 0.0428 0.4984
v 0.1484 0.0572 0.4839
v -0.0016 0.3572 0.6339
v -0.0161 0.3428 0.6484
f 236/8 235/8 234/8 233/8
v 0.1516 0.0428 0.5161
v 0.1339 0.0428 0.4984
v -0.0161 0.3428 0.6484
v 0.0016 0.3428 0.6661
f 240/8 239/8 238/8 237/8
v 0.0161 0.3572 0.6516
v -0.0016 0.3572 0.6339
v 0.1484 0.0572 0.4839
v 0.1661 0.0572 0.5016
f 244/8 243/8 242/8 241/8
v 0.1661 0.0572 0.5016
v 0.1484 0.0572 0.4839
v 0.1339 0.0428 0.4984
v 0.1516 0.0428 0.5161
f 248/8 247/8 246/8 245/8
v 0.0016 0.3428 0.6661
v -0.0161 0.3428 0.6484
v -0.0016 0.3572 0.6339
v 0.0161 0.3572 0.6516
f 252/8 251/8 250/8 249/8
v 0.0161 0.3428 0.6484
v 0.0016 0.3572 0.6339
v -0.1484 0.0572 0.4839
v -0.1339 0.0428 0.4984
f 256/8 255/8 254/8 253/8
v -0.1516 0.0428 0.5161
v -0.1661 0.0572 0.5016
v -0.0161 0.3572 0.6516
v -0.0016 0.3428 0.6661
f 260/8 259/8 258/8 257/8
v -0.1339 0.0428 0.4984
v -0.1516 0.0428 0.5161
v -0.0016 0.3428 0.6661
v 0.0161 0.3428 0.6484
f 264/8 263/8 262/8 261/8
v 0.0016 0.3572 0.6339
v -0.0161 0.3572 0.6516
v -0.1661 0.0572 0.5016
v -0.1484 0.0572 0.4839
f 268/8 267/8 266/8 265/8
v -0.1484 0.0572 0.4839
v -0.1661 0.0572 0.5016
v -0.1516 0.0428 0.5161
v -0.1339 0.0428 0.4984
f 272/8 271/8 270/8 269/8
v 0.0161 0.3428 0.6484
v -0.0016 0.3428 0.6661
v -0.0161 0.3572 0.6516
v 0.0016 0.3572 0.6339
f 276/8 275/8 274/8 273/8
v 0.0016 0.3428 0.9661
v 0.0161 0.3572 0.9516
v 0.1661 0.0572 0.8016
v 0.1516 0.0428 0.8161
f 280/8 279/8 278/8 277/8
v 0.1339 0.0428 0.7984
v 0.1484 0.0572 0.7839
v -0.0016 0.3572 0.9339
v -0.0161 0.3428 0.9484
f 284/8 283/8 282/8 281/8
v 0.1516 0.0428 0.8161
v 0.1339 0.0428 0.7984
v -0.0161 0.3428 0.9484
v 0.0016 0.3428 0.9661
f 288/8 287/8 286/8 285/8
v 0.0161 0.3572 0.9516
v -0.0016 0.3572 0.9339
v 0.1484 0.0572 0.7839
v 0.1661 0.0572 0.8016
f 292/8 291/8 290/8 289/8
v 0.1661 0.0572 0.8016
v 0.1484 0.0572 0.7839
v 0.1339 0.0428 0.7984
v 0.1516 0.0428 0.8161
f 296/8 295/8 294/8 293/8
v 0.0016 0.3428 0.9661
v -0.0161 0.3428 0.9484
v -0.0016 0.3572 0.9339
v 0.0161 0.3572 0.9516
f 300/8 299/8 298/8 297/8
v 0.0161 0.3428 0.9484
v 0.0016 0.3572 0.9339
v -0.1484 0.0572 0.7839
v -0.1339 0.0428 0.7984
f 304/8 303/8 302/8 301/8
v -0.1516 0.0428 0.8161
v -0.1661 0.0572 0.8016
v -0.0161 0.3572 0.9516
v -0.0016 0.3428 0.9661
f 308/8 307/8 306/8 305/8
v -0.1339 0.0428 0.7984
v -0.1516 0.0428 0.8161
v -0.0016 0.3428 0.9661
v 0.0161 0.3428 0.9484
f 312/8 311/8 310/8 309/8
v 0.0016 0.3572 0.9339
v -0.0161 0.3572 0.9516
v -0.1661 0.0572 0.8016
v -0.1484 0.0572 0.7839
f 316/8 315/8 314/8 313/8
v -0.1484 0.0572 0.7839
v -0.1661 0.0572 0.8016
v -0.1516 0.0428 0.8161
v -0.1339 0.0428 0.7984
f 320/8 319/8 318/8 317/8
v 0.0161 0.3428 0.9484
v -0.0016 0.3428 0.9661
v -0.0161 0.3572 0.9516
v 0.0016 0.3572 0.9339
f 324/8 323/8 322/8 321/8
v 0.0016 0.3428 1.2661
v 0.0161 0.3572 1.2516
v 0.1661 0.0572 1.1016
v 0.1516 0.0428 1.1161
f 328/8 327/8 326/8 325/8
v 0.1339 0.0428 1.0984
v 0.1484 0.0572 1.0839
v -0.0016 0.3572 1.2339
v -0.0161 0.3428 1.2484
f 332/8 331/8 330/8 329/8
v 0.1516 0.0428 1.1161
v 0.1339 0.0428 1.0984
v -0.0161 0.3428 1.2484
v 0.0016 0.3428 1.2661
f 336/8 335/8 334/8 333/8
v 0.0161 0.3572 1.2516
v -0.0016 0.3572 1.2339
v 0.1484 0.0572 1.0839
v 0.1661 0.0572 1.1016
f 340/8 339/8 338/8 337/8
v 0.1661 0.0572 1.1016
v 0.1484 0.0572 1.0839
v 0.1339 0.0428 1.0984
v 0.1516 0.0428 1.1161
f 344/8 343/8 342/8 341/8
v 0.0016 0.3428 1.2661
v -0.0161 0.3428 1.2484
v -0.0016 0.3572 1.2339
v 0.0161 0.3572 1.2516
f 348/8 347/8 346/8 345/8
v 0.0161 0.3428 1.2484
v 0.0016 0.3572 1.2339
v -0.1484 0.0572 1.0839
v -0.1339 0.0428 1.0984
f 352/8 351/8 350/8 349/8
v -0.1516 0.0428 1.1161
v -0.1661 0.0572 1.1016
v -0.0161 0.3572 1.2516
v -0.0016 0.3428 1.2661
f 356/8 355/8 354/8 353/8
v -0.1339 0.0428 1.0984
v -0.1516 0.0428 1.1161
v -0.0016 0.3428 1.2661
v 0.0161 0.3428 1.2484
f 360/8 359/8 358/8 357/8
v 0.0016 0.3572 1.2339
v -0.0161 0.3572 1.2516
v -0.1661 0.0572 1.1016
v -0.1484 0.0572 1.0839
f 364/8 363/8 362/8 361/8
v -0.1484 0.0572 1.0839
v -0.1661 0.0572 1.1016
v -0.1516 0.0428 1.1161
v -0.1339 0.0428 1.0984
f 368/8 367/8 366/8 365/8
v 0.0161 0.3428 1.2484
v -0.0016 0.3428 1.2661
v -0.0161 0.3572 1.2516
v 0.0016 0.3572 1.2339
f 372/8 371/8 370/8 369/8
v 0.0016 0.3428 1.5661
v 0.0161 0.3572 1.5516
v 0.1661 0.0572 1.4016
v 0.1516 0.0428 1.4161
f 376/8 375/8 374/8 373/8
v 0.1339 0.0428 1.3984
v 0.1484 0.0572 1.3839
v -0.0016 0.3572 1.5339
v -0.0161 0.3428 1.5484
f 380/8 379/8 378/8 377/8
v 0.1516 0.0428 1.4161
v 0.1339 0.0428 1.3984
v -0.0161 0.3428 1.5484
v 0.0016 0.3428 1.5661
f 384/8 383/8 382/8 381/8
v 0.0161 0.3572 1.5516
v -0.0016 0.3572 1.5339
v 0.1484 0.0572 1.3839
v 0.1661 0.0572 1.4016
f 388/8 387/8 386/8 385/8
v 0.1661 0.0572 1.4016
v 0.1484 0.0572 1.3839
v 0.1339 0.0428 1.3984
v 0.1516 0.0428 1.4161
f 392/8 391/8 390/8 389/8
v 0.0016 0.3428 1.5661
v -0.0161 0.3428 1.5484
v -0.0016 0.3572 1.5339
v 0.0161 0.3572 1.5516
f 396/8 395/8 394/8 393/8
v 0.0161 0.3428 1.5484
v 0.0016 0.3572 1.5339
v -0.1484 0.0572 1.3839
v -0.1339 0.0428 1.3984
f 400/8 399/8 398/8 397/8
v -0.1516 0.0428 1.4161
v -0.1661 0.0572 1.4016
v -0.0161 0.3572 1.5516
v -0.0016 0.3428 1.5661
f 404/8 403/8 402/8 401/8
v -0.1339 0.0428 1.3984
v -0.1516 0.0428 1.4161
v -0.0016 0.3428 1.5661
v 0.0161 0.3428 1.5484
f 408/8 407/8 406/8 405/8
v 0.0016 0.3572 1.5339
v -0.0161 0.3572 1.5516
v -0.1661 0.0572 1.4016
v -0.1484 0.0572 1.3839
f 412/8 411/8 410/8 409/8
v -0.1484 0.0572 1.3839
v -0.1661 0.0572 1.4016
v -0.1516 0.0428 1.4161
v -0.1339 0.0428 1.3984
f 416/8 415/8 414/8 413/8
v 0.0161 0.3428 1.5484
v -0.0016 0.3428 1.5661
v -0.0161 0.3572 1.5516
v 0.0016 0.3572 1.5339
f 420/8 419/8 418/8 417/8
v 0.0016 0.3428 1.8661
v 0.0161 0.3572 1.8516
v 0.1661 0.0572 1.7016
v 0.1516 0.0428 1.7161
f 424/8 423/8 422/8 421/8
v 0.1339 0.0428 1.6984
v 0.1484 0.0572 1.6839
v -0.0016 0.3572 1.8339
v -0.0161 0.3428 1.8484
f 428/8 427/8 426/8 425/8
v 0.1516 0.0428 1.7161
v 0.1339 0.0428 1.6984
v -0.0161 0.3428 1.8484
v 0.0016 0.3428 1.8661
f 432/8 431/8 430/8 429/8
v 0.0161 0.3572 1.8516
v -0.0016 0.3572 1.8339
v 0.1484 0.0572 1.6839
v 0.1661 0.0572 1.7016
f 436/8 435/8 434/8 433/8
v 0.1661 0.0572 1.7016
v 0.1484 0.0572 1.6839
v 0.1339 0.0428 1.6984
v 0.1516 0.0428 1.7161
f 440/8 439/8 438/8 437/8
v 0.0016 0.3428 1.8661
v -0.0161 0.3428 1.8484
v -0.0016 0.3572 1.8339
v 0.0161 0.3572 1.8516
f 444/8 443/8 442/8 441/8
v 0.0161 0.3428 1.8484
v 0.0016 0.3572 1.8339
v -0.1484 0.0572 1.6839
v -0.1339 0.0428 1.6984
f 448/8 447/8 446/8 445/8
v -0.1516 0.0428 1.7161
v -0.1661 0.0572 1.7016
v -0.0161 0.3572 1.8516
v -0.0016 0.3428 1.8661
f 452/8 451/8 450/8 449/8
v -0.1339 0.0428 1.6984
v -0.1516 0.0428 1.7161
v -0.0016 0.3428 1.8661
v 0.0161 0.3428 1.8484
f 456/8 455/8 454/8 453/8
v 0.0016 0.3572 1.8339
v -0.0161 0.3572 1.8516
v -0.1661 0.0572 1.7016
v -0.1484 0.0572 1.6839
f 460/8 459/8 458/8 457/8
v -0.1484 0.0572 1.6839
v -0.1661 0.0572 1.7016
v -0.1516 0.0428 1.7161
v -0.1339 0.0428 1.6984
f 464/8 463/8 462/8 461/8
v 0.0161 0.3428 1.8484
v -0.0016 0.3428 1.8661
v -0.0161 0.3572 1.8516
v 0.0016 0.3572 1.8339
f 468/8 467/8 466/8 465/8
v 0.0016 0.3428 2.1661
v 0.0161 0.3572 2.1516
v 0.1661 0.0572 2.0016
v 0.1516 0.0428 2.0161
f 472/8 471/8 470/8 469/8
v 0.1339 0.0428 1.9984
v 0.1484 0.0572 1.9839
v -0.0016 0.3572 2.1339
v -0.0161 0.3428 2.1484
f 476/8 475/8 474/8 473/8
v 0.1516 0.0428 2.0161
v 0.1339 0.0428 1.9984
v -0.0161 0.3428 2.1484
v 0.0016 0.3428 2.1661
f 480/8 479/8 478/8 477/8
v 0.0161 0.3572 2.1516
v -0.0016 0.3572 2.1339
v 0.1484 0.0572 1.9839
v 0.1661 0.0572 2.0016
f 484/8 483/8 482/8 481/8
v 0.1661 0.0572 2.0016
v 0.1484 0.0572 1.9839
v 0.1339 0.0428 1.9984
v 0.1516 0.0428 2.0161
f 488/8 487/8 486/8 485/8
v 0.0016 0.3428 2.1661
v -0.0161 0.3428 2.1484
v -0.0016 0.3572 2.1339
v 0.0161 0.3572 2.1516
f 492/8 491/8 490/8 489/8
v 0.0161 0.3428 2.1484
v 0.0016 0.3572 2.1339
v -0.1484 0.0572 1.9839
v -0.1339 0.0428 1.9984
f 496/8 495/8 494/8 493/8
v -0.1516 0.0428 2.0161
v -0.1661 0.0572 2.0016
v -0.0161 0.3572 2.1516
v -0.0016 0.3428 2.1661
f 500/8 499/8 498/8 497/8
v -0.1339 0.0428 1.9984
v -0.1516 0.0428 2.0161
v -0.0016 0.3428 2.1661
v 0.0161 0.3428 2.1484
f 504/8 503/8 502/8 501/8
v 0.0016 0.3572 2.1339
v -0.0161 0.3572 2.1516
v -0.1661 0.0572 2.0016
v -0.1484 0.0572 1.9839
f 508/8 507/8 506/8 505/8
v -0.1484 0.0572 1.9839
v -0.1661 0.0572 2.0016
v -0.1516 0.0428 2.0161
v -0.1339 0.0428 1.9984
f 512/8 511/8 510/8 509/8
v 0.0161 0.3428 2.1484
v -0.0016 0.3428 2.1661
v -0.0161 0.3572 2.1516
v 0.0016 0.3572 2.1339
f 516/8 515/8 514/8 513/8
v 0.0016 0.3428 2.4661
v 0.0161 0.3572 2.4516
v 0.1661 0.0572 2.3016
v 0.1516 0.0428 2.3161
f 520/8 519/8 518/8 517/8
v 0.1339 0.0428 2.2984
v 0.1484 0.0572 2.2839
v -0.0016 0.3572 2.4339
v -0.0161 0.3428 2.4484
f 524/8 523/8 522/8 521/8
v 0.1516 0.0428 2.3161
v 0.1339 0.0428 2.2984
v -0.0161 0.3428 2.4484
v 0.0016 0.3428 2.4661
f 528/8 527/8 526/8 525/8
v 0.0161 0.3572 2.4516
v -0.0016 0.3572 2.4339
v 0.1484 0.0572 2.2839
v 0.1661 0.0572 2.3016
f 532/8 531/8 530/8 529/8
v 0.1661 0.0572 2.3016
v 0.1484 0.0572 2.2839
v 0.1339 0.0428 2.2984
v 0.1516 0.0428 2.3161
f 536/8 535/8 534/8 533/8
v 0.0016 0.3428 2.4661
v -0.0161 0.3428 2.4484
v -0.0016 0.3572 2.4339
v 0.0161 0.3572 2.4516
f 540/8 539/8 538/8 537/8
v 0.0161 0.3428 2.4484
v 0.0016 0.3572 2.4339
v -0.1484 0.0572 2.2839
v -0.1339 0.0428 2.2984
f 544/8 543/8 542/8 541/8
v -0.1516 0.0428 2.3161
v -0.1661 0.0572 2.3016
v -0.0161 0.3572 2.4516
v -0.0016 0.3428 2.4661
f 548/8 547/8 546/8 545/8
v -0.1339 0.0428 2.2984
v -0.1516 0.0428 2.3161
v -0.0016 0.3428 2.4661
v 0.0161 0.3428 2.4484
f 552/8 551/8 550/8 549/8
v 0.0016 0.3572 2.4339
v -0.0161 0.3572 2.4516
v -0.1661 0.0572 2.3016
v -0.1484 0.0572 2.2839
f 556/8 555/8 554/8 553/8
v -0.1484 0.0572 2.2839
v -0.1661 0.0572 2.3016
v -0.1516 0.0428 2.3161
v -0.1339 0.0428 2.2984
f 560/8 559/8 558/8 557/8
v 0.0161 0.3428 2.4484
v -0.0016 0.3428 2.4661
v -0.0161 0.3572 2.4516
v 0.0016 0.3572 2.4339
f 564/8 563/8 562/8 561/8
v 0.0016 0.3428 2.7661
v 0.0161 0.3572 2.7516
v 0.1661 0.0572 2.6016
v 0.1516 0.0428 2.6161
f 568/8 567/8 566/8 565/8
v 0.1339 0.0428 2.5984
v 0.1484 0.0572 2.5839
v -0.0016 0.3572 2.7339
v -0.0161 0.3428 2.7484
f 572/8 571/8 570/8 569/8
v 0.1516 0.0428 2.6161
v 0.1339 0.0428 2.5984
v -0.0161 0.3428 2.7484
v 0.0016 0.3428 2.7661
f 576/8 575/8 574/8 573/8
v 0.0161 0.3572 2.7516
v -0.0016 0.3572 2.7339
v 0.1484 0.0572 2.5839
v 0.1661 0.0572 2.6016
f 580/8 579/8 578/8 577/8
v 0.1661 0.0572 2.6016
v 0.1484 0.0572 2.5839
v 0.1339 0.0428 2.5984
v 0.1516 0.0428 2.6161
f 584/8 583/8 582/8 581/8
v 0.0016 0.3428 2.7661
v -0.0161 0.3428 2.7484
v -0.0016 0.3572 2.7339
v 0.0161 0.3572 2.7516
f 588/8 587/8 586/8 585/8
v 0.0161 0.3428 2.7484
v 0.0016 0.3572 2.7339
v -0.1484 0.0572 2.5839
v -0.1339 0.0428 2.5984
f 592/8 591/8 590/8 589/8
v -0.1516 0.0428 2.6161
v -0.1661 0.0572 2.6016
v -0.0161 0.3572 2.7516
v -0.0016 0.3428 2.7661
f 596/8 595/8 594/8 593/8
v -0.1339 0.0428 2.5984
v -0.1516 0.0428 2.6161
v -0.0016 0.3428 2.7661
v 0.0161 0.3428 2.7484
f 600/8 599/8 598/8 597/8
v 0.0016 0.3572 2.7339
v -0.0161 0.3572 2.7516
v -0.1661 0.0572 2.6016
v -0.1484 0.0572 2.5839
f 604/8 603/8 602/8 601/8
v -0.1484 0.0572 2.5839
v -0.1661 0.0572 2.6016
v -0.1516 0.0428 2.6161
v -0.1339 0.0428 2.5984
f 608/8 607/8 606/8 605/8
v 0.0161 0.3428 2.7484
v -0.0016 0.3428 2.7661
v -0.0161 0.3572 2.7516
v 0.0016 0.3572 2.7339
f 612/8 611/8 610/8 609/8
v 0.0016 0.3428 3.0661
v 0.0161 0.3572 3.0516
v 0.1661 0.0572 2.9016
v 0.1516 0.0428 2.9161
f 616/8 615/8 614/8 613/8
v 0.1339 0.0428 2.8984
v 0.1484 0.0572 2.8839
v -0.0016 0.3572 3.0339
v -0.0161 0.3428 3.0484
f 620/8 619/8 618/8 617/8
v 0.1516 0.0428 2.9161
v 0.1339 0.0428 2.8984
v -0.0161 0.3428 3.0484
v 0.0016 0.3428 3.0661
f 624/8 623/8 622/8 621/8
v 0.0161 0.3572 3.0516
v -0.0016 0.3572 3.0339
v 0.1484 0.0572 2.8839
v 0.1661 0.0572 2.9016
f 628/8 627/8 626/8 625/8
v 0.1661 0.0572 2.9016
v 0.1484 0.0572 2.8839
v 0.1339 0.0428 2.8984
v 0.1516 0.0428 2.9161
f 632/8 631/8 630/8 629/8
v 0.0016 0.3428 3.0661
v -0.0161 0.3428 3.0484
v -0.0016 0.3572 3.0339
v 0.0161 0.3572 3.0516
f 636/8 635/8 634/8 633/8
v 0.0161 0.3428 3.0484
v 0.0016 0.3572 3.0339
v -0.1484 0.0572 2.8839
v -0.1339 0.0428 2.8984
f 640/8 639/8 638/8 637/8
v -0.1516 0.0428 2.9161
v -0.1661 0.0572 2.9016
v -0.0161 0.3572 3.0516
v -0.0016 0.3428 3.0661
f 644/8 643/8 642/8 641/8
v -0.1339 0.0428 2.8984
v -0.1516 0.0428 2.9161
v -0.0016 0.3428 3.0661
v 0.0161 0.3428 3.0484
f 648/8 647/8 646/8 645/8
v 0.0016 0.3572 3.0339
v -0.0161 0.3572 3.0516
v -0.1661 0.0572 2.9016
v -0.1484 0.0572 2.8839
f 652/8 651/8 650/8 649/8
v -0.1484 0.0572 2.8839
v -0.1661 0.0572 2.9016
v -0.1516 0.0428 2.9161
v -0.1339 0.0428 2.8984
f 656/8 655/8 654/8 653/8
v 0.0161 0.3428 3.0484
v -0.0016 0.3428 3.0661
v -0.0161 0.3572 3.0516
v 0.0016 0.3572 3.0339
f 660/8 659/8 658/8 657/8
v 0.0016 0.3428 3.3661
v 0.0161 0.3572 3.3516
v 0.1661 0.0572 3.2016
v 0.1516 0.0428 3.2161
f 664/8 663/8 662/8 661/8
v 0.1339 0.0428 3.1984
v 0.1484 0.0572 3.1839
v -0.0016 0.3572 3.3339
v -0.0161 0.3428 3.3484
f 668/8 667/8 666/8 665/8
v 0.1516 0.0428 3.2161
v 0.1339 0.0428 3.1984
v -0.0161 0.3428 3.3484
v 0.0016 0.3428 3.3661
f 672/8 671/8 670/8 669/8
v 0.0161 0.3572 3.3516
v -0.0016 0.3572 3.3339
v 0.1484 0.0572 3.1839
v 0.1661 0.0572 3.2016
f 676/8 675/8 674/8 673/8
v 0.1661 0.0572 3.2016
v 0.1484 0.0572 3.1839
v 0.1339 0.0428 3.1984
v 0.1516 0.0428 3.2161
f 680/8 679/8 678/8 677/8
v 0.0016 0.3428 3.3661
v -0.0161 0.3428 3.3484
v -0.0016 0.3572 3.3339
v 0.0161 0.3572 3.3516
f 684/8 683/8 682/8 681/8
v 0.0161 0.3428 3.3484
v 0.0016 0.3572 3.3339
v -0.1484 0.0572 3.1839
v -0.1339 0.0428 3.1984
f 688/8 687/8 686/8 685/8
v -0.1516 0.0428 3.2161
v -0.1661 0.0572 3.2016
v -0.0161 0.3572 3.3516
v -0.0016 0.3428 3.3661
f 692/8 691/8 690/8 689/8
v -0.1339 0.0428 3.1984
v -0.1516 0.0428 3.2161
v -0.0016 0.3428 3.3661
v 0.0161 0.3428 3.3484
f 696/8 695/8 694/8 693/8
v 0.0016 0.3572 3.3339
v -0.0161 0.3572 3.3516
v -0.1661 0.0572 3.2016
v -0.1484 0.0572 3.1839
f 700/8 699/8 698/8 697/8
v -0.1484 0.0572 3.1839
v -0.1661 0.0572 3.2016
v -0.1516 0.0428 3.2161
v -0.1339 0.0428 3.1984
f 704/8 703/8 702/8 701/8
v 0.0161 0.3428 3.3484
v -0.0016 0.3428 3.3661
v -0.0161 0.3572 3.3516
v 0.0016 0.3572 3.3339
f 708/8 707/8 706/8 705/8
v 0.0016 0.3428 3.6661
v 0.0161 0.3572 3.6516
v 0.1661 0.0572 3.5016
v 0.1516 0.0428 3.5161
f 712/8 711/8 710/8 709/8
v 0.1339 0.0428 3.4984
v 0.1484 0.0572 3.4839
v -0.0016 0.3572 3.6339
v -0.0161 0.3428 3.6484
f 716/8 715/8 714/8 713/8
v 0.1516 0.0428 3.5161
v 0.1339 0.0428 3.4984
v -0.0161 0.3428 3.6484
v 0.0016 0.3428 3.6661
f 720/8 719/8 718/8 717/8
v 0.0161 0.3572 3.6516
v -0.0016 0.3572 3.6339
v 0.1484 0.0572 3.4839
v 0.1661 0.0572 3.5016
f 724/8 723/8 722/8 721/8
v 0.1661 0.0572 3.5016
v 0.1484 0.0572 3.4839
v 0.1339 0.0428 3.4984
v 0.1516 0.0428 3.5161
f 728/8 727/8 726/8 725/8
v 0.0016 0.3428 3.6661
v -0.0161 0.3428 3.6484
v -0.0016 0.3572 3.6339
v 0.0161 0.3572 3.6516
f 732/8 731/8 730/8 729/8
v 0.0161 0.3428 3.6484
v 0.0016 0.3572 3.6339
v -0.1484 0.0572 3.4839
v -0.1339 0.0428 3.4984
f 736/8 735/8 734/8 733/8
v -0.1516 0.0428 3.5161
v -0.1661 0.0572 3.5016
v -0.0161 0.3572 3.6516
v -0.0016 0.3428 3.6661
f 740/8 739/8 738/8 737/8
v -0.1339 0.0428 3.4984
v -0.1516 0.0428 3.5161
v -0.0016 0.3428 3.6661
v 0.0161 0.3428 3.6484
f 744/8 743/8 742/8 741/8
v 0.0016 0.3572 3.6339
v -0.0161 0.3572 3.6516
v -0.1661 0.0572 3.5016
v -0.1484 0.0572 3.4839
f 748/8 747/8 746/8 745/8
v -0.1484 0.0572 3.4839
v -0.1661 0.0572 3.5016
v -0.1516 0.0428 3.5161
v -0.1339 0.0428 3.4984
f 752/8 751/8 750/8 749/8
v 0.0161 0.3428 3.6484
v -0.0016 0.3428 3.6661
v -0.0161 0.3572 3.6516
v 0.0016 0.3572 3.6339
f 756/8 755/8 754/8 753/8
v 0.2500 -0.1250 -1.0000
v 0.2500 0.3250 -1.0000
v 0.2500 0.3250 -1.5000
v 0.2500 -0.1250 -1.5000
f 760/11 759/11 758/11 757/11
v -0.2500 -0.1250 -1.5000
v -0.2500 0.3250 -1.5000
v -0.2500 0.3250 -1.0000
v -0.2500 -0.1250 -1.0000
f 764/11 763/11 762/11 761/11
v 0.2500 -0.1250 -1.5000
v -0.2500 -0.1250 -1.5000
v -0.2500 -0.1250 -1.0000
v 0.2500 -0.1250 -1.0000
f 768/11 767/11 766/11 765/11
v 0.2500 0.3250 -1.0000
v -0.2500 0.3250 -1.0000
v -0.2500 0.3250 -1.5000
v 0.2500 0.3250 -1.5000
f 772/11 771/11 770/11 769/11
v 0.2500 0.3250 -1.5000
v -0.2500 0.3250 -1.5000
v -0.2500 -0.1250 -1.5000
v 0.2500 -0.1250 -1.5000
f 776/11 775/11 774/11 773/11
v 0.2500 -0.1250 -1.0000
v -0.2500 -0.1250 -1.0000
v -0.2500 0.3250 -1.0000
v 0.2500 0.3250 -1.0000
f 780/11 779/11 778/11 777/11
v 0.2100 -0.0750 -0.6500
v 0.2100 0.2750 -0.6500
v 0.2100 0.2750 -0.9500
v 0.2100 -0.0750 -0.9500
f 784/11 783/11 782/11 781/11
v -0.2100 -0.0750 -0.9500
v -0.2100 0.2750 -0.9500
v -0.2100 0.2750 -0.6500
v -0.2100 -0.0750 -0.6500
f 788/11 787/11 786/11 785/11
v 0.2100 -0.0750 -0.9500
v -0.2100 -0.0750 -0.9500
v -0.2100 -0.0750 -0.6500
v 0.2100 -0.0750 -0.6500
f 792/11 791/11 790/11 789/11
v 0.2100 0.2750 -0.6500
v -0.2100 0.2750 -0.6500
v -0.2100 0.2750 -0.9500
v 0.2100 0.2750 -0.9500
f 796/11 795/11 794/11 793/11
v 0.2100 0.2750 -0.9500
v -0.2100 0.2750 -0.9500
v -0.2100 -0.0750 -0.9500
v 0.2100 -0.0750 -0.9500
f 800/11 799/11 798/11 797/11
v 0.2100 -0.0750 -0.6500
v -0.2100 -0.0750 -0.6500
v -0.2100 0.2750 -0.6500
v 0.2100 0.2750 -0.6500
f 804/11 803/11 802/11 801/11
v -0.0300 0.0000 0.0520
v -0.0600 0.0000 0.0000
v -0.0600 1.0000 0.0000
v -0.0300 1.0000 0.0520
f 808/8 807/8 806/8 805/8
v -0.0600 0.0000 0.0000
v -0.0300 0.0000 -0.0520
v -0.0300 1.0000 -0.0520
v -0.0600 1.0000 0.0000
f 812/8 811/8 810/8 809/8
v -0.0300 0.0000 -0.0520
v 0.0300 0.0000 -0.0520
v 0.0300 1.0000 -0.0520
v -0.0300 1.0000 -0.0520
f 816/8 815/8 814/8 813/8
v 0.0300 0.0000 -0.0520
v 0.0600 0.0000 -0.0000
v 0.0600 1.0000 -0.0000
v 0.0300 1.0000 -0.0520
f 820/8 819/8 818/8 817/8
v 0.0600 0.0000 -0.0000
v 0.0300 0.0000 0.0520
v 0.0300 1.0000 0.0520
v 0.0600 1.0000 -0.0000
f 824/8 823/8 822/8 821/8
v 0.0300 0.0000 0.0520
v -0.0300 0.0000 0.0520
v -0.0300 1.0000 0.0520
v 0.0300 1.0000 0.0520
f 828/8 827/8 826/8 825/8
v 0.0300 0.0000 0.0520
v 0.0600 0.0000 -0.0000
v 0.0300 0.0000 -0.0520
v -0.0300 0.0000 -0.0520
v -0.0600 0.0000 0.0000
v -0.0300 0.0000 0.0520
f 834/8 833/8 832/8 831/8 830/8 829/8
v -0.0300 1.0000 0.0520
v -0.0600 1.0000 0.0000
v -0.0300 1.0000 -0.0520
v 0.0300 1.0000 -0.0520
v 0.0600 1.0000 -0.0000
v 0.0300 1.0000 0.0520
f 840/8 839/8 838/8 837/8 836/8 835/8
v 0.0075 0.3626 3.3986
v 0.0075 0.3774 3.4014
v 0.0075 1.0074 0.0014
v 0.0075 0.9926 -0.0014
f 844/7 843/7 842/7 841/7
v -0.0075 0.9926 -0.0014
v -0.0075 1.0074 0.0014
v -0.0075 0.3774 3.4014
v -0.0075 0.3626 3.3986
f 848/7 847/7 846/7 845/7
v 0.0075 0.9926 -0.0014
v -0.0075 0.9926 -0.0014
v -0.0075 0.3626 3.3986
v 0.0075 0.3626 3.3986
f 852/7 851/7 850/7 849/7
v 0.0075 0.3774 3.4014
v -0.0075 0.3774 3.4014
v -0.0075 1.0074 0.0014
v 0.0075 1.0074 0.0014
f 856/7 855/7 854/7 853/7
v 0.0075 1.0074 0.0014
v -0.0075 1.0074 0.0014
v -0.0075 0.9926 -0.0014
v 0.0075 0.9926 -0.0014
f 860/7 859/7 858/7 857/7
v 0.0075 0.3626 3.3986
v -0.0075 0.3626 3.3986
v -0.0075 0.3774 3.4014
v 0.0075 0.3774 3.4014
f 864/7 863/7 862/7 861/7
v -0.0075 0.0940 -1.1955
v -0.0075 0.1060 -1.2045
v -0.0075 1.0060 -0.0045
v -0.0075 0.9940 0.0045
f 868/7 867/7 866/7 865/7
v 0.0075 0.9940 0.0045
v 0.0075 1.0060 -0.0045
v 0.0075 0.1060 -1.2045
v 0.0075 0.0940 -1.1955
f 872/7 871/7 870/7 869/7
v -0.0075 0.9940 0.0045
v 0.0075 0.9940 0.0045
v 0.0075 0.0940 -1.1955
v -0.0075 0.0940 -1.1955
f 876/7 875/7 874/7 873/7
v -0.0075 0.1060 -1.2045
v 0.0075 0.1060 -1.2045
v 0.0075 1.0060 -0.0045
v -0.0075 1.0060 -0.0045
f 880/7 879/7 878/7 877/7
v -0.0075 1.0060 -0.0045
v 0.0075 1.0060 -0.0045
v 0.0075 0.9940 0.0045
v -0.0075 0.9940 0.0045
f 884/7 883/7 882/7 881/7
v -0.0075 0.0940 -1.1955
v 0.0075 0.0940 -1.1955
v 0.0075 0.1060 -1.2045
v -0.0075 0.1060 -1.2045
f 888/7 887/7 886/7 885/7
v 0.1200 -0.1000 2.7000
v 0.1200 0.0200 2.7000
v 0.1200 0.0200 2.5000
v 0.1200 -0.1000 2.5000
f 892/6 891/6 890/6 889/6
v -0.1200 -0.1000 2.5000
v -0.1200 0.0200 2.5000
v -0.1200 0.0200 2.7000
v -0.1200 -0.1000 2.7000
f 896/6 895/6 894/6 893/6
v 0.1200 -0.1000 2.5000
v -0.1200 -0.1000 2.5000
v -0.1200 -0.1000 2.7000
v 0.1200 -0.1000 2.7000
f 900/6 899/6 898/6 897/6
v 0.1200 0.0200 2.7000
v -0.1200 0.0200 2.7000
v -0.1200 0.0200 2.5000
v 0.1200 0.0200 2.5000
f 904/6 903/6 902/6 901/6
v 0.1200 0.0200 2.5000
v -0.1200 0.0200 2.5000
v -0.1200 -0.1000 2.5000
v 0.1200 -0.1000 2.5000
f 908/6 907/6 906/6 905/6
v 0.1200 -0.1000 2.7000
v -0.1200 -0.1000 2.7000
v -0.1200 0.0200 2.7000
v 0.1200 0.0200 2.7000
f 912/6 911/6 910/6 909/6
v -0.0071 -0.1000 2.5929
v -0.0071 -0.1000 2.6071
v -0.0071 -1.7000 2.6071
v -0.0071 -1.7000 2.5929
f 916/7 915/7 914/7 913/7
v -0.0071 -0.1000 2.6071
v 0.0071 -0.1000 2.6071
v 0.0071 -1.7000 2.6071
v -0.0071 -1.7000 2.6071
f 920/7 919/7 918/7 917/7
v 0.0071 -0.1000 2.6071
v 0.0071 -0.1000 2.5929
v 0.0071 -1.7000 2.5929
v 0.0071 -1.7000 2.6071
f 924/7 923/7 922/7 921/7
v 0.0071 -0.1000 2.5929
v -0.0071 -0.1000 2.5929
v -0.0071 -1.7000 2.5929
v 0.0071 -1.7000 2.5929
f 928/7 927/7 926/7 925/7
v 0.0071 -0.1000 2.5929
v 0.0071 -0.1000 2.6071
v -0.0071 -0.1000 2.6071
v -0.0071 -0.1000 2.5929
f 932/7 931/7 930/7 929/7
v -0.0071 -1.7000 2.5929
v -0.0071 -1.7000 2.6071
v 0.0071 -1.7000 2.6071
v 0.0071 -1.7000 2.5929
f 936/7 935/7 934/7 933/7
v 0.0600 -1.8000 2.6600
v 0.0600 -1.7000 2.6600
v 0.0600 -1.7000 2.5400
v 0.0600 -1.8000 2.5400
f 940/27 939/27 938/27 937/27
v -0.0600 -1.8000 2.5400
v -0.0600 -1.7000 2.5400
v -0.0600 -1.7000 2.6600
v -0.0600 -1.8000 2.6600
f 944/27 943/27 942/27 941/27
v 0.0600 -1.8000 2.5400
v -0.0600 -1.8000 2.5400
v -0.0600 -1.8000 2.6600
v 0.0600 -1.8000 2.6600
f 948/27 947/27 946/27 945/27
v 0.0600 -1.7000 2.6600
v -0.0600 -1.7000 2.6600
v -0.0600 -1.7000 2.5400
v 0.0600 -1.7000 2.5400
f 952/27 951/27 950/27 949/27
v 0.0600 -1.7000 2.5400
v -0.0600 -1.7000 2.5400
v -0.0600 -1.8000 2.5400
v 0.0600 -1.8000 2.5400
f 956/27 955/27 954/27 953/27
v 0.0600 -1.8000 2.6600
v -0.0600 -1.8000 2.6600
v -0.0600 -1.7000 2.6600
v 0.0600 -1.7000 2.6600
f 960/27 959/27 958/27 957/27
v 0.2000 -2.0000 2.8000
v 0.2000 -1.8000 2.8000
v 0.2000 -1.8000 2.4000
v 0.2000 -2.0000 2.4000
f 964/9 963/9 962/9 961/9
v -0.2000 -2.0000 2.4000
v -0.2000 -1.8000 2.4000
v -0.2000 -1.8000 2.8000
v -0.2000 -2.0000 2.8000
f 968/9 967/9 966/9 965/9
v 0.2000 -2.0000 2.4000
v -0.2000 -2.0000 2.4000
v -0.2000 -2.0000 2.8000
v 0.2000 -2.0000 2.8000
f 972/9 971/9 970/9 969/9
v 0.2000 -1.8000 2.8000
v -0.2000 -1.8000 2.8000
v -0.2000 -1.8000 2.4000
v 0.2000 -1.8000 2.4000
f 976/9 975/9 974/9 973/9
v 0.2000 -1.8000 2.4000
v -0.2000 -1.8000 2.4000
v -0.2000 -2.0000 2.4000
v 0.2000 -2.0000 2.4000
f 980/9 979/9 978/9 977/9
v 0.2000 -2.0000 2.8000
v -0.2000 -2.0000 2.8000
v -0.2000 -1.8000 2.8000
v 0.2000 -1.8000 2.8000
f 984/9 983/9 982/9 981/9
