# Walk of Industry low-poly (generated, wi_lib.py)
mtllib wi.mtl
vt 0 0
vt 0.03125 0.03125
vt 0.09375 0.03125
vt 0.15625 0.03125
vt 0.21875 0.03125
vt 0.28125 0.03125
vt 0.34375 0.03125
vt 0.40625 0.03125
vt 0.46875 0.03125
vt 0.53125 0.03125
vt 0.59375 0.03125
vt 0.65625 0.03125
vt 0.71875 0.03125
vt 0.78125 0.03125
vt 0.84375 0.03125
vt 0.90625 0.03125
vt 0.96875 0.03125
vt 0.03125 0.09375
vt 0.09375 0.09375
vt 0.15625 0.09375
vt 0.21875 0.09375
vt 0.28125 0.09375
vt 0.34375 0.09375
vt 0.40625 0.09375
vt 0.46875 0.09375
vt 0.53125 0.09375
vt 0.59375 0.09375
vt 0.65625 0.09375
vt 0.71875 0.09375
vt 0.78125 0.09375
vt 0.84375 0.09375
vt 0.90625 0.09375
vt 0.96875 0.09375
o Body
usemtl wi_palette
v 0.7000 0.0000 0.7000
v 0.7000 0.4000 0.7000
v 0.7000 0.4000 -0.7000
v 0.7000 0.0000 -0.7000
f 4/11 3/11 2/11 1/11
v -0.7000 0.0000 -0.7000
v -0.7000 0.4000 -0.7000
v -0.7000 0.4000 0.7000
v -0.7000 0.0000 0.7000
f 8/11 7/11 6/11 5/11
v 0.7000 0.0000 -0.7000
v -0.7000 0.0000 -0.7000
v -0.7000 0.0000 0.7000
v 0.7000 0.0000 0.7000
f 12/11 11/11 10/11 9/11
v 0.7000 0.4000 0.7000
v -0.7000 0.4000 0.7000
v -0.7000 0.4000 -0.7000
v 0.7000 0.4000 -0.7000
f 16/11 15/11 14/11 13/11
v 0.7000 0.4000 -0.7000
v -0.7000 0.4000 -0.7000
v -0.7000 0.0000 -0.7000
v 0.7000 0.0000 -0.7000
f 20/11 19/11 18/11 17/11
v 0.7000 0.0000 0.7000
v -0.7000 0.0000 0.7000
v -0.7000 0.4000 0.7000
v 0.7000 0.4000 0.7000
f 24/11 23/11 22/11 21/11
v 0.4000 0.3900 0.4000
v 0.4000 0.4500 0.4000
v 0.4000 0.4500 -0.4000
v 0.4000 0.3900 -0.4000
f 28/6 27/6 26/6 25/6
v -0.4000 0.3900 -0.4000
v -0.4000 0.4500 -0.4000
v -0.4000 0.4500 0.4000
v -0.4000 0.3900 0.4000
f 32/6 31/6 30/6 29/6
v 0.4000 0.3900 -0.4000
v -0.4000 0.3900 -0.4000
v -0.4000 0.3900 0.4000
v 0.4000 0.3900 0.4000
f 36/6 35/6 34/6 33/6
v 0.4000 0.4500 0.4000
v -0.4000 0.4500 0.4000
v -0.4000 0.4500 -0.4000
v 0.4000 0.4500 -0.4000
f 40/6 39/6 38/6 37/6
v 0.4000 0.4500 -0.4000
v -0.4000 0.4500 -0.4000
v -0.4000 0.3900 -0.4000
v 0.4000 0.3900 -0.4000
f 44/6 43/6 42/6 41/6
v 0.4000 0.3900 0.4000
v -0.4000 0.3900 0.4000
v -0.4000 0.4500 0.4000
v 0.4000 0.4500 0.4000
f 48/6 47/6 46/6 45/6
v 0.2800 4.6000 -0.2800
v 0.2200 4.6000 -0.2800
v 0.2200 0.4500 -0.2800
v 0.2800 0.4500 -0.2800
f 52/8 51/8 50/8 49/8
v 0.2800 0.4500 -0.2200
v 0.2200 0.4500 -0.2200
v 0.2200 4.6000 -0.2200
v 0.2800 4.6000 -0.2200
f 56/8 55/8 54/8 53/8
v 0.2800 0.4500 -0.2800
v 0.2800 0.4500 -0.2200
v 0.2800 4.6000 -0.2200
v 0.2800 4.6000 -0.2800
f 60/8 59/8 58/8 57/8
v 0.2200 4.6000 -0.2800
v 0.2200 4.6000 -0.2200
v 0.2200 0.4500 -0.2200
v 0.2200 0.4500 -0.2800
f 64/8 63/8 62/8 61/8
v 0.2200 0.4500 -0.2800
v 0.2200 0.4500 -0.2200
v 0.2800 0.4500 -0.2200
v 0.2800 0.4500 -0.2800
f 68/8 67/8 66/8 65/8
v 0.2800 4.6000 -0.2800
v 0.2800 4.6000 -0.2200
v 0.2200 4.6000 -0.2200
v 0.2200 4.6000 -0.2800
f 72/8 71/8 70/8 69/8
v -0.2200 4.6000 -0.2800
v -0.2800 4.6000 -0.2800
v -0.2800 0.4500 -0.2800
v -0.2200 0.4500 -0.2800
f 76/8 75/8 74/8 73/8
v -0.2200 0.4500 -0.2200
v -0.2800 0.4500 -0.2200
v -0.2800 4.6000 -0.2200
v -0.2200 4.6000 -0.2200
f 80/8 79/8 78/8 77/8
v -0.2200 0.4500 -0.2800
v -0.2200 0.4500 -0.2200
v -0.2200 4.6000 -0.2200
v -0.2200 4.6000 -0.2800
f 84/8 83/8 82/8 81/8
v -0.2800 4.6000 -0.2800
v -0.2800 4.6000 -0.2200
v -0.2800 0.4500 -0.2200
v -0.2800 0.4500 -0.2800
f 88/8 87/8 86/8 85/8
v -0.2800 0.4500 -0.2800
v -0.2800 0.4500 -0.2200
v -0.2200 0.4500 -0.2200
v -0.2200 0.4500 -0.2800
f 92/8 91/8 90/8 89/8
v -0.2200 4.6000 -0.2800
v -0.2200 4.6000 -0.2200
v -0.2800 4.6000 -0.2200
v -0.2800 4.6000 -0.2800
f 96/8 95/8 94/8 93/8
v -0.2200 4.6000 0.2200
v -0.2800 4.6000 0.2200
v -0.2800 0.4500 0.2200
v -0.2200 0.4500 0.2200
f 100/8 99/8 98/8 97/8
v -0.2200 0.4500 0.2800
v -0.2800 0.4500 0.2800
v -0.2800 4.6000 0.2800
v -0.2200 4.6000 0.2800
f 104/8 103/8 102/8 101/8
v -0.2200 0.4500 0.2200
v -0.2200 0.4500 0.2800
v -0.2200 4.6000 0.2800
v -0.2200 4.6000 0.2200
f 108/8 107/8 106/8 105/8
v -0.2800 4.6000 0.2200
v -0.2800 4.6000 0.2800
v -0.2800 0.4500 0.2800
v -0.2800 0.4500 0.2200
f 112/8 111/8 110/8 109/8
v -0.2800 0.4500 0.2200
v -0.2800 0.4500 0.2800
v -0.2200 0.4500 0.2800
v -0.2200 0.4500 0.2200
f 116/8 115/8 114/8 113/8
v -0.2200 4.6000 0.2200
v -0.2200 4.6000 0.2800
v -0.2800 4.6000 0.2800
v -0.2800 4.6000 0.2200
f 120/8 119/8 118/8 117/8
v 0.2800 4.6000 0.2200
v 0.2200 4.6000 0.2200
v 0.2200 0.4500 0.2200
v 0.2800 0.4500 0.2200
f 124/8 123/8 122/8 121/8
v 0.2800 0.4500 0.2800
v 0.2200 0.4500 0.2800
v 0.2200 4.6000 0.2800
v 0.2800 4.6000 0.2800
f 128/8 127/8 126/8 125/8
v 0.2800 0.4500 0.2200
v 0.2800 0.4500 0.2800
v 0.2800 4.6000 0.2800
v 0.2800 4.6000 0.2200
f 132/8 131/8 130/8 129/8
v 0.2200 4.6000 0.2200
v 0.2200 4.6000 0.2800
v 0.2200 0.4500 0.2800
v 0.2200 0.4500 0.2200
f 136/8 135/8 134/8 133/8
v 0.2200 0.4500 0.2200
v 0.2200 0.4500 0.2800
v 0.2800 0.4500 0.2800
v 0.2800 0.4500 0.2200
f 140/8 139/8 138/8 137/8
v 0.2800 4.6000 0.2200
v 0.2800 4.6000 0.2800
v 0.2200 4.6000 0.2800
v 0.2200 4.6000 0.2200
f 144/8 143/8 142/8 141/8
v -0.2500 0.4320 -0.2320
v -0.2500 0.4680 -0.2320
v 0.2500 0.4680 -0.2320
v 0.2500 0.4320 -0.2320
f 148/8 147/8 146/8 145/8
v 0.2500 0.4320 -0.2680
v 0.2500 0.4680 -0.2680
v -0.2500 0.4680 -0.2680
v -0.2500 0.4320 -0.2680
f 152/8 151/8 150/8 149/8
v 0.2500 0.4320 -0.2320
v 0.2500 0.4320 -0.2680
v -0.2500 0.4320 -0.2680
v -0.2500 0.4320 -0.2320
f 156/8 155/8 154/8 153/8
v -0.2500 0.4680 -0.2320
v -0.2500 0.4680 -0.2680
v 0.2500 0.4680 -0.2680
v 0.2500 0.4680 -0.2320
f 160/8 159/8 158/8 157/8
v 0.2500 0.4680 -0.2320
v 0.2500 0.4680 -0.2680
v 0.2500 0.4320 -0.2680
v 0.2500 0.4320 -0.2320
f 164/8 163/8 162/8 161/8
v -0.2500 0.4320 -0.2320
v -0.2500 0.4320 -0.2680
v -0.2500 0.4680 -0.2680
v -0.2500 0.4680 -0.2320
f 168/8 167/8 166/8 165/8
v -0.2320 0.4320 0.2500
v -0.2320 0.4680 0.2500
v -0.2320 0.4680 -0.2500
v -0.2320 0.4320 -0.2500
f 172/8 171/8 170/8 169/8
v -0.2680 0.4320 -0.2500
v -0.2680 0.4680 -0.2500
v -0.2680 0.4680 0.2500
v -0.2680 0.4320 0.2500
f 176/8 175/8 174/8 173/8
v -0.2320 0.4320 -0.2500
v -0.2680 0.4320 -0.2500
v -0.2680 0.4320 0.2500
v -0.2320 0.4320 0.2500
f 180/8 179/8 178/8 177/8
v -0.2320 0.4680 0.2500
v -0.2680 0.4680 0.2500
v -0.2680 0.4680 -0.2500
v -0.2320 0.4680 -0.2500
f 184/8 183/8 182/8 181/8
v -0.2320 0.4680 -0.2500
v -0.2680 0.4680 -0.2500
v -0.2680 0.4320 -0.2500
v -0.2320 0.4320 -0.2500
f 188/8 187/8 186/8 185/8
v -0.2320 0.4320 0.2500
v -0.2680 0.4320 0.2500
v -0.2680 0.4680 0.2500
v -0.2320 0.4680 0.2500
f 192/8 191/8 190/8 189/8
v 0.2500 0.4320 0.2320
v 0.2500 0.4680 0.2320
v -0.2500 0.4680 0.2320
v -0.2500 0.4320 0.2320
f 196/8 195/8 194/8 193/8
v -0.2500 0.4320 0.2680
v -0.2500 0.4680 0.2680
v 0.2500 0.4680 0.2680
v 0.2500 0.4320 0.2680
f 200/8 199/8 198/8 197/8
v -0.2500 0.4320 0.2320
v -0.2500 0.4320 0.2680
v 0.2500 0.4320 0.2680
v 0.2500 0.4320 0.2320
f 204/8 203/8 202/8 201/8
v 0.2500 0.4680 0.2320
v 0.2500 0.4680 0.2680
v -0.2500 0.4680 0.2680
v -0.2500 0.4680 0.2320
f 208/8 207/8 206/8 205/8
v -0.2500 0.4680 0.2320
v -0.2500 0.4680 0.2680
v -0.2500 0.4320 0.2680
v -0.2500 0.4320 0.2320
f 212/8 211/8 210/8 209/8
v 0.2500 0.4320 0.2320
v 0.2500 0.4320 0.2680
v 0.2500 0.4680 0.2680
v 0.2500 0.4680 0.2320
f 216/8 215/8 214/8 213/8
v 0.2320 0.4320 -0.2500
v 0.2320 0.4680 -0.2500
v 0.2320 0.4680 0.2500
v 0.2320 0.4320 0.2500
f 220/8 219/8 218/8 217/8
v 0.2680 0.4320 0.2500
v 0.2680 0.4680 0.2500
v 0.2680 0.4680 -0.2500
v 0.2680 0.4320 -0.2500
f 224/8 223/8 222/8 221/8
v 0.2320 0.4320 0.2500
v 0.2680 0.4320 0.2500
v 0.2680 0.4320 -0.2500
v 0.2320 0.4320 -0.2500
f 228/8 227/8 226/8 225/8
v 0.2320 0.4680 -0.2500
v 0.2680 0.4680 -0.2500
v 0.2680 0.4680 0.2500
v 0.2320 0.4680 0.2500
f 232/8 231/8 230/8 229/8
v 0.2320 0.4680 0.2500
v 0.2680 0.4680 0.2500
v 0.2680 0.4320 0.2500
v 0.2320 0.4320 0.2500
f 236/8 235/8 234/8 233/8
v 0.2320 0.4320 -0.2500
v 0.2680 0.4320 -0.2500
v 0.2680 0.4680 -0.2500
v 0.2320 0.4680 -0.2500
f 240/8 239/8 238/8 237/8
v -0.2597 0.9594 -0.2365
v -0.2403 0.9781 -0.2365
v 0.2597 0.4594 -0.2365
v 0.2403 0.4406 -0.2365
f 244/8 243/8 242/8 241/8
v 0.2403 0.4406 -0.2635
v 0.2597 0.4594 -0.2635
v -0.2403 0.9781 -0.2635
v -0.2597 0.9594 -0.2635
f 248/8 247/8 246/8 245/8
v 0.2403 0.4406 -0.2365
v 0.2403 0.4406 -0.2635
v -0.2597 0.9594 -0.2635
v -0.2597 0.9594 -0.2365
f 252/8 251/8 250/8 249/8
v -0.2403 0.9781 -0.2365
v -0.2403 0.9781 -0.2635
v 0.2597 0.4594 -0.2635
v 0.2597 0.4594 -0.2365
f 256/8 255/8 254/8 253/8
v 0.2597 0.4594 -0.2365
v 0.2597 0.4594 -0.2635
v 0.2403 0.4406 -0.2635
v 0.2403 0.4406 -0.2365
f 260/8 259/8 258/8 257/8
v -0.2597 0.9594 -0.2365
v -0.2597 0.9594 -0.2635
v -0.2403 0.9781 -0.2635
v -0.2403 0.9781 -0.2365
f 264/8 263/8 262/8 261/8
v -0.2365 0.9594 0.2597
v -0.2365 0.9781 0.2403
v -0.2365 0.4594 -0.2597
v -0.2365 0.4406 -0.2403
f 268/8 267/8 266/8 265/8
v -0.2635 0.4406 -0.2403
v -0.2635 0.4594 -0.2597
v -0.2635 0.9781 0.2403
v -0.2635 0.9594 0.2597
f 272/8 271/8 270/8 269/8
v -0.2365 0.4406 -0.2403
v -0.2635 0.4406 -0.2403
v -0.2635 0.9594 0.2597
v -0.2365 0.9594 0.2597
f 276/8 275/8 274/8 273/8
v -0.2365 0.9781 0.2403
v -0.2635 0.9781 0.2403
v -0.2635 0.4594 -0.2597
v -0.2365 0.4594 -0.2597
f 280/8 279/8 278/8 277/8
v -0.2365 0.4594 -0.2597
v -0.2635 0.4594 -0.2597
v -0.2635 0.4406 -0.2403
v -0.2365 0.4406 -0.2403
f 284/8 283/8 282/8 281/8
v -0.2365 0.9594 0.2597
v -0.2635 0.9594 0.2597
v -0.2635 0.9781 0.2403
v -0.2365 0.9781 0.2403
f 288/8 287/8 286/8 285/8
v 0.2597 0.9594 0.2365
v 0.2403 0.9781 0.2365
v -0.2597 0.4594 0.2365
v -0.2403 0.4406 0.2365
f 292/8 291/8 290/8 289/8
v -0.2403 0.4406 0.2635
v -0.2597 0.4594 0.2635
v 0.2403 0.9781 0.2635
v 0.2597 0.9594 0.2635
f 296/8 295/8 294/8 293/8
v -0.2403 0.4406 0.2365
v -0.2403 0.4406 0.2635
v 0.2597 0.9594 0.2635
v 0.2597 0.9594 0.2365
f 300/8 299/8 298/8 297/8
v 0.2403 0.9781 0.2365
v 0.2403 0.9781 0.2635
v -0.2597 0.4594 0.2635
v -0.2597 0.4594 0.2365
f 304/8 303/8 302/8 301/8
v -0.2597 0.4594 0.2365
v -0.2597 0.4594 0.2635
v -0.2403 0.4406 0.2635
v -0.2403 0.4406 0.2365
f 308/8 307/8 306/8 305/8
v 0.2597 0.9594 0.2365
v 0.2597 0.9594 0.2635
v 0.2403 0.9781 0.2635
v 0.2403 0.9781 0.2365
f 312/8 311/8 310/8 309/8
v 0.2365 0.9594 -0.2597
v 0.2365 0.9781 -0.2403
v 0.2365 0.4594 0.2597
v 0.2365 0.4406 0.2403
f 316/8 315/8 314/8 313/8
v 0.2635 0.4406 0.2403
v 0.2635 0.4594 0.2597
v 0.2635 0.9781 -0.2403
v 0.2635 0.9594 -0.2597
f 320/8 319/8 318/8 317/8
v 0.2365 0.4406 0.2403
v 0.2635 0.4406 0.2403
v 0.2635 0.9594 -0.2597
v 0.2365 0.9594 -0.2597
f 324/8 323/8 322/8 321/8
v 0.2365 0.9781 -0.2403
v 0.2635 0.9781 -0.2403
v 0.2635 0.4594 0.2597
v 0.2365 0.4594 0.2597
f 328/8 327/8 326/8 325/8
v 0.2365 0.4594 0.2597
v 0.2635 0.4594 0.2597
v 0.2635 0.4406 0.2403
v 0.2365 0.4406 0.2403
f 332/8 331/8 330/8 329/8
v 0.2365 0.9594 -0.2597
v 0.2635 0.9594 -0.2597
v 0.2635 0.9781 -0.2403
v 0.2365 0.9781 -0.2403
f 336/8 335/8 334/8 333/8
v -0.2500 0.9507 -0.2320
v -0.2500 0.9868 -0.2320
v 0.2500 0.9868 -0.2320
v 0.2500 0.9507 -0.2320
f 340/8 339/8 338/8 337/8
v 0.2500 0.9507 -0.2680
v 0.2500 0.9868 -0.2680
v -0.2500 0.9868 -0.2680
v -0.2500 0.9507 -0.2680
f 344/8 343/8 342/8 341/8
v 0.2500 0.9507 -0.2320
v 0.2500 0.9507 -0.2680
v -0.2500 0.9507 -0.2680
v -0.2500 0.9507 -0.2320
f 348/8 347/8 346/8 345/8
v -0.2500 0.9868 -0.2320
v -0.2500 0.9868 -0.2680
v 0.2500 0.9868 -0.2680
v 0.2500 0.9868 -0.2320
f 352/8 351/8 350/8 349/8
v 0.2500 0.9868 -0.2320
v 0.2500 0.9868 -0.2680
v 0.2500 0.9507 -0.2680
v 0.2500 0.9507 -0.2320
f 356/8 355/8 354/8 353/8
v -0.2500 0.9507 -0.2320
v -0.2500 0.9507 -0.2680
v -0.2500 0.9868 -0.2680
v -0.2500 0.9868 -0.2320
f 360/8 359/8 358/8 357/8
v -0.2320 0.9507 0.2500
v -0.2320 0.9868 0.2500
v -0.2320 0.9868 -0.2500
v -0.2320 0.9507 -0.2500
f 364/8 363/8 362/8 361/8
v -0.2680 0.9507 -0.2500
v -0.2680 0.9868 -0.2500
v -0.2680 0.9868 0.2500
v -0.2680 0.9507 0.2500
f 368/8 367/8 366/8 365/8
v -0.2320 0.9507 -0.2500
v -0.2680 0.9507 -0.2500
v -0.2680 0.9507 0.2500
v -0.2320 0.9507 0.2500
f 372/8 371/8 370/8 369/8
v -0.2320 0.9868 0.2500
v -0.2680 0.9868 0.2500
v -0.2680 0.9868 -0.2500
v -0.2320 0.9868 -0.2500
f 376/8 375/8 374/8 373/8
v -0.2320 0.9868 -0.2500
v -0.2680 0.9868 -0.2500
v -0.2680 0.9507 -0.2500
v -0.2320 0.9507 -0.2500
f 380/8 379/8 378/8 377/8
v -0.2320 0.9507 0.2500
v -0.2680 0.9507 0.2500
v -0.2680 0.9868 0.2500
v -0.2320 0.9868 0.2500
f 384/8 383/8 382/8 381/8
v 0.2500 0.9507 0.2320
v 0.2500 0.9868 0.2320
v -0.2500 0.9868 0.2320
v -0.2500 0.9507 0.2320
f 388/8 387/8 386/8 385/8
v -0.2500 0.9507 0.2680
v -0.2500 0.9868 0.2680
v 0.2500 0.9868 0.2680
v 0.2500 0.9507 0.2680
f 392/8 391/8 390/8 389/8
v -0.2500 0.9507 0.2320
v -0.2500 0.9507 0.2680
v 0.2500 0.9507 0.2680
v 0.2500 0.9507 0.2320
f 396/8 395/8 394/8 393/8
v 0.2500 0.9868 0.2320
v 0.2500 0.9868 0.2680
v -0.2500 0.9868 0.2680
v -0.2500 0.9868 0.2320
f 400/8 399/8 398/8 397/8
v -0.2500 0.9868 0.2320
v -0.2500 0.9868 0.2680
v -0.2500 0.9507 0.2680
v -0.2500 0.9507 0.2320
f 404/8 403/8 402/8 401/8
v 0.2500 0.9507 0.2320
v 0.2500 0.9507 0.2680
v 0.2500 0.9868 0.2680
v 0.2500 0.9868 0.2320
f 408/8 407/8 406/8 405/8
v 0.2320 0.9507 -0.2500
v 0.2320 0.9868 -0.2500
v 0.2320 0.9868 0.2500
v 0.2320 0.9507 0.2500
f 412/8 411/8 410/8 409/8
v 0.2680 0.9507 0.2500
v 0.2680 0.9868 0.2500
v 0.2680 0.9868 -0.2500
v 0.2680 0.9507 -0.2500
f 416/8 415/8 414/8 413/8
v 0.2320 0.9507 0.2500
v 0.2680 0.9507 0.2500
v 0.2680 0.9507 -0.2500
v 0.2320 0.9507 -0.2500
f 420/8 419/8 418/8 417/8
v 0.2320 0.9868 -0.2500
v 0.2680 0.9868 -0.2500
v 0.2680 0.9868 0.2500
v 0.2320 0.9868 0.2500
f 424/8 423/8 422/8 421/8
v 0.2320 0.9868 0.2500
v 0.2680 0.9868 0.2500
v 0.2680 0.9507 0.2500
v 0.2320 0.9507 0.2500
f 428/8 427/8 426/8 425/8
v 0.2320 0.9507 -0.2500
v 0.2680 0.9507 -0.2500
v 0.2680 0.9868 -0.2500
v 0.2320 0.9868 -0.2500
f 432/8 431/8 430/8 429/8
v -0.2597 1.4781 -0.2365
v -0.2403 1.4969 -0.2365
v 0.2597 0.9781 -0.2365
v 0.2403 0.9594 -0.2365
f 436/8 435/8 434/8 433/8
v 0.2403 0.9594 -0.2635
v 0.2597 0.9781 -0.2635
v -0.2403 1.4969 -0.2635
v -0.2597 1.4781 -0.2635
f 440/8 439/8 438/8 437/8
v 0.2403 0.9594 -0.2365
v 0.2403 0.9594 -0.2635
v -0.2597 1.4781 -0.2635
v -0.2597 1.4781 -0.2365
f 444/8 443/8 442/8 441/8
v -0.2403 1.4969 -0.2365
v -0.2403 1.4969 -0.2635
v 0.2597 0.9781 -0.2635
v 0.2597 0.9781 -0.2365
f 448/8 447/8 446/8 445/8
v 0.2597 0.9781 -0.2365
v 0.2597 0.9781 -0.2635
v 0.2403 0.9594 -0.2635
v 0.2403 0.9594 -0.2365
f 452/8 451/8 450/8 449/8
v -0.2597 1.4781 -0.2365
v -0.2597 1.4781 -0.2635
v -0.2403 1.4969 -0.2635
v -0.2403 1.4969 -0.2365
f 456/8 455/8 454/8 453/8
v -0.2365 1.4781 0.2597
v -0.2365 1.4969 0.2403
v -0.2365 0.9781 -0.2597
v -0.2365 0.9594 -0.2403
f 460/8 459/8 458/8 457/8
v -0.2635 0.9594 -0.2403
v -0.2635 0.9781 -0.2597
v -0.2635 1.4969 0.2403
v -0.2635 1.4781 0.2597
f 464/8 463/8 462/8 461/8
v -0.2365 0.9594 -0.2403
v -0.2635 0.9594 -0.2403
v -0.2635 1.4781 0.2597
v -0.2365 1.4781 0.2597
f 468/8 467/8 466/8 465/8
v -0.2365 1.4969 0.2403
v -0.2635 1.4969 0.2403
v -0.2635 0.9781 -0.2597
v -0.2365 0.9781 -0.2597
f 472/8 471/8 470/8 469/8
v -0.2365 0.9781 -0.2597
v -0.2635 0.9781 -0.2597
v -0.2635 0.9594 -0.2403
v -0.2365 0.9594 -0.2403
f 476/8 475/8 474/8 473/8
v -0.2365 1.4781 0.2597
v -0.2635 1.4781 0.2597
v -0.2635 1.4969 0.2403
v -0.2365 1.4969 0.2403
f 480/8 479/8 478/8 477/8
v 0.2597 1.4781 0.2365
v 0.2403 1.4969 0.2365
v -0.2597 0.9781 0.2365
v -0.2403 0.9594 0.2365
f 484/8 483/8 482/8 481/8
v -0.2403 0.9594 0.2635
v -0.2597 0.9781 0.2635
v 0.2403 1.4969 0.2635
v 0.2597 1.4781 0.2635
f 488/8 487/8 486/8 485/8
v -0.2403 0.9594 0.2365
v -0.2403 0.9594 0.2635
v 0.2597 1.4781 0.2635
v 0.2597 1.4781 0.2365
f 492/8 491/8 490/8 489/8
v 0.2403 1.4969 0.2365
v 0.2403 1.4969 0.2635
v -0.2597 0.9781 0.2635
v -0.2597 0.9781 0.2365
f 496/8 495/8 494/8 493/8
v -0.2597 0.9781 0.2365
v -0.2597 0.9781 0.2635
v -0.2403 0.9594 0.2635
v -0.2403 0.9594 0.2365
f 500/8 499/8 498/8 497/8
v 0.2597 1.4781 0.2365
v 0.2597 1.4781 0.2635
v 0.2403 1.4969 0.2635
v 0.2403 1.4969 0.2365
f 504/8 503/8 502/8 501/8
v 0.2365 1.4781 -0.2597
v 0.2365 1.4969 -0.2403
v 0.2365 0.9781 0.2597
v 0.2365 0.9594 0.2403
f 508/8 507/8 506/8 505/8
v 0.2635 0.9594 0.2403
v 0.2635 0.9781 0.2597
v 0.2635 1.4969 -0.2403
v 0.2635 1.4781 -0.2597
f 512/8 511/8 510/8 509/8
v 0.2365 0.9594 0.2403
v 0.2635 0.9594 0.2403
v 0.2635 1.4781 -0.2597
v 0.2365 1.4781 -0.2597
f 516/8 515/8 514/8 513/8
v 0.2365 1.4969 -0.2403
v 0.2635 1.4969 -0.2403
v 0.2635 0.9781 0.2597
v 0.2365 0.9781 0.2597
f 520/8 519/8 518/8 517/8
v 0.2365 0.9781 0.2597
v 0.2635 0.9781 0.2597
v 0.2635 0.9594 0.2403
v 0.2365 0.9594 0.2403
f 524/8 523/8 522/8 521/8
v 0.2365 1.4781 -0.2597
v 0.2635 1.4781 -0.2597
v 0.2635 1.4969 -0.2403
v 0.2365 1.4969 -0.2403
f 528/8 527/8 526/8 525/8
v -0.2500 1.4695 -0.2320
v -0.2500 1.5055 -0.2320
v 0.2500 1.5055 -0.2320
v 0.2500 1.4695 -0.2320
f 532/8 531/8 530/8 529/8
v 0.2500 1.4695 -0.2680
v 0.2500 1.5055 -0.2680
v -0.2500 1.5055 -0.2680
v -0.2500 1.4695 -0.2680
f 536/8 535/8 534/8 533/8
v 0.2500 1.4695 -0.2320
v 0.2500 1.4695 -0.2680
v -0.2500 1.4695 -0.2680
v -0.2500 1.4695 -0.2320
f 540/8 539/8 538/8 537/8
v -0.2500 1.5055 -0.2320
v -0.2500 1.5055 -0.2680
v 0.2500 1.5055 -0.2680
v 0.2500 1.5055 -0.2320
f 544/8 543/8 542/8 541/8
v 0.2500 1.5055 -0.2320
v 0.2500 1.5055 -0.2680
v 0.2500 1.4695 -0.2680
v 0.2500 1.4695 -0.2320
f 548/8 547/8 546/8 545/8
v -0.2500 1.4695 -0.2320
v -0.2500 1.4695 -0.2680
v -0.2500 1.5055 -0.2680
v -0.2500 1.5055 -0.2320
f 552/8 551/8 550/8 549/8
v -0.2320 1.4695 0.2500
v -0.2320 1.5055 0.2500
v -0.2320 1.5055 -0.2500
v -0.2320 1.4695 -0.2500
f 556/8 555/8 554/8 553/8
v -0.2680 1.4695 -0.2500
v -0.2680 1.5055 -0.2500
v -0.2680 1.5055 0.2500
v -0.2680 1.4695 0.2500
f 560/8 559/8 558/8 557/8
v -0.2320 1.4695 -0.2500
v -0.2680 1.4695 -0.2500
v -0.2680 1.4695 0.2500
v -0.2320 1.4695 0.2500
f 564/8 563/8 562/8 561/8
v -0.2320 1.5055 0.2500
v -0.2680 1.5055 0.2500
v -0.2680 1.5055 -0.2500
v -0.2320 1.5055 -0.2500
f 568/8 567/8 566/8 565/8
v -0.2320 1.5055 -0.2500
v -0.2680 1.5055 -0.2500
v -0.2680 1.4695 -0.2500
v -0.2320 1.4695 -0.2500
f 572/8 571/8 570/8 569/8
v -0.2320 1.4695 0.2500
v -0.2680 1.4695 0.2500
v -0.2680 1.5055 0.2500
v -0.2320 1.5055 0.2500
f 576/8 575/8 574/8 573/8
v 0.2500 1.4695 0.2320
v 0.2500 1.5055 0.2320
v -0.2500 1.5055 0.2320
v -0.2500 1.4695 0.2320
f 580/8 579/8 578/8 577/8
v -0.2500 1.4695 0.2680
v -0.2500 1.5055 0.2680
v 0.2500 1.5055 0.2680
v 0.2500 1.4695 0.2680
f 584/8 583/8 582/8 581/8
v -0.2500 1.4695 0.2320
v -0.2500 1.4695 0.2680
v 0.2500 1.4695 0.2680
v 0.2500 1.4695 0.2320
f 588/8 587/8 586/8 585/8
v 0.2500 1.5055 0.2320
v 0.2500 1.5055 0.2680
v -0.2500 1.5055 0.2680
v -0.2500 1.5055 0.2320
f 592/8 591/8 590/8 589/8
v -0.2500 1.5055 0.2320
v -0.2500 1.5055 0.2680
v -0.2500 1.4695 0.2680
v -0.2500 1.4695 0.2320
f 596/8 595/8 594/8 593/8
v 0.2500 1.4695 0.2320
v 0.2500 1.4695 0.2680
v 0.2500 1.5055 0.2680
v 0.2500 1.5055 0.2320
f 600/8 599/8 598/8 597/8
v 0.2320 1.4695 -0.2500
v 0.2320 1.5055 -0.2500
v 0.2320 1.5055 0.2500
v 0.2320 1.4695 0.2500
f 604/8 603/8 602/8 601/8
v 0.2680 1.4695 0.2500
v 0.2680 1.5055 0.2500
v 0.2680 1.5055 -0.2500
v 0.2680 1.4695 -0.2500
f 608/8 607/8 606/8 605/8
v 0.2320 1.4695 0.2500
v 0.2680 1.4695 0.2500
v 0.2680 1.4695 -0.2500
v 0.2320 1.4695 -0.2500
f 612/8 611/8 610/8 609/8
v 0.2320 1.5055 -0.2500
v 0.2680 1.5055 -0.2500
v 0.2680 1.5055 0.2500
v 0.2320 1.5055 0.2500
f 616/8 615/8 614/8 613/8
v 0.2320 1.5055 0.2500
v 0.2680 1.5055 0.2500
v 0.2680 1.4695 0.2500
v 0.2320 1.4695 0.2500
f 620/8 619/8 618/8 617/8
v 0.2320 1.4695 -0.2500
v 0.2680 1.4695 -0.2500
v 0.2680 1.5055 -0.2500
v 0.2320 1.5055 -0.2500
f 624/8 623/8 622/8 621/8
v -0.2597 1.9969 -0.2365
v -0.2403 2.0156 -0.2365
v 0.2597 1.4969 -0.2365
v 0.2403 1.4781 -0.2365
f 628/8 627/8 626/8 625/8
v 0.2403 1.4781 -0.2635
v 0.2597 1.4969 -0.2635
v -0.2403 2.0156 -0.2635
v -0.2597 1.9969 -0.2635
f 632/8 631/8 630/8 629/8
v 0.2403 1.4781 -0.2365
v 0.2403 1.4781 -0.2635
v -0.2597 1.9969 -0.2635
v -0.2597 1.9969 -0.2365
f 636/8 635/8 634/8 633/8
v -0.2403 2.0156 -0.2365
v -0.2403 2.0156 -0.2635
v 0.2597 1.4969 -0.2635
v 0.2597 1.4969 -0.2365
f 640/8 639/8 638/8 637/8
v 0.2597 1.4969 -0.2365
v 0.2597 1.4969 -0.2635
v 0.2403 1.4781 -0.2635
v 0.2403 1.4781 -0.2365
f 644/8 643/8 642/8 641/8
v -0.2597 1.9969 -0.2365
v -0.2597 1.9969 -0.2635
v -0.2403 2.0156 -0.2635
v -0.2403 2.0156 -0.2365
f 648/8 647/8 646/8 645/8
v -0.2365 1.9969 0.2597
v -0.2365 2.0156 0.2403
v -0.2365 1.4969 -0.2597
v -0.2365 1.4781 -0.2403
f 652/8 651/8 650/8 649/8
v -0.2635 1.4781 -0.2403
v -0.2635 1.4969 -0.2597
v -0.2635 2.0156 0.2403
v -0.2635 1.9969 0.2597
f 656/8 655/8 654/8 653/8
v -0.2365 1.4781 -0.2403
v -0.2635 1.4781 -0.2403
v -0.2635 1.9969 0.2597
v -0.2365 1.9969 0.2597
f 660/8 659/8 658/8 657/8
v -0.2365 2.0156 0.2403
v -0.2635 2.0156 0.2403
v -0.2635 1.4969 -0.2597
v -0.2365 1.4969 -0.2597
f 664/8 663/8 662/8 661/8
v -0.2365 1.4969 -0.2597
v -0.2635 1.4969 -0.2597
v -0.2635 1.4781 -0.2403
v -0.2365 1.4781 -0.2403
f 668/8 667/8 666/8 665/8
v -0.2365 1.9969 0.2597
v -0.2635 1.9969 0.2597
v -0.2635 2.0156 0.2403
v -0.2365 2.0156 0.2403
f 672/8 671/8 670/8 669/8
v 0.2597 1.9969 0.2365
v 0.2403 2.0156 0.2365
v -0.2597 1.4969 0.2365
v -0.2403 1.4781 0.2365
f 676/8 675/8 674/8 673/8
v -0.2403 1.4781 0.2635
v -0.2597 1.4969 0.2635
v 0.2403 2.0156 0.2635
v 0.2597 1.9969 0.2635
f 680/8 679/8 678/8 677/8
v -0.2403 1.4781 0.2365
v -0.2403 1.4781 0.2635
v 0.2597 1.9969 0.2635
v 0.2597 1.9969 0.2365
f 684/8 683/8 682/8 681/8
v 0.2403 2.0156 0.2365
v 0.2403 2.0156 0.2635
v -0.2597 1.4969 0.2635
v -0.2597 1.4969 0.2365
f 688/8 687/8 686/8 685/8
v -0.2597 1.4969 0.2365
v -0.2597 1.4969 0.2635
v -0.2403 1.4781 0.2635
v -0.2403 1.4781 0.2365
f 692/8 691/8 690/8 689/8
v 0.2597 1.9969 0.2365
v 0.2597 1.9969 0.2635
v 0.2403 2.0156 0.2635
v 0.2403 2.0156 0.2365
f 696/8 695/8 694/8 693/8
v 0.2365 1.9969 -0.2597
v 0.2365 2.0156 -0.2403
v 0.2365 1.4969 0.2597
v 0.2365 1.4781 0.2403
f 700/8 699/8 698/8 697/8
v 0.2635 1.4781 0.2403
v 0.2635 1.4969 0.2597
v 0.2635 2.0156 -0.2403
v 0.2635 1.9969 -0.2597
f 704/8 703/8 702/8 701/8
v 0.2365 1.4781 0.2403
v 0.2635 1.4781 0.2403
v 0.2635 1.9969 -0.2597
v 0.2365 1.9969 -0.2597
f 708/8 707/8 706/8 705/8
v 0.2365 2.0156 -0.2403
v 0.2635 2.0156 -0.2403
v 0.2635 1.4969 0.2597
v 0.2365 1.4969 0.2597
f 712/8 711/8 710/8 709/8
v 0.2365 1.4969 0.2597
v 0.2635 1.4969 0.2597
v 0.2635 1.4781 0.2403
v 0.2365 1.4781 0.2403
f 716/8 715/8 714/8 713/8
v 0.2365 1.9969 -0.2597
v 0.2635 1.9969 -0.2597
v 0.2635 2.0156 -0.2403
v 0.2365 2.0156 -0.2403
f 720/8 719/8 718/8 717/8
v -0.2500 1.9883 -0.2320
v -0.2500 2.0242 -0.2320
v 0.2500 2.0242 -0.2320
v 0.2500 1.9883 -0.2320
f 724/8 723/8 722/8 721/8
v 0.2500 1.9883 -0.2680
v 0.2500 2.0242 -0.2680
v -0.2500 2.0242 -0.2680
v -0.2500 1.9883 -0.2680
f 728/8 727/8 726/8 725/8
v 0.2500 1.9883 -0.2320
v 0.2500 1.9883 -0.2680
v -0.2500 1.9883 -0.2680
v -0.2500 1.9883 -0.2320
f 732/8 731/8 730/8 729/8
v -0.2500 2.0242 -0.2320
v -0.2500 2.0242 -0.2680
v 0.2500 2.0242 -0.2680
v 0.2500 2.0242 -0.2320
f 736/8 735/8 734/8 733/8
v 0.2500 2.0242 -0.2320
v 0.2500 2.0242 -0.2680
v 0.2500 1.9883 -0.2680
v 0.2500 1.9883 -0.2320
f 740/8 739/8 738/8 737/8
v -0.2500 1.9883 -0.2320
v -0.2500 1.9883 -0.2680
v -0.2500 2.0242 -0.2680
v -0.2500 2.0242 -0.2320
f 744/8 743/8 742/8 741/8
v -0.2320 1.9883 0.2500
v -0.2320 2.0242 0.2500
v -0.2320 2.0242 -0.2500
v -0.2320 1.9883 -0.2500
f 748/8 747/8 746/8 745/8
v -0.2680 1.9883 -0.2500
v -0.2680 2.0242 -0.2500
v -0.2680 2.0242 0.2500
v -0.2680 1.9883 0.2500
f 752/8 751/8 750/8 749/8
v -0.2320 1.9883 -0.2500
v -0.2680 1.9883 -0.2500
v -0.2680 1.9883 0.2500
v -0.2320 1.9883 0.2500
f 756/8 755/8 754/8 753/8
v -0.2320 2.0242 0.2500
v -0.2680 2.0242 0.2500
v -0.2680 2.0242 -0.2500
v -0.2320 2.0242 -0.2500
f 760/8 759/8 758/8 757/8
v -0.2320 2.0242 -0.2500
v -0.2680 2.0242 -0.2500
v -0.2680 1.9883 -0.2500
v -0.2320 1.9883 -0.2500
f 764/8 763/8 762/8 761/8
v -0.2320 1.9883 0.2500
v -0.2680 1.9883 0.2500
v -0.2680 2.0242 0.2500
v -0.2320 2.0242 0.2500
f 768/8 767/8 766/8 765/8
v 0.2500 1.9883 0.2320
v 0.2500 2.0242 0.2320
v -0.2500 2.0242 0.2320
v -0.2500 1.9883 0.2320
f 772/8 771/8 770/8 769/8
v -0.2500 1.9883 0.2680
v -0.2500 2.0242 0.2680
v 0.2500 2.0242 0.2680
v 0.2500 1.9883 0.2680
f 776/8 775/8 774/8 773/8
v -0.2500 1.9883 0.2320
v -0.2500 1.9883 0.2680
v 0.2500 1.9883 0.2680
v 0.2500 1.9883 0.2320
f 780/8 779/8 778/8 777/8
v 0.2500 2.0242 0.2320
v 0.2500 2.0242 0.2680
v -0.2500 2.0242 0.2680
v -0.2500 2.0242 0.2320
f 784/8 783/8 782/8 781/8
v -0.2500 2.0242 0.2320
v -0.2500 2.0242 0.2680
v -0.2500 1.9883 0.2680
v -0.2500 1.9883 0.2320
f 788/8 787/8 786/8 785/8
v 0.2500 1.9883 0.2320
v 0.2500 1.9883 0.2680
v 0.2500 2.0242 0.2680
v 0.2500 2.0242 0.2320
f 792/8 791/8 790/8 789/8
v 0.2320 1.9883 -0.2500
v 0.2320 2.0242 -0.2500
v 0.2320 2.0242 0.2500
v 0.2320 1.9883 0.2500
f 796/8 795/8 794/8 793/8
v 0.2680 1.9883 0.2500
v 0.2680 2.0242 0.2500
v 0.2680 2.0242 -0.2500
v 0.2680 1.9883 -0.2500
f 800/8 799/8 798/8 797/8
v 0.2320 1.9883 0.2500
v 0.2680 1.9883 0.2500
v 0.2680 1.9883 -0.2500
v 0.2320 1.9883 -0.2500
f 804/8 803/8 802/8 801/8
v 0.2320 2.0242 -0.2500
v 0.2680 2.0242 -0.2500
v 0.2680 2.0242 0.2500
v 0.2320 2.0242 0.2500
f 808/8 807/8 806/8 805/8
v 0.2320 2.0242 0.2500
v 0.2680 2.0242 0.2500
v 0.2680 1.9883 0.2500
v 0.2320 1.9883 0.2500
f 812/8 811/8 810/8 809/8
v 0.2320 1.9883 -0.2500
v 0.2680 1.9883 -0.2500
v 0.2680 2.0242 -0.2500
v 0.2320 2.0242 -0.2500
f 816/8 815/8 814/8 813/8
v -0.2597 2.5156 -0.2365
v -0.2403 2.5344 -0.2365
v 0.2597 2.0156 -0.2365
v 0.2403 1.9969 -0.2365
f 820/8 819/8 818/8 817/8
v 0.2403 1.9969 -0.2635
v 0.2597 2.0156 -0.2635
v -0.2403 2.5344 -0.2635
v -0.2597 2.5156 -0.2635
f 824/8 823/8 822/8 821/8
v 0.2403 1.9969 -0.2365
v 0.2403 1.9969 -0.2635
v -0.2597 2.5156 -0.2635
v -0.2597 2.5156 -0.2365
f 828/8 827/8 826/8 825/8
v -0.2403 2.5344 -0.2365
v -0.2403 2.5344 -0.2635
v 0.2597 2.0156 -0.2635
v 0.2597 2.0156 -0.2365
f 832/8 831/8 830/8 829/8
v 0.2597 2.0156 -0.2365
v 0.2597 2.0156 -0.2635
v 0.2403 1.9969 -0.2635
v 0.2403 1.9969 -0.2365
f 836/8 835/8 834/8 833/8
v -0.2597 2.5156 -0.2365
v -0.2597 2.5156 -0.2635
v -0.2403 2.5344 -0.2635
v -0.2403 2.5344 -0.2365
f 840/8 839/8 838/8 837/8
v -0.2365 2.5156 0.2597
v -0.2365 2.5344 0.2403
v -0.2365 2.0156 -0.2597
v -0.2365 1.9969 -0.2403
f 844/8 843/8 842/8 841/8
v -0.2635 1.9969 -0.2403
v -0.2635 2.0156 -0.2597
v -0.2635 2.5344 0.2403
v -0.2635 2.5156 0.2597
f 848/8 847/8 846/8 845/8
v -0.2365 1.9969 -0.2403
v -0.2635 1.9969 -0.2403
v -0.2635 2.5156 0.2597
v -0.2365 2.5156 0.2597
f 852/8 851/8 850/8 849/8
v -0.2365 2.5344 0.2403
v -0.2635 2.5344 0.2403
v -0.2635 2.0156 -0.2597
v -0.2365 2.0156 -0.2597
f 856/8 855/8 854/8 853/8
v -0.2365 2.0156 -0.2597
v -0.2635 2.0156 -0.2597
v -0.2635 1.9969 -0.2403
v -0.2365 1.9969 -0.2403
f 860/8 859/8 858/8 857/8
v -0.2365 2.5156 0.2597
v -0.2635 2.5156 0.2597
v -0.2635 2.5344 0.2403
v -0.2365 2.5344 0.2403
f 864/8 863/8 862/8 861/8
v 0.2597 2.5156 0.2365
v 0.2403 2.5344 0.2365
v -0.2597 2.0156 0.2365
v -0.2403 1.9969 0.2365
f 868/8 867/8 866/8 865/8
v -0.2403 1.9969 0.2635
v -0.2597 2.0156 0.2635
v 0.2403 2.5344 0.2635
v 0.2597 2.5156 0.2635
f 872/8 871/8 870/8 869/8
v -0.2403 1.9969 0.2365
v -0.2403 1.9969 0.2635
v 0.2597 2.5156 0.2635
v 0.2597 2.5156 0.2365
f 876/8 875/8 874/8 873/8
v 0.2403 2.5344 0.2365
v 0.2403 2.5344 0.2635
v -0.2597 2.0156 0.2635
v -0.2597 2.0156 0.2365
f 880/8 879/8 878/8 877/8
v -0.2597 2.0156 0.2365
v -0.2597 2.0156 0.2635
v -0.2403 1.9969 0.2635
v -0.2403 1.9969 0.2365
f 884/8 883/8 882/8 881/8
v 0.2597 2.5156 0.2365
v 0.2597 2.5156 0.2635
v 0.2403 2.5344 0.2635
v 0.2403 2.5344 0.2365
f 888/8 887/8 886/8 885/8
v 0.2365 2.5156 -0.2597
v 0.2365 2.5344 -0.2403
v 0.2365 2.0156 0.2597
v 0.2365 1.9969 0.2403
f 892/8 891/8 890/8 889/8
v 0.2635 1.9969 0.2403
v 0.2635 2.0156 0.2597
v 0.2635 2.5344 -0.2403
v 0.2635 2.5156 -0.2597
f 896/8 895/8 894/8 893/8
v 0.2365 1.9969 0.2403
v 0.2635 1.9969 0.2403
v 0.2635 2.5156 -0.2597
v 0.2365 2.5156 -0.2597
f 900/8 899/8 898/8 897/8
v 0.2365 2.5344 -0.2403
v 0.2635 2.5344 -0.2403
v 0.2635 2.0156 0.2597
v 0.2365 2.0156 0.2597
f 904/8 903/8 902/8 901/8
v 0.2365 2.0156 0.2597
v 0.2635 2.0156 0.2597
v 0.2635 1.9969 0.2403
v 0.2365 1.9969 0.2403
f 908/8 907/8 906/8 905/8
v 0.2365 2.5156 -0.2597
v 0.2635 2.5156 -0.2597
v 0.2635 2.5344 -0.2403
v 0.2365 2.5344 -0.2403
f 912/8 911/8 910/8 909/8
v -0.2500 2.5070 -0.2320
v -0.2500 2.5430 -0.2320
v 0.2500 2.5430 -0.2320
v 0.2500 2.5070 -0.2320
f 916/8 915/8 914/8 913/8
v 0.2500 2.5070 -0.2680
v 0.2500 2.5430 -0.2680
v -0.2500 2.5430 -0.2680
v -0.2500 2.5070 -0.2680
f 920/8 919/8 918/8 917/8
v 0.2500 2.5070 -0.2320
v 0.2500 2.5070 -0.2680
v -0.2500 2.5070 -0.2680
v -0.2500 2.5070 -0.2320
f 924/8 923/8 922/8 921/8
v -0.2500 2.5430 -0.2320
v -0.2500 2.5430 -0.2680
v 0.2500 2.5430 -0.2680
v 0.2500 2.5430 -0.2320
f 928/8 927/8 926/8 925/8
v 0.2500 2.5430 -0.2320
v 0.2500 2.5430 -0.2680
v 0.2500 2.5070 -0.2680
v 0.2500 2.5070 -0.2320
f 932/8 931/8 930/8 929/8
v -0.2500 2.5070 -0.2320
v -0.2500 2.5070 -0.2680
v -0.2500 2.5430 -0.2680
v -0.2500 2.5430 -0.2320
f 936/8 935/8 934/8 933/8
v -0.2320 2.5070 0.2500
v -0.2320 2.5430 0.2500
v -0.2320 2.5430 -0.2500
v -0.2320 2.5070 -0.2500
f 940/8 939/8 938/8 937/8
v -0.2680 2.5070 -0.2500
v -0.2680 2.5430 -0.2500
v -0.2680 2.5430 0.2500
v -0.2680 2.5070 0.2500
f 944/8 943/8 942/8 941/8
v -0.2320 2.5070 -0.2500
v -0.2680 2.5070 -0.2500
v -0.2680 2.5070 0.2500
v -0.2320 2.5070 0.2500
f 948/8 947/8 946/8 945/8
v -0.2320 2.5430 0.2500
v -0.2680 2.5430 0.2500
v -0.2680 2.5430 -0.2500
v -0.2320 2.5430 -0.2500
f 952/8 951/8 950/8 949/8
v -0.2320 2.5430 -0.2500
v -0.2680 2.5430 -0.2500
v -0.2680 2.5070 -0.2500
v -0.2320 2.5070 -0.2500
f 956/8 955/8 954/8 953/8
v -0.2320 2.5070 0.2500
v -0.2680 2.5070 0.2500
v -0.2680 2.5430 0.2500
v -0.2320 2.5430 0.2500
f 960/8 959/8 958/8 957/8
v 0.2500 2.5070 0.2320
v 0.2500 2.5430 0.2320
v -0.2500 2.5430 0.2320
v -0.2500 2.5070 0.2320
f 964/8 963/8 962/8 961/8
v -0.2500 2.5070 0.2680
v -0.2500 2.5430 0.2680
v 0.2500 2.5430 0.2680
v 0.2500 2.5070 0.2680
f 968/8 967/8 966/8 965/8
v -0.2500 2.5070 0.2320
v -0.2500 2.5070 0.2680
v 0.2500 2.5070 0.2680
v 0.2500 2.5070 0.2320
f 972/8 971/8 970/8 969/8
v 0.2500 2.5430 0.2320
v 0.2500 2.5430 0.2680
v -0.2500 2.5430 0.2680
v -0.2500 2.5430 0.2320
f 976/8 975/8 974/8 973/8
v -0.2500 2.5430 0.2320
v -0.2500 2.5430 0.2680
v -0.2500 2.5070 0.2680
v -0.2500 2.5070 0.2320
f 980/8 979/8 978/8 977/8
v 0.2500 2.5070 0.2320
v 0.2500 2.5070 0.2680
v 0.2500 2.5430 0.2680
v 0.2500 2.5430 0.2320
f 984/8 983/8 982/8 981/8
v 0.2320 2.5070 -0.2500
v 0.2320 2.5430 -0.2500
v 0.2320 2.5430 0.2500
v 0.2320 2.5070 0.2500
f 988/8 987/8 986/8 985/8
v 0.2680 2.5070 0.2500
v 0.2680 2.5430 0.2500
v 0.2680 2.5430 -0.2500
v 0.2680 2.5070 -0.2500
f 992/8 991/8 990/8 989/8
v 0.2320 2.5070 0.2500
v 0.2680 2.5070 0.2500
v 0.2680 2.5070 -0.2500
v 0.2320 2.5070 -0.2500
f 996/8 995/8 994/8 993/8
v 0.2320 2.5430 -0.2500
v 0.2680 2.5430 -0.2500
v 0.2680 2.5430 0.2500
v 0.2320 2.5430 0.2500
f 1000/8 999/8 998/8 997/8
v 0.2320 2.5430 0.2500
v 0.2680 2.5430 0.2500
v 0.2680 2.5070 0.2500
v 0.2320 2.5070 0.2500
f 1004/8 1003/8 1002/8 1001/8
v 0.2320 2.5070 -0.2500
v 0.2680 2.5070 -0.2500
v 0.2680 2.5430 -0.2500
v 0.2320 2.5430 -0.2500
f 1008/8 1007/8 1006/8 1005/8
v -0.2597 3.0344 -0.2365
v -0.2403 3.0531 -0.2365
v 0.2597 2.5344 -0.2365
v 0.2403 2.5156 -0.2365
f 1012/8 1011/8 1010/8 1009/8
v 0.2403 2.5156 -0.2635
v 0.2597 2.5344 -0.2635
v -0.2403 3.0531 -0.2635
v -0.2597 3.0344 -0.2635
f 1016/8 1015/8 1014/8 1013/8
v 0.2403 2.5156 -0.2365
v 0.2403 2.5156 -0.2635
v -0.2597 3.0344 -0.2635
v -0.2597 3.0344 -0.2365
f 1020/8 1019/8 1018/8 1017/8
v -0.2403 3.0531 -0.2365
v -0.2403 3.0531 -0.2635
v 0.2597 2.5344 -0.2635
v 0.2597 2.5344 -0.2365
f 1024/8 1023/8 1022/8 1021/8
v 0.2597 2.5344 -0.2365
v 0.2597 2.5344 -0.2635
v 0.2403 2.5156 -0.2635
v 0.2403 2.5156 -0.2365
f 1028/8 1027/8 1026/8 1025/8
v -0.2597 3.0344 -0.2365
v -0.2597 3.0344 -0.2635
v -0.2403 3.0531 -0.2635
v -0.2403 3.0531 -0.2365
f 1032/8 1031/8 1030/8 1029/8
v -0.2365 3.0344 0.2597
v -0.2365 3.0531 0.2403
v -0.2365 2.5344 -0.2597
v -0.2365 2.5156 -0.2403
f 1036/8 1035/8 1034/8 1033/8
v -0.2635 2.5156 -0.2403
v -0.2635 2.5344 -0.2597
v -0.2635 3.0531 0.2403
v -0.2635 3.0344 0.2597
f 1040/8 1039/8 1038/8 1037/8
v -0.2365 2.5156 -0.2403
v -0.2635 2.5156 -0.2403
v -0.2635 3.0344 0.2597
v -0.2365 3.0344 0.2597
f 1044/8 1043/8 1042/8 1041/8
v -0.2365 3.0531 0.2403
v -0.2635 3.0531 0.2403
v -0.2635 2.5344 -0.2597
v -0.2365 2.5344 -0.2597
f 1048/8 1047/8 1046/8 1045/8
v -0.2365 2.5344 -0.2597
v -0.2635 2.5344 -0.2597
v -0.2635 2.5156 -0.2403
v -0.2365 2.5156 -0.2403
f 1052/8 1051/8 1050/8 1049/8
v -0.2365 3.0344 0.2597
v -0.2635 3.0344 0.2597
v -0.2635 3.0531 0.2403
v -0.2365 3.0531 0.2403
f 1056/8 1055/8 1054/8 1053/8
v 0.2597 3.0344 0.2365
v 0.2403 3.0531 0.2365
v -0.2597 2.5344 0.2365
v -0.2403 2.5156 0.2365
f 1060/8 1059/8 1058/8 1057/8
v -0.2403 2.5156 0.2635
v -0.2597 2.5344 0.2635
v 0.2403 3.0531 0.2635
v 0.2597 3.0344 0.2635
f 1064/8 1063/8 1062/8 1061/8
v -0.2403 2.5156 0.2365
v -0.2403 2.5156 0.2635
v 0.2597 3.0344 0.2635
v 0.2597 3.0344 0.2365
f 1068/8 1067/8 1066/8 1065/8
v 0.2403 3.0531 0.2365
v 0.2403 3.0531 0.2635
v -0.2597 2.5344 0.2635
v -0.2597 2.5344 0.2365
f 1072/8 1071/8 1070/8 1069/8
v -0.2597 2.5344 0.2365
v -0.2597 2.5344 0.2635
v -0.2403 2.5156 0.2635
v -0.2403 2.5156 0.2365
f 1076/8 1075/8 1074/8 1073/8
v 0.2597 3.0344 0.2365
v 0.2597 3.0344 0.2635
v 0.2403 3.0531 0.2635
v 0.2403 3.0531 0.2365
f 1080/8 1079/8 1078/8 1077/8
v 0.2365 3.0344 -0.2597
v 0.2365 3.0531 -0.2403
v 0.2365 2.5344 0.2597
v 0.2365 2.5156 0.2403
f 1084/8 1083/8 1082/8 1081/8
v 0.2635 2.5156 0.2403
v 0.2635 2.5344 0.2597
v 0.2635 3.0531 -0.2403
v 0.2635 3.0344 -0.2597
f 1088/8 1087/8 1086/8 1085/8
v 0.2365 2.5156 0.2403
v 0.2635 2.5156 0.2403
v 0.2635 3.0344 -0.2597
v 0.2365 3.0344 -0.2597
f 1092/8 1091/8 1090/8 1089/8
v 0.2365 3.0531 -0.2403
v 0.2635 3.0531 -0.2403
v 0.2635 2.5344 0.2597
v 0.2365 2.5344 0.2597
f 1096/8 1095/8 1094/8 1093/8
v 0.2365 2.5344 0.2597
v 0.2635 2.5344 0.2597
v 0.2635 2.5156 0.2403
v 0.2365 2.5156 0.2403
f 1100/8 1099/8 1098/8 1097/8
v 0.2365 3.0344 -0.2597
v 0.2635 3.0344 -0.2597
v 0.2635 3.0531 -0.2403
v 0.2365 3.0531 -0.2403
f 1104/8 1103/8 1102/8 1101/8
v -0.2500 3.0257 -0.2320
v -0.2500 3.0617 -0.2320
v 0.2500 3.0617 -0.2320
v 0.2500 3.0257 -0.2320
f 1108/8 1107/8 1106/8 1105/8
v 0.2500 3.0257 -0.2680
v 0.2500 3.0617 -0.2680
v -0.2500 3.0617 -0.2680
v -0.2500 3.0257 -0.2680
f 1112/8 1111/8 1110/8 1109/8
v 0.2500 3.0257 -0.2320
v 0.2500 3.0257 -0.2680
v -0.2500 3.0257 -0.2680
v -0.2500 3.0257 -0.2320
f 1116/8 1115/8 1114/8 1113/8
v -0.2500 3.0617 -0.2320
v -0.2500 3.0617 -0.2680
v 0.2500 3.0617 -0.2680
v 0.2500 3.0617 -0.2320
f 1120/8 1119/8 1118/8 1117/8
v 0.2500 3.0617 -0.2320
v 0.2500 3.0617 -0.2680
v 0.2500 3.0257 -0.2680
v 0.2500 3.0257 -0.2320
f 1124/8 1123/8 1122/8 1121/8
v -0.2500 3.0257 -0.2320
v -0.2500 3.0257 -0.2680
v -0.2500 3.0617 -0.2680
v -0.2500 3.0617 -0.2320
f 1128/8 1127/8 1126/8 1125/8
v -0.2320 3.0257 0.2500
v -0.2320 3.0617 0.2500
v -0.2320 3.0617 -0.2500
v -0.2320 3.0257 -0.2500
f 1132/8 1131/8 1130/8 1129/8
v -0.2680 3.0257 -0.2500
v -0.2680 3.0617 -0.2500
v -0.2680 3.0617 0.2500
v -0.2680 3.0257 0.2500
f 1136/8 1135/8 1134/8 1133/8
v -0.2320 3.0257 -0.2500
v -0.2680 3.0257 -0.2500
v -0.2680 3.0257 0.2500
v -0.2320 3.0257 0.2500
f 1140/8 1139/8 1138/8 1137/8
v -0.2320 3.0617 0.2500
v -0.2680 3.0617 0.2500
v -0.2680 3.0617 -0.2500
v -0.2320 3.0617 -0.2500
f 1144/8 1143/8 1142/8 1141/8
v -0.2320 3.0617 -0.2500
v -0.2680 3.0617 -0.2500
v -0.2680 3.0257 -0.2500
v -0.2320 3.0257 -0.2500
f 1148/8 1147/8 1146/8 1145/8
v -0.2320 3.0257 0.2500
v -0.2680 3.0257 0.2500
v -0.2680 3.0617 0.2500
v -0.2320 3.0617 0.2500
f 1152/8 1151/8 1150/8 1149/8
v 0.2500 3.0257 0.2320
v 0.2500 3.0617 0.2320
v -0.2500 3.0617 0.2320
v -0.2500 3.0257 0.2320
f 1156/8 1155/8 1154/8 1153/8
v -0.2500 3.0257 0.2680
v -0.2500 3.0617 0.2680
v 0.2500 3.0617 0.2680
v 0.2500 3.0257 0.2680
f 1160/8 1159/8 1158/8 1157/8
v -0.2500 3.0257 0.2320
v -0.2500 3.0257 0.2680
v 0.2500 3.0257 0.2680
v 0.2500 3.0257 0.2320
f 1164/8 1163/8 1162/8 1161/8
v 0.2500 3.0617 0.2320
v 0.2500 3.0617 0.2680
v -0.2500 3.0617 0.2680
v -0.2500 3.0617 0.2320
f 1168/8 1167/8 1166/8 1165/8
v -0.2500 3.0617 0.2320
v -0.2500 3.0617 0.2680
v -0.2500 3.0257 0.2680
v -0.2500 3.0257 0.2320
f 1172/8 1171/8 1170/8 1169/8
v 0.2500 3.0257 0.2320
v 0.2500 3.0257 0.2680
v 0.2500 3.0617 0.2680
v 0.2500 3.0617 0.2320
f 1176/8 1175/8 1174/8 1173/8
v 0.2320 3.0257 -0.2500
v 0.2320 3.0617 -0.2500
v 0.2320 3.0617 0.2500
v 0.2320 3.0257 0.2500
f 1180/8 1179/8 1178/8 1177/8
v 0.2680 3.0257 0.2500
v 0.2680 3.0617 0.2500
v 0.2680 3.0617 -0.2500
v 0.2680 3.0257 -0.2500
f 1184/8 1183/8 1182/8 1181/8
v 0.2320 3.0257 0.2500
v 0.2680 3.0257 0.2500
v 0.2680 3.0257 -0.2500
v 0.2320 3.0257 -0.2500
f 1188/8 1187/8 1186/8 1185/8
v 0.2320 3.0617 -0.2500
v 0.2680 3.0617 -0.2500
v 0.2680 3.0617 0.2500
v 0.2320 3.0617 0.2500
f 1192/8 1191/8 1190/8 1189/8
v 0.2320 3.0617 0.2500
v 0.2680 3.0617 0.2500
v 0.2680 3.0257 0.2500
v 0.2320 3.0257 0.2500
f 1196/8 1195/8 1194/8 1193/8
v 0.2320 3.0257 -0.2500
v 0.2680 3.0257 -0.2500
v 0.2680 3.0617 -0.2500
v 0.2320 3.0617 -0.2500
f 1200/8 1199/8 1198/8 1197/8
v -0.2597 3.5531 -0.2365
v -0.2403 3.5719 -0.2365
v 0.2597 3.0531 -0.2365
v 0.2403 3.0344 -0.2365
f 1204/8 1203/8 1202/8 1201/8
v 0.2403 3.0344 -0.2635
v 0.2597 3.0531 -0.2635
v -0.2403 3.5719 -0.2635
v -0.2597 3.5531 -0.2635
f 1208/8 1207/8 1206/8 1205/8
v 0.2403 3.0344 -0.2365
v 0.2403 3.0344 -0.2635
v -0.2597 3.5531 -0.2635
v -0.2597 3.5531 -0.2365
f 1212/8 1211/8 1210/8 1209/8
v -0.2403 3.5719 -0.2365
v -0.2403 3.5719 -0.2635
v 0.2597 3.0531 -0.2635
v 0.2597 3.0531 -0.2365
f 1216/8 1215/8 1214/8 1213/8
v 0.2597 3.0531 -0.2365
v 0.2597 3.0531 -0.2635
v 0.2403 3.0344 -0.2635
v 0.2403 3.0344 -0.2365
f 1220/8 1219/8 1218/8 1217/8
v -0.2597 3.5531 -0.2365
v -0.2597 3.5531 -0.2635
v -0.2403 3.5719 -0.2635
v -0.2403 3.5719 -0.2365
f 1224/8 1223/8 1222/8 1221/8
v -0.2365 3.5531 0.2597
v -0.2365 3.5719 0.2403
v -0.2365 3.0531 -0.2597
v -0.2365 3.0344 -0.2403
f 1228/8 1227/8 1226/8 1225/8
v -0.2635 3.0344 -0.2403
v -0.2635 3.0531 -0.2597
v -0.2635 3.5719 0.2403
v -0.2635 3.5531 0.2597
f 1232/8 1231/8 1230/8 1229/8
v -0.2365 3.0344 -0.2403
v -0.2635 3.0344 -0.2403
v -0.2635 3.5531 0.2597
v -0.2365 3.5531 0.2597
f 1236/8 1235/8 1234/8 1233/8
v -0.2365 3.5719 0.2403
v -0.2635 3.5719 0.2403
v -0.2635 3.0531 -0.2597
v -0.2365 3.0531 -0.2597
f 1240/8 1239/8 1238/8 1237/8
v -0.2365 3.0531 -0.2597
v -0.2635 3.0531 -0.2597
v -0.2635 3.0344 -0.2403
v -0.2365 3.0344 -0.2403
f 1244/8 1243/8 1242/8 1241/8
v -0.2365 3.5531 0.2597
v -0.2635 3.5531 0.2597
v -0.2635 3.5719 0.2403
v -0.2365 3.5719 0.2403
f 1248/8 1247/8 1246/8 1245/8
v 0.2597 3.5531 0.2365
v 0.2403 3.5719 0.2365
v -0.2597 3.0531 0.2365
v -0.2403 3.0344 0.2365
f 1252/8 1251/8 1250/8 1249/8
v -0.2403 3.0344 0.2635
v -0.2597 3.0531 0.2635
v 0.2403 3.5719 0.2635
v 0.2597 3.5531 0.2635
f 1256/8 1255/8 1254/8 1253/8
v -0.2403 3.0344 0.2365
v -0.2403 3.0344 0.2635
v 0.2597 3.5531 0.2635
v 0.2597 3.5531 0.2365
f 1260/8 1259/8 1258/8 1257/8
v 0.2403 3.5719 0.2365
v 0.2403 3.5719 0.2635
v -0.2597 3.0531 0.2635
v -0.2597 3.0531 0.2365
f 1264/8 1263/8 1262/8 1261/8
v -0.2597 3.0531 0.2365
v -0.2597 3.0531 0.2635
v -0.2403 3.0344 0.2635
v -0.2403 3.0344 0.2365
f 1268/8 1267/8 1266/8 1265/8
v 0.2597 3.5531 0.2365
v 0.2597 3.5531 0.2635
v 0.2403 3.5719 0.2635
v 0.2403 3.5719 0.2365
f 1272/8 1271/8 1270/8 1269/8
v 0.2365 3.5531 -0.2597
v 0.2365 3.5719 -0.2403
v 0.2365 3.0531 0.2597
v 0.2365 3.0344 0.2403
f 1276/8 1275/8 1274/8 1273/8
v 0.2635 3.0344 0.2403
v 0.2635 3.0531 0.2597
v 0.2635 3.5719 -0.2403
v 0.2635 3.5531 -0.2597
f 1280/8 1279/8 1278/8 1277/8
v 0.2365 3.0344 0.2403
v 0.2635 3.0344 0.2403
v 0.2635 3.5531 -0.2597
v 0.2365 3.5531 -0.2597
f 1284/8 1283/8 1282/8 1281/8
v 0.2365 3.5719 -0.2403
v 0.2635 3.5719 -0.2403
v 0.2635 3.0531 0.2597
v 0.2365 3.0531 0.2597
f 1288/8 1287/8 1286/8 1285/8
v 0.2365 3.0531 0.2597
v 0.2635 3.0531 0.2597
v 0.2635 3.0344 0.2403
v 0.2365 3.0344 0.2403
f 1292/8 1291/8 1290/8 1289/8
v 0.2365 3.5531 -0.2597
v 0.2635 3.5531 -0.2597
v 0.2635 3.5719 -0.2403
v 0.2365 3.5719 -0.2403
f 1296/8 1295/8 1294/8 1293/8
v -0.2500 3.5445 -0.2320
v -0.2500 3.5805 -0.2320
v 0.2500 3.5805 -0.2320
v 0.2500 3.5445 -0.2320
f 1300/8 1299/8 1298/8 1297/8
v 0.2500 3.5445 -0.2680
v 0.2500 3.5805 -0.2680
v -0.2500 3.5805 -0.2680
v -0.2500 3.5445 -0.2680
f 1304/8 1303/8 1302/8 1301/8
v 0.2500 3.5445 -0.2320
v 0.2500 3.5445 -0.2680
v -0.2500 3.5445 -0.2680
v -0.2500 3.5445 -0.2320
f 1308/8 1307/8 1306/8 1305/8
v -0.2500 3.5805 -0.2320
v -0.2500 3.5805 -0.2680
v 0.2500 3.5805 -0.2680
v 0.2500 3.5805 -0.2320
f 1312/8 1311/8 1310/8 1309/8
v 0.2500 3.5805 -0.2320
v 0.2500 3.5805 -0.2680
v 0.2500 3.5445 -0.2680
v 0.2500 3.5445 -0.2320
f 1316/8 1315/8 1314/8 1313/8
v -0.2500 3.5445 -0.2320
v -0.2500 3.5445 -0.2680
v -0.2500 3.5805 -0.2680
v -0.2500 3.5805 -0.2320
f 1320/8 1319/8 1318/8 1317/8
v -0.2320 3.5445 0.2500
v -0.2320 3.5805 0.2500
v -0.2320 3.5805 -0.2500
v -0.2320 3.5445 -0.2500
f 1324/8 1323/8 1322/8 1321/8
v -0.2680 3.5445 -0.2500
v -0.2680 3.5805 -0.2500
v -0.2680 3.5805 0.2500
v -0.2680 3.5445 0.2500
f 1328/8 1327/8 1326/8 1325/8
v -0.2320 3.5445 -0.2500
v -0.2680 3.5445 -0.2500
v -0.2680 3.5445 0.2500
v -0.2320 3.5445 0.2500
f 1332/8 1331/8 1330/8 1329/8
v -0.2320 3.5805 0.2500
v -0.2680 3.5805 0.2500
v -0.2680 3.5805 -0.2500
v -0.2320 3.5805 -0.2500
f 1336/8 1335/8 1334/8 1333/8
v -0.2320 3.5805 -0.2500
v -0.2680 3.5805 -0.2500
v -0.2680 3.5445 -0.2500
v -0.2320 3.5445 -0.2500
f 1340/8 1339/8 1338/8 1337/8
v -0.2320 3.5445 0.2500
v -0.2680 3.5445 0.2500
v -0.2680 3.5805 0.2500
v -0.2320 3.5805 0.2500
f 1344/8 1343/8 1342/8 1341/8
v 0.2500 3.5445 0.2320
v 0.2500 3.5805 0.2320
v -0.2500 3.5805 0.2320
v -0.2500 3.5445 0.2320
f 1348/8 1347/8 1346/8 1345/8
v -0.2500 3.5445 0.2680
v -0.2500 3.5805 0.2680
v 0.2500 3.5805 0.2680
v 0.2500 3.5445 0.2680
f 1352/8 1351/8 1350/8 1349/8
v -0.2500 3.5445 0.2320
v -0.2500 3.5445 0.2680
v 0.2500 3.5445 0.2680
v 0.2500 3.5445 0.2320
f 1356/8 1355/8 1354/8 1353/8
v 0.2500 3.5805 0.2320
v 0.2500 3.5805 0.2680
v -0.2500 3.5805 0.2680
v -0.2500 3.5805 0.2320
f 1360/8 1359/8 1358/8 1357/8
v -0.2500 3.5805 0.2320
v -0.2500 3.5805 0.2680
v -0.2500 3.5445 0.2680
v -0.2500 3.5445 0.2320
f 1364/8 1363/8 1362/8 1361/8
v 0.2500 3.5445 0.2320
v 0.2500 3.5445 0.2680
v 0.2500 3.5805 0.2680
v 0.2500 3.5805 0.2320
f 1368/8 1367/8 1366/8 1365/8
v 0.2320 3.5445 -0.2500
v 0.2320 3.5805 -0.2500
v 0.2320 3.5805 0.2500
v 0.2320 3.5445 0.2500
f 1372/8 1371/8 1370/8 1369/8
v 0.2680 3.5445 0.2500
v 0.2680 3.5805 0.2500
v 0.2680 3.5805 -0.2500
v 0.2680 3.5445 -0.2500
f 1376/8 1375/8 1374/8 1373/8
v 0.2320 3.5445 0.2500
v 0.2680 3.5445 0.2500
v 0.2680 3.5445 -0.2500
v 0.2320 3.5445 -0.2500
f 1380/8 1379/8 1378/8 1377/8
v 0.2320 3.5805 -0.2500
v 0.2680 3.5805 -0.2500
v 0.2680 3.5805 0.2500
v 0.2320 3.5805 0.2500
f 1384/8 1383/8 1382/8 1381/8
v 0.2320 3.5805 0.2500
v 0.2680 3.5805 0.2500
v 0.2680 3.5445 0.2500
v 0.2320 3.5445 0.2500
f 1388/8 1387/8 1386/8 1385/8
v 0.2320 3.5445 -0.2500
v 0.2680 3.5445 -0.2500
v 0.2680 3.5805 -0.2500
v 0.2320 3.5805 -0.2500
f 1392/8 1391/8 1390/8 1389/8
v -0.2597 4.0719 -0.2365
v -0.2403 4.0906 -0.2365
v 0.2597 3.5719 -0.2365
v 0.2403 3.5531 -0.2365
f 1396/8 1395/8 1394/8 1393/8
v 0.2403 3.5531 -0.2635
v 0.2597 3.5719 -0.2635
v -0.2403 4.0906 -0.2635
v -0.2597 4.0719 -0.2635
f 1400/8 1399/8 1398/8 1397/8
v 0.2403 3.5531 -0.2365
v 0.2403 3.5531 -0.2635
v -0.2597 4.0719 -0.2635
v -0.2597 4.0719 -0.2365
f 1404/8 1403/8 1402/8 1401/8
v -0.2403 4.0906 -0.2365
v -0.2403 4.0906 -0.2635
v 0.2597 3.5719 -0.2635
v 0.2597 3.5719 -0.2365
f 1408/8 1407/8 1406/8 1405/8
v 0.2597 3.5719 -0.2365
v 0.2597 3.5719 -0.2635
v 0.2403 3.5531 -0.2635
v 0.2403 3.5531 -0.2365
f 1412/8 1411/8 1410/8 1409/8
v -0.2597 4.0719 -0.2365
v -0.2597 4.0719 -0.2635
v -0.2403 4.0906 -0.2635
v -0.2403 4.0906 -0.2365
f 1416/8 1415/8 1414/8 1413/8
v -0.2365 4.0719 0.2597
v -0.2365 4.0906 0.2403
v -0.2365 3.5719 -0.2597
v -0.2365 3.5531 -0.2403
f 1420/8 1419/8 1418/8 1417/8
v -0.2635 3.5531 -0.2403
v -0.2635 3.5719 -0.2597
v -0.2635 4.0906 0.2403
v -0.2635 4.0719 0.2597
f 1424/8 1423/8 1422/8 1421/8
v -0.2365 3.5531 -0.2403
v -0.2635 3.5531 -0.2403
v -0.2635 4.0719 0.2597
v -0.2365 4.0719 0.2597
f 1428/8 1427/8 1426/8 1425/8
v -0.2365 4.0906 0.2403
v -0.2635 4.0906 0.2403
v -0.2635 3.5719 -0.2597
v -0.2365 3.5719 -0.2597
f 1432/8 1431/8 1430/8 1429/8
v -0.2365 3.5719 -0.2597
v -0.2635 3.5719 -0.2597
v -0.2635 3.5531 -0.2403
v -0.2365 3.5531 -0.2403
f 1436/8 1435/8 1434/8 1433/8
v -0.2365 4.0719 0.2597
v -0.2635 4.0719 0.2597
v -0.2635 4.0906 0.2403
v -0.2365 4.0906 0.2403
f 1440/8 1439/8 1438/8 1437/8
v 0.2597 4.0719 0.2365
v 0.2403 4.0906 0.2365
v -0.2597 3.5719 0.2365
v -0.2403 3.5531 0.2365
f 1444/8 1443/8 1442/8 1441/8
v -0.2403 3.5531 0.2635
v -0.2597 3.5719 0.2635
v 0.2403 4.0906 0.2635
v 0.2597 4.0719 0.2635
f 1448/8 1447/8 1446/8 1445/8
v -0.2403 3.5531 0.2365
v -0.2403 3.5531 0.2635
v 0.2597 4.0719 0.2635
v 0.2597 4.0719 0.2365
f 1452/8 1451/8 1450/8 1449/8
v 0.2403 4.0906 0.2365
v 0.2403 4.0906 0.2635
v -0.2597 3.5719 0.2635
v -0.2597 3.5719 0.2365
f 1456/8 1455/8 1454/8 1453/8
v -0.2597 3.5719 0.2365
v -0.2597 3.5719 0.2635
v -0.2403 3.5531 0.2635
v -0.2403 3.5531 0.2365
f 1460/8 1459/8 1458/8 1457/8
v 0.2597 4.0719 0.2365
v 0.2597 4.0719 0.2635
v 0.2403 4.0906 0.2635
v 0.2403 4.0906 0.2365
f 1464/8 1463/8 1462/8 1461/8
v 0.2365 4.0719 -0.2597
v 0.2365 4.0906 -0.2403
v 0.2365 3.5719 0.2597
v 0.2365 3.5531 0.2403
f 1468/8 1467/8 1466/8 1465/8
v 0.2635 3.5531 0.2403
v 0.2635 3.5719 0.2597
v 0.2635 4.0906 -0.2403
v 0.2635 4.0719 -0.2597
f 1472/8 1471/8 1470/8 1469/8
v 0.2365 3.5531 0.2403
v 0.2635 3.5531 0.2403
v 0.2635 4.0719 -0.2597
v 0.2365 4.0719 -0.2597
f 1476/8 1475/8 1474/8 1473/8
v 0.2365 4.0906 -0.2403
v 0.2635 4.0906 -0.2403
v 0.2635 3.5719 0.2597
v 0.2365 3.5719 0.2597
f 1480/8 1479/8 1478/8 1477/8
v 0.2365 3.5719 0.2597
v 0.2635 3.5719 0.2597
v 0.2635 3.5531 0.2403
v 0.2365 3.5531 0.2403
f 1484/8 1483/8 1482/8 1481/8
v 0.2365 4.0719 -0.2597
v 0.2635 4.0719 -0.2597
v 0.2635 4.0906 -0.2403
v 0.2365 4.0906 -0.2403
f 1488/8 1487/8 1486/8 1485/8
v -0.2500 4.0633 -0.2320
v -0.2500 4.0992 -0.2320
v 0.2500 4.0992 -0.2320
v 0.2500 4.0633 -0.2320
f 1492/8 1491/8 1490/8 1489/8
v 0.2500 4.0633 -0.2680
v 0.2500 4.0992 -0.2680
v -0.2500 4.0992 -0.2680
v -0.2500 4.0633 -0.2680
f 1496/8 1495/8 1494/8 1493/8
v 0.2500 4.0633 -0.2320
v 0.2500 4.0633 -0.2680
v -0.2500 4.0633 -0.2680
v -0.2500 4.0633 -0.2320
f 1500/8 1499/8 1498/8 1497/8
v -0.2500 4.0992 -0.2320
v -0.2500 4.0992 -0.2680
v 0.2500 4.0992 -0.2680
v 0.2500 4.0992 -0.2320
f 1504/8 1503/8 1502/8 1501/8
v 0.2500 4.0992 -0.2320
v 0.2500 4.0992 -0.2680
v 0.2500 4.0633 -0.2680
v 0.2500 4.0633 -0.2320
f 1508/8 1507/8 1506/8 1505/8
v -0.2500 4.0633 -0.2320
v -0.2500 4.0633 -0.2680
v -0.2500 4.0992 -0.2680
v -0.2500 4.0992 -0.2320
f 1512/8 1511/8 1510/8 1509/8
v -0.2320 4.0633 0.2500
v -0.2320 4.0992 0.2500
v -0.2320 4.0992 -0.2500
v -0.2320 4.0633 -0.2500
f 1516/8 1515/8 1514/8 1513/8
v -0.2680 4.0633 -0.2500
v -0.2680 4.0992 -0.2500
v -0.2680 4.0992 0.2500
v -0.2680 4.0633 0.2500
f 1520/8 1519/8 1518/8 1517/8
v -0.2320 4.0633 -0.2500
v -0.2680 4.0633 -0.2500
v -0.2680 4.0633 0.2500
v -0.2320 4.0633 0.2500
f 1524/8 1523/8 1522/8 1521/8
v -0.2320 4.0992 0.2500
v -0.2680 4.0992 0.2500
v -0.2680 4.0992 -0.2500
v -0.2320 4.0992 -0.2500
f 1528/8 1527/8 1526/8 1525/8
v -0.2320 4.0992 -0.2500
v -0.2680 4.0992 -0.2500
v -0.2680 4.0633 -0.2500
v -0.2320 4.0633 -0.2500
f 1532/8 1531/8 1530/8 1529/8
v -0.2320 4.0633 0.2500
v -0.2680 4.0633 0.2500
v -0.2680 4.0992 0.2500
v -0.2320 4.0992 0.2500
f 1536/8 1535/8 1534/8 1533/8
v 0.2500 4.0633 0.2320
v 0.2500 4.0992 0.2320
v -0.2500 4.0992 0.2320
v -0.2500 4.0633 0.2320
f 1540/8 1539/8 1538/8 1537/8
v -0.2500 4.0633 0.2680
v -0.2500 4.0992 0.2680
v 0.2500 4.0992 0.2680
v 0.2500 4.0633 0.2680
f 1544/8 1543/8 1542/8 1541/8
v -0.2500 4.0633 0.2320
v -0.2500 4.0633 0.2680
v 0.2500 4.0633 0.2680
v 0.2500 4.0633 0.2320
f 1548/8 1547/8 1546/8 1545/8
v 0.2500 4.0992 0.2320
v 0.2500 4.0992 0.2680
v -0.2500 4.0992 0.2680
v -0.2500 4.0992 0.2320
f 1552/8 1551/8 1550/8 1549/8
v -0.2500 4.0992 0.2320
v -0.2500 4.0992 0.2680
v -0.2500 4.0633 0.2680
v -0.2500 4.0633 0.2320
f 1556/8 1555/8 1554/8 1553/8
v 0.2500 4.0633 0.2320
v 0.2500 4.0633 0.2680
v 0.2500 4.0992 0.2680
v 0.2500 4.0992 0.2320
f 1560/8 1559/8 1558/8 1557/8
v 0.2320 4.0633 -0.2500
v 0.2320 4.0992 -0.2500
v 0.2320 4.0992 0.2500
v 0.2320 4.0633 0.2500
f 1564/8 1563/8 1562/8 1561/8
v 0.2680 4.0633 0.2500
v 0.2680 4.0992 0.2500
v 0.2680 4.0992 -0.2500
v 0.2680 4.0633 -0.2500
f 1568/8 1567/8 1566/8 1565/8
v 0.2320 4.0633 0.2500
v 0.2680 4.0633 0.2500
v 0.2680 4.0633 -0.2500
v 0.2320 4.0633 -0.2500
f 1572/8 1571/8 1570/8 1569/8
v 0.2320 4.0992 -0.2500
v 0.2680 4.0992 -0.2500
v 0.2680 4.0992 0.2500
v 0.2320 4.0992 0.2500
f 1576/8 1575/8 1574/8 1573/8
v 0.2320 4.0992 0.2500
v 0.2680 4.0992 0.2500
v 0.2680 4.0633 0.2500
v 0.2320 4.0633 0.2500
f 1580/8 1579/8 1578/8 1577/8
v 0.2320 4.0633 -0.2500
v 0.2680 4.0633 -0.2500
v 0.2680 4.0992 -0.2500
v 0.2320 4.0992 -0.2500
f 1584/8 1583/8 1582/8 1581/8
v -0.2597 4.5906 -0.2365
v -0.2403 4.6094 -0.2365
v 0.2597 4.0906 -0.2365
v 0.2403 4.0719 -0.2365
f 1588/8 1587/8 1586/8 1585/8
v 0.2403 4.0719 -0.2635
v 0.2597 4.0906 -0.2635
v -0.2403 4.6094 -0.2635
v -0.2597 4.5906 -0.2635
f 1592/8 1591/8 1590/8 1589/8
v 0.2403 4.0719 -0.2365
v 0.2403 4.0719 -0.2635
v -0.2597 4.5906 -0.2635
v -0.2597 4.5906 -0.2365
f 1596/8 1595/8 1594/8 1593/8
v -0.2403 4.6094 -0.2365
v -0.2403 4.6094 -0.2635
v 0.2597 4.0906 -0.2635
v 0.2597 4.0906 -0.2365
f 1600/8 1599/8 1598/8 1597/8
v 0.2597 4.0906 -0.2365
v 0.2597 4.0906 -0.2635
v 0.2403 4.0719 -0.2635
v 0.2403 4.0719 -0.2365
f 1604/8 1603/8 1602/8 1601/8
v -0.2597 4.5906 -0.2365
v -0.2597 4.5906 -0.2635
v -0.2403 4.6094 -0.2635
v -0.2403 4.6094 -0.2365
f 1608/8 1607/8 1606/8 1605/8
v -0.2365 4.5906 0.2597
v -0.2365 4.6094 0.2403
v -0.2365 4.0906 -0.2597
v -0.2365 4.0719 -0.2403
f 1612/8 1611/8 1610/8 1609/8
v -0.2635 4.0719 -0.2403
v -0.2635 4.0906 -0.2597
v -0.2635 4.6094 0.2403
v -0.2635 4.5906 0.2597
f 1616/8 1615/8 1614/8 1613/8
v -0.2365 4.0719 -0.2403
v -0.2635 4.0719 -0.2403
v -0.2635 4.5906 0.2597
v -0.2365 4.5906 0.2597
f 1620/8 1619/8 1618/8 1617/8
v -0.2365 4.6094 0.2403
v -0.2635 4.6094 0.2403
v -0.2635 4.0906 -0.2597
v -0.2365 4.0906 -0.2597
f 1624/8 1623/8 1622/8 1621/8
v -0.2365 4.0906 -0.2597
v -0.2635 4.0906 -0.2597
v -0.2635 4.0719 -0.2403
v -0.2365 4.0719 -0.2403
f 1628/8 1627/8 1626/8 1625/8
v -0.2365 4.5906 0.2597
v -0.2635 4.5906 0.2597
v -0.2635 4.6094 0.2403
v -0.2365 4.6094 0.2403
f 1632/8 1631/8 1630/8 1629/8
v 0.2597 4.5906 0.2365
v 0.2403 4.6094 0.2365
v -0.2597 4.0906 0.2365
v -0.2403 4.0719 0.2365
f 1636/8 1635/8 1634/8 1633/8
v -0.2403 4.0719 0.2635
v -0.2597 4.0906 0.2635
v 0.2403 4.6094 0.2635
v 0.2597 4.5906 0.2635
f 1640/8 1639/8 1638/8 1637/8
v -0.2403 4.0719 0.2365
v -0.2403 4.0719 0.2635
v 0.2597 4.5906 0.2635
v 0.2597 4.5906 0.2365
f 1644/8 1643/8 1642/8 1641/8
v 0.2403 4.6094 0.2365
v 0.2403 4.6094 0.2635
v -0.2597 4.0906 0.2635
v -0.2597 4.0906 0.2365
f 1648/8 1647/8 1646/8 1645/8
v -0.2597 4.0906 0.2365
v -0.2597 4.0906 0.2635
v -0.2403 4.0719 0.2635
v -0.2403 4.0719 0.2365
f 1652/8 1651/8 1650/8 1649/8
v 0.2597 4.5906 0.2365
v 0.2597 4.5906 0.2635
v 0.2403 4.6094 0.2635
v 0.2403 4.6094 0.2365
f 1656/8 1655/8 1654/8 1653/8
v 0.2365 4.5906 -0.2597
v 0.2365 4.6094 -0.2403
v 0.2365 4.0906 0.2597
v 0.2365 4.0719 0.2403
f 1660/8 1659/8 1658/8 1657/8
v 0.2635 4.0719 0.2403
v 0.2635 4.0906 0.2597
v 0.2635 4.6094 -0.2403
v 0.2635 4.5906 -0.2597
f 1664/8 1663/8 1662/8 1661/8
v 0.2365 4.0719 0.2403
v 0.2635 4.0719 0.2403
v 0.2635 4.5906 -0.2597
v 0.2365 4.5906 -0.2597
f 1668/8 1667/8 1666/8 1665/8
v 0.2365 4.6094 -0.2403
v 0.2635 4.6094 -0.2403
v 0.2635 4.0906 0.2597
v 0.2365 4.0906 0.2597
f 1672/8 1671/8 1670/8 1669/8
v 0.2365 4.0906 0.2597
v 0.2635 4.0906 0.2597
v 0.2635 4.0719 0.2403
v 0.2365 4.0719 0.2403
f 1676/8 1675/8 1674/8 1673/8
v 0.2365 4.5906 -0.2597
v 0.2635 4.5906 -0.2597
v 0.2635 4.6094 -0.2403
v 0.2365 4.6094 -0.2403
f 1680/8 1679/8 1678/8 1677/8
v -0.2500 4.5820 -0.2320
v -0.2500 4.6180 -0.2320
v 0.2500 4.6180 -0.2320
v 0.2500 4.5820 -0.2320
f 1684/8 1683/8 1682/8 1681/8
v 0.2500 4.5820 -0.2680
v 0.2500 4.6180 -0.2680
v -0.2500 4.6180 -0.2680
v -0.2500 4.5820 -0.2680
f 1688/8 1687/8 1686/8 1685/8
v 0.2500 4.5820 -0.2320
v 0.2500 4.5820 -0.2680
v -0.2500 4.5820 -0.2680
v -0.2500 4.5820 -0.2320
f 1692/8 1691/8 1690/8 1689/8
v -0.2500 4.6180 -0.2320
v -0.2500 4.6180 -0.2680
v 0.2500 4.6180 -0.2680
v 0.2500 4.6180 -0.2320
f 1696/8 1695/8 1694/8 1693/8
v 0.2500 4.6180 -0.2320
v 0.2500 4.6180 -0.2680
v 0.2500 4.5820 -0.2680
v 0.2500 4.5820 -0.2320
f 1700/8 1699/8 1698/8 1697/8
v -0.2500 4.5820 -0.2320
v -0.2500 4.5820 -0.2680
v -0.2500 4.6180 -0.2680
v -0.2500 4.6180 -0.2320
f 1704/8 1703/8 1702/8 1701/8
v -0.2320 4.5820 0.2500
v -0.2320 4.6180 0.2500
v -0.2320 4.6180 -0.2500
v -0.2320 4.5820 -0.2500
f 1708/8 1707/8 1706/8 1705/8
v -0.2680 4.5820 -0.2500
v -0.2680 4.6180 -0.2500
v -0.2680 4.6180 0.2500
v -0.2680 4.5820 0.2500
f 1712/8 1711/8 1710/8 1709/8
v -0.2320 4.5820 -0.2500
v -0.2680 4.5820 -0.2500
v -0.2680 4.5820 0.2500
v -0.2320 4.5820 0.2500
f 1716/8 1715/8 1714/8 1713/8
v -0.2320 4.6180 0.2500
v -0.2680 4.6180 0.2500
v -0.2680 4.6180 -0.2500
v -0.2320 4.6180 -0.2500
f 1720/8 1719/8 1718/8 1717/8
v -0.2320 4.6180 -0.2500
v -0.2680 4.6180 -0.2500
v -0.2680 4.5820 -0.2500
v -0.2320 4.5820 -0.2500
f 1724/8 1723/8 1722/8 1721/8
v -0.2320 4.5820 0.2500
v -0.2680 4.5820 0.2500
v -0.2680 4.6180 0.2500
v -0.2320 4.6180 0.2500
f 1728/8 1727/8 1726/8 1725/8
v 0.2500 4.5820 0.2320
v 0.2500 4.6180 0.2320
v -0.2500 4.6180 0.2320
v -0.2500 4.5820 0.2320
f 1732/8 1731/8 1730/8 1729/8
v -0.2500 4.5820 0.2680
v -0.2500 4.6180 0.2680
v 0.2500 4.6180 0.2680
v 0.2500 4.5820 0.2680
f 1736/8 1735/8 1734/8 1733/8
v -0.2500 4.5820 0.2320
v -0.2500 4.5820 0.2680
v 0.2500 4.5820 0.2680
v 0.2500 4.5820 0.2320
f 1740/8 1739/8 1738/8 1737/8
v 0.2500 4.6180 0.2320
v 0.2500 4.6180 0.2680
v -0.2500 4.6180 0.2680
v -0.2500 4.6180 0.2320
f 1744/8 1743/8 1742/8 1741/8
v -0.2500 4.6180 0.2320
v -0.2500 4.6180 0.2680
v -0.2500 4.5820 0.2680
v -0.2500 4.5820 0.2320
f 1748/8 1747/8 1746/8 1745/8
v 0.2500 4.5820 0.2320
v 0.2500 4.5820 0.2680
v 0.2500 4.6180 0.2680
v 0.2500 4.6180 0.2320
f 1752/8 1751/8 1750/8 1749/8
v 0.2320 4.5820 -0.2500
v 0.2320 4.6180 -0.2500
v 0.2320 4.6180 0.2500
v 0.2320 4.5820 0.2500
f 1756/8 1755/8 1754/8 1753/8
v 0.2680 4.5820 0.2500
v 0.2680 4.6180 0.2500
v 0.2680 4.6180 -0.2500
v 0.2680 4.5820 -0.2500
f 1760/8 1759/8 1758/8 1757/8
v 0.2320 4.5820 0.2500
v 0.2680 4.5820 0.2500
v 0.2680 4.5820 -0.2500
v 0.2320 4.5820 -0.2500
f 1764/8 1763/8 1762/8 1761/8
v 0.2320 4.6180 -0.2500
v 0.2680 4.6180 -0.2500
v 0.2680 4.6180 0.2500
v 0.2320 4.6180 0.2500
f 1768/8 1767/8 1766/8 1765/8
v 0.2320 4.6180 0.2500
v 0.2680 4.6180 0.2500
v 0.2680 4.5820 0.2500
v 0.2320 4.5820 0.2500
f 1772/8 1771/8 1770/8 1769/8
v 0.2320 4.5820 -0.2500
v 0.2680 4.5820 -0.2500
v 0.2680 4.6180 -0.2500
v 0.2320 4.6180 -0.2500
f 1776/8 1775/8 1774/8 1773/8
v 0.3000 4.6000 0.3000
v 0.3000 4.8000 0.3000
v 0.3000 4.8000 -0.3000
v 0.3000 4.6000 -0.3000
f 1780/6 1779/6 1778/6 1777/6
v -0.3000 4.6000 -0.3000
v -0.3000 4.8000 -0.3000
v -0.3000 4.8000 0.3000
v -0.3000 4.6000 0.3000
f 1784/6 1783/6 1782/6 1781/6
v 0.3000 4.6000 -0.3000
v -0.3000 4.6000 -0.3000
v -0.3000 4.6000 0.3000
v 0.3000 4.6000 0.3000
f 1788/6 1787/6 1786/6 1785/6
v 0.3000 4.8000 0.3000
v -0.3000 4.8000 0.3000
v -0.3000 4.8000 -0.3000
v 0.3000 4.8000 -0.3000
f 1792/6 1791/6 1790/6 1789/6
v 0.3000 4.8000 -0.3000
v -0.3000 4.8000 -0.3000
v -0.3000 4.6000 -0.3000
v 0.3000 4.6000 -0.3000
f 1796/6 1795/6 1794/6 1793/6
v 0.3000 4.6000 0.3000
v -0.3000 4.6000 0.3000
v -0.3000 4.8000 0.3000
v 0.3000 4.8000 0.3000
f 1800/6 1799/6 1798/6 1797/6
o Lamp
usemtl wi_palette
v 0.0500 5.9000 0.0500
v 0.0500 6.0000 0.0500
v 0.0500 6.0000 -0.0500
v 0.0500 5.9000 -0.0500
f 1804/18 1803/18 1802/18 1801/18
v -0.0500 5.9000 -0.0500
v -0.0500 6.0000 -0.0500
v -0.0500 6.0000 0.0500
v -0.0500 5.9000 0.0500
f 1808/18 1807/18 1806/18 1805/18
v 0.0500 5.9000 -0.0500
v -0.0500 5.9000 -0.0500
v -0.0500 5.9000 0.0500
v 0.0500 5.9000 0.0500
f 1812/18 1811/18 1810/18 1809/18
v 0.0500 6.0000 0.0500
v -0.0500 6.0000 0.0500
v -0.0500 6.0000 -0.0500
v 0.0500 6.0000 -0.0500
f 1816/18 1815/18 1814/18 1813/18
v 0.0500 6.0000 -0.0500
v -0.0500 6.0000 -0.0500
v -0.0500 5.9000 -0.0500
v 0.0500 5.9000 -0.0500
f 1820/18 1819/18 1818/18 1817/18
v 0.0500 5.9000 0.0500
v -0.0500 5.9000 0.0500
v -0.0500 6.0000 0.0500
v 0.0500 6.0000 0.0500
f 1824/18 1823/18 1822/18 1821/18
