# Walk of Industry low-poly (generated, wi_lib.py)
mtllib wi.mtl
vt 0 0
vt 0.03125 0.03125
vt 0.09375 0.03125
vt 0.15625 0.03125
vt 0.21875 0.03125
vt 0.28125 0.03125
vt 0.34375 0.03125
vt 0.40625 0.03125
vt 0.46875 0.03125
vt 0.53125 0.03125
vt 0.59375 0.03125
vt 0.65625 0.03125
vt 0.71875 0.03125
vt 0.78125 0.03125
vt 0.84375 0.03125
vt 0.90625 0.03125
vt 0.96875 0.03125
vt 0.03125 0.09375
vt 0.09375 0.09375
vt 0.15625 0.09375
vt 0.21875 0.09375
vt 0.28125 0.09375
vt 0.34375 0.09375
vt 0.40625 0.09375
vt 0.46875 0.09375
vt 0.53125 0.09375
vt 0.59375 0.09375
vt 0.65625 0.09375
vt 0.71875 0.09375
vt 0.78125 0.09375
vt 0.84375 0.09375
vt 0.90625 0.09375
vt 0.96875 0.09375
o Body
usemtl wi_palette
v -0.2381 0.0000 0.8887
v -0.6505 0.0000 0.6505
v -0.6505 0.0400 0.6505
v -0.2381 0.0400 0.8887
f 4/30 3/30 2/30 1/30
v -0.6505 0.0000 0.6505
v -0.8887 0.0000 0.2381
v -0.8887 0.0400 0.2381
v -0.6505 0.0400 0.6505
f 8/30 7/30 6/30 5/30
v -0.8887 0.0000 0.2381
v -0.8887 0.0000 -0.2381
v -0.8887 0.0400 -0.2381
v -0.8887 0.0400 0.2381
f 12/30 11/30 10/30 9/30
v -0.8887 0.0000 -0.2381
v -0.6505 0.0000 -0.6505
v -0.6505 0.0400 -0.6505
v -0.8887 0.0400 -0.2381
f 16/30 15/30 14/30 13/30
v -0.6505 0.0000 -0.6505
v -0.2381 0.0000 -0.8887
v -0.2381 0.0400 -0.8887
v -0.6505 0.0400 -0.6505
f 20/30 19/30 18/30 17/30
v -0.2381 0.0000 -0.8887
v 0.2381 0.0000 -0.8887
v 0.2381 0.0400 -0.8887
v -0.2381 0.0400 -0.8887
f 24/30 23/30 22/30 21/30
v 0.2381 0.0000 -0.8887
v 0.6505 0.0000 -0.6505
v 0.6505 0.0400 -0.6505
v 0.2381 0.0400 -0.8887
f 28/30 27/30 26/30 25/30
v 0.6505 0.0000 -0.6505
v 0.8887 0.0000 -0.2381
v 0.8887 0.0400 -0.2381
v 0.6505 0.0400 -0.6505
f 32/30 31/30 30/30 29/30
v 0.8887 0.0000 -0.2381
v 0.8887 0.0000 0.2381
v 0.8887 0.0400 0.2381
v 0.8887 0.0400 -0.2381
f 36/30 35/30 34/30 33/30
v 0.8887 0.0000 0.2381
v 0.6505 0.0000 0.6505
v 0.6505 0.0400 0.6505
v 0.8887 0.0400 0.2381
f 40/30 39/30 38/30 37/30
v 0.6505 0.0000 0.6505
v 0.2381 0.0000 0.8887
v 0.2381 0.0400 0.8887
v 0.6505 0.0400 0.6505
f 44/30 43/30 42/30 41/30
v 0.2381 0.0000 0.8887
v -0.2381 0.0000 0.8887
v -0.2381 0.0400 0.8887
v 0.2381 0.0400 0.8887
f 48/30 47/30 46/30 45/30
v 0.2381 0.0000 0.8887
v 0.6505 0.0000 0.6505
v 0.8887 0.0000 0.2381
v 0.8887 0.0000 -0.2381
v 0.6505 0.0000 -0.6505
v 0.2381 0.0000 -0.8887
v -0.2381 0.0000 -0.8887
v -0.6505 0.0000 -0.6505
v -0.8887 0.0000 -0.2381
v -0.8887 0.0000 0.2381
v -0.6505 0.0000 0.6505
v -0.2381 0.0000 0.8887
f 60/30 59/30 58/30 57/30 56/30 55/30 54/30 53/30 52/30 51/30 50/30 49/30
v -0.2381 0.0400 0.8887
v -0.6505 0.0400 0.6505
v -0.8887 0.0400 0.2381
v -0.8887 0.0400 -0.2381
v -0.6505 0.0400 -0.6505
v -0.2381 0.0400 -0.8887
v 0.2381 0.0400 -0.8887
v 0.6505 0.0400 -0.6505
v 0.8887 0.0400 -0.2381
v 0.8887 0.0400 0.2381
v 0.6505 0.0400 0.6505
v 0.2381 0.0400 0.8887
f 72/30 71/30 70/30 69/30 68/30 67/30 66/30 65/30 64/30 63/30 62/30 61/30
v -0.9200 0.0200 0.1400
v -0.9200 0.1600 0.1400
v -0.7200 0.1600 0.1400
v -0.7200 0.0200 0.1400
f 76/11 75/11 74/11 73/11
v -0.7200 0.0200 -0.1400
v -0.7200 0.1600 -0.1400
v -0.9200 0.1600 -0.1400
v -0.9200 0.0200 -0.1400
f 80/11 79/11 78/11 77/11
v -0.7200 0.0200 0.1400
v -0.7200 0.0200 -0.1400
v -0.9200 0.0200 -0.1400
v -0.9200 0.0200 0.1400
f 84/11 83/11 82/11 81/11
v -0.9200 0.1600 0.1400
v -0.9200 0.1600 -0.1400
v -0.7200 0.1600 -0.1400
v -0.7200 0.1600 0.1400
f 88/11 87/11 86/11 85/11
v -0.7200 0.1600 0.1400
v -0.7200 0.1600 -0.1400
v -0.7200 0.0200 -0.1400
v -0.7200 0.0200 0.1400
f 92/11 91/11 90/11 89/11
v -0.9200 0.0200 0.1400
v -0.9200 0.0200 -0.1400
v -0.9200 0.1600 -0.1400
v -0.9200 0.1600 0.1400
f 96/11 95/11 94/11 93/11
v -0.7267 -0.0000 0.5812
v -0.7267 0.1800 0.5812
v -0.5535 0.1800 0.4812
v -0.5535 -0.0000 0.4812
f 100/11 99/11 98/11 97/11
v -0.6935 -0.0000 0.2388
v -0.6935 0.1800 0.2388
v -0.8667 0.1800 0.3388
v -0.8667 -0.0000 0.3388
f 104/11 103/11 102/11 101/11
v -0.5535 -0.0000 0.4812
v -0.6935 -0.0000 0.2388
v -0.8667 -0.0000 0.3388
v -0.7267 -0.0000 0.5812
f 108/11 107/11 106/11 105/11
v -0.7267 0.1800 0.5812
v -0.8667 0.1800 0.3388
v -0.6935 0.1800 0.2388
v -0.5535 0.1800 0.4812
f 112/11 111/11 110/11 109/11
v -0.5535 0.1800 0.4812
v -0.6935 0.1800 0.2388
v -0.6935 -0.0000 0.2388
v -0.5535 -0.0000 0.4812
f 116/11 115/11 114/11 113/11
v -0.7267 -0.0000 0.5812
v -0.8667 -0.0000 0.3388
v -0.8667 0.1800 0.3388
v -0.7267 0.1800 0.5812
f 120/11 119/11 118/11 117/11
v -0.3388 -0.0200 0.8667
v -0.3388 0.2000 0.8667
v -0.2388 0.2000 0.6935
v -0.2388 -0.0200 0.6935
f 124/11 123/11 122/11 121/11
v -0.4812 -0.0200 0.5535
v -0.4812 0.2000 0.5535
v -0.5812 0.2000 0.7267
v -0.5812 -0.0200 0.7267
f 128/11 127/11 126/11 125/11
v -0.2388 -0.0200 0.6935
v -0.4812 -0.0200 0.5535
v -0.5812 -0.0200 0.7267
v -0.3388 -0.0200 0.8667
f 132/11 131/11 130/11 129/11
v -0.3388 0.2000 0.8667
v -0.5812 0.2000 0.7267
v -0.4812 0.2000 0.5535
v -0.2388 0.2000 0.6935
f 136/11 135/11 134/11 133/11
v -0.2388 0.2000 0.6935
v -0.4812 0.2000 0.5535
v -0.4812 -0.0200 0.5535
v -0.2388 -0.0200 0.6935
f 140/11 139/11 138/11 137/11
v -0.3388 -0.0200 0.8667
v -0.5812 -0.0200 0.7267
v -0.5812 0.2000 0.7267
v -0.3388 0.2000 0.8667
f 144/11 143/11 142/11 141/11
v 0.1400 0.0200 0.9200
v 0.1400 0.1600 0.9200
v 0.1400 0.1600 0.7200
v 0.1400 0.0200 0.7200
f 148/11 147/11 146/11 145/11
v -0.1400 0.0200 0.7200
v -0.1400 0.1600 0.7200
v -0.1400 0.1600 0.9200
v -0.1400 0.0200 0.9200
f 152/11 151/11 150/11 149/11
v 0.1400 0.0200 0.7200
v -0.1400 0.0200 0.7200
v -0.1400 0.0200 0.9200
v 0.1400 0.0200 0.9200
f 156/11 155/11 154/11 153/11
v 0.1400 0.1600 0.9200
v -0.1400 0.1600 0.9200
v -0.1400 0.1600 0.7200
v 0.1400 0.1600 0.7200
f 160/11 159/11 158/11 157/11
v 0.1400 0.1600 0.7200
v -0.1400 0.1600 0.7200
v -0.1400 0.0200 0.7200
v 0.1400 0.0200 0.7200
f 164/11 163/11 162/11 161/11
v 0.1400 0.0200 0.9200
v -0.1400 0.0200 0.9200
v -0.1400 0.1600 0.9200
v 0.1400 0.1600 0.9200
f 168/11 167/11 166/11 165/11
v 0.5812 -0.0000 0.7267
v 0.5812 0.1800 0.7267
v 0.4812 0.1800 0.5535
v 0.4812 -0.0000 0.5535
f 172/11 171/11 170/11 169/11
v 0.2388 -0.0000 0.6935
v 0.2388 0.1800 0.6935
v 0.3388 0.1800 0.8667
v 0.3388 -0.0000 0.8667
f 176/11 175/11 174/11 173/11
v 0.4812 -0.0000 0.5535
v 0.2388 -0.0000 0.6935
v 0.3388 -0.0000 0.8667
v 0.5812 -0.0000 0.7267
f 180/11 179/11 178/11 177/11
v 0.5812 0.1800 0.7267
v 0.3388 0.1800 0.8667
v 0.2388 0.1800 0.6935
v 0.4812 0.1800 0.5535
f 184/11 183/11 182/11 181/11
v 0.4812 0.1800 0.5535
v 0.2388 0.1800 0.6935
v 0.2388 -0.0000 0.6935
v 0.4812 -0.0000 0.5535
f 188/11 187/11 186/11 185/11
v 0.5812 -0.0000 0.7267
v 0.3388 -0.0000 0.8667
v 0.3388 0.1800 0.8667
v 0.5812 0.1800 0.7267
f 192/11 191/11 190/11 189/11
v 0.8667 -0.0200 0.3388
v 0.8667 0.2000 0.3388
v 0.6935 0.2000 0.2388
v 0.6935 -0.0200 0.2388
f 196/11 195/11 194/11 193/11
v 0.5535 -0.0200 0.4812
v 0.5535 0.2000 0.4812
v 0.7267 0.2000 0.5812
v 0.7267 -0.0200 0.5812
f 200/11 199/11 198/11 197/11
v 0.6935 -0.0200 0.2388
v 0.5535 -0.0200 0.4812
v 0.7267 -0.0200 0.5812
v 0.8667 -0.0200 0.3388
f 204/11 203/11 202/11 201/11
v 0.8667 0.2000 0.3388
v 0.7267 0.2000 0.5812
v 0.5535 0.2000 0.4812
v 0.6935 0.2000 0.2388
f 208/11 207/11 206/11 205/11
v 0.6935 0.2000 0.2388
v 0.5535 0.2000 0.4812
v 0.5535 -0.0200 0.4812
v 0.6935 -0.0200 0.2388
f 212/11 211/11 210/11 209/11
v 0.8667 -0.0200 0.3388
v 0.7267 -0.0200 0.5812
v 0.7267 0.2000 0.5812
v 0.8667 0.2000 0.3388
f 216/11 215/11 214/11 213/11
v 0.9200 0.0200 -0.1400
v 0.9200 0.1600 -0.1400
v 0.7200 0.1600 -0.1400
v 0.7200 0.0200 -0.1400
f 220/11 219/11 218/11 217/11
v 0.7200 0.0200 0.1400
v 0.7200 0.1600 0.1400
v 0.9200 0.1600 0.1400
v 0.9200 0.0200 0.1400
f 224/11 223/11 222/11 221/11
v 0.7200 0.0200 -0.1400
v 0.7200 0.0200 0.1400
v 0.9200 0.0200 0.1400
v 0.9200 0.0200 -0.1400
f 228/11 227/11 226/11 225/11
v 0.9200 0.1600 -0.1400
v 0.9200 0.1600 0.1400
v 0.7200 0.1600 0.1400
v 0.7200 0.1600 -0.1400
f 232/11 231/11 230/11 229/11
v 0.7200 0.1600 -0.1400
v 0.7200 0.1600 0.1400
v 0.7200 0.0200 0.1400
v 0.7200 0.0200 -0.1400
f 236/11 235/11 234/11 233/11
v 0.9200 0.0200 -0.1400
v 0.9200 0.0200 0.1400
v 0.9200 0.1600 0.1400
v 0.9200 0.1600 -0.1400
f 240/11 239/11 238/11 237/11
v 0.7267 -0.0000 -0.5812
v 0.7267 0.1800 -0.5812
v 0.5535 0.1800 -0.4812
v 0.5535 -0.0000 -0.4812
f 244/11 243/11 242/11 241/11
v 0.6935 -0.0000 -0.2388
v 0.6935 0.1800 -0.2388
v 0.8667 0.1800 -0.3388
v 0.8667 -0.0000 -0.3388
f 248/11 247/11 246/11 245/11
v 0.5535 -0.0000 -0.4812
v 0.6935 -0.0000 -0.2388
v 0.8667 -0.0000 -0.3388
v 0.7267 -0.0000 -0.5812
f 252/11 251/11 250/11 249/11
v 0.7267 0.1800 -0.5812
v 0.8667 0.1800 -0.3388
v 0.6935 0.1800 -0.2388
v 0.5535 0.1800 -0.4812
f 256/11 255/11 254/11 253/11
v 0.5535 0.1800 -0.4812
v 0.6935 0.1800 -0.2388
v 0.6935 -0.0000 -0.2388
v 0.5535 -0.0000 -0.4812
f 260/11 259/11 258/11 257/11
v 0.7267 -0.0000 -0.5812
v 0.8667 -0.0000 -0.3388
v 0.8667 0.1800 -0.3388
v 0.7267 0.1800 -0.5812
f 264/11 263/11 262/11 261/11
v 0.3388 -0.0200 -0.8667
v 0.3388 0.2000 -0.8667
v 0.2388 0.2000 -0.6935
v 0.2388 -0.0200 -0.6935
f 268/11 267/11 266/11 265/11
v 0.4812 -0.0200 -0.5535
v 0.4812 0.2000 -0.5535
v 0.5812 0.2000 -0.7267
v 0.5812 -0.0200 -0.7267
f 272/11 271/11 270/11 269/11
v 0.2388 -0.0200 -0.6935
v 0.4812 -0.0200 -0.5535
v 0.5812 -0.0200 -0.7267
v 0.3388 -0.0200 -0.8667
f 276/11 275/11 274/11 273/11
v 0.3388 0.2000 -0.8667
v 0.5812 0.2000 -0.7267
v 0.4812 0.2000 -0.5535
v 0.2388 0.2000 -0.6935
f 280/11 279/11 278/11 277/11
v 0.2388 0.2000 -0.6935
v 0.4812 0.2000 -0.5535
v 0.4812 -0.0200 -0.5535
v 0.2388 -0.0200 -0.6935
f 284/11 283/11 282/11 281/11
v 0.3388 -0.0200 -0.8667
v 0.5812 -0.0200 -0.7267
v 0.5812 0.2000 -0.7267
v 0.3388 0.2000 -0.8667
f 288/11 287/11 286/11 285/11
v -0.1400 0.0200 -0.9200
v -0.1400 0.1600 -0.9200
v -0.1400 0.1600 -0.7200
v -0.1400 0.0200 -0.7200
f 292/11 291/11 290/11 289/11
v 0.1400 0.0200 -0.7200
v 0.1400 0.1600 -0.7200
v 0.1400 0.1600 -0.9200
v 0.1400 0.0200 -0.9200
f 296/11 295/11 294/11 293/11
v -0.1400 0.0200 -0.7200
v 0.1400 0.0200 -0.7200
v 0.1400 0.0200 -0.9200
v -0.1400 0.0200 -0.9200
f 300/11 299/11 298/11 297/11
v -0.1400 0.1600 -0.9200
v 0.1400 0.1600 -0.9200
v 0.1400 0.1600 -0.7200
v -0.1400 0.1600 -0.7200
f 304/11 303/11 302/11 301/11
v -0.1400 0.1600 -0.7200
v 0.1400 0.1600 -0.7200
v 0.1400 0.0200 -0.7200
v -0.1400 0.0200 -0.7200
f 308/11 307/11 306/11 305/11
v -0.1400 0.0200 -0.9200
v 0.1400 0.0200 -0.9200
v 0.1400 0.1600 -0.9200
v -0.1400 0.1600 -0.9200
f 312/11 311/11 310/11 309/11
v -0.5812 -0.0000 -0.7267
v -0.5812 0.1800 -0.7267
v -0.4812 0.1800 -0.5535
v -0.4812 -0.0000 -0.5535
f 316/11 315/11 314/11 313/11
v -0.2388 -0.0000 -0.6935
v -0.2388 0.1800 -0.6935
v -0.3388 0.1800 -0.8667
v -0.3388 -0.0000 -0.8667
f 320/11 319/11 318/11 317/11
v -0.4812 -0.0000 -0.5535
v -0.2388 -0.0000 -0.6935
v -0.3388 -0.0000 -0.8667
v -0.5812 -0.0000 -0.7267
f 324/11 323/11 322/11 321/11
v -0.5812 0.1800 -0.7267
v -0.3388 0.1800 -0.8667
v -0.2388 0.1800 -0.6935
v -0.4812 0.1800 -0.5535
f 328/11 327/11 326/11 325/11
v -0.4812 0.1800 -0.5535
v -0.2388 0.1800 -0.6935
v -0.2388 -0.0000 -0.6935
v -0.4812 -0.0000 -0.5535
f 332/11 331/11 330/11 329/11
v -0.5812 -0.0000 -0.7267
v -0.3388 -0.0000 -0.8667
v -0.3388 0.1800 -0.8667
v -0.5812 0.1800 -0.7267
f 336/11 335/11 334/11 333/11
v -0.8667 -0.0200 -0.3388
v -0.8667 0.2000 -0.3388
v -0.6935 0.2000 -0.2388
v -0.6935 -0.0200 -0.2388
f 340/11 339/11 338/11 337/11
v -0.5535 -0.0200 -0.4812
v -0.5535 0.2000 -0.4812
v -0.7267 0.2000 -0.5812
v -0.7267 -0.0200 -0.5812
f 344/11 343/11 342/11 341/11
v -0.6935 -0.0200 -0.2388
v -0.5535 -0.0200 -0.4812
v -0.7267 -0.0200 -0.5812
v -0.8667 -0.0200 -0.3388
f 348/11 347/11 346/11 345/11
v -0.8667 0.2000 -0.3388
v -0.7267 0.2000 -0.5812
v -0.5535 0.2000 -0.4812
v -0.6935 0.2000 -0.2388
f 352/11 351/11 350/11 349/11
v -0.6935 0.2000 -0.2388
v -0.5535 0.2000 -0.4812
v -0.5535 -0.0200 -0.4812
v -0.6935 -0.0200 -0.2388
f 356/11 355/11 354/11 353/11
v -0.8667 -0.0200 -0.3388
v -0.7267 -0.0200 -0.5812
v -0.7267 0.2000 -0.5812
v -0.8667 0.2000 -0.3388
f 360/11 359/11 358/11 357/11
v -0.1915 0.0400 0.7148
v -0.5233 0.0400 0.5233
v -0.5233 0.0800 0.5233
v -0.1915 0.0800 0.7148
f 364/13 363/13 362/13 361/13
v -0.5233 0.0400 0.5233
v -0.7148 0.0400 0.1915
v -0.7148 0.0800 0.1915
v -0.5233 0.0800 0.5233
f 368/13 367/13 366/13 365/13
v -0.7148 0.0400 0.1915
v -0.7148 0.0400 -0.1915
v -0.7148 0.0800 -0.1915
v -0.7148 0.0800 0.1915
f 372/13 371/13 370/13 369/13
v -0.7148 0.0400 -0.1915
v -0.5233 0.0400 -0.5233
v -0.5233 0.0800 -0.5233
v -0.7148 0.0800 -0.1915
f 376/13 375/13 374/13 373/13
v -0.5233 0.0400 -0.5233
v -0.1915 0.0400 -0.7148
v -0.1915 0.0800 -0.7148
v -0.5233 0.0800 -0.5233
f 380/13 379/13 378/13 377/13
v -0.1915 0.0400 -0.7148
v 0.1915 0.0400 -0.7148
v 0.1915 0.0800 -0.7148
v -0.1915 0.0800 -0.7148
f 384/13 383/13 382/13 381/13
v 0.1915 0.0400 -0.7148
v 0.5233 0.0400 -0.5233
v 0.5233 0.0800 -0.5233
v 0.1915 0.0800 -0.7148
f 388/13 387/13 386/13 385/13
v 0.5233 0.0400 -0.5233
v 0.7148 0.0400 -0.1915
v 0.7148 0.0800 -0.1915
v 0.5233 0.0800 -0.5233
f 392/13 391/13 390/13 389/13
v 0.7148 0.0400 -0.1915
v 0.7148 0.0400 0.1915
v 0.7148 0.0800 0.1915
v 0.7148 0.0800 -0.1915
f 396/13 395/13 394/13 393/13
v 0.7148 0.0400 0.1915
v 0.5233 0.0400 0.5233
v 0.5233 0.0800 0.5233
v 0.7148 0.0800 0.1915
f 400/13 399/13 398/13 397/13
v 0.5233 0.0400 0.5233
v 0.1915 0.0400 0.7148
v 0.1915 0.0800 0.7148
v 0.5233 0.0800 0.5233
f 404/13 403/13 402/13 401/13
v 0.1915 0.0400 0.7148
v -0.1915 0.0400 0.7148
v -0.1915 0.0800 0.7148
v 0.1915 0.0800 0.7148
f 408/13 407/13 406/13 405/13
v 0.1915 0.0400 0.7148
v 0.5233 0.0400 0.5233
v 0.7148 0.0400 0.1915
v 0.7148 0.0400 -0.1915
v 0.5233 0.0400 -0.5233
v 0.1915 0.0400 -0.7148
v -0.1915 0.0400 -0.7148
v -0.5233 0.0400 -0.5233
v -0.7148 0.0400 -0.1915
v -0.7148 0.0400 0.1915
v -0.5233 0.0400 0.5233
v -0.1915 0.0400 0.7148
f 420/13 419/13 418/13 417/13 416/13 415/13 414/13 413/13 412/13 411/13 410/13 409/13
v -0.1915 0.0800 0.7148
v -0.5233 0.0800 0.5233
v -0.7148 0.0800 0.1915
v -0.7148 0.0800 -0.1915
v -0.5233 0.0800 -0.5233
v -0.1915 0.0800 -0.7148
v 0.1915 0.0800 -0.7148
v 0.5233 0.0800 -0.5233
v 0.7148 0.0800 -0.1915
v 0.7148 0.0800 0.1915
v 0.5233 0.0800 0.5233
v 0.1915 0.0800 0.7148
f 432/13 431/13 430/13 429/13 428/13 427/13 426/13 425/13 424/13 423/13 422/13 421/13
v 0.2041 0.0850 0.3109
v 0.1391 0.0850 0.2459
v 0.1391 0.0950 0.2459
v 0.2041 0.0950 0.3109
f 436/20 435/20 434/20 433/20
v 0.1391 0.0850 0.2459
v 0.1391 0.0850 0.1541
v 0.1391 0.0950 0.1541
v 0.1391 0.0950 0.2459
f 440/20 439/20 438/20 437/20
v 0.1391 0.0850 0.1541
v 0.2041 0.0850 0.0891
v 0.2041 0.0950 0.0891
v 0.1391 0.0950 0.1541
f 444/20 443/20 442/20 441/20
v 0.2041 0.0850 0.0891
v 0.2959 0.0850 0.0891
v 0.2959 0.0950 0.0891
v 0.2041 0.0950 0.0891
f 448/20 447/20 446/20 445/20
v 0.2959 0.0850 0.0891
v 0.3609 0.0850 0.1541
v 0.3609 0.0950 0.1541
v 0.2959 0.0950 0.0891
f 452/20 451/20 450/20 449/20
v 0.3609 0.0850 0.1541
v 0.3609 0.0850 0.2459
v 0.3609 0.0950 0.2459
v 0.3609 0.0950 0.1541
f 456/20 455/20 454/20 453/20
v 0.3609 0.0850 0.2459
v 0.2959 0.0850 0.3109
v 0.2959 0.0950 0.3109
v 0.3609 0.0950 0.2459
f 460/20 459/20 458/20 457/20
v 0.2959 0.0850 0.3109
v 0.2041 0.0850 0.3109
v 0.2041 0.0950 0.3109
v 0.2959 0.0950 0.3109
f 464/20 463/20 462/20 461/20
v 0.2959 0.0850 0.3109
v 0.3609 0.0850 0.2459
v 0.3609 0.0850 0.1541
v 0.2959 0.0850 0.0891
v 0.2041 0.0850 0.0891
v 0.1391 0.0850 0.1541
v 0.1391 0.0850 0.2459
v 0.2041 0.0850 0.3109
f 472/20 471/20 470/20 469/20 468/20 467/20 466/20 465/20
v 0.2041 0.0950 0.3109
v 0.1391 0.0950 0.2459
v 0.1391 0.0950 0.1541
v 0.2041 0.0950 0.0891
v 0.2959 0.0950 0.0891
v 0.3609 0.0950 0.1541
v 0.3609 0.0950 0.2459
v 0.2959 0.0950 0.3109
f 480/20 479/20 478/20 477/20 476/20 475/20 474/20 473/20
v -0.2344 0.0850 0.3831
v -0.2831 0.0850 0.3344
v -0.2831 0.0950 0.3344
v -0.2344 0.0950 0.3831
f 484/20 483/20 482/20 481/20
v -0.2831 0.0850 0.3344
v -0.2831 0.0850 0.2656
v -0.2831 0.0950 0.2656
v -0.2831 0.0950 0.3344
f 488/20 487/20 486/20 485/20
v -0.2831 0.0850 0.2656
v -0.2344 0.0850 0.2169
v -0.2344 0.0950 0.2169
v -0.2831 0.0950 0.2656
f 492/20 491/20 490/20 489/20
v -0.2344 0.0850 0.2169
v -0.1656 0.0850 0.2169
v -0.1656 0.0950 0.2169
v -0.2344 0.0950 0.2169
f 496/20 495/20 494/20 493/20
v -0.1656 0.0850 0.2169
v -0.1169 0.0850 0.2656
v -0.1169 0.0950 0.2656
v -0.1656 0.0950 0.2169
f 500/20 499/20 498/20 497/20
v -0.1169 0.0850 0.2656
v -0.1169 0.0850 0.3344
v -0.1169 0.0950 0.3344
v -0.1169 0.0950 0.2656
f 504/20 503/20 502/20 501/20
v -0.1169 0.0850 0.3344
v -0.1656 0.0850 0.3831
v -0.1656 0.0950 0.3831
v -0.1169 0.0950 0.3344
f 508/20 507/20 506/20 505/20
v -0.1656 0.0850 0.3831
v -0.2344 0.0850 0.3831
v -0.2344 0.0950 0.3831
v -0.1656 0.0950 0.3831
f 512/20 511/20 510/20 509/20
v -0.1656 0.0850 0.3831
v -0.1169 0.0850 0.3344
v -0.1169 0.0850 0.2656
v -0.1656 0.0850 0.2169
v -0.2344 0.0850 0.2169
v -0.2831 0.0850 0.2656
v -0.2831 0.0850 0.3344
v -0.2344 0.0850 0.3831
f 520/20 519/20 518/20 517/20 516/20 515/20 514/20 513/20
v -0.2344 0.0950 0.3831
v -0.2831 0.0950 0.3344
v -0.2831 0.0950 0.2656
v -0.2344 0.0950 0.2169
v -0.1656 0.0950 0.2169
v -0.1169 0.0950 0.2656
v -0.1169 0.0950 0.3344
v -0.1656 0.0950 0.3831
f 528/20 527/20 526/20 525/20 524/20 523/20 522/20 521/20
v 0.0117 0.0850 -0.2076
v -0.0424 0.0850 -0.2617
v -0.0424 0.0950 -0.2617
v 0.0117 0.0950 -0.2076
f 532/20 531/20 530/20 529/20
v -0.0424 0.0850 -0.2617
v -0.0424 0.0850 -0.3383
v -0.0424 0.0950 -0.3383
v -0.0424 0.0950 -0.2617
f 536/20 535/20 534/20 533/20
v -0.0424 0.0850 -0.3383
v 0.0117 0.0850 -0.3924
v 0.0117 0.0950 -0.3924
v -0.0424 0.0950 -0.3383
f 540/20 539/20 538/20 537/20
v 0.0117 0.0850 -0.3924
v 0.0883 0.0850 -0.3924
v 0.0883 0.0950 -0.3924
v 0.0117 0.0950 -0.3924
f 544/20 543/20 542/20 541/20
v 0.0883 0.0850 -0.3924
v 0.1424 0.0850 -0.3383
v 0.1424 0.0950 -0.3383
v 0.0883 0.0950 -0.3924
f 548/20 547/20 546/20 545/20
v 0.1424 0.0850 -0.3383
v 0.1424 0.0850 -0.2617
v 0.1424 0.0950 -0.2617
v 0.1424 0.0950 -0.3383
f 552/20 551/20 550/20 549/20
v 0.1424 0.0850 -0.2617
v 0.0883 0.0850 -0.2076
v 0.0883 0.0950 -0.2076
v 0.1424 0.0950 -0.2617
f 556/20 555/20 554/20 553/20
v 0.0883 0.0850 -0.2076
v 0.0117 0.0850 -0.2076
v 0.0117 0.0950 -0.2076
v 0.0883 0.0950 -0.2076
f 560/20 559/20 558/20 557/20
v 0.0883 0.0850 -0.2076
v 0.1424 0.0850 -0.2617
v 0.1424 0.0850 -0.3383
v 0.0883 0.0850 -0.3924
v 0.0117 0.0850 -0.3924
v -0.0424 0.0850 -0.3383
v -0.0424 0.0850 -0.2617
v 0.0117 0.0850 -0.2076
f 568/20 567/20 566/20 565/20 564/20 563/20 562/20 561/20
v 0.0117 0.0950 -0.2076
v -0.0424 0.0950 -0.2617
v -0.0424 0.0950 -0.3383
v 0.0117 0.0950 -0.3924
v 0.0883 0.0950 -0.3924
v 0.1424 0.0950 -0.3383
v 0.1424 0.0950 -0.2617
v 0.0883 0.0950 -0.2076
f 576/20 575/20 574/20 573/20 572/20 571/20 570/20 569/20
v 0.2450 0.0850 0.2450
v 0.2450 0.1150 0.2450
v 0.2450 0.1150 0.1950
v 0.2450 0.0850 0.1950
f 580/26 579/26 578/26 577/26
v 0.1950 0.0850 0.1950
v 0.1950 0.1150 0.1950
v 0.1950 0.1150 0.2450
v 0.1950 0.0850 0.2450
f 584/26 583/26 582/26 581/26
v 0.2450 0.0850 0.1950
v 0.1950 0.0850 0.1950
v 0.1950 0.0850 0.2450
v 0.2450 0.0850 0.2450
f 588/26 587/26 586/26 585/26
v 0.2450 0.1150 0.2450
v 0.1950 0.1150 0.2450
v 0.1950 0.1150 0.1950
v 0.2450 0.1150 0.1950
f 592/26 591/26 590/26 589/26
v 0.2450 0.1150 0.1950
v 0.1950 0.1150 0.1950
v 0.1950 0.0850 0.1950
v 0.2450 0.0850 0.1950
f 596/26 595/26 594/26 593/26
v 0.2450 0.0850 0.2450
v 0.1950 0.0850 0.2450
v 0.1950 0.1150 0.2450
v 0.2450 0.1150 0.2450
f 600/26 599/26 598/26 597/26
