# Walk of Industry low-poly (generated, wi_lib.py)
mtllib wi.mtl
vt 0 0
vt 0.03125 0.03125
vt 0.09375 0.03125
vt 0.15625 0.03125
vt 0.21875 0.03125
vt 0.28125 0.03125
vt 0.34375 0.03125
vt 0.40625 0.03125
vt 0.46875 0.03125
vt 0.53125 0.03125
vt 0.59375 0.03125
vt 0.65625 0.03125
vt 0.71875 0.03125
vt 0.78125 0.03125
vt 0.84375 0.03125
vt 0.90625 0.03125
vt 0.96875 0.03125
vt 0.03125 0.09375
vt 0.09375 0.09375
vt 0.15625 0.09375
vt 0.21875 0.09375
vt 0.28125 0.09375
vt 0.34375 0.09375
vt 0.40625 0.09375
vt 0.46875 0.09375
vt 0.53125 0.09375
vt 0.59375 0.09375
vt 0.65625 0.09375
vt 0.71875 0.09375
vt 0.78125 0.09375
vt 0.84375 0.09375
vt 0.90625 0.09375
vt 0.96875 0.09375
o Body
usemtl wi_paint
v -0.0918 0.0000 0.2217
v -0.2217 0.0000 0.0918
v -0.2772 0.4200 0.1148
v -0.1148 0.4200 0.2772
f 4/1 3/1 2/1 1/1
v -0.2217 0.0000 0.0918
v -0.2217 0.0000 -0.0918
v -0.2772 0.4200 -0.1148
v -0.2772 0.4200 0.1148
f 8/1 7/1 6/1 5/1
v -0.2217 0.0000 -0.0918
v -0.0918 0.0000 -0.2217
v -0.1148 0.4200 -0.2772
v -0.2772 0.4200 -0.1148
f 12/1 11/1 10/1 9/1
v -0.0918 0.0000 -0.2217
v 0.0918 0.0000 -0.2217
v 0.1148 0.4200 -0.2772
v -0.1148 0.4200 -0.2772
f 16/1 15/1 14/1 13/1
v 0.0918 0.0000 -0.2217
v 0.2217 0.0000 -0.0918
v 0.2772 0.4200 -0.1148
v 0.1148 0.4200 -0.2772
f 20/1 19/1 18/1 17/1
v 0.2217 0.0000 -0.0918
v 0.2217 0.0000 0.0918
v 0.2772 0.4200 0.1148
v 0.2772 0.4200 -0.1148
f 24/1 23/1 22/1 21/1
v 0.2217 0.0000 0.0918
v 0.0918 0.0000 0.2217
v 0.1148 0.4200 0.2772
v 0.2772 0.4200 0.1148
f 28/1 27/1 26/1 25/1
v 0.0918 0.0000 0.2217
v -0.0918 0.0000 0.2217
v -0.1148 0.4200 0.2772
v 0.1148 0.4200 0.2772
f 32/1 31/1 30/1 29/1
v 0.0918 0.0000 0.2217
v 0.2217 0.0000 0.0918
v 0.2217 0.0000 -0.0918
v 0.0918 0.0000 -0.2217
v -0.0918 0.0000 -0.2217
v -0.2217 0.0000 -0.0918
v -0.2217 0.0000 0.0918
v -0.0918 0.0000 0.2217
f 40/1 39/1 38/1 37/1 36/1 35/1 34/1 33/1
v -0.1148 0.4200 0.2772
v -0.2772 0.4200 0.1148
v -0.2772 0.4200 -0.1148
v -0.1148 0.4200 -0.2772
v 0.1148 0.4200 -0.2772
v 0.2772 0.4200 -0.1148
v 0.2772 0.4200 0.1148
v 0.1148 0.4200 0.2772
f 48/1 47/1 46/1 45/1 44/1 43/1 42/1 41/1
usemtl wi_palette
v -0.1186 0.4000 0.2864
v -0.2864 0.4000 0.1186
v -0.2864 0.4500 0.1186
v -0.1186 0.4500 0.2864
f 52/6 51/6 50/6 49/6
v -0.2864 0.4000 0.1186
v -0.2864 0.4000 -0.1186
v -0.2864 0.4500 -0.1186
v -0.2864 0.4500 0.1186
f 56/6 55/6 54/6 53/6
v -0.2864 0.4000 -0.1186
v -0.1186 0.4000 -0.2864
v -0.1186 0.4500 -0.2864
v -0.2864 0.4500 -0.1186
f 60/6 59/6 58/6 57/6
v -0.1186 0.4000 -0.2864
v 0.1186 0.4000 -0.2864
v 0.1186 0.4500 -0.2864
v -0.1186 0.4500 -0.2864
f 64/6 63/6 62/6 61/6
v 0.1186 0.4000 -0.2864
v 0.2864 0.4000 -0.1186
v 0.2864 0.4500 -0.1186
v 0.1186 0.4500 -0.2864
f 68/6 67/6 66/6 65/6
v 0.2864 0.4000 -0.1186
v 0.2864 0.4000 0.1186
v 0.2864 0.4500 0.1186
v 0.2864 0.4500 -0.1186
f 72/6 71/6 70/6 69/6
v 0.2864 0.4000 0.1186
v 0.1186 0.4000 0.2864
v 0.1186 0.4500 0.2864
v 0.2864 0.4500 0.1186
f 76/6 75/6 74/6 73/6
v 0.1186 0.4000 0.2864
v -0.1186 0.4000 0.2864
v -0.1186 0.4500 0.2864
v 0.1186 0.4500 0.2864
f 80/6 79/6 78/6 77/6
v 0.1186 0.4000 0.2864
v 0.2864 0.4000 0.1186
v 0.2864 0.4000 -0.1186
v 0.1186 0.4000 -0.2864
v -0.1186 0.4000 -0.2864
v -0.2864 0.4000 -0.1186
v -0.2864 0.4000 0.1186
v -0.1186 0.4000 0.2864
f 88/6 87/6 86/6 85/6 84/6 83/6 82/6 81/6
v -0.1186 0.4500 0.2864
v -0.2864 0.4500 0.1186
v -0.2864 0.4500 -0.1186
v -0.1186 0.4500 -0.2864
v 0.1186 0.4500 -0.2864
v 0.2864 0.4500 -0.1186
v 0.2864 0.4500 0.1186
v 0.1186 0.4500 0.2864
f 96/6 95/6 94/6 93/6 92/6 91/6 90/6 89/6
v -0.1033 0.4200 0.2494
v -0.2494 0.4200 0.1033
v -0.2494 0.4400 0.1033
v -0.1033 0.4400 0.2494
f 100/5 99/5 98/5 97/5
v -0.2494 0.4200 0.1033
v -0.2494 0.4200 -0.1033
v -0.2494 0.4400 -0.1033
v -0.2494 0.4400 0.1033
f 104/5 103/5 102/5 101/5
v -0.2494 0.4200 -0.1033
v -0.1033 0.4200 -0.2494
v -0.1033 0.4400 -0.2494
v -0.2494 0.4400 -0.1033
f 108/5 107/5 106/5 105/5
v -0.1033 0.4200 -0.2494
v 0.1033 0.4200 -0.2494
v 0.1033 0.4400 -0.2494
v -0.1033 0.4400 -0.2494
f 112/5 111/5 110/5 109/5
v 0.1033 0.4200 -0.2494
v 0.2494 0.4200 -0.1033
v 0.2494 0.4400 -0.1033
v 0.1033 0.4400 -0.2494
f 116/5 115/5 114/5 113/5
v 0.2494 0.4200 -0.1033
v 0.2494 0.4200 0.1033
v 0.2494 0.4400 0.1033
v 0.2494 0.4400 -0.1033
f 120/5 119/5 118/5 117/5
v 0.2494 0.4200 0.1033
v 0.1033 0.4200 0.2494
v 0.1033 0.4400 0.2494
v 0.2494 0.4400 0.1033
f 124/5 123/5 122/5 121/5
v 0.1033 0.4200 0.2494
v -0.1033 0.4200 0.2494
v -0.1033 0.4400 0.2494
v 0.1033 0.4400 0.2494
f 128/5 127/5 126/5 125/5
v 0.1033 0.4200 0.2494
v 0.2494 0.4200 0.1033
v 0.2494 0.4200 -0.1033
v 0.1033 0.4200 -0.2494
v -0.1033 0.4200 -0.2494
v -0.2494 0.4200 -0.1033
v -0.2494 0.4200 0.1033
v -0.1033 0.4200 0.2494
f 136/5 135/5 134/5 133/5 132/5 131/5 130/5 129/5
v -0.1033 0.4400 0.2494
v -0.2494 0.4400 0.1033
v -0.2494 0.4400 -0.1033
v -0.1033 0.4400 -0.2494
v 0.1033 0.4400 -0.2494
v 0.2494 0.4400 -0.1033
v 0.2494 0.4400 0.1033
v 0.1033 0.4400 0.2494
f 144/5 143/5 142/5 141/5 140/5 139/5 138/5 137/5
v -0.0250 0.4190 0.0433
v -0.0500 0.4181 0.0000
v -0.0800 1.1981 0.0000
v -0.0550 1.1990 0.0433
f 148/22 147/22 146/22 145/22
v -0.0500 0.4181 0.0000
v -0.0250 0.4190 -0.0433
v -0.0550 1.1990 -0.0433
v -0.0800 1.1981 0.0000
f 152/22 151/22 150/22 149/22
v -0.0250 0.4190 -0.0433
v 0.0250 0.4210 -0.0433
v -0.0050 1.2010 -0.0433
v -0.0550 1.1990 -0.0433
f 156/22 155/22 154/22 153/22
v 0.0250 0.4210 -0.0433
v 0.0500 0.4219 -0.0000
v 0.0200 1.2019 -0.0000
v -0.0050 1.2010 -0.0433
f 160/22 159/22 158/22 157/22
v 0.0500 0.4219 -0.0000
v 0.0250 0.4210 0.0433
v -0.0050 1.2010 0.0433
v 0.0200 1.2019 -0.0000
f 164/22 163/22 162/22 161/22
v 0.0250 0.4210 0.0433
v -0.0250 0.4190 0.0433
v -0.0550 1.1990 0.0433
v -0.0050 1.2010 0.0433
f 168/22 167/22 166/22 165/22
v 0.0250 0.4210 0.0433
v 0.0500 0.4219 -0.0000
v 0.0250 0.4210 -0.0433
v -0.0250 0.4190 -0.0433
v -0.0500 0.4181 0.0000
v -0.0250 0.4190 0.0433
f 174/22 173/22 172/22 171/22 170/22 169/22
v -0.0550 1.1990 0.0433
v -0.0800 1.1981 0.0000
v -0.0550 1.1990 -0.0433
v -0.0050 1.2010 -0.0433
v 0.0200 1.2019 -0.0000
v -0.0050 1.2010 0.0433
f 180/22 179/22 178/22 177/22 176/22 175/22
v -0.0300 1.6700 0.0000
v -0.1166 1.5763 0.2091
v -0.2391 1.5763 0.0866
f 183/20 182/20 181/20
v -0.0300 1.6700 0.0000
v 0.0566 1.5763 0.2091
v -0.1166 1.5763 0.2091
f 186/20 185/20 184/20
v -0.0300 1.6700 0.0000
v 0.1791 1.5763 0.0866
v 0.0566 1.5763 0.2091
f 189/20 188/20 187/20
v -0.0300 1.6700 0.0000
v 0.1791 1.5763 -0.0866
v 0.1791 1.5763 0.0866
f 192/20 191/20 190/20
v -0.0300 1.6700 0.0000
v 0.0566 1.5763 -0.2091
v 0.1791 1.5763 -0.0866
f 195/20 194/20 193/20
v -0.0300 1.6700 0.0000
v -0.1166 1.5763 -0.2091
v 0.0566 1.5763 -0.2091
f 198/20 197/20 196/20
v -0.0300 1.6700 0.0000
v -0.2391 1.5763 -0.0866
v -0.1166 1.5763 -0.2091
f 201/20 200/20 199/20
v -0.0300 1.6700 0.0000
v -0.2391 1.5763 0.0866
v -0.2391 1.5763 -0.0866
f 204/20 203/20 202/20
v -0.2391 1.5763 0.0866
v -0.1166 1.5763 0.2091
v -0.2563 1.3500 0.2263
v -0.3500 1.3500 0.0000
f 208/20 207/20 206/20 205/20
v -0.1166 1.5763 0.2091
v 0.0566 1.5763 0.2091
v -0.0300 1.3500 0.3200
v -0.2563 1.3500 0.2263
f 212/20 211/20 210/20 209/20
v 0.0566 1.5763 0.2091
v 0.1791 1.5763 0.0866
v 0.1963 1.3500 0.2263
v -0.0300 1.3500 0.3200
f 216/20 215/20 214/20 213/20
v 0.1791 1.5763 0.0866
v 0.1791 1.5763 -0.0866
v 0.2900 1.3500 0.0000
v 0.1963 1.3500 0.2263
f 220/20 219/20 218/20 217/20
v 0.1791 1.5763 -0.0866
v 0.0566 1.5763 -0.2091
v 0.1963 1.3500 -0.2263
v 0.2900 1.3500 0.0000
f 224/20 223/20 222/20 221/20
v 0.0566 1.5763 -0.2091
v -0.1166 1.5763 -0.2091
v -0.0300 1.3500 -0.3200
v 0.1963 1.3500 -0.2263
f 228/20 227/20 226/20 225/20
v -0.1166 1.5763 -0.2091
v -0.2391 1.5763 -0.0866
v -0.2563 1.3500 -0.2263
v -0.0300 1.3500 -0.3200
f 232/20 231/20 230/20 229/20
v -0.2391 1.5763 -0.0866
v -0.2391 1.5763 0.0866
v -0.3500 1.3500 0.0000
v -0.2563 1.3500 -0.2263
f 236/20 235/20 234/20 233/20
v -0.3500 1.3500 0.0000
v -0.2563 1.3500 0.2263
v -0.1166 1.1237 0.2091
v -0.2391 1.1237 0.0866
f 240/20 239/20 238/20 237/20
v -0.2563 1.3500 0.2263
v -0.0300 1.3500 0.3200
v 0.0566 1.1237 0.2091
v -0.1166 1.1237 0.2091
f 244/20 243/20 242/20 241/20
v -0.0300 1.3500 0.3200
v 0.1963 1.3500 0.2263
v 0.1791 1.1237 0.0866
v 0.0566 1.1237 0.2091
f 248/20 247/20 246/20 245/20
v 0.1963 1.3500 0.2263
v 0.2900 1.3500 0.0000
v 0.1791 1.1237 -0.0866
v 0.1791 1.1237 0.0866
f 252/20 251/20 250/20 249/20
v 0.2900 1.3500 0.0000
v 0.1963 1.3500 -0.2263
v 0.0566 1.1237 -0.2091
v 0.1791 1.1237 -0.0866
f 256/20 255/20 254/20 253/20
v 0.1963 1.3500 -0.2263
v -0.0300 1.3500 -0.3200
v -0.1166 1.1237 -0.2091
v 0.0566 1.1237 -0.2091
f 260/20 259/20 258/20 257/20
v -0.0300 1.3500 -0.3200
v -0.2563 1.3500 -0.2263
v -0.2391 1.1237 -0.0866
v -0.1166 1.1237 -0.2091
f 264/20 263/20 262/20 261/20
v -0.2563 1.3500 -0.2263
v -0.3500 1.3500 0.0000
v -0.2391 1.1237 0.0866
v -0.2391 1.1237 -0.0866
f 268/20 267/20 266/20 265/20
v -0.2391 1.1237 0.0866
v -0.1166 1.1237 0.2091
v -0.0300 1.0300 0.0000
f 271/20 270/20 269/20
v -0.1166 1.1237 0.2091
v 0.0566 1.1237 0.2091
v -0.0300 1.0300 0.0000
f 274/20 273/20 272/20
v 0.0566 1.1237 0.2091
v 0.1791 1.1237 0.0866
v -0.0300 1.0300 0.0000
f 277/20 276/20 275/20
v 0.1791 1.1237 0.0866
v 0.1791 1.1237 -0.0866
v -0.0300 1.0300 0.0000
f 280/20 279/20 278/20
v 0.1791 1.1237 -0.0866
v 0.0566 1.1237 -0.2091
v -0.0300 1.0300 0.0000
f 283/20 282/20 281/20
v 0.0566 1.1237 -0.2091
v -0.1166 1.1237 -0.2091
v -0.0300 1.0300 -0.0000
f 286/20 285/20 284/20
v -0.1166 1.1237 -0.2091
v -0.2391 1.1237 -0.0866
v -0.0300 1.0300 -0.0000
f 289/20 288/20 287/20
v -0.2391 1.1237 -0.0866
v -0.2391 1.1237 0.0866
v -0.0300 1.0300 -0.0000
f 292/20 291/20 290/20
v -0.2000 1.3500 0.1000
v -0.2385 1.2500 0.2689
v -0.3561 1.2500 0.1752
f 295/21 294/21 293/21
v -0.2000 1.3500 0.1000
v -0.0920 1.2500 0.2354
v -0.2385 1.2500 0.2689
f 298/21 297/21 296/21
v -0.2000 1.3500 0.1000
v -0.0268 1.2500 0.1000
v -0.0920 1.2500 0.2354
f 301/21 300/21 299/21
v -0.2000 1.3500 0.1000
v -0.0920 1.2500 -0.0354
v -0.0268 1.2500 0.1000
f 304/21 303/21 302/21
v -0.2000 1.3500 0.1000
v -0.2385 1.2500 -0.0689
v -0.0920 1.2500 -0.0354
f 307/21 306/21 305/21
v -0.2000 1.3500 0.1000
v -0.3561 1.2500 0.0248
v -0.2385 1.2500 -0.0689
f 310/21 309/21 308/21
v -0.2000 1.3500 0.1000
v -0.3561 1.2500 0.1752
v -0.3561 1.2500 0.0248
f 313/21 312/21 311/21
v -0.3561 1.2500 0.1752
v -0.2385 1.2500 0.2689
v -0.3080 1.0500 0.2354
v -0.3732 1.0500 0.1000
f 317/21 316/21 315/21 314/21
v -0.2385 1.2500 0.2689
v -0.0920 1.2500 0.2354
v -0.1615 1.0500 0.2689
v -0.3080 1.0500 0.2354
f 321/21 320/21 319/21 318/21
v -0.0920 1.2500 0.2354
v -0.0268 1.2500 0.1000
v -0.0439 1.0500 0.1752
v -0.1615 1.0500 0.2689
f 325/21 324/21 323/21 322/21
v -0.0268 1.2500 0.1000
v -0.0920 1.2500 -0.0354
v -0.0439 1.0500 0.0248
v -0.0439 1.0500 0.1752
f 329/21 328/21 327/21 326/21
v -0.0920 1.2500 -0.0354
v -0.2385 1.2500 -0.0689
v -0.1615 1.0500 -0.0689
v -0.0439 1.0500 0.0248
f 333/21 332/21 331/21 330/21
v -0.2385 1.2500 -0.0689
v -0.3561 1.2500 0.0248
v -0.3080 1.0500 -0.0354
v -0.1615 1.0500 -0.0689
f 337/21 336/21 335/21 334/21
v -0.3561 1.2500 0.0248
v -0.3561 1.2500 0.1752
v -0.3732 1.0500 0.1000
v -0.3080 1.0500 -0.0354
f 341/21 340/21 339/21 338/21
v -0.3732 1.0500 0.1000
v -0.3080 1.0500 0.2354
v -0.2000 0.9500 0.1000
f 344/21 343/21 342/21
v -0.3080 1.0500 0.2354
v -0.1615 1.0500 0.2689
v -0.2000 0.9500 0.1000
f 347/21 346/21 345/21
v -0.1615 1.0500 0.2689
v -0.0439 1.0500 0.1752
v -0.2000 0.9500 0.1000
f 350/21 349/21 348/21
v -0.0439 1.0500 0.1752
v -0.0439 1.0500 0.0248
v -0.2000 0.9500 0.1000
f 353/21 352/21 351/21
v -0.0439 1.0500 0.0248
v -0.1615 1.0500 -0.0689
v -0.2000 0.9500 0.1000
f 356/21 355/21 354/21
v -0.1615 1.0500 -0.0689
v -0.3080 1.0500 -0.0354
v -0.2000 0.9500 0.1000
f 359/21 358/21 357/21
v -0.3080 1.0500 -0.0354
v -0.3732 1.0500 0.1000
v -0.2000 0.9500 0.1000
f 362/21 361/21 360/21
v 0.1600 1.4000 -0.0800
v 0.1215 1.3000 0.0889
v 0.0039 1.3000 -0.0048
f 365/21 364/21 363/21
v 0.1600 1.4000 -0.0800
v 0.2680 1.3000 0.0554
v 0.1215 1.3000 0.0889
f 368/21 367/21 366/21
v 0.1600 1.4000 -0.0800
v 0.3332 1.3000 -0.0800
v 0.2680 1.3000 0.0554
f 371/21 370/21 369/21
v 0.1600 1.4000 -0.0800
v 0.2680 1.3000 -0.2154
v 0.3332 1.3000 -0.0800
f 374/21 373/21 372/21
v 0.1600 1.4000 -0.0800
v 0.1215 1.3000 -0.2489
v 0.2680 1.3000 -0.2154
f 377/21 376/21 375/21
v 0.1600 1.4000 -0.0800
v 0.0039 1.3000 -0.1552
v 0.1215 1.3000 -0.2489
f 380/21 379/21 378/21
v 0.1600 1.4000 -0.0800
v 0.0039 1.3000 -0.0048
v 0.0039 1.3000 -0.1552
f 383/21 382/21 381/21
v 0.0039 1.3000 -0.0048
v 0.1215 1.3000 0.0889
v 0.0520 1.1000 0.0554
v -0.0132 1.1000 -0.0800
f 387/21 386/21 385/21 384/21
v 0.1215 1.3000 0.0889
v 0.2680 1.3000 0.0554
v 0.1985 1.1000 0.0889
v 0.0520 1.1000 0.0554
f 391/21 390/21 389/21 388/21
v 0.2680 1.3000 0.0554
v 0.3332 1.3000 -0.0800
v 0.3161 1.1000 -0.0048
v 0.1985 1.1000 0.0889
f 395/21 394/21 393/21 392/21
v 0.3332 1.3000 -0.0800
v 0.2680 1.3000 -0.2154
v 0.3161 1.1000 -0.1552
v 0.3161 1.1000 -0.0048
f 399/21 398/21 397/21 396/21
v 0.2680 1.3000 -0.2154
v 0.1215 1.3000 -0.2489
v 0.1985 1.1000 -0.2489
v 0.3161 1.1000 -0.1552
f 403/21 402/21 401/21 400/21
v 0.1215 1.3000 -0.2489
v 0.0039 1.3000 -0.1552
v 0.0520 1.1000 -0.2154
v 0.1985 1.1000 -0.2489
f 407/21 406/21 405/21 404/21
v 0.0039 1.3000 -0.1552
v 0.0039 1.3000 -0.0048
v -0.0132 1.1000 -0.0800
v 0.0520 1.1000 -0.2154
f 411/21 410/21 409/21 408/21
v -0.0132 1.1000 -0.0800
v 0.0520 1.1000 0.0554
v 0.1600 1.0000 -0.0800
f 414/21 413/21 412/21
v 0.0520 1.1000 0.0554
v 0.1985 1.1000 0.0889
v 0.1600 1.0000 -0.0800
f 417/21 416/21 415/21
v 0.1985 1.1000 0.0889
v 0.3161 1.1000 -0.0048
v 0.1600 1.0000 -0.0800
f 420/21 419/21 418/21
v 0.3161 1.1000 -0.0048
v 0.3161 1.1000 -0.1552
v 0.1600 1.0000 -0.0800
f 423/21 422/21 421/21
v 0.3161 1.1000 -0.1552
v 0.1985 1.1000 -0.2489
v 0.1600 1.0000 -0.0800
f 426/21 425/21 424/21
v 0.1985 1.1000 -0.2489
v 0.0520 1.1000 -0.2154
v 0.1600 1.0000 -0.0800
f 429/21 428/21 427/21
v 0.0520 1.1000 -0.2154
v -0.0132 1.1000 -0.0800
v 0.1600 1.0000 -0.0800
f 432/21 431/21 430/21
