# Walk of Industry low-poly (generated, wi_lib.py)
mtllib wi.mtl
vt 0 0
vt 0.03125 0.03125
vt 0.09375 0.03125
vt 0.15625 0.03125
vt 0.21875 0.03125
vt 0.28125 0.03125
vt 0.34375 0.03125
vt 0.40625 0.03125
vt 0.46875 0.03125
vt 0.53125 0.03125
vt 0.59375 0.03125
vt 0.65625 0.03125
vt 0.71875 0.03125
vt 0.78125 0.03125
vt 0.84375 0.03125
vt 0.90625 0.03125
vt 0.96875 0.03125
vt 0.03125 0.09375
vt 0.09375 0.09375
vt 0.15625 0.09375
vt 0.21875 0.09375
vt 0.28125 0.09375
vt 0.34375 0.09375
vt 0.40625 0.09375
vt 0.46875 0.09375
vt 0.53125 0.09375
vt 0.59375 0.09375
vt 0.65625 0.09375
vt 0.71875 0.09375
vt 0.78125 0.09375
vt 0.84375 0.09375
vt 0.90625 0.09375
vt 0.96875 0.09375
o Body
usemtl wi_paint
v 0.9500 1.0000 0.0600
v 0.9500 2.0000 0.0600
v 0.9500 2.0000 -0.0600
v 0.9500 1.0000 -0.0600
f 4/1 3/1 2/1 1/1
v -0.9500 1.0000 -0.0600
v -0.9500 2.0000 -0.0600
v -0.9500 2.0000 0.0600
v -0.9500 1.0000 0.0600
f 8/1 7/1 6/1 5/1
v 0.9500 1.0000 -0.0600
v -0.9500 1.0000 -0.0600
v -0.9500 1.0000 0.0600
v 0.9500 1.0000 0.0600
f 12/1 11/1 10/1 9/1
v 0.9500 2.0000 0.0600
v -0.9500 2.0000 0.0600
v -0.9500 2.0000 -0.0600
v 0.9500 2.0000 -0.0600
f 16/1 15/1 14/1 13/1
v 0.9500 2.0000 -0.0600
v -0.9500 2.0000 -0.0600
v -0.9500 1.0000 -0.0600
v 0.9500 1.0000 -0.0600
f 20/1 19/1 18/1 17/1
v 0.9500 1.0000 0.0600
v -0.9500 1.0000 0.0600
v -0.9500 2.0000 0.0600
v 0.9500 2.0000 0.0600
f 24/1 23/1 22/1 21/1
usemtl wi_palette
v 0.9000 0.0000 0.1200
v 0.9000 0.1200 0.1200
v 0.9000 0.1200 -0.1200
v 0.9000 0.0000 -0.1200
f 28/11 27/11 26/11 25/11
v 0.6600 0.0000 -0.1200
v 0.6600 0.1200 -0.1200
v 0.6600 0.1200 0.1200
v 0.6600 0.0000 0.1200
f 32/11 31/11 30/11 29/11
v 0.9000 0.0000 -0.1200
v 0.6600 0.0000 -0.1200
v 0.6600 0.0000 0.1200
v 0.9000 0.0000 0.1200
f 36/11 35/11 34/11 33/11
v 0.9000 0.1200 0.1200
v 0.6600 0.1200 0.1200
v 0.6600 0.1200 -0.1200
v 0.9000 0.1200 -0.1200
f 40/11 39/11 38/11 37/11
v 0.9000 0.1200 -0.1200
v 0.6600 0.1200 -0.1200
v 0.6600 0.0000 -0.1200
v 0.9000 0.0000 -0.1200
f 44/11 43/11 42/11 41/11
v 0.9000 0.0000 0.1200
v 0.6600 0.0000 0.1200
v 0.6600 0.1200 0.1200
v 0.9000 0.1200 0.1200
f 48/11 47/11 46/11 45/11
v 0.8200 0.0500 0.0400
v 0.8200 1.0500 0.0400
v 0.8200 1.0500 -0.0400
v 0.8200 0.0500 -0.0400
f 52/6 51/6 50/6 49/6
v 0.7400 0.0500 -0.0400
v 0.7400 1.0500 -0.0400
v 0.7400 1.0500 0.0400
v 0.7400 0.0500 0.0400
f 56/6 55/6 54/6 53/6
v 0.8200 0.0500 -0.0400
v 0.7400 0.0500 -0.0400
v 0.7400 0.0500 0.0400
v 0.8200 0.0500 0.0400
f 60/6 59/6 58/6 57/6
v 0.8200 1.0500 0.0400
v 0.7400 1.0500 0.0400
v 0.7400 1.0500 -0.0400
v 0.8200 1.0500 -0.0400
f 64/6 63/6 62/6 61/6
v 0.8200 1.0500 -0.0400
v 0.7400 1.0500 -0.0400
v 0.7400 0.0500 -0.0400
v 0.8200 0.0500 -0.0400
f 68/6 67/6 66/6 65/6
v 0.8200 0.0500 0.0400
v 0.7400 0.0500 0.0400
v 0.7400 1.0500 0.0400
v 0.8200 1.0500 0.0400
f 72/6 71/6 70/6 69/6
v -0.6600 0.0000 0.1200
v -0.6600 0.1200 0.1200
v -0.6600 0.1200 -0.1200
v -0.6600 0.0000 -0.1200
f 76/11 75/11 74/11 73/11
v -0.9000 0.0000 -0.1200
v -0.9000 0.1200 -0.1200
v -0.9000 0.1200 0.1200
v -0.9000 0.0000 0.1200
f 80/11 79/11 78/11 77/11
v -0.6600 0.0000 -0.1200
v -0.9000 0.0000 -0.1200
v -0.9000 0.0000 0.1200
v -0.6600 0.0000 0.1200
f 84/11 83/11 82/11 81/11
v -0.6600 0.1200 0.1200
v -0.9000 0.1200 0.1200
v -0.9000 0.1200 -0.1200
v -0.6600 0.1200 -0.1200
f 88/11 87/11 86/11 85/11
v -0.6600 0.1200 -0.1200
v -0.9000 0.1200 -0.1200
v -0.9000 0.0000 -0.1200
v -0.6600 0.0000 -0.1200
f 92/11 91/11 90/11 89/11
v -0.6600 0.0000 0.1200
v -0.9000 0.0000 0.1200
v -0.9000 0.1200 0.1200
v -0.6600 0.1200 0.1200
f 96/11 95/11 94/11 93/11
v -0.7400 0.0500 0.0400
v -0.7400 1.0500 0.0400
v -0.7400 1.0500 -0.0400
v -0.7400 0.0500 -0.0400
f 100/6 99/6 98/6 97/6
v -0.8200 0.0500 -0.0400
v -0.8200 1.0500 -0.0400
v -0.8200 1.0500 0.0400
v -0.8200 0.0500 0.0400
f 104/6 103/6 102/6 101/6
v -0.7400 0.0500 -0.0400
v -0.8200 0.0500 -0.0400
v -0.8200 0.0500 0.0400
v -0.7400 0.0500 0.0400
f 108/6 107/6 106/6 105/6
v -0.7400 1.0500 0.0400
v -0.8200 1.0500 0.0400
v -0.8200 1.0500 -0.0400
v -0.7400 1.0500 -0.0400
f 112/6 111/6 110/6 109/6
v -0.7400 1.0500 -0.0400
v -0.8200 1.0500 -0.0400
v -0.8200 0.0500 -0.0400
v -0.7400 0.0500 -0.0400
f 116/6 115/6 114/6 113/6
v -0.7400 0.0500 0.0400
v -0.8200 0.0500 0.0400
v -0.8200 1.0500 0.0400
v -0.7400 1.0500 0.0400
f 120/6 119/6 118/6 117/6
v 0.8900 1.0600 0.0650
v 0.8900 1.9400 0.0650
v 0.8900 1.9400 0.0350
v 0.8900 1.0600 0.0350
f 124/6 123/6 122/6 121/6
v -0.8900 1.0600 0.0350
v -0.8900 1.9400 0.0350
v -0.8900 1.9400 0.0650
v -0.8900 1.0600 0.0650
f 128/6 127/6 126/6 125/6
v 0.8900 1.0600 0.0350
v -0.8900 1.0600 0.0350
v -0.8900 1.0600 0.0650
v 0.8900 1.0600 0.0650
f 132/6 131/6 130/6 129/6
v 0.8900 1.9400 0.0650
v -0.8900 1.9400 0.0650
v -0.8900 1.9400 0.0350
v 0.8900 1.9400 0.0350
f 136/6 135/6 134/6 133/6
v 0.8900 1.9400 0.0350
v -0.8900 1.9400 0.0350
v -0.8900 1.0600 0.0350
v 0.8900 1.0600 0.0350
f 140/6 139/6 138/6 137/6
v 0.8900 1.0600 0.0650
v -0.8900 1.0600 0.0650
v -0.8900 1.9400 0.0650
v 0.8900 1.9400 0.0650
f 144/6 143/6 142/6 141/6
v 0.9700 2.0000 0.0800
v 0.9700 2.0600 0.0800
v 0.9700 2.0600 -0.0800
v 0.9700 2.0000 -0.0800
f 148/4 147/4 146/4 145/4
v -0.9700 2.0000 -0.0800
v -0.9700 2.0600 -0.0800
v -0.9700 2.0600 0.0800
v -0.9700 2.0000 0.0800
f 152/4 151/4 150/4 149/4
v 0.9700 2.0000 -0.0800
v -0.9700 2.0000 -0.0800
v -0.9700 2.0000 0.0800
v 0.9700 2.0000 0.0800
f 156/4 155/4 154/4 153/4
v 0.9700 2.0600 0.0800
v -0.9700 2.0600 0.0800
v -0.9700 2.0600 -0.0800
v 0.9700 2.0600 -0.0800
f 160/4 159/4 158/4 157/4
v 0.9700 2.0600 -0.0800
v -0.9700 2.0600 -0.0800
v -0.9700 2.0000 -0.0800
v 0.9700 2.0000 -0.0800
f 164/4 163/4 162/4 161/4
v 0.9700 2.0000 0.0800
v -0.9700 2.0000 0.0800
v -0.9700 2.0600 0.0800
v 0.9700 2.0600 0.0800
f 168/4 167/4 166/4 165/4
v 0.9700 0.9400 0.0800
v 0.9700 1.0000 0.0800
v 0.9700 1.0000 -0.0800
v 0.9700 0.9400 -0.0800
f 172/4 171/4 170/4 169/4
v -0.9700 0.9400 -0.0800
v -0.9700 1.0000 -0.0800
v -0.9700 1.0000 0.0800
v -0.9700 0.9400 0.0800
f 176/4 175/4 174/4 173/4
v 0.9700 0.9400 -0.0800
v -0.9700 0.9400 -0.0800
v -0.9700 0.9400 0.0800
v 0.9700 0.9400 0.0800
f 180/4 179/4 178/4 177/4
v 0.9700 1.0000 0.0800
v -0.9700 1.0000 0.0800
v -0.9700 1.0000 -0.0800
v 0.9700 1.0000 -0.0800
f 184/4 183/4 182/4 181/4
v 0.9700 1.0000 -0.0800
v -0.9700 1.0000 -0.0800
v -0.9700 0.9400 -0.0800
v 0.9700 0.9400 -0.0800
f 188/4 187/4 186/4 185/4
v 0.9700 0.9400 0.0800
v -0.9700 0.9400 0.0800
v -0.9700 1.0000 0.0800
v 0.9700 1.0000 0.0800
f 192/4 191/4 190/4 189/4
v 0.3000 2.1400 0.0050
v 0.3000 2.3600 0.0050
v 0.3000 2.3600 -0.0450
v 0.3000 2.1400 -0.0450
f 196/23 195/23 194/23 193/23
v -0.3000 2.1400 -0.0450
v -0.3000 2.3600 -0.0450
v -0.3000 2.3600 0.0050
v -0.3000 2.1400 0.0050
f 200/23 199/23 198/23 197/23
v 0.3000 2.1400 -0.0450
v -0.3000 2.1400 -0.0450
v -0.3000 2.1400 0.0050
v 0.3000 2.1400 0.0050
f 204/23 203/23 202/23 201/23
v 0.3000 2.3600 0.0050
v -0.3000 2.3600 0.0050
v -0.3000 2.3600 -0.0450
v 0.3000 2.3600 -0.0450
f 208/23 207/23 206/23 205/23
v 0.3000 2.3600 -0.0450
v -0.3000 2.3600 -0.0450
v -0.3000 2.1400 -0.0450
v 0.3000 2.1400 -0.0450
f 212/23 211/23 210/23 209/23
v 0.3000 2.1400 0.0050
v -0.3000 2.1400 0.0050
v -0.3000 2.3600 0.0050
v 0.3000 2.3600 0.0050
f 216/23 215/23 214/23 213/23
o Lamp
usemtl wi_palette
v 0.6500 2.0600 0.0600
v 0.6500 2.1400 0.0600
v 0.6500 2.1400 -0.0200
v 0.6500 2.0600 -0.0200
f 220/16 219/16 218/16 217/16
v 0.5500 2.0600 -0.0200
v 0.5500 2.1400 -0.0200
v 0.5500 2.1400 0.0600
v 0.5500 2.0600 0.0600
f 224/16 223/16 222/16 221/16
v 0.6500 2.0600 -0.0200
v 0.5500 2.0600 -0.0200
v 0.5500 2.0600 0.0600
v 0.6500 2.0600 0.0600
f 228/16 227/16 226/16 225/16
v 0.6500 2.1400 0.0600
v 0.5500 2.1400 0.0600
v 0.5500 2.1400 -0.0200
v 0.6500 2.1400 -0.0200
f 232/16 231/16 230/16 229/16
v 0.6500 2.1400 -0.0200
v 0.5500 2.1400 -0.0200
v 0.5500 2.0600 -0.0200
v 0.6500 2.0600 -0.0200
f 236/16 235/16 234/16 233/16
v 0.6500 2.0600 0.0600
v 0.5500 2.0600 0.0600
v 0.5500 2.1400 0.0600
v 0.6500 2.1400 0.0600
f 240/16 239/16 238/16 237/16
v 0.0500 2.0600 0.0600
v 0.0500 2.1400 0.0600
v 0.0500 2.1400 -0.0200
v 0.0500 2.0600 -0.0200
f 244/16 243/16 242/16 241/16
v -0.0500 2.0600 -0.0200
v -0.0500 2.1400 -0.0200
v -0.0500 2.1400 0.0600
v -0.0500 2.0600 0.0600
f 248/16 247/16 246/16 245/16
v 0.0500 2.0600 -0.0200
v -0.0500 2.0600 -0.0200
v -0.0500 2.0600 0.0600
v 0.0500 2.0600 0.0600
f 252/16 251/16 250/16 249/16
v 0.0500 2.1400 0.0600
v -0.0500 2.1400 0.0600
v -0.0500 2.1400 -0.0200
v 0.0500 2.1400 -0.0200
f 256/16 255/16 254/16 253/16
v 0.0500 2.1400 -0.0200
v -0.0500 2.1400 -0.0200
v -0.0500 2.0600 -0.0200
v 0.0500 2.0600 -0.0200
f 260/16 259/16 258/16 257/16
v 0.0500 2.0600 0.0600
v -0.0500 2.0600 0.0600
v -0.0500 2.1400 0.0600
v 0.0500 2.1400 0.0600
f 264/16 263/16 262/16 261/16
v -0.5500 2.0600 0.0600
v -0.5500 2.1400 0.0600
v -0.5500 2.1400 -0.0200
v -0.5500 2.0600 -0.0200
f 268/16 267/16 266/16 265/16
v -0.6500 2.0600 -0.0200
v -0.6500 2.1400 -0.0200
v -0.6500 2.1400 0.0600
v -0.6500 2.0600 0.0600
f 272/16 271/16 270/16 269/16
v -0.5500 2.0600 -0.0200
v -0.6500 2.0600 -0.0200
v -0.6500 2.0600 0.0600
v -0.5500 2.0600 0.0600
f 276/16 275/16 274/16 273/16
v -0.5500 2.1400 0.0600
v -0.6500 2.1400 0.0600
v -0.6500 2.1400 -0.0200
v -0.5500 2.1400 -0.0200
f 280/16 279/16 278/16 277/16
v -0.5500 2.1400 -0.0200
v -0.6500 2.1400 -0.0200
v -0.6500 2.0600 -0.0200
v -0.5500 2.0600 -0.0200
f 284/16 283/16 282/16 281/16
v -0.5500 2.0600 0.0600
v -0.6500 2.0600 0.0600
v -0.6500 2.1400 0.0600
v -0.5500 2.1400 0.0600
f 288/16 287/16 286/16 285/16
