# Walk of Industry low-poly (generated, wi_lib.py)
mtllib wi.mtl
vt 0 0
vt 0.03125 0.03125
vt 0.09375 0.03125
vt 0.15625 0.03125
vt 0.21875 0.03125
vt 0.28125 0.03125
vt 0.34375 0.03125
vt 0.40625 0.03125
vt 0.46875 0.03125
vt 0.53125 0.03125
vt 0.59375 0.03125
vt 0.65625 0.03125
vt 0.71875 0.03125
vt 0.78125 0.03125
vt 0.84375 0.03125
vt 0.90625 0.03125
vt 0.96875 0.03125
vt 0.03125 0.09375
vt 0.09375 0.09375
vt 0.15625 0.09375
vt 0.21875 0.09375
vt 0.28125 0.09375
vt 0.34375 0.09375
vt 0.40625 0.09375
vt 0.46875 0.09375
vt 0.53125 0.09375
vt 0.59375 0.09375
vt 0.65625 0.09375
vt 0.71875 0.09375
vt 0.78125 0.09375
vt 0.84375 0.09375
vt 0.90625 0.09375
vt 0.96875 0.09375
o Body
usemtl wi_paint
v -0.2850 0.9300 0.5500
v -0.9150 0.9300 0.5500
v -0.9150 0.7800 0.2350
v -0.2850 0.7800 0.2350
f 4/1 3/1 2/1 1/1
v -0.9150 0.9300 0.5500
v -0.2850 0.9300 0.5500
v -0.2850 0.7800 0.8650
v -0.9150 0.7800 0.8650
f 8/1 7/1 6/1 5/1
v -0.9150 0.9300 0.5500
v -0.9150 0.7800 0.8650
v -0.9150 0.7800 0.2350
f 11/1 10/1 9/1
v -0.2850 0.9300 0.5500
v -0.2850 0.7800 0.2350
v -0.2850 0.7800 0.8650
f 14/1 13/1 12/1
v -0.2850 0.7800 0.2350
v -0.9150 0.7800 0.2350
v -0.9150 0.7800 0.8650
v -0.2850 0.7800 0.8650
f 18/1 17/1 16/1 15/1
usemtl wi_palette
v 0.9500 0.0000 0.9500
v 0.9500 0.1200 0.9500
v 0.9500 0.1200 -0.9500
v 0.9500 0.0000 -0.9500
f 22/11 21/11 20/11 19/11
v -0.9500 0.0000 -0.9500
v -0.9500 0.1200 -0.9500
v -0.9500 0.1200 0.9500
v -0.9500 0.0000 0.9500
f 26/11 25/11 24/11 23/11
v 0.9500 0.0000 -0.9500
v -0.9500 0.0000 -0.9500
v -0.9500 0.0000 0.9500
v 0.9500 0.0000 0.9500
f 30/11 29/11 28/11 27/11
v 0.9500 0.1200 0.9500
v -0.9500 0.1200 0.9500
v -0.9500 0.1200 -0.9500
v 0.9500 0.1200 -0.9500
f 34/11 33/11 32/11 31/11
v 0.9500 0.1200 -0.9500
v -0.9500 0.1200 -0.9500
v -0.9500 0.0000 -0.9500
v 0.9500 0.0000 -0.9500
f 38/11 37/11 36/11 35/11
v 0.9500 0.0000 0.9500
v -0.9500 0.0000 0.9500
v -0.9500 0.1200 0.9500
v 0.9500 0.1200 0.9500
f 42/11 41/11 40/11 39/11
v 0.1289 5.2048 -0.1107
v 0.0691 5.1995 -0.1111
v 0.5201 0.1195 -0.4801
v 0.5799 0.1248 -0.4797
f 46/27 45/27 44/27 43/27
v 0.5799 0.1205 -0.4199
v 0.5201 0.1152 -0.4203
v 0.0691 5.1952 -0.0513
v 0.1289 5.2005 -0.0509
f 50/27 49/27 48/27 47/27
v 0.5799 0.1248 -0.4797
v 0.5799 0.1205 -0.4199
v 0.1289 5.2005 -0.0509
v 0.1289 5.2048 -0.1107
f 54/27 53/27 52/27 51/27
v 0.0691 5.1995 -0.1111
v 0.0691 5.1952 -0.0513
v 0.5201 0.1152 -0.4203
v 0.5201 0.1195 -0.4801
f 58/27 57/27 56/27 55/27
v 0.5201 0.1195 -0.4801
v 0.5201 0.1152 -0.4203
v 0.5799 0.1205 -0.4199
v 0.5799 0.1248 -0.4797
f 62/27 61/27 60/27 59/27
v 0.1289 5.2048 -0.1107
v 0.1289 5.2005 -0.0509
v 0.0691 5.1952 -0.0513
v 0.0691 5.1995 -0.1111
f 66/27 65/27 64/27 63/27
v -0.0691 5.1995 -0.1111
v -0.1289 5.2048 -0.1107
v -0.5799 0.1248 -0.4797
v -0.5201 0.1195 -0.4801
f 70/27 69/27 68/27 67/27
v -0.5201 0.1152 -0.4203
v -0.5799 0.1205 -0.4199
v -0.1289 5.2005 -0.0509
v -0.0691 5.1952 -0.0513
f 74/27 73/27 72/27 71/27
v -0.5201 0.1195 -0.4801
v -0.5201 0.1152 -0.4203
v -0.0691 5.1952 -0.0513
v -0.0691 5.1995 -0.1111
f 78/27 77/27 76/27 75/27
v -0.1289 5.2048 -0.1107
v -0.1289 5.2005 -0.0509
v -0.5799 0.1205 -0.4199
v -0.5799 0.1248 -0.4797
f 82/27 81/27 80/27 79/27
v -0.5799 0.1248 -0.4797
v -0.5799 0.1205 -0.4199
v -0.5201 0.1152 -0.4203
v -0.5201 0.1195 -0.4801
f 86/27 85/27 84/27 83/27
v -0.0691 5.1995 -0.1111
v -0.0691 5.1952 -0.0513
v -0.1289 5.2005 -0.0509
v -0.1289 5.2048 -0.1107
f 90/27 89/27 88/27 87/27
v 0.0300 5.1971 0.0781
v -0.0300 5.1971 0.0781
v -0.0300 0.1171 0.5701
v 0.0300 0.1171 0.5701
f 94/27 93/27 92/27 91/27
v 0.0300 0.1229 0.6299
v -0.0300 0.1229 0.6299
v -0.0300 5.2029 0.1379
v 0.0300 5.2029 0.1379
f 98/27 97/27 96/27 95/27
v 0.0300 0.1171 0.5701
v 0.0300 0.1229 0.6299
v 0.0300 5.2029 0.1379
v 0.0300 5.1971 0.0781
f 102/27 101/27 100/27 99/27
v -0.0300 5.1971 0.0781
v -0.0300 5.2029 0.1379
v -0.0300 0.1229 0.6299
v -0.0300 0.1171 0.5701
f 106/27 105/27 104/27 103/27
v -0.0300 0.1171 0.5701
v -0.0300 0.1229 0.6299
v 0.0300 0.1229 0.6299
v 0.0300 0.1171 0.5701
f 110/27 109/27 108/27 107/27
v 0.0300 5.1971 0.0781
v 0.0300 5.2029 0.1379
v -0.0300 5.2029 0.1379
v -0.0300 5.1971 0.0781
f 114/27 113/27 112/27 111/27
v -0.5500 0.1020 -0.4320
v -0.5500 0.1380 -0.4320
v 0.5500 0.1380 -0.4320
v 0.5500 0.1020 -0.4320
f 118/27 117/27 116/27 115/27
v 0.5500 0.1020 -0.4680
v 0.5500 0.1380 -0.4680
v -0.5500 0.1380 -0.4680
v -0.5500 0.1020 -0.4680
f 122/27 121/27 120/27 119/27
v 0.5500 0.1020 -0.4320
v 0.5500 0.1020 -0.4680
v -0.5500 0.1020 -0.4680
v -0.5500 0.1020 -0.4320
f 126/27 125/27 124/27 123/27
v -0.5500 0.1380 -0.4320
v -0.5500 0.1380 -0.4680
v 0.5500 0.1380 -0.4680
v 0.5500 0.1380 -0.4320
f 130/27 129/27 128/27 127/27
v 0.5500 0.1380 -0.4320
v 0.5500 0.1380 -0.4680
v 0.5500 0.1020 -0.4680
v 0.5500 0.1020 -0.4320
f 134/27 133/27 132/27 131/27
v -0.5500 0.1020 -0.4320
v -0.5500 0.1020 -0.4680
v -0.5500 0.1380 -0.4680
v -0.5500 0.1380 -0.4320
f 138/27 137/27 136/27 135/27
v 0.0159 0.1020 0.5916
v 0.0159 0.1380 0.5916
v -0.5341 0.1380 -0.4584
v -0.5341 0.1020 -0.4584
f 142/27 141/27 140/27 139/27
v -0.5659 0.1020 -0.4416
v -0.5659 0.1380 -0.4416
v -0.0159 0.1380 0.6084
v -0.0159 0.1020 0.6084
f 146/27 145/27 144/27 143/27
v -0.5341 0.1020 -0.4584
v -0.5659 0.1020 -0.4416
v -0.0159 0.1020 0.6084
v 0.0159 0.1020 0.5916
f 150/27 149/27 148/27 147/27
v 0.0159 0.1380 0.5916
v -0.0159 0.1380 0.6084
v -0.5659 0.1380 -0.4416
v -0.5341 0.1380 -0.4584
f 154/27 153/27 152/27 151/27
v -0.5341 0.1380 -0.4584
v -0.5659 0.1380 -0.4416
v -0.5659 0.1020 -0.4416
v -0.5341 0.1020 -0.4584
f 158/27 157/27 156/27 155/27
v 0.0159 0.1020 0.5916
v -0.0159 0.1020 0.6084
v -0.0159 0.1380 0.6084
v 0.0159 0.1380 0.5916
f 162/27 161/27 160/27 159/27
v 0.5341 0.1020 -0.4584
v 0.5341 0.1380 -0.4584
v -0.0159 0.1380 0.5916
v -0.0159 0.1020 0.5916
f 166/27 165/27 164/27 163/27
v 0.0159 0.1020 0.6084
v 0.0159 0.1380 0.6084
v 0.5659 0.1380 -0.4416
v 0.5659 0.1020 -0.4416
f 170/27 169/27 168/27 167/27
v -0.0159 0.1020 0.5916
v 0.0159 0.1020 0.6084
v 0.5659 0.1020 -0.4416
v 0.5341 0.1020 -0.4584
f 174/27 173/27 172/27 171/27
v 0.5341 0.1380 -0.4584
v 0.5659 0.1380 -0.4416
v 0.0159 0.1380 0.6084
v -0.0159 0.1380 0.5916
f 178/27 177/27 176/27 175/27
v -0.0159 0.1380 0.5916
v 0.0159 0.1380 0.6084
v 0.0159 0.1020 0.6084
v -0.0159 0.1020 0.5916
f 182/27 181/27 180/27 179/27
v 0.5341 0.1020 -0.4584
v 0.5659 0.1020 -0.4416
v 0.5659 0.1380 -0.4416
v 0.5341 0.1380 -0.4584
f 186/27 185/27 184/27 183/27
v -0.5057 0.6726 -0.3953
v -0.4930 0.6963 -0.3958
v 0.5569 0.1319 -0.4368
v 0.5441 0.1081 -0.4363
f 190/27 189/27 188/27 187/27
v 0.5431 0.1081 -0.4632
v 0.5559 0.1319 -0.4637
v -0.4940 0.6963 -0.4227
v -0.5068 0.6726 -0.4222
f 194/27 193/27 192/27 191/27
v 0.5441 0.1081 -0.4363
v 0.5431 0.1081 -0.4632
v -0.5068 0.6726 -0.4222
v -0.5057 0.6726 -0.3953
f 198/27 197/27 196/27 195/27
v -0.4930 0.6963 -0.3958
v -0.4940 0.6963 -0.4227
v 0.5559 0.1319 -0.4637
v 0.5569 0.1319 -0.4368
f 202/27 201/27 200/27 199/27
v 0.5569 0.1319 -0.4368
v 0.5559 0.1319 -0.4637
v 0.5431 0.1081 -0.4632
v 0.5441 0.1081 -0.4363
f 206/27 205/27 204/27 203/27
v -0.5057 0.6726 -0.3953
v -0.5068 0.6726 -0.4222
v -0.4940 0.6963 -0.4227
v -0.4930 0.6963 -0.3958
f 210/27 209/27 208/27 207/27
v 0.0147 0.6724 0.5441
v 0.0089 0.6965 0.5336
v -0.5411 0.1321 -0.4618
v -0.5353 0.1079 -0.4513
f 214/27 213/27 212/27 211/27
v -0.5589 0.1079 -0.4382
v -0.5647 0.1321 -0.4487
v -0.0147 0.6965 0.5466
v -0.0089 0.6724 0.5571
f 218/27 217/27 216/27 215/27
v -0.5353 0.1079 -0.4513
v -0.5589 0.1079 -0.4382
v -0.0089 0.6724 0.5571
v 0.0147 0.6724 0.5441
f 222/27 221/27 220/27 219/27
v 0.0089 0.6965 0.5336
v -0.0147 0.6965 0.5466
v -0.5647 0.1321 -0.4487
v -0.5411 0.1321 -0.4618
f 226/27 225/27 224/27 223/27
v -0.5411 0.1321 -0.4618
v -0.5647 0.1321 -0.4487
v -0.5589 0.1079 -0.4382
v -0.5353 0.1079 -0.4513
f 230/27 229/27 228/27 227/27
v 0.0147 0.6724 0.5441
v -0.0089 0.6724 0.5571
v -0.0147 0.6965 0.5466
v 0.0089 0.6965 0.5336
f 234/27 233/27 232/27 231/27
v 0.4905 0.6724 -0.4204
v 0.4851 0.6965 -0.4096
v -0.0148 0.1321 0.5994
v -0.0094 0.1079 0.5886
f 238/27 237/27 236/27 235/27
v 0.0148 0.1079 0.6006
v 0.0094 0.1321 0.6114
v 0.5093 0.6965 -0.3976
v 0.5147 0.6724 -0.4084
f 242/27 241/27 240/27 239/27
v -0.0094 0.1079 0.5886
v 0.0148 0.1079 0.6006
v 0.5147 0.6724 -0.4084
v 0.4905 0.6724 -0.4204
f 246/27 245/27 244/27 243/27
v 0.4851 0.6965 -0.4096
v 0.5093 0.6965 -0.3976
v 0.0094 0.1321 0.6114
v -0.0148 0.1321 0.5994
f 250/27 249/27 248/27 247/27
v -0.0148 0.1321 0.5994
v 0.0094 0.1321 0.6114
v 0.0148 0.1079 0.6006
v -0.0094 0.1079 0.5886
f 254/27 253/27 252/27 251/27
v 0.4905 0.6724 -0.4204
v 0.5147 0.6724 -0.4084
v 0.5093 0.6965 -0.3976
v 0.4851 0.6965 -0.4096
f 258/27 257/27 256/27 255/27
v -0.4999 0.6664 -0.3910
v -0.4999 0.7024 -0.3910
v 0.4999 0.7024 -0.3910
v 0.4999 0.6664 -0.3910
f 262/27 261/27 260/27 259/27
v 0.4999 0.6664 -0.4270
v 0.4999 0.7024 -0.4270
v -0.4999 0.7024 -0.4270
v -0.4999 0.6664 -0.4270
f 266/27 265/27 264/27 263/27
v 0.4999 0.6664 -0.3910
v 0.4999 0.6664 -0.4270
v -0.4999 0.6664 -0.4270
v -0.4999 0.6664 -0.3910
f 270/27 269/27 268/27 267/27
v -0.4999 0.7024 -0.3910
v -0.4999 0.7024 -0.4270
v 0.4999 0.7024 -0.4270
v 0.4999 0.7024 -0.3910
f 274/27 273/27 272/27 271/27
v 0.4999 0.7024 -0.3910
v 0.4999 0.7024 -0.4270
v 0.4999 0.6664 -0.4270
v 0.4999 0.6664 -0.3910
f 278/27 277/27 276/27 275/27
v -0.4999 0.6664 -0.3910
v -0.4999 0.6664 -0.4270
v -0.4999 0.7024 -0.4270
v -0.4999 0.7024 -0.3910
f 282/27 281/27 280/27 279/27
v 0.0159 0.6664 0.5370
v 0.0159 0.7024 0.5370
v -0.4839 0.7024 -0.4174
v -0.4839 0.6664 -0.4174
f 286/27 285/27 284/27 283/27
v -0.5158 0.6664 -0.4006
v -0.5158 0.7024 -0.4006
v -0.0159 0.7024 0.5537
v -0.0159 0.6664 0.5537
f 290/27 289/27 288/27 287/27
v -0.4839 0.6664 -0.4174
v -0.5158 0.6664 -0.4006
v -0.0159 0.6664 0.5537
v 0.0159 0.6664 0.5370
f 294/27 293/27 292/27 291/27
v 0.0159 0.7024 0.5370
v -0.0159 0.7024 0.5537
v -0.5158 0.7024 -0.4006
v -0.4839 0.7024 -0.4174
f 298/27 297/27 296/27 295/27
v -0.4839 0.7024 -0.4174
v -0.5158 0.7024 -0.4006
v -0.5158 0.6664 -0.4006
v -0.4839 0.6664 -0.4174
f 302/27 301/27 300/27 299/27
v 0.0159 0.6664 0.5370
v -0.0159 0.6664 0.5537
v -0.0159 0.7024 0.5537
v 0.0159 0.7024 0.5370
f 306/27 305/27 304/27 303/27
v 0.4839 0.6664 -0.4174
v 0.4839 0.7024 -0.4174
v -0.0159 0.7024 0.5370
v -0.0159 0.6664 0.5370
f 310/27 309/27 308/27 307/27
v 0.0159 0.6664 0.5537
v 0.0159 0.7024 0.5537
v 0.5158 0.7024 -0.4006
v 0.5158 0.6664 -0.4006
f 314/27 313/27 312/27 311/27
v -0.0159 0.6664 0.5370
v 0.0159 0.6664 0.5537
v 0.5158 0.6664 -0.4006
v 0.4839 0.6664 -0.4174
f 318/27 317/27 316/27 315/27
v 0.4839 0.7024 -0.4174
v 0.5158 0.7024 -0.4006
v 0.0159 0.7024 0.5537
v -0.0159 0.7024 0.5370
f 322/27 321/27 320/27 319/27
v -0.0159 0.7024 0.5370
v 0.0159 0.7024 0.5537
v 0.0159 0.6664 0.5537
v -0.0159 0.6664 0.5370
f 326/27 325/27 324/27 323/27
v 0.4839 0.6664 -0.4174
v 0.5158 0.6664 -0.4006
v 0.5158 0.7024 -0.4006
v 0.4839 0.7024 -0.4174
f 330/27 329/27 328/27 327/27
v -0.4561 1.2373 -0.3542
v -0.4423 1.2605 -0.3548
v 0.5074 0.6961 -0.3958
v 0.4936 0.6728 -0.3952
f 334/27 333/27 332/27 331/27
v 0.4924 0.6728 -0.4222
v 0.5062 0.6961 -0.4228
v -0.4435 1.2605 -0.3818
v -0.4572 1.2373 -0.3812
f 338/27 337/27 336/27 335/27
v 0.4936 0.6728 -0.3952
v 0.4924 0.6728 -0.4222
v -0.4572 1.2373 -0.3812
v -0.4561 1.2373 -0.3542
f 342/27 341/27 340/27 339/27
v -0.4423 1.2605 -0.3548
v -0.4435 1.2605 -0.3818
v 0.5062 0.6961 -0.4228
v 0.5074 0.6961 -0.3958
f 346/27 345/27 344/27 343/27
v 0.5074 0.6961 -0.3958
v 0.5062 0.6961 -0.4228
v 0.4924 0.6728 -0.4222
v 0.4936 0.6728 -0.3952
f 350/27 349/27 348/27 347/27
v -0.4561 1.2373 -0.3542
v -0.4572 1.2373 -0.3812
v -0.4435 1.2605 -0.3818
v -0.4423 1.2605 -0.3548
f 354/27 353/27 352/27 351/27
v 0.0150 1.2371 0.4898
v 0.0086 1.2607 0.4784
v -0.4912 0.6963 -0.4212
v -0.4849 0.6726 -0.4099
f 358/27 357/27 356/27 355/27
v -0.5085 0.6726 -0.3968
v -0.5148 0.6963 -0.4081
v -0.0150 1.2607 0.4915
v -0.0086 1.2371 0.5029
f 362/27 361/27 360/27 359/27
v -0.4849 0.6726 -0.4099
v -0.5085 0.6726 -0.3968
v -0.0086 1.2371 0.5029
v 0.0150 1.2371 0.4898
f 366/27 365/27 364/27 363/27
v 0.0086 1.2607 0.4784
v -0.0150 1.2607 0.4915
v -0.5148 0.6963 -0.4081
v -0.4912 0.6963 -0.4212
f 370/27 369/27 368/27 367/27
v -0.4912 0.6963 -0.4212
v -0.5148 0.6963 -0.4081
v -0.5085 0.6726 -0.3968
v -0.4849 0.6726 -0.4099
f 374/27 373/27 372/27 371/27
v 0.0150 1.2371 0.4898
v -0.0086 1.2371 0.5029
v -0.0150 1.2607 0.4915
v 0.0086 1.2607 0.4784
f 378/27 377/27 376/27 375/27
v 0.4406 1.2371 -0.3798
v 0.4348 1.2607 -0.3681
v -0.0150 0.6963 0.5452
v -0.0092 0.6726 0.5335
f 382/27 381/27 380/27 379/27
v 0.0150 0.6726 0.5454
v 0.0092 0.6963 0.5572
v 0.4590 1.2607 -0.3562
v 0.4648 1.2371 -0.3679
f 386/27 385/27 384/27 383/27
v -0.0092 0.6726 0.5335
v 0.0150 0.6726 0.5454
v 0.4648 1.2371 -0.3679
v 0.4406 1.2371 -0.3798
f 390/27 389/27 388/27 387/27
v 0.4348 1.2607 -0.3681
v 0.4590 1.2607 -0.3562
v 0.0092 0.6963 0.5572
v -0.0150 0.6963 0.5452
f 394/27 393/27 392/27 391/27
v -0.0150 0.6963 0.5452
v 0.0092 0.6963 0.5572
v 0.0150 0.6726 0.5454
v -0.0092 0.6726 0.5335
f 398/27 397/27 396/27 395/27
v 0.4406 1.2371 -0.3798
v 0.4648 1.2371 -0.3679
v 0.4590 1.2607 -0.3562
v 0.4348 1.2607 -0.3681
f 402/27 401/27 400/27 399/27
v -0.4498 1.2309 -0.3500
v -0.4498 1.2669 -0.3500
v 0.4498 1.2669 -0.3500
v 0.4498 1.2309 -0.3500
f 406/27 405/27 404/27 403/27
v 0.4498 1.2309 -0.3860
v 0.4498 1.2669 -0.3860
v -0.4498 1.2669 -0.3860
v -0.4498 1.2309 -0.3860
f 410/27 409/27 408/27 407/27
v 0.4498 1.2309 -0.3500
v 0.4498 1.2309 -0.3860
v -0.4498 1.2309 -0.3860
v -0.4498 1.2309 -0.3500
f 414/27 413/27 412/27 411/27
v -0.4498 1.2669 -0.3500
v -0.4498 1.2669 -0.3860
v 0.4498 1.2669 -0.3860
v 0.4498 1.2669 -0.3500
f 418/27 417/27 416/27 415/27
v 0.4498 1.2669 -0.3500
v 0.4498 1.2669 -0.3860
v 0.4498 1.2309 -0.3860
v 0.4498 1.2309 -0.3500
f 422/27 421/27 420/27 419/27
v -0.4498 1.2309 -0.3500
v -0.4498 1.2309 -0.3860
v -0.4498 1.2669 -0.3860
v -0.4498 1.2669 -0.3500
f 426/27 425/27 424/27 423/27
v 0.0159 1.2309 0.4823
v 0.0159 1.2669 0.4823
v -0.4338 1.2669 -0.3764
v -0.4338 1.2309 -0.3764
f 430/27 429/27 428/27 427/27
v -0.4657 1.2309 -0.3596
v -0.4657 1.2669 -0.3596
v -0.0159 1.2669 0.4990
v -0.0159 1.2309 0.4990
f 434/27 433/27 432/27 431/27
v -0.4338 1.2309 -0.3764
v -0.4657 1.2309 -0.3596
v -0.0159 1.2309 0.4990
v 0.0159 1.2309 0.4823
f 438/27 437/27 436/27 435/27
v 0.0159 1.2669 0.4823
v -0.0159 1.2669 0.4990
v -0.4657 1.2669 -0.3596
v -0.4338 1.2669 -0.3764
f 442/27 441/27 440/27 439/27
v -0.4338 1.2669 -0.3764
v -0.4657 1.2669 -0.3596
v -0.4657 1.2309 -0.3596
v -0.4338 1.2309 -0.3764
f 446/27 445/27 444/27 443/27
v 0.0159 1.2309 0.4823
v -0.0159 1.2309 0.4990
v -0.0159 1.2669 0.4990
v 0.0159 1.2669 0.4823
f 450/27 449/27 448/27 447/27
v 0.4338 1.2309 -0.3764
v 0.4338 1.2669 -0.3764
v -0.0159 1.2669 0.4823
v -0.0159 1.2309 0.4823
f 454/27 453/27 452/27 451/27
v 0.0159 1.2309 0.4990
v 0.0159 1.2669 0.4990
v 0.4657 1.2669 -0.3596
v 0.4657 1.2309 -0.3596
f 458/27 457/27 456/27 455/27
v -0.0159 1.2309 0.4823
v 0.0159 1.2309 0.4990
v 0.4657 1.2309 -0.3596
v 0.4338 1.2309 -0.3764
f 462/27 461/27 460/27 459/27
v 0.4338 1.2669 -0.3764
v 0.4657 1.2669 -0.3596
v 0.0159 1.2669 0.4990
v -0.0159 1.2669 0.4823
f 466/27 465/27 464/27 463/27
v -0.0159 1.2669 0.4823
v 0.0159 1.2669 0.4990
v 0.0159 1.2309 0.4990
v -0.0159 1.2309 0.4823
f 470/27 469/27 468/27 467/27
v 0.4338 1.2309 -0.3764
v 0.4657 1.2309 -0.3596
v 0.4657 1.2669 -0.3596
v 0.4338 1.2669 -0.3764
f 474/27 473/27 472/27 471/27
v -0.4065 1.8021 -0.3132
v -0.3916 1.8246 -0.3139
v 0.4579 1.2601 -0.3549
v 0.4430 1.2376 -0.3542
f 478/27 477/27 476/27 475/27
v 0.4417 1.2376 -0.3811
v 0.4566 1.2601 -0.3818
v -0.3929 1.8246 -0.3408
v -0.4078 1.8021 -0.3401
f 482/27 481/27 480/27 479/27
v 0.4430 1.2376 -0.3542
v 0.4417 1.2376 -0.3811
v -0.4078 1.8021 -0.3401
v -0.4065 1.8021 -0.3132
f 486/27 485/27 484/27 483/27
v -0.3916 1.8246 -0.3139
v -0.3929 1.8246 -0.3408
v 0.4566 1.2601 -0.3818
v 0.4579 1.2601 -0.3549
f 490/27 489/27 488/27 487/27
v 0.4579 1.2601 -0.3549
v 0.4566 1.2601 -0.3818
v 0.4417 1.2376 -0.3811
v 0.4430 1.2376 -0.3542
f 494/27 493/27 492/27 491/27
v -0.4065 1.8021 -0.3132
v -0.4078 1.8021 -0.3401
v -0.3929 1.8246 -0.3408
v -0.3916 1.8246 -0.3139
f 498/27 497/27 496/27 495/27
v 0.0152 1.8018 0.4356
v 0.0083 1.8248 0.4233
v -0.4414 1.2604 -0.3807
v -0.4346 1.2374 -0.3684
f 502/27 501/27 500/27 499/27
v -0.4581 1.2374 -0.3553
v -0.4650 1.2604 -0.3676
v -0.0152 1.8248 0.4364
v -0.0083 1.8018 0.4487
f 506/27 505/27 504/27 503/27
v -0.4346 1.2374 -0.3684
v -0.4581 1.2374 -0.3553
v -0.0083 1.8018 0.4487
v 0.0152 1.8018 0.4356
f 510/27 509/27 508/27 507/27
v 0.0083 1.8248 0.4233
v -0.0152 1.8248 0.4364
v -0.4650 1.2604 -0.3676
v -0.4414 1.2604 -0.3807
f 514/27 513/27 512/27 511/27
v -0.4414 1.2604 -0.3807
v -0.4650 1.2604 -0.3676
v -0.4581 1.2374 -0.3553
v -0.4346 1.2374 -0.3684
f 518/27 517/27 516/27 515/27
v 0.0152 1.8018 0.4356
v -0.0083 1.8018 0.4487
v -0.0152 1.8248 0.4364
v 0.0083 1.8248 0.4233
f 522/27 521/27 520/27 519/27
v 0.3907 1.8019 -0.3393
v 0.3844 1.8248 -0.3265
v -0.0153 1.2604 0.4911
v -0.0090 1.2374 0.4783
f 526/27 525/27 524/27 523/27
v 0.0153 1.2374 0.4902
v 0.0090 1.2604 0.5030
v 0.4087 1.8248 -0.3147
v 0.4149 1.8019 -0.3275
f 530/27 529/27 528/27 527/27
v -0.0090 1.2374 0.4783
v 0.0153 1.2374 0.4902
v 0.4149 1.8019 -0.3275
v 0.3907 1.8019 -0.3393
f 534/27 533/27 532/27 531/27
v 0.3844 1.8248 -0.3265
v 0.4087 1.8248 -0.3147
v 0.0090 1.2604 0.5030
v -0.0153 1.2604 0.4911
f 538/27 537/27 536/27 535/27
v -0.0153 1.2604 0.4911
v 0.0090 1.2604 0.5030
v 0.0153 1.2374 0.4902
v -0.0090 1.2374 0.4783
f 542/27 541/27 540/27 539/27
v 0.3907 1.8019 -0.3393
v 0.4149 1.8019 -0.3275
v 0.4087 1.8248 -0.3147
v 0.3844 1.8248 -0.3265
f 546/27 545/27 544/27 543/27
v -0.3997 1.7953 -0.3090
v -0.3997 1.8313 -0.3090
v 0.3997 1.8313 -0.3090
v 0.3997 1.7953 -0.3090
f 550/27 549/27 548/27 547/27
v 0.3997 1.7953 -0.3450
v 0.3997 1.8313 -0.3450
v -0.3997 1.8313 -0.3450
v -0.3997 1.7953 -0.3450
f 554/27 553/27 552/27 551/27
v 0.3997 1.7953 -0.3090
v 0.3997 1.7953 -0.3450
v -0.3997 1.7953 -0.3450
v -0.3997 1.7953 -0.3090
f 558/27 557/27 556/27 555/27
v -0.3997 1.8313 -0.3090
v -0.3997 1.8313 -0.3450
v 0.3997 1.8313 -0.3450
v 0.3997 1.8313 -0.3090
f 562/27 561/27 560/27 559/27
v 0.3997 1.8313 -0.3090
v 0.3997 1.8313 -0.3450
v 0.3997 1.7953 -0.3450
v 0.3997 1.7953 -0.3090
f 566/27 565/27 564/27 563/27
v -0.3997 1.7953 -0.3090
v -0.3997 1.7953 -0.3450
v -0.3997 1.8313 -0.3450
v -0.3997 1.8313 -0.3090
f 570/27 569/27 568/27 567/27
v 0.0159 1.7953 0.4276
v 0.0159 1.8313 0.4276
v -0.3837 1.8313 -0.3354
v -0.3837 1.7953 -0.3354
f 574/27 573/27 572/27 571/27
v -0.4156 1.7953 -0.3186
v -0.4156 1.8313 -0.3186
v -0.0159 1.8313 0.4444
v -0.0159 1.7953 0.4444
f 578/27 577/27 576/27 575/27
v -0.3837 1.7953 -0.3354
v -0.4156 1.7953 -0.3186
v -0.0159 1.7953 0.4444
v 0.0159 1.7953 0.4276
f 582/27 581/27 580/27 579/27
v 0.0159 1.8313 0.4276
v -0.0159 1.8313 0.4444
v -0.4156 1.8313 -0.3186
v -0.3837 1.8313 -0.3354
f 586/27 585/27 584/27 583/27
v -0.3837 1.8313 -0.3354
v -0.4156 1.8313 -0.3186
v -0.4156 1.7953 -0.3186
v -0.3837 1.7953 -0.3354
f 590/27 589/27 588/27 587/27
v 0.0159 1.7953 0.4276
v -0.0159 1.7953 0.4444
v -0.0159 1.8313 0.4444
v 0.0159 1.8313 0.4276
f 594/27 593/27 592/27 591/27
v 0.3837 1.7953 -0.3354
v 0.3837 1.8313 -0.3354
v -0.0159 1.8313 0.4276
v -0.0159 1.7953 0.4276
f 598/27 597/27 596/27 595/27
v 0.0159 1.7953 0.4444
v 0.0159 1.8313 0.4444
v 0.4156 1.8313 -0.3186
v 0.4156 1.7953 -0.3186
f 602/27 601/27 600/27 599/27
v -0.0159 1.7953 0.4276
v 0.0159 1.7953 0.4444
v 0.4156 1.7953 -0.3186
v 0.3837 1.7953 -0.3354
f 606/27 605/27 604/27 603/27
v 0.3837 1.8313 -0.3354
v 0.4156 1.8313 -0.3186
v 0.0159 1.8313 0.4444
v -0.0159 1.8313 0.4276
f 610/27 609/27 608/27 607/27
v -0.0159 1.8313 0.4276
v 0.0159 1.8313 0.4444
v 0.0159 1.7953 0.4444
v -0.0159 1.7953 0.4276
f 614/27 613/27 612/27 611/27
v 0.3837 1.7953 -0.3354
v 0.4156 1.7953 -0.3186
v 0.4156 1.8313 -0.3186
v 0.3837 1.8313 -0.3354
f 618/27 617/27 616/27 615/27
v -0.3569 2.3670 -0.2721
v -0.3407 2.3886 -0.2730
v 0.4085 1.8241 -0.3140
v 0.3923 1.8025 -0.3131
f 622/27 621/27 620/27 619/27
v 0.3908 1.8025 -0.3400
v 0.4070 1.8241 -0.3409
v -0.3422 2.3886 -0.2999
v -0.3584 2.3670 -0.2990
f 626/27 625/27 624/27 623/27
v 0.3923 1.8025 -0.3131
v 0.3908 1.8025 -0.3400
v -0.3584 2.3670 -0.2990
v -0.3569 2.3670 -0.2721
f 630/27 629/27 628/27 627/27
v -0.3407 2.3886 -0.2730
v -0.3422 2.3886 -0.2999
v 0.4070 1.8241 -0.3409
v 0.4085 1.8241 -0.3140
f 634/27 633/27 632/27 631/27
v 0.4085 1.8241 -0.3140
v 0.4070 1.8241 -0.3409
v 0.3908 1.8025 -0.3400
v 0.3923 1.8025 -0.3131
f 638/27 637/27 636/27 635/27
v -0.3569 2.3670 -0.2721
v -0.3584 2.3670 -0.2990
v -0.3422 2.3886 -0.2999
v -0.3407 2.3886 -0.2730
f 642/27 641/27 640/27 639/27
v 0.0155 2.3667 0.3814
v 0.0080 2.3889 0.3680
v -0.3917 1.8244 -0.3403
v -0.3841 1.8022 -0.3269
f 646/27 645/27 644/27 643/27
v -0.4076 1.8022 -0.3137
v -0.4152 1.8244 -0.3271
v -0.0155 2.3889 0.3813
v -0.0080 2.3667 0.3947
f 650/27 649/27 648/27 647/27
v -0.3841 1.8022 -0.3269
v -0.4076 1.8022 -0.3137
v -0.0080 2.3667 0.3947
v 0.0155 2.3667 0.3814
f 654/27 653/27 652/27 651/27
v 0.0080 2.3889 0.3680
v -0.0155 2.3889 0.3813
v -0.4152 1.8244 -0.3271
v -0.3917 1.8244 -0.3403
f 658/27 657/27 656/27 655/27
v -0.3917 1.8244 -0.3403
v -0.4152 1.8244 -0.3271
v -0.4076 1.8022 -0.3137
v -0.3841 1.8022 -0.3269
f 662/27 661/27 660/27 659/27
v 0.0155 2.3667 0.3814
v -0.0080 2.3667 0.3947
v -0.0155 2.3889 0.3813
v 0.0080 2.3889 0.3680
f 666/27 665/27 664/27 663/27
v 0.3408 2.3667 -0.2989
v 0.3340 2.3888 -0.2849
v -0.0155 1.8244 0.4371
v -0.0088 1.8023 0.4231
f 670/27 669/27 668/27 667/27
v 0.0155 1.8023 0.4349
v 0.0088 1.8244 0.4489
v 0.3583 2.3888 -0.2731
v 0.3651 2.3667 -0.2871
f 674/27 673/27 672/27 671/27
v -0.0088 1.8023 0.4231
v 0.0155 1.8023 0.4349
v 0.3651 2.3667 -0.2871
v 0.3408 2.3667 -0.2989
f 678/27 677/27 676/27 675/27
v 0.3340 2.3888 -0.2849
v 0.3583 2.3888 -0.2731
v 0.0088 1.8244 0.4489
v -0.0155 1.8244 0.4371
f 682/27 681/27 680/27 679/27
v -0.0155 1.8244 0.4371
v 0.0088 1.8244 0.4489
v 0.0155 1.8023 0.4349
v -0.0088 1.8023 0.4231
f 686/27 685/27 684/27 683/27
v 0.3408 2.3667 -0.2989
v 0.3651 2.3667 -0.2871
v 0.3583 2.3888 -0.2731
v 0.3340 2.3888 -0.2849
f 690/27 689/27 688/27 687/27
v -0.3496 2.3598 -0.2680
v -0.3496 2.3958 -0.2680
v 0.3496 2.3958 -0.2680
v 0.3496 2.3598 -0.2680
f 694/27 693/27 692/27 691/27
v 0.3496 2.3598 -0.3040
v 0.3496 2.3958 -0.3040
v -0.3496 2.3958 -0.3040
v -0.3496 2.3598 -0.3040
f 698/27 697/27 696/27 695/27
v 0.3496 2.3598 -0.2680
v 0.3496 2.3598 -0.3040
v -0.3496 2.3598 -0.3040
v -0.3496 2.3598 -0.2680
f 702/27 701/27 700/27 699/27
v -0.3496 2.3958 -0.2680
v -0.3496 2.3958 -0.3040
v 0.3496 2.3958 -0.3040
v 0.3496 2.3958 -0.2680
f 706/27 705/27 704/27 703/27
v 0.3496 2.3958 -0.2680
v 0.3496 2.3958 -0.3040
v 0.3496 2.3598 -0.3040
v 0.3496 2.3598 -0.2680
f 710/27 709/27 708/27 707/27
v -0.3496 2.3598 -0.2680
v -0.3496 2.3598 -0.3040
v -0.3496 2.3958 -0.3040
v -0.3496 2.3958 -0.2680
f 714/27 713/27 712/27 711/27
v 0.0159 2.3598 0.3730
v 0.0159 2.3958 0.3730
v -0.3336 2.3958 -0.2944
v -0.3336 2.3598 -0.2944
f 718/27 717/27 716/27 715/27
v -0.3655 2.3598 -0.2776
v -0.3655 2.3958 -0.2776
v -0.0159 2.3958 0.3897
v -0.0159 2.3598 0.3897
f 722/27 721/27 720/27 719/27
v -0.3336 2.3598 -0.2944
v -0.3655 2.3598 -0.2776
v -0.0159 2.3598 0.3897
v 0.0159 2.3598 0.3730
f 726/27 725/27 724/27 723/27
v 0.0159 2.3958 0.3730
v -0.0159 2.3958 0.3897
v -0.3655 2.3958 -0.2776
v -0.3336 2.3958 -0.2944
f 730/27 729/27 728/27 727/27
v -0.3336 2.3958 -0.2944
v -0.3655 2.3958 -0.2776
v -0.3655 2.3598 -0.2776
v -0.3336 2.3598 -0.2944
f 734/27 733/27 732/27 731/27
v 0.0159 2.3598 0.3730
v -0.0159 2.3598 0.3897
v -0.0159 2.3958 0.3897
v 0.0159 2.3958 0.3730
f 738/27 737/27 736/27 735/27
v 0.3336 2.3598 -0.2944
v 0.3336 2.3958 -0.2944
v -0.0159 2.3958 0.3730
v -0.0159 2.3598 0.3730
f 742/27 741/27 740/27 739/27
v 0.0159 2.3598 0.3897
v 0.0159 2.3958 0.3897
v 0.3655 2.3958 -0.2776
v 0.3655 2.3598 -0.2776
f 746/27 745/27 744/27 743/27
v -0.0159 2.3598 0.3730
v 0.0159 2.3598 0.3897
v 0.3655 2.3598 -0.2776
v 0.3336 2.3598 -0.2944
f 750/27 749/27 748/27 747/27
v 0.3336 2.3958 -0.2944
v 0.3655 2.3958 -0.2776
v 0.0159 2.3958 0.3897
v -0.0159 2.3958 0.3730
f 754/27 753/27 752/27 751/27
v -0.0159 2.3958 0.3730
v 0.0159 2.3958 0.3897
v 0.0159 2.3598 0.3897
v -0.0159 2.3598 0.3730
f 758/27 757/27 756/27 755/27
v 0.3336 2.3598 -0.2944
v 0.3655 2.3598 -0.2776
v 0.3655 2.3958 -0.2776
v 0.3336 2.3958 -0.2944
f 762/27 761/27 760/27 759/27
v -0.3074 2.9320 -0.2310
v -0.2898 2.9524 -0.2321
v 0.3592 2.3880 -0.2731
v 0.3416 2.3676 -0.2720
f 766/27 765/27 764/27 763/27
v 0.3399 2.3676 -0.2989
v 0.3575 2.3880 -0.3000
v -0.2915 2.9524 -0.2590
v -0.3091 2.9320 -0.2579
f 770/27 769/27 768/27 767/27
v 0.3416 2.3676 -0.2720
v 0.3399 2.3676 -0.2989
v -0.3091 2.9320 -0.2579
v -0.3074 2.9320 -0.2310
f 774/27 773/27 772/27 771/27
v -0.2898 2.9524 -0.2321
v -0.2915 2.9524 -0.2590
v 0.3575 2.3880 -0.3000
v 0.3592 2.3880 -0.2731
f 778/27 777/27 776/27 775/27
v 0.3592 2.3880 -0.2731
v 0.3575 2.3880 -0.3000
v 0.3399 2.3676 -0.2989
v 0.3416 2.3676 -0.2720
f 782/27 781/27 780/27 779/27
v -0.3074 2.9320 -0.2310
v -0.3091 2.9320 -0.2579
v -0.2915 2.9524 -0.2590
v -0.2898 2.9524 -0.2321
f 786/27 785/27 784/27 783/27
v 0.0159 2.9317 0.3273
v 0.0075 2.9528 0.3127
v -0.3420 2.3883 -0.3000
v -0.3336 2.3672 -0.2854
f 790/27 789/27 788/27 787/27
v -0.3571 2.3672 -0.2720
v -0.3655 2.3883 -0.2866
v -0.0159 2.9528 0.3260
v -0.0075 2.9317 0.3407
f 794/27 793/27 792/27 791/27
v -0.3336 2.3672 -0.2854
v -0.3571 2.3672 -0.2720
v -0.0075 2.9317 0.3407
v 0.0159 2.9317 0.3273
f 798/27 797/27 796/27 795/27
v 0.0075 2.9528 0.3127
v -0.0159 2.9528 0.3260
v -0.3655 2.3883 -0.2866
v -0.3420 2.3883 -0.3000
f 802/27 801/27 800/27 799/27
v -0.3420 2.3883 -0.3000
v -0.3655 2.3883 -0.2866
v -0.3571 2.3672 -0.2720
v -0.3336 2.3672 -0.2854
f 806/27 805/27 804/27 803/27
v 0.0159 2.9317 0.3273
v -0.0075 2.9317 0.3407
v -0.0159 2.9528 0.3260
v 0.0075 2.9528 0.3127
f 810/27 809/27 808/27 807/27
v 0.2909 2.9317 -0.2585
v 0.2836 2.9527 -0.2431
v -0.0159 2.3883 0.3832
v -0.0085 2.3673 0.3678
f 814/27 813/27 812/27 811/27
v 0.0159 2.3673 0.3795
v 0.0085 2.3883 0.3948
v 0.3080 2.9527 -0.2315
v 0.3153 2.9317 -0.2469
f 818/27 817/27 816/27 815/27
v -0.0085 2.3673 0.3678
v 0.0159 2.3673 0.3795
v 0.3153 2.9317 -0.2469
v 0.2909 2.9317 -0.2585
f 822/27 821/27 820/27 819/27
v 0.2836 2.9527 -0.2431
v 0.3080 2.9527 -0.2315
v 0.0085 2.3883 0.3948
v -0.0159 2.3883 0.3832
f 826/27 825/27 824/27 823/27
v -0.0159 2.3883 0.3832
v 0.0085 2.3883 0.3948
v 0.0159 2.3673 0.3795
v -0.0085 2.3673 0.3678
f 830/27 829/27 828/27 827/27
v 0.2909 2.9317 -0.2585
v 0.3153 2.9317 -0.2469
v 0.3080 2.9527 -0.2315
v 0.2836 2.9527 -0.2431
f 834/27 833/27 832/27 831/27
v -0.2994 2.9242 -0.2270
v -0.2994 2.9602 -0.2270
v 0.2994 2.9602 -0.2270
v 0.2994 2.9242 -0.2270
f 838/27 837/27 836/27 835/27
v 0.2994 2.9242 -0.2630
v 0.2994 2.9602 -0.2630
v -0.2994 2.9602 -0.2630
v -0.2994 2.9242 -0.2630
f 842/27 841/27 840/27 839/27
v 0.2994 2.9242 -0.2270
v 0.2994 2.9242 -0.2630
v -0.2994 2.9242 -0.2630
v -0.2994 2.9242 -0.2270
f 846/27 845/27 844/27 843/27
v -0.2994 2.9602 -0.2270
v -0.2994 2.9602 -0.2630
v 0.2994 2.9602 -0.2630
v 0.2994 2.9602 -0.2270
f 850/27 849/27 848/27 847/27
v 0.2994 2.9602 -0.2270
v 0.2994 2.9602 -0.2630
v 0.2994 2.9242 -0.2630
v 0.2994 2.9242 -0.2270
f 854/27 853/27 852/27 851/27
v -0.2994 2.9242 -0.2270
v -0.2994 2.9242 -0.2630
v -0.2994 2.9602 -0.2630
v -0.2994 2.9602 -0.2270
f 858/27 857/27 856/27 855/27
v 0.0159 2.9242 0.3183
v 0.0159 2.9602 0.3183
v -0.2835 2.9602 -0.2534
v -0.2835 2.9242 -0.2534
f 862/27 861/27 860/27 859/27
v -0.3154 2.9242 -0.2366
v -0.3154 2.9602 -0.2366
v -0.0159 2.9602 0.3350
v -0.0159 2.9242 0.3350
f 866/27 865/27 864/27 863/27
v -0.2835 2.9242 -0.2534
v -0.3154 2.9242 -0.2366
v -0.0159 2.9242 0.3350
v 0.0159 2.9242 0.3183
f 870/27 869/27 868/27 867/27
v 0.0159 2.9602 0.3183
v -0.0159 2.9602 0.3350
v -0.3154 2.9602 -0.2366
v -0.2835 2.9602 -0.2534
f 874/27 873/27 872/27 871/27
v -0.2835 2.9602 -0.2534
v -0.3154 2.9602 -0.2366
v -0.3154 2.9242 -0.2366
v -0.2835 2.9242 -0.2534
f 878/27 877/27 876/27 875/27
v 0.0159 2.9242 0.3183
v -0.0159 2.9242 0.3350
v -0.0159 2.9602 0.3350
v 0.0159 2.9602 0.3183
f 882/27 881/27 880/27 879/27
v 0.2835 2.9242 -0.2534
v 0.2835 2.9602 -0.2534
v -0.0159 2.9602 0.3183
v -0.0159 2.9242 0.3183
f 886/27 885/27 884/27 883/27
v 0.0159 2.9242 0.3350
v 0.0159 2.9602 0.3350
v 0.3154 2.9602 -0.2366
v 0.3154 2.9242 -0.2366
f 890/27 889/27 888/27 887/27
v -0.0159 2.9242 0.3183
v 0.0159 2.9242 0.3350
v 0.3154 2.9242 -0.2366
v 0.2835 2.9242 -0.2534
f 894/27 893/27 892/27 891/27
v 0.2835 2.9602 -0.2534
v 0.3154 2.9602 -0.2366
v 0.0159 2.9602 0.3350
v -0.0159 2.9602 0.3183
f 898/27 897/27 896/27 895/27
v -0.0159 2.9602 0.3183
v 0.0159 2.9602 0.3350
v 0.0159 2.9242 0.3350
v -0.0159 2.9242 0.3183
f 902/27 901/27 900/27 899/27
v 0.2835 2.9242 -0.2534
v 0.3154 2.9242 -0.2366
v 0.3154 2.9602 -0.2366
v 0.2835 2.9602 -0.2534
f 906/27 905/27 904/27 903/27
v -0.2580 3.4972 -0.1898
v -0.2387 3.5161 -0.1913
v 0.3101 2.9516 -0.2323
v 0.2908 2.9328 -0.2308
f 910/27 909/27 908/27 907/27
v 0.2888 2.9328 -0.2577
v 0.3081 2.9516 -0.2592
v -0.2407 3.5161 -0.2182
v -0.2600 3.4972 -0.2167
f 914/27 913/27 912/27 911/27
v 0.2908 2.9328 -0.2308
v 0.2888 2.9328 -0.2577
v -0.2600 3.4972 -0.2167
v -0.2580 3.4972 -0.1898
f 918/27 917/27 916/27 915/27
v -0.2387 3.5161 -0.1913
v -0.2407 3.5161 -0.2182
v 0.3081 2.9516 -0.2592
v 0.3101 2.9516 -0.2323
f 922/27 921/27 920/27 919/27
v 0.3101 2.9516 -0.2323
v 0.3081 2.9516 -0.2592
v 0.2888 2.9328 -0.2577
v 0.2908 2.9328 -0.2308
f 926/27 925/27 924/27 923/27
v -0.2580 3.4972 -0.1898
v -0.2600 3.4972 -0.2167
v -0.2407 3.5161 -0.2182
v -0.2387 3.5161 -0.1913
f 930/27 929/27 928/27 927/27
v 0.0163 3.4969 0.2733
v 0.0070 3.5165 0.2572
v -0.2924 2.9520 -0.2598
v -0.2831 2.9324 -0.2437
f 934/27 933/27 932/27 931/27
v -0.3065 2.9324 -0.2302
v -0.3158 2.9520 -0.2463
v -0.0163 3.5165 0.2707
v -0.0070 3.4969 0.2868
f 938/27 937/27 936/27 935/27
v -0.2831 2.9324 -0.2437
v -0.3065 2.9324 -0.2302
v -0.0070 3.4969 0.2868
v 0.0163 3.4969 0.2733
f 942/27 941/27 940/27 939/27
v 0.0070 3.5165 0.2572
v -0.0163 3.5165 0.2707
v -0.3158 2.9520 -0.2463
v -0.2924 2.9520 -0.2598
f 946/27 945/27 944/27 943/27
v -0.2924 2.9520 -0.2598
v -0.3158 2.9520 -0.2463
v -0.3065 2.9324 -0.2302
v -0.2831 2.9324 -0.2437
f 950/27 949/27 948/27 947/27
v 0.0163 3.4969 0.2733
v -0.0070 3.4969 0.2868
v -0.0163 3.5165 0.2707
v 0.0070 3.5165 0.2572
f 954/27 953/27 952/27 951/27
v 0.2411 3.4969 -0.2182
v 0.2331 3.5164 -0.2013
v -0.0162 2.9519 0.3294
v -0.0082 2.9325 0.3125
f 958/27 957/27 956/27 955/27
v 0.0162 2.9325 0.3239
v 0.0082 2.9519 0.3409
v 0.2576 3.5164 -0.1898
v 0.2655 3.4969 -0.2067
f 962/27 961/27 960/27 959/27
v -0.0082 2.9325 0.3125
v 0.0162 2.9325 0.3239
v 0.2655 3.4969 -0.2067
v 0.2411 3.4969 -0.2182
f 966/27 965/27 964/27 963/27
v 0.2331 3.5164 -0.2013
v 0.2576 3.5164 -0.1898
v 0.0082 2.9519 0.3409
v -0.0162 2.9519 0.3294
f 970/27 969/27 968/27 967/27
v -0.0162 2.9519 0.3294
v 0.0082 2.9519 0.3409
v 0.0162 2.9325 0.3239
v -0.0082 2.9325 0.3125
f 974/27 973/27 972/27 971/27
v 0.2411 3.4969 -0.2182
v 0.2655 3.4969 -0.2067
v 0.2576 3.5164 -0.1898
v 0.2331 3.5164 -0.2013
f 978/27 977/27 976/27 975/27
v -0.2493 3.4887 -0.1860
v -0.2493 3.5247 -0.1860
v 0.2493 3.5247 -0.1860
v 0.2493 3.4887 -0.1860
f 982/27 981/27 980/27 979/27
v 0.2493 3.4887 -0.2220
v 0.2493 3.5247 -0.2220
v -0.2493 3.5247 -0.2220
v -0.2493 3.4887 -0.2220
f 986/27 985/27 984/27 983/27
v 0.2493 3.4887 -0.1860
v 0.2493 3.4887 -0.2220
v -0.2493 3.4887 -0.2220
v -0.2493 3.4887 -0.1860
f 990/27 989/27 988/27 987/27
v -0.2493 3.5247 -0.1860
v -0.2493 3.5247 -0.2220
v 0.2493 3.5247 -0.2220
v 0.2493 3.5247 -0.1860
f 994/27 993/27 992/27 991/27
v 0.2493 3.5247 -0.1860
v 0.2493 3.5247 -0.2220
v 0.2493 3.4887 -0.2220
v 0.2493 3.4887 -0.1860
f 998/27 997/27 996/27 995/27
v -0.2493 3.4887 -0.1860
v -0.2493 3.4887 -0.2220
v -0.2493 3.5247 -0.2220
v -0.2493 3.5247 -0.1860
f 1002/27 1001/27 1000/27 999/27
v 0.0159 3.4887 0.2636
v 0.0159 3.5247 0.2636
v -0.2334 3.5247 -0.2124
v -0.2334 3.4887 -0.2124
f 1006/27 1005/27 1004/27 1003/27
v -0.2653 3.4887 -0.1956
v -0.2653 3.5247 -0.1956
v -0.0159 3.5247 0.2804
v -0.0159 3.4887 0.2804
f 1010/27 1009/27 1008/27 1007/27
v -0.2334 3.4887 -0.2124
v -0.2653 3.4887 -0.1956
v -0.0159 3.4887 0.2804
v 0.0159 3.4887 0.2636
f 1014/27 1013/27 1012/27 1011/27
v 0.0159 3.5247 0.2636
v -0.0159 3.5247 0.2804
v -0.2653 3.5247 -0.1956
v -0.2334 3.5247 -0.2124
f 1018/27 1017/27 1016/27 1015/27
v -0.2334 3.5247 -0.2124
v -0.2653 3.5247 -0.1956
v -0.2653 3.4887 -0.1956
v -0.2334 3.4887 -0.2124
f 1022/27 1021/27 1020/27 1019/27
v 0.0159 3.4887 0.2636
v -0.0159 3.4887 0.2804
v -0.0159 3.5247 0.2804
v 0.0159 3.5247 0.2636
f 1026/27 1025/27 1024/27 1023/27
v 0.2334 3.4887 -0.2124
v 0.2334 3.5247 -0.2124
v -0.0159 3.5247 0.2636
v -0.0159 3.4887 0.2636
f 1030/27 1029/27 1028/27 1027/27
v 0.0159 3.4887 0.2804
v 0.0159 3.5247 0.2804
v 0.2653 3.5247 -0.1956
v 0.2653 3.4887 -0.1956
f 1034/27 1033/27 1032/27 1031/27
v -0.0159 3.4887 0.2636
v 0.0159 3.4887 0.2804
v 0.2653 3.4887 -0.1956
v 0.2334 3.4887 -0.2124
f 1038/27 1037/27 1036/27 1035/27
v 0.2334 3.5247 -0.2124
v 0.2653 3.5247 -0.1956
v 0.0159 3.5247 0.2804
v -0.0159 3.5247 0.2636
f 1042/27 1041/27 1040/27 1039/27
v -0.0159 3.5247 0.2636
v 0.0159 3.5247 0.2804
v 0.0159 3.4887 0.2804
v -0.0159 3.4887 0.2636
f 1046/27 1045/27 1044/27 1043/27
v 0.2334 3.4887 -0.2124
v 0.2653 3.4887 -0.1956
v 0.2653 3.5247 -0.1956
v 0.2334 3.5247 -0.2124
f 1050/27 1049/27 1048/27 1047/27
v -0.2085 4.0627 -0.1486
v -0.1875 4.0795 -0.1505
v 0.2611 3.5151 -0.1915
v 0.2401 3.4982 -0.1896
f 1054/27 1053/27 1052/27 1051/27
v 0.2376 3.4982 -0.2165
v 0.2586 3.5151 -0.2184
v -0.1899 4.0795 -0.1774
v -0.2110 4.0627 -0.1755
f 1058/27 1057/27 1056/27 1055/27
v 0.2401 3.4982 -0.1896
v 0.2376 3.4982 -0.2165
v -0.2110 4.0627 -0.1755
v -0.2085 4.0627 -0.1486
f 1062/27 1061/27 1060/27 1059/27
v -0.1875 4.0795 -0.1505
v -0.1899 4.0795 -0.1774
v 0.2586 3.5151 -0.2184
v 0.2611 3.5151 -0.1915
f 1066/27 1065/27 1064/27 1063/27
v 0.2611 3.5151 -0.1915
v 0.2586 3.5151 -0.2184
v 0.2376 3.4982 -0.2165
v 0.2401 3.4982 -0.1896
f 1070/27 1069/27 1068/27 1067/27
v -0.2085 4.0627 -0.1486
v -0.2110 4.0627 -0.1755
v -0.1899 4.0795 -0.1774
v -0.1875 4.0795 -0.1505
f 1074/27 1073/27 1072/27 1071/27
v 0.0168 4.0623 0.2192
v 0.0064 4.0800 0.2017
v -0.2429 3.5155 -0.2197
v -0.2325 3.4978 -0.2021
f 1078/27 1077/27 1076/27 1075/27
v -0.2558 3.4978 -0.1883
v -0.2661 3.5155 -0.2059
v -0.0168 4.0800 0.2154
v -0.0064 4.0623 0.2330
f 1082/27 1081/27 1080/27 1079/27
v -0.2325 3.4978 -0.2021
v -0.2558 3.4978 -0.1883
v -0.0064 4.0623 0.2330
v 0.0168 4.0623 0.2192
f 1086/27 1085/27 1084/27 1083/27
v 0.0064 4.0800 0.2017
v -0.0168 4.0800 0.2154
v -0.2661 3.5155 -0.2059
v -0.2429 3.5155 -0.2197
f 1090/27 1089/27 1088/27 1087/27
v -0.2429 3.5155 -0.2197
v -0.2661 3.5155 -0.2059
v -0.2558 3.4978 -0.1883
v -0.2325 3.4978 -0.2021
f 1094/27 1093/27 1092/27 1091/27
v 0.0168 4.0623 0.2192
v -0.0064 4.0623 0.2330
v -0.0168 4.0800 0.2154
v 0.0064 4.0800 0.2017
f 1098/27 1097/27 1096/27 1095/27
v 0.1912 4.0624 -0.1780
v 0.1827 4.0798 -0.1593
v -0.0166 3.5154 0.2757
v -0.0080 3.4979 0.2570
f 1102/27 1101/27 1100/27 1099/27
v 0.0166 3.4979 0.2683
v 0.0080 3.5154 0.2870
v 0.2072 4.0798 -0.1480
v 0.2158 4.0624 -0.1667
f 1106/27 1105/27 1104/27 1103/27
v -0.0080 3.4979 0.2570
v 0.0166 3.4979 0.2683
v 0.2158 4.0624 -0.1667
v 0.1912 4.0624 -0.1780
f 1110/27 1109/27 1108/27 1107/27
v 0.1827 4.0798 -0.1593
v 0.2072 4.0798 -0.1480
v 0.0080 3.5154 0.2870
v -0.0166 3.5154 0.2757
f 1114/27 1113/27 1112/27 1111/27
v -0.0166 3.5154 0.2757
v 0.0080 3.5154 0.2870
v 0.0166 3.4979 0.2683
v -0.0080 3.4979 0.2570
f 1118/27 1117/27 1116/27 1115/27
v 0.1912 4.0624 -0.1780
v 0.2158 4.0624 -0.1667
v 0.2072 4.0798 -0.1480
v 0.1827 4.0798 -0.1593
f 1122/27 1121/27 1120/27 1119/27
v -0.1992 4.0531 -0.1450
v -0.1992 4.0891 -0.1450
v 0.1992 4.0891 -0.1450
v 0.1992 4.0531 -0.1450
f 1126/27 1125/27 1124/27 1123/27
v 0.1992 4.0531 -0.1810
v 0.1992 4.0891 -0.1810
v -0.1992 4.0891 -0.1810
v -0.1992 4.0531 -0.1810
f 1130/27 1129/27 1128/27 1127/27
v 0.1992 4.0531 -0.1450
v 0.1992 4.0531 -0.1810
v -0.1992 4.0531 -0.1810
v -0.1992 4.0531 -0.1450
f 1134/27 1133/27 1132/27 1131/27
v -0.1992 4.0891 -0.1450
v -0.1992 4.0891 -0.1810
v 0.1992 4.0891 -0.1810
v 0.1992 4.0891 -0.1450
f 1138/27 1137/27 1136/27 1135/27
v 0.1992 4.0891 -0.1450
v 0.1992 4.0891 -0.1810
v 0.1992 4.0531 -0.1810
v 0.1992 4.0531 -0.1450
f 1142/27 1141/27 1140/27 1139/27
v -0.1992 4.0531 -0.1450
v -0.1992 4.0531 -0.1810
v -0.1992 4.0891 -0.1810
v -0.1992 4.0891 -0.1450
f 1146/27 1145/27 1144/27 1143/27
v 0.0159 4.0531 0.2090
v 0.0159 4.0891 0.2090
v -0.1833 4.0891 -0.1714
v -0.1833 4.0531 -0.1714
f 1150/27 1149/27 1148/27 1147/27
v -0.2152 4.0531 -0.1546
v -0.2152 4.0891 -0.1546
v -0.0159 4.0891 0.2257
v -0.0159 4.0531 0.2257
f 1154/27 1153/27 1152/27 1151/27
v -0.1833 4.0531 -0.1714
v -0.2152 4.0531 -0.1546
v -0.0159 4.0531 0.2257
v 0.0159 4.0531 0.2090
f 1158/27 1157/27 1156/27 1155/27
v 0.0159 4.0891 0.2090
v -0.0159 4.0891 0.2257
v -0.2152 4.0891 -0.1546
v -0.1833 4.0891 -0.1714
f 1162/27 1161/27 1160/27 1159/27
v -0.1833 4.0891 -0.1714
v -0.2152 4.0891 -0.1546
v -0.2152 4.0531 -0.1546
v -0.1833 4.0531 -0.1714
f 1166/27 1165/27 1164/27 1163/27
v 0.0159 4.0531 0.2090
v -0.0159 4.0531 0.2257
v -0.0159 4.0891 0.2257
v 0.0159 4.0891 0.2090
f 1170/27 1169/27 1168/27 1167/27
v 0.1833 4.0531 -0.1714
v 0.1833 4.0891 -0.1714
v -0.0159 4.0891 0.2090
v -0.0159 4.0531 0.2090
f 1174/27 1173/27 1172/27 1171/27
v 0.0159 4.0531 0.2257
v 0.0159 4.0891 0.2257
v 0.2152 4.0891 -0.1546
v 0.2152 4.0531 -0.1546
f 1178/27 1177/27 1176/27 1175/27
v -0.0159 4.0531 0.2090
v 0.0159 4.0531 0.2257
v 0.2152 4.0531 -0.1546
v 0.1833 4.0531 -0.1714
f 1182/27 1181/27 1180/27 1179/27
v 0.1833 4.0891 -0.1714
v 0.2152 4.0891 -0.1546
v 0.0159 4.0891 0.2257
v -0.0159 4.0891 0.2090
f 1186/27 1185/27 1184/27 1183/27
v -0.0159 4.0891 0.2090
v 0.0159 4.0891 0.2257
v 0.0159 4.0531 0.2257
v -0.0159 4.0531 0.2090
f 1190/27 1189/27 1188/27 1187/27
v 0.1833 4.0531 -0.1714
v 0.2152 4.0531 -0.1546
v 0.2152 4.0891 -0.1546
v 0.1833 4.0891 -0.1714
f 1194/27 1193/27 1192/27 1191/27
v -0.1589 4.6284 -0.1073
v -0.1361 4.6427 -0.1099
v 0.2122 4.0782 -0.1509
v 0.1894 4.0640 -0.1483
f 1198/27 1197/27 1196/27 1195/27
v 0.1863 4.0640 -0.1751
v 0.2090 4.0782 -0.1777
v -0.1393 4.6427 -0.1367
v -0.1621 4.6284 -0.1341
f 1202/27 1201/27 1200/27 1199/27
v 0.1894 4.0640 -0.1483
v 0.1863 4.0640 -0.1751
v -0.1621 4.6284 -0.1341
v -0.1589 4.6284 -0.1073
f 1206/27 1205/27 1204/27 1203/27
v -0.1361 4.6427 -0.1099
v -0.1393 4.6427 -0.1367
v 0.2090 4.0782 -0.1777
v 0.2122 4.0782 -0.1509
f 1210/27 1209/27 1208/27 1207/27
v 0.2122 4.0782 -0.1509
v 0.2090 4.0782 -0.1777
v 0.1863 4.0640 -0.1751
v 0.1894 4.0640 -0.1483
f 1214/27 1213/27 1212/27 1211/27
v -0.1589 4.6284 -0.1073
v -0.1621 4.6284 -0.1341
v -0.1393 4.6427 -0.1367
v -0.1361 4.6427 -0.1099
f 1218/27 1217/27 1216/27 1215/27
v 0.0174 4.6280 0.1652
v 0.0057 4.6431 0.1461
v -0.1935 4.0787 -0.1796
v -0.1819 4.0635 -0.1605
f 1222/27 1221/27 1220/27 1219/27
v -0.2049 4.0635 -0.1464
v -0.2166 4.0787 -0.1655
v -0.0174 4.6431 0.1602
v -0.0057 4.6280 0.1793
f 1226/27 1225/27 1224/27 1223/27
v -0.1819 4.0635 -0.1605
v -0.2049 4.0635 -0.1464
v -0.0057 4.6280 0.1793
v 0.0174 4.6280 0.1652
f 1230/27 1229/27 1228/27 1227/27
v 0.0057 4.6431 0.1461
v -0.0174 4.6431 0.1602
v -0.2166 4.0787 -0.1655
v -0.1935 4.0787 -0.1796
f 1234/27 1233/27 1232/27 1231/27
v -0.1935 4.0787 -0.1796
v -0.2166 4.0787 -0.1655
v -0.2049 4.0635 -0.1464
v -0.1819 4.0635 -0.1605
f 1238/27 1237/27 1236/27 1235/27
v 0.0174 4.6280 0.1652
v -0.0057 4.6280 0.1793
v -0.0174 4.6431 0.1602
v 0.0057 4.6431 0.1461
f 1242/27 1241/27 1240/27 1239/27
v 0.1413 4.6281 -0.1378
v 0.1322 4.6430 -0.1171
v -0.0169 4.0785 0.2222
v -0.0078 4.0637 0.2016
f 1246/27 1245/27 1244/27 1243/27
v 0.0169 4.0637 0.2124
v 0.0078 4.0785 0.2331
v 0.1569 4.6430 -0.1062
v 0.1660 4.6281 -0.1269
f 1250/27 1249/27 1248/27 1247/27
v -0.0078 4.0637 0.2016
v 0.0169 4.0637 0.2124
v 0.1660 4.6281 -0.1269
v 0.1413 4.6281 -0.1378
f 1254/27 1253/27 1252/27 1251/27
v 0.1322 4.6430 -0.1171
v 0.1569 4.6430 -0.1062
v 0.0078 4.0785 0.2331
v -0.0169 4.0785 0.2222
f 1258/27 1257/27 1256/27 1255/27
v -0.0169 4.0785 0.2222
v 0.0078 4.0785 0.2331
v 0.0169 4.0637 0.2124
v -0.0078 4.0637 0.2016
f 1262/27 1261/27 1260/27 1259/27
v 0.1413 4.6281 -0.1378
v 0.1660 4.6281 -0.1269
v 0.1569 4.6430 -0.1062
v 0.1322 4.6430 -0.1171
f 1266/27 1265/27 1264/27 1263/27
v -0.1491 4.6176 -0.1040
v -0.1491 4.6536 -0.1040
v 0.1491 4.6536 -0.1040
v 0.1491 4.6176 -0.1040
f 1270/27 1269/27 1268/27 1267/27
v 0.1491 4.6176 -0.1400
v 0.1491 4.6536 -0.1400
v -0.1491 4.6536 -0.1400
v -0.1491 4.6176 -0.1400
f 1274/27 1273/27 1272/27 1271/27
v 0.1491 4.6176 -0.1040
v 0.1491 4.6176 -0.1400
v -0.1491 4.6176 -0.1400
v -0.1491 4.6176 -0.1040
f 1278/27 1277/27 1276/27 1275/27
v -0.1491 4.6536 -0.1040
v -0.1491 4.6536 -0.1400
v 0.1491 4.6536 -0.1400
v 0.1491 4.6536 -0.1040
f 1282/27 1281/27 1280/27 1279/27
v 0.1491 4.6536 -0.1040
v 0.1491 4.6536 -0.1400
v 0.1491 4.6176 -0.1400
v 0.1491 4.6176 -0.1040
f 1286/27 1285/27 1284/27 1283/27
v -0.1491 4.6176 -0.1040
v -0.1491 4.6176 -0.1400
v -0.1491 4.6536 -0.1400
v -0.1491 4.6536 -0.1040
f 1290/27 1289/27 1288/27 1287/27
v 0.0159 4.6176 0.1543
v 0.0159 4.6536 0.1543
v -0.1332 4.6536 -0.1304
v -0.1332 4.6176 -0.1304
f 1294/27 1293/27 1292/27 1291/27
v -0.1651 4.6176 -0.1136
v -0.1651 4.6536 -0.1136
v -0.0159 4.6536 0.1710
v -0.0159 4.6176 0.1710
f 1298/27 1297/27 1296/27 1295/27
v -0.1332 4.6176 -0.1304
v -0.1651 4.6176 -0.1136
v -0.0159 4.6176 0.1710
v 0.0159 4.6176 0.1543
f 1302/27 1301/27 1300/27 1299/27
v 0.0159 4.6536 0.1543
v -0.0159 4.6536 0.1710
v -0.1651 4.6536 -0.1136
v -0.1332 4.6536 -0.1304
f 1306/27 1305/27 1304/27 1303/27
v -0.1332 4.6536 -0.1304
v -0.1651 4.6536 -0.1136
v -0.1651 4.6176 -0.1136
v -0.1332 4.6176 -0.1304
f 1310/27 1309/27 1308/27 1307/27
v 0.0159 4.6176 0.1543
v -0.0159 4.6176 0.1710
v -0.0159 4.6536 0.1710
v 0.0159 4.6536 0.1543
f 1314/27 1313/27 1312/27 1311/27
v 0.1332 4.6176 -0.1304
v 0.1332 4.6536 -0.1304
v -0.0159 4.6536 0.1543
v -0.0159 4.6176 0.1543
f 1318/27 1317/27 1316/27 1315/27
v 0.0159 4.6176 0.1710
v 0.0159 4.6536 0.1710
v 0.1651 4.6536 -0.1136
v 0.1651 4.6176 -0.1136
f 1322/27 1321/27 1320/27 1319/27
v -0.0159 4.6176 0.1543
v 0.0159 4.6176 0.1710
v 0.1651 4.6176 -0.1136
v 0.1332 4.6176 -0.1304
f 1326/27 1325/27 1324/27 1323/27
v 0.1332 4.6536 -0.1304
v 0.1651 4.6536 -0.1136
v 0.0159 4.6536 0.1710
v -0.0159 4.6536 0.1543
f 1330/27 1329/27 1328/27 1327/27
v -0.0159 4.6536 0.1543
v 0.0159 4.6536 0.1710
v 0.0159 4.6176 0.1710
v -0.0159 4.6176 0.1543
f 1334/27 1333/27 1332/27 1331/27
v 0.1332 4.6176 -0.1304
v 0.1651 4.6176 -0.1136
v 0.1651 4.6536 -0.1136
v 0.1332 4.6536 -0.1304
f 1338/27 1337/27 1336/27 1335/27
v -0.1090 5.1945 -0.0657
v -0.0846 5.2055 -0.0697
v 0.1635 4.6410 -0.1107
v 0.1391 4.6301 -0.1067
f 1342/27 1341/27 1340/27 1339/27
v 0.1347 4.6301 -0.1333
v 0.1591 4.6410 -0.1373
v -0.0890 5.2055 -0.0963
v -0.1134 5.1945 -0.0923
f 1346/27 1345/27 1344/27 1343/27
v 0.1391 4.6301 -0.1067
v 0.1347 4.6301 -0.1333
v -0.1134 5.1945 -0.0923
v -0.1090 5.1945 -0.0657
f 1350/27 1349/27 1348/27 1347/27
v -0.0846 5.2055 -0.0697
v -0.0890 5.2055 -0.0963
v 0.1591 4.6410 -0.1373
v 0.1635 4.6410 -0.1107
f 1354/27 1353/27 1352/27 1351/27
v 0.1635 4.6410 -0.1107
v 0.1591 4.6410 -0.1373
v 0.1347 4.6301 -0.1333
v 0.1391 4.6301 -0.1067
f 1358/27 1357/27 1356/27 1355/27
v -0.1090 5.1945 -0.0657
v -0.1134 5.1945 -0.0923
v -0.0890 5.2055 -0.0963
v -0.0846 5.2055 -0.0697
f 1362/27 1361/27 1360/27 1359/27
v 0.0179 5.1941 0.1108
v 0.0047 5.2059 0.0905
v -0.1444 4.6415 -0.1395
v -0.1312 4.6297 -0.1192
f 1366/27 1365/27 1364/27 1363/27
v -0.1538 4.6297 -0.1045
v -0.1670 4.6415 -0.1248
v -0.0179 5.2059 0.1052
v -0.0047 5.1941 0.1255
f 1370/27 1369/27 1368/27 1367/27
v -0.1312 4.6297 -0.1192
v -0.1538 4.6297 -0.1045
v -0.0047 5.1941 0.1255
v 0.0179 5.1941 0.1108
f 1374/27 1373/27 1372/27 1371/27
v 0.0047 5.2059 0.0905
v -0.0179 5.2059 0.1052
v -0.1670 4.6415 -0.1248
v -0.1444 4.6415 -0.1395
f 1378/27 1377/27 1376/27 1375/27
v -0.1444 4.6415 -0.1395
v -0.1670 4.6415 -0.1248
v -0.1538 4.6297 -0.1045
v -0.1312 4.6297 -0.1192
f 1382/27 1381/27 1380/27 1379/27
v 0.0179 5.1941 0.1108
v -0.0047 5.1941 0.1255
v -0.0179 5.2059 0.1052
v 0.0047 5.2059 0.0905
f 1386/27 1385/27 1384/27 1383/27
v 0.0911 5.1943 -0.0974
v 0.0819 5.2057 -0.0747
v -0.0171 4.6413 0.1689
v -0.0079 4.6299 0.1462
f 1390/27 1389/27 1388/27 1387/27
v 0.0171 4.6299 0.1564
v 0.0079 4.6413 0.1791
v 0.1069 5.2057 -0.0646
v 0.1161 5.1943 -0.0873
f 1394/27 1393/27 1392/27 1391/27
v -0.0079 4.6299 0.1462
v 0.0171 4.6299 0.1564
v 0.1161 5.1943 -0.0873
v 0.0911 5.1943 -0.0974
f 1398/27 1397/27 1396/27 1395/27
v 0.0819 5.2057 -0.0747
v 0.1069 5.2057 -0.0646
v 0.0079 4.6413 0.1791
v -0.0171 4.6413 0.1689
f 1402/27 1401/27 1400/27 1399/27
v -0.0171 4.6413 0.1689
v 0.0079 4.6413 0.1791
v 0.0171 4.6299 0.1564
v -0.0079 4.6299 0.1462
f 1406/27 1405/27 1404/27 1403/27
v 0.0911 5.1943 -0.0974
v 0.1161 5.1943 -0.0873
v 0.1069 5.2057 -0.0646
v 0.0819 5.2057 -0.0747
f 1410/27 1409/27 1408/27 1407/27
v -0.0990 5.1820 -0.0630
v -0.0990 5.2180 -0.0630
v 0.0990 5.2180 -0.0630
v 0.0990 5.1820 -0.0630
f 1414/27 1413/27 1412/27 1411/27
v 0.0990 5.1820 -0.0990
v 0.0990 5.2180 -0.0990
v -0.0990 5.2180 -0.0990
v -0.0990 5.1820 -0.0990
f 1418/27 1417/27 1416/27 1415/27
v 0.0990 5.1820 -0.0630
v 0.0990 5.1820 -0.0990
v -0.0990 5.1820 -0.0990
v -0.0990 5.1820 -0.0630
f 1422/27 1421/27 1420/27 1419/27
v -0.0990 5.2180 -0.0630
v -0.0990 5.2180 -0.0990
v 0.0990 5.2180 -0.0990
v 0.0990 5.2180 -0.0630
f 1426/27 1425/27 1424/27 1423/27
v 0.0990 5.2180 -0.0630
v 0.0990 5.2180 -0.0990
v 0.0990 5.1820 -0.0990
v 0.0990 5.1820 -0.0630
f 1430/27 1429/27 1428/27 1427/27
v -0.0990 5.1820 -0.0630
v -0.0990 5.1820 -0.0990
v -0.0990 5.2180 -0.0990
v -0.0990 5.2180 -0.0630
f 1434/27 1433/27 1432/27 1431/27
v 0.0159 5.1820 0.0996
v 0.0159 5.2180 0.0996
v -0.0831 5.2180 -0.0894
v -0.0831 5.1820 -0.0894
f 1438/27 1437/27 1436/27 1435/27
v -0.1149 5.1820 -0.0726
v -0.1149 5.2180 -0.0726
v -0.0159 5.2180 0.1164
v -0.0159 5.1820 0.1164
f 1442/27 1441/27 1440/27 1439/27
v -0.0831 5.1820 -0.0894
v -0.1149 5.1820 -0.0726
v -0.0159 5.1820 0.1164
v 0.0159 5.1820 0.0996
f 1446/27 1445/27 1444/27 1443/27
v 0.0159 5.2180 0.0996
v -0.0159 5.2180 0.1164
v -0.1149 5.2180 -0.0726
v -0.0831 5.2180 -0.0894
f 1450/27 1449/27 1448/27 1447/27
v -0.0831 5.2180 -0.0894
v -0.1149 5.2180 -0.0726
v -0.1149 5.1820 -0.0726
v -0.0831 5.1820 -0.0894
f 1454/27 1453/27 1452/27 1451/27
v 0.0159 5.1820 0.0996
v -0.0159 5.1820 0.1164
v -0.0159 5.2180 0.1164
v 0.0159 5.2180 0.0996
f 1458/27 1457/27 1456/27 1455/27
v 0.0831 5.1820 -0.0894
v 0.0831 5.2180 -0.0894
v -0.0159 5.2180 0.0996
v -0.0159 5.1820 0.0996
f 1462/27 1461/27 1460/27 1459/27
v 0.0159 5.1820 0.1164
v 0.0159 5.2180 0.1164
v 0.1149 5.2180 -0.0726
v 0.1149 5.1820 -0.0726
f 1466/27 1465/27 1464/27 1463/27
v -0.0159 5.1820 0.0996
v 0.0159 5.1820 0.1164
v 0.1149 5.1820 -0.0726
v 0.0831 5.1820 -0.0894
f 1470/27 1469/27 1468/27 1467/27
v 0.0831 5.2180 -0.0894
v 0.1149 5.2180 -0.0726
v 0.0159 5.2180 0.1164
v -0.0159 5.2180 0.0996
f 1474/27 1473/27 1472/27 1471/27
v -0.0159 5.2180 0.0996
v 0.0159 5.2180 0.1164
v 0.0159 5.1820 0.1164
v -0.0159 5.1820 0.0996
f 1478/27 1477/27 1476/27 1475/27
v 0.0831 5.1820 -0.0894
v 0.1149 5.1820 -0.0726
v 0.1149 5.2180 -0.0726
v 0.0831 5.2180 -0.0894
f 1482/27 1481/27 1480/27 1479/27
v -0.3250 0.1250 0.8250
v -0.3250 0.7750 0.8250
v -0.3250 0.7750 0.2750
v -0.3250 0.1250 0.2750
f 1486/15 1485/15 1484/15 1483/15
v -0.8750 0.1250 0.2750
v -0.8750 0.7750 0.2750
v -0.8750 0.7750 0.8250
v -0.8750 0.1250 0.8250
f 1490/15 1489/15 1488/15 1487/15
v -0.3250 0.1250 0.2750
v -0.8750 0.1250 0.2750
v -0.8750 0.1250 0.8250
v -0.3250 0.1250 0.8250
f 1494/15 1493/15 1492/15 1491/15
v -0.3250 0.7750 0.8250
v -0.8750 0.7750 0.8250
v -0.8750 0.7750 0.2750
v -0.3250 0.7750 0.2750
f 1498/15 1497/15 1496/15 1495/15
v -0.3250 0.7750 0.2750
v -0.8750 0.7750 0.2750
v -0.8750 0.1250 0.2750
v -0.3250 0.1250 0.2750
f 1502/15 1501/15 1500/15 1499/15
v -0.3250 0.1250 0.8250
v -0.8750 0.1250 0.8250
v -0.8750 0.7750 0.8250
v -0.3250 0.7750 0.8250
f 1506/15 1505/15 1504/15 1503/15
v -0.5100 0.2000 0.8350
v -0.5100 0.6000 0.8350
v -0.5100 0.6000 0.8250
v -0.5100 0.2000 0.8250
f 1510/6 1509/6 1508/6 1507/6
v -0.6900 0.2000 0.8250
v -0.6900 0.6000 0.8250
v -0.6900 0.6000 0.8350
v -0.6900 0.2000 0.8350
f 1514/6 1513/6 1512/6 1511/6
v -0.5100 0.2000 0.8250
v -0.6900 0.2000 0.8250
v -0.6900 0.2000 0.8350
v -0.5100 0.2000 0.8350
f 1518/6 1517/6 1516/6 1515/6
v -0.5100 0.6000 0.8350
v -0.6900 0.6000 0.8350
v -0.6900 0.6000 0.8250
v -0.5100 0.6000 0.8250
f 1522/6 1521/6 1520/6 1519/6
v -0.5100 0.6000 0.8250
v -0.6900 0.6000 0.8250
v -0.6900 0.2000 0.8250
v -0.5100 0.2000 0.8250
f 1526/6 1525/6 1524/6 1523/6
v -0.5100 0.2000 0.8350
v -0.6900 0.2000 0.8350
v -0.6900 0.6000 0.8350
v -0.5100 0.6000 0.8350
f 1530/6 1529/6 1528/6 1527/6
v -0.0150 5.2000 0.0260
v -0.0300 5.2000 0.0000
v -0.0300 5.5500 0.0000
v -0.0150 5.5500 0.0260
f 1534/7 1533/7 1532/7 1531/7
v -0.0300 5.2000 0.0000
v -0.0150 5.2000 -0.0260
v -0.0150 5.5500 -0.0260
v -0.0300 5.5500 0.0000
f 1538/7 1537/7 1536/7 1535/7
v -0.0150 5.2000 -0.0260
v 0.0150 5.2000 -0.0260
v 0.0150 5.5500 -0.0260
v -0.0150 5.5500 -0.0260
f 1542/7 1541/7 1540/7 1539/7
v 0.0150 5.2000 -0.0260
v 0.0300 5.2000 -0.0000
v 0.0300 5.5500 -0.0000
v 0.0150 5.5500 -0.0260
f 1546/7 1545/7 1544/7 1543/7
v 0.0300 5.2000 -0.0000
v 0.0150 5.2000 0.0260
v 0.0150 5.5500 0.0260
v 0.0300 5.5500 -0.0000
f 1550/7 1549/7 1548/7 1547/7
v 0.0150 5.2000 0.0260
v -0.0150 5.2000 0.0260
v -0.0150 5.5500 0.0260
v 0.0150 5.5500 0.0260
f 1554/7 1553/7 1552/7 1551/7
v 0.0150 5.2000 0.0260
v 0.0300 5.2000 -0.0000
v 0.0150 5.2000 -0.0260
v -0.0150 5.2000 -0.0260
v -0.0300 5.2000 0.0000
v -0.0150 5.2000 0.0260
f 1560/7 1559/7 1558/7 1557/7 1556/7 1555/7
v -0.0150 5.5500 0.0260
v -0.0300 5.5500 0.0000
v -0.0150 5.5500 -0.0260
v 0.0150 5.5500 -0.0260
v 0.0300 5.5500 -0.0000
v 0.0150 5.5500 0.0260
f 1566/7 1565/7 1564/7 1563/7 1562/7 1561/7
v -0.1981 3.6607 -0.0754
v -0.1077 3.7589 -0.0496
v -0.3050 3.7789 0.2728
v -0.3215 3.7610 0.2681
f 1570/15 1569/15 1568/15 1567/15
v -0.1077 3.7589 -0.0496
v -0.0067 3.7964 0.0333
v -0.2867 3.7857 0.2879
v -0.3050 3.7789 0.2728
f 1574/15 1573/15 1572/15 1571/15
v -0.0067 3.7964 0.0333
v 0.0663 3.7589 0.1418
v -0.2734 3.7789 0.3076
v -0.2867 3.7857 0.2879
f 1578/15 1577/15 1576/15 1575/15
v 0.0663 3.7589 0.1418
v 0.0834 3.6607 0.2342
v -0.2703 3.7610 0.3244
v -0.2734 3.7789 0.3076
f 1582/15 1581/15 1580/15 1579/15
v 0.0834 3.6607 0.2342
v 0.0381 3.5393 0.2754
v -0.2785 3.7390 0.3319
v -0.2703 3.7610 0.3244
f 1586/15 1585/15 1584/15 1583/15
v 0.0381 3.5393 0.2754
v -0.0523 3.4411 0.2496
v -0.2950 3.7211 0.3272
v -0.2785 3.7390 0.3319
f 1590/15 1589/15 1588/15 1587/15
v -0.0523 3.4411 0.2496
v -0.1533 3.4036 0.1667
v -0.3133 3.7143 0.3121
v -0.2950 3.7211 0.3272
f 1594/15 1593/15 1592/15 1591/15
v -0.1533 3.4036 0.1667
v -0.2263 3.4411 0.0582
v -0.3266 3.7211 0.2924
v -0.3133 3.7143 0.3121
f 1598/15 1597/15 1596/15 1595/15
v -0.2263 3.4411 0.0582
v -0.2434 3.5393 -0.0342
v -0.3297 3.7390 0.2756
v -0.3266 3.7211 0.2924
f 1602/15 1601/15 1600/15 1599/15
v -0.2434 3.5393 -0.0342
v -0.1981 3.6607 -0.0754
v -0.3215 3.7610 0.2681
v -0.3297 3.7390 0.2756
f 1606/15 1605/15 1604/15 1603/15
v -0.2434 3.5393 -0.0342
v -0.2263 3.4411 0.0582
v -0.1533 3.4036 0.1667
v -0.0523 3.4411 0.2496
v 0.0381 3.5393 0.2754
v 0.0834 3.6607 0.2342
v 0.0663 3.7589 0.1418
v -0.0067 3.7964 0.0333
v -0.1077 3.7589 -0.0496
v -0.1981 3.6607 -0.0754
f 1616/15 1615/15 1614/15 1613/15 1612/15 1611/15 1610/15 1609/15 1608/15 1607/15
v -0.3215 3.7610 0.2681
v -0.3050 3.7789 0.2728
v -0.2867 3.7857 0.2879
v -0.2734 3.7789 0.3076
v -0.2703 3.7610 0.3244
v -0.2785 3.7390 0.3319
v -0.2950 3.7211 0.3272
v -0.3133 3.7143 0.3121
v -0.3266 3.7211 0.2924
v -0.3297 3.7390 0.2756
f 1626/15 1625/15 1624/15 1623/15 1622/15 1621/15 1620/15 1619/15 1618/15 1617/15
v 0.0150 4.3850 0.3500
v 0.0150 4.4150 0.3500
v 0.0150 4.4150 0.0000
v 0.0150 4.3850 0.0000
f 1630/7 1629/7 1628/7 1627/7
v -0.0150 4.3850 0.0000
v -0.0150 4.4150 0.0000
v -0.0150 4.4150 0.3500
v -0.0150 4.3850 0.3500
f 1634/7 1633/7 1632/7 1631/7
v 0.0150 4.3850 0.0000
v -0.0150 4.3850 0.0000
v -0.0150 4.3850 0.3500
v 0.0150 4.3850 0.3500
f 1638/7 1637/7 1636/7 1635/7
v 0.0150 4.4150 0.3500
v -0.0150 4.4150 0.3500
v -0.0150 4.4150 0.0000
v 0.0150 4.4150 0.0000
f 1642/7 1641/7 1640/7 1639/7
v 0.0150 4.4150 0.0000
v -0.0150 4.4150 0.0000
v -0.0150 4.3850 0.0000
v 0.0150 4.3850 0.0000
f 1646/7 1645/7 1644/7 1643/7
v 0.0150 4.3850 0.3500
v -0.0150 4.3850 0.3500
v -0.0150 4.4150 0.3500
v 0.0150 4.4150 0.3500
f 1650/7 1649/7 1648/7 1647/7
v 0.0500 4.1500 0.4300
v 0.0500 4.6500 0.4300
v 0.0500 4.6500 0.3700
v 0.0500 4.1500 0.3700
f 1654/15 1653/15 1652/15 1651/15
v -0.0500 4.1500 0.3700
v -0.0500 4.6500 0.3700
v -0.0500 4.6500 0.4300
v -0.0500 4.1500 0.4300
f 1658/15 1657/15 1656/15 1655/15
v 0.0500 4.1500 0.3700
v -0.0500 4.1500 0.3700
v -0.0500 4.1500 0.4300
v 0.0500 4.1500 0.4300
f 1662/15 1661/15 1660/15 1659/15
v 0.0500 4.6500 0.4300
v -0.0500 4.6500 0.4300
v -0.0500 4.6500 0.3700
v 0.0500 4.6500 0.3700
f 1666/15 1665/15 1664/15 1663/15
v 0.0500 4.6500 0.3700
v -0.0500 4.6500 0.3700
v -0.0500 4.1500 0.3700
v 0.0500 4.1500 0.3700
f 1670/15 1669/15 1668/15 1667/15
v 0.0500 4.1500 0.4300
v -0.0500 4.1500 0.4300
v -0.0500 4.6500 0.4300
v 0.0500 4.6500 0.4300
f 1674/15 1673/15 1672/15 1671/15
v 0.1200 2.1000 -0.0100
v 0.1200 2.7000 -0.0100
v 0.1200 2.7000 -0.0900
v 0.1200 2.1000 -0.0900
f 1678/6 1677/6 1676/6 1675/6
v 0.0400 2.1000 -0.0900
v 0.0400 2.7000 -0.0900
v 0.0400 2.7000 -0.0100
v 0.0400 2.1000 -0.0100
f 1682/6 1681/6 1680/6 1679/6
v 0.1200 2.1000 -0.0900
v 0.0400 2.1000 -0.0900
v 0.0400 2.1000 -0.0100
v 0.1200 2.1000 -0.0100
f 1686/6 1685/6 1684/6 1683/6
v 0.1200 2.7000 -0.0100
v 0.0400 2.7000 -0.0100
v 0.0400 2.7000 -0.0900
v 0.1200 2.7000 -0.0900
f 1690/6 1689/6 1688/6 1687/6
v 0.1200 2.7000 -0.0900
v 0.0400 2.7000 -0.0900
v 0.0400 2.1000 -0.0900
v 0.1200 2.1000 -0.0900
f 1694/6 1693/6 1692/6 1691/6
v 0.1200 2.1000 -0.0100
v 0.0400 2.1000 -0.0100
v 0.0400 2.7000 -0.0100
v 0.1200 2.7000 -0.0100
f 1698/6 1697/6 1696/6 1695/6
