# Walk of Industry low-poly (generated, wi_lib.py)
mtllib wi.mtl
vt 0 0
vt 0.03125 0.03125
vt 0.09375 0.03125
vt 0.15625 0.03125
vt 0.21875 0.03125
vt 0.28125 0.03125
vt 0.34375 0.03125
vt 0.40625 0.03125
vt 0.46875 0.03125
vt 0.53125 0.03125
vt 0.59375 0.03125
vt 0.65625 0.03125
vt 0.71875 0.03125
vt 0.78125 0.03125
vt 0.84375 0.03125
vt 0.90625 0.03125
vt 0.96875 0.03125
vt 0.03125 0.09375
vt 0.09375 0.09375
vt 0.15625 0.09375
vt 0.21875 0.09375
vt 0.28125 0.09375
vt 0.34375 0.09375
vt 0.40625 0.09375
vt 0.46875 0.09375
vt 0.53125 0.09375
vt 0.59375 0.09375
vt 0.65625 0.09375
vt 0.71875 0.09375
vt 0.78125 0.09375
vt 0.84375 0.09375
vt 0.90625 0.09375
vt 0.96875 0.09375
o Body
usemtl wi_paint
v 0.2100 0.6300 0.1400
v 0.2100 1.0500 0.1400
v 0.2100 1.0500 -0.1400
v 0.2100 0.6300 -0.1400
f 4/1 3/1 2/1 1/1
v -0.2100 0.6300 -0.1400
v -0.2100 1.0500 -0.1400
v -0.2100 1.0500 0.1400
v -0.2100 0.6300 0.1400
f 8/1 7/1 6/1 5/1
v 0.2100 0.6300 -0.1400
v -0.2100 0.6300 -0.1400
v -0.2100 0.6300 0.1400
v 0.2100 0.6300 0.1400
f 12/1 11/1 10/1 9/1
v 0.2100 1.0500 0.1400
v -0.2100 1.0500 0.1400
v -0.2100 1.0500 -0.1400
v 0.2100 1.0500 -0.1400
f 16/1 15/1 14/1 13/1
v 0.2100 1.0500 -0.1400
v -0.2100 1.0500 -0.1400
v -0.2100 0.6300 -0.1400
v 0.2100 0.6300 -0.1400
f 20/1 19/1 18/1 17/1
v 0.2100 0.6300 0.1400
v -0.2100 0.6300 0.1400
v -0.2100 1.0500 0.1400
v 0.2100 1.0500 0.1400
f 24/1 23/1 22/1 21/1
v 0.1800 1.1100 0.1400
v 0.1800 1.3900 0.1400
v 0.1800 1.3900 -0.1400
v 0.1800 1.1100 -0.1400
f 28/1 27/1 26/1 25/1
v -0.1800 1.1100 -0.1400
v -0.1800 1.3900 -0.1400
v -0.1800 1.3900 0.1400
v -0.1800 1.1100 0.1400
f 32/1 31/1 30/1 29/1
v 0.1800 1.1100 -0.1400
v -0.1800 1.1100 -0.1400
v -0.1800 1.1100 0.1400
v 0.1800 1.1100 0.1400
f 36/1 35/1 34/1 33/1
v 0.1800 1.3900 0.1400
v -0.1800 1.3900 0.1400
v -0.1800 1.3900 -0.1400
v 0.1800 1.3900 -0.1400
f 40/1 39/1 38/1 37/1
v 0.1800 1.3900 -0.1400
v -0.1800 1.3900 -0.1400
v -0.1800 1.1100 -0.1400
v 0.1800 1.1100 -0.1400
f 44/1 43/1 42/1 41/1
v 0.1800 1.1100 0.1400
v -0.1800 1.1100 0.1400
v -0.1800 1.3900 0.1400
v 0.1800 1.3900 0.1400
f 48/1 47/1 46/1 45/1
usemtl wi_palette
v 0.1800 0.0000 0.1500
v 0.1800 0.1200 0.1500
v 0.1800 0.1200 -0.0700
v 0.1800 0.0000 -0.0700
f 52/6 51/6 50/6 49/6
v 0.0400 0.0000 -0.0700
v 0.0400 0.1200 -0.0700
v 0.0400 0.1200 0.1500
v 0.0400 0.0000 0.1500
f 56/6 55/6 54/6 53/6
v 0.1800 0.0000 -0.0700
v 0.0400 0.0000 -0.0700
v 0.0400 0.0000 0.1500
v 0.1800 0.0000 0.1500
f 60/6 59/6 58/6 57/6
v 0.1800 0.1200 0.1500
v 0.0400 0.1200 0.1500
v 0.0400 0.1200 -0.0700
v 0.1800 0.1200 -0.0700
f 64/6 63/6 62/6 61/6
v 0.1800 0.1200 -0.0700
v 0.0400 0.1200 -0.0700
v 0.0400 0.0000 -0.0700
v 0.1800 0.0000 -0.0700
f 68/6 67/6 66/6 65/6
v 0.1800 0.0000 0.1500
v 0.0400 0.0000 0.1500
v 0.0400 0.1200 0.1500
v 0.1800 0.1200 0.1500
f 72/6 71/6 70/6 69/6
v 0.1600 0.1200 0.0500
v 0.1600 0.5200 0.0500
v 0.1600 0.5200 -0.0500
v 0.1600 0.1200 -0.0500
f 76/7 75/7 74/7 73/7
v 0.0600 0.1200 -0.0500
v 0.0600 0.5200 -0.0500
v 0.0600 0.5200 0.0500
v 0.0600 0.1200 0.0500
f 80/7 79/7 78/7 77/7
v 0.1600 0.1200 -0.0500
v 0.0600 0.1200 -0.0500
v 0.0600 0.1200 0.0500
v 0.1600 0.1200 0.0500
f 84/7 83/7 82/7 81/7
v 0.1600 0.5200 0.0500
v 0.0600 0.5200 0.0500
v 0.0600 0.5200 -0.0500
v 0.1600 0.5200 -0.0500
f 88/7 87/7 86/7 85/7
v 0.1600 0.5200 -0.0500
v 0.0600 0.5200 -0.0500
v 0.0600 0.1200 -0.0500
v 0.1600 0.1200 -0.0500
f 92/7 91/7 90/7 89/7
v 0.1600 0.1200 0.0500
v 0.0600 0.1200 0.0500
v 0.0600 0.5200 0.0500
v 0.1600 0.5200 0.0500
f 96/7 95/7 94/7 93/7
v -0.0400 0.0000 0.1500
v -0.0400 0.1200 0.1500
v -0.0400 0.1200 -0.0700
v -0.0400 0.0000 -0.0700
f 100/6 99/6 98/6 97/6
v -0.1800 0.0000 -0.0700
v -0.1800 0.1200 -0.0700
v -0.1800 0.1200 0.1500
v -0.1800 0.0000 0.1500
f 104/6 103/6 102/6 101/6
v -0.0400 0.0000 -0.0700
v -0.1800 0.0000 -0.0700
v -0.1800 0.0000 0.1500
v -0.0400 0.0000 0.1500
f 108/6 107/6 106/6 105/6
v -0.0400 0.1200 0.1500
v -0.1800 0.1200 0.1500
v -0.1800 0.1200 -0.0700
v -0.0400 0.1200 -0.0700
f 112/6 111/6 110/6 109/6
v -0.0400 0.1200 -0.0700
v -0.1800 0.1200 -0.0700
v -0.1800 0.0000 -0.0700
v -0.0400 0.0000 -0.0700
f 116/6 115/6 114/6 113/6
v -0.0400 0.0000 0.1500
v -0.1800 0.0000 0.1500
v -0.1800 0.1200 0.1500
v -0.0400 0.1200 0.1500
f 120/6 119/6 118/6 117/6
v -0.0600 0.1200 0.0500
v -0.0600 0.5200 0.0500
v -0.0600 0.5200 -0.0500
v -0.0600 0.1200 -0.0500
f 124/7 123/7 122/7 121/7
v -0.1600 0.1200 -0.0500
v -0.1600 0.5200 -0.0500
v -0.1600 0.5200 0.0500
v -0.1600 0.1200 0.0500
f 128/7 127/7 126/7 125/7
v -0.0600 0.1200 -0.0500
v -0.1600 0.1200 -0.0500
v -0.1600 0.1200 0.0500
v -0.0600 0.1200 0.0500
f 132/7 131/7 130/7 129/7
v -0.0600 0.5200 0.0500
v -0.1600 0.5200 0.0500
v -0.1600 0.5200 -0.0500
v -0.0600 0.5200 -0.0500
f 136/7 135/7 134/7 133/7
v -0.0600 0.5200 -0.0500
v -0.1600 0.5200 -0.0500
v -0.1600 0.1200 -0.0500
v -0.0600 0.1200 -0.0500
f 140/7 139/7 138/7 137/7
v -0.0600 0.1200 0.0500
v -0.1600 0.1200 0.0500
v -0.1600 0.5200 0.0500
v -0.0600 0.5200 0.0500
f 144/7 143/7 142/7 141/7
v 0.1800 0.5000 0.1100
v 0.1800 0.6600 0.1100
v 0.1800 0.6600 -0.1100
v 0.1800 0.5000 -0.1100
f 148/6 147/6 146/6 145/6
v -0.1800 0.5000 -0.1100
v -0.1800 0.6600 -0.1100
v -0.1800 0.6600 0.1100
v -0.1800 0.5000 0.1100
f 152/6 151/6 150/6 149/6
v 0.1800 0.5000 -0.1100
v -0.1800 0.5000 -0.1100
v -0.1800 0.5000 0.1100
v 0.1800 0.5000 0.1100
f 156/6 155/6 154/6 153/6
v 0.1800 0.6600 0.1100
v -0.1800 0.6600 0.1100
v -0.1800 0.6600 -0.1100
v 0.1800 0.6600 -0.1100
f 160/6 159/6 158/6 157/6
v 0.1800 0.6600 -0.1100
v -0.1800 0.6600 -0.1100
v -0.1800 0.5000 -0.1100
v 0.1800 0.5000 -0.1100
f 164/6 163/6 162/6 161/6
v 0.1800 0.5000 0.1100
v -0.1800 0.5000 0.1100
v -0.1800 0.6600 0.1100
v 0.1800 0.6600 0.1100
f 168/6 167/6 166/6 165/6
v 0.0900 0.7900 0.1470
v 0.0900 0.9300 0.1470
v 0.0900 0.9300 0.1370
v 0.0900 0.7900 0.1370
f 172/8 171/8 170/8 169/8
v -0.0900 0.7900 0.1370
v -0.0900 0.9300 0.1370
v -0.0900 0.9300 0.1470
v -0.0900 0.7900 0.1470
f 176/8 175/8 174/8 173/8
v 0.0900 0.7900 0.1370
v -0.0900 0.7900 0.1370
v -0.0900 0.7900 0.1470
v 0.0900 0.7900 0.1470
f 180/8 179/8 178/8 177/8
v 0.0900 0.9300 0.1470
v -0.0900 0.9300 0.1470
v -0.0900 0.9300 0.1370
v 0.0900 0.9300 0.1370
f 184/8 183/8 182/8 181/8
v 0.0900 0.9300 0.1370
v -0.0900 0.9300 0.1370
v -0.0900 0.7900 0.1370
v 0.0900 0.7900 0.1370
f 188/8 187/8 186/8 185/8
v 0.0900 0.7900 0.1470
v -0.0900 0.7900 0.1470
v -0.0900 0.9300 0.1470
v 0.0900 0.9300 0.1470
f 192/8 191/8 190/8 189/8
v 0.0400 0.8300 0.1530
v 0.0400 0.8900 0.1530
v 0.0400 0.8900 0.1430
v 0.0400 0.8300 0.1430
f 196/16 195/16 194/16 193/16
v -0.0400 0.8300 0.1430
v -0.0400 0.8900 0.1430
v -0.0400 0.8900 0.1530
v -0.0400 0.8300 0.1530
f 200/16 199/16 198/16 197/16
v 0.0400 0.8300 0.1430
v -0.0400 0.8300 0.1430
v -0.0400 0.8300 0.1530
v 0.0400 0.8300 0.1530
f 204/16 203/16 202/16 201/16
v 0.0400 0.8900 0.1530
v -0.0400 0.8900 0.1530
v -0.0400 0.8900 0.1430
v 0.0400 0.8900 0.1430
f 208/16 207/16 206/16 205/16
v 0.0400 0.8900 0.1430
v -0.0400 0.8900 0.1430
v -0.0400 0.8300 0.1430
v 0.0400 0.8300 0.1430
f 212/16 211/16 210/16 209/16
v 0.0400 0.8300 0.1530
v -0.0400 0.8300 0.1530
v -0.0400 0.8900 0.1530
v 0.0400 0.8900 0.1530
f 216/16 215/16 214/16 213/16
v 0.0600 1.0500 0.0600
v 0.0600 1.1100 0.0600
v 0.0600 1.1100 -0.0600
v 0.0600 1.0500 -0.0600
f 220/6 219/6 218/6 217/6
v -0.0600 1.0500 -0.0600
v -0.0600 1.1100 -0.0600
v -0.0600 1.1100 0.0600
v -0.0600 1.0500 0.0600
f 224/6 223/6 222/6 221/6
v 0.0600 1.0500 -0.0600
v -0.0600 1.0500 -0.0600
v -0.0600 1.0500 0.0600
v 0.0600 1.0500 0.0600
f 228/6 227/6 226/6 225/6
v 0.0600 1.1100 0.0600
v -0.0600 1.1100 0.0600
v -0.0600 1.1100 -0.0600
v 0.0600 1.1100 -0.0600
f 232/6 231/6 230/6 229/6
v 0.0600 1.1100 -0.0600
v -0.0600 1.1100 -0.0600
v -0.0600 1.0500 -0.0600
v 0.0600 1.0500 -0.0600
f 236/6 235/6 234/6 233/6
v 0.0600 1.0500 0.0600
v -0.0600 1.0500 0.0600
v -0.0600 1.1100 0.0600
v 0.0600 1.1100 0.0600
f 240/6 239/6 238/6 237/6
v 0.1200 1.2400 0.1470
v 0.1200 1.3000 0.1470
v 0.1200 1.3000 0.1370
v 0.1200 1.2400 0.1370
f 244/16 243/16 242/16 241/16
v 0.0400 1.2400 0.1370
v 0.0400 1.3000 0.1370
v 0.0400 1.3000 0.1470
v 0.0400 1.2400 0.1470
f 248/16 247/16 246/16 245/16
v 0.1200 1.2400 0.1370
v 0.0400 1.2400 0.1370
v 0.0400 1.2400 0.1470
v 0.1200 1.2400 0.1470
f 252/16 251/16 250/16 249/16
v 0.1200 1.3000 0.1470
v 0.0400 1.3000 0.1470
v 0.0400 1.3000 0.1370
v 0.1200 1.3000 0.1370
f 256/16 255/16 254/16 253/16
v 0.1200 1.3000 0.1370
v 0.0400 1.3000 0.1370
v 0.0400 1.2400 0.1370
v 0.1200 1.2400 0.1370
f 260/16 259/16 258/16 257/16
v 0.1200 1.2400 0.1470
v 0.0400 1.2400 0.1470
v 0.0400 1.3000 0.1470
v 0.1200 1.3000 0.1470
f 264/16 263/16 262/16 261/16
v -0.0400 1.2400 0.1470
v -0.0400 1.3000 0.1470
v -0.0400 1.3000 0.1370
v -0.0400 1.2400 0.1370
f 268/16 267/16 266/16 265/16
v -0.1200 1.2400 0.1370
v -0.1200 1.3000 0.1370
v -0.1200 1.3000 0.1470
v -0.1200 1.2400 0.1470
f 272/16 271/16 270/16 269/16
v -0.0400 1.2400 0.1370
v -0.1200 1.2400 0.1370
v -0.1200 1.2400 0.1470
v -0.0400 1.2400 0.1470
f 276/16 275/16 274/16 273/16
v -0.0400 1.3000 0.1470
v -0.1200 1.3000 0.1470
v -0.1200 1.3000 0.1370
v -0.0400 1.3000 0.1370
f 280/16 279/16 278/16 277/16
v -0.0400 1.3000 0.1370
v -0.1200 1.3000 0.1370
v -0.1200 1.2400 0.1370
v -0.0400 1.2400 0.1370
f 284/16 283/16 282/16 281/16
v -0.0400 1.2400 0.1470
v -0.1200 1.2400 0.1470
v -0.1200 1.3000 0.1470
v -0.0400 1.3000 0.1470
f 288/16 287/16 286/16 285/16
v 0.0700 1.1600 0.1470
v 0.0700 1.1800 0.1470
v 0.0700 1.1800 0.1370
v 0.0700 1.1600 0.1370
f 292/6 291/6 290/6 289/6
v -0.0700 1.1600 0.1370
v -0.0700 1.1800 0.1370
v -0.0700 1.1800 0.1470
v -0.0700 1.1600 0.1470
f 296/6 295/6 294/6 293/6
v 0.0700 1.1600 0.1370
v -0.0700 1.1600 0.1370
v -0.0700 1.1600 0.1470
v 0.0700 1.1600 0.1470
f 300/6 299/6 298/6 297/6
v 0.0700 1.1800 0.1470
v -0.0700 1.1800 0.1470
v -0.0700 1.1800 0.1370
v 0.0700 1.1800 0.1370
f 304/6 303/6 302/6 301/6
v 0.0700 1.1800 0.1370
v -0.0700 1.1800 0.1370
v -0.0700 1.1600 0.1370
v 0.0700 1.1600 0.1370
f 308/6 307/6 306/6 305/6
v 0.0700 1.1600 0.1470
v -0.0700 1.1600 0.1470
v -0.0700 1.1800 0.1470
v 0.0700 1.1800 0.1470
f 312/6 311/6 310/6 309/6
v -0.0085 1.3900 0.0085
v -0.0085 1.3900 -0.0085
v -0.0085 1.5600 -0.0085
v -0.0085 1.5600 0.0085
f 316/7 315/7 314/7 313/7
v -0.0085 1.3900 -0.0085
v 0.0085 1.3900 -0.0085
v 0.0085 1.5600 -0.0085
v -0.0085 1.5600 -0.0085
f 320/7 319/7 318/7 317/7
v 0.0085 1.3900 -0.0085
v 0.0085 1.3900 0.0085
v 0.0085 1.5600 0.0085
v 0.0085 1.5600 -0.0085
f 324/7 323/7 322/7 321/7
v 0.0085 1.3900 0.0085
v -0.0085 1.3900 0.0085
v -0.0085 1.5600 0.0085
v 0.0085 1.5600 0.0085
f 328/7 327/7 326/7 325/7
v 0.0085 1.3900 0.0085
v 0.0085 1.3900 -0.0085
v -0.0085 1.3900 -0.0085
v -0.0085 1.3900 0.0085
f 332/7 331/7 330/7 329/7
v -0.0085 1.5600 0.0085
v -0.0085 1.5600 -0.0085
v 0.0085 1.5600 -0.0085
v 0.0085 1.5600 0.0085
f 336/7 335/7 334/7 333/7
v -0.0000 1.6400 0.0000
v -0.0000 1.6200 0.0346
v -0.0300 1.6200 0.0173
f 339/18 338/18 337/18
v -0.0000 1.6400 0.0000
v 0.0300 1.6200 0.0173
v -0.0000 1.6200 0.0346
f 342/18 341/18 340/18
v -0.0000 1.6400 0.0000
v 0.0300 1.6200 -0.0173
v 0.0300 1.6200 0.0173
f 345/18 344/18 343/18
v -0.0000 1.6400 0.0000
v 0.0000 1.6200 -0.0346
v 0.0300 1.6200 -0.0173
f 348/18 347/18 346/18
v -0.0000 1.6400 0.0000
v -0.0300 1.6200 -0.0173
v 0.0000 1.6200 -0.0346
f 351/18 350/18 349/18
v -0.0000 1.6400 0.0000
v -0.0300 1.6200 0.0173
v -0.0300 1.6200 -0.0173
f 354/18 353/18 352/18
v -0.0300 1.6200 0.0173
v -0.0000 1.6200 0.0346
v -0.0173 1.5800 0.0300
v -0.0346 1.5800 0.0000
f 358/18 357/18 356/18 355/18
v -0.0000 1.6200 0.0346
v 0.0300 1.6200 0.0173
v 0.0173 1.5800 0.0300
v -0.0173 1.5800 0.0300
f 362/18 361/18 360/18 359/18
v 0.0300 1.6200 0.0173
v 0.0300 1.6200 -0.0173
v 0.0346 1.5800 0.0000
v 0.0173 1.5800 0.0300
f 366/18 365/18 364/18 363/18
v 0.0300 1.6200 -0.0173
v 0.0000 1.6200 -0.0346
v 0.0173 1.5800 -0.0300
v 0.0346 1.5800 0.0000
f 370/18 369/18 368/18 367/18
v 0.0000 1.6200 -0.0346
v -0.0300 1.6200 -0.0173
v -0.0173 1.5800 -0.0300
v 0.0173 1.5800 -0.0300
f 374/18 373/18 372/18 371/18
v -0.0300 1.6200 -0.0173
v -0.0300 1.6200 0.0173
v -0.0346 1.5800 0.0000
v -0.0173 1.5800 -0.0300
f 378/18 377/18 376/18 375/18
v -0.0346 1.5800 0.0000
v -0.0173 1.5800 0.0300
v -0.0000 1.5600 0.0000
f 381/18 380/18 379/18
v -0.0173 1.5800 0.0300
v 0.0173 1.5800 0.0300
v -0.0000 1.5600 0.0000
f 384/18 383/18 382/18
v 0.0173 1.5800 0.0300
v 0.0346 1.5800 0.0000
v 0.0000 1.5600 0.0000
f 387/18 386/18 385/18
v 0.0346 1.5800 0.0000
v 0.0173 1.5800 -0.0300
v 0.0000 1.5600 -0.0000
f 390/18 389/18 388/18
v 0.0173 1.5800 -0.0300
v -0.0173 1.5800 -0.0300
v 0.0000 1.5600 -0.0000
f 393/18 392/18 391/18
v -0.0173 1.5800 -0.0300
v -0.0346 1.5800 0.0000
v -0.0000 1.5600 -0.0000
f 396/18 395/18 394/18
v 0.3356 0.6305 0.0450
v 0.2731 0.9851 0.0450
v 0.2731 0.9851 -0.0450
v 0.3356 0.6305 -0.0450
f 400/7 399/7 398/7 397/7
v 0.2469 0.6149 -0.0450
v 0.1844 0.9695 -0.0450
v 0.1844 0.9695 0.0450
v 0.2469 0.6149 0.0450
f 404/7 403/7 402/7 401/7
v 0.3356 0.6305 -0.0450
v 0.2469 0.6149 -0.0450
v 0.2469 0.6149 0.0450
v 0.3356 0.6305 0.0450
f 408/7 407/7 406/7 405/7
v 0.2731 0.9851 0.0450
v 0.1844 0.9695 0.0450
v 0.1844 0.9695 -0.0450
v 0.2731 0.9851 -0.0450
f 412/7 411/7 410/7 409/7
v 0.2731 0.9851 -0.0450
v 0.1844 0.9695 -0.0450
v 0.2469 0.6149 -0.0450
v 0.3356 0.6305 -0.0450
f 416/7 415/7 414/7 413/7
v 0.3356 0.6305 0.0450
v 0.2469 0.6149 0.0450
v 0.1844 0.9695 0.0450
v 0.2731 0.9851 0.0450
f 420/7 419/7 418/7 417/7
v 0.3500 0.5500 0.0600
v 0.3500 0.6500 0.0600
v 0.3500 0.6500 -0.0600
v 0.3500 0.5500 -0.0600
f 424/6 423/6 422/6 421/6
v 0.2300 0.5500 -0.0600
v 0.2300 0.6500 -0.0600
v 0.2300 0.6500 0.0600
v 0.2300 0.5500 0.0600
f 428/6 427/6 426/6 425/6
v 0.3500 0.5500 -0.0600
v 0.2300 0.5500 -0.0600
v 0.2300 0.5500 0.0600
v 0.3500 0.5500 0.0600
f 432/6 431/6 430/6 429/6
v 0.3500 0.6500 0.0600
v 0.2300 0.6500 0.0600
v 0.2300 0.6500 -0.0600
v 0.3500 0.6500 -0.0600
f 436/6 435/6 434/6 433/6
v 0.3500 0.6500 -0.0600
v 0.2300 0.6500 -0.0600
v 0.2300 0.5500 -0.0600
v 0.3500 0.5500 -0.0600
f 440/6 439/6 438/6 437/6
v 0.3500 0.5500 0.0600
v 0.2300 0.5500 0.0600
v 0.2300 0.6500 0.0600
v 0.3500 0.6500 0.0600
f 444/6 443/6 442/6 441/6
