# Walk of Industry low-poly (generated, wi_lib.py)
mtllib wi.mtl
vt 0 0
vt 0.03125 0.03125
vt 0.09375 0.03125
vt 0.15625 0.03125
vt 0.21875 0.03125
vt 0.28125 0.03125
vt 0.34375 0.03125
vt 0.40625 0.03125
vt 0.46875 0.03125
vt 0.53125 0.03125
vt 0.59375 0.03125
vt 0.65625 0.03125
vt 0.71875 0.03125
vt 0.78125 0.03125
vt 0.84375 0.03125
vt 0.90625 0.03125
vt 0.96875 0.03125
vt 0.03125 0.09375
vt 0.09375 0.09375
vt 0.15625 0.09375
vt 0.21875 0.09375
vt 0.28125 0.09375
vt 0.34375 0.09375
vt 0.40625 0.09375
vt 0.46875 0.09375
vt 0.53125 0.09375
vt 0.59375 0.09375
vt 0.65625 0.09375
vt 0.71875 0.09375
vt 0.78125 0.09375
vt 0.84375 0.09375
vt 0.90625 0.09375
vt 0.96875 0.09375
o Body
usemtl wi_palette
v 0.0733 0.5770 0.7714
v 0.0733 0.6270 0.7714
v 0.0733 0.6270 0.7214
v 0.0733 0.5770 0.7214
f 4/31 3/31 2/31 1/31
v 0.0233 0.5770 0.7214
v 0.0233 0.6270 0.7214
v 0.0233 0.6270 0.7714
v 0.0233 0.5770 0.7714
f 8/31 7/31 6/31 5/31
v 0.0733 0.5770 0.7214
v 0.0233 0.5770 0.7214
v 0.0233 0.5770 0.7714
v 0.0733 0.5770 0.7714
f 12/31 11/31 10/31 9/31
v 0.0733 0.6270 0.7714
v 0.0233 0.6270 0.7714
v 0.0233 0.6270 0.7214
v 0.0733 0.6270 0.7214
f 16/31 15/31 14/31 13/31
v 0.0733 0.6270 0.7214
v 0.0233 0.6270 0.7214
v 0.0233 0.5770 0.7214
v 0.0733 0.5770 0.7214
f 20/31 19/31 18/31 17/31
v 0.0733 0.5770 0.7714
v 0.0233 0.5770 0.7714
v 0.0233 0.6270 0.7714
v 0.0733 0.6270 0.7714
f 24/31 23/31 22/31 21/31
v 0.7714 0.5770 -0.0233
v 0.7714 0.6270 -0.0233
v 0.7714 0.6270 -0.0733
v 0.7714 0.5770 -0.0733
f 28/16 27/16 26/16 25/16
v 0.7214 0.5770 -0.0733
v 0.7214 0.6270 -0.0733
v 0.7214 0.6270 -0.0233
v 0.7214 0.5770 -0.0233
f 32/16 31/16 30/16 29/16
v 0.7714 0.5770 -0.0733
v 0.7214 0.5770 -0.0733
v 0.7214 0.5770 -0.0233
v 0.7714 0.5770 -0.0233
f 36/16 35/16 34/16 33/16
v 0.7714 0.6270 -0.0233
v 0.7214 0.6270 -0.0233
v 0.7214 0.6270 -0.0733
v 0.7714 0.6270 -0.0733
f 40/16 39/16 38/16 37/16
v 0.7714 0.6270 -0.0733
v 0.7214 0.6270 -0.0733
v 0.7214 0.5770 -0.0733
v 0.7714 0.5770 -0.0733
f 44/16 43/16 42/16 41/16
v 0.7714 0.5770 -0.0233
v 0.7214 0.5770 -0.0233
v 0.7214 0.6270 -0.0233
v 0.7714 0.6270 -0.0233
f 48/16 47/16 46/16 45/16
v -0.0233 0.5770 -0.7214
v -0.0233 0.6270 -0.7214
v -0.0233 0.6270 -0.7714
v -0.0233 0.5770 -0.7714
f 52/31 51/31 50/31 49/31
v -0.0733 0.5770 -0.7714
v -0.0733 0.6270 -0.7714
v -0.0733 0.6270 -0.7214
v -0.0733 0.5770 -0.7214
f 56/31 55/31 54/31 53/31
v -0.0233 0.5770 -0.7714
v -0.0733 0.5770 -0.7714
v -0.0733 0.5770 -0.7214
v -0.0233 0.5770 -0.7214
f 60/31 59/31 58/31 57/31
v -0.0233 0.6270 -0.7214
v -0.0733 0.6270 -0.7214
v -0.0733 0.6270 -0.7714
v -0.0233 0.6270 -0.7714
f 64/31 63/31 62/31 61/31
v -0.0233 0.6270 -0.7714
v -0.0733 0.6270 -0.7714
v -0.0733 0.5770 -0.7714
v -0.0233 0.5770 -0.7714
f 68/31 67/31 66/31 65/31
v -0.0233 0.5770 -0.7214
v -0.0733 0.5770 -0.7214
v -0.0733 0.6270 -0.7214
v -0.0233 0.6270 -0.7214
f 72/31 71/31 70/31 69/31
v -0.7214 0.5770 0.0733
v -0.7214 0.6270 0.0733
v -0.7214 0.6270 0.0233
v -0.7214 0.5770 0.0233
f 76/16 75/16 74/16 73/16
v -0.7714 0.5770 0.0233
v -0.7714 0.6270 0.0233
v -0.7714 0.6270 0.0733
v -0.7714 0.5770 0.0733
f 80/16 79/16 78/16 77/16
v -0.7214 0.5770 0.0233
v -0.7714 0.5770 0.0233
v -0.7714 0.5770 0.0733
v -0.7214 0.5770 0.0733
f 84/16 83/16 82/16 81/16
v -0.7214 0.6270 0.0733
v -0.7714 0.6270 0.0733
v -0.7714 0.6270 0.0233
v -0.7214 0.6270 0.0233
f 88/16 87/16 86/16 85/16
v -0.7214 0.6270 0.0233
v -0.7714 0.6270 0.0233
v -0.7714 0.5770 0.0233
v -0.7214 0.5770 0.0233
f 92/16 91/16 90/16 89/16
v -0.7214 0.5770 0.0733
v -0.7714 0.5770 0.0733
v -0.7714 0.6270 0.0733
v -0.7214 0.6270 0.0733
f 96/16 95/16 94/16 93/16
v 0.5284 1.1150 0.3485
v 0.5284 1.1650 0.3485
v 0.5284 1.1650 0.2985
v 0.5284 1.1150 0.2985
f 100/31 99/31 98/31 97/31
v 0.4784 1.1150 0.2985
v 0.4784 1.1650 0.2985
v 0.4784 1.1650 0.3485
v 0.4784 1.1150 0.3485
f 104/31 103/31 102/31 101/31
v 0.5284 1.1150 0.2985
v 0.4784 1.1150 0.2985
v 0.4784 1.1150 0.3485
v 0.5284 1.1150 0.3485
f 108/31 107/31 106/31 105/31
v 0.5284 1.1650 0.3485
v 0.4784 1.1650 0.3485
v 0.4784 1.1650 0.2985
v 0.5284 1.1650 0.2985
f 112/31 111/31 110/31 109/31
v 0.5284 1.1650 0.2985
v 0.4784 1.1650 0.2985
v 0.4784 1.1150 0.2985
v 0.5284 1.1150 0.2985
f 116/31 115/31 114/31 113/31
v 0.5284 1.1150 0.3485
v 0.4784 1.1150 0.3485
v 0.4784 1.1650 0.3485
v 0.5284 1.1650 0.3485
f 120/31 119/31 118/31 117/31
v 0.3485 1.1150 -0.4784
v 0.3485 1.1650 -0.4784
v 0.3485 1.1650 -0.5284
v 0.3485 1.1150 -0.5284
f 124/16 123/16 122/16 121/16
v 0.2985 1.1150 -0.5284
v 0.2985 1.1650 -0.5284
v 0.2985 1.1650 -0.4784
v 0.2985 1.1150 -0.4784
f 128/16 127/16 126/16 125/16
v 0.3485 1.1150 -0.5284
v 0.2985 1.1150 -0.5284
v 0.2985 1.1150 -0.4784
v 0.3485 1.1150 -0.4784
f 132/16 131/16 130/16 129/16
v 0.3485 1.1650 -0.4784
v 0.2985 1.1650 -0.4784
v 0.2985 1.1650 -0.5284
v 0.3485 1.1650 -0.5284
f 136/16 135/16 134/16 133/16
v 0.3485 1.1650 -0.5284
v 0.2985 1.1650 -0.5284
v 0.2985 1.1150 -0.5284
v 0.3485 1.1150 -0.5284
f 140/16 139/16 138/16 137/16
v 0.3485 1.1150 -0.4784
v 0.2985 1.1150 -0.4784
v 0.2985 1.1650 -0.4784
v 0.3485 1.1650 -0.4784
f 144/16 143/16 142/16 141/16
v -0.4784 1.1150 -0.2985
v -0.4784 1.1650 -0.2985
v -0.4784 1.1650 -0.3485
v -0.4784 1.1150 -0.3485
f 148/31 147/31 146/31 145/31
v -0.5284 1.1150 -0.3485
v -0.5284 1.1650 -0.3485
v -0.5284 1.1650 -0.2985
v -0.5284 1.1150 -0.2985
f 152/31 151/31 150/31 149/31
v -0.4784 1.1150 -0.3485
v -0.5284 1.1150 -0.3485
v -0.5284 1.1150 -0.2985
v -0.4784 1.1150 -0.2985
f 156/31 155/31 154/31 153/31
v -0.4784 1.1650 -0.2985
v -0.5284 1.1650 -0.2985
v -0.5284 1.1650 -0.3485
v -0.4784 1.1650 -0.3485
f 160/31 159/31 158/31 157/31
v -0.4784 1.1650 -0.3485
v -0.5284 1.1650 -0.3485
v -0.5284 1.1150 -0.3485
v -0.4784 1.1150 -0.3485
f 164/31 163/31 162/31 161/31
v -0.4784 1.1150 -0.2985
v -0.5284 1.1150 -0.2985
v -0.5284 1.1650 -0.2985
v -0.4784 1.1650 -0.2985
f 168/31 167/31 166/31 165/31
v -0.2985 1.1150 0.5284
v -0.2985 1.1650 0.5284
v -0.2985 1.1650 0.4784
v -0.2985 1.1150 0.4784
f 172/16 171/16 170/16 169/16
v -0.3485 1.1150 0.4784
v -0.3485 1.1650 0.4784
v -0.3485 1.1650 0.5284
v -0.3485 1.1150 0.5284
f 176/16 175/16 174/16 173/16
v -0.2985 1.1150 0.4784
v -0.3485 1.1150 0.4784
v -0.3485 1.1150 0.5284
v -0.2985 1.1150 0.5284
f 180/16 179/16 178/16 177/16
v -0.2985 1.1650 0.5284
v -0.3485 1.1650 0.5284
v -0.3485 1.1650 0.4784
v -0.2985 1.1650 0.4784
f 184/16 183/16 182/16 181/16
v -0.2985 1.1650 0.4784
v -0.3485 1.1650 0.4784
v -0.3485 1.1150 0.4784
v -0.2985 1.1150 0.4784
f 188/16 187/16 186/16 185/16
v -0.2985 1.1150 0.5284
v -0.3485 1.1150 0.5284
v -0.3485 1.1650 0.5284
v -0.2985 1.1650 0.5284
f 192/16 191/16 190/16 189/16
v 0.4480 1.6090 -0.0961
v 0.4480 1.6590 -0.0961
v 0.4480 1.6590 -0.1461
v 0.4480 1.6090 -0.1461
f 196/31 195/31 194/31 193/31
v 0.3980 1.6090 -0.1461
v 0.3980 1.6590 -0.1461
v 0.3980 1.6590 -0.0961
v 0.3980 1.6090 -0.0961
f 200/31 199/31 198/31 197/31
v 0.4480 1.6090 -0.1461
v 0.3980 1.6090 -0.1461
v 0.3980 1.6090 -0.0961
v 0.4480 1.6090 -0.0961
f 204/31 203/31 202/31 201/31
v 0.4480 1.6590 -0.0961
v 0.3980 1.6590 -0.0961
v 0.3980 1.6590 -0.1461
v 0.4480 1.6590 -0.1461
f 208/31 207/31 206/31 205/31
v 0.4480 1.6590 -0.1461
v 0.3980 1.6590 -0.1461
v 0.3980 1.6090 -0.1461
v 0.4480 1.6090 -0.1461
f 212/31 211/31 210/31 209/31
v 0.4480 1.6090 -0.0961
v 0.3980 1.6090 -0.0961
v 0.3980 1.6590 -0.0961
v 0.4480 1.6590 -0.0961
f 216/31 215/31 214/31 213/31
v -0.0961 1.6090 -0.3980
v -0.0961 1.6590 -0.3980
v -0.0961 1.6590 -0.4480
v -0.0961 1.6090 -0.4480
f 220/16 219/16 218/16 217/16
v -0.1461 1.6090 -0.4480
v -0.1461 1.6590 -0.4480
v -0.1461 1.6590 -0.3980
v -0.1461 1.6090 -0.3980
f 224/16 223/16 222/16 221/16
v -0.0961 1.6090 -0.4480
v -0.1461 1.6090 -0.4480
v -0.1461 1.6090 -0.3980
v -0.0961 1.6090 -0.3980
f 228/16 227/16 226/16 225/16
v -0.0961 1.6590 -0.3980
v -0.1461 1.6590 -0.3980
v -0.1461 1.6590 -0.4480
v -0.0961 1.6590 -0.4480
f 232/16 231/16 230/16 229/16
v -0.0961 1.6590 -0.4480
v -0.1461 1.6590 -0.4480
v -0.1461 1.6090 -0.4480
v -0.0961 1.6090 -0.4480
f 236/16 235/16 234/16 233/16
v -0.0961 1.6090 -0.3980
v -0.1461 1.6090 -0.3980
v -0.1461 1.6590 -0.3980
v -0.0961 1.6590 -0.3980
f 240/16 239/16 238/16 237/16
v -0.3980 1.6090 0.1461
v -0.3980 1.6590 0.1461
v -0.3980 1.6590 0.0961
v -0.3980 1.6090 0.0961
f 244/31 243/31 242/31 241/31
v -0.4480 1.6090 0.0961
v -0.4480 1.6590 0.0961
v -0.4480 1.6590 0.1461
v -0.4480 1.6090 0.1461
f 248/31 247/31 246/31 245/31
v -0.3980 1.6090 0.0961
v -0.4480 1.6090 0.0961
v -0.4480 1.6090 0.1461
v -0.3980 1.6090 0.1461
f 252/31 251/31 250/31 249/31
v -0.3980 1.6590 0.1461
v -0.4480 1.6590 0.1461
v -0.4480 1.6590 0.0961
v -0.3980 1.6590 0.0961
f 256/31 255/31 254/31 253/31
v -0.3980 1.6590 0.0961
v -0.4480 1.6590 0.0961
v -0.4480 1.6090 0.0961
v -0.3980 1.6090 0.0961
f 260/31 259/31 258/31 257/31
v -0.3980 1.6090 0.1461
v -0.4480 1.6090 0.1461
v -0.4480 1.6590 0.1461
v -0.3980 1.6590 0.1461
f 264/31 263/31 262/31 261/31
v 0.1461 1.6090 0.4480
v 0.1461 1.6590 0.4480
v 0.1461 1.6590 0.3980
v 0.1461 1.6090 0.3980
f 268/16 267/16 266/16 265/16
v 0.0961 1.6090 0.3980
v 0.0961 1.6590 0.3980
v 0.0961 1.6590 0.4480
v 0.0961 1.6090 0.4480
f 272/16 271/16 270/16 269/16
v 0.1461 1.6090 0.3980
v 0.0961 1.6090 0.3980
v 0.0961 1.6090 0.4480
v 0.1461 1.6090 0.4480
f 276/16 275/16 274/16 273/16
v 0.1461 1.6590 0.4480
v 0.0961 1.6590 0.4480
v 0.0961 1.6590 0.3980
v 0.1461 1.6590 0.3980
f 280/16 279/16 278/16 277/16
v 0.1461 1.6590 0.3980
v 0.0961 1.6590 0.3980
v 0.0961 1.6090 0.3980
v 0.1461 1.6090 0.3980
f 284/16 283/16 282/16 281/16
v 0.1461 1.6090 0.4480
v 0.0961 1.6090 0.4480
v 0.0961 1.6590 0.4480
v 0.1461 1.6590 0.4480
f 288/16 287/16 286/16 285/16
v 0.1666 2.0470 -0.2184
v 0.1666 2.0970 -0.2184
v 0.1666 2.0970 -0.2684
v 0.1666 2.0470 -0.2684
f 292/31 291/31 290/31 289/31
v 0.1166 2.0470 -0.2684
v 0.1166 2.0970 -0.2684
v 0.1166 2.0970 -0.2184
v 0.1166 2.0470 -0.2184
f 296/31 295/31 294/31 293/31
v 0.1666 2.0470 -0.2684
v 0.1166 2.0470 -0.2684
v 0.1166 2.0470 -0.2184
v 0.1666 2.0470 -0.2184
f 300/31 299/31 298/31 297/31
v 0.1666 2.0970 -0.2184
v 0.1166 2.0970 -0.2184
v 0.1166 2.0970 -0.2684
v 0.1666 2.0970 -0.2684
f 304/31 303/31 302/31 301/31
v 0.1666 2.0970 -0.2684
v 0.1166 2.0970 -0.2684
v 0.1166 2.0470 -0.2684
v 0.1666 2.0470 -0.2684
f 308/31 307/31 306/31 305/31
v 0.1666 2.0470 -0.2184
v 0.1166 2.0470 -0.2184
v 0.1166 2.0970 -0.2184
v 0.1666 2.0970 -0.2184
f 312/31 311/31 310/31 309/31
v -0.2184 2.0470 -0.1166
v -0.2184 2.0970 -0.1166
v -0.2184 2.0970 -0.1666
v -0.2184 2.0470 -0.1666
f 316/16 315/16 314/16 313/16
v -0.2684 2.0470 -0.1666
v -0.2684 2.0970 -0.1666
v -0.2684 2.0970 -0.1166
v -0.2684 2.0470 -0.1166
f 320/16 319/16 318/16 317/16
v -0.2184 2.0470 -0.1666
v -0.2684 2.0470 -0.1666
v -0.2684 2.0470 -0.1166
v -0.2184 2.0470 -0.1166
f 324/16 323/16 322/16 321/16
v -0.2184 2.0970 -0.1166
v -0.2684 2.0970 -0.1166
v -0.2684 2.0970 -0.1666
v -0.2184 2.0970 -0.1666
f 328/16 327/16 326/16 325/16
v -0.2184 2.0970 -0.1666
v -0.2684 2.0970 -0.1666
v -0.2684 2.0470 -0.1666
v -0.2184 2.0470 -0.1666
f 332/16 331/16 330/16 329/16
v -0.2184 2.0470 -0.1166
v -0.2684 2.0470 -0.1166
v -0.2684 2.0970 -0.1166
v -0.2184 2.0970 -0.1166
f 336/16 335/16 334/16 333/16
v -0.1166 2.0470 0.2684
v -0.1166 2.0970 0.2684
v -0.1166 2.0970 0.2184
v -0.1166 2.0470 0.2184
f 340/31 339/31 338/31 337/31
v -0.1666 2.0470 0.2184
v -0.1666 2.0970 0.2184
v -0.1666 2.0970 0.2684
v -0.1666 2.0470 0.2684
f 344/31 343/31 342/31 341/31
v -0.1166 2.0470 0.2184
v -0.1666 2.0470 0.2184
v -0.1666 2.0470 0.2684
v -0.1166 2.0470 0.2684
f 348/31 347/31 346/31 345/31
v -0.1166 2.0970 0.2684
v -0.1666 2.0970 0.2684
v -0.1666 2.0970 0.2184
v -0.1166 2.0970 0.2184
f 352/31 351/31 350/31 349/31
v -0.1166 2.0970 0.2184
v -0.1666 2.0970 0.2184
v -0.1666 2.0470 0.2184
v -0.1166 2.0470 0.2184
f 356/31 355/31 354/31 353/31
v -0.1166 2.0470 0.2684
v -0.1666 2.0470 0.2684
v -0.1666 2.0970 0.2684
v -0.1166 2.0970 0.2684
f 360/31 359/31 358/31 357/31
v 0.2684 2.0470 0.1666
v 0.2684 2.0970 0.1666
v 0.2684 2.0970 0.1166
v 0.2684 2.0470 0.1166
f 364/16 363/16 362/16 361/16
v 0.2184 2.0470 0.1166
v 0.2184 2.0970 0.1166
v 0.2184 2.0970 0.1666
v 0.2184 2.0470 0.1666
f 368/16 367/16 366/16 365/16
v 0.2684 2.0470 0.1166
v 0.2184 2.0470 0.1166
v 0.2184 2.0470 0.1666
v 0.2684 2.0470 0.1666
f 372/16 371/16 370/16 369/16
v 0.2684 2.0970 0.1666
v 0.2184 2.0970 0.1666
v 0.2184 2.0970 0.1166
v 0.2684 2.0970 0.1166
f 376/16 375/16 374/16 373/16
v 0.2684 2.0970 0.1166
v 0.2184 2.0970 0.1166
v 0.2184 2.0470 0.1166
v 0.2684 2.0470 0.1166
f 380/16 379/16 378/16 377/16
v 0.2684 2.0470 0.1666
v 0.2184 2.0470 0.1666
v 0.2184 2.0970 0.1666
v 0.2684 2.0970 0.1666
f 384/16 383/16 382/16 381/16
