# Walk of Industry low-poly (generated, wi_lib.py)
mtllib wi.mtl
vt 0 0
vt 0.03125 0.03125
vt 0.09375 0.03125
vt 0.15625 0.03125
vt 0.21875 0.03125
vt 0.28125 0.03125
vt 0.34375 0.03125
vt 0.40625 0.03125
vt 0.46875 0.03125
vt 0.53125 0.03125
vt 0.59375 0.03125
vt 0.65625 0.03125
vt 0.71875 0.03125
vt 0.78125 0.03125
vt 0.84375 0.03125
vt 0.90625 0.03125
vt 0.96875 0.03125
vt 0.03125 0.09375
vt 0.09375 0.09375
vt 0.15625 0.09375
vt 0.21875 0.09375
vt 0.28125 0.09375
vt 0.34375 0.09375
vt 0.40625 0.09375
vt 0.46875 0.09375
vt 0.53125 0.09375
vt 0.59375 0.09375
vt 0.65625 0.09375
vt 0.71875 0.09375
vt 0.78125 0.09375
vt 0.84375 0.09375
vt 0.90625 0.09375
vt 0.96875 0.09375
o Body
usemtl wi_paint
v -0.0831 0.0344 -0.0200
v -0.0344 0.0831 -0.0200
v -0.0115 0.0277 0.1200
v -0.0277 0.0115 0.1200
f 4/1 3/1 2/1 1/1
v -0.0344 0.0831 -0.0200
v 0.0344 0.0831 -0.0200
v 0.0115 0.0277 0.1200
v -0.0115 0.0277 0.1200
f 8/1 7/1 6/1 5/1
v 0.0344 0.0831 -0.0200
v 0.0831 0.0344 -0.0200
v 0.0277 0.0115 0.1200
v 0.0115 0.0277 0.1200
f 12/1 11/1 10/1 9/1
v 0.0831 0.0344 -0.0200
v 0.0831 -0.0344 -0.0200
v 0.0277 -0.0115 0.1200
v 0.0277 0.0115 0.1200
f 16/1 15/1 14/1 13/1
v 0.0831 -0.0344 -0.0200
v 0.0344 -0.0831 -0.0200
v 0.0115 -0.0277 0.1200
v 0.0277 -0.0115 0.1200
f 20/1 19/1 18/1 17/1
v 0.0344 -0.0831 -0.0200
v -0.0344 -0.0831 -0.0200
v -0.0115 -0.0277 0.1200
v 0.0115 -0.0277 0.1200
f 24/1 23/1 22/1 21/1
v -0.0344 -0.0831 -0.0200
v -0.0831 -0.0344 -0.0200
v -0.0277 -0.0115 0.1200
v -0.0115 -0.0277 0.1200
f 28/1 27/1 26/1 25/1
v -0.0831 -0.0344 -0.0200
v -0.0831 0.0344 -0.0200
v -0.0277 0.0115 0.1200
v -0.0277 -0.0115 0.1200
f 32/1 31/1 30/1 29/1
v -0.0831 -0.0344 -0.0200
v -0.0344 -0.0831 -0.0200
v 0.0344 -0.0831 -0.0200
v 0.0831 -0.0344 -0.0200
v 0.0831 0.0344 -0.0200
v 0.0344 0.0831 -0.0200
v -0.0344 0.0831 -0.0200
v -0.0831 0.0344 -0.0200
f 40/1 39/1 38/1 37/1 36/1 35/1 34/1 33/1
v -0.0277 0.0115 0.1200
v -0.0115 0.0277 0.1200
v 0.0115 0.0277 0.1200
v 0.0277 0.0115 0.1200
v 0.0277 -0.0115 0.1200
v 0.0115 -0.0277 0.1200
v -0.0115 -0.0277 0.1200
v -0.0277 -0.0115 0.1200
f 48/1 47/1 46/1 45/1 44/1 43/1 42/1 41/1
v 0.0175 1.1004 0.0400
v -0.0175 1.1004 0.0400
v -0.0175 0.2504 0.0300
v 0.0175 0.2504 0.0300
f 52/1 51/1 50/1 49/1
v 0.0175 0.2496 0.0900
v -0.0175 0.2496 0.0900
v -0.0175 1.0996 0.1000
v 0.0175 1.0996 0.1000
f 56/1 55/1 54/1 53/1
v 0.0175 0.2504 0.0300
v 0.0175 0.2496 0.0900
v 0.0175 1.0996 0.1000
v 0.0175 1.1004 0.0400
f 60/1 59/1 58/1 57/1
v -0.0175 1.1004 0.0400
v -0.0175 1.0996 0.1000
v -0.0175 0.2496 0.0900
v -0.0175 0.2504 0.0300
f 64/1 63/1 62/1 61/1
v -0.0175 0.2504 0.0300
v -0.0175 0.2496 0.0900
v 0.0175 0.2496 0.0900
v 0.0175 0.2504 0.0300
f 68/1 67/1 66/1 65/1
v 0.0175 1.1004 0.0400
v 0.0175 1.0996 0.1000
v -0.0175 1.0996 0.1000
v -0.0175 1.1004 0.0400
f 72/1 71/1 70/1 69/1
v -0.9435 -0.5652 0.0999
v -0.9610 -0.5348 0.1001
v -0.2248 -0.1098 0.0901
v -0.2074 -0.1402 0.0899
f 76/1 75/1 74/1 73/1
v -0.2082 -0.1402 0.0299
v -0.2257 -0.1098 0.0301
v -0.9618 -0.5348 0.0401
v -0.9443 -0.5652 0.0399
f 80/1 79/1 78/1 77/1
v -0.2074 -0.1402 0.0899
v -0.2082 -0.1402 0.0299
v -0.9443 -0.5652 0.0399
v -0.9435 -0.5652 0.0999
f 84/1 83/1 82/1 81/1
v -0.9610 -0.5348 0.1001
v -0.9618 -0.5348 0.0401
v -0.2257 -0.1098 0.0301
v -0.2248 -0.1098 0.0901
f 88/1 87/1 86/1 85/1
v -0.2248 -0.1098 0.0901
v -0.2257 -0.1098 0.0301
v -0.2082 -0.1402 0.0299
v -0.2074 -0.1402 0.0899
f 92/1 91/1 90/1 89/1
v -0.9435 -0.5652 0.0999
v -0.9443 -0.5652 0.0399
v -0.9618 -0.5348 0.0401
v -0.9610 -0.5348 0.1001
f 96/1 95/1 94/1 93/1
v 0.9443 -0.5652 0.0399
v 0.9618 -0.5348 0.0401
v 0.2257 -0.1098 0.0301
v 0.2082 -0.1402 0.0299
f 100/1 99/1 98/1 97/1
v 0.2074 -0.1402 0.0899
v 0.2248 -0.1098 0.0901
v 0.9610 -0.5348 0.1001
v 0.9435 -0.5652 0.0999
f 104/1 103/1 102/1 101/1
v 0.2082 -0.1402 0.0299
v 0.2074 -0.1402 0.0899
v 0.9435 -0.5652 0.0999
v 0.9443 -0.5652 0.0399
f 108/1 107/1 106/1 105/1
v 0.9618 -0.5348 0.0401
v 0.9610 -0.5348 0.1001
v 0.2248 -0.1098 0.0901
v 0.2257 -0.1098 0.0301
f 112/1 111/1 110/1 109/1
v 0.2257 -0.1098 0.0301
v 0.2248 -0.1098 0.0901
v 0.2074 -0.1402 0.0899
v 0.2082 -0.1402 0.0299
f 116/1 115/1 114/1 113/1
v 0.9443 -0.5652 0.0399
v 0.9435 -0.5652 0.0999
v 0.9610 -0.5348 0.1001
v 0.9618 -0.5348 0.0401
f 120/1 119/1 118/1 117/1
usemtl wi_palette
v 0.0200 1.4000 -0.0600
v -0.0200 1.4000 -0.0600
v -0.0200 0.2500 -0.0600
v 0.0200 0.2500 -0.0600
f 124/15 123/15 122/15 121/15
v 0.0200 0.2500 0.1800
v -0.0200 0.2500 0.1800
v -0.0200 1.4000 0.1800
v 0.0200 1.4000 0.1800
f 128/15 127/15 126/15 125/15
v 0.0200 0.2500 -0.0600
v 0.0200 0.2500 0.1800
v 0.0200 1.4000 0.1800
v 0.0200 1.4000 -0.0600
f 132/15 131/15 130/15 129/15
v -0.0200 1.4000 -0.0600
v -0.0200 1.4000 0.1800
v -0.0200 0.2500 0.1800
v -0.0200 0.2500 -0.0600
f 136/15 135/15 134/15 133/15
v -0.0200 0.2500 -0.0600
v -0.0200 0.2500 0.1800
v 0.0200 0.2500 0.1800
v 0.0200 0.2500 -0.0600
f 140/15 139/15 138/15 137/15
v 0.0200 1.4000 -0.0600
v 0.0200 1.4000 0.1800
v -0.0200 1.4000 0.1800
v -0.0200 1.4000 -0.0600
f 144/15 143/15 142/15 141/15
v -1.2024 -0.7173 0.1800
v -1.2224 -0.6827 0.1800
v -0.2265 -0.1077 0.1800
v -0.2065 -0.1423 0.1800
f 148/15 147/15 146/15 145/15
v -0.2065 -0.1423 -0.0600
v -0.2265 -0.1077 -0.0600
v -1.2224 -0.6827 -0.0600
v -1.2024 -0.7173 -0.0600
f 152/15 151/15 150/15 149/15
v -0.2065 -0.1423 0.1800
v -0.2065 -0.1423 -0.0600
v -1.2024 -0.7173 -0.0600
v -1.2024 -0.7173 0.1800
f 156/15 155/15 154/15 153/15
v -1.2224 -0.6827 0.1800
v -1.2224 -0.6827 -0.0600
v -0.2265 -0.1077 -0.0600
v -0.2265 -0.1077 0.1800
f 160/15 159/15 158/15 157/15
v -0.2265 -0.1077 0.1800
v -0.2265 -0.1077 -0.0600
v -0.2065 -0.1423 -0.0600
v -0.2065 -0.1423 0.1800
f 164/15 163/15 162/15 161/15
v -1.2024 -0.7173 0.1800
v -1.2024 -0.7173 -0.0600
v -1.2224 -0.6827 -0.0600
v -1.2224 -0.6827 0.1800
f 168/15 167/15 166/15 165/15
v 1.2024 -0.7173 -0.0600
v 1.2224 -0.6827 -0.0600
v 0.2265 -0.1077 -0.0600
v 0.2065 -0.1423 -0.0600
f 172/15 171/15 170/15 169/15
v 0.2065 -0.1423 0.1800
v 0.2265 -0.1077 0.1800
v 1.2224 -0.6827 0.1800
v 1.2024 -0.7173 0.1800
f 176/15 175/15 174/15 173/15
v 0.2065 -0.1423 -0.0600
v 0.2065 -0.1423 0.1800
v 1.2024 -0.7173 0.1800
v 1.2024 -0.7173 -0.0600
f 180/15 179/15 178/15 177/15
v 1.2224 -0.6827 -0.0600
v 1.2224 -0.6827 0.1800
v 0.2265 -0.1077 0.1800
v 0.2265 -0.1077 -0.0600
f 184/15 183/15 182/15 181/15
v 0.2265 -0.1077 -0.0600
v 0.2265 -0.1077 0.1800
v 0.2065 -0.1423 0.1800
v 0.2065 -0.1423 -0.0600
f 188/15 187/15 186/15 185/15
v 1.2024 -0.7173 -0.0600
v 1.2024 -0.7173 0.1800
v 1.2224 -0.6827 0.1800
v 1.2224 -0.6827 -0.0600
f 192/15 191/15 190/15 189/15
