# Walk of Industry low-poly (generated, wi_lib.py)
mtllib wi.mtl
vt 0 0
vt 0.03125 0.03125
vt 0.09375 0.03125
vt 0.15625 0.03125
vt 0.21875 0.03125
vt 0.28125 0.03125
vt 0.34375 0.03125
vt 0.40625 0.03125
vt 0.46875 0.03125
vt 0.53125 0.03125
vt 0.59375 0.03125
vt 0.65625 0.03125
vt 0.71875 0.03125
vt 0.78125 0.03125
vt 0.84375 0.03125
vt 0.90625 0.03125
vt 0.96875 0.03125
vt 0.03125 0.09375
vt 0.09375 0.09375
vt 0.15625 0.09375
vt 0.21875 0.09375
vt 0.28125 0.09375
vt 0.34375 0.09375
vt 0.40625 0.09375
vt 0.46875 0.09375
vt 0.53125 0.09375
vt 0.59375 0.09375
vt 0.65625 0.09375
vt 0.71875 0.09375
vt 0.78125 0.09375
vt 0.84375 0.09375
vt 0.90625 0.09375
vt 0.96875 0.09375
o Body
usemtl wi_palette
v -0.0632 0.0009 0.1049
v -0.0948 0.7048 0.1049
v -0.0948 0.7048 0.0799
v -0.0632 0.0009 0.0799
f 4/21 3/21 2/21 1/21
v -0.0882 -0.0002 0.0799
v -0.1198 0.7037 0.0799
v -0.1198 0.7037 0.1049
v -0.0882 -0.0002 0.1049
f 8/21 7/21 6/21 5/21
v -0.0632 0.0009 0.0799
v -0.0882 -0.0002 0.0799
v -0.0882 -0.0002 0.1049
v -0.0632 0.0009 0.1049
f 12/21 11/21 10/21 9/21
v -0.0948 0.7048 0.1049
v -0.1198 0.7037 0.1049
v -0.1198 0.7037 0.0799
v -0.0948 0.7048 0.0799
f 16/21 15/21 14/21 13/21
v -0.0948 0.7048 0.0799
v -0.1198 0.7037 0.0799
v -0.0882 -0.0002 0.0799
v -0.0632 0.0009 0.0799
f 20/21 19/21 18/21 17/21
v -0.0632 0.0009 0.1049
v -0.0882 -0.0002 0.1049
v -0.1198 0.7037 0.1049
v -0.0948 0.7048 0.1049
f 24/21 23/21 22/21 21/21
v -0.0665 0.5289 0.1174
v -0.0665 0.6689 0.1174
v -0.0665 0.6689 0.0674
v -0.0665 0.5289 0.0674
f 28/22 27/22 26/22 25/22
v -0.1165 0.5289 0.0674
v -0.1165 0.6689 0.0674
v -0.1165 0.6689 0.1174
v -0.1165 0.5289 0.1174
f 32/22 31/22 30/22 29/22
v -0.0665 0.5289 0.0674
v -0.1165 0.5289 0.0674
v -0.1165 0.5289 0.1174
v -0.0665 0.5289 0.1174
f 36/22 35/22 34/22 33/22
v -0.0665 0.6689 0.1174
v -0.1165 0.6689 0.1174
v -0.1165 0.6689 0.0674
v -0.0665 0.6689 0.0674
f 40/22 39/22 38/22 37/22
v -0.0665 0.6689 0.0674
v -0.1165 0.6689 0.0674
v -0.1165 0.5289 0.0674
v -0.0665 0.5289 0.0674
f 44/22 43/22 42/22 41/22
v -0.0665 0.5289 0.1174
v -0.1165 0.5289 0.1174
v -0.1165 0.6689 0.1174
v -0.0665 0.6689 0.1174
f 48/22 47/22 46/22 45/22
v 0.1782 0.0027 -0.0225
v 0.1143 0.6722 -0.0225
v 0.1143 0.6722 -0.0475
v 0.1782 0.0027 -0.0475
f 52/21 51/21 50/21 49/21
v 0.1534 0.0003 -0.0475
v 0.0894 0.6698 -0.0475
v 0.0894 0.6698 -0.0225
v 0.1534 0.0003 -0.0225
f 56/21 55/21 54/21 53/21
v 0.1782 0.0027 -0.0475
v 0.1534 0.0003 -0.0475
v 0.1534 0.0003 -0.0225
v 0.1782 0.0027 -0.0225
f 60/21 59/21 58/21 57/21
v 0.1143 0.6722 -0.0225
v 0.0894 0.6698 -0.0225
v 0.0894 0.6698 -0.0475
v 0.1143 0.6722 -0.0475
f 64/21 63/21 62/21 61/21
v 0.1143 0.6722 -0.0475
v 0.0894 0.6698 -0.0475
v 0.1534 0.0003 -0.0475
v 0.1782 0.0027 -0.0475
f 68/21 67/21 66/21 65/21
v 0.1782 0.0027 -0.0225
v 0.1534 0.0003 -0.0225
v 0.0894 0.6698 -0.0225
v 0.1143 0.6722 -0.0225
f 72/21 71/21 70/21 69/21
v 0.1588 0.5017 -0.0100
v 0.1588 0.6417 -0.0100
v 0.1588 0.6417 -0.0600
v 0.1588 0.5017 -0.0600
f 76/22 75/22 74/22 73/22
v 0.1088 0.5017 -0.0600
v 0.1088 0.6417 -0.0600
v 0.1088 0.6417 -0.0100
v 0.1088 0.5017 -0.0100
f 80/22 79/22 78/22 77/22
v 0.1588 0.5017 -0.0600
v 0.1088 0.5017 -0.0600
v 0.1088 0.5017 -0.0100
v 0.1588 0.5017 -0.0100
f 84/22 83/22 82/22 81/22
v 0.1588 0.6417 -0.0100
v 0.1088 0.6417 -0.0100
v 0.1088 0.6417 -0.0600
v 0.1588 0.6417 -0.0600
f 88/22 87/22 86/22 85/22
v 0.1588 0.6417 -0.0600
v 0.1088 0.6417 -0.0600
v 0.1088 0.5017 -0.0600
v 0.1588 0.5017 -0.0600
f 92/22 91/22 90/22 89/22
v 0.1588 0.5017 -0.0100
v 0.1088 0.5017 -0.0100
v 0.1088 0.6417 -0.0100
v 0.1588 0.6417 -0.0100
f 96/22 95/22 94/22 93/22
v 0.1686 0.0013 0.1623
v 0.1271 0.7458 0.1623
v 0.1271 0.7458 0.1373
v 0.1686 0.0013 0.1373
f 100/21 99/21 98/21 97/21
v 0.1436 -0.0001 0.1373
v 0.1022 0.7444 0.1373
v 0.1022 0.7444 0.1623
v 0.1436 -0.0001 0.1623
f 104/21 103/21 102/21 101/21
v 0.1686 0.0013 0.1373
v 0.1436 -0.0001 0.1373
v 0.1436 -0.0001 0.1623
v 0.1686 0.0013 0.1623
f 108/21 107/21 106/21 105/21
v 0.1271 0.7458 0.1623
v 0.1022 0.7444 0.1623
v 0.1022 0.7444 0.1373
v 0.1271 0.7458 0.1373
f 112/21 111/21 110/21 109/21
v 0.1271 0.7458 0.1373
v 0.1022 0.7444 0.1373
v 0.1436 -0.0001 0.1373
v 0.1686 0.0013 0.1373
f 116/21 115/21 114/21 113/21
v 0.1686 0.0013 0.1623
v 0.1436 -0.0001 0.1623
v 0.1022 0.7444 0.1623
v 0.1271 0.7458 0.1623
f 120/21 119/21 118/21 117/21
v 0.1604 0.5639 0.1748
v 0.1604 0.7039 0.1748
v 0.1604 0.7039 0.1248
v 0.1604 0.5639 0.1248
f 124/22 123/22 122/22 121/22
v 0.1104 0.5639 0.1248
v 0.1104 0.7039 0.1248
v 0.1104 0.7039 0.1748
v 0.1104 0.5639 0.1748
f 128/22 127/22 126/22 125/22
v 0.1604 0.5639 0.1248
v 0.1104 0.5639 0.1248
v 0.1104 0.5639 0.1748
v 0.1604 0.5639 0.1748
f 132/22 131/22 130/22 129/22
v 0.1604 0.7039 0.1748
v 0.1104 0.7039 0.1748
v 0.1104 0.7039 0.1248
v 0.1604 0.7039 0.1248
f 136/22 135/22 134/22 133/22
v 0.1604 0.7039 0.1248
v 0.1104 0.7039 0.1248
v 0.1104 0.5639 0.1248
v 0.1604 0.5639 0.1248
f 140/22 139/22 138/22 137/22
v 0.1604 0.5639 0.1748
v 0.1104 0.5639 0.1748
v 0.1104 0.7039 0.1748
v 0.1604 0.7039 0.1748
f 144/22 143/22 142/22 141/22
v 0.0025 0.0002 0.1548
v 0.0615 0.8173 0.1548
v 0.0615 0.8173 0.1298
v 0.0025 0.0002 0.1298
f 148/21 147/21 146/21 145/21
v -0.0225 0.0020 0.1298
v 0.0366 0.8191 0.1298
v 0.0366 0.8191 0.1548
v -0.0225 0.0020 0.1548
f 152/21 151/21 150/21 149/21
v 0.0025 0.0002 0.1298
v -0.0225 0.0020 0.1298
v -0.0225 0.0020 0.1548
v 0.0025 0.0002 0.1548
f 156/21 155/21 154/21 153/21
v 0.0615 0.8173 0.1548
v 0.0366 0.8191 0.1548
v 0.0366 0.8191 0.1298
v 0.0615 0.8173 0.1298
f 160/21 159/21 158/21 157/21
v 0.0615 0.8173 0.1298
v 0.0366 0.8191 0.1298
v -0.0225 0.0020 0.1298
v 0.0025 0.0002 0.1298
f 164/21 163/21 162/21 161/21
v 0.0025 0.0002 0.1548
v -0.0225 0.0020 0.1548
v 0.0366 0.8191 0.1548
v 0.0615 0.8173 0.1548
f 168/21 167/21 166/21 165/21
v 0.0445 0.6264 0.1673
v 0.0445 0.7664 0.1673
v 0.0445 0.7664 0.1173
v 0.0445 0.6264 0.1173
f 172/22 171/22 170/22 169/22
v -0.0055 0.6264 0.1173
v -0.0055 0.7664 0.1173
v -0.0055 0.7664 0.1673
v -0.0055 0.6264 0.1673
f 176/22 175/22 174/22 173/22
v 0.0445 0.6264 0.1173
v -0.0055 0.6264 0.1173
v -0.0055 0.6264 0.1673
v 0.0445 0.6264 0.1673
f 180/22 179/22 178/22 177/22
v 0.0445 0.7664 0.1673
v -0.0055 0.7664 0.1673
v -0.0055 0.7664 0.1173
v 0.0445 0.7664 0.1173
f 184/22 183/22 182/22 181/22
v 0.0445 0.7664 0.1173
v -0.0055 0.7664 0.1173
v -0.0055 0.6264 0.1173
v 0.0445 0.6264 0.1173
f 188/22 187/22 186/22 185/22
v 0.0445 0.6264 0.1673
v -0.0055 0.6264 0.1673
v -0.0055 0.7664 0.1673
v 0.0445 0.7664 0.1673
f 192/22 191/22 190/22 189/22
v 0.0793 0.0027 0.0104
v 0.0101 0.7526 0.0104
v 0.0101 0.7526 -0.0146
v 0.0793 0.0027 -0.0146
f 196/21 195/21 194/21 193/21
v 0.0544 0.0004 -0.0146
v -0.0148 0.7503 -0.0146
v -0.0148 0.7503 0.0104
v 0.0544 0.0004 0.0104
f 200/21 199/21 198/21 197/21
v 0.0793 0.0027 -0.0146
v 0.0544 0.0004 -0.0146
v 0.0544 0.0004 0.0104
v 0.0793 0.0027 0.0104
f 204/21 203/21 202/21 201/21
v 0.0101 0.7526 0.0104
v -0.0148 0.7503 0.0104
v -0.0148 0.7503 -0.0146
v 0.0101 0.7526 -0.0146
f 208/21 207/21 206/21 205/21
v 0.0101 0.7526 -0.0146
v -0.0148 0.7503 -0.0146
v 0.0544 0.0004 -0.0146
v 0.0793 0.0027 -0.0146
f 212/21 211/21 210/21 209/21
v 0.0793 0.0027 0.0104
v 0.0544 0.0004 0.0104
v -0.0148 0.7503 0.0104
v 0.0101 0.7526 0.0104
f 216/21 215/21 214/21 213/21
v 0.0573 0.5701 0.0229
v 0.0573 0.7101 0.0229
v 0.0573 0.7101 -0.0271
v 0.0573 0.5701 -0.0271
f 220/22 219/22 218/22 217/22
v 0.0073 0.5701 -0.0271
v 0.0073 0.7101 -0.0271
v 0.0073 0.7101 0.0229
v 0.0073 0.5701 0.0229
f 224/22 223/22 222/22 221/22
v 0.0573 0.5701 -0.0271
v 0.0073 0.5701 -0.0271
v 0.0073 0.5701 0.0229
v 0.0573 0.5701 0.0229
f 228/22 227/22 226/22 225/22
v 0.0573 0.7101 0.0229
v 0.0073 0.7101 0.0229
v 0.0073 0.7101 -0.0271
v 0.0573 0.7101 -0.0271
f 232/22 231/22 230/22 229/22
v 0.0573 0.7101 -0.0271
v 0.0073 0.7101 -0.0271
v 0.0073 0.5701 -0.0271
v 0.0573 0.5701 -0.0271
f 236/22 235/22 234/22 233/22
v 0.0573 0.5701 0.0229
v 0.0073 0.5701 0.0229
v 0.0073 0.7101 0.0229
v 0.0573 0.7101 0.0229
f 240/22 239/22 238/22 237/22
v 0.0329 0.0028 -0.0561
v -0.0413 0.8133 -0.0561
v -0.0413 0.8133 -0.0811
v 0.0329 0.0028 -0.0811
f 244/21 243/21 242/21 241/21
v 0.0080 0.0006 -0.0811
v -0.0662 0.8111 -0.0811
v -0.0662 0.8111 -0.0561
v 0.0080 0.0006 -0.0561
f 248/21 247/21 246/21 245/21
v 0.0329 0.0028 -0.0811
v 0.0080 0.0006 -0.0811
v 0.0080 0.0006 -0.0561
v 0.0329 0.0028 -0.0561
f 252/21 251/21 250/21 249/21
v -0.0413 0.8133 -0.0561
v -0.0662 0.8111 -0.0561
v -0.0662 0.8111 -0.0811
v -0.0413 0.8133 -0.0811
f 256/21 255/21 254/21 253/21
v -0.0413 0.8133 -0.0811
v -0.0662 0.8111 -0.0811
v 0.0080 0.0006 -0.0811
v 0.0329 0.0028 -0.0811
f 260/21 259/21 258/21 257/21
v 0.0329 0.0028 -0.0561
v 0.0080 0.0006 -0.0561
v -0.0662 0.8111 -0.0561
v -0.0413 0.8133 -0.0561
f 264/21 263/21 262/21 261/21
v 0.0083 0.6218 -0.0436
v 0.0083 0.7618 -0.0436
v 0.0083 0.7618 -0.0936
v 0.0083 0.6218 -0.0936
f 268/22 267/22 266/22 265/22
v -0.0417 0.6218 -0.0936
v -0.0417 0.7618 -0.0936
v -0.0417 0.7618 -0.0436
v -0.0417 0.6218 -0.0436
f 272/22 271/22 270/22 269/22
v 0.0083 0.6218 -0.0936
v -0.0417 0.6218 -0.0936
v -0.0417 0.6218 -0.0436
v 0.0083 0.6218 -0.0436
f 276/22 275/22 274/22 273/22
v 0.0083 0.7618 -0.0436
v -0.0417 0.7618 -0.0436
v -0.0417 0.7618 -0.0936
v 0.0083 0.7618 -0.0936
f 280/22 279/22 278/22 277/22
v 0.0083 0.7618 -0.0936
v -0.0417 0.7618 -0.0936
v -0.0417 0.6218 -0.0936
v 0.0083 0.6218 -0.0936
f 284/22 283/22 282/22 281/22
v 0.0083 0.6218 -0.0436
v -0.0417 0.6218 -0.0436
v -0.0417 0.7618 -0.0436
v 0.0083 0.7618 -0.0436
f 288/22 287/22 286/22 285/22
v -0.0669 0.0000 0.1235
v -0.0157 0.6161 0.1235
v -0.0157 0.6161 0.0985
v -0.0669 0.0000 0.0985
f 292/21 291/21 290/21 289/21
v -0.0918 0.0021 0.0985
v -0.0406 0.6182 0.0985
v -0.0406 0.6182 0.1235
v -0.0918 0.0021 0.1235
f 296/21 295/21 294/21 293/21
v -0.0669 0.0000 0.0985
v -0.0918 0.0021 0.0985
v -0.0918 0.0021 0.1235
v -0.0669 0.0000 0.1235
f 300/21 299/21 298/21 297/21
v -0.0157 0.6161 0.1235
v -0.0406 0.6182 0.1235
v -0.0406 0.6182 0.0985
v -0.0157 0.6161 0.0985
f 304/21 303/21 302/21 301/21
v -0.0157 0.6161 0.0985
v -0.0406 0.6182 0.0985
v -0.0918 0.0021 0.0985
v -0.0669 0.0000 0.0985
f 308/21 307/21 306/21 305/21
v -0.0669 0.0000 0.1235
v -0.0918 0.0021 0.1235
v -0.0406 0.6182 0.1235
v -0.0157 0.6161 0.1235
f 312/21 311/21 310/21 309/21
v -0.0288 0.4555 0.1360
v -0.0288 0.5955 0.1360
v -0.0288 0.5955 0.0860
v -0.0288 0.4555 0.0860
f 316/22 315/22 314/22 313/22
v -0.0788 0.4555 0.0860
v -0.0788 0.5955 0.0860
v -0.0788 0.5955 0.1360
v -0.0788 0.4555 0.1360
f 320/22 319/22 318/22 317/22
v -0.0288 0.4555 0.0860
v -0.0788 0.4555 0.0860
v -0.0788 0.4555 0.1360
v -0.0288 0.4555 0.1360
f 324/22 323/22 322/22 321/22
v -0.0288 0.5955 0.1360
v -0.0788 0.5955 0.1360
v -0.0788 0.5955 0.0860
v -0.0288 0.5955 0.0860
f 328/22 327/22 326/22 325/22
v -0.0288 0.5955 0.0860
v -0.0788 0.5955 0.0860
v -0.0788 0.4555 0.0860
v -0.0288 0.4555 0.0860
f 332/22 331/22 330/22 329/22
v -0.0288 0.4555 0.1360
v -0.0788 0.4555 0.1360
v -0.0788 0.5955 0.1360
v -0.0288 0.5955 0.1360
f 336/22 335/22 334/22 333/22
