# Walk of Industry low-poly (generated, wi_lib.py)
mtllib wi.mtl
vt 0 0
vt 0.03125 0.03125
vt 0.09375 0.03125
vt 0.15625 0.03125
vt 0.21875 0.03125
vt 0.28125 0.03125
vt 0.34375 0.03125
vt 0.40625 0.03125
vt 0.46875 0.03125
vt 0.53125 0.03125
vt 0.59375 0.03125
vt 0.65625 0.03125
vt 0.71875 0.03125
vt 0.78125 0.03125
vt 0.84375 0.03125
vt 0.90625 0.03125
vt 0.96875 0.03125
vt 0.03125 0.09375
vt 0.09375 0.09375
vt 0.15625 0.09375
vt 0.21875 0.09375
vt 0.28125 0.09375
vt 0.34375 0.09375
vt 0.40625 0.09375
vt 0.46875 0.09375
vt 0.53125 0.09375
vt 0.59375 0.09375
vt 0.65625 0.09375
vt 0.71875 0.09375
vt 0.78125 0.09375
vt 0.84375 0.09375
vt 0.90625 0.09375
vt 0.96875 0.09375
o Body
usemtl wi_paint
v -0.0459 0.1000 0.1109
v -0.1109 0.1000 0.0459
v -0.0647 0.4000 0.0268
v -0.0268 0.4000 0.0647
f 4/1 3/1 2/1 1/1
v -0.1109 0.1000 0.0459
v -0.1109 0.1000 -0.0459
v -0.0647 0.4000 -0.0268
v -0.0647 0.4000 0.0268
f 8/1 7/1 6/1 5/1
v -0.1109 0.1000 -0.0459
v -0.0459 0.1000 -0.1109
v -0.0268 0.4000 -0.0647
v -0.0647 0.4000 -0.0268
f 12/1 11/1 10/1 9/1
v -0.0459 0.1000 -0.1109
v 0.0459 0.1000 -0.1109
v 0.0268 0.4000 -0.0647
v -0.0268 0.4000 -0.0647
f 16/1 15/1 14/1 13/1
v 0.0459 0.1000 -0.1109
v 0.1109 0.1000 -0.0459
v 0.0647 0.4000 -0.0268
v 0.0268 0.4000 -0.0647
f 20/1 19/1 18/1 17/1
v 0.1109 0.1000 -0.0459
v 0.1109 0.1000 0.0459
v 0.0647 0.4000 0.0268
v 0.0647 0.4000 -0.0268
f 24/1 23/1 22/1 21/1
v 0.1109 0.1000 0.0459
v 0.0459 0.1000 0.1109
v 0.0268 0.4000 0.0647
v 0.0647 0.4000 0.0268
f 28/1 27/1 26/1 25/1
v 0.0459 0.1000 0.1109
v -0.0459 0.1000 0.1109
v -0.0268 0.4000 0.0647
v 0.0268 0.4000 0.0647
f 32/1 31/1 30/1 29/1
v 0.0459 0.1000 0.1109
v 0.1109 0.1000 0.0459
v 0.1109 0.1000 -0.0459
v 0.0459 0.1000 -0.1109
v -0.0459 0.1000 -0.1109
v -0.1109 0.1000 -0.0459
v -0.1109 0.1000 0.0459
v -0.0459 0.1000 0.1109
f 40/1 39/1 38/1 37/1 36/1 35/1 34/1 33/1
v -0.0268 0.4000 0.0647
v -0.0647 0.4000 0.0268
v -0.0647 0.4000 -0.0268
v -0.0268 0.4000 -0.0647
v 0.0268 0.4000 -0.0647
v 0.0647 0.4000 -0.0268
v 0.0647 0.4000 0.0268
v 0.0268 0.4000 0.0647
f 48/1 47/1 46/1 45/1 44/1 43/1 42/1 41/1
v -0.0306 1.8500 0.0739
v -0.0739 1.8500 0.0306
v -0.0739 1.9700 0.0306
v -0.0306 1.9700 0.0739
f 52/1 51/1 50/1 49/1
v -0.0739 1.8500 0.0306
v -0.0739 1.8500 -0.0306
v -0.0739 1.9700 -0.0306
v -0.0739 1.9700 0.0306
f 56/1 55/1 54/1 53/1
v -0.0739 1.8500 -0.0306
v -0.0306 1.8500 -0.0739
v -0.0306 1.9700 -0.0739
v -0.0739 1.9700 -0.0306
f 60/1 59/1 58/1 57/1
v -0.0306 1.8500 -0.0739
v 0.0306 1.8500 -0.0739
v 0.0306 1.9700 -0.0739
v -0.0306 1.9700 -0.0739
f 64/1 63/1 62/1 61/1
v 0.0306 1.8500 -0.0739
v 0.0739 1.8500 -0.0306
v 0.0739 1.9700 -0.0306
v 0.0306 1.9700 -0.0739
f 68/1 67/1 66/1 65/1
v 0.0739 1.8500 -0.0306
v 0.0739 1.8500 0.0306
v 0.0739 1.9700 0.0306
v 0.0739 1.9700 -0.0306
f 72/1 71/1 70/1 69/1
v 0.0739 1.8500 0.0306
v 0.0306 1.8500 0.0739
v 0.0306 1.9700 0.0739
v 0.0739 1.9700 0.0306
f 76/1 75/1 74/1 73/1
v 0.0306 1.8500 0.0739
v -0.0306 1.8500 0.0739
v -0.0306 1.9700 0.0739
v 0.0306 1.9700 0.0739
f 80/1 79/1 78/1 77/1
v 0.0306 1.8500 0.0739
v 0.0739 1.8500 0.0306
v 0.0739 1.8500 -0.0306
v 0.0306 1.8500 -0.0739
v -0.0306 1.8500 -0.0739
v -0.0739 1.8500 -0.0306
v -0.0739 1.8500 0.0306
v -0.0306 1.8500 0.0739
f 88/1 87/1 86/1 85/1 84/1 83/1 82/1 81/1
v -0.0306 1.9700 0.0739
v -0.0739 1.9700 0.0306
v -0.0739 1.9700 -0.0306
v -0.0306 1.9700 -0.0739
v 0.0306 1.9700 -0.0739
v 0.0739 1.9700 -0.0306
v 0.0739 1.9700 0.0306
v 0.0306 1.9700 0.0739
f 96/1 95/1 94/1 93/1 92/1 91/1 90/1 89/1
v -0.3091 2.3328 -0.0700
v -0.2263 2.4763 -0.0700
v -0.2263 2.4763 0.0700
v -0.3091 2.3328 0.0700
f 100/1 99/1 98/1 97/1
v -0.2263 2.4763 -0.0700
v -0.0828 2.5591 -0.0700
v -0.0828 2.5591 0.0700
v -0.2263 2.4763 0.0700
f 104/1 103/1 102/1 101/1
v -0.0828 2.5591 -0.0700
v 0.0828 2.5591 -0.0700
v 0.0828 2.5591 0.0700
v -0.0828 2.5591 0.0700
f 108/1 107/1 106/1 105/1
v 0.0828 2.5591 -0.0700
v 0.2263 2.4763 -0.0700
v 0.2263 2.4763 0.0700
v 0.0828 2.5591 0.0700
f 112/1 111/1 110/1 109/1
v 0.2263 2.4763 -0.0700
v 0.3091 2.3328 -0.0700
v 0.3091 2.3328 0.0700
v 0.2263 2.4763 0.0700
f 116/1 115/1 114/1 113/1
v 0.3091 2.3328 -0.0700
v 0.3091 2.1672 -0.0700
v 0.3091 2.1672 0.0700
v 0.3091 2.3328 0.0700
f 120/1 119/1 118/1 117/1
v 0.3091 2.1672 -0.0700
v 0.2263 2.0237 -0.0700
v 0.2263 2.0237 0.0700
v 0.3091 2.1672 0.0700
f 124/1 123/1 122/1 121/1
v 0.2263 2.0237 -0.0700
v 0.0828 1.9409 -0.0700
v 0.0828 1.9409 0.0700
v 0.2263 2.0237 0.0700
f 128/1 127/1 126/1 125/1
v 0.0828 1.9409 -0.0700
v -0.0828 1.9409 -0.0700
v -0.0828 1.9409 0.0700
v 0.0828 1.9409 0.0700
f 132/1 131/1 130/1 129/1
v -0.0828 1.9409 -0.0700
v -0.2263 2.0237 -0.0700
v -0.2263 2.0237 0.0700
v -0.0828 1.9409 0.0700
f 136/1 135/1 134/1 133/1
v -0.2263 2.0237 -0.0700
v -0.3091 2.1672 -0.0700
v -0.3091 2.1672 0.0700
v -0.2263 2.0237 0.0700
f 140/1 139/1 138/1 137/1
v -0.3091 2.1672 -0.0700
v -0.3091 2.3328 -0.0700
v -0.3091 2.3328 0.0700
v -0.3091 2.1672 0.0700
f 144/1 143/1 142/1 141/1
v -0.3091 2.1672 -0.0700
v -0.2263 2.0237 -0.0700
v -0.0828 1.9409 -0.0700
v 0.0828 1.9409 -0.0700
v 0.2263 2.0237 -0.0700
v 0.3091 2.1672 -0.0700
v 0.3091 2.3328 -0.0700
v 0.2263 2.4763 -0.0700
v 0.0828 2.5591 -0.0700
v -0.0828 2.5591 -0.0700
v -0.2263 2.4763 -0.0700
v -0.3091 2.3328 -0.0700
f 156/1 155/1 154/1 153/1 152/1 151/1 150/1 149/1 148/1 147/1 146/1 145/1
v -0.3091 2.3328 0.0700
v -0.2263 2.4763 0.0700
v -0.0828 2.5591 0.0700
v 0.0828 2.5591 0.0700
v 0.2263 2.4763 0.0700
v 0.3091 2.3328 0.0700
v 0.3091 2.1672 0.0700
v 0.2263 2.0237 0.0700
v 0.0828 1.9409 0.0700
v -0.0828 1.9409 0.0700
v -0.2263 2.0237 0.0700
v -0.3091 2.1672 0.0700
f 168/1 167/1 166/1 165/1 164/1 163/1 162/1 161/1 160/1 159/1 158/1 157/1
usemtl wi_palette
v -0.0765 0.0000 0.1848
v -0.1848 0.0000 0.0765
v -0.1848 0.1000 0.0765
v -0.0765 0.1000 0.1848
f 172/6 171/6 170/6 169/6
v -0.1848 0.0000 0.0765
v -0.1848 0.0000 -0.0765
v -0.1848 0.1000 -0.0765
v -0.1848 0.1000 0.0765
f 176/6 175/6 174/6 173/6
v -0.1848 0.0000 -0.0765
v -0.0765 0.0000 -0.1848
v -0.0765 0.1000 -0.1848
v -0.1848 0.1000 -0.0765
f 180/6 179/6 178/6 177/6
v -0.0765 0.0000 -0.1848
v 0.0765 0.0000 -0.1848
v 0.0765 0.1000 -0.1848
v -0.0765 0.1000 -0.1848
f 184/6 183/6 182/6 181/6
v 0.0765 0.0000 -0.1848
v 0.1848 0.0000 -0.0765
v 0.1848 0.1000 -0.0765
v 0.0765 0.1000 -0.1848
f 188/6 187/6 186/6 185/6
v 0.1848 0.0000 -0.0765
v 0.1848 0.0000 0.0765
v 0.1848 0.1000 0.0765
v 0.1848 0.1000 -0.0765
f 192/6 191/6 190/6 189/6
v 0.1848 0.0000 0.0765
v 0.0765 0.0000 0.1848
v 0.0765 0.1000 0.1848
v 0.1848 0.1000 0.0765
f 196/6 195/6 194/6 193/6
v 0.0765 0.0000 0.1848
v -0.0765 0.0000 0.1848
v -0.0765 0.1000 0.1848
v 0.0765 0.1000 0.1848
f 200/6 199/6 198/6 197/6
v 0.0765 0.0000 0.1848
v 0.1848 0.0000 0.0765
v 0.1848 0.0000 -0.0765
v 0.0765 0.0000 -0.1848
v -0.0765 0.0000 -0.1848
v -0.1848 0.0000 -0.0765
v -0.1848 0.0000 0.0765
v -0.0765 0.0000 0.1848
f 208/6 207/6 206/6 205/6 204/6 203/6 202/6 201/6
v -0.0765 0.1000 0.1848
v -0.1848 0.1000 0.0765
v -0.1848 0.1000 -0.0765
v -0.0765 0.1000 -0.1848
v 0.0765 0.1000 -0.1848
v 0.1848 0.1000 -0.0765
v 0.1848 0.1000 0.0765
v 0.0765 0.1000 0.1848
f 216/6 215/6 214/6 213/6 212/6 211/6 210/6 209/6
v -0.0191 0.4000 0.0462
v -0.0462 0.4000 0.0191
v -0.0462 1.9000 0.0191
v -0.0191 1.9000 0.0462
f 220/6 219/6 218/6 217/6
v -0.0462 0.4000 0.0191
v -0.0462 0.4000 -0.0191
v -0.0462 1.9000 -0.0191
v -0.0462 1.9000 0.0191
f 224/6 223/6 222/6 221/6
v -0.0462 0.4000 -0.0191
v -0.0191 0.4000 -0.0462
v -0.0191 1.9000 -0.0462
v -0.0462 1.9000 -0.0191
f 228/6 227/6 226/6 225/6
v -0.0191 0.4000 -0.0462
v 0.0191 0.4000 -0.0462
v 0.0191 1.9000 -0.0462
v -0.0191 1.9000 -0.0462
f 232/6 231/6 230/6 229/6
v 0.0191 0.4000 -0.0462
v 0.0462 0.4000 -0.0191
v 0.0462 1.9000 -0.0191
v 0.0191 1.9000 -0.0462
f 236/6 235/6 234/6 233/6
v 0.0462 0.4000 -0.0191
v 0.0462 0.4000 0.0191
v 0.0462 1.9000 0.0191
v 0.0462 1.9000 -0.0191
f 240/6 239/6 238/6 237/6
v 0.0462 0.4000 0.0191
v 0.0191 0.4000 0.0462
v 0.0191 1.9000 0.0462
v 0.0462 1.9000 0.0191
f 244/6 243/6 242/6 241/6
v 0.0191 0.4000 0.0462
v -0.0191 0.4000 0.0462
v -0.0191 1.9000 0.0462
v 0.0191 1.9000 0.0462
f 248/6 247/6 246/6 245/6
v 0.0191 0.4000 0.0462
v 0.0462 0.4000 0.0191
v 0.0462 0.4000 -0.0191
v 0.0191 0.4000 -0.0462
v -0.0191 0.4000 -0.0462
v -0.0462 0.4000 -0.0191
v -0.0462 0.4000 0.0191
v -0.0191 0.4000 0.0462
f 256/6 255/6 254/6 253/6 252/6 251/6 250/6 249/6
v -0.0191 1.9000 0.0462
v -0.0462 1.9000 0.0191
v -0.0462 1.9000 -0.0191
v -0.0191 1.9000 -0.0462
v 0.0191 1.9000 -0.0462
v 0.0462 1.9000 -0.0191
v 0.0462 1.9000 0.0191
v 0.0191 1.9000 0.0462
f 264/6 263/6 262/6 261/6 260/6 259/6 258/6 257/6
v -0.2608 2.3199 -0.0750
v -0.1909 2.4409 -0.0750
v -0.1909 2.4409 0.0750
v -0.2608 2.3199 0.0750
f 268/31 267/31 266/31 265/31
v -0.1909 2.4409 -0.0750
v -0.0699 2.5108 -0.0750
v -0.0699 2.5108 0.0750
v -0.1909 2.4409 0.0750
f 272/31 271/31 270/31 269/31
v -0.0699 2.5108 -0.0750
v 0.0699 2.5108 -0.0750
v 0.0699 2.5108 0.0750
v -0.0699 2.5108 0.0750
f 276/31 275/31 274/31 273/31
v 0.0699 2.5108 -0.0750
v 0.1909 2.4409 -0.0750
v 0.1909 2.4409 0.0750
v 0.0699 2.5108 0.0750
f 280/31 279/31 278/31 277/31
v 0.1909 2.4409 -0.0750
v 0.2608 2.3199 -0.0750
v 0.2608 2.3199 0.0750
v 0.1909 2.4409 0.0750
f 284/31 283/31 282/31 281/31
v 0.2608 2.3199 -0.0750
v 0.2608 2.1801 -0.0750
v 0.2608 2.1801 0.0750
v 0.2608 2.3199 0.0750
f 288/31 287/31 286/31 285/31
v 0.2608 2.1801 -0.0750
v 0.1909 2.0591 -0.0750
v 0.1909 2.0591 0.0750
v 0.2608 2.1801 0.0750
f 292/31 291/31 290/31 289/31
v 0.1909 2.0591 -0.0750
v 0.0699 1.9892 -0.0750
v 0.0699 1.9892 0.0750
v 0.1909 2.0591 0.0750
f 296/31 295/31 294/31 293/31
v 0.0699 1.9892 -0.0750
v -0.0699 1.9892 -0.0750
v -0.0699 1.9892 0.0750
v 0.0699 1.9892 0.0750
f 300/31 299/31 298/31 297/31
v -0.0699 1.9892 -0.0750
v -0.1909 2.0591 -0.0750
v -0.1909 2.0591 0.0750
v -0.0699 1.9892 0.0750
f 304/31 303/31 302/31 301/31
v -0.1909 2.0591 -0.0750
v -0.2608 2.1801 -0.0750
v -0.2608 2.1801 0.0750
v -0.1909 2.0591 0.0750
f 308/31 307/31 306/31 305/31
v -0.2608 2.1801 -0.0750
v -0.2608 2.3199 -0.0750
v -0.2608 2.3199 0.0750
v -0.2608 2.1801 0.0750
f 312/31 311/31 310/31 309/31
v -0.2608 2.1801 -0.0750
v -0.1909 2.0591 -0.0750
v -0.0699 1.9892 -0.0750
v 0.0699 1.9892 -0.0750
v 0.1909 2.0591 -0.0750
v 0.2608 2.1801 -0.0750
v 0.2608 2.3199 -0.0750
v 0.1909 2.4409 -0.0750
v 0.0699 2.5108 -0.0750
v -0.0699 2.5108 -0.0750
v -0.1909 2.4409 -0.0750
v -0.2608 2.3199 -0.0750
f 324/31 323/31 322/31 321/31 320/31 319/31 318/31 317/31 316/31 315/31 314/31 313/31
v -0.2608 2.3199 0.0750
v -0.1909 2.4409 0.0750
v -0.0699 2.5108 0.0750
v 0.0699 2.5108 0.0750
v 0.1909 2.4409 0.0750
v 0.2608 2.3199 0.0750
v 0.2608 2.1801 0.0750
v 0.1909 2.0591 0.0750
v 0.0699 1.9892 0.0750
v -0.0699 1.9892 0.0750
v -0.1909 2.0591 0.0750
v -0.2608 2.1801 0.0750
f 336/31 335/31 334/31 333/31 332/31 331/31 330/31 329/31 328/31 327/31 326/31 325/31
v 0.0090 2.4400 0.0800
v 0.0090 2.5000 0.0800
v 0.0090 2.5000 0.0760
v 0.0090 2.4400 0.0760
f 340/6 339/6 338/6 337/6
v -0.0090 2.4400 0.0760
v -0.0090 2.5000 0.0760
v -0.0090 2.5000 0.0800
v -0.0090 2.4400 0.0800
f 344/6 343/6 342/6 341/6
v 0.0090 2.4400 0.0760
v -0.0090 2.4400 0.0760
v -0.0090 2.4400 0.0800
v 0.0090 2.4400 0.0800
f 348/6 347/6 346/6 345/6
v 0.0090 2.5000 0.0800
v -0.0090 2.5000 0.0800
v -0.0090 2.5000 0.0760
v 0.0090 2.5000 0.0760
f 352/6 351/6 350/6 349/6
v 0.0090 2.5000 0.0760
v -0.0090 2.5000 0.0760
v -0.0090 2.4400 0.0760
v 0.0090 2.4400 0.0760
f 356/6 355/6 354/6 353/6
v 0.0090 2.4400 0.0800
v -0.0090 2.4400 0.0800
v -0.0090 2.5000 0.0800
v 0.0090 2.5000 0.0800
f 360/6 359/6 358/6 357/6
v 0.0090 2.4400 -0.0760
v 0.0090 2.5000 -0.0760
v 0.0090 2.5000 -0.0800
v 0.0090 2.4400 -0.0800
f 364/6 363/6 362/6 361/6
v -0.0090 2.4400 -0.0800
v -0.0090 2.5000 -0.0800
v -0.0090 2.5000 -0.0760
v -0.0090 2.4400 -0.0760
f 368/6 367/6 366/6 365/6
v 0.0090 2.4400 -0.0800
v -0.0090 2.4400 -0.0800
v -0.0090 2.4400 -0.0760
v 0.0090 2.4400 -0.0760
f 372/6 371/6 370/6 369/6
v 0.0090 2.5000 -0.0760
v -0.0090 2.5000 -0.0760
v -0.0090 2.5000 -0.0800
v 0.0090 2.5000 -0.0800
f 376/6 375/6 374/6 373/6
v 0.0090 2.5000 -0.0800
v -0.0090 2.5000 -0.0800
v -0.0090 2.4400 -0.0800
v 0.0090 2.4400 -0.0800
f 380/6 379/6 378/6 377/6
v 0.0090 2.4400 -0.0760
v -0.0090 2.4400 -0.0760
v -0.0090 2.5000 -0.0760
v 0.0090 2.5000 -0.0760
f 384/6 383/6 382/6 381/6
v -0.0947 2.4320 0.0800
v -0.1097 2.4580 0.0800
v -0.1097 2.4580 0.0760
v -0.0947 2.4320 0.0760
f 388/6 387/6 386/6 385/6
v -0.1103 2.4230 0.0760
v -0.1253 2.4490 0.0760
v -0.1253 2.4490 0.0800
v -0.1103 2.4230 0.0800
f 392/6 391/6 390/6 389/6
v -0.0947 2.4320 0.0760
v -0.1103 2.4230 0.0760
v -0.1103 2.4230 0.0800
v -0.0947 2.4320 0.0800
f 396/6 395/6 394/6 393/6
v -0.1097 2.4580 0.0800
v -0.1253 2.4490 0.0800
v -0.1253 2.4490 0.0760
v -0.1097 2.4580 0.0760
f 400/6 399/6 398/6 397/6
v -0.1097 2.4580 0.0760
v -0.1253 2.4490 0.0760
v -0.1103 2.4230 0.0760
v -0.0947 2.4320 0.0760
f 404/6 403/6 402/6 401/6
v -0.0947 2.4320 0.0800
v -0.1103 2.4230 0.0800
v -0.1253 2.4490 0.0800
v -0.1097 2.4580 0.0800
f 408/6 407/6 406/6 405/6
v -0.0947 2.4320 -0.0760
v -0.1097 2.4580 -0.0760
v -0.1097 2.4580 -0.0800
v -0.0947 2.4320 -0.0800
f 412/6 411/6 410/6 409/6
v -0.1103 2.4230 -0.0800
v -0.1253 2.4490 -0.0800
v -0.1253 2.4490 -0.0760
v -0.1103 2.4230 -0.0760
f 416/6 415/6 414/6 413/6
v -0.0947 2.4320 -0.0800
v -0.1103 2.4230 -0.0800
v -0.1103 2.4230 -0.0760
v -0.0947 2.4320 -0.0760
f 420/6 419/6 418/6 417/6
v -0.1097 2.4580 -0.0760
v -0.1253 2.4490 -0.0760
v -0.1253 2.4490 -0.0800
v -0.1097 2.4580 -0.0800
f 424/6 423/6 422/6 421/6
v -0.1097 2.4580 -0.0800
v -0.1253 2.4490 -0.0800
v -0.1103 2.4230 -0.0800
v -0.0947 2.4320 -0.0800
f 428/6 427/6 426/6 425/6
v -0.0947 2.4320 -0.0760
v -0.1103 2.4230 -0.0760
v -0.1253 2.4490 -0.0760
v -0.1097 2.4580 -0.0760
f 432/6 431/6 430/6 429/6
v -0.1730 2.3603 0.0800
v -0.1990 2.3753 0.0800
v -0.1990 2.3753 0.0760
v -0.1730 2.3603 0.0760
f 436/6 435/6 434/6 433/6
v -0.1820 2.3447 0.0760
v -0.2080 2.3597 0.0760
v -0.2080 2.3597 0.0800
v -0.1820 2.3447 0.0800
f 440/6 439/6 438/6 437/6
v -0.1730 2.3603 0.0760
v -0.1820 2.3447 0.0760
v -0.1820 2.3447 0.0800
v -0.1730 2.3603 0.0800
f 444/6 443/6 442/6 441/6
v -0.1990 2.3753 0.0800
v -0.2080 2.3597 0.0800
v -0.2080 2.3597 0.0760
v -0.1990 2.3753 0.0760
f 448/6 447/6 446/6 445/6
v -0.1990 2.3753 0.0760
v -0.2080 2.3597 0.0760
v -0.1820 2.3447 0.0760
v -0.1730 2.3603 0.0760
f 452/6 451/6 450/6 449/6
v -0.1730 2.3603 0.0800
v -0.1820 2.3447 0.0800
v -0.2080 2.3597 0.0800
v -0.1990 2.3753 0.0800
f 456/6 455/6 454/6 453/6
v -0.1730 2.3603 -0.0760
v -0.1990 2.3753 -0.0760
v -0.1990 2.3753 -0.0800
v -0.1730 2.3603 -0.0800
f 460/6 459/6 458/6 457/6
v -0.1820 2.3447 -0.0800
v -0.2080 2.3597 -0.0800
v -0.2080 2.3597 -0.0760
v -0.1820 2.3447 -0.0760
f 464/6 463/6 462/6 461/6
v -0.1730 2.3603 -0.0800
v -0.1820 2.3447 -0.0800
v -0.1820 2.3447 -0.0760
v -0.1730 2.3603 -0.0760
f 468/6 467/6 466/6 465/6
v -0.1990 2.3753 -0.0760
v -0.2080 2.3597 -0.0760
v -0.2080 2.3597 -0.0800
v -0.1990 2.3753 -0.0800
f 472/6 471/6 470/6 469/6
v -0.1990 2.3753 -0.0800
v -0.2080 2.3597 -0.0800
v -0.1820 2.3447 -0.0800
v -0.1730 2.3603 -0.0800
f 476/6 475/6 474/6 473/6
v -0.1730 2.3603 -0.0760
v -0.1820 2.3447 -0.0760
v -0.2080 2.3597 -0.0760
v -0.1990 2.3753 -0.0760
f 480/6 479/6 478/6 477/6
v -0.1900 2.2590 0.0800
v -0.2500 2.2590 0.0800
v -0.2500 2.2590 0.0760
v -0.1900 2.2590 0.0760
f 484/6 483/6 482/6 481/6
v -0.1900 2.2410 0.0760
v -0.2500 2.2410 0.0760
v -0.2500 2.2410 0.0800
v -0.1900 2.2410 0.0800
f 488/6 487/6 486/6 485/6
v -0.1900 2.2590 0.0760
v -0.1900 2.2410 0.0760
v -0.1900 2.2410 0.0800
v -0.1900 2.2590 0.0800
f 492/6 491/6 490/6 489/6
v -0.2500 2.2590 0.0800
v -0.2500 2.2410 0.0800
v -0.2500 2.2410 0.0760
v -0.2500 2.2590 0.0760
f 496/6 495/6 494/6 493/6
v -0.2500 2.2590 0.0760
v -0.2500 2.2410 0.0760
v -0.1900 2.2410 0.0760
v -0.1900 2.2590 0.0760
f 500/6 499/6 498/6 497/6
v -0.1900 2.2590 0.0800
v -0.1900 2.2410 0.0800
v -0.2500 2.2410 0.0800
v -0.2500 2.2590 0.0800
f 504/6 503/6 502/6 501/6
v -0.1900 2.2590 -0.0760
v -0.2500 2.2590 -0.0760
v -0.2500 2.2590 -0.0800
v -0.1900 2.2590 -0.0800
f 508/6 507/6 506/6 505/6
v -0.1900 2.2410 -0.0800
v -0.2500 2.2410 -0.0800
v -0.2500 2.2410 -0.0760
v -0.1900 2.2410 -0.0760
f 512/6 511/6 510/6 509/6
v -0.1900 2.2590 -0.0800
v -0.1900 2.2410 -0.0800
v -0.1900 2.2410 -0.0760
v -0.1900 2.2590 -0.0760
f 516/6 515/6 514/6 513/6
v -0.2500 2.2590 -0.0760
v -0.2500 2.2410 -0.0760
v -0.2500 2.2410 -0.0800
v -0.2500 2.2590 -0.0800
f 520/6 519/6 518/6 517/6
v -0.2500 2.2590 -0.0800
v -0.2500 2.2410 -0.0800
v -0.1900 2.2410 -0.0800
v -0.1900 2.2590 -0.0800
f 524/6 523/6 522/6 521/6
v -0.1900 2.2590 -0.0760
v -0.1900 2.2410 -0.0760
v -0.2500 2.2410 -0.0760
v -0.2500 2.2590 -0.0760
f 528/6 527/6 526/6 525/6
v -0.1820 2.1553 0.0800
v -0.2080 2.1403 0.0800
v -0.2080 2.1403 0.0760
v -0.1820 2.1553 0.0760
f 532/6 531/6 530/6 529/6
v -0.1730 2.1397 0.0760
v -0.1990 2.1247 0.0760
v -0.1990 2.1247 0.0800
v -0.1730 2.1397 0.0800
f 536/6 535/6 534/6 533/6
v -0.1820 2.1553 0.0760
v -0.1730 2.1397 0.0760
v -0.1730 2.1397 0.0800
v -0.1820 2.1553 0.0800
f 540/6 539/6 538/6 537/6
v -0.2080 2.1403 0.0800
v -0.1990 2.1247 0.0800
v -0.1990 2.1247 0.0760
v -0.2080 2.1403 0.0760
f 544/6 543/6 542/6 541/6
v -0.2080 2.1403 0.0760
v -0.1990 2.1247 0.0760
v -0.1730 2.1397 0.0760
v -0.1820 2.1553 0.0760
f 548/6 547/6 546/6 545/6
v -0.1820 2.1553 0.0800
v -0.1730 2.1397 0.0800
v -0.1990 2.1247 0.0800
v -0.2080 2.1403 0.0800
f 552/6 551/6 550/6 549/6
v -0.1820 2.1553 -0.0760
v -0.2080 2.1403 -0.0760
v -0.2080 2.1403 -0.0800
v -0.1820 2.1553 -0.0800
f 556/6 555/6 554/6 553/6
v -0.1730 2.1397 -0.0800
v -0.1990 2.1247 -0.0800
v -0.1990 2.1247 -0.0760
v -0.1730 2.1397 -0.0760
f 560/6 559/6 558/6 557/6
v -0.1820 2.1553 -0.0800
v -0.1730 2.1397 -0.0800
v -0.1730 2.1397 -0.0760
v -0.1820 2.1553 -0.0760
f 564/6 563/6 562/6 561/6
v -0.2080 2.1403 -0.0760
v -0.1990 2.1247 -0.0760
v -0.1990 2.1247 -0.0800
v -0.2080 2.1403 -0.0800
f 568/6 567/6 566/6 565/6
v -0.2080 2.1403 -0.0800
v -0.1990 2.1247 -0.0800
v -0.1730 2.1397 -0.0800
v -0.1820 2.1553 -0.0800
f 572/6 571/6 570/6 569/6
v -0.1820 2.1553 -0.0760
v -0.1730 2.1397 -0.0760
v -0.1990 2.1247 -0.0760
v -0.2080 2.1403 -0.0760
f 576/6 575/6 574/6 573/6
v -0.1103 2.0770 0.0800
v -0.1253 2.0510 0.0800
v -0.1253 2.0510 0.0760
v -0.1103 2.0770 0.0760
f 580/6 579/6 578/6 577/6
v -0.0947 2.0680 0.0760
v -0.1097 2.0420 0.0760
v -0.1097 2.0420 0.0800
v -0.0947 2.0680 0.0800
f 584/6 583/6 582/6 581/6
v -0.1103 2.0770 0.0760
v -0.0947 2.0680 0.0760
v -0.0947 2.0680 0.0800
v -0.1103 2.0770 0.0800
f 588/6 587/6 586/6 585/6
v -0.1253 2.0510 0.0800
v -0.1097 2.0420 0.0800
v -0.1097 2.0420 0.0760
v -0.1253 2.0510 0.0760
f 592/6 591/6 590/6 589/6
v -0.1253 2.0510 0.0760
v -0.1097 2.0420 0.0760
v -0.0947 2.0680 0.0760
v -0.1103 2.0770 0.0760
f 596/6 595/6 594/6 593/6
v -0.1103 2.0770 0.0800
v -0.0947 2.0680 0.0800
v -0.1097 2.0420 0.0800
v -0.1253 2.0510 0.0800
f 600/6 599/6 598/6 597/6
v -0.1103 2.0770 -0.0760
v -0.1253 2.0510 -0.0760
v -0.1253 2.0510 -0.0800
v -0.1103 2.0770 -0.0800
f 604/6 603/6 602/6 601/6
v -0.0947 2.0680 -0.0800
v -0.1097 2.0420 -0.0800
v -0.1097 2.0420 -0.0760
v -0.0947 2.0680 -0.0760
f 608/6 607/6 606/6 605/6
v -0.1103 2.0770 -0.0800
v -0.0947 2.0680 -0.0800
v -0.0947 2.0680 -0.0760
v -0.1103 2.0770 -0.0760
f 612/6 611/6 610/6 609/6
v -0.1253 2.0510 -0.0760
v -0.1097 2.0420 -0.0760
v -0.1097 2.0420 -0.0800
v -0.1253 2.0510 -0.0800
f 616/6 615/6 614/6 613/6
v -0.1253 2.0510 -0.0800
v -0.1097 2.0420 -0.0800
v -0.0947 2.0680 -0.0800
v -0.1103 2.0770 -0.0800
f 620/6 619/6 618/6 617/6
v -0.1103 2.0770 -0.0760
v -0.0947 2.0680 -0.0760
v -0.1097 2.0420 -0.0760
v -0.1253 2.0510 -0.0760
f 624/6 623/6 622/6 621/6
v -0.0090 2.0600 0.0800
v -0.0090 2.0000 0.0800
v -0.0090 2.0000 0.0760
v -0.0090 2.0600 0.0760
f 628/6 627/6 626/6 625/6
v 0.0090 2.0600 0.0760
v 0.0090 2.0000 0.0760
v 0.0090 2.0000 0.0800
v 0.0090 2.0600 0.0800
f 632/6 631/6 630/6 629/6
v -0.0090 2.0600 0.0760
v 0.0090 2.0600 0.0760
v 0.0090 2.0600 0.0800
v -0.0090 2.0600 0.0800
f 636/6 635/6 634/6 633/6
v -0.0090 2.0000 0.0800
v 0.0090 2.0000 0.0800
v 0.0090 2.0000 0.0760
v -0.0090 2.0000 0.0760
f 640/6 639/6 638/6 637/6
v -0.0090 2.0000 0.0760
v 0.0090 2.0000 0.0760
v 0.0090 2.0600 0.0760
v -0.0090 2.0600 0.0760
f 644/6 643/6 642/6 641/6
v -0.0090 2.0600 0.0800
v 0.0090 2.0600 0.0800
v 0.0090 2.0000 0.0800
v -0.0090 2.0000 0.0800
f 648/6 647/6 646/6 645/6
v -0.0090 2.0600 -0.0760
v -0.0090 2.0000 -0.0760
v -0.0090 2.0000 -0.0800
v -0.0090 2.0600 -0.0800
f 652/6 651/6 650/6 649/6
v 0.0090 2.0600 -0.0800
v 0.0090 2.0000 -0.0800
v 0.0090 2.0000 -0.0760
v 0.0090 2.0600 -0.0760
f 656/6 655/6 654/6 653/6
v -0.0090 2.0600 -0.0800
v 0.0090 2.0600 -0.0800
v 0.0090 2.0600 -0.0760
v -0.0090 2.0600 -0.0760
f 660/6 659/6 658/6 657/6
v -0.0090 2.0000 -0.0760
v 0.0090 2.0000 -0.0760
v 0.0090 2.0000 -0.0800
v -0.0090 2.0000 -0.0800
f 664/6 663/6 662/6 661/6
v -0.0090 2.0000 -0.0800
v 0.0090 2.0000 -0.0800
v 0.0090 2.0600 -0.0800
v -0.0090 2.0600 -0.0800
f 668/6 667/6 666/6 665/6
v -0.0090 2.0600 -0.0760
v 0.0090 2.0600 -0.0760
v 0.0090 2.0000 -0.0760
v -0.0090 2.0000 -0.0760
f 672/6 671/6 670/6 669/6
v 0.0947 2.0680 0.0800
v 0.1097 2.0420 0.0800
v 0.1097 2.0420 0.0760
v 0.0947 2.0680 0.0760
f 676/6 675/6 674/6 673/6
v 0.1103 2.0770 0.0760
v 0.1253 2.0510 0.0760
v 0.1253 2.0510 0.0800
v 0.1103 2.0770 0.0800
f 680/6 679/6 678/6 677/6
v 0.0947 2.0680 0.0760
v 0.1103 2.0770 0.0760
v 0.1103 2.0770 0.0800
v 0.0947 2.0680 0.0800
f 684/6 683/6 682/6 681/6
v 0.1097 2.0420 0.0800
v 0.1253 2.0510 0.0800
v 0.1253 2.0510 0.0760
v 0.1097 2.0420 0.0760
f 688/6 687/6 686/6 685/6
v 0.1097 2.0420 0.0760
v 0.1253 2.0510 0.0760
v 0.1103 2.0770 0.0760
v 0.0947 2.0680 0.0760
f 692/6 691/6 690/6 689/6
v 0.0947 2.0680 0.0800
v 0.1103 2.0770 0.0800
v 0.1253 2.0510 0.0800
v 0.1097 2.0420 0.0800
f 696/6 695/6 694/6 693/6
v 0.0947 2.0680 -0.0760
v 0.1097 2.0420 -0.0760
v 0.1097 2.0420 -0.0800
v 0.0947 2.0680 -0.0800
f 700/6 699/6 698/6 697/6
v 0.1103 2.0770 -0.0800
v 0.1253 2.0510 -0.0800
v 0.1253 2.0510 -0.0760
v 0.1103 2.0770 -0.0760
f 704/6 703/6 702/6 701/6
v 0.0947 2.0680 -0.0800
v 0.1103 2.0770 -0.0800
v 0.1103 2.0770 -0.0760
v 0.0947 2.0680 -0.0760
f 708/6 707/6 706/6 705/6
v 0.1097 2.0420 -0.0760
v 0.1253 2.0510 -0.0760
v 0.1253 2.0510 -0.0800
v 0.1097 2.0420 -0.0800
f 712/6 711/6 710/6 709/6
v 0.1097 2.0420 -0.0800
v 0.1253 2.0510 -0.0800
v 0.1103 2.0770 -0.0800
v 0.0947 2.0680 -0.0800
f 716/6 715/6 714/6 713/6
v 0.0947 2.0680 -0.0760
v 0.1103 2.0770 -0.0760
v 0.1253 2.0510 -0.0760
v 0.1097 2.0420 -0.0760
f 720/6 719/6 718/6 717/6
v 0.1730 2.1397 0.0800
v 0.1990 2.1247 0.0800
v 0.1990 2.1247 0.0760
v 0.1730 2.1397 0.0760
f 724/6 723/6 722/6 721/6
v 0.1820 2.1553 0.0760
v 0.2080 2.1403 0.0760
v 0.2080 2.1403 0.0800
v 0.1820 2.1553 0.0800
f 728/6 727/6 726/6 725/6
v 0.1730 2.1397 0.0760
v 0.1820 2.1553 0.0760
v 0.1820 2.1553 0.0800
v 0.1730 2.1397 0.0800
f 732/6 731/6 730/6 729/6
v 0.1990 2.1247 0.0800
v 0.2080 2.1403 0.0800
v 0.2080 2.1403 0.0760
v 0.1990 2.1247 0.0760
f 736/6 735/6 734/6 733/6
v 0.1990 2.1247 0.0760
v 0.2080 2.1403 0.0760
v 0.1820 2.1553 0.0760
v 0.1730 2.1397 0.0760
f 740/6 739/6 738/6 737/6
v 0.1730 2.1397 0.0800
v 0.1820 2.1553 0.0800
v 0.2080 2.1403 0.0800
v 0.1990 2.1247 0.0800
f 744/6 743/6 742/6 741/6
v 0.1730 2.1397 -0.0760
v 0.1990 2.1247 -0.0760
v 0.1990 2.1247 -0.0800
v 0.1730 2.1397 -0.0800
f 748/6 747/6 746/6 745/6
v 0.1820 2.1553 -0.0800
v 0.2080 2.1403 -0.0800
v 0.2080 2.1403 -0.0760
v 0.1820 2.1553 -0.0760
f 752/6 751/6 750/6 749/6
v 0.1730 2.1397 -0.0800
v 0.1820 2.1553 -0.0800
v 0.1820 2.1553 -0.0760
v 0.1730 2.1397 -0.0760
f 756/6 755/6 754/6 753/6
v 0.1990 2.1247 -0.0760
v 0.2080 2.1403 -0.0760
v 0.2080 2.1403 -0.0800
v 0.1990 2.1247 -0.0800
f 760/6 759/6 758/6 757/6
v 0.1990 2.1247 -0.0800
v 0.2080 2.1403 -0.0800
v 0.1820 2.1553 -0.0800
v 0.1730 2.1397 -0.0800
f 764/6 763/6 762/6 761/6
v 0.1730 2.1397 -0.0760
v 0.1820 2.1553 -0.0760
v 0.2080 2.1403 -0.0760
v 0.1990 2.1247 -0.0760
f 768/6 767/6 766/6 765/6
v 0.1900 2.2410 0.0800
v 0.2500 2.2410 0.0800
v 0.2500 2.2410 0.0760
v 0.1900 2.2410 0.0760
f 772/6 771/6 770/6 769/6
v 0.1900 2.2590 0.0760
v 0.2500 2.2590 0.0760
v 0.2500 2.2590 0.0800
v 0.1900 2.2590 0.0800
f 776/6 775/6 774/6 773/6
v 0.1900 2.2410 0.0760
v 0.1900 2.2590 0.0760
v 0.1900 2.2590 0.0800
v 0.1900 2.2410 0.0800
f 780/6 779/6 778/6 777/6
v 0.2500 2.2410 0.0800
v 0.2500 2.2590 0.0800
v 0.2500 2.2590 0.0760
v 0.2500 2.2410 0.0760
f 784/6 783/6 782/6 781/6
v 0.2500 2.2410 0.0760
v 0.2500 2.2590 0.0760
v 0.1900 2.2590 0.0760
v 0.1900 2.2410 0.0760
f 788/6 787/6 786/6 785/6
v 0.1900 2.2410 0.0800
v 0.1900 2.2590 0.0800
v 0.2500 2.2590 0.0800
v 0.2500 2.2410 0.0800
f 792/6 791/6 790/6 789/6
v 0.1900 2.2410 -0.0760
v 0.2500 2.2410 -0.0760
v 0.2500 2.2410 -0.0800
v 0.1900 2.2410 -0.0800
f 796/6 795/6 794/6 793/6
v 0.1900 2.2590 -0.0800
v 0.2500 2.2590 -0.0800
v 0.2500 2.2590 -0.0760
v 0.1900 2.2590 -0.0760
f 800/6 799/6 798/6 797/6
v 0.1900 2.2410 -0.0800
v 0.1900 2.2590 -0.0800
v 0.1900 2.2590 -0.0760
v 0.1900 2.2410 -0.0760
f 804/6 803/6 802/6 801/6
v 0.2500 2.2410 -0.0760
v 0.2500 2.2590 -0.0760
v 0.2500 2.2590 -0.0800
v 0.2500 2.2410 -0.0800
f 808/6 807/6 806/6 805/6
v 0.2500 2.2410 -0.0800
v 0.2500 2.2590 -0.0800
v 0.1900 2.2590 -0.0800
v 0.1900 2.2410 -0.0800
f 812/6 811/6 810/6 809/6
v 0.1900 2.2410 -0.0760
v 0.1900 2.2590 -0.0760
v 0.2500 2.2590 -0.0760
v 0.2500 2.2410 -0.0760
f 816/6 815/6 814/6 813/6
v 0.1820 2.3447 0.0800
v 0.2080 2.3597 0.0800
v 0.2080 2.3597 0.0760
v 0.1820 2.3447 0.0760
f 820/6 819/6 818/6 817/6
v 0.1730 2.3603 0.0760
v 0.1990 2.3753 0.0760
v 0.1990 2.3753 0.0800
v 0.1730 2.3603 0.0800
f 824/6 823/6 822/6 821/6
v 0.1820 2.3447 0.0760
v 0.1730 2.3603 0.0760
v 0.1730 2.3603 0.0800
v 0.1820 2.3447 0.0800
f 828/6 827/6 826/6 825/6
v 0.2080 2.3597 0.0800
v 0.1990 2.3753 0.0800
v 0.1990 2.3753 0.0760
v 0.2080 2.3597 0.0760
f 832/6 831/6 830/6 829/6
v 0.2080 2.3597 0.0760
v 0.1990 2.3753 0.0760
v 0.1730 2.3603 0.0760
v 0.1820 2.3447 0.0760
f 836/6 835/6 834/6 833/6
v 0.1820 2.3447 0.0800
v 0.1730 2.3603 0.0800
v 0.1990 2.3753 0.0800
v 0.2080 2.3597 0.0800
f 840/6 839/6 838/6 837/6
v 0.1820 2.3447 -0.0760
v 0.2080 2.3597 -0.0760
v 0.2080 2.3597 -0.0800
v 0.1820 2.3447 -0.0800
f 844/6 843/6 842/6 841/6
v 0.1730 2.3603 -0.0800
v 0.1990 2.3753 -0.0800
v 0.1990 2.3753 -0.0760
v 0.1730 2.3603 -0.0760
f 848/6 847/6 846/6 845/6
v 0.1820 2.3447 -0.0800
v 0.1730 2.3603 -0.0800
v 0.1730 2.3603 -0.0760
v 0.1820 2.3447 -0.0760
f 852/6 851/6 850/6 849/6
v 0.2080 2.3597 -0.0760
v 0.1990 2.3753 -0.0760
v 0.1990 2.3753 -0.0800
v 0.2080 2.3597 -0.0800
f 856/6 855/6 854/6 853/6
v 0.2080 2.3597 -0.0800
v 0.1990 2.3753 -0.0800
v 0.1730 2.3603 -0.0800
v 0.1820 2.3447 -0.0800
f 860/6 859/6 858/6 857/6
v 0.1820 2.3447 -0.0760
v 0.1730 2.3603 -0.0760
v 0.1990 2.3753 -0.0760
v 0.2080 2.3597 -0.0760
f 864/6 863/6 862/6 861/6
v 0.1103 2.4230 0.0800
v 0.1253 2.4490 0.0800
v 0.1253 2.4490 0.0760
v 0.1103 2.4230 0.0760
f 868/6 867/6 866/6 865/6
v 0.0947 2.4320 0.0760
v 0.1097 2.4580 0.0760
v 0.1097 2.4580 0.0800
v 0.0947 2.4320 0.0800
f 872/6 871/6 870/6 869/6
v 0.1103 2.4230 0.0760
v 0.0947 2.4320 0.0760
v 0.0947 2.4320 0.0800
v 0.1103 2.4230 0.0800
f 876/6 875/6 874/6 873/6
v 0.1253 2.4490 0.0800
v 0.1097 2.4580 0.0800
v 0.1097 2.4580 0.0760
v 0.1253 2.4490 0.0760
f 880/6 879/6 878/6 877/6
v 0.1253 2.4490 0.0760
v 0.1097 2.4580 0.0760
v 0.0947 2.4320 0.0760
v 0.1103 2.4230 0.0760
f 884/6 883/6 882/6 881/6
v 0.1103 2.4230 0.0800
v 0.0947 2.4320 0.0800
v 0.1097 2.4580 0.0800
v 0.1253 2.4490 0.0800
f 888/6 887/6 886/6 885/6
v 0.1103 2.4230 -0.0760
v 0.1253 2.4490 -0.0760
v 0.1253 2.4490 -0.0800
v 0.1103 2.4230 -0.0800
f 892/6 891/6 890/6 889/6
v 0.0947 2.4320 -0.0800
v 0.1097 2.4580 -0.0800
v 0.1097 2.4580 -0.0760
v 0.0947 2.4320 -0.0760
f 896/6 895/6 894/6 893/6
v 0.1103 2.4230 -0.0800
v 0.0947 2.4320 -0.0800
v 0.0947 2.4320 -0.0760
v 0.1103 2.4230 -0.0760
f 900/6 899/6 898/6 897/6
v 0.1253 2.4490 -0.0760
v 0.1097 2.4580 -0.0760
v 0.1097 2.4580 -0.0800
v 0.1253 2.4490 -0.0800
f 904/6 903/6 902/6 901/6
v 0.1253 2.4490 -0.0800
v 0.1097 2.4580 -0.0800
v 0.0947 2.4320 -0.0800
v 0.1103 2.4230 -0.0800
f 908/6 907/6 906/6 905/6
v 0.1103 2.4230 -0.0760
v 0.0947 2.4320 -0.0760
v 0.1097 2.4580 -0.0760
v 0.1253 2.4490 -0.0760
f 912/6 911/6 910/6 909/6
v -0.0230 2.5700 0.0554
v -0.0554 2.5700 0.0230
v -0.0000 2.6500 0.0000
f 915/23 914/23 913/23
v -0.0554 2.5700 0.0230
v -0.0554 2.5700 -0.0230
v -0.0000 2.6500 0.0000
f 918/23 917/23 916/23
v -0.0554 2.5700 -0.0230
v -0.0230 2.5700 -0.0554
v -0.0000 2.6500 0.0000
f 921/23 920/23 919/23
v -0.0230 2.5700 -0.0554
v 0.0230 2.5700 -0.0554
v -0.0000 2.6500 0.0000
f 924/23 923/23 922/23
v 0.0230 2.5700 -0.0554
v 0.0554 2.5700 -0.0230
v -0.0000 2.6500 0.0000
f 927/23 926/23 925/23
v 0.0554 2.5700 -0.0230
v 0.0554 2.5700 0.0230
v -0.0000 2.6500 0.0000
f 930/23 929/23 928/23
v 0.0554 2.5700 0.0230
v 0.0230 2.5700 0.0554
v -0.0000 2.6500 0.0000
f 933/23 932/23 931/23
v 0.0230 2.5700 0.0554
v -0.0230 2.5700 0.0554
v -0.0000 2.6500 0.0000
f 936/23 935/23 934/23
v 0.0230 2.5700 0.0554
v 0.0554 2.5700 0.0230
v 0.0554 2.5700 -0.0230
v 0.0230 2.5700 -0.0554
v -0.0230 2.5700 -0.0554
v -0.0554 2.5700 -0.0230
v -0.0554 2.5700 0.0230
v -0.0230 2.5700 0.0554
f 944/23 943/23 942/23 941/23 940/23 939/23 938/23 937/23
