# Walk of Industry low-poly (generated, wi_lib.py)
mtllib wi.mtl
vt 0 0
vt 0.03125 0.03125
vt 0.09375 0.03125
vt 0.15625 0.03125
vt 0.21875 0.03125
vt 0.28125 0.03125
vt 0.34375 0.03125
vt 0.40625 0.03125
vt 0.46875 0.03125
vt 0.53125 0.03125
vt 0.59375 0.03125
vt 0.65625 0.03125
vt 0.71875 0.03125
vt 0.78125 0.03125
vt 0.84375 0.03125
vt 0.90625 0.03125
vt 0.96875 0.03125
vt 0.03125 0.09375
vt 0.09375 0.09375
vt 0.15625 0.09375
vt 0.21875 0.09375
vt 0.28125 0.09375
vt 0.34375 0.09375
vt 0.40625 0.09375
vt 0.46875 0.09375
vt 0.53125 0.09375
vt 0.59375 0.09375
vt 0.65625 0.09375
vt 0.71875 0.09375
vt 0.78125 0.09375
vt 0.84375 0.09375
vt 0.90625 0.09375
vt 0.96875 0.09375
o Body
usemtl wi_palette
v 0.4092 0.0000 0.4155
v 0.4092 0.0800 0.4155
v 0.3506 0.0800 -0.4225
v 0.3506 0.0000 -0.4225
f 4/9 3/9 2/9 1/9
v 0.2508 0.0000 -0.4155
v 0.2508 0.0800 -0.4155
v 0.3094 0.0800 0.4225
v 0.3094 0.0000 0.4225
f 8/9 7/9 6/9 5/9
v 0.3506 0.0000 -0.4225
v 0.2508 0.0000 -0.4155
v 0.3094 0.0000 0.4225
v 0.4092 0.0000 0.4155
f 12/9 11/9 10/9 9/9
v 0.4092 0.0800 0.4155
v 0.3094 0.0800 0.4225
v 0.2508 0.0800 -0.4155
v 0.3506 0.0800 -0.4225
f 16/9 15/9 14/9 13/9
v 0.3506 0.0800 -0.4225
v 0.2508 0.0800 -0.4155
v 0.2508 0.0000 -0.4155
v 0.3506 0.0000 -0.4225
f 20/9 19/9 18/9 17/9
v 0.4092 0.0000 0.4155
v 0.3094 0.0000 0.4225
v 0.3094 0.0800 0.4225
v 0.4092 0.0800 0.4155
f 24/9 23/9 22/9 21/9
v 0.0792 0.0000 0.4155
v 0.0792 0.0800 0.4155
v 0.0206 0.0800 -0.4225
v 0.0206 0.0000 -0.4225
f 28/9 27/9 26/9 25/9
v -0.0792 0.0000 -0.4155
v -0.0792 0.0800 -0.4155
v -0.0206 0.0800 0.4225
v -0.0206 0.0000 0.4225
f 32/9 31/9 30/9 29/9
v 0.0206 0.0000 -0.4225
v -0.0792 0.0000 -0.4155
v -0.0206 0.0000 0.4225
v 0.0792 0.0000 0.4155
f 36/9 35/9 34/9 33/9
v 0.0792 0.0800 0.4155
v -0.0206 0.0800 0.4225
v -0.0792 0.0800 -0.4155
v 0.0206 0.0800 -0.4225
f 40/9 39/9 38/9 37/9
v 0.0206 0.0800 -0.4225
v -0.0792 0.0800 -0.4155
v -0.0792 0.0000 -0.4155
v 0.0206 0.0000 -0.4225
f 44/9 43/9 42/9 41/9
v 0.0792 0.0000 0.4155
v -0.0206 0.0000 0.4225
v -0.0206 0.0800 0.4225
v 0.0792 0.0800 0.4155
f 48/9 47/9 46/9 45/9
v -0.2508 0.0000 0.4155
v -0.2508 0.0800 0.4155
v -0.3094 0.0800 -0.4225
v -0.3094 0.0000 -0.4225
f 52/9 51/9 50/9 49/9
v -0.4092 0.0000 -0.4155
v -0.4092 0.0800 -0.4155
v -0.3506 0.0800 0.4225
v -0.3506 0.0000 0.4225
f 56/9 55/9 54/9 53/9
v -0.3094 0.0000 -0.4225
v -0.4092 0.0000 -0.4155
v -0.3506 0.0000 0.4225
v -0.2508 0.0000 0.4155
f 60/9 59/9 58/9 57/9
v -0.2508 0.0800 0.4155
v -0.3506 0.0800 0.4225
v -0.4092 0.0800 -0.4155
v -0.3094 0.0800 -0.4225
f 64/9 63/9 62/9 61/9
v -0.3094 0.0800 -0.4225
v -0.4092 0.0800 -0.4155
v -0.4092 0.0000 -0.4155
v -0.3094 0.0000 -0.4225
f 68/9 67/9 66/9 65/9
v -0.2508 0.0000 0.4155
v -0.3506 0.0000 0.4225
v -0.3506 0.0800 0.4225
v -0.2508 0.0800 0.4155
f 72/9 71/9 70/9 69/9
v 0.4331 0.0875 -0.3301
v 0.4331 0.1125 -0.3301
v 0.4248 0.1125 -0.4498
v 0.4248 0.0875 -0.4498
f 76/22 75/22 74/22 73/22
v -0.4331 0.0875 -0.3899
v -0.4331 0.1125 -0.3899
v -0.4248 0.1125 -0.2702
v -0.4248 0.0875 -0.2702
f 80/22 79/22 78/22 77/22
v 0.4248 0.0875 -0.4498
v -0.4331 0.0875 -0.3899
v -0.4248 0.0875 -0.2702
v 0.4331 0.0875 -0.3301
f 84/22 83/22 82/22 81/22
v 0.4331 0.1125 -0.3301
v -0.4248 0.1125 -0.2702
v -0.4331 0.1125 -0.3899
v 0.4248 0.1125 -0.4498
f 88/22 87/22 86/22 85/22
v 0.4248 0.1125 -0.4498
v -0.4331 0.1125 -0.3899
v -0.4331 0.0875 -0.3899
v 0.4248 0.0875 -0.4498
f 92/22 91/22 90/22 89/22
v 0.4331 0.0875 -0.3301
v -0.4248 0.0875 -0.2702
v -0.4248 0.1125 -0.2702
v 0.4331 0.1125 -0.3301
f 96/22 95/22 94/22 93/22
v 0.4331 0.0875 -0.1501
v 0.4331 0.1125 -0.1501
v 0.4248 0.1125 -0.2698
v 0.4248 0.0875 -0.2698
f 100/22 99/22 98/22 97/22
v -0.4331 0.0875 -0.2099
v -0.4331 0.1125 -0.2099
v -0.4248 0.1125 -0.0902
v -0.4248 0.0875 -0.0902
f 104/22 103/22 102/22 101/22
v 0.4248 0.0875 -0.2698
v -0.4331 0.0875 -0.2099
v -0.4248 0.0875 -0.0902
v 0.4331 0.0875 -0.1501
f 108/22 107/22 106/22 105/22
v 0.4331 0.1125 -0.1501
v -0.4248 0.1125 -0.0902
v -0.4331 0.1125 -0.2099
v 0.4248 0.1125 -0.2698
f 112/22 111/22 110/22 109/22
v 0.4248 0.1125 -0.2698
v -0.4331 0.1125 -0.2099
v -0.4331 0.0875 -0.2099
v 0.4248 0.0875 -0.2698
f 116/22 115/22 114/22 113/22
v 0.4331 0.0875 -0.1501
v -0.4248 0.0875 -0.0902
v -0.4248 0.1125 -0.0902
v 0.4331 0.1125 -0.1501
f 120/22 119/22 118/22 117/22
v 0.4331 0.0875 0.0299
v 0.4331 0.1125 0.0299
v 0.4248 0.1125 -0.0898
v 0.4248 0.0875 -0.0898
f 124/22 123/22 122/22 121/22
v -0.4331 0.0875 -0.0299
v -0.4331 0.1125 -0.0299
v -0.4248 0.1125 0.0898
v -0.4248 0.0875 0.0898
f 128/22 127/22 126/22 125/22
v 0.4248 0.0875 -0.0898
v -0.4331 0.0875 -0.0299
v -0.4248 0.0875 0.0898
v 0.4331 0.0875 0.0299
f 132/22 131/22 130/22 129/22
v 0.4331 0.1125 0.0299
v -0.4248 0.1125 0.0898
v -0.4331 0.1125 -0.0299
v 0.4248 0.1125 -0.0898
f 136/22 135/22 134/22 133/22
v 0.4248 0.1125 -0.0898
v -0.4331 0.1125 -0.0299
v -0.4331 0.0875 -0.0299
v 0.4248 0.0875 -0.0898
f 140/22 139/22 138/22 137/22
v 0.4331 0.0875 0.0299
v -0.4248 0.0875 0.0898
v -0.4248 0.1125 0.0898
v 0.4331 0.1125 0.0299
f 144/22 143/22 142/22 141/22
v 0.4331 0.0875 0.2099
v 0.4331 0.1125 0.2099
v 0.4248 0.1125 0.0902
v 0.4248 0.0875 0.0902
f 148/22 147/22 146/22 145/22
v -0.4331 0.0875 0.1501
v -0.4331 0.1125 0.1501
v -0.4248 0.1125 0.2698
v -0.4248 0.0875 0.2698
f 152/22 151/22 150/22 149/22
v 0.4248 0.0875 0.0902
v -0.4331 0.0875 0.1501
v -0.4248 0.0875 0.2698
v 0.4331 0.0875 0.2099
f 156/22 155/22 154/22 153/22
v 0.4331 0.1125 0.2099
v -0.4248 0.1125 0.2698
v -0.4331 0.1125 0.1501
v 0.4248 0.1125 0.0902
f 160/22 159/22 158/22 157/22
v 0.4248 0.1125 0.0902
v -0.4331 0.1125 0.1501
v -0.4331 0.0875 0.1501
v 0.4248 0.0875 0.0902
f 164/22 163/22 162/22 161/22
v 0.4331 0.0875 0.2099
v -0.4248 0.0875 0.2698
v -0.4248 0.1125 0.2698
v 0.4331 0.1125 0.2099
f 168/22 167/22 166/22 165/22
v 0.4331 0.0875 0.3899
v 0.4331 0.1125 0.3899
v 0.4248 0.1125 0.2702
v 0.4248 0.0875 0.2702
f 172/22 171/22 170/22 169/22
v -0.4331 0.0875 0.3301
v -0.4331 0.1125 0.3301
v -0.4248 0.1125 0.4498
v -0.4248 0.0875 0.4498
f 176/22 175/22 174/22 173/22
v 0.4248 0.0875 0.2702
v -0.4331 0.0875 0.3301
v -0.4248 0.0875 0.4498
v 0.4331 0.0875 0.3899
f 180/22 179/22 178/22 177/22
v 0.4331 0.1125 0.3899
v -0.4248 0.1125 0.4498
v -0.4331 0.1125 0.3301
v 0.4248 0.1125 0.2702
f 184/22 183/22 182/22 181/22
v 0.4248 0.1125 0.2702
v -0.4331 0.1125 0.3301
v -0.4331 0.0875 0.3301
v 0.4248 0.0875 0.2702
f 188/22 187/22 186/22 185/22
v 0.4331 0.0875 0.3899
v -0.4248 0.0875 0.4498
v -0.4248 0.1125 0.4498
v 0.4331 0.1125 0.3899
f 192/22 191/22 190/22 189/22
v 0.3506 0.1150 0.4225
v 0.3506 0.1950 0.4225
v 0.4092 0.1950 -0.4155
v 0.4092 0.1150 -0.4155
f 196/9 195/9 194/9 193/9
v 0.3094 0.1150 -0.4225
v 0.3094 0.1950 -0.4225
v 0.2508 0.1950 0.4155
v 0.2508 0.1150 0.4155
f 200/9 199/9 198/9 197/9
v 0.4092 0.1150 -0.4155
v 0.3094 0.1150 -0.4225
v 0.2508 0.1150 0.4155
v 0.3506 0.1150 0.4225
f 204/9 203/9 202/9 201/9
v 0.3506 0.1950 0.4225
v 0.2508 0.1950 0.4155
v 0.3094 0.1950 -0.4225
v 0.4092 0.1950 -0.4155
f 208/9 207/9 206/9 205/9
v 0.4092 0.1950 -0.4155
v 0.3094 0.1950 -0.4225
v 0.3094 0.1150 -0.4225
v 0.4092 0.1150 -0.4155
f 212/9 211/9 210/9 209/9
v 0.3506 0.1150 0.4225
v 0.2508 0.1150 0.4155
v 0.2508 0.1950 0.4155
v 0.3506 0.1950 0.4225
f 216/9 215/9 214/9 213/9
v 0.0206 0.1150 0.4225
v 0.0206 0.1950 0.4225
v 0.0792 0.1950 -0.4155
v 0.0792 0.1150 -0.4155
f 220/9 219/9 218/9 217/9
v -0.0206 0.1150 -0.4225
v -0.0206 0.1950 -0.4225
v -0.0792 0.1950 0.4155
v -0.0792 0.1150 0.4155
f 224/9 223/9 222/9 221/9
v 0.0792 0.1150 -0.4155
v -0.0206 0.1150 -0.4225
v -0.0792 0.1150 0.4155
v 0.0206 0.1150 0.4225
f 228/9 227/9 226/9 225/9
v 0.0206 0.1950 0.4225
v -0.0792 0.1950 0.4155
v -0.0206 0.1950 -0.4225
v 0.0792 0.1950 -0.4155
f 232/9 231/9 230/9 229/9
v 0.0792 0.1950 -0.4155
v -0.0206 0.1950 -0.4225
v -0.0206 0.1150 -0.4225
v 0.0792 0.1150 -0.4155
f 236/9 235/9 234/9 233/9
v 0.0206 0.1150 0.4225
v -0.0792 0.1150 0.4155
v -0.0792 0.1950 0.4155
v 0.0206 0.1950 0.4225
f 240/9 239/9 238/9 237/9
v -0.3094 0.1150 0.4225
v -0.3094 0.1950 0.4225
v -0.2508 0.1950 -0.4155
v -0.2508 0.1150 -0.4155
f 244/9 243/9 242/9 241/9
v -0.3506 0.1150 -0.4225
v -0.3506 0.1950 -0.4225
v -0.4092 0.1950 0.4155
v -0.4092 0.1150 0.4155
f 248/9 247/9 246/9 245/9
v -0.2508 0.1150 -0.4155
v -0.3506 0.1150 -0.4225
v -0.4092 0.1150 0.4155
v -0.3094 0.1150 0.4225
f 252/9 251/9 250/9 249/9
v -0.3094 0.1950 0.4225
v -0.4092 0.1950 0.4155
v -0.3506 0.1950 -0.4225
v -0.2508 0.1950 -0.4155
f 256/9 255/9 254/9 253/9
v -0.2508 0.1950 -0.4155
v -0.3506 0.1950 -0.4225
v -0.3506 0.1150 -0.4225
v -0.2508 0.1150 -0.4155
f 260/9 259/9 258/9 257/9
v -0.3094 0.1150 0.4225
v -0.4092 0.1150 0.4155
v -0.4092 0.1950 0.4155
v -0.3094 0.1950 0.4225
f 264/9 263/9 262/9 261/9
v 0.4248 0.2025 -0.2702
v 0.4248 0.2275 -0.2702
v 0.4331 0.2275 -0.3899
v 0.4331 0.2025 -0.3899
f 268/22 267/22 266/22 265/22
v -0.4248 0.2025 -0.4498
v -0.4248 0.2275 -0.4498
v -0.4331 0.2275 -0.3301
v -0.4331 0.2025 -0.3301
f 272/22 271/22 270/22 269/22
v 0.4331 0.2025 -0.3899
v -0.4248 0.2025 -0.4498
v -0.4331 0.2025 -0.3301
v 0.4248 0.2025 -0.2702
f 276/22 275/22 274/22 273/22
v 0.4248 0.2275 -0.2702
v -0.4331 0.2275 -0.3301
v -0.4248 0.2275 -0.4498
v 0.4331 0.2275 -0.3899
f 280/22 279/22 278/22 277/22
v 0.4331 0.2275 -0.3899
v -0.4248 0.2275 -0.4498
v -0.4248 0.2025 -0.4498
v 0.4331 0.2025 -0.3899
f 284/22 283/22 282/22 281/22
v 0.4248 0.2025 -0.2702
v -0.4331 0.2025 -0.3301
v -0.4331 0.2275 -0.3301
v 0.4248 0.2275 -0.2702
f 288/22 287/22 286/22 285/22
v 0.4248 0.2025 -0.0902
v 0.4248 0.2275 -0.0902
v 0.4331 0.2275 -0.2099
v 0.4331 0.2025 -0.2099
f 292/22 291/22 290/22 289/22
v -0.4248 0.2025 -0.2698
v -0.4248 0.2275 -0.2698
v -0.4331 0.2275 -0.1501
v -0.4331 0.2025 -0.1501
f 296/22 295/22 294/22 293/22
v 0.4331 0.2025 -0.2099
v -0.4248 0.2025 -0.2698
v -0.4331 0.2025 -0.1501
v 0.4248 0.2025 -0.0902
f 300/22 299/22 298/22 297/22
v 0.4248 0.2275 -0.0902
v -0.4331 0.2275 -0.1501
v -0.4248 0.2275 -0.2698
v 0.4331 0.2275 -0.2099
f 304/22 303/22 302/22 301/22
v 0.4331 0.2275 -0.2099
v -0.4248 0.2275 -0.2698
v -0.4248 0.2025 -0.2698
v 0.4331 0.2025 -0.2099
f 308/22 307/22 306/22 305/22
v 0.4248 0.2025 -0.0902
v -0.4331 0.2025 -0.1501
v -0.4331 0.2275 -0.1501
v 0.4248 0.2275 -0.0902
f 312/22 311/22 310/22 309/22
v 0.4248 0.2025 0.0898
v 0.4248 0.2275 0.0898
v 0.4331 0.2275 -0.0299
v 0.4331 0.2025 -0.0299
f 316/22 315/22 314/22 313/22
v -0.4248 0.2025 -0.0898
v -0.4248 0.2275 -0.0898
v -0.4331 0.2275 0.0299
v -0.4331 0.2025 0.0299
f 320/22 319/22 318/22 317/22
v 0.4331 0.2025 -0.0299
v -0.4248 0.2025 -0.0898
v -0.4331 0.2025 0.0299
v 0.4248 0.2025 0.0898
f 324/22 323/22 322/22 321/22
v 0.4248 0.2275 0.0898
v -0.4331 0.2275 0.0299
v -0.4248 0.2275 -0.0898
v 0.4331 0.2275 -0.0299
f 328/22 327/22 326/22 325/22
v 0.4331 0.2275 -0.0299
v -0.4248 0.2275 -0.0898
v -0.4248 0.2025 -0.0898
v 0.4331 0.2025 -0.0299
f 332/22 331/22 330/22 329/22
v 0.4248 0.2025 0.0898
v -0.4331 0.2025 0.0299
v -0.4331 0.2275 0.0299
v 0.4248 0.2275 0.0898
f 336/22 335/22 334/22 333/22
v 0.4248 0.2025 0.2698
v 0.4248 0.2275 0.2698
v 0.4331 0.2275 0.1501
v 0.4331 0.2025 0.1501
f 340/22 339/22 338/22 337/22
v -0.4248 0.2025 0.0902
v -0.4248 0.2275 0.0902
v -0.4331 0.2275 0.2099
v -0.4331 0.2025 0.2099
f 344/22 343/22 342/22 341/22
v 0.4331 0.2025 0.1501
v -0.4248 0.2025 0.0902
v -0.4331 0.2025 0.2099
v 0.4248 0.2025 0.2698
f 348/22 347/22 346/22 345/22
v 0.4248 0.2275 0.2698
v -0.4331 0.2275 0.2099
v -0.4248 0.2275 0.0902
v 0.4331 0.2275 0.1501
f 352/22 351/22 350/22 349/22
v 0.4331 0.2275 0.1501
v -0.4248 0.2275 0.0902
v -0.4248 0.2025 0.0902
v 0.4331 0.2025 0.1501
f 356/22 355/22 354/22 353/22
v 0.4248 0.2025 0.2698
v -0.4331 0.2025 0.2099
v -0.4331 0.2275 0.2099
v 0.4248 0.2275 0.2698
f 360/22 359/22 358/22 357/22
v 0.4248 0.2025 0.4498
v 0.4248 0.2275 0.4498
v 0.4331 0.2275 0.3301
v 0.4331 0.2025 0.3301
f 364/22 363/22 362/22 361/22
v -0.4248 0.2025 0.2702
v -0.4248 0.2275 0.2702
v -0.4331 0.2275 0.3899
v -0.4331 0.2025 0.3899
f 368/22 367/22 366/22 365/22
v 0.4331 0.2025 0.3301
v -0.4248 0.2025 0.2702
v -0.4331 0.2025 0.3899
v 0.4248 0.2025 0.4498
f 372/22 371/22 370/22 369/22
v 0.4248 0.2275 0.4498
v -0.4331 0.2275 0.3899
v -0.4248 0.2275 0.2702
v 0.4331 0.2275 0.3301
f 376/22 375/22 374/22 373/22
v 0.4331 0.2275 0.3301
v -0.4248 0.2275 0.2702
v -0.4248 0.2025 0.2702
v 0.4331 0.2025 0.3301
f 380/22 379/22 378/22 377/22
v 0.4248 0.2025 0.4498
v -0.4331 0.2025 0.3899
v -0.4331 0.2275 0.3899
v 0.4248 0.2275 0.4498
f 384/22 383/22 382/22 381/22
v 0.4092 0.2300 0.4155
v 0.4092 0.3100 0.4155
v 0.3506 0.3100 -0.4225
v 0.3506 0.2300 -0.4225
f 388/9 387/9 386/9 385/9
v 0.2508 0.2300 -0.4155
v 0.2508 0.3100 -0.4155
v 0.3094 0.3100 0.4225
v 0.3094 0.2300 0.4225
f 392/9 391/9 390/9 389/9
v 0.3506 0.2300 -0.4225
v 0.2508 0.2300 -0.4155
v 0.3094 0.2300 0.4225
v 0.4092 0.2300 0.4155
f 396/9 395/9 394/9 393/9
v 0.4092 0.3100 0.4155
v 0.3094 0.3100 0.4225
v 0.2508 0.3100 -0.4155
v 0.3506 0.3100 -0.4225
f 400/9 399/9 398/9 397/9
v 0.3506 0.3100 -0.4225
v 0.2508 0.3100 -0.4155
v 0.2508 0.2300 -0.4155
v 0.3506 0.2300 -0.4225
f 404/9 403/9 402/9 401/9
v 0.4092 0.2300 0.4155
v 0.3094 0.2300 0.4225
v 0.3094 0.3100 0.4225
v 0.4092 0.3100 0.4155
f 408/9 407/9 406/9 405/9
v 0.0792 0.2300 0.4155
v 0.0792 0.3100 0.4155
v 0.0206 0.3100 -0.4225
v 0.0206 0.2300 -0.4225
f 412/9 411/9 410/9 409/9
v -0.0792 0.2300 -0.4155
v -0.0792 0.3100 -0.4155
v -0.0206 0.3100 0.4225
v -0.0206 0.2300 0.4225
f 416/9 415/9 414/9 413/9
v 0.0206 0.2300 -0.4225
v -0.0792 0.2300 -0.4155
v -0.0206 0.2300 0.4225
v 0.0792 0.2300 0.4155
f 420/9 419/9 418/9 417/9
v 0.0792 0.3100 0.4155
v -0.0206 0.3100 0.4225
v -0.0792 0.3100 -0.4155
v 0.0206 0.3100 -0.4225
f 424/9 423/9 422/9 421/9
v 0.0206 0.3100 -0.4225
v -0.0792 0.3100 -0.4155
v -0.0792 0.2300 -0.4155
v 0.0206 0.2300 -0.4225
f 428/9 427/9 426/9 425/9
v 0.0792 0.2300 0.4155
v -0.0206 0.2300 0.4225
v -0.0206 0.3100 0.4225
v 0.0792 0.3100 0.4155
f 432/9 431/9 430/9 429/9
v -0.2508 0.2300 0.4155
v -0.2508 0.3100 0.4155
v -0.3094 0.3100 -0.4225
v -0.3094 0.2300 -0.4225
f 436/9 435/9 434/9 433/9
v -0.4092 0.2300 -0.4155
v -0.4092 0.3100 -0.4155
v -0.3506 0.3100 0.4225
v -0.3506 0.2300 0.4225
f 440/9 439/9 438/9 437/9
v -0.3094 0.2300 -0.4225
v -0.4092 0.2300 -0.4155
v -0.3506 0.2300 0.4225
v -0.2508 0.2300 0.4155
f 444/9 443/9 442/9 441/9
v -0.2508 0.3100 0.4155
v -0.3506 0.3100 0.4225
v -0.4092 0.3100 -0.4155
v -0.3094 0.3100 -0.4225
f 448/9 447/9 446/9 445/9
v -0.3094 0.3100 -0.4225
v -0.4092 0.3100 -0.4155
v -0.4092 0.2300 -0.4155
v -0.3094 0.2300 -0.4225
f 452/9 451/9 450/9 449/9
v -0.2508 0.2300 0.4155
v -0.3506 0.2300 0.4225
v -0.3506 0.3100 0.4225
v -0.2508 0.3100 0.4155
f 456/9 455/9 454/9 453/9
v 0.4331 0.3175 -0.3301
v 0.4331 0.3425 -0.3301
v 0.4248 0.3425 -0.4498
v 0.4248 0.3175 -0.4498
f 460/22 459/22 458/22 457/22
v -0.4331 0.3175 -0.3899
v -0.4331 0.3425 -0.3899
v -0.4248 0.3425 -0.2702
v -0.4248 0.3175 -0.2702
f 464/22 463/22 462/22 461/22
v 0.4248 0.3175 -0.4498
v -0.4331 0.3175 -0.3899
v -0.4248 0.3175 -0.2702
v 0.4331 0.3175 -0.3301
f 468/22 467/22 466/22 465/22
v 0.4331 0.3425 -0.3301
v -0.4248 0.3425 -0.2702
v -0.4331 0.3425 -0.3899
v 0.4248 0.3425 -0.4498
f 472/22 471/22 470/22 469/22
v 0.4248 0.3425 -0.4498
v -0.4331 0.3425 -0.3899
v -0.4331 0.3175 -0.3899
v 0.4248 0.3175 -0.4498
f 476/22 475/22 474/22 473/22
v 0.4331 0.3175 -0.3301
v -0.4248 0.3175 -0.2702
v -0.4248 0.3425 -0.2702
v 0.4331 0.3425 -0.3301
f 480/22 479/22 478/22 477/22
v 0.4331 0.3175 -0.1501
v 0.4331 0.3425 -0.1501
v 0.4248 0.3425 -0.2698
v 0.4248 0.3175 -0.2698
f 484/22 483/22 482/22 481/22
v -0.4331 0.3175 -0.2099
v -0.4331 0.3425 -0.2099
v -0.4248 0.3425 -0.0902
v -0.4248 0.3175 -0.0902
f 488/22 487/22 486/22 485/22
v 0.4248 0.3175 -0.2698
v -0.4331 0.3175 -0.2099
v -0.4248 0.3175 -0.0902
v 0.4331 0.3175 -0.1501
f 492/22 491/22 490/22 489/22
v 0.4331 0.3425 -0.1501
v -0.4248 0.3425 -0.0902
v -0.4331 0.3425 -0.2099
v 0.4248 0.3425 -0.2698
f 496/22 495/22 494/22 493/22
v 0.4248 0.3425 -0.2698
v -0.4331 0.3425 -0.2099
v -0.4331 0.3175 -0.2099
v 0.4248 0.3175 -0.2698
f 500/22 499/22 498/22 497/22
v 0.4331 0.3175 -0.1501
v -0.4248 0.3175 -0.0902
v -0.4248 0.3425 -0.0902
v 0.4331 0.3425 -0.1501
f 504/22 503/22 502/22 501/22
v 0.4331 0.3175 0.0299
v 0.4331 0.3425 0.0299
v 0.4248 0.3425 -0.0898
v 0.4248 0.3175 -0.0898
f 508/22 507/22 506/22 505/22
v -0.4331 0.3175 -0.0299
v -0.4331 0.3425 -0.0299
v -0.4248 0.3425 0.0898
v -0.4248 0.3175 0.0898
f 512/22 511/22 510/22 509/22
v 0.4248 0.3175 -0.0898
v -0.4331 0.3175 -0.0299
v -0.4248 0.3175 0.0898
v 0.4331 0.3175 0.0299
f 516/22 515/22 514/22 513/22
v 0.4331 0.3425 0.0299
v -0.4248 0.3425 0.0898
v -0.4331 0.3425 -0.0299
v 0.4248 0.3425 -0.0898
f 520/22 519/22 518/22 517/22
v 0.4248 0.3425 -0.0898
v -0.4331 0.3425 -0.0299
v -0.4331 0.3175 -0.0299
v 0.4248 0.3175 -0.0898
f 524/22 523/22 522/22 521/22
v 0.4331 0.3175 0.0299
v -0.4248 0.3175 0.0898
v -0.4248 0.3425 0.0898
v 0.4331 0.3425 0.0299
f 528/22 527/22 526/22 525/22
v 0.4331 0.3175 0.2099
v 0.4331 0.3425 0.2099
v 0.4248 0.3425 0.0902
v 0.4248 0.3175 0.0902
f 532/22 531/22 530/22 529/22
v -0.4331 0.3175 0.1501
v -0.4331 0.3425 0.1501
v -0.4248 0.3425 0.2698
v -0.4248 0.3175 0.2698
f 536/22 535/22 534/22 533/22
v 0.4248 0.3175 0.0902
v -0.4331 0.3175 0.1501
v -0.4248 0.3175 0.2698
v 0.4331 0.3175 0.2099
f 540/22 539/22 538/22 537/22
v 0.4331 0.3425 0.2099
v -0.4248 0.3425 0.2698
v -0.4331 0.3425 0.1501
v 0.4248 0.3425 0.0902
f 544/22 543/22 542/22 541/22
v 0.4248 0.3425 0.0902
v -0.4331 0.3425 0.1501
v -0.4331 0.3175 0.1501
v 0.4248 0.3175 0.0902
f 548/22 547/22 546/22 545/22
v 0.4331 0.3175 0.2099
v -0.4248 0.3175 0.2698
v -0.4248 0.3425 0.2698
v 0.4331 0.3425 0.2099
f 552/22 551/22 550/22 549/22
v 0.4331 0.3175 0.3899
v 0.4331 0.3425 0.3899
v 0.4248 0.3425 0.2702
v 0.4248 0.3175 0.2702
f 556/22 555/22 554/22 553/22
v -0.4331 0.3175 0.3301
v -0.4331 0.3425 0.3301
v -0.4248 0.3425 0.4498
v -0.4248 0.3175 0.4498
f 560/22 559/22 558/22 557/22
v 0.4248 0.3175 0.2702
v -0.4331 0.3175 0.3301
v -0.4248 0.3175 0.4498
v 0.4331 0.3175 0.3899
f 564/22 563/22 562/22 561/22
v 0.4331 0.3425 0.3899
v -0.4248 0.3425 0.4498
v -0.4331 0.3425 0.3301
v 0.4248 0.3425 0.2702
f 568/22 567/22 566/22 565/22
v 0.4248 0.3425 0.2702
v -0.4331 0.3425 0.3301
v -0.4331 0.3175 0.3301
v 0.4248 0.3175 0.2702
f 572/22 571/22 570/22 569/22
v 0.4331 0.3175 0.3899
v -0.4248 0.3175 0.4498
v -0.4248 0.3425 0.4498
v 0.4331 0.3425 0.3899
f 576/22 575/22 574/22 573/22
v 0.3506 0.3450 0.4225
v 0.3506 0.4250 0.4225
v 0.4092 0.4250 -0.4155
v 0.4092 0.3450 -0.4155
f 580/9 579/9 578/9 577/9
v 0.3094 0.3450 -0.4225
v 0.3094 0.4250 -0.4225
v 0.2508 0.4250 0.4155
v 0.2508 0.3450 0.4155
f 584/9 583/9 582/9 581/9
v 0.4092 0.3450 -0.4155
v 0.3094 0.3450 -0.4225
v 0.2508 0.3450 0.4155
v 0.3506 0.3450 0.4225
f 588/9 587/9 586/9 585/9
v 0.3506 0.4250 0.4225
v 0.2508 0.4250 0.4155
v 0.3094 0.4250 -0.4225
v 0.4092 0.4250 -0.4155
f 592/9 591/9 590/9 589/9
v 0.4092 0.4250 -0.4155
v 0.3094 0.4250 -0.4225
v 0.3094 0.3450 -0.4225
v 0.4092 0.3450 -0.4155
f 596/9 595/9 594/9 593/9
v 0.3506 0.3450 0.4225
v 0.2508 0.3450 0.4155
v 0.2508 0.4250 0.4155
v 0.3506 0.4250 0.4225
f 600/9 599/9 598/9 597/9
v 0.0206 0.3450 0.4225
v 0.0206 0.4250 0.4225
v 0.0792 0.4250 -0.4155
v 0.0792 0.3450 -0.4155
f 604/9 603/9 602/9 601/9
v -0.0206 0.3450 -0.4225
v -0.0206 0.4250 -0.4225
v -0.0792 0.4250 0.4155
v -0.0792 0.3450 0.4155
f 608/9 607/9 606/9 605/9
v 0.0792 0.3450 -0.4155
v -0.0206 0.3450 -0.4225
v -0.0792 0.3450 0.4155
v 0.0206 0.3450 0.4225
f 612/9 611/9 610/9 609/9
v 0.0206 0.4250 0.4225
v -0.0792 0.4250 0.4155
v -0.0206 0.4250 -0.4225
v 0.0792 0.4250 -0.4155
f 616/9 615/9 614/9 613/9
v 0.0792 0.4250 -0.4155
v -0.0206 0.4250 -0.4225
v -0.0206 0.3450 -0.4225
v 0.0792 0.3450 -0.4155
f 620/9 619/9 618/9 617/9
v 0.0206 0.3450 0.4225
v -0.0792 0.3450 0.4155
v -0.0792 0.4250 0.4155
v 0.0206 0.4250 0.4225
f 624/9 623/9 622/9 621/9
v -0.3094 0.3450 0.4225
v -0.3094 0.4250 0.4225
v -0.2508 0.4250 -0.4155
v -0.2508 0.3450 -0.4155
f 628/9 627/9 626/9 625/9
v -0.3506 0.3450 -0.4225
v -0.3506 0.4250 -0.4225
v -0.4092 0.4250 0.4155
v -0.4092 0.3450 0.4155
f 632/9 631/9 630/9 629/9
v -0.2508 0.3450 -0.4155
v -0.3506 0.3450 -0.4225
v -0.4092 0.3450 0.4155
v -0.3094 0.3450 0.4225
f 636/9 635/9 634/9 633/9
v -0.3094 0.4250 0.4225
v -0.4092 0.4250 0.4155
v -0.3506 0.4250 -0.4225
v -0.2508 0.4250 -0.4155
f 640/9 639/9 638/9 637/9
v -0.2508 0.4250 -0.4155
v -0.3506 0.4250 -0.4225
v -0.3506 0.3450 -0.4225
v -0.2508 0.3450 -0.4155
f 644/9 643/9 642/9 641/9
v -0.3094 0.3450 0.4225
v -0.4092 0.3450 0.4155
v -0.4092 0.4250 0.4155
v -0.3094 0.4250 0.4225
f 648/9 647/9 646/9 645/9
v 0.4248 0.4325 -0.2702
v 0.4248 0.4575 -0.2702
v 0.4331 0.4575 -0.3899
v 0.4331 0.4325 -0.3899
f 652/22 651/22 650/22 649/22
v -0.4248 0.4325 -0.4498
v -0.4248 0.4575 -0.4498
v -0.4331 0.4575 -0.3301
v -0.4331 0.4325 -0.3301
f 656/22 655/22 654/22 653/22
v 0.4331 0.4325 -0.3899
v -0.4248 0.4325 -0.4498
v -0.4331 0.4325 -0.3301
v 0.4248 0.4325 -0.2702
f 660/22 659/22 658/22 657/22
v 0.4248 0.4575 -0.2702
v -0.4331 0.4575 -0.3301
v -0.4248 0.4575 -0.4498
v 0.4331 0.4575 -0.3899
f 664/22 663/22 662/22 661/22
v 0.4331 0.4575 -0.3899
v -0.4248 0.4575 -0.4498
v -0.4248 0.4325 -0.4498
v 0.4331 0.4325 -0.3899
f 668/22 667/22 666/22 665/22
v 0.4248 0.4325 -0.2702
v -0.4331 0.4325 -0.3301
v -0.4331 0.4575 -0.3301
v 0.4248 0.4575 -0.2702
f 672/22 671/22 670/22 669/22
v 0.4248 0.4325 -0.0902
v 0.4248 0.4575 -0.0902
v 0.4331 0.4575 -0.2099
v 0.4331 0.4325 -0.2099
f 676/22 675/22 674/22 673/22
v -0.4248 0.4325 -0.2698
v -0.4248 0.4575 -0.2698
v -0.4331 0.4575 -0.1501
v -0.4331 0.4325 -0.1501
f 680/22 679/22 678/22 677/22
v 0.4331 0.4325 -0.2099
v -0.4248 0.4325 -0.2698
v -0.4331 0.4325 -0.1501
v 0.4248 0.4325 -0.0902
f 684/22 683/22 682/22 681/22
v 0.4248 0.4575 -0.0902
v -0.4331 0.4575 -0.1501
v -0.4248 0.4575 -0.2698
v 0.4331 0.4575 -0.2099
f 688/22 687/22 686/22 685/22
v 0.4331 0.4575 -0.2099
v -0.4248 0.4575 -0.2698
v -0.4248 0.4325 -0.2698
v 0.4331 0.4325 -0.2099
f 692/22 691/22 690/22 689/22
v 0.4248 0.4325 -0.0902
v -0.4331 0.4325 -0.1501
v -0.4331 0.4575 -0.1501
v 0.4248 0.4575 -0.0902
f 696/22 695/22 694/22 693/22
v 0.4248 0.4325 0.0898
v 0.4248 0.4575 0.0898
v 0.4331 0.4575 -0.0299
v 0.4331 0.4325 -0.0299
f 700/22 699/22 698/22 697/22
v -0.4248 0.4325 -0.0898
v -0.4248 0.4575 -0.0898
v -0.4331 0.4575 0.0299
v -0.4331 0.4325 0.0299
f 704/22 703/22 702/22 701/22
v 0.4331 0.4325 -0.0299
v -0.4248 0.4325 -0.0898
v -0.4331 0.4325 0.0299
v 0.4248 0.4325 0.0898
f 708/22 707/22 706/22 705/22
v 0.4248 0.4575 0.0898
v -0.4331 0.4575 0.0299
v -0.4248 0.4575 -0.0898
v 0.4331 0.4575 -0.0299
f 712/22 711/22 710/22 709/22
v 0.4331 0.4575 -0.0299
v -0.4248 0.4575 -0.0898
v -0.4248 0.4325 -0.0898
v 0.4331 0.4325 -0.0299
f 716/22 715/22 714/22 713/22
v 0.4248 0.4325 0.0898
v -0.4331 0.4325 0.0299
v -0.4331 0.4575 0.0299
v 0.4248 0.4575 0.0898
f 720/22 719/22 718/22 717/22
v 0.4248 0.4325 0.2698
v 0.4248 0.4575 0.2698
v 0.4331 0.4575 0.1501
v 0.4331 0.4325 0.1501
f 724/22 723/22 722/22 721/22
v -0.4248 0.4325 0.0902
v -0.4248 0.4575 0.0902
v -0.4331 0.4575 0.2099
v -0.4331 0.4325 0.2099
f 728/22 727/22 726/22 725/22
v 0.4331 0.4325 0.1501
v -0.4248 0.4325 0.0902
v -0.4331 0.4325 0.2099
v 0.4248 0.4325 0.2698
f 732/22 731/22 730/22 729/22
v 0.4248 0.4575 0.2698
v -0.4331 0.4575 0.2099
v -0.4248 0.4575 0.0902
v 0.4331 0.4575 0.1501
f 736/22 735/22 734/22 733/22
v 0.4331 0.4575 0.1501
v -0.4248 0.4575 0.0902
v -0.4248 0.4325 0.0902
v 0.4331 0.4325 0.1501
f 740/22 739/22 738/22 737/22
v 0.4248 0.4325 0.2698
v -0.4331 0.4325 0.2099
v -0.4331 0.4575 0.2099
v 0.4248 0.4575 0.2698
f 744/22 743/22 742/22 741/22
v 0.4248 0.4325 0.4498
v 0.4248 0.4575 0.4498
v 0.4331 0.4575 0.3301
v 0.4331 0.4325 0.3301
f 748/22 747/22 746/22 745/22
v -0.4248 0.4325 0.2702
v -0.4248 0.4575 0.2702
v -0.4331 0.4575 0.3899
v -0.4331 0.4325 0.3899
f 752/22 751/22 750/22 749/22
v 0.4331 0.4325 0.3301
v -0.4248 0.4325 0.2702
v -0.4331 0.4325 0.3899
v 0.4248 0.4325 0.4498
f 756/22 755/22 754/22 753/22
v 0.4248 0.4575 0.4498
v -0.4331 0.4575 0.3899
v -0.4248 0.4575 0.2702
v 0.4331 0.4575 0.3301
f 760/22 759/22 758/22 757/22
v 0.4331 0.4575 0.3301
v -0.4248 0.4575 0.2702
v -0.4248 0.4325 0.2702
v 0.4331 0.4325 0.3301
f 764/22 763/22 762/22 761/22
v 0.4248 0.4325 0.4498
v -0.4331 0.4325 0.3899
v -0.4331 0.4575 0.3899
v 0.4248 0.4575 0.4498
f 768/22 767/22 766/22 765/22
v 0.1500 0.4600 0.2750
v 0.1500 0.8000 0.2750
v 0.1500 0.8000 -0.1750
v 0.1500 0.4600 -0.1750
f 772/9 771/9 770/9 769/9
v -0.3500 0.4600 -0.1750
v -0.3500 0.8000 -0.1750
v -0.3500 0.8000 0.2750
v -0.3500 0.4600 0.2750
f 776/9 775/9 774/9 773/9
v 0.1500 0.4600 -0.1750
v -0.3500 0.4600 -0.1750
v -0.3500 0.4600 0.2750
v 0.1500 0.4600 0.2750
f 780/9 779/9 778/9 777/9
v 0.1500 0.8000 0.2750
v -0.3500 0.8000 0.2750
v -0.3500 0.8000 -0.1750
v 0.1500 0.8000 -0.1750
f 784/9 783/9 782/9 781/9
v 0.1500 0.8000 -0.1750
v -0.3500 0.8000 -0.1750
v -0.3500 0.4600 -0.1750
v 0.1500 0.4600 -0.1750
f 788/9 787/9 786/9 785/9
v 0.1500 0.4600 0.2750
v -0.3500 0.4600 0.2750
v -0.3500 0.8000 0.2750
v 0.1500 0.8000 0.2750
f 792/9 791/9 790/9 789/9
v 0.1600 0.6000 0.2850
v 0.1600 0.6600 0.2850
v 0.1600 0.6600 -0.1850
v 0.1600 0.6000 -0.1850
f 796/22 795/22 794/22 793/22
v -0.3600 0.6000 -0.1850
v -0.3600 0.6600 -0.1850
v -0.3600 0.6600 0.2850
v -0.3600 0.6000 0.2850
f 800/22 799/22 798/22 797/22
v 0.1600 0.6000 -0.1850
v -0.3600 0.6000 -0.1850
v -0.3600 0.6000 0.2850
v 0.1600 0.6000 0.2850
f 804/22 803/22 802/22 801/22
v 0.1600 0.6600 0.2850
v -0.3600 0.6600 0.2850
v -0.3600 0.6600 -0.1850
v 0.1600 0.6600 -0.1850
f 808/22 807/22 806/22 805/22
v 0.1600 0.6600 -0.1850
v -0.3600 0.6600 -0.1850
v -0.3600 0.6000 -0.1850
v 0.1600 0.6000 -0.1850
f 812/22 811/22 810/22 809/22
v 0.1600 0.6000 0.2850
v -0.3600 0.6000 0.2850
v -0.3600 0.6600 0.2850
v 0.1600 0.6600 0.2850
f 816/22 815/22 814/22 813/22
v -0.0300 0.6100 0.2850
v -0.0300 0.7100 0.2850
v -0.0300 0.7100 0.2750
v -0.0300 0.6100 0.2750
f 820/6 819/6 818/6 817/6
v -0.1700 0.6100 0.2750
v -0.1700 0.7100 0.2750
v -0.1700 0.7100 0.2850
v -0.1700 0.6100 0.2850
f 824/6 823/6 822/6 821/6
v -0.0300 0.6100 0.2750
v -0.1700 0.6100 0.2750
v -0.1700 0.6100 0.2850
v -0.0300 0.6100 0.2850
f 828/6 827/6 826/6 825/6
v -0.0300 0.7100 0.2850
v -0.1700 0.7100 0.2850
v -0.1700 0.7100 0.2750
v -0.0300 0.7100 0.2750
f 832/6 831/6 830/6 829/6
v -0.0300 0.7100 0.2750
v -0.1700 0.7100 0.2750
v -0.1700 0.6100 0.2750
v -0.0300 0.6100 0.2750
f 836/6 835/6 834/6 833/6
v -0.0300 0.6100 0.2850
v -0.1700 0.6100 0.2850
v -0.1700 0.7100 0.2850
v -0.0300 0.7100 0.2850
f 840/6 839/6 838/6 837/6
