# Walk of Industry low-poly (generated, wi_lib.py)
mtllib wi.mtl
vt 0 0
vt 0.03125 0.03125
vt 0.09375 0.03125
vt 0.15625 0.03125
vt 0.21875 0.03125
vt 0.28125 0.03125
vt 0.34375 0.03125
vt 0.40625 0.03125
vt 0.46875 0.03125
vt 0.53125 0.03125
vt 0.59375 0.03125
vt 0.65625 0.03125
vt 0.71875 0.03125
vt 0.78125 0.03125
vt 0.84375 0.03125
vt 0.90625 0.03125
vt 0.96875 0.03125
vt 0.03125 0.09375
vt 0.09375 0.09375
vt 0.15625 0.09375
vt 0.21875 0.09375
vt 0.28125 0.09375
vt 0.34375 0.09375
vt 0.40625 0.09375
vt 0.46875 0.09375
vt 0.53125 0.09375
vt 0.59375 0.09375
vt 0.65625 0.09375
vt 0.71875 0.09375
vt 0.78125 0.09375
vt 0.84375 0.09375
vt 0.90625 0.09375
vt 0.96875 0.09375
o Body
usemtl wi_palette
v -0.0000 1.4725 0.0000
v -0.2498 1.3345 0.4327
v -0.4695 1.3345 0.1709
f 3/20 2/20 1/20
v -0.0000 1.4725 0.0000
v 0.0868 1.3345 0.4920
v -0.2498 1.3345 0.4327
f 6/20 5/20 4/20
v -0.0000 1.4725 0.0000
v 0.3827 1.3345 0.3211
v 0.0868 1.3345 0.4920
f 9/20 8/20 7/20
v -0.0000 1.4725 0.0000
v 0.4996 1.3345 0.0000
v 0.3827 1.3345 0.3211
f 12/20 11/20 10/20
v -0.0000 1.4725 0.0000
v 0.3827 1.3345 -0.3211
v 0.4996 1.3345 0.0000
f 15/20 14/20 13/20
v -0.0000 1.4725 0.0000
v 0.0868 1.3345 -0.4920
v 0.3827 1.3345 -0.3211
f 18/20 17/20 16/20
v -0.0000 1.4725 0.0000
v -0.2498 1.3345 -0.4327
v 0.0868 1.3345 -0.4920
f 21/20 20/20 19/20
v -0.0000 1.4725 0.0000
v -0.4695 1.3345 -0.1709
v -0.2498 1.3345 -0.4327
f 24/20 23/20 22/20
v -0.0000 1.4725 0.0000
v -0.4695 1.3345 0.1709
v -0.4695 1.3345 -0.1709
f 27/20 26/20 25/20
v -0.4695 1.3345 0.1709
v -0.2498 1.3345 0.4327
v -0.6193 0.9733 0.5196
v -0.8084 0.9733 0.0000
f 31/20 30/20 29/20 28/20
v -0.2498 1.3345 0.4327
v 0.0868 1.3345 0.4920
v -0.1404 0.9733 0.7961
v -0.6193 0.9733 0.5196
f 35/20 34/20 33/20 32/20
v 0.0868 1.3345 0.4920
v 0.3827 1.3345 0.3211
v 0.4042 0.9733 0.7001
v -0.1404 0.9733 0.7961
f 39/20 38/20 37/20 36/20
v 0.3827 1.3345 0.3211
v 0.4996 1.3345 0.0000
v 0.7596 0.9733 0.2765
v 0.4042 0.9733 0.7001
f 43/20 42/20 41/20 40/20
v 0.4996 1.3345 0.0000
v 0.3827 1.3345 -0.3211
v 0.7596 0.9733 -0.2765
v 0.7596 0.9733 0.2765
f 47/20 46/20 45/20 44/20
v 0.3827 1.3345 -0.3211
v 0.0868 1.3345 -0.4920
v 0.4042 0.9733 -0.7001
v 0.7596 0.9733 -0.2765
f 51/20 50/20 49/20 48/20
v 0.0868 1.3345 -0.4920
v -0.2498 1.3345 -0.4327
v -0.1404 0.9733 -0.7961
v 0.4042 0.9733 -0.7001
f 55/20 54/20 53/20 52/20
v -0.2498 1.3345 -0.4327
v -0.4695 1.3345 -0.1709
v -0.6193 0.9733 -0.5196
v -0.1404 0.9733 -0.7961
f 59/20 58/20 57/20 56/20
v -0.4695 1.3345 -0.1709
v -0.4695 1.3345 0.1709
v -0.8084 0.9733 0.0000
v -0.6193 0.9733 -0.5196
f 63/20 62/20 61/20 60/20
v -0.8084 0.9733 0.0000
v -0.6193 0.9733 0.5196
v -0.4042 0.5267 0.7001
v -0.7596 0.5267 0.2765
f 67/20 66/20 65/20 64/20
v -0.6193 0.9733 0.5196
v -0.1404 0.9733 0.7961
v 0.1404 0.5267 0.7961
v -0.4042 0.5267 0.7001
f 71/20 70/20 69/20 68/20
v -0.1404 0.9733 0.7961
v 0.4042 0.9733 0.7001
v 0.6193 0.5267 0.5196
v 0.1404 0.5267 0.7961
f 75/20 74/20 73/20 72/20
v 0.4042 0.9733 0.7001
v 0.7596 0.9733 0.2765
v 0.8084 0.5267 0.0000
v 0.6193 0.5267 0.5196
f 79/20 78/20 77/20 76/20
v 0.7596 0.9733 0.2765
v 0.7596 0.9733 -0.2765
v 0.6193 0.5267 -0.5196
v 0.8084 0.5267 0.0000
f 83/20 82/20 81/20 80/20
v 0.7596 0.9733 -0.2765
v 0.4042 0.9733 -0.7001
v 0.1404 0.5267 -0.7961
v 0.6193 0.5267 -0.5196
f 87/20 86/20 85/20 84/20
v 0.4042 0.9733 -0.7001
v -0.1404 0.9733 -0.7961
v -0.4042 0.5267 -0.7001
v 0.1404 0.5267 -0.7961
f 91/20 90/20 89/20 88/20
v -0.1404 0.9733 -0.7961
v -0.6193 0.9733 -0.5196
v -0.7596 0.5267 -0.2765
v -0.4042 0.5267 -0.7001
f 95/20 94/20 93/20 92/20
v -0.6193 0.9733 -0.5196
v -0.8084 0.9733 0.0000
v -0.7596 0.5267 0.2765
v -0.7596 0.5267 -0.2765
f 99/20 98/20 97/20 96/20
v -0.7596 0.5267 0.2765
v -0.4042 0.5267 0.7001
v -0.3827 0.1655 0.3211
v -0.4996 0.1655 0.0000
f 103/20 102/20 101/20 100/20
v -0.4042 0.5267 0.7001
v 0.1404 0.5267 0.7961
v -0.0868 0.1655 0.4920
v -0.3827 0.1655 0.3211
f 107/20 106/20 105/20 104/20
v 0.1404 0.5267 0.7961
v 0.6193 0.5267 0.5196
v 0.2498 0.1655 0.4327
v -0.0868 0.1655 0.4920
f 111/20 110/20 109/20 108/20
v 0.6193 0.5267 0.5196
v 0.8084 0.5267 0.0000
v 0.4695 0.1655 0.1709
v 0.2498 0.1655 0.4327
f 115/20 114/20 113/20 112/20
v 0.8084 0.5267 0.0000
v 0.6193 0.5267 -0.5196
v 0.4695 0.1655 -0.1709
v 0.4695 0.1655 0.1709
f 119/20 118/20 117/20 116/20
v 0.6193 0.5267 -0.5196
v 0.1404 0.5267 -0.7961
v 0.2498 0.1655 -0.4327
v 0.4695 0.1655 -0.1709
f 123/20 122/20 121/20 120/20
v 0.1404 0.5267 -0.7961
v -0.4042 0.5267 -0.7001
v -0.0868 0.1655 -0.4920
v 0.2498 0.1655 -0.4327
f 127/20 126/20 125/20 124/20
v -0.4042 0.5267 -0.7001
v -0.7596 0.5267 -0.2765
v -0.3827 0.1655 -0.3211
v -0.0868 0.1655 -0.4920
f 131/20 130/20 129/20 128/20
v -0.7596 0.5267 -0.2765
v -0.7596 0.5267 0.2765
v -0.4996 0.1655 0.0000
v -0.3827 0.1655 -0.3211
f 135/20 134/20 133/20 132/20
v -0.4996 0.1655 0.0000
v -0.3827 0.1655 0.3211
v -0.0000 0.0275 0.0000
f 138/20 137/20 136/20
v -0.3827 0.1655 0.3211
v -0.0868 0.1655 0.4920
v -0.0000 0.0275 0.0000
f 141/20 140/20 139/20
v -0.0868 0.1655 0.4920
v 0.2498 0.1655 0.4327
v 0.0000 0.0275 0.0000
f 144/20 143/20 142/20
v 0.2498 0.1655 0.4327
v 0.4695 0.1655 0.1709
v 0.0000 0.0275 0.0000
f 147/20 146/20 145/20
v 0.4695 0.1655 0.1709
v 0.4695 0.1655 -0.1709
v 0.0000 0.0275 0.0000
f 150/20 149/20 148/20
v 0.4695 0.1655 -0.1709
v 0.2498 0.1655 -0.4327
v 0.0000 0.0275 -0.0000
f 153/20 152/20 151/20
v 0.2498 0.1655 -0.4327
v -0.0868 0.1655 -0.4920
v 0.0000 0.0275 -0.0000
f 156/20 155/20 154/20
v -0.0868 0.1655 -0.4920
v -0.3827 0.1655 -0.3211
v -0.0000 0.0275 -0.0000
f 159/20 158/20 157/20
v -0.3827 0.1655 -0.3211
v -0.4996 0.1655 0.0000
v -0.0000 0.0275 -0.0000
f 162/20 161/20 160/20
v -0.5000 0.9500 0.2000
v -0.6353 0.8036 0.5266
v -0.8266 0.8036 0.3353
f 165/21 164/21 163/21
v -0.5000 0.9500 0.2000
v -0.3647 0.8036 0.5266
v -0.6353 0.8036 0.5266
f 168/21 167/21 166/21
v -0.5000 0.9500 0.2000
v -0.1734 0.8036 0.3353
v -0.3647 0.8036 0.5266
f 171/21 170/21 169/21
v -0.5000 0.9500 0.2000
v -0.1734 0.8036 0.0647
v -0.1734 0.8036 0.3353
f 174/21 173/21 172/21
v -0.5000 0.9500 0.2000
v -0.3647 0.8036 -0.1266
v -0.1734 0.8036 0.0647
f 177/21 176/21 175/21
v -0.5000 0.9500 0.2000
v -0.6353 0.8036 -0.1266
v -0.3647 0.8036 -0.1266
f 180/21 179/21 178/21
v -0.5000 0.9500 0.2000
v -0.8266 0.8036 0.0647
v -0.6353 0.8036 -0.1266
f 183/21 182/21 181/21
v -0.5000 0.9500 0.2000
v -0.8266 0.8036 0.3353
v -0.8266 0.8036 0.0647
f 186/21 185/21 184/21
v -0.8266 0.8036 0.3353
v -0.6353 0.8036 0.5266
v -0.8536 0.4500 0.5536
v -1.0000 0.4500 0.2000
f 190/21 189/21 188/21 187/21
v -0.6353 0.8036 0.5266
v -0.3647 0.8036 0.5266
v -0.5000 0.4500 0.7000
v -0.8536 0.4500 0.5536
f 194/21 193/21 192/21 191/21
v -0.3647 0.8036 0.5266
v -0.1734 0.8036 0.3353
v -0.1464 0.4500 0.5536
v -0.5000 0.4500 0.7000
f 198/21 197/21 196/21 195/21
v -0.1734 0.8036 0.3353
v -0.1734 0.8036 0.0647
v -0.0000 0.4500 0.2000
v -0.1464 0.4500 0.5536
f 202/21 201/21 200/21 199/21
v -0.1734 0.8036 0.0647
v -0.3647 0.8036 -0.1266
v -0.1464 0.4500 -0.1536
v -0.0000 0.4500 0.2000
f 206/21 205/21 204/21 203/21
v -0.3647 0.8036 -0.1266
v -0.6353 0.8036 -0.1266
v -0.5000 0.4500 -0.3000
v -0.1464 0.4500 -0.1536
f 210/21 209/21 208/21 207/21
v -0.6353 0.8036 -0.1266
v -0.8266 0.8036 0.0647
v -0.8536 0.4500 -0.1536
v -0.5000 0.4500 -0.3000
f 214/21 213/21 212/21 211/21
v -0.8266 0.8036 0.0647
v -0.8266 0.8036 0.3353
v -1.0000 0.4500 0.2000
v -0.8536 0.4500 -0.1536
f 218/21 217/21 216/21 215/21
v -1.0000 0.4500 0.2000
v -0.8536 0.4500 0.5536
v -0.6353 0.0964 0.5266
v -0.8266 0.0964 0.3353
f 222/21 221/21 220/21 219/21
v -0.8536 0.4500 0.5536
v -0.5000 0.4500 0.7000
v -0.3647 0.0964 0.5266
v -0.6353 0.0964 0.5266
f 226/21 225/21 224/21 223/21
v -0.5000 0.4500 0.7000
v -0.1464 0.4500 0.5536
v -0.1734 0.0964 0.3353
v -0.3647 0.0964 0.5266
f 230/21 229/21 228/21 227/21
v -0.1464 0.4500 0.5536
v -0.0000 0.4500 0.2000
v -0.1734 0.0964 0.0647
v -0.1734 0.0964 0.3353
f 234/21 233/21 232/21 231/21
v -0.0000 0.4500 0.2000
v -0.1464 0.4500 -0.1536
v -0.3647 0.0964 -0.1266
v -0.1734 0.0964 0.0647
f 238/21 237/21 236/21 235/21
v -0.1464 0.4500 -0.1536
v -0.5000 0.4500 -0.3000
v -0.6353 0.0964 -0.1266
v -0.3647 0.0964 -0.1266
f 242/21 241/21 240/21 239/21
v -0.5000 0.4500 -0.3000
v -0.8536 0.4500 -0.1536
v -0.8266 0.0964 0.0647
v -0.6353 0.0964 -0.1266
f 246/21 245/21 244/21 243/21
v -0.8536 0.4500 -0.1536
v -1.0000 0.4500 0.2000
v -0.8266 0.0964 0.3353
v -0.8266 0.0964 0.0647
f 250/21 249/21 248/21 247/21
v -0.8266 0.0964 0.3353
v -0.6353 0.0964 0.5266
v -0.5000 -0.0500 0.2000
f 253/21 252/21 251/21
v -0.6353 0.0964 0.5266
v -0.3647 0.0964 0.5266
v -0.5000 -0.0500 0.2000
f 256/21 255/21 254/21
v -0.3647 0.0964 0.5266
v -0.1734 0.0964 0.3353
v -0.5000 -0.0500 0.2000
f 259/21 258/21 257/21
v -0.1734 0.0964 0.3353
v -0.1734 0.0964 0.0647
v -0.5000 -0.0500 0.2000
f 262/21 261/21 260/21
v -0.1734 0.0964 0.0647
v -0.3647 0.0964 -0.1266
v -0.5000 -0.0500 0.2000
f 265/21 264/21 263/21
v -0.3647 0.0964 -0.1266
v -0.6353 0.0964 -0.1266
v -0.5000 -0.0500 0.2000
f 268/21 267/21 266/21
v -0.6353 0.0964 -0.1266
v -0.8266 0.0964 0.0647
v -0.5000 -0.0500 0.2000
f 271/21 270/21 269/21
v -0.8266 0.0964 0.0647
v -0.8266 0.0964 0.3353
v -0.5000 -0.0500 0.2000
f 274/21 273/21 272/21
v 0.4500 1.0500 -0.2500
v 0.3012 0.8889 0.1093
v 0.0907 0.8889 -0.1012
f 277/21 276/21 275/21
v 0.4500 1.0500 -0.2500
v 0.5988 0.8889 0.1093
v 0.3012 0.8889 0.1093
f 280/21 279/21 278/21
v 0.4500 1.0500 -0.2500
v 0.8093 0.8889 -0.1012
v 0.5988 0.8889 0.1093
f 283/21 282/21 281/21
v 0.4500 1.0500 -0.2500
v 0.8093 0.8889 -0.3988
v 0.8093 0.8889 -0.1012
f 286/21 285/21 284/21
v 0.4500 1.0500 -0.2500
v 0.5988 0.8889 -0.6093
v 0.8093 0.8889 -0.3988
f 289/21 288/21 287/21
v 0.4500 1.0500 -0.2500
v 0.3012 0.8889 -0.6093
v 0.5988 0.8889 -0.6093
f 292/21 291/21 290/21
v 0.4500 1.0500 -0.2500
v 0.0907 0.8889 -0.3988
v 0.3012 0.8889 -0.6093
f 295/21 294/21 293/21
v 0.4500 1.0500 -0.2500
v 0.0907 0.8889 -0.1012
v 0.0907 0.8889 -0.3988
f 298/21 297/21 296/21
v 0.0907 0.8889 -0.1012
v 0.3012 0.8889 0.1093
v 0.0611 0.5000 0.1389
v -0.1000 0.5000 -0.2500
f 302/21 301/21 300/21 299/21
v 0.3012 0.8889 0.1093
v 0.5988 0.8889 0.1093
v 0.4500 0.5000 0.3000
v 0.0611 0.5000 0.1389
f 306/21 305/21 304/21 303/21
v 0.5988 0.8889 0.1093
v 0.8093 0.8889 -0.1012
v 0.8389 0.5000 0.1389
v 0.4500 0.5000 0.3000
f 310/21 309/21 308/21 307/21
v 0.8093 0.8889 -0.1012
v 0.8093 0.8889 -0.3988
v 1.0000 0.5000 -0.2500
v 0.8389 0.5000 0.1389
f 314/21 313/21 312/21 311/21
v 0.8093 0.8889 -0.3988
v 0.5988 0.8889 -0.6093
v 0.8389 0.5000 -0.6389
v 1.0000 0.5000 -0.2500
f 318/21 317/21 316/21 315/21
v 0.5988 0.8889 -0.6093
v 0.3012 0.8889 -0.6093
v 0.4500 0.5000 -0.8000
v 0.8389 0.5000 -0.6389
f 322/21 321/21 320/21 319/21
v 0.3012 0.8889 -0.6093
v 0.0907 0.8889 -0.3988
v 0.0611 0.5000 -0.6389
v 0.4500 0.5000 -0.8000
f 326/21 325/21 324/21 323/21
v 0.0907 0.8889 -0.3988
v 0.0907 0.8889 -0.1012
v -0.1000 0.5000 -0.2500
v 0.0611 0.5000 -0.6389
f 330/21 329/21 328/21 327/21
v -0.1000 0.5000 -0.2500
v 0.0611 0.5000 0.1389
v 0.3012 0.1111 0.1093
v 0.0907 0.1111 -0.1012
f 334/21 333/21 332/21 331/21
v 0.0611 0.5000 0.1389
v 0.4500 0.5000 0.3000
v 0.5988 0.1111 0.1093
v 0.3012 0.1111 0.1093
f 338/21 337/21 336/21 335/21
v 0.4500 0.5000 0.3000
v 0.8389 0.5000 0.1389
v 0.8093 0.1111 -0.1012
v 0.5988 0.1111 0.1093
f 342/21 341/21 340/21 339/21
v 0.8389 0.5000 0.1389
v 1.0000 0.5000 -0.2500
v 0.8093 0.1111 -0.3988
v 0.8093 0.1111 -0.1012
f 346/21 345/21 344/21 343/21
v 1.0000 0.5000 -0.2500
v 0.8389 0.5000 -0.6389
v 0.5988 0.1111 -0.6093
v 0.8093 0.1111 -0.3988
f 350/21 349/21 348/21 347/21
v 0.8389 0.5000 -0.6389
v 0.4500 0.5000 -0.8000
v 0.3012 0.1111 -0.6093
v 0.5988 0.1111 -0.6093
f 354/21 353/21 352/21 351/21
v 0.4500 0.5000 -0.8000
v 0.0611 0.5000 -0.6389
v 0.0907 0.1111 -0.3988
v 0.3012 0.1111 -0.6093
f 358/21 357/21 356/21 355/21
v 0.0611 0.5000 -0.6389
v -0.1000 0.5000 -0.2500
v 0.0907 0.1111 -0.1012
v 0.0907 0.1111 -0.3988
f 362/21 361/21 360/21 359/21
v 0.0907 0.1111 -0.1012
v 0.3012 0.1111 0.1093
v 0.4500 -0.0500 -0.2500
f 365/21 364/21 363/21
v 0.3012 0.1111 0.1093
v 0.5988 0.1111 0.1093
v 0.4500 -0.0500 -0.2500
f 368/21 367/21 366/21
v 0.5988 0.1111 0.1093
v 0.8093 0.1111 -0.1012
v 0.4500 -0.0500 -0.2500
f 371/21 370/21 369/21
v 0.8093 0.1111 -0.1012
v 0.8093 0.1111 -0.3988
v 0.4500 -0.0500 -0.2500
f 374/21 373/21 372/21
v 0.8093 0.1111 -0.3988
v 0.5988 0.1111 -0.6093
v 0.4500 -0.0500 -0.2500
f 377/21 376/21 375/21
v 0.5988 0.1111 -0.6093
v 0.3012 0.1111 -0.6093
v 0.4500 -0.0500 -0.2500
f 380/21 379/21 378/21
v 0.3012 0.1111 -0.6093
v 0.0907 0.1111 -0.3988
v 0.4500 -0.0500 -0.2500
f 383/21 382/21 381/21
v 0.0907 0.1111 -0.3988
v 0.0907 0.1111 -0.1012
v 0.4500 -0.0500 -0.2500
f 386/21 385/21 384/21
v -0.1000 0.9500 -0.5500
v -0.2218 0.8182 -0.2560
v -0.3940 0.8182 -0.4282
f 389/20 388/20 387/20
v -0.1000 0.9500 -0.5500
v 0.0218 0.8182 -0.2560
v -0.2218 0.8182 -0.2560
f 392/20 391/20 390/20
v -0.1000 0.9500 -0.5500
v 0.1940 0.8182 -0.4282
v 0.0218 0.8182 -0.2560
f 395/20 394/20 393/20
v -0.1000 0.9500 -0.5500
v 0.1940 0.8182 -0.6718
v 0.1940 0.8182 -0.4282
f 398/20 397/20 396/20
v -0.1000 0.9500 -0.5500
v 0.0218 0.8182 -0.8440
v 0.1940 0.8182 -0.6718
f 401/20 400/20 399/20
v -0.1000 0.9500 -0.5500
v -0.2218 0.8182 -0.8440
v 0.0218 0.8182 -0.8440
f 404/20 403/20 402/20
v -0.1000 0.9500 -0.5500
v -0.3940 0.8182 -0.6718
v -0.2218 0.8182 -0.8440
f 407/20 406/20 405/20
v -0.1000 0.9500 -0.5500
v -0.3940 0.8182 -0.4282
v -0.3940 0.8182 -0.6718
f 410/20 409/20 408/20
v -0.3940 0.8182 -0.4282
v -0.2218 0.8182 -0.2560
v -0.4182 0.5000 -0.2318
v -0.5500 0.5000 -0.5500
f 414/20 413/20 412/20 411/20
v -0.2218 0.8182 -0.2560
v 0.0218 0.8182 -0.2560
v -0.1000 0.5000 -0.1000
v -0.4182 0.5000 -0.2318
f 418/20 417/20 416/20 415/20
v 0.0218 0.8182 -0.2560
v 0.1940 0.8182 -0.4282
v 0.2182 0.5000 -0.2318
v -0.1000 0.5000 -0.1000
f 422/20 421/20 420/20 419/20
v 0.1940 0.8182 -0.4282
v 0.1940 0.8182 -0.6718
v 0.3500 0.5000 -0.5500
v 0.2182 0.5000 -0.2318
f 426/20 425/20 424/20 423/20
v 0.1940 0.8182 -0.6718
v 0.0218 0.8182 -0.8440
v 0.2182 0.5000 -0.8682
v 0.3500 0.5000 -0.5500
f 430/20 429/20 428/20 427/20
v 0.0218 0.8182 -0.8440
v -0.2218 0.8182 -0.8440
v -0.1000 0.5000 -1.0000
v 0.2182 0.5000 -0.8682
f 434/20 433/20 432/20 431/20
v -0.2218 0.8182 -0.8440
v -0.3940 0.8182 -0.6718
v -0.4182 0.5000 -0.8682
v -0.1000 0.5000 -1.0000
f 438/20 437/20 436/20 435/20
v -0.3940 0.8182 -0.6718
v -0.3940 0.8182 -0.4282
v -0.5500 0.5000 -0.5500
v -0.4182 0.5000 -0.8682
f 442/20 441/20 440/20 439/20
v -0.5500 0.5000 -0.5500
v -0.4182 0.5000 -0.2318
v -0.2218 0.1818 -0.2560
v -0.3940 0.1818 -0.4282
f 446/20 445/20 444/20 443/20
v -0.4182 0.5000 -0.2318
v -0.1000 0.5000 -0.1000
v 0.0218 0.1818 -0.2560
v -0.2218 0.1818 -0.2560
f 450/20 449/20 448/20 447/20
v -0.1000 0.5000 -0.1000
v 0.2182 0.5000 -0.2318
v 0.1940 0.1818 -0.4282
v 0.0218 0.1818 -0.2560
f 454/20 453/20 452/20 451/20
v 0.2182 0.5000 -0.2318
v 0.3500 0.5000 -0.5500
v 0.1940 0.1818 -0.6718
v 0.1940 0.1818 -0.4282
f 458/20 457/20 456/20 455/20
v 0.3500 0.5000 -0.5500
v 0.2182 0.5000 -0.8682
v 0.0218 0.1818 -0.8440
v 0.1940 0.1818 -0.6718
f 462/20 461/20 460/20 459/20
v 0.2182 0.5000 -0.8682
v -0.1000 0.5000 -1.0000
v -0.2218 0.1818 -0.8440
v 0.0218 0.1818 -0.8440
f 466/20 465/20 464/20 463/20
v -0.1000 0.5000 -1.0000
v -0.4182 0.5000 -0.8682
v -0.3940 0.1818 -0.6718
v -0.2218 0.1818 -0.8440
f 470/20 469/20 468/20 467/20
v -0.4182 0.5000 -0.8682
v -0.5500 0.5000 -0.5500
v -0.3940 0.1818 -0.4282
v -0.3940 0.1818 -0.6718
f 474/20 473/20 472/20 471/20
v -0.3940 0.1818 -0.4282
v -0.2218 0.1818 -0.2560
v -0.1000 0.0500 -0.5500
f 477/20 476/20 475/20
v -0.2218 0.1818 -0.2560
v 0.0218 0.1818 -0.2560
v -0.1000 0.0500 -0.5500
f 480/20 479/20 478/20
v 0.0218 0.1818 -0.2560
v 0.1940 0.1818 -0.4282
v -0.1000 0.0500 -0.5500
f 483/20 482/20 481/20
v 0.1940 0.1818 -0.4282
v 0.1940 0.1818 -0.6718
v -0.1000 0.0500 -0.5500
f 486/20 485/20 484/20
v 0.1940 0.1818 -0.6718
v 0.0218 0.1818 -0.8440
v -0.1000 0.0500 -0.5500
f 489/20 488/20 487/20
v 0.0218 0.1818 -0.8440
v -0.2218 0.1818 -0.8440
v -0.1000 0.0500 -0.5500
f 492/20 491/20 490/20
v -0.2218 0.1818 -0.8440
v -0.3940 0.1818 -0.6718
v -0.1000 0.0500 -0.5500
f 495/20 494/20 493/20
v -0.3940 0.1818 -0.6718
v -0.3940 0.1818 -0.4282
v -0.1000 0.0500 -0.5500
f 498/20 497/20 496/20
v 0.2000 1.7000 0.2000
v 0.0782 1.5682 0.4940
v -0.0940 1.5682 0.3218
f 501/20 500/20 499/20
v 0.2000 1.7000 0.2000
v 0.3218 1.5682 0.4940
v 0.0782 1.5682 0.4940
f 504/20 503/20 502/20
v 0.2000 1.7000 0.2000
v 0.4940 1.5682 0.3218
v 0.3218 1.5682 0.4940
f 507/20 506/20 505/20
v 0.2000 1.7000 0.2000
v 0.4940 1.5682 0.0782
v 0.4940 1.5682 0.3218
f 510/20 509/20 508/20
v 0.2000 1.7000 0.2000
v 0.3218 1.5682 -0.0940
v 0.4940 1.5682 0.0782
f 513/20 512/20 511/20
v 0.2000 1.7000 0.2000
v 0.0782 1.5682 -0.0940
v 0.3218 1.5682 -0.0940
f 516/20 515/20 514/20
v 0.2000 1.7000 0.2000
v -0.0940 1.5682 0.0782
v 0.0782 1.5682 -0.0940
f 519/20 518/20 517/20
v 0.2000 1.7000 0.2000
v -0.0940 1.5682 0.3218
v -0.0940 1.5682 0.0782
f 522/20 521/20 520/20
v -0.0940 1.5682 0.3218
v 0.0782 1.5682 0.4940
v -0.1182 1.2500 0.5182
v -0.2500 1.2500 0.2000
f 526/20 525/20 524/20 523/20
v 0.0782 1.5682 0.4940
v 0.3218 1.5682 0.4940
v 0.2000 1.2500 0.6500
v -0.1182 1.2500 0.5182
f 530/20 529/20 528/20 527/20
v 0.3218 1.5682 0.4940
v 0.4940 1.5682 0.3218
v 0.5182 1.2500 0.5182
v 0.2000 1.2500 0.6500
f 534/20 533/20 532/20 531/20
v 0.4940 1.5682 0.3218
v 0.4940 1.5682 0.0782
v 0.6500 1.2500 0.2000
v 0.5182 1.2500 0.5182
f 538/20 537/20 536/20 535/20
v 0.4940 1.5682 0.0782
v 0.3218 1.5682 -0.0940
v 0.5182 1.2500 -0.1182
v 0.6500 1.2500 0.2000
f 542/20 541/20 540/20 539/20
v 0.3218 1.5682 -0.0940
v 0.0782 1.5682 -0.0940
v 0.2000 1.2500 -0.2500
v 0.5182 1.2500 -0.1182
f 546/20 545/20 544/20 543/20
v 0.0782 1.5682 -0.0940
v -0.0940 1.5682 0.0782
v -0.1182 1.2500 -0.1182
v 0.2000 1.2500 -0.2500
f 550/20 549/20 548/20 547/20
v -0.0940 1.5682 0.0782
v -0.0940 1.5682 0.3218
v -0.2500 1.2500 0.2000
v -0.1182 1.2500 -0.1182
f 554/20 553/20 552/20 551/20
v -0.2500 1.2500 0.2000
v -0.1182 1.2500 0.5182
v 0.0782 0.9318 0.4940
v -0.0940 0.9318 0.3218
f 558/20 557/20 556/20 555/20
v -0.1182 1.2500 0.5182
v 0.2000 1.2500 0.6500
v 0.3218 0.9318 0.4940
v 0.0782 0.9318 0.4940
f 562/20 561/20 560/20 559/20
v 0.2000 1.2500 0.6500
v 0.5182 1.2500 0.5182
v 0.4940 0.9318 0.3218
v 0.3218 0.9318 0.4940
f 566/20 565/20 564/20 563/20
v 0.5182 1.2500 0.5182
v 0.6500 1.2500 0.2000
v 0.4940 0.9318 0.0782
v 0.4940 0.9318 0.3218
f 570/20 569/20 568/20 567/20
v 0.6500 1.2500 0.2000
v 0.5182 1.2500 -0.1182
v 0.3218 0.9318 -0.0940
v 0.4940 0.9318 0.0782
f 574/20 573/20 572/20 571/20
v 0.5182 1.2500 -0.1182
v 0.2000 1.2500 -0.2500
v 0.0782 0.9318 -0.0940
v 0.3218 0.9318 -0.0940
f 578/20 577/20 576/20 575/20
v 0.2000 1.2500 -0.2500
v -0.1182 1.2500 -0.1182
v -0.0940 0.9318 0.0782
v 0.0782 0.9318 -0.0940
f 582/20 581/20 580/20 579/20
v -0.1182 1.2500 -0.1182
v -0.2500 1.2500 0.2000
v -0.0940 0.9318 0.3218
v -0.0940 0.9318 0.0782
f 586/20 585/20 584/20 583/20
v -0.0940 0.9318 0.3218
v 0.0782 0.9318 0.4940
v 0.2000 0.8000 0.2000
f 589/20 588/20 587/20
v 0.0782 0.9318 0.4940
v 0.3218 0.9318 0.4940
v 0.2000 0.8000 0.2000
f 592/20 591/20 590/20
v 0.3218 0.9318 0.4940
v 0.4940 0.9318 0.3218
v 0.2000 0.8000 0.2000
f 595/20 594/20 593/20
v 0.4940 0.9318 0.3218
v 0.4940 0.9318 0.0782
v 0.2000 0.8000 0.2000
f 598/20 597/20 596/20
v 0.4940 0.9318 0.0782
v 0.3218 0.9318 -0.0940
v 0.2000 0.8000 0.2000
f 601/20 600/20 599/20
v 0.3218 0.9318 -0.0940
v 0.0782 0.9318 -0.0940
v 0.2000 0.8000 0.2000
f 604/20 603/20 602/20
v 0.0782 0.9318 -0.0940
v -0.0940 0.9318 0.0782
v 0.2000 0.8000 0.2000
f 607/20 606/20 605/20
v -0.0940 0.9318 0.0782
v -0.0940 0.9318 0.3218
v 0.2000 0.8000 0.2000
f 610/20 609/20 608/20
