# Walk of Industry low-poly (generated, wi_lib.py)
mtllib wi.mtl
vt 0 0
vt 0.03125 0.03125
vt 0.09375 0.03125
vt 0.15625 0.03125
vt 0.21875 0.03125
vt 0.28125 0.03125
vt 0.34375 0.03125
vt 0.40625 0.03125
vt 0.46875 0.03125
vt 0.53125 0.03125
vt 0.59375 0.03125
vt 0.65625 0.03125
vt 0.71875 0.03125
vt 0.78125 0.03125
vt 0.84375 0.03125
vt 0.90625 0.03125
vt 0.96875 0.03125
vt 0.03125 0.09375
vt 0.09375 0.09375
vt 0.15625 0.09375
vt 0.21875 0.09375
vt 0.28125 0.09375
vt 0.34375 0.09375
vt 0.40625 0.09375
vt 0.46875 0.09375
vt 0.53125 0.09375
vt 0.59375 0.09375
vt 0.65625 0.09375
vt 0.71875 0.09375
vt 0.78125 0.09375
vt 0.84375 0.09375
vt 0.90625 0.09375
vt 0.96875 0.09375
o Body
usemtl wi_palette
v -0.2329 0.0000 0.8693
v -0.6364 0.0000 0.6364
v -0.6364 0.1200 0.6364
v -0.2329 0.1200 0.8693
f 4/6 3/6 2/6 1/6
v -0.6364 0.0000 0.6364
v -0.8693 0.0000 0.2329
v -0.8693 0.1200 0.2329
v -0.6364 0.1200 0.6364
f 8/6 7/6 6/6 5/6
v -0.8693 0.0000 0.2329
v -0.8693 0.0000 -0.2329
v -0.8693 0.1200 -0.2329
v -0.8693 0.1200 0.2329
f 12/6 11/6 10/6 9/6
v -0.8693 0.0000 -0.2329
v -0.6364 0.0000 -0.6364
v -0.6364 0.1200 -0.6364
v -0.8693 0.1200 -0.2329
f 16/6 15/6 14/6 13/6
v -0.6364 0.0000 -0.6364
v -0.2329 0.0000 -0.8693
v -0.2329 0.1200 -0.8693
v -0.6364 0.1200 -0.6364
f 20/6 19/6 18/6 17/6
v -0.2329 0.0000 -0.8693
v 0.2329 0.0000 -0.8693
v 0.2329 0.1200 -0.8693
v -0.2329 0.1200 -0.8693
f 24/6 23/6 22/6 21/6
v 0.2329 0.0000 -0.8693
v 0.6364 0.0000 -0.6364
v 0.6364 0.1200 -0.6364
v 0.2329 0.1200 -0.8693
f 28/6 27/6 26/6 25/6
v 0.6364 0.0000 -0.6364
v 0.8693 0.0000 -0.2329
v 0.8693 0.1200 -0.2329
v 0.6364 0.1200 -0.6364
f 32/6 31/6 30/6 29/6
v 0.8693 0.0000 -0.2329
v 0.8693 0.0000 0.2329
v 0.8693 0.1200 0.2329
v 0.8693 0.1200 -0.2329
f 36/6 35/6 34/6 33/6
v 0.8693 0.0000 0.2329
v 0.6364 0.0000 0.6364
v 0.6364 0.1200 0.6364
v 0.8693 0.1200 0.2329
f 40/6 39/6 38/6 37/6
v 0.6364 0.0000 0.6364
v 0.2329 0.0000 0.8693
v 0.2329 0.1200 0.8693
v 0.6364 0.1200 0.6364
f 44/6 43/6 42/6 41/6
v 0.2329 0.0000 0.8693
v -0.2329 0.0000 0.8693
v -0.2329 0.1200 0.8693
v 0.2329 0.1200 0.8693
f 48/6 47/6 46/6 45/6
v 0.2329 0.0000 0.8693
v 0.6364 0.0000 0.6364
v 0.8693 0.0000 0.2329
v 0.8693 0.0000 -0.2329
v 0.6364 0.0000 -0.6364
v 0.2329 0.0000 -0.8693
v -0.2329 0.0000 -0.8693
v -0.6364 0.0000 -0.6364
v -0.8693 0.0000 -0.2329
v -0.8693 0.0000 0.2329
v -0.6364 0.0000 0.6364
v -0.2329 0.0000 0.8693
f 60/6 59/6 58/6 57/6 56/6 55/6 54/6 53/6 52/6 51/6 50/6 49/6
v -0.2329 0.1200 0.8693
v -0.6364 0.1200 0.6364
v -0.8693 0.1200 0.2329
v -0.8693 0.1200 -0.2329
v -0.6364 0.1200 -0.6364
v -0.2329 0.1200 -0.8693
v 0.2329 0.1200 -0.8693
v 0.6364 0.1200 -0.6364
v 0.8693 0.1200 -0.2329
v 0.8693 0.1200 0.2329
v 0.6364 0.1200 0.6364
v 0.2329 0.1200 0.8693
f 72/6 71/6 70/6 69/6 68/6 67/6 66/6 65/6 64/6 63/6 62/6 61/6
v -0.1941 0.1200 0.7244
v -0.5303 0.1200 0.5303
v -0.5303 0.2000 0.5303
v -0.1941 0.2000 0.7244
f 76/7 75/7 74/7 73/7
v -0.5303 0.1200 0.5303
v -0.7244 0.1200 0.1941
v -0.7244 0.2000 0.1941
v -0.5303 0.2000 0.5303
f 80/7 79/7 78/7 77/7
v -0.7244 0.1200 0.1941
v -0.7244 0.1200 -0.1941
v -0.7244 0.2000 -0.1941
v -0.7244 0.2000 0.1941
f 84/7 83/7 82/7 81/7
v -0.7244 0.1200 -0.1941
v -0.5303 0.1200 -0.5303
v -0.5303 0.2000 -0.5303
v -0.7244 0.2000 -0.1941
f 88/7 87/7 86/7 85/7
v -0.5303 0.1200 -0.5303
v -0.1941 0.1200 -0.7244
v -0.1941 0.2000 -0.7244
v -0.5303 0.2000 -0.5303
f 92/7 91/7 90/7 89/7
v -0.1941 0.1200 -0.7244
v 0.1941 0.1200 -0.7244
v 0.1941 0.2000 -0.7244
v -0.1941 0.2000 -0.7244
f 96/7 95/7 94/7 93/7
v 0.1941 0.1200 -0.7244
v 0.5303 0.1200 -0.5303
v 0.5303 0.2000 -0.5303
v 0.1941 0.2000 -0.7244
f 100/7 99/7 98/7 97/7
v 0.5303 0.1200 -0.5303
v 0.7244 0.1200 -0.1941
v 0.7244 0.2000 -0.1941
v 0.5303 0.2000 -0.5303
f 104/7 103/7 102/7 101/7
v 0.7244 0.1200 -0.1941
v 0.7244 0.1200 0.1941
v 0.7244 0.2000 0.1941
v 0.7244 0.2000 -0.1941
f 108/7 107/7 106/7 105/7
v 0.7244 0.1200 0.1941
v 0.5303 0.1200 0.5303
v 0.5303 0.2000 0.5303
v 0.7244 0.2000 0.1941
f 112/7 111/7 110/7 109/7
v 0.5303 0.1200 0.5303
v 0.1941 0.1200 0.7244
v 0.1941 0.2000 0.7244
v 0.5303 0.2000 0.5303
f 116/7 115/7 114/7 113/7
v 0.1941 0.1200 0.7244
v -0.1941 0.1200 0.7244
v -0.1941 0.2000 0.7244
v 0.1941 0.2000 0.7244
f 120/7 119/7 118/7 117/7
v 0.1941 0.1200 0.7244
v 0.5303 0.1200 0.5303
v 0.7244 0.1200 0.1941
v 0.7244 0.1200 -0.1941
v 0.5303 0.1200 -0.5303
v 0.1941 0.1200 -0.7244
v -0.1941 0.1200 -0.7244
v -0.5303 0.1200 -0.5303
v -0.7244 0.1200 -0.1941
v -0.7244 0.1200 0.1941
v -0.5303 0.1200 0.5303
v -0.1941 0.1200 0.7244
f 132/7 131/7 130/7 129/7 128/7 127/7 126/7 125/7 124/7 123/7 122/7 121/7
v -0.1941 0.2000 0.7244
v -0.5303 0.2000 0.5303
v -0.7244 0.2000 0.1941
v -0.7244 0.2000 -0.1941
v -0.5303 0.2000 -0.5303
v -0.1941 0.2000 -0.7244
v 0.1941 0.2000 -0.7244
v 0.5303 0.2000 -0.5303
v 0.7244 0.2000 -0.1941
v 0.7244 0.2000 0.1941
v 0.5303 0.2000 0.5303
v 0.1941 0.2000 0.7244
f 144/7 143/7 142/7 141/7 140/7 139/7 138/7 137/7 136/7 135/7 134/7 133/7
v -0.0927 0.2000 0.2853
v -0.2427 0.2000 0.1763
v -0.1618 0.3200 0.1176
v -0.0618 0.3200 0.1902
f 148/6 147/6 146/6 145/6
v -0.2427 0.2000 0.1763
v -0.3000 0.2000 0.0000
v -0.2000 0.3200 0.0000
v -0.1618 0.3200 0.1176
f 152/6 151/6 150/6 149/6
v -0.3000 0.2000 0.0000
v -0.2427 0.2000 -0.1763
v -0.1618 0.3200 -0.1176
v -0.2000 0.3200 0.0000
f 156/6 155/6 154/6 153/6
v -0.2427 0.2000 -0.1763
v -0.0927 0.2000 -0.2853
v -0.0618 0.3200 -0.1902
v -0.1618 0.3200 -0.1176
f 160/6 159/6 158/6 157/6
v -0.0927 0.2000 -0.2853
v 0.0927 0.2000 -0.2853
v 0.0618 0.3200 -0.1902
v -0.0618 0.3200 -0.1902
f 164/6 163/6 162/6 161/6
v 0.0927 0.2000 -0.2853
v 0.2427 0.2000 -0.1763
v 0.1618 0.3200 -0.1176
v 0.0618 0.3200 -0.1902
f 168/6 167/6 166/6 165/6
v 0.2427 0.2000 -0.1763
v 0.3000 0.2000 -0.0000
v 0.2000 0.3200 -0.0000
v 0.1618 0.3200 -0.1176
f 172/6 171/6 170/6 169/6
v 0.3000 0.2000 -0.0000
v 0.2427 0.2000 0.1763
v 0.1618 0.3200 0.1176
v 0.2000 0.3200 -0.0000
f 176/6 175/6 174/6 173/6
v 0.2427 0.2000 0.1763
v 0.0927 0.2000 0.2853
v 0.0618 0.3200 0.1902
v 0.1618 0.3200 0.1176
f 180/6 179/6 178/6 177/6
v 0.0927 0.2000 0.2853
v -0.0927 0.2000 0.2853
v -0.0618 0.3200 0.1902
v 0.0618 0.3200 0.1902
f 184/6 183/6 182/6 181/6
v 0.0927 0.2000 0.2853
v 0.2427 0.2000 0.1763
v 0.3000 0.2000 -0.0000
v 0.2427 0.2000 -0.1763
v 0.0927 0.2000 -0.2853
v -0.0927 0.2000 -0.2853
v -0.2427 0.2000 -0.1763
v -0.3000 0.2000 0.0000
v -0.2427 0.2000 0.1763
v -0.0927 0.2000 0.2853
f 194/6 193/6 192/6 191/6 190/6 189/6 188/6 187/6 186/6 185/6
v -0.0618 0.3200 0.1902
v -0.1618 0.3200 0.1176
v -0.2000 0.3200 0.0000
v -0.1618 0.3200 -0.1176
v -0.0618 0.3200 -0.1902
v 0.0618 0.3200 -0.1902
v 0.1618 0.3200 -0.1176
v 0.2000 0.3200 -0.0000
v 0.1618 0.3200 0.1176
v 0.0618 0.3200 0.1902
f 204/6 203/6 202/6 201/6 200/6 199/6 198/6 197/6 196/6 195/6
o Lamp
usemtl wi_palette
v -0.0556 0.3200 0.1712
v -0.1456 0.3200 0.1058
v -0.1456 0.3500 0.1058
v -0.0556 0.3500 0.1712
f 208/33 207/33 206/33 205/33
v -0.1456 0.3200 0.1058
v -0.1800 0.3200 0.0000
v -0.1800 0.3500 0.0000
v -0.1456 0.3500 0.1058
f 212/33 211/33 210/33 209/33
v -0.1800 0.3200 0.0000
v -0.1456 0.3200 -0.1058
v -0.1456 0.3500 -0.1058
v -0.1800 0.3500 0.0000
f 216/33 215/33 214/33 213/33
v -0.1456 0.3200 -0.1058
v -0.0556 0.3200 -0.1712
v -0.0556 0.3500 -0.1712
v -0.1456 0.3500 -0.1058
f 220/33 219/33 218/33 217/33
v -0.0556 0.3200 -0.1712
v 0.0556 0.3200 -0.1712
v 0.0556 0.3500 -0.1712
v -0.0556 0.3500 -0.1712
f 224/33 223/33 222/33 221/33
v 0.0556 0.3200 -0.1712
v 0.1456 0.3200 -0.1058
v 0.1456 0.3500 -0.1058
v 0.0556 0.3500 -0.1712
f 228/33 227/33 226/33 225/33
v 0.1456 0.3200 -0.1058
v 0.1800 0.3200 -0.0000
v 0.1800 0.3500 -0.0000
v 0.1456 0.3500 -0.1058
f 232/33 231/33 230/33 229/33
v 0.1800 0.3200 -0.0000
v 0.1456 0.3200 0.1058
v 0.1456 0.3500 0.1058
v 0.1800 0.3500 -0.0000
f 236/33 235/33 234/33 233/33
v 0.1456 0.3200 0.1058
v 0.0556 0.3200 0.1712
v 0.0556 0.3500 0.1712
v 0.1456 0.3500 0.1058
f 240/33 239/33 238/33 237/33
v 0.0556 0.3200 0.1712
v -0.0556 0.3200 0.1712
v -0.0556 0.3500 0.1712
v 0.0556 0.3500 0.1712
f 244/33 243/33 242/33 241/33
v 0.0556 0.3200 0.1712
v 0.1456 0.3200 0.1058
v 0.1800 0.3200 -0.0000
v 0.1456 0.3200 -0.1058
v 0.0556 0.3200 -0.1712
v -0.0556 0.3200 -0.1712
v -0.1456 0.3200 -0.1058
v -0.1800 0.3200 0.0000
v -0.1456 0.3200 0.1058
v -0.0556 0.3200 0.1712
f 254/33 253/33 252/33 251/33 250/33 249/33 248/33 247/33 246/33 245/33
v -0.0556 0.3500 0.1712
v -0.1456 0.3500 0.1058
v -0.1800 0.3500 0.0000
v -0.1456 0.3500 -0.1058
v -0.0556 0.3500 -0.1712
v 0.0556 0.3500 -0.1712
v 0.1456 0.3500 -0.1058
v 0.1800 0.3500 -0.0000
v 0.1456 0.3500 0.1058
v 0.0556 0.3500 0.1712
f 264/33 263/33 262/33 261/33 260/33 259/33 258/33 257/33 256/33 255/33
v -0.7600 0.1100 0.0400
v -0.7600 0.1500 0.0400
v -0.7600 0.1500 -0.0400
v -0.7600 0.1100 -0.0400
f 268/33 267/33 266/33 265/33
v -0.8400 0.1100 -0.0400
v -0.8400 0.1500 -0.0400
v -0.8400 0.1500 0.0400
v -0.8400 0.1100 0.0400
f 272/33 271/33 270/33 269/33
v -0.7600 0.1100 -0.0400
v -0.8400 0.1100 -0.0400
v -0.8400 0.1100 0.0400
v -0.7600 0.1100 0.0400
f 276/33 275/33 274/33 273/33
v -0.7600 0.1500 0.0400
v -0.8400 0.1500 0.0400
v -0.8400 0.1500 -0.0400
v -0.7600 0.1500 -0.0400
f 280/33 279/33 278/33 277/33
v -0.7600 0.1500 -0.0400
v -0.8400 0.1500 -0.0400
v -0.8400 0.1100 -0.0400
v -0.7600 0.1100 -0.0400
f 284/33 283/33 282/33 281/33
v -0.7600 0.1100 0.0400
v -0.8400 0.1100 0.0400
v -0.8400 0.1500 0.0400
v -0.7600 0.1500 0.0400
f 288/33 287/33 286/33 285/33
v -0.5257 0.1100 0.6057
v -0.5257 0.1500 0.6057
v -0.5257 0.1500 0.5257
v -0.5257 0.1100 0.5257
f 292/33 291/33 290/33 289/33
v -0.6057 0.1100 0.5257
v -0.6057 0.1500 0.5257
v -0.6057 0.1500 0.6057
v -0.6057 0.1100 0.6057
f 296/33 295/33 294/33 293/33
v -0.5257 0.1100 0.5257
v -0.6057 0.1100 0.5257
v -0.6057 0.1100 0.6057
v -0.5257 0.1100 0.6057
f 300/33 299/33 298/33 297/33
v -0.5257 0.1500 0.6057
v -0.6057 0.1500 0.6057
v -0.6057 0.1500 0.5257
v -0.5257 0.1500 0.5257
f 304/33 303/33 302/33 301/33
v -0.5257 0.1500 0.5257
v -0.6057 0.1500 0.5257
v -0.6057 0.1100 0.5257
v -0.5257 0.1100 0.5257
f 308/33 307/33 306/33 305/33
v -0.5257 0.1100 0.6057
v -0.6057 0.1100 0.6057
v -0.6057 0.1500 0.6057
v -0.5257 0.1500 0.6057
f 312/33 311/33 310/33 309/33
v 0.0400 0.1100 0.8400
v 0.0400 0.1500 0.8400
v 0.0400 0.1500 0.7600
v 0.0400 0.1100 0.7600
f 316/33 315/33 314/33 313/33
v -0.0400 0.1100 0.7600
v -0.0400 0.1500 0.7600
v -0.0400 0.1500 0.8400
v -0.0400 0.1100 0.8400
f 320/33 319/33 318/33 317/33
v 0.0400 0.1100 0.7600
v -0.0400 0.1100 0.7600
v -0.0400 0.1100 0.8400
v 0.0400 0.1100 0.8400
f 324/33 323/33 322/33 321/33
v 0.0400 0.1500 0.8400
v -0.0400 0.1500 0.8400
v -0.0400 0.1500 0.7600
v 0.0400 0.1500 0.7600
f 328/33 327/33 326/33 325/33
v 0.0400 0.1500 0.7600
v -0.0400 0.1500 0.7600
v -0.0400 0.1100 0.7600
v 0.0400 0.1100 0.7600
f 332/33 331/33 330/33 329/33
v 0.0400 0.1100 0.8400
v -0.0400 0.1100 0.8400
v -0.0400 0.1500 0.8400
v 0.0400 0.1500 0.8400
f 336/33 335/33 334/33 333/33
v 0.6057 0.1100 0.6057
v 0.6057 0.1500 0.6057
v 0.6057 0.1500 0.5257
v 0.6057 0.1100 0.5257
f 340/33 339/33 338/33 337/33
v 0.5257 0.1100 0.5257
v 0.5257 0.1500 0.5257
v 0.5257 0.1500 0.6057
v 0.5257 0.1100 0.6057
f 344/33 343/33 342/33 341/33
v 0.6057 0.1100 0.5257
v 0.5257 0.1100 0.5257
v 0.5257 0.1100 0.6057
v 0.6057 0.1100 0.6057
f 348/33 347/33 346/33 345/33
v 0.6057 0.1500 0.6057
v 0.5257 0.1500 0.6057
v 0.5257 0.1500 0.5257
v 0.6057 0.1500 0.5257
f 352/33 351/33 350/33 349/33
v 0.6057 0.1500 0.5257
v 0.5257 0.1500 0.5257
v 0.5257 0.1100 0.5257
v 0.6057 0.1100 0.5257
f 356/33 355/33 354/33 353/33
v 0.6057 0.1100 0.6057
v 0.5257 0.1100 0.6057
v 0.5257 0.1500 0.6057
v 0.6057 0.1500 0.6057
f 360/33 359/33 358/33 357/33
v 0.8400 0.1100 0.0400
v 0.8400 0.1500 0.0400
v 0.8400 0.1500 -0.0400
v 0.8400 0.1100 -0.0400
f 364/33 363/33 362/33 361/33
v 0.7600 0.1100 -0.0400
v 0.7600 0.1500 -0.0400
v 0.7600 0.1500 0.0400
v 0.7600 0.1100 0.0400
f 368/33 367/33 366/33 365/33
v 0.8400 0.1100 -0.0400
v 0.7600 0.1100 -0.0400
v 0.7600 0.1100 0.0400
v 0.8400 0.1100 0.0400
f 372/33 371/33 370/33 369/33
v 0.8400 0.1500 0.0400
v 0.7600 0.1500 0.0400
v 0.7600 0.1500 -0.0400
v 0.8400 0.1500 -0.0400
f 376/33 375/33 374/33 373/33
v 0.8400 0.1500 -0.0400
v 0.7600 0.1500 -0.0400
v 0.7600 0.1100 -0.0400
v 0.8400 0.1100 -0.0400
f 380/33 379/33 378/33 377/33
v 0.8400 0.1100 0.0400
v 0.7600 0.1100 0.0400
v 0.7600 0.1500 0.0400
v 0.8400 0.1500 0.0400
f 384/33 383/33 382/33 381/33
v 0.6057 0.1100 -0.5257
v 0.6057 0.1500 -0.5257
v 0.6057 0.1500 -0.6057
v 0.6057 0.1100 -0.6057
f 388/33 387/33 386/33 385/33
v 0.5257 0.1100 -0.6057
v 0.5257 0.1500 -0.6057
v 0.5257 0.1500 -0.5257
v 0.5257 0.1100 -0.5257
f 392/33 391/33 390/33 389/33
v 0.6057 0.1100 -0.6057
v 0.5257 0.1100 -0.6057
v 0.5257 0.1100 -0.5257
v 0.6057 0.1100 -0.5257
f 396/33 395/33 394/33 393/33
v 0.6057 0.1500 -0.5257
v 0.5257 0.1500 -0.5257
v 0.5257 0.1500 -0.6057
v 0.6057 0.1500 -0.6057
f 400/33 399/33 398/33 397/33
v 0.6057 0.1500 -0.6057
v 0.5257 0.1500 -0.6057
v 0.5257 0.1100 -0.6057
v 0.6057 0.1100 -0.6057
f 404/33 403/33 402/33 401/33
v 0.6057 0.1100 -0.5257
v 0.5257 0.1100 -0.5257
v 0.5257 0.1500 -0.5257
v 0.6057 0.1500 -0.5257
f 408/33 407/33 406/33 405/33
v 0.0400 0.1100 -0.7600
v 0.0400 0.1500 -0.7600
v 0.0400 0.1500 -0.8400
v 0.0400 0.1100 -0.8400
f 412/33 411/33 410/33 409/33
v -0.0400 0.1100 -0.8400
v -0.0400 0.1500 -0.8400
v -0.0400 0.1500 -0.7600
v -0.0400 0.1100 -0.7600
f 416/33 415/33 414/33 413/33
v 0.0400 0.1100 -0.8400
v -0.0400 0.1100 -0.8400
v -0.0400 0.1100 -0.7600
v 0.0400 0.1100 -0.7600
f 420/33 419/33 418/33 417/33
v 0.0400 0.1500 -0.7600
v -0.0400 0.1500 -0.7600
v -0.0400 0.1500 -0.8400
v 0.0400 0.1500 -0.8400
f 424/33 423/33 422/33 421/33
v 0.0400 0.1500 -0.8400
v -0.0400 0.1500 -0.8400
v -0.0400 0.1100 -0.8400
v 0.0400 0.1100 -0.8400
f 428/33 427/33 426/33 425/33
v 0.0400 0.1100 -0.7600
v -0.0400 0.1100 -0.7600
v -0.0400 0.1500 -0.7600
v 0.0400 0.1500 -0.7600
f 432/33 431/33 430/33 429/33
v -0.5257 0.1100 -0.5257
v -0.5257 0.1500 -0.5257
v -0.5257 0.1500 -0.6057
v -0.5257 0.1100 -0.6057
f 436/33 435/33 434/33 433/33
v -0.6057 0.1100 -0.6057
v -0.6057 0.1500 -0.6057
v -0.6057 0.1500 -0.5257
v -0.6057 0.1100 -0.5257
f 440/33 439/33 438/33 437/33
v -0.5257 0.1100 -0.6057
v -0.6057 0.1100 -0.6057
v -0.6057 0.1100 -0.5257
v -0.5257 0.1100 -0.5257
f 444/33 443/33 442/33 441/33
v -0.5257 0.1500 -0.5257
v -0.6057 0.1500 -0.5257
v -0.6057 0.1500 -0.6057
v -0.5257 0.1500 -0.6057
f 448/33 447/33 446/33 445/33
v -0.5257 0.1500 -0.6057
v -0.6057 0.1500 -0.6057
v -0.6057 0.1100 -0.6057
v -0.5257 0.1100 -0.6057
f 452/33 451/33 450/33 449/33
v -0.5257 0.1100 -0.5257
v -0.6057 0.1100 -0.5257
v -0.6057 0.1500 -0.5257
v -0.5257 0.1500 -0.5257
f 456/33 455/33 454/33 453/33
