# Walk of Industry low-poly (generated, wi_lib.py)
mtllib wi.mtl
vt 0 0
vt 0.03125 0.03125
vt 0.09375 0.03125
vt 0.15625 0.03125
vt 0.21875 0.03125
vt 0.28125 0.03125
vt 0.34375 0.03125
vt 0.40625 0.03125
vt 0.46875 0.03125
vt 0.53125 0.03125
vt 0.59375 0.03125
vt 0.65625 0.03125
vt 0.71875 0.03125
vt 0.78125 0.03125
vt 0.84375 0.03125
vt 0.90625 0.03125
vt 0.96875 0.03125
vt 0.03125 0.09375
vt 0.09375 0.09375
vt 0.15625 0.09375
vt 0.21875 0.09375
vt 0.28125 0.09375
vt 0.34375 0.09375
vt 0.40625 0.09375
vt 0.46875 0.09375
vt 0.53125 0.09375
vt 0.59375 0.09375
vt 0.65625 0.09375
vt 0.71875 0.09375
vt 0.78125 0.09375
vt 0.84375 0.09375
vt 0.90625 0.09375
vt 0.96875 0.09375
o Body
usemtl wi_palette
v 0.6500 0.0000 0.4000
v 0.6500 0.0800 0.4000
v 0.6500 0.0800 -0.4000
v 0.6500 0.0000 -0.4000
f 4/22 3/22 2/22 1/22
v 0.5500 0.0000 -0.4000
v 0.5500 0.0800 -0.4000
v 0.5500 0.0800 0.4000
v 0.5500 0.0000 0.4000
f 8/22 7/22 6/22 5/22
v 0.6500 0.0000 -0.4000
v 0.5500 0.0000 -0.4000
v 0.5500 0.0000 0.4000
v 0.6500 0.0000 0.4000
f 12/22 11/22 10/22 9/22
v 0.6500 0.0800 0.4000
v 0.5500 0.0800 0.4000
v 0.5500 0.0800 -0.4000
v 0.6500 0.0800 -0.4000
f 16/22 15/22 14/22 13/22
v 0.6500 0.0800 -0.4000
v 0.5500 0.0800 -0.4000
v 0.5500 0.0000 -0.4000
v 0.6500 0.0000 -0.4000
f 20/22 19/22 18/22 17/22
v 0.6500 0.0000 0.4000
v 0.5500 0.0000 0.4000
v 0.5500 0.0800 0.4000
v 0.6500 0.0800 0.4000
f 24/22 23/22 22/22 21/22
v 0.0500 0.0000 0.4000
v 0.0500 0.0800 0.4000
v 0.0500 0.0800 -0.4000
v 0.0500 0.0000 -0.4000
f 28/22 27/22 26/22 25/22
v -0.0500 0.0000 -0.4000
v -0.0500 0.0800 -0.4000
v -0.0500 0.0800 0.4000
v -0.0500 0.0000 0.4000
f 32/22 31/22 30/22 29/22
v 0.0500 0.0000 -0.4000
v -0.0500 0.0000 -0.4000
v -0.0500 0.0000 0.4000
v 0.0500 0.0000 0.4000
f 36/22 35/22 34/22 33/22
v 0.0500 0.0800 0.4000
v -0.0500 0.0800 0.4000
v -0.0500 0.0800 -0.4000
v 0.0500 0.0800 -0.4000
f 40/22 39/22 38/22 37/22
v 0.0500 0.0800 -0.4000
v -0.0500 0.0800 -0.4000
v -0.0500 0.0000 -0.4000
v 0.0500 0.0000 -0.4000
f 44/22 43/22 42/22 41/22
v 0.0500 0.0000 0.4000
v -0.0500 0.0000 0.4000
v -0.0500 0.0800 0.4000
v 0.0500 0.0800 0.4000
f 48/22 47/22 46/22 45/22
v -0.5500 0.0000 0.4000
v -0.5500 0.0800 0.4000
v -0.5500 0.0800 -0.4000
v -0.5500 0.0000 -0.4000
f 52/22 51/22 50/22 49/22
v -0.6500 0.0000 -0.4000
v -0.6500 0.0800 -0.4000
v -0.6500 0.0800 0.4000
v -0.6500 0.0000 0.4000
f 56/22 55/22 54/22 53/22
v -0.5500 0.0000 -0.4000
v -0.6500 0.0000 -0.4000
v -0.6500 0.0000 0.4000
v -0.5500 0.0000 0.4000
f 60/22 59/22 58/22 57/22
v -0.5500 0.0800 0.4000
v -0.6500 0.0800 0.4000
v -0.6500 0.0800 -0.4000
v -0.5500 0.0800 -0.4000
f 64/22 63/22 62/22 61/22
v -0.5500 0.0800 -0.4000
v -0.6500 0.0800 -0.4000
v -0.6500 0.0000 -0.4000
v -0.5500 0.0000 -0.4000
f 68/22 67/22 66/22 65/22
v -0.5500 0.0000 0.4000
v -0.6500 0.0000 0.4000
v -0.6500 0.0800 0.4000
v -0.5500 0.0800 0.4000
f 72/22 71/22 70/22 69/22
v 0.8800 0.2371 -0.3541
v 0.8800 0.2971 -0.3105
v -0.8800 0.2971 -0.3105
v -0.8800 0.2371 -0.3541
f 76/4 75/4 74/4 73/4
v 0.8800 0.2971 -0.3105
v 0.8800 0.3200 -0.2400
v -0.8800 0.3200 -0.2400
v -0.8800 0.2971 -0.3105
f 80/4 79/4 78/4 77/4
v 0.8800 0.3200 -0.2400
v 0.8800 0.2971 -0.1695
v -0.8800 0.2971 -0.1695
v -0.8800 0.3200 -0.2400
f 84/4 83/4 82/4 81/4
v 0.8800 0.2971 -0.1695
v 0.8800 0.2371 -0.1259
v -0.8800 0.2371 -0.1259
v -0.8800 0.2971 -0.1695
f 88/4 87/4 86/4 85/4
v 0.8800 0.2371 -0.1259
v 0.8800 0.1629 -0.1259
v -0.8800 0.1629 -0.1259
v -0.8800 0.2371 -0.1259
f 92/4 91/4 90/4 89/4
v 0.8800 0.1629 -0.1259
v 0.8800 0.1029 -0.1695
v -0.8800 0.1029 -0.1695
v -0.8800 0.1629 -0.1259
f 96/4 95/4 94/4 93/4
v 0.8800 0.1029 -0.1695
v 0.8800 0.0800 -0.2400
v -0.8800 0.0800 -0.2400
v -0.8800 0.1029 -0.1695
f 100/4 99/4 98/4 97/4
v 0.8800 0.0800 -0.2400
v 0.8800 0.1029 -0.3105
v -0.8800 0.1029 -0.3105
v -0.8800 0.0800 -0.2400
f 104/4 103/4 102/4 101/4
v 0.8800 0.1029 -0.3105
v 0.8800 0.1629 -0.3541
v -0.8800 0.1629 -0.3541
v -0.8800 0.1029 -0.3105
f 108/4 107/4 106/4 105/4
v 0.8800 0.1629 -0.3541
v 0.8800 0.2371 -0.3541
v -0.8800 0.2371 -0.3541
v -0.8800 0.1629 -0.3541
f 112/4 111/4 110/4 109/4
v 0.8800 0.1629 -0.3541
v 0.8800 0.1029 -0.3105
v 0.8800 0.0800 -0.2400
v 0.8800 0.1029 -0.1695
v 0.8800 0.1629 -0.1259
v 0.8800 0.2371 -0.1259
v 0.8800 0.2971 -0.1695
v 0.8800 0.3200 -0.2400
v 0.8800 0.2971 -0.3105
v 0.8800 0.2371 -0.3541
f 122/4 121/4 120/4 119/4 118/4 117/4 116/4 115/4 114/4 113/4
v -0.8800 0.2371 -0.3541
v -0.8800 0.2971 -0.3105
v -0.8800 0.3200 -0.2400
v -0.8800 0.2971 -0.1695
v -0.8800 0.2371 -0.1259
v -0.8800 0.1629 -0.1259
v -0.8800 0.1029 -0.1695
v -0.8800 0.0800 -0.2400
v -0.8800 0.1029 -0.3105
v -0.8800 0.1629 -0.3541
f 132/4 131/4 130/4 129/4 128/4 127/4 126/4 125/4 124/4 123/4
v -0.8750 0.2222 -0.3085
v -0.8750 0.2582 -0.2823
v -0.8850 0.2582 -0.2823
v -0.8850 0.2222 -0.3085
f 136/6 135/6 134/6 133/6
v -0.8750 0.2582 -0.2823
v -0.8750 0.2720 -0.2400
v -0.8850 0.2720 -0.2400
v -0.8850 0.2582 -0.2823
f 140/6 139/6 138/6 137/6
v -0.8750 0.2720 -0.2400
v -0.8750 0.2582 -0.1977
v -0.8850 0.2582 -0.1977
v -0.8850 0.2720 -0.2400
f 144/6 143/6 142/6 141/6
v -0.8750 0.2582 -0.1977
v -0.8750 0.2222 -0.1715
v -0.8850 0.2222 -0.1715
v -0.8850 0.2582 -0.1977
f 148/6 147/6 146/6 145/6
v -0.8750 0.2222 -0.1715
v -0.8750 0.1778 -0.1715
v -0.8850 0.1778 -0.1715
v -0.8850 0.2222 -0.1715
f 152/6 151/6 150/6 149/6
v -0.8750 0.1778 -0.1715
v -0.8750 0.1418 -0.1977
v -0.8850 0.1418 -0.1977
v -0.8850 0.1778 -0.1715
f 156/6 155/6 154/6 153/6
v -0.8750 0.1418 -0.1977
v -0.8750 0.1280 -0.2400
v -0.8850 0.1280 -0.2400
v -0.8850 0.1418 -0.1977
f 160/6 159/6 158/6 157/6
v -0.8750 0.1280 -0.2400
v -0.8750 0.1418 -0.2823
v -0.8850 0.1418 -0.2823
v -0.8850 0.1280 -0.2400
f 164/6 163/6 162/6 161/6
v -0.8750 0.1418 -0.2823
v -0.8750 0.1778 -0.3085
v -0.8850 0.1778 -0.3085
v -0.8850 0.1418 -0.2823
f 168/6 167/6 166/6 165/6
v -0.8750 0.1778 -0.3085
v -0.8750 0.2222 -0.3085
v -0.8850 0.2222 -0.3085
v -0.8850 0.1778 -0.3085
f 172/6 171/6 170/6 169/6
v -0.8750 0.1778 -0.3085
v -0.8750 0.1418 -0.2823
v -0.8750 0.1280 -0.2400
v -0.8750 0.1418 -0.1977
v -0.8750 0.1778 -0.1715
v -0.8750 0.2222 -0.1715
v -0.8750 0.2582 -0.1977
v -0.8750 0.2720 -0.2400
v -0.8750 0.2582 -0.2823
v -0.8750 0.2222 -0.3085
f 182/6 181/6 180/6 179/6 178/6 177/6 176/6 175/6 174/6 173/6
v -0.8850 0.2222 -0.3085
v -0.8850 0.2582 -0.2823
v -0.8850 0.2720 -0.2400
v -0.8850 0.2582 -0.1977
v -0.8850 0.2222 -0.1715
v -0.8850 0.1778 -0.1715
v -0.8850 0.1418 -0.1977
v -0.8850 0.1280 -0.2400
v -0.8850 0.1418 -0.2823
v -0.8850 0.1778 -0.3085
f 192/6 191/6 190/6 189/6 188/6 187/6 186/6 185/6 184/6 183/6
v 0.8850 0.2222 -0.3085
v 0.8850 0.2582 -0.2823
v 0.8750 0.2582 -0.2823
v 0.8750 0.2222 -0.3085
f 196/6 195/6 194/6 193/6
v 0.8850 0.2582 -0.2823
v 0.8850 0.2720 -0.2400
v 0.8750 0.2720 -0.2400
v 0.8750 0.2582 -0.2823
f 200/6 199/6 198/6 197/6
v 0.8850 0.2720 -0.2400
v 0.8850 0.2582 -0.1977
v 0.8750 0.2582 -0.1977
v 0.8750 0.2720 -0.2400
f 204/6 203/6 202/6 201/6
v 0.8850 0.2582 -0.1977
v 0.8850 0.2222 -0.1715
v 0.8750 0.2222 -0.1715
v 0.8750 0.2582 -0.1977
f 208/6 207/6 206/6 205/6
v 0.8850 0.2222 -0.1715
v 0.8850 0.1778 -0.1715
v 0.8750 0.1778 -0.1715
v 0.8750 0.2222 -0.1715
f 212/6 211/6 210/6 209/6
v 0.8850 0.1778 -0.1715
v 0.8850 0.1418 -0.1977
v 0.8750 0.1418 -0.1977
v 0.8750 0.1778 -0.1715
f 216/6 215/6 214/6 213/6
v 0.8850 0.1418 -0.1977
v 0.8850 0.1280 -0.2400
v 0.8750 0.1280 -0.2400
v 0.8750 0.1418 -0.1977
f 220/6 219/6 218/6 217/6
v 0.8850 0.1280 -0.2400
v 0.8850 0.1418 -0.2823
v 0.8750 0.1418 -0.2823
v 0.8750 0.1280 -0.2400
f 224/6 223/6 222/6 221/6
v 0.8850 0.1418 -0.2823
v 0.8850 0.1778 -0.3085
v 0.8750 0.1778 -0.3085
v 0.8750 0.1418 -0.2823
f 228/6 227/6 226/6 225/6
v 0.8850 0.1778 -0.3085
v 0.8850 0.2222 -0.3085
v 0.8750 0.2222 -0.3085
v 0.8750 0.1778 -0.3085
f 232/6 231/6 230/6 229/6
v 0.8850 0.1778 -0.3085
v 0.8850 0.1418 -0.2823
v 0.8850 0.1280 -0.2400
v 0.8850 0.1418 -0.1977
v 0.8850 0.1778 -0.1715
v 0.8850 0.2222 -0.1715
v 0.8850 0.2582 -0.1977
v 0.8850 0.2720 -0.2400
v 0.8850 0.2582 -0.2823
v 0.8850 0.2222 -0.3085
f 242/6 241/6 240/6 239/6 238/6 237/6 236/6 235/6 234/6 233/6
v 0.8750 0.2222 -0.3085
v 0.8750 0.2582 -0.2823
v 0.8750 0.2720 -0.2400
v 0.8750 0.2582 -0.1977
v 0.8750 0.2222 -0.1715
v 0.8750 0.1778 -0.1715
v 0.8750 0.1418 -0.1977
v 0.8750 0.1280 -0.2400
v 0.8750 0.1418 -0.2823
v 0.8750 0.1778 -0.3085
f 252/6 251/6 250/6 249/6 248/6 247/6 246/6 245/6 244/6 243/6
v 0.8800 0.2371 -0.1141
v 0.8800 0.2971 -0.0705
v -0.8800 0.2971 -0.0705
v -0.8800 0.2371 -0.1141
f 256/7 255/7 254/7 253/7
v 0.8800 0.2971 -0.0705
v 0.8800 0.3200 -0.0000
v -0.8800 0.3200 -0.0000
v -0.8800 0.2971 -0.0705
f 260/7 259/7 258/7 257/7
v 0.8800 0.3200 -0.0000
v 0.8800 0.2971 0.0705
v -0.8800 0.2971 0.0705
v -0.8800 0.3200 -0.0000
f 264/7 263/7 262/7 261/7
v 0.8800 0.2971 0.0705
v 0.8800 0.2371 0.1141
v -0.8800 0.2371 0.1141
v -0.8800 0.2971 0.0705
f 268/7 267/7 266/7 265/7
v 0.8800 0.2371 0.1141
v 0.8800 0.1629 0.1141
v -0.8800 0.1629 0.1141
v -0.8800 0.2371 0.1141
f 272/7 271/7 270/7 269/7
v 0.8800 0.1629 0.1141
v 0.8800 0.1029 0.0705
v -0.8800 0.1029 0.0705
v -0.8800 0.1629 0.1141
f 276/7 275/7 274/7 273/7
v 0.8800 0.1029 0.0705
v 0.8800 0.0800 0.0000
v -0.8800 0.0800 0.0000
v -0.8800 0.1029 0.0705
f 280/7 279/7 278/7 277/7
v 0.8800 0.0800 0.0000
v 0.8800 0.1029 -0.0705
v -0.8800 0.1029 -0.0705
v -0.8800 0.0800 0.0000
f 284/7 283/7 282/7 281/7
v 0.8800 0.1029 -0.0705
v 0.8800 0.1629 -0.1141
v -0.8800 0.1629 -0.1141
v -0.8800 0.1029 -0.0705
f 288/7 287/7 286/7 285/7
v 0.8800 0.1629 -0.1141
v 0.8800 0.2371 -0.1141
v -0.8800 0.2371 -0.1141
v -0.8800 0.1629 -0.1141
f 292/7 291/7 290/7 289/7
v 0.8800 0.1629 -0.1141
v 0.8800 0.1029 -0.0705
v 0.8800 0.0800 0.0000
v 0.8800 0.1029 0.0705
v 0.8800 0.1629 0.1141
v 0.8800 0.2371 0.1141
v 0.8800 0.2971 0.0705
v 0.8800 0.3200 -0.0000
v 0.8800 0.2971 -0.0705
v 0.8800 0.2371 -0.1141
f 302/7 301/7 300/7 299/7 298/7 297/7 296/7 295/7 294/7 293/7
v -0.8800 0.2371 -0.1141
v -0.8800 0.2971 -0.0705
v -0.8800 0.3200 -0.0000
v -0.8800 0.2971 0.0705
v -0.8800 0.2371 0.1141
v -0.8800 0.1629 0.1141
v -0.8800 0.1029 0.0705
v -0.8800 0.0800 0.0000
v -0.8800 0.1029 -0.0705
v -0.8800 0.1629 -0.1141
f 312/7 311/7 310/7 309/7 308/7 307/7 306/7 305/7 304/7 303/7
v -0.8750 0.2222 -0.0685
v -0.8750 0.2582 -0.0423
v -0.8850 0.2582 -0.0423
v -0.8850 0.2222 -0.0685
f 316/6 315/6 314/6 313/6
v -0.8750 0.2582 -0.0423
v -0.8750 0.2720 -0.0000
v -0.8850 0.2720 -0.0000
v -0.8850 0.2582 -0.0423
f 320/6 319/6 318/6 317/6
v -0.8750 0.2720 -0.0000
v -0.8750 0.2582 0.0423
v -0.8850 0.2582 0.0423
v -0.8850 0.2720 -0.0000
f 324/6 323/6 322/6 321/6
v -0.8750 0.2582 0.0423
v -0.8750 0.2222 0.0685
v -0.8850 0.2222 0.0685
v -0.8850 0.2582 0.0423
f 328/6 327/6 326/6 325/6
v -0.8750 0.2222 0.0685
v -0.8750 0.1778 0.0685
v -0.8850 0.1778 0.0685
v -0.8850 0.2222 0.0685
f 332/6 331/6 330/6 329/6
v -0.8750 0.1778 0.0685
v -0.8750 0.1418 0.0423
v -0.8850 0.1418 0.0423
v -0.8850 0.1778 0.0685
f 336/6 335/6 334/6 333/6
v -0.8750 0.1418 0.0423
v -0.8750 0.1280 0.0000
v -0.8850 0.1280 0.0000
v -0.8850 0.1418 0.0423
f 340/6 339/6 338/6 337/6
v -0.8750 0.1280 0.0000
v -0.8750 0.1418 -0.0423
v -0.8850 0.1418 -0.0423
v -0.8850 0.1280 0.0000
f 344/6 343/6 342/6 341/6
v -0.8750 0.1418 -0.0423
v -0.8750 0.1778 -0.0685
v -0.8850 0.1778 -0.0685
v -0.8850 0.1418 -0.0423
f 348/6 347/6 346/6 345/6
v -0.8750 0.1778 -0.0685
v -0.8750 0.2222 -0.0685
v -0.8850 0.2222 -0.0685
v -0.8850 0.1778 -0.0685
f 352/6 351/6 350/6 349/6
v -0.8750 0.1778 -0.0685
v -0.8750 0.1418 -0.0423
v -0.8750 0.1280 0.0000
v -0.8750 0.1418 0.0423
v -0.8750 0.1778 0.0685
v -0.8750 0.2222 0.0685
v -0.8750 0.2582 0.0423
v -0.8750 0.2720 -0.0000
v -0.8750 0.2582 -0.0423
v -0.8750 0.2222 -0.0685
f 362/6 361/6 360/6 359/6 358/6 357/6 356/6 355/6 354/6 353/6
v -0.8850 0.2222 -0.0685
v -0.8850 0.2582 -0.0423
v -0.8850 0.2720 -0.0000
v -0.8850 0.2582 0.0423
v -0.8850 0.2222 0.0685
v -0.8850 0.1778 0.0685
v -0.8850 0.1418 0.0423
v -0.8850 0.1280 0.0000
v -0.8850 0.1418 -0.0423
v -0.8850 0.1778 -0.0685
f 372/6 371/6 370/6 369/6 368/6 367/6 366/6 365/6 364/6 363/6
v 0.8850 0.2222 -0.0685
v 0.8850 0.2582 -0.0423
v 0.8750 0.2582 -0.0423
v 0.8750 0.2222 -0.0685
f 376/6 375/6 374/6 373/6
v 0.8850 0.2582 -0.0423
v 0.8850 0.2720 -0.0000
v 0.8750 0.2720 -0.0000
v 0.8750 0.2582 -0.0423
f 380/6 379/6 378/6 377/6
v 0.8850 0.2720 -0.0000
v 0.8850 0.2582 0.0423
v 0.8750 0.2582 0.0423
v 0.8750 0.2720 -0.0000
f 384/6 383/6 382/6 381/6
v 0.8850 0.2582 0.0423
v 0.8850 0.2222 0.0685
v 0.8750 0.2222 0.0685
v 0.8750 0.2582 0.0423
f 388/6 387/6 386/6 385/6
v 0.8850 0.2222 0.0685
v 0.8850 0.1778 0.0685
v 0.8750 0.1778 0.0685
v 0.8750 0.2222 0.0685
f 392/6 391/6 390/6 389/6
v 0.8850 0.1778 0.0685
v 0.8850 0.1418 0.0423
v 0.8750 0.1418 0.0423
v 0.8750 0.1778 0.0685
f 396/6 395/6 394/6 393/6
v 0.8850 0.1418 0.0423
v 0.8850 0.1280 0.0000
v 0.8750 0.1280 0.0000
v 0.8750 0.1418 0.0423
f 400/6 399/6 398/6 397/6
v 0.8850 0.1280 0.0000
v 0.8850 0.1418 -0.0423
v 0.8750 0.1418 -0.0423
v 0.8750 0.1280 0.0000
f 404/6 403/6 402/6 401/6
v 0.8850 0.1418 -0.0423
v 0.8850 0.1778 -0.0685
v 0.8750 0.1778 -0.0685
v 0.8750 0.1418 -0.0423
f 408/6 407/6 406/6 405/6
v 0.8850 0.1778 -0.0685
v 0.8850 0.2222 -0.0685
v 0.8750 0.2222 -0.0685
v 0.8750 0.1778 -0.0685
f 412/6 411/6 410/6 409/6
v 0.8850 0.1778 -0.0685
v 0.8850 0.1418 -0.0423
v 0.8850 0.1280 0.0000
v 0.8850 0.1418 0.0423
v 0.8850 0.1778 0.0685
v 0.8850 0.2222 0.0685
v 0.8850 0.2582 0.0423
v 0.8850 0.2720 -0.0000
v 0.8850 0.2582 -0.0423
v 0.8850 0.2222 -0.0685
f 422/6 421/6 420/6 419/6 418/6 417/6 416/6 415/6 414/6 413/6
v 0.8750 0.2222 -0.0685
v 0.8750 0.2582 -0.0423
v 0.8750 0.2720 -0.0000
v 0.8750 0.2582 0.0423
v 0.8750 0.2222 0.0685
v 0.8750 0.1778 0.0685
v 0.8750 0.1418 0.0423
v 0.8750 0.1280 0.0000
v 0.8750 0.1418 -0.0423
v 0.8750 0.1778 -0.0685
f 432/6 431/6 430/6 429/6 428/6 427/6 426/6 425/6 424/6 423/6
v 0.8800 0.2371 0.1259
v 0.8800 0.2971 0.1695
v -0.8800 0.2971 0.1695
v -0.8800 0.2371 0.1259
f 436/7 435/7 434/7 433/7
v 0.8800 0.2971 0.1695
v 0.8800 0.3200 0.2400
v -0.8800 0.3200 0.2400
v -0.8800 0.2971 0.1695
f 440/7 439/7 438/7 437/7
v 0.8800 0.3200 0.2400
v 0.8800 0.2971 0.3105
v -0.8800 0.2971 0.3105
v -0.8800 0.3200 0.2400
f 444/7 443/7 442/7 441/7
v 0.8800 0.2971 0.3105
v 0.8800 0.2371 0.3541
v -0.8800 0.2371 0.3541
v -0.8800 0.2971 0.3105
f 448/7 447/7 446/7 445/7
v 0.8800 0.2371 0.3541
v 0.8800 0.1629 0.3541
v -0.8800 0.1629 0.3541
v -0.8800 0.2371 0.3541
f 452/7 451/7 450/7 449/7
v 0.8800 0.1629 0.3541
v 0.8800 0.1029 0.3105
v -0.8800 0.1029 0.3105
v -0.8800 0.1629 0.3541
f 456/7 455/7 454/7 453/7
v 0.8800 0.1029 0.3105
v 0.8800 0.0800 0.2400
v -0.8800 0.0800 0.2400
v -0.8800 0.1029 0.3105
f 460/7 459/7 458/7 457/7
v 0.8800 0.0800 0.2400
v 0.8800 0.1029 0.1695
v -0.8800 0.1029 0.1695
v -0.8800 0.0800 0.2400
f 464/7 463/7 462/7 461/7
v 0.8800 0.1029 0.1695
v 0.8800 0.1629 0.1259
v -0.8800 0.1629 0.1259
v -0.8800 0.1029 0.1695
f 468/7 467/7 466/7 465/7
v 0.8800 0.1629 0.1259
v 0.8800 0.2371 0.1259
v -0.8800 0.2371 0.1259
v -0.8800 0.1629 0.1259
f 472/7 471/7 470/7 469/7
v 0.8800 0.1629 0.1259
v 0.8800 0.1029 0.1695
v 0.8800 0.0800 0.2400
v 0.8800 0.1029 0.3105
v 0.8800 0.1629 0.3541
v 0.8800 0.2371 0.3541
v 0.8800 0.2971 0.3105
v 0.8800 0.3200 0.2400
v 0.8800 0.2971 0.1695
v 0.8800 0.2371 0.1259
f 482/7 481/7 480/7 479/7 478/7 477/7 476/7 475/7 474/7 473/7
v -0.8800 0.2371 0.1259
v -0.8800 0.2971 0.1695
v -0.8800 0.3200 0.2400
v -0.8800 0.2971 0.3105
v -0.8800 0.2371 0.3541
v -0.8800 0.1629 0.3541
v -0.8800 0.1029 0.3105
v -0.8800 0.0800 0.2400
v -0.8800 0.1029 0.1695
v -0.8800 0.1629 0.1259
f 492/7 491/7 490/7 489/7 488/7 487/7 486/7 485/7 484/7 483/7
v -0.8750 0.2222 0.1715
v -0.8750 0.2582 0.1977
v -0.8850 0.2582 0.1977
v -0.8850 0.2222 0.1715
f 496/6 495/6 494/6 493/6
v -0.8750 0.2582 0.1977
v -0.8750 0.2720 0.2400
v -0.8850 0.2720 0.2400
v -0.8850 0.2582 0.1977
f 500/6 499/6 498/6 497/6
v -0.8750 0.2720 0.2400
v -0.8750 0.2582 0.2823
v -0.8850 0.2582 0.2823
v -0.8850 0.2720 0.2400
f 504/6 503/6 502/6 501/6
v -0.8750 0.2582 0.2823
v -0.8750 0.2222 0.3085
v -0.8850 0.2222 0.3085
v -0.8850 0.2582 0.2823
f 508/6 507/6 506/6 505/6
v -0.8750 0.2222 0.3085
v -0.8750 0.1778 0.3085
v -0.8850 0.1778 0.3085
v -0.8850 0.2222 0.3085
f 512/6 511/6 510/6 509/6
v -0.8750 0.1778 0.3085
v -0.8750 0.1418 0.2823
v -0.8850 0.1418 0.2823
v -0.8850 0.1778 0.3085
f 516/6 515/6 514/6 513/6
v -0.8750 0.1418 0.2823
v -0.8750 0.1280 0.2400
v -0.8850 0.1280 0.2400
v -0.8850 0.1418 0.2823
f 520/6 519/6 518/6 517/6
v -0.8750 0.1280 0.2400
v -0.8750 0.1418 0.1977
v -0.8850 0.1418 0.1977
v -0.8850 0.1280 0.2400
f 524/6 523/6 522/6 521/6
v -0.8750 0.1418 0.1977
v -0.8750 0.1778 0.1715
v -0.8850 0.1778 0.1715
v -0.8850 0.1418 0.1977
f 528/6 527/6 526/6 525/6
v -0.8750 0.1778 0.1715
v -0.8750 0.2222 0.1715
v -0.8850 0.2222 0.1715
v -0.8850 0.1778 0.1715
f 532/6 531/6 530/6 529/6
v -0.8750 0.1778 0.1715
v -0.8750 0.1418 0.1977
v -0.8750 0.1280 0.2400
v -0.8750 0.1418 0.2823
v -0.8750 0.1778 0.3085
v -0.8750 0.2222 0.3085
v -0.8750 0.2582 0.2823
v -0.8750 0.2720 0.2400
v -0.8750 0.2582 0.1977
v -0.8750 0.2222 0.1715
f 542/6 541/6 540/6 539/6 538/6 537/6 536/6 535/6 534/6 533/6
v -0.8850 0.2222 0.1715
v -0.8850 0.2582 0.1977
v -0.8850 0.2720 0.2400
v -0.8850 0.2582 0.2823
v -0.8850 0.2222 0.3085
v -0.8850 0.1778 0.3085
v -0.8850 0.1418 0.2823
v -0.8850 0.1280 0.2400
v -0.8850 0.1418 0.1977
v -0.8850 0.1778 0.1715
f 552/6 551/6 550/6 549/6 548/6 547/6 546/6 545/6 544/6 543/6
v 0.8850 0.2222 0.1715
v 0.8850 0.2582 0.1977
v 0.8750 0.2582 0.1977
v 0.8750 0.2222 0.1715
f 556/6 555/6 554/6 553/6
v 0.8850 0.2582 0.1977
v 0.8850 0.2720 0.2400
v 0.8750 0.2720 0.2400
v 0.8750 0.2582 0.1977
f 560/6 559/6 558/6 557/6
v 0.8850 0.2720 0.2400
v 0.8850 0.2582 0.2823
v 0.8750 0.2582 0.2823
v 0.8750 0.2720 0.2400
f 564/6 563/6 562/6 561/6
v 0.8850 0.2582 0.2823
v 0.8850 0.2222 0.3085
v 0.8750 0.2222 0.3085
v 0.8750 0.2582 0.2823
f 568/6 567/6 566/6 565/6
v 0.8850 0.2222 0.3085
v 0.8850 0.1778 0.3085
v 0.8750 0.1778 0.3085
v 0.8750 0.2222 0.3085
f 572/6 571/6 570/6 569/6
v 0.8850 0.1778 0.3085
v 0.8850 0.1418 0.2823
v 0.8750 0.1418 0.2823
v 0.8750 0.1778 0.3085
f 576/6 575/6 574/6 573/6
v 0.8850 0.1418 0.2823
v 0.8850 0.1280 0.2400
v 0.8750 0.1280 0.2400
v 0.8750 0.1418 0.2823
f 580/6 579/6 578/6 577/6
v 0.8850 0.1280 0.2400
v 0.8850 0.1418 0.1977
v 0.8750 0.1418 0.1977
v 0.8750 0.1280 0.2400
f 584/6 583/6 582/6 581/6
v 0.8850 0.1418 0.1977
v 0.8850 0.1778 0.1715
v 0.8750 0.1778 0.1715
v 0.8750 0.1418 0.1977
f 588/6 587/6 586/6 585/6
v 0.8850 0.1778 0.1715
v 0.8850 0.2222 0.1715
v 0.8750 0.2222 0.1715
v 0.8750 0.1778 0.1715
f 592/6 591/6 590/6 589/6
v 0.8850 0.1778 0.1715
v 0.8850 0.1418 0.1977
v 0.8850 0.1280 0.2400
v 0.8850 0.1418 0.2823
v 0.8850 0.1778 0.3085
v 0.8850 0.2222 0.3085
v 0.8850 0.2582 0.2823
v 0.8850 0.2720 0.2400
v 0.8850 0.2582 0.1977
v 0.8850 0.2222 0.1715
f 602/6 601/6 600/6 599/6 598/6 597/6 596/6 595/6 594/6 593/6
v 0.8750 0.2222 0.1715
v 0.8750 0.2582 0.1977
v 0.8750 0.2720 0.2400
v 0.8750 0.2582 0.2823
v 0.8750 0.2222 0.3085
v 0.8750 0.1778 0.3085
v 0.8750 0.1418 0.2823
v 0.8750 0.1280 0.2400
v 0.8750 0.1418 0.1977
v 0.8750 0.1778 0.1715
f 612/6 611/6 610/6 609/6 608/6 607/6 606/6 605/6 604/6 603/6
v 0.8800 0.4449 -0.2341
v 0.8800 0.5049 -0.1905
v -0.8800 0.5049 -0.1905
v -0.8800 0.4449 -0.2341
f 616/4 615/4 614/4 613/4
v 0.8800 0.5049 -0.1905
v 0.8800 0.5278 -0.1200
v -0.8800 0.5278 -0.1200
v -0.8800 0.5049 -0.1905
f 620/4 619/4 618/4 617/4
v 0.8800 0.5278 -0.1200
v 0.8800 0.5049 -0.0495
v -0.8800 0.5049 -0.0495
v -0.8800 0.5278 -0.1200
f 624/4 623/4 622/4 621/4
v 0.8800 0.5049 -0.0495
v 0.8800 0.4449 -0.0059
v -0.8800 0.4449 -0.0059
v -0.8800 0.5049 -0.0495
f 628/4 627/4 626/4 625/4
v 0.8800 0.4449 -0.0059
v 0.8800 0.3708 -0.0059
v -0.8800 0.3708 -0.0059
v -0.8800 0.4449 -0.0059
f 632/4 631/4 630/4 629/4
v 0.8800 0.3708 -0.0059
v 0.8800 0.3108 -0.0495
v -0.8800 0.3108 -0.0495
v -0.8800 0.3708 -0.0059
f 636/4 635/4 634/4 633/4
v 0.8800 0.3108 -0.0495
v 0.8800 0.2878 -0.1200
v -0.8800 0.2878 -0.1200
v -0.8800 0.3108 -0.0495
f 640/4 639/4 638/4 637/4
v 0.8800 0.2878 -0.1200
v 0.8800 0.3108 -0.1905
v -0.8800 0.3108 -0.1905
v -0.8800 0.2878 -0.1200
f 644/4 643/4 642/4 641/4
v 0.8800 0.3108 -0.1905
v 0.8800 0.3708 -0.2341
v -0.8800 0.3708 -0.2341
v -0.8800 0.3108 -0.1905
f 648/4 647/4 646/4 645/4
v 0.8800 0.3708 -0.2341
v 0.8800 0.4449 -0.2341
v -0.8800 0.4449 -0.2341
v -0.8800 0.3708 -0.2341
f 652/4 651/4 650/4 649/4
v 0.8800 0.3708 -0.2341
v 0.8800 0.3108 -0.1905
v 0.8800 0.2878 -0.1200
v 0.8800 0.3108 -0.0495
v 0.8800 0.3708 -0.0059
v 0.8800 0.4449 -0.0059
v 0.8800 0.5049 -0.0495
v 0.8800 0.5278 -0.1200
v 0.8800 0.5049 -0.1905
v 0.8800 0.4449 -0.2341
f 662/4 661/4 660/4 659/4 658/4 657/4 656/4 655/4 654/4 653/4
v -0.8800 0.4449 -0.2341
v -0.8800 0.5049 -0.1905
v -0.8800 0.5278 -0.1200
v -0.8800 0.5049 -0.0495
v -0.8800 0.4449 -0.0059
v -0.8800 0.3708 -0.0059
v -0.8800 0.3108 -0.0495
v -0.8800 0.2878 -0.1200
v -0.8800 0.3108 -0.1905
v -0.8800 0.3708 -0.2341
f 672/4 671/4 670/4 669/4 668/4 667/4 666/4 665/4 664/4 663/4
v -0.8750 0.4301 -0.1885
v -0.8750 0.4661 -0.1623
v -0.8850 0.4661 -0.1623
v -0.8850 0.4301 -0.1885
f 676/6 675/6 674/6 673/6
v -0.8750 0.4661 -0.1623
v -0.8750 0.4798 -0.1200
v -0.8850 0.4798 -0.1200
v -0.8850 0.4661 -0.1623
f 680/6 679/6 678/6 677/6
v -0.8750 0.4798 -0.1200
v -0.8750 0.4661 -0.0777
v -0.8850 0.4661 -0.0777
v -0.8850 0.4798 -0.1200
f 684/6 683/6 682/6 681/6
v -0.8750 0.4661 -0.0777
v -0.8750 0.4301 -0.0515
v -0.8850 0.4301 -0.0515
v -0.8850 0.4661 -0.0777
f 688/6 687/6 686/6 685/6
v -0.8750 0.4301 -0.0515
v -0.8750 0.3856 -0.0515
v -0.8850 0.3856 -0.0515
v -0.8850 0.4301 -0.0515
f 692/6 691/6 690/6 689/6
v -0.8750 0.3856 -0.0515
v -0.8750 0.3496 -0.0777
v -0.8850 0.3496 -0.0777
v -0.8850 0.3856 -0.0515
f 696/6 695/6 694/6 693/6
v -0.8750 0.3496 -0.0777
v -0.8750 0.3358 -0.1200
v -0.8850 0.3358 -0.1200
v -0.8850 0.3496 -0.0777
f 700/6 699/6 698/6 697/6
v -0.8750 0.3358 -0.1200
v -0.8750 0.3496 -0.1623
v -0.8850 0.3496 -0.1623
v -0.8850 0.3358 -0.1200
f 704/6 703/6 702/6 701/6
v -0.8750 0.3496 -0.1623
v -0.8750 0.3856 -0.1885
v -0.8850 0.3856 -0.1885
v -0.8850 0.3496 -0.1623
f 708/6 707/6 706/6 705/6
v -0.8750 0.3856 -0.1885
v -0.8750 0.4301 -0.1885
v -0.8850 0.4301 -0.1885
v -0.8850 0.3856 -0.1885
f 712/6 711/6 710/6 709/6
v -0.8750 0.3856 -0.1885
v -0.8750 0.3496 -0.1623
v -0.8750 0.3358 -0.1200
v -0.8750 0.3496 -0.0777
v -0.8750 0.3856 -0.0515
v -0.8750 0.4301 -0.0515
v -0.8750 0.4661 -0.0777
v -0.8750 0.4798 -0.1200
v -0.8750 0.4661 -0.1623
v -0.8750 0.4301 -0.1885
f 722/6 721/6 720/6 719/6 718/6 717/6 716/6 715/6 714/6 713/6
v -0.8850 0.4301 -0.1885
v -0.8850 0.4661 -0.1623
v -0.8850 0.4798 -0.1200
v -0.8850 0.4661 -0.0777
v -0.8850 0.4301 -0.0515
v -0.8850 0.3856 -0.0515
v -0.8850 0.3496 -0.0777
v -0.8850 0.3358 -0.1200
v -0.8850 0.3496 -0.1623
v -0.8850 0.3856 -0.1885
f 732/6 731/6 730/6 729/6 728/6 727/6 726/6 725/6 724/6 723/6
v 0.8850 0.4301 -0.1885
v 0.8850 0.4661 -0.1623
v 0.8750 0.4661 -0.1623
v 0.8750 0.4301 -0.1885
f 736/6 735/6 734/6 733/6
v 0.8850 0.4661 -0.1623
v 0.8850 0.4798 -0.1200
v 0.8750 0.4798 -0.1200
v 0.8750 0.4661 -0.1623
f 740/6 739/6 738/6 737/6
v 0.8850 0.4798 -0.1200
v 0.8850 0.4661 -0.0777
v 0.8750 0.4661 -0.0777
v 0.8750 0.4798 -0.1200
f 744/6 743/6 742/6 741/6
v 0.8850 0.4661 -0.0777
v 0.8850 0.4301 -0.0515
v 0.8750 0.4301 -0.0515
v 0.8750 0.4661 -0.0777
f 748/6 747/6 746/6 745/6
v 0.8850 0.4301 -0.0515
v 0.8850 0.3856 -0.0515
v 0.8750 0.3856 -0.0515
v 0.8750 0.4301 -0.0515
f 752/6 751/6 750/6 749/6
v 0.8850 0.3856 -0.0515
v 0.8850 0.3496 -0.0777
v 0.8750 0.3496 -0.0777
v 0.8750 0.3856 -0.0515
f 756/6 755/6 754/6 753/6
v 0.8850 0.3496 -0.0777
v 0.8850 0.3358 -0.1200
v 0.8750 0.3358 -0.1200
v 0.8750 0.3496 -0.0777
f 760/6 759/6 758/6 757/6
v 0.8850 0.3358 -0.1200
v 0.8850 0.3496 -0.1623
v 0.8750 0.3496 -0.1623
v 0.8750 0.3358 -0.1200
f 764/6 763/6 762/6 761/6
v 0.8850 0.3496 -0.1623
v 0.8850 0.3856 -0.1885
v 0.8750 0.3856 -0.1885
v 0.8750 0.3496 -0.1623
f 768/6 767/6 766/6 765/6
v 0.8850 0.3856 -0.1885
v 0.8850 0.4301 -0.1885
v 0.8750 0.4301 -0.1885
v 0.8750 0.3856 -0.1885
f 772/6 771/6 770/6 769/6
v 0.8850 0.3856 -0.1885
v 0.8850 0.3496 -0.1623
v 0.8850 0.3358 -0.1200
v 0.8850 0.3496 -0.0777
v 0.8850 0.3856 -0.0515
v 0.8850 0.4301 -0.0515
v 0.8850 0.4661 -0.0777
v 0.8850 0.4798 -0.1200
v 0.8850 0.4661 -0.1623
v 0.8850 0.4301 -0.1885
f 782/6 781/6 780/6 779/6 778/6 777/6 776/6 775/6 774/6 773/6
v 0.8750 0.4301 -0.1885
v 0.8750 0.4661 -0.1623
v 0.8750 0.4798 -0.1200
v 0.8750 0.4661 -0.0777
v 0.8750 0.4301 -0.0515
v 0.8750 0.3856 -0.0515
v 0.8750 0.3496 -0.0777
v 0.8750 0.3358 -0.1200
v 0.8750 0.3496 -0.1623
v 0.8750 0.3856 -0.1885
f 792/6 791/6 790/6 789/6 788/6 787/6 786/6 785/6 784/6 783/6
v 0.8800 0.4449 0.0059
v 0.8800 0.5049 0.0495
v -0.8800 0.5049 0.0495
v -0.8800 0.4449 0.0059
f 796/7 795/7 794/7 793/7
v 0.8800 0.5049 0.0495
v 0.8800 0.5278 0.1200
v -0.8800 0.5278 0.1200
v -0.8800 0.5049 0.0495
f 800/7 799/7 798/7 797/7
v 0.8800 0.5278 0.1200
v 0.8800 0.5049 0.1905
v -0.8800 0.5049 0.1905
v -0.8800 0.5278 0.1200
f 804/7 803/7 802/7 801/7
v 0.8800 0.5049 0.1905
v 0.8800 0.4449 0.2341
v -0.8800 0.4449 0.2341
v -0.8800 0.5049 0.1905
f 808/7 807/7 806/7 805/7
v 0.8800 0.4449 0.2341
v 0.8800 0.3708 0.2341
v -0.8800 0.3708 0.2341
v -0.8800 0.4449 0.2341
f 812/7 811/7 810/7 809/7
v 0.8800 0.3708 0.2341
v 0.8800 0.3108 0.1905
v -0.8800 0.3108 0.1905
v -0.8800 0.3708 0.2341
f 816/7 815/7 814/7 813/7
v 0.8800 0.3108 0.1905
v 0.8800 0.2878 0.1200
v -0.8800 0.2878 0.1200
v -0.8800 0.3108 0.1905
f 820/7 819/7 818/7 817/7
v 0.8800 0.2878 0.1200
v 0.8800 0.3108 0.0495
v -0.8800 0.3108 0.0495
v -0.8800 0.2878 0.1200
f 824/7 823/7 822/7 821/7
v 0.8800 0.3108 0.0495
v 0.8800 0.3708 0.0059
v -0.8800 0.3708 0.0059
v -0.8800 0.3108 0.0495
f 828/7 827/7 826/7 825/7
v 0.8800 0.3708 0.0059
v 0.8800 0.4449 0.0059
v -0.8800 0.4449 0.0059
v -0.8800 0.3708 0.0059
f 832/7 831/7 830/7 829/7
v 0.8800 0.3708 0.0059
v 0.8800 0.3108 0.0495
v 0.8800 0.2878 0.1200
v 0.8800 0.3108 0.1905
v 0.8800 0.3708 0.2341
v 0.8800 0.4449 0.2341
v 0.8800 0.5049 0.1905
v 0.8800 0.5278 0.1200
v 0.8800 0.5049 0.0495
v 0.8800 0.4449 0.0059
f 842/7 841/7 840/7 839/7 838/7 837/7 836/7 835/7 834/7 833/7
v -0.8800 0.4449 0.0059
v -0.8800 0.5049 0.0495
v -0.8800 0.5278 0.1200
v -0.8800 0.5049 0.1905
v -0.8800 0.4449 0.2341
v -0.8800 0.3708 0.2341
v -0.8800 0.3108 0.1905
v -0.8800 0.2878 0.1200
v -0.8800 0.3108 0.0495
v -0.8800 0.3708 0.0059
f 852/7 851/7 850/7 849/7 848/7 847/7 846/7 845/7 844/7 843/7
v -0.8750 0.4301 0.0515
v -0.8750 0.4661 0.0777
v -0.8850 0.4661 0.0777
v -0.8850 0.4301 0.0515
f 856/6 855/6 854/6 853/6
v -0.8750 0.4661 0.0777
v -0.8750 0.4798 0.1200
v -0.8850 0.4798 0.1200
v -0.8850 0.4661 0.0777
f 860/6 859/6 858/6 857/6
v -0.8750 0.4798 0.1200
v -0.8750 0.4661 0.1623
v -0.8850 0.4661 0.1623
v -0.8850 0.4798 0.1200
f 864/6 863/6 862/6 861/6
v -0.8750 0.4661 0.1623
v -0.8750 0.4301 0.1885
v -0.8850 0.4301 0.1885
v -0.8850 0.4661 0.1623
f 868/6 867/6 866/6 865/6
v -0.8750 0.4301 0.1885
v -0.8750 0.3856 0.1885
v -0.8850 0.3856 0.1885
v -0.8850 0.4301 0.1885
f 872/6 871/6 870/6 869/6
v -0.8750 0.3856 0.1885
v -0.8750 0.3496 0.1623
v -0.8850 0.3496 0.1623
v -0.8850 0.3856 0.1885
f 876/6 875/6 874/6 873/6
v -0.8750 0.3496 0.1623
v -0.8750 0.3358 0.1200
v -0.8850 0.3358 0.1200
v -0.8850 0.3496 0.1623
f 880/6 879/6 878/6 877/6
v -0.8750 0.3358 0.1200
v -0.8750 0.3496 0.0777
v -0.8850 0.3496 0.0777
v -0.8850 0.3358 0.1200
f 884/6 883/6 882/6 881/6
v -0.8750 0.3496 0.0777
v -0.8750 0.3856 0.0515
v -0.8850 0.3856 0.0515
v -0.8850 0.3496 0.0777
f 888/6 887/6 886/6 885/6
v -0.8750 0.3856 0.0515
v -0.8750 0.4301 0.0515
v -0.8850 0.4301 0.0515
v -0.8850 0.3856 0.0515
f 892/6 891/6 890/6 889/6
v -0.8750 0.3856 0.0515
v -0.8750 0.3496 0.0777
v -0.8750 0.3358 0.1200
v -0.8750 0.3496 0.1623
v -0.8750 0.3856 0.1885
v -0.8750 0.4301 0.1885
v -0.8750 0.4661 0.1623
v -0.8750 0.4798 0.1200
v -0.8750 0.4661 0.0777
v -0.8750 0.4301 0.0515
f 902/6 901/6 900/6 899/6 898/6 897/6 896/6 895/6 894/6 893/6
v -0.8850 0.4301 0.0515
v -0.8850 0.4661 0.0777
v -0.8850 0.4798 0.1200
v -0.8850 0.4661 0.1623
v -0.8850 0.4301 0.1885
v -0.8850 0.3856 0.1885
v -0.8850 0.3496 0.1623
v -0.8850 0.3358 0.1200
v -0.8850 0.3496 0.0777
v -0.8850 0.3856 0.0515
f 912/6 911/6 910/6 909/6 908/6 907/6 906/6 905/6 904/6 903/6
v 0.8850 0.4301 0.0515
v 0.8850 0.4661 0.0777
v 0.8750 0.4661 0.0777
v 0.8750 0.4301 0.0515
f 916/6 915/6 914/6 913/6
v 0.8850 0.4661 0.0777
v 0.8850 0.4798 0.1200
v 0.8750 0.4798 0.1200
v 0.8750 0.4661 0.0777
f 920/6 919/6 918/6 917/6
v 0.8850 0.4798 0.1200
v 0.8850 0.4661 0.1623
v 0.8750 0.4661 0.1623
v 0.8750 0.4798 0.1200
f 924/6 923/6 922/6 921/6
v 0.8850 0.4661 0.1623
v 0.8850 0.4301 0.1885
v 0.8750 0.4301 0.1885
v 0.8750 0.4661 0.1623
f 928/6 927/6 926/6 925/6
v 0.8850 0.4301 0.1885
v 0.8850 0.3856 0.1885
v 0.8750 0.3856 0.1885
v 0.8750 0.4301 0.1885
f 932/6 931/6 930/6 929/6
v 0.8850 0.3856 0.1885
v 0.8850 0.3496 0.1623
v 0.8750 0.3496 0.1623
v 0.8750 0.3856 0.1885
f 936/6 935/6 934/6 933/6
v 0.8850 0.3496 0.1623
v 0.8850 0.3358 0.1200
v 0.8750 0.3358 0.1200
v 0.8750 0.3496 0.1623
f 940/6 939/6 938/6 937/6
v 0.8850 0.3358 0.1200
v 0.8850 0.3496 0.0777
v 0.8750 0.3496 0.0777
v 0.8750 0.3358 0.1200
f 944/6 943/6 942/6 941/6
v 0.8850 0.3496 0.0777
v 0.8850 0.3856 0.0515
v 0.8750 0.3856 0.0515
v 0.8750 0.3496 0.0777
f 948/6 947/6 946/6 945/6
v 0.8850 0.3856 0.0515
v 0.8850 0.4301 0.0515
v 0.8750 0.4301 0.0515
v 0.8750 0.3856 0.0515
f 952/6 951/6 950/6 949/6
v 0.8850 0.3856 0.0515
v 0.8850 0.3496 0.0777
v 0.8850 0.3358 0.1200
v 0.8850 0.3496 0.1623
v 0.8850 0.3856 0.1885
v 0.8850 0.4301 0.1885
v 0.8850 0.4661 0.1623
v 0.8850 0.4798 0.1200
v 0.8850 0.4661 0.0777
v 0.8850 0.4301 0.0515
f 962/6 961/6 960/6 959/6 958/6 957/6 956/6 955/6 954/6 953/6
v 0.8750 0.4301 0.0515
v 0.8750 0.4661 0.0777
v 0.8750 0.4798 0.1200
v 0.8750 0.4661 0.1623
v 0.8750 0.4301 0.1885
v 0.8750 0.3856 0.1885
v 0.8750 0.3496 0.1623
v 0.8750 0.3358 0.1200
v 0.8750 0.3496 0.0777
v 0.8750 0.3856 0.0515
f 972/6 971/6 970/6 969/6 968/6 967/6 966/6 965/6 964/6 963/6
v 0.8800 0.6528 -0.1141
v 0.8800 0.7128 -0.0705
v -0.8800 0.7128 -0.0705
v -0.8800 0.6528 -0.1141
f 976/7 975/7 974/7 973/7
v 0.8800 0.7128 -0.0705
v 0.8800 0.7357 -0.0000
v -0.8800 0.7357 -0.0000
v -0.8800 0.7128 -0.0705
f 980/7 979/7 978/7 977/7
v 0.8800 0.7357 -0.0000
v 0.8800 0.7128 0.0705
v -0.8800 0.7128 0.0705
v -0.8800 0.7357 -0.0000
f 984/7 983/7 982/7 981/7
v 0.8800 0.7128 0.0705
v 0.8800 0.6528 0.1141
v -0.8800 0.6528 0.1141
v -0.8800 0.7128 0.0705
f 988/7 987/7 986/7 985/7
v 0.8800 0.6528 0.1141
v 0.8800 0.5786 0.1141
v -0.8800 0.5786 0.1141
v -0.8800 0.6528 0.1141
f 992/7 991/7 990/7 989/7
v 0.8800 0.5786 0.1141
v 0.8800 0.5186 0.0705
v -0.8800 0.5186 0.0705
v -0.8800 0.5786 0.1141
f 996/7 995/7 994/7 993/7
v 0.8800 0.5186 0.0705
v 0.8800 0.4957 0.0000
v -0.8800 0.4957 0.0000
v -0.8800 0.5186 0.0705
f 1000/7 999/7 998/7 997/7
v 0.8800 0.4957 0.0000
v 0.8800 0.5186 -0.0705
v -0.8800 0.5186 -0.0705
v -0.8800 0.4957 0.0000
f 1004/7 1003/7 1002/7 1001/7
v 0.8800 0.5186 -0.0705
v 0.8800 0.5786 -0.1141
v -0.8800 0.5786 -0.1141
v -0.8800 0.5186 -0.0705
f 1008/7 1007/7 1006/7 1005/7
v 0.8800 0.5786 -0.1141
v 0.8800 0.6528 -0.1141
v -0.8800 0.6528 -0.1141
v -0.8800 0.5786 -0.1141
f 1012/7 1011/7 1010/7 1009/7
v 0.8800 0.5786 -0.1141
v 0.8800 0.5186 -0.0705
v 0.8800 0.4957 0.0000
v 0.8800 0.5186 0.0705
v 0.8800 0.5786 0.1141
v 0.8800 0.6528 0.1141
v 0.8800 0.7128 0.0705
v 0.8800 0.7357 -0.0000
v 0.8800 0.7128 -0.0705
v 0.8800 0.6528 -0.1141
f 1022/7 1021/7 1020/7 1019/7 1018/7 1017/7 1016/7 1015/7 1014/7 1013/7
v -0.8800 0.6528 -0.1141
v -0.8800 0.7128 -0.0705
v -0.8800 0.7357 -0.0000
v -0.8800 0.7128 0.0705
v -0.8800 0.6528 0.1141
v -0.8800 0.5786 0.1141
v -0.8800 0.5186 0.0705
v -0.8800 0.4957 0.0000
v -0.8800 0.5186 -0.0705
v -0.8800 0.5786 -0.1141
f 1032/7 1031/7 1030/7 1029/7 1028/7 1027/7 1026/7 1025/7 1024/7 1023/7
v -0.8750 0.6379 -0.0685
v -0.8750 0.6739 -0.0423
v -0.8850 0.6739 -0.0423
v -0.8850 0.6379 -0.0685
f 1036/6 1035/6 1034/6 1033/6
v -0.8750 0.6739 -0.0423
v -0.8750 0.6877 -0.0000
v -0.8850 0.6877 -0.0000
v -0.8850 0.6739 -0.0423
f 1040/6 1039/6 1038/6 1037/6
v -0.8750 0.6877 -0.0000
v -0.8750 0.6739 0.0423
v -0.8850 0.6739 0.0423
v -0.8850 0.6877 -0.0000
f 1044/6 1043/6 1042/6 1041/6
v -0.8750 0.6739 0.0423
v -0.8750 0.6379 0.0685
v -0.8850 0.6379 0.0685
v -0.8850 0.6739 0.0423
f 1048/6 1047/6 1046/6 1045/6
v -0.8750 0.6379 0.0685
v -0.8750 0.5934 0.0685
v -0.8850 0.5934 0.0685
v -0.8850 0.6379 0.0685
f 1052/6 1051/6 1050/6 1049/6
v -0.8750 0.5934 0.0685
v -0.8750 0.5574 0.0423
v -0.8850 0.5574 0.0423
v -0.8850 0.5934 0.0685
f 1056/6 1055/6 1054/6 1053/6
v -0.8750 0.5574 0.0423
v -0.8750 0.5437 0.0000
v -0.8850 0.5437 0.0000
v -0.8850 0.5574 0.0423
f 1060/6 1059/6 1058/6 1057/6
v -0.8750 0.5437 0.0000
v -0.8750 0.5574 -0.0423
v -0.8850 0.5574 -0.0423
v -0.8850 0.5437 0.0000
f 1064/6 1063/6 1062/6 1061/6
v -0.8750 0.5574 -0.0423
v -0.8750 0.5934 -0.0685
v -0.8850 0.5934 -0.0685
v -0.8850 0.5574 -0.0423
f 1068/6 1067/6 1066/6 1065/6
v -0.8750 0.5934 -0.0685
v -0.8750 0.6379 -0.0685
v -0.8850 0.6379 -0.0685
v -0.8850 0.5934 -0.0685
f 1072/6 1071/6 1070/6 1069/6
v -0.8750 0.5934 -0.0685
v -0.8750 0.5574 -0.0423
v -0.8750 0.5437 0.0000
v -0.8750 0.5574 0.0423
v -0.8750 0.5934 0.0685
v -0.8750 0.6379 0.0685
v -0.8750 0.6739 0.0423
v -0.8750 0.6877 -0.0000
v -0.8750 0.6739 -0.0423
v -0.8750 0.6379 -0.0685
f 1082/6 1081/6 1080/6 1079/6 1078/6 1077/6 1076/6 1075/6 1074/6 1073/6
v -0.8850 0.6379 -0.0685
v -0.8850 0.6739 -0.0423
v -0.8850 0.6877 -0.0000
v -0.8850 0.6739 0.0423
v -0.8850 0.6379 0.0685
v -0.8850 0.5934 0.0685
v -0.8850 0.5574 0.0423
v -0.8850 0.5437 0.0000
v -0.8850 0.5574 -0.0423
v -0.8850 0.5934 -0.0685
f 1092/6 1091/6 1090/6 1089/6 1088/6 1087/6 1086/6 1085/6 1084/6 1083/6
v 0.8850 0.6379 -0.0685
v 0.8850 0.6739 -0.0423
v 0.8750 0.6739 -0.0423
v 0.8750 0.6379 -0.0685
f 1096/6 1095/6 1094/6 1093/6
v 0.8850 0.6739 -0.0423
v 0.8850 0.6877 -0.0000
v 0.8750 0.6877 -0.0000
v 0.8750 0.6739 -0.0423
f 1100/6 1099/6 1098/6 1097/6
v 0.8850 0.6877 -0.0000
v 0.8850 0.6739 0.0423
v 0.8750 0.6739 0.0423
v 0.8750 0.6877 -0.0000
f 1104/6 1103/6 1102/6 1101/6
v 0.8850 0.6739 0.0423
v 0.8850 0.6379 0.0685
v 0.8750 0.6379 0.0685
v 0.8750 0.6739 0.0423
f 1108/6 1107/6 1106/6 1105/6
v 0.8850 0.6379 0.0685
v 0.8850 0.5934 0.0685
v 0.8750 0.5934 0.0685
v 0.8750 0.6379 0.0685
f 1112/6 1111/6 1110/6 1109/6
v 0.8850 0.5934 0.0685
v 0.8850 0.5574 0.0423
v 0.8750 0.5574 0.0423
v 0.8750 0.5934 0.0685
f 1116/6 1115/6 1114/6 1113/6
v 0.8850 0.5574 0.0423
v 0.8850 0.5437 0.0000
v 0.8750 0.5437 0.0000
v 0.8750 0.5574 0.0423
f 1120/6 1119/6 1118/6 1117/6
v 0.8850 0.5437 0.0000
v 0.8850 0.5574 -0.0423
v 0.8750 0.5574 -0.0423
v 0.8750 0.5437 0.0000
f 1124/6 1123/6 1122/6 1121/6
v 0.8850 0.5574 -0.0423
v 0.8850 0.5934 -0.0685
v 0.8750 0.5934 -0.0685
v 0.8750 0.5574 -0.0423
f 1128/6 1127/6 1126/6 1125/6
v 0.8850 0.5934 -0.0685
v 0.8850 0.6379 -0.0685
v 0.8750 0.6379 -0.0685
v 0.8750 0.5934 -0.0685
f 1132/6 1131/6 1130/6 1129/6
v 0.8850 0.5934 -0.0685
v 0.8850 0.5574 -0.0423
v 0.8850 0.5437 0.0000
v 0.8850 0.5574 0.0423
v 0.8850 0.5934 0.0685
v 0.8850 0.6379 0.0685
v 0.8850 0.6739 0.0423
v 0.8850 0.6877 -0.0000
v 0.8850 0.6739 -0.0423
v 0.8850 0.6379 -0.0685
f 1142/6 1141/6 1140/6 1139/6 1138/6 1137/6 1136/6 1135/6 1134/6 1133/6
v 0.8750 0.6379 -0.0685
v 0.8750 0.6739 -0.0423
v 0.8750 0.6877 -0.0000
v 0.8750 0.6739 0.0423
v 0.8750 0.6379 0.0685
v 0.8750 0.5934 0.0685
v 0.8750 0.5574 0.0423
v 0.8750 0.5437 0.0000
v 0.8750 0.5574 -0.0423
v 0.8750 0.5934 -0.0685
f 1152/6 1151/6 1150/6 1149/6 1148/6 1147/6 1146/6 1145/6 1144/6 1143/6
v -0.7200 0.0500 -0.3700
v -0.7200 0.3500 -0.3700
v -0.7200 0.3500 -0.4300
v -0.7200 0.0500 -0.4300
f 1156/8 1155/8 1154/8 1153/8
v -0.7800 0.0500 -0.4300
v -0.7800 0.3500 -0.4300
v -0.7800 0.3500 -0.3700
v -0.7800 0.0500 -0.3700
f 1160/8 1159/8 1158/8 1157/8
v -0.7200 0.0500 -0.4300
v -0.7800 0.0500 -0.4300
v -0.7800 0.0500 -0.3700
v -0.7200 0.0500 -0.3700
f 1164/8 1163/8 1162/8 1161/8
v -0.7200 0.3500 -0.3700
v -0.7800 0.3500 -0.3700
v -0.7800 0.3500 -0.4300
v -0.7200 0.3500 -0.4300
f 1168/8 1167/8 1166/8 1165/8
v -0.7200 0.3500 -0.4300
v -0.7800 0.3500 -0.4300
v -0.7800 0.0500 -0.4300
v -0.7200 0.0500 -0.4300
f 1172/8 1171/8 1170/8 1169/8
v -0.7200 0.0500 -0.3700
v -0.7800 0.0500 -0.3700
v -0.7800 0.3500 -0.3700
v -0.7200 0.3500 -0.3700
f 1176/8 1175/8 1174/8 1173/8
v 0.7800 0.0500 -0.3700
v 0.7800 0.3500 -0.3700
v 0.7800 0.3500 -0.4300
v 0.7800 0.0500 -0.4300
f 1180/8 1179/8 1178/8 1177/8
v 0.7200 0.0500 -0.4300
v 0.7200 0.3500 -0.4300
v 0.7200 0.3500 -0.3700
v 0.7200 0.0500 -0.3700
f 1184/8 1183/8 1182/8 1181/8
v 0.7800 0.0500 -0.4300
v 0.7200 0.0500 -0.4300
v 0.7200 0.0500 -0.3700
v 0.7800 0.0500 -0.3700
f 1188/8 1187/8 1186/8 1185/8
v 0.7800 0.3500 -0.3700
v 0.7200 0.3500 -0.3700
v 0.7200 0.3500 -0.4300
v 0.7800 0.3500 -0.4300
f 1192/8 1191/8 1190/8 1189/8
v 0.7800 0.3500 -0.4300
v 0.7200 0.3500 -0.4300
v 0.7200 0.0500 -0.4300
v 0.7800 0.0500 -0.4300
f 1196/8 1195/8 1194/8 1193/8
v 0.7800 0.0500 -0.3700
v 0.7200 0.0500 -0.3700
v 0.7200 0.3500 -0.3700
v 0.7800 0.3500 -0.3700
f 1200/8 1199/8 1198/8 1197/8
v -0.7200 0.0500 0.4300
v -0.7200 0.3500 0.4300
v -0.7200 0.3500 0.3700
v -0.7200 0.0500 0.3700
f 1204/8 1203/8 1202/8 1201/8
v -0.7800 0.0500 0.3700
v -0.7800 0.3500 0.3700
v -0.7800 0.3500 0.4300
v -0.7800 0.0500 0.4300
f 1208/8 1207/8 1206/8 1205/8
v -0.7200 0.0500 0.3700
v -0.7800 0.0500 0.3700
v -0.7800 0.0500 0.4300
v -0.7200 0.0500 0.4300
f 1212/8 1211/8 1210/8 1209/8
v -0.7200 0.3500 0.4300
v -0.7800 0.3500 0.4300
v -0.7800 0.3500 0.3700
v -0.7200 0.3500 0.3700
f 1216/8 1215/8 1214/8 1213/8
v -0.7200 0.3500 0.3700
v -0.7800 0.3500 0.3700
v -0.7800 0.0500 0.3700
v -0.7200 0.0500 0.3700
f 1220/8 1219/8 1218/8 1217/8
v -0.7200 0.0500 0.4300
v -0.7800 0.0500 0.4300
v -0.7800 0.3500 0.4300
v -0.7200 0.3500 0.4300
f 1224/8 1223/8 1222/8 1221/8
v 0.7800 0.0500 0.4300
v 0.7800 0.3500 0.4300
v 0.7800 0.3500 0.3700
v 0.7800 0.0500 0.3700
f 1228/8 1227/8 1226/8 1225/8
v 0.7200 0.0500 0.3700
v 0.7200 0.3500 0.3700
v 0.7200 0.3500 0.4300
v 0.7200 0.0500 0.4300
f 1232/8 1231/8 1230/8 1229/8
v 0.7800 0.0500 0.3700
v 0.7200 0.0500 0.3700
v 0.7200 0.0500 0.4300
v 0.7800 0.0500 0.4300
f 1236/8 1235/8 1234/8 1233/8
v 0.7800 0.3500 0.4300
v 0.7200 0.3500 0.4300
v 0.7200 0.3500 0.3700
v 0.7800 0.3500 0.3700
f 1240/8 1239/8 1238/8 1237/8
v 0.7800 0.3500 0.3700
v 0.7200 0.3500 0.3700
v 0.7200 0.0500 0.3700
v 0.7800 0.0500 0.3700
f 1244/8 1243/8 1242/8 1241/8
v 0.7800 0.0500 0.4300
v 0.7200 0.0500 0.4300
v 0.7200 0.3500 0.4300
v 0.7800 0.3500 0.4300
f 1248/8 1247/8 1246/8 1245/8
