# Walk of Industry low-poly (generated, wi_lib.py)
mtllib wi.mtl
vt 0 0
vt 0.03125 0.03125
vt 0.09375 0.03125
vt 0.15625 0.03125
vt 0.21875 0.03125
vt 0.28125 0.03125
vt 0.34375 0.03125
vt 0.40625 0.03125
vt 0.46875 0.03125
vt 0.53125 0.03125
vt 0.59375 0.03125
vt 0.65625 0.03125
vt 0.71875 0.03125
vt 0.78125 0.03125
vt 0.84375 0.03125
vt 0.90625 0.03125
vt 0.96875 0.03125
vt 0.03125 0.09375
vt 0.09375 0.09375
vt 0.15625 0.09375
vt 0.21875 0.09375
vt 0.28125 0.09375
vt 0.34375 0.09375
vt 0.40625 0.09375
vt 0.46875 0.09375
vt 0.53125 0.09375
vt 0.59375 0.09375
vt 0.65625 0.09375
vt 0.71875 0.09375
vt 0.78125 0.09375
vt 0.84375 0.09375
vt 0.90625 0.09375
vt 0.96875 0.09375
o Body
usemtl wi_paint
v -0.0344 0.1200 0.0831
v -0.0831 0.1200 0.0344
v -0.0831 0.3400 0.0344
v -0.0344 0.3400 0.0831
f 4/1 3/1 2/1 1/1
v -0.0831 0.1200 0.0344
v -0.0831 0.1200 -0.0344
v -0.0831 0.3400 -0.0344
v -0.0831 0.3400 0.0344
f 8/1 7/1 6/1 5/1
v -0.0831 0.1200 -0.0344
v -0.0344 0.1200 -0.0831
v -0.0344 0.3400 -0.0831
v -0.0831 0.3400 -0.0344
f 12/1 11/1 10/1 9/1
v -0.0344 0.1200 -0.0831
v 0.0344 0.1200 -0.0831
v 0.0344 0.3400 -0.0831
v -0.0344 0.3400 -0.0831
f 16/1 15/1 14/1 13/1
v 0.0344 0.1200 -0.0831
v 0.0831 0.1200 -0.0344
v 0.0831 0.3400 -0.0344
v 0.0344 0.3400 -0.0831
f 20/1 19/1 18/1 17/1
v 0.0831 0.1200 -0.0344
v 0.0831 0.1200 0.0344
v 0.0831 0.3400 0.0344
v 0.0831 0.3400 -0.0344
f 24/1 23/1 22/1 21/1
v 0.0831 0.1200 0.0344
v 0.0344 0.1200 0.0831
v 0.0344 0.3400 0.0831
v 0.0831 0.3400 0.0344
f 28/1 27/1 26/1 25/1
v 0.0344 0.1200 0.0831
v -0.0344 0.1200 0.0831
v -0.0344 0.3400 0.0831
v 0.0344 0.3400 0.0831
f 32/1 31/1 30/1 29/1
v 0.0344 0.1200 0.0831
v 0.0831 0.1200 0.0344
v 0.0831 0.1200 -0.0344
v 0.0344 0.1200 -0.0831
v -0.0344 0.1200 -0.0831
v -0.0831 0.1200 -0.0344
v -0.0831 0.1200 0.0344
v -0.0344 0.1200 0.0831
f 40/1 39/1 38/1 37/1 36/1 35/1 34/1 33/1
v -0.0344 0.3400 0.0831
v -0.0831 0.3400 0.0344
v -0.0831 0.3400 -0.0344
v -0.0344 0.3400 -0.0831
v 0.0344 0.3400 -0.0831
v 0.0831 0.3400 -0.0344
v 0.0831 0.3400 0.0344
v 0.0344 0.3400 0.0831
f 48/1 47/1 46/1 45/1 44/1 43/1 42/1 41/1
v -0.2500 2.3000 0.1000
v -0.2500 2.3800 0.1000
v -0.2500 2.3800 -0.1000
v -0.2500 2.3000 -0.1000
f 52/1 51/1 50/1 49/1
v -0.5500 2.3000 -0.1000
v -0.5500 2.3800 -0.1000
v -0.5500 2.3800 0.1000
v -0.5500 2.3000 0.1000
f 56/1 55/1 54/1 53/1
v -0.2500 2.3000 -0.1000
v -0.5500 2.3000 -0.1000
v -0.5500 2.3000 0.1000
v -0.2500 2.3000 0.1000
f 60/1 59/1 58/1 57/1
v -0.2500 2.3800 0.1000
v -0.5500 2.3800 0.1000
v -0.5500 2.3800 -0.1000
v -0.2500 2.3800 -0.1000
f 64/1 63/1 62/1 61/1
v -0.2500 2.3800 -0.1000
v -0.5500 2.3800 -0.1000
v -0.5500 2.3000 -0.1000
v -0.2500 2.3000 -0.1000
f 68/1 67/1 66/1 65/1
v -0.2500 2.3000 0.1000
v -0.5500 2.3000 0.1000
v -0.5500 2.3800 0.1000
v -0.2500 2.3800 0.1000
f 72/1 71/1 70/1 69/1
usemtl wi_palette
v -0.0612 0.0000 0.1478
v -0.1478 0.0000 0.0612
v -0.1478 0.1200 0.0612
v -0.0612 0.1200 0.1478
f 76/6 75/6 74/6 73/6
v -0.1478 0.0000 0.0612
v -0.1478 0.0000 -0.0612
v -0.1478 0.1200 -0.0612
v -0.1478 0.1200 0.0612
f 80/6 79/6 78/6 77/6
v -0.1478 0.0000 -0.0612
v -0.0612 0.0000 -0.1478
v -0.0612 0.1200 -0.1478
v -0.1478 0.1200 -0.0612
f 84/6 83/6 82/6 81/6
v -0.0612 0.0000 -0.1478
v 0.0612 0.0000 -0.1478
v 0.0612 0.1200 -0.1478
v -0.0612 0.1200 -0.1478
f 88/6 87/6 86/6 85/6
v 0.0612 0.0000 -0.1478
v 0.1478 0.0000 -0.0612
v 0.1478 0.1200 -0.0612
v 0.0612 0.1200 -0.1478
f 92/6 91/6 90/6 89/6
v 0.1478 0.0000 -0.0612
v 0.1478 0.0000 0.0612
v 0.1478 0.1200 0.0612
v 0.1478 0.1200 -0.0612
f 96/6 95/6 94/6 93/6
v 0.1478 0.0000 0.0612
v 0.0612 0.0000 0.1478
v 0.0612 0.1200 0.1478
v 0.1478 0.1200 0.0612
f 100/6 99/6 98/6 97/6
v 0.0612 0.0000 0.1478
v -0.0612 0.0000 0.1478
v -0.0612 0.1200 0.1478
v 0.0612 0.1200 0.1478
f 104/6 103/6 102/6 101/6
v 0.0612 0.0000 0.1478
v 0.1478 0.0000 0.0612
v 0.1478 0.0000 -0.0612
v 0.0612 0.0000 -0.1478
v -0.0612 0.0000 -0.1478
v -0.1478 0.0000 -0.0612
v -0.1478 0.0000 0.0612
v -0.0612 0.0000 0.1478
f 112/6 111/6 110/6 109/6 108/6 107/6 106/6 105/6
v -0.0612 0.1200 0.1478
v -0.1478 0.1200 0.0612
v -0.1478 0.1200 -0.0612
v -0.0612 0.1200 -0.1478
v 0.0612 0.1200 -0.1478
v 0.1478 0.1200 -0.0612
v 0.1478 0.1200 0.0612
v 0.0612 0.1200 0.1478
f 120/6 119/6 118/6 117/6 116/6 115/6 114/6 113/6
v -0.0191 0.3400 0.0462
v -0.0462 0.3400 0.0191
v -0.0462 2.3400 0.0191
v -0.0191 2.3400 0.0462
f 124/6 123/6 122/6 121/6
v -0.0462 0.3400 0.0191
v -0.0462 0.3400 -0.0191
v -0.0462 2.3400 -0.0191
v -0.0462 2.3400 0.0191
f 128/6 127/6 126/6 125/6
v -0.0462 0.3400 -0.0191
v -0.0191 0.3400 -0.0462
v -0.0191 2.3400 -0.0462
v -0.0462 2.3400 -0.0191
f 132/6 131/6 130/6 129/6
v -0.0191 0.3400 -0.0462
v 0.0191 0.3400 -0.0462
v 0.0191 2.3400 -0.0462
v -0.0191 2.3400 -0.0462
f 136/6 135/6 134/6 133/6
v 0.0191 0.3400 -0.0462
v 0.0462 0.3400 -0.0191
v 0.0462 2.3400 -0.0191
v 0.0191 2.3400 -0.0462
f 140/6 139/6 138/6 137/6
v 0.0462 0.3400 -0.0191
v 0.0462 0.3400 0.0191
v 0.0462 2.3400 0.0191
v 0.0462 2.3400 -0.0191
f 144/6 143/6 142/6 141/6
v 0.0462 0.3400 0.0191
v 0.0191 0.3400 0.0462
v 0.0191 2.3400 0.0462
v 0.0462 2.3400 0.0191
f 148/6 147/6 146/6 145/6
v 0.0191 0.3400 0.0462
v -0.0191 0.3400 0.0462
v -0.0191 2.3400 0.0462
v 0.0191 2.3400 0.0462
f 152/6 151/6 150/6 149/6
v 0.0191 0.3400 0.0462
v 0.0462 0.3400 0.0191
v 0.0462 0.3400 -0.0191
v 0.0191 0.3400 -0.0462
v -0.0191 0.3400 -0.0462
v -0.0462 0.3400 -0.0191
v -0.0462 0.3400 0.0191
v -0.0191 0.3400 0.0462
f 160/6 159/6 158/6 157/6 156/6 155/6 154/6 153/6
v -0.0191 2.3400 0.0462
v -0.0462 2.3400 0.0191
v -0.0462 2.3400 -0.0191
v -0.0191 2.3400 -0.0462
v 0.0191 2.3400 -0.0462
v 0.0462 2.3400 -0.0191
v 0.0462 2.3400 0.0191
v 0.0191 2.3400 0.0462
f 168/6 167/6 166/6 165/6 164/6 163/6 162/6 161/6
v -0.4274 2.3561 0.0250
v -0.4126 2.4039 0.0250
v 0.0074 2.2739 0.0250
v -0.0074 2.2261 0.0250
f 172/6 171/6 170/6 169/6
v -0.0074 2.2261 -0.0250
v 0.0074 2.2739 -0.0250
v -0.4126 2.4039 -0.0250
v -0.4274 2.3561 -0.0250
f 176/6 175/6 174/6 173/6
v -0.0074 2.2261 0.0250
v -0.0074 2.2261 -0.0250
v -0.4274 2.3561 -0.0250
v -0.4274 2.3561 0.0250
f 180/6 179/6 178/6 177/6
v -0.4126 2.4039 0.0250
v -0.4126 2.4039 -0.0250
v 0.0074 2.2739 -0.0250
v 0.0074 2.2739 0.0250
f 184/6 183/6 182/6 181/6
v 0.0074 2.2739 0.0250
v 0.0074 2.2739 -0.0250
v -0.0074 2.2261 -0.0250
v -0.0074 2.2261 0.0250
f 188/6 187/6 186/6 185/6
v -0.4274 2.3561 0.0250
v -0.4274 2.3561 -0.0250
v -0.4126 2.4039 -0.0250
v -0.4126 2.4039 0.0250
f 192/6 191/6 190/6 189/6
v -0.2324 2.3115 0.0150
v -0.2076 2.3285 0.0150
v 0.0124 2.0085 0.0150
v -0.0124 1.9915 0.0150
f 196/6 195/6 194/6 193/6
v -0.0124 1.9915 -0.0150
v 0.0124 2.0085 -0.0150
v -0.2076 2.3285 -0.0150
v -0.2324 2.3115 -0.0150
f 200/6 199/6 198/6 197/6
v -0.0124 1.9915 0.0150
v -0.0124 1.9915 -0.0150
v -0.2324 2.3115 -0.0150
v -0.2324 2.3115 0.0150
f 204/6 203/6 202/6 201/6
v -0.2076 2.3285 0.0150
v -0.2076 2.3285 -0.0150
v 0.0124 2.0085 -0.0150
v 0.0124 2.0085 0.0150
f 208/6 207/6 206/6 205/6
v 0.0124 2.0085 0.0150
v 0.0124 2.0085 -0.0150
v -0.0124 1.9915 -0.0150
v -0.0124 1.9915 0.0150
f 212/6 211/6 210/6 209/6
v -0.2324 2.3115 0.0150
v -0.2324 2.3115 -0.0150
v -0.2076 2.3285 -0.0150
v -0.2076 2.3285 0.0150
f 216/6 215/6 214/6 213/6
v -0.3100 2.3750 0.0600
v -0.3100 2.4250 0.0600
v -0.3100 2.4250 -0.0600
v -0.3100 2.3750 -0.0600
f 220/6 219/6 218/6 217/6
v -0.4900 2.3750 -0.0600
v -0.4900 2.4250 -0.0600
v -0.4900 2.4250 0.0600
v -0.4900 2.3750 0.0600
f 224/6 223/6 222/6 221/6
v -0.3100 2.3750 -0.0600
v -0.4900 2.3750 -0.0600
v -0.4900 2.3750 0.0600
v -0.3100 2.3750 0.0600
f 228/6 227/6 226/6 225/6
v -0.3100 2.4250 0.0600
v -0.4900 2.4250 0.0600
v -0.4900 2.4250 -0.0600
v -0.3100 2.4250 -0.0600
f 232/6 231/6 230/6 229/6
v -0.3100 2.4250 -0.0600
v -0.4900 2.4250 -0.0600
v -0.4900 2.3750 -0.0600
v -0.3100 2.3750 -0.0600
f 236/6 235/6 234/6 233/6
v -0.3100 2.3750 0.0600
v -0.4900 2.3750 0.0600
v -0.4900 2.4250 0.0600
v -0.3100 2.4250 0.0600
f 240/6 239/6 238/6 237/6
v -0.0230 2.3300 0.0554
v -0.0554 2.3300 0.0230
v -0.0554 2.3900 0.0230
v -0.0230 2.3900 0.0554
f 244/23 243/23 242/23 241/23
v -0.0554 2.3300 0.0230
v -0.0554 2.3300 -0.0230
v -0.0554 2.3900 -0.0230
v -0.0554 2.3900 0.0230
f 248/23 247/23 246/23 245/23
v -0.0554 2.3300 -0.0230
v -0.0230 2.3300 -0.0554
v -0.0230 2.3900 -0.0554
v -0.0554 2.3900 -0.0230
f 252/23 251/23 250/23 249/23
v -0.0230 2.3300 -0.0554
v 0.0230 2.3300 -0.0554
v 0.0230 2.3900 -0.0554
v -0.0230 2.3900 -0.0554
f 256/23 255/23 254/23 253/23
v 0.0230 2.3300 -0.0554
v 0.0554 2.3300 -0.0230
v 0.0554 2.3900 -0.0230
v 0.0230 2.3900 -0.0554
f 260/23 259/23 258/23 257/23
v 0.0554 2.3300 -0.0230
v 0.0554 2.3300 0.0230
v 0.0554 2.3900 0.0230
v 0.0554 2.3900 -0.0230
f 264/23 263/23 262/23 261/23
v 0.0554 2.3300 0.0230
v 0.0230 2.3300 0.0554
v 0.0230 2.3900 0.0554
v 0.0554 2.3900 0.0230
f 268/23 267/23 266/23 265/23
v 0.0230 2.3300 0.0554
v -0.0230 2.3300 0.0554
v -0.0230 2.3900 0.0554
v 0.0230 2.3900 0.0554
f 272/23 271/23 270/23 269/23
v 0.0230 2.3300 0.0554
v 0.0554 2.3300 0.0230
v 0.0554 2.3300 -0.0230
v 0.0230 2.3300 -0.0554
v -0.0230 2.3300 -0.0554
v -0.0554 2.3300 -0.0230
v -0.0554 2.3300 0.0230
v -0.0230 2.3300 0.0554
f 280/23 279/23 278/23 277/23 276/23 275/23 274/23 273/23
v -0.0230 2.3900 0.0554
v -0.0554 2.3900 0.0230
v -0.0554 2.3900 -0.0230
v -0.0230 2.3900 -0.0554
v 0.0230 2.3900 -0.0554
v 0.0554 2.3900 -0.0230
v 0.0554 2.3900 0.0230
v 0.0230 2.3900 0.0554
f 288/23 287/23 286/23 285/23 284/23 283/23 282/23 281/23
o Lamp
usemtl wi_palette
v -0.2800 2.2700 0.0750
v -0.2800 2.3000 0.0750
v -0.2800 2.3000 -0.0750
v -0.2800 2.2700 -0.0750
f 292/31 291/31 290/31 289/31
v -0.5200 2.2700 -0.0750
v -0.5200 2.3000 -0.0750
v -0.5200 2.3000 0.0750
v -0.5200 2.2700 0.0750
f 296/31 295/31 294/31 293/31
v -0.2800 2.2700 -0.0750
v -0.5200 2.2700 -0.0750
v -0.5200 2.2700 0.0750
v -0.2800 2.2700 0.0750
f 300/31 299/31 298/31 297/31
v -0.2800 2.3000 0.0750
v -0.5200 2.3000 0.0750
v -0.5200 2.3000 -0.0750
v -0.2800 2.3000 -0.0750
f 304/31 303/31 302/31 301/31
v -0.2800 2.3000 -0.0750
v -0.5200 2.3000 -0.0750
v -0.5200 2.2700 -0.0750
v -0.2800 2.2700 -0.0750
f 308/31 307/31 306/31 305/31
v -0.2800 2.2700 0.0750
v -0.5200 2.2700 0.0750
v -0.5200 2.3000 0.0750
v -0.2800 2.3000 0.0750
f 312/31 311/31 310/31 309/31
