# Walk of Industry low-poly (generated, wi_lib.py)
mtllib wi.mtl
vt 0 0
vt 0.03125 0.03125
vt 0.09375 0.03125
vt 0.15625 0.03125
vt 0.21875 0.03125
vt 0.28125 0.03125
vt 0.34375 0.03125
vt 0.40625 0.03125
vt 0.46875 0.03125
vt 0.53125 0.03125
vt 0.59375 0.03125
vt 0.65625 0.03125
vt 0.71875 0.03125
vt 0.78125 0.03125
vt 0.84375 0.03125
vt 0.90625 0.03125
vt 0.96875 0.03125
vt 0.03125 0.09375
vt 0.09375 0.09375
vt 0.15625 0.09375
vt 0.21875 0.09375
vt 0.28125 0.09375
vt 0.34375 0.09375
vt 0.40625 0.09375
vt 0.46875 0.09375
vt 0.53125 0.09375
vt 0.59375 0.09375
vt 0.65625 0.09375
vt 0.71875 0.09375
vt 0.78125 0.09375
vt 0.84375 0.09375
vt 0.90625 0.09375
vt 0.96875 0.09375
o Body
usemtl wi_palette
v 0.3700 0.0000 0.3500
v 0.3700 0.0400 0.3500
v 0.3700 0.0400 0.0500
v 0.3700 0.0000 0.0500
f 4/6 3/6 2/6 1/6
v 0.0700 0.0000 0.0500
v 0.0700 0.0400 0.0500
v 0.0700 0.0400 0.3500
v 0.0700 0.0000 0.3500
f 8/6 7/6 6/6 5/6
v 0.3700 0.0000 0.0500
v 0.0700 0.0000 0.0500
v 0.0700 0.0000 0.3500
v 0.3700 0.0000 0.3500
f 12/6 11/6 10/6 9/6
v 0.3700 0.0400 0.3500
v 0.0700 0.0400 0.3500
v 0.0700 0.0400 0.0500
v 0.3700 0.0400 0.0500
f 16/6 15/6 14/6 13/6
v 0.3700 0.0400 0.0500
v 0.0700 0.0400 0.0500
v 0.0700 0.0000 0.0500
v 0.3700 0.0000 0.0500
f 20/6 19/6 18/6 17/6
v 0.3700 0.0000 0.3500
v 0.0700 0.0000 0.3500
v 0.0700 0.0400 0.3500
v 0.3700 0.0400 0.3500
f 24/6 23/6 22/6 21/6
v 0.1741 0.0400 0.3109
v 0.1091 0.0400 0.2459
v 0.1969 0.5400 0.2096
v 0.2104 0.5400 0.2231
f 28/25 27/25 26/25 25/25
v 0.1091 0.0400 0.2459
v 0.1091 0.0400 0.1541
v 0.1969 0.5400 0.1904
v 0.1969 0.5400 0.2096
f 32/25 31/25 30/25 29/25
v 0.1091 0.0400 0.1541
v 0.1741 0.0400 0.0891
v 0.2104 0.5400 0.1769
v 0.1969 0.5400 0.1904
f 36/25 35/25 34/25 33/25
v 0.1741 0.0400 0.0891
v 0.2659 0.0400 0.0891
v 0.2296 0.5400 0.1769
v 0.2104 0.5400 0.1769
f 40/25 39/25 38/25 37/25
v 0.2659 0.0400 0.0891
v 0.3309 0.0400 0.1541
v 0.2431 0.5400 0.1904
v 0.2296 0.5400 0.1769
f 44/25 43/25 42/25 41/25
v 0.3309 0.0400 0.1541
v 0.3309 0.0400 0.2459
v 0.2431 0.5400 0.2096
v 0.2431 0.5400 0.1904
f 48/25 47/25 46/25 45/25
v 0.3309 0.0400 0.2459
v 0.2659 0.0400 0.3109
v 0.2296 0.5400 0.2231
v 0.2431 0.5400 0.2096
f 52/25 51/25 50/25 49/25
v 0.2659 0.0400 0.3109
v 0.1741 0.0400 0.3109
v 0.2104 0.5400 0.2231
v 0.2296 0.5400 0.2231
f 56/25 55/25 54/25 53/25
v 0.2659 0.0400 0.3109
v 0.3309 0.0400 0.2459
v 0.3309 0.0400 0.1541
v 0.2659 0.0400 0.0891
v 0.1741 0.0400 0.0891
v 0.1091 0.0400 0.1541
v 0.1091 0.0400 0.2459
v 0.1741 0.0400 0.3109
f 64/25 63/25 62/25 61/25 60/25 59/25 58/25 57/25
v 0.2104 0.5400 0.2231
v 0.1969 0.5400 0.2096
v 0.1969 0.5400 0.1904
v 0.2104 0.5400 0.1769
v 0.2296 0.5400 0.1769
v 0.2431 0.5400 0.1904
v 0.2431 0.5400 0.2096
v 0.2296 0.5400 0.2231
f 72/25 71/25 70/25 69/25 68/25 67/25 66/25 65/25
v 0.1863 0.2200 0.2813
v 0.1387 0.2200 0.2337
v 0.1507 0.3000 0.2287
v 0.1913 0.3000 0.2693
f 76/15 75/15 74/15 73/15
v 0.1387 0.2200 0.2337
v 0.1387 0.2200 0.1663
v 0.1507 0.3000 0.1713
v 0.1507 0.3000 0.2287
f 80/15 79/15 78/15 77/15
v 0.1387 0.2200 0.1663
v 0.1863 0.2200 0.1187
v 0.1913 0.3000 0.1307
v 0.1507 0.3000 0.1713
f 84/15 83/15 82/15 81/15
v 0.1863 0.2200 0.1187
v 0.2537 0.2200 0.1187
v 0.2487 0.3000 0.1307
v 0.1913 0.3000 0.1307
f 88/15 87/15 86/15 85/15
v 0.2537 0.2200 0.1187
v 0.3013 0.2200 0.1663
v 0.2893 0.3000 0.1713
v 0.2487 0.3000 0.1307
f 92/15 91/15 90/15 89/15
v 0.3013 0.2200 0.1663
v 0.3013 0.2200 0.2337
v 0.2893 0.3000 0.2287
v 0.2893 0.3000 0.1713
f 96/15 95/15 94/15 93/15
v 0.3013 0.2200 0.2337
v 0.2537 0.2200 0.2813
v 0.2487 0.3000 0.2693
v 0.2893 0.3000 0.2287
f 100/15 99/15 98/15 97/15
v 0.2537 0.2200 0.2813
v 0.1863 0.2200 0.2813
v 0.1913 0.3000 0.2693
v 0.2487 0.3000 0.2693
f 104/15 103/15 102/15 101/15
v 0.2537 0.2200 0.2813
v 0.3013 0.2200 0.2337
v 0.3013 0.2200 0.1663
v 0.2537 0.2200 0.1187
v 0.1863 0.2200 0.1187
v 0.1387 0.2200 0.1663
v 0.1387 0.2200 0.2337
v 0.1863 0.2200 0.2813
f 112/15 111/15 110/15 109/15 108/15 107/15 106/15 105/15
v 0.1913 0.3000 0.2693
v 0.1507 0.3000 0.2287
v 0.1507 0.3000 0.1713
v 0.1913 0.3000 0.1307
v 0.2487 0.3000 0.1307
v 0.2893 0.3000 0.1713
v 0.2893 0.3000 0.2287
v 0.2487 0.3000 0.2693
f 120/15 119/15 118/15 117/15 116/15 115/15 114/15 113/15
v -0.1000 0.0000 0.4000
v -0.1000 0.0400 0.4000
v -0.1000 0.0400 0.1000
v -0.1000 0.0000 0.1000
f 124/6 123/6 122/6 121/6
v -0.4000 0.0000 0.1000
v -0.4000 0.0400 0.1000
v -0.4000 0.0400 0.4000
v -0.4000 0.0000 0.4000
f 128/6 127/6 126/6 125/6
v -0.1000 0.0000 0.1000
v -0.4000 0.0000 0.1000
v -0.4000 0.0000 0.4000
v -0.1000 0.0000 0.4000
f 132/6 131/6 130/6 129/6
v -0.1000 0.0400 0.4000
v -0.4000 0.0400 0.4000
v -0.4000 0.0400 0.1000
v -0.1000 0.0400 0.1000
f 136/6 135/6 134/6 133/6
v -0.1000 0.0400 0.1000
v -0.4000 0.0400 0.1000
v -0.4000 0.0000 0.1000
v -0.1000 0.0000 0.1000
f 140/6 139/6 138/6 137/6
v -0.1000 0.0000 0.4000
v -0.4000 0.0000 0.4000
v -0.4000 0.0400 0.4000
v -0.1000 0.0400 0.4000
f 144/6 143/6 142/6 141/6
v -0.2959 0.0400 0.3609
v -0.3609 0.0400 0.2959
v -0.2731 0.5400 0.2596
v -0.2596 0.5400 0.2731
f 148/25 147/25 146/25 145/25
v -0.3609 0.0400 0.2959
v -0.3609 0.0400 0.2041
v -0.2731 0.5400 0.2404
v -0.2731 0.5400 0.2596
f 152/25 151/25 150/25 149/25
v -0.3609 0.0400 0.2041
v -0.2959 0.0400 0.1391
v -0.2596 0.5400 0.2269
v -0.2731 0.5400 0.2404
f 156/25 155/25 154/25 153/25
v -0.2959 0.0400 0.1391
v -0.2041 0.0400 0.1391
v -0.2404 0.5400 0.2269
v -0.2596 0.5400 0.2269
f 160/25 159/25 158/25 157/25
v -0.2041 0.0400 0.1391
v -0.1391 0.0400 0.2041
v -0.2269 0.5400 0.2404
v -0.2404 0.5400 0.2269
f 164/25 163/25 162/25 161/25
v -0.1391 0.0400 0.2041
v -0.1391 0.0400 0.2959
v -0.2269 0.5400 0.2596
v -0.2269 0.5400 0.2404
f 168/25 167/25 166/25 165/25
v -0.1391 0.0400 0.2959
v -0.2041 0.0400 0.3609
v -0.2404 0.5400 0.2731
v -0.2269 0.5400 0.2596
f 172/25 171/25 170/25 169/25
v -0.2041 0.0400 0.3609
v -0.2959 0.0400 0.3609
v -0.2596 0.5400 0.2731
v -0.2404 0.5400 0.2731
f 176/25 175/25 174/25 173/25
v -0.2041 0.0400 0.3609
v -0.1391 0.0400 0.2959
v -0.1391 0.0400 0.2041
v -0.2041 0.0400 0.1391
v -0.2959 0.0400 0.1391
v -0.3609 0.0400 0.2041
v -0.3609 0.0400 0.2959
v -0.2959 0.0400 0.3609
f 184/25 183/25 182/25 181/25 180/25 179/25 178/25 177/25
v -0.2596 0.5400 0.2731
v -0.2731 0.5400 0.2596
v -0.2731 0.5400 0.2404
v -0.2596 0.5400 0.2269
v -0.2404 0.5400 0.2269
v -0.2269 0.5400 0.2404
v -0.2269 0.5400 0.2596
v -0.2404 0.5400 0.2731
f 192/25 191/25 190/25 189/25 188/25 187/25 186/25 185/25
v -0.2837 0.2200 0.3313
v -0.3313 0.2200 0.2837
v -0.3193 0.3000 0.2787
v -0.2787 0.3000 0.3193
f 196/15 195/15 194/15 193/15
v -0.3313 0.2200 0.2837
v -0.3313 0.2200 0.2163
v -0.3193 0.3000 0.2213
v -0.3193 0.3000 0.2787
f 200/15 199/15 198/15 197/15
v -0.3313 0.2200 0.2163
v -0.2837 0.2200 0.1687
v -0.2787 0.3000 0.1807
v -0.3193 0.3000 0.2213
f 204/15 203/15 202/15 201/15
v -0.2837 0.2200 0.1687
v -0.2163 0.2200 0.1687
v -0.2213 0.3000 0.1807
v -0.2787 0.3000 0.1807
f 208/15 207/15 206/15 205/15
v -0.2163 0.2200 0.1687
v -0.1687 0.2200 0.2163
v -0.1807 0.3000 0.2213
v -0.2213 0.3000 0.1807
f 212/15 211/15 210/15 209/15
v -0.1687 0.2200 0.2163
v -0.1687 0.2200 0.2837
v -0.1807 0.3000 0.2787
v -0.1807 0.3000 0.2213
f 216/15 215/15 214/15 213/15
v -0.1687 0.2200 0.2837
v -0.2163 0.2200 0.3313
v -0.2213 0.3000 0.3193
v -0.1807 0.3000 0.2787
f 220/15 219/15 218/15 217/15
v -0.2163 0.2200 0.3313
v -0.2837 0.2200 0.3313
v -0.2787 0.3000 0.3193
v -0.2213 0.3000 0.3193
f 224/15 223/15 222/15 221/15
v -0.2163 0.2200 0.3313
v -0.1687 0.2200 0.2837
v -0.1687 0.2200 0.2163
v -0.2163 0.2200 0.1687
v -0.2837 0.2200 0.1687
v -0.3313 0.2200 0.2163
v -0.3313 0.2200 0.2837
v -0.2837 0.2200 0.3313
f 232/15 231/15 230/15 229/15 228/15 227/15 226/15 225/15
v -0.2787 0.3000 0.3193
v -0.3193 0.3000 0.2787
v -0.3193 0.3000 0.2213
v -0.2787 0.3000 0.1807
v -0.2213 0.3000 0.1807
v -0.1807 0.3000 0.2213
v -0.1807 0.3000 0.2787
v -0.2213 0.3000 0.3193
f 240/15 239/15 238/15 237/15 236/15 235/15 234/15 233/15
v 0.3198 0.5570 -0.2189
v 0.2802 0.5515 -0.2201
v 0.3602 0.0015 -0.3401
v 0.3998 0.0070 -0.3389
f 244/6 243/6 242/6 241/6
v 0.3998 -0.0015 -0.2999
v 0.3602 -0.0070 -0.3011
v 0.2802 0.5430 -0.1811
v 0.3198 0.5485 -0.1799
f 248/6 247/6 246/6 245/6
v 0.3998 0.0070 -0.3389
v 0.3998 -0.0015 -0.2999
v 0.3198 0.5485 -0.1799
v 0.3198 0.5570 -0.2189
f 252/6 251/6 250/6 249/6
v 0.2802 0.5515 -0.2201
v 0.2802 0.5430 -0.1811
v 0.3602 -0.0070 -0.3011
v 0.3602 0.0015 -0.3401
f 256/6 255/6 254/6 253/6
v 0.3602 0.0015 -0.3401
v 0.3602 -0.0070 -0.3011
v 0.3998 -0.0015 -0.2999
v 0.3998 0.0070 -0.3389
f 260/6 259/6 258/6 257/6
v 0.3198 0.5570 -0.2189
v 0.3198 0.5485 -0.1799
v 0.2802 0.5430 -0.1811
v 0.2802 0.5515 -0.2201
f 264/6 263/6 262/6 261/6
v 0.3198 0.5485 -0.2201
v 0.2802 0.5430 -0.2189
v 0.3602 -0.0070 -0.0989
v 0.3998 -0.0015 -0.1001
f 268/6 267/6 266/6 265/6
v 0.3998 0.0070 -0.0611
v 0.3602 0.0015 -0.0599
v 0.2802 0.5515 -0.1799
v 0.3198 0.5570 -0.1811
f 272/6 271/6 270/6 269/6
v 0.3998 -0.0015 -0.1001
v 0.3998 0.0070 -0.0611
v 0.3198 0.5570 -0.1811
v 0.3198 0.5485 -0.2201
f 276/6 275/6 274/6 273/6
v 0.2802 0.5430 -0.2189
v 0.2802 0.5515 -0.1799
v 0.3602 0.0015 -0.0599
v 0.3602 -0.0070 -0.0989
f 280/6 279/6 278/6 277/6
v 0.3602 -0.0070 -0.0989
v 0.3602 0.0015 -0.0599
v 0.3998 0.0070 -0.0611
v 0.3998 -0.0015 -0.1001
f 284/6 283/6 282/6 281/6
v 0.3198 0.5485 -0.2201
v 0.3198 0.5570 -0.1811
v 0.2802 0.5515 -0.1799
v 0.2802 0.5430 -0.2189
f 288/6 287/6 286/6 285/6
v -0.2802 0.5515 -0.2201
v -0.3198 0.5570 -0.2189
v -0.3998 0.0070 -0.3389
v -0.3602 0.0015 -0.3401
f 292/6 291/6 290/6 289/6
v -0.3602 -0.0070 -0.3011
v -0.3998 -0.0015 -0.2999
v -0.3198 0.5485 -0.1799
v -0.2802 0.5430 -0.1811
f 296/6 295/6 294/6 293/6
v -0.3602 0.0015 -0.3401
v -0.3602 -0.0070 -0.3011
v -0.2802 0.5430 -0.1811
v -0.2802 0.5515 -0.2201
f 300/6 299/6 298/6 297/6
v -0.3198 0.5570 -0.2189
v -0.3198 0.5485 -0.1799
v -0.3998 -0.0015 -0.2999
v -0.3998 0.0070 -0.3389
f 304/6 303/6 302/6 301/6
v -0.3998 0.0070 -0.3389
v -0.3998 -0.0015 -0.2999
v -0.3602 -0.0070 -0.3011
v -0.3602 0.0015 -0.3401
f 308/6 307/6 306/6 305/6
v -0.2802 0.5515 -0.2201
v -0.2802 0.5430 -0.1811
v -0.3198 0.5485 -0.1799
v -0.3198 0.5570 -0.2189
f 312/6 311/6 310/6 309/6
v -0.2802 0.5430 -0.2189
v -0.3198 0.5485 -0.2201
v -0.3998 -0.0015 -0.1001
v -0.3602 -0.0070 -0.0989
f 316/6 315/6 314/6 313/6
v -0.3602 0.0015 -0.0599
v -0.3998 0.0070 -0.0611
v -0.3198 0.5570 -0.1811
v -0.2802 0.5515 -0.1799
f 320/6 319/6 318/6 317/6
v -0.3602 -0.0070 -0.0989
v -0.3602 0.0015 -0.0599
v -0.2802 0.5515 -0.1799
v -0.2802 0.5430 -0.2189
f 324/6 323/6 322/6 321/6
v -0.3198 0.5485 -0.2201
v -0.3198 0.5570 -0.1811
v -0.3998 0.0070 -0.0611
v -0.3998 -0.0015 -0.1001
f 328/6 327/6 326/6 325/6
v -0.3998 -0.0015 -0.1001
v -0.3998 0.0070 -0.0611
v -0.3602 0.0015 -0.0599
v -0.3602 -0.0070 -0.0989
f 332/6 331/6 330/6 329/6
v -0.2802 0.5430 -0.2189
v -0.2802 0.5515 -0.1799
v -0.3198 0.5570 -0.1811
v -0.3198 0.5485 -0.2201
f 336/6 335/6 334/6 333/6
v 0.4200 0.4200 -0.1800
v 0.4200 0.5800 -0.1800
v 0.4200 0.5800 -0.2200
v 0.4200 0.4200 -0.2200
f 340/27 339/27 338/27 337/27
v 0.2800 0.4200 -0.2200
v 0.2800 0.5800 -0.2200
v 0.2800 0.5800 -0.1800
v 0.2800 0.4200 -0.1800
f 344/27 343/27 342/27 341/27
v 0.4200 0.4200 -0.2200
v 0.2800 0.4200 -0.2200
v 0.2800 0.4200 -0.1800
v 0.4200 0.4200 -0.1800
f 348/27 347/27 346/27 345/27
v 0.4200 0.5800 -0.1800
v 0.2800 0.5800 -0.1800
v 0.2800 0.5800 -0.2200
v 0.4200 0.5800 -0.2200
f 352/27 351/27 350/27 349/27
v 0.4200 0.5800 -0.2200
v 0.2800 0.5800 -0.2200
v 0.2800 0.4200 -0.2200
v 0.4200 0.4200 -0.2200
f 356/27 355/27 354/27 353/27
v 0.4200 0.4200 -0.1800
v 0.2800 0.4200 -0.1800
v 0.2800 0.5800 -0.1800
v 0.4200 0.5800 -0.1800
f 360/27 359/27 358/27 357/27
v 0.2800 0.4200 -0.1800
v 0.2800 0.5800 -0.1800
v 0.2800 0.5800 -0.2200
v 0.2800 0.4200 -0.2200
f 364/15 363/15 362/15 361/15
v 0.1400 0.4200 -0.2200
v 0.1400 0.5800 -0.2200
v 0.1400 0.5800 -0.1800
v 0.1400 0.4200 -0.1800
f 368/15 367/15 366/15 365/15
v 0.2800 0.4200 -0.2200
v 0.1400 0.4200 -0.2200
v 0.1400 0.4200 -0.1800
v 0.2800 0.4200 -0.1800
f 372/15 371/15 370/15 369/15
v 0.2800 0.5800 -0.1800
v 0.1400 0.5800 -0.1800
v 0.1400 0.5800 -0.2200
v 0.2800 0.5800 -0.2200
f 376/15 375/15 374/15 373/15
v 0.2800 0.5800 -0.2200
v 0.1400 0.5800 -0.2200
v 0.1400 0.4200 -0.2200
v 0.2800 0.4200 -0.2200
f 380/15 379/15 378/15 377/15
v 0.2800 0.4200 -0.1800
v 0.1400 0.4200 -0.1800
v 0.1400 0.5800 -0.1800
v 0.2800 0.5800 -0.1800
f 384/15 383/15 382/15 381/15
v 0.1400 0.4200 -0.1800
v 0.1400 0.5800 -0.1800
v 0.1400 0.5800 -0.2200
v 0.1400 0.4200 -0.2200
f 388/27 387/27 386/27 385/27
v 0.0000 0.4200 -0.2200
v 0.0000 0.5800 -0.2200
v 0.0000 0.5800 -0.1800
v 0.0000 0.4200 -0.1800
f 392/27 391/27 390/27 389/27
v 0.1400 0.4200 -0.2200
v 0.0000 0.4200 -0.2200
v 0.0000 0.4200 -0.1800
v 0.1400 0.4200 -0.1800
f 396/27 395/27 394/27 393/27
v 0.1400 0.5800 -0.1800
v 0.0000 0.5800 -0.1800
v 0.0000 0.5800 -0.2200
v 0.1400 0.5800 -0.2200
f 400/27 399/27 398/27 397/27
v 0.1400 0.5800 -0.2200
v 0.0000 0.5800 -0.2200
v 0.0000 0.4200 -0.2200
v 0.1400 0.4200 -0.2200
f 404/27 403/27 402/27 401/27
v 0.1400 0.4200 -0.1800
v 0.0000 0.4200 -0.1800
v 0.0000 0.5800 -0.1800
v 0.1400 0.5800 -0.1800
f 408/27 407/27 406/27 405/27
v 0.0000 0.4200 -0.1800
v 0.0000 0.5800 -0.1800
v 0.0000 0.5800 -0.2200
v 0.0000 0.4200 -0.2200
f 412/15 411/15 410/15 409/15
v -0.1400 0.4200 -0.2200
v -0.1400 0.5800 -0.2200
v -0.1400 0.5800 -0.1800
v -0.1400 0.4200 -0.1800
f 416/15 415/15 414/15 413/15
v 0.0000 0.4200 -0.2200
v -0.1400 0.4200 -0.2200
v -0.1400 0.4200 -0.1800
v 0.0000 0.4200 -0.1800
f 420/15 419/15 418/15 417/15
v 0.0000 0.5800 -0.1800
v -0.1400 0.5800 -0.1800
v -0.1400 0.5800 -0.2200
v 0.0000 0.5800 -0.2200
f 424/15 423/15 422/15 421/15
v 0.0000 0.5800 -0.2200
v -0.1400 0.5800 -0.2200
v -0.1400 0.4200 -0.2200
v 0.0000 0.4200 -0.2200
f 428/15 427/15 426/15 425/15
v 0.0000 0.4200 -0.1800
v -0.1400 0.4200 -0.1800
v -0.1400 0.5800 -0.1800
v 0.0000 0.5800 -0.1800
f 432/15 431/15 430/15 429/15
v -0.1400 0.4200 -0.1800
v -0.1400 0.5800 -0.1800
v -0.1400 0.5800 -0.2200
v -0.1400 0.4200 -0.2200
f 436/27 435/27 434/27 433/27
v -0.2800 0.4200 -0.2200
v -0.2800 0.5800 -0.2200
v -0.2800 0.5800 -0.1800
v -0.2800 0.4200 -0.1800
f 440/27 439/27 438/27 437/27
v -0.1400 0.4200 -0.2200
v -0.2800 0.4200 -0.2200
v -0.2800 0.4200 -0.1800
v -0.1400 0.4200 -0.1800
f 444/27 443/27 442/27 441/27
v -0.1400 0.5800 -0.1800
v -0.2800 0.5800 -0.1800
v -0.2800 0.5800 -0.2200
v -0.1400 0.5800 -0.2200
f 448/27 447/27 446/27 445/27
v -0.1400 0.5800 -0.2200
v -0.2800 0.5800 -0.2200
v -0.2800 0.4200 -0.2200
v -0.1400 0.4200 -0.2200
f 452/27 451/27 450/27 449/27
v -0.1400 0.4200 -0.1800
v -0.2800 0.4200 -0.1800
v -0.2800 0.5800 -0.1800
v -0.1400 0.5800 -0.1800
f 456/27 455/27 454/27 453/27
v -0.2800 0.4200 -0.1800
v -0.2800 0.5800 -0.1800
v -0.2800 0.5800 -0.2200
v -0.2800 0.4200 -0.2200
f 460/15 459/15 458/15 457/15
v -0.4200 0.4200 -0.2200
v -0.4200 0.5800 -0.2200
v -0.4200 0.5800 -0.1800
v -0.4200 0.4200 -0.1800
f 464/15 463/15 462/15 461/15
v -0.2800 0.4200 -0.2200
v -0.4200 0.4200 -0.2200
v -0.4200 0.4200 -0.1800
v -0.2800 0.4200 -0.1800
f 468/15 467/15 466/15 465/15
v -0.2800 0.5800 -0.1800
v -0.4200 0.5800 -0.1800
v -0.4200 0.5800 -0.2200
v -0.2800 0.5800 -0.2200
f 472/15 471/15 470/15 469/15
v -0.2800 0.5800 -0.2200
v -0.4200 0.5800 -0.2200
v -0.4200 0.4200 -0.2200
v -0.2800 0.4200 -0.2200
f 476/15 475/15 474/15 473/15
v -0.2800 0.4200 -0.1800
v -0.4200 0.4200 -0.1800
v -0.4200 0.5800 -0.1800
v -0.2800 0.5800 -0.1800
f 480/15 479/15 478/15 477/15
o Lamp
usemtl wi_palette
v -0.2850 0.5850 -0.1650
v -0.2850 0.6550 -0.1650
v -0.2850 0.6550 -0.2350
v -0.2850 0.5850 -0.2350
f 484/17 483/17 482/17 481/17
v -0.3550 0.5850 -0.2350
v -0.3550 0.6550 -0.2350
v -0.3550 0.6550 -0.1650
v -0.3550 0.5850 -0.1650
f 488/17 487/17 486/17 485/17
v -0.2850 0.5850 -0.2350
v -0.3550 0.5850 -0.2350
v -0.3550 0.5850 -0.1650
v -0.2850 0.5850 -0.1650
f 492/17 491/17 490/17 489/17
v -0.2850 0.6550 -0.1650
v -0.3550 0.6550 -0.1650
v -0.3550 0.6550 -0.2350
v -0.2850 0.6550 -0.2350
f 496/17 495/17 494/17 493/17
v -0.2850 0.6550 -0.2350
v -0.3550 0.6550 -0.2350
v -0.3550 0.5850 -0.2350
v -0.2850 0.5850 -0.2350
f 500/17 499/17 498/17 497/17
v -0.2850 0.5850 -0.1650
v -0.3550 0.5850 -0.1650
v -0.3550 0.6550 -0.1650
v -0.2850 0.6550 -0.1650
f 504/17 503/17 502/17 501/17
