# Walk of Industry low-poly (generated, wi_lib.py)
mtllib wi.mtl
vt 0 0
vt 0.03125 0.03125
vt 0.09375 0.03125
vt 0.15625 0.03125
vt 0.21875 0.03125
vt 0.28125 0.03125
vt 0.34375 0.03125
vt 0.40625 0.03125
vt 0.46875 0.03125
vt 0.53125 0.03125
vt 0.59375 0.03125
vt 0.65625 0.03125
vt 0.71875 0.03125
vt 0.78125 0.03125
vt 0.84375 0.03125
vt 0.90625 0.03125
vt 0.96875 0.03125
vt 0.03125 0.09375
vt 0.09375 0.09375
vt 0.15625 0.09375
vt 0.21875 0.09375
vt 0.28125 0.09375
vt 0.34375 0.09375
vt 0.40625 0.09375
vt 0.46875 0.09375
vt 0.53125 0.09375
vt 0.59375 0.09375
vt 0.65625 0.09375
vt 0.71875 0.09375
vt 0.78125 0.09375
vt 0.84375 0.09375
vt 0.90625 0.09375
vt 0.96875 0.09375
o Body
usemtl wi_palette
v -0.5549 0.0000 1.3396
v -1.3396 0.0000 0.5549
v -1.3396 0.0600 0.5549
v -0.5549 0.0600 1.3396
f 4/29 3/29 2/29 1/29
v -1.3396 0.0000 0.5549
v -1.3396 0.0000 -0.5549
v -1.3396 0.0600 -0.5549
v -1.3396 0.0600 0.5549
f 8/29 7/29 6/29 5/29
v -1.3396 0.0000 -0.5549
v -0.5549 0.0000 -1.3396
v -0.5549 0.0600 -1.3396
v -1.3396 0.0600 -0.5549
f 12/29 11/29 10/29 9/29
v -0.5549 0.0000 -1.3396
v 0.5549 0.0000 -1.3396
v 0.5549 0.0600 -1.3396
v -0.5549 0.0600 -1.3396
f 16/29 15/29 14/29 13/29
v 0.5549 0.0000 -1.3396
v 1.3396 0.0000 -0.5549
v 1.3396 0.0600 -0.5549
v 0.5549 0.0600 -1.3396
f 20/29 19/29 18/29 17/29
v 1.3396 0.0000 -0.5549
v 1.3396 0.0000 0.5549
v 1.3396 0.0600 0.5549
v 1.3396 0.0600 -0.5549
f 24/29 23/29 22/29 21/29
v 1.3396 0.0000 0.5549
v 0.5549 0.0000 1.3396
v 0.5549 0.0600 1.3396
v 1.3396 0.0600 0.5549
f 28/29 27/29 26/29 25/29
v 0.5549 0.0000 1.3396
v -0.5549 0.0000 1.3396
v -0.5549 0.0600 1.3396
v 0.5549 0.0600 1.3396
f 32/29 31/29 30/29 29/29
v 0.5549 0.0000 1.3396
v 1.3396 0.0000 0.5549
v 1.3396 0.0000 -0.5549
v 0.5549 0.0000 -1.3396
v -0.5549 0.0000 -1.3396
v -1.3396 0.0000 -0.5549
v -1.3396 0.0000 0.5549
v -0.5549 0.0000 1.3396
f 40/29 39/29 38/29 37/29 36/29 35/29 34/29 33/29
v -0.5549 0.0600 1.3396
v -1.3396 0.0600 0.5549
v -1.3396 0.0600 -0.5549
v -0.5549 0.0600 -1.3396
v 0.5549 0.0600 -1.3396
v 1.3396 0.0600 -0.5549
v 1.3396 0.0600 0.5549
v 0.5549 0.0600 1.3396
f 48/29 47/29 46/29 45/29 44/29 43/29 42/29 41/29
v -0.8179 0.0500 0.8998
v -0.8179 0.4500 0.8998
v -1.2146 0.4500 -0.0579
v -1.2146 0.0500 -0.0579
f 52/11 51/11 50/11 49/11
v -1.3994 0.0500 0.0186
v -1.3994 0.4500 0.0186
v -1.0027 0.4500 0.9764
v -1.0027 0.0500 0.9764
f 56/11 55/11 54/11 53/11
v -1.2146 0.0500 -0.0579
v -1.3994 0.0500 0.0186
v -1.0027 0.0500 0.9764
v -0.8179 0.0500 0.8998
f 60/11 59/11 58/11 57/11
v -0.8179 0.4500 0.8998
v -1.0027 0.4500 0.9764
v -1.3994 0.4500 0.0186
v -1.2146 0.4500 -0.0579
f 64/11 63/11 62/11 61/11
v -1.2146 0.4500 -0.0579
v -1.3994 0.4500 0.0186
v -1.3994 0.0500 0.0186
v -1.2146 0.0500 -0.0579
f 68/11 67/11 66/11 65/11
v -0.8179 0.0500 0.8998
v -1.0027 0.0500 0.9764
v -1.0027 0.4500 0.9764
v -0.8179 0.4500 0.8998
f 72/11 71/11 70/11 69/11
v -0.7825 0.4450 0.9068
v -0.7825 0.4950 0.9068
v -1.1946 0.4950 -0.0879
v -1.1946 0.4450 -0.0879
f 76/15 75/15 74/15 73/15
v -1.4348 0.4450 0.0116
v -1.4348 0.4950 0.0116
v -1.0227 0.4950 1.0063
v -1.0227 0.4450 1.0063
f 80/15 79/15 78/15 77/15
v -1.1946 0.4450 -0.0879
v -1.4348 0.4450 0.0116
v -1.0227 0.4450 1.0063
v -0.7825 0.4450 0.9068
f 84/15 83/15 82/15 81/15
v -0.7825 0.4950 0.9068
v -1.0227 0.4950 1.0063
v -1.4348 0.4950 0.0116
v -1.1946 0.4950 -0.0879
f 88/15 87/15 86/15 85/15
v -1.1946 0.4950 -0.0879
v -1.4348 0.4950 0.0116
v -1.4348 0.4450 0.0116
v -1.1946 0.4450 -0.0879
f 92/15 91/15 90/15 89/15
v -0.7825 0.4450 0.9068
v -1.0227 0.4450 1.0063
v -1.0227 0.4950 1.0063
v -0.7825 0.4950 0.9068
f 96/15 95/15 94/15 93/15
v 0.0579 0.0500 1.2146
v 0.0579 0.4500 1.2146
v -0.8998 0.4500 0.8179
v -0.8998 0.0500 0.8179
f 100/11 99/11 98/11 97/11
v -0.9764 0.0500 1.0027
v -0.9764 0.4500 1.0027
v -0.0186 0.4500 1.3994
v -0.0186 0.0500 1.3994
f 104/11 103/11 102/11 101/11
v -0.8998 0.0500 0.8179
v -0.9764 0.0500 1.0027
v -0.0186 0.0500 1.3994
v 0.0579 0.0500 1.2146
f 108/11 107/11 106/11 105/11
v 0.0579 0.4500 1.2146
v -0.0186 0.4500 1.3994
v -0.9764 0.4500 1.0027
v -0.8998 0.4500 0.8179
f 112/11 111/11 110/11 109/11
v -0.8998 0.4500 0.8179
v -0.9764 0.4500 1.0027
v -0.9764 0.0500 1.0027
v -0.8998 0.0500 0.8179
f 116/11 115/11 114/11 113/11
v 0.0579 0.0500 1.2146
v -0.0186 0.0500 1.3994
v -0.0186 0.4500 1.3994
v 0.0579 0.4500 1.2146
f 120/11 119/11 118/11 117/11
v 0.0879 0.4450 1.1946
v 0.0879 0.4950 1.1946
v -0.9068 0.4950 0.7825
v -0.9068 0.4450 0.7825
f 124/15 123/15 122/15 121/15
v -1.0063 0.4450 1.0227
v -1.0063 0.4950 1.0227
v -0.0116 0.4950 1.4348
v -0.0116 0.4450 1.4348
f 128/15 127/15 126/15 125/15
v -0.9068 0.4450 0.7825
v -1.0063 0.4450 1.0227
v -0.0116 0.4450 1.4348
v 0.0879 0.4450 1.1946
f 132/15 131/15 130/15 129/15
v 0.0879 0.4950 1.1946
v -0.0116 0.4950 1.4348
v -1.0063 0.4950 1.0227
v -0.9068 0.4950 0.7825
f 136/15 135/15 134/15 133/15
v -0.9068 0.4950 0.7825
v -1.0063 0.4950 1.0227
v -1.0063 0.4450 1.0227
v -0.9068 0.4450 0.7825
f 140/15 139/15 138/15 137/15
v 0.0879 0.4450 1.1946
v -0.0116 0.4450 1.4348
v -0.0116 0.4950 1.4348
v 0.0879 0.4950 1.1946
f 144/15 143/15 142/15 141/15
v 0.8998 0.0500 0.8179
v 0.8998 0.4500 0.8179
v -0.0579 0.4500 1.2146
v -0.0579 0.0500 1.2146
f 148/11 147/11 146/11 145/11
v 0.0186 0.0500 1.3994
v 0.0186 0.4500 1.3994
v 0.9764 0.4500 1.0027
v 0.9764 0.0500 1.0027
f 152/11 151/11 150/11 149/11
v -0.0579 0.0500 1.2146
v 0.0186 0.0500 1.3994
v 0.9764 0.0500 1.0027
v 0.8998 0.0500 0.8179
f 156/11 155/11 154/11 153/11
v 0.8998 0.4500 0.8179
v 0.9764 0.4500 1.0027
v 0.0186 0.4500 1.3994
v -0.0579 0.4500 1.2146
f 160/11 159/11 158/11 157/11
v -0.0579 0.4500 1.2146
v 0.0186 0.4500 1.3994
v 0.0186 0.0500 1.3994
v -0.0579 0.0500 1.2146
f 164/11 163/11 162/11 161/11
v 0.8998 0.0500 0.8179
v 0.9764 0.0500 1.0027
v 0.9764 0.4500 1.0027
v 0.8998 0.4500 0.8179
f 168/11 167/11 166/11 165/11
v 0.9068 0.4450 0.7825
v 0.9068 0.4950 0.7825
v -0.0879 0.4950 1.1946
v -0.0879 0.4450 1.1946
f 172/15 171/15 170/15 169/15
v 0.0116 0.4450 1.4348
v 0.0116 0.4950 1.4348
v 1.0063 0.4950 1.0227
v 1.0063 0.4450 1.0227
f 176/15 175/15 174/15 173/15
v -0.0879 0.4450 1.1946
v 0.0116 0.4450 1.4348
v 1.0063 0.4450 1.0227
v 0.9068 0.4450 0.7825
f 180/15 179/15 178/15 177/15
v 0.9068 0.4950 0.7825
v 1.0063 0.4950 1.0227
v 0.0116 0.4950 1.4348
v -0.0879 0.4950 1.1946
f 184/15 183/15 182/15 181/15
v -0.0879 0.4950 1.1946
v 0.0116 0.4950 1.4348
v 0.0116 0.4450 1.4348
v -0.0879 0.4450 1.1946
f 188/15 187/15 186/15 185/15
v 0.9068 0.4450 0.7825
v 1.0063 0.4450 1.0227
v 1.0063 0.4950 1.0227
v 0.9068 0.4950 0.7825
f 192/15 191/15 190/15 189/15
v 1.2146 0.0500 -0.0579
v 1.2146 0.4500 -0.0579
v 0.8179 0.4500 0.8998
v 0.8179 0.0500 0.8998
f 196/11 195/11 194/11 193/11
v 1.0027 0.0500 0.9764
v 1.0027 0.4500 0.9764
v 1.3994 0.4500 0.0186
v 1.3994 0.0500 0.0186
f 200/11 199/11 198/11 197/11
v 0.8179 0.0500 0.8998
v 1.0027 0.0500 0.9764
v 1.3994 0.0500 0.0186
v 1.2146 0.0500 -0.0579
f 204/11 203/11 202/11 201/11
v 1.2146 0.4500 -0.0579
v 1.3994 0.4500 0.0186
v 1.0027 0.4500 0.9764
v 0.8179 0.4500 0.8998
f 208/11 207/11 206/11 205/11
v 0.8179 0.4500 0.8998
v 1.0027 0.4500 0.9764
v 1.0027 0.0500 0.9764
v 0.8179 0.0500 0.8998
f 212/11 211/11 210/11 209/11
v 1.2146 0.0500 -0.0579
v 1.3994 0.0500 0.0186
v 1.3994 0.4500 0.0186
v 1.2146 0.4500 -0.0579
f 216/11 215/11 214/11 213/11
v 1.1946 0.4450 -0.0879
v 1.1946 0.4950 -0.0879
v 0.7825 0.4950 0.9068
v 0.7825 0.4450 0.9068
f 220/15 219/15 218/15 217/15
v 1.0227 0.4450 1.0063
v 1.0227 0.4950 1.0063
v 1.4348 0.4950 0.0116
v 1.4348 0.4450 0.0116
f 224/15 223/15 222/15 221/15
v 0.7825 0.4450 0.9068
v 1.0227 0.4450 1.0063
v 1.4348 0.4450 0.0116
v 1.1946 0.4450 -0.0879
f 228/15 227/15 226/15 225/15
v 1.1946 0.4950 -0.0879
v 1.4348 0.4950 0.0116
v 1.0227 0.4950 1.0063
v 0.7825 0.4950 0.9068
f 232/15 231/15 230/15 229/15
v 0.7825 0.4950 0.9068
v 1.0227 0.4950 1.0063
v 1.0227 0.4450 1.0063
v 0.7825 0.4450 0.9068
f 236/15 235/15 234/15 233/15
v 1.1946 0.4450 -0.0879
v 1.4348 0.4450 0.0116
v 1.4348 0.4950 0.0116
v 1.1946 0.4950 -0.0879
f 240/15 239/15 238/15 237/15
v 0.8179 0.0500 -0.8998
v 0.8179 0.4500 -0.8998
v 1.2146 0.4500 0.0579
v 1.2146 0.0500 0.0579
f 244/11 243/11 242/11 241/11
v 1.3994 0.0500 -0.0186
v 1.3994 0.4500 -0.0186
v 1.0027 0.4500 -0.9764
v 1.0027 0.0500 -0.9764
f 248/11 247/11 246/11 245/11
v 1.2146 0.0500 0.0579
v 1.3994 0.0500 -0.0186
v 1.0027 0.0500 -0.9764
v 0.8179 0.0500 -0.8998
f 252/11 251/11 250/11 249/11
v 0.8179 0.4500 -0.8998
v 1.0027 0.4500 -0.9764
v 1.3994 0.4500 -0.0186
v 1.2146 0.4500 0.0579
f 256/11 255/11 254/11 253/11
v 1.2146 0.4500 0.0579
v 1.3994 0.4500 -0.0186
v 1.3994 0.0500 -0.0186
v 1.2146 0.0500 0.0579
f 260/11 259/11 258/11 257/11
v 0.8179 0.0500 -0.8998
v 1.0027 0.0500 -0.9764
v 1.0027 0.4500 -0.9764
v 0.8179 0.4500 -0.8998
f 264/11 263/11 262/11 261/11
v 0.7825 0.4450 -0.9068
v 0.7825 0.4950 -0.9068
v 1.1946 0.4950 0.0879
v 1.1946 0.4450 0.0879
f 268/15 267/15 266/15 265/15
v 1.4348 0.4450 -0.0116
v 1.4348 0.4950 -0.0116
v 1.0227 0.4950 -1.0063
v 1.0227 0.4450 -1.0063
f 272/15 271/15 270/15 269/15
v 1.1946 0.4450 0.0879
v 1.4348 0.4450 -0.0116
v 1.0227 0.4450 -1.0063
v 0.7825 0.4450 -0.9068
f 276/15 275/15 274/15 273/15
v 0.7825 0.4950 -0.9068
v 1.0227 0.4950 -1.0063
v 1.4348 0.4950 -0.0116
v 1.1946 0.4950 0.0879
f 280/15 279/15 278/15 277/15
v 1.1946 0.4950 0.0879
v 1.4348 0.4950 -0.0116
v 1.4348 0.4450 -0.0116
v 1.1946 0.4450 0.0879
f 284/15 283/15 282/15 281/15
v 0.7825 0.4450 -0.9068
v 1.0227 0.4450 -1.0063
v 1.0227 0.4950 -1.0063
v 0.7825 0.4950 -0.9068
f 288/15 287/15 286/15 285/15
v -0.0579 0.0500 -1.2146
v -0.0579 0.4500 -1.2146
v 0.8998 0.4500 -0.8179
v 0.8998 0.0500 -0.8179
f 292/11 291/11 290/11 289/11
v 0.9764 0.0500 -1.0027
v 0.9764 0.4500 -1.0027
v 0.0186 0.4500 -1.3994
v 0.0186 0.0500 -1.3994
f 296/11 295/11 294/11 293/11
v 0.8998 0.0500 -0.8179
v 0.9764 0.0500 -1.0027
v 0.0186 0.0500 -1.3994
v -0.0579 0.0500 -1.2146
f 300/11 299/11 298/11 297/11
v -0.0579 0.4500 -1.2146
v 0.0186 0.4500 -1.3994
v 0.9764 0.4500 -1.0027
v 0.8998 0.4500 -0.8179
f 304/11 303/11 302/11 301/11
v 0.8998 0.4500 -0.8179
v 0.9764 0.4500 -1.0027
v 0.9764 0.0500 -1.0027
v 0.8998 0.0500 -0.8179
f 308/11 307/11 306/11 305/11
v -0.0579 0.0500 -1.2146
v 0.0186 0.0500 -1.3994
v 0.0186 0.4500 -1.3994
v -0.0579 0.4500 -1.2146
f 312/11 311/11 310/11 309/11
v -0.0879 0.4450 -1.1946
v -0.0879 0.4950 -1.1946
v 0.9068 0.4950 -0.7825
v 0.9068 0.4450 -0.7825
f 316/15 315/15 314/15 313/15
v 1.0063 0.4450 -1.0227
v 1.0063 0.4950 -1.0227
v 0.0116 0.4950 -1.4348
v 0.0116 0.4450 -1.4348
f 320/15 319/15 318/15 317/15
v 0.9068 0.4450 -0.7825
v 1.0063 0.4450 -1.0227
v 0.0116 0.4450 -1.4348
v -0.0879 0.4450 -1.1946
f 324/15 323/15 322/15 321/15
v -0.0879 0.4950 -1.1946
v 0.0116 0.4950 -1.4348
v 1.0063 0.4950 -1.0227
v 0.9068 0.4950 -0.7825
f 328/15 327/15 326/15 325/15
v 0.9068 0.4950 -0.7825
v 1.0063 0.4950 -1.0227
v 1.0063 0.4450 -1.0227
v 0.9068 0.4450 -0.7825
f 332/15 331/15 330/15 329/15
v -0.0879 0.4450 -1.1946
v 0.0116 0.4450 -1.4348
v 0.0116 0.4950 -1.4348
v -0.0879 0.4950 -1.1946
f 336/15 335/15 334/15 333/15
v -0.8998 0.0500 -0.8179
v -0.8998 0.4500 -0.8179
v 0.0579 0.4500 -1.2146
v 0.0579 0.0500 -1.2146
f 340/11 339/11 338/11 337/11
v -0.0186 0.0500 -1.3994
v -0.0186 0.4500 -1.3994
v -0.9764 0.4500 -1.0027
v -0.9764 0.0500 -1.0027
f 344/11 343/11 342/11 341/11
v 0.0579 0.0500 -1.2146
v -0.0186 0.0500 -1.3994
v -0.9764 0.0500 -1.0027
v -0.8998 0.0500 -0.8179
f 348/11 347/11 346/11 345/11
v -0.8998 0.4500 -0.8179
v -0.9764 0.4500 -1.0027
v -0.0186 0.4500 -1.3994
v 0.0579 0.4500 -1.2146
f 352/11 351/11 350/11 349/11
v 0.0579 0.4500 -1.2146
v -0.0186 0.4500 -1.3994
v -0.0186 0.0500 -1.3994
v 0.0579 0.0500 -1.2146
f 356/11 355/11 354/11 353/11
v -0.8998 0.0500 -0.8179
v -0.9764 0.0500 -1.0027
v -0.9764 0.4500 -1.0027
v -0.8998 0.4500 -0.8179
f 360/11 359/11 358/11 357/11
v -0.9068 0.4450 -0.7825
v -0.9068 0.4950 -0.7825
v 0.0879 0.4950 -1.1946
v 0.0879 0.4450 -1.1946
f 364/15 363/15 362/15 361/15
v -0.0116 0.4450 -1.4348
v -0.0116 0.4950 -1.4348
v -1.0063 0.4950 -1.0227
v -1.0063 0.4450 -1.0227
f 368/15 367/15 366/15 365/15
v 0.0879 0.4450 -1.1946
v -0.0116 0.4450 -1.4348
v -1.0063 0.4450 -1.0227
v -0.9068 0.4450 -0.7825
f 372/15 371/15 370/15 369/15
v -0.9068 0.4950 -0.7825
v -1.0063 0.4950 -1.0227
v -0.0116 0.4950 -1.4348
v 0.0879 0.4950 -1.1946
f 376/15 375/15 374/15 373/15
v 0.0879 0.4950 -1.1946
v -0.0116 0.4950 -1.4348
v -0.0116 0.4450 -1.4348
v 0.0879 0.4450 -1.1946
f 380/15 379/15 378/15 377/15
v -0.9068 0.4450 -0.7825
v -1.0063 0.4450 -1.0227
v -1.0063 0.4950 -1.0227
v -0.9068 0.4950 -0.7825
f 384/15 383/15 382/15 381/15
v -1.2146 0.0500 0.0579
v -1.2146 0.4500 0.0579
v -0.8179 0.4500 -0.8998
v -0.8179 0.0500 -0.8998
f 388/11 387/11 386/11 385/11
v -1.0027 0.0500 -0.9764
v -1.0027 0.4500 -0.9764
v -1.3994 0.4500 -0.0186
v -1.3994 0.0500 -0.0186
f 392/11 391/11 390/11 389/11
v -0.8179 0.0500 -0.8998
v -1.0027 0.0500 -0.9764
v -1.3994 0.0500 -0.0186
v -1.2146 0.0500 0.0579
f 396/11 395/11 394/11 393/11
v -1.2146 0.4500 0.0579
v -1.3994 0.4500 -0.0186
v -1.0027 0.4500 -0.9764
v -0.8179 0.4500 -0.8998
f 400/11 399/11 398/11 397/11
v -0.8179 0.4500 -0.8998
v -1.0027 0.4500 -0.9764
v -1.0027 0.0500 -0.9764
v -0.8179 0.0500 -0.8998
f 404/11 403/11 402/11 401/11
v -1.2146 0.0500 0.0579
v -1.3994 0.0500 -0.0186
v -1.3994 0.4500 -0.0186
v -1.2146 0.4500 0.0579
f 408/11 407/11 406/11 405/11
v -1.1946 0.4450 0.0879
v -1.1946 0.4950 0.0879
v -0.7825 0.4950 -0.9068
v -0.7825 0.4450 -0.9068
f 412/15 411/15 410/15 409/15
v -1.0227 0.4450 -1.0063
v -1.0227 0.4950 -1.0063
v -1.4348 0.4950 -0.0116
v -1.4348 0.4450 -0.0116
f 416/15 415/15 414/15 413/15
v -0.7825 0.4450 -0.9068
v -1.0227 0.4450 -1.0063
v -1.4348 0.4450 -0.0116
v -1.1946 0.4450 0.0879
f 420/15 419/15 418/15 417/15
v -1.1946 0.4950 0.0879
v -1.4348 0.4950 -0.0116
v -1.0227 0.4950 -1.0063
v -0.7825 0.4950 -0.9068
f 424/15 423/15 422/15 421/15
v -0.7825 0.4950 -0.9068
v -1.0227 0.4950 -1.0063
v -1.0227 0.4450 -1.0063
v -0.7825 0.4450 -0.9068
f 428/15 427/15 426/15 425/15
v -1.1946 0.4450 0.0879
v -1.4348 0.4450 -0.0116
v -1.4348 0.4950 -0.0116
v -1.1946 0.4950 0.0879
f 432/15 431/15 430/15 429/15
v -0.4286 0.0600 1.0347
v -1.0347 0.0600 0.4286
v -1.0347 0.3200 0.4286
v -0.4286 0.3200 1.0347
f 436/13 435/13 434/13 433/13
v -1.0347 0.0600 0.4286
v -1.0347 0.0600 -0.4286
v -1.0347 0.3200 -0.4286
v -1.0347 0.3200 0.4286
f 440/13 439/13 438/13 437/13
v -1.0347 0.0600 -0.4286
v -0.4286 0.0600 -1.0347
v -0.4286 0.3200 -1.0347
v -1.0347 0.3200 -0.4286
f 444/13 443/13 442/13 441/13
v -0.4286 0.0600 -1.0347
v 0.4286 0.0600 -1.0347
v 0.4286 0.3200 -1.0347
v -0.4286 0.3200 -1.0347
f 448/13 447/13 446/13 445/13
v 0.4286 0.0600 -1.0347
v 1.0347 0.0600 -0.4286
v 1.0347 0.3200 -0.4286
v 0.4286 0.3200 -1.0347
f 452/13 451/13 450/13 449/13
v 1.0347 0.0600 -0.4286
v 1.0347 0.0600 0.4286
v 1.0347 0.3200 0.4286
v 1.0347 0.3200 -0.4286
f 456/13 455/13 454/13 453/13
v 1.0347 0.0600 0.4286
v 0.4286 0.0600 1.0347
v 0.4286 0.3200 1.0347
v 1.0347 0.3200 0.4286
f 460/13 459/13 458/13 457/13
v 0.4286 0.0600 1.0347
v -0.4286 0.0600 1.0347
v -0.4286 0.3200 1.0347
v 0.4286 0.3200 1.0347
f 464/13 463/13 462/13 461/13
v 0.4286 0.0600 1.0347
v 1.0347 0.0600 0.4286
v 1.0347 0.0600 -0.4286
v 0.4286 0.0600 -1.0347
v -0.4286 0.0600 -1.0347
v -1.0347 0.0600 -0.4286
v -1.0347 0.0600 0.4286
v -0.4286 0.0600 1.0347
f 472/13 471/13 470/13 469/13 468/13 467/13 466/13 465/13
v -0.4286 0.3200 1.0347
v -1.0347 0.3200 0.4286
v -1.0347 0.3200 -0.4286
v -0.4286 0.3200 -1.0347
v 0.4286 0.3200 -1.0347
v 1.0347 0.3200 -0.4286
v 1.0347 0.3200 0.4286
v 0.4286 0.3200 1.0347
f 480/13 479/13 478/13 477/13 476/13 475/13 474/13 473/13
v -0.0689 0.0600 0.1663
v -0.1663 0.0600 0.0689
v -0.1663 0.8600 0.0689
v -0.0689 0.8600 0.1663
f 484/11 483/11 482/11 481/11
v -0.1663 0.0600 0.0689
v -0.1663 0.0600 -0.0689
v -0.1663 0.8600 -0.0689
v -0.1663 0.8600 0.0689
f 488/11 487/11 486/11 485/11
v -0.1663 0.0600 -0.0689
v -0.0689 0.0600 -0.1663
v -0.0689 0.8600 -0.1663
v -0.1663 0.8600 -0.0689
f 492/11 491/11 490/11 489/11
v -0.0689 0.0600 -0.1663
v 0.0689 0.0600 -0.1663
v 0.0689 0.8600 -0.1663
v -0.0689 0.8600 -0.1663
f 496/11 495/11 494/11 493/11
v 0.0689 0.0600 -0.1663
v 0.1663 0.0600 -0.0689
v 0.1663 0.8600 -0.0689
v 0.0689 0.8600 -0.1663
f 500/11 499/11 498/11 497/11
v 0.1663 0.0600 -0.0689
v 0.1663 0.0600 0.0689
v 0.1663 0.8600 0.0689
v 0.1663 0.8600 -0.0689
f 504/11 503/11 502/11 501/11
v 0.1663 0.0600 0.0689
v 0.0689 0.0600 0.1663
v 0.0689 0.8600 0.1663
v 0.1663 0.8600 0.0689
f 508/11 507/11 506/11 505/11
v 0.0689 0.0600 0.1663
v -0.0689 0.0600 0.1663
v -0.0689 0.8600 0.1663
v 0.0689 0.8600 0.1663
f 512/11 511/11 510/11 509/11
v 0.0689 0.0600 0.1663
v 0.1663 0.0600 0.0689
v 0.1663 0.0600 -0.0689
v 0.0689 0.0600 -0.1663
v -0.0689 0.0600 -0.1663
v -0.1663 0.0600 -0.0689
v -0.1663 0.0600 0.0689
v -0.0689 0.0600 0.1663
f 520/11 519/11 518/11 517/11 516/11 515/11 514/11 513/11
v -0.0689 0.8600 0.1663
v -0.1663 0.8600 0.0689
v -0.1663 0.8600 -0.0689
v -0.0689 0.8600 -0.1663
v 0.0689 0.8600 -0.1663
v 0.1663 0.8600 -0.0689
v 0.1663 0.8600 0.0689
v 0.0689 0.8600 0.1663
f 528/11 527/11 526/11 525/11 524/11 523/11 522/11 521/11
v -0.1700 0.8600 0.5231
v -0.4450 0.8600 0.3233
v -0.5016 0.9800 0.3644
v -0.1916 0.9800 0.5897
f 532/15 531/15 530/15 529/15
v -0.4450 0.8600 0.3233
v -0.5500 0.8600 0.0000
v -0.6200 0.9800 0.0000
v -0.5016 0.9800 0.3644
f 536/15 535/15 534/15 533/15
v -0.5500 0.8600 0.0000
v -0.4450 0.8600 -0.3233
v -0.5016 0.9800 -0.3644
v -0.6200 0.9800 0.0000
f 540/15 539/15 538/15 537/15
v -0.4450 0.8600 -0.3233
v -0.1700 0.8600 -0.5231
v -0.1916 0.9800 -0.5897
v -0.5016 0.9800 -0.3644
f 544/15 543/15 542/15 541/15
v -0.1700 0.8600 -0.5231
v 0.1700 0.8600 -0.5231
v 0.1916 0.9800 -0.5897
v -0.1916 0.9800 -0.5897
f 548/15 547/15 546/15 545/15
v 0.1700 0.8600 -0.5231
v 0.4450 0.8600 -0.3233
v 0.5016 0.9800 -0.3644
v 0.1916 0.9800 -0.5897
f 552/15 551/15 550/15 549/15
v 0.4450 0.8600 -0.3233
v 0.5500 0.8600 -0.0000
v 0.6200 0.9800 -0.0000
v 0.5016 0.9800 -0.3644
f 556/15 555/15 554/15 553/15
v 0.5500 0.8600 -0.0000
v 0.4450 0.8600 0.3233
v 0.5016 0.9800 0.3644
v 0.6200 0.9800 -0.0000
f 560/15 559/15 558/15 557/15
v 0.4450 0.8600 0.3233
v 0.1700 0.8600 0.5231
v 0.1916 0.9800 0.5897
v 0.5016 0.9800 0.3644
f 564/15 563/15 562/15 561/15
v 0.1700 0.8600 0.5231
v -0.1700 0.8600 0.5231
v -0.1916 0.9800 0.5897
v 0.1916 0.9800 0.5897
f 568/15 567/15 566/15 565/15
v 0.1700 0.8600 0.5231
v 0.4450 0.8600 0.3233
v 0.5500 0.8600 -0.0000
v 0.4450 0.8600 -0.3233
v 0.1700 0.8600 -0.5231
v -0.1700 0.8600 -0.5231
v -0.4450 0.8600 -0.3233
v -0.5500 0.8600 0.0000
v -0.4450 0.8600 0.3233
v -0.1700 0.8600 0.5231
f 578/15 577/15 576/15 575/15 574/15 573/15 572/15 571/15 570/15 569/15
v -0.1916 0.9800 0.5897
v -0.5016 0.9800 0.3644
v -0.6200 0.9800 0.0000
v -0.5016 0.9800 -0.3644
v -0.1916 0.9800 -0.5897
v 0.1916 0.9800 -0.5897
v 0.5016 0.9800 -0.3644
v 0.6200 0.9800 -0.0000
v 0.5016 0.9800 0.3644
v 0.1916 0.9800 0.5897
f 588/15 587/15 586/15 585/15 584/15 583/15 582/15 581/15 580/15 579/15
v -0.1545 0.9000 0.4755
v -0.4045 0.9000 0.2939
v -0.4045 0.9600 0.2939
v -0.1545 0.9600 0.4755
f 592/13 591/13 590/13 589/13
v -0.4045 0.9000 0.2939
v -0.5000 0.9000 0.0000
v -0.5000 0.9600 0.0000
v -0.4045 0.9600 0.2939
f 596/13 595/13 594/13 593/13
v -0.5000 0.9000 0.0000
v -0.4045 0.9000 -0.2939
v -0.4045 0.9600 -0.2939
v -0.5000 0.9600 0.0000
f 600/13 599/13 598/13 597/13
v -0.4045 0.9000 -0.2939
v -0.1545 0.9000 -0.4755
v -0.1545 0.9600 -0.4755
v -0.4045 0.9600 -0.2939
f 604/13 603/13 602/13 601/13
v -0.1545 0.9000 -0.4755
v 0.1545 0.9000 -0.4755
v 0.1545 0.9600 -0.4755
v -0.1545 0.9600 -0.4755
f 608/13 607/13 606/13 605/13
v 0.1545 0.9000 -0.4755
v 0.4045 0.9000 -0.2939
v 0.4045 0.9600 -0.2939
v 0.1545 0.9600 -0.4755
f 612/13 611/13 610/13 609/13
v 0.4045 0.9000 -0.2939
v 0.5000 0.9000 -0.0000
v 0.5000 0.9600 -0.0000
v 0.4045 0.9600 -0.2939
f 616/13 615/13 614/13 613/13
v 0.5000 0.9000 -0.0000
v 0.4045 0.9000 0.2939
v 0.4045 0.9600 0.2939
v 0.5000 0.9600 -0.0000
f 620/13 619/13 618/13 617/13
v 0.4045 0.9000 0.2939
v 0.1545 0.9000 0.4755
v 0.1545 0.9600 0.4755
v 0.4045 0.9600 0.2939
f 624/13 623/13 622/13 621/13
v 0.1545 0.9000 0.4755
v -0.1545 0.9000 0.4755
v -0.1545 0.9600 0.4755
v 0.1545 0.9600 0.4755
f 628/13 627/13 626/13 625/13
v 0.1545 0.9000 0.4755
v 0.4045 0.9000 0.2939
v 0.5000 0.9000 -0.0000
v 0.4045 0.9000 -0.2939
v 0.1545 0.9000 -0.4755
v -0.1545 0.9000 -0.4755
v -0.4045 0.9000 -0.2939
v -0.5000 0.9000 0.0000
v -0.4045 0.9000 0.2939
v -0.1545 0.9000 0.4755
f 638/13 637/13 636/13 635/13 634/13 633/13 632/13 631/13 630/13 629/13
v -0.1545 0.9600 0.4755
v -0.4045 0.9600 0.2939
v -0.5000 0.9600 0.0000
v -0.4045 0.9600 -0.2939
v -0.1545 0.9600 -0.4755
v 0.1545 0.9600 -0.4755
v 0.4045 0.9600 -0.2939
v 0.5000 0.9600 -0.0000
v 0.4045 0.9600 0.2939
v 0.1545 0.9600 0.4755
f 648/13 647/13 646/13 645/13 644/13 643/13 642/13 641/13 640/13 639/13
v -0.0306 0.9600 0.0739
v -0.0739 0.9600 0.0306
v -0.0739 1.2600 0.0306
v -0.0306 1.2600 0.0739
f 652/11 651/11 650/11 649/11
v -0.0739 0.9600 0.0306
v -0.0739 0.9600 -0.0306
v -0.0739 1.2600 -0.0306
v -0.0739 1.2600 0.0306
f 656/11 655/11 654/11 653/11
v -0.0739 0.9600 -0.0306
v -0.0306 0.9600 -0.0739
v -0.0306 1.2600 -0.0739
v -0.0739 1.2600 -0.0306
f 660/11 659/11 658/11 657/11
v -0.0306 0.9600 -0.0739
v 0.0306 0.9600 -0.0739
v 0.0306 1.2600 -0.0739
v -0.0306 1.2600 -0.0739
f 664/11 663/11 662/11 661/11
v 0.0306 0.9600 -0.0739
v 0.0739 0.9600 -0.0306
v 0.0739 1.2600 -0.0306
v 0.0306 1.2600 -0.0739
f 668/11 667/11 666/11 665/11
v 0.0739 0.9600 -0.0306
v 0.0739 0.9600 0.0306
v 0.0739 1.2600 0.0306
v 0.0739 1.2600 -0.0306
f 672/11 671/11 670/11 669/11
v 0.0739 0.9600 0.0306
v 0.0306 0.9600 0.0739
v 0.0306 1.2600 0.0739
v 0.0739 1.2600 0.0306
f 676/11 675/11 674/11 673/11
v 0.0306 0.9600 0.0739
v -0.0306 0.9600 0.0739
v -0.0306 1.2600 0.0739
v 0.0306 1.2600 0.0739
f 680/11 679/11 678/11 677/11
v 0.0306 0.9600 0.0739
v 0.0739 0.9600 0.0306
v 0.0739 0.9600 -0.0306
v 0.0306 0.9600 -0.0739
v -0.0306 0.9600 -0.0739
v -0.0739 0.9600 -0.0306
v -0.0739 0.9600 0.0306
v -0.0306 0.9600 0.0739
f 688/11 687/11 686/11 685/11 684/11 683/11 682/11 681/11
v -0.0306 1.2600 0.0739
v -0.0739 1.2600 0.0306
v -0.0739 1.2600 -0.0306
v -0.0306 1.2600 -0.0739
v 0.0306 1.2600 -0.0739
v 0.0739 1.2600 -0.0306
v 0.0739 1.2600 0.0306
v 0.0306 1.2600 0.0739
f 696/11 695/11 694/11 693/11 692/11 691/11 690/11 689/11
v -0.0918 1.2600 0.2217
v -0.2217 1.2600 0.0918
v -0.2587 1.3200 0.1072
v -0.1072 1.3200 0.2587
f 700/15 699/15 698/15 697/15
v -0.2217 1.2600 0.0918
v -0.2217 1.2600 -0.0918
v -0.2587 1.3200 -0.1072
v -0.2587 1.3200 0.1072
f 704/15 703/15 702/15 701/15
v -0.2217 1.2600 -0.0918
v -0.0918 1.2600 -0.2217
v -0.1072 1.3200 -0.2587
v -0.2587 1.3200 -0.1072
f 708/15 707/15 706/15 705/15
v -0.0918 1.2600 -0.2217
v 0.0918 1.2600 -0.2217
v 0.1072 1.3200 -0.2587
v -0.1072 1.3200 -0.2587
f 712/15 711/15 710/15 709/15
v 0.0918 1.2600 -0.2217
v 0.2217 1.2600 -0.0918
v 0.2587 1.3200 -0.1072
v 0.1072 1.3200 -0.2587
f 716/15 715/15 714/15 713/15
v 0.2217 1.2600 -0.0918
v 0.2217 1.2600 0.0918
v 0.2587 1.3200 0.1072
v 0.2587 1.3200 -0.1072
f 720/15 719/15 718/15 717/15
v 0.2217 1.2600 0.0918
v 0.0918 1.2600 0.2217
v 0.1072 1.3200 0.2587
v 0.2587 1.3200 0.1072
f 724/15 723/15 722/15 721/15
v 0.0918 1.2600 0.2217
v -0.0918 1.2600 0.2217
v -0.1072 1.3200 0.2587
v 0.1072 1.3200 0.2587
f 728/15 727/15 726/15 725/15
v 0.0918 1.2600 0.2217
v 0.2217 1.2600 0.0918
v 0.2217 1.2600 -0.0918
v 0.0918 1.2600 -0.2217
v -0.0918 1.2600 -0.2217
v -0.2217 1.2600 -0.0918
v -0.2217 1.2600 0.0918
v -0.0918 1.2600 0.2217
f 736/15 735/15 734/15 733/15 732/15 731/15 730/15 729/15
v -0.1072 1.3200 0.2587
v -0.2587 1.3200 0.1072
v -0.2587 1.3200 -0.1072
v -0.1072 1.3200 -0.2587
v 0.1072 1.3200 -0.2587
v 0.2587 1.3200 -0.1072
v 0.2587 1.3200 0.1072
v 0.1072 1.3200 0.2587
f 744/15 743/15 742/15 741/15 740/15 739/15 738/15 737/15
v -1.1191 0.4950 0.4090
v -1.1191 0.7450 0.4090
v -1.1546 0.7450 0.2943
v -1.1546 0.4950 0.2943
f 748/11 747/11 746/11 745/11
v -1.2692 0.4950 0.3298
v -1.2692 0.7450 0.3298
v -1.2338 0.7450 0.4445
v -1.2338 0.4950 0.4445
f 752/11 751/11 750/11 749/11
v -1.1546 0.4950 0.2943
v -1.2692 0.4950 0.3298
v -1.2338 0.4950 0.4445
v -1.1191 0.4950 0.4090
f 756/11 755/11 754/11 753/11
v -1.1191 0.7450 0.4090
v -1.2338 0.7450 0.4445
v -1.2692 0.7450 0.3298
v -1.1546 0.7450 0.2943
f 760/11 759/11 758/11 757/11
v -1.1546 0.7450 0.2943
v -1.2692 0.7450 0.3298
v -1.2692 0.4950 0.3298
v -1.1546 0.4950 0.2943
f 764/11 763/11 762/11 761/11
v -1.1191 0.4950 0.4090
v -1.2338 0.4950 0.4445
v -1.2338 0.7450 0.4445
v -1.1191 0.7450 0.4090
f 768/11 767/11 766/11 765/11
v -1.1316 0.7450 0.4024
v -1.1316 0.8150 0.4024
v -1.1612 0.8150 0.3069
v -1.1612 0.7450 0.3069
f 772/23 771/23 770/23 769/23
v -1.2567 0.7450 0.3364
v -1.2567 0.8150 0.3364
v -1.2272 0.8150 0.4319
v -1.2272 0.7450 0.4319
f 776/23 775/23 774/23 773/23
v -1.1612 0.7450 0.3069
v -1.2567 0.7450 0.3364
v -1.2272 0.7450 0.4319
v -1.1316 0.7450 0.4024
f 780/23 779/23 778/23 777/23
v -1.1316 0.8150 0.4024
v -1.2272 0.8150 0.4319
v -1.2567 0.8150 0.3364
v -1.1612 0.8150 0.3069
f 784/23 783/23 782/23 781/23
v -1.1612 0.8150 0.3069
v -1.2567 0.8150 0.3364
v -1.2567 0.7450 0.3364
v -1.1612 0.7450 0.3069
f 788/23 787/23 786/23 785/23
v -1.1316 0.7450 0.4024
v -1.2272 0.7450 0.4319
v -1.2272 0.8150 0.4319
v -1.1316 0.8150 0.4024
f 792/23 791/23 790/23 789/23
v 0.4090 0.4950 1.1191
v 0.4090 0.7450 1.1191
v 0.2943 0.7450 1.1546
v 0.2943 0.4950 1.1546
f 796/11 795/11 794/11 793/11
v 0.3298 0.4950 1.2692
v 0.3298 0.7450 1.2692
v 0.4445 0.7450 1.2338
v 0.4445 0.4950 1.2338
f 800/11 799/11 798/11 797/11
v 0.2943 0.4950 1.1546
v 0.3298 0.4950 1.2692
v 0.4445 0.4950 1.2338
v 0.4090 0.4950 1.1191
f 804/11 803/11 802/11 801/11
v 0.4090 0.7450 1.1191
v 0.4445 0.7450 1.2338
v 0.3298 0.7450 1.2692
v 0.2943 0.7450 1.1546
f 808/11 807/11 806/11 805/11
v 0.2943 0.7450 1.1546
v 0.3298 0.7450 1.2692
v 0.3298 0.4950 1.2692
v 0.2943 0.4950 1.1546
f 812/11 811/11 810/11 809/11
v 0.4090 0.4950 1.1191
v 0.4445 0.4950 1.2338
v 0.4445 0.7450 1.2338
v 0.4090 0.7450 1.1191
f 816/11 815/11 814/11 813/11
v 0.4024 0.7450 1.1316
v 0.4024 0.8150 1.1316
v 0.3069 0.8150 1.1612
v 0.3069 0.7450 1.1612
f 820/23 819/23 818/23 817/23
v 0.3364 0.7450 1.2567
v 0.3364 0.8150 1.2567
v 0.4319 0.8150 1.2272
v 0.4319 0.7450 1.2272
f 824/23 823/23 822/23 821/23
v 0.3069 0.7450 1.1612
v 0.3364 0.7450 1.2567
v 0.4319 0.7450 1.2272
v 0.4024 0.7450 1.1316
f 828/23 827/23 826/23 825/23
v 0.4024 0.8150 1.1316
v 0.4319 0.8150 1.2272
v 0.3364 0.8150 1.2567
v 0.3069 0.8150 1.1612
f 832/23 831/23 830/23 829/23
v 0.3069 0.8150 1.1612
v 0.3364 0.8150 1.2567
v 0.3364 0.7450 1.2567
v 0.3069 0.7450 1.1612
f 836/23 835/23 834/23 833/23
v 0.4024 0.7450 1.1316
v 0.4319 0.7450 1.2272
v 0.4319 0.8150 1.2272
v 0.4024 0.8150 1.1316
f 840/23 839/23 838/23 837/23
v 1.1191 0.4950 -0.4090
v 1.1191 0.7450 -0.4090
v 1.1546 0.7450 -0.2943
v 1.1546 0.4950 -0.2943
f 844/11 843/11 842/11 841/11
v 1.2692 0.4950 -0.3298
v 1.2692 0.7450 -0.3298
v 1.2338 0.7450 -0.4445
v 1.2338 0.4950 -0.4445
f 848/11 847/11 846/11 845/11
v 1.1546 0.4950 -0.2943
v 1.2692 0.4950 -0.3298
v 1.2338 0.4950 -0.4445
v 1.1191 0.4950 -0.4090
f 852/11 851/11 850/11 849/11
v 1.1191 0.7450 -0.4090
v 1.2338 0.7450 -0.4445
v 1.2692 0.7450 -0.3298
v 1.1546 0.7450 -0.2943
f 856/11 855/11 854/11 853/11
v 1.1546 0.7450 -0.2943
v 1.2692 0.7450 -0.3298
v 1.2692 0.4950 -0.3298
v 1.1546 0.4950 -0.2943
f 860/11 859/11 858/11 857/11
v 1.1191 0.4950 -0.4090
v 1.2338 0.4950 -0.4445
v 1.2338 0.7450 -0.4445
v 1.1191 0.7450 -0.4090
f 864/11 863/11 862/11 861/11
v 1.1316 0.7450 -0.4024
v 1.1316 0.8150 -0.4024
v 1.1612 0.8150 -0.3069
v 1.1612 0.7450 -0.3069
f 868/23 867/23 866/23 865/23
v 1.2567 0.7450 -0.3364
v 1.2567 0.8150 -0.3364
v 1.2272 0.8150 -0.4319
v 1.2272 0.7450 -0.4319
f 872/23 871/23 870/23 869/23
v 1.1612 0.7450 -0.3069
v 1.2567 0.7450 -0.3364
v 1.2272 0.7450 -0.4319
v 1.1316 0.7450 -0.4024
f 876/23 875/23 874/23 873/23
v 1.1316 0.8150 -0.4024
v 1.2272 0.8150 -0.4319
v 1.2567 0.8150 -0.3364
v 1.1612 0.8150 -0.3069
f 880/23 879/23 878/23 877/23
v 1.1612 0.8150 -0.3069
v 1.2567 0.8150 -0.3364
v 1.2567 0.7450 -0.3364
v 1.1612 0.7450 -0.3069
f 884/23 883/23 882/23 881/23
v 1.1316 0.7450 -0.4024
v 1.2272 0.7450 -0.4319
v 1.2272 0.8150 -0.4319
v 1.1316 0.8150 -0.4024
f 888/23 887/23 886/23 885/23
v -0.4090 0.4950 -1.1191
v -0.4090 0.7450 -1.1191
v -0.2943 0.7450 -1.1546
v -0.2943 0.4950 -1.1546
f 892/11 891/11 890/11 889/11
v -0.3298 0.4950 -1.2692
v -0.3298 0.7450 -1.2692
v -0.4445 0.7450 -1.2338
v -0.4445 0.4950 -1.2338
f 896/11 895/11 894/11 893/11
v -0.2943 0.4950 -1.1546
v -0.3298 0.4950 -1.2692
v -0.4445 0.4950 -1.2338
v -0.4090 0.4950 -1.1191
f 900/11 899/11 898/11 897/11
v -0.4090 0.7450 -1.1191
v -0.4445 0.7450 -1.2338
v -0.3298 0.7450 -1.2692
v -0.2943 0.7450 -1.1546
f 904/11 903/11 902/11 901/11
v -0.2943 0.7450 -1.1546
v -0.3298 0.7450 -1.2692
v -0.3298 0.4950 -1.2692
v -0.2943 0.4950 -1.1546
f 908/11 907/11 906/11 905/11
v -0.4090 0.4950 -1.1191
v -0.4445 0.4950 -1.2338
v -0.4445 0.7450 -1.2338
v -0.4090 0.7450 -1.1191
f 912/11 911/11 910/11 909/11
v -0.4024 0.7450 -1.1316
v -0.4024 0.8150 -1.1316
v -0.3069 0.8150 -1.1612
v -0.3069 0.7450 -1.1612
f 916/23 915/23 914/23 913/23
v -0.3364 0.7450 -1.2567
v -0.3364 0.8150 -1.2567
v -0.4319 0.8150 -1.2272
v -0.4319 0.7450 -1.2272
f 920/23 919/23 918/23 917/23
v -0.3069 0.7450 -1.1612
v -0.3364 0.7450 -1.2567
v -0.4319 0.7450 -1.2272
v -0.4024 0.7450 -1.1316
f 924/23 923/23 922/23 921/23
v -0.4024 0.8150 -1.1316
v -0.4319 0.8150 -1.2272
v -0.3364 0.8150 -1.2567
v -0.3069 0.8150 -1.1612
f 928/23 927/23 926/23 925/23
v -0.3069 0.8150 -1.1612
v -0.3364 0.8150 -1.2567
v -0.3364 0.7450 -1.2567
v -0.3069 0.7450 -1.1612
f 932/23 931/23 930/23 929/23
v -0.4024 0.7450 -1.1316
v -0.4319 0.7450 -1.2272
v -0.4319 0.8150 -1.2272
v -0.4024 0.8150 -1.1316
f 936/23 935/23 934/23 933/23
