# Walk of Industry low-poly (generated, wi_lib.py)
mtllib wi.mtl
vt 0 0
vt 0.03125 0.03125
vt 0.09375 0.03125
vt 0.15625 0.03125
vt 0.21875 0.03125
vt 0.28125 0.03125
vt 0.34375 0.03125
vt 0.40625 0.03125
vt 0.46875 0.03125
vt 0.53125 0.03125
vt 0.59375 0.03125
vt 0.65625 0.03125
vt 0.71875 0.03125
vt 0.78125 0.03125
vt 0.84375 0.03125
vt 0.90625 0.03125
vt 0.96875 0.03125
vt 0.03125 0.09375
vt 0.09375 0.09375
vt 0.15625 0.09375
vt 0.21875 0.09375
vt 0.28125 0.09375
vt 0.34375 0.09375
vt 0.40625 0.09375
vt 0.46875 0.09375
vt 0.53125 0.09375
vt 0.59375 0.09375
vt 0.65625 0.09375
vt 0.71875 0.09375
vt 0.78125 0.09375
vt 0.84375 0.09375
vt 0.90625 0.09375
vt 0.96875 0.09375
o Body
usemtl wi_palette
v 0.6911 1.5856 0.0300
v 0.6911 1.6756 0.0300
v 0.6911 1.6756 -0.0300
v 0.6911 1.5856 -0.0300
f 4/16 3/16 2/16 1/16
v 0.6311 1.5856 -0.0300
v 0.6311 1.6756 -0.0300
v 0.6311 1.6756 0.0300
v 0.6311 1.5856 0.0300
f 8/16 7/16 6/16 5/16
v 0.6911 1.5856 -0.0300
v 0.6311 1.5856 -0.0300
v 0.6311 1.5856 0.0300
v 0.6911 1.5856 0.0300
f 12/16 11/16 10/16 9/16
v 0.6911 1.6756 0.0300
v 0.6311 1.6756 0.0300
v 0.6311 1.6756 -0.0300
v 0.6911 1.6756 -0.0300
f 16/16 15/16 14/16 13/16
v 0.6911 1.6756 -0.0300
v 0.6311 1.6756 -0.0300
v 0.6311 1.5856 -0.0300
v 0.6911 1.5856 -0.0300
f 20/16 19/16 18/16 17/16
v 0.6911 1.5856 0.0300
v 0.6311 1.5856 0.0300
v 0.6311 1.6756 0.0300
v 0.6911 1.6756 0.0300
f 24/16 23/16 22/16 21/16
v 0.3133 1.4179 0.0300
v 0.3133 1.5079 0.0300
v 0.3133 1.5079 -0.0300
v 0.3133 1.4179 -0.0300
f 28/31 27/31 26/31 25/31
v 0.2533 1.4179 -0.0300
v 0.2533 1.5079 -0.0300
v 0.2533 1.5079 0.0300
v 0.2533 1.4179 0.0300
f 32/31 31/31 30/31 29/31
v 0.3133 1.4179 -0.0300
v 0.2533 1.4179 -0.0300
v 0.2533 1.4179 0.0300
v 0.3133 1.4179 0.0300
f 36/31 35/31 34/31 33/31
v 0.3133 1.5079 0.0300
v 0.2533 1.5079 0.0300
v 0.2533 1.5079 -0.0300
v 0.3133 1.5079 -0.0300
f 40/31 39/31 38/31 37/31
v 0.3133 1.5079 -0.0300
v 0.2533 1.5079 -0.0300
v 0.2533 1.4179 -0.0300
v 0.3133 1.4179 -0.0300
f 44/31 43/31 42/31 41/31
v 0.3133 1.4179 0.0300
v 0.2533 1.4179 0.0300
v 0.2533 1.5079 0.0300
v 0.3133 1.5079 0.0300
f 48/31 47/31 46/31 45/31
v -0.0644 1.3799 0.0300
v -0.0644 1.4699 0.0300
v -0.0644 1.4699 -0.0300
v -0.0644 1.3799 -0.0300
f 52/16 51/16 50/16 49/16
v -0.1244 1.3799 -0.0300
v -0.1244 1.4699 -0.0300
v -0.1244 1.4699 0.0300
v -0.1244 1.3799 0.0300
f 56/16 55/16 54/16 53/16
v -0.0644 1.3799 -0.0300
v -0.1244 1.3799 -0.0300
v -0.1244 1.3799 0.0300
v -0.0644 1.3799 0.0300
f 60/16 59/16 58/16 57/16
v -0.0644 1.4699 0.0300
v -0.1244 1.4699 0.0300
v -0.1244 1.4699 -0.0300
v -0.0644 1.4699 -0.0300
f 64/16 63/16 62/16 61/16
v -0.0644 1.4699 -0.0300
v -0.1244 1.4699 -0.0300
v -0.1244 1.3799 -0.0300
v -0.0644 1.3799 -0.0300
f 68/16 67/16 66/16 65/16
v -0.0644 1.3799 0.0300
v -0.1244 1.3799 0.0300
v -0.1244 1.4699 0.0300
v -0.0644 1.4699 0.0300
f 72/16 71/16 70/16 69/16
v -0.4422 1.4893 0.0300
v -0.4422 1.5793 0.0300
v -0.4422 1.5793 -0.0300
v -0.4422 1.4893 -0.0300
f 76/31 75/31 74/31 73/31
v -0.5022 1.4893 -0.0300
v -0.5022 1.5793 -0.0300
v -0.5022 1.5793 0.0300
v -0.5022 1.4893 0.0300
f 80/31 79/31 78/31 77/31
v -0.4422 1.4893 -0.0300
v -0.5022 1.4893 -0.0300
v -0.5022 1.4893 0.0300
v -0.4422 1.4893 0.0300
f 84/31 83/31 82/31 81/31
v -0.4422 1.5793 0.0300
v -0.5022 1.5793 0.0300
v -0.5022 1.5793 -0.0300
v -0.4422 1.5793 -0.0300
f 88/31 87/31 86/31 85/31
v -0.4422 1.5793 -0.0300
v -0.5022 1.5793 -0.0300
v -0.5022 1.4893 -0.0300
v -0.4422 1.4893 -0.0300
f 92/31 91/31 90/31 89/31
v -0.4422 1.4893 0.0300
v -0.5022 1.4893 0.0300
v -0.5022 1.5793 0.0300
v -0.4422 1.5793 0.0300
f 96/31 95/31 94/31 93/31
