# Walk of Industry low-poly (generated, wi_lib.py)
mtllib wi.mtl
vt 0 0
vt 0.03125 0.03125
vt 0.09375 0.03125
vt 0.15625 0.03125
vt 0.21875 0.03125
vt 0.28125 0.03125
vt 0.34375 0.03125
vt 0.40625 0.03125
vt 0.46875 0.03125
vt 0.53125 0.03125
vt 0.59375 0.03125
vt 0.65625 0.03125
vt 0.71875 0.03125
vt 0.78125 0.03125
vt 0.84375 0.03125
vt 0.90625 0.03125
vt 0.96875 0.03125
vt 0.03125 0.09375
vt 0.09375 0.09375
vt 0.15625 0.09375
vt 0.21875 0.09375
vt 0.28125 0.09375
vt 0.34375 0.09375
vt 0.40625 0.09375
vt 0.46875 0.09375
vt 0.53125 0.09375
vt 0.59375 0.09375
vt 0.65625 0.09375
vt 0.71875 0.09375
vt 0.78125 0.09375
vt 0.84375 0.09375
vt 0.90625 0.09375
vt 0.96875 0.09375
o Body
usemtl wi_palette
v 0.5000 0.0000 0.5000
v 0.5000 0.0360 0.5000
v 0.5000 0.0360 -0.5000
v 0.5000 0.0000 -0.5000
f 4/28 3/28 2/28 1/28
v -0.5000 0.0000 -0.5000
v -0.5000 0.0360 -0.5000
v -0.5000 0.0360 0.5000
v -0.5000 0.0000 0.5000
f 8/28 7/28 6/28 5/28
v 0.5000 0.0000 -0.5000
v -0.5000 0.0000 -0.5000
v -0.5000 0.0000 0.5000
v 0.5000 0.0000 0.5000
f 12/28 11/28 10/28 9/28
v 0.5000 0.0360 0.5000
v -0.5000 0.0360 0.5000
v -0.5000 0.0360 -0.5000
v 0.5000 0.0360 -0.5000
f 16/28 15/28 14/28 13/28
v 0.5000 0.0360 -0.5000
v -0.5000 0.0360 -0.5000
v -0.5000 0.0000 -0.5000
v 0.5000 0.0000 -0.5000
f 20/28 19/28 18/28 17/28
v 0.5000 0.0000 0.5000
v -0.5000 0.0000 0.5000
v -0.5000 0.0360 0.5000
v 0.5000 0.0360 0.5000
f 24/28 23/28 22/28 21/28
v 0.0350 0.0355 0.2250
v 0.0350 0.0385 0.2250
v 0.0350 0.0385 -0.2250
v 0.0350 0.0355 -0.2250
f 28/15 27/15 26/15 25/15
v -0.0350 0.0355 -0.2250
v -0.0350 0.0385 -0.2250
v -0.0350 0.0385 0.2250
v -0.0350 0.0355 0.2250
f 32/15 31/15 30/15 29/15
v 0.0350 0.0355 -0.2250
v -0.0350 0.0355 -0.2250
v -0.0350 0.0355 0.2250
v 0.0350 0.0355 0.2250
f 36/15 35/15 34/15 33/15
v 0.0350 0.0385 0.2250
v -0.0350 0.0385 0.2250
v -0.0350 0.0385 -0.2250
v 0.0350 0.0385 -0.2250
f 40/15 39/15 38/15 37/15
v 0.0350 0.0385 -0.2250
v -0.0350 0.0385 -0.2250
v -0.0350 0.0355 -0.2250
v 0.0350 0.0355 -0.2250
f 44/15 43/15 42/15 41/15
v 0.0350 0.0355 0.2250
v -0.0350 0.0355 0.2250
v -0.0350 0.0385 0.2250
v 0.0350 0.0385 0.2250
f 48/15 47/15 46/15 45/15
v 0.4825 0.0355 0.5000
v 0.4825 0.0385 0.5000
v 0.4825 0.0385 -0.5000
v 0.4825 0.0355 -0.5000
f 52/8 51/8 50/8 49/8
v 0.4575 0.0355 -0.5000
v 0.4575 0.0385 -0.5000
v 0.4575 0.0385 0.5000
v 0.4575 0.0355 0.5000
f 56/8 55/8 54/8 53/8
v 0.4825 0.0355 -0.5000
v 0.4575 0.0355 -0.5000
v 0.4575 0.0355 0.5000
v 0.4825 0.0355 0.5000
f 60/8 59/8 58/8 57/8
v 0.4825 0.0385 0.5000
v 0.4575 0.0385 0.5000
v 0.4575 0.0385 -0.5000
v 0.4825 0.0385 -0.5000
f 64/8 63/8 62/8 61/8
v 0.4825 0.0385 -0.5000
v 0.4575 0.0385 -0.5000
v 0.4575 0.0355 -0.5000
v 0.4825 0.0355 -0.5000
f 68/8 67/8 66/8 65/8
v 0.4825 0.0355 0.5000
v 0.4575 0.0355 0.5000
v 0.4575 0.0385 0.5000
v 0.4825 0.0385 0.5000
f 72/8 71/8 70/8 69/8
v -0.4575 0.0355 0.5000
v -0.4575 0.0385 0.5000
v -0.4575 0.0385 -0.5000
v -0.4575 0.0355 -0.5000
f 76/8 75/8 74/8 73/8
v -0.4825 0.0355 -0.5000
v -0.4825 0.0385 -0.5000
v -0.4825 0.0385 0.5000
v -0.4825 0.0355 0.5000
f 80/8 79/8 78/8 77/8
v -0.4575 0.0355 -0.5000
v -0.4825 0.0355 -0.5000
v -0.4825 0.0355 0.5000
v -0.4575 0.0355 0.5000
f 84/8 83/8 82/8 81/8
v -0.4575 0.0385 0.5000
v -0.4825 0.0385 0.5000
v -0.4825 0.0385 -0.5000
v -0.4575 0.0385 -0.5000
f 88/8 87/8 86/8 85/8
v -0.4575 0.0385 -0.5000
v -0.4825 0.0385 -0.5000
v -0.4825 0.0355 -0.5000
v -0.4575 0.0355 -0.5000
f 92/8 91/8 90/8 89/8
v -0.4575 0.0355 0.5000
v -0.4825 0.0355 0.5000
v -0.4825 0.0385 0.5000
v -0.4575 0.0385 0.5000
f 96/8 95/8 94/8 93/8
