# Walk of Industry low-poly (generated, wi_lib.py)
mtllib wi.mtl
vt 0 0
vt 0.03125 0.03125
vt 0.09375 0.03125
vt 0.15625 0.03125
vt 0.21875 0.03125
vt 0.28125 0.03125
vt 0.34375 0.03125
vt 0.40625 0.03125
vt 0.46875 0.03125
vt 0.53125 0.03125
vt 0.59375 0.03125
vt 0.65625 0.03125
vt 0.71875 0.03125
vt 0.78125 0.03125
vt 0.84375 0.03125
vt 0.90625 0.03125
vt 0.96875 0.03125
vt 0.03125 0.09375
vt 0.09375 0.09375
vt 0.15625 0.09375
vt 0.21875 0.09375
vt 0.28125 0.09375
vt 0.34375 0.09375
vt 0.40625 0.09375
vt 0.46875 0.09375
vt 0.53125 0.09375
vt 0.59375 0.09375
vt 0.65625 0.09375
vt 0.71875 0.09375
vt 0.78125 0.09375
vt 0.84375 0.09375
vt 0.90625 0.09375
vt 0.96875 0.09375
o Body
usemtl wi_palette
v 0.9200 0.0000 -0.2800
v 0.9200 0.0400 -0.2800
v 0.9200 0.0400 -0.4200
v 0.9200 0.0000 -0.4200
f 4/6 3/6 2/6 1/6
v 0.7800 0.0000 -0.4200
v 0.7800 0.0400 -0.4200
v 0.7800 0.0400 -0.2800
v 0.7800 0.0000 -0.2800
f 8/6 7/6 6/6 5/6
v 0.9200 0.0000 -0.4200
v 0.7800 0.0000 -0.4200
v 0.7800 0.0000 -0.2800
v 0.9200 0.0000 -0.2800
f 12/6 11/6 10/6 9/6
v 0.9200 0.0400 -0.2800
v 0.7800 0.0400 -0.2800
v 0.7800 0.0400 -0.4200
v 0.9200 0.0400 -0.4200
f 16/6 15/6 14/6 13/6
v 0.9200 0.0400 -0.4200
v 0.7800 0.0400 -0.4200
v 0.7800 0.0000 -0.4200
v 0.9200 0.0000 -0.4200
f 20/6 19/6 18/6 17/6
v 0.9200 0.0000 -0.2800
v 0.7800 0.0000 -0.2800
v 0.7800 0.0400 -0.2800
v 0.9200 0.0400 -0.2800
f 24/6 23/6 22/6 21/6
v 0.8350 0.0400 -0.3240
v 0.8200 0.0400 -0.3500
v 0.8200 2.4000 -0.3500
v 0.8350 2.4000 -0.3240
f 28/7 27/7 26/7 25/7
v 0.8200 0.0400 -0.3500
v 0.8350 0.0400 -0.3760
v 0.8350 2.4000 -0.3760
v 0.8200 2.4000 -0.3500
f 32/7 31/7 30/7 29/7
v 0.8350 0.0400 -0.3760
v 0.8650 0.0400 -0.3760
v 0.8650 2.4000 -0.3760
v 0.8350 2.4000 -0.3760
f 36/7 35/7 34/7 33/7
v 0.8650 0.0400 -0.3760
v 0.8800 0.0400 -0.3500
v 0.8800 2.4000 -0.3500
v 0.8650 2.4000 -0.3760
f 40/7 39/7 38/7 37/7
v 0.8800 0.0400 -0.3500
v 0.8650 0.0400 -0.3240
v 0.8650 2.4000 -0.3240
v 0.8800 2.4000 -0.3500
f 44/7 43/7 42/7 41/7
v 0.8650 0.0400 -0.3240
v 0.8350 0.0400 -0.3240
v 0.8350 2.4000 -0.3240
v 0.8650 2.4000 -0.3240
f 48/7 47/7 46/7 45/7
v 0.8650 0.0400 -0.3240
v 0.8800 0.0400 -0.3500
v 0.8650 0.0400 -0.3760
v 0.8350 0.0400 -0.3760
v 0.8200 0.0400 -0.3500
v 0.8350 0.0400 -0.3240
f 54/7 53/7 52/7 51/7 50/7 49/7
v 0.8350 2.4000 -0.3240
v 0.8200 2.4000 -0.3500
v 0.8350 2.4000 -0.3760
v 0.8650 2.4000 -0.3760
v 0.8800 2.4000 -0.3500
v 0.8650 2.4000 -0.3240
f 60/7 59/7 58/7 57/7 56/7 55/7
v 0.9200 0.0000 0.4200
v 0.9200 0.0400 0.4200
v 0.9200 0.0400 0.2800
v 0.9200 0.0000 0.2800
f 64/6 63/6 62/6 61/6
v 0.7800 0.0000 0.2800
v 0.7800 0.0400 0.2800
v 0.7800 0.0400 0.4200
v 0.7800 0.0000 0.4200
f 68/6 67/6 66/6 65/6
v 0.9200 0.0000 0.2800
v 0.7800 0.0000 0.2800
v 0.7800 0.0000 0.4200
v 0.9200 0.0000 0.4200
f 72/6 71/6 70/6 69/6
v 0.9200 0.0400 0.4200
v 0.7800 0.0400 0.4200
v 0.7800 0.0400 0.2800
v 0.9200 0.0400 0.2800
f 76/6 75/6 74/6 73/6
v 0.9200 0.0400 0.2800
v 0.7800 0.0400 0.2800
v 0.7800 0.0000 0.2800
v 0.9200 0.0000 0.2800
f 80/6 79/6 78/6 77/6
v 0.9200 0.0000 0.4200
v 0.7800 0.0000 0.4200
v 0.7800 0.0400 0.4200
v 0.9200 0.0400 0.4200
f 84/6 83/6 82/6 81/6
v 0.8350 0.0400 0.3760
v 0.8200 0.0400 0.3500
v 0.8200 2.4000 0.3500
v 0.8350 2.4000 0.3760
f 88/7 87/7 86/7 85/7
v 0.8200 0.0400 0.3500
v 0.8350 0.0400 0.3240
v 0.8350 2.4000 0.3240
v 0.8200 2.4000 0.3500
f 92/7 91/7 90/7 89/7
v 0.8350 0.0400 0.3240
v 0.8650 0.0400 0.3240
v 0.8650 2.4000 0.3240
v 0.8350 2.4000 0.3240
f 96/7 95/7 94/7 93/7
v 0.8650 0.0400 0.3240
v 0.8800 0.0400 0.3500
v 0.8800 2.4000 0.3500
v 0.8650 2.4000 0.3240
f 100/7 99/7 98/7 97/7
v 0.8800 0.0400 0.3500
v 0.8650 0.0400 0.3760
v 0.8650 2.4000 0.3760
v 0.8800 2.4000 0.3500
f 104/7 103/7 102/7 101/7
v 0.8650 0.0400 0.3760
v 0.8350 0.0400 0.3760
v 0.8350 2.4000 0.3760
v 0.8650 2.4000 0.3760
f 108/7 107/7 106/7 105/7
v 0.8650 0.0400 0.3760
v 0.8800 0.0400 0.3500
v 0.8650 0.0400 0.3240
v 0.8350 0.0400 0.3240
v 0.8200 0.0400 0.3500
v 0.8350 0.0400 0.3760
f 114/7 113/7 112/7 111/7 110/7 109/7
v 0.8350 2.4000 0.3760
v 0.8200 2.4000 0.3500
v 0.8350 2.4000 0.3240
v 0.8650 2.4000 0.3240
v 0.8800 2.4000 0.3500
v 0.8650 2.4000 0.3760
f 120/7 119/7 118/7 117/7 116/7 115/7
v -0.7800 0.0000 -0.2800
v -0.7800 0.0400 -0.2800
v -0.7800 0.0400 -0.4200
v -0.7800 0.0000 -0.4200
f 124/6 123/6 122/6 121/6
v -0.9200 0.0000 -0.4200
v -0.9200 0.0400 -0.4200
v -0.9200 0.0400 -0.2800
v -0.9200 0.0000 -0.2800
f 128/6 127/6 126/6 125/6
v -0.7800 0.0000 -0.4200
v -0.9200 0.0000 -0.4200
v -0.9200 0.0000 -0.2800
v -0.7800 0.0000 -0.2800
f 132/6 131/6 130/6 129/6
v -0.7800 0.0400 -0.2800
v -0.9200 0.0400 -0.2800
v -0.9200 0.0400 -0.4200
v -0.7800 0.0400 -0.4200
f 136/6 135/6 134/6 133/6
v -0.7800 0.0400 -0.4200
v -0.9200 0.0400 -0.4200
v -0.9200 0.0000 -0.4200
v -0.7800 0.0000 -0.4200
f 140/6 139/6 138/6 137/6
v -0.7800 0.0000 -0.2800
v -0.9200 0.0000 -0.2800
v -0.9200 0.0400 -0.2800
v -0.7800 0.0400 -0.2800
f 144/6 143/6 142/6 141/6
v -0.8650 0.0400 -0.3240
v -0.8800 0.0400 -0.3500
v -0.8800 2.4000 -0.3500
v -0.8650 2.4000 -0.3240
f 148/7 147/7 146/7 145/7
v -0.8800 0.0400 -0.3500
v -0.8650 0.0400 -0.3760
v -0.8650 2.4000 -0.3760
v -0.8800 2.4000 -0.3500
f 152/7 151/7 150/7 149/7
v -0.8650 0.0400 -0.3760
v -0.8350 0.0400 -0.3760
v -0.8350 2.4000 -0.3760
v -0.8650 2.4000 -0.3760
f 156/7 155/7 154/7 153/7
v -0.8350 0.0400 -0.3760
v -0.8200 0.0400 -0.3500
v -0.8200 2.4000 -0.3500
v -0.8350 2.4000 -0.3760
f 160/7 159/7 158/7 157/7
v -0.8200 0.0400 -0.3500
v -0.8350 0.0400 -0.3240
v -0.8350 2.4000 -0.3240
v -0.8200 2.4000 -0.3500
f 164/7 163/7 162/7 161/7
v -0.8350 0.0400 -0.3240
v -0.8650 0.0400 -0.3240
v -0.8650 2.4000 -0.3240
v -0.8350 2.4000 -0.3240
f 168/7 167/7 166/7 165/7
v -0.8350 0.0400 -0.3240
v -0.8200 0.0400 -0.3500
v -0.8350 0.0400 -0.3760
v -0.8650 0.0400 -0.3760
v -0.8800 0.0400 -0.3500
v -0.8650 0.0400 -0.3240
f 174/7 173/7 172/7 171/7 170/7 169/7
v -0.8650 2.4000 -0.3240
v -0.8800 2.4000 -0.3500
v -0.8650 2.4000 -0.3760
v -0.8350 2.4000 -0.3760
v -0.8200 2.4000 -0.3500
v -0.8350 2.4000 -0.3240
f 180/7 179/7 178/7 177/7 176/7 175/7
v -0.7800 0.0000 0.4200
v -0.7800 0.0400 0.4200
v -0.7800 0.0400 0.2800
v -0.7800 0.0000 0.2800
f 184/6 183/6 182/6 181/6
v -0.9200 0.0000 0.2800
v -0.9200 0.0400 0.2800
v -0.9200 0.0400 0.4200
v -0.9200 0.0000 0.4200
f 188/6 187/6 186/6 185/6
v -0.7800 0.0000 0.2800
v -0.9200 0.0000 0.2800
v -0.9200 0.0000 0.4200
v -0.7800 0.0000 0.4200
f 192/6 191/6 190/6 189/6
v -0.7800 0.0400 0.4200
v -0.9200 0.0400 0.4200
v -0.9200 0.0400 0.2800
v -0.7800 0.0400 0.2800
f 196/6 195/6 194/6 193/6
v -0.7800 0.0400 0.2800
v -0.9200 0.0400 0.2800
v -0.9200 0.0000 0.2800
v -0.7800 0.0000 0.2800
f 200/6 199/6 198/6 197/6
v -0.7800 0.0000 0.4200
v -0.9200 0.0000 0.4200
v -0.9200 0.0400 0.4200
v -0.7800 0.0400 0.4200
f 204/6 203/6 202/6 201/6
v -0.8650 0.0400 0.3760
v -0.8800 0.0400 0.3500
v -0.8800 2.4000 0.3500
v -0.8650 2.4000 0.3760
f 208/7 207/7 206/7 205/7
v -0.8800 0.0400 0.3500
v -0.8650 0.0400 0.3240
v -0.8650 2.4000 0.3240
v -0.8800 2.4000 0.3500
f 212/7 211/7 210/7 209/7
v -0.8650 0.0400 0.3240
v -0.8350 0.0400 0.3240
v -0.8350 2.4000 0.3240
v -0.8650 2.4000 0.3240
f 216/7 215/7 214/7 213/7
v -0.8350 0.0400 0.3240
v -0.8200 0.0400 0.3500
v -0.8200 2.4000 0.3500
v -0.8350 2.4000 0.3240
f 220/7 219/7 218/7 217/7
v -0.8200 0.0400 0.3500
v -0.8350 0.0400 0.3760
v -0.8350 2.4000 0.3760
v -0.8200 2.4000 0.3500
f 224/7 223/7 222/7 221/7
v -0.8350 0.0400 0.3760
v -0.8650 0.0400 0.3760
v -0.8650 2.4000 0.3760
v -0.8350 2.4000 0.3760
f 228/7 227/7 226/7 225/7
v -0.8350 0.0400 0.3760
v -0.8200 0.0400 0.3500
v -0.8350 0.0400 0.3240
v -0.8650 0.0400 0.3240
v -0.8800 0.0400 0.3500
v -0.8650 0.0400 0.3760
f 234/7 233/7 232/7 231/7 230/7 229/7
v -0.8650 2.4000 0.3760
v -0.8800 2.4000 0.3500
v -0.8650 2.4000 0.3240
v -0.8350 2.4000 0.3240
v -0.8200 2.4000 0.3500
v -0.8350 2.4000 0.3760
f 240/7 239/7 238/7 237/7 236/7 235/7
v 0.8500 0.4125 -0.3717
v 0.8500 0.4250 -0.3500
v -0.8500 0.4250 -0.3500
v -0.8500 0.4125 -0.3717
f 244/7 243/7 242/7 241/7
v 0.8500 0.4250 -0.3500
v 0.8500 0.4125 -0.3283
v -0.8500 0.4125 -0.3283
v -0.8500 0.4250 -0.3500
f 248/7 247/7 246/7 245/7
v 0.8500 0.4125 -0.3283
v 0.8500 0.3875 -0.3283
v -0.8500 0.3875 -0.3283
v -0.8500 0.4125 -0.3283
f 252/7 251/7 250/7 249/7
v 0.8500 0.3875 -0.3283
v 0.8500 0.3750 -0.3500
v -0.8500 0.3750 -0.3500
v -0.8500 0.3875 -0.3283
f 256/7 255/7 254/7 253/7
v 0.8500 0.3750 -0.3500
v 0.8500 0.3875 -0.3717
v -0.8500 0.3875 -0.3717
v -0.8500 0.3750 -0.3500
f 260/7 259/7 258/7 257/7
v 0.8500 0.3875 -0.3717
v 0.8500 0.4125 -0.3717
v -0.8500 0.4125 -0.3717
v -0.8500 0.3875 -0.3717
f 264/7 263/7 262/7 261/7
v 0.8500 0.3875 -0.3717
v 0.8500 0.3750 -0.3500
v 0.8500 0.3875 -0.3283
v 0.8500 0.4125 -0.3283
v 0.8500 0.4250 -0.3500
v 0.8500 0.4125 -0.3717
f 270/7 269/7 268/7 267/7 266/7 265/7
v -0.8500 0.4125 -0.3717
v -0.8500 0.4250 -0.3500
v -0.8500 0.4125 -0.3283
v -0.8500 0.3875 -0.3283
v -0.8500 0.3750 -0.3500
v -0.8500 0.3875 -0.3717
f 276/7 275/7 274/7 273/7 272/7 271/7
v 0.8500 0.4125 0.3283
v 0.8500 0.4250 0.3500
v -0.8500 0.4250 0.3500
v -0.8500 0.4125 0.3283
f 280/7 279/7 278/7 277/7
v 0.8500 0.4250 0.3500
v 0.8500 0.4125 0.3717
v -0.8500 0.4125 0.3717
v -0.8500 0.4250 0.3500
f 284/7 283/7 282/7 281/7
v 0.8500 0.4125 0.3717
v 0.8500 0.3875 0.3717
v -0.8500 0.3875 0.3717
v -0.8500 0.4125 0.3717
f 288/7 287/7 286/7 285/7
v 0.8500 0.3875 0.3717
v 0.8500 0.3750 0.3500
v -0.8500 0.3750 0.3500
v -0.8500 0.3875 0.3717
f 292/7 291/7 290/7 289/7
v 0.8500 0.3750 0.3500
v 0.8500 0.3875 0.3283
v -0.8500 0.3875 0.3283
v -0.8500 0.3750 0.3500
f 296/7 295/7 294/7 293/7
v 0.8500 0.3875 0.3283
v 0.8500 0.4125 0.3283
v -0.8500 0.4125 0.3283
v -0.8500 0.3875 0.3283
f 300/7 299/7 298/7 297/7
v 0.8500 0.3875 0.3283
v 0.8500 0.3750 0.3500
v 0.8500 0.3875 0.3717
v 0.8500 0.4125 0.3717
v 0.8500 0.4250 0.3500
v 0.8500 0.4125 0.3283
f 306/7 305/7 304/7 303/7 302/7 301/7
v -0.8500 0.4125 0.3283
v -0.8500 0.4250 0.3500
v -0.8500 0.4125 0.3717
v -0.8500 0.3875 0.3717
v -0.8500 0.3750 0.3500
v -0.8500 0.3875 0.3283
f 312/7 311/7 310/7 309/7 308/7 307/7
v 0.8283 0.4125 -0.3500
v 0.8500 0.4250 -0.3500
v 0.8500 0.4250 0.3500
v 0.8283 0.4125 0.3500
f 316/7 315/7 314/7 313/7
v 0.8500 0.4250 -0.3500
v 0.8717 0.4125 -0.3500
v 0.8717 0.4125 0.3500
v 0.8500 0.4250 0.3500
f 320/7 319/7 318/7 317/7
v 0.8717 0.4125 -0.3500
v 0.8717 0.3875 -0.3500
v 0.8717 0.3875 0.3500
v 0.8717 0.4125 0.3500
f 324/7 323/7 322/7 321/7
v 0.8717 0.3875 -0.3500
v 0.8500 0.3750 -0.3500
v 0.8500 0.3750 0.3500
v 0.8717 0.3875 0.3500
f 328/7 327/7 326/7 325/7
v 0.8500 0.3750 -0.3500
v 0.8283 0.3875 -0.3500
v 0.8283 0.3875 0.3500
v 0.8500 0.3750 0.3500
f 332/7 331/7 330/7 329/7
v 0.8283 0.3875 -0.3500
v 0.8283 0.4125 -0.3500
v 0.8283 0.4125 0.3500
v 0.8283 0.3875 0.3500
f 336/7 335/7 334/7 333/7
v 0.8283 0.3875 -0.3500
v 0.8500 0.3750 -0.3500
v 0.8717 0.3875 -0.3500
v 0.8717 0.4125 -0.3500
v 0.8500 0.4250 -0.3500
v 0.8283 0.4125 -0.3500
f 342/7 341/7 340/7 339/7 338/7 337/7
v 0.8283 0.4125 0.3500
v 0.8500 0.4250 0.3500
v 0.8717 0.4125 0.3500
v 0.8717 0.3875 0.3500
v 0.8500 0.3750 0.3500
v 0.8283 0.3875 0.3500
f 348/7 347/7 346/7 345/7 344/7 343/7
v -0.8717 0.4125 -0.3500
v -0.8500 0.4250 -0.3500
v -0.8500 0.4250 0.3500
v -0.8717 0.4125 0.3500
f 352/7 351/7 350/7 349/7
v -0.8500 0.4250 -0.3500
v -0.8283 0.4125 -0.3500
v -0.8283 0.4125 0.3500
v -0.8500 0.4250 0.3500
f 356/7 355/7 354/7 353/7
v -0.8283 0.4125 -0.3500
v -0.8283 0.3875 -0.3500
v -0.8283 0.3875 0.3500
v -0.8283 0.4125 0.3500
f 360/7 359/7 358/7 357/7
v -0.8283 0.3875 -0.3500
v -0.8500 0.3750 -0.3500
v -0.8500 0.3750 0.3500
v -0.8283 0.3875 0.3500
f 364/7 363/7 362/7 361/7
v -0.8500 0.3750 -0.3500
v -0.8717 0.3875 -0.3500
v -0.8717 0.3875 0.3500
v -0.8500 0.3750 0.3500
f 368/7 367/7 366/7 365/7
v -0.8717 0.3875 -0.3500
v -0.8717 0.4125 -0.3500
v -0.8717 0.4125 0.3500
v -0.8717 0.3875 0.3500
f 372/7 371/7 370/7 369/7
v -0.8717 0.3875 -0.3500
v -0.8500 0.3750 -0.3500
v -0.8283 0.3875 -0.3500
v -0.8283 0.4125 -0.3500
v -0.8500 0.4250 -0.3500
v -0.8717 0.4125 -0.3500
f 378/7 377/7 376/7 375/7 374/7 373/7
v -0.8717 0.4125 0.3500
v -0.8500 0.4250 0.3500
v -0.8283 0.4125 0.3500
v -0.8283 0.3875 0.3500
v -0.8500 0.3750 0.3500
v -0.8717 0.3875 0.3500
f 384/7 383/7 382/7 381/7 380/7 379/7
v 0.8500 1.2125 -0.3717
v 0.8500 1.2250 -0.3500
v -0.8500 1.2250 -0.3500
v -0.8500 1.2125 -0.3717
f 388/7 387/7 386/7 385/7
v 0.8500 1.2250 -0.3500
v 0.8500 1.2125 -0.3283
v -0.8500 1.2125 -0.3283
v -0.8500 1.2250 -0.3500
f 392/7 391/7 390/7 389/7
v 0.8500 1.2125 -0.3283
v 0.8500 1.1875 -0.3283
v -0.8500 1.1875 -0.3283
v -0.8500 1.2125 -0.3283
f 396/7 395/7 394/7 393/7
v 0.8500 1.1875 -0.3283
v 0.8500 1.1750 -0.3500
v -0.8500 1.1750 -0.3500
v -0.8500 1.1875 -0.3283
f 400/7 399/7 398/7 397/7
v 0.8500 1.1750 -0.3500
v 0.8500 1.1875 -0.3717
v -0.8500 1.1875 -0.3717
v -0.8500 1.1750 -0.3500
f 404/7 403/7 402/7 401/7
v 0.8500 1.1875 -0.3717
v 0.8500 1.2125 -0.3717
v -0.8500 1.2125 -0.3717
v -0.8500 1.1875 -0.3717
f 408/7 407/7 406/7 405/7
v 0.8500 1.1875 -0.3717
v 0.8500 1.1750 -0.3500
v 0.8500 1.1875 -0.3283
v 0.8500 1.2125 -0.3283
v 0.8500 1.2250 -0.3500
v 0.8500 1.2125 -0.3717
f 414/7 413/7 412/7 411/7 410/7 409/7
v -0.8500 1.2125 -0.3717
v -0.8500 1.2250 -0.3500
v -0.8500 1.2125 -0.3283
v -0.8500 1.1875 -0.3283
v -0.8500 1.1750 -0.3500
v -0.8500 1.1875 -0.3717
f 420/7 419/7 418/7 417/7 416/7 415/7
v 0.8500 1.2125 0.3283
v 0.8500 1.2250 0.3500
v -0.8500 1.2250 0.3500
v -0.8500 1.2125 0.3283
f 424/7 423/7 422/7 421/7
v 0.8500 1.2250 0.3500
v 0.8500 1.2125 0.3717
v -0.8500 1.2125 0.3717
v -0.8500 1.2250 0.3500
f 428/7 427/7 426/7 425/7
v 0.8500 1.2125 0.3717
v 0.8500 1.1875 0.3717
v -0.8500 1.1875 0.3717
v -0.8500 1.2125 0.3717
f 432/7 431/7 430/7 429/7
v 0.8500 1.1875 0.3717
v 0.8500 1.1750 0.3500
v -0.8500 1.1750 0.3500
v -0.8500 1.1875 0.3717
f 436/7 435/7 434/7 433/7
v 0.8500 1.1750 0.3500
v 0.8500 1.1875 0.3283
v -0.8500 1.1875 0.3283
v -0.8500 1.1750 0.3500
f 440/7 439/7 438/7 437/7
v 0.8500 1.1875 0.3283
v 0.8500 1.2125 0.3283
v -0.8500 1.2125 0.3283
v -0.8500 1.1875 0.3283
f 444/7 443/7 442/7 441/7
v 0.8500 1.1875 0.3283
v 0.8500 1.1750 0.3500
v 0.8500 1.1875 0.3717
v 0.8500 1.2125 0.3717
v 0.8500 1.2250 0.3500
v 0.8500 1.2125 0.3283
f 450/7 449/7 448/7 447/7 446/7 445/7
v -0.8500 1.2125 0.3283
v -0.8500 1.2250 0.3500
v -0.8500 1.2125 0.3717
v -0.8500 1.1875 0.3717
v -0.8500 1.1750 0.3500
v -0.8500 1.1875 0.3283
f 456/7 455/7 454/7 453/7 452/7 451/7
v 0.8283 1.2125 -0.3500
v 0.8500 1.2250 -0.3500
v 0.8500 1.2250 0.3500
v 0.8283 1.2125 0.3500
f 460/7 459/7 458/7 457/7
v 0.8500 1.2250 -0.3500
v 0.8717 1.2125 -0.3500
v 0.8717 1.2125 0.3500
v 0.8500 1.2250 0.3500
f 464/7 463/7 462/7 461/7
v 0.8717 1.2125 -0.3500
v 0.8717 1.1875 -0.3500
v 0.8717 1.1875 0.3500
v 0.8717 1.2125 0.3500
f 468/7 467/7 466/7 465/7
v 0.8717 1.1875 -0.3500
v 0.8500 1.1750 -0.3500
v 0.8500 1.1750 0.3500
v 0.8717 1.1875 0.3500
f 472/7 471/7 470/7 469/7
v 0.8500 1.1750 -0.3500
v 0.8283 1.1875 -0.3500
v 0.8283 1.1875 0.3500
v 0.8500 1.1750 0.3500
f 476/7 475/7 474/7 473/7
v 0.8283 1.1875 -0.3500
v 0.8283 1.2125 -0.3500
v 0.8283 1.2125 0.3500
v 0.8283 1.1875 0.3500
f 480/7 479/7 478/7 477/7
v 0.8283 1.1875 -0.3500
v 0.8500 1.1750 -0.3500
v 0.8717 1.1875 -0.3500
v 0.8717 1.2125 -0.3500
v 0.8500 1.2250 -0.3500
v 0.8283 1.2125 -0.3500
f 486/7 485/7 484/7 483/7 482/7 481/7
v 0.8283 1.2125 0.3500
v 0.8500 1.2250 0.3500
v 0.8717 1.2125 0.3500
v 0.8717 1.1875 0.3500
v 0.8500 1.1750 0.3500
v 0.8283 1.1875 0.3500
f 492/7 491/7 490/7 489/7 488/7 487/7
v -0.8717 1.2125 -0.3500
v -0.8500 1.2250 -0.3500
v -0.8500 1.2250 0.3500
v -0.8717 1.2125 0.3500
f 496/7 495/7 494/7 493/7
v -0.8500 1.2250 -0.3500
v -0.8283 1.2125 -0.3500
v -0.8283 1.2125 0.3500
v -0.8500 1.2250 0.3500
f 500/7 499/7 498/7 497/7
v -0.8283 1.2125 -0.3500
v -0.8283 1.1875 -0.3500
v -0.8283 1.1875 0.3500
v -0.8283 1.2125 0.3500
f 504/7 503/7 502/7 501/7
v -0.8283 1.1875 -0.3500
v -0.8500 1.1750 -0.3500
v -0.8500 1.1750 0.3500
v -0.8283 1.1875 0.3500
f 508/7 507/7 506/7 505/7
v -0.8500 1.1750 -0.3500
v -0.8717 1.1875 -0.3500
v -0.8717 1.1875 0.3500
v -0.8500 1.1750 0.3500
f 512/7 511/7 510/7 509/7
v -0.8717 1.1875 -0.3500
v -0.8717 1.2125 -0.3500
v -0.8717 1.2125 0.3500
v -0.8717 1.1875 0.3500
f 516/7 515/7 514/7 513/7
v -0.8717 1.1875 -0.3500
v -0.8500 1.1750 -0.3500
v -0.8283 1.1875 -0.3500
v -0.8283 1.2125 -0.3500
v -0.8500 1.2250 -0.3500
v -0.8717 1.2125 -0.3500
f 522/7 521/7 520/7 519/7 518/7 517/7
v -0.8717 1.2125 0.3500
v -0.8500 1.2250 0.3500
v -0.8283 1.2125 0.3500
v -0.8283 1.1875 0.3500
v -0.8500 1.1750 0.3500
v -0.8717 1.1875 0.3500
f 528/7 527/7 526/7 525/7 524/7 523/7
v 0.8500 2.0125 -0.3717
v 0.8500 2.0250 -0.3500
v -0.8500 2.0250 -0.3500
v -0.8500 2.0125 -0.3717
f 532/7 531/7 530/7 529/7
v 0.8500 2.0250 -0.3500
v 0.8500 2.0125 -0.3283
v -0.8500 2.0125 -0.3283
v -0.8500 2.0250 -0.3500
f 536/7 535/7 534/7 533/7
v 0.8500 2.0125 -0.3283
v 0.8500 1.9875 -0.3283
v -0.8500 1.9875 -0.3283
v -0.8500 2.0125 -0.3283
f 540/7 539/7 538/7 537/7
v 0.8500 1.9875 -0.3283
v 0.8500 1.9750 -0.3500
v -0.8500 1.9750 -0.3500
v -0.8500 1.9875 -0.3283
f 544/7 543/7 542/7 541/7
v 0.8500 1.9750 -0.3500
v 0.8500 1.9875 -0.3717
v -0.8500 1.9875 -0.3717
v -0.8500 1.9750 -0.3500
f 548/7 547/7 546/7 545/7
v 0.8500 1.9875 -0.3717
v 0.8500 2.0125 -0.3717
v -0.8500 2.0125 -0.3717
v -0.8500 1.9875 -0.3717
f 552/7 551/7 550/7 549/7
v 0.8500 1.9875 -0.3717
v 0.8500 1.9750 -0.3500
v 0.8500 1.9875 -0.3283
v 0.8500 2.0125 -0.3283
v 0.8500 2.0250 -0.3500
v 0.8500 2.0125 -0.3717
f 558/7 557/7 556/7 555/7 554/7 553/7
v -0.8500 2.0125 -0.3717
v -0.8500 2.0250 -0.3500
v -0.8500 2.0125 -0.3283
v -0.8500 1.9875 -0.3283
v -0.8500 1.9750 -0.3500
v -0.8500 1.9875 -0.3717
f 564/7 563/7 562/7 561/7 560/7 559/7
v 0.8500 2.0125 0.3283
v 0.8500 2.0250 0.3500
v -0.8500 2.0250 0.3500
v -0.8500 2.0125 0.3283
f 568/7 567/7 566/7 565/7
v 0.8500 2.0250 0.3500
v 0.8500 2.0125 0.3717
v -0.8500 2.0125 0.3717
v -0.8500 2.0250 0.3500
f 572/7 571/7 570/7 569/7
v 0.8500 2.0125 0.3717
v 0.8500 1.9875 0.3717
v -0.8500 1.9875 0.3717
v -0.8500 2.0125 0.3717
f 576/7 575/7 574/7 573/7
v 0.8500 1.9875 0.3717
v 0.8500 1.9750 0.3500
v -0.8500 1.9750 0.3500
v -0.8500 1.9875 0.3717
f 580/7 579/7 578/7 577/7
v 0.8500 1.9750 0.3500
v 0.8500 1.9875 0.3283
v -0.8500 1.9875 0.3283
v -0.8500 1.9750 0.3500
f 584/7 583/7 582/7 581/7
v 0.8500 1.9875 0.3283
v 0.8500 2.0125 0.3283
v -0.8500 2.0125 0.3283
v -0.8500 1.9875 0.3283
f 588/7 587/7 586/7 585/7
v 0.8500 1.9875 0.3283
v 0.8500 1.9750 0.3500
v 0.8500 1.9875 0.3717
v 0.8500 2.0125 0.3717
v 0.8500 2.0250 0.3500
v 0.8500 2.0125 0.3283
f 594/7 593/7 592/7 591/7 590/7 589/7
v -0.8500 2.0125 0.3283
v -0.8500 2.0250 0.3500
v -0.8500 2.0125 0.3717
v -0.8500 1.9875 0.3717
v -0.8500 1.9750 0.3500
v -0.8500 1.9875 0.3283
f 600/7 599/7 598/7 597/7 596/7 595/7
v 0.8283 2.0125 -0.3500
v 0.8500 2.0250 -0.3500
v 0.8500 2.0250 0.3500
v 0.8283 2.0125 0.3500
f 604/7 603/7 602/7 601/7
v 0.8500 2.0250 -0.3500
v 0.8717 2.0125 -0.3500
v 0.8717 2.0125 0.3500
v 0.8500 2.0250 0.3500
f 608/7 607/7 606/7 605/7
v 0.8717 2.0125 -0.3500
v 0.8717 1.9875 -0.3500
v 0.8717 1.9875 0.3500
v 0.8717 2.0125 0.3500
f 612/7 611/7 610/7 609/7
v 0.8717 1.9875 -0.3500
v 0.8500 1.9750 -0.3500
v 0.8500 1.9750 0.3500
v 0.8717 1.9875 0.3500
f 616/7 615/7 614/7 613/7
v 0.8500 1.9750 -0.3500
v 0.8283 1.9875 -0.3500
v 0.8283 1.9875 0.3500
v 0.8500 1.9750 0.3500
f 620/7 619/7 618/7 617/7
v 0.8283 1.9875 -0.3500
v 0.8283 2.0125 -0.3500
v 0.8283 2.0125 0.3500
v 0.8283 1.9875 0.3500
f 624/7 623/7 622/7 621/7
v 0.8283 1.9875 -0.3500
v 0.8500 1.9750 -0.3500
v 0.8717 1.9875 -0.3500
v 0.8717 2.0125 -0.3500
v 0.8500 2.0250 -0.3500
v 0.8283 2.0125 -0.3500
f 630/7 629/7 628/7 627/7 626/7 625/7
v 0.8283 2.0125 0.3500
v 0.8500 2.0250 0.3500
v 0.8717 2.0125 0.3500
v 0.8717 1.9875 0.3500
v 0.8500 1.9750 0.3500
v 0.8283 1.9875 0.3500
f 636/7 635/7 634/7 633/7 632/7 631/7
v -0.8717 2.0125 -0.3500
v -0.8500 2.0250 -0.3500
v -0.8500 2.0250 0.3500
v -0.8717 2.0125 0.3500
f 640/7 639/7 638/7 637/7
v -0.8500 2.0250 -0.3500
v -0.8283 2.0125 -0.3500
v -0.8283 2.0125 0.3500
v -0.8500 2.0250 0.3500
f 644/7 643/7 642/7 641/7
v -0.8283 2.0125 -0.3500
v -0.8283 1.9875 -0.3500
v -0.8283 1.9875 0.3500
v -0.8283 2.0125 0.3500
f 648/7 647/7 646/7 645/7
v -0.8283 1.9875 -0.3500
v -0.8500 1.9750 -0.3500
v -0.8500 1.9750 0.3500
v -0.8283 1.9875 0.3500
f 652/7 651/7 650/7 649/7
v -0.8500 1.9750 -0.3500
v -0.8717 1.9875 -0.3500
v -0.8717 1.9875 0.3500
v -0.8500 1.9750 0.3500
f 656/7 655/7 654/7 653/7
v -0.8717 1.9875 -0.3500
v -0.8717 2.0125 -0.3500
v -0.8717 2.0125 0.3500
v -0.8717 1.9875 0.3500
f 660/7 659/7 658/7 657/7
v -0.8717 1.9875 -0.3500
v -0.8500 1.9750 -0.3500
v -0.8283 1.9875 -0.3500
v -0.8283 2.0125 -0.3500
v -0.8500 2.0250 -0.3500
v -0.8717 2.0125 -0.3500
f 666/7 665/7 664/7 663/7 662/7 661/7
v -0.8717 2.0125 0.3500
v -0.8500 2.0250 0.3500
v -0.8283 2.0125 0.3500
v -0.8283 1.9875 0.3500
v -0.8500 1.9750 0.3500
v -0.8717 1.9875 0.3500
f 672/7 671/7 670/7 669/7 668/7 667/7
v 0.8500 2.3625 -0.3717
v 0.8500 2.3750 -0.3500
v -0.8500 2.3750 -0.3500
v -0.8500 2.3625 -0.3717
f 676/7 675/7 674/7 673/7
v 0.8500 2.3750 -0.3500
v 0.8500 2.3625 -0.3283
v -0.8500 2.3625 -0.3283
v -0.8500 2.3750 -0.3500
f 680/7 679/7 678/7 677/7
v 0.8500 2.3625 -0.3283
v 0.8500 2.3375 -0.3283
v -0.8500 2.3375 -0.3283
v -0.8500 2.3625 -0.3283
f 684/7 683/7 682/7 681/7
v 0.8500 2.3375 -0.3283
v 0.8500 2.3250 -0.3500
v -0.8500 2.3250 -0.3500
v -0.8500 2.3375 -0.3283
f 688/7 687/7 686/7 685/7
v 0.8500 2.3250 -0.3500
v 0.8500 2.3375 -0.3717
v -0.8500 2.3375 -0.3717
v -0.8500 2.3250 -0.3500
f 692/7 691/7 690/7 689/7
v 0.8500 2.3375 -0.3717
v 0.8500 2.3625 -0.3717
v -0.8500 2.3625 -0.3717
v -0.8500 2.3375 -0.3717
f 696/7 695/7 694/7 693/7
v 0.8500 2.3375 -0.3717
v 0.8500 2.3250 -0.3500
v 0.8500 2.3375 -0.3283
v 0.8500 2.3625 -0.3283
v 0.8500 2.3750 -0.3500
v 0.8500 2.3625 -0.3717
f 702/7 701/7 700/7 699/7 698/7 697/7
v -0.8500 2.3625 -0.3717
v -0.8500 2.3750 -0.3500
v -0.8500 2.3625 -0.3283
v -0.8500 2.3375 -0.3283
v -0.8500 2.3250 -0.3500
v -0.8500 2.3375 -0.3717
f 708/7 707/7 706/7 705/7 704/7 703/7
v 0.8500 2.3625 0.3283
v 0.8500 2.3750 0.3500
v -0.8500 2.3750 0.3500
v -0.8500 2.3625 0.3283
f 712/7 711/7 710/7 709/7
v 0.8500 2.3750 0.3500
v 0.8500 2.3625 0.3717
v -0.8500 2.3625 0.3717
v -0.8500 2.3750 0.3500
f 716/7 715/7 714/7 713/7
v 0.8500 2.3625 0.3717
v 0.8500 2.3375 0.3717
v -0.8500 2.3375 0.3717
v -0.8500 2.3625 0.3717
f 720/7 719/7 718/7 717/7
v 0.8500 2.3375 0.3717
v 0.8500 2.3250 0.3500
v -0.8500 2.3250 0.3500
v -0.8500 2.3375 0.3717
f 724/7 723/7 722/7 721/7
v 0.8500 2.3250 0.3500
v 0.8500 2.3375 0.3283
v -0.8500 2.3375 0.3283
v -0.8500 2.3250 0.3500
f 728/7 727/7 726/7 725/7
v 0.8500 2.3375 0.3283
v 0.8500 2.3625 0.3283
v -0.8500 2.3625 0.3283
v -0.8500 2.3375 0.3283
f 732/7 731/7 730/7 729/7
v 0.8500 2.3375 0.3283
v 0.8500 2.3250 0.3500
v 0.8500 2.3375 0.3717
v 0.8500 2.3625 0.3717
v 0.8500 2.3750 0.3500
v 0.8500 2.3625 0.3283
f 738/7 737/7 736/7 735/7 734/7 733/7
v -0.8500 2.3625 0.3283
v -0.8500 2.3750 0.3500
v -0.8500 2.3625 0.3717
v -0.8500 2.3375 0.3717
v -0.8500 2.3250 0.3500
v -0.8500 2.3375 0.3283
f 744/7 743/7 742/7 741/7 740/7 739/7
v 0.8283 2.3625 -0.3500
v 0.8500 2.3750 -0.3500
v 0.8500 2.3750 0.3500
v 0.8283 2.3625 0.3500
f 748/7 747/7 746/7 745/7
v 0.8500 2.3750 -0.3500
v 0.8717 2.3625 -0.3500
v 0.8717 2.3625 0.3500
v 0.8500 2.3750 0.3500
f 752/7 751/7 750/7 749/7
v 0.8717 2.3625 -0.3500
v 0.8717 2.3375 -0.3500
v 0.8717 2.3375 0.3500
v 0.8717 2.3625 0.3500
f 756/7 755/7 754/7 753/7
v 0.8717 2.3375 -0.3500
v 0.8500 2.3250 -0.3500
v 0.8500 2.3250 0.3500
v 0.8717 2.3375 0.3500
f 760/7 759/7 758/7 757/7
v 0.8500 2.3250 -0.3500
v 0.8283 2.3375 -0.3500
v 0.8283 2.3375 0.3500
v 0.8500 2.3250 0.3500
f 764/7 763/7 762/7 761/7
v 0.8283 2.3375 -0.3500
v 0.8283 2.3625 -0.3500
v 0.8283 2.3625 0.3500
v 0.8283 2.3375 0.3500
f 768/7 767/7 766/7 765/7
v 0.8283 2.3375 -0.3500
v 0.8500 2.3250 -0.3500
v 0.8717 2.3375 -0.3500
v 0.8717 2.3625 -0.3500
v 0.8500 2.3750 -0.3500
v 0.8283 2.3625 -0.3500
f 774/7 773/7 772/7 771/7 770/7 769/7
v 0.8283 2.3625 0.3500
v 0.8500 2.3750 0.3500
v 0.8717 2.3625 0.3500
v 0.8717 2.3375 0.3500
v 0.8500 2.3250 0.3500
v 0.8283 2.3375 0.3500
f 780/7 779/7 778/7 777/7 776/7 775/7
v -0.8717 2.3625 -0.3500
v -0.8500 2.3750 -0.3500
v -0.8500 2.3750 0.3500
v -0.8717 2.3625 0.3500
f 784/7 783/7 782/7 781/7
v -0.8500 2.3750 -0.3500
v -0.8283 2.3625 -0.3500
v -0.8283 2.3625 0.3500
v -0.8500 2.3750 0.3500
f 788/7 787/7 786/7 785/7
v -0.8283 2.3625 -0.3500
v -0.8283 2.3375 -0.3500
v -0.8283 2.3375 0.3500
v -0.8283 2.3625 0.3500
f 792/7 791/7 790/7 789/7
v -0.8283 2.3375 -0.3500
v -0.8500 2.3250 -0.3500
v -0.8500 2.3250 0.3500
v -0.8283 2.3375 0.3500
f 796/7 795/7 794/7 793/7
v -0.8500 2.3250 -0.3500
v -0.8717 2.3375 -0.3500
v -0.8717 2.3375 0.3500
v -0.8500 2.3250 0.3500
f 800/7 799/7 798/7 797/7
v -0.8717 2.3375 -0.3500
v -0.8717 2.3625 -0.3500
v -0.8717 2.3625 0.3500
v -0.8717 2.3375 0.3500
f 804/7 803/7 802/7 801/7
v -0.8717 2.3375 -0.3500
v -0.8500 2.3250 -0.3500
v -0.8283 2.3375 -0.3500
v -0.8283 2.3625 -0.3500
v -0.8500 2.3750 -0.3500
v -0.8717 2.3625 -0.3500
f 810/7 809/7 808/7 807/7 806/7 805/7
v -0.8717 2.3625 0.3500
v -0.8500 2.3750 0.3500
v -0.8283 2.3625 0.3500
v -0.8283 2.3375 0.3500
v -0.8500 2.3250 0.3500
v -0.8717 2.3375 0.3500
f 816/7 815/7 814/7 813/7 812/7 811/7
v 0.8550 0.4106 -0.3662
v 0.8581 0.4172 -0.3438
v -0.8419 1.2172 -0.3438
v -0.8450 1.2106 -0.3662
f 820/7 819/7 818/7 817/7
v 0.8581 0.4172 -0.3438
v 0.8500 0.4000 -0.3300
v -0.8500 1.2000 -0.3300
v -0.8419 1.2172 -0.3438
f 824/7 823/7 822/7 821/7
v 0.8500 0.4000 -0.3300
v 0.8419 0.3828 -0.3438
v -0.8581 1.1828 -0.3438
v -0.8500 1.2000 -0.3300
f 828/7 827/7 826/7 825/7
v 0.8419 0.3828 -0.3438
v 0.8450 0.3894 -0.3662
v -0.8550 1.1894 -0.3662
v -0.8581 1.1828 -0.3438
f 832/7 831/7 830/7 829/7
v 0.8450 0.3894 -0.3662
v 0.8550 0.4106 -0.3662
v -0.8450 1.2106 -0.3662
v -0.8550 1.1894 -0.3662
f 836/7 835/7 834/7 833/7
v 0.8450 0.3894 -0.3662
v 0.8419 0.3828 -0.3438
v 0.8500 0.4000 -0.3300
v 0.8581 0.4172 -0.3438
v 0.8550 0.4106 -0.3662
f 841/7 840/7 839/7 838/7 837/7
v -0.8450 1.2106 -0.3662
v -0.8419 1.2172 -0.3438
v -0.8500 1.2000 -0.3300
v -0.8581 1.1828 -0.3438
v -0.8550 1.1894 -0.3662
f 846/7 845/7 844/7 843/7 842/7
v 0.8550 0.4106 0.3338
v 0.8581 0.4172 0.3562
v -0.8419 1.2172 0.3562
v -0.8450 1.2106 0.3338
f 850/7 849/7 848/7 847/7
v 0.8581 0.4172 0.3562
v 0.8500 0.4000 0.3700
v -0.8500 1.2000 0.3700
v -0.8419 1.2172 0.3562
f 854/7 853/7 852/7 851/7
v 0.8500 0.4000 0.3700
v 0.8419 0.3828 0.3562
v -0.8581 1.1828 0.3562
v -0.8500 1.2000 0.3700
f 858/7 857/7 856/7 855/7
v 0.8419 0.3828 0.3562
v 0.8450 0.3894 0.3338
v -0.8550 1.1894 0.3338
v -0.8581 1.1828 0.3562
f 862/7 861/7 860/7 859/7
v 0.8450 0.3894 0.3338
v 0.8550 0.4106 0.3338
v -0.8450 1.2106 0.3338
v -0.8550 1.1894 0.3338
f 866/7 865/7 864/7 863/7
v 0.8450 0.3894 0.3338
v 0.8419 0.3828 0.3562
v 0.8500 0.4000 0.3700
v 0.8581 0.4172 0.3562
v 0.8550 0.4106 0.3338
f 871/7 870/7 869/7 868/7 867/7
v -0.8450 1.2106 0.3338
v -0.8419 1.2172 0.3562
v -0.8500 1.2000 0.3700
v -0.8581 1.1828 0.3562
v -0.8550 1.1894 0.3338
f 876/7 875/7 874/7 873/7 872/7
v 0.8750 1.2300 -0.1900
v 0.8750 1.2700 -0.1900
v 0.8750 1.2700 -0.3500
v 0.8750 1.2300 -0.3500
f 880/22 879/22 878/22 877/22
v -0.8750 1.2300 -0.3500
v -0.8750 1.2700 -0.3500
v -0.8750 1.2700 -0.1900
v -0.8750 1.2300 -0.1900
f 884/22 883/22 882/22 881/22
v 0.8750 1.2300 -0.3500
v -0.8750 1.2300 -0.3500
v -0.8750 1.2300 -0.1900
v 0.8750 1.2300 -0.1900
f 888/22 887/22 886/22 885/22
v 0.8750 1.2700 -0.1900
v -0.8750 1.2700 -0.1900
v -0.8750 1.2700 -0.3500
v 0.8750 1.2700 -0.3500
f 892/22 891/22 890/22 889/22
v 0.8750 1.2700 -0.3500
v -0.8750 1.2700 -0.3500
v -0.8750 1.2300 -0.3500
v 0.8750 1.2300 -0.3500
f 896/22 895/22 894/22 893/22
v 0.8750 1.2300 -0.1900
v -0.8750 1.2300 -0.1900
v -0.8750 1.2700 -0.1900
v 0.8750 1.2700 -0.1900
f 900/22 899/22 898/22 897/22
v 0.8750 1.2300 -0.0100
v 0.8750 1.2700 -0.0100
v 0.8750 1.2700 -0.1700
v 0.8750 1.2300 -0.1700
f 904/22 903/22 902/22 901/22
v -0.8750 1.2300 -0.1700
v -0.8750 1.2700 -0.1700
v -0.8750 1.2700 -0.0100
v -0.8750 1.2300 -0.0100
f 908/22 907/22 906/22 905/22
v 0.8750 1.2300 -0.1700
v -0.8750 1.2300 -0.1700
v -0.8750 1.2300 -0.0100
v 0.8750 1.2300 -0.0100
f 912/22 911/22 910/22 909/22
v 0.8750 1.2700 -0.0100
v -0.8750 1.2700 -0.0100
v -0.8750 1.2700 -0.1700
v 0.8750 1.2700 -0.1700
f 916/22 915/22 914/22 913/22
v 0.8750 1.2700 -0.1700
v -0.8750 1.2700 -0.1700
v -0.8750 1.2300 -0.1700
v 0.8750 1.2300 -0.1700
f 920/22 919/22 918/22 917/22
v 0.8750 1.2300 -0.0100
v -0.8750 1.2300 -0.0100
v -0.8750 1.2700 -0.0100
v 0.8750 1.2700 -0.0100
f 924/22 923/22 922/22 921/22
v 0.8750 1.2300 0.1700
v 0.8750 1.2700 0.1700
v 0.8750 1.2700 0.0100
v 0.8750 1.2300 0.0100
f 928/22 927/22 926/22 925/22
v -0.8750 1.2300 0.0100
v -0.8750 1.2700 0.0100
v -0.8750 1.2700 0.1700
v -0.8750 1.2300 0.1700
f 932/22 931/22 930/22 929/22
v 0.8750 1.2300 0.0100
v -0.8750 1.2300 0.0100
v -0.8750 1.2300 0.1700
v 0.8750 1.2300 0.1700
f 936/22 935/22 934/22 933/22
v 0.8750 1.2700 0.1700
v -0.8750 1.2700 0.1700
v -0.8750 1.2700 0.0100
v 0.8750 1.2700 0.0100
f 940/22 939/22 938/22 937/22
v 0.8750 1.2700 0.0100
v -0.8750 1.2700 0.0100
v -0.8750 1.2300 0.0100
v 0.8750 1.2300 0.0100
f 944/22 943/22 942/22 941/22
v 0.8750 1.2300 0.1700
v -0.8750 1.2300 0.1700
v -0.8750 1.2700 0.1700
v 0.8750 1.2700 0.1700
f 948/22 947/22 946/22 945/22
v 0.8750 1.2300 0.3500
v 0.8750 1.2700 0.3500
v 0.8750 1.2700 0.1900
v 0.8750 1.2300 0.1900
f 952/22 951/22 950/22 949/22
v -0.8750 1.2300 0.1900
v -0.8750 1.2700 0.1900
v -0.8750 1.2700 0.3500
v -0.8750 1.2300 0.3500
f 956/22 955/22 954/22 953/22
v 0.8750 1.2300 0.1900
v -0.8750 1.2300 0.1900
v -0.8750 1.2300 0.3500
v 0.8750 1.2300 0.3500
f 960/22 959/22 958/22 957/22
v 0.8750 1.2700 0.3500
v -0.8750 1.2700 0.3500
v -0.8750 1.2700 0.1900
v 0.8750 1.2700 0.1900
f 964/22 963/22 962/22 961/22
v 0.8750 1.2700 0.1900
v -0.8750 1.2700 0.1900
v -0.8750 1.2300 0.1900
v 0.8750 1.2300 0.1900
f 968/22 967/22 966/22 965/22
v 0.8750 1.2300 0.3500
v -0.8750 1.2300 0.3500
v -0.8750 1.2700 0.3500
v 0.8750 1.2700 0.3500
f 972/22 971/22 970/22 969/22
v 0.8500 1.2500 0.3800
v 0.8500 1.3500 0.3800
v 0.8500 1.3500 0.3600
v 0.8500 1.2500 0.3600
f 976/8 975/8 974/8 973/8
v -0.8500 1.2500 0.3600
v -0.8500 1.3500 0.3600
v -0.8500 1.3500 0.3800
v -0.8500 1.2500 0.3800
f 980/8 979/8 978/8 977/8
v 0.8500 1.2500 0.3600
v -0.8500 1.2500 0.3600
v -0.8500 1.2500 0.3800
v 0.8500 1.2500 0.3800
f 984/8 983/8 982/8 981/8
v 0.8500 1.3500 0.3800
v -0.8500 1.3500 0.3800
v -0.8500 1.3500 0.3600
v 0.8500 1.3500 0.3600
f 988/8 987/8 986/8 985/8
v 0.8500 1.3500 0.3600
v -0.8500 1.3500 0.3600
v -0.8500 1.2500 0.3600
v 0.8500 1.2500 0.3600
f 992/8 991/8 990/8 989/8
v 0.8500 1.2500 0.3800
v -0.8500 1.2500 0.3800
v -0.8500 1.3500 0.3800
v 0.8500 1.3500 0.3800
f 996/8 995/8 994/8 993/8
v 0.8750 2.0300 -0.1900
v 0.8750 2.0700 -0.1900
v 0.8750 2.0700 -0.3500
v 0.8750 2.0300 -0.3500
f 1000/22 999/22 998/22 997/22
v -0.8750 2.0300 -0.3500
v -0.8750 2.0700 -0.3500
v -0.8750 2.0700 -0.1900
v -0.8750 2.0300 -0.1900
f 1004/22 1003/22 1002/22 1001/22
v 0.8750 2.0300 -0.3500
v -0.8750 2.0300 -0.3500
v -0.8750 2.0300 -0.1900
v 0.8750 2.0300 -0.1900
f 1008/22 1007/22 1006/22 1005/22
v 0.8750 2.0700 -0.1900
v -0.8750 2.0700 -0.1900
v -0.8750 2.0700 -0.3500
v 0.8750 2.0700 -0.3500
f 1012/22 1011/22 1010/22 1009/22
v 0.8750 2.0700 -0.3500
v -0.8750 2.0700 -0.3500
v -0.8750 2.0300 -0.3500
v 0.8750 2.0300 -0.3500
f 1016/22 1015/22 1014/22 1013/22
v 0.8750 2.0300 -0.1900
v -0.8750 2.0300 -0.1900
v -0.8750 2.0700 -0.1900
v 0.8750 2.0700 -0.1900
f 1020/22 1019/22 1018/22 1017/22
v 0.8750 2.0300 -0.0100
v 0.8750 2.0700 -0.0100
v 0.8750 2.0700 -0.1700
v 0.8750 2.0300 -0.1700
f 1024/22 1023/22 1022/22 1021/22
v -0.8750 2.0300 -0.1700
v -0.8750 2.0700 -0.1700
v -0.8750 2.0700 -0.0100
v -0.8750 2.0300 -0.0100
f 1028/22 1027/22 1026/22 1025/22
v 0.8750 2.0300 -0.1700
v -0.8750 2.0300 -0.1700
v -0.8750 2.0300 -0.0100
v 0.8750 2.0300 -0.0100
f 1032/22 1031/22 1030/22 1029/22
v 0.8750 2.0700 -0.0100
v -0.8750 2.0700 -0.0100
v -0.8750 2.0700 -0.1700
v 0.8750 2.0700 -0.1700
f 1036/22 1035/22 1034/22 1033/22
v 0.8750 2.0700 -0.1700
v -0.8750 2.0700 -0.1700
v -0.8750 2.0300 -0.1700
v 0.8750 2.0300 -0.1700
f 1040/22 1039/22 1038/22 1037/22
v 0.8750 2.0300 -0.0100
v -0.8750 2.0300 -0.0100
v -0.8750 2.0700 -0.0100
v 0.8750 2.0700 -0.0100
f 1044/22 1043/22 1042/22 1041/22
v 0.8750 2.0300 0.1700
v 0.8750 2.0700 0.1700
v 0.8750 2.0700 0.0100
v 0.8750 2.0300 0.0100
f 1048/22 1047/22 1046/22 1045/22
v -0.8750 2.0300 0.0100
v -0.8750 2.0700 0.0100
v -0.8750 2.0700 0.1700
v -0.8750 2.0300 0.1700
f 1052/22 1051/22 1050/22 1049/22
v 0.8750 2.0300 0.0100
v -0.8750 2.0300 0.0100
v -0.8750 2.0300 0.1700
v 0.8750 2.0300 0.1700
f 1056/22 1055/22 1054/22 1053/22
v 0.8750 2.0700 0.1700
v -0.8750 2.0700 0.1700
v -0.8750 2.0700 0.0100
v 0.8750 2.0700 0.0100
f 1060/22 1059/22 1058/22 1057/22
v 0.8750 2.0700 0.0100
v -0.8750 2.0700 0.0100
v -0.8750 2.0300 0.0100
v 0.8750 2.0300 0.0100
f 1064/22 1063/22 1062/22 1061/22
v 0.8750 2.0300 0.1700
v -0.8750 2.0300 0.1700
v -0.8750 2.0700 0.1700
v 0.8750 2.0700 0.1700
f 1068/22 1067/22 1066/22 1065/22
v 0.8750 2.0300 0.3500
v 0.8750 2.0700 0.3500
v 0.8750 2.0700 0.1900
v 0.8750 2.0300 0.1900
f 1072/22 1071/22 1070/22 1069/22
v -0.8750 2.0300 0.1900
v -0.8750 2.0700 0.1900
v -0.8750 2.0700 0.3500
v -0.8750 2.0300 0.3500
f 1076/22 1075/22 1074/22 1073/22
v 0.8750 2.0300 0.1900
v -0.8750 2.0300 0.1900
v -0.8750 2.0300 0.3500
v 0.8750 2.0300 0.3500
f 1080/22 1079/22 1078/22 1077/22
v 0.8750 2.0700 0.3500
v -0.8750 2.0700 0.3500
v -0.8750 2.0700 0.1900
v 0.8750 2.0700 0.1900
f 1084/22 1083/22 1082/22 1081/22
v 0.8750 2.0700 0.1900
v -0.8750 2.0700 0.1900
v -0.8750 2.0300 0.1900
v 0.8750 2.0300 0.1900
f 1088/22 1087/22 1086/22 1085/22
v 0.8750 2.0300 0.3500
v -0.8750 2.0300 0.3500
v -0.8750 2.0700 0.3500
v 0.8750 2.0700 0.3500
f 1092/22 1091/22 1090/22 1089/22
v 0.8500 2.0500 0.3800
v 0.8500 2.1500 0.3800
v 0.8500 2.1500 0.3600
v 0.8500 2.0500 0.3600
f 1096/8 1095/8 1094/8 1093/8
v -0.8500 2.0500 0.3600
v -0.8500 2.1500 0.3600
v -0.8500 2.1500 0.3800
v -0.8500 2.0500 0.3800
f 1100/8 1099/8 1098/8 1097/8
v 0.8500 2.0500 0.3600
v -0.8500 2.0500 0.3600
v -0.8500 2.0500 0.3800
v 0.8500 2.0500 0.3800
f 1104/8 1103/8 1102/8 1101/8
v 0.8500 2.1500 0.3800
v -0.8500 2.1500 0.3800
v -0.8500 2.1500 0.3600
v 0.8500 2.1500 0.3600
f 1108/8 1107/8 1106/8 1105/8
v 0.8500 2.1500 0.3600
v -0.8500 2.1500 0.3600
v -0.8500 2.0500 0.3600
v 0.8500 2.0500 0.3600
f 1112/8 1111/8 1110/8 1109/8
v 0.8500 2.0500 0.3800
v -0.8500 2.0500 0.3800
v -0.8500 2.1500 0.3800
v 0.8500 2.1500 0.3800
f 1116/8 1115/8 1114/8 1113/8
v -0.9918 0.0000 -0.1038
v -0.9990 0.0000 -0.1262
v -0.9990 2.1000 -0.1262
v -0.9918 2.1000 -0.1038
f 1120/7 1119/7 1118/7 1117/7
v -0.9990 0.0000 -0.1262
v -0.9800 0.0000 -0.1400
v -0.9800 2.1000 -0.1400
v -0.9990 2.1000 -0.1262
f 1124/7 1123/7 1122/7 1121/7
v -0.9800 0.0000 -0.1400
v -0.9610 0.0000 -0.1262
v -0.9610 2.1000 -0.1262
v -0.9800 2.1000 -0.1400
f 1128/7 1127/7 1126/7 1125/7
v -0.9610 0.0000 -0.1262
v -0.9682 0.0000 -0.1038
v -0.9682 2.1000 -0.1038
v -0.9610 2.1000 -0.1262
f 1132/7 1131/7 1130/7 1129/7
v -0.9682 0.0000 -0.1038
v -0.9918 0.0000 -0.1038
v -0.9918 2.1000 -0.1038
v -0.9682 2.1000 -0.1038
f 1136/7 1135/7 1134/7 1133/7
v -0.9682 0.0000 -0.1038
v -0.9610 0.0000 -0.1262
v -0.9800 0.0000 -0.1400
v -0.9990 0.0000 -0.1262
v -0.9918 0.0000 -0.1038
f 1141/7 1140/7 1139/7 1138/7 1137/7
v -0.9918 2.1000 -0.1038
v -0.9990 2.1000 -0.1262
v -0.9800 2.1000 -0.1400
v -0.9610 2.1000 -0.1262
v -0.9682 2.1000 -0.1038
f 1146/7 1145/7 1144/7 1143/7 1142/7
v -0.9918 0.0000 0.1362
v -0.9990 0.0000 0.1138
v -0.9990 2.1000 0.1138
v -0.9918 2.1000 0.1362
f 1150/7 1149/7 1148/7 1147/7
v -0.9990 0.0000 0.1138
v -0.9800 0.0000 0.1000
v -0.9800 2.1000 0.1000
v -0.9990 2.1000 0.1138
f 1154/7 1153/7 1152/7 1151/7
v -0.9800 0.0000 0.1000
v -0.9610 0.0000 0.1138
v -0.9610 2.1000 0.1138
v -0.9800 2.1000 0.1000
f 1158/7 1157/7 1156/7 1155/7
v -0.9610 0.0000 0.1138
v -0.9682 0.0000 0.1362
v -0.9682 2.1000 0.1362
v -0.9610 2.1000 0.1138
f 1162/7 1161/7 1160/7 1159/7
v -0.9682 0.0000 0.1362
v -0.9918 0.0000 0.1362
v -0.9918 2.1000 0.1362
v -0.9682 2.1000 0.1362
f 1166/7 1165/7 1164/7 1163/7
v -0.9682 0.0000 0.1362
v -0.9610 0.0000 0.1138
v -0.9800 0.0000 0.1000
v -0.9990 0.0000 0.1138
v -0.9918 0.0000 0.1362
f 1171/7 1170/7 1169/7 1168/7 1167/7
v -0.9918 2.1000 0.1362
v -0.9990 2.1000 0.1138
v -0.9800 2.1000 0.1000
v -0.9610 2.1000 0.1138
v -0.9682 2.1000 0.1362
f 1176/7 1175/7 1174/7 1173/7 1172/7
v -0.9650 0.1875 0.1200
v -0.9650 0.2125 0.1200
v -0.9650 0.2125 -0.1200
v -0.9650 0.1875 -0.1200
f 1180/7 1179/7 1178/7 1177/7
v -0.9950 0.1875 -0.1200
v -0.9950 0.2125 -0.1200
v -0.9950 0.2125 0.1200
v -0.9950 0.1875 0.1200
f 1184/7 1183/7 1182/7 1181/7
v -0.9650 0.1875 -0.1200
v -0.9950 0.1875 -0.1200
v -0.9950 0.1875 0.1200
v -0.9650 0.1875 0.1200
f 1188/7 1187/7 1186/7 1185/7
v -0.9650 0.2125 0.1200
v -0.9950 0.2125 0.1200
v -0.9950 0.2125 -0.1200
v -0.9650 0.2125 -0.1200
f 1192/7 1191/7 1190/7 1189/7
v -0.9650 0.2125 -0.1200
v -0.9950 0.2125 -0.1200
v -0.9950 0.1875 -0.1200
v -0.9650 0.1875 -0.1200
f 1196/7 1195/7 1194/7 1193/7
v -0.9650 0.1875 0.1200
v -0.9950 0.1875 0.1200
v -0.9950 0.2125 0.1200
v -0.9650 0.2125 0.1200
f 1200/7 1199/7 1198/7 1197/7
v -0.9650 0.3875 0.1200
v -0.9650 0.4125 0.1200
v -0.9650 0.4125 -0.1200
v -0.9650 0.3875 -0.1200
f 1204/7 1203/7 1202/7 1201/7
v -0.9950 0.3875 -0.1200
v -0.9950 0.4125 -0.1200
v -0.9950 0.4125 0.1200
v -0.9950 0.3875 0.1200
f 1208/7 1207/7 1206/7 1205/7
v -0.9650 0.3875 -0.1200
v -0.9950 0.3875 -0.1200
v -0.9950 0.3875 0.1200
v -0.9650 0.3875 0.1200
f 1212/7 1211/7 1210/7 1209/7
v -0.9650 0.4125 0.1200
v -0.9950 0.4125 0.1200
v -0.9950 0.4125 -0.1200
v -0.9650 0.4125 -0.1200
f 1216/7 1215/7 1214/7 1213/7
v -0.9650 0.4125 -0.1200
v -0.9950 0.4125 -0.1200
v -0.9950 0.3875 -0.1200
v -0.9650 0.3875 -0.1200
f 1220/7 1219/7 1218/7 1217/7
v -0.9650 0.3875 0.1200
v -0.9950 0.3875 0.1200
v -0.9950 0.4125 0.1200
v -0.9650 0.4125 0.1200
f 1224/7 1223/7 1222/7 1221/7
v -0.9650 0.5875 0.1200
v -0.9650 0.6125 0.1200
v -0.9650 0.6125 -0.1200
v -0.9650 0.5875 -0.1200
f 1228/7 1227/7 1226/7 1225/7
v -0.9950 0.5875 -0.1200
v -0.9950 0.6125 -0.1200
v -0.9950 0.6125 0.1200
v -0.9950 0.5875 0.1200
f 1232/7 1231/7 1230/7 1229/7
v -0.9650 0.5875 -0.1200
v -0.9950 0.5875 -0.1200
v -0.9950 0.5875 0.1200
v -0.9650 0.5875 0.1200
f 1236/7 1235/7 1234/7 1233/7
v -0.9650 0.6125 0.1200
v -0.9950 0.6125 0.1200
v -0.9950 0.6125 -0.1200
v -0.9650 0.6125 -0.1200
f 1240/7 1239/7 1238/7 1237/7
v -0.9650 0.6125 -0.1200
v -0.9950 0.6125 -0.1200
v -0.9950 0.5875 -0.1200
v -0.9650 0.5875 -0.1200
f 1244/7 1243/7 1242/7 1241/7
v -0.9650 0.5875 0.1200
v -0.9950 0.5875 0.1200
v -0.9950 0.6125 0.1200
v -0.9650 0.6125 0.1200
f 1248/7 1247/7 1246/7 1245/7
v -0.9650 0.7875 0.1200
v -0.9650 0.8125 0.1200
v -0.9650 0.8125 -0.1200
v -0.9650 0.7875 -0.1200
f 1252/7 1251/7 1250/7 1249/7
v -0.9950 0.7875 -0.1200
v -0.9950 0.8125 -0.1200
v -0.9950 0.8125 0.1200
v -0.9950 0.7875 0.1200
f 1256/7 1255/7 1254/7 1253/7
v -0.9650 0.7875 -0.1200
v -0.9950 0.7875 -0.1200
v -0.9950 0.7875 0.1200
v -0.9650 0.7875 0.1200
f 1260/7 1259/7 1258/7 1257/7
v -0.9650 0.8125 0.1200
v -0.9950 0.8125 0.1200
v -0.9950 0.8125 -0.1200
v -0.9650 0.8125 -0.1200
f 1264/7 1263/7 1262/7 1261/7
v -0.9650 0.8125 -0.1200
v -0.9950 0.8125 -0.1200
v -0.9950 0.7875 -0.1200
v -0.9650 0.7875 -0.1200
f 1268/7 1267/7 1266/7 1265/7
v -0.9650 0.7875 0.1200
v -0.9950 0.7875 0.1200
v -0.9950 0.8125 0.1200
v -0.9650 0.8125 0.1200
f 1272/7 1271/7 1270/7 1269/7
v -0.9650 0.9875 0.1200
v -0.9650 1.0125 0.1200
v -0.9650 1.0125 -0.1200
v -0.9650 0.9875 -0.1200
f 1276/7 1275/7 1274/7 1273/7
v -0.9950 0.9875 -0.1200
v -0.9950 1.0125 -0.1200
v -0.9950 1.0125 0.1200
v -0.9950 0.9875 0.1200
f 1280/7 1279/7 1278/7 1277/7
v -0.9650 0.9875 -0.1200
v -0.9950 0.9875 -0.1200
v -0.9950 0.9875 0.1200
v -0.9650 0.9875 0.1200
f 1284/7 1283/7 1282/7 1281/7
v -0.9650 1.0125 0.1200
v -0.9950 1.0125 0.1200
v -0.9950 1.0125 -0.1200
v -0.9650 1.0125 -0.1200
f 1288/7 1287/7 1286/7 1285/7
v -0.9650 1.0125 -0.1200
v -0.9950 1.0125 -0.1200
v -0.9950 0.9875 -0.1200
v -0.9650 0.9875 -0.1200
f 1292/7 1291/7 1290/7 1289/7
v -0.9650 0.9875 0.1200
v -0.9950 0.9875 0.1200
v -0.9950 1.0125 0.1200
v -0.9650 1.0125 0.1200
f 1296/7 1295/7 1294/7 1293/7
v -0.9650 1.1875 0.1200
v -0.9650 1.2125 0.1200
v -0.9650 1.2125 -0.1200
v -0.9650 1.1875 -0.1200
f 1300/7 1299/7 1298/7 1297/7
v -0.9950 1.1875 -0.1200
v -0.9950 1.2125 -0.1200
v -0.9950 1.2125 0.1200
v -0.9950 1.1875 0.1200
f 1304/7 1303/7 1302/7 1301/7
v -0.9650 1.1875 -0.1200
v -0.9950 1.1875 -0.1200
v -0.9950 1.1875 0.1200
v -0.9650 1.1875 0.1200
f 1308/7 1307/7 1306/7 1305/7
v -0.9650 1.2125 0.1200
v -0.9950 1.2125 0.1200
v -0.9950 1.2125 -0.1200
v -0.9650 1.2125 -0.1200
f 1312/7 1311/7 1310/7 1309/7
v -0.9650 1.2125 -0.1200
v -0.9950 1.2125 -0.1200
v -0.9950 1.1875 -0.1200
v -0.9650 1.1875 -0.1200
f 1316/7 1315/7 1314/7 1313/7
v -0.9650 1.1875 0.1200
v -0.9950 1.1875 0.1200
v -0.9950 1.2125 0.1200
v -0.9650 1.2125 0.1200
f 1320/7 1319/7 1318/7 1317/7
v -0.9650 1.3875 0.1200
v -0.9650 1.4125 0.1200
v -0.9650 1.4125 -0.1200
v -0.9650 1.3875 -0.1200
f 1324/7 1323/7 1322/7 1321/7
v -0.9950 1.3875 -0.1200
v -0.9950 1.4125 -0.1200
v -0.9950 1.4125 0.1200
v -0.9950 1.3875 0.1200
f 1328/7 1327/7 1326/7 1325/7
v -0.9650 1.3875 -0.1200
v -0.9950 1.3875 -0.1200
v -0.9950 1.3875 0.1200
v -0.9650 1.3875 0.1200
f 1332/7 1331/7 1330/7 1329/7
v -0.9650 1.4125 0.1200
v -0.9950 1.4125 0.1200
v -0.9950 1.4125 -0.1200
v -0.9650 1.4125 -0.1200
f 1336/7 1335/7 1334/7 1333/7
v -0.9650 1.4125 -0.1200
v -0.9950 1.4125 -0.1200
v -0.9950 1.3875 -0.1200
v -0.9650 1.3875 -0.1200
f 1340/7 1339/7 1338/7 1337/7
v -0.9650 1.3875 0.1200
v -0.9950 1.3875 0.1200
v -0.9950 1.4125 0.1200
v -0.9650 1.4125 0.1200
f 1344/7 1343/7 1342/7 1341/7
v -0.9650 1.5875 0.1200
v -0.9650 1.6125 0.1200
v -0.9650 1.6125 -0.1200
v -0.9650 1.5875 -0.1200
f 1348/7 1347/7 1346/7 1345/7
v -0.9950 1.5875 -0.1200
v -0.9950 1.6125 -0.1200
v -0.9950 1.6125 0.1200
v -0.9950 1.5875 0.1200
f 1352/7 1351/7 1350/7 1349/7
v -0.9650 1.5875 -0.1200
v -0.9950 1.5875 -0.1200
v -0.9950 1.5875 0.1200
v -0.9650 1.5875 0.1200
f 1356/7 1355/7 1354/7 1353/7
v -0.9650 1.6125 0.1200
v -0.9950 1.6125 0.1200
v -0.9950 1.6125 -0.1200
v -0.9650 1.6125 -0.1200
f 1360/7 1359/7 1358/7 1357/7
v -0.9650 1.6125 -0.1200
v -0.9950 1.6125 -0.1200
v -0.9950 1.5875 -0.1200
v -0.9650 1.5875 -0.1200
f 1364/7 1363/7 1362/7 1361/7
v -0.9650 1.5875 0.1200
v -0.9950 1.5875 0.1200
v -0.9950 1.6125 0.1200
v -0.9650 1.6125 0.1200
f 1368/7 1367/7 1366/7 1365/7
v -0.9650 1.7875 0.1200
v -0.9650 1.8125 0.1200
v -0.9650 1.8125 -0.1200
v -0.9650 1.7875 -0.1200
f 1372/7 1371/7 1370/7 1369/7
v -0.9950 1.7875 -0.1200
v -0.9950 1.8125 -0.1200
v -0.9950 1.8125 0.1200
v -0.9950 1.7875 0.1200
f 1376/7 1375/7 1374/7 1373/7
v -0.9650 1.7875 -0.1200
v -0.9950 1.7875 -0.1200
v -0.9950 1.7875 0.1200
v -0.9650 1.7875 0.1200
f 1380/7 1379/7 1378/7 1377/7
v -0.9650 1.8125 0.1200
v -0.9950 1.8125 0.1200
v -0.9950 1.8125 -0.1200
v -0.9650 1.8125 -0.1200
f 1384/7 1383/7 1382/7 1381/7
v -0.9650 1.8125 -0.1200
v -0.9950 1.8125 -0.1200
v -0.9950 1.7875 -0.1200
v -0.9650 1.7875 -0.1200
f 1388/7 1387/7 1386/7 1385/7
v -0.9650 1.7875 0.1200
v -0.9950 1.7875 0.1200
v -0.9950 1.8125 0.1200
v -0.9650 1.8125 0.1200
f 1392/7 1391/7 1390/7 1389/7
v -0.9650 1.9875 0.1200
v -0.9650 2.0125 0.1200
v -0.9650 2.0125 -0.1200
v -0.9650 1.9875 -0.1200
f 1396/7 1395/7 1394/7 1393/7
v -0.9950 1.9875 -0.1200
v -0.9950 2.0125 -0.1200
v -0.9950 2.0125 0.1200
v -0.9950 1.9875 0.1200
f 1400/7 1399/7 1398/7 1397/7
v -0.9650 1.9875 -0.1200
v -0.9950 1.9875 -0.1200
v -0.9950 1.9875 0.1200
v -0.9650 1.9875 0.1200
f 1404/7 1403/7 1402/7 1401/7
v -0.9650 2.0125 0.1200
v -0.9950 2.0125 0.1200
v -0.9950 2.0125 -0.1200
v -0.9650 2.0125 -0.1200
f 1408/7 1407/7 1406/7 1405/7
v -0.9650 2.0125 -0.1200
v -0.9950 2.0125 -0.1200
v -0.9950 1.9875 -0.1200
v -0.9650 1.9875 -0.1200
f 1412/7 1411/7 1410/7 1409/7
v -0.9650 1.9875 0.1200
v -0.9950 1.9875 0.1200
v -0.9950 2.0125 0.1200
v -0.9650 2.0125 0.1200
f 1416/7 1415/7 1414/7 1413/7
v 0.7000 1.2500 0.1500
v 0.7000 1.5500 0.1500
v 0.7000 1.5500 -0.1500
v 0.7000 1.2500 -0.1500
f 1420/9 1419/9 1418/9 1417/9
v 0.3000 1.2500 -0.1500
v 0.3000 1.5500 -0.1500
v 0.3000 1.5500 0.1500
v 0.3000 1.2500 0.1500
f 1424/9 1423/9 1422/9 1421/9
v 0.7000 1.2500 -0.1500
v 0.3000 1.2500 -0.1500
v 0.3000 1.2500 0.1500
v 0.7000 1.2500 0.1500
f 1428/9 1427/9 1426/9 1425/9
v 0.7000 1.5500 0.1500
v 0.3000 1.5500 0.1500
v 0.3000 1.5500 -0.1500
v 0.7000 1.5500 -0.1500
f 1432/9 1431/9 1430/9 1429/9
v 0.7000 1.5500 -0.1500
v 0.3000 1.5500 -0.1500
v 0.3000 1.2500 -0.1500
v 0.7000 1.2500 -0.1500
f 1436/9 1435/9 1434/9 1433/9
v 0.7000 1.2500 0.1500
v 0.3000 1.2500 0.1500
v 0.3000 1.5500 0.1500
v 0.7000 1.5500 0.1500
f 1440/9 1439/9 1438/9 1437/9
