# Walk of Industry low-poly (generated, wi_lib.py)
mtllib wi.mtl
vt 0 0
o Body
usemtl wi_base
v 0.4800 0.0000 0.4800
v 0.4800 0.0800 0.4800
v 0.4800 0.0800 -0.4800
v 0.4800 0.0000 -0.4800
f 4/1 3/1 2/1 1/1
v -0.4800 0.0000 -0.4800
v -0.4800 0.0800 -0.4800
v -0.4800 0.0800 0.4800
v -0.4800 0.0000 0.4800
f 8/1 7/1 6/1 5/1
v 0.4800 0.0000 -0.4800
v -0.4800 0.0000 -0.4800
v -0.4800 0.0000 0.4800
v 0.4800 0.0000 0.4800
f 12/1 11/1 10/1 9/1
v 0.4800 0.0800 0.4800
v -0.4800 0.0800 0.4800
v -0.4800 0.0800 -0.4800
v 0.4800 0.0800 -0.4800
f 16/1 15/1 14/1 13/1
v 0.4800 0.0800 -0.4800
v -0.4800 0.0800 -0.4800
v -0.4800 0.0000 -0.4800
v 0.4800 0.0000 -0.4800
f 20/1 19/1 18/1 17/1
v 0.4800 0.0000 0.4800
v -0.4800 0.0000 0.4800
v -0.4800 0.0800 0.4800
v 0.4800 0.0800 0.4800
f 24/1 23/1 22/1 21/1
usemtl wi_teal
v 0.4100 0.0800 0.4100
v 0.4100 0.7000 0.4100
v 0.4100 0.7000 -0.4100
v 0.4100 0.0800 -0.4100
f 28/1 27/1 26/1 25/1
v -0.4100 0.0800 -0.4100
v -0.4100 0.7000 -0.4100
v -0.4100 0.7000 0.4100
v -0.4100 0.0800 0.4100
f 32/1 31/1 30/1 29/1
v 0.4100 0.0800 -0.4100
v -0.4100 0.0800 -0.4100
v -0.4100 0.0800 0.4100
v 0.4100 0.0800 0.4100
f 36/1 35/1 34/1 33/1
v 0.4100 0.7000 0.4100
v -0.4100 0.7000 0.4100
v -0.4100 0.7000 -0.4100
v 0.4100 0.7000 -0.4100
f 40/1 39/1 38/1 37/1
v 0.4100 0.7000 -0.4100
v -0.4100 0.7000 -0.4100
v -0.4100 0.0800 -0.4100
v 0.4100 0.0800 -0.4100
f 44/1 43/1 42/1 41/1
v 0.4100 0.0800 0.4100
v -0.4100 0.0800 0.4100
v -0.4100 0.7000 0.4100
v 0.4100 0.7000 0.4100
f 48/1 47/1 46/1 45/1
usemtl wi_copper
v 0.4300 0.7000 0.4300
v 0.4300 0.7600 0.4300
v 0.4300 0.7600 -0.4300
v 0.4300 0.7000 -0.4300
f 52/1 51/1 50/1 49/1
v -0.4300 0.7000 -0.4300
v -0.4300 0.7600 -0.4300
v -0.4300 0.7600 0.4300
v -0.4300 0.7000 0.4300
f 56/1 55/1 54/1 53/1
v 0.4300 0.7000 -0.4300
v -0.4300 0.7000 -0.4300
v -0.4300 0.7000 0.4300
v 0.4300 0.7000 0.4300
f 60/1 59/1 58/1 57/1
v 0.4300 0.7600 0.4300
v -0.4300 0.7600 0.4300
v -0.4300 0.7600 -0.4300
v 0.4300 0.7600 -0.4300
f 64/1 63/1 62/1 61/1
v 0.4300 0.7600 -0.4300
v -0.4300 0.7600 -0.4300
v -0.4300 0.7000 -0.4300
v 0.4300 0.7000 -0.4300
f 68/1 67/1 66/1 65/1
v 0.4300 0.7000 0.4300
v -0.4300 0.7000 0.4300
v -0.4300 0.7600 0.4300
v 0.4300 0.7600 0.4300
f 72/1 71/1 70/1 69/1
usemtl wi_glass
v -0.4070 0.3210 0.2600
v -0.4070 0.5210 0.2600
v -0.4070 0.5210 -0.1000
v -0.4070 0.3210 -0.1000
f 76/1 75/1 74/1 73/1
v -0.4170 0.3210 -0.1000
v -0.4170 0.5210 -0.1000
v -0.4170 0.5210 0.2600
v -0.4170 0.3210 0.2600
f 80/1 79/1 78/1 77/1
v -0.4070 0.3210 -0.1000
v -0.4170 0.3210 -0.1000
v -0.4170 0.3210 0.2600
v -0.4070 0.3210 0.2600
f 84/1 83/1 82/1 81/1
v -0.4070 0.5210 0.2600
v -0.4170 0.5210 0.2600
v -0.4170 0.5210 -0.1000
v -0.4070 0.5210 -0.1000
f 88/1 87/1 86/1 85/1
v -0.4070 0.5210 -0.1000
v -0.4170 0.5210 -0.1000
v -0.4170 0.3210 -0.1000
v -0.4070 0.3210 -0.1000
f 92/1 91/1 90/1 89/1
v -0.4070 0.3210 0.2600
v -0.4170 0.3210 0.2600
v -0.4170 0.5210 0.2600
v -0.4070 0.5210 0.2600
f 96/1 95/1 94/1 93/1
usemtl wi_dark
v 0.3600 0.7300 0.0300
v 0.3600 1.0700 0.0300
v 0.3600 1.0700 -0.0300
v 0.3600 0.7300 -0.0300
f 100/1 99/1 98/1 97/1
v 0.3000 0.7300 -0.0300
v 0.3000 1.0700 -0.0300
v 0.3000 1.0700 0.0300
v 0.3000 0.7300 0.0300
f 104/1 103/1 102/1 101/1
v 0.3600 0.7300 -0.0300
v 0.3000 0.7300 -0.0300
v 0.3000 0.7300 0.0300
v 0.3600 0.7300 0.0300
f 108/1 107/1 106/1 105/1
v 0.3600 1.0700 0.0300
v 0.3000 1.0700 0.0300
v 0.3000 1.0700 -0.0300
v 0.3600 1.0700 -0.0300
f 112/1 111/1 110/1 109/1
v 0.3600 1.0700 -0.0300
v 0.3000 1.0700 -0.0300
v 0.3000 0.7300 -0.0300
v 0.3600 0.7300 -0.0300
f 116/1 115/1 114/1 113/1
v 0.3600 0.7300 0.0300
v 0.3000 0.7300 0.0300
v 0.3000 1.0700 0.0300
v 0.3600 1.0700 0.0300
f 120/1 119/1 118/1 117/1
v -0.3000 0.7300 0.0300
v -0.3000 1.0700 0.0300
v -0.3000 1.0700 -0.0300
v -0.3000 0.7300 -0.0300
f 124/1 123/1 122/1 121/1
v -0.3600 0.7300 -0.0300
v -0.3600 1.0700 -0.0300
v -0.3600 1.0700 0.0300
v -0.3600 0.7300 0.0300
f 128/1 127/1 126/1 125/1
v -0.3000 0.7300 -0.0300
v -0.3600 0.7300 -0.0300
v -0.3600 0.7300 0.0300
v -0.3000 0.7300 0.0300
f 132/1 131/1 130/1 129/1
v -0.3000 1.0700 0.0300
v -0.3600 1.0700 0.0300
v -0.3600 1.0700 -0.0300
v -0.3000 1.0700 -0.0300
f 136/1 135/1 134/1 133/1
v -0.3000 1.0700 -0.0300
v -0.3600 1.0700 -0.0300
v -0.3600 0.7300 -0.0300
v -0.3000 0.7300 -0.0300
f 140/1 139/1 138/1 137/1
v -0.3000 0.7300 0.0300
v -0.3600 0.7300 0.0300
v -0.3600 1.0700 0.0300
v -0.3000 1.0700 0.0300
f 144/1 143/1 142/1 141/1
v 0.3600 1.0500 0.0400
v 0.3600 1.1100 0.0400
v 0.3600 1.1100 -0.0400
v 0.3600 1.0500 -0.0400
f 148/1 147/1 146/1 145/1
v -0.3600 1.0500 -0.0400
v -0.3600 1.1100 -0.0400
v -0.3600 1.1100 0.0400
v -0.3600 1.0500 0.0400
f 152/1 151/1 150/1 149/1
v 0.3600 1.0500 -0.0400
v -0.3600 1.0500 -0.0400
v -0.3600 1.0500 0.0400
v 0.3600 1.0500 0.0400
f 156/1 155/1 154/1 153/1
v 0.3600 1.1100 0.0400
v -0.3600 1.1100 0.0400
v -0.3600 1.1100 -0.0400
v 0.3600 1.1100 -0.0400
f 160/1 159/1 158/1 157/1
v 0.3600 1.1100 -0.0400
v -0.3600 1.1100 -0.0400
v -0.3600 1.0500 -0.0400
v 0.3600 1.0500 -0.0400
f 164/1 163/1 162/1 161/1
v 0.3600 1.0500 0.0400
v -0.3600 1.0500 0.0400
v -0.3600 1.1100 0.0400
v 0.3600 1.1100 0.0400
f 168/1 167/1 166/1 165/1
usemtl wi_yellow
v 0.4000 0.1700 0.4210
v 0.4000 0.2300 0.4210
v 0.4000 0.2300 0.4090
v 0.4000 0.1700 0.4090
f 172/1 171/1 170/1 169/1
v 0.2667 0.1700 0.4090
v 0.2667 0.2300 0.4090
v 0.2667 0.2300 0.4210
v 0.2667 0.1700 0.4210
f 176/1 175/1 174/1 173/1
v 0.4000 0.1700 0.4090
v 0.2667 0.1700 0.4090
v 0.2667 0.1700 0.4210
v 0.4000 0.1700 0.4210
f 180/1 179/1 178/1 177/1
v 0.4000 0.2300 0.4210
v 0.2667 0.2300 0.4210
v 0.2667 0.2300 0.4090
v 0.4000 0.2300 0.4090
f 184/1 183/1 182/1 181/1
v 0.4000 0.2300 0.4090
v 0.2667 0.2300 0.4090
v 0.2667 0.1700 0.4090
v 0.4000 0.1700 0.4090
f 188/1 187/1 186/1 185/1
v 0.4000 0.1700 0.4210
v 0.2667 0.1700 0.4210
v 0.2667 0.2300 0.4210
v 0.4000 0.2300 0.4210
f 192/1 191/1 190/1 189/1
usemtl wi_dark
v 0.2667 0.1700 0.4210
v 0.2667 0.2300 0.4210
v 0.2667 0.2300 0.4090
v 0.2667 0.1700 0.4090
f 196/1 195/1 194/1 193/1
v 0.1333 0.1700 0.4090
v 0.1333 0.2300 0.4090
v 0.1333 0.2300 0.4210
v 0.1333 0.1700 0.4210
f 200/1 199/1 198/1 197/1
v 0.2667 0.1700 0.4090
v 0.1333 0.1700 0.4090
v 0.1333 0.1700 0.4210
v 0.2667 0.1700 0.4210
f 204/1 203/1 202/1 201/1
v 0.2667 0.2300 0.4210
v 0.1333 0.2300 0.4210
v 0.1333 0.2300 0.4090
v 0.2667 0.2300 0.4090
f 208/1 207/1 206/1 205/1
v 0.2667 0.2300 0.4090
v 0.1333 0.2300 0.4090
v 0.1333 0.1700 0.4090
v 0.2667 0.1700 0.4090
f 212/1 211/1 210/1 209/1
v 0.2667 0.1700 0.4210
v 0.1333 0.1700 0.4210
v 0.1333 0.2300 0.4210
v 0.2667 0.2300 0.4210
f 216/1 215/1 214/1 213/1
usemtl wi_yellow
v 0.1333 0.1700 0.4210
v 0.1333 0.2300 0.4210
v 0.1333 0.2300 0.4090
v 0.1333 0.1700 0.4090
f 220/1 219/1 218/1 217/1
v 0.0000 0.1700 0.4090
v 0.0000 0.2300 0.4090
v 0.0000 0.2300 0.4210
v 0.0000 0.1700 0.4210
f 224/1 223/1 222/1 221/1
v 0.1333 0.1700 0.4090
v 0.0000 0.1700 0.4090
v 0.0000 0.1700 0.4210
v 0.1333 0.1700 0.4210
f 228/1 227/1 226/1 225/1
v 0.1333 0.2300 0.4210
v 0.0000 0.2300 0.4210
v 0.0000 0.2300 0.4090
v 0.1333 0.2300 0.4090
f 232/1 231/1 230/1 229/1
v 0.1333 0.2300 0.4090
v 0.0000 0.2300 0.4090
v 0.0000 0.1700 0.4090
v 0.1333 0.1700 0.4090
f 236/1 235/1 234/1 233/1
v 0.1333 0.1700 0.4210
v 0.0000 0.1700 0.4210
v 0.0000 0.2300 0.4210
v 0.1333 0.2300 0.4210
f 240/1 239/1 238/1 237/1
usemtl wi_dark
v 0.0000 0.1700 0.4210
v 0.0000 0.2300 0.4210
v 0.0000 0.2300 0.4090
v 0.0000 0.1700 0.4090
f 244/1 243/1 242/1 241/1
v -0.1333 0.1700 0.4090
v -0.1333 0.2300 0.4090
v -0.1333 0.2300 0.4210
v -0.1333 0.1700 0.4210
f 248/1 247/1 246/1 245/1
v 0.0000 0.1700 0.4090
v -0.1333 0.1700 0.4090
v -0.1333 0.1700 0.4210
v 0.0000 0.1700 0.4210
f 252/1 251/1 250/1 249/1
v 0.0000 0.2300 0.4210
v -0.1333 0.2300 0.4210
v -0.1333 0.2300 0.4090
v 0.0000 0.2300 0.4090
f 256/1 255/1 254/1 253/1
v 0.0000 0.2300 0.4090
v -0.1333 0.2300 0.4090
v -0.1333 0.1700 0.4090
v 0.0000 0.1700 0.4090
f 260/1 259/1 258/1 257/1
v 0.0000 0.1700 0.4210
v -0.1333 0.1700 0.4210
v -0.1333 0.2300 0.4210
v 0.0000 0.2300 0.4210
f 264/1 263/1 262/1 261/1
usemtl wi_yellow
v -0.1333 0.1700 0.4210
v -0.1333 0.2300 0.4210
v -0.1333 0.2300 0.4090
v -0.1333 0.1700 0.4090
f 268/1 267/1 266/1 265/1
v -0.2667 0.1700 0.4090
v -0.2667 0.2300 0.4090
v -0.2667 0.2300 0.4210
v -0.2667 0.1700 0.4210
f 272/1 271/1 270/1 269/1
v -0.1333 0.1700 0.4090
v -0.2667 0.1700 0.4090
v -0.2667 0.1700 0.4210
v -0.1333 0.1700 0.4210
f 276/1 275/1 274/1 273/1
v -0.1333 0.2300 0.4210
v -0.2667 0.2300 0.4210
v -0.2667 0.2300 0.4090
v -0.1333 0.2300 0.4090
f 280/1 279/1 278/1 277/1
v -0.1333 0.2300 0.4090
v -0.2667 0.2300 0.4090
v -0.2667 0.1700 0.4090
v -0.1333 0.1700 0.4090
f 284/1 283/1 282/1 281/1
v -0.1333 0.1700 0.4210
v -0.2667 0.1700 0.4210
v -0.2667 0.2300 0.4210
v -0.1333 0.2300 0.4210
f 288/1 287/1 286/1 285/1
usemtl wi_dark
v -0.2667 0.1700 0.4210
v -0.2667 0.2300 0.4210
v -0.2667 0.2300 0.4090
v -0.2667 0.1700 0.4090
f 292/1 291/1 290/1 289/1
v -0.4000 0.1700 0.4090
v -0.4000 0.2300 0.4090
v -0.4000 0.2300 0.4210
v -0.4000 0.1700 0.4210
f 296/1 295/1 294/1 293/1
v -0.2667 0.1700 0.4090
v -0.4000 0.1700 0.4090
v -0.4000 0.1700 0.4210
v -0.2667 0.1700 0.4210
f 300/1 299/1 298/1 297/1
v -0.2667 0.2300 0.4210
v -0.4000 0.2300 0.4210
v -0.4000 0.2300 0.4090
v -0.2667 0.2300 0.4090
f 304/1 303/1 302/1 301/1
v -0.2667 0.2300 0.4090
v -0.4000 0.2300 0.4090
v -0.4000 0.1700 0.4090
v -0.2667 0.1700 0.4090
f 308/1 307/1 306/1 305/1
v -0.2667 0.1700 0.4210
v -0.4000 0.1700 0.4210
v -0.4000 0.2300 0.4210
v -0.2667 0.2300 0.4210
f 312/1 311/1 310/1 309/1
usemtl wi_copper
v 0.4350 0.0800 -0.3850
v 0.4350 0.7000 -0.3850
v 0.4350 0.7000 -0.4350
v 0.4350 0.0800 -0.4350
f 316/1 315/1 314/1 313/1
v 0.3850 0.0800 -0.4350
v 0.3850 0.7000 -0.4350
v 0.3850 0.7000 -0.3850
v 0.3850 0.0800 -0.3850
f 320/1 319/1 318/1 317/1
v 0.4350 0.0800 -0.4350
v 0.3850 0.0800 -0.4350
v 0.3850 0.0800 -0.3850
v 0.4350 0.0800 -0.3850
f 324/1 323/1 322/1 321/1
v 0.4350 0.7000 -0.3850
v 0.3850 0.7000 -0.3850
v 0.3850 0.7000 -0.4350
v 0.4350 0.7000 -0.4350
f 328/1 327/1 326/1 325/1
v 0.4350 0.7000 -0.4350
v 0.3850 0.7000 -0.4350
v 0.3850 0.0800 -0.4350
v 0.4350 0.0800 -0.4350
f 332/1 331/1 330/1 329/1
v 0.4350 0.0800 -0.3850
v 0.3850 0.0800 -0.3850
v 0.3850 0.7000 -0.3850
v 0.4350 0.7000 -0.3850
f 336/1 335/1 334/1 333/1
v 0.4350 0.0800 0.4350
v 0.4350 0.7000 0.4350
v 0.4350 0.7000 0.3850
v 0.4350 0.0800 0.3850
f 340/1 339/1 338/1 337/1
v 0.3850 0.0800 0.3850
v 0.3850 0.7000 0.3850
v 0.3850 0.7000 0.4350
v 0.3850 0.0800 0.4350
f 344/1 343/1 342/1 341/1
v 0.4350 0.0800 0.3850
v 0.3850 0.0800 0.3850
v 0.3850 0.0800 0.4350
v 0.4350 0.0800 0.4350
f 348/1 347/1 346/1 345/1
v 0.4350 0.7000 0.4350
v 0.3850 0.7000 0.4350
v 0.3850 0.7000 0.3850
v 0.4350 0.7000 0.3850
f 352/1 351/1 350/1 349/1
v 0.4350 0.7000 0.3850
v 0.3850 0.7000 0.3850
v 0.3850 0.0800 0.3850
v 0.4350 0.0800 0.3850
f 356/1 355/1 354/1 353/1
v 0.4350 0.0800 0.4350
v 0.3850 0.0800 0.4350
v 0.3850 0.7000 0.4350
v 0.4350 0.7000 0.4350
f 360/1 359/1 358/1 357/1
v -0.3850 0.0800 -0.3850
v -0.3850 0.7000 -0.3850
v -0.3850 0.7000 -0.4350
v -0.3850 0.0800 -0.4350
f 364/1 363/1 362/1 361/1
v -0.4350 0.0800 -0.4350
v -0.4350 0.7000 -0.4350
v -0.4350 0.7000 -0.3850
v -0.4350 0.0800 -0.3850
f 368/1 367/1 366/1 365/1
v -0.3850 0.0800 -0.4350
v -0.4350 0.0800 -0.4350
v -0.4350 0.0800 -0.3850
v -0.3850 0.0800 -0.3850
f 372/1 371/1 370/1 369/1
v -0.3850 0.7000 -0.3850
v -0.4350 0.7000 -0.3850
v -0.4350 0.7000 -0.4350
v -0.3850 0.7000 -0.4350
f 376/1 375/1 374/1 373/1
v -0.3850 0.7000 -0.4350
v -0.4350 0.7000 -0.4350
v -0.4350 0.0800 -0.4350
v -0.3850 0.0800 -0.4350
f 380/1 379/1 378/1 377/1
v -0.3850 0.0800 -0.3850
v -0.4350 0.0800 -0.3850
v -0.4350 0.7000 -0.3850
v -0.3850 0.7000 -0.3850
f 384/1 383/1 382/1 381/1
v -0.3850 0.0800 0.4350
v -0.3850 0.7000 0.4350
v -0.3850 0.7000 0.3850
v -0.3850 0.0800 0.3850
f 388/1 387/1 386/1 385/1
v -0.4350 0.0800 0.3850
v -0.4350 0.7000 0.3850
v -0.4350 0.7000 0.4350
v -0.4350 0.0800 0.4350
f 392/1 391/1 390/1 389/1
v -0.3850 0.0800 0.3850
v -0.4350 0.0800 0.3850
v -0.4350 0.0800 0.4350
v -0.3850 0.0800 0.4350
f 396/1 395/1 394/1 393/1
v -0.3850 0.7000 0.4350
v -0.4350 0.7000 0.4350
v -0.4350 0.7000 0.3850
v -0.3850 0.7000 0.3850
f 400/1 399/1 398/1 397/1
v -0.3850 0.7000 0.3850
v -0.4350 0.7000 0.3850
v -0.4350 0.0800 0.3850
v -0.3850 0.0800 0.3850
f 404/1 403/1 402/1 401/1
v -0.3850 0.0800 0.4350
v -0.4350 0.0800 0.4350
v -0.4350 0.7000 0.4350
v -0.3850 0.7000 0.4350
f 408/1 407/1 406/1 405/1
usemtl wi_dark
v 0.3600 1.0500 0.2900
v 0.3600 1.1100 0.2900
v 0.3600 1.1100 0.2100
v 0.3600 1.0500 0.2100
f 412/1 411/1 410/1 409/1
v -0.3600 1.0500 0.2100
v -0.3600 1.1100 0.2100
v -0.3600 1.1100 0.2900
v -0.3600 1.0500 0.2900
f 416/1 415/1 414/1 413/1
v 0.3600 1.0500 0.2100
v -0.3600 1.0500 0.2100
v -0.3600 1.0500 0.2900
v 0.3600 1.0500 0.2900
f 420/1 419/1 418/1 417/1
v 0.3600 1.1100 0.2900
v -0.3600 1.1100 0.2900
v -0.3600 1.1100 0.2100
v 0.3600 1.1100 0.2100
f 424/1 423/1 422/1 421/1
v 0.3600 1.1100 0.2100
v -0.3600 1.1100 0.2100
v -0.3600 1.0500 0.2100
v 0.3600 1.0500 0.2100
f 428/1 427/1 426/1 425/1
v 0.3600 1.0500 0.2900
v -0.3600 1.0500 0.2900
v -0.3600 1.1100 0.2900
v 0.3600 1.1100 0.2900
f 432/1 431/1 430/1 429/1
usemtl wi_steel
v 0.2925 0.7600 -0.2870
v 0.2850 0.7600 -0.3000
v 0.2850 1.2000 -0.3000
v 0.2925 1.2000 -0.2870
f 436/1 435/1 434/1 433/1
v 0.2850 0.7600 -0.3000
v 0.2925 0.7600 -0.3130
v 0.2925 1.2000 -0.3130
v 0.2850 1.2000 -0.3000
f 440/1 439/1 438/1 437/1
v 0.2925 0.7600 -0.3130
v 0.3075 0.7600 -0.3130
v 0.3075 1.2000 -0.3130
v 0.2925 1.2000 -0.3130
f 444/1 443/1 442/1 441/1
v 0.3075 0.7600 -0.3130
v 0.3150 0.7600 -0.3000
v 0.3150 1.2000 -0.3000
v 0.3075 1.2000 -0.3130
f 448/1 447/1 446/1 445/1
v 0.3150 0.7600 -0.3000
v 0.3075 0.7600 -0.2870
v 0.3075 1.2000 -0.2870
v 0.3150 1.2000 -0.3000
f 452/1 451/1 450/1 449/1
v 0.3075 0.7600 -0.2870
v 0.2925 0.7600 -0.2870
v 0.2925 1.2000 -0.2870
v 0.3075 1.2000 -0.2870
f 456/1 455/1 454/1 453/1
v 0.3075 0.7600 -0.2870
v 0.3150 0.7600 -0.3000
v 0.3075 0.7600 -0.3130
v 0.2925 0.7600 -0.3130
v 0.2850 0.7600 -0.3000
v 0.2925 0.7600 -0.2870
f 462/1 461/1 460/1 459/1 458/1 457/1
v 0.2925 1.2000 -0.2870
v 0.2850 1.2000 -0.3000
v 0.2925 1.2000 -0.3130
v 0.3075 1.2000 -0.3130
v 0.3150 1.2000 -0.3000
v 0.3075 1.2000 -0.2870
f 468/1 467/1 466/1 465/1 464/1 463/1
o Lamp
usemtl wi_lamp
v 0.3300 0.7500 0.3300
v 0.3300 0.8100 0.3300
v 0.3300 0.8100 0.2700
v 0.3300 0.7500 0.2700
f 472/1 471/1 470/1 469/1
v 0.2700 0.7500 0.2700
v 0.2700 0.8100 0.2700
v 0.2700 0.8100 0.3300
v 0.2700 0.7500 0.3300
f 476/1 475/1 474/1 473/1
v 0.3300 0.7500 0.2700
v 0.2700 0.7500 0.2700
v 0.2700 0.7500 0.3300
v 0.3300 0.7500 0.3300
f 480/1 479/1 478/1 477/1
v 0.3300 0.8100 0.3300
v 0.2700 0.8100 0.3300
v 0.2700 0.8100 0.2700
v 0.3300 0.8100 0.2700
f 484/1 483/1 482/1 481/1
v 0.3300 0.8100 0.2700
v 0.2700 0.8100 0.2700
v 0.2700 0.7500 0.2700
v 0.3300 0.7500 0.2700
f 488/1 487/1 486/1 485/1
v 0.3300 0.7500 0.3300
v 0.2700 0.7500 0.3300
v 0.2700 0.8100 0.3300
v 0.3300 0.8100 0.3300
f 492/1 491/1 490/1 489/1
v 0.3250 1.1950 -0.2750
v 0.3250 1.2450 -0.2750
v 0.3250 1.2450 -0.3250
v 0.3250 1.1950 -0.3250
f 496/1 495/1 494/1 493/1
v 0.2750 1.1950 -0.3250
v 0.2750 1.2450 -0.3250
v 0.2750 1.2450 -0.2750
v 0.2750 1.1950 -0.2750
f 500/1 499/1 498/1 497/1
v 0.3250 1.1950 -0.3250
v 0.2750 1.1950 -0.3250
v 0.2750 1.1950 -0.2750
v 0.3250 1.1950 -0.2750
f 504/1 503/1 502/1 501/1
v 0.3250 1.2450 -0.2750
v 0.2750 1.2450 -0.2750
v 0.2750 1.2450 -0.3250
v 0.3250 1.2450 -0.3250
f 508/1 507/1 506/1 505/1
v 0.3250 1.2450 -0.3250
v 0.2750 1.2450 -0.3250
v 0.2750 1.1950 -0.3250
v 0.3250 1.1950 -0.3250
f 512/1 511/1 510/1 509/1
v 0.3250 1.1950 -0.2750
v 0.2750 1.1950 -0.2750
v 0.2750 1.2450 -0.2750
v 0.3250 1.2450 -0.2750
f 516/1 515/1 514/1 513/1
