# Walk of Industry low-poly (generated, wi_lib.py)
mtllib wi.mtl
vt 0 0
o Belt
usemtl wi_rubber
v 0.5000 0.1300 0.4050
v 0.5000 0.1300 -0.4050
v 0.3234 0.1300 -0.3876
v 0.4815 0.1300 0.4068
f 4/1 3/1 2/1 1/1
v 0.4815 0.1800 0.4068
vt 1.0000 0.0982
v 0.3234 0.1800 -0.3876
vt 1.0000 0.0982
v 0.5000 0.1800 -0.4050
vt 1.0000 0.0000
v 0.5000 0.1800 0.4050
vt 1.0000 0.0000
f 8/5 7/4 6/3 5/2
v 0.5000 0.1800 0.4050
v 0.5000 0.1800 -0.4050
v 0.5000 0.1300 -0.4050
v 0.5000 0.1300 0.4050
f 12/1 11/1 10/1 9/1
v 0.5000 0.1800 -0.4050
v 0.3234 0.1800 -0.3876
v 0.3234 0.1300 -0.3876
v 0.5000 0.1300 -0.4050
f 16/1 15/1 14/1 13/1
v 0.3234 0.1800 -0.3876
v 0.4815 0.1800 0.4068
v 0.4815 0.1300 0.4068
v 0.3234 0.1300 -0.3876
f 20/1 19/1 18/1 17/1
v 0.4815 0.1800 0.4068
v 0.5000 0.1800 0.4050
v 0.5000 0.1300 0.4050
v 0.4815 0.1300 0.4068
f 24/1 23/1 22/1 21/1
v 0.4815 0.1300 0.4068
v 0.3234 0.1300 -0.3876
v 0.1537 0.1300 -0.3361
v 0.4636 0.1300 0.4122
f 28/1 27/1 26/1 25/1
v 0.4636 0.1800 0.4122
vt 1.0000 0.1963
v 0.1537 0.1800 -0.3361
vt 1.0000 0.1963
v 0.3234 0.1800 -0.3876
vt 1.0000 0.0982
v 0.4815 0.1800 0.4068
vt 1.0000 0.0982
f 32/9 31/8 30/7 29/6
v 0.4815 0.1800 0.4068
v 0.3234 0.1800 -0.3876
v 0.3234 0.1300 -0.3876
v 0.4815 0.1300 0.4068
f 36/1 35/1 34/1 33/1
v 0.3234 0.1800 -0.3876
v 0.1537 0.1800 -0.3361
v 0.1537 0.1300 -0.3361
v 0.3234 0.1300 -0.3876
f 40/1 39/1 38/1 37/1
v 0.1537 0.1800 -0.3361
v 0.4636 0.1800 0.4122
v 0.4636 0.1300 0.4122
v 0.1537 0.1300 -0.3361
f 44/1 43/1 42/1 41/1
v 0.4636 0.1800 0.4122
v 0.4815 0.1800 0.4068
v 0.4815 0.1300 0.4068
v 0.4636 0.1300 0.4122
f 48/1 47/1 46/1 45/1
v 0.4636 0.1300 0.4122
v 0.1537 0.1300 -0.3361
v -0.0028 0.1300 -0.2525
v 0.4472 0.1300 0.4210
f 52/1 51/1 50/1 49/1
v 0.4472 0.1800 0.4210
vt 1.0000 0.2945
v -0.0028 0.1800 -0.2525
vt 1.0000 0.2945
v 0.1537 0.1800 -0.3361
vt 1.0000 0.1963
v 0.4636 0.1800 0.4122
vt 1.0000 0.1963
f 56/13 55/12 54/11 53/10
v 0.4636 0.1800 0.4122
v 0.1537 0.1800 -0.3361
v 0.1537 0.1300 -0.3361
v 0.4636 0.1300 0.4122
f 60/1 59/1 58/1 57/1
v 0.1537 0.1800 -0.3361
v -0.0028 0.1800 -0.2525
v -0.0028 0.1300 -0.2525
v 0.1537 0.1300 -0.3361
f 64/1 63/1 62/1 61/1
v -0.0028 0.1800 -0.2525
v 0.4472 0.1800 0.4210
v 0.4472 0.1300 0.4210
v -0.0028 0.1300 -0.2525
f 68/1 67/1 66/1 65/1
v 0.4472 0.1800 0.4210
v 0.4636 0.1800 0.4122
v 0.4636 0.1300 0.4122
v 0.4472 0.1300 0.4210
f 72/1 71/1 70/1 69/1
v 0.4472 0.1300 0.4210
v -0.0028 0.1300 -0.2525
v -0.1399 0.1300 -0.1399
v 0.4328 0.1300 0.4328
f 76/1 75/1 74/1 73/1
v 0.4328 0.1800 0.4328
vt 1.0000 0.3927
v -0.1399 0.1800 -0.1399
vt 1.0000 0.3927
v -0.0028 0.1800 -0.2525
vt 1.0000 0.2945
v 0.4472 0.1800 0.4210
vt 1.0000 0.2945
f 80/17 79/16 78/15 77/14
v 0.4472 0.1800 0.4210
v -0.0028 0.1800 -0.2525
v -0.0028 0.1300 -0.2525
v 0.4472 0.1300 0.4210
f 84/1 83/1 82/1 81/1
v -0.0028 0.1800 -0.2525
v -0.1399 0.1800 -0.1399
v -0.1399 0.1300 -0.1399
v -0.0028 0.1300 -0.2525
f 88/1 87/1 86/1 85/1
v -0.1399 0.1800 -0.1399
v 0.4328 0.1800 0.4328
v 0.4328 0.1300 0.4328
v -0.1399 0.1300 -0.1399
f 92/1 91/1 90/1 89/1
v 0.4328 0.1800 0.4328
v 0.4472 0.1800 0.4210
v 0.4472 0.1300 0.4210
v 0.4328 0.1300 0.4328
f 96/1 95/1 94/1 93/1
v 0.4328 0.1300 0.4328
v -0.1399 0.1300 -0.1399
v -0.2525 0.1300 -0.0028
v 0.4210 0.1300 0.4472
f 100/1 99/1 98/1 97/1
v 0.4210 0.1800 0.4472
vt 1.0000 0.4909
v -0.2525 0.1800 -0.0028
vt 1.0000 0.4909
v -0.1399 0.1800 -0.1399
vt 1.0000 0.3927
v 0.4328 0.1800 0.4328
vt 1.0000 0.3927
f 104/21 103/20 102/19 101/18
v 0.4328 0.1800 0.4328
v -0.1399 0.1800 -0.1399
v -0.1399 0.1300 -0.1399
v 0.4328 0.1300 0.4328
f 108/1 107/1 106/1 105/1
v -0.1399 0.1800 -0.1399
v -0.2525 0.1800 -0.0028
v -0.2525 0.1300 -0.0028
v -0.1399 0.1300 -0.1399
f 112/1 111/1 110/1 109/1
v -0.2525 0.1800 -0.0028
v 0.4210 0.1800 0.4472
v 0.4210 0.1300 0.4472
v -0.2525 0.1300 -0.0028
f 116/1 115/1 114/1 113/1
v 0.4210 0.1800 0.4472
v 0.4328 0.1800 0.4328
v 0.4328 0.1300 0.4328
v 0.4210 0.1300 0.4472
f 120/1 119/1 118/1 117/1
v 0.4210 0.1300 0.4472
v -0.2525 0.1300 -0.0028
v -0.3361 0.1300 0.1537
v 0.4122 0.1300 0.4636
f 124/1 123/1 122/1 121/1
v 0.4122 0.1800 0.4636
vt 1.0000 0.5890
v -0.3361 0.1800 0.1537
vt 1.0000 0.5890
v -0.2525 0.1800 -0.0028
vt 1.0000 0.4909
v 0.4210 0.1800 0.4472
vt 1.0000 0.4909
f 128/25 127/24 126/23 125/22
v 0.4210 0.1800 0.4472
v -0.2525 0.1800 -0.0028
v -0.2525 0.1300 -0.0028
v 0.4210 0.1300 0.4472
f 132/1 131/1 130/1 129/1
v -0.2525 0.1800 -0.0028
v -0.3361 0.1800 0.1537
v -0.3361 0.1300 0.1537
v -0.2525 0.1300 -0.0028
f 136/1 135/1 134/1 133/1
v -0.3361 0.1800 0.1537
v 0.4122 0.1800 0.4636
v 0.4122 0.1300 0.4636
v -0.3361 0.1300 0.1537
f 140/1 139/1 138/1 137/1
v 0.4122 0.1800 0.4636
v 0.4210 0.1800 0.4472
v 0.4210 0.1300 0.4472
v 0.4122 0.1300 0.4636
f 144/1 143/1 142/1 141/1
v 0.4122 0.1300 0.4636
v -0.3361 0.1300 0.1537
v -0.3876 0.1300 0.3234
v 0.4068 0.1300 0.4815
f 148/1 147/1 146/1 145/1
v 0.4068 0.1800 0.4815
vt 1.0000 0.6872
v -0.3876 0.1800 0.3234
vt 1.0000 0.6872
v -0.3361 0.1800 0.1537
vt 1.0000 0.5890
v 0.4122 0.1800 0.4636
vt 1.0000 0.5890
f 152/29 151/28 150/27 149/26
v 0.4122 0.1800 0.4636
v -0.3361 0.1800 0.1537
v -0.3361 0.1300 0.1537
v 0.4122 0.1300 0.4636
f 156/1 155/1 154/1 153/1
v -0.3361 0.1800 0.1537
v -0.3876 0.1800 0.3234
v -0.3876 0.1300 0.3234
v -0.3361 0.1300 0.1537
f 160/1 159/1 158/1 157/1
v -0.3876 0.1800 0.3234
v 0.4068 0.1800 0.4815
v 0.4068 0.1300 0.4815
v -0.3876 0.1300 0.3234
f 164/1 163/1 162/1 161/1
v 0.4068 0.1800 0.4815
v 0.4122 0.1800 0.4636
v 0.4122 0.1300 0.4636
v 0.4068 0.1300 0.4815
f 168/1 167/1 166/1 165/1
v 0.4068 0.1300 0.4815
v -0.3876 0.1300 0.3234
v -0.4050 0.1300 0.5000
v 0.4050 0.1300 0.5000
f 172/1 171/1 170/1 169/1
v 0.4050 0.1800 0.5000
vt 1.0000 0.7854
v -0.4050 0.1800 0.5000
vt 1.0000 0.7854
v -0.3876 0.1800 0.3234
vt 1.0000 0.6872
v 0.4068 0.1800 0.4815
vt 1.0000 0.6872
f 176/33 175/32 174/31 173/30
v 0.4068 0.1800 0.4815
v -0.3876 0.1800 0.3234
v -0.3876 0.1300 0.3234
v 0.4068 0.1300 0.4815
f 180/1 179/1 178/1 177/1
v -0.3876 0.1800 0.3234
v -0.4050 0.1800 0.5000
v -0.4050 0.1300 0.5000
v -0.3876 0.1300 0.3234
f 184/1 183/1 182/1 181/1
v -0.4050 0.1800 0.5000
v 0.4050 0.1800 0.5000
v 0.4050 0.1300 0.5000
v -0.4050 0.1300 0.5000
f 188/1 187/1 186/1 185/1
v 0.4050 0.1800 0.5000
v 0.4068 0.1800 0.4815
v 0.4068 0.1300 0.4815
v 0.4050 0.1300 0.5000
f 192/1 191/1 190/1 189/1
usemtl wi_dark
v 0.3823 0.0700 0.4766
v -0.3631 0.0700 0.3283
v -0.3800 0.0700 0.5000
v 0.3800 0.0700 0.5000
f 196/1 195/1 194/1 193/1
v 0.3800 0.1300 0.5000
v -0.3800 0.1300 0.5000
v -0.3631 0.1300 0.3283
v 0.3823 0.1300 0.4766
f 200/1 199/1 198/1 197/1
v 0.3800 0.0700 0.5000
v -0.3800 0.0700 0.5000
v -0.3800 0.1300 0.5000
v 0.3800 0.1300 0.5000
f 204/1 203/1 202/1 201/1
v -0.3800 0.0700 0.5000
v -0.3631 0.0700 0.3283
v -0.3631 0.1300 0.3283
v -0.3800 0.1300 0.5000
f 208/1 207/1 206/1 205/1
v -0.3631 0.0700 0.3283
v 0.3823 0.0700 0.4766
v 0.3823 0.1300 0.4766
v -0.3631 0.1300 0.3283
f 212/1 211/1 210/1 209/1
v 0.3823 0.0700 0.4766
v 0.3800 0.0700 0.5000
v 0.3800 0.1300 0.5000
v 0.3823 0.1300 0.4766
f 216/1 215/1 214/1 213/1
v 0.3891 0.0700 0.4541
v -0.3130 0.0700 0.1632
v -0.3631 0.0700 0.3283
v 0.3823 0.0700 0.4766
f 220/1 219/1 218/1 217/1
v 0.3823 0.1300 0.4766
v -0.3631 0.1300 0.3283
v -0.3130 0.1300 0.1632
v 0.3891 0.1300 0.4541
f 224/1 223/1 222/1 221/1
v 0.3823 0.0700 0.4766
v -0.3631 0.0700 0.3283
v -0.3631 0.1300 0.3283
v 0.3823 0.1300 0.4766
f 228/1 227/1 226/1 225/1
v -0.3631 0.0700 0.3283
v -0.3130 0.0700 0.1632
v -0.3130 0.1300 0.1632
v -0.3631 0.1300 0.3283
f 232/1 231/1 230/1 229/1
v -0.3130 0.0700 0.1632
v 0.3891 0.0700 0.4541
v 0.3891 0.1300 0.4541
v -0.3130 0.1300 0.1632
f 236/1 235/1 234/1 233/1
v 0.3891 0.0700 0.4541
v 0.3823 0.0700 0.4766
v 0.3823 0.1300 0.4766
v 0.3891 0.1300 0.4541
f 240/1 239/1 238/1 237/1
v 0.4002 0.0700 0.4333
v -0.2317 0.0700 0.0111
v -0.3130 0.0700 0.1632
v 0.3891 0.0700 0.4541
f 244/1 243/1 242/1 241/1
v 0.3891 0.1300 0.4541
v -0.3130 0.1300 0.1632
v -0.2317 0.1300 0.0111
v 0.4002 0.1300 0.4333
f 248/1 247/1 246/1 245/1
v 0.3891 0.0700 0.4541
v -0.3130 0.0700 0.1632
v -0.3130 0.1300 0.1632
v 0.3891 0.1300 0.4541
f 252/1 251/1 250/1 249/1
v -0.3130 0.0700 0.1632
v -0.2317 0.0700 0.0111
v -0.2317 0.1300 0.0111
v -0.3130 0.1300 0.1632
f 256/1 255/1 254/1 253/1
v -0.2317 0.0700 0.0111
v 0.4002 0.0700 0.4333
v 0.4002 0.1300 0.4333
v -0.2317 0.1300 0.0111
f 260/1 259/1 258/1 257/1
v 0.4002 0.0700 0.4333
v 0.3891 0.0700 0.4541
v 0.3891 0.1300 0.4541
v 0.4002 0.1300 0.4333
f 264/1 263/1 262/1 261/1
v 0.4151 0.0700 0.4151
v -0.1223 0.0700 -0.1223
v -0.2317 0.0700 0.0111
v 0.4002 0.0700 0.4333
f 268/1 267/1 266/1 265/1
v 0.4002 0.1300 0.4333
v -0.2317 0.1300 0.0111
v -0.1223 0.1300 -0.1223
v 0.4151 0.1300 0.4151
f 272/1 271/1 270/1 269/1
v 0.4002 0.0700 0.4333
v -0.2317 0.0700 0.0111
v -0.2317 0.1300 0.0111
v 0.4002 0.1300 0.4333
f 276/1 275/1 274/1 273/1
v -0.2317 0.0700 0.0111
v -0.1223 0.0700 -0.1223
v -0.1223 0.1300 -0.1223
v -0.2317 0.1300 0.0111
f 280/1 279/1 278/1 277/1
v -0.1223 0.0700 -0.1223
v 0.4151 0.0700 0.4151
v 0.4151 0.1300 0.4151
v -0.1223 0.1300 -0.1223
f 284/1 283/1 282/1 281/1
v 0.4151 0.0700 0.4151
v 0.4002 0.0700 0.4333
v 0.4002 0.1300 0.4333
v 0.4151 0.1300 0.4151
f 288/1 287/1 286/1 285/1
v 0.4333 0.0700 0.4002
v 0.0111 0.0700 -0.2317
v -0.1223 0.0700 -0.1223
v 0.4151 0.0700 0.4151
f 292/1 291/1 290/1 289/1
v 0.4151 0.1300 0.4151
v -0.1223 0.1300 -0.1223
v 0.0111 0.1300 -0.2317
v 0.4333 0.1300 0.4002
f 296/1 295/1 294/1 293/1
v 0.4151 0.0700 0.4151
v -0.1223 0.0700 -0.1223
v -0.1223 0.1300 -0.1223
v 0.4151 0.1300 0.4151
f 300/1 299/1 298/1 297/1
v -0.1223 0.0700 -0.1223
v 0.0111 0.0700 -0.2317
v 0.0111 0.1300 -0.2317
v -0.1223 0.1300 -0.1223
f 304/1 303/1 302/1 301/1
v 0.0111 0.0700 -0.2317
v 0.4333 0.0700 0.4002
v 0.4333 0.1300 0.4002
v 0.0111 0.1300 -0.2317
f 308/1 307/1 306/1 305/1
v 0.4333 0.0700 0.4002
v 0.4151 0.0700 0.4151
v 0.4151 0.1300 0.4151
v 0.4333 0.1300 0.4002
f 312/1 311/1 310/1 309/1
v 0.4541 0.0700 0.3891
v 0.1632 0.0700 -0.3130
v 0.0111 0.0700 -0.2317
v 0.4333 0.0700 0.4002
f 316/1 315/1 314/1 313/1
v 0.4333 0.1300 0.4002
v 0.0111 0.1300 -0.2317
v 0.1632 0.1300 -0.3130
v 0.4541 0.1300 0.3891
f 320/1 319/1 318/1 317/1
v 0.4333 0.0700 0.4002
v 0.0111 0.0700 -0.2317
v 0.0111 0.1300 -0.2317
v 0.4333 0.1300 0.4002
f 324/1 323/1 322/1 321/1
v 0.0111 0.0700 -0.2317
v 0.1632 0.0700 -0.3130
v 0.1632 0.1300 -0.3130
v 0.0111 0.1300 -0.2317
f 328/1 327/1 326/1 325/1
v 0.1632 0.0700 -0.3130
v 0.4541 0.0700 0.3891
v 0.4541 0.1300 0.3891
v 0.1632 0.1300 -0.3130
f 332/1 331/1 330/1 329/1
v 0.4541 0.0700 0.3891
v 0.4333 0.0700 0.4002
v 0.4333 0.1300 0.4002
v 0.4541 0.1300 0.3891
f 336/1 335/1 334/1 333/1
v 0.4766 0.0700 0.3823
v 0.3283 0.0700 -0.3631
v 0.1632 0.0700 -0.3130
v 0.4541 0.0700 0.3891
f 340/1 339/1 338/1 337/1
v 0.4541 0.1300 0.3891
v 0.1632 0.1300 -0.3130
v 0.3283 0.1300 -0.3631
v 0.4766 0.1300 0.3823
f 344/1 343/1 342/1 341/1
v 0.4541 0.0700 0.3891
v 0.1632 0.0700 -0.3130
v 0.1632 0.1300 -0.3130
v 0.4541 0.1300 0.3891
f 348/1 347/1 346/1 345/1
v 0.1632 0.0700 -0.3130
v 0.3283 0.0700 -0.3631
v 0.3283 0.1300 -0.3631
v 0.1632 0.1300 -0.3130
f 352/1 351/1 350/1 349/1
v 0.3283 0.0700 -0.3631
v 0.4766 0.0700 0.3823
v 0.4766 0.1300 0.3823
v 0.3283 0.1300 -0.3631
f 356/1 355/1 354/1 353/1
v 0.4766 0.0700 0.3823
v 0.4541 0.0700 0.3891
v 0.4541 0.1300 0.3891
v 0.4766 0.1300 0.3823
f 360/1 359/1 358/1 357/1
v 0.5000 0.0700 0.3800
v 0.5000 0.0700 -0.3800
v 0.3283 0.0700 -0.3631
v 0.4766 0.0700 0.3823
f 364/1 363/1 362/1 361/1
v 0.4766 0.1300 0.3823
v 0.3283 0.1300 -0.3631
v 0.5000 0.1300 -0.3800
v 0.5000 0.1300 0.3800
f 368/1 367/1 366/1 365/1
v 0.4766 0.0700 0.3823
v 0.3283 0.0700 -0.3631
v 0.3283 0.1300 -0.3631
v 0.4766 0.1300 0.3823
f 372/1 371/1 370/1 369/1
v 0.3283 0.0700 -0.3631
v 0.5000 0.0700 -0.3800
v 0.5000 0.1300 -0.3800
v 0.3283 0.1300 -0.3631
f 376/1 375/1 374/1 373/1
v 0.5000 0.0700 -0.3800
v 0.5000 0.0700 0.3800
v 0.5000 0.1300 0.3800
v 0.5000 0.1300 -0.3800
f 380/1 379/1 378/1 377/1
v 0.5000 0.0700 0.3800
v 0.4766 0.0700 0.3823
v 0.4766 0.1300 0.3823
v 0.5000 0.1300 0.3800
f 384/1 383/1 382/1 381/1
o Frame
usemtl wi_edge
v -0.3876 0.0600 0.3234
v -0.4563 0.0600 0.3098
v -0.4750 0.0600 0.5000
v -0.4050 0.0600 0.5000
f 388/1 387/1 386/1 385/1
v -0.4050 0.2500 0.5000
v -0.4750 0.2500 0.5000
v -0.4563 0.2500 0.3098
v -0.3876 0.2500 0.3234
f 392/1 391/1 390/1 389/1
v -0.4050 0.0600 0.5000
v -0.4750 0.0600 0.5000
v -0.4750 0.2500 0.5000
v -0.4050 0.2500 0.5000
f 396/1 395/1 394/1 393/1
v -0.4750 0.0600 0.5000
v -0.4563 0.0600 0.3098
v -0.4563 0.2500 0.3098
v -0.4750 0.2500 0.5000
f 400/1 399/1 398/1 397/1
v -0.4563 0.0600 0.3098
v -0.3876 0.0600 0.3234
v -0.3876 0.2500 0.3234
v -0.4563 0.2500 0.3098
f 404/1 403/1 402/1 401/1
v -0.3876 0.0600 0.3234
v -0.4050 0.0600 0.5000
v -0.4050 0.2500 0.5000
v -0.3876 0.2500 0.3234
f 408/1 407/1 406/1 405/1
v -0.3361 0.0600 0.1537
v -0.4008 0.0600 0.1269
v -0.4563 0.0600 0.3098
v -0.3876 0.0600 0.3234
f 412/1 411/1 410/1 409/1
v -0.3876 0.2500 0.3234
v -0.4563 0.2500 0.3098
v -0.4008 0.2500 0.1269
v -0.3361 0.2500 0.1537
f 416/1 415/1 414/1 413/1
v -0.3876 0.0600 0.3234
v -0.4563 0.0600 0.3098
v -0.4563 0.2500 0.3098
v -0.3876 0.2500 0.3234
f 420/1 419/1 418/1 417/1
v -0.4563 0.0600 0.3098
v -0.4008 0.0600 0.1269
v -0.4008 0.2500 0.1269
v -0.4563 0.2500 0.3098
f 424/1 423/1 422/1 421/1
v -0.4008 0.0600 0.1269
v -0.3361 0.0600 0.1537
v -0.3361 0.2500 0.1537
v -0.4008 0.2500 0.1269
f 428/1 427/1 426/1 425/1
v -0.3361 0.0600 0.1537
v -0.3876 0.0600 0.3234
v -0.3876 0.2500 0.3234
v -0.3361 0.2500 0.1537
f 432/1 431/1 430/1 429/1
v -0.2525 0.0600 -0.0028
v -0.3107 0.0600 -0.0417
v -0.4008 0.0600 0.1269
v -0.3361 0.0600 0.1537
f 436/1 435/1 434/1 433/1
v -0.3361 0.2500 0.1537
v -0.4008 0.2500 0.1269
v -0.3107 0.2500 -0.0417
v -0.2525 0.2500 -0.0028
f 440/1 439/1 438/1 437/1
v -0.3361 0.0600 0.1537
v -0.4008 0.0600 0.1269
v -0.4008 0.2500 0.1269
v -0.3361 0.2500 0.1537
f 444/1 443/1 442/1 441/1
v -0.4008 0.0600 0.1269
v -0.3107 0.0600 -0.0417
v -0.3107 0.2500 -0.0417
v -0.4008 0.2500 0.1269
f 448/1 447/1 446/1 445/1
v -0.3107 0.0600 -0.0417
v -0.2525 0.0600 -0.0028
v -0.2525 0.2500 -0.0028
v -0.3107 0.2500 -0.0417
f 452/1 451/1 450/1 449/1
v -0.2525 0.0600 -0.0028
v -0.3361 0.0600 0.1537
v -0.3361 0.2500 0.1537
v -0.2525 0.2500 -0.0028
f 456/1 455/1 454/1 453/1
v -0.1399 0.0600 -0.1399
v -0.1894 0.0600 -0.1894
v -0.3107 0.0600 -0.0417
v -0.2525 0.0600 -0.0028
f 460/1 459/1 458/1 457/1
v -0.2525 0.2500 -0.0028
v -0.3107 0.2500 -0.0417
v -0.1894 0.2500 -0.1894
v -0.1399 0.2500 -0.1399
f 464/1 463/1 462/1 461/1
v -0.2525 0.0600 -0.0028
v -0.3107 0.0600 -0.0417
v -0.3107 0.2500 -0.0417
v -0.2525 0.2500 -0.0028
f 468/1 467/1 466/1 465/1
v -0.3107 0.0600 -0.0417
v -0.1894 0.0600 -0.1894
v -0.1894 0.2500 -0.1894
v -0.3107 0.2500 -0.0417
f 472/1 471/1 470/1 469/1
v -0.1894 0.0600 -0.1894
v -0.1399 0.0600 -0.1399
v -0.1399 0.2500 -0.1399
v -0.1894 0.2500 -0.1894
f 476/1 475/1 474/1 473/1
v -0.1399 0.0600 -0.1399
v -0.2525 0.0600 -0.0028
v -0.2525 0.2500 -0.0028
v -0.1399 0.2500 -0.1399
f 480/1 479/1 478/1 477/1
v -0.0028 0.0600 -0.2525
v -0.0417 0.0600 -0.3107
v -0.1894 0.0600 -0.1894
v -0.1399 0.0600 -0.1399
f 484/1 483/1 482/1 481/1
v -0.1399 0.2500 -0.1399
v -0.1894 0.2500 -0.1894
v -0.0417 0.2500 -0.3107
v -0.0028 0.2500 -0.2525
f 488/1 487/1 486/1 485/1
v -0.1399 0.0600 -0.1399
v -0.1894 0.0600 -0.1894
v -0.1894 0.2500 -0.1894
v -0.1399 0.2500 -0.1399
f 492/1 491/1 490/1 489/1
v -0.1894 0.0600 -0.1894
v -0.0417 0.0600 -0.3107
v -0.0417 0.2500 -0.3107
v -0.1894 0.2500 -0.1894
f 496/1 495/1 494/1 493/1
v -0.0417 0.0600 -0.3107
v -0.0028 0.0600 -0.2525
v -0.0028 0.2500 -0.2525
v -0.0417 0.2500 -0.3107
f 500/1 499/1 498/1 497/1
v -0.0028 0.0600 -0.2525
v -0.1399 0.0600 -0.1399
v -0.1399 0.2500 -0.1399
v -0.0028 0.2500 -0.2525
f 504/1 503/1 502/1 501/1
v 0.1537 0.0600 -0.3361
v 0.1269 0.0600 -0.4008
v -0.0417 0.0600 -0.3107
v -0.0028 0.0600 -0.2525
f 508/1 507/1 506/1 505/1
v -0.0028 0.2500 -0.2525
v -0.0417 0.2500 -0.3107
v 0.1269 0.2500 -0.4008
v 0.1537 0.2500 -0.3361
f 512/1 511/1 510/1 509/1
v -0.0028 0.0600 -0.2525
v -0.0417 0.0600 -0.3107
v -0.0417 0.2500 -0.3107
v -0.0028 0.2500 -0.2525
f 516/1 515/1 514/1 513/1
v -0.0417 0.0600 -0.3107
v 0.1269 0.0600 -0.4008
v 0.1269 0.2500 -0.4008
v -0.0417 0.2500 -0.3107
f 520/1 519/1 518/1 517/1
v 0.1269 0.0600 -0.4008
v 0.1537 0.0600 -0.3361
v 0.1537 0.2500 -0.3361
v 0.1269 0.2500 -0.4008
f 524/1 523/1 522/1 521/1
v 0.1537 0.0600 -0.3361
v -0.0028 0.0600 -0.2525
v -0.0028 0.2500 -0.2525
v 0.1537 0.2500 -0.3361
f 528/1 527/1 526/1 525/1
v 0.3234 0.0600 -0.3876
v 0.3098 0.0600 -0.4563
v 0.1269 0.0600 -0.4008
v 0.1537 0.0600 -0.3361
f 532/1 531/1 530/1 529/1
v 0.1537 0.2500 -0.3361
v 0.1269 0.2500 -0.4008
v 0.3098 0.2500 -0.4563
v 0.3234 0.2500 -0.3876
f 536/1 535/1 534/1 533/1
v 0.1537 0.0600 -0.3361
v 0.1269 0.0600 -0.4008
v 0.1269 0.2500 -0.4008
v 0.1537 0.2500 -0.3361
f 540/1 539/1 538/1 537/1
v 0.1269 0.0600 -0.4008
v 0.3098 0.0600 -0.4563
v 0.3098 0.2500 -0.4563
v 0.1269 0.2500 -0.4008
f 544/1 543/1 542/1 541/1
v 0.3098 0.0600 -0.4563
v 0.3234 0.0600 -0.3876
v 0.3234 0.2500 -0.3876
v 0.3098 0.2500 -0.4563
f 548/1 547/1 546/1 545/1
v 0.3234 0.0600 -0.3876
v 0.1537 0.0600 -0.3361
v 0.1537 0.2500 -0.3361
v 0.3234 0.2500 -0.3876
f 552/1 551/1 550/1 549/1
v 0.5000 0.0600 -0.4050
v 0.5000 0.0600 -0.4750
v 0.3098 0.0600 -0.4563
v 0.3234 0.0600 -0.3876
f 556/1 555/1 554/1 553/1
v 0.3234 0.2500 -0.3876
v 0.3098 0.2500 -0.4563
v 0.5000 0.2500 -0.4750
v 0.5000 0.2500 -0.4050
f 560/1 559/1 558/1 557/1
v 0.3234 0.0600 -0.3876
v 0.3098 0.0600 -0.4563
v 0.3098 0.2500 -0.4563
v 0.3234 0.2500 -0.3876
f 564/1 563/1 562/1 561/1
v 0.3098 0.0600 -0.4563
v 0.5000 0.0600 -0.4750
v 0.5000 0.2500 -0.4750
v 0.3098 0.2500 -0.4563
f 568/1 567/1 566/1 565/1
v 0.5000 0.0600 -0.4750
v 0.5000 0.0600 -0.4050
v 0.5000 0.2500 -0.4050
v 0.5000 0.2500 -0.4750
f 572/1 571/1 570/1 569/1
v 0.5000 0.0600 -0.4050
v 0.3234 0.0600 -0.3876
v 0.3234 0.2500 -0.3876
v 0.5000 0.2500 -0.4050
f 576/1 575/1 574/1 573/1
usemtl wi_copper
v -0.3827 0.2500 0.3244
v -0.4612 0.2500 0.3088
v -0.4800 0.2500 0.5000
v -0.4000 0.2500 0.5000
f 580/1 579/1 578/1 577/1
v -0.4000 0.2750 0.5000
v -0.4800 0.2750 0.5000
v -0.4612 0.2750 0.3088
v -0.3827 0.2750 0.3244
f 584/1 583/1 582/1 581/1
v -0.4000 0.2500 0.5000
v -0.4800 0.2500 0.5000
v -0.4800 0.2750 0.5000
v -0.4000 0.2750 0.5000
f 588/1 587/1 586/1 585/1
v -0.4800 0.2500 0.5000
v -0.4612 0.2500 0.3088
v -0.4612 0.2750 0.3088
v -0.4800 0.2750 0.5000
f 592/1 591/1 590/1 589/1
v -0.4612 0.2500 0.3088
v -0.3827 0.2500 0.3244
v -0.3827 0.2750 0.3244
v -0.4612 0.2750 0.3088
f 596/1 595/1 594/1 593/1
v -0.3827 0.2500 0.3244
v -0.4000 0.2500 0.5000
v -0.4000 0.2750 0.5000
v -0.3827 0.2750 0.3244
f 600/1 599/1 598/1 597/1
v -0.3315 0.2500 0.1556
v -0.4054 0.2500 0.1250
v -0.4612 0.2500 0.3088
v -0.3827 0.2500 0.3244
f 604/1 603/1 602/1 601/1
v -0.3827 0.2750 0.3244
v -0.4612 0.2750 0.3088
v -0.4054 0.2750 0.1250
v -0.3315 0.2750 0.1556
f 608/1 607/1 606/1 605/1
v -0.3827 0.2500 0.3244
v -0.4612 0.2500 0.3088
v -0.4612 0.2750 0.3088
v -0.3827 0.2750 0.3244
f 612/1 611/1 610/1 609/1
v -0.4612 0.2500 0.3088
v -0.4054 0.2500 0.1250
v -0.4054 0.2750 0.1250
v -0.4612 0.2750 0.3088
f 616/1 615/1 614/1 613/1
v -0.4054 0.2500 0.1250
v -0.3315 0.2500 0.1556
v -0.3315 0.2750 0.1556
v -0.4054 0.2750 0.1250
f 620/1 619/1 618/1 617/1
v -0.3315 0.2500 0.1556
v -0.3827 0.2500 0.3244
v -0.3827 0.2750 0.3244
v -0.3315 0.2750 0.1556
f 624/1 623/1 622/1 621/1
v -0.2483 0.2500 -0.0000
v -0.3148 0.2500 -0.0445
v -0.4054 0.2500 0.1250
v -0.3315 0.2500 0.1556
f 628/1 627/1 626/1 625/1
v -0.3315 0.2750 0.1556
v -0.4054 0.2750 0.1250
v -0.3148 0.2750 -0.0445
v -0.2483 0.2750 -0.0000
f 632/1 631/1 630/1 629/1
v -0.3315 0.2500 0.1556
v -0.4054 0.2500 0.1250
v -0.4054 0.2750 0.1250
v -0.3315 0.2750 0.1556
f 636/1 635/1 634/1 633/1
v -0.4054 0.2500 0.1250
v -0.3148 0.2500 -0.0445
v -0.3148 0.2750 -0.0445
v -0.4054 0.2750 0.1250
f 640/1 639/1 638/1 637/1
v -0.3148 0.2500 -0.0445
v -0.2483 0.2500 -0.0000
v -0.2483 0.2750 -0.0000
v -0.3148 0.2750 -0.0445
f 644/1 643/1 642/1 641/1
v -0.2483 0.2500 -0.0000
v -0.3315 0.2500 0.1556
v -0.3315 0.2750 0.1556
v -0.2483 0.2750 -0.0000
f 648/1 647/1 646/1 645/1
v -0.1364 0.2500 -0.1364
v -0.1930 0.2500 -0.1930
v -0.3148 0.2500 -0.0445
v -0.2483 0.2500 -0.0000
f 652/1 651/1 650/1 649/1
v -0.2483 0.2750 -0.0000
v -0.3148 0.2750 -0.0445
v -0.1930 0.2750 -0.1930
v -0.1364 0.2750 -0.1364
f 656/1 655/1 654/1 653/1
v -0.2483 0.2500 -0.0000
v -0.3148 0.2500 -0.0445
v -0.3148 0.2750 -0.0445
v -0.2483 0.2750 -0.0000
f 660/1 659/1 658/1 657/1
v -0.3148 0.2500 -0.0445
v -0.1930 0.2500 -0.1930
v -0.1930 0.2750 -0.1930
v -0.3148 0.2750 -0.0445
f 664/1 663/1 662/1 661/1
v -0.1930 0.2500 -0.1930
v -0.1364 0.2500 -0.1364
v -0.1364 0.2750 -0.1364
v -0.1930 0.2750 -0.1930
f 668/1 667/1 666/1 665/1
v -0.1364 0.2500 -0.1364
v -0.2483 0.2500 -0.0000
v -0.2483 0.2750 -0.0000
v -0.1364 0.2750 -0.1364
f 672/1 671/1 670/1 669/1
v -0.0000 0.2500 -0.2483
v -0.0445 0.2500 -0.3148
v -0.1930 0.2500 -0.1930
v -0.1364 0.2500 -0.1364
f 676/1 675/1 674/1 673/1
v -0.1364 0.2750 -0.1364
v -0.1930 0.2750 -0.1930
v -0.0445 0.2750 -0.3148
v -0.0000 0.2750 -0.2483
f 680/1 679/1 678/1 677/1
v -0.1364 0.2500 -0.1364
v -0.1930 0.2500 -0.1930
v -0.1930 0.2750 -0.1930
v -0.1364 0.2750 -0.1364
f 684/1 683/1 682/1 681/1
v -0.1930 0.2500 -0.1930
v -0.0445 0.2500 -0.3148
v -0.0445 0.2750 -0.3148
v -0.1930 0.2750 -0.1930
f 688/1 687/1 686/1 685/1
v -0.0445 0.2500 -0.3148
v -0.0000 0.2500 -0.2483
v -0.0000 0.2750 -0.2483
v -0.0445 0.2750 -0.3148
f 692/1 691/1 690/1 689/1
v -0.0000 0.2500 -0.2483
v -0.1364 0.2500 -0.1364
v -0.1364 0.2750 -0.1364
v -0.0000 0.2750 -0.2483
f 696/1 695/1 694/1 693/1
v 0.1556 0.2500 -0.3315
v 0.1250 0.2500 -0.4054
v -0.0445 0.2500 -0.3148
v -0.0000 0.2500 -0.2483
f 700/1 699/1 698/1 697/1
v -0.0000 0.2750 -0.2483
v -0.0445 0.2750 -0.3148
v 0.1250 0.2750 -0.4054
v 0.1556 0.2750 -0.3315
f 704/1 703/1 702/1 701/1
v -0.0000 0.2500 -0.2483
v -0.0445 0.2500 -0.3148
v -0.0445 0.2750 -0.3148
v -0.0000 0.2750 -0.2483
f 708/1 707/1 706/1 705/1
v -0.0445 0.2500 -0.3148
v 0.1250 0.2500 -0.4054
v 0.1250 0.2750 -0.4054
v -0.0445 0.2750 -0.3148
f 712/1 711/1 710/1 709/1
v 0.1250 0.2500 -0.4054
v 0.1556 0.2500 -0.3315
v 0.1556 0.2750 -0.3315
v 0.1250 0.2750 -0.4054
f 716/1 715/1 714/1 713/1
v 0.1556 0.2500 -0.3315
v -0.0000 0.2500 -0.2483
v -0.0000 0.2750 -0.2483
v 0.1556 0.2750 -0.3315
f 720/1 719/1 718/1 717/1
v 0.3244 0.2500 -0.3827
v 0.3088 0.2500 -0.4612
v 0.1250 0.2500 -0.4054
v 0.1556 0.2500 -0.3315
f 724/1 723/1 722/1 721/1
v 0.1556 0.2750 -0.3315
v 0.1250 0.2750 -0.4054
v 0.3088 0.2750 -0.4612
v 0.3244 0.2750 -0.3827
f 728/1 727/1 726/1 725/1
v 0.1556 0.2500 -0.3315
v 0.1250 0.2500 -0.4054
v 0.1250 0.2750 -0.4054
v 0.1556 0.2750 -0.3315
f 732/1 731/1 730/1 729/1
v 0.1250 0.2500 -0.4054
v 0.3088 0.2500 -0.4612
v 0.3088 0.2750 -0.4612
v 0.1250 0.2750 -0.4054
f 736/1 735/1 734/1 733/1
v 0.3088 0.2500 -0.4612
v 0.3244 0.2500 -0.3827
v 0.3244 0.2750 -0.3827
v 0.3088 0.2750 -0.4612
f 740/1 739/1 738/1 737/1
v 0.3244 0.2500 -0.3827
v 0.1556 0.2500 -0.3315
v 0.1556 0.2750 -0.3315
v 0.3244 0.2750 -0.3827
f 744/1 743/1 742/1 741/1
v 0.5000 0.2500 -0.4000
v 0.5000 0.2500 -0.4800
v 0.3088 0.2500 -0.4612
v 0.3244 0.2500 -0.3827
f 748/1 747/1 746/1 745/1
v 0.3244 0.2750 -0.3827
v 0.3088 0.2750 -0.4612
v 0.5000 0.2750 -0.4800
v 0.5000 0.2750 -0.4000
f 752/1 751/1 750/1 749/1
v 0.3244 0.2500 -0.3827
v 0.3088 0.2500 -0.4612
v 0.3088 0.2750 -0.4612
v 0.3244 0.2750 -0.3827
f 756/1 755/1 754/1 753/1
v 0.3088 0.2500 -0.4612
v 0.5000 0.2500 -0.4800
v 0.5000 0.2750 -0.4800
v 0.3088 0.2750 -0.4612
f 760/1 759/1 758/1 757/1
v 0.5000 0.2500 -0.4800
v 0.5000 0.2500 -0.4000
v 0.5000 0.2750 -0.4000
v 0.5000 0.2750 -0.4800
f 764/1 763/1 762/1 761/1
v 0.5000 0.2500 -0.4000
v 0.3244 0.2500 -0.3827
v 0.3244 0.2750 -0.3827
v 0.5000 0.2750 -0.4000
f 768/1 767/1 766/1 765/1
usemtl wi_edge
v 0.4400 0.0600 0.4400
v 0.4400 0.2500 0.4400
v 0.4400 0.2500 0.5000
v 0.4400 0.0600 0.5000
f 772/1 771/1 770/1 769/1
v 0.5000 0.0600 0.5000
v 0.5000 0.2500 0.5000
v 0.5000 0.2500 0.4400
v 0.5000 0.0600 0.4400
f 776/1 775/1 774/1 773/1
v 0.4400 0.0600 0.5000
v 0.5000 0.0600 0.5000
v 0.5000 0.0600 0.4400
v 0.4400 0.0600 0.4400
f 780/1 779/1 778/1 777/1
v 0.4400 0.2500 0.4400
v 0.5000 0.2500 0.4400
v 0.5000 0.2500 0.5000
v 0.4400 0.2500 0.5000
f 784/1 783/1 782/1 781/1
v 0.4400 0.0600 0.4400
v 0.5000 0.0600 0.4400
v 0.5000 0.2500 0.4400
v 0.4400 0.2500 0.4400
f 788/1 787/1 786/1 785/1
v 0.4400 0.2500 0.5000
v 0.5000 0.2500 0.5000
v 0.5000 0.0600 0.5000
v 0.4400 0.0600 0.5000
f 792/1 791/1 790/1 789/1
usemtl wi_dark
v -0.3600 0.0000 -0.3600
v -0.3600 0.0600 -0.3600
v -0.3600 0.0600 -0.2400
v -0.3600 0.0000 -0.2400
f 796/1 795/1 794/1 793/1
v -0.2400 0.0000 -0.2400
v -0.2400 0.0600 -0.2400
v -0.2400 0.0600 -0.3600
v -0.2400 0.0000 -0.3600
f 800/1 799/1 798/1 797/1
v -0.3600 0.0000 -0.2400
v -0.2400 0.0000 -0.2400
v -0.2400 0.0000 -0.3600
v -0.3600 0.0000 -0.3600
f 804/1 803/1 802/1 801/1
v -0.3600 0.0600 -0.3600
v -0.2400 0.0600 -0.3600
v -0.2400 0.0600 -0.2400
v -0.3600 0.0600 -0.2400
f 808/1 807/1 806/1 805/1
v -0.3600 0.0000 -0.3600
v -0.2400 0.0000 -0.3600
v -0.2400 0.0600 -0.3600
v -0.3600 0.0600 -0.3600
f 812/1 811/1 810/1 809/1
v -0.3600 0.0600 -0.2400
v -0.2400 0.0600 -0.2400
v -0.2400 0.0000 -0.2400
v -0.3600 0.0000 -0.2400
f 816/1 815/1 814/1 813/1
v 0.2400 0.0000 -0.4000
v 0.2400 0.0600 -0.4000
v 0.2400 0.0600 -0.3000
v 0.2400 0.0000 -0.3000
f 820/1 819/1 818/1 817/1
v 0.3600 0.0000 -0.3000
v 0.3600 0.0600 -0.3000
v 0.3600 0.0600 -0.4000
v 0.3600 0.0000 -0.4000
f 824/1 823/1 822/1 821/1
v 0.2400 0.0000 -0.3000
v 0.3600 0.0000 -0.3000
v 0.3600 0.0000 -0.4000
v 0.2400 0.0000 -0.4000
f 828/1 827/1 826/1 825/1
v 0.2400 0.0600 -0.4000
v 0.3600 0.0600 -0.4000
v 0.3600 0.0600 -0.3000
v 0.2400 0.0600 -0.3000
f 832/1 831/1 830/1 829/1
v 0.2400 0.0000 -0.4000
v 0.3600 0.0000 -0.4000
v 0.3600 0.0600 -0.4000
v 0.2400 0.0600 -0.4000
f 836/1 835/1 834/1 833/1
v 0.2400 0.0600 -0.3000
v 0.3600 0.0600 -0.3000
v 0.3600 0.0000 -0.3000
v 0.2400 0.0000 -0.3000
f 840/1 839/1 838/1 837/1
v -0.4000 0.0000 0.2400
v -0.4000 0.0600 0.2400
v -0.4000 0.0600 0.3600
v -0.4000 0.0000 0.3600
f 844/1 843/1 842/1 841/1
v -0.3000 0.0000 0.3600
v -0.3000 0.0600 0.3600
v -0.3000 0.0600 0.2400
v -0.3000 0.0000 0.2400
f 848/1 847/1 846/1 845/1
v -0.4000 0.0000 0.3600
v -0.3000 0.0000 0.3600
v -0.3000 0.0000 0.2400
v -0.4000 0.0000 0.2400
f 852/1 851/1 850/1 849/1
v -0.4000 0.0600 0.2400
v -0.3000 0.0600 0.2400
v -0.3000 0.0600 0.3600
v -0.4000 0.0600 0.3600
f 856/1 855/1 854/1 853/1
v -0.4000 0.0000 0.2400
v -0.3000 0.0000 0.2400
v -0.3000 0.0600 0.2400
v -0.4000 0.0600 0.2400
f 860/1 859/1 858/1 857/1
v -0.4000 0.0600 0.3600
v -0.3000 0.0600 0.3600
v -0.3000 0.0000 0.3600
v -0.4000 0.0000 0.3600
f 864/1 863/1 862/1 861/1
o Arrows
usemtl wi_yellow
v 0.2523 0.1800 0.0844
v 0.2523 0.1920 0.0844
v 0.3297 0.1920 -0.1025
v 0.3297 0.1800 -0.1025
f 868/1 867/1 866/1 865/1
v 0.2743 0.1800 -0.1254
v 0.2743 0.1920 -0.1254
v 0.1969 0.1920 0.0614
v 0.1969 0.1800 0.0614
f 872/1 871/1 870/1 869/1
v 0.3297 0.1800 -0.1025
v 0.2743 0.1800 -0.1254
v 0.1969 0.1800 0.0614
v 0.2523 0.1800 0.0844
f 876/1 875/1 874/1 873/1
v 0.2523 0.1920 0.0844
v 0.1969 0.1920 0.0614
v 0.2743 0.1920 -0.1254
v 0.3297 0.1920 -0.1025
f 880/1 879/1 878/1 877/1
v 0.2523 0.1800 0.0844
v 0.1969 0.1800 0.0614
v 0.1969 0.1920 0.0614
v 0.2523 0.1920 0.0844
f 884/1 883/1 882/1 881/1
v 0.3297 0.1920 -0.1025
v 0.2743 0.1920 -0.1254
v 0.2743 0.1800 -0.1254
v 0.3297 0.1800 -0.1025
f 888/1 887/1 886/1 885/1
v 0.2131 0.1800 0.1006
v 0.2131 0.1920 0.1006
v 0.3999 0.1920 0.1780
v 0.3999 0.1800 0.1780
f 892/1 891/1 890/1 889/1
v 0.4229 0.1800 0.1226
v 0.4229 0.1920 0.1226
v 0.2361 0.1920 0.0452
v 0.2361 0.1800 0.0452
f 896/1 895/1 894/1 893/1
v 0.3999 0.1800 0.1780
v 0.4229 0.1800 0.1226
v 0.2361 0.1800 0.0452
v 0.2131 0.1800 0.1006
f 900/1 899/1 898/1 897/1
v 0.2131 0.1920 0.1006
v 0.2361 0.1920 0.0452
v 0.4229 0.1920 0.1226
v 0.3999 0.1920 0.1780
f 904/1 903/1 902/1 901/1
v 0.2131 0.1800 0.1006
v 0.2361 0.1800 0.0452
v 0.2361 0.1920 0.0452
v 0.2131 0.1920 0.1006
f 908/1 907/1 906/1 905/1
v 0.3999 0.1920 0.1780
v 0.4229 0.1920 0.1226
v 0.4229 0.1800 0.1226
v 0.3999 0.1800 0.1780
f 912/1 911/1 910/1 909/1
v 0.0310 0.1800 0.3813
v 0.0310 0.1920 0.3813
v -0.0464 0.1920 0.1944
v -0.0464 0.1800 0.1944
f 916/1 915/1 914/1 913/1
v -0.1019 0.1800 0.2174
v -0.1019 0.1920 0.2174
v -0.0245 0.1920 0.4042
v -0.0245 0.1800 0.4042
f 920/1 919/1 918/1 917/1
v -0.0464 0.1800 0.1944
v -0.1019 0.1800 0.2174
v -0.0245 0.1800 0.4042
v 0.0310 0.1800 0.3813
f 924/1 923/1 922/1 921/1
v 0.0310 0.1920 0.3813
v -0.0245 0.1920 0.4042
v -0.1019 0.1920 0.2174
v -0.0464 0.1920 0.1944
f 928/1 927/1 926/1 925/1
v 0.0310 0.1800 0.3813
v -0.0245 0.1800 0.4042
v -0.0245 0.1920 0.4042
v 0.0310 0.1920 0.3813
f 932/1 931/1 930/1 929/1
v -0.0464 0.1920 0.1944
v -0.1019 0.1920 0.2174
v -0.1019 0.1800 0.2174
v -0.0464 0.1800 0.1944
f 936/1 935/1 934/1 933/1
v 0.0147 0.1800 0.4204
v 0.0147 0.1920 0.4204
v 0.2016 0.1920 0.3431
v 0.2016 0.1800 0.3431
f 940/1 939/1 938/1 937/1
v 0.1786 0.1800 0.2876
v 0.1786 0.1920 0.2876
v -0.0082 0.1920 0.3650
v -0.0082 0.1800 0.3650
f 944/1 943/1 942/1 941/1
v 0.2016 0.1800 0.3431
v 0.1786 0.1800 0.2876
v -0.0082 0.1800 0.3650
v 0.0147 0.1800 0.4204
f 948/1 947/1 946/1 945/1
v 0.0147 0.1920 0.4204
v -0.0082 0.1920 0.3650
v 0.1786 0.1920 0.2876
v 0.2016 0.1920 0.3431
f 952/1 951/1 950/1 949/1
v 0.0147 0.1800 0.4204
v -0.0082 0.1800 0.3650
v -0.0082 0.1920 0.3650
v 0.0147 0.1920 0.4204
f 956/1 955/1 954/1 953/1
v 0.2016 0.1920 0.3431
v 0.1786 0.1920 0.2876
v 0.1786 0.1800 0.2876
v 0.2016 0.1800 0.3431
f 960/1 959/1 958/1 957/1
