# Walk of Industry low-poly (generated, wi_lib.py)
mtllib wi.mtl
vt 0 0
o Body
usemtl wi_lamp
v 0.0350 -0.0350 0.0350
v 0.0350 0.0350 0.0350
v 0.0350 0.0350 -0.0350
v 0.0350 -0.0350 -0.0350
f 4/1 3/1 2/1 1/1
v -0.0350 -0.0350 -0.0350
v -0.0350 0.0350 -0.0350
v -0.0350 0.0350 0.0350
v -0.0350 -0.0350 0.0350
f 8/1 7/1 6/1 5/1
v 0.0350 -0.0350 -0.0350
v -0.0350 -0.0350 -0.0350
v -0.0350 -0.0350 0.0350
v 0.0350 -0.0350 0.0350
f 12/1 11/1 10/1 9/1
v 0.0350 0.0350 0.0350
v -0.0350 0.0350 0.0350
v -0.0350 0.0350 -0.0350
v 0.0350 0.0350 -0.0350
f 16/1 15/1 14/1 13/1
v 0.0350 0.0350 -0.0350
v -0.0350 0.0350 -0.0350
v -0.0350 -0.0350 -0.0350
v 0.0350 -0.0350 -0.0350
f 20/1 19/1 18/1 17/1
v 0.0350 -0.0350 0.0350
v -0.0350 -0.0350 0.0350
v -0.0350 0.0350 0.0350
v 0.0350 0.0350 0.0350
f 24/1 23/1 22/1 21/1
