# Walk of Industry low-poly (generated, wi_lib.py)
mtllib wi.mtl
vt 0 0
o Body
usemtl wi_dark
v 0.2793 -0.0090 0.1389
v 0.2793 0.0090 0.1389
v 0.3033 0.0090 0.0731
v 0.3033 -0.0090 0.0731
f 4/1 3/1 2/1 1/1
v -0.2793 -0.0090 -0.1389
v -0.2793 0.0090 -0.1389
v -0.3033 0.0090 -0.0731
v -0.3033 -0.0090 -0.0731
f 8/1 7/1 6/1 5/1
v 0.3033 -0.0090 0.0731
v -0.2793 -0.0090 -0.1389
v -0.3033 -0.0090 -0.0731
v 0.2793 -0.0090 0.1389
f 12/1 11/1 10/1 9/1
v 0.2793 0.0090 0.1389
v -0.3033 0.0090 -0.0731
v -0.2793 0.0090 -0.1389
v 0.3033 0.0090 0.0731
f 16/1 15/1 14/1 13/1
v 0.3033 0.0090 0.0731
v -0.2793 0.0090 -0.1389
v -0.2793 -0.0090 -0.1389
v 0.3033 -0.0090 0.0731
f 20/1 19/1 18/1 17/1
v 0.2793 -0.0090 0.1389
v -0.3033 -0.0090 -0.0731
v -0.3033 0.0090 -0.0731
v 0.2793 0.0090 0.1389
f 24/1 23/1 22/1 21/1
v -0.1389 -0.0090 0.2793
v -0.1389 0.0090 0.2793
v -0.0731 0.0090 0.3033
v -0.0731 -0.0090 0.3033
f 28/1 27/1 26/1 25/1
v 0.1389 -0.0090 -0.2793
v 0.1389 0.0090 -0.2793
v 0.0731 0.0090 -0.3033
v 0.0731 -0.0090 -0.3033
f 32/1 31/1 30/1 29/1
v -0.0731 -0.0090 0.3033
v 0.1389 -0.0090 -0.2793
v 0.0731 -0.0090 -0.3033
v -0.1389 -0.0090 0.2793
f 36/1 35/1 34/1 33/1
v -0.1389 0.0090 0.2793
v 0.0731 0.0090 -0.3033
v 0.1389 0.0090 -0.2793
v -0.0731 0.0090 0.3033
f 40/1 39/1 38/1 37/1
v -0.0731 0.0090 0.3033
v 0.1389 0.0090 -0.2793
v 0.1389 -0.0090 -0.2793
v -0.0731 -0.0090 0.3033
f 44/1 43/1 42/1 41/1
v -0.1389 -0.0090 0.2793
v 0.0731 -0.0090 -0.3033
v 0.0731 0.0090 -0.3033
v -0.1389 0.0090 0.2793
f 48/1 47/1 46/1 45/1
usemtl wi_copper
v -0.0200 -0.0100 0.0346
v -0.0400 -0.0100 0.0000
v -0.0400 0.0200 0.0000
v -0.0200 0.0200 0.0346
f 52/1 51/1 50/1 49/1
v -0.0400 -0.0100 0.0000
v -0.0200 -0.0100 -0.0346
v -0.0200 0.0200 -0.0346
v -0.0400 0.0200 0.0000
f 56/1 55/1 54/1 53/1
v -0.0200 -0.0100 -0.0346
v 0.0200 -0.0100 -0.0346
v 0.0200 0.0200 -0.0346
v -0.0200 0.0200 -0.0346
f 60/1 59/1 58/1 57/1
v 0.0200 -0.0100 -0.0346
v 0.0400 -0.0100 -0.0000
v 0.0400 0.0200 -0.0000
v 0.0200 0.0200 -0.0346
f 64/1 63/1 62/1 61/1
v 0.0400 -0.0100 -0.0000
v 0.0200 -0.0100 0.0346
v 0.0200 0.0200 0.0346
v 0.0400 0.0200 -0.0000
f 68/1 67/1 66/1 65/1
v 0.0200 -0.0100 0.0346
v -0.0200 -0.0100 0.0346
v -0.0200 0.0200 0.0346
v 0.0200 0.0200 0.0346
f 72/1 71/1 70/1 69/1
v 0.0200 -0.0100 0.0346
v 0.0400 -0.0100 -0.0000
v 0.0200 -0.0100 -0.0346
v -0.0200 -0.0100 -0.0346
v -0.0400 -0.0100 0.0000
v -0.0200 -0.0100 0.0346
f 78/1 77/1 76/1 75/1 74/1 73/1
v -0.0200 0.0200 0.0346
v -0.0400 0.0200 0.0000
v -0.0200 0.0200 -0.0346
v 0.0200 0.0200 -0.0346
v 0.0400 0.0200 -0.0000
v 0.0200 0.0200 0.0346
f 84/1 83/1 82/1 81/1 80/1 79/1
