# Walk of Industry low-poly (generated, wi_lib.py)
mtllib wi.mtl
vt 0 0
o Body
usemtl wi_copper
v 0.2600 0.0927 0.2853
v 0.2600 0.2427 0.1763
v 0.3000 0.2427 0.1763
v 0.3000 0.0927 0.2853
f 4/1 3/1 2/1 1/1
v 0.2600 0.2427 0.1763
v 0.2600 0.3000 0.0000
v 0.3000 0.3000 0.0000
v 0.3000 0.2427 0.1763
f 8/1 7/1 6/1 5/1
v 0.2600 0.3000 0.0000
v 0.2600 0.2427 -0.1763
v 0.3000 0.2427 -0.1763
v 0.3000 0.3000 0.0000
f 12/1 11/1 10/1 9/1
v 0.2600 0.2427 -0.1763
v 0.2600 0.0927 -0.2853
v 0.3000 0.0927 -0.2853
v 0.3000 0.2427 -0.1763
f 16/1 15/1 14/1 13/1
v 0.2600 0.0927 -0.2853
v 0.2600 -0.0927 -0.2853
v 0.3000 -0.0927 -0.2853
v 0.3000 0.0927 -0.2853
f 20/1 19/1 18/1 17/1
v 0.2600 -0.0927 -0.2853
v 0.2600 -0.2427 -0.1763
v 0.3000 -0.2427 -0.1763
v 0.3000 -0.0927 -0.2853
f 24/1 23/1 22/1 21/1
v 0.2600 -0.2427 -0.1763
v 0.2600 -0.3000 0.0000
v 0.3000 -0.3000 0.0000
v 0.3000 -0.2427 -0.1763
f 28/1 27/1 26/1 25/1
v 0.2600 -0.3000 0.0000
v 0.2600 -0.2427 0.1763
v 0.3000 -0.2427 0.1763
v 0.3000 -0.3000 0.0000
f 32/1 31/1 30/1 29/1
v 0.2600 -0.2427 0.1763
v 0.2600 -0.0927 0.2853
v 0.3000 -0.0927 0.2853
v 0.3000 -0.2427 0.1763
f 36/1 35/1 34/1 33/1
v 0.2600 -0.0927 0.2853
v 0.2600 0.0927 0.2853
v 0.3000 0.0927 0.2853
v 0.3000 -0.0927 0.2853
f 40/1 39/1 38/1 37/1
v 0.2600 -0.0927 0.2853
v 0.2600 -0.2427 0.1763
v 0.2600 -0.3000 0.0000
v 0.2600 -0.2427 -0.1763
v 0.2600 -0.0927 -0.2853
v 0.2600 0.0927 -0.2853
v 0.2600 0.2427 -0.1763
v 0.2600 0.3000 0.0000
v 0.2600 0.2427 0.1763
v 0.2600 0.0927 0.2853
f 50/1 49/1 48/1 47/1 46/1 45/1 44/1 43/1 42/1 41/1
v 0.3000 0.0927 0.2853
v 0.3000 0.2427 0.1763
v 0.3000 0.3000 0.0000
v 0.3000 0.2427 -0.1763
v 0.3000 0.0927 -0.2853
v 0.3000 -0.0927 -0.2853
v 0.3000 -0.2427 -0.1763
v 0.3000 -0.3000 0.0000
v 0.3000 -0.2427 0.1763
v 0.3000 -0.0927 0.2853
f 60/1 59/1 58/1 57/1 56/1 55/1 54/1 53/1 52/1 51/1
usemtl wi_steel
v 0.3050 0.2800 -0.0250
v 0.2550 0.2800 -0.0250
v 0.2550 0.0000 -0.0250
v 0.3050 0.0000 -0.0250
f 64/1 63/1 62/1 61/1
v 0.3050 0.0000 0.0250
v 0.2550 0.0000 0.0250
v 0.2550 0.2800 0.0250
v 0.3050 0.2800 0.0250
f 68/1 67/1 66/1 65/1
v 0.3050 0.0000 -0.0250
v 0.3050 0.0000 0.0250
v 0.3050 0.2800 0.0250
v 0.3050 0.2800 -0.0250
f 72/1 71/1 70/1 69/1
v 0.2550 0.2800 -0.0250
v 0.2550 0.2800 0.0250
v 0.2550 0.0000 0.0250
v 0.2550 0.0000 -0.0250
f 76/1 75/1 74/1 73/1
v 0.2550 0.0000 -0.0250
v 0.2550 0.0000 0.0250
v 0.3050 0.0000 0.0250
v 0.3050 0.0000 -0.0250
f 80/1 79/1 78/1 77/1
v 0.3050 0.2800 -0.0250
v 0.3050 0.2800 0.0250
v 0.2550 0.2800 0.0250
v 0.2550 0.2800 -0.0250
f 84/1 83/1 82/1 81/1
usemtl wi_copper
v -0.2600 0.0927 -0.2853
v -0.2600 0.2427 -0.1763
v -0.3000 0.2427 -0.1763
v -0.3000 0.0927 -0.2853
f 88/1 87/1 86/1 85/1
v -0.2600 0.2427 -0.1763
v -0.2600 0.3000 0.0000
v -0.3000 0.3000 0.0000
v -0.3000 0.2427 -0.1763
f 92/1 91/1 90/1 89/1
v -0.2600 0.3000 0.0000
v -0.2600 0.2427 0.1763
v -0.3000 0.2427 0.1763
v -0.3000 0.3000 0.0000
f 96/1 95/1 94/1 93/1
v -0.2600 0.2427 0.1763
v -0.2600 0.0927 0.2853
v -0.3000 0.0927 0.2853
v -0.3000 0.2427 0.1763
f 100/1 99/1 98/1 97/1
v -0.2600 0.0927 0.2853
v -0.2600 -0.0927 0.2853
v -0.3000 -0.0927 0.2853
v -0.3000 0.0927 0.2853
f 104/1 103/1 102/1 101/1
v -0.2600 -0.0927 0.2853
v -0.2600 -0.2427 0.1763
v -0.3000 -0.2427 0.1763
v -0.3000 -0.0927 0.2853
f 108/1 107/1 106/1 105/1
v -0.2600 -0.2427 0.1763
v -0.2600 -0.3000 0.0000
v -0.3000 -0.3000 0.0000
v -0.3000 -0.2427 0.1763
f 112/1 111/1 110/1 109/1
v -0.2600 -0.3000 0.0000
v -0.2600 -0.2427 -0.1763
v -0.3000 -0.2427 -0.1763
v -0.3000 -0.3000 0.0000
f 116/1 115/1 114/1 113/1
v -0.2600 -0.2427 -0.1763
v -0.2600 -0.0927 -0.2853
v -0.3000 -0.0927 -0.2853
v -0.3000 -0.2427 -0.1763
f 120/1 119/1 118/1 117/1
v -0.2600 -0.0927 -0.2853
v -0.2600 0.0927 -0.2853
v -0.3000 0.0927 -0.2853
v -0.3000 -0.0927 -0.2853
f 124/1 123/1 122/1 121/1
v -0.2600 -0.0927 -0.2853
v -0.2600 -0.2427 -0.1763
v -0.2600 -0.3000 0.0000
v -0.2600 -0.2427 0.1763
v -0.2600 -0.0927 0.2853
v -0.2600 0.0927 0.2853
v -0.2600 0.2427 0.1763
v -0.2600 0.3000 0.0000
v -0.2600 0.2427 -0.1763
v -0.2600 0.0927 -0.2853
f 134/1 133/1 132/1 131/1 130/1 129/1 128/1 127/1 126/1 125/1
v -0.3000 0.0927 -0.2853
v -0.3000 0.2427 -0.1763
v -0.3000 0.3000 0.0000
v -0.3000 0.2427 0.1763
v -0.3000 0.0927 0.2853
v -0.3000 -0.0927 0.2853
v -0.3000 -0.2427 0.1763
v -0.3000 -0.3000 0.0000
v -0.3000 -0.2427 -0.1763
v -0.3000 -0.0927 -0.2853
f 144/1 143/1 142/1 141/1 140/1 139/1 138/1 137/1 136/1 135/1
usemtl wi_steel
v -0.2550 0.2800 -0.0250
v -0.3050 0.2800 -0.0250
v -0.3050 0.0000 -0.0250
v -0.2550 0.0000 -0.0250
f 148/1 147/1 146/1 145/1
v -0.2550 0.0000 0.0250
v -0.3050 0.0000 0.0250
v -0.3050 0.2800 0.0250
v -0.2550 0.2800 0.0250
f 152/1 151/1 150/1 149/1
v -0.2550 0.0000 -0.0250
v -0.2550 0.0000 0.0250
v -0.2550 0.2800 0.0250
v -0.2550 0.2800 -0.0250
f 156/1 155/1 154/1 153/1
v -0.3050 0.2800 -0.0250
v -0.3050 0.2800 0.0250
v -0.3050 0.0000 0.0250
v -0.3050 0.0000 -0.0250
f 160/1 159/1 158/1 157/1
v -0.3050 0.0000 -0.0250
v -0.3050 0.0000 0.0250
v -0.2550 0.0000 0.0250
v -0.2550 0.0000 -0.0250
f 164/1 163/1 162/1 161/1
v -0.2550 0.2800 -0.0250
v -0.2550 0.2800 0.0250
v -0.3050 0.2800 0.0250
v -0.3050 0.2800 -0.0250
f 168/1 167/1 166/1 165/1
