# Walk of Industry low-poly (generated, wi_lib.py)
mtllib wi.mtl
vt 0 0
o Pipe
usemtl wi_steel
v -0.5137 0.3340 0.1037
v -0.5084 0.3890 0.0641
v -0.3790 0.3890 0.0811
v -0.3842 0.3340 0.1208
f 4/1 3/1 2/1 1/1
v -0.5084 0.3890 0.0641
v -0.5000 0.4100 0.0000
v -0.3706 0.4100 0.0170
v -0.3790 0.3890 0.0811
f 8/1 7/1 6/1 5/1
v -0.5000 0.4100 0.0000
v -0.4916 0.3890 -0.0641
v -0.3622 0.3890 -0.0471
v -0.3706 0.4100 0.0170
f 12/1 11/1 10/1 9/1
v -0.4916 0.3890 -0.0641
v -0.4863 0.3340 -0.1037
v -0.3569 0.3340 -0.0867
v -0.3622 0.3890 -0.0471
f 16/1 15/1 14/1 13/1
v -0.4863 0.3340 -0.1037
v -0.4863 0.2660 -0.1037
v -0.3569 0.2660 -0.0867
v -0.3569 0.3340 -0.0867
f 20/1 19/1 18/1 17/1
v -0.4863 0.2660 -0.1037
v -0.4916 0.2110 -0.0641
v -0.3622 0.2110 -0.0471
v -0.3569 0.2660 -0.0867
f 24/1 23/1 22/1 21/1
v -0.4916 0.2110 -0.0641
v -0.5000 0.1900 -0.0000
v -0.3706 0.1900 0.0170
v -0.3622 0.2110 -0.0471
f 28/1 27/1 26/1 25/1
v -0.5000 0.1900 -0.0000
v -0.5084 0.2110 0.0641
v -0.3790 0.2110 0.0811
v -0.3706 0.1900 0.0170
f 32/1 31/1 30/1 29/1
v -0.5084 0.2110 0.0641
v -0.5137 0.2660 0.1037
v -0.3842 0.2660 0.1208
v -0.3790 0.2110 0.0811
f 36/1 35/1 34/1 33/1
v -0.5137 0.2660 0.1037
v -0.5137 0.3340 0.1037
v -0.3842 0.3340 0.1208
v -0.3842 0.2660 0.1208
f 40/1 39/1 38/1 37/1
v -0.5137 0.2660 0.1037
v -0.5084 0.2110 0.0641
v -0.5000 0.1900 -0.0000
v -0.4916 0.2110 -0.0641
v -0.4863 0.2660 -0.1037
v -0.4863 0.3340 -0.1037
v -0.4916 0.3890 -0.0641
v -0.5000 0.4100 0.0000
v -0.5084 0.3890 0.0641
v -0.5137 0.3340 0.1037
f 50/1 49/1 48/1 47/1 46/1 45/1 44/1 43/1 42/1 41/1
v -0.3842 0.3340 0.1208
v -0.3790 0.3890 0.0811
v -0.3706 0.4100 0.0170
v -0.3622 0.3890 -0.0471
v -0.3569 0.3340 -0.0867
v -0.3569 0.2660 -0.0867
v -0.3622 0.2110 -0.0471
v -0.3706 0.1900 0.0170
v -0.3790 0.2110 0.0811
v -0.3842 0.2660 0.1208
f 60/1 59/1 58/1 57/1 56/1 55/1 54/1 53/1 52/1 51/1
v -0.4106 0.3340 0.1137
v -0.3953 0.3890 0.0768
v -0.2747 0.3890 0.1267
v -0.2900 0.3340 0.1636
f 64/1 63/1 62/1 61/1
v -0.3953 0.3890 0.0768
v -0.3706 0.4100 0.0170
v -0.2500 0.4100 0.0670
v -0.2747 0.3890 0.1267
f 68/1 67/1 66/1 65/1
v -0.3706 0.4100 0.0170
v -0.3458 0.3890 -0.0427
v -0.2253 0.3890 0.0073
v -0.2500 0.4100 0.0670
f 72/1 71/1 70/1 69/1
v -0.3458 0.3890 -0.0427
v -0.3306 0.3340 -0.0796
v -0.2100 0.3340 -0.0297
v -0.2253 0.3890 0.0073
f 76/1 75/1 74/1 73/1
v -0.3306 0.3340 -0.0796
v -0.3306 0.2660 -0.0796
v -0.2100 0.2660 -0.0297
v -0.2100 0.3340 -0.0297
f 80/1 79/1 78/1 77/1
v -0.3306 0.2660 -0.0796
v -0.3458 0.2110 -0.0427
v -0.2253 0.2110 0.0073
v -0.2100 0.2660 -0.0297
f 84/1 83/1 82/1 81/1
v -0.3458 0.2110 -0.0427
v -0.3706 0.1900 0.0170
v -0.2500 0.1900 0.0670
v -0.2253 0.2110 0.0073
f 88/1 87/1 86/1 85/1
v -0.3706 0.1900 0.0170
v -0.3953 0.2110 0.0768
v -0.2747 0.2110 0.1267
v -0.2500 0.1900 0.0670
f 92/1 91/1 90/1 89/1
v -0.3953 0.2110 0.0768
v -0.4106 0.2660 0.1137
v -0.2900 0.2660 0.1636
v -0.2747 0.2110 0.1267
f 96/1 95/1 94/1 93/1
v -0.4106 0.2660 0.1137
v -0.4106 0.3340 0.1137
v -0.2900 0.3340 0.1636
v -0.2900 0.2660 0.1636
f 100/1 99/1 98/1 97/1
v -0.4106 0.2660 0.1137
v -0.3953 0.2110 0.0768
v -0.3706 0.1900 0.0170
v -0.3458 0.2110 -0.0427
v -0.3306 0.2660 -0.0796
v -0.3306 0.3340 -0.0796
v -0.3458 0.3890 -0.0427
v -0.3706 0.4100 0.0170
v -0.3953 0.3890 0.0768
v -0.4106 0.3340 0.1137
f 110/1 109/1 108/1 107/1 106/1 105/1 104/1 103/1 102/1 101/1
v -0.2900 0.3340 0.1636
v -0.2747 0.3890 0.1267
v -0.2500 0.4100 0.0670
v -0.2253 0.3890 0.0073
v -0.2100 0.3340 -0.0297
v -0.2100 0.2660 -0.0297
v -0.2253 0.2110 0.0073
v -0.2500 0.1900 0.0670
v -0.2747 0.2110 0.1267
v -0.2900 0.2660 0.1636
f 120/1 119/1 118/1 117/1 116/1 115/1 114/1 113/1 112/1 111/1
v -0.3137 0.3340 0.1500
v -0.2894 0.3890 0.1183
v -0.1858 0.3890 0.1977
v -0.2101 0.3340 0.2294
f 124/1 123/1 122/1 121/1
v -0.2894 0.3890 0.1183
v -0.2500 0.4100 0.0670
v -0.1464 0.4100 0.1464
v -0.1858 0.3890 0.1977
f 128/1 127/1 126/1 125/1
v -0.2500 0.4100 0.0670
v -0.2106 0.3890 0.0157
v -0.1071 0.3890 0.0952
v -0.1464 0.4100 0.1464
f 132/1 131/1 130/1 129/1
v -0.2106 0.3890 0.0157
v -0.1863 0.3340 -0.0160
v -0.0828 0.3340 0.0634
v -0.1071 0.3890 0.0952
f 136/1 135/1 134/1 133/1
v -0.1863 0.3340 -0.0160
v -0.1863 0.2660 -0.0160
v -0.0828 0.2660 0.0634
v -0.0828 0.3340 0.0634
f 140/1 139/1 138/1 137/1
v -0.1863 0.2660 -0.0160
v -0.2106 0.2110 0.0157
v -0.1071 0.2110 0.0952
v -0.0828 0.2660 0.0634
f 144/1 143/1 142/1 141/1
v -0.2106 0.2110 0.0157
v -0.2500 0.1900 0.0670
v -0.1464 0.1900 0.1464
v -0.1071 0.2110 0.0952
f 148/1 147/1 146/1 145/1
v -0.2500 0.1900 0.0670
v -0.2894 0.2110 0.1183
v -0.1858 0.2110 0.1977
v -0.1464 0.1900 0.1464
f 152/1 151/1 150/1 149/1
v -0.2894 0.2110 0.1183
v -0.3137 0.2660 0.1500
v -0.2101 0.2660 0.2294
v -0.1858 0.2110 0.1977
f 156/1 155/1 154/1 153/1
v -0.3137 0.2660 0.1500
v -0.3137 0.3340 0.1500
v -0.2101 0.3340 0.2294
v -0.2101 0.2660 0.2294
f 160/1 159/1 158/1 157/1
v -0.3137 0.2660 0.1500
v -0.2894 0.2110 0.1183
v -0.2500 0.1900 0.0670
v -0.2106 0.2110 0.0157
v -0.1863 0.2660 -0.0160
v -0.1863 0.3340 -0.0160
v -0.2106 0.3890 0.0157
v -0.2500 0.4100 0.0670
v -0.2894 0.3890 0.1183
v -0.3137 0.3340 0.1500
f 170/1 169/1 168/1 167/1 166/1 165/1 164/1 163/1 162/1 161/1
v -0.2101 0.3340 0.2294
v -0.1858 0.3890 0.1977
v -0.1464 0.4100 0.1464
v -0.1071 0.3890 0.0952
v -0.0828 0.3340 0.0634
v -0.0828 0.2660 0.0634
v -0.1071 0.2110 0.0952
v -0.1464 0.1900 0.1464
v -0.1858 0.2110 0.1977
v -0.2101 0.2660 0.2294
f 180/1 179/1 178/1 177/1 176/1 175/1 174/1 173/1 172/1 171/1
v -0.2294 0.3340 0.2101
v -0.1977 0.3890 0.1858
v -0.1183 0.3890 0.2894
v -0.1500 0.3340 0.3137
f 184/1 183/1 182/1 181/1
v -0.1977 0.3890 0.1858
v -0.1464 0.4100 0.1464
v -0.0670 0.4100 0.2500
v -0.1183 0.3890 0.2894
f 188/1 187/1 186/1 185/1
v -0.1464 0.4100 0.1464
v -0.0952 0.3890 0.1071
v -0.0157 0.3890 0.2106
v -0.0670 0.4100 0.2500
f 192/1 191/1 190/1 189/1
v -0.0952 0.3890 0.1071
v -0.0634 0.3340 0.0828
v 0.0160 0.3340 0.1863
v -0.0157 0.3890 0.2106
f 196/1 195/1 194/1 193/1
v -0.0634 0.3340 0.0828
v -0.0634 0.2660 0.0828
v 0.0160 0.2660 0.1863
v 0.0160 0.3340 0.1863
f 200/1 199/1 198/1 197/1
v -0.0634 0.2660 0.0828
v -0.0952 0.2110 0.1071
v -0.0157 0.2110 0.2106
v 0.0160 0.2660 0.1863
f 204/1 203/1 202/1 201/1
v -0.0952 0.2110 0.1071
v -0.1464 0.1900 0.1464
v -0.0670 0.1900 0.2500
v -0.0157 0.2110 0.2106
f 208/1 207/1 206/1 205/1
v -0.1464 0.1900 0.1464
v -0.1977 0.2110 0.1858
v -0.1183 0.2110 0.2894
v -0.0670 0.1900 0.2500
f 212/1 211/1 210/1 209/1
v -0.1977 0.2110 0.1858
v -0.2294 0.2660 0.2101
v -0.1500 0.2660 0.3137
v -0.1183 0.2110 0.2894
f 216/1 215/1 214/1 213/1
v -0.2294 0.2660 0.2101
v -0.2294 0.3340 0.2101
v -0.1500 0.3340 0.3137
v -0.1500 0.2660 0.3137
f 220/1 219/1 218/1 217/1
v -0.2294 0.2660 0.2101
v -0.1977 0.2110 0.1858
v -0.1464 0.1900 0.1464
v -0.0952 0.2110 0.1071
v -0.0634 0.2660 0.0828
v -0.0634 0.3340 0.0828
v -0.0952 0.3890 0.1071
v -0.1464 0.4100 0.1464
v -0.1977 0.3890 0.1858
v -0.2294 0.3340 0.2101
f 230/1 229/1 228/1 227/1 226/1 225/1 224/1 223/1 222/1 221/1
v -0.1500 0.3340 0.3137
v -0.1183 0.3890 0.2894
v -0.0670 0.4100 0.2500
v -0.0157 0.3890 0.2106
v 0.0160 0.3340 0.1863
v 0.0160 0.2660 0.1863
v -0.0157 0.2110 0.2106
v -0.0670 0.1900 0.2500
v -0.1183 0.2110 0.2894
v -0.1500 0.2660 0.3137
f 240/1 239/1 238/1 237/1 236/1 235/1 234/1 233/1 232/1 231/1
v -0.1636 0.3340 0.2900
v -0.1267 0.3890 0.2747
v -0.0768 0.3890 0.3953
v -0.1137 0.3340 0.4106
f 244/1 243/1 242/1 241/1
v -0.1267 0.3890 0.2747
v -0.0670 0.4100 0.2500
v -0.0170 0.4100 0.3706
v -0.0768 0.3890 0.3953
f 248/1 247/1 246/1 245/1
v -0.0670 0.4100 0.2500
v -0.0073 0.3890 0.2253
v 0.0427 0.3890 0.3458
v -0.0170 0.4100 0.3706
f 252/1 251/1 250/1 249/1
v -0.0073 0.3890 0.2253
v 0.0297 0.3340 0.2100
v 0.0796 0.3340 0.3306
v 0.0427 0.3890 0.3458
f 256/1 255/1 254/1 253/1
v 0.0297 0.3340 0.2100
v 0.0297 0.2660 0.2100
v 0.0796 0.2660 0.3306
v 0.0796 0.3340 0.3306
f 260/1 259/1 258/1 257/1
v 0.0297 0.2660 0.2100
v -0.0073 0.2110 0.2253
v 0.0427 0.2110 0.3458
v 0.0796 0.2660 0.3306
f 264/1 263/1 262/1 261/1
v -0.0073 0.2110 0.2253
v -0.0670 0.1900 0.2500
v -0.0170 0.1900 0.3706
v 0.0427 0.2110 0.3458
f 268/1 267/1 266/1 265/1
v -0.0670 0.1900 0.2500
v -0.1267 0.2110 0.2747
v -0.0768 0.2110 0.3953
v -0.0170 0.1900 0.3706
f 272/1 271/1 270/1 269/1
v -0.1267 0.2110 0.2747
v -0.1636 0.2660 0.2900
v -0.1137 0.2660 0.4106
v -0.0768 0.2110 0.3953
f 276/1 275/1 274/1 273/1
v -0.1636 0.2660 0.2900
v -0.1636 0.3340 0.2900
v -0.1137 0.3340 0.4106
v -0.1137 0.2660 0.4106
f 280/1 279/1 278/1 277/1
v -0.1636 0.2660 0.2900
v -0.1267 0.2110 0.2747
v -0.0670 0.1900 0.2500
v -0.0073 0.2110 0.2253
v 0.0297 0.2660 0.2100
v 0.0297 0.3340 0.2100
v -0.0073 0.3890 0.2253
v -0.0670 0.4100 0.2500
v -0.1267 0.3890 0.2747
v -0.1636 0.3340 0.2900
f 290/1 289/1 288/1 287/1 286/1 285/1 284/1 283/1 282/1 281/1
v -0.1137 0.3340 0.4106
v -0.0768 0.3890 0.3953
v -0.0170 0.4100 0.3706
v 0.0427 0.3890 0.3458
v 0.0796 0.3340 0.3306
v 0.0796 0.2660 0.3306
v 0.0427 0.2110 0.3458
v -0.0170 0.1900 0.3706
v -0.0768 0.2110 0.3953
v -0.1137 0.2660 0.4106
f 300/1 299/1 298/1 297/1 296/1 295/1 294/1 293/1 292/1 291/1
v -0.1208 0.3340 0.3842
v -0.0811 0.3890 0.3790
v -0.0641 0.3890 0.5084
v -0.1037 0.3340 0.5137
f 304/1 303/1 302/1 301/1
v -0.0811 0.3890 0.3790
v -0.0170 0.4100 0.3706
v -0.0000 0.4100 0.5000
v -0.0641 0.3890 0.5084
f 308/1 307/1 306/1 305/1
v -0.0170 0.4100 0.3706
v 0.0471 0.3890 0.3622
v 0.0641 0.3890 0.4916
v -0.0000 0.4100 0.5000
f 312/1 311/1 310/1 309/1
v 0.0471 0.3890 0.3622
v 0.0867 0.3340 0.3569
v 0.1037 0.3340 0.4863
v 0.0641 0.3890 0.4916
f 316/1 315/1 314/1 313/1
v 0.0867 0.3340 0.3569
v 0.0867 0.2660 0.3569
v 0.1037 0.2660 0.4863
v 0.1037 0.3340 0.4863
f 320/1 319/1 318/1 317/1
v 0.0867 0.2660 0.3569
v 0.0471 0.2110 0.3622
v 0.0641 0.2110 0.4916
v 0.1037 0.2660 0.4863
f 324/1 323/1 322/1 321/1
v 0.0471 0.2110 0.3622
v -0.0170 0.1900 0.3706
v 0.0000 0.1900 0.5000
v 0.0641 0.2110 0.4916
f 328/1 327/1 326/1 325/1
v -0.0170 0.1900 0.3706
v -0.0811 0.2110 0.3790
v -0.0641 0.2110 0.5084
v 0.0000 0.1900 0.5000
f 332/1 331/1 330/1 329/1
v -0.0811 0.2110 0.3790
v -0.1208 0.2660 0.3842
v -0.1037 0.2660 0.5137
v -0.0641 0.2110 0.5084
f 336/1 335/1 334/1 333/1
v -0.1208 0.2660 0.3842
v -0.1208 0.3340 0.3842
v -0.1037 0.3340 0.5137
v -0.1037 0.2660 0.5137
f 340/1 339/1 338/1 337/1
v -0.1208 0.2660 0.3842
v -0.0811 0.2110 0.3790
v -0.0170 0.1900 0.3706
v 0.0471 0.2110 0.3622
v 0.0867 0.2660 0.3569
v 0.0867 0.3340 0.3569
v 0.0471 0.3890 0.3622
v -0.0170 0.4100 0.3706
v -0.0811 0.3890 0.3790
v -0.1208 0.3340 0.3842
f 350/1 349/1 348/1 347/1 346/1 345/1 344/1 343/1 342/1 341/1
v -0.1037 0.3340 0.5137
v -0.0641 0.3890 0.5084
v -0.0000 0.4100 0.5000
v 0.0641 0.3890 0.4916
v 0.1037 0.3340 0.4863
v 0.1037 0.2660 0.4863
v 0.0641 0.2110 0.4916
v 0.0000 0.1900 0.5000
v -0.0641 0.2110 0.5084
v -0.1037 0.2660 0.5137
f 360/1 359/1 358/1 357/1 356/1 355/1 354/1 353/1 352/1 351/1
usemtl wi_copper
v -0.4380 0.3448 -0.1379
v -0.4380 0.4173 -0.0852
v -0.4820 0.4173 -0.0852
v -0.4820 0.3448 -0.1379
f 364/1 363/1 362/1 361/1
v -0.4380 0.4173 -0.0852
v -0.4380 0.4450 -0.0000
v -0.4820 0.4450 -0.0000
v -0.4820 0.4173 -0.0852
f 368/1 367/1 366/1 365/1
v -0.4380 0.4450 -0.0000
v -0.4380 0.4173 0.0852
v -0.4820 0.4173 0.0852
v -0.4820 0.4450 -0.0000
f 372/1 371/1 370/1 369/1
v -0.4380 0.4173 0.0852
v -0.4380 0.3448 0.1379
v -0.4820 0.3448 0.1379
v -0.4820 0.4173 0.0852
f 376/1 375/1 374/1 373/1
v -0.4380 0.3448 0.1379
v -0.4380 0.2552 0.1379
v -0.4820 0.2552 0.1379
v -0.4820 0.3448 0.1379
f 380/1 379/1 378/1 377/1
v -0.4380 0.2552 0.1379
v -0.4380 0.1827 0.0852
v -0.4820 0.1827 0.0852
v -0.4820 0.2552 0.1379
f 384/1 383/1 382/1 381/1
v -0.4380 0.1827 0.0852
v -0.4380 0.1550 0.0000
v -0.4820 0.1550 0.0000
v -0.4820 0.1827 0.0852
f 388/1 387/1 386/1 385/1
v -0.4380 0.1550 0.0000
v -0.4380 0.1827 -0.0852
v -0.4820 0.1827 -0.0852
v -0.4820 0.1550 0.0000
f 392/1 391/1 390/1 389/1
v -0.4380 0.1827 -0.0852
v -0.4380 0.2552 -0.1379
v -0.4820 0.2552 -0.1379
v -0.4820 0.1827 -0.0852
f 396/1 395/1 394/1 393/1
v -0.4380 0.2552 -0.1379
v -0.4380 0.3448 -0.1379
v -0.4820 0.3448 -0.1379
v -0.4820 0.2552 -0.1379
f 400/1 399/1 398/1 397/1
v -0.4380 0.2552 -0.1379
v -0.4380 0.1827 -0.0852
v -0.4380 0.1550 0.0000
v -0.4380 0.1827 0.0852
v -0.4380 0.2552 0.1379
v -0.4380 0.3448 0.1379
v -0.4380 0.4173 0.0852
v -0.4380 0.4450 -0.0000
v -0.4380 0.4173 -0.0852
v -0.4380 0.3448 -0.1379
f 410/1 409/1 408/1 407/1 406/1 405/1 404/1 403/1 402/1 401/1
v -0.4820 0.3448 -0.1379
v -0.4820 0.4173 -0.0852
v -0.4820 0.4450 -0.0000
v -0.4820 0.4173 0.0852
v -0.4820 0.3448 0.1379
v -0.4820 0.2552 0.1379
v -0.4820 0.1827 0.0852
v -0.4820 0.1550 0.0000
v -0.4820 0.1827 -0.0852
v -0.4820 0.2552 -0.1379
f 420/1 419/1 418/1 417/1 416/1 415/1 414/1 413/1 412/1 411/1
v -0.1379 0.3448 0.4380
v -0.0852 0.4173 0.4380
v -0.0852 0.4173 0.4820
v -0.1379 0.3448 0.4820
f 424/1 423/1 422/1 421/1
v -0.0852 0.4173 0.4380
v -0.0000 0.4450 0.4380
v -0.0000 0.4450 0.4820
v -0.0852 0.4173 0.4820
f 428/1 427/1 426/1 425/1
v -0.0000 0.4450 0.4380
v 0.0852 0.4173 0.4380
v 0.0852 0.4173 0.4820
v -0.0000 0.4450 0.4820
f 432/1 431/1 430/1 429/1
v 0.0852 0.4173 0.4380
v 0.1379 0.3448 0.4380
v 0.1379 0.3448 0.4820
v 0.0852 0.4173 0.4820
f 436/1 435/1 434/1 433/1
v 0.1379 0.3448 0.4380
v 0.1379 0.2552 0.4380
v 0.1379 0.2552 0.4820
v 0.1379 0.3448 0.4820
f 440/1 439/1 438/1 437/1
v 0.1379 0.2552 0.4380
v 0.0852 0.1827 0.4380
v 0.0852 0.1827 0.4820
v 0.1379 0.2552 0.4820
f 444/1 443/1 442/1 441/1
v 0.0852 0.1827 0.4380
v 0.0000 0.1550 0.4380
v 0.0000 0.1550 0.4820
v 0.0852 0.1827 0.4820
f 448/1 447/1 446/1 445/1
v 0.0000 0.1550 0.4380
v -0.0852 0.1827 0.4380
v -0.0852 0.1827 0.4820
v 0.0000 0.1550 0.4820
f 452/1 451/1 450/1 449/1
v -0.0852 0.1827 0.4380
v -0.1379 0.2552 0.4380
v -0.1379 0.2552 0.4820
v -0.0852 0.1827 0.4820
f 456/1 455/1 454/1 453/1
v -0.1379 0.2552 0.4380
v -0.1379 0.3448 0.4380
v -0.1379 0.3448 0.4820
v -0.1379 0.2552 0.4820
f 460/1 459/1 458/1 457/1
v -0.1379 0.2552 0.4380
v -0.0852 0.1827 0.4380
v 0.0000 0.1550 0.4380
v 0.0852 0.1827 0.4380
v 0.1379 0.2552 0.4380
v 0.1379 0.3448 0.4380
v 0.0852 0.4173 0.4380
v -0.0000 0.4450 0.4380
v -0.0852 0.4173 0.4380
v -0.1379 0.3448 0.4380
f 470/1 469/1 468/1 467/1 466/1 465/1 464/1 463/1 462/1 461/1
v -0.1379 0.3448 0.4820
v -0.0852 0.4173 0.4820
v -0.0000 0.4450 0.4820
v 0.0852 0.4173 0.4820
v 0.1379 0.3448 0.4820
v 0.1379 0.2552 0.4820
v 0.0852 0.1827 0.4820
v 0.0000 0.1550 0.4820
v -0.0852 0.1827 0.4820
v -0.1379 0.2552 0.4820
f 480/1 479/1 478/1 477/1 476/1 475/1 474/1 473/1 472/1 471/1
usemtl wi_dark
v -0.0400 0.0000 0.1700
v -0.0400 0.1900 0.1700
v -0.0400 0.1900 0.0700
v -0.0400 0.0000 0.0700
f 484/1 483/1 482/1 481/1
v -0.2000 0.0000 0.0700
v -0.2000 0.1900 0.0700
v -0.2000 0.1900 0.1700
v -0.2000 0.0000 0.1700
f 488/1 487/1 486/1 485/1
v -0.0400 0.0000 0.0700
v -0.2000 0.0000 0.0700
v -0.2000 0.0000 0.1700
v -0.0400 0.0000 0.1700
f 492/1 491/1 490/1 489/1
v -0.0400 0.1900 0.1700
v -0.2000 0.1900 0.1700
v -0.2000 0.1900 0.0700
v -0.0400 0.1900 0.0700
f 496/1 495/1 494/1 493/1
v -0.0400 0.1900 0.0700
v -0.2000 0.1900 0.0700
v -0.2000 0.0000 0.0700
v -0.0400 0.0000 0.0700
f 500/1 499/1 498/1 497/1
v -0.0400 0.0000 0.1700
v -0.2000 0.0000 0.1700
v -0.2000 0.1900 0.1700
v -0.0400 0.1900 0.1700
f 504/1 503/1 502/1 501/1
o Arrows
usemtl wi_yellow
v -0.1268 0.4160 0.0616
v -0.1268 0.4280 0.0616
v -0.1268 0.4280 0.1860
v -0.1268 0.4160 0.1860
f 508/1 507/1 506/1 505/1
v -0.0868 0.4160 0.1860
v -0.0868 0.4280 0.1860
v -0.0868 0.4280 0.0616
v -0.0868 0.4160 0.0616
f 512/1 511/1 510/1 509/1
v -0.1268 0.4160 0.1860
v -0.0868 0.4160 0.1860
v -0.0868 0.4160 0.0616
v -0.1268 0.4160 0.0616
f 516/1 515/1 514/1 513/1
v -0.1268 0.4280 0.0616
v -0.0868 0.4280 0.0616
v -0.0868 0.4280 0.1860
v -0.1268 0.4280 0.1860
f 520/1 519/1 518/1 517/1
v -0.1268 0.4280 0.1860
v -0.0868 0.4280 0.1860
v -0.0868 0.4160 0.1860
v -0.1268 0.4160 0.1860
f 524/1 523/1 522/1 521/1
v -0.1268 0.4160 0.0616
v -0.0868 0.4160 0.0616
v -0.0868 0.4280 0.0616
v -0.1268 0.4280 0.0616
f 528/1 527/1 526/1 525/1
v -0.2313 0.4160 0.2060
v -0.2313 0.4280 0.2060
v -0.1068 0.4280 0.2060
v -0.1068 0.4160 0.2060
f 532/1 531/1 530/1 529/1
v -0.1068 0.4160 0.1660
v -0.1068 0.4280 0.1660
v -0.2313 0.4280 0.1660
v -0.2313 0.4160 0.1660
f 536/1 535/1 534/1 533/1
v -0.1068 0.4160 0.2060
v -0.1068 0.4160 0.1660
v -0.2313 0.4160 0.1660
v -0.2313 0.4160 0.2060
f 540/1 539/1 538/1 537/1
v -0.2313 0.4280 0.2060
v -0.2313 0.4280 0.1660
v -0.1068 0.4280 0.1660
v -0.1068 0.4280 0.2060
f 544/1 543/1 542/1 541/1
v -0.1068 0.4280 0.2060
v -0.1068 0.4280 0.1660
v -0.1068 0.4160 0.1660
v -0.1068 0.4160 0.2060
f 548/1 547/1 546/1 545/1
v -0.2313 0.4160 0.2060
v -0.2313 0.4160 0.1660
v -0.2313 0.4280 0.1660
v -0.2313 0.4280 0.2060
f 552/1 551/1 550/1 549/1
