# Walk of Industry low-poly (generated, wi_lib.py)
mtllib wi.mtl
vt 0 0
o Body
usemtl wi_base
v 0.4800 0.0000 0.4800
v 0.4800 0.0800 0.4800
v 0.4800 0.0800 -0.4800
v 0.4800 0.0000 -0.4800
f 4/1 3/1 2/1 1/1
v -0.4800 0.0000 -0.4800
v -0.4800 0.0800 -0.4800
v -0.4800 0.0800 0.4800
v -0.4800 0.0000 0.4800
f 8/1 7/1 6/1 5/1
v 0.4800 0.0000 -0.4800
v -0.4800 0.0000 -0.4800
v -0.4800 0.0000 0.4800
v 0.4800 0.0000 0.4800
f 12/1 11/1 10/1 9/1
v 0.4800 0.0800 0.4800
v -0.4800 0.0800 0.4800
v -0.4800 0.0800 -0.4800
v 0.4800 0.0800 -0.4800
f 16/1 15/1 14/1 13/1
v 0.4800 0.0800 -0.4800
v -0.4800 0.0800 -0.4800
v -0.4800 0.0000 -0.4800
v 0.4800 0.0000 -0.4800
f 20/1 19/1 18/1 17/1
v 0.4800 0.0000 0.4800
v -0.4800 0.0000 0.4800
v -0.4800 0.0800 0.4800
v 0.4800 0.0800 0.4800
f 24/1 23/1 22/1 21/1
usemtl wi_teal
v 0.4000 0.0800 0.1400
v 0.4000 0.5800 0.1400
v 0.4000 0.5800 -0.3800
v 0.4000 0.0800 -0.3800
f 28/1 27/1 26/1 25/1
v -0.4000 0.0800 -0.3800
v -0.4000 0.5800 -0.3800
v -0.4000 0.5800 0.1400
v -0.4000 0.0800 0.1400
f 32/1 31/1 30/1 29/1
v 0.4000 0.0800 -0.3800
v -0.4000 0.0800 -0.3800
v -0.4000 0.0800 0.1400
v 0.4000 0.0800 0.1400
f 36/1 35/1 34/1 33/1
v 0.4000 0.5800 0.1400
v -0.4000 0.5800 0.1400
v -0.4000 0.5800 -0.3800
v 0.4000 0.5800 -0.3800
f 40/1 39/1 38/1 37/1
v 0.4000 0.5800 -0.3800
v -0.4000 0.5800 -0.3800
v -0.4000 0.0800 -0.3800
v 0.4000 0.0800 -0.3800
f 44/1 43/1 42/1 41/1
v 0.4000 0.0800 0.1400
v -0.4000 0.0800 0.1400
v -0.4000 0.5800 0.1400
v 0.4000 0.5800 0.1400
f 48/1 47/1 46/1 45/1
usemtl wi_copper
v 0.4200 0.5750 0.1600
v 0.4200 0.6250 0.1600
v 0.4200 0.6250 -0.4000
v 0.4200 0.5750 -0.4000
f 52/1 51/1 50/1 49/1
v -0.4200 0.5750 -0.4000
v -0.4200 0.6250 -0.4000
v -0.4200 0.6250 0.1600
v -0.4200 0.5750 0.1600
f 56/1 55/1 54/1 53/1
v 0.4200 0.5750 -0.4000
v -0.4200 0.5750 -0.4000
v -0.4200 0.5750 0.1600
v 0.4200 0.5750 0.1600
f 60/1 59/1 58/1 57/1
v 0.4200 0.6250 0.1600
v -0.4200 0.6250 0.1600
v -0.4200 0.6250 -0.4000
v 0.4200 0.6250 -0.4000
f 64/1 63/1 62/1 61/1
v 0.4200 0.6250 -0.4000
v -0.4200 0.6250 -0.4000
v -0.4200 0.5750 -0.4000
v 0.4200 0.5750 -0.4000
f 68/1 67/1 66/1 65/1
v 0.4200 0.5750 0.1600
v -0.4200 0.5750 0.1600
v -0.4200 0.6250 0.1600
v 0.4200 0.6250 0.1600
f 72/1 71/1 70/1 69/1
usemtl wi_dark
v 0.2250 0.1900 0.1550
v 0.2250 0.5300 0.1550
v 0.2250 0.5300 0.1350
v 0.2250 0.1900 0.1350
f 76/1 75/1 74/1 73/1
v 0.1750 0.1900 0.1350
v 0.1750 0.5300 0.1350
v 0.1750 0.5300 0.1550
v 0.1750 0.1900 0.1550
f 80/1 79/1 78/1 77/1
v 0.2250 0.1900 0.1350
v 0.1750 0.1900 0.1350
v 0.1750 0.1900 0.1550
v 0.2250 0.1900 0.1550
f 84/1 83/1 82/1 81/1
v 0.2250 0.5300 0.1550
v 0.1750 0.5300 0.1550
v 0.1750 0.5300 0.1350
v 0.2250 0.5300 0.1350
f 88/1 87/1 86/1 85/1
v 0.2250 0.5300 0.1350
v 0.1750 0.5300 0.1350
v 0.1750 0.1900 0.1350
v 0.2250 0.1900 0.1350
f 92/1 91/1 90/1 89/1
v 0.2250 0.1900 0.1550
v 0.1750 0.1900 0.1550
v 0.1750 0.5300 0.1550
v 0.2250 0.5300 0.1550
f 96/1 95/1 94/1 93/1
v 0.1250 0.1900 0.1550
v 0.1250 0.5300 0.1550
v 0.1250 0.5300 0.1350
v 0.1250 0.1900 0.1350
f 100/1 99/1 98/1 97/1
v 0.0750 0.1900 0.1350
v 0.0750 0.5300 0.1350
v 0.0750 0.5300 0.1550
v 0.0750 0.1900 0.1550
f 104/1 103/1 102/1 101/1
v 0.1250 0.1900 0.1350
v 0.0750 0.1900 0.1350
v 0.0750 0.1900 0.1550
v 0.1250 0.1900 0.1550
f 108/1 107/1 106/1 105/1
v 0.1250 0.5300 0.1550
v 0.0750 0.5300 0.1550
v 0.0750 0.5300 0.1350
v 0.1250 0.5300 0.1350
f 112/1 111/1 110/1 109/1
v 0.1250 0.5300 0.1350
v 0.0750 0.5300 0.1350
v 0.0750 0.1900 0.1350
v 0.1250 0.1900 0.1350
f 116/1 115/1 114/1 113/1
v 0.1250 0.1900 0.1550
v 0.0750 0.1900 0.1550
v 0.0750 0.5300 0.1550
v 0.1250 0.5300 0.1550
f 120/1 119/1 118/1 117/1
v 0.0250 0.1900 0.1550
v 0.0250 0.5300 0.1550
v 0.0250 0.5300 0.1350
v 0.0250 0.1900 0.1350
f 124/1 123/1 122/1 121/1
v -0.0250 0.1900 0.1350
v -0.0250 0.5300 0.1350
v -0.0250 0.5300 0.1550
v -0.0250 0.1900 0.1550
f 128/1 127/1 126/1 125/1
v 0.0250 0.1900 0.1350
v -0.0250 0.1900 0.1350
v -0.0250 0.1900 0.1550
v 0.0250 0.1900 0.1550
f 132/1 131/1 130/1 129/1
v 0.0250 0.5300 0.1550
v -0.0250 0.5300 0.1550
v -0.0250 0.5300 0.1350
v 0.0250 0.5300 0.1350
f 136/1 135/1 134/1 133/1
v 0.0250 0.5300 0.1350
v -0.0250 0.5300 0.1350
v -0.0250 0.1900 0.1350
v 0.0250 0.1900 0.1350
f 140/1 139/1 138/1 137/1
v 0.0250 0.1900 0.1550
v -0.0250 0.1900 0.1550
v -0.0250 0.5300 0.1550
v 0.0250 0.5300 0.1550
f 144/1 143/1 142/1 141/1
v -0.0750 0.1900 0.1550
v -0.0750 0.5300 0.1550
v -0.0750 0.5300 0.1350
v -0.0750 0.1900 0.1350
f 148/1 147/1 146/1 145/1
v -0.1250 0.1900 0.1350
v -0.1250 0.5300 0.1350
v -0.1250 0.5300 0.1550
v -0.1250 0.1900 0.1550
f 152/1 151/1 150/1 149/1
v -0.0750 0.1900 0.1350
v -0.1250 0.1900 0.1350
v -0.1250 0.1900 0.1550
v -0.0750 0.1900 0.1550
f 156/1 155/1 154/1 153/1
v -0.0750 0.5300 0.1550
v -0.1250 0.5300 0.1550
v -0.1250 0.5300 0.1350
v -0.0750 0.5300 0.1350
f 160/1 159/1 158/1 157/1
v -0.0750 0.5300 0.1350
v -0.1250 0.5300 0.1350
v -0.1250 0.1900 0.1350
v -0.0750 0.1900 0.1350
f 164/1 163/1 162/1 161/1
v -0.0750 0.1900 0.1550
v -0.1250 0.1900 0.1550
v -0.1250 0.5300 0.1550
v -0.0750 0.5300 0.1550
f 168/1 167/1 166/1 165/1
v -0.1750 0.1900 0.1550
v -0.1750 0.5300 0.1550
v -0.1750 0.5300 0.1350
v -0.1750 0.1900 0.1350
f 172/1 171/1 170/1 169/1
v -0.2250 0.1900 0.1350
v -0.2250 0.5300 0.1350
v -0.2250 0.5300 0.1550
v -0.2250 0.1900 0.1550
f 176/1 175/1 174/1 173/1
v -0.1750 0.1900 0.1350
v -0.2250 0.1900 0.1350
v -0.2250 0.1900 0.1550
v -0.1750 0.1900 0.1550
f 180/1 179/1 178/1 177/1
v -0.1750 0.5300 0.1550
v -0.2250 0.5300 0.1550
v -0.2250 0.5300 0.1350
v -0.1750 0.5300 0.1350
f 184/1 183/1 182/1 181/1
v -0.1750 0.5300 0.1350
v -0.2250 0.5300 0.1350
v -0.2250 0.1900 0.1350
v -0.1750 0.1900 0.1350
f 188/1 187/1 186/1 185/1
v -0.1750 0.1900 0.1550
v -0.2250 0.1900 0.1550
v -0.2250 0.5300 0.1550
v -0.1750 0.5300 0.1550
f 192/1 191/1 190/1 189/1
usemtl wi_steel
v -0.3068 0.6300 0.1147
v -0.3447 0.6300 0.0768
v -0.3447 1.1800 0.0768
v -0.3068 1.1800 0.1147
f 196/1 195/1 194/1 193/1
v -0.3447 0.6300 0.0768
v -0.3447 0.6300 0.0232
v -0.3447 1.1800 0.0232
v -0.3447 1.1800 0.0768
f 200/1 199/1 198/1 197/1
v -0.3447 0.6300 0.0232
v -0.3068 0.6300 -0.0147
v -0.3068 1.1800 -0.0147
v -0.3447 1.1800 0.0232
f 204/1 203/1 202/1 201/1
v -0.3068 0.6300 -0.0147
v -0.2532 0.6300 -0.0147
v -0.2532 1.1800 -0.0147
v -0.3068 1.1800 -0.0147
f 208/1 207/1 206/1 205/1
v -0.2532 0.6300 -0.0147
v -0.2153 0.6300 0.0232
v -0.2153 1.1800 0.0232
v -0.2532 1.1800 -0.0147
f 212/1 211/1 210/1 209/1
v -0.2153 0.6300 0.0232
v -0.2153 0.6300 0.0768
v -0.2153 1.1800 0.0768
v -0.2153 1.1800 0.0232
f 216/1 215/1 214/1 213/1
v -0.2153 0.6300 0.0768
v -0.2532 0.6300 0.1147
v -0.2532 1.1800 0.1147
v -0.2153 1.1800 0.0768
f 220/1 219/1 218/1 217/1
v -0.2532 0.6300 0.1147
v -0.3068 0.6300 0.1147
v -0.3068 1.1800 0.1147
v -0.2532 1.1800 0.1147
f 224/1 223/1 222/1 221/1
v -0.2532 0.6300 0.1147
v -0.2153 0.6300 0.0768
v -0.2153 0.6300 0.0232
v -0.2532 0.6300 -0.0147
v -0.3068 0.6300 -0.0147
v -0.3447 0.6300 0.0232
v -0.3447 0.6300 0.0768
v -0.3068 0.6300 0.1147
f 232/1 231/1 230/1 229/1 228/1 227/1 226/1 225/1
v -0.3068 1.1800 0.1147
v -0.3447 1.1800 0.0768
v -0.3447 1.1800 0.0232
v -0.3068 1.1800 -0.0147
v -0.2532 1.1800 -0.0147
v -0.2153 1.1800 0.0232
v -0.2153 1.1800 0.0768
v -0.2532 1.1800 0.1147
f 240/1 239/1 238/1 237/1 236/1 235/1 234/1 233/1
usemtl wi_copper
v -0.3183 1.1800 0.1424
v -0.3724 1.1800 0.0883
v -0.3724 1.2300 0.0883
v -0.3183 1.2300 0.1424
f 244/1 243/1 242/1 241/1
v -0.3724 1.1800 0.0883
v -0.3724 1.1800 0.0117
v -0.3724 1.2300 0.0117
v -0.3724 1.2300 0.0883
f 248/1 247/1 246/1 245/1
v -0.3724 1.1800 0.0117
v -0.3183 1.1800 -0.0424
v -0.3183 1.2300 -0.0424
v -0.3724 1.2300 0.0117
f 252/1 251/1 250/1 249/1
v -0.3183 1.1800 -0.0424
v -0.2417 1.1800 -0.0424
v -0.2417 1.2300 -0.0424
v -0.3183 1.2300 -0.0424
f 256/1 255/1 254/1 253/1
v -0.2417 1.1800 -0.0424
v -0.1876 1.1800 0.0117
v -0.1876 1.2300 0.0117
v -0.2417 1.2300 -0.0424
f 260/1 259/1 258/1 257/1
v -0.1876 1.1800 0.0117
v -0.1876 1.1800 0.0883
v -0.1876 1.2300 0.0883
v -0.1876 1.2300 0.0117
f 264/1 263/1 262/1 261/1
v -0.1876 1.1800 0.0883
v -0.2417 1.1800 0.1424
v -0.2417 1.2300 0.1424
v -0.1876 1.2300 0.0883
f 268/1 267/1 266/1 265/1
v -0.2417 1.1800 0.1424
v -0.3183 1.1800 0.1424
v -0.3183 1.2300 0.1424
v -0.2417 1.2300 0.1424
f 272/1 271/1 270/1 269/1
v -0.2417 1.1800 0.1424
v -0.1876 1.1800 0.0883
v -0.1876 1.1800 0.0117
v -0.2417 1.1800 -0.0424
v -0.3183 1.1800 -0.0424
v -0.3724 1.1800 0.0117
v -0.3724 1.1800 0.0883
v -0.3183 1.1800 0.1424
f 280/1 279/1 278/1 277/1 276/1 275/1 274/1 273/1
v -0.3183 1.2300 0.1424
v -0.3724 1.2300 0.0883
v -0.3724 1.2300 0.0117
v -0.3183 1.2300 -0.0424
v -0.2417 1.2300 -0.0424
v -0.1876 1.2300 0.0117
v -0.1876 1.2300 0.0883
v -0.2417 1.2300 0.1424
f 288/1 287/1 286/1 285/1 284/1 283/1 282/1 281/1
usemtl wi_yellow
v 0.3600 0.6300 0.1100
v 0.3600 0.7700 0.1100
v 0.3600 0.7700 -0.0100
v 0.3600 0.6300 -0.0100
f 292/1 291/1 290/1 289/1
v 0.2400 0.6300 -0.0100
v 0.2400 0.7700 -0.0100
v 0.2400 0.7700 0.1100
v 0.2400 0.6300 0.1100
f 296/1 295/1 294/1 293/1
v 0.3600 0.6300 -0.0100
v 0.2400 0.6300 -0.0100
v 0.2400 0.6300 0.1100
v 0.3600 0.6300 0.1100
f 300/1 299/1 298/1 297/1
v 0.3600 0.7700 0.1100
v 0.2400 0.7700 0.1100
v 0.2400 0.7700 -0.0100
v 0.3600 0.7700 -0.0100
f 304/1 303/1 302/1 301/1
v 0.3600 0.7700 -0.0100
v 0.2400 0.7700 -0.0100
v 0.2400 0.6300 -0.0100
v 0.3600 0.6300 -0.0100
f 308/1 307/1 306/1 305/1
v 0.3600 0.6300 0.1100
v 0.2400 0.6300 0.1100
v 0.2400 0.7700 0.1100
v 0.3600 0.7700 0.1100
f 312/1 311/1 310/1 309/1
o Coil
usemtl wi_copper
v 0.1694 0.6300 -0.1261
v 0.1261 0.6300 -0.1694
v 0.1261 0.8300 -0.1694
v 0.1694 0.8300 -0.1261
f 316/1 315/1 314/1 313/1
v 0.1261 0.6300 -0.1694
v 0.1261 0.6300 -0.2306
v 0.1261 0.8300 -0.2306
v 0.1261 0.8300 -0.1694
f 320/1 319/1 318/1 317/1
v 0.1261 0.6300 -0.2306
v 0.1694 0.6300 -0.2739
v 0.1694 0.8300 -0.2739
v 0.1261 0.8300 -0.2306
f 324/1 323/1 322/1 321/1
v 0.1694 0.6300 -0.2739
v 0.2306 0.6300 -0.2739
v 0.2306 0.8300 -0.2739
v 0.1694 0.8300 -0.2739
f 328/1 327/1 326/1 325/1
v 0.2306 0.6300 -0.2739
v 0.2739 0.6300 -0.2306
v 0.2739 0.8300 -0.2306
v 0.2306 0.8300 -0.2739
f 332/1 331/1 330/1 329/1
v 0.2739 0.6300 -0.2306
v 0.2739 0.6300 -0.1694
v 0.2739 0.8300 -0.1694
v 0.2739 0.8300 -0.2306
f 336/1 335/1 334/1 333/1
v 0.2739 0.6300 -0.1694
v 0.2306 0.6300 -0.1261
v 0.2306 0.8300 -0.1261
v 0.2739 0.8300 -0.1694
f 340/1 339/1 338/1 337/1
v 0.2306 0.6300 -0.1261
v 0.1694 0.6300 -0.1261
v 0.1694 0.8300 -0.1261
v 0.2306 0.8300 -0.1261
f 344/1 343/1 342/1 341/1
v 0.2306 0.6300 -0.1261
v 0.2739 0.6300 -0.1694
v 0.2739 0.6300 -0.2306
v 0.2306 0.6300 -0.2739
v 0.1694 0.6300 -0.2739
v 0.1261 0.6300 -0.2306
v 0.1261 0.6300 -0.1694
v 0.1694 0.6300 -0.1261
f 352/1 351/1 350/1 349/1 348/1 347/1 346/1 345/1
v 0.1694 0.8300 -0.1261
v 0.1261 0.8300 -0.1694
v 0.1261 0.8300 -0.2306
v 0.1694 0.8300 -0.2739
v 0.2306 0.8300 -0.2739
v 0.2739 0.8300 -0.2306
v 0.2739 0.8300 -0.1694
v 0.2306 0.8300 -0.1261
f 360/1 359/1 358/1 357/1 356/1 355/1 354/1 353/1
v -0.2306 0.6300 -0.1261
v -0.2739 0.6300 -0.1694
v -0.2739 0.8300 -0.1694
v -0.2306 0.8300 -0.1261
f 364/1 363/1 362/1 361/1
v -0.2739 0.6300 -0.1694
v -0.2739 0.6300 -0.2306
v -0.2739 0.8300 -0.2306
v -0.2739 0.8300 -0.1694
f 368/1 367/1 366/1 365/1
v -0.2739 0.6300 -0.2306
v -0.2306 0.6300 -0.2739
v -0.2306 0.8300 -0.2739
v -0.2739 0.8300 -0.2306
f 372/1 371/1 370/1 369/1
v -0.2306 0.6300 -0.2739
v -0.1694 0.6300 -0.2739
v -0.1694 0.8300 -0.2739
v -0.2306 0.8300 -0.2739
f 376/1 375/1 374/1 373/1
v -0.1694 0.6300 -0.2739
v -0.1261 0.6300 -0.2306
v -0.1261 0.8300 -0.2306
v -0.1694 0.8300 -0.2739
f 380/1 379/1 378/1 377/1
v -0.1261 0.6300 -0.2306
v -0.1261 0.6300 -0.1694
v -0.1261 0.8300 -0.1694
v -0.1261 0.8300 -0.2306
f 384/1 383/1 382/1 381/1
v -0.1261 0.6300 -0.1694
v -0.1694 0.6300 -0.1261
v -0.1694 0.8300 -0.1261
v -0.1261 0.8300 -0.1694
f 388/1 387/1 386/1 385/1
v -0.1694 0.6300 -0.1261
v -0.2306 0.6300 -0.1261
v -0.2306 0.8300 -0.1261
v -0.1694 0.8300 -0.1261
f 392/1 391/1 390/1 389/1
v -0.1694 0.6300 -0.1261
v -0.1261 0.6300 -0.1694
v -0.1261 0.6300 -0.2306
v -0.1694 0.6300 -0.2739
v -0.2306 0.6300 -0.2739
v -0.2739 0.6300 -0.2306
v -0.2739 0.6300 -0.1694
v -0.2306 0.6300 -0.1261
f 400/1 399/1 398/1 397/1 396/1 395/1 394/1 393/1
v -0.2306 0.8300 -0.1261
v -0.2739 0.8300 -0.1694
v -0.2739 0.8300 -0.2306
v -0.2306 0.8300 -0.2739
v -0.1694 0.8300 -0.2739
v -0.1261 0.8300 -0.2306
v -0.1261 0.8300 -0.1694
v -0.1694 0.8300 -0.1261
f 408/1 407/1 406/1 405/1 404/1 403/1 402/1 401/1
o Lamp
usemtl wi_lamp
v 0.3250 0.7750 0.0750
v 0.3250 0.8250 0.0750
v 0.3250 0.8250 0.0250
v 0.3250 0.7750 0.0250
f 412/1 411/1 410/1 409/1
v 0.2750 0.7750 0.0250
v 0.2750 0.8250 0.0250
v 0.2750 0.8250 0.0750
v 0.2750 0.7750 0.0750
f 416/1 415/1 414/1 413/1
v 0.3250 0.7750 0.0250
v 0.2750 0.7750 0.0250
v 0.2750 0.7750 0.0750
v 0.3250 0.7750 0.0750
f 420/1 419/1 418/1 417/1
v 0.3250 0.8250 0.0750
v 0.2750 0.8250 0.0750
v 0.2750 0.8250 0.0250
v 0.3250 0.8250 0.0250
f 424/1 423/1 422/1 421/1
v 0.3250 0.8250 0.0250
v 0.2750 0.8250 0.0250
v 0.2750 0.7750 0.0250
v 0.3250 0.7750 0.0250
f 428/1 427/1 426/1 425/1
v 0.3250 0.7750 0.0750
v 0.2750 0.7750 0.0750
v 0.2750 0.8250 0.0750
v 0.3250 0.8250 0.0750
f 432/1 431/1 430/1 429/1
