# Walk of Industry low-poly (generated, wi_lib.py)
mtllib wi.mtl
vt 0 0
o Body
usemtl wi_fire
v -0.0300 0.0000 0.0520
v -0.0600 0.0000 0.0000
v -0.0000 0.1400 0.0000
f 3/1 2/1 1/1
v -0.0600 0.0000 0.0000
v -0.0300 0.0000 -0.0520
v -0.0000 0.1400 0.0000
f 6/1 5/1 4/1
v -0.0300 0.0000 -0.0520
v 0.0300 0.0000 -0.0520
v -0.0000 0.1400 0.0000
f 9/1 8/1 7/1
v 0.0300 0.0000 -0.0520
v 0.0600 0.0000 0.0000
v -0.0000 0.1400 0.0000
f 12/1 11/1 10/1
v 0.0600 0.0000 0.0000
v 0.0300 0.0000 0.0520
v -0.0000 0.1400 0.0000
f 15/1 14/1 13/1
v 0.0300 0.0000 0.0520
v -0.0300 0.0000 0.0520
v -0.0000 0.1400 0.0000
f 18/1 17/1 16/1
v 0.0300 0.0000 0.0520
v 0.0600 0.0000 0.0000
v 0.0300 0.0000 -0.0520
v -0.0300 0.0000 -0.0520
v -0.0600 0.0000 0.0000
v -0.0300 0.0000 0.0520
f 24/1 23/1 22/1 21/1 20/1 19/1
