# Walk of Industry low-poly (generated, wi_lib.py)
mtllib wi.mtl
vt 0 0
o Body
usemtl wi_blue
v -0.0200 -0.0600 0.0346
v -0.0400 -0.0600 0.0000
v -0.0400 0.0600 0.0000
v -0.0200 0.0600 0.0346
f 4/1 3/1 2/1 1/1
v -0.0400 -0.0600 0.0000
v -0.0200 -0.0600 -0.0346
v -0.0200 0.0600 -0.0346
v -0.0400 0.0600 0.0000
f 8/1 7/1 6/1 5/1
v -0.0200 -0.0600 -0.0346
v 0.0200 -0.0600 -0.0346
v 0.0200 0.0600 -0.0346
v -0.0200 0.0600 -0.0346
f 12/1 11/1 10/1 9/1
v 0.0200 -0.0600 -0.0346
v 0.0400 -0.0600 -0.0000
v 0.0400 0.0600 -0.0000
v 0.0200 0.0600 -0.0346
f 16/1 15/1 14/1 13/1
v 0.0400 -0.0600 -0.0000
v 0.0200 -0.0600 0.0346
v 0.0200 0.0600 0.0346
v 0.0400 0.0600 -0.0000
f 20/1 19/1 18/1 17/1
v 0.0200 -0.0600 0.0346
v -0.0200 -0.0600 0.0346
v -0.0200 0.0600 0.0346
v 0.0200 0.0600 0.0346
f 24/1 23/1 22/1 21/1
v 0.0200 -0.0600 0.0346
v 0.0400 -0.0600 -0.0000
v 0.0200 -0.0600 -0.0346
v -0.0200 -0.0600 -0.0346
v -0.0400 -0.0600 0.0000
v -0.0200 -0.0600 0.0346
f 30/1 29/1 28/1 27/1 26/1 25/1
v -0.0200 0.0600 0.0346
v -0.0400 0.0600 0.0000
v -0.0200 0.0600 -0.0346
v 0.0200 0.0600 -0.0346
v 0.0400 0.0600 -0.0000
v 0.0200 0.0600 0.0346
f 36/1 35/1 34/1 33/1 32/1 31/1
