# Walk of Industry low-poly (generated, wi_lib.py)
mtllib wi.mtl
vt 0 0
o Body
usemtl wi_base
v 0.4800 0.0000 0.4800
v 0.4800 0.0800 0.4800
v 0.4800 0.0800 -0.4800
v 0.4800 0.0000 -0.4800
f 4/1 3/1 2/1 1/1
v -0.4800 0.0000 -0.4800
v -0.4800 0.0800 -0.4800
v -0.4800 0.0800 0.4800
v -0.4800 0.0000 0.4800
f 8/1 7/1 6/1 5/1
v 0.4800 0.0000 -0.4800
v -0.4800 0.0000 -0.4800
v -0.4800 0.0000 0.4800
v 0.4800 0.0000 0.4800
f 12/1 11/1 10/1 9/1
v 0.4800 0.0800 0.4800
v -0.4800 0.0800 0.4800
v -0.4800 0.0800 -0.4800
v 0.4800 0.0800 -0.4800
f 16/1 15/1 14/1 13/1
v 0.4800 0.0800 -0.4800
v -0.4800 0.0800 -0.4800
v -0.4800 0.0000 -0.4800
v 0.4800 0.0000 -0.4800
f 20/1 19/1 18/1 17/1
v 0.4800 0.0000 0.4800
v -0.4800 0.0000 0.4800
v -0.4800 0.0800 0.4800
v 0.4800 0.0800 0.4800
f 24/1 23/1 22/1 21/1
usemtl wi_brick
v 0.4000 0.0800 0.3500
v 0.4000 0.6000 0.3500
v 0.4000 0.6000 -0.3900
v 0.4000 0.0800 -0.3900
f 28/1 27/1 26/1 25/1
v -0.4000 0.0800 -0.3900
v -0.4000 0.6000 -0.3900
v -0.4000 0.6000 0.3500
v -0.4000 0.0800 0.3500
f 32/1 31/1 30/1 29/1
v 0.4000 0.0800 -0.3900
v -0.4000 0.0800 -0.3900
v -0.4000 0.0800 0.3500
v 0.4000 0.0800 0.3500
f 36/1 35/1 34/1 33/1
v 0.4000 0.6000 0.3500
v -0.4000 0.6000 0.3500
v -0.4000 0.6000 -0.3900
v 0.4000 0.6000 -0.3900
f 40/1 39/1 38/1 37/1
v 0.4000 0.6000 -0.3900
v -0.4000 0.6000 -0.3900
v -0.4000 0.0800 -0.3900
v 0.4000 0.0800 -0.3900
f 44/1 43/1 42/1 41/1
v 0.4000 0.0800 0.3500
v -0.4000 0.0800 0.3500
v -0.4000 0.6000 0.3500
v 0.4000 0.6000 0.3500
f 48/1 47/1 46/1 45/1
usemtl wi_stone
v 0.4100 0.1500 0.3700
v 0.4100 0.1700 0.3700
v 0.4100 0.1700 0.3500
v 0.4100 0.1500 0.3500
f 52/1 51/1 50/1 49/1
v -0.4100 0.1500 0.3500
v -0.4100 0.1700 0.3500
v -0.4100 0.1700 0.3700
v -0.4100 0.1500 0.3700
f 56/1 55/1 54/1 53/1
v 0.4100 0.1500 0.3500
v -0.4100 0.1500 0.3500
v -0.4100 0.1500 0.3700
v 0.4100 0.1500 0.3700
f 60/1 59/1 58/1 57/1
v 0.4100 0.1700 0.3700
v -0.4100 0.1700 0.3700
v -0.4100 0.1700 0.3500
v 0.4100 0.1700 0.3500
f 64/1 63/1 62/1 61/1
v 0.4100 0.1700 0.3500
v -0.4100 0.1700 0.3500
v -0.4100 0.1500 0.3500
v 0.4100 0.1500 0.3500
f 68/1 67/1 66/1 65/1
v 0.4100 0.1500 0.3700
v -0.4100 0.1500 0.3700
v -0.4100 0.1700 0.3700
v 0.4100 0.1700 0.3700
f 72/1 71/1 70/1 69/1
v 0.4100 0.3200 0.3700
v 0.4100 0.3400 0.3700
v 0.4100 0.3400 0.3500
v 0.4100 0.3200 0.3500
f 76/1 75/1 74/1 73/1
v -0.4100 0.3200 0.3500
v -0.4100 0.3400 0.3500
v -0.4100 0.3400 0.3700
v -0.4100 0.3200 0.3700
f 80/1 79/1 78/1 77/1
v 0.4100 0.3200 0.3500
v -0.4100 0.3200 0.3500
v -0.4100 0.3200 0.3700
v 0.4100 0.3200 0.3700
f 84/1 83/1 82/1 81/1
v 0.4100 0.3400 0.3700
v -0.4100 0.3400 0.3700
v -0.4100 0.3400 0.3500
v 0.4100 0.3400 0.3500
f 88/1 87/1 86/1 85/1
v 0.4100 0.3400 0.3500
v -0.4100 0.3400 0.3500
v -0.4100 0.3200 0.3500
v 0.4100 0.3200 0.3500
f 92/1 91/1 90/1 89/1
v 0.4100 0.3200 0.3700
v -0.4100 0.3200 0.3700
v -0.4100 0.3400 0.3700
v 0.4100 0.3400 0.3700
f 96/1 95/1 94/1 93/1
v 0.4100 0.4900 0.3700
v 0.4100 0.5100 0.3700
v 0.4100 0.5100 0.3500
v 0.4100 0.4900 0.3500
f 100/1 99/1 98/1 97/1
v -0.4100 0.4900 0.3500
v -0.4100 0.5100 0.3500
v -0.4100 0.5100 0.3700
v -0.4100 0.4900 0.3700
f 104/1 103/1 102/1 101/1
v 0.4100 0.4900 0.3500
v -0.4100 0.4900 0.3500
v -0.4100 0.4900 0.3700
v 0.4100 0.4900 0.3700
f 108/1 107/1 106/1 105/1
v 0.4100 0.5100 0.3700
v -0.4100 0.5100 0.3700
v -0.4100 0.5100 0.3500
v 0.4100 0.5100 0.3500
f 112/1 111/1 110/1 109/1
v 0.4100 0.5100 0.3500
v -0.4100 0.5100 0.3500
v -0.4100 0.4900 0.3500
v 0.4100 0.4900 0.3500
f 116/1 115/1 114/1 113/1
v 0.4100 0.4900 0.3700
v -0.4100 0.4900 0.3700
v -0.4100 0.5100 0.3700
v 0.4100 0.5100 0.3700
f 120/1 119/1 118/1 117/1
v 0.4300 0.6000 0.3800
v 0.4300 0.6600 0.3800
v 0.4300 0.6600 -0.4200
v 0.4300 0.6000 -0.4200
f 124/1 123/1 122/1 121/1
v -0.4300 0.6000 -0.4200
v -0.4300 0.6600 -0.4200
v -0.4300 0.6600 0.3800
v -0.4300 0.6000 0.3800
f 128/1 127/1 126/1 125/1
v 0.4300 0.6000 -0.4200
v -0.4300 0.6000 -0.4200
v -0.4300 0.6000 0.3800
v 0.4300 0.6000 0.3800
f 132/1 131/1 130/1 129/1
v 0.4300 0.6600 0.3800
v -0.4300 0.6600 0.3800
v -0.4300 0.6600 -0.4200
v 0.4300 0.6600 -0.4200
f 136/1 135/1 134/1 133/1
v 0.4300 0.6600 -0.4200
v -0.4300 0.6600 -0.4200
v -0.4300 0.6000 -0.4200
v 0.4300 0.6000 -0.4200
f 140/1 139/1 138/1 137/1
v 0.4300 0.6000 0.3800
v -0.4300 0.6000 0.3800
v -0.4300 0.6600 0.3800
v 0.4300 0.6600 0.3800
f 144/1 143/1 142/1 141/1
usemtl wi_copper
v 0.0300 0.8600 -0.0200
v -0.0300 0.8600 -0.0200
v -0.4100 0.6600 -0.4000
v 0.4100 0.6600 -0.4000
f 148/1 147/1 146/1 145/1
v -0.0300 0.8600 -0.0200
v 0.0300 0.8600 -0.0200
v 0.4100 0.6600 0.3600
v -0.4100 0.6600 0.3600
f 152/1 151/1 150/1 149/1
v -0.0300 0.8600 -0.0200
v -0.4100 0.6600 0.3600
v -0.4100 0.6600 -0.4000
f 155/1 154/1 153/1
v 0.0300 0.8600 -0.0200
v 0.4100 0.6600 -0.4000
v 0.4100 0.6600 0.3600
f 158/1 157/1 156/1
v 0.4100 0.6600 -0.4000
v -0.4100 0.6600 -0.4000
v -0.4100 0.6600 0.3600
v 0.4100 0.6600 0.3600
f 162/1 161/1 160/1 159/1
usemtl wi_fire
v -0.3950 0.1800 0.1500
v -0.3950 0.3800 0.1500
v -0.3950 0.3800 -0.1500
v -0.3950 0.1800 -0.1500
f 166/1 165/1 164/1 163/1
v -0.4150 0.1800 -0.1500
v -0.4150 0.3800 -0.1500
v -0.4150 0.3800 0.1500
v -0.4150 0.1800 0.1500
f 170/1 169/1 168/1 167/1
v -0.3950 0.1800 -0.1500
v -0.4150 0.1800 -0.1500
v -0.4150 0.1800 0.1500
v -0.3950 0.1800 0.1500
f 174/1 173/1 172/1 171/1
v -0.3950 0.3800 0.1500
v -0.4150 0.3800 0.1500
v -0.4150 0.3800 -0.1500
v -0.3950 0.3800 -0.1500
f 178/1 177/1 176/1 175/1
v -0.3950 0.3800 -0.1500
v -0.4150 0.3800 -0.1500
v -0.4150 0.1800 -0.1500
v -0.3950 0.1800 -0.1500
f 182/1 181/1 180/1 179/1
v -0.3950 0.1800 0.1500
v -0.4150 0.1800 0.1500
v -0.4150 0.3800 0.1500
v -0.3950 0.3800 0.1500
f 186/1 185/1 184/1 183/1
usemtl wi_dark
v -0.3950 0.3850 0.1900
v -0.3950 0.4350 0.1900
v -0.3950 0.4350 -0.1900
v -0.3950 0.3850 -0.1900
f 190/1 189/1 188/1 187/1
v -0.4350 0.3850 -0.1900
v -0.4350 0.4350 -0.1900
v -0.4350 0.4350 0.1900
v -0.4350 0.3850 0.1900
f 194/1 193/1 192/1 191/1
v -0.3950 0.3850 -0.1900
v -0.4350 0.3850 -0.1900
v -0.4350 0.3850 0.1900
v -0.3950 0.3850 0.1900
f 198/1 197/1 196/1 195/1
v -0.3950 0.4350 0.1900
v -0.4350 0.4350 0.1900
v -0.4350 0.4350 -0.1900
v -0.3950 0.4350 -0.1900
f 202/1 201/1 200/1 199/1
v -0.3950 0.4350 -0.1900
v -0.4350 0.4350 -0.1900
v -0.4350 0.3850 -0.1900
v -0.3950 0.3850 -0.1900
f 206/1 205/1 204/1 203/1
v -0.3950 0.3850 0.1900
v -0.4350 0.3850 0.1900
v -0.4350 0.4350 0.1900
v -0.3950 0.4350 0.1900
f 210/1 209/1 208/1 207/1
v -0.3950 0.1250 0.1900
v -0.3950 0.1750 0.1900
v -0.3950 0.1750 -0.1900
v -0.3950 0.1250 -0.1900
f 214/1 213/1 212/1 211/1
v -0.4350 0.1250 -0.1900
v -0.4350 0.1750 -0.1900
v -0.4350 0.1750 0.1900
v -0.4350 0.1250 0.1900
f 218/1 217/1 216/1 215/1
v -0.3950 0.1250 -0.1900
v -0.4350 0.1250 -0.1900
v -0.4350 0.1250 0.1900
v -0.3950 0.1250 0.1900
f 222/1 221/1 220/1 219/1
v -0.3950 0.1750 0.1900
v -0.4350 0.1750 0.1900
v -0.4350 0.1750 -0.1900
v -0.3950 0.1750 -0.1900
f 226/1 225/1 224/1 223/1
v -0.3950 0.1750 -0.1900
v -0.4350 0.1750 -0.1900
v -0.4350 0.1250 -0.1900
v -0.3950 0.1250 -0.1900
f 230/1 229/1 228/1 227/1
v -0.3950 0.1250 0.1900
v -0.4350 0.1250 0.1900
v -0.4350 0.1750 0.1900
v -0.3950 0.1750 0.1900
f 234/1 233/1 232/1 231/1
usemtl wi_steel
v 0.2117 0.5800 -0.1276
v 0.1576 0.5800 -0.1817
v 0.1576 1.2000 -0.1817
v 0.2117 1.2000 -0.1276
f 238/1 237/1 236/1 235/1
v 0.1576 0.5800 -0.1817
v 0.1576 0.5800 -0.2583
v 0.1576 1.2000 -0.2583
v 0.1576 1.2000 -0.1817
f 242/1 241/1 240/1 239/1
v 0.1576 0.5800 -0.2583
v 0.2117 0.5800 -0.3124
v 0.2117 1.2000 -0.3124
v 0.1576 1.2000 -0.2583
f 246/1 245/1 244/1 243/1
v 0.2117 0.5800 -0.3124
v 0.2883 0.5800 -0.3124
v 0.2883 1.2000 -0.3124
v 0.2117 1.2000 -0.3124
f 250/1 249/1 248/1 247/1
v 0.2883 0.5800 -0.3124
v 0.3424 0.5800 -0.2583
v 0.3424 1.2000 -0.2583
v 0.2883 1.2000 -0.3124
f 254/1 253/1 252/1 251/1
v 0.3424 0.5800 -0.2583
v 0.3424 0.5800 -0.1817
v 0.3424 1.2000 -0.1817
v 0.3424 1.2000 -0.2583
f 258/1 257/1 256/1 255/1
v 0.3424 0.5800 -0.1817
v 0.2883 0.5800 -0.1276
v 0.2883 1.2000 -0.1276
v 0.3424 1.2000 -0.1817
f 262/1 261/1 260/1 259/1
v 0.2883 0.5800 -0.1276
v 0.2117 0.5800 -0.1276
v 0.2117 1.2000 -0.1276
v 0.2883 1.2000 -0.1276
f 266/1 265/1 264/1 263/1
v 0.2883 0.5800 -0.1276
v 0.3424 0.5800 -0.1817
v 0.3424 0.5800 -0.2583
v 0.2883 0.5800 -0.3124
v 0.2117 0.5800 -0.3124
v 0.1576 0.5800 -0.2583
v 0.1576 0.5800 -0.1817
v 0.2117 0.5800 -0.1276
f 274/1 273/1 272/1 271/1 270/1 269/1 268/1 267/1
v 0.2117 1.2000 -0.1276
v 0.1576 1.2000 -0.1817
v 0.1576 1.2000 -0.2583
v 0.2117 1.2000 -0.3124
v 0.2883 1.2000 -0.3124
v 0.3424 1.2000 -0.2583
v 0.3424 1.2000 -0.1817
v 0.2883 1.2000 -0.1276
f 282/1 281/1 280/1 279/1 278/1 277/1 276/1 275/1
usemtl wi_copper
v 0.2003 1.2000 -0.0999
v 0.1299 1.2000 -0.1703
v 0.1299 1.2600 -0.1703
v 0.2003 1.2600 -0.0999
f 286/1 285/1 284/1 283/1
v 0.1299 1.2000 -0.1703
v 0.1299 1.2000 -0.2697
v 0.1299 1.2600 -0.2697
v 0.1299 1.2600 -0.1703
f 290/1 289/1 288/1 287/1
v 0.1299 1.2000 -0.2697
v 0.2003 1.2000 -0.3401
v 0.2003 1.2600 -0.3401
v 0.1299 1.2600 -0.2697
f 294/1 293/1 292/1 291/1
v 0.2003 1.2000 -0.3401
v 0.2997 1.2000 -0.3401
v 0.2997 1.2600 -0.3401
v 0.2003 1.2600 -0.3401
f 298/1 297/1 296/1 295/1
v 0.2997 1.2000 -0.3401
v 0.3701 1.2000 -0.2697
v 0.3701 1.2600 -0.2697
v 0.2997 1.2600 -0.3401
f 302/1 301/1 300/1 299/1
v 0.3701 1.2000 -0.2697
v 0.3701 1.2000 -0.1703
v 0.3701 1.2600 -0.1703
v 0.3701 1.2600 -0.2697
f 306/1 305/1 304/1 303/1
v 0.3701 1.2000 -0.1703
v 0.2997 1.2000 -0.0999
v 0.2997 1.2600 -0.0999
v 0.3701 1.2600 -0.1703
f 310/1 309/1 308/1 307/1
v 0.2997 1.2000 -0.0999
v 0.2003 1.2000 -0.0999
v 0.2003 1.2600 -0.0999
v 0.2997 1.2600 -0.0999
f 314/1 313/1 312/1 311/1
v 0.2997 1.2000 -0.0999
v 0.3701 1.2000 -0.1703
v 0.3701 1.2000 -0.2697
v 0.2997 1.2000 -0.3401
v 0.2003 1.2000 -0.3401
v 0.1299 1.2000 -0.2697
v 0.1299 1.2000 -0.1703
v 0.2003 1.2000 -0.0999
f 322/1 321/1 320/1 319/1 318/1 317/1 316/1 315/1
v 0.2003 1.2600 -0.0999
v 0.1299 1.2600 -0.1703
v 0.1299 1.2600 -0.2697
v 0.2003 1.2600 -0.3401
v 0.2997 1.2600 -0.3401
v 0.3701 1.2600 -0.2697
v 0.3701 1.2600 -0.1703
v 0.2997 1.2600 -0.0999
f 330/1 329/1 328/1 327/1 326/1 325/1 324/1 323/1
usemtl wi_dark
v 0.2194 1.2600 -0.1461
v 0.1761 1.2600 -0.1894
v 0.1761 1.2800 -0.1894
v 0.2194 1.2800 -0.1461
f 334/1 333/1 332/1 331/1
v 0.1761 1.2600 -0.1894
v 0.1761 1.2600 -0.2506
v 0.1761 1.2800 -0.2506
v 0.1761 1.2800 -0.1894
f 338/1 337/1 336/1 335/1
v 0.1761 1.2600 -0.2506
v 0.2194 1.2600 -0.2939
v 0.2194 1.2800 -0.2939
v 0.1761 1.2800 -0.2506
f 342/1 341/1 340/1 339/1
v 0.2194 1.2600 -0.2939
v 0.2806 1.2600 -0.2939
v 0.2806 1.2800 -0.2939
v 0.2194 1.2800 -0.2939
f 346/1 345/1 344/1 343/1
v 0.2806 1.2600 -0.2939
v 0.3239 1.2600 -0.2506
v 0.3239 1.2800 -0.2506
v 0.2806 1.2800 -0.2939
f 350/1 349/1 348/1 347/1
v 0.3239 1.2600 -0.2506
v 0.3239 1.2600 -0.1894
v 0.3239 1.2800 -0.1894
v 0.3239 1.2800 -0.2506
f 354/1 353/1 352/1 351/1
v 0.3239 1.2600 -0.1894
v 0.2806 1.2600 -0.1461
v 0.2806 1.2800 -0.1461
v 0.3239 1.2800 -0.1894
f 358/1 357/1 356/1 355/1
v 0.2806 1.2600 -0.1461
v 0.2194 1.2600 -0.1461
v 0.2194 1.2800 -0.1461
v 0.2806 1.2800 -0.1461
f 362/1 361/1 360/1 359/1
v 0.2806 1.2600 -0.1461
v 0.3239 1.2600 -0.1894
v 0.3239 1.2600 -0.2506
v 0.2806 1.2600 -0.2939
v 0.2194 1.2600 -0.2939
v 0.1761 1.2600 -0.2506
v 0.1761 1.2600 -0.1894
v 0.2194 1.2600 -0.1461
f 370/1 369/1 368/1 367/1 366/1 365/1 364/1 363/1
v 0.2194 1.2800 -0.1461
v 0.1761 1.2800 -0.1894
v 0.1761 1.2800 -0.2506
v 0.2194 1.2800 -0.2939
v 0.2806 1.2800 -0.2939
v 0.3239 1.2800 -0.2506
v 0.3239 1.2800 -0.1894
v 0.2806 1.2800 -0.1461
f 378/1 377/1 376/1 375/1 374/1 373/1 372/1 371/1
v -0.1000 0.7200 -0.0500
v -0.1000 0.8400 -0.0500
v -0.1000 0.8400 -0.2500
v -0.1000 0.7200 -0.2500
f 382/1 381/1 380/1 379/1
v -0.3000 0.7200 -0.2500
v -0.3000 0.8400 -0.2500
v -0.3000 0.8400 -0.0500
v -0.3000 0.7200 -0.0500
f 386/1 385/1 384/1 383/1
v -0.1000 0.7200 -0.2500
v -0.3000 0.7200 -0.2500
v -0.3000 0.7200 -0.0500
v -0.1000 0.7200 -0.0500
f 390/1 389/1 388/1 387/1
v -0.1000 0.8400 -0.0500
v -0.3000 0.8400 -0.0500
v -0.3000 0.8400 -0.2500
v -0.1000 0.8400 -0.2500
f 394/1 393/1 392/1 391/1
v -0.1000 0.8400 -0.2500
v -0.3000 0.8400 -0.2500
v -0.3000 0.7200 -0.2500
v -0.1000 0.7200 -0.2500
f 398/1 397/1 396/1 395/1
v -0.1000 0.7200 -0.0500
v -0.3000 0.7200 -0.0500
v -0.3000 0.8400 -0.0500
v -0.1000 0.8400 -0.0500
f 402/1 401/1 400/1 399/1
o Lamp
usemtl wi_lamp
v -0.2700 0.5100 0.3900
v -0.2700 0.5700 0.3900
v -0.2700 0.5700 0.3300
v -0.2700 0.5100 0.3300
f 406/1 405/1 404/1 403/1
v -0.3300 0.5100 0.3300
v -0.3300 0.5700 0.3300
v -0.3300 0.5700 0.3900
v -0.3300 0.5100 0.3900
f 410/1 409/1 408/1 407/1
v -0.2700 0.5100 0.3300
v -0.3300 0.5100 0.3300
v -0.3300 0.5100 0.3900
v -0.2700 0.5100 0.3900
f 414/1 413/1 412/1 411/1
v -0.2700 0.5700 0.3900
v -0.3300 0.5700 0.3900
v -0.3300 0.5700 0.3300
v -0.2700 0.5700 0.3300
f 418/1 417/1 416/1 415/1
v -0.2700 0.5700 0.3300
v -0.3300 0.5700 0.3300
v -0.3300 0.5100 0.3300
v -0.2700 0.5100 0.3300
f 422/1 421/1 420/1 419/1
v -0.2700 0.5100 0.3900
v -0.3300 0.5100 0.3900
v -0.3300 0.5700 0.3900
v -0.2700 0.5700 0.3900
f 426/1 425/1 424/1 423/1
