# Walk of Industry low-poly (generated, wi_lib.py)
mtllib wi.mtl
vt 0 0
o Belt
usemtl wi_rubber
v 0.4050 0.1300 0.5000
v 0.4050 0.1800 0.5000
v 0.4050 0.1800 -0.5000
v 0.4050 0.1300 -0.5000
f 4/1 3/1 2/1 1/1
v -0.5000 0.1300 -0.5000
v -0.5000 0.1800 -0.5000
v -0.5000 0.1800 0.5000
v -0.5000 0.1300 0.5000
f 8/1 7/1 6/1 5/1
v 0.4050 0.1300 -0.5000
v -0.5000 0.1300 -0.5000
v -0.5000 0.1300 0.5000
v 0.4050 0.1300 0.5000
f 12/1 11/1 10/1 9/1
v 0.4050 0.1800 0.5000
vt 1.0000 0.5000
v -0.5000 0.1800 0.5000
vt 1.0000 0.5000
v -0.5000 0.1800 -0.5000
vt 1.0000 -0.5000
v 0.4050 0.1800 -0.5000
vt 1.0000 -0.5000
f 16/5 15/4 14/3 13/2
v 0.4050 0.1800 -0.5000
v -0.5000 0.1800 -0.5000
v -0.5000 0.1300 -0.5000
v 0.4050 0.1300 -0.5000
f 20/1 19/1 18/1 17/1
v 0.4050 0.1300 0.5000
v -0.5000 0.1300 0.5000
v -0.5000 0.1800 0.5000
v 0.4050 0.1800 0.5000
f 24/1 23/1 22/1 21/1
usemtl wi_dark
v 0.3850 0.0700 0.4800
v 0.3850 0.1300 0.4800
v 0.3850 0.1300 -0.4800
v 0.3850 0.0700 -0.4800
f 28/1 27/1 26/1 25/1
v -0.4800 0.0700 -0.4800
v -0.4800 0.1300 -0.4800
v -0.4800 0.1300 0.4800
v -0.4800 0.0700 0.4800
f 32/1 31/1 30/1 29/1
v 0.3850 0.0700 -0.4800
v -0.4800 0.0700 -0.4800
v -0.4800 0.0700 0.4800
v 0.3850 0.0700 0.4800
f 36/1 35/1 34/1 33/1
v 0.3850 0.1300 0.4800
v -0.4800 0.1300 0.4800
v -0.4800 0.1300 -0.4800
v 0.3850 0.1300 -0.4800
f 40/1 39/1 38/1 37/1
v 0.3850 0.1300 -0.4800
v -0.4800 0.1300 -0.4800
v -0.4800 0.0700 -0.4800
v 0.3850 0.0700 -0.4800
f 44/1 43/1 42/1 41/1
v 0.3850 0.0700 0.4800
v -0.4800 0.0700 0.4800
v -0.4800 0.1300 0.4800
v 0.3850 0.1300 0.4800
f 48/1 47/1 46/1 45/1
o Frame
usemtl wi_edge
v 0.4750 0.0600 0.5000
v 0.4750 0.2500 0.5000
v 0.4750 0.2500 -0.5000
v 0.4750 0.0600 -0.5000
f 52/1 51/1 50/1 49/1
v 0.4050 0.0600 -0.5000
v 0.4050 0.2500 -0.5000
v 0.4050 0.2500 0.5000
v 0.4050 0.0600 0.5000
f 56/1 55/1 54/1 53/1
v 0.4750 0.0600 -0.5000
v 0.4050 0.0600 -0.5000
v 0.4050 0.0600 0.5000
v 0.4750 0.0600 0.5000
f 60/1 59/1 58/1 57/1
v 0.4750 0.2500 0.5000
v 0.4050 0.2500 0.5000
v 0.4050 0.2500 -0.5000
v 0.4750 0.2500 -0.5000
f 64/1 63/1 62/1 61/1
v 0.4750 0.2500 -0.5000
v 0.4050 0.2500 -0.5000
v 0.4050 0.0600 -0.5000
v 0.4750 0.0600 -0.5000
f 68/1 67/1 66/1 65/1
v 0.4750 0.0600 0.5000
v 0.4050 0.0600 0.5000
v 0.4050 0.2500 0.5000
v 0.4750 0.2500 0.5000
f 72/1 71/1 70/1 69/1
usemtl wi_copper
v 0.4800 0.2475 0.5000
v 0.4800 0.2725 0.5000
v 0.4800 0.2725 -0.5000
v 0.4800 0.2475 -0.5000
f 76/1 75/1 74/1 73/1
v 0.4000 0.2475 -0.5000
v 0.4000 0.2725 -0.5000
v 0.4000 0.2725 0.5000
v 0.4000 0.2475 0.5000
f 80/1 79/1 78/1 77/1
v 0.4800 0.2475 -0.5000
v 0.4000 0.2475 -0.5000
v 0.4000 0.2475 0.5000
v 0.4800 0.2475 0.5000
f 84/1 83/1 82/1 81/1
v 0.4800 0.2725 0.5000
v 0.4000 0.2725 0.5000
v 0.4000 0.2725 -0.5000
v 0.4800 0.2725 -0.5000
f 88/1 87/1 86/1 85/1
v 0.4800 0.2725 -0.5000
v 0.4000 0.2725 -0.5000
v 0.4000 0.2475 -0.5000
v 0.4800 0.2475 -0.5000
f 92/1 91/1 90/1 89/1
v 0.4800 0.2475 0.5000
v 0.4000 0.2475 0.5000
v 0.4000 0.2725 0.5000
v 0.4800 0.2725 0.5000
f 96/1 95/1 94/1 93/1
usemtl wi_edge
v -0.4400 0.0600 -0.4400
v -0.4400 0.2500 -0.4400
v -0.4400 0.2500 -0.5000
v -0.4400 0.0600 -0.5000
f 100/1 99/1 98/1 97/1
v -0.5000 0.0600 -0.5000
v -0.5000 0.2500 -0.5000
v -0.5000 0.2500 -0.4400
v -0.5000 0.0600 -0.4400
f 104/1 103/1 102/1 101/1
v -0.4400 0.0600 -0.5000
v -0.5000 0.0600 -0.5000
v -0.5000 0.0600 -0.4400
v -0.4400 0.0600 -0.4400
f 108/1 107/1 106/1 105/1
v -0.4400 0.2500 -0.4400
v -0.5000 0.2500 -0.4400
v -0.5000 0.2500 -0.5000
v -0.4400 0.2500 -0.5000
f 112/1 111/1 110/1 109/1
v -0.4400 0.2500 -0.5000
v -0.5000 0.2500 -0.5000
v -0.5000 0.0600 -0.5000
v -0.4400 0.0600 -0.5000
f 116/1 115/1 114/1 113/1
v -0.4400 0.0600 -0.4400
v -0.5000 0.0600 -0.4400
v -0.5000 0.2500 -0.4400
v -0.4400 0.2500 -0.4400
f 120/1 119/1 118/1 117/1
v -0.4400 0.0600 0.5000
v -0.4400 0.2500 0.5000
v -0.4400 0.2500 0.4400
v -0.4400 0.0600 0.4400
f 124/1 123/1 122/1 121/1
v -0.5000 0.0600 0.4400
v -0.5000 0.2500 0.4400
v -0.5000 0.2500 0.5000
v -0.5000 0.0600 0.5000
f 128/1 127/1 126/1 125/1
v -0.4400 0.0600 0.4400
v -0.5000 0.0600 0.4400
v -0.5000 0.0600 0.5000
v -0.4400 0.0600 0.5000
f 132/1 131/1 130/1 129/1
v -0.4400 0.2500 0.5000
v -0.5000 0.2500 0.5000
v -0.5000 0.2500 0.4400
v -0.4400 0.2500 0.4400
f 136/1 135/1 134/1 133/1
v -0.4400 0.2500 0.4400
v -0.5000 0.2500 0.4400
v -0.5000 0.0600 0.4400
v -0.4400 0.0600 0.4400
f 140/1 139/1 138/1 137/1
v -0.4400 0.0600 0.5000
v -0.5000 0.0600 0.5000
v -0.5000 0.2500 0.5000
v -0.4400 0.2500 0.5000
f 144/1 143/1 142/1 141/1
usemtl wi_dark
v 0.4900 0.0000 -0.2400
v 0.4900 0.0600 -0.2400
v 0.4900 0.0600 -0.3600
v 0.4900 0.0000 -0.3600
f 148/1 147/1 146/1 145/1
v 0.3900 0.0000 -0.3600
v 0.3900 0.0600 -0.3600
v 0.3900 0.0600 -0.2400
v 0.3900 0.0000 -0.2400
f 152/1 151/1 150/1 149/1
v 0.4900 0.0000 -0.3600
v 0.3900 0.0000 -0.3600
v 0.3900 0.0000 -0.2400
v 0.4900 0.0000 -0.2400
f 156/1 155/1 154/1 153/1
v 0.4900 0.0600 -0.2400
v 0.3900 0.0600 -0.2400
v 0.3900 0.0600 -0.3600
v 0.4900 0.0600 -0.3600
f 160/1 159/1 158/1 157/1
v 0.4900 0.0600 -0.3600
v 0.3900 0.0600 -0.3600
v 0.3900 0.0000 -0.3600
v 0.4900 0.0000 -0.3600
f 164/1 163/1 162/1 161/1
v 0.4900 0.0000 -0.2400
v 0.3900 0.0000 -0.2400
v 0.3900 0.0600 -0.2400
v 0.4900 0.0600 -0.2400
f 168/1 167/1 166/1 165/1
v 0.4900 0.0000 0.3600
v 0.4900 0.0600 0.3600
v 0.4900 0.0600 0.2400
v 0.4900 0.0000 0.2400
f 172/1 171/1 170/1 169/1
v 0.3900 0.0000 0.2400
v 0.3900 0.0600 0.2400
v 0.3900 0.0600 0.3600
v 0.3900 0.0000 0.3600
f 176/1 175/1 174/1 173/1
v 0.4900 0.0000 0.2400
v 0.3900 0.0000 0.2400
v 0.3900 0.0000 0.3600
v 0.4900 0.0000 0.3600
f 180/1 179/1 178/1 177/1
v 0.4900 0.0600 0.3600
v 0.3900 0.0600 0.3600
v 0.3900 0.0600 0.2400
v 0.4900 0.0600 0.2400
f 184/1 183/1 182/1 181/1
v 0.4900 0.0600 0.2400
v 0.3900 0.0600 0.2400
v 0.3900 0.0000 0.2400
v 0.4900 0.0000 0.2400
f 188/1 187/1 186/1 185/1
v 0.4900 0.0000 0.3600
v 0.3900 0.0000 0.3600
v 0.3900 0.0600 0.3600
v 0.4900 0.0600 0.3600
f 192/1 191/1 190/1 189/1
v -0.3900 0.0000 -0.2400
v -0.3900 0.0600 -0.2400
v -0.3900 0.0600 -0.3600
v -0.3900 0.0000 -0.3600
f 196/1 195/1 194/1 193/1
v -0.4900 0.0000 -0.3600
v -0.4900 0.0600 -0.3600
v -0.4900 0.0600 -0.2400
v -0.4900 0.0000 -0.2400
f 200/1 199/1 198/1 197/1
v -0.3900 0.0000 -0.3600
v -0.4900 0.0000 -0.3600
v -0.4900 0.0000 -0.2400
v -0.3900 0.0000 -0.2400
f 204/1 203/1 202/1 201/1
v -0.3900 0.0600 -0.2400
v -0.4900 0.0600 -0.2400
v -0.4900 0.0600 -0.3600
v -0.3900 0.0600 -0.3600
f 208/1 207/1 206/1 205/1
v -0.3900 0.0600 -0.3600
v -0.4900 0.0600 -0.3600
v -0.4900 0.0000 -0.3600
v -0.3900 0.0000 -0.3600
f 212/1 211/1 210/1 209/1
v -0.3900 0.0000 -0.2400
v -0.4900 0.0000 -0.2400
v -0.4900 0.0600 -0.2400
v -0.3900 0.0600 -0.2400
f 216/1 215/1 214/1 213/1
v -0.3900 0.0000 0.3600
v -0.3900 0.0600 0.3600
v -0.3900 0.0600 0.2400
v -0.3900 0.0000 0.2400
f 220/1 219/1 218/1 217/1
v -0.4900 0.0000 0.2400
v -0.4900 0.0600 0.2400
v -0.4900 0.0600 0.3600
v -0.4900 0.0000 0.3600
f 224/1 223/1 222/1 221/1
v -0.3900 0.0000 0.2400
v -0.4900 0.0000 0.2400
v -0.4900 0.0000 0.3600
v -0.3900 0.0000 0.3600
f 228/1 227/1 226/1 225/1
v -0.3900 0.0600 0.3600
v -0.4900 0.0600 0.3600
v -0.4900 0.0600 0.2400
v -0.3900 0.0600 0.2400
f 232/1 231/1 230/1 229/1
v -0.3900 0.0600 0.2400
v -0.4900 0.0600 0.2400
v -0.4900 0.0000 0.2400
v -0.3900 0.0000 0.2400
f 236/1 235/1 234/1 233/1
v -0.3900 0.0000 0.3600
v -0.4900 0.0000 0.3600
v -0.4900 0.0600 0.3600
v -0.3900 0.0600 0.3600
f 240/1 239/1 238/1 237/1
o Arrows
usemtl wi_yellow
v 0.2018 0.1800 -0.3132
v 0.2018 0.1920 -0.3132
v 0.0588 0.1920 -0.1702
v 0.0588 0.1800 -0.1702
f 244/1 243/1 242/1 241/1
v 0.1012 0.1800 -0.1278
v 0.1012 0.1920 -0.1278
v 0.2442 0.1920 -0.2708
v 0.2442 0.1800 -0.2708
f 248/1 247/1 246/1 245/1
v 0.0588 0.1800 -0.1702
v 0.1012 0.1800 -0.1278
v 0.2442 0.1800 -0.2708
v 0.2018 0.1800 -0.3132
f 252/1 251/1 250/1 249/1
v 0.2018 0.1920 -0.3132
v 0.2442 0.1920 -0.2708
v 0.1012 0.1920 -0.1278
v 0.0588 0.1920 -0.1702
f 256/1 255/1 254/1 253/1
v 0.0588 0.1920 -0.1702
v 0.1012 0.1920 -0.1278
v 0.1012 0.1800 -0.1278
v 0.0588 0.1800 -0.1702
f 260/1 259/1 258/1 257/1
v 0.2018 0.1800 -0.3132
v 0.2442 0.1800 -0.2708
v 0.2442 0.1920 -0.2708
v 0.2018 0.1920 -0.3132
f 264/1 263/1 262/1 261/1
v -0.0842 0.1800 -0.2708
v -0.0842 0.1920 -0.2708
v 0.0588 0.1920 -0.1278
v 0.0588 0.1800 -0.1278
f 268/1 267/1 266/1 265/1
v 0.1012 0.1800 -0.1702
v 0.1012 0.1920 -0.1702
v -0.0418 0.1920 -0.3132
v -0.0418 0.1800 -0.3132
f 272/1 271/1 270/1 269/1
v 0.0588 0.1800 -0.1278
v 0.1012 0.1800 -0.1702
v -0.0418 0.1800 -0.3132
v -0.0842 0.1800 -0.2708
f 276/1 275/1 274/1 273/1
v -0.0842 0.1920 -0.2708
v -0.0418 0.1920 -0.3132
v 0.1012 0.1920 -0.1702
v 0.0588 0.1920 -0.1278
f 280/1 279/1 278/1 277/1
v 0.0588 0.1920 -0.1278
v 0.1012 0.1920 -0.1702
v 0.1012 0.1800 -0.1702
v 0.0588 0.1800 -0.1278
f 284/1 283/1 282/1 281/1
v -0.0842 0.1800 -0.2708
v -0.0418 0.1800 -0.3132
v -0.0418 0.1920 -0.3132
v -0.0842 0.1920 -0.2708
f 288/1 287/1 286/1 285/1
v 0.2018 0.1800 0.1668
v 0.2018 0.1920 0.1668
v 0.0588 0.1920 0.3098
v 0.0588 0.1800 0.3098
f 292/1 291/1 290/1 289/1
v 0.1012 0.1800 0.3522
v 0.1012 0.1920 0.3522
v 0.2442 0.1920 0.2092
v 0.2442 0.1800 0.2092
f 296/1 295/1 294/1 293/1
v 0.0588 0.1800 0.3098
v 0.1012 0.1800 0.3522
v 0.2442 0.1800 0.2092
v 0.2018 0.1800 0.1668
f 300/1 299/1 298/1 297/1
v 0.2018 0.1920 0.1668
v 0.2442 0.1920 0.2092
v 0.1012 0.1920 0.3522
v 0.0588 0.1920 0.3098
f 304/1 303/1 302/1 301/1
v 0.0588 0.1920 0.3098
v 0.1012 0.1920 0.3522
v 0.1012 0.1800 0.3522
v 0.0588 0.1800 0.3098
f 308/1 307/1 306/1 305/1
v 0.2018 0.1800 0.1668
v 0.2442 0.1800 0.2092
v 0.2442 0.1920 0.2092
v 0.2018 0.1920 0.1668
f 312/1 311/1 310/1 309/1
v -0.0842 0.1800 0.2092
v -0.0842 0.1920 0.2092
v 0.0588 0.1920 0.3522
v 0.0588 0.1800 0.3522
f 316/1 315/1 314/1 313/1
v 0.1012 0.1800 0.3098
v 0.1012 0.1920 0.3098
v -0.0418 0.1920 0.1668
v -0.0418 0.1800 0.1668
f 320/1 319/1 318/1 317/1
v 0.0588 0.1800 0.3522
v 0.1012 0.1800 0.3098
v -0.0418 0.1800 0.1668
v -0.0842 0.1800 0.2092
f 324/1 323/1 322/1 321/1
v -0.0842 0.1920 0.2092
v -0.0418 0.1920 0.1668
v 0.1012 0.1920 0.3098
v 0.0588 0.1920 0.3522
f 328/1 327/1 326/1 325/1
v 0.0588 0.1920 0.3522
v 0.1012 0.1920 0.3098
v 0.1012 0.1800 0.3098
v 0.0588 0.1800 0.3522
f 332/1 331/1 330/1 329/1
v -0.0842 0.1800 0.2092
v -0.0418 0.1800 0.1668
v -0.0418 0.1920 0.1668
v -0.0842 0.1920 0.2092
f 336/1 335/1 334/1 333/1
v -0.3732 0.1800 -0.1218
v -0.3732 0.1920 -0.1218
v -0.2302 0.1920 0.0212
v -0.2302 0.1800 0.0212
f 340/1 339/1 338/1 337/1
v -0.1878 0.1800 -0.0212
v -0.1878 0.1920 -0.0212
v -0.3308 0.1920 -0.1642
v -0.3308 0.1800 -0.1642
f 344/1 343/1 342/1 341/1
v -0.2302 0.1800 0.0212
v -0.1878 0.1800 -0.0212
v -0.3308 0.1800 -0.1642
v -0.3732 0.1800 -0.1218
f 348/1 347/1 346/1 345/1
v -0.3732 0.1920 -0.1218
v -0.3308 0.1920 -0.1642
v -0.1878 0.1920 -0.0212
v -0.2302 0.1920 0.0212
f 352/1 351/1 350/1 349/1
v -0.2302 0.1920 0.0212
v -0.1878 0.1920 -0.0212
v -0.1878 0.1800 -0.0212
v -0.2302 0.1800 0.0212
f 356/1 355/1 354/1 353/1
v -0.3732 0.1800 -0.1218
v -0.3308 0.1800 -0.1642
v -0.3308 0.1920 -0.1642
v -0.3732 0.1920 -0.1218
f 360/1 359/1 358/1 357/1
v -0.3308 0.1800 0.1642
v -0.3308 0.1920 0.1642
v -0.1878 0.1920 0.0212
v -0.1878 0.1800 0.0212
f 364/1 363/1 362/1 361/1
v -0.2302 0.1800 -0.0212
v -0.2302 0.1920 -0.0212
v -0.3732 0.1920 0.1218
v -0.3732 0.1800 0.1218
f 368/1 367/1 366/1 365/1
v -0.1878 0.1800 0.0212
v -0.2302 0.1800 -0.0212
v -0.3732 0.1800 0.1218
v -0.3308 0.1800 0.1642
f 372/1 371/1 370/1 369/1
v -0.3308 0.1920 0.1642
v -0.3732 0.1920 0.1218
v -0.2302 0.1920 -0.0212
v -0.1878 0.1920 0.0212
f 376/1 375/1 374/1 373/1
v -0.1878 0.1920 0.0212
v -0.2302 0.1920 -0.0212
v -0.2302 0.1800 -0.0212
v -0.1878 0.1800 0.0212
f 380/1 379/1 378/1 377/1
v -0.3308 0.1800 0.1642
v -0.3732 0.1800 0.1218
v -0.3732 0.1920 0.1218
v -0.3308 0.1920 0.1642
f 384/1 383/1 382/1 381/1
