# Walk of Industry low-poly (generated, wi_lib.py)
mtllib wi.mtl
vt 0 0
o Body
usemtl wi_teal
v 0.3100 0.2400 0.4100
v 0.3100 0.4800 0.4100
v 0.3100 0.4800 -0.4100
v 0.3100 0.2400 -0.4100
f 4/1 3/1 2/1 1/1
v -0.3100 0.2400 -0.4100
v -0.3100 0.4800 -0.4100
v -0.3100 0.4800 0.4100
v -0.3100 0.2400 0.4100
f 8/1 7/1 6/1 5/1
v 0.3100 0.2400 -0.4100
v -0.3100 0.2400 -0.4100
v -0.3100 0.2400 0.4100
v 0.3100 0.2400 0.4100
f 12/1 11/1 10/1 9/1
v 0.3100 0.4800 0.4100
v -0.3100 0.4800 0.4100
v -0.3100 0.4800 -0.4100
v 0.3100 0.4800 -0.4100
f 16/1 15/1 14/1 13/1
v 0.3100 0.4800 -0.4100
v -0.3100 0.4800 -0.4100
v -0.3100 0.2400 -0.4100
v 0.3100 0.2400 -0.4100
f 20/1 19/1 18/1 17/1
v 0.3100 0.2400 0.4100
v -0.3100 0.2400 0.4100
v -0.3100 0.4800 0.4100
v 0.3100 0.4800 0.4100
f 24/1 23/1 22/1 21/1
usemtl wi_copper
v 0.2200 0.4800 0.2600
v 0.2200 0.5600 0.2600
v 0.2200 0.5600 -0.3000
v 0.2200 0.4800 -0.3000
f 28/1 27/1 26/1 25/1
v -0.2200 0.4800 -0.3000
v -0.2200 0.5600 -0.3000
v -0.2200 0.5600 0.2600
v -0.2200 0.4800 0.2600
f 32/1 31/1 30/1 29/1
v 0.2200 0.4800 -0.3000
v -0.2200 0.4800 -0.3000
v -0.2200 0.4800 0.2600
v 0.2200 0.4800 0.2600
f 36/1 35/1 34/1 33/1
v 0.2200 0.5600 0.2600
v -0.2200 0.5600 0.2600
v -0.2200 0.5600 -0.3000
v 0.2200 0.5600 -0.3000
f 40/1 39/1 38/1 37/1
v 0.2200 0.5600 -0.3000
v -0.2200 0.5600 -0.3000
v -0.2200 0.4800 -0.3000
v 0.2200 0.4800 -0.3000
f 44/1 43/1 42/1 41/1
v 0.2200 0.4800 0.2600
v -0.2200 0.4800 0.2600
v -0.2200 0.5600 0.2600
v 0.2200 0.5600 0.2600
f 48/1 47/1 46/1 45/1
usemtl wi_glass
v 0.1700 0.3500 0.4500
v 0.1700 0.4500 0.4500
v 0.1700 0.4500 0.3900
v 0.1700 0.3500 0.3900
f 52/1 51/1 50/1 49/1
v -0.1700 0.3500 0.3900
v -0.1700 0.4500 0.3900
v -0.1700 0.4500 0.4500
v -0.1700 0.3500 0.4500
f 56/1 55/1 54/1 53/1
v 0.1700 0.3500 0.3900
v -0.1700 0.3500 0.3900
v -0.1700 0.3500 0.4500
v 0.1700 0.3500 0.4500
f 60/1 59/1 58/1 57/1
v 0.1700 0.4500 0.4500
v -0.1700 0.4500 0.4500
v -0.1700 0.4500 0.3900
v 0.1700 0.4500 0.3900
f 64/1 63/1 62/1 61/1
v 0.1700 0.4500 0.3900
v -0.1700 0.4500 0.3900
v -0.1700 0.3500 0.3900
v 0.1700 0.3500 0.3900
f 68/1 67/1 66/1 65/1
v 0.1700 0.3500 0.4500
v -0.1700 0.3500 0.4500
v -0.1700 0.4500 0.4500
v 0.1700 0.4500 0.4500
f 72/1 71/1 70/1 69/1
usemtl wi_dark
v 0.1008 0.3650 -0.0301
v 0.1008 0.4350 -0.0301
v 0.6099 0.4350 -0.5392
v 0.6099 0.3650 -0.5392
f 76/1 75/1 74/1 73/1
v 0.5392 0.3650 -0.6099
v 0.5392 0.4350 -0.6099
v 0.0301 0.4350 -0.1008
v 0.0301 0.3650 -0.1008
f 80/1 79/1 78/1 77/1
v 0.6099 0.3650 -0.5392
v 0.5392 0.3650 -0.6099
v 0.0301 0.3650 -0.1008
v 0.1008 0.3650 -0.0301
f 84/1 83/1 82/1 81/1
v 0.1008 0.4350 -0.0301
v 0.0301 0.4350 -0.1008
v 0.5392 0.4350 -0.6099
v 0.6099 0.4350 -0.5392
f 88/1 87/1 86/1 85/1
v 0.6099 0.4350 -0.5392
v 0.5392 0.4350 -0.6099
v 0.5392 0.3650 -0.6099
v 0.6099 0.3650 -0.5392
f 92/1 91/1 90/1 89/1
v 0.1008 0.3650 -0.0301
v 0.0301 0.3650 -0.1008
v 0.0301 0.4350 -0.1008
v 0.1008 0.4350 -0.0301
f 96/1 95/1 94/1 93/1
usemtl wi_steel
v 0.5256 0.3600 -0.4769
v 0.4769 0.3600 -0.5256
v 0.4769 0.5000 -0.5256
v 0.5256 0.5000 -0.4769
f 100/1 99/1 98/1 97/1
v 0.4769 0.3600 -0.5256
v 0.4769 0.3600 -0.5944
v 0.4769 0.5000 -0.5944
v 0.4769 0.5000 -0.5256
f 104/1 103/1 102/1 101/1
v 0.4769 0.3600 -0.5944
v 0.5256 0.3600 -0.6431
v 0.5256 0.5000 -0.6431
v 0.4769 0.5000 -0.5944
f 108/1 107/1 106/1 105/1
v 0.5256 0.3600 -0.6431
v 0.5944 0.3600 -0.6431
v 0.5944 0.5000 -0.6431
v 0.5256 0.5000 -0.6431
f 112/1 111/1 110/1 109/1
v 0.5944 0.3600 -0.6431
v 0.6431 0.3600 -0.5944
v 0.6431 0.5000 -0.5944
v 0.5944 0.5000 -0.6431
f 116/1 115/1 114/1 113/1
v 0.6431 0.3600 -0.5944
v 0.6431 0.3600 -0.5256
v 0.6431 0.5000 -0.5256
v 0.6431 0.5000 -0.5944
f 120/1 119/1 118/1 117/1
v 0.6431 0.3600 -0.5256
v 0.5944 0.3600 -0.4769
v 0.5944 0.5000 -0.4769
v 0.6431 0.5000 -0.5256
f 124/1 123/1 122/1 121/1
v 0.5944 0.3600 -0.4769
v 0.5256 0.3600 -0.4769
v 0.5256 0.5000 -0.4769
v 0.5944 0.5000 -0.4769
f 128/1 127/1 126/1 125/1
v 0.5944 0.3600 -0.4769
v 0.6431 0.3600 -0.5256
v 0.6431 0.3600 -0.5944
v 0.5944 0.3600 -0.6431
v 0.5256 0.3600 -0.6431
v 0.4769 0.3600 -0.5944
v 0.4769 0.3600 -0.5256
v 0.5256 0.3600 -0.4769
f 136/1 135/1 134/1 133/1 132/1 131/1 130/1 129/1
v 0.5256 0.5000 -0.4769
v 0.4769 0.5000 -0.5256
v 0.4769 0.5000 -0.5944
v 0.5256 0.5000 -0.6431
v 0.5944 0.5000 -0.6431
v 0.6431 0.5000 -0.5944
v 0.6431 0.5000 -0.5256
v 0.5944 0.5000 -0.4769
f 144/1 143/1 142/1 141/1 140/1 139/1 138/1 137/1
usemtl wi_dark
v 0.5425 0.5000 -0.5297
v 0.5250 0.5000 -0.5600
v 0.5250 0.5500 -0.5600
v 0.5425 0.5500 -0.5297
f 148/1 147/1 146/1 145/1
v 0.5250 0.5000 -0.5600
v 0.5425 0.5000 -0.5903
v 0.5425 0.5500 -0.5903
v 0.5250 0.5500 -0.5600
f 152/1 151/1 150/1 149/1
v 0.5425 0.5000 -0.5903
v 0.5775 0.5000 -0.5903
v 0.5775 0.5500 -0.5903
v 0.5425 0.5500 -0.5903
f 156/1 155/1 154/1 153/1
v 0.5775 0.5000 -0.5903
v 0.5950 0.5000 -0.5600
v 0.5950 0.5500 -0.5600
v 0.5775 0.5500 -0.5903
f 160/1 159/1 158/1 157/1
v 0.5950 0.5000 -0.5600
v 0.5775 0.5000 -0.5297
v 0.5775 0.5500 -0.5297
v 0.5950 0.5500 -0.5600
f 164/1 163/1 162/1 161/1
v 0.5775 0.5000 -0.5297
v 0.5425 0.5000 -0.5297
v 0.5425 0.5500 -0.5297
v 0.5775 0.5500 -0.5297
f 168/1 167/1 166/1 165/1
v 0.5775 0.5000 -0.5297
v 0.5950 0.5000 -0.5600
v 0.5775 0.5000 -0.5903
v 0.5425 0.5000 -0.5903
v 0.5250 0.5000 -0.5600
v 0.5425 0.5000 -0.5297
f 174/1 173/1 172/1 171/1 170/1 169/1
v 0.5425 0.5500 -0.5297
v 0.5250 0.5500 -0.5600
v 0.5425 0.5500 -0.5903
v 0.5775 0.5500 -0.5903
v 0.5950 0.5500 -0.5600
v 0.5775 0.5500 -0.5297
f 180/1 179/1 178/1 177/1 176/1 175/1
v 0.6099 0.3650 0.5392
v 0.6099 0.4350 0.5392
v 0.1008 0.4350 0.0301
v 0.1008 0.3650 0.0301
f 184/1 183/1 182/1 181/1
v 0.0301 0.3650 0.1008
v 0.0301 0.4350 0.1008
v 0.5392 0.4350 0.6099
v 0.5392 0.3650 0.6099
f 188/1 187/1 186/1 185/1
v 0.1008 0.3650 0.0301
v 0.0301 0.3650 0.1008
v 0.5392 0.3650 0.6099
v 0.6099 0.3650 0.5392
f 192/1 191/1 190/1 189/1
v 0.6099 0.4350 0.5392
v 0.5392 0.4350 0.6099
v 0.0301 0.4350 0.1008
v 0.1008 0.4350 0.0301
f 196/1 195/1 194/1 193/1
v 0.1008 0.4350 0.0301
v 0.0301 0.4350 0.1008
v 0.0301 0.3650 0.1008
v 0.1008 0.3650 0.0301
f 200/1 199/1 198/1 197/1
v 0.6099 0.3650 0.5392
v 0.5392 0.3650 0.6099
v 0.5392 0.4350 0.6099
v 0.6099 0.4350 0.5392
f 204/1 203/1 202/1 201/1
usemtl wi_steel
v 0.5256 0.3600 0.6431
v 0.4769 0.3600 0.5944
v 0.4769 0.5000 0.5944
v 0.5256 0.5000 0.6431
f 208/1 207/1 206/1 205/1
v 0.4769 0.3600 0.5944
v 0.4769 0.3600 0.5256
v 0.4769 0.5000 0.5256
v 0.4769 0.5000 0.5944
f 212/1 211/1 210/1 209/1
v 0.4769 0.3600 0.5256
v 0.5256 0.3600 0.4769
v 0.5256 0.5000 0.4769
v 0.4769 0.5000 0.5256
f 216/1 215/1 214/1 213/1
v 0.5256 0.3600 0.4769
v 0.5944 0.3600 0.4769
v 0.5944 0.5000 0.4769
v 0.5256 0.5000 0.4769
f 220/1 219/1 218/1 217/1
v 0.5944 0.3600 0.4769
v 0.6431 0.3600 0.5256
v 0.6431 0.5000 0.5256
v 0.5944 0.5000 0.4769
f 224/1 223/1 222/1 221/1
v 0.6431 0.3600 0.5256
v 0.6431 0.3600 0.5944
v 0.6431 0.5000 0.5944
v 0.6431 0.5000 0.5256
f 228/1 227/1 226/1 225/1
v 0.6431 0.3600 0.5944
v 0.5944 0.3600 0.6431
v 0.5944 0.5000 0.6431
v 0.6431 0.5000 0.5944
f 232/1 231/1 230/1 229/1
v 0.5944 0.3600 0.6431
v 0.5256 0.3600 0.6431
v 0.5256 0.5000 0.6431
v 0.5944 0.5000 0.6431
f 236/1 235/1 234/1 233/1
v 0.5944 0.3600 0.6431
v 0.6431 0.3600 0.5944
v 0.6431 0.3600 0.5256
v 0.5944 0.3600 0.4769
v 0.5256 0.3600 0.4769
v 0.4769 0.3600 0.5256
v 0.4769 0.3600 0.5944
v 0.5256 0.3600 0.6431
f 244/1 243/1 242/1 241/1 240/1 239/1 238/1 237/1
v 0.5256 0.5000 0.6431
v 0.4769 0.5000 0.5944
v 0.4769 0.5000 0.5256
v 0.5256 0.5000 0.4769
v 0.5944 0.5000 0.4769
v 0.6431 0.5000 0.5256
v 0.6431 0.5000 0.5944
v 0.5944 0.5000 0.6431
f 252/1 251/1 250/1 249/1 248/1 247/1 246/1 245/1
usemtl wi_dark
v 0.5425 0.5000 0.5903
v 0.5250 0.5000 0.5600
v 0.5250 0.5500 0.5600
v 0.5425 0.5500 0.5903
f 256/1 255/1 254/1 253/1
v 0.5250 0.5000 0.5600
v 0.5425 0.5000 0.5297
v 0.5425 0.5500 0.5297
v 0.5250 0.5500 0.5600
f 260/1 259/1 258/1 257/1
v 0.5425 0.5000 0.5297
v 0.5775 0.5000 0.5297
v 0.5775 0.5500 0.5297
v 0.5425 0.5500 0.5297
f 264/1 263/1 262/1 261/1
v 0.5775 0.5000 0.5297
v 0.5950 0.5000 0.5600
v 0.5950 0.5500 0.5600
v 0.5775 0.5500 0.5297
f 268/1 267/1 266/1 265/1
v 0.5950 0.5000 0.5600
v 0.5775 0.5000 0.5903
v 0.5775 0.5500 0.5903
v 0.5950 0.5500 0.5600
f 272/1 271/1 270/1 269/1
v 0.5775 0.5000 0.5903
v 0.5425 0.5000 0.5903
v 0.5425 0.5500 0.5903
v 0.5775 0.5500 0.5903
f 276/1 275/1 274/1 273/1
v 0.5775 0.5000 0.5903
v 0.5950 0.5000 0.5600
v 0.5775 0.5000 0.5297
v 0.5425 0.5000 0.5297
v 0.5250 0.5000 0.5600
v 0.5425 0.5000 0.5903
f 282/1 281/1 280/1 279/1 278/1 277/1
v 0.5425 0.5500 0.5903
v 0.5250 0.5500 0.5600
v 0.5425 0.5500 0.5297
v 0.5775 0.5500 0.5297
v 0.5950 0.5500 0.5600
v 0.5775 0.5500 0.5903
f 288/1 287/1 286/1 285/1 284/1 283/1
v -0.0301 0.3650 -0.1008
v -0.0301 0.4350 -0.1008
v -0.5392 0.4350 -0.6099
v -0.5392 0.3650 -0.6099
f 292/1 291/1 290/1 289/1
v -0.6099 0.3650 -0.5392
v -0.6099 0.4350 -0.5392
v -0.1008 0.4350 -0.0301
v -0.1008 0.3650 -0.0301
f 296/1 295/1 294/1 293/1
v -0.5392 0.3650 -0.6099
v -0.6099 0.3650 -0.5392
v -0.1008 0.3650 -0.0301
v -0.0301 0.3650 -0.1008
f 300/1 299/1 298/1 297/1
v -0.0301 0.4350 -0.1008
v -0.1008 0.4350 -0.0301
v -0.6099 0.4350 -0.5392
v -0.5392 0.4350 -0.6099
f 304/1 303/1 302/1 301/1
v -0.5392 0.4350 -0.6099
v -0.6099 0.4350 -0.5392
v -0.6099 0.3650 -0.5392
v -0.5392 0.3650 -0.6099
f 308/1 307/1 306/1 305/1
v -0.0301 0.3650 -0.1008
v -0.1008 0.3650 -0.0301
v -0.1008 0.4350 -0.0301
v -0.0301 0.4350 -0.1008
f 312/1 311/1 310/1 309/1
usemtl wi_steel
v -0.5944 0.3600 -0.4769
v -0.6431 0.3600 -0.5256
v -0.6431 0.5000 -0.5256
v -0.5944 0.5000 -0.4769
f 316/1 315/1 314/1 313/1
v -0.6431 0.3600 -0.5256
v -0.6431 0.3600 -0.5944
v -0.6431 0.5000 -0.5944
v -0.6431 0.5000 -0.5256
f 320/1 319/1 318/1 317/1
v -0.6431 0.3600 -0.5944
v -0.5944 0.3600 -0.6431
v -0.5944 0.5000 -0.6431
v -0.6431 0.5000 -0.5944
f 324/1 323/1 322/1 321/1
v -0.5944 0.3600 -0.6431
v -0.5256 0.3600 -0.6431
v -0.5256 0.5000 -0.6431
v -0.5944 0.5000 -0.6431
f 328/1 327/1 326/1 325/1
v -0.5256 0.3600 -0.6431
v -0.4769 0.3600 -0.5944
v -0.4769 0.5000 -0.5944
v -0.5256 0.5000 -0.6431
f 332/1 331/1 330/1 329/1
v -0.4769 0.3600 -0.5944
v -0.4769 0.3600 -0.5256
v -0.4769 0.5000 -0.5256
v -0.4769 0.5000 -0.5944
f 336/1 335/1 334/1 333/1
v -0.4769 0.3600 -0.5256
v -0.5256 0.3600 -0.4769
v -0.5256 0.5000 -0.4769
v -0.4769 0.5000 -0.5256
f 340/1 339/1 338/1 337/1
v -0.5256 0.3600 -0.4769
v -0.5944 0.3600 -0.4769
v -0.5944 0.5000 -0.4769
v -0.5256 0.5000 -0.4769
f 344/1 343/1 342/1 341/1
v -0.5256 0.3600 -0.4769
v -0.4769 0.3600 -0.5256
v -0.4769 0.3600 -0.5944
v -0.5256 0.3600 -0.6431
v -0.5944 0.3600 -0.6431
v -0.6431 0.3600 -0.5944
v -0.6431 0.3600 -0.5256
v -0.5944 0.3600 -0.4769
f 352/1 351/1 350/1 349/1 348/1 347/1 346/1 345/1
v -0.5944 0.5000 -0.4769
v -0.6431 0.5000 -0.5256
v -0.6431 0.5000 -0.5944
v -0.5944 0.5000 -0.6431
v -0.5256 0.5000 -0.6431
v -0.4769 0.5000 -0.5944
v -0.4769 0.5000 -0.5256
v -0.5256 0.5000 -0.4769
f 360/1 359/1 358/1 357/1 356/1 355/1 354/1 353/1
usemtl wi_dark
v -0.5775 0.5000 -0.5297
v -0.5950 0.5000 -0.5600
v -0.5950 0.5500 -0.5600
v -0.5775 0.5500 -0.5297
f 364/1 363/1 362/1 361/1
v -0.5950 0.5000 -0.5600
v -0.5775 0.5000 -0.5903
v -0.5775 0.5500 -0.5903
v -0.5950 0.5500 -0.5600
f 368/1 367/1 366/1 365/1
v -0.5775 0.5000 -0.5903
v -0.5425 0.5000 -0.5903
v -0.5425 0.5500 -0.5903
v -0.5775 0.5500 -0.5903
f 372/1 371/1 370/1 369/1
v -0.5425 0.5000 -0.5903
v -0.5250 0.5000 -0.5600
v -0.5250 0.5500 -0.5600
v -0.5425 0.5500 -0.5903
f 376/1 375/1 374/1 373/1
v -0.5250 0.5000 -0.5600
v -0.5425 0.5000 -0.5297
v -0.5425 0.5500 -0.5297
v -0.5250 0.5500 -0.5600
f 380/1 379/1 378/1 377/1
v -0.5425 0.5000 -0.5297
v -0.5775 0.5000 -0.5297
v -0.5775 0.5500 -0.5297
v -0.5425 0.5500 -0.5297
f 384/1 383/1 382/1 381/1
v -0.5425 0.5000 -0.5297
v -0.5250 0.5000 -0.5600
v -0.5425 0.5000 -0.5903
v -0.5775 0.5000 -0.5903
v -0.5950 0.5000 -0.5600
v -0.5775 0.5000 -0.5297
f 390/1 389/1 388/1 387/1 386/1 385/1
v -0.5775 0.5500 -0.5297
v -0.5950 0.5500 -0.5600
v -0.5775 0.5500 -0.5903
v -0.5425 0.5500 -0.5903
v -0.5250 0.5500 -0.5600
v -0.5425 0.5500 -0.5297
f 396/1 395/1 394/1 393/1 392/1 391/1
v -0.5392 0.3650 0.6099
v -0.5392 0.4350 0.6099
v -0.0301 0.4350 0.1008
v -0.0301 0.3650 0.1008
f 400/1 399/1 398/1 397/1
v -0.1008 0.3650 0.0301
v -0.1008 0.4350 0.0301
v -0.6099 0.4350 0.5392
v -0.6099 0.3650 0.5392
f 404/1 403/1 402/1 401/1
v -0.0301 0.3650 0.1008
v -0.1008 0.3650 0.0301
v -0.6099 0.3650 0.5392
v -0.5392 0.3650 0.6099
f 408/1 407/1 406/1 405/1
v -0.5392 0.4350 0.6099
v -0.6099 0.4350 0.5392
v -0.1008 0.4350 0.0301
v -0.0301 0.4350 0.1008
f 412/1 411/1 410/1 409/1
v -0.0301 0.4350 0.1008
v -0.1008 0.4350 0.0301
v -0.1008 0.3650 0.0301
v -0.0301 0.3650 0.1008
f 416/1 415/1 414/1 413/1
v -0.5392 0.3650 0.6099
v -0.6099 0.3650 0.5392
v -0.6099 0.4350 0.5392
v -0.5392 0.4350 0.6099
f 420/1 419/1 418/1 417/1
usemtl wi_steel
v -0.5944 0.3600 0.6431
v -0.6431 0.3600 0.5944
v -0.6431 0.5000 0.5944
v -0.5944 0.5000 0.6431
f 424/1 423/1 422/1 421/1
v -0.6431 0.3600 0.5944
v -0.6431 0.3600 0.5256
v -0.6431 0.5000 0.5256
v -0.6431 0.5000 0.5944
f 428/1 427/1 426/1 425/1
v -0.6431 0.3600 0.5256
v -0.5944 0.3600 0.4769
v -0.5944 0.5000 0.4769
v -0.6431 0.5000 0.5256
f 432/1 431/1 430/1 429/1
v -0.5944 0.3600 0.4769
v -0.5256 0.3600 0.4769
v -0.5256 0.5000 0.4769
v -0.5944 0.5000 0.4769
f 436/1 435/1 434/1 433/1
v -0.5256 0.3600 0.4769
v -0.4769 0.3600 0.5256
v -0.4769 0.5000 0.5256
v -0.5256 0.5000 0.4769
f 440/1 439/1 438/1 437/1
v -0.4769 0.3600 0.5256
v -0.4769 0.3600 0.5944
v -0.4769 0.5000 0.5944
v -0.4769 0.5000 0.5256
f 444/1 443/1 442/1 441/1
v -0.4769 0.3600 0.5944
v -0.5256 0.3600 0.6431
v -0.5256 0.5000 0.6431
v -0.4769 0.5000 0.5944
f 448/1 447/1 446/1 445/1
v -0.5256 0.3600 0.6431
v -0.5944 0.3600 0.6431
v -0.5944 0.5000 0.6431
v -0.5256 0.5000 0.6431
f 452/1 451/1 450/1 449/1
v -0.5256 0.3600 0.6431
v -0.4769 0.3600 0.5944
v -0.4769 0.3600 0.5256
v -0.5256 0.3600 0.4769
v -0.5944 0.3600 0.4769
v -0.6431 0.3600 0.5256
v -0.6431 0.3600 0.5944
v -0.5944 0.3600 0.6431
f 460/1 459/1 458/1 457/1 456/1 455/1 454/1 453/1
v -0.5944 0.5000 0.6431
v -0.6431 0.5000 0.5944
v -0.6431 0.5000 0.5256
v -0.5944 0.5000 0.4769
v -0.5256 0.5000 0.4769
v -0.4769 0.5000 0.5256
v -0.4769 0.5000 0.5944
v -0.5256 0.5000 0.6431
f 468/1 467/1 466/1 465/1 464/1 463/1 462/1 461/1
usemtl wi_dark
v -0.5775 0.5000 0.5903
v -0.5950 0.5000 0.5600
v -0.5950 0.5500 0.5600
v -0.5775 0.5500 0.5903
f 472/1 471/1 470/1 469/1
v -0.5950 0.5000 0.5600
v -0.5775 0.5000 0.5297
v -0.5775 0.5500 0.5297
v -0.5950 0.5500 0.5600
f 476/1 475/1 474/1 473/1
v -0.5775 0.5000 0.5297
v -0.5425 0.5000 0.5297
v -0.5425 0.5500 0.5297
v -0.5775 0.5500 0.5297
f 480/1 479/1 478/1 477/1
v -0.5425 0.5000 0.5297
v -0.5250 0.5000 0.5600
v -0.5250 0.5500 0.5600
v -0.5425 0.5500 0.5297
f 484/1 483/1 482/1 481/1
v -0.5250 0.5000 0.5600
v -0.5425 0.5000 0.5903
v -0.5425 0.5500 0.5903
v -0.5250 0.5500 0.5600
f 488/1 487/1 486/1 485/1
v -0.5425 0.5000 0.5903
v -0.5775 0.5000 0.5903
v -0.5775 0.5500 0.5903
v -0.5425 0.5500 0.5903
f 492/1 491/1 490/1 489/1
v -0.5425 0.5000 0.5903
v -0.5250 0.5000 0.5600
v -0.5425 0.5000 0.5297
v -0.5775 0.5000 0.5297
v -0.5950 0.5000 0.5600
v -0.5775 0.5000 0.5903
f 498/1 497/1 496/1 495/1 494/1 493/1
v -0.5775 0.5500 0.5903
v -0.5950 0.5500 0.5600
v -0.5775 0.5500 0.5297
v -0.5425 0.5500 0.5297
v -0.5250 0.5500 0.5600
v -0.5425 0.5500 0.5903
f 504/1 503/1 502/1 501/1 500/1 499/1
v 0.2450 0.0200 0.2050
v 0.2450 0.2400 0.2050
v 0.2450 0.2400 0.1550
v 0.2450 0.0200 0.1550
f 508/1 507/1 506/1 505/1
v 0.1950 0.0200 0.1550
v 0.1950 0.2400 0.1550
v 0.1950 0.2400 0.2050
v 0.1950 0.0200 0.2050
f 512/1 511/1 510/1 509/1
v 0.2450 0.0200 0.1550
v 0.1950 0.0200 0.1550
v 0.1950 0.0200 0.2050
v 0.2450 0.0200 0.2050
f 516/1 515/1 514/1 513/1
v 0.2450 0.2400 0.2050
v 0.1950 0.2400 0.2050
v 0.1950 0.2400 0.1550
v 0.2450 0.2400 0.1550
f 520/1 519/1 518/1 517/1
v 0.2450 0.2400 0.1550
v 0.1950 0.2400 0.1550
v 0.1950 0.0200 0.1550
v 0.2450 0.0200 0.1550
f 524/1 523/1 522/1 521/1
v 0.2450 0.0200 0.2050
v 0.1950 0.0200 0.2050
v 0.1950 0.2400 0.2050
v 0.2450 0.2400 0.2050
f 528/1 527/1 526/1 525/1
v 0.2450 0.0200 -0.1550
v 0.2450 0.2400 -0.1550
v 0.2450 0.2400 -0.2050
v 0.2450 0.0200 -0.2050
f 532/1 531/1 530/1 529/1
v 0.1950 0.0200 -0.2050
v 0.1950 0.2400 -0.2050
v 0.1950 0.2400 -0.1550
v 0.1950 0.0200 -0.1550
f 536/1 535/1 534/1 533/1
v 0.2450 0.0200 -0.2050
v 0.1950 0.0200 -0.2050
v 0.1950 0.0200 -0.1550
v 0.2450 0.0200 -0.1550
f 540/1 539/1 538/1 537/1
v 0.2450 0.2400 -0.1550
v 0.1950 0.2400 -0.1550
v 0.1950 0.2400 -0.2050
v 0.2450 0.2400 -0.2050
f 544/1 543/1 542/1 541/1
v 0.2450 0.2400 -0.2050
v 0.1950 0.2400 -0.2050
v 0.1950 0.0200 -0.2050
v 0.2450 0.0200 -0.2050
f 548/1 547/1 546/1 545/1
v 0.2450 0.0200 -0.1550
v 0.1950 0.0200 -0.1550
v 0.1950 0.2400 -0.1550
v 0.2450 0.2400 -0.1550
f 552/1 551/1 550/1 549/1
v 0.2500 0.0050 0.3600
v 0.2500 0.0550 0.3600
v 0.2500 0.0550 -0.3600
v 0.2500 0.0050 -0.3600
f 556/1 555/1 554/1 553/1
v 0.1900 0.0050 -0.3600
v 0.1900 0.0550 -0.3600
v 0.1900 0.0550 0.3600
v 0.1900 0.0050 0.3600
f 560/1 559/1 558/1 557/1
v 0.2500 0.0050 -0.3600
v 0.1900 0.0050 -0.3600
v 0.1900 0.0050 0.3600
v 0.2500 0.0050 0.3600
f 564/1 563/1 562/1 561/1
v 0.2500 0.0550 0.3600
v 0.1900 0.0550 0.3600
v 0.1900 0.0550 -0.3600
v 0.2500 0.0550 -0.3600
f 568/1 567/1 566/1 565/1
v 0.2500 0.0550 -0.3600
v 0.1900 0.0550 -0.3600
v 0.1900 0.0050 -0.3600
v 0.2500 0.0050 -0.3600
f 572/1 571/1 570/1 569/1
v 0.2500 0.0050 0.3600
v 0.1900 0.0050 0.3600
v 0.1900 0.0550 0.3600
v 0.2500 0.0550 0.3600
f 576/1 575/1 574/1 573/1
v -0.1950 0.0200 0.2050
v -0.1950 0.2400 0.2050
v -0.1950 0.2400 0.1550
v -0.1950 0.0200 0.1550
f 580/1 579/1 578/1 577/1
v -0.2450 0.0200 0.1550
v -0.2450 0.2400 0.1550
v -0.2450 0.2400 0.2050
v -0.2450 0.0200 0.2050
f 584/1 583/1 582/1 581/1
v -0.1950 0.0200 0.1550
v -0.2450 0.0200 0.1550
v -0.2450 0.0200 0.2050
v -0.1950 0.0200 0.2050
f 588/1 587/1 586/1 585/1
v -0.1950 0.2400 0.2050
v -0.2450 0.2400 0.2050
v -0.2450 0.2400 0.1550
v -0.1950 0.2400 0.1550
f 592/1 591/1 590/1 589/1
v -0.1950 0.2400 0.1550
v -0.2450 0.2400 0.1550
v -0.2450 0.0200 0.1550
v -0.1950 0.0200 0.1550
f 596/1 595/1 594/1 593/1
v -0.1950 0.0200 0.2050
v -0.2450 0.0200 0.2050
v -0.2450 0.2400 0.2050
v -0.1950 0.2400 0.2050
f 600/1 599/1 598/1 597/1
v -0.1950 0.0200 -0.1550
v -0.1950 0.2400 -0.1550
v -0.1950 0.2400 -0.2050
v -0.1950 0.0200 -0.2050
f 604/1 603/1 602/1 601/1
v -0.2450 0.0200 -0.2050
v -0.2450 0.2400 -0.2050
v -0.2450 0.2400 -0.1550
v -0.2450 0.0200 -0.1550
f 608/1 607/1 606/1 605/1
v -0.1950 0.0200 -0.2050
v -0.2450 0.0200 -0.2050
v -0.2450 0.0200 -0.1550
v -0.1950 0.0200 -0.1550
f 612/1 611/1 610/1 609/1
v -0.1950 0.2400 -0.1550
v -0.2450 0.2400 -0.1550
v -0.2450 0.2400 -0.2050
v -0.1950 0.2400 -0.2050
f 616/1 615/1 614/1 613/1
v -0.1950 0.2400 -0.2050
v -0.2450 0.2400 -0.2050
v -0.2450 0.0200 -0.2050
v -0.1950 0.0200 -0.2050
f 620/1 619/1 618/1 617/1
v -0.1950 0.0200 -0.1550
v -0.2450 0.0200 -0.1550
v -0.2450 0.2400 -0.1550
v -0.1950 0.2400 -0.1550
f 624/1 623/1 622/1 621/1
v -0.1900 0.0050 0.3600
v -0.1900 0.0550 0.3600
v -0.1900 0.0550 -0.3600
v -0.1900 0.0050 -0.3600
f 628/1 627/1 626/1 625/1
v -0.2500 0.0050 -0.3600
v -0.2500 0.0550 -0.3600
v -0.2500 0.0550 0.3600
v -0.2500 0.0050 0.3600
f 632/1 631/1 630/1 629/1
v -0.1900 0.0050 -0.3600
v -0.2500 0.0050 -0.3600
v -0.2500 0.0050 0.3600
v -0.1900 0.0050 0.3600
f 636/1 635/1 634/1 633/1
v -0.1900 0.0550 0.3600
v -0.2500 0.0550 0.3600
v -0.2500 0.0550 -0.3600
v -0.1900 0.0550 -0.3600
f 640/1 639/1 638/1 637/1
v -0.1900 0.0550 -0.3600
v -0.2500 0.0550 -0.3600
v -0.2500 0.0050 -0.3600
v -0.1900 0.0050 -0.3600
f 644/1 643/1 642/1 641/1
v -0.1900 0.0050 0.3600
v -0.2500 0.0050 0.3600
v -0.2500 0.0550 0.3600
v -0.1900 0.0550 0.3600
f 648/1 647/1 646/1 645/1
o Lamp
usemtl wi_lamp
v 0.0500 0.5550 0.2300
v 0.0500 0.6050 0.2300
v 0.0500 0.6050 0.1300
v 0.0500 0.5550 0.1300
f 652/1 651/1 650/1 649/1
v -0.0500 0.5550 0.1300
v -0.0500 0.6050 0.1300
v -0.0500 0.6050 0.2300
v -0.0500 0.5550 0.2300
f 656/1 655/1 654/1 653/1
v 0.0500 0.5550 0.1300
v -0.0500 0.5550 0.1300
v -0.0500 0.5550 0.2300
v 0.0500 0.5550 0.2300
f 660/1 659/1 658/1 657/1
v 0.0500 0.6050 0.2300
v -0.0500 0.6050 0.2300
v -0.0500 0.6050 0.1300
v 0.0500 0.6050 0.1300
f 664/1 663/1 662/1 661/1
v 0.0500 0.6050 0.1300
v -0.0500 0.6050 0.1300
v -0.0500 0.5550 0.1300
v 0.0500 0.5550 0.1300
f 668/1 667/1 666/1 665/1
v 0.0500 0.5550 0.2300
v -0.0500 0.5550 0.2300
v -0.0500 0.6050 0.2300
v 0.0500 0.6050 0.2300
f 672/1 671/1 670/1 669/1
o Crate
usemtl wi_crate
v 0.2000 0.0100 0.2300
v 0.2000 0.2700 0.2300
v 0.2000 0.2700 -0.2300
v 0.2000 0.0100 -0.2300
f 676/1 675/1 674/1 673/1
v -0.2000 0.0100 -0.2300
v -0.2000 0.2700 -0.2300
v -0.2000 0.2700 0.2300
v -0.2000 0.0100 0.2300
f 680/1 679/1 678/1 677/1
v 0.2000 0.0100 -0.2300
v -0.2000 0.0100 -0.2300
v -0.2000 0.0100 0.2300
v 0.2000 0.0100 0.2300
f 684/1 683/1 682/1 681/1
v 0.2000 0.2700 0.2300
v -0.2000 0.2700 0.2300
v -0.2000 0.2700 -0.2300
v 0.2000 0.2700 -0.2300
f 688/1 687/1 686/1 685/1
v 0.2000 0.2700 -0.2300
v -0.2000 0.2700 -0.2300
v -0.2000 0.0100 -0.2300
v 0.2000 0.0100 -0.2300
f 692/1 691/1 690/1 689/1
v 0.2000 0.0100 0.2300
v -0.2000 0.0100 0.2300
v -0.2000 0.2700 0.2300
v 0.2000 0.2700 0.2300
f 696/1 695/1 694/1 693/1
usemtl wi_copper
v 0.2100 0.1150 0.2400
v 0.2100 0.1650 0.2400
v 0.2100 0.1650 -0.2400
v 0.2100 0.1150 -0.2400
f 700/1 699/1 698/1 697/1
v -0.2100 0.1150 -0.2400
v -0.2100 0.1650 -0.2400
v -0.2100 0.1650 0.2400
v -0.2100 0.1150 0.2400
f 704/1 703/1 702/1 701/1
v 0.2100 0.1150 -0.2400
v -0.2100 0.1150 -0.2400
v -0.2100 0.1150 0.2400
v 0.2100 0.1150 0.2400
f 708/1 707/1 706/1 705/1
v 0.2100 0.1650 0.2400
v -0.2100 0.1650 0.2400
v -0.2100 0.1650 -0.2400
v 0.2100 0.1650 -0.2400
f 712/1 711/1 710/1 709/1
v 0.2100 0.1650 -0.2400
v -0.2100 0.1650 -0.2400
v -0.2100 0.1150 -0.2400
v 0.2100 0.1150 -0.2400
f 716/1 715/1 714/1 713/1
v 0.2100 0.1150 0.2400
v -0.2100 0.1150 0.2400
v -0.2100 0.1650 0.2400
v 0.2100 0.1650 0.2400
f 720/1 719/1 718/1 717/1
v 0.0300 0.0000 0.2400
v 0.0300 0.2800 0.2400
v 0.0300 0.2800 -0.2400
v 0.0300 0.0000 -0.2400
f 724/1 723/1 722/1 721/1
v -0.0300 0.0000 -0.2400
v -0.0300 0.2800 -0.2400
v -0.0300 0.2800 0.2400
v -0.0300 0.0000 0.2400
f 728/1 727/1 726/1 725/1
v 0.0300 0.0000 -0.2400
v -0.0300 0.0000 -0.2400
v -0.0300 0.0000 0.2400
v 0.0300 0.0000 0.2400
f 732/1 731/1 730/1 729/1
v 0.0300 0.2800 0.2400
v -0.0300 0.2800 0.2400
v -0.0300 0.2800 -0.2400
v 0.0300 0.2800 -0.2400
f 736/1 735/1 734/1 733/1
v 0.0300 0.2800 -0.2400
v -0.0300 0.2800 -0.2400
v -0.0300 0.0000 -0.2400
v 0.0300 0.0000 -0.2400
f 740/1 739/1 738/1 737/1
v 0.0300 0.0000 0.2400
v -0.0300 0.0000 0.2400
v -0.0300 0.2800 0.2400
v 0.0300 0.2800 0.2400
f 744/1 743/1 742/1 741/1
