# Walk of Industry low-poly (generated, wi_lib.py)
mtllib wi.mtl
vt 0 0
o Base
usemtl wi_base
v 2.5000 0.0000 2.5000
v 2.5000 0.1600 2.5000
v 2.5000 0.1600 -2.5000
v 2.5000 0.0000 -2.5000
f 4/1 3/1 2/1 1/1
v -2.5000 0.0000 -2.5000
v -2.5000 0.1600 -2.5000
v -2.5000 0.1600 2.5000
v -2.5000 0.0000 2.5000
f 8/1 7/1 6/1 5/1
v 2.5000 0.0000 -2.5000
v -2.5000 0.0000 -2.5000
v -2.5000 0.0000 2.5000
v 2.5000 0.0000 2.5000
f 12/1 11/1 10/1 9/1
v 2.5000 0.1600 2.5000
v -2.5000 0.1600 2.5000
v -2.5000 0.1600 -2.5000
v 2.5000 0.1600 -2.5000
f 16/1 15/1 14/1 13/1
v 2.5000 0.1600 -2.5000
v -2.5000 0.1600 -2.5000
v -2.5000 0.0000 -2.5000
v 2.5000 0.0000 -2.5000
f 20/1 19/1 18/1 17/1
v 2.5000 0.0000 2.5000
v -2.5000 0.0000 2.5000
v -2.5000 0.1600 2.5000
v 2.5000 0.1600 2.5000
f 24/1 23/1 22/1 21/1
usemtl wi_steel
v 2.4500 0.0000 2.4500
v 2.4500 0.5000 2.4500
v 2.4500 0.5000 -0.5500
v 2.4500 0.0000 -0.5500
f 28/1 27/1 26/1 25/1
v -2.4500 0.0000 -0.5500
v -2.4500 0.5000 -0.5500
v -2.4500 0.5000 2.4500
v -2.4500 0.0000 2.4500
f 32/1 31/1 30/1 29/1
v 2.4500 0.0000 -0.5500
v -2.4500 0.0000 -0.5500
v -2.4500 0.0000 2.4500
v 2.4500 0.0000 2.4500
f 36/1 35/1 34/1 33/1
v 2.4500 0.5000 2.4500
v -2.4500 0.5000 2.4500
v -2.4500 0.5000 -0.5500
v 2.4500 0.5000 -0.5500
f 40/1 39/1 38/1 37/1
v 2.4500 0.5000 -0.5500
v -2.4500 0.5000 -0.5500
v -2.4500 0.0000 -0.5500
v 2.4500 0.0000 -0.5500
f 44/1 43/1 42/1 41/1
v 2.4500 0.0000 2.4500
v -2.4500 0.0000 2.4500
v -2.4500 0.5000 2.4500
v 2.4500 0.5000 2.4500
f 48/1 47/1 46/1 45/1
usemtl wi_yellow
v 2.4500 0.5000 2.4500
v 2.4500 0.7400 2.4500
v 2.4500 0.7400 -0.5500
v 2.4500 0.5000 -0.5500
f 52/1 51/1 50/1 49/1
v 2.3900 0.5000 -0.5500
v 2.3900 0.7400 -0.5500
v 2.3900 0.7400 2.4500
v 2.3900 0.5000 2.4500
f 56/1 55/1 54/1 53/1
v 2.4500 0.5000 -0.5500
v 2.3900 0.5000 -0.5500
v 2.3900 0.5000 2.4500
v 2.4500 0.5000 2.4500
f 60/1 59/1 58/1 57/1
v 2.4500 0.7400 2.4500
v 2.3900 0.7400 2.4500
v 2.3900 0.7400 -0.5500
v 2.4500 0.7400 -0.5500
f 64/1 63/1 62/1 61/1
v 2.4500 0.7400 -0.5500
v 2.3900 0.7400 -0.5500
v 2.3900 0.5000 -0.5500
v 2.4500 0.5000 -0.5500
f 68/1 67/1 66/1 65/1
v 2.4500 0.5000 2.4500
v 2.3900 0.5000 2.4500
v 2.3900 0.7400 2.4500
v 2.4500 0.7400 2.4500
f 72/1 71/1 70/1 69/1
v -2.3900 0.5000 2.4500
v -2.3900 0.7400 2.4500
v -2.3900 0.7400 -0.5500
v -2.3900 0.5000 -0.5500
f 76/1 75/1 74/1 73/1
v -2.4500 0.5000 -0.5500
v -2.4500 0.7400 -0.5500
v -2.4500 0.7400 2.4500
v -2.4500 0.5000 2.4500
f 80/1 79/1 78/1 77/1
v -2.3900 0.5000 -0.5500
v -2.4500 0.5000 -0.5500
v -2.4500 0.5000 2.4500
v -2.3900 0.5000 2.4500
f 84/1 83/1 82/1 81/1
v -2.3900 0.7400 2.4500
v -2.4500 0.7400 2.4500
v -2.4500 0.7400 -0.5500
v -2.3900 0.7400 -0.5500
f 88/1 87/1 86/1 85/1
v -2.3900 0.7400 -0.5500
v -2.4500 0.7400 -0.5500
v -2.4500 0.5000 -0.5500
v -2.3900 0.5000 -0.5500
f 92/1 91/1 90/1 89/1
v -2.3900 0.5000 2.4500
v -2.4500 0.5000 2.4500
v -2.4500 0.7400 2.4500
v -2.3900 0.7400 2.4500
f 96/1 95/1 94/1 93/1
usemtl wi_steel
v 1.9500 0.5000 1.0500
v 1.9500 0.6200 1.0500
v 1.9500 0.6200 -0.4500
v 1.9500 0.5000 -0.4500
f 100/1 99/1 98/1 97/1
v 0.4500 0.5000 -0.4500
v 0.4500 0.6200 -0.4500
v 0.4500 0.6200 1.0500
v 0.4500 0.5000 1.0500
f 104/1 103/1 102/1 101/1
v 1.9500 0.5000 -0.4500
v 0.4500 0.5000 -0.4500
v 0.4500 0.5000 1.0500
v 1.9500 0.5000 1.0500
f 108/1 107/1 106/1 105/1
v 1.9500 0.6200 1.0500
v 0.4500 0.6200 1.0500
v 0.4500 0.6200 -0.4500
v 1.9500 0.6200 -0.4500
f 112/1 111/1 110/1 109/1
v 1.9500 0.6200 -0.4500
v 0.4500 0.6200 -0.4500
v 0.4500 0.5000 -0.4500
v 1.9500 0.5000 -0.4500
f 116/1 115/1 114/1 113/1
v 1.9500 0.5000 1.0500
v 0.4500 0.5000 1.0500
v 0.4500 0.6200 1.0500
v 1.9500 0.6200 1.0500
f 120/1 119/1 118/1 117/1
usemtl wi_dark
v 1.8200 0.6200 0.9200
v 1.8200 0.6300 0.9200
v 1.8200 0.6300 -0.3200
v 1.8200 0.6200 -0.3200
f 124/1 123/1 122/1 121/1
v 0.5800 0.6200 -0.3200
v 0.5800 0.6300 -0.3200
v 0.5800 0.6300 0.9200
v 0.5800 0.6200 0.9200
f 128/1 127/1 126/1 125/1
v 1.8200 0.6200 -0.3200
v 0.5800 0.6200 -0.3200
v 0.5800 0.6200 0.9200
v 1.8200 0.6200 0.9200
f 132/1 131/1 130/1 129/1
v 1.8200 0.6300 0.9200
v 0.5800 0.6300 0.9200
v 0.5800 0.6300 -0.3200
v 1.8200 0.6300 -0.3200
f 136/1 135/1 134/1 133/1
v 1.8200 0.6300 -0.3200
v 0.5800 0.6300 -0.3200
v 0.5800 0.6200 -0.3200
v 1.8200 0.6200 -0.3200
f 140/1 139/1 138/1 137/1
v 1.8200 0.6200 0.9200
v 0.5800 0.6200 0.9200
v 0.5800 0.6300 0.9200
v 1.8200 0.6300 0.9200
f 144/1 143/1 142/1 141/1
usemtl wi_yellow
v 1.5600 0.6270 0.7000
v 1.5600 0.6370 0.7000
v 1.5600 0.6370 -0.1000
v 1.5600 0.6270 -0.1000
f 148/1 147/1 146/1 145/1
v 1.4400 0.6270 -0.1000
v 1.4400 0.6370 -0.1000
v 1.4400 0.6370 0.7000
v 1.4400 0.6270 0.7000
f 152/1 151/1 150/1 149/1
v 1.5600 0.6270 -0.1000
v 1.4400 0.6270 -0.1000
v 1.4400 0.6270 0.7000
v 1.5600 0.6270 0.7000
f 156/1 155/1 154/1 153/1
v 1.5600 0.6370 0.7000
v 1.4400 0.6370 0.7000
v 1.4400 0.6370 -0.1000
v 1.5600 0.6370 -0.1000
f 160/1 159/1 158/1 157/1
v 1.5600 0.6370 -0.1000
v 1.4400 0.6370 -0.1000
v 1.4400 0.6270 -0.1000
v 1.5600 0.6270 -0.1000
f 164/1 163/1 162/1 161/1
v 1.5600 0.6270 0.7000
v 1.4400 0.6270 0.7000
v 1.4400 0.6370 0.7000
v 1.5600 0.6370 0.7000
f 168/1 167/1 166/1 165/1
v 0.9600 0.6270 0.7000
v 0.9600 0.6370 0.7000
v 0.9600 0.6370 -0.1000
v 0.9600 0.6270 -0.1000
f 172/1 171/1 170/1 169/1
v 0.8400 0.6270 -0.1000
v 0.8400 0.6370 -0.1000
v 0.8400 0.6370 0.7000
v 0.8400 0.6270 0.7000
f 176/1 175/1 174/1 173/1
v 0.9600 0.6270 -0.1000
v 0.8400 0.6270 -0.1000
v 0.8400 0.6270 0.7000
v 0.9600 0.6270 0.7000
f 180/1 179/1 178/1 177/1
v 0.9600 0.6370 0.7000
v 0.8400 0.6370 0.7000
v 0.8400 0.6370 -0.1000
v 0.9600 0.6370 -0.1000
f 184/1 183/1 182/1 181/1
v 0.9600 0.6370 -0.1000
v 0.8400 0.6370 -0.1000
v 0.8400 0.6270 -0.1000
v 0.9600 0.6270 -0.1000
f 188/1 187/1 186/1 185/1
v 0.9600 0.6270 0.7000
v 0.8400 0.6270 0.7000
v 0.8400 0.6370 0.7000
v 0.9600 0.6370 0.7000
f 192/1 191/1 190/1 189/1
v 1.5000 0.6270 0.3600
v 1.5000 0.6370 0.3600
v 1.5000 0.6370 0.2400
v 1.5000 0.6270 0.2400
f 196/1 195/1 194/1 193/1
v 0.9000 0.6270 0.2400
v 0.9000 0.6370 0.2400
v 0.9000 0.6370 0.3600
v 0.9000 0.6270 0.3600
f 200/1 199/1 198/1 197/1
v 1.5000 0.6270 0.2400
v 0.9000 0.6270 0.2400
v 0.9000 0.6270 0.3600
v 1.5000 0.6270 0.3600
f 204/1 203/1 202/1 201/1
v 1.5000 0.6370 0.3600
v 0.9000 0.6370 0.3600
v 0.9000 0.6370 0.2400
v 1.5000 0.6370 0.2400
f 208/1 207/1 206/1 205/1
v 1.5000 0.6370 0.2400
v 0.9000 0.6370 0.2400
v 0.9000 0.6270 0.2400
v 1.5000 0.6270 0.2400
f 212/1 211/1 210/1 209/1
v 1.5000 0.6270 0.3600
v 0.9000 0.6270 0.3600
v 0.9000 0.6370 0.3600
v 1.5000 0.6370 0.3600
f 216/1 215/1 214/1 213/1
usemtl wi_steel
v -0.4500 0.5000 1.0500
v -0.4500 0.6200 1.0500
v -0.4500 0.6200 -0.4500
v -0.4500 0.5000 -0.4500
f 220/1 219/1 218/1 217/1
v -1.9500 0.5000 -0.4500
v -1.9500 0.6200 -0.4500
v -1.9500 0.6200 1.0500
v -1.9500 0.5000 1.0500
f 224/1 223/1 222/1 221/1
v -0.4500 0.5000 -0.4500
v -1.9500 0.5000 -0.4500
v -1.9500 0.5000 1.0500
v -0.4500 0.5000 1.0500
f 228/1 227/1 226/1 225/1
v -0.4500 0.6200 1.0500
v -1.9500 0.6200 1.0500
v -1.9500 0.6200 -0.4500
v -0.4500 0.6200 -0.4500
f 232/1 231/1 230/1 229/1
v -0.4500 0.6200 -0.4500
v -1.9500 0.6200 -0.4500
v -1.9500 0.5000 -0.4500
v -0.4500 0.5000 -0.4500
f 236/1 235/1 234/1 233/1
v -0.4500 0.5000 1.0500
v -1.9500 0.5000 1.0500
v -1.9500 0.6200 1.0500
v -0.4500 0.6200 1.0500
f 240/1 239/1 238/1 237/1
usemtl wi_dark
v -0.5800 0.6200 0.9200
v -0.5800 0.6300 0.9200
v -0.5800 0.6300 -0.3200
v -0.5800 0.6200 -0.3200
f 244/1 243/1 242/1 241/1
v -1.8200 0.6200 -0.3200
v -1.8200 0.6300 -0.3200
v -1.8200 0.6300 0.9200
v -1.8200 0.6200 0.9200
f 248/1 247/1 246/1 245/1
v -0.5800 0.6200 -0.3200
v -1.8200 0.6200 -0.3200
v -1.8200 0.6200 0.9200
v -0.5800 0.6200 0.9200
f 252/1 251/1 250/1 249/1
v -0.5800 0.6300 0.9200
v -1.8200 0.6300 0.9200
v -1.8200 0.6300 -0.3200
v -0.5800 0.6300 -0.3200
f 256/1 255/1 254/1 253/1
v -0.5800 0.6300 -0.3200
v -1.8200 0.6300 -0.3200
v -1.8200 0.6200 -0.3200
v -0.5800 0.6200 -0.3200
f 260/1 259/1 258/1 257/1
v -0.5800 0.6200 0.9200
v -1.8200 0.6200 0.9200
v -1.8200 0.6300 0.9200
v -0.5800 0.6300 0.9200
f 264/1 263/1 262/1 261/1
usemtl wi_yellow
v -0.8400 0.6270 0.7000
v -0.8400 0.6370 0.7000
v -0.8400 0.6370 -0.1000
v -0.8400 0.6270 -0.1000
f 268/1 267/1 266/1 265/1
v -0.9600 0.6270 -0.1000
v -0.9600 0.6370 -0.1000
v -0.9600 0.6370 0.7000
v -0.9600 0.6270 0.7000
f 272/1 271/1 270/1 269/1
v -0.8400 0.6270 -0.1000
v -0.9600 0.6270 -0.1000
v -0.9600 0.6270 0.7000
v -0.8400 0.6270 0.7000
f 276/1 275/1 274/1 273/1
v -0.8400 0.6370 0.7000
v -0.9600 0.6370 0.7000
v -0.9600 0.6370 -0.1000
v -0.8400 0.6370 -0.1000
f 280/1 279/1 278/1 277/1
v -0.8400 0.6370 -0.1000
v -0.9600 0.6370 -0.1000
v -0.9600 0.6270 -0.1000
v -0.8400 0.6270 -0.1000
f 284/1 283/1 282/1 281/1
v -0.8400 0.6270 0.7000
v -0.9600 0.6270 0.7000
v -0.9600 0.6370 0.7000
v -0.8400 0.6370 0.7000
f 288/1 287/1 286/1 285/1
v -1.4400 0.6270 0.7000
v -1.4400 0.6370 0.7000
v -1.4400 0.6370 -0.1000
v -1.4400 0.6270 -0.1000
f 292/1 291/1 290/1 289/1
v -1.5600 0.6270 -0.1000
v -1.5600 0.6370 -0.1000
v -1.5600 0.6370 0.7000
v -1.5600 0.6270 0.7000
f 296/1 295/1 294/1 293/1
v -1.4400 0.6270 -0.1000
v -1.5600 0.6270 -0.1000
v -1.5600 0.6270 0.7000
v -1.4400 0.6270 0.7000
f 300/1 299/1 298/1 297/1
v -1.4400 0.6370 0.7000
v -1.5600 0.6370 0.7000
v -1.5600 0.6370 -0.1000
v -1.4400 0.6370 -0.1000
f 304/1 303/1 302/1 301/1
v -1.4400 0.6370 -0.1000
v -1.5600 0.6370 -0.1000
v -1.5600 0.6270 -0.1000
v -1.4400 0.6270 -0.1000
f 308/1 307/1 306/1 305/1
v -1.4400 0.6270 0.7000
v -1.5600 0.6270 0.7000
v -1.5600 0.6370 0.7000
v -1.4400 0.6370 0.7000
f 312/1 311/1 310/1 309/1
v -0.9000 0.6270 0.3600
v -0.9000 0.6370 0.3600
v -0.9000 0.6370 0.2400
v -0.9000 0.6270 0.2400
f 316/1 315/1 314/1 313/1
v -1.5000 0.6270 0.2400
v -1.5000 0.6370 0.2400
v -1.5000 0.6370 0.3600
v -1.5000 0.6270 0.3600
f 320/1 319/1 318/1 317/1
v -0.9000 0.6270 0.2400
v -1.5000 0.6270 0.2400
v -1.5000 0.6270 0.3600
v -0.9000 0.6270 0.3600
f 324/1 323/1 322/1 321/1
v -0.9000 0.6370 0.3600
v -1.5000 0.6370 0.3600
v -1.5000 0.6370 0.2400
v -0.9000 0.6370 0.2400
f 328/1 327/1 326/1 325/1
v -0.9000 0.6370 0.2400
v -1.5000 0.6370 0.2400
v -1.5000 0.6270 0.2400
v -0.9000 0.6270 0.2400
f 332/1 331/1 330/1 329/1
v -0.9000 0.6270 0.3600
v -1.5000 0.6270 0.3600
v -1.5000 0.6370 0.3600
v -0.9000 0.6370 0.3600
f 336/1 335/1 334/1 333/1
usemtl wi_steel
v 1.9500 0.5000 2.5000
v 1.9500 0.6200 2.5000
v 1.9500 0.6200 1.0000
v 1.9500 0.5000 1.0000
f 340/1 339/1 338/1 337/1
v 0.4500 0.5000 1.0000
v 0.4500 0.6200 1.0000
v 0.4500 0.6200 2.5000
v 0.4500 0.5000 2.5000
f 344/1 343/1 342/1 341/1
v 1.9500 0.5000 1.0000
v 0.4500 0.5000 1.0000
v 0.4500 0.5000 2.5000
v 1.9500 0.5000 2.5000
f 348/1 347/1 346/1 345/1
v 1.9500 0.6200 2.5000
v 0.4500 0.6200 2.5000
v 0.4500 0.6200 1.0000
v 1.9500 0.6200 1.0000
f 352/1 351/1 350/1 349/1
v 1.9500 0.6200 1.0000
v 0.4500 0.6200 1.0000
v 0.4500 0.5000 1.0000
v 1.9500 0.5000 1.0000
f 356/1 355/1 354/1 353/1
v 1.9500 0.5000 2.5000
v 0.4500 0.5000 2.5000
v 0.4500 0.6200 2.5000
v 1.9500 0.6200 2.5000
f 360/1 359/1 358/1 357/1
usemtl wi_dark
v 1.8200 0.6200 2.3700
v 1.8200 0.6300 2.3700
v 1.8200 0.6300 1.1300
v 1.8200 0.6200 1.1300
f 364/1 363/1 362/1 361/1
v 0.5800 0.6200 1.1300
v 0.5800 0.6300 1.1300
v 0.5800 0.6300 2.3700
v 0.5800 0.6200 2.3700
f 368/1 367/1 366/1 365/1
v 1.8200 0.6200 1.1300
v 0.5800 0.6200 1.1300
v 0.5800 0.6200 2.3700
v 1.8200 0.6200 2.3700
f 372/1 371/1 370/1 369/1
v 1.8200 0.6300 2.3700
v 0.5800 0.6300 2.3700
v 0.5800 0.6300 1.1300
v 1.8200 0.6300 1.1300
f 376/1 375/1 374/1 373/1
v 1.8200 0.6300 1.1300
v 0.5800 0.6300 1.1300
v 0.5800 0.6200 1.1300
v 1.8200 0.6200 1.1300
f 380/1 379/1 378/1 377/1
v 1.8200 0.6200 2.3700
v 0.5800 0.6200 2.3700
v 0.5800 0.6300 2.3700
v 1.8200 0.6300 2.3700
f 384/1 383/1 382/1 381/1
usemtl wi_yellow
v 1.5600 0.6270 2.1500
v 1.5600 0.6370 2.1500
v 1.5600 0.6370 1.3500
v 1.5600 0.6270 1.3500
f 388/1 387/1 386/1 385/1
v 1.4400 0.6270 1.3500
v 1.4400 0.6370 1.3500
v 1.4400 0.6370 2.1500
v 1.4400 0.6270 2.1500
f 392/1 391/1 390/1 389/1
v 1.5600 0.6270 1.3500
v 1.4400 0.6270 1.3500
v 1.4400 0.6270 2.1500
v 1.5600 0.6270 2.1500
f 396/1 395/1 394/1 393/1
v 1.5600 0.6370 2.1500
v 1.4400 0.6370 2.1500
v 1.4400 0.6370 1.3500
v 1.5600 0.6370 1.3500
f 400/1 399/1 398/1 397/1
v 1.5600 0.6370 1.3500
v 1.4400 0.6370 1.3500
v 1.4400 0.6270 1.3500
v 1.5600 0.6270 1.3500
f 404/1 403/1 402/1 401/1
v 1.5600 0.6270 2.1500
v 1.4400 0.6270 2.1500
v 1.4400 0.6370 2.1500
v 1.5600 0.6370 2.1500
f 408/1 407/1 406/1 405/1
v 0.9600 0.6270 2.1500
v 0.9600 0.6370 2.1500
v 0.9600 0.6370 1.3500
v 0.9600 0.6270 1.3500
f 412/1 411/1 410/1 409/1
v 0.8400 0.6270 1.3500
v 0.8400 0.6370 1.3500
v 0.8400 0.6370 2.1500
v 0.8400 0.6270 2.1500
f 416/1 415/1 414/1 413/1
v 0.9600 0.6270 1.3500
v 0.8400 0.6270 1.3500
v 0.8400 0.6270 2.1500
v 0.9600 0.6270 2.1500
f 420/1 419/1 418/1 417/1
v 0.9600 0.6370 2.1500
v 0.8400 0.6370 2.1500
v 0.8400 0.6370 1.3500
v 0.9600 0.6370 1.3500
f 424/1 423/1 422/1 421/1
v 0.9600 0.6370 1.3500
v 0.8400 0.6370 1.3500
v 0.8400 0.6270 1.3500
v 0.9600 0.6270 1.3500
f 428/1 427/1 426/1 425/1
v 0.9600 0.6270 2.1500
v 0.8400 0.6270 2.1500
v 0.8400 0.6370 2.1500
v 0.9600 0.6370 2.1500
f 432/1 431/1 430/1 429/1
v 1.5000 0.6270 1.8100
v 1.5000 0.6370 1.8100
v 1.5000 0.6370 1.6900
v 1.5000 0.6270 1.6900
f 436/1 435/1 434/1 433/1
v 0.9000 0.6270 1.6900
v 0.9000 0.6370 1.6900
v 0.9000 0.6370 1.8100
v 0.9000 0.6270 1.8100
f 440/1 439/1 438/1 437/1
v 1.5000 0.6270 1.6900
v 0.9000 0.6270 1.6900
v 0.9000 0.6270 1.8100
v 1.5000 0.6270 1.8100
f 444/1 443/1 442/1 441/1
v 1.5000 0.6370 1.8100
v 0.9000 0.6370 1.8100
v 0.9000 0.6370 1.6900
v 1.5000 0.6370 1.6900
f 448/1 447/1 446/1 445/1
v 1.5000 0.6370 1.6900
v 0.9000 0.6370 1.6900
v 0.9000 0.6270 1.6900
v 1.5000 0.6270 1.6900
f 452/1 451/1 450/1 449/1
v 1.5000 0.6270 1.8100
v 0.9000 0.6270 1.8100
v 0.9000 0.6370 1.8100
v 1.5000 0.6370 1.8100
f 456/1 455/1 454/1 453/1
usemtl wi_steel
v -0.4500 0.5000 2.5000
v -0.4500 0.6200 2.5000
v -0.4500 0.6200 1.0000
v -0.4500 0.5000 1.0000
f 460/1 459/1 458/1 457/1
v -1.9500 0.5000 1.0000
v -1.9500 0.6200 1.0000
v -1.9500 0.6200 2.5000
v -1.9500 0.5000 2.5000
f 464/1 463/1 462/1 461/1
v -0.4500 0.5000 1.0000
v -1.9500 0.5000 1.0000
v -1.9500 0.5000 2.5000
v -0.4500 0.5000 2.5000
f 468/1 467/1 466/1 465/1
v -0.4500 0.6200 2.5000
v -1.9500 0.6200 2.5000
v -1.9500 0.6200 1.0000
v -0.4500 0.6200 1.0000
f 472/1 471/1 470/1 469/1
v -0.4500 0.6200 1.0000
v -1.9500 0.6200 1.0000
v -1.9500 0.5000 1.0000
v -0.4500 0.5000 1.0000
f 476/1 475/1 474/1 473/1
v -0.4500 0.5000 2.5000
v -1.9500 0.5000 2.5000
v -1.9500 0.6200 2.5000
v -0.4500 0.6200 2.5000
f 480/1 479/1 478/1 477/1
usemtl wi_dark
v -0.5800 0.6200 2.3700
v -0.5800 0.6300 2.3700
v -0.5800 0.6300 1.1300
v -0.5800 0.6200 1.1300
f 484/1 483/1 482/1 481/1
v -1.8200 0.6200 1.1300
v -1.8200 0.6300 1.1300
v -1.8200 0.6300 2.3700
v -1.8200 0.6200 2.3700
f 488/1 487/1 486/1 485/1
v -0.5800 0.6200 1.1300
v -1.8200 0.6200 1.1300
v -1.8200 0.6200 2.3700
v -0.5800 0.6200 2.3700
f 492/1 491/1 490/1 489/1
v -0.5800 0.6300 2.3700
v -1.8200 0.6300 2.3700
v -1.8200 0.6300 1.1300
v -0.5800 0.6300 1.1300
f 496/1 495/1 494/1 493/1
v -0.5800 0.6300 1.1300
v -1.8200 0.6300 1.1300
v -1.8200 0.6200 1.1300
v -0.5800 0.6200 1.1300
f 500/1 499/1 498/1 497/1
v -0.5800 0.6200 2.3700
v -1.8200 0.6200 2.3700
v -1.8200 0.6300 2.3700
v -0.5800 0.6300 2.3700
f 504/1 503/1 502/1 501/1
usemtl wi_yellow
v -0.8400 0.6270 2.1500
v -0.8400 0.6370 2.1500
v -0.8400 0.6370 1.3500
v -0.8400 0.6270 1.3500
f 508/1 507/1 506/1 505/1
v -0.9600 0.6270 1.3500
v -0.9600 0.6370 1.3500
v -0.9600 0.6370 2.1500
v -0.9600 0.6270 2.1500
f 512/1 511/1 510/1 509/1
v -0.8400 0.6270 1.3500
v -0.9600 0.6270 1.3500
v -0.9600 0.6270 2.1500
v -0.8400 0.6270 2.1500
f 516/1 515/1 514/1 513/1
v -0.8400 0.6370 2.1500
v -0.9600 0.6370 2.1500
v -0.9600 0.6370 1.3500
v -0.8400 0.6370 1.3500
f 520/1 519/1 518/1 517/1
v -0.8400 0.6370 1.3500
v -0.9600 0.6370 1.3500
v -0.9600 0.6270 1.3500
v -0.8400 0.6270 1.3500
f 524/1 523/1 522/1 521/1
v -0.8400 0.6270 2.1500
v -0.9600 0.6270 2.1500
v -0.9600 0.6370 2.1500
v -0.8400 0.6370 2.1500
f 528/1 527/1 526/1 525/1
v -1.4400 0.6270 2.1500
v -1.4400 0.6370 2.1500
v -1.4400 0.6370 1.3500
v -1.4400 0.6270 1.3500
f 532/1 531/1 530/1 529/1
v -1.5600 0.6270 1.3500
v -1.5600 0.6370 1.3500
v -1.5600 0.6370 2.1500
v -1.5600 0.6270 2.1500
f 536/1 535/1 534/1 533/1
v -1.4400 0.6270 1.3500
v -1.5600 0.6270 1.3500
v -1.5600 0.6270 2.1500
v -1.4400 0.6270 2.1500
f 540/1 539/1 538/1 537/1
v -1.4400 0.6370 2.1500
v -1.5600 0.6370 2.1500
v -1.5600 0.6370 1.3500
v -1.4400 0.6370 1.3500
f 544/1 543/1 542/1 541/1
v -1.4400 0.6370 1.3500
v -1.5600 0.6370 1.3500
v -1.5600 0.6270 1.3500
v -1.4400 0.6270 1.3500
f 548/1 547/1 546/1 545/1
v -1.4400 0.6270 2.1500
v -1.5600 0.6270 2.1500
v -1.5600 0.6370 2.1500
v -1.4400 0.6370 2.1500
f 552/1 551/1 550/1 549/1
v -0.9000 0.6270 1.8100
v -0.9000 0.6370 1.8100
v -0.9000 0.6370 1.6900
v -0.9000 0.6270 1.6900
f 556/1 555/1 554/1 553/1
v -1.5000 0.6270 1.6900
v -1.5000 0.6370 1.6900
v -1.5000 0.6370 1.8100
v -1.5000 0.6270 1.8100
f 560/1 559/1 558/1 557/1
v -0.9000 0.6270 1.6900
v -1.5000 0.6270 1.6900
v -1.5000 0.6270 1.8100
v -0.9000 0.6270 1.8100
f 564/1 563/1 562/1 561/1
v -0.9000 0.6370 1.8100
v -1.5000 0.6370 1.8100
v -1.5000 0.6370 1.6900
v -0.9000 0.6370 1.6900
f 568/1 567/1 566/1 565/1
v -0.9000 0.6370 1.6900
v -1.5000 0.6370 1.6900
v -1.5000 0.6270 1.6900
v -0.9000 0.6270 1.6900
f 572/1 571/1 570/1 569/1
v -0.9000 0.6270 1.8100
v -1.5000 0.6270 1.8100
v -1.5000 0.6370 1.8100
v -0.9000 0.6370 1.8100
f 576/1 575/1 574/1 573/1
o Packer
usemtl wi_teal
v 2.4000 0.1500 -0.5500
v 2.4000 1.8500 -0.5500
v 2.4000 1.8500 -2.4500
v 2.4000 0.1500 -2.4500
f 580/1 579/1 578/1 577/1
v -2.4000 0.1500 -2.4500
v -2.4000 1.8500 -2.4500
v -2.4000 1.8500 -0.5500
v -2.4000 0.1500 -0.5500
f 584/1 583/1 582/1 581/1
v 2.4000 0.1500 -2.4500
v -2.4000 0.1500 -2.4500
v -2.4000 0.1500 -0.5500
v 2.4000 0.1500 -0.5500
f 588/1 587/1 586/1 585/1
v 2.4000 1.8500 -0.5500
v -2.4000 1.8500 -0.5500
v -2.4000 1.8500 -2.4500
v 2.4000 1.8500 -2.4500
f 592/1 591/1 590/1 589/1
v 2.4000 1.8500 -2.4500
v -2.4000 1.8500 -2.4500
v -2.4000 0.1500 -2.4500
v 2.4000 0.1500 -2.4500
f 596/1 595/1 594/1 593/1
v 2.4000 0.1500 -0.5500
v -2.4000 0.1500 -0.5500
v -2.4000 1.8500 -0.5500
v 2.4000 1.8500 -0.5500
f 600/1 599/1 598/1 597/1
usemtl wi_copper
v 1.4500 2.5500 -1.5000
v -1.4500 2.5500 -1.5000
v -2.5200 1.8500 -2.5700
v 2.5200 1.8500 -2.5700
f 604/1 603/1 602/1 601/1
v -1.4500 2.5500 -1.5000
v 1.4500 2.5500 -1.5000
v 2.5200 1.8500 -0.4300
v -2.5200 1.8500 -0.4300
f 608/1 607/1 606/1 605/1
v -1.4500 2.5500 -1.5000
v -2.5200 1.8500 -0.4300
v -2.5200 1.8500 -2.5700
f 611/1 610/1 609/1
v 1.4500 2.5500 -1.5000
v 2.5200 1.8500 -2.5700
v 2.5200 1.8500 -0.4300
f 614/1 613/1 612/1
v 2.5200 1.8500 -2.5700
v -2.5200 1.8500 -2.5700
v -2.5200 1.8500 -0.4300
v 2.5200 1.8500 -0.4300
f 618/1 617/1 616/1 615/1
usemtl wi_dark
v 2.3500 0.2000 -2.4300
v 2.3500 0.7000 -2.4300
v 2.3500 0.7000 -2.5100
v 2.3500 0.2000 -2.5100
f 622/1 621/1 620/1 619/1
v 1.6500 0.2000 -2.5100
v 1.6500 0.7000 -2.5100
v 1.6500 0.7000 -2.4300
v 1.6500 0.2000 -2.4300
f 626/1 625/1 624/1 623/1
v 2.3500 0.2000 -2.5100
v 1.6500 0.2000 -2.5100
v 1.6500 0.2000 -2.4300
v 2.3500 0.2000 -2.4300
f 630/1 629/1 628/1 627/1
v 2.3500 0.7000 -2.4300
v 1.6500 0.7000 -2.4300
v 1.6500 0.7000 -2.5100
v 2.3500 0.7000 -2.5100
f 634/1 633/1 632/1 631/1
v 2.3500 0.7000 -2.5100
v 1.6500 0.7000 -2.5100
v 1.6500 0.2000 -2.5100
v 2.3500 0.2000 -2.5100
f 638/1 637/1 636/1 635/1
v 2.3500 0.2000 -2.4300
v 1.6500 0.2000 -2.4300
v 1.6500 0.7000 -2.4300
v 2.3500 0.7000 -2.4300
f 642/1 641/1 640/1 639/1
usemtl wi_copper
v 2.4000 0.7000 -2.4500
v 2.4000 0.7800 -2.4500
v 2.4000 0.7800 -2.5900
v 2.4000 0.7000 -2.5900
f 646/1 645/1 644/1 643/1
v 1.6000 0.7000 -2.5900
v 1.6000 0.7800 -2.5900
v 1.6000 0.7800 -2.4500
v 1.6000 0.7000 -2.4500
f 650/1 649/1 648/1 647/1
v 2.4000 0.7000 -2.5900
v 1.6000 0.7000 -2.5900
v 1.6000 0.7000 -2.4500
v 2.4000 0.7000 -2.4500
f 654/1 653/1 652/1 651/1
v 2.4000 0.7800 -2.4500
v 1.6000 0.7800 -2.4500
v 1.6000 0.7800 -2.5900
v 2.4000 0.7800 -2.5900
f 658/1 657/1 656/1 655/1
v 2.4000 0.7800 -2.5900
v 1.6000 0.7800 -2.5900
v 1.6000 0.7000 -2.5900
v 2.4000 0.7000 -2.5900
f 662/1 661/1 660/1 659/1
v 2.4000 0.7000 -2.4500
v 1.6000 0.7000 -2.4500
v 1.6000 0.7800 -2.4500
v 2.4000 0.7800 -2.4500
f 666/1 665/1 664/1 663/1
usemtl wi_dark
v 1.3500 0.2000 -2.4300
v 1.3500 0.7000 -2.4300
v 1.3500 0.7000 -2.5100
v 1.3500 0.2000 -2.5100
f 670/1 669/1 668/1 667/1
v 0.6500 0.2000 -2.5100
v 0.6500 0.7000 -2.5100
v 0.6500 0.7000 -2.4300
v 0.6500 0.2000 -2.4300
f 674/1 673/1 672/1 671/1
v 1.3500 0.2000 -2.5100
v 0.6500 0.2000 -2.5100
v 0.6500 0.2000 -2.4300
v 1.3500 0.2000 -2.4300
f 678/1 677/1 676/1 675/1
v 1.3500 0.7000 -2.4300
v 0.6500 0.7000 -2.4300
v 0.6500 0.7000 -2.5100
v 1.3500 0.7000 -2.5100
f 682/1 681/1 680/1 679/1
v 1.3500 0.7000 -2.5100
v 0.6500 0.7000 -2.5100
v 0.6500 0.2000 -2.5100
v 1.3500 0.2000 -2.5100
f 686/1 685/1 684/1 683/1
v 1.3500 0.2000 -2.4300
v 0.6500 0.2000 -2.4300
v 0.6500 0.7000 -2.4300
v 1.3500 0.7000 -2.4300
f 690/1 689/1 688/1 687/1
usemtl wi_copper
v 1.4000 0.7000 -2.4500
v 1.4000 0.7800 -2.4500
v 1.4000 0.7800 -2.5900
v 1.4000 0.7000 -2.5900
f 694/1 693/1 692/1 691/1
v 0.6000 0.7000 -2.5900
v 0.6000 0.7800 -2.5900
v 0.6000 0.7800 -2.4500
v 0.6000 0.7000 -2.4500
f 698/1 697/1 696/1 695/1
v 1.4000 0.7000 -2.5900
v 0.6000 0.7000 -2.5900
v 0.6000 0.7000 -2.4500
v 1.4000 0.7000 -2.4500
f 702/1 701/1 700/1 699/1
v 1.4000 0.7800 -2.4500
v 0.6000 0.7800 -2.4500
v 0.6000 0.7800 -2.5900
v 1.4000 0.7800 -2.5900
f 706/1 705/1 704/1 703/1
v 1.4000 0.7800 -2.5900
v 0.6000 0.7800 -2.5900
v 0.6000 0.7000 -2.5900
v 1.4000 0.7000 -2.5900
f 710/1 709/1 708/1 707/1
v 1.4000 0.7000 -2.4500
v 0.6000 0.7000 -2.4500
v 0.6000 0.7800 -2.4500
v 1.4000 0.7800 -2.4500
f 714/1 713/1 712/1 711/1
usemtl wi_dark
v 0.3500 0.2000 -2.4300
v 0.3500 0.7000 -2.4300
v 0.3500 0.7000 -2.5100
v 0.3500 0.2000 -2.5100
f 718/1 717/1 716/1 715/1
v -0.3500 0.2000 -2.5100
v -0.3500 0.7000 -2.5100
v -0.3500 0.7000 -2.4300
v -0.3500 0.2000 -2.4300
f 722/1 721/1 720/1 719/1
v 0.3500 0.2000 -2.5100
v -0.3500 0.2000 -2.5100
v -0.3500 0.2000 -2.4300
v 0.3500 0.2000 -2.4300
f 726/1 725/1 724/1 723/1
v 0.3500 0.7000 -2.4300
v -0.3500 0.7000 -2.4300
v -0.3500 0.7000 -2.5100
v 0.3500 0.7000 -2.5100
f 730/1 729/1 728/1 727/1
v 0.3500 0.7000 -2.5100
v -0.3500 0.7000 -2.5100
v -0.3500 0.2000 -2.5100
v 0.3500 0.2000 -2.5100
f 734/1 733/1 732/1 731/1
v 0.3500 0.2000 -2.4300
v -0.3500 0.2000 -2.4300
v -0.3500 0.7000 -2.4300
v 0.3500 0.7000 -2.4300
f 738/1 737/1 736/1 735/1
usemtl wi_copper
v 0.4000 0.7000 -2.4500
v 0.4000 0.7800 -2.4500
v 0.4000 0.7800 -2.5900
v 0.4000 0.7000 -2.5900
f 742/1 741/1 740/1 739/1
v -0.4000 0.7000 -2.5900
v -0.4000 0.7800 -2.5900
v -0.4000 0.7800 -2.4500
v -0.4000 0.7000 -2.4500
f 746/1 745/1 744/1 743/1
v 0.4000 0.7000 -2.5900
v -0.4000 0.7000 -2.5900
v -0.4000 0.7000 -2.4500
v 0.4000 0.7000 -2.4500
f 750/1 749/1 748/1 747/1
v 0.4000 0.7800 -2.4500
v -0.4000 0.7800 -2.4500
v -0.4000 0.7800 -2.5900
v 0.4000 0.7800 -2.5900
f 754/1 753/1 752/1 751/1
v 0.4000 0.7800 -2.5900
v -0.4000 0.7800 -2.5900
v -0.4000 0.7000 -2.5900
v 0.4000 0.7000 -2.5900
f 758/1 757/1 756/1 755/1
v 0.4000 0.7000 -2.4500
v -0.4000 0.7000 -2.4500
v -0.4000 0.7800 -2.4500
v 0.4000 0.7800 -2.4500
f 762/1 761/1 760/1 759/1
usemtl wi_dark
v -0.6500 0.2000 -2.4300
v -0.6500 0.7000 -2.4300
v -0.6500 0.7000 -2.5100
v -0.6500 0.2000 -2.5100
f 766/1 765/1 764/1 763/1
v -1.3500 0.2000 -2.5100
v -1.3500 0.7000 -2.5100
v -1.3500 0.7000 -2.4300
v -1.3500 0.2000 -2.4300
f 770/1 769/1 768/1 767/1
v -0.6500 0.2000 -2.5100
v -1.3500 0.2000 -2.5100
v -1.3500 0.2000 -2.4300
v -0.6500 0.2000 -2.4300
f 774/1 773/1 772/1 771/1
v -0.6500 0.7000 -2.4300
v -1.3500 0.7000 -2.4300
v -1.3500 0.7000 -2.5100
v -0.6500 0.7000 -2.5100
f 778/1 777/1 776/1 775/1
v -0.6500 0.7000 -2.5100
v -1.3500 0.7000 -2.5100
v -1.3500 0.2000 -2.5100
v -0.6500 0.2000 -2.5100
f 782/1 781/1 780/1 779/1
v -0.6500 0.2000 -2.4300
v -1.3500 0.2000 -2.4300
v -1.3500 0.7000 -2.4300
v -0.6500 0.7000 -2.4300
f 786/1 785/1 784/1 783/1
usemtl wi_copper
v -0.6000 0.7000 -2.4500
v -0.6000 0.7800 -2.4500
v -0.6000 0.7800 -2.5900
v -0.6000 0.7000 -2.5900
f 790/1 789/1 788/1 787/1
v -1.4000 0.7000 -2.5900
v -1.4000 0.7800 -2.5900
v -1.4000 0.7800 -2.4500
v -1.4000 0.7000 -2.4500
f 794/1 793/1 792/1 791/1
v -0.6000 0.7000 -2.5900
v -1.4000 0.7000 -2.5900
v -1.4000 0.7000 -2.4500
v -0.6000 0.7000 -2.4500
f 798/1 797/1 796/1 795/1
v -0.6000 0.7800 -2.4500
v -1.4000 0.7800 -2.4500
v -1.4000 0.7800 -2.5900
v -0.6000 0.7800 -2.5900
f 802/1 801/1 800/1 799/1
v -0.6000 0.7800 -2.5900
v -1.4000 0.7800 -2.5900
v -1.4000 0.7000 -2.5900
v -0.6000 0.7000 -2.5900
f 806/1 805/1 804/1 803/1
v -0.6000 0.7000 -2.4500
v -1.4000 0.7000 -2.4500
v -1.4000 0.7800 -2.4500
v -0.6000 0.7800 -2.4500
f 810/1 809/1 808/1 807/1
usemtl wi_dark
v -1.6500 0.2000 -2.4300
v -1.6500 0.7000 -2.4300
v -1.6500 0.7000 -2.5100
v -1.6500 0.2000 -2.5100
f 814/1 813/1 812/1 811/1
v -2.3500 0.2000 -2.5100
v -2.3500 0.7000 -2.5100
v -2.3500 0.7000 -2.4300
v -2.3500 0.2000 -2.4300
f 818/1 817/1 816/1 815/1
v -1.6500 0.2000 -2.5100
v -2.3500 0.2000 -2.5100
v -2.3500 0.2000 -2.4300
v -1.6500 0.2000 -2.4300
f 822/1 821/1 820/1 819/1
v -1.6500 0.7000 -2.4300
v -2.3500 0.7000 -2.4300
v -2.3500 0.7000 -2.5100
v -1.6500 0.7000 -2.5100
f 826/1 825/1 824/1 823/1
v -1.6500 0.7000 -2.5100
v -2.3500 0.7000 -2.5100
v -2.3500 0.2000 -2.5100
v -1.6500 0.2000 -2.5100
f 830/1 829/1 828/1 827/1
v -1.6500 0.2000 -2.4300
v -2.3500 0.2000 -2.4300
v -2.3500 0.7000 -2.4300
v -1.6500 0.7000 -2.4300
f 834/1 833/1 832/1 831/1
usemtl wi_copper
v -1.6000 0.7000 -2.4500
v -1.6000 0.7800 -2.4500
v -1.6000 0.7800 -2.5900
v -1.6000 0.7000 -2.5900
f 838/1 837/1 836/1 835/1
v -2.4000 0.7000 -2.5900
v -2.4000 0.7800 -2.5900
v -2.4000 0.7800 -2.4500
v -2.4000 0.7000 -2.4500
f 842/1 841/1 840/1 839/1
v -1.6000 0.7000 -2.5900
v -2.4000 0.7000 -2.5900
v -2.4000 0.7000 -2.4500
v -1.6000 0.7000 -2.4500
f 846/1 845/1 844/1 843/1
v -1.6000 0.7800 -2.4500
v -2.4000 0.7800 -2.4500
v -2.4000 0.7800 -2.5900
v -1.6000 0.7800 -2.5900
f 850/1 849/1 848/1 847/1
v -1.6000 0.7800 -2.5900
v -2.4000 0.7800 -2.5900
v -2.4000 0.7000 -2.5900
v -1.6000 0.7000 -2.5900
f 854/1 853/1 852/1 851/1
v -1.6000 0.7000 -2.4500
v -2.4000 0.7000 -2.4500
v -2.4000 0.7800 -2.4500
v -1.6000 0.7800 -2.4500
f 858/1 857/1 856/1 855/1
usemtl wi_dark
v -1.4250 2.2500 -1.4250
v -1.4250 3.1500 -1.4250
v -1.4250 3.1500 -1.7750
v -1.4250 2.2500 -1.7750
f 862/1 861/1 860/1 859/1
v -1.7750 2.2500 -1.7750
v -1.7750 3.1500 -1.7750
v -1.7750 3.1500 -1.4250
v -1.7750 2.2500 -1.4250
f 866/1 865/1 864/1 863/1
v -1.4250 2.2500 -1.7750
v -1.7750 2.2500 -1.7750
v -1.7750 2.2500 -1.4250
v -1.4250 2.2500 -1.4250
f 870/1 869/1 868/1 867/1
v -1.4250 3.1500 -1.4250
v -1.7750 3.1500 -1.4250
v -1.7750 3.1500 -1.7750
v -1.4250 3.1500 -1.7750
f 874/1 873/1 872/1 871/1
v -1.4250 3.1500 -1.7750
v -1.7750 3.1500 -1.7750
v -1.7750 2.2500 -1.7750
v -1.4250 2.2500 -1.7750
f 878/1 877/1 876/1 875/1
v -1.4250 2.2500 -1.4250
v -1.7750 2.2500 -1.4250
v -1.7750 3.1500 -1.4250
v -1.4250 3.1500 -1.4250
f 882/1 881/1 880/1 879/1
usemtl wi_copper
v -1.3750 3.1400 -1.3750
v -1.3750 3.2200 -1.3750
v -1.3750 3.2200 -1.8250
v -1.3750 3.1400 -1.8250
f 886/1 885/1 884/1 883/1
v -1.8250 3.1400 -1.8250
v -1.8250 3.2200 -1.8250
v -1.8250 3.2200 -1.3750
v -1.8250 3.1400 -1.3750
f 890/1 889/1 888/1 887/1
v -1.3750 3.1400 -1.8250
v -1.8250 3.1400 -1.8250
v -1.8250 3.1400 -1.3750
v -1.3750 3.1400 -1.3750
f 894/1 893/1 892/1 891/1
v -1.3750 3.2200 -1.3750
v -1.8250 3.2200 -1.3750
v -1.8250 3.2200 -1.8250
v -1.3750 3.2200 -1.8250
f 898/1 897/1 896/1 895/1
v -1.3750 3.2200 -1.8250
v -1.8250 3.2200 -1.8250
v -1.8250 3.1400 -1.8250
v -1.3750 3.1400 -1.8250
f 902/1 901/1 900/1 899/1
v -1.3750 3.1400 -1.3750
v -1.8250 3.1400 -1.3750
v -1.8250 3.2200 -1.3750
v -1.3750 3.2200 -1.3750
f 906/1 905/1 904/1 903/1
usemtl wi_glass
v 1.7000 1.0500 -0.5200
v 1.7000 1.5500 -0.5200
v 1.7000 1.5500 -0.5600
v 1.7000 1.0500 -0.5600
f 910/1 909/1 908/1 907/1
v 0.7000 1.0500 -0.5600
v 0.7000 1.5500 -0.5600
v 0.7000 1.5500 -0.5200
v 0.7000 1.0500 -0.5200
f 914/1 913/1 912/1 911/1
v 1.7000 1.0500 -0.5600
v 0.7000 1.0500 -0.5600
v 0.7000 1.0500 -0.5200
v 1.7000 1.0500 -0.5200
f 918/1 917/1 916/1 915/1
v 1.7000 1.5500 -0.5200
v 0.7000 1.5500 -0.5200
v 0.7000 1.5500 -0.5600
v 1.7000 1.5500 -0.5600
f 922/1 921/1 920/1 919/1
v 1.7000 1.5500 -0.5600
v 0.7000 1.5500 -0.5600
v 0.7000 1.0500 -0.5600
v 1.7000 1.0500 -0.5600
f 926/1 925/1 924/1 923/1
v 1.7000 1.0500 -0.5200
v 0.7000 1.0500 -0.5200
v 0.7000 1.5500 -0.5200
v 1.7000 1.5500 -0.5200
f 930/1 929/1 928/1 927/1
usemtl wi_dark
v 1.8000 0.6700 -0.1500
v 1.8000 0.7700 -0.1500
v 1.8000 0.7700 -0.5500
v 1.8000 0.6700 -0.5500
f 934/1 933/1 932/1 931/1
v -1.8000 0.6700 -0.5500
v -1.8000 0.7700 -0.5500
v -1.8000 0.7700 -0.1500
v -1.8000 0.6700 -0.1500
f 938/1 937/1 936/1 935/1
v 1.8000 0.6700 -0.5500
v -1.8000 0.6700 -0.5500
v -1.8000 0.6700 -0.1500
v 1.8000 0.6700 -0.1500
f 942/1 941/1 940/1 939/1
v 1.8000 0.7700 -0.1500
v -1.8000 0.7700 -0.1500
v -1.8000 0.7700 -0.5500
v 1.8000 0.7700 -0.5500
f 946/1 945/1 944/1 943/1
v 1.8000 0.7700 -0.5500
v -1.8000 0.7700 -0.5500
v -1.8000 0.6700 -0.5500
v 1.8000 0.6700 -0.5500
f 950/1 949/1 948/1 947/1
v 1.8000 0.6700 -0.1500
v -1.8000 0.6700 -0.1500
v -1.8000 0.7700 -0.1500
v 1.8000 0.7700 -0.1500
f 954/1 953/1 952/1 951/1
usemtl wi_crate
v 1.1700 0.7700 -0.1800
v 1.1700 1.0900 -0.1800
v 1.1700 1.0900 -0.5200
v 1.1700 0.7700 -0.5200
f 958/1 957/1 956/1 955/1
v 0.8300 0.7700 -0.5200
v 0.8300 1.0900 -0.5200
v 0.8300 1.0900 -0.1800
v 0.8300 0.7700 -0.1800
f 962/1 961/1 960/1 959/1
v 1.1700 0.7700 -0.5200
v 0.8300 0.7700 -0.5200
v 0.8300 0.7700 -0.1800
v 1.1700 0.7700 -0.1800
f 966/1 965/1 964/1 963/1
v 1.1700 1.0900 -0.1800
v 0.8300 1.0900 -0.1800
v 0.8300 1.0900 -0.5200
v 1.1700 1.0900 -0.5200
f 970/1 969/1 968/1 967/1
v 1.1700 1.0900 -0.5200
v 0.8300 1.0900 -0.5200
v 0.8300 0.7700 -0.5200
v 1.1700 0.7700 -0.5200
f 974/1 973/1 972/1 971/1
v 1.1700 0.7700 -0.1800
v 0.8300 0.7700 -0.1800
v 0.8300 1.0900 -0.1800
v 1.1700 1.0900 -0.1800
f 978/1 977/1 976/1 975/1
v 0.1700 0.7700 -0.1800
v 0.1700 1.0900 -0.1800
v 0.1700 1.0900 -0.5200
v 0.1700 0.7700 -0.5200
f 982/1 981/1 980/1 979/1
v -0.1700 0.7700 -0.5200
v -0.1700 1.0900 -0.5200
v -0.1700 1.0900 -0.1800
v -0.1700 0.7700 -0.1800
f 986/1 985/1 984/1 983/1
v 0.1700 0.7700 -0.5200
v -0.1700 0.7700 -0.5200
v -0.1700 0.7700 -0.1800
v 0.1700 0.7700 -0.1800
f 990/1 989/1 988/1 987/1
v 0.1700 1.0900 -0.1800
v -0.1700 1.0900 -0.1800
v -0.1700 1.0900 -0.5200
v 0.1700 1.0900 -0.5200
f 994/1 993/1 992/1 991/1
v 0.1700 1.0900 -0.5200
v -0.1700 1.0900 -0.5200
v -0.1700 0.7700 -0.5200
v 0.1700 0.7700 -0.5200
f 998/1 997/1 996/1 995/1
v 0.1700 0.7700 -0.1800
v -0.1700 0.7700 -0.1800
v -0.1700 1.0900 -0.1800
v 0.1700 1.0900 -0.1800
f 1002/1 1001/1 1000/1 999/1
v -0.8300 0.7700 -0.1800
v -0.8300 1.0900 -0.1800
v -0.8300 1.0900 -0.5200
v -0.8300 0.7700 -0.5200
f 1006/1 1005/1 1004/1 1003/1
v -1.1700 0.7700 -0.5200
v -1.1700 1.0900 -0.5200
v -1.1700 1.0900 -0.1800
v -1.1700 0.7700 -0.1800
f 1010/1 1009/1 1008/1 1007/1
v -0.8300 0.7700 -0.5200
v -1.1700 0.7700 -0.5200
v -1.1700 0.7700 -0.1800
v -0.8300 0.7700 -0.1800
f 1014/1 1013/1 1012/1 1011/1
v -0.8300 1.0900 -0.1800
v -1.1700 1.0900 -0.1800
v -1.1700 1.0900 -0.5200
v -0.8300 1.0900 -0.5200
f 1018/1 1017/1 1016/1 1015/1
v -0.8300 1.0900 -0.5200
v -1.1700 1.0900 -0.5200
v -1.1700 0.7700 -0.5200
v -0.8300 0.7700 -0.5200
f 1022/1 1021/1 1020/1 1019/1
v -0.8300 0.7700 -0.1800
v -1.1700 0.7700 -0.1800
v -1.1700 1.0900 -0.1800
v -0.8300 1.0900 -0.1800
f 1026/1 1025/1 1024/1 1023/1
o Lamp
usemtl wi_lamp
v 0.0900 1.4600 -0.5000
v 0.0900 1.6400 -0.5000
v 0.0900 1.6400 -0.5600
v 0.0900 1.4600 -0.5600
f 1030/1 1029/1 1028/1 1027/1
v -0.0900 1.4600 -0.5600
v -0.0900 1.6400 -0.5600
v -0.0900 1.6400 -0.5000
v -0.0900 1.4600 -0.5000
f 1034/1 1033/1 1032/1 1031/1
v 0.0900 1.4600 -0.5600
v -0.0900 1.4600 -0.5600
v -0.0900 1.4600 -0.5000
v 0.0900 1.4600 -0.5000
f 1038/1 1037/1 1036/1 1035/1
v 0.0900 1.6400 -0.5000
v -0.0900 1.6400 -0.5000
v -0.0900 1.6400 -0.5600
v 0.0900 1.6400 -0.5600
f 1042/1 1041/1 1040/1 1039/1
v 0.0900 1.6400 -0.5600
v -0.0900 1.6400 -0.5600
v -0.0900 1.4600 -0.5600
v 0.0900 1.4600 -0.5600
f 1046/1 1045/1 1044/1 1043/1
v 0.0900 1.4600 -0.5000
v -0.0900 1.4600 -0.5000
v -0.0900 1.6400 -0.5000
v 0.0900 1.6400 -0.5000
f 1050/1 1049/1 1048/1 1047/1
o PadLamps
usemtl wi_lamp
v 1.9000 0.6300 -0.3200
v 1.9000 0.6900 -0.3200
v 1.9000 0.6900 -0.4000
v 1.9000 0.6300 -0.4000
f 1054/1 1053/1 1052/1 1051/1
v 1.8200 0.6300 -0.4000
v 1.8200 0.6900 -0.4000
v 1.8200 0.6900 -0.3200
v 1.8200 0.6300 -0.3200
f 1058/1 1057/1 1056/1 1055/1
v 1.9000 0.6300 -0.4000
v 1.8200 0.6300 -0.4000
v 1.8200 0.6300 -0.3200
v 1.9000 0.6300 -0.3200
f 1062/1 1061/1 1060/1 1059/1
v 1.9000 0.6900 -0.3200
v 1.8200 0.6900 -0.3200
v 1.8200 0.6900 -0.4000
v 1.9000 0.6900 -0.4000
f 1066/1 1065/1 1064/1 1063/1
v 1.9000 0.6900 -0.4000
v 1.8200 0.6900 -0.4000
v 1.8200 0.6300 -0.4000
v 1.9000 0.6300 -0.4000
f 1070/1 1069/1 1068/1 1067/1
v 1.9000 0.6300 -0.3200
v 1.8200 0.6300 -0.3200
v 1.8200 0.6900 -0.3200
v 1.9000 0.6900 -0.3200
f 1074/1 1073/1 1072/1 1071/1
v 1.9000 0.6300 1.0000
v 1.9000 0.6900 1.0000
v 1.9000 0.6900 0.9200
v 1.9000 0.6300 0.9200
f 1078/1 1077/1 1076/1 1075/1
v 1.8200 0.6300 0.9200
v 1.8200 0.6900 0.9200
v 1.8200 0.6900 1.0000
v 1.8200 0.6300 1.0000
f 1082/1 1081/1 1080/1 1079/1
v 1.9000 0.6300 0.9200
v 1.8200 0.6300 0.9200
v 1.8200 0.6300 1.0000
v 1.9000 0.6300 1.0000
f 1086/1 1085/1 1084/1 1083/1
v 1.9000 0.6900 1.0000
v 1.8200 0.6900 1.0000
v 1.8200 0.6900 0.9200
v 1.9000 0.6900 0.9200
f 1090/1 1089/1 1088/1 1087/1
v 1.9000 0.6900 0.9200
v 1.8200 0.6900 0.9200
v 1.8200 0.6300 0.9200
v 1.9000 0.6300 0.9200
f 1094/1 1093/1 1092/1 1091/1
v 1.9000 0.6300 1.0000
v 1.8200 0.6300 1.0000
v 1.8200 0.6900 1.0000
v 1.9000 0.6900 1.0000
f 1098/1 1097/1 1096/1 1095/1
v 0.5800 0.6300 -0.3200
v 0.5800 0.6900 -0.3200
v 0.5800 0.6900 -0.4000
v 0.5800 0.6300 -0.4000
f 1102/1 1101/1 1100/1 1099/1
v 0.5000 0.6300 -0.4000
v 0.5000 0.6900 -0.4000
v 0.5000 0.6900 -0.3200
v 0.5000 0.6300 -0.3200
f 1106/1 1105/1 1104/1 1103/1
v 0.5800 0.6300 -0.4000
v 0.5000 0.6300 -0.4000
v 0.5000 0.6300 -0.3200
v 0.5800 0.6300 -0.3200
f 1110/1 1109/1 1108/1 1107/1
v 0.5800 0.6900 -0.3200
v 0.5000 0.6900 -0.3200
v 0.5000 0.6900 -0.4000
v 0.5800 0.6900 -0.4000
f 1114/1 1113/1 1112/1 1111/1
v 0.5800 0.6900 -0.4000
v 0.5000 0.6900 -0.4000
v 0.5000 0.6300 -0.4000
v 0.5800 0.6300 -0.4000
f 1118/1 1117/1 1116/1 1115/1
v 0.5800 0.6300 -0.3200
v 0.5000 0.6300 -0.3200
v 0.5000 0.6900 -0.3200
v 0.5800 0.6900 -0.3200
f 1122/1 1121/1 1120/1 1119/1
v 0.5800 0.6300 1.0000
v 0.5800 0.6900 1.0000
v 0.5800 0.6900 0.9200
v 0.5800 0.6300 0.9200
f 1126/1 1125/1 1124/1 1123/1
v 0.5000 0.6300 0.9200
v 0.5000 0.6900 0.9200
v 0.5000 0.6900 1.0000
v 0.5000 0.6300 1.0000
f 1130/1 1129/1 1128/1 1127/1
v 0.5800 0.6300 0.9200
v 0.5000 0.6300 0.9200
v 0.5000 0.6300 1.0000
v 0.5800 0.6300 1.0000
f 1134/1 1133/1 1132/1 1131/1
v 0.5800 0.6900 1.0000
v 0.5000 0.6900 1.0000
v 0.5000 0.6900 0.9200
v 0.5800 0.6900 0.9200
f 1138/1 1137/1 1136/1 1135/1
v 0.5800 0.6900 0.9200
v 0.5000 0.6900 0.9200
v 0.5000 0.6300 0.9200
v 0.5800 0.6300 0.9200
f 1142/1 1141/1 1140/1 1139/1
v 0.5800 0.6300 1.0000
v 0.5000 0.6300 1.0000
v 0.5000 0.6900 1.0000
v 0.5800 0.6900 1.0000
f 1146/1 1145/1 1144/1 1143/1
v -0.5000 0.6300 -0.3200
v -0.5000 0.6900 -0.3200
v -0.5000 0.6900 -0.4000
v -0.5000 0.6300 -0.4000
f 1150/1 1149/1 1148/1 1147/1
v -0.5800 0.6300 -0.4000
v -0.5800 0.6900 -0.4000
v -0.5800 0.6900 -0.3200
v -0.5800 0.6300 -0.3200
f 1154/1 1153/1 1152/1 1151/1
v -0.5000 0.6300 -0.4000
v -0.5800 0.6300 -0.4000
v -0.5800 0.6300 -0.3200
v -0.5000 0.6300 -0.3200
f 1158/1 1157/1 1156/1 1155/1
v -0.5000 0.6900 -0.3200
v -0.5800 0.6900 -0.3200
v -0.5800 0.6900 -0.4000
v -0.5000 0.6900 -0.4000
f 1162/1 1161/1 1160/1 1159/1
v -0.5000 0.6900 -0.4000
v -0.5800 0.6900 -0.4000
v -0.5800 0.6300 -0.4000
v -0.5000 0.6300 -0.4000
f 1166/1 1165/1 1164/1 1163/1
v -0.5000 0.6300 -0.3200
v -0.5800 0.6300 -0.3200
v -0.5800 0.6900 -0.3200
v -0.5000 0.6900 -0.3200
f 1170/1 1169/1 1168/1 1167/1
v -0.5000 0.6300 1.0000
v -0.5000 0.6900 1.0000
v -0.5000 0.6900 0.9200
v -0.5000 0.6300 0.9200
f 1174/1 1173/1 1172/1 1171/1
v -0.5800 0.6300 0.9200
v -0.5800 0.6900 0.9200
v -0.5800 0.6900 1.0000
v -0.5800 0.6300 1.0000
f 1178/1 1177/1 1176/1 1175/1
v -0.5000 0.6300 0.9200
v -0.5800 0.6300 0.9200
v -0.5800 0.6300 1.0000
v -0.5000 0.6300 1.0000
f 1182/1 1181/1 1180/1 1179/1
v -0.5000 0.6900 1.0000
v -0.5800 0.6900 1.0000
v -0.5800 0.6900 0.9200
v -0.5000 0.6900 0.9200
f 1186/1 1185/1 1184/1 1183/1
v -0.5000 0.6900 0.9200
v -0.5800 0.6900 0.9200
v -0.5800 0.6300 0.9200
v -0.5000 0.6300 0.9200
f 1190/1 1189/1 1188/1 1187/1
v -0.5000 0.6300 1.0000
v -0.5800 0.6300 1.0000
v -0.5800 0.6900 1.0000
v -0.5000 0.6900 1.0000
f 1194/1 1193/1 1192/1 1191/1
v -1.8200 0.6300 -0.3200
v -1.8200 0.6900 -0.3200
v -1.8200 0.6900 -0.4000
v -1.8200 0.6300 -0.4000
f 1198/1 1197/1 1196/1 1195/1
v -1.9000 0.6300 -0.4000
v -1.9000 0.6900 -0.4000
v -1.9000 0.6900 -0.3200
v -1.9000 0.6300 -0.3200
f 1202/1 1201/1 1200/1 1199/1
v -1.8200 0.6300 -0.4000
v -1.9000 0.6300 -0.4000
v -1.9000 0.6300 -0.3200
v -1.8200 0.6300 -0.3200
f 1206/1 1205/1 1204/1 1203/1
v -1.8200 0.6900 -0.3200
v -1.9000 0.6900 -0.3200
v -1.9000 0.6900 -0.4000
v -1.8200 0.6900 -0.4000
f 1210/1 1209/1 1208/1 1207/1
v -1.8200 0.6900 -0.4000
v -1.9000 0.6900 -0.4000
v -1.9000 0.6300 -0.4000
v -1.8200 0.6300 -0.4000
f 1214/1 1213/1 1212/1 1211/1
v -1.8200 0.6300 -0.3200
v -1.9000 0.6300 -0.3200
v -1.9000 0.6900 -0.3200
v -1.8200 0.6900 -0.3200
f 1218/1 1217/1 1216/1 1215/1
v -1.8200 0.6300 1.0000
v -1.8200 0.6900 1.0000
v -1.8200 0.6900 0.9200
v -1.8200 0.6300 0.9200
f 1222/1 1221/1 1220/1 1219/1
v -1.9000 0.6300 0.9200
v -1.9000 0.6900 0.9200
v -1.9000 0.6900 1.0000
v -1.9000 0.6300 1.0000
f 1226/1 1225/1 1224/1 1223/1
v -1.8200 0.6300 0.9200
v -1.9000 0.6300 0.9200
v -1.9000 0.6300 1.0000
v -1.8200 0.6300 1.0000
f 1230/1 1229/1 1228/1 1227/1
v -1.8200 0.6900 1.0000
v -1.9000 0.6900 1.0000
v -1.9000 0.6900 0.9200
v -1.8200 0.6900 0.9200
f 1234/1 1233/1 1232/1 1231/1
v -1.8200 0.6900 0.9200
v -1.9000 0.6900 0.9200
v -1.9000 0.6300 0.9200
v -1.8200 0.6300 0.9200
f 1238/1 1237/1 1236/1 1235/1
v -1.8200 0.6300 1.0000
v -1.9000 0.6300 1.0000
v -1.9000 0.6900 1.0000
v -1.8200 0.6900 1.0000
f 1242/1 1241/1 1240/1 1239/1
v 1.9000 0.6300 1.1300
v 1.9000 0.6900 1.1300
v 1.9000 0.6900 1.0500
v 1.9000 0.6300 1.0500
f 1246/1 1245/1 1244/1 1243/1
v 1.8200 0.6300 1.0500
v 1.8200 0.6900 1.0500
v 1.8200 0.6900 1.1300
v 1.8200 0.6300 1.1300
f 1250/1 1249/1 1248/1 1247/1
v 1.9000 0.6300 1.0500
v 1.8200 0.6300 1.0500
v 1.8200 0.6300 1.1300
v 1.9000 0.6300 1.1300
f 1254/1 1253/1 1252/1 1251/1
v 1.9000 0.6900 1.1300
v 1.8200 0.6900 1.1300
v 1.8200 0.6900 1.0500
v 1.9000 0.6900 1.0500
f 1258/1 1257/1 1256/1 1255/1
v 1.9000 0.6900 1.0500
v 1.8200 0.6900 1.0500
v 1.8200 0.6300 1.0500
v 1.9000 0.6300 1.0500
f 1262/1 1261/1 1260/1 1259/1
v 1.9000 0.6300 1.1300
v 1.8200 0.6300 1.1300
v 1.8200 0.6900 1.1300
v 1.9000 0.6900 1.1300
f 1266/1 1265/1 1264/1 1263/1
v 1.9000 0.6300 2.4500
v 1.9000 0.6900 2.4500
v 1.9000 0.6900 2.3700
v 1.9000 0.6300 2.3700
f 1270/1 1269/1 1268/1 1267/1
v 1.8200 0.6300 2.3700
v 1.8200 0.6900 2.3700
v 1.8200 0.6900 2.4500
v 1.8200 0.6300 2.4500
f 1274/1 1273/1 1272/1 1271/1
v 1.9000 0.6300 2.3700
v 1.8200 0.6300 2.3700
v 1.8200 0.6300 2.4500
v 1.9000 0.6300 2.4500
f 1278/1 1277/1 1276/1 1275/1
v 1.9000 0.6900 2.4500
v 1.8200 0.6900 2.4500
v 1.8200 0.6900 2.3700
v 1.9000 0.6900 2.3700
f 1282/1 1281/1 1280/1 1279/1
v 1.9000 0.6900 2.3700
v 1.8200 0.6900 2.3700
v 1.8200 0.6300 2.3700
v 1.9000 0.6300 2.3700
f 1286/1 1285/1 1284/1 1283/1
v 1.9000 0.6300 2.4500
v 1.8200 0.6300 2.4500
v 1.8200 0.6900 2.4500
v 1.9000 0.6900 2.4500
f 1290/1 1289/1 1288/1 1287/1
v 0.5800 0.6300 1.1300
v 0.5800 0.6900 1.1300
v 0.5800 0.6900 1.0500
v 0.5800 0.6300 1.0500
f 1294/1 1293/1 1292/1 1291/1
v 0.5000 0.6300 1.0500
v 0.5000 0.6900 1.0500
v 0.5000 0.6900 1.1300
v 0.5000 0.6300 1.1300
f 1298/1 1297/1 1296/1 1295/1
v 0.5800 0.6300 1.0500
v 0.5000 0.6300 1.0500
v 0.5000 0.6300 1.1300
v 0.5800 0.6300 1.1300
f 1302/1 1301/1 1300/1 1299/1
v 0.5800 0.6900 1.1300
v 0.5000 0.6900 1.1300
v 0.5000 0.6900 1.0500
v 0.5800 0.6900 1.0500
f 1306/1 1305/1 1304/1 1303/1
v 0.5800 0.6900 1.0500
v 0.5000 0.6900 1.0500
v 0.5000 0.6300 1.0500
v 0.5800 0.6300 1.0500
f 1310/1 1309/1 1308/1 1307/1
v 0.5800 0.6300 1.1300
v 0.5000 0.6300 1.1300
v 0.5000 0.6900 1.1300
v 0.5800 0.6900 1.1300
f 1314/1 1313/1 1312/1 1311/1
v 0.5800 0.6300 2.4500
v 0.5800 0.6900 2.4500
v 0.5800 0.6900 2.3700
v 0.5800 0.6300 2.3700
f 1318/1 1317/1 1316/1 1315/1
v 0.5000 0.6300 2.3700
v 0.5000 0.6900 2.3700
v 0.5000 0.6900 2.4500
v 0.5000 0.6300 2.4500
f 1322/1 1321/1 1320/1 1319/1
v 0.5800 0.6300 2.3700
v 0.5000 0.6300 2.3700
v 0.5000 0.6300 2.4500
v 0.5800 0.6300 2.4500
f 1326/1 1325/1 1324/1 1323/1
v 0.5800 0.6900 2.4500
v 0.5000 0.6900 2.4500
v 0.5000 0.6900 2.3700
v 0.5800 0.6900 2.3700
f 1330/1 1329/1 1328/1 1327/1
v 0.5800 0.6900 2.3700
v 0.5000 0.6900 2.3700
v 0.5000 0.6300 2.3700
v 0.5800 0.6300 2.3700
f 1334/1 1333/1 1332/1 1331/1
v 0.5800 0.6300 2.4500
v 0.5000 0.6300 2.4500
v 0.5000 0.6900 2.4500
v 0.5800 0.6900 2.4500
f 1338/1 1337/1 1336/1 1335/1
v -0.5000 0.6300 1.1300
v -0.5000 0.6900 1.1300
v -0.5000 0.6900 1.0500
v -0.5000 0.6300 1.0500
f 1342/1 1341/1 1340/1 1339/1
v -0.5800 0.6300 1.0500
v -0.5800 0.6900 1.0500
v -0.5800 0.6900 1.1300
v -0.5800 0.6300 1.1300
f 1346/1 1345/1 1344/1 1343/1
v -0.5000 0.6300 1.0500
v -0.5800 0.6300 1.0500
v -0.5800 0.6300 1.1300
v -0.5000 0.6300 1.1300
f 1350/1 1349/1 1348/1 1347/1
v -0.5000 0.6900 1.1300
v -0.5800 0.6900 1.1300
v -0.5800 0.6900 1.0500
v -0.5000 0.6900 1.0500
f 1354/1 1353/1 1352/1 1351/1
v -0.5000 0.6900 1.0500
v -0.5800 0.6900 1.0500
v -0.5800 0.6300 1.0500
v -0.5000 0.6300 1.0500
f 1358/1 1357/1 1356/1 1355/1
v -0.5000 0.6300 1.1300
v -0.5800 0.6300 1.1300
v -0.5800 0.6900 1.1300
v -0.5000 0.6900 1.1300
f 1362/1 1361/1 1360/1 1359/1
v -0.5000 0.6300 2.4500
v -0.5000 0.6900 2.4500
v -0.5000 0.6900 2.3700
v -0.5000 0.6300 2.3700
f 1366/1 1365/1 1364/1 1363/1
v -0.5800 0.6300 2.3700
v -0.5800 0.6900 2.3700
v -0.5800 0.6900 2.4500
v -0.5800 0.6300 2.4500
f 1370/1 1369/1 1368/1 1367/1
v -0.5000 0.6300 2.3700
v -0.5800 0.6300 2.3700
v -0.5800 0.6300 2.4500
v -0.5000 0.6300 2.4500
f 1374/1 1373/1 1372/1 1371/1
v -0.5000 0.6900 2.4500
v -0.5800 0.6900 2.4500
v -0.5800 0.6900 2.3700
v -0.5000 0.6900 2.3700
f 1378/1 1377/1 1376/1 1375/1
v -0.5000 0.6900 2.3700
v -0.5800 0.6900 2.3700
v -0.5800 0.6300 2.3700
v -0.5000 0.6300 2.3700
f 1382/1 1381/1 1380/1 1379/1
v -0.5000 0.6300 2.4500
v -0.5800 0.6300 2.4500
v -0.5800 0.6900 2.4500
v -0.5000 0.6900 2.4500
f 1386/1 1385/1 1384/1 1383/1
v -1.8200 0.6300 1.1300
v -1.8200 0.6900 1.1300
v -1.8200 0.6900 1.0500
v -1.8200 0.6300 1.0500
f 1390/1 1389/1 1388/1 1387/1
v -1.9000 0.6300 1.0500
v -1.9000 0.6900 1.0500
v -1.9000 0.6900 1.1300
v -1.9000 0.6300 1.1300
f 1394/1 1393/1 1392/1 1391/1
v -1.8200 0.6300 1.0500
v -1.9000 0.6300 1.0500
v -1.9000 0.6300 1.1300
v -1.8200 0.6300 1.1300
f 1398/1 1397/1 1396/1 1395/1
v -1.8200 0.6900 1.1300
v -1.9000 0.6900 1.1300
v -1.9000 0.6900 1.0500
v -1.8200 0.6900 1.0500
f 1402/1 1401/1 1400/1 1399/1
v -1.8200 0.6900 1.0500
v -1.9000 0.6900 1.0500
v -1.9000 0.6300 1.0500
v -1.8200 0.6300 1.0500
f 1406/1 1405/1 1404/1 1403/1
v -1.8200 0.6300 1.1300
v -1.9000 0.6300 1.1300
v -1.9000 0.6900 1.1300
v -1.8200 0.6900 1.1300
f 1410/1 1409/1 1408/1 1407/1
v -1.8200 0.6300 2.4500
v -1.8200 0.6900 2.4500
v -1.8200 0.6900 2.3700
v -1.8200 0.6300 2.3700
f 1414/1 1413/1 1412/1 1411/1
v -1.9000 0.6300 2.3700
v -1.9000 0.6900 2.3700
v -1.9000 0.6900 2.4500
v -1.9000 0.6300 2.4500
f 1418/1 1417/1 1416/1 1415/1
v -1.8200 0.6300 2.3700
v -1.9000 0.6300 2.3700
v -1.9000 0.6300 2.4500
v -1.8200 0.6300 2.4500
f 1422/1 1421/1 1420/1 1419/1
v -1.8200 0.6900 2.4500
v -1.9000 0.6900 2.4500
v -1.9000 0.6900 2.3700
v -1.8200 0.6900 2.3700
f 1426/1 1425/1 1424/1 1423/1
v -1.8200 0.6900 2.3700
v -1.9000 0.6900 2.3700
v -1.9000 0.6300 2.3700
v -1.8200 0.6300 2.3700
f 1430/1 1429/1 1428/1 1427/1
v -1.8200 0.6300 2.4500
v -1.9000 0.6300 2.4500
v -1.9000 0.6900 2.4500
v -1.8200 0.6900 2.4500
f 1434/1 1433/1 1432/1 1431/1
