# Walk of Industry low-poly (generated, wi_lib.py)
mtllib wi.mtl
vt 0 0
o Body
usemtl wi_base
v 0.4800 0.0000 0.4800
v 0.4800 0.0800 0.4800
v 0.4800 0.0800 -0.4800
v 0.4800 0.0000 -0.4800
f 4/1 3/1 2/1 1/1
v -0.4800 0.0000 -0.4800
v -0.4800 0.0800 -0.4800
v -0.4800 0.0800 0.4800
v -0.4800 0.0000 0.4800
f 8/1 7/1 6/1 5/1
v 0.4800 0.0000 -0.4800
v -0.4800 0.0000 -0.4800
v -0.4800 0.0000 0.4800
v 0.4800 0.0000 0.4800
f 12/1 11/1 10/1 9/1
v 0.4800 0.0800 0.4800
v -0.4800 0.0800 0.4800
v -0.4800 0.0800 -0.4800
v 0.4800 0.0800 -0.4800
f 16/1 15/1 14/1 13/1
v 0.4800 0.0800 -0.4800
v -0.4800 0.0800 -0.4800
v -0.4800 0.0000 -0.4800
v 0.4800 0.0000 -0.4800
f 20/1 19/1 18/1 17/1
v 0.4800 0.0000 0.4800
v -0.4800 0.0000 0.4800
v -0.4800 0.0800 0.4800
v 0.4800 0.0800 0.4800
f 24/1 23/1 22/1 21/1
usemtl wi_dark
v -0.1378 0.0800 0.3326
v -0.3326 0.0800 0.1378
v -0.3326 0.1600 0.1378
v -0.1378 0.1600 0.3326
f 28/1 27/1 26/1 25/1
v -0.3326 0.0800 0.1378
v -0.3326 0.0800 -0.1378
v -0.3326 0.1600 -0.1378
v -0.3326 0.1600 0.1378
f 32/1 31/1 30/1 29/1
v -0.3326 0.0800 -0.1378
v -0.1378 0.0800 -0.3326
v -0.1378 0.1600 -0.3326
v -0.3326 0.1600 -0.1378
f 36/1 35/1 34/1 33/1
v -0.1378 0.0800 -0.3326
v 0.1378 0.0800 -0.3326
v 0.1378 0.1600 -0.3326
v -0.1378 0.1600 -0.3326
f 40/1 39/1 38/1 37/1
v 0.1378 0.0800 -0.3326
v 0.3326 0.0800 -0.1378
v 0.3326 0.1600 -0.1378
v 0.1378 0.1600 -0.3326
f 44/1 43/1 42/1 41/1
v 0.3326 0.0800 -0.1378
v 0.3326 0.0800 0.1378
v 0.3326 0.1600 0.1378
v 0.3326 0.1600 -0.1378
f 48/1 47/1 46/1 45/1
v 0.3326 0.0800 0.1378
v 0.1378 0.0800 0.3326
v 0.1378 0.1600 0.3326
v 0.3326 0.1600 0.1378
f 52/1 51/1 50/1 49/1
v 0.1378 0.0800 0.3326
v -0.1378 0.0800 0.3326
v -0.1378 0.1600 0.3326
v 0.1378 0.1600 0.3326
f 56/1 55/1 54/1 53/1
v 0.1378 0.0800 0.3326
v 0.3326 0.0800 0.1378
v 0.3326 0.0800 -0.1378
v 0.1378 0.0800 -0.3326
v -0.1378 0.0800 -0.3326
v -0.3326 0.0800 -0.1378
v -0.3326 0.0800 0.1378
v -0.1378 0.0800 0.3326
f 64/1 63/1 62/1 61/1 60/1 59/1 58/1 57/1
v -0.1378 0.1600 0.3326
v -0.3326 0.1600 0.1378
v -0.3326 0.1600 -0.1378
v -0.1378 0.1600 -0.3326
v 0.1378 0.1600 -0.3326
v 0.3326 0.1600 -0.1378
v 0.3326 0.1600 0.1378
v 0.1378 0.1600 0.3326
f 72/1 71/1 70/1 69/1 68/1 67/1 66/1 65/1
usemtl wi_teal
v -0.0434 1.0220 0.0080
v -0.0769 1.0380 0.0415
v -0.3031 0.0880 0.2678
v -0.2696 0.0720 0.2343
f 76/1 75/1 74/1 73/1
v -0.2343 0.0720 0.2696
v -0.2678 0.0880 0.3031
v -0.0415 1.0380 0.0769
v -0.0080 1.0220 0.0434
f 80/1 79/1 78/1 77/1
v -0.2696 0.0720 0.2343
v -0.2343 0.0720 0.2696
v -0.0080 1.0220 0.0434
v -0.0434 1.0220 0.0080
f 84/1 83/1 82/1 81/1
v -0.0769 1.0380 0.0415
v -0.0415 1.0380 0.0769
v -0.2678 0.0880 0.3031
v -0.3031 0.0880 0.2678
f 88/1 87/1 86/1 85/1
v -0.3031 0.0880 0.2678
v -0.2678 0.0880 0.3031
v -0.2343 0.0720 0.2696
v -0.2696 0.0720 0.2343
f 92/1 91/1 90/1 89/1
v -0.0434 1.0220 0.0080
v -0.0080 1.0220 0.0434
v -0.0415 1.0380 0.0769
v -0.0769 1.0380 0.0415
f 96/1 95/1 94/1 93/1
v 0.0286 1.0220 0.0335
v 0.0744 1.0380 0.0458
v 0.3835 0.0880 0.1286
v 0.3377 0.0720 0.1164
f 100/1 99/1 98/1 97/1
v 0.3506 0.0720 0.0681
v 0.3964 0.0880 0.0803
v 0.0873 1.0380 -0.0025
v 0.0415 1.0220 -0.0148
f 104/1 103/1 102/1 101/1
v 0.3377 0.0720 0.1164
v 0.3506 0.0720 0.0681
v 0.0415 1.0220 -0.0148
v 0.0286 1.0220 0.0335
f 108/1 107/1 106/1 105/1
v 0.0744 1.0380 0.0458
v 0.0873 1.0380 -0.0025
v 0.3964 0.0880 0.0803
v 0.3835 0.0880 0.1286
f 112/1 111/1 110/1 109/1
v 0.3835 0.0880 0.1286
v 0.3964 0.0880 0.0803
v 0.3506 0.0720 0.0681
v 0.3377 0.0720 0.1164
f 116/1 115/1 114/1 113/1
v 0.0286 1.0220 0.0335
v 0.0415 1.0220 -0.0148
v 0.0873 1.0380 -0.0025
v 0.0744 1.0380 0.0458
f 120/1 119/1 118/1 117/1
v 0.0148 1.0220 -0.0415
v 0.0025 1.0380 -0.0873
v -0.0803 0.0880 -0.3964
v -0.0681 0.0720 -0.3506
f 124/1 123/1 122/1 121/1
v -0.1164 0.0720 -0.3377
v -0.1286 0.0880 -0.3835
v -0.0458 1.0380 -0.0744
v -0.0335 1.0220 -0.0286
f 128/1 127/1 126/1 125/1
v -0.0681 0.0720 -0.3506
v -0.1164 0.0720 -0.3377
v -0.0335 1.0220 -0.0286
v 0.0148 1.0220 -0.0415
f 132/1 131/1 130/1 129/1
v 0.0025 1.0380 -0.0873
v -0.0458 1.0380 -0.0744
v -0.1286 0.0880 -0.3835
v -0.0803 0.0880 -0.3964
f 136/1 135/1 134/1 133/1
v -0.0803 0.0880 -0.3964
v -0.1286 0.0880 -0.3835
v -0.1164 0.0720 -0.3377
v -0.0681 0.0720 -0.3506
f 140/1 139/1 138/1 137/1
v 0.0148 1.0220 -0.0415
v -0.0335 1.0220 -0.0286
v -0.0458 1.0380 -0.0744
v 0.0025 1.0380 -0.0873
f 144/1 143/1 142/1 141/1
usemtl wi_copper
v 0.1400 0.9900 0.1400
v 0.1400 1.0700 0.1400
v 0.1400 1.0700 -0.1400
v 0.1400 0.9900 -0.1400
f 148/1 147/1 146/1 145/1
v -0.1400 0.9900 -0.1400
v -0.1400 1.0700 -0.1400
v -0.1400 1.0700 0.1400
v -0.1400 0.9900 0.1400
f 152/1 151/1 150/1 149/1
v 0.1400 0.9900 -0.1400
v -0.1400 0.9900 -0.1400
v -0.1400 0.9900 0.1400
v 0.1400 0.9900 0.1400
f 156/1 155/1 154/1 153/1
v 0.1400 1.0700 0.1400
v -0.1400 1.0700 0.1400
v -0.1400 1.0700 -0.1400
v 0.1400 1.0700 -0.1400
f 160/1 159/1 158/1 157/1
v 0.1400 1.0700 -0.1400
v -0.1400 1.0700 -0.1400
v -0.1400 0.9900 -0.1400
v 0.1400 0.9900 -0.1400
f 164/1 163/1 162/1 161/1
v 0.1400 0.9900 0.1400
v -0.1400 0.9900 0.1400
v -0.1400 1.0700 0.1400
v 0.1400 1.0700 0.1400
f 168/1 167/1 166/1 165/1
usemtl wi_teal
v 0.1700 0.3700 0.1700
v 0.1700 0.6300 0.1700
v 0.1700 0.6300 -0.1700
v 0.1700 0.3700 -0.1700
f 172/1 171/1 170/1 169/1
v -0.1700 0.3700 -0.1700
v -0.1700 0.6300 -0.1700
v -0.1700 0.6300 0.1700
v -0.1700 0.3700 0.1700
f 176/1 175/1 174/1 173/1
v 0.1700 0.3700 -0.1700
v -0.1700 0.3700 -0.1700
v -0.1700 0.3700 0.1700
v 0.1700 0.3700 0.1700
f 180/1 179/1 178/1 177/1
v 0.1700 0.6300 0.1700
v -0.1700 0.6300 0.1700
v -0.1700 0.6300 -0.1700
v 0.1700 0.6300 -0.1700
f 184/1 183/1 182/1 181/1
v 0.1700 0.6300 -0.1700
v -0.1700 0.6300 -0.1700
v -0.1700 0.3700 -0.1700
v 0.1700 0.3700 -0.1700
f 188/1 187/1 186/1 185/1
v 0.1700 0.3700 0.1700
v -0.1700 0.3700 0.1700
v -0.1700 0.6300 0.1700
v 0.1700 0.6300 0.1700
f 192/1 191/1 190/1 189/1
usemtl wi_copper
v 0.1200 0.6300 0.1200
v 0.1200 0.6900 0.1200
v 0.1200 0.6900 -0.1200
v 0.1200 0.6300 -0.1200
f 196/1 195/1 194/1 193/1
v -0.1200 0.6300 -0.1200
v -0.1200 0.6900 -0.1200
v -0.1200 0.6900 0.1200
v -0.1200 0.6300 0.1200
f 200/1 199/1 198/1 197/1
v 0.1200 0.6300 -0.1200
v -0.1200 0.6300 -0.1200
v -0.1200 0.6300 0.1200
v 0.1200 0.6300 0.1200
f 204/1 203/1 202/1 201/1
v 0.1200 0.6900 0.1200
v -0.1200 0.6900 0.1200
v -0.1200 0.6900 -0.1200
v 0.1200 0.6900 -0.1200
f 208/1 207/1 206/1 205/1
v 0.1200 0.6900 -0.1200
v -0.1200 0.6900 -0.1200
v -0.1200 0.6300 -0.1200
v 0.1200 0.6300 -0.1200
f 212/1 211/1 210/1 209/1
v 0.1200 0.6300 0.1200
v -0.1200 0.6300 0.1200
v -0.1200 0.6900 0.1200
v 0.1200 0.6900 0.1200
f 216/1 215/1 214/1 213/1
usemtl wi_dark
v -0.1700 0.4100 0.0900
v -0.1700 0.5900 0.0900
v -0.1700 0.5900 -0.0900
v -0.1700 0.4100 -0.0900
f 220/1 219/1 218/1 217/1
v -0.2300 0.4100 -0.0900
v -0.2300 0.5900 -0.0900
v -0.2300 0.5900 0.0900
v -0.2300 0.4100 0.0900
f 224/1 223/1 222/1 221/1
v -0.1700 0.4100 -0.0900
v -0.2300 0.4100 -0.0900
v -0.2300 0.4100 0.0900
v -0.1700 0.4100 0.0900
f 228/1 227/1 226/1 225/1
v -0.1700 0.5900 0.0900
v -0.2300 0.5900 0.0900
v -0.2300 0.5900 -0.0900
v -0.1700 0.5900 -0.0900
f 232/1 231/1 230/1 229/1
v -0.1700 0.5900 -0.0900
v -0.2300 0.5900 -0.0900
v -0.2300 0.4100 -0.0900
v -0.1700 0.4100 -0.0900
f 236/1 235/1 234/1 233/1
v -0.1700 0.4100 0.0900
v -0.2300 0.4100 0.0900
v -0.2300 0.5900 0.0900
v -0.1700 0.5900 0.0900
f 240/1 239/1 238/1 237/1
o Lamp
usemtl wi_lamp
v 0.0300 1.0700 0.0300
v 0.0300 1.1300 0.0300
v 0.0300 1.1300 -0.0300
v 0.0300 1.0700 -0.0300
f 244/1 243/1 242/1 241/1
v -0.0300 1.0700 -0.0300
v -0.0300 1.1300 -0.0300
v -0.0300 1.1300 0.0300
v -0.0300 1.0700 0.0300
f 248/1 247/1 246/1 245/1
v 0.0300 1.0700 -0.0300
v -0.0300 1.0700 -0.0300
v -0.0300 1.0700 0.0300
v 0.0300 1.0700 0.0300
f 252/1 251/1 250/1 249/1
v 0.0300 1.1300 0.0300
v -0.0300 1.1300 0.0300
v -0.0300 1.1300 -0.0300
v 0.0300 1.1300 -0.0300
f 256/1 255/1 254/1 253/1
v 0.0300 1.1300 -0.0300
v -0.0300 1.1300 -0.0300
v -0.0300 1.0700 -0.0300
v 0.0300 1.0700 -0.0300
f 260/1 259/1 258/1 257/1
v 0.0300 1.0700 0.0300
v -0.0300 1.0700 0.0300
v -0.0300 1.1300 0.0300
v 0.0300 1.1300 0.0300
f 264/1 263/1 262/1 261/1
