# Walk of Industry low-poly (generated, wi_lib.py)
mtllib wi.mtl
vt 0 0
vt 0.03125 0.03125
vt 0.09375 0.03125
vt 0.15625 0.03125
vt 0.21875 0.03125
vt 0.28125 0.03125
vt 0.34375 0.03125
vt 0.40625 0.03125
vt 0.46875 0.03125
vt 0.53125 0.03125
vt 0.59375 0.03125
vt 0.65625 0.03125
vt 0.71875 0.03125
vt 0.78125 0.03125
vt 0.84375 0.03125
vt 0.90625 0.03125
vt 0.96875 0.03125
vt 0.03125 0.09375
vt 0.09375 0.09375
vt 0.15625 0.09375
vt 0.21875 0.09375
vt 0.28125 0.09375
vt 0.34375 0.09375
vt 0.40625 0.09375
vt 0.46875 0.09375
vt 0.53125 0.09375
vt 0.59375 0.09375
vt 0.65625 0.09375
vt 0.71875 0.09375
vt 0.78125 0.09375
vt 0.84375 0.09375
vt 0.90625 0.09375
vt 0.96875 0.09375
o Body
usemtl wi_palette
v 0.4800 0.0000 0.4800
v 0.4800 0.0800 0.4800
v 0.4800 0.0800 -0.4800
v 0.4800 0.0000 -0.4800
f 4/5 3/5 2/5 1/5
v -0.4800 0.0000 -0.4800
v -0.4800 0.0800 -0.4800
v -0.4800 0.0800 0.4800
v -0.4800 0.0000 0.4800
f 8/5 7/5 6/5 5/5
v 0.4800 0.0000 -0.4800
v -0.4800 0.0000 -0.4800
v -0.4800 0.0000 0.4800
v 0.4800 0.0000 0.4800
f 12/5 11/5 10/5 9/5
v 0.4800 0.0800 0.4800
v -0.4800 0.0800 0.4800
v -0.4800 0.0800 -0.4800
v 0.4800 0.0800 -0.4800
f 16/5 15/5 14/5 13/5
v 0.4800 0.0800 -0.4800
v -0.4800 0.0800 -0.4800
v -0.4800 0.0000 -0.4800
v 0.4800 0.0000 -0.4800
f 20/5 19/5 18/5 17/5
v 0.4800 0.0000 0.4800
v -0.4800 0.0000 0.4800
v -0.4800 0.0800 0.4800
v 0.4800 0.0800 0.4800
f 24/5 23/5 22/5 21/5
v -0.1378 0.0800 0.3326
v -0.3326 0.0800 0.1378
v -0.3326 0.1600 0.1378
v -0.1378 0.1600 0.3326
f 28/6 27/6 26/6 25/6
v -0.3326 0.0800 0.1378
v -0.3326 0.0800 -0.1378
v -0.3326 0.1600 -0.1378
v -0.3326 0.1600 0.1378
f 32/6 31/6 30/6 29/6
v -0.3326 0.0800 -0.1378
v -0.1378 0.0800 -0.3326
v -0.1378 0.1600 -0.3326
v -0.3326 0.1600 -0.1378
f 36/6 35/6 34/6 33/6
v -0.1378 0.0800 -0.3326
v 0.1378 0.0800 -0.3326
v 0.1378 0.1600 -0.3326
v -0.1378 0.1600 -0.3326
f 40/6 39/6 38/6 37/6
v 0.1378 0.0800 -0.3326
v 0.3326 0.0800 -0.1378
v 0.3326 0.1600 -0.1378
v 0.1378 0.1600 -0.3326
f 44/6 43/6 42/6 41/6
v 0.3326 0.0800 -0.1378
v 0.3326 0.0800 0.1378
v 0.3326 0.1600 0.1378
v 0.3326 0.1600 -0.1378
f 48/6 47/6 46/6 45/6
v 0.3326 0.0800 0.1378
v 0.1378 0.0800 0.3326
v 0.1378 0.1600 0.3326
v 0.3326 0.1600 0.1378
f 52/6 51/6 50/6 49/6
v 0.1378 0.0800 0.3326
v -0.1378 0.0800 0.3326
v -0.1378 0.1600 0.3326
v 0.1378 0.1600 0.3326
f 56/6 55/6 54/6 53/6
v 0.1378 0.0800 0.3326
v 0.3326 0.0800 0.1378
v 0.3326 0.0800 -0.1378
v 0.1378 0.0800 -0.3326
v -0.1378 0.0800 -0.3326
v -0.3326 0.0800 -0.1378
v -0.3326 0.0800 0.1378
v -0.1378 0.0800 0.3326
f 64/6 63/6 62/6 61/6 60/6 59/6 58/6 57/6
v -0.1378 0.1600 0.3326
v -0.3326 0.1600 0.1378
v -0.3326 0.1600 -0.1378
v -0.1378 0.1600 -0.3326
v 0.1378 0.1600 -0.3326
v 0.3326 0.1600 -0.1378
v 0.3326 0.1600 0.1378
v 0.1378 0.1600 0.3326
f 72/6 71/6 70/6 69/6 68/6 67/6 66/6 65/6
v -0.0179 1.2205 0.0188
v -0.0670 1.2298 0.0170
v -0.2932 0.0798 0.2433
v -0.2442 0.0705 0.2451
f 76/2 75/2 74/2 73/2
v -0.2442 0.0802 0.2941
v -0.2932 0.0895 0.2923
v -0.0670 1.2395 0.0660
v -0.0179 1.2302 0.0679
f 80/2 79/2 78/2 77/2
v -0.2442 0.0705 0.2451
v -0.2442 0.0802 0.2941
v -0.0179 1.2302 0.0679
v -0.0179 1.2205 0.0188
f 84/2 83/2 82/2 81/2
v -0.0670 1.2298 0.0170
v -0.0670 1.2395 0.0660
v -0.2932 0.0895 0.2923
v -0.2932 0.0798 0.2433
f 88/2 87/2 86/2 85/2
v -0.2932 0.0798 0.2433
v -0.2932 0.0895 0.2923
v -0.2442 0.0802 0.2941
v -0.2442 0.0705 0.2451
f 92/2 91/2 90/2 89/2
v -0.0179 1.2205 0.0188
v -0.0179 1.2302 0.0679
v -0.0670 1.2395 0.0660
v -0.0670 1.2298 0.0170
f 96/2 95/2 94/2 93/2
v 0.0670 1.2298 0.0170
v 0.0179 1.2205 0.0188
v 0.2442 0.0705 0.2451
v 0.2932 0.0798 0.2433
f 100/2 99/2 98/2 97/2
v 0.2932 0.0895 0.2923
v 0.2442 0.0802 0.2941
v 0.0179 1.2302 0.0679
v 0.0670 1.2395 0.0660
f 104/2 103/2 102/2 101/2
v 0.2932 0.0798 0.2433
v 0.2932 0.0895 0.2923
v 0.0670 1.2395 0.0660
v 0.0670 1.2298 0.0170
f 108/2 107/2 106/2 105/2
v 0.0179 1.2205 0.0188
v 0.0179 1.2302 0.0679
v 0.2442 0.0802 0.2941
v 0.2442 0.0705 0.2451
f 112/2 111/2 110/2 109/2
v 0.2442 0.0705 0.2451
v 0.2442 0.0802 0.2941
v 0.2932 0.0895 0.2923
v 0.2932 0.0798 0.2433
f 116/2 115/2 114/2 113/2
v 0.0670 1.2298 0.0170
v 0.0670 1.2395 0.0660
v 0.0179 1.2302 0.0679
v 0.0179 1.2205 0.0188
f 120/2 119/2 118/2 117/2
v 0.0670 1.2395 -0.0660
v 0.0179 1.2302 -0.0679
v 0.2442 0.0802 -0.2941
v 0.2932 0.0895 -0.2923
f 124/2 123/2 122/2 121/2
v 0.2932 0.0798 -0.2433
v 0.2442 0.0705 -0.2451
v 0.0179 1.2205 -0.0188
v 0.0670 1.2298 -0.0170
f 128/2 127/2 126/2 125/2
v 0.2932 0.0895 -0.2923
v 0.2932 0.0798 -0.2433
v 0.0670 1.2298 -0.0170
v 0.0670 1.2395 -0.0660
f 132/2 131/2 130/2 129/2
v 0.0179 1.2302 -0.0679
v 0.0179 1.2205 -0.0188
v 0.2442 0.0705 -0.2451
v 0.2442 0.0802 -0.2941
f 136/2 135/2 134/2 133/2
v 0.2442 0.0802 -0.2941
v 0.2442 0.0705 -0.2451
v 0.2932 0.0798 -0.2433
v 0.2932 0.0895 -0.2923
f 140/2 139/2 138/2 137/2
v 0.0670 1.2395 -0.0660
v 0.0670 1.2298 -0.0170
v 0.0179 1.2205 -0.0188
v 0.0179 1.2302 -0.0679
f 144/2 143/2 142/2 141/2
v -0.0179 1.2302 -0.0679
v -0.0670 1.2395 -0.0660
v -0.2932 0.0895 -0.2923
v -0.2442 0.0802 -0.2941
f 148/2 147/2 146/2 145/2
v -0.2442 0.0705 -0.2451
v -0.2932 0.0798 -0.2433
v -0.0670 1.2298 -0.0170
v -0.0179 1.2205 -0.0188
f 152/2 151/2 150/2 149/2
v -0.2442 0.0802 -0.2941
v -0.2442 0.0705 -0.2451
v -0.0179 1.2205 -0.0188
v -0.0179 1.2302 -0.0679
f 156/2 155/2 154/2 153/2
v -0.0670 1.2395 -0.0660
v -0.0670 1.2298 -0.0170
v -0.2932 0.0798 -0.2433
v -0.2932 0.0895 -0.2923
f 160/2 159/2 158/2 157/2
v -0.2932 0.0895 -0.2923
v -0.2932 0.0798 -0.2433
v -0.2442 0.0705 -0.2451
v -0.2442 0.0802 -0.2941
f 164/2 163/2 162/2 161/2
v -0.0179 1.2302 -0.0679
v -0.0179 1.2205 -0.0188
v -0.0670 1.2298 -0.0170
v -0.0670 1.2395 -0.0660
f 168/2 167/2 166/2 165/2
v 0.1400 1.1900 0.1400
v 0.1400 1.2700 0.1400
v 0.1400 1.2700 -0.1400
v 0.1400 1.1900 -0.1400
f 172/4 171/4 170/4 169/4
v -0.1400 1.1900 -0.1400
v -0.1400 1.2700 -0.1400
v -0.1400 1.2700 0.1400
v -0.1400 1.1900 0.1400
f 176/4 175/4 174/4 173/4
v 0.1400 1.1900 -0.1400
v -0.1400 1.1900 -0.1400
v -0.1400 1.1900 0.1400
v 0.1400 1.1900 0.1400
f 180/4 179/4 178/4 177/4
v 0.1400 1.2700 0.1400
v -0.1400 1.2700 0.1400
v -0.1400 1.2700 -0.1400
v 0.1400 1.2700 -0.1400
f 184/4 183/4 182/4 181/4
v 0.1400 1.2700 -0.1400
v -0.1400 1.2700 -0.1400
v -0.1400 1.1900 -0.1400
v 0.1400 1.1900 -0.1400
f 188/4 187/4 186/4 185/4
v 0.1400 1.1900 0.1400
v -0.1400 1.1900 0.1400
v -0.1400 1.2700 0.1400
v 0.1400 1.2700 0.1400
f 192/4 191/4 190/4 189/4
v 0.1700 0.3700 0.1700
v 0.1700 0.6300 0.1700
v 0.1700 0.6300 -0.1700
v 0.1700 0.3700 -0.1700
f 196/2 195/2 194/2 193/2
v -0.1700 0.3700 -0.1700
v -0.1700 0.6300 -0.1700
v -0.1700 0.6300 0.1700
v -0.1700 0.3700 0.1700
f 200/2 199/2 198/2 197/2
v 0.1700 0.3700 -0.1700
v -0.1700 0.3700 -0.1700
v -0.1700 0.3700 0.1700
v 0.1700 0.3700 0.1700
f 204/2 203/2 202/2 201/2
v 0.1700 0.6300 0.1700
v -0.1700 0.6300 0.1700
v -0.1700 0.6300 -0.1700
v 0.1700 0.6300 -0.1700
f 208/2 207/2 206/2 205/2
v 0.1700 0.6300 -0.1700
v -0.1700 0.6300 -0.1700
v -0.1700 0.3700 -0.1700
v 0.1700 0.3700 -0.1700
f 212/2 211/2 210/2 209/2
v 0.1700 0.3700 0.1700
v -0.1700 0.3700 0.1700
v -0.1700 0.6300 0.1700
v 0.1700 0.6300 0.1700
f 216/2 215/2 214/2 213/2
v 0.1200 0.6300 0.1200
v 0.1200 0.6900 0.1200
v 0.1200 0.6900 -0.1200
v 0.1200 0.6300 -0.1200
f 220/4 219/4 218/4 217/4
v -0.1200 0.6300 -0.1200
v -0.1200 0.6900 -0.1200
v -0.1200 0.6900 0.1200
v -0.1200 0.6300 0.1200
f 224/4 223/4 222/4 221/4
v 0.1200 0.6300 -0.1200
v -0.1200 0.6300 -0.1200
v -0.1200 0.6300 0.1200
v 0.1200 0.6300 0.1200
f 228/4 227/4 226/4 225/4
v 0.1200 0.6900 0.1200
v -0.1200 0.6900 0.1200
v -0.1200 0.6900 -0.1200
v 0.1200 0.6900 -0.1200
f 232/4 231/4 230/4 229/4
v 0.1200 0.6900 -0.1200
v -0.1200 0.6900 -0.1200
v -0.1200 0.6300 -0.1200
v 0.1200 0.6300 -0.1200
f 236/4 235/4 234/4 233/4
v 0.1200 0.6300 0.1200
v -0.1200 0.6300 0.1200
v -0.1200 0.6900 0.1200
v 0.1200 0.6900 0.1200
f 240/4 239/4 238/4 237/4
v -0.1700 0.4100 0.0900
v -0.1700 0.5900 0.0900
v -0.1700 0.5900 -0.0900
v -0.1700 0.4100 -0.0900
f 244/6 243/6 242/6 241/6
v -0.2300 0.4100 -0.0900
v -0.2300 0.5900 -0.0900
v -0.2300 0.5900 0.0900
v -0.2300 0.4100 0.0900
f 248/6 247/6 246/6 245/6
v -0.1700 0.4100 -0.0900
v -0.2300 0.4100 -0.0900
v -0.2300 0.4100 0.0900
v -0.1700 0.4100 0.0900
f 252/6 251/6 250/6 249/6
v -0.1700 0.5900 0.0900
v -0.2300 0.5900 0.0900
v -0.2300 0.5900 -0.0900
v -0.1700 0.5900 -0.0900
f 256/6 255/6 254/6 253/6
v -0.1700 0.5900 -0.0900
v -0.2300 0.5900 -0.0900
v -0.2300 0.4100 -0.0900
v -0.1700 0.4100 -0.0900
f 260/6 259/6 258/6 257/6
v -0.1700 0.4100 0.0900
v -0.2300 0.4100 0.0900
v -0.2300 0.5900 0.0900
v -0.1700 0.5900 0.0900
f 264/6 263/6 262/6 261/6
v 0.0900 0.4200 0.1780
v 0.0900 0.5400 0.1780
v 0.0900 0.5400 0.1660
v 0.0900 0.4200 0.1660
f 268/6 267/6 266/6 265/6
v -0.0900 0.4200 0.1660
v -0.0900 0.5400 0.1660
v -0.0900 0.5400 0.1780
v -0.0900 0.4200 0.1780
f 272/6 271/6 270/6 269/6
v 0.0900 0.4200 0.1660
v -0.0900 0.4200 0.1660
v -0.0900 0.4200 0.1780
v 0.0900 0.4200 0.1780
f 276/6 275/6 274/6 273/6
v 0.0900 0.5400 0.1780
v -0.0900 0.5400 0.1780
v -0.0900 0.5400 0.1660
v 0.0900 0.5400 0.1660
f 280/6 279/6 278/6 277/6
v 0.0900 0.5400 0.1660
v -0.0900 0.5400 0.1660
v -0.0900 0.4200 0.1660
v 0.0900 0.4200 0.1660
f 284/6 283/6 282/6 281/6
v 0.0900 0.4200 0.1780
v -0.0900 0.4200 0.1780
v -0.0900 0.5400 0.1780
v 0.0900 0.5400 0.1780
f 288/6 287/6 286/6 285/6
v 0.0900 0.1836 0.2893
v 0.0900 0.1964 0.3107
v 0.0900 0.4464 0.1607
v 0.0900 0.4336 0.1393
f 292/7 291/7 290/7 289/7
v -0.0900 0.4336 0.1393
v -0.0900 0.4464 0.1607
v -0.0900 0.1964 0.3107
v -0.0900 0.1836 0.2893
f 296/7 295/7 294/7 293/7
v 0.0900 0.4336 0.1393
v -0.0900 0.4336 0.1393
v -0.0900 0.1836 0.2893
v 0.0900 0.1836 0.2893
f 300/7 299/7 298/7 297/7
v 0.0900 0.1964 0.3107
v -0.0900 0.1964 0.3107
v -0.0900 0.4464 0.1607
v 0.0900 0.4464 0.1607
f 304/7 303/7 302/7 301/7
v 0.0900 0.4464 0.1607
v -0.0900 0.4464 0.1607
v -0.0900 0.4336 0.1393
v 0.0900 0.4336 0.1393
f 308/7 307/7 306/7 305/7
v 0.0900 0.1836 0.2893
v -0.0900 0.1836 0.2893
v -0.0900 0.1964 0.3107
v 0.0900 0.1964 0.3107
f 312/7 311/7 310/7 309/7
v 0.1100 0.2020 0.2700
v 0.1100 0.2380 0.3300
v 0.1100 0.4880 0.1800
v 0.1100 0.4520 0.1200
f 316/4 315/4 314/4 313/4
v 0.0900 0.4520 0.1200
v 0.0900 0.4880 0.1800
v 0.0900 0.2380 0.3300
v 0.0900 0.2020 0.2700
f 320/4 319/4 318/4 317/4
v 0.1100 0.4520 0.1200
v 0.0900 0.4520 0.1200
v 0.0900 0.2020 0.2700
v 0.1100 0.2020 0.2700
f 324/4 323/4 322/4 321/4
v 0.1100 0.2380 0.3300
v 0.0900 0.2380 0.3300
v 0.0900 0.4880 0.1800
v 0.1100 0.4880 0.1800
f 328/4 327/4 326/4 325/4
v 0.1100 0.4880 0.1800
v 0.0900 0.4880 0.1800
v 0.0900 0.4520 0.1200
v 0.1100 0.4520 0.1200
f 332/4 331/4 330/4 329/4
v 0.1100 0.2020 0.2700
v 0.0900 0.2020 0.2700
v 0.0900 0.2380 0.3300
v 0.1100 0.2380 0.3300
f 336/4 335/4 334/4 333/4
v -0.0900 0.2020 0.2700
v -0.0900 0.2380 0.3300
v -0.0900 0.4880 0.1800
v -0.0900 0.4520 0.1200
f 340/4 339/4 338/4 337/4
v -0.1100 0.4520 0.1200
v -0.1100 0.4880 0.1800
v -0.1100 0.2380 0.3300
v -0.1100 0.2020 0.2700
f 344/4 343/4 342/4 341/4
v -0.0900 0.4520 0.1200
v -0.1100 0.4520 0.1200
v -0.1100 0.2020 0.2700
v -0.0900 0.2020 0.2700
f 348/4 347/4 346/4 345/4
v -0.0900 0.2380 0.3300
v -0.1100 0.2380 0.3300
v -0.1100 0.4880 0.1800
v -0.0900 0.4880 0.1800
f 352/4 351/4 350/4 349/4
v -0.0900 0.4880 0.1800
v -0.1100 0.4880 0.1800
v -0.1100 0.4520 0.1200
v -0.0900 0.4520 0.1200
f 356/4 355/4 354/4 353/4
v -0.0900 0.2020 0.2700
v -0.1100 0.2020 0.2700
v -0.1100 0.2380 0.3300
v -0.0900 0.2380 0.3300
f 360/4 359/4 358/4 357/4
v 0.1100 0.0800 0.4100
v 0.1100 0.1300 0.4100
v 0.1100 0.1300 0.2200
v 0.1100 0.0800 0.2200
f 364/3 363/3 362/3 361/3
v -0.1100 0.0800 0.2200
v -0.1100 0.1300 0.2200
v -0.1100 0.1300 0.4100
v -0.1100 0.0800 0.4100
f 368/3 367/3 366/3 365/3
v 0.1100 0.0800 0.2200
v -0.1100 0.0800 0.2200
v -0.1100 0.0800 0.4100
v 0.1100 0.0800 0.4100
f 372/3 371/3 370/3 369/3
v 0.1100 0.1300 0.4100
v -0.1100 0.1300 0.4100
v -0.1100 0.1300 0.2200
v 0.1100 0.1300 0.2200
f 376/3 375/3 374/3 373/3
v 0.1100 0.1300 0.2200
v -0.1100 0.1300 0.2200
v -0.1100 0.0800 0.2200
v 0.1100 0.0800 0.2200
f 380/3 379/3 378/3 377/3
v 0.1100 0.0800 0.4100
v -0.1100 0.0800 0.4100
v -0.1100 0.1300 0.4100
v 0.1100 0.1300 0.4100
f 384/3 383/3 382/3 381/3
v 0.1300 0.1300 0.4100
v 0.1300 0.1800 0.4100
v 0.1300 0.1800 0.2200
v 0.1300 0.1300 0.2200
f 388/6 387/6 386/6 385/6
v -0.1300 0.1300 0.2200
v -0.1300 0.1800 0.2200
v -0.1300 0.1800 0.4100
v -0.1300 0.1300 0.4100
f 392/6 391/6 390/6 389/6
v 0.1300 0.1300 0.2200
v -0.1300 0.1300 0.2200
v -0.1300 0.1300 0.4100
v 0.1300 0.1300 0.4100
f 396/6 395/6 394/6 393/6
v 0.1300 0.1800 0.4100
v -0.1300 0.1800 0.4100
v -0.1300 0.1800 0.2200
v 0.1300 0.1800 0.2200
f 400/6 399/6 398/6 397/6
v 0.1300 0.1800 0.2200
v -0.1300 0.1800 0.2200
v -0.1300 0.1300 0.2200
v 0.1300 0.1300 0.2200
f 404/6 403/6 402/6 401/6
v 0.1300 0.1300 0.4100
v -0.1300 0.1300 0.4100
v -0.1300 0.1800 0.4100
v 0.1300 0.1800 0.4100
f 408/6 407/6 406/6 405/6
v 0.1600 0.1550 0.4100
v 0.1600 0.2450 0.4100
v 0.1600 0.2450 0.2200
v 0.1600 0.1550 0.2200
f 412/4 411/4 410/4 409/4
v 0.1300 0.1550 0.2200
v 0.1300 0.2450 0.2200
v 0.1300 0.2450 0.4100
v 0.1300 0.1550 0.4100
f 416/4 415/4 414/4 413/4
v 0.1600 0.1550 0.2200
v 0.1300 0.1550 0.2200
v 0.1300 0.1550 0.4100
v 0.1600 0.1550 0.4100
f 420/4 419/4 418/4 417/4
v 0.1600 0.2450 0.4100
v 0.1300 0.2450 0.4100
v 0.1300 0.2450 0.2200
v 0.1600 0.2450 0.2200
f 424/4 423/4 422/4 421/4
v 0.1600 0.2450 0.2200
v 0.1300 0.2450 0.2200
v 0.1300 0.1550 0.2200
v 0.1600 0.1550 0.2200
f 428/4 427/4 426/4 425/4
v 0.1600 0.1550 0.4100
v 0.1300 0.1550 0.4100
v 0.1300 0.2450 0.4100
v 0.1600 0.2450 0.4100
f 432/4 431/4 430/4 429/4
v -0.1300 0.1550 0.4100
v -0.1300 0.2450 0.4100
v -0.1300 0.2450 0.2200
v -0.1300 0.1550 0.2200
f 436/4 435/4 434/4 433/4
v -0.1600 0.1550 0.2200
v -0.1600 0.2450 0.2200
v -0.1600 0.2450 0.4100
v -0.1600 0.1550 0.4100
f 440/4 439/4 438/4 437/4
v -0.1300 0.1550 0.2200
v -0.1600 0.1550 0.2200
v -0.1600 0.1550 0.4100
v -0.1300 0.1550 0.4100
f 444/4 443/4 442/4 441/4
v -0.1300 0.2450 0.4100
v -0.1600 0.2450 0.4100
v -0.1600 0.2450 0.2200
v -0.1300 0.2450 0.2200
f 448/4 447/4 446/4 445/4
v -0.1300 0.2450 0.2200
v -0.1600 0.2450 0.2200
v -0.1600 0.1550 0.2200
v -0.1300 0.1550 0.2200
f 452/4 451/4 450/4 449/4
v -0.1300 0.1550 0.4100
v -0.1600 0.1550 0.4100
v -0.1600 0.2450 0.4100
v -0.1300 0.2450 0.4100
f 456/4 455/4 454/4 453/4
v 0.0695 0.1810 0.2705
v 0.0695 0.1910 0.2705
v -0.0141 0.1910 0.3541
v -0.0141 0.1810 0.3541
f 460/17 459/17 458/17 457/17
v 0.0141 0.1810 0.3823
v 0.0141 0.1910 0.3823
v 0.0977 0.1910 0.2987
v 0.0977 0.1810 0.2987
f 464/17 463/17 462/17 461/17
v -0.0141 0.1810 0.3541
v 0.0141 0.1810 0.3823
v 0.0977 0.1810 0.2987
v 0.0695 0.1810 0.2705
f 468/17 467/17 466/17 465/17
v 0.0695 0.1910 0.2705
v 0.0977 0.1910 0.2987
v 0.0141 0.1910 0.3823
v -0.0141 0.1910 0.3541
f 472/17 471/17 470/17 469/17
v -0.0141 0.1910 0.3541
v 0.0141 0.1910 0.3823
v 0.0141 0.1810 0.3823
v -0.0141 0.1810 0.3541
f 476/17 475/17 474/17 473/17
v 0.0695 0.1810 0.2705
v 0.0977 0.1810 0.2987
v 0.0977 0.1910 0.2987
v 0.0695 0.1910 0.2705
f 480/17 479/17 478/17 477/17
v -0.0977 0.1810 0.2987
v -0.0977 0.1910 0.2987
v -0.0141 0.1910 0.3823
v -0.0141 0.1810 0.3823
f 484/17 483/17 482/17 481/17
v 0.0141 0.1810 0.3541
v 0.0141 0.1910 0.3541
v -0.0695 0.1910 0.2705
v -0.0695 0.1810 0.2705
f 488/17 487/17 486/17 485/17
v -0.0141 0.1810 0.3823
v 0.0141 0.1810 0.3541
v -0.0695 0.1810 0.2705
v -0.0977 0.1810 0.2987
f 492/17 491/17 490/17 489/17
v -0.0977 0.1910 0.2987
v -0.0695 0.1910 0.2705
v 0.0141 0.1910 0.3541
v -0.0141 0.1910 0.3823
f 496/17 495/17 494/17 493/17
v -0.0141 0.1910 0.3823
v 0.0141 0.1910 0.3541
v 0.0141 0.1810 0.3541
v -0.0141 0.1810 0.3823
f 500/17 499/17 498/17 497/17
v -0.0977 0.1810 0.2987
v -0.0695 0.1810 0.2705
v -0.0695 0.1910 0.2705
v -0.0977 0.1910 0.2987
f 504/17 503/17 502/17 501/17
v -0.1148 0.2000 0.2772
v -0.2772 0.2000 0.1148
v -0.2772 0.2500 0.1148
v -0.1148 0.2500 0.2772
f 508/4 507/4 506/4 505/4
v -0.2772 0.2000 0.1148
v -0.2772 0.2000 -0.1148
v -0.2772 0.2500 -0.1148
v -0.2772 0.2500 0.1148
f 512/4 511/4 510/4 509/4
v -0.2772 0.2000 -0.1148
v -0.1148 0.2000 -0.2772
v -0.1148 0.2500 -0.2772
v -0.2772 0.2500 -0.1148
f 516/4 515/4 514/4 513/4
v -0.1148 0.2000 -0.2772
v 0.1148 0.2000 -0.2772
v 0.1148 0.2500 -0.2772
v -0.1148 0.2500 -0.2772
f 520/4 519/4 518/4 517/4
v 0.1148 0.2000 -0.2772
v 0.2772 0.2000 -0.1148
v 0.2772 0.2500 -0.1148
v 0.1148 0.2500 -0.2772
f 524/4 523/4 522/4 521/4
v 0.2772 0.2000 -0.1148
v 0.2772 0.2000 0.1148
v 0.2772 0.2500 0.1148
v 0.2772 0.2500 -0.1148
f 528/4 527/4 526/4 525/4
v 0.2772 0.2000 0.1148
v 0.1148 0.2000 0.2772
v 0.1148 0.2500 0.2772
v 0.2772 0.2500 0.1148
f 532/4 531/4 530/4 529/4
v 0.1148 0.2000 0.2772
v -0.1148 0.2000 0.2772
v -0.1148 0.2500 0.2772
v 0.1148 0.2500 0.2772
f 536/4 535/4 534/4 533/4
v 0.1148 0.2000 0.2772
v 0.2772 0.2000 0.1148
v 0.2772 0.2000 -0.1148
v 0.1148 0.2000 -0.2772
v -0.1148 0.2000 -0.2772
v -0.2772 0.2000 -0.1148
v -0.2772 0.2000 0.1148
v -0.1148 0.2000 0.2772
f 544/4 543/4 542/4 541/4 540/4 539/4 538/4 537/4
v -0.1148 0.2500 0.2772
v -0.2772 0.2500 0.1148
v -0.2772 0.2500 -0.1148
v -0.1148 0.2500 -0.2772
v 0.1148 0.2500 -0.2772
v 0.2772 0.2500 -0.1148
v 0.2772 0.2500 0.1148
v 0.1148 0.2500 0.2772
f 552/4 551/4 550/4 549/4 548/4 547/4 546/4 545/4
v 0.2300 0.4100 0.0900
v 0.2300 0.5900 0.0900
v 0.2300 0.5900 -0.0900
v 0.2300 0.4100 -0.0900
f 556/6 555/6 554/6 553/6
v 0.1700 0.4100 -0.0900
v 0.1700 0.5900 -0.0900
v 0.1700 0.5900 0.0900
v 0.1700 0.4100 0.0900
f 560/6 559/6 558/6 557/6
v 0.2300 0.4100 -0.0900
v 0.1700 0.4100 -0.0900
v 0.1700 0.4100 0.0900
v 0.2300 0.4100 0.0900
f 564/6 563/6 562/6 561/6
v 0.2300 0.5900 0.0900
v 0.1700 0.5900 0.0900
v 0.1700 0.5900 -0.0900
v 0.2300 0.5900 -0.0900
f 568/6 567/6 566/6 565/6
v 0.2300 0.5900 -0.0900
v 0.1700 0.5900 -0.0900
v 0.1700 0.4100 -0.0900
v 0.2300 0.4100 -0.0900
f 572/6 571/6 570/6 569/6
v 0.2300 0.4100 0.0900
v 0.1700 0.4100 0.0900
v 0.1700 0.5900 0.0900
v 0.2300 0.5900 0.0900
f 576/6 575/6 574/6 573/6
v 0.1100 0.8200 0.1100
v 0.1100 0.9400 0.1100
v 0.1100 0.9400 -0.1100
v 0.1100 0.8200 -0.1100
f 580/3 579/3 578/3 577/3
v -0.1100 0.8200 -0.1100
v -0.1100 0.9400 -0.1100
v -0.1100 0.9400 0.1100
v -0.1100 0.8200 0.1100
f 584/3 583/3 582/3 581/3
v 0.1100 0.8200 -0.1100
v -0.1100 0.8200 -0.1100
v -0.1100 0.8200 0.1100
v 0.1100 0.8200 0.1100
f 588/3 587/3 586/3 585/3
v 0.1100 0.9400 0.1100
v -0.1100 0.9400 0.1100
v -0.1100 0.9400 -0.1100
v 0.1100 0.9400 -0.1100
f 592/3 591/3 590/3 589/3
v 0.1100 0.9400 -0.1100
v -0.1100 0.9400 -0.1100
v -0.1100 0.8200 -0.1100
v 0.1100 0.8200 -0.1100
f 596/3 595/3 594/3 593/3
v 0.1100 0.8200 0.1100
v -0.1100 0.8200 0.1100
v -0.1100 0.9400 0.1100
v 0.1100 0.9400 0.1100
f 600/3 599/3 598/3 597/3
v 0.1700 0.3600 0.1780
v 0.1700 0.4000 0.1780
v 0.1700 0.4000 0.1660
v 0.1700 0.3600 0.1660
f 604/8 603/8 602/8 601/8
v 0.0850 0.3600 0.1660
v 0.0850 0.4000 0.1660
v 0.0850 0.4000 0.1780
v 0.0850 0.3600 0.1780
f 608/8 607/8 606/8 605/8
v 0.1700 0.3600 0.1660
v 0.0850 0.3600 0.1660
v 0.0850 0.3600 0.1780
v 0.1700 0.3600 0.1780
f 612/8 611/8 610/8 609/8
v 0.1700 0.4000 0.1780
v 0.0850 0.4000 0.1780
v 0.0850 0.4000 0.1660
v 0.1700 0.4000 0.1660
f 616/8 615/8 614/8 613/8
v 0.1700 0.4000 0.1660
v 0.0850 0.4000 0.1660
v 0.0850 0.3600 0.1660
v 0.1700 0.3600 0.1660
f 620/8 619/8 618/8 617/8
v 0.1700 0.3600 0.1780
v 0.0850 0.3600 0.1780
v 0.0850 0.4000 0.1780
v 0.1700 0.4000 0.1780
f 624/8 623/8 622/8 621/8
v 0.0850 0.3600 0.1780
v 0.0850 0.4000 0.1780
v 0.0850 0.4000 0.1660
v 0.0850 0.3600 0.1660
f 628/6 627/6 626/6 625/6
v 0.0000 0.3600 0.1660
v 0.0000 0.4000 0.1660
v 0.0000 0.4000 0.1780
v 0.0000 0.3600 0.1780
f 632/6 631/6 630/6 629/6
v 0.0850 0.3600 0.1660
v 0.0000 0.3600 0.1660
v 0.0000 0.3600 0.1780
v 0.0850 0.3600 0.1780
f 636/6 635/6 634/6 633/6
v 0.0850 0.4000 0.1780
v 0.0000 0.4000 0.1780
v 0.0000 0.4000 0.1660
v 0.0850 0.4000 0.1660
f 640/6 639/6 638/6 637/6
v 0.0850 0.4000 0.1660
v 0.0000 0.4000 0.1660
v 0.0000 0.3600 0.1660
v 0.0850 0.3600 0.1660
f 644/6 643/6 642/6 641/6
v 0.0850 0.3600 0.1780
v 0.0000 0.3600 0.1780
v 0.0000 0.4000 0.1780
v 0.0850 0.4000 0.1780
f 648/6 647/6 646/6 645/6
v -0.0000 0.3600 0.1780
v -0.0000 0.4000 0.1780
v -0.0000 0.4000 0.1660
v -0.0000 0.3600 0.1660
f 652/8 651/8 650/8 649/8
v -0.0850 0.3600 0.1660
v -0.0850 0.4000 0.1660
v -0.0850 0.4000 0.1780
v -0.0850 0.3600 0.1780
f 656/8 655/8 654/8 653/8
v -0.0000 0.3600 0.1660
v -0.0850 0.3600 0.1660
v -0.0850 0.3600 0.1780
v -0.0000 0.3600 0.1780
f 660/8 659/8 658/8 657/8
v -0.0000 0.4000 0.1780
v -0.0850 0.4000 0.1780
v -0.0850 0.4000 0.1660
v -0.0000 0.4000 0.1660
f 664/8 663/8 662/8 661/8
v -0.0000 0.4000 0.1660
v -0.0850 0.4000 0.1660
v -0.0850 0.3600 0.1660
v -0.0000 0.3600 0.1660
f 668/8 667/8 666/8 665/8
v -0.0000 0.3600 0.1780
v -0.0850 0.3600 0.1780
v -0.0850 0.4000 0.1780
v -0.0000 0.4000 0.1780
f 672/8 671/8 670/8 669/8
v -0.0850 0.3600 0.1780
v -0.0850 0.4000 0.1780
v -0.0850 0.4000 0.1660
v -0.0850 0.3600 0.1660
f 676/6 675/6 674/6 673/6
v -0.1700 0.3600 0.1660
v -0.1700 0.4000 0.1660
v -0.1700 0.4000 0.1780
v -0.1700 0.3600 0.1780
f 680/6 679/6 678/6 677/6
v -0.0850 0.3600 0.1660
v -0.1700 0.3600 0.1660
v -0.1700 0.3600 0.1780
v -0.0850 0.3600 0.1780
f 684/6 683/6 682/6 681/6
v -0.0850 0.4000 0.1780
v -0.1700 0.4000 0.1780
v -0.1700 0.4000 0.1660
v -0.0850 0.4000 0.1660
f 688/6 687/6 686/6 685/6
v -0.0850 0.4000 0.1660
v -0.1700 0.4000 0.1660
v -0.1700 0.3600 0.1660
v -0.0850 0.3600 0.1660
f 692/6 691/6 690/6 689/6
v -0.0850 0.3600 0.1780
v -0.1700 0.3600 0.1780
v -0.1700 0.4000 0.1780
v -0.0850 0.4000 0.1780
f 696/6 695/6 694/6 693/6
v -0.1275 1.2700 0.1330
v -0.1350 1.2700 0.1200
v -0.1350 1.5300 0.1200
v -0.1275 1.5300 0.1330
f 700/7 699/7 698/7 697/7
v -0.1350 1.2700 0.1200
v -0.1275 1.2700 0.1070
v -0.1275 1.5300 0.1070
v -0.1350 1.5300 0.1200
f 704/7 703/7 702/7 701/7
v -0.1275 1.2700 0.1070
v -0.1125 1.2700 0.1070
v -0.1125 1.5300 0.1070
v -0.1275 1.5300 0.1070
f 708/7 707/7 706/7 705/7
v -0.1125 1.2700 0.1070
v -0.1050 1.2700 0.1200
v -0.1050 1.5300 0.1200
v -0.1125 1.5300 0.1070
f 712/7 711/7 710/7 709/7
v -0.1050 1.2700 0.1200
v -0.1125 1.2700 0.1330
v -0.1125 1.5300 0.1330
v -0.1050 1.5300 0.1200
f 716/7 715/7 714/7 713/7
v -0.1125 1.2700 0.1330
v -0.1275 1.2700 0.1330
v -0.1275 1.5300 0.1330
v -0.1125 1.5300 0.1330
f 720/7 719/7 718/7 717/7
v -0.1125 1.2700 0.1330
v -0.1050 1.2700 0.1200
v -0.1125 1.2700 0.1070
v -0.1275 1.2700 0.1070
v -0.1350 1.2700 0.1200
v -0.1275 1.2700 0.1330
f 726/7 725/7 724/7 723/7 722/7 721/7
v -0.1275 1.5300 0.1330
v -0.1350 1.5300 0.1200
v -0.1275 1.5300 0.1070
v -0.1125 1.5300 0.1070
v -0.1050 1.5300 0.1200
v -0.1125 1.5300 0.1330
f 732/7 731/7 730/7 729/7 728/7 727/7
v 0.0300 1.2700 0.0300
v 0.0300 1.3300 0.0300
v 0.0300 1.3300 -0.0300
v 0.0300 1.2700 -0.0300
f 736/16 735/16 734/16 733/16
v -0.0300 1.2700 -0.0300
v -0.0300 1.3300 -0.0300
v -0.0300 1.3300 0.0300
v -0.0300 1.2700 0.0300
f 740/16 739/16 738/16 737/16
v 0.0300 1.2700 -0.0300
v -0.0300 1.2700 -0.0300
v -0.0300 1.2700 0.0300
v 0.0300 1.2700 0.0300
f 744/16 743/16 742/16 741/16
v 0.0300 1.3300 0.0300
v -0.0300 1.3300 0.0300
v -0.0300 1.3300 -0.0300
v 0.0300 1.3300 -0.0300
f 748/16 747/16 746/16 745/16
v 0.0300 1.3300 -0.0300
v -0.0300 1.3300 -0.0300
v -0.0300 1.2700 -0.0300
v 0.0300 1.2700 -0.0300
f 752/16 751/16 750/16 749/16
v 0.0300 1.2700 0.0300
v -0.0300 1.2700 0.0300
v -0.0300 1.3300 0.0300
v 0.0300 1.3300 0.0300
f 756/16 755/16 754/16 753/16
v -0.0975 1.5275 0.1425
v -0.0975 1.5725 0.1425
v -0.0975 1.5725 0.0975
v -0.0975 1.5275 0.0975
f 760/16 759/16 758/16 757/16
v -0.1425 1.5275 0.0975
v -0.1425 1.5725 0.0975
v -0.1425 1.5725 0.1425
v -0.1425 1.5275 0.1425
f 764/16 763/16 762/16 761/16
v -0.0975 1.5275 0.0975
v -0.1425 1.5275 0.0975
v -0.1425 1.5275 0.1425
v -0.0975 1.5275 0.1425
f 768/16 767/16 766/16 765/16
v -0.0975 1.5725 0.1425
v -0.1425 1.5725 0.1425
v -0.1425 1.5725 0.0975
v -0.0975 1.5725 0.0975
f 772/16 771/16 770/16 769/16
v -0.0975 1.5725 0.0975
v -0.1425 1.5725 0.0975
v -0.1425 1.5275 0.0975
v -0.0975 1.5275 0.0975
f 776/16 775/16 774/16 773/16
v -0.0975 1.5275 0.1425
v -0.1425 1.5275 0.1425
v -0.1425 1.5725 0.1425
v -0.0975 1.5725 0.1425
f 780/16 779/16 778/16 777/16
