# Walk of Industry low-poly (generated, wi_lib.py)
mtllib wi.mtl
vt 0 0
vt 0.03125 0.03125
vt 0.09375 0.03125
vt 0.15625 0.03125
vt 0.21875 0.03125
vt 0.28125 0.03125
vt 0.34375 0.03125
vt 0.40625 0.03125
vt 0.46875 0.03125
vt 0.53125 0.03125
vt 0.59375 0.03125
vt 0.65625 0.03125
vt 0.71875 0.03125
vt 0.78125 0.03125
vt 0.84375 0.03125
vt 0.90625 0.03125
vt 0.96875 0.03125
vt 0.03125 0.09375
vt 0.09375 0.09375
vt 0.15625 0.09375
vt 0.21875 0.09375
vt 0.28125 0.09375
vt 0.34375 0.09375
vt 0.40625 0.09375
vt 0.46875 0.09375
vt 0.53125 0.09375
vt 0.59375 0.09375
vt 0.65625 0.09375
vt 0.71875 0.09375
vt 0.78125 0.09375
vt 0.84375 0.09375
vt 0.90625 0.09375
vt 0.96875 0.09375
o Body
usemtl wi_palette
v 0.4800 0.0000 0.4800
v 0.4800 0.0800 0.4800
v 0.4800 0.0800 -0.4800
v 0.4800 0.0000 -0.4800
f 4/5 3/5 2/5 1/5
v -0.4800 0.0000 -0.4800
v -0.4800 0.0800 -0.4800
v -0.4800 0.0800 0.4800
v -0.4800 0.0000 0.4800
f 8/5 7/5 6/5 5/5
v 0.4800 0.0000 -0.4800
v -0.4800 0.0000 -0.4800
v -0.4800 0.0000 0.4800
v 0.4800 0.0000 0.4800
f 12/5 11/5 10/5 9/5
v 0.4800 0.0800 0.4800
v -0.4800 0.0800 0.4800
v -0.4800 0.0800 -0.4800
v 0.4800 0.0800 -0.4800
f 16/5 15/5 14/5 13/5
v 0.4800 0.0800 -0.4800
v -0.4800 0.0800 -0.4800
v -0.4800 0.0000 -0.4800
v 0.4800 0.0000 -0.4800
f 20/5 19/5 18/5 17/5
v 0.4800 0.0000 0.4800
v -0.4800 0.0000 0.4800
v -0.4800 0.0800 0.4800
v 0.4800 0.0800 0.4800
f 24/5 23/5 22/5 21/5
v -0.1035 0.0800 0.3864
v -0.2828 0.0800 0.2828
v -0.2828 1.0300 0.2828
v -0.1035 1.0300 0.3864
f 28/7 27/7 26/7 25/7
v -0.2828 0.0800 0.2828
v -0.3864 0.0800 0.1035
v -0.3864 1.0300 0.1035
v -0.2828 1.0300 0.2828
f 32/7 31/7 30/7 29/7
v -0.3864 0.0800 0.1035
v -0.3864 0.0800 -0.1035
v -0.3864 1.0300 -0.1035
v -0.3864 1.0300 0.1035
f 36/7 35/7 34/7 33/7
v -0.3864 0.0800 -0.1035
v -0.2828 0.0800 -0.2828
v -0.2828 1.0300 -0.2828
v -0.3864 1.0300 -0.1035
f 40/7 39/7 38/7 37/7
v -0.2828 0.0800 -0.2828
v -0.1035 0.0800 -0.3864
v -0.1035 1.0300 -0.3864
v -0.2828 1.0300 -0.2828
f 44/7 43/7 42/7 41/7
v -0.1035 0.0800 -0.3864
v 0.1035 0.0800 -0.3864
v 0.1035 1.0300 -0.3864
v -0.1035 1.0300 -0.3864
f 48/7 47/7 46/7 45/7
v 0.1035 0.0800 -0.3864
v 0.2828 0.0800 -0.2828
v 0.2828 1.0300 -0.2828
v 0.1035 1.0300 -0.3864
f 52/7 51/7 50/7 49/7
v 0.2828 0.0800 -0.2828
v 0.3864 0.0800 -0.1035
v 0.3864 1.0300 -0.1035
v 0.2828 1.0300 -0.2828
f 56/7 55/7 54/7 53/7
v 0.3864 0.0800 -0.1035
v 0.3864 0.0800 0.1035
v 0.3864 1.0300 0.1035
v 0.3864 1.0300 -0.1035
f 60/7 59/7 58/7 57/7
v 0.3864 0.0800 0.1035
v 0.2828 0.0800 0.2828
v 0.2828 1.0300 0.2828
v 0.3864 1.0300 0.1035
f 64/7 63/7 62/7 61/7
v 0.2828 0.0800 0.2828
v 0.1035 0.0800 0.3864
v 0.1035 1.0300 0.3864
v 0.2828 1.0300 0.2828
f 68/7 67/7 66/7 65/7
v 0.1035 0.0800 0.3864
v -0.1035 0.0800 0.3864
v -0.1035 1.0300 0.3864
v 0.1035 1.0300 0.3864
f 72/7 71/7 70/7 69/7
v 0.1035 0.0800 0.3864
v 0.2828 0.0800 0.2828
v 0.3864 0.0800 0.1035
v 0.3864 0.0800 -0.1035
v 0.2828 0.0800 -0.2828
v 0.1035 0.0800 -0.3864
v -0.1035 0.0800 -0.3864
v -0.2828 0.0800 -0.2828
v -0.3864 0.0800 -0.1035
v -0.3864 0.0800 0.1035
v -0.2828 0.0800 0.2828
v -0.1035 0.0800 0.3864
f 84/7 83/7 82/7 81/7 80/7 79/7 78/7 77/7 76/7 75/7 74/7 73/7
v -0.1035 1.0300 0.3864
v -0.2828 1.0300 0.2828
v -0.3864 1.0300 0.1035
v -0.3864 1.0300 -0.1035
v -0.2828 1.0300 -0.2828
v -0.1035 1.0300 -0.3864
v 0.1035 1.0300 -0.3864
v 0.2828 1.0300 -0.2828
v 0.3864 1.0300 -0.1035
v 0.3864 1.0300 0.1035
v 0.2828 1.0300 0.2828
v 0.1035 1.0300 0.3864
f 96/7 95/7 94/7 93/7 92/7 91/7 90/7 89/7 88/7 87/7 86/7 85/7
v -0.1061 1.0300 0.3960
v -0.2899 1.0300 0.2899
v -0.1273 1.1900 0.1273
v -0.0466 1.1900 0.1739
f 100/7 99/7 98/7 97/7
v -0.2899 1.0300 0.2899
v -0.3960 1.0300 0.1061
v -0.1739 1.1900 0.0466
v -0.1273 1.1900 0.1273
f 104/7 103/7 102/7 101/7
v -0.3960 1.0300 0.1061
v -0.3960 1.0300 -0.1061
v -0.1739 1.1900 -0.0466
v -0.1739 1.1900 0.0466
f 108/7 107/7 106/7 105/7
v -0.3960 1.0300 -0.1061
v -0.2899 1.0300 -0.2899
v -0.1273 1.1900 -0.1273
v -0.1739 1.1900 -0.0466
f 112/7 111/7 110/7 109/7
v -0.2899 1.0300 -0.2899
v -0.1061 1.0300 -0.3960
v -0.0466 1.1900 -0.1739
v -0.1273 1.1900 -0.1273
f 116/7 115/7 114/7 113/7
v -0.1061 1.0300 -0.3960
v 0.1061 1.0300 -0.3960
v 0.0466 1.1900 -0.1739
v -0.0466 1.1900 -0.1739
f 120/7 119/7 118/7 117/7
v 0.1061 1.0300 -0.3960
v 0.2899 1.0300 -0.2899
v 0.1273 1.1900 -0.1273
v 0.0466 1.1900 -0.1739
f 124/7 123/7 122/7 121/7
v 0.2899 1.0300 -0.2899
v 0.3960 1.0300 -0.1061
v 0.1739 1.1900 -0.0466
v 0.1273 1.1900 -0.1273
f 128/7 127/7 126/7 125/7
v 0.3960 1.0300 -0.1061
v 0.3960 1.0300 0.1061
v 0.1739 1.1900 0.0466
v 0.1739 1.1900 -0.0466
f 132/7 131/7 130/7 129/7
v 0.3960 1.0300 0.1061
v 0.2899 1.0300 0.2899
v 0.1273 1.1900 0.1273
v 0.1739 1.1900 0.0466
f 136/7 135/7 134/7 133/7
v 0.2899 1.0300 0.2899
v 0.1061 1.0300 0.3960
v 0.0466 1.1900 0.1739
v 0.1273 1.1900 0.1273
f 140/7 139/7 138/7 137/7
v 0.1061 1.0300 0.3960
v -0.1061 1.0300 0.3960
v -0.0466 1.1900 0.1739
v 0.0466 1.1900 0.1739
f 144/7 143/7 142/7 141/7
v 0.1061 1.0300 0.3960
v 0.2899 1.0300 0.2899
v 0.3960 1.0300 0.1061
v 0.3960 1.0300 -0.1061
v 0.2899 1.0300 -0.2899
v 0.1061 1.0300 -0.3960
v -0.1061 1.0300 -0.3960
v -0.2899 1.0300 -0.2899
v -0.3960 1.0300 -0.1061
v -0.3960 1.0300 0.1061
v -0.2899 1.0300 0.2899
v -0.1061 1.0300 0.3960
f 156/7 155/7 154/7 153/7 152/7 151/7 150/7 149/7 148/7 147/7 146/7 145/7
v -0.0466 1.1900 0.1739
v -0.1273 1.1900 0.1273
v -0.1739 1.1900 0.0466
v -0.1739 1.1900 -0.0466
v -0.1273 1.1900 -0.1273
v -0.0466 1.1900 -0.1739
v 0.0466 1.1900 -0.1739
v 0.1273 1.1900 -0.1273
v 0.1739 1.1900 -0.0466
v 0.1739 1.1900 0.0466
v 0.1273 1.1900 0.1273
v 0.0466 1.1900 0.1739
f 168/7 167/7 166/7 165/7 164/7 163/7 162/7 161/7 160/7 159/7 158/7 157/7
v -0.1074 0.2800 0.4009
v -0.2934 0.2800 0.2934
v -0.2934 0.3200 0.2934
v -0.1074 0.3200 0.4009
f 172/4 171/4 170/4 169/4
v -0.2934 0.2800 0.2934
v -0.4009 0.2800 0.1074
v -0.4009 0.3200 0.1074
v -0.2934 0.3200 0.2934
f 176/4 175/4 174/4 173/4
v -0.4009 0.2800 0.1074
v -0.4009 0.2800 -0.1074
v -0.4009 0.3200 -0.1074
v -0.4009 0.3200 0.1074
f 180/4 179/4 178/4 177/4
v -0.4009 0.2800 -0.1074
v -0.2934 0.2800 -0.2934
v -0.2934 0.3200 -0.2934
v -0.4009 0.3200 -0.1074
f 184/4 183/4 182/4 181/4
v -0.2934 0.2800 -0.2934
v -0.1074 0.2800 -0.4009
v -0.1074 0.3200 -0.4009
v -0.2934 0.3200 -0.2934
f 188/4 187/4 186/4 185/4
v -0.1074 0.2800 -0.4009
v 0.1074 0.2800 -0.4009
v 0.1074 0.3200 -0.4009
v -0.1074 0.3200 -0.4009
f 192/4 191/4 190/4 189/4
v 0.1074 0.2800 -0.4009
v 0.2934 0.2800 -0.2934
v 0.2934 0.3200 -0.2934
v 0.1074 0.3200 -0.4009
f 196/4 195/4 194/4 193/4
v 0.2934 0.2800 -0.2934
v 0.4009 0.2800 -0.1074
v 0.4009 0.3200 -0.1074
v 0.2934 0.3200 -0.2934
f 200/4 199/4 198/4 197/4
v 0.4009 0.2800 -0.1074
v 0.4009 0.2800 0.1074
v 0.4009 0.3200 0.1074
v 0.4009 0.3200 -0.1074
f 204/4 203/4 202/4 201/4
v 0.4009 0.2800 0.1074
v 0.2934 0.2800 0.2934
v 0.2934 0.3200 0.2934
v 0.4009 0.3200 0.1074
f 208/4 207/4 206/4 205/4
v 0.2934 0.2800 0.2934
v 0.1074 0.2800 0.4009
v 0.1074 0.3200 0.4009
v 0.2934 0.3200 0.2934
f 212/4 211/4 210/4 209/4
v 0.1074 0.2800 0.4009
v -0.1074 0.2800 0.4009
v -0.1074 0.3200 0.4009
v 0.1074 0.3200 0.4009
f 216/4 215/4 214/4 213/4
v 0.1074 0.2800 0.4009
v 0.2934 0.2800 0.2934
v 0.4009 0.2800 0.1074
v 0.4009 0.2800 -0.1074
v 0.2934 0.2800 -0.2934
v 0.1074 0.2800 -0.4009
v -0.1074 0.2800 -0.4009
v -0.2934 0.2800 -0.2934
v -0.4009 0.2800 -0.1074
v -0.4009 0.2800 0.1074
v -0.2934 0.2800 0.2934
v -0.1074 0.2800 0.4009
f 228/4 227/4 226/4 225/4 224/4 223/4 222/4 221/4 220/4 219/4 218/4 217/4
v -0.1074 0.3200 0.4009
v -0.2934 0.3200 0.2934
v -0.4009 0.3200 0.1074
v -0.4009 0.3200 -0.1074
v -0.2934 0.3200 -0.2934
v -0.1074 0.3200 -0.4009
v 0.1074 0.3200 -0.4009
v 0.2934 0.3200 -0.2934
v 0.4009 0.3200 -0.1074
v 0.4009 0.3200 0.1074
v 0.2934 0.3200 0.2934
v 0.1074 0.3200 0.4009
f 240/4 239/4 238/4 237/4 236/4 235/4 234/4 233/4 232/4 231/4 230/4 229/4
v -0.1074 0.5800 0.4009
v -0.2934 0.5800 0.2934
v -0.2934 0.6200 0.2934
v -0.1074 0.6200 0.4009
f 244/4 243/4 242/4 241/4
v -0.2934 0.5800 0.2934
v -0.4009 0.5800 0.1074
v -0.4009 0.6200 0.1074
v -0.2934 0.6200 0.2934
f 248/4 247/4 246/4 245/4
v -0.4009 0.5800 0.1074
v -0.4009 0.5800 -0.1074
v -0.4009 0.6200 -0.1074
v -0.4009 0.6200 0.1074
f 252/4 251/4 250/4 249/4
v -0.4009 0.5800 -0.1074
v -0.2934 0.5800 -0.2934
v -0.2934 0.6200 -0.2934
v -0.4009 0.6200 -0.1074
f 256/4 255/4 254/4 253/4
v -0.2934 0.5800 -0.2934
v -0.1074 0.5800 -0.4009
v -0.1074 0.6200 -0.4009
v -0.2934 0.6200 -0.2934
f 260/4 259/4 258/4 257/4
v -0.1074 0.5800 -0.4009
v 0.1074 0.5800 -0.4009
v 0.1074 0.6200 -0.4009
v -0.1074 0.6200 -0.4009
f 264/4 263/4 262/4 261/4
v 0.1074 0.5800 -0.4009
v 0.2934 0.5800 -0.2934
v 0.2934 0.6200 -0.2934
v 0.1074 0.6200 -0.4009
f 268/4 267/4 266/4 265/4
v 0.2934 0.5800 -0.2934
v 0.4009 0.5800 -0.1074
v 0.4009 0.6200 -0.1074
v 0.2934 0.6200 -0.2934
f 272/4 271/4 270/4 269/4
v 0.4009 0.5800 -0.1074
v 0.4009 0.5800 0.1074
v 0.4009 0.6200 0.1074
v 0.4009 0.6200 -0.1074
f 276/4 275/4 274/4 273/4
v 0.4009 0.5800 0.1074
v 0.2934 0.5800 0.2934
v 0.2934 0.6200 0.2934
v 0.4009 0.6200 0.1074
f 280/4 279/4 278/4 277/4
v 0.2934 0.5800 0.2934
v 0.1074 0.5800 0.4009
v 0.1074 0.6200 0.4009
v 0.2934 0.6200 0.2934
f 284/4 283/4 282/4 281/4
v 0.1074 0.5800 0.4009
v -0.1074 0.5800 0.4009
v -0.1074 0.6200 0.4009
v 0.1074 0.6200 0.4009
f 288/4 287/4 286/4 285/4
v 0.1074 0.5800 0.4009
v 0.2934 0.5800 0.2934
v 0.4009 0.5800 0.1074
v 0.4009 0.5800 -0.1074
v 0.2934 0.5800 -0.2934
v 0.1074 0.5800 -0.4009
v -0.1074 0.5800 -0.4009
v -0.2934 0.5800 -0.2934
v -0.4009 0.5800 -0.1074
v -0.4009 0.5800 0.1074
v -0.2934 0.5800 0.2934
v -0.1074 0.5800 0.4009
f 300/4 299/4 298/4 297/4 296/4 295/4 294/4 293/4 292/4 291/4 290/4 289/4
v -0.1074 0.6200 0.4009
v -0.2934 0.6200 0.2934
v -0.4009 0.6200 0.1074
v -0.4009 0.6200 -0.1074
v -0.2934 0.6200 -0.2934
v -0.1074 0.6200 -0.4009
v 0.1074 0.6200 -0.4009
v 0.2934 0.6200 -0.2934
v 0.4009 0.6200 -0.1074
v 0.4009 0.6200 0.1074
v 0.2934 0.6200 0.2934
v 0.1074 0.6200 0.4009
f 312/4 311/4 310/4 309/4 308/4 307/4 306/4 305/4 304/4 303/4 302/4 301/4
v -0.1074 0.8800 0.4009
v -0.2934 0.8800 0.2934
v -0.2934 0.9200 0.2934
v -0.1074 0.9200 0.4009
f 316/4 315/4 314/4 313/4
v -0.2934 0.8800 0.2934
v -0.4009 0.8800 0.1074
v -0.4009 0.9200 0.1074
v -0.2934 0.9200 0.2934
f 320/4 319/4 318/4 317/4
v -0.4009 0.8800 0.1074
v -0.4009 0.8800 -0.1074
v -0.4009 0.9200 -0.1074
v -0.4009 0.9200 0.1074
f 324/4 323/4 322/4 321/4
v -0.4009 0.8800 -0.1074
v -0.2934 0.8800 -0.2934
v -0.2934 0.9200 -0.2934
v -0.4009 0.9200 -0.1074
f 328/4 327/4 326/4 325/4
v -0.2934 0.8800 -0.2934
v -0.1074 0.8800 -0.4009
v -0.1074 0.9200 -0.4009
v -0.2934 0.9200 -0.2934
f 332/4 331/4 330/4 329/4
v -0.1074 0.8800 -0.4009
v 0.1074 0.8800 -0.4009
v 0.1074 0.9200 -0.4009
v -0.1074 0.9200 -0.4009
f 336/4 335/4 334/4 333/4
v 0.1074 0.8800 -0.4009
v 0.2934 0.8800 -0.2934
v 0.2934 0.9200 -0.2934
v 0.1074 0.9200 -0.4009
f 340/4 339/4 338/4 337/4
v 0.2934 0.8800 -0.2934
v 0.4009 0.8800 -0.1074
v 0.4009 0.9200 -0.1074
v 0.2934 0.9200 -0.2934
f 344/4 343/4 342/4 341/4
v 0.4009 0.8800 -0.1074
v 0.4009 0.8800 0.1074
v 0.4009 0.9200 0.1074
v 0.4009 0.9200 -0.1074
f 348/4 347/4 346/4 345/4
v 0.4009 0.8800 0.1074
v 0.2934 0.8800 0.2934
v 0.2934 0.9200 0.2934
v 0.4009 0.9200 0.1074
f 352/4 351/4 350/4 349/4
v 0.2934 0.8800 0.2934
v 0.1074 0.8800 0.4009
v 0.1074 0.9200 0.4009
v 0.2934 0.9200 0.2934
f 356/4 355/4 354/4 353/4
v 0.1074 0.8800 0.4009
v -0.1074 0.8800 0.4009
v -0.1074 0.9200 0.4009
v 0.1074 0.9200 0.4009
f 360/4 359/4 358/4 357/4
v 0.1074 0.8800 0.4009
v 0.2934 0.8800 0.2934
v 0.4009 0.8800 0.1074
v 0.4009 0.8800 -0.1074
v 0.2934 0.8800 -0.2934
v 0.1074 0.8800 -0.4009
v -0.1074 0.8800 -0.4009
v -0.2934 0.8800 -0.2934
v -0.4009 0.8800 -0.1074
v -0.4009 0.8800 0.1074
v -0.2934 0.8800 0.2934
v -0.1074 0.8800 0.4009
f 372/4 371/4 370/4 369/4 368/4 367/4 366/4 365/4 364/4 363/4 362/4 361/4
v -0.1074 0.9200 0.4009
v -0.2934 0.9200 0.2934
v -0.4009 0.9200 0.1074
v -0.4009 0.9200 -0.1074
v -0.2934 0.9200 -0.2934
v -0.1074 0.9200 -0.4009
v 0.1074 0.9200 -0.4009
v 0.2934 0.9200 -0.2934
v 0.4009 0.9200 -0.1074
v 0.4009 0.9200 0.1074
v 0.2934 0.9200 0.2934
v 0.1074 0.9200 0.4009
f 384/4 383/4 382/4 381/4 380/4 379/4 378/4 377/4 376/4 375/4 374/4 373/4
v -0.3950 0.2800 0.0400
v -0.3950 0.8800 0.0400
v -0.3950 0.8800 -0.0400
v -0.3950 0.2800 -0.0400
f 388/13 387/13 386/13 385/13
v -0.4150 0.2800 -0.0400
v -0.4150 0.8800 -0.0400
v -0.4150 0.8800 0.0400
v -0.4150 0.2800 0.0400
f 392/13 391/13 390/13 389/13
v -0.3950 0.2800 -0.0400
v -0.4150 0.2800 -0.0400
v -0.4150 0.2800 0.0400
v -0.3950 0.2800 0.0400
f 396/13 395/13 394/13 393/13
v -0.3950 0.8800 0.0400
v -0.4150 0.8800 0.0400
v -0.4150 0.8800 -0.0400
v -0.3950 0.8800 -0.0400
f 400/13 399/13 398/13 397/13
v -0.3950 0.8800 -0.0400
v -0.4150 0.8800 -0.0400
v -0.4150 0.2800 -0.0400
v -0.3950 0.2800 -0.0400
f 404/13 403/13 402/13 401/13
v -0.3950 0.2800 0.0400
v -0.4150 0.2800 0.0400
v -0.4150 0.8800 0.0400
v -0.3950 0.8800 0.0400
f 408/13 407/13 406/13 405/13
v -0.0230 1.1800 0.0554
v -0.0554 1.1800 0.0230
v -0.0554 1.2400 0.0230
v -0.0230 1.2400 0.0554
f 412/4 411/4 410/4 409/4
v -0.0554 1.1800 0.0230
v -0.0554 1.1800 -0.0230
v -0.0554 1.2400 -0.0230
v -0.0554 1.2400 0.0230
f 416/4 415/4 414/4 413/4
v -0.0554 1.1800 -0.0230
v -0.0230 1.1800 -0.0554
v -0.0230 1.2400 -0.0554
v -0.0554 1.2400 -0.0230
f 420/4 419/4 418/4 417/4
v -0.0230 1.1800 -0.0554
v 0.0230 1.1800 -0.0554
v 0.0230 1.2400 -0.0554
v -0.0230 1.2400 -0.0554
f 424/4 423/4 422/4 421/4
v 0.0230 1.1800 -0.0554
v 0.0554 1.1800 -0.0230
v 0.0554 1.2400 -0.0230
v 0.0230 1.2400 -0.0554
f 428/4 427/4 426/4 425/4
v 0.0554 1.1800 -0.0230
v 0.0554 1.1800 0.0230
v 0.0554 1.2400 0.0230
v 0.0554 1.2400 -0.0230
f 432/4 431/4 430/4 429/4
v 0.0554 1.1800 0.0230
v 0.0230 1.1800 0.0554
v 0.0230 1.2400 0.0554
v 0.0554 1.2400 0.0230
f 436/4 435/4 434/4 433/4
v 0.0230 1.1800 0.0554
v -0.0230 1.1800 0.0554
v -0.0230 1.2400 0.0554
v 0.0230 1.2400 0.0554
f 440/4 439/4 438/4 437/4
v 0.0230 1.1800 0.0554
v 0.0554 1.1800 0.0230
v 0.0554 1.1800 -0.0230
v 0.0230 1.1800 -0.0554
v -0.0230 1.1800 -0.0554
v -0.0554 1.1800 -0.0230
v -0.0554 1.1800 0.0230
v -0.0230 1.1800 0.0554
f 448/4 447/4 446/4 445/4 444/4 443/4 442/4 441/4
v -0.0230 1.2400 0.0554
v -0.0554 1.2400 0.0230
v -0.0554 1.2400 -0.0230
v -0.0230 1.2400 -0.0554
v 0.0230 1.2400 -0.0554
v 0.0554 1.2400 -0.0230
v 0.0554 1.2400 0.0230
v 0.0230 1.2400 0.0554
f 456/4 455/4 454/4 453/4 452/4 451/4 450/4 449/4
v 0.4250 0.1700 0.0700
v 0.4250 0.1900 0.0700
v 0.4250 0.1900 -0.0700
v 0.4250 0.1700 -0.0700
f 460/8 459/8 458/8 457/8
v 0.4050 0.1700 -0.0700
v 0.4050 0.1900 -0.0700
v 0.4050 0.1900 0.0700
v 0.4050 0.1700 0.0700
f 464/8 463/8 462/8 461/8
v 0.4250 0.1700 -0.0700
v 0.4050 0.1700 -0.0700
v 0.4050 0.1700 0.0700
v 0.4250 0.1700 0.0700
f 468/8 467/8 466/8 465/8
v 0.4250 0.1900 0.0700
v 0.4050 0.1900 0.0700
v 0.4050 0.1900 -0.0700
v 0.4250 0.1900 -0.0700
f 472/8 471/8 470/8 469/8
v 0.4250 0.1900 -0.0700
v 0.4050 0.1900 -0.0700
v 0.4050 0.1700 -0.0700
v 0.4250 0.1700 -0.0700
f 476/8 475/8 474/8 473/8
v 0.4250 0.1700 0.0700
v 0.4050 0.1700 0.0700
v 0.4050 0.1900 0.0700
v 0.4250 0.1900 0.0700
f 480/8 479/8 478/8 477/8
v 0.4250 0.3200 0.0700
v 0.4250 0.3400 0.0700
v 0.4250 0.3400 -0.0700
v 0.4250 0.3200 -0.0700
f 484/8 483/8 482/8 481/8
v 0.4050 0.3200 -0.0700
v 0.4050 0.3400 -0.0700
v 0.4050 0.3400 0.0700
v 0.4050 0.3200 0.0700
f 488/8 487/8 486/8 485/8
v 0.4250 0.3200 -0.0700
v 0.4050 0.3200 -0.0700
v 0.4050 0.3200 0.0700
v 0.4250 0.3200 0.0700
f 492/8 491/8 490/8 489/8
v 0.4250 0.3400 0.0700
v 0.4050 0.3400 0.0700
v 0.4050 0.3400 -0.0700
v 0.4250 0.3400 -0.0700
f 496/8 495/8 494/8 493/8
v 0.4250 0.3400 -0.0700
v 0.4050 0.3400 -0.0700
v 0.4050 0.3200 -0.0700
v 0.4250 0.3200 -0.0700
f 500/8 499/8 498/8 497/8
v 0.4250 0.3200 0.0700
v 0.4050 0.3200 0.0700
v 0.4050 0.3400 0.0700
v 0.4250 0.3400 0.0700
f 504/8 503/8 502/8 501/8
v 0.4250 0.4700 0.0700
v 0.4250 0.4900 0.0700
v 0.4250 0.4900 -0.0700
v 0.4250 0.4700 -0.0700
f 508/8 507/8 506/8 505/8
v 0.4050 0.4700 -0.0700
v 0.4050 0.4900 -0.0700
v 0.4050 0.4900 0.0700
v 0.4050 0.4700 0.0700
f 512/8 511/8 510/8 509/8
v 0.4250 0.4700 -0.0700
v 0.4050 0.4700 -0.0700
v 0.4050 0.4700 0.0700
v 0.4250 0.4700 0.0700
f 516/8 515/8 514/8 513/8
v 0.4250 0.4900 0.0700
v 0.4050 0.4900 0.0700
v 0.4050 0.4900 -0.0700
v 0.4250 0.4900 -0.0700
f 520/8 519/8 518/8 517/8
v 0.4250 0.4900 -0.0700
v 0.4050 0.4900 -0.0700
v 0.4050 0.4700 -0.0700
v 0.4250 0.4700 -0.0700
f 524/8 523/8 522/8 521/8
v 0.4250 0.4700 0.0700
v 0.4050 0.4700 0.0700
v 0.4050 0.4900 0.0700
v 0.4250 0.4900 0.0700
f 528/8 527/8 526/8 525/8
v 0.4250 0.6200 0.0700
v 0.4250 0.6400 0.0700
v 0.4250 0.6400 -0.0700
v 0.4250 0.6200 -0.0700
f 532/8 531/8 530/8 529/8
v 0.4050 0.6200 -0.0700
v 0.4050 0.6400 -0.0700
v 0.4050 0.6400 0.0700
v 0.4050 0.6200 0.0700
f 536/8 535/8 534/8 533/8
v 0.4250 0.6200 -0.0700
v 0.4050 0.6200 -0.0700
v 0.4050 0.6200 0.0700
v 0.4250 0.6200 0.0700
f 540/8 539/8 538/8 537/8
v 0.4250 0.6400 0.0700
v 0.4050 0.6400 0.0700
v 0.4050 0.6400 -0.0700
v 0.4250 0.6400 -0.0700
f 544/8 543/8 542/8 541/8
v 0.4250 0.6400 -0.0700
v 0.4050 0.6400 -0.0700
v 0.4050 0.6200 -0.0700
v 0.4250 0.6200 -0.0700
f 548/8 547/8 546/8 545/8
v 0.4250 0.6200 0.0700
v 0.4050 0.6200 0.0700
v 0.4050 0.6400 0.0700
v 0.4250 0.6400 0.0700
f 552/8 551/8 550/8 549/8
v 0.4250 0.7700 0.0700
v 0.4250 0.7900 0.0700
v 0.4250 0.7900 -0.0700
v 0.4250 0.7700 -0.0700
f 556/8 555/8 554/8 553/8
v 0.4050 0.7700 -0.0700
v 0.4050 0.7900 -0.0700
v 0.4050 0.7900 0.0700
v 0.4050 0.7700 0.0700
f 560/8 559/8 558/8 557/8
v 0.4250 0.7700 -0.0700
v 0.4050 0.7700 -0.0700
v 0.4050 0.7700 0.0700
v 0.4250 0.7700 0.0700
f 564/8 563/8 562/8 561/8
v 0.4250 0.7900 0.0700
v 0.4050 0.7900 0.0700
v 0.4050 0.7900 -0.0700
v 0.4250 0.7900 -0.0700
f 568/8 567/8 566/8 565/8
v 0.4250 0.7900 -0.0700
v 0.4050 0.7900 -0.0700
v 0.4050 0.7700 -0.0700
v 0.4250 0.7700 -0.0700
f 572/8 571/8 570/8 569/8
v 0.4250 0.7700 0.0700
v 0.4050 0.7700 0.0700
v 0.4050 0.7900 0.0700
v 0.4250 0.7900 0.0700
f 576/8 575/8 574/8 573/8
v 0.4250 0.9200 0.0700
v 0.4250 0.9400 0.0700
v 0.4250 0.9400 -0.0700
v 0.4250 0.9200 -0.0700
f 580/8 579/8 578/8 577/8
v 0.4050 0.9200 -0.0700
v 0.4050 0.9400 -0.0700
v 0.4050 0.9400 0.0700
v 0.4050 0.9200 0.0700
f 584/8 583/8 582/8 581/8
v 0.4250 0.9200 -0.0700
v 0.4050 0.9200 -0.0700
v 0.4050 0.9200 0.0700
v 0.4250 0.9200 0.0700
f 588/8 587/8 586/8 585/8
v 0.4250 0.9400 0.0700
v 0.4050 0.9400 0.0700
v 0.4050 0.9400 -0.0700
v 0.4250 0.9400 -0.0700
f 592/8 591/8 590/8 589/8
v 0.4250 0.9400 -0.0700
v 0.4050 0.9400 -0.0700
v 0.4050 0.9200 -0.0700
v 0.4250 0.9200 -0.0700
f 596/8 595/8 594/8 593/8
v 0.4250 0.9200 0.0700
v 0.4050 0.9200 0.0700
v 0.4050 0.9400 0.0700
v 0.4250 0.9400 0.0700
f 600/8 599/8 598/8 597/8
v 0.4250 0.1050 -0.0600
v 0.4250 1.0550 -0.0600
v 0.4250 1.0550 -0.0800
v 0.4250 0.1050 -0.0800
f 604/8 603/8 602/8 601/8
v 0.4050 0.1050 -0.0800
v 0.4050 1.0550 -0.0800
v 0.4050 1.0550 -0.0600
v 0.4050 0.1050 -0.0600
f 608/8 607/8 606/8 605/8
v 0.4250 0.1050 -0.0800
v 0.4050 0.1050 -0.0800
v 0.4050 0.1050 -0.0600
v 0.4250 0.1050 -0.0600
f 612/8 611/8 610/8 609/8
v 0.4250 1.0550 -0.0600
v 0.4050 1.0550 -0.0600
v 0.4050 1.0550 -0.0800
v 0.4250 1.0550 -0.0800
f 616/8 615/8 614/8 613/8
v 0.4250 1.0550 -0.0800
v 0.4050 1.0550 -0.0800
v 0.4050 0.1050 -0.0800
v 0.4250 0.1050 -0.0800
f 620/8 619/8 618/8 617/8
v 0.4250 0.1050 -0.0600
v 0.4050 0.1050 -0.0600
v 0.4050 1.0550 -0.0600
v 0.4250 1.0550 -0.0600
f 624/8 623/8 622/8 621/8
v 0.4250 0.1050 0.0800
v 0.4250 1.0550 0.0800
v 0.4250 1.0550 0.0600
v 0.4250 0.1050 0.0600
f 628/8 627/8 626/8 625/8
v 0.4050 0.1050 0.0600
v 0.4050 1.0550 0.0600
v 0.4050 1.0550 0.0800
v 0.4050 0.1050 0.0800
f 632/8 631/8 630/8 629/8
v 0.4250 0.1050 0.0600
v 0.4050 0.1050 0.0600
v 0.4050 0.1050 0.0800
v 0.4250 0.1050 0.0800
f 636/8 635/8 634/8 633/8
v 0.4250 1.0550 0.0800
v 0.4050 1.0550 0.0800
v 0.4050 1.0550 0.0600
v 0.4250 1.0550 0.0600
f 640/8 639/8 638/8 637/8
v 0.4250 1.0550 0.0600
v 0.4050 1.0550 0.0600
v 0.4050 0.1050 0.0600
v 0.4250 0.1050 0.0600
f 644/8 643/8 642/8 641/8
v 0.4250 0.1050 0.0800
v 0.4050 0.1050 0.0800
v 0.4050 1.0550 0.0800
v 0.4250 1.0550 0.0800
f 648/8 647/8 646/8 645/8
v 0.0250 1.2250 0.0250
v 0.0250 1.2750 0.0250
v 0.0250 1.2750 -0.0250
v 0.0250 1.2250 -0.0250
f 652/16 651/16 650/16 649/16
v -0.0250 1.2250 -0.0250
v -0.0250 1.2750 -0.0250
v -0.0250 1.2750 0.0250
v -0.0250 1.2250 0.0250
f 656/16 655/16 654/16 653/16
v 0.0250 1.2250 -0.0250
v -0.0250 1.2250 -0.0250
v -0.0250 1.2250 0.0250
v 0.0250 1.2250 0.0250
f 660/16 659/16 658/16 657/16
v 0.0250 1.2750 0.0250
v -0.0250 1.2750 0.0250
v -0.0250 1.2750 -0.0250
v 0.0250 1.2750 -0.0250
f 664/16 663/16 662/16 661/16
v 0.0250 1.2750 -0.0250
v -0.0250 1.2750 -0.0250
v -0.0250 1.2250 -0.0250
v 0.0250 1.2250 -0.0250
f 668/16 667/16 666/16 665/16
v 0.0250 1.2250 0.0250
v -0.0250 1.2250 0.0250
v -0.0250 1.2750 0.0250
v 0.0250 1.2750 0.0250
f 672/16 671/16 670/16 669/16
