# Walk of Industry low-poly (generated, wi_lib.py)
mtllib wi.mtl
vt 0 0
vt 0.03125 0.03125
vt 0.09375 0.03125
vt 0.15625 0.03125
vt 0.21875 0.03125
vt 0.28125 0.03125
vt 0.34375 0.03125
vt 0.40625 0.03125
vt 0.46875 0.03125
vt 0.53125 0.03125
vt 0.59375 0.03125
vt 0.65625 0.03125
vt 0.71875 0.03125
vt 0.78125 0.03125
vt 0.84375 0.03125
vt 0.90625 0.03125
vt 0.96875 0.03125
vt 0.03125 0.09375
vt 0.09375 0.09375
vt 0.15625 0.09375
vt 0.21875 0.09375
vt 0.28125 0.09375
vt 0.34375 0.09375
vt 0.40625 0.09375
vt 0.46875 0.09375
vt 0.53125 0.09375
vt 0.59375 0.09375
vt 0.65625 0.09375
vt 0.71875 0.09375
vt 0.78125 0.09375
vt 0.84375 0.09375
vt 0.90625 0.09375
vt 0.96875 0.09375
o Port
usemtl wi_palette
v -0.0924 0.3183 -0.1200
v -0.0383 0.3724 -0.1200
v -0.0383 0.3724 -0.0100
v -0.0924 0.3183 -0.0100
f 4/7 3/7 2/7 1/7
v -0.0383 0.3724 -0.1200
v 0.0383 0.3724 -0.1200
v 0.0383 0.3724 -0.0100
v -0.0383 0.3724 -0.0100
f 8/7 7/7 6/7 5/7
v 0.0383 0.3724 -0.1200
v 0.0924 0.3183 -0.1200
v 0.0924 0.3183 -0.0100
v 0.0383 0.3724 -0.0100
f 12/7 11/7 10/7 9/7
v 0.0924 0.3183 -0.1200
v 0.0924 0.2417 -0.1200
v 0.0924 0.2417 -0.0100
v 0.0924 0.3183 -0.0100
f 16/7 15/7 14/7 13/7
v 0.0924 0.2417 -0.1200
v 0.0383 0.1876 -0.1200
v 0.0383 0.1876 -0.0100
v 0.0924 0.2417 -0.0100
f 20/7 19/7 18/7 17/7
v 0.0383 0.1876 -0.1200
v -0.0383 0.1876 -0.1200
v -0.0383 0.1876 -0.0100
v 0.0383 0.1876 -0.0100
f 24/7 23/7 22/7 21/7
v -0.0383 0.1876 -0.1200
v -0.0924 0.2417 -0.1200
v -0.0924 0.2417 -0.0100
v -0.0383 0.1876 -0.0100
f 28/7 27/7 26/7 25/7
v -0.0924 0.2417 -0.1200
v -0.0924 0.3183 -0.1200
v -0.0924 0.3183 -0.0100
v -0.0924 0.2417 -0.0100
f 32/7 31/7 30/7 29/7
v -0.0924 0.2417 -0.1200
v -0.0383 0.1876 -0.1200
v 0.0383 0.1876 -0.1200
v 0.0924 0.2417 -0.1200
v 0.0924 0.3183 -0.1200
v 0.0383 0.3724 -0.1200
v -0.0383 0.3724 -0.1200
v -0.0924 0.3183 -0.1200
f 40/7 39/7 38/7 37/7 36/7 35/7 34/7 33/7
v -0.0924 0.3183 -0.0100
v -0.0383 0.3724 -0.0100
v 0.0383 0.3724 -0.0100
v 0.0924 0.3183 -0.0100
v 0.0924 0.2417 -0.0100
v 0.0383 0.1876 -0.0100
v -0.0383 0.1876 -0.0100
v -0.0924 0.2417 -0.0100
f 48/7 47/7 46/7 45/7 44/7 43/7 42/7 41/7
v -0.1293 0.3336 -0.0350
v -0.0536 0.4093 -0.0350
v -0.0536 0.4093 0.0000
v -0.1293 0.3336 0.0000
f 52/4 51/4 50/4 49/4
v -0.0536 0.4093 -0.0350
v 0.0536 0.4093 -0.0350
v 0.0536 0.4093 0.0000
v -0.0536 0.4093 0.0000
f 56/4 55/4 54/4 53/4
v 0.0536 0.4093 -0.0350
v 0.1293 0.3336 -0.0350
v 0.1293 0.3336 0.0000
v 0.0536 0.4093 0.0000
f 60/4 59/4 58/4 57/4
v 0.1293 0.3336 -0.0350
v 0.1293 0.2264 -0.0350
v 0.1293 0.2264 0.0000
v 0.1293 0.3336 0.0000
f 64/4 63/4 62/4 61/4
v 0.1293 0.2264 -0.0350
v 0.0536 0.1507 -0.0350
v 0.0536 0.1507 0.0000
v 0.1293 0.2264 0.0000
f 68/4 67/4 66/4 65/4
v 0.0536 0.1507 -0.0350
v -0.0536 0.1507 -0.0350
v -0.0536 0.1507 0.0000
v 0.0536 0.1507 0.0000
f 72/4 71/4 70/4 69/4
v -0.0536 0.1507 -0.0350
v -0.1293 0.2264 -0.0350
v -0.1293 0.2264 0.0000
v -0.0536 0.1507 0.0000
f 76/4 75/4 74/4 73/4
v -0.1293 0.2264 -0.0350
v -0.1293 0.3336 -0.0350
v -0.1293 0.3336 0.0000
v -0.1293 0.2264 0.0000
f 80/4 79/4 78/4 77/4
v -0.1293 0.2264 -0.0350
v -0.0536 0.1507 -0.0350
v 0.0536 0.1507 -0.0350
v 0.1293 0.2264 -0.0350
v 0.1293 0.3336 -0.0350
v 0.0536 0.4093 -0.0350
v -0.0536 0.4093 -0.0350
v -0.1293 0.3336 -0.0350
f 88/4 87/4 86/4 85/4 84/4 83/4 82/4 81/4
v -0.1293 0.3336 0.0000
v -0.0536 0.4093 0.0000
v 0.0536 0.4093 0.0000
v 0.1293 0.3336 0.0000
v 0.1293 0.2264 0.0000
v 0.0536 0.1507 0.0000
v -0.0536 0.1507 0.0000
v -0.1293 0.2264 0.0000
f 96/4 95/4 94/4 93/4 92/4 91/4 90/4 89/4
v -0.1109 0.3259 -0.1000
v -0.0459 0.3909 -0.1000
v -0.0459 0.3909 -0.0750
v -0.1109 0.3259 -0.0750
f 100/19 99/19 98/19 97/19
v -0.0459 0.3909 -0.1000
v 0.0459 0.3909 -0.1000
v 0.0459 0.3909 -0.0750
v -0.0459 0.3909 -0.0750
f 104/19 103/19 102/19 101/19
v 0.0459 0.3909 -0.1000
v 0.1109 0.3259 -0.1000
v 0.1109 0.3259 -0.0750
v 0.0459 0.3909 -0.0750
f 108/19 107/19 106/19 105/19
v 0.1109 0.3259 -0.1000
v 0.1109 0.2341 -0.1000
v 0.1109 0.2341 -0.0750
v 0.1109 0.3259 -0.0750
f 112/19 111/19 110/19 109/19
v 0.1109 0.2341 -0.1000
v 0.0459 0.1691 -0.1000
v 0.0459 0.1691 -0.0750
v 0.1109 0.2341 -0.0750
f 116/19 115/19 114/19 113/19
v 0.0459 0.1691 -0.1000
v -0.0459 0.1691 -0.1000
v -0.0459 0.1691 -0.0750
v 0.0459 0.1691 -0.0750
f 120/19 119/19 118/19 117/19
v -0.0459 0.1691 -0.1000
v -0.1109 0.2341 -0.1000
v -0.1109 0.2341 -0.0750
v -0.0459 0.1691 -0.0750
f 124/19 123/19 122/19 121/19
v -0.1109 0.2341 -0.1000
v -0.1109 0.3259 -0.1000
v -0.1109 0.3259 -0.0750
v -0.1109 0.2341 -0.0750
f 128/19 127/19 126/19 125/19
v -0.1109 0.2341 -0.1000
v -0.0459 0.1691 -0.1000
v 0.0459 0.1691 -0.1000
v 0.1109 0.2341 -0.1000
v 0.1109 0.3259 -0.1000
v 0.0459 0.3909 -0.1000
v -0.0459 0.3909 -0.1000
v -0.1109 0.3259 -0.1000
f 136/19 135/19 134/19 133/19 132/19 131/19 130/19 129/19
v -0.1109 0.3259 -0.0750
v -0.0459 0.3909 -0.0750
v 0.0459 0.3909 -0.0750
v 0.1109 0.3259 -0.0750
v 0.1109 0.2341 -0.0750
v 0.0459 0.1691 -0.0750
v -0.0459 0.1691 -0.0750
v -0.1109 0.2341 -0.0750
f 144/19 143/19 142/19 141/19 140/19 139/19 138/19 137/19
