# Walk of Industry low-poly (generated, wi_lib.py)
mtllib wi.mtl
vt 0 0
o Body
usemtl wi_blue
v 0.1750 -0.0250 0.0433
v 0.1500 -0.0250 0.0000
v 0.1500 0.0250 0.0000
v 0.1750 0.0250 0.0433
f 4/1 3/1 2/1 1/1
v 0.1500 -0.0250 0.0000
v 0.1750 -0.0250 -0.0433
v 0.1750 0.0250 -0.0433
v 0.1500 0.0250 0.0000
f 8/1 7/1 6/1 5/1
v 0.1750 -0.0250 -0.0433
v 0.2250 -0.0250 -0.0433
v 0.2250 0.0250 -0.0433
v 0.1750 0.0250 -0.0433
f 12/1 11/1 10/1 9/1
v 0.2250 -0.0250 -0.0433
v 0.2500 -0.0250 0.0000
v 0.2500 0.0250 0.0000
v 0.2250 0.0250 -0.0433
f 16/1 15/1 14/1 13/1
v 0.2500 -0.0250 0.0000
v 0.2250 -0.0250 0.0433
v 0.2250 0.0250 0.0433
v 0.2500 0.0250 0.0000
f 20/1 19/1 18/1 17/1
v 0.2250 -0.0250 0.0433
v 0.1750 -0.0250 0.0433
v 0.1750 0.0250 0.0433
v 0.2250 0.0250 0.0433
f 24/1 23/1 22/1 21/1
v 0.2250 -0.0250 0.0433
v 0.2500 -0.0250 0.0000
v 0.2250 -0.0250 -0.0433
v 0.1750 -0.0250 -0.0433
v 0.1500 -0.0250 0.0000
v 0.1750 -0.0250 0.0433
f 30/1 29/1 28/1 27/1 26/1 25/1
v 0.1750 0.0250 0.0433
v 0.1500 0.0250 0.0000
v 0.1750 0.0250 -0.0433
v 0.2250 0.0250 -0.0433
v 0.2500 0.0250 0.0000
v 0.2250 0.0250 0.0433
f 36/1 35/1 34/1 33/1 32/1 31/1
v -0.2250 -0.0250 0.0433
v -0.2500 -0.0250 0.0000
v -0.2500 0.0250 0.0000
v -0.2250 0.0250 0.0433
f 40/1 39/1 38/1 37/1
v -0.2500 -0.0250 0.0000
v -0.2250 -0.0250 -0.0433
v -0.2250 0.0250 -0.0433
v -0.2500 0.0250 0.0000
f 44/1 43/1 42/1 41/1
v -0.2250 -0.0250 -0.0433
v -0.1750 -0.0250 -0.0433
v -0.1750 0.0250 -0.0433
v -0.2250 0.0250 -0.0433
f 48/1 47/1 46/1 45/1
v -0.1750 -0.0250 -0.0433
v -0.1500 -0.0250 0.0000
v -0.1500 0.0250 0.0000
v -0.1750 0.0250 -0.0433
f 52/1 51/1 50/1 49/1
v -0.1500 -0.0250 0.0000
v -0.1750 -0.0250 0.0433
v -0.1750 0.0250 0.0433
v -0.1500 0.0250 0.0000
f 56/1 55/1 54/1 53/1
v -0.1750 -0.0250 0.0433
v -0.2250 -0.0250 0.0433
v -0.2250 0.0250 0.0433
v -0.1750 0.0250 0.0433
f 60/1 59/1 58/1 57/1
v -0.1750 -0.0250 0.0433
v -0.1500 -0.0250 0.0000
v -0.1750 -0.0250 -0.0433
v -0.2250 -0.0250 -0.0433
v -0.2500 -0.0250 0.0000
v -0.2250 -0.0250 0.0433
f 66/1 65/1 64/1 63/1 62/1 61/1
v -0.2250 0.0250 0.0433
v -0.2500 0.0250 0.0000
v -0.2250 0.0250 -0.0433
v -0.1750 0.0250 -0.0433
v -0.1500 0.0250 0.0000
v -0.1750 0.0250 0.0433
f 72/1 71/1 70/1 69/1 68/1 67/1
