# Walk of Industry low-poly (generated, wi_lib.py)
mtllib wi.mtl
vt 0 0
o Body
usemtl wi_steel
v -0.0100 -0.0000 0.0173
v -0.0200 -0.0000 0.0000
v -0.0200 0.3200 0.0000
v -0.0100 0.3200 0.0173
f 4/1 3/1 2/1 1/1
v -0.0200 -0.0000 0.0000
v -0.0100 -0.0000 -0.0173
v -0.0100 0.3200 -0.0173
v -0.0200 0.3200 0.0000
f 8/1 7/1 6/1 5/1
v -0.0100 -0.0000 -0.0173
v 0.0100 -0.0000 -0.0173
v 0.0100 0.3200 -0.0173
v -0.0100 0.3200 -0.0173
f 12/1 11/1 10/1 9/1
v 0.0100 -0.0000 -0.0173
v 0.0200 -0.0000 0.0000
v 0.0200 0.3200 0.0000
v 0.0100 0.3200 -0.0173
f 16/1 15/1 14/1 13/1
v 0.0200 -0.0000 0.0000
v 0.0100 -0.0000 0.0173
v 0.0100 0.3200 0.0173
v 0.0200 0.3200 0.0000
f 20/1 19/1 18/1 17/1
v 0.0100 -0.0000 0.0173
v -0.0100 -0.0000 0.0173
v -0.0100 0.3200 0.0173
v 0.0100 0.3200 0.0173
f 24/1 23/1 22/1 21/1
v 0.0100 -0.0000 0.0173
v 0.0200 -0.0000 0.0000
v 0.0100 -0.0000 -0.0173
v -0.0100 -0.0000 -0.0173
v -0.0200 -0.0000 0.0000
v -0.0100 -0.0000 0.0173
f 30/1 29/1 28/1 27/1 26/1 25/1
v -0.0100 0.3200 0.0173
v -0.0200 0.3200 0.0000
v -0.0100 0.3200 -0.0173
v 0.0100 0.3200 -0.0173
v 0.0200 0.3200 0.0000
v 0.0100 0.3200 0.0173
f 36/1 35/1 34/1 33/1 32/1 31/1
v 0.1304 0.4386 -0.0579
v 0.0721 0.5011 -0.0443
v -0.0168 0.3644 -0.0335
v -0.0085 0.3555 -0.0354
f 40/1 39/1 38/1 37/1
v 0.0721 0.5011 -0.0443
v 0.0054 0.5250 0.0054
v -0.0264 0.3679 -0.0264
v -0.0168 0.3644 -0.0335
f 44/1 43/1 42/1 41/1
v 0.0054 0.5250 0.0054
v -0.0443 0.5011 0.0721
v -0.0335 0.3644 -0.0168
v -0.0264 0.3679 -0.0264
f 48/1 47/1 46/1 45/1
v -0.0443 0.5011 0.0721
v -0.0579 0.4386 0.1304
v -0.0354 0.3555 -0.0085
v -0.0335 0.3644 -0.0168
f 52/1 51/1 50/1 49/1
v -0.0579 0.4386 0.1304
v -0.0304 0.3614 0.1579
v -0.0315 0.3445 -0.0046
v -0.0354 0.3555 -0.0085
f 56/1 55/1 54/1 53/1
v -0.0304 0.3614 0.1579
v 0.0279 0.2989 0.1443
v -0.0232 0.3356 -0.0065
v -0.0315 0.3445 -0.0046
f 60/1 59/1 58/1 57/1
v 0.0279 0.2989 0.1443
v 0.0946 0.2750 0.0946
v -0.0136 0.3321 -0.0136
v -0.0232 0.3356 -0.0065
f 64/1 63/1 62/1 61/1
v 0.0946 0.2750 0.0946
v 0.1443 0.2989 0.0279
v -0.0065 0.3356 -0.0232
v -0.0136 0.3321 -0.0136
f 68/1 67/1 66/1 65/1
v 0.1443 0.2989 0.0279
v 0.1579 0.3614 -0.0304
v -0.0046 0.3445 -0.0315
v -0.0065 0.3356 -0.0232
f 72/1 71/1 70/1 69/1
v 0.1579 0.3614 -0.0304
v 0.1304 0.4386 -0.0579
v -0.0085 0.3555 -0.0354
v -0.0046 0.3445 -0.0315
f 76/1 75/1 74/1 73/1
v 0.1579 0.3614 -0.0304
v 0.1443 0.2989 0.0279
v 0.0946 0.2750 0.0946
v 0.0279 0.2989 0.1443
v -0.0304 0.3614 0.1579
v -0.0579 0.4386 0.1304
v -0.0443 0.5011 0.0721
v 0.0054 0.5250 0.0054
v 0.0721 0.5011 -0.0443
v 0.1304 0.4386 -0.0579
f 86/1 85/1 84/1 83/1 82/1 81/1 80/1 79/1 78/1 77/1
v -0.0085 0.3555 -0.0354
v -0.0168 0.3644 -0.0335
v -0.0264 0.3679 -0.0264
v -0.0335 0.3644 -0.0168
v -0.0354 0.3555 -0.0085
v -0.0315 0.3445 -0.0046
v -0.0232 0.3356 -0.0065
v -0.0136 0.3321 -0.0136
v -0.0065 0.3356 -0.0232
v -0.0046 0.3445 -0.0315
f 96/1 95/1 94/1 93/1 92/1 91/1 90/1 89/1 88/1 87/1
