# Walk of Industry low-poly (generated, wi_lib.py)
mtllib wi.mtl
vt 0 0
o Body
usemtl wi_teal
v -0.0459 0.0000 0.1109
v -0.1109 0.0000 0.0459
v -0.1109 0.3400 0.0459
v -0.0459 0.3400 0.1109
f 4/1 3/1 2/1 1/1
v -0.1109 0.0000 0.0459
v -0.1109 0.0000 -0.0459
v -0.1109 0.3400 -0.0459
v -0.1109 0.3400 0.0459
f 8/1 7/1 6/1 5/1
v -0.1109 0.0000 -0.0459
v -0.0459 0.0000 -0.1109
v -0.0459 0.3400 -0.1109
v -0.1109 0.3400 -0.0459
f 12/1 11/1 10/1 9/1
v -0.0459 0.0000 -0.1109
v 0.0459 0.0000 -0.1109
v 0.0459 0.3400 -0.1109
v -0.0459 0.3400 -0.1109
f 16/1 15/1 14/1 13/1
v 0.0459 0.0000 -0.1109
v 0.1109 0.0000 -0.0459
v 0.1109 0.3400 -0.0459
v 0.0459 0.3400 -0.1109
f 20/1 19/1 18/1 17/1
v 0.1109 0.0000 -0.0459
v 0.1109 0.0000 0.0459
v 0.1109 0.3400 0.0459
v 0.1109 0.3400 -0.0459
f 24/1 23/1 22/1 21/1
v 0.1109 0.0000 0.0459
v 0.0459 0.0000 0.1109
v 0.0459 0.3400 0.1109
v 0.1109 0.3400 0.0459
f 28/1 27/1 26/1 25/1
v 0.0459 0.0000 0.1109
v -0.0459 0.0000 0.1109
v -0.0459 0.3400 0.1109
v 0.0459 0.3400 0.1109
f 32/1 31/1 30/1 29/1
v 0.0459 0.0000 0.1109
v 0.1109 0.0000 0.0459
v 0.1109 0.0000 -0.0459
v 0.0459 0.0000 -0.1109
v -0.0459 0.0000 -0.1109
v -0.1109 0.0000 -0.0459
v -0.1109 0.0000 0.0459
v -0.0459 0.0000 0.1109
f 40/1 39/1 38/1 37/1 36/1 35/1 34/1 33/1
v -0.0459 0.3400 0.1109
v -0.1109 0.3400 0.0459
v -0.1109 0.3400 -0.0459
v -0.0459 0.3400 -0.1109
v 0.0459 0.3400 -0.1109
v 0.1109 0.3400 -0.0459
v 0.1109 0.3400 0.0459
v 0.0459 0.3400 0.1109
f 48/1 47/1 46/1 45/1 44/1 43/1 42/1 41/1
usemtl wi_dark
v 0.1000 0.3000 0.1000
v 0.1000 0.4400 0.1000
v 0.1000 0.4400 -0.1000
v 0.1000 0.3000 -0.1000
f 52/1 51/1 50/1 49/1
v -0.1000 0.3000 -0.1000
v -0.1000 0.4400 -0.1000
v -0.1000 0.4400 0.1000
v -0.1000 0.3000 0.1000
f 56/1 55/1 54/1 53/1
v 0.1000 0.3000 -0.1000
v -0.1000 0.3000 -0.1000
v -0.1000 0.3000 0.1000
v 0.1000 0.3000 0.1000
f 60/1 59/1 58/1 57/1
v 0.1000 0.4400 0.1000
v -0.1000 0.4400 0.1000
v -0.1000 0.4400 -0.1000
v 0.1000 0.4400 -0.1000
f 64/1 63/1 62/1 61/1
v 0.1000 0.4400 -0.1000
v -0.1000 0.4400 -0.1000
v -0.1000 0.3000 -0.1000
v 0.1000 0.3000 -0.1000
f 68/1 67/1 66/1 65/1
v 0.1000 0.3000 0.1000
v -0.1000 0.3000 0.1000
v -0.1000 0.4400 0.1000
v 0.1000 0.4400 0.1000
f 72/1 71/1 70/1 69/1
usemtl wi_teal
v -0.0450 0.5989 -0.2325
v -0.0450 0.6611 -0.1675
v -0.0450 0.4311 0.0525
v -0.0450 0.3689 -0.0125
f 76/1 75/1 74/1 73/1
v 0.0450 0.3689 -0.0125
v 0.0450 0.4311 0.0525
v 0.0450 0.6611 -0.1675
v 0.0450 0.5989 -0.2325
f 80/1 79/1 78/1 77/1
v -0.0450 0.3689 -0.0125
v 0.0450 0.3689 -0.0125
v 0.0450 0.5989 -0.2325
v -0.0450 0.5989 -0.2325
f 84/1 83/1 82/1 81/1
v -0.0450 0.6611 -0.1675
v 0.0450 0.6611 -0.1675
v 0.0450 0.4311 0.0525
v -0.0450 0.4311 0.0525
f 88/1 87/1 86/1 85/1
v -0.0450 0.4311 0.0525
v 0.0450 0.4311 0.0525
v 0.0450 0.3689 -0.0125
v -0.0450 0.3689 -0.0125
f 92/1 91/1 90/1 89/1
v -0.0450 0.5989 -0.2325
v 0.0450 0.5989 -0.2325
v 0.0450 0.6611 -0.1675
v -0.0450 0.6611 -0.1675
f 96/1 95/1 94/1 93/1
usemtl wi_teal2
v -0.0350 0.3326 -0.3296
v -0.0350 0.3674 -0.3904
v -0.0350 0.6474 -0.2304
v -0.0350 0.6126 -0.1696
f 100/1 99/1 98/1 97/1
v 0.0350 0.6126 -0.1696
v 0.0350 0.6474 -0.2304
v 0.0350 0.3674 -0.3904
v 0.0350 0.3326 -0.3296
f 104/1 103/1 102/1 101/1
v -0.0350 0.6126 -0.1696
v 0.0350 0.6126 -0.1696
v 0.0350 0.3326 -0.3296
v -0.0350 0.3326 -0.3296
f 108/1 107/1 106/1 105/1
v -0.0350 0.3674 -0.3904
v 0.0350 0.3674 -0.3904
v 0.0350 0.6474 -0.2304
v -0.0350 0.6474 -0.2304
f 112/1 111/1 110/1 109/1
v -0.0350 0.6474 -0.2304
v 0.0350 0.6474 -0.2304
v 0.0350 0.6126 -0.1696
v -0.0350 0.6126 -0.1696
f 116/1 115/1 114/1 113/1
v -0.0350 0.3326 -0.3296
v 0.0350 0.3326 -0.3296
v 0.0350 0.3674 -0.3904
v -0.0350 0.3674 -0.3904
f 120/1 119/1 118/1 117/1
usemtl wi_copper
v -0.0230 0.5900 -0.1446
v -0.0554 0.5900 -0.1770
v -0.0554 0.6700 -0.1770
v -0.0230 0.6700 -0.1446
f 124/1 123/1 122/1 121/1
v -0.0554 0.5900 -0.1770
v -0.0554 0.5900 -0.2230
v -0.0554 0.6700 -0.2230
v -0.0554 0.6700 -0.1770
f 128/1 127/1 126/1 125/1
v -0.0554 0.5900 -0.2230
v -0.0230 0.5900 -0.2554
v -0.0230 0.6700 -0.2554
v -0.0554 0.6700 -0.2230
f 132/1 131/1 130/1 129/1
v -0.0230 0.5900 -0.2554
v 0.0230 0.5900 -0.2554
v 0.0230 0.6700 -0.2554
v -0.0230 0.6700 -0.2554
f 136/1 135/1 134/1 133/1
v 0.0230 0.5900 -0.2554
v 0.0554 0.5900 -0.2230
v 0.0554 0.6700 -0.2230
v 0.0230 0.6700 -0.2554
f 140/1 139/1 138/1 137/1
v 0.0554 0.5900 -0.2230
v 0.0554 0.5900 -0.1770
v 0.0554 0.6700 -0.1770
v 0.0554 0.6700 -0.2230
f 144/1 143/1 142/1 141/1
v 0.0554 0.5900 -0.1770
v 0.0230 0.5900 -0.1446
v 0.0230 0.6700 -0.1446
v 0.0554 0.6700 -0.1770
f 148/1 147/1 146/1 145/1
v 0.0230 0.5900 -0.1446
v -0.0230 0.5900 -0.1446
v -0.0230 0.6700 -0.1446
v 0.0230 0.6700 -0.1446
f 152/1 151/1 150/1 149/1
v 0.0230 0.5900 -0.1446
v 0.0554 0.5900 -0.1770
v 0.0554 0.5900 -0.2230
v 0.0230 0.5900 -0.2554
v -0.0230 0.5900 -0.2554
v -0.0554 0.5900 -0.2230
v -0.0554 0.5900 -0.1770
v -0.0230 0.5900 -0.1446
f 160/1 159/1 158/1 157/1 156/1 155/1 154/1 153/1
v -0.0230 0.6700 -0.1446
v -0.0554 0.6700 -0.1770
v -0.0554 0.6700 -0.2230
v -0.0230 0.6700 -0.2554
v 0.0230 0.6700 -0.2554
v 0.0554 0.6700 -0.2230
v 0.0554 0.6700 -0.1770
v 0.0230 0.6700 -0.1446
f 168/1 167/1 166/1 165/1 164/1 163/1 162/1 161/1
usemtl wi_dark
v 0.0700 0.3050 -0.3200
v 0.0700 0.3550 -0.3200
v 0.0700 0.3550 -0.4000
v 0.0700 0.3050 -0.4000
f 172/1 171/1 170/1 169/1
v -0.0700 0.3050 -0.4000
v -0.0700 0.3550 -0.4000
v -0.0700 0.3550 -0.3200
v -0.0700 0.3050 -0.3200
f 176/1 175/1 174/1 173/1
v 0.0700 0.3050 -0.4000
v -0.0700 0.3050 -0.4000
v -0.0700 0.3050 -0.3200
v 0.0700 0.3050 -0.3200
f 180/1 179/1 178/1 177/1
v 0.0700 0.3550 -0.3200
v -0.0700 0.3550 -0.3200
v -0.0700 0.3550 -0.4000
v 0.0700 0.3550 -0.4000
f 184/1 183/1 182/1 181/1
v 0.0700 0.3550 -0.4000
v -0.0700 0.3550 -0.4000
v -0.0700 0.3050 -0.4000
v 0.0700 0.3050 -0.4000
f 188/1 187/1 186/1 185/1
v 0.0700 0.3050 -0.3200
v -0.0700 0.3050 -0.3200
v -0.0700 0.3550 -0.3200
v 0.0700 0.3550 -0.3200
f 192/1 191/1 190/1 189/1
v 0.0625 0.1900 -0.3350
v 0.0625 0.3100 -0.3350
v 0.0625 0.3100 -0.3850
v 0.0625 0.1900 -0.3850
f 196/1 195/1 194/1 193/1
v 0.0375 0.1900 -0.3850
v 0.0375 0.3100 -0.3850
v 0.0375 0.3100 -0.3350
v 0.0375 0.1900 -0.3350
f 200/1 199/1 198/1 197/1
v 0.0625 0.1900 -0.3850
v 0.0375 0.1900 -0.3850
v 0.0375 0.1900 -0.3350
v 0.0625 0.1900 -0.3350
f 204/1 203/1 202/1 201/1
v 0.0625 0.3100 -0.3350
v 0.0375 0.3100 -0.3350
v 0.0375 0.3100 -0.3850
v 0.0625 0.3100 -0.3850
f 208/1 207/1 206/1 205/1
v 0.0625 0.3100 -0.3850
v 0.0375 0.3100 -0.3850
v 0.0375 0.1900 -0.3850
v 0.0625 0.1900 -0.3850
f 212/1 211/1 210/1 209/1
v 0.0625 0.1900 -0.3350
v 0.0375 0.1900 -0.3350
v 0.0375 0.3100 -0.3350
v 0.0625 0.3100 -0.3350
f 216/1 215/1 214/1 213/1
v -0.0375 0.1900 -0.3350
v -0.0375 0.3100 -0.3350
v -0.0375 0.3100 -0.3850
v -0.0375 0.1900 -0.3850
f 220/1 219/1 218/1 217/1
v -0.0625 0.1900 -0.3850
v -0.0625 0.3100 -0.3850
v -0.0625 0.3100 -0.3350
v -0.0625 0.1900 -0.3350
f 224/1 223/1 222/1 221/1
v -0.0375 0.1900 -0.3850
v -0.0625 0.1900 -0.3850
v -0.0625 0.1900 -0.3350
v -0.0375 0.1900 -0.3350
f 228/1 227/1 226/1 225/1
v -0.0375 0.3100 -0.3350
v -0.0625 0.3100 -0.3350
v -0.0625 0.3100 -0.3850
v -0.0375 0.3100 -0.3850
f 232/1 231/1 230/1 229/1
v -0.0375 0.3100 -0.3850
v -0.0625 0.3100 -0.3850
v -0.0625 0.1900 -0.3850
v -0.0375 0.1900 -0.3850
f 236/1 235/1 234/1 233/1
v -0.0375 0.1900 -0.3350
v -0.0625 0.1900 -0.3350
v -0.0625 0.3100 -0.3350
v -0.0375 0.3100 -0.3350
f 240/1 239/1 238/1 237/1
usemtl wi_lamp
v 0.0250 0.4450 0.1050
v 0.0250 0.4950 0.1050
v 0.0250 0.4950 0.0550
v 0.0250 0.4450 0.0550
f 244/1 243/1 242/1 241/1
v -0.0250 0.4450 0.0550
v -0.0250 0.4950 0.0550
v -0.0250 0.4950 0.1050
v -0.0250 0.4450 0.1050
f 248/1 247/1 246/1 245/1
v 0.0250 0.4450 0.0550
v -0.0250 0.4450 0.0550
v -0.0250 0.4450 0.1050
v 0.0250 0.4450 0.1050
f 252/1 251/1 250/1 249/1
v 0.0250 0.4950 0.1050
v -0.0250 0.4950 0.1050
v -0.0250 0.4950 0.0550
v 0.0250 0.4950 0.0550
f 256/1 255/1 254/1 253/1
v 0.0250 0.4950 0.0550
v -0.0250 0.4950 0.0550
v -0.0250 0.4450 0.0550
v 0.0250 0.4450 0.0550
f 260/1 259/1 258/1 257/1
v 0.0250 0.4450 0.1050
v -0.0250 0.4450 0.1050
v -0.0250 0.4950 0.1050
v 0.0250 0.4950 0.1050
f 264/1 263/1 262/1 261/1
