# Walk of Industry low-poly (generated, wi_lib.py)
mtllib wi.mtl
vt 0 0
o Body
usemtl wi_teal
v -0.0765 0.0000 0.1848
v -0.1848 0.0000 0.0765
v -0.1848 0.0500 0.0765
v -0.0765 0.0500 0.1848
f 4/1 3/1 2/1 1/1
v -0.1848 0.0000 0.0765
v -0.1848 0.0000 -0.0765
v -0.1848 0.0500 -0.0765
v -0.1848 0.0500 0.0765
f 8/1 7/1 6/1 5/1
v -0.1848 0.0000 -0.0765
v -0.0765 0.0000 -0.1848
v -0.0765 0.0500 -0.1848
v -0.1848 0.0500 -0.0765
f 12/1 11/1 10/1 9/1
v -0.0765 0.0000 -0.1848
v 0.0765 0.0000 -0.1848
v 0.0765 0.0500 -0.1848
v -0.0765 0.0500 -0.1848
f 16/1 15/1 14/1 13/1
v 0.0765 0.0000 -0.1848
v 0.1848 0.0000 -0.0765
v 0.1848 0.0500 -0.0765
v 0.0765 0.0500 -0.1848
f 20/1 19/1 18/1 17/1
v 0.1848 0.0000 -0.0765
v 0.1848 0.0000 0.0765
v 0.1848 0.0500 0.0765
v 0.1848 0.0500 -0.0765
f 24/1 23/1 22/1 21/1
v 0.1848 0.0000 0.0765
v 0.0765 0.0000 0.1848
v 0.0765 0.0500 0.1848
v 0.1848 0.0500 0.0765
f 28/1 27/1 26/1 25/1
v 0.0765 0.0000 0.1848
v -0.0765 0.0000 0.1848
v -0.0765 0.0500 0.1848
v 0.0765 0.0500 0.1848
f 32/1 31/1 30/1 29/1
v 0.0765 0.0000 0.1848
v 0.1848 0.0000 0.0765
v 0.1848 0.0000 -0.0765
v 0.0765 0.0000 -0.1848
v -0.0765 0.0000 -0.1848
v -0.1848 0.0000 -0.0765
v -0.1848 0.0000 0.0765
v -0.0765 0.0000 0.1848
f 40/1 39/1 38/1 37/1 36/1 35/1 34/1 33/1
v -0.0765 0.0500 0.1848
v -0.1848 0.0500 0.0765
v -0.1848 0.0500 -0.0765
v -0.0765 0.0500 -0.1848
v 0.0765 0.0500 -0.1848
v 0.1848 0.0500 -0.0765
v 0.1848 0.0500 0.0765
v 0.0765 0.0500 0.1848
f 48/1 47/1 46/1 45/1 44/1 43/1 42/1 41/1
usemtl wi_copper
v -0.0459 0.0500 0.1109
v -0.1109 0.0500 0.0459
v -0.1109 0.0800 0.0459
v -0.0459 0.0800 0.1109
f 52/1 51/1 50/1 49/1
v -0.1109 0.0500 0.0459
v -0.1109 0.0500 -0.0459
v -0.1109 0.0800 -0.0459
v -0.1109 0.0800 0.0459
f 56/1 55/1 54/1 53/1
v -0.1109 0.0500 -0.0459
v -0.0459 0.0500 -0.1109
v -0.0459 0.0800 -0.1109
v -0.1109 0.0800 -0.0459
f 60/1 59/1 58/1 57/1
v -0.0459 0.0500 -0.1109
v 0.0459 0.0500 -0.1109
v 0.0459 0.0800 -0.1109
v -0.0459 0.0800 -0.1109
f 64/1 63/1 62/1 61/1
v 0.0459 0.0500 -0.1109
v 0.1109 0.0500 -0.0459
v 0.1109 0.0800 -0.0459
v 0.0459 0.0800 -0.1109
f 68/1 67/1 66/1 65/1
v 0.1109 0.0500 -0.0459
v 0.1109 0.0500 0.0459
v 0.1109 0.0800 0.0459
v 0.1109 0.0800 -0.0459
f 72/1 71/1 70/1 69/1
v 0.1109 0.0500 0.0459
v 0.0459 0.0500 0.1109
v 0.0459 0.0800 0.1109
v 0.1109 0.0800 0.0459
f 76/1 75/1 74/1 73/1
v 0.0459 0.0500 0.1109
v -0.0459 0.0500 0.1109
v -0.0459 0.0800 0.1109
v 0.0459 0.0800 0.1109
f 80/1 79/1 78/1 77/1
v 0.0459 0.0500 0.1109
v 0.1109 0.0500 0.0459
v 0.1109 0.0500 -0.0459
v 0.0459 0.0500 -0.1109
v -0.0459 0.0500 -0.1109
v -0.1109 0.0500 -0.0459
v -0.1109 0.0500 0.0459
v -0.0459 0.0500 0.1109
f 88/1 87/1 86/1 85/1 84/1 83/1 82/1 81/1
v -0.0459 0.0800 0.1109
v -0.1109 0.0800 0.0459
v -0.1109 0.0800 -0.0459
v -0.0459 0.0800 -0.1109
v 0.0459 0.0800 -0.1109
v 0.1109 0.0800 -0.0459
v 0.1109 0.0800 0.0459
v 0.0459 0.0800 0.1109
f 96/1 95/1 94/1 93/1 92/1 91/1 90/1 89/1
usemtl wi_dark
v 0.1700 0.0450 0.0250
v 0.1700 0.0650 0.0250
v 0.1700 0.0650 -0.0250
v 0.1700 0.0450 -0.0250
f 100/1 99/1 98/1 97/1
v -0.1700 0.0450 -0.0250
v -0.1700 0.0650 -0.0250
v -0.1700 0.0650 0.0250
v -0.1700 0.0450 0.0250
f 104/1 103/1 102/1 101/1
v 0.1700 0.0450 -0.0250
v -0.1700 0.0450 -0.0250
v -0.1700 0.0450 0.0250
v 0.1700 0.0450 0.0250
f 108/1 107/1 106/1 105/1
v 0.1700 0.0650 0.0250
v -0.1700 0.0650 0.0250
v -0.1700 0.0650 -0.0250
v 0.1700 0.0650 -0.0250
f 112/1 111/1 110/1 109/1
v 0.1700 0.0650 -0.0250
v -0.1700 0.0650 -0.0250
v -0.1700 0.0450 -0.0250
v 0.1700 0.0450 -0.0250
f 116/1 115/1 114/1 113/1
v 0.1700 0.0450 0.0250
v -0.1700 0.0450 0.0250
v -0.1700 0.0650 0.0250
v 0.1700 0.0650 0.0250
f 120/1 119/1 118/1 117/1
