# Walk of Industry low-poly (generated, wi_lib.py)
mtllib wi.mtl
vt 0 0
o Body
usemtl wi_base
v 0.4700 0.0000 0.4700
v 0.4700 0.0600 0.4700
v 0.4700 0.0600 -0.4700
v 0.4700 0.0000 -0.4700
f 4/1 3/1 2/1 1/1
v -0.4700 0.0000 -0.4700
v -0.4700 0.0600 -0.4700
v -0.4700 0.0600 0.4700
v -0.4700 0.0000 0.4700
f 8/1 7/1 6/1 5/1
v 0.4700 0.0000 -0.4700
v -0.4700 0.0000 -0.4700
v -0.4700 0.0000 0.4700
v 0.4700 0.0000 0.4700
f 12/1 11/1 10/1 9/1
v 0.4700 0.0600 0.4700
v -0.4700 0.0600 0.4700
v -0.4700 0.0600 -0.4700
v 0.4700 0.0600 -0.4700
f 16/1 15/1 14/1 13/1
v 0.4700 0.0600 -0.4700
v -0.4700 0.0600 -0.4700
v -0.4700 0.0000 -0.4700
v 0.4700 0.0000 -0.4700
f 20/1 19/1 18/1 17/1
v 0.4700 0.0000 0.4700
v -0.4700 0.0000 0.4700
v -0.4700 0.0600 0.4700
v 0.4700 0.0600 0.4700
f 24/1 23/1 22/1 21/1
usemtl wi_teal
v 0.4500 0.0500 0.4700
v 0.4500 0.5500 0.4700
v 0.4500 0.5500 0.0100
v 0.4500 0.0500 0.0100
f 28/1 27/1 26/1 25/1
v -0.4500 0.0500 0.0100
v -0.4500 0.5500 0.0100
v -0.4500 0.5500 0.4700
v -0.4500 0.0500 0.4700
f 32/1 31/1 30/1 29/1
v 0.4500 0.0500 0.0100
v -0.4500 0.0500 0.0100
v -0.4500 0.0500 0.4700
v 0.4500 0.0500 0.4700
f 36/1 35/1 34/1 33/1
v 0.4500 0.5500 0.4700
v -0.4500 0.5500 0.4700
v -0.4500 0.5500 0.0100
v 0.4500 0.5500 0.0100
f 40/1 39/1 38/1 37/1
v 0.4500 0.5500 0.0100
v -0.4500 0.5500 0.0100
v -0.4500 0.0500 0.0100
v 0.4500 0.0500 0.0100
f 44/1 43/1 42/1 41/1
v 0.4500 0.0500 0.4700
v -0.4500 0.0500 0.4700
v -0.4500 0.5500 0.4700
v 0.4500 0.5500 0.4700
f 48/1 47/1 46/1 45/1
usemtl wi_copper
v 0.4800 0.6900 0.2400
v -0.4800 0.6900 0.2400
v -0.4800 0.5500 -0.0200
v 0.4800 0.5500 -0.0200
f 52/1 51/1 50/1 49/1
v -0.4800 0.6900 0.2400
v 0.4800 0.6900 0.2400
v 0.4800 0.5500 0.5000
v -0.4800 0.5500 0.5000
f 56/1 55/1 54/1 53/1
v -0.4800 0.6900 0.2400
v -0.4800 0.5500 0.5000
v -0.4800 0.5500 -0.0200
f 59/1 58/1 57/1
v 0.4800 0.6900 0.2400
v 0.4800 0.5500 -0.0200
v 0.4800 0.5500 0.5000
f 62/1 61/1 60/1
v 0.4800 0.5500 -0.0200
v -0.4800 0.5500 -0.0200
v -0.4800 0.5500 0.5000
v 0.4800 0.5500 0.5000
f 66/1 65/1 64/1 63/1
usemtl wi_dark
v 0.3100 0.0500 0.0200
v 0.3100 0.3500 0.0200
v 0.3100 0.3500 -0.0100
v 0.3100 0.0500 -0.0100
f 70/1 69/1 68/1 67/1
v -0.3100 0.0500 -0.0100
v -0.3100 0.3500 -0.0100
v -0.3100 0.3500 0.0200
v -0.3100 0.0500 0.0200
f 74/1 73/1 72/1 71/1
v 0.3100 0.0500 -0.0100
v -0.3100 0.0500 -0.0100
v -0.3100 0.0500 0.0200
v 0.3100 0.0500 0.0200
f 78/1 77/1 76/1 75/1
v 0.3100 0.3500 0.0200
v -0.3100 0.3500 0.0200
v -0.3100 0.3500 -0.0100
v 0.3100 0.3500 -0.0100
f 82/1 81/1 80/1 79/1
v 0.3100 0.3500 -0.0100
v -0.3100 0.3500 -0.0100
v -0.3100 0.0500 -0.0100
v 0.3100 0.0500 -0.0100
f 86/1 85/1 84/1 83/1
v 0.3100 0.0500 0.0200
v -0.3100 0.0500 0.0200
v -0.3100 0.3500 0.0200
v 0.3100 0.3500 0.0200
f 90/1 89/1 88/1 87/1
usemtl wi_copper
v 0.3600 0.3450 0.0250
v 0.3600 0.3950 0.0250
v 0.3600 0.3950 -0.0250
v 0.3600 0.3450 -0.0250
f 94/1 93/1 92/1 91/1
v -0.3600 0.3450 -0.0250
v -0.3600 0.3950 -0.0250
v -0.3600 0.3950 0.0250
v -0.3600 0.3450 0.0250
f 98/1 97/1 96/1 95/1
v 0.3600 0.3450 -0.0250
v -0.3600 0.3450 -0.0250
v -0.3600 0.3450 0.0250
v 0.3600 0.3450 0.0250
f 102/1 101/1 100/1 99/1
v 0.3600 0.3950 0.0250
v -0.3600 0.3950 0.0250
v -0.3600 0.3950 -0.0250
v 0.3600 0.3950 -0.0250
f 106/1 105/1 104/1 103/1
v 0.3600 0.3950 -0.0250
v -0.3600 0.3950 -0.0250
v -0.3600 0.3450 -0.0250
v 0.3600 0.3450 -0.0250
f 110/1 109/1 108/1 107/1
v 0.3600 0.3450 0.0250
v -0.3600 0.3450 0.0250
v -0.3600 0.3950 0.0250
v 0.3600 0.3950 0.0250
f 114/1 113/1 112/1 111/1
v 0.3550 0.0200 0.0250
v 0.3550 0.3800 0.0250
v 0.3550 0.3800 -0.0250
v 0.3550 0.0200 -0.0250
f 118/1 117/1 116/1 115/1
v 0.3050 0.0200 -0.0250
v 0.3050 0.3800 -0.0250
v 0.3050 0.3800 0.0250
v 0.3050 0.0200 0.0250
f 122/1 121/1 120/1 119/1
v 0.3550 0.0200 -0.0250
v 0.3050 0.0200 -0.0250
v 0.3050 0.0200 0.0250
v 0.3550 0.0200 0.0250
f 126/1 125/1 124/1 123/1
v 0.3550 0.3800 0.0250
v 0.3050 0.3800 0.0250
v 0.3050 0.3800 -0.0250
v 0.3550 0.3800 -0.0250
f 130/1 129/1 128/1 127/1
v 0.3550 0.3800 -0.0250
v 0.3050 0.3800 -0.0250
v 0.3050 0.0200 -0.0250
v 0.3550 0.0200 -0.0250
f 134/1 133/1 132/1 131/1
v 0.3550 0.0200 0.0250
v 0.3050 0.0200 0.0250
v 0.3050 0.3800 0.0250
v 0.3550 0.3800 0.0250
f 138/1 137/1 136/1 135/1
v -0.3050 0.0200 0.0250
v -0.3050 0.3800 0.0250
v -0.3050 0.3800 -0.0250
v -0.3050 0.0200 -0.0250
f 142/1 141/1 140/1 139/1
v -0.3550 0.0200 -0.0250
v -0.3550 0.3800 -0.0250
v -0.3550 0.3800 0.0250
v -0.3550 0.0200 0.0250
f 146/1 145/1 144/1 143/1
v -0.3050 0.0200 -0.0250
v -0.3550 0.0200 -0.0250
v -0.3550 0.0200 0.0250
v -0.3050 0.0200 0.0250
f 150/1 149/1 148/1 147/1
v -0.3050 0.3800 0.0250
v -0.3550 0.3800 0.0250
v -0.3550 0.3800 -0.0250
v -0.3050 0.3800 -0.0250
f 154/1 153/1 152/1 151/1
v -0.3050 0.3800 -0.0250
v -0.3550 0.3800 -0.0250
v -0.3550 0.0200 -0.0250
v -0.3050 0.0200 -0.0250
f 158/1 157/1 156/1 155/1
v -0.3050 0.0200 0.0250
v -0.3550 0.0200 0.0250
v -0.3550 0.3800 0.0250
v -0.3050 0.3800 0.0250
f 162/1 161/1 160/1 159/1
usemtl wi_yellow
v 0.4000 0.4450 -0.0060
v 0.4000 0.4950 -0.0060
v 0.4000 0.4950 -0.0180
v 0.4000 0.4450 -0.0180
f 166/1 165/1 164/1 163/1
v 0.2667 0.4450 -0.0180
v 0.2667 0.4950 -0.0180
v 0.2667 0.4950 -0.0060
v 0.2667 0.4450 -0.0060
f 170/1 169/1 168/1 167/1
v 0.4000 0.4450 -0.0180
v 0.2667 0.4450 -0.0180
v 0.2667 0.4450 -0.0060
v 0.4000 0.4450 -0.0060
f 174/1 173/1 172/1 171/1
v 0.4000 0.4950 -0.0060
v 0.2667 0.4950 -0.0060
v 0.2667 0.4950 -0.0180
v 0.4000 0.4950 -0.0180
f 178/1 177/1 176/1 175/1
v 0.4000 0.4950 -0.0180
v 0.2667 0.4950 -0.0180
v 0.2667 0.4450 -0.0180
v 0.4000 0.4450 -0.0180
f 182/1 181/1 180/1 179/1
v 0.4000 0.4450 -0.0060
v 0.2667 0.4450 -0.0060
v 0.2667 0.4950 -0.0060
v 0.4000 0.4950 -0.0060
f 186/1 185/1 184/1 183/1
usemtl wi_dark
v 0.2667 0.4450 -0.0060
v 0.2667 0.4950 -0.0060
v 0.2667 0.4950 -0.0180
v 0.2667 0.4450 -0.0180
f 190/1 189/1 188/1 187/1
v 0.1333 0.4450 -0.0180
v 0.1333 0.4950 -0.0180
v 0.1333 0.4950 -0.0060
v 0.1333 0.4450 -0.0060
f 194/1 193/1 192/1 191/1
v 0.2667 0.4450 -0.0180
v 0.1333 0.4450 -0.0180
v 0.1333 0.4450 -0.0060
v 0.2667 0.4450 -0.0060
f 198/1 197/1 196/1 195/1
v 0.2667 0.4950 -0.0060
v 0.1333 0.4950 -0.0060
v 0.1333 0.4950 -0.0180
v 0.2667 0.4950 -0.0180
f 202/1 201/1 200/1 199/1
v 0.2667 0.4950 -0.0180
v 0.1333 0.4950 -0.0180
v 0.1333 0.4450 -0.0180
v 0.2667 0.4450 -0.0180
f 206/1 205/1 204/1 203/1
v 0.2667 0.4450 -0.0060
v 0.1333 0.4450 -0.0060
v 0.1333 0.4950 -0.0060
v 0.2667 0.4950 -0.0060
f 210/1 209/1 208/1 207/1
usemtl wi_yellow
v 0.1333 0.4450 -0.0060
v 0.1333 0.4950 -0.0060
v 0.1333 0.4950 -0.0180
v 0.1333 0.4450 -0.0180
f 214/1 213/1 212/1 211/1
v 0.0000 0.4450 -0.0180
v 0.0000 0.4950 -0.0180
v 0.0000 0.4950 -0.0060
v 0.0000 0.4450 -0.0060
f 218/1 217/1 216/1 215/1
v 0.1333 0.4450 -0.0180
v 0.0000 0.4450 -0.0180
v 0.0000 0.4450 -0.0060
v 0.1333 0.4450 -0.0060
f 222/1 221/1 220/1 219/1
v 0.1333 0.4950 -0.0060
v 0.0000 0.4950 -0.0060
v 0.0000 0.4950 -0.0180
v 0.1333 0.4950 -0.0180
f 226/1 225/1 224/1 223/1
v 0.1333 0.4950 -0.0180
v 0.0000 0.4950 -0.0180
v 0.0000 0.4450 -0.0180
v 0.1333 0.4450 -0.0180
f 230/1 229/1 228/1 227/1
v 0.1333 0.4450 -0.0060
v 0.0000 0.4450 -0.0060
v 0.0000 0.4950 -0.0060
v 0.1333 0.4950 -0.0060
f 234/1 233/1 232/1 231/1
usemtl wi_dark
v 0.0000 0.4450 -0.0060
v 0.0000 0.4950 -0.0060
v 0.0000 0.4950 -0.0180
v 0.0000 0.4450 -0.0180
f 238/1 237/1 236/1 235/1
v -0.1333 0.4450 -0.0180
v -0.1333 0.4950 -0.0180
v -0.1333 0.4950 -0.0060
v -0.1333 0.4450 -0.0060
f 242/1 241/1 240/1 239/1
v 0.0000 0.4450 -0.0180
v -0.1333 0.4450 -0.0180
v -0.1333 0.4450 -0.0060
v 0.0000 0.4450 -0.0060
f 246/1 245/1 244/1 243/1
v 0.0000 0.4950 -0.0060
v -0.1333 0.4950 -0.0060
v -0.1333 0.4950 -0.0180
v 0.0000 0.4950 -0.0180
f 250/1 249/1 248/1 247/1
v 0.0000 0.4950 -0.0180
v -0.1333 0.4950 -0.0180
v -0.1333 0.4450 -0.0180
v 0.0000 0.4450 -0.0180
f 254/1 253/1 252/1 251/1
v 0.0000 0.4450 -0.0060
v -0.1333 0.4450 -0.0060
v -0.1333 0.4950 -0.0060
v 0.0000 0.4950 -0.0060
f 258/1 257/1 256/1 255/1
usemtl wi_yellow
v -0.1333 0.4450 -0.0060
v -0.1333 0.4950 -0.0060
v -0.1333 0.4950 -0.0180
v -0.1333 0.4450 -0.0180
f 262/1 261/1 260/1 259/1
v -0.2667 0.4450 -0.0180
v -0.2667 0.4950 -0.0180
v -0.2667 0.4950 -0.0060
v -0.2667 0.4450 -0.0060
f 266/1 265/1 264/1 263/1
v -0.1333 0.4450 -0.0180
v -0.2667 0.4450 -0.0180
v -0.2667 0.4450 -0.0060
v -0.1333 0.4450 -0.0060
f 270/1 269/1 268/1 267/1
v -0.1333 0.4950 -0.0060
v -0.2667 0.4950 -0.0060
v -0.2667 0.4950 -0.0180
v -0.1333 0.4950 -0.0180
f 274/1 273/1 272/1 271/1
v -0.1333 0.4950 -0.0180
v -0.2667 0.4950 -0.0180
v -0.2667 0.4450 -0.0180
v -0.1333 0.4450 -0.0180
f 278/1 277/1 276/1 275/1
v -0.1333 0.4450 -0.0060
v -0.2667 0.4450 -0.0060
v -0.2667 0.4950 -0.0060
v -0.1333 0.4950 -0.0060
f 282/1 281/1 280/1 279/1
usemtl wi_dark
v -0.2667 0.4450 -0.0060
v -0.2667 0.4950 -0.0060
v -0.2667 0.4950 -0.0180
v -0.2667 0.4450 -0.0180
f 286/1 285/1 284/1 283/1
v -0.4000 0.4450 -0.0180
v -0.4000 0.4950 -0.0180
v -0.4000 0.4950 -0.0060
v -0.4000 0.4450 -0.0060
f 290/1 289/1 288/1 287/1
v -0.2667 0.4450 -0.0180
v -0.4000 0.4450 -0.0180
v -0.4000 0.4450 -0.0060
v -0.2667 0.4450 -0.0060
f 294/1 293/1 292/1 291/1
v -0.2667 0.4950 -0.0060
v -0.4000 0.4950 -0.0060
v -0.4000 0.4950 -0.0180
v -0.2667 0.4950 -0.0180
f 298/1 297/1 296/1 295/1
v -0.2667 0.4950 -0.0180
v -0.4000 0.4950 -0.0180
v -0.4000 0.4450 -0.0180
v -0.2667 0.4450 -0.0180
f 302/1 301/1 300/1 299/1
v -0.2667 0.4450 -0.0060
v -0.4000 0.4450 -0.0060
v -0.4000 0.4950 -0.0060
v -0.2667 0.4950 -0.0060
f 306/1 305/1 304/1 303/1
o Belt
usemtl wi_rubber
v 0.3100 0.0305 -0.0043
v 0.3100 0.0695 0.0043
v 0.3100 0.1795 -0.4957
v 0.3100 0.1405 -0.5043
f 310/1 309/1 308/1 307/1
v -0.3100 0.1405 -0.5043
v -0.3100 0.1795 -0.4957
v -0.3100 0.0695 0.0043
v -0.3100 0.0305 -0.0043
f 314/1 313/1 312/1 311/1
v 0.3100 0.1405 -0.5043
v -0.3100 0.1405 -0.5043
v -0.3100 0.0305 -0.0043
v 0.3100 0.0305 -0.0043
f 318/1 317/1 316/1 315/1
v 0.3100 0.0695 0.0043
v -0.3100 0.0695 0.0043
v -0.3100 0.1795 -0.4957
v 0.3100 0.1795 -0.4957
f 322/1 321/1 320/1 319/1
v 0.3100 0.1795 -0.4957
v -0.3100 0.1795 -0.4957
v -0.3100 0.1405 -0.5043
v 0.3100 0.1405 -0.5043
f 326/1 325/1 324/1 323/1
v 0.3100 0.0305 -0.0043
v -0.3100 0.0305 -0.0043
v -0.3100 0.0695 0.0043
v 0.3100 0.0695 0.0043
f 330/1 329/1 328/1 327/1
o Frame
usemtl wi_teal
v 0.3950 0.0400 0.0000
v 0.3950 0.2400 0.0000
v 0.3950 0.2400 -0.5000
v 0.3950 0.0400 -0.5000
f 334/1 333/1 332/1 331/1
v 0.3250 0.0400 -0.5000
v 0.3250 0.2400 -0.5000
v 0.3250 0.2400 0.0000
v 0.3250 0.0400 0.0000
f 338/1 337/1 336/1 335/1
v 0.3950 0.0400 -0.5000
v 0.3250 0.0400 -0.5000
v 0.3250 0.0400 0.0000
v 0.3950 0.0400 0.0000
f 342/1 341/1 340/1 339/1
v 0.3950 0.2400 0.0000
v 0.3250 0.2400 0.0000
v 0.3250 0.2400 -0.5000
v 0.3950 0.2400 -0.5000
f 346/1 345/1 344/1 343/1
v 0.3950 0.2400 -0.5000
v 0.3250 0.2400 -0.5000
v 0.3250 0.0400 -0.5000
v 0.3950 0.0400 -0.5000
f 350/1 349/1 348/1 347/1
v 0.3950 0.0400 0.0000
v 0.3250 0.0400 0.0000
v 0.3250 0.2400 0.0000
v 0.3950 0.2400 0.0000
f 354/1 353/1 352/1 351/1
usemtl wi_copper
v 0.4000 0.2375 0.0000
v 0.4000 0.2625 0.0000
v 0.4000 0.2625 -0.5000
v 0.4000 0.2375 -0.5000
f 358/1 357/1 356/1 355/1
v 0.3200 0.2375 -0.5000
v 0.3200 0.2625 -0.5000
v 0.3200 0.2625 0.0000
v 0.3200 0.2375 0.0000
f 362/1 361/1 360/1 359/1
v 0.4000 0.2375 -0.5000
v 0.3200 0.2375 -0.5000
v 0.3200 0.2375 0.0000
v 0.4000 0.2375 0.0000
f 366/1 365/1 364/1 363/1
v 0.4000 0.2625 0.0000
v 0.3200 0.2625 0.0000
v 0.3200 0.2625 -0.5000
v 0.4000 0.2625 -0.5000
f 370/1 369/1 368/1 367/1
v 0.4000 0.2625 -0.5000
v 0.3200 0.2625 -0.5000
v 0.3200 0.2375 -0.5000
v 0.4000 0.2375 -0.5000
f 374/1 373/1 372/1 371/1
v 0.4000 0.2375 0.0000
v 0.3200 0.2375 0.0000
v 0.3200 0.2625 0.0000
v 0.4000 0.2625 0.0000
f 378/1 377/1 376/1 375/1
usemtl wi_teal
v -0.3250 0.0400 0.0000
v -0.3250 0.2400 0.0000
v -0.3250 0.2400 -0.5000
v -0.3250 0.0400 -0.5000
f 382/1 381/1 380/1 379/1
v -0.3950 0.0400 -0.5000
v -0.3950 0.2400 -0.5000
v -0.3950 0.2400 0.0000
v -0.3950 0.0400 0.0000
f 386/1 385/1 384/1 383/1
v -0.3250 0.0400 -0.5000
v -0.3950 0.0400 -0.5000
v -0.3950 0.0400 0.0000
v -0.3250 0.0400 0.0000
f 390/1 389/1 388/1 387/1
v -0.3250 0.2400 0.0000
v -0.3950 0.2400 0.0000
v -0.3950 0.2400 -0.5000
v -0.3250 0.2400 -0.5000
f 394/1 393/1 392/1 391/1
v -0.3250 0.2400 -0.5000
v -0.3950 0.2400 -0.5000
v -0.3950 0.0400 -0.5000
v -0.3250 0.0400 -0.5000
f 398/1 397/1 396/1 395/1
v -0.3250 0.0400 0.0000
v -0.3950 0.0400 0.0000
v -0.3950 0.2400 0.0000
v -0.3250 0.2400 0.0000
f 402/1 401/1 400/1 399/1
usemtl wi_copper
v -0.3200 0.2375 0.0000
v -0.3200 0.2625 0.0000
v -0.3200 0.2625 -0.5000
v -0.3200 0.2375 -0.5000
f 406/1 405/1 404/1 403/1
v -0.4000 0.2375 -0.5000
v -0.4000 0.2625 -0.5000
v -0.4000 0.2625 0.0000
v -0.4000 0.2375 0.0000
f 410/1 409/1 408/1 407/1
v -0.3200 0.2375 -0.5000
v -0.4000 0.2375 -0.5000
v -0.4000 0.2375 0.0000
v -0.3200 0.2375 0.0000
f 414/1 413/1 412/1 411/1
v -0.3200 0.2625 0.0000
v -0.4000 0.2625 0.0000
v -0.4000 0.2625 -0.5000
v -0.3200 0.2625 -0.5000
f 418/1 417/1 416/1 415/1
v -0.3200 0.2625 -0.5000
v -0.4000 0.2625 -0.5000
v -0.4000 0.2375 -0.5000
v -0.3200 0.2375 -0.5000
f 422/1 421/1 420/1 419/1
v -0.3200 0.2375 0.0000
v -0.4000 0.2375 0.0000
v -0.4000 0.2625 0.0000
v -0.3200 0.2625 0.0000
f 426/1 425/1 424/1 423/1
o Arrows
usemtl wi_yellow
v 0.1218 0.1800 -0.3232
v 0.1218 0.1920 -0.3232
v -0.0212 0.1920 -0.1802
v -0.0212 0.1800 -0.1802
f 430/1 429/1 428/1 427/1
v 0.0212 0.1800 -0.1378
v 0.0212 0.1920 -0.1378
v 0.1642 0.1920 -0.2808
v 0.1642 0.1800 -0.2808
f 434/1 433/1 432/1 431/1
v -0.0212 0.1800 -0.1802
v 0.0212 0.1800 -0.1378
v 0.1642 0.1800 -0.2808
v 0.1218 0.1800 -0.3232
f 438/1 437/1 436/1 435/1
v 0.1218 0.1920 -0.3232
v 0.1642 0.1920 -0.2808
v 0.0212 0.1920 -0.1378
v -0.0212 0.1920 -0.1802
f 442/1 441/1 440/1 439/1
v -0.0212 0.1920 -0.1802
v 0.0212 0.1920 -0.1378
v 0.0212 0.1800 -0.1378
v -0.0212 0.1800 -0.1802
f 446/1 445/1 444/1 443/1
v 0.1218 0.1800 -0.3232
v 0.1642 0.1800 -0.2808
v 0.1642 0.1920 -0.2808
v 0.1218 0.1920 -0.3232
f 450/1 449/1 448/1 447/1
v -0.1642 0.1800 -0.2808
v -0.1642 0.1920 -0.2808
v -0.0212 0.1920 -0.1378
v -0.0212 0.1800 -0.1378
f 454/1 453/1 452/1 451/1
v 0.0212 0.1800 -0.1802
v 0.0212 0.1920 -0.1802
v -0.1218 0.1920 -0.3232
v -0.1218 0.1800 -0.3232
f 458/1 457/1 456/1 455/1
v -0.0212 0.1800 -0.1378
v 0.0212 0.1800 -0.1802
v -0.1218 0.1800 -0.3232
v -0.1642 0.1800 -0.2808
f 462/1 461/1 460/1 459/1
v -0.1642 0.1920 -0.2808
v -0.1218 0.1920 -0.3232
v 0.0212 0.1920 -0.1802
v -0.0212 0.1920 -0.1378
f 466/1 465/1 464/1 463/1
v -0.0212 0.1920 -0.1378
v 0.0212 0.1920 -0.1802
v 0.0212 0.1800 -0.1802
v -0.0212 0.1800 -0.1378
f 470/1 469/1 468/1 467/1
v -0.1642 0.1800 -0.2808
v -0.1218 0.1800 -0.3232
v -0.1218 0.1920 -0.3232
v -0.1642 0.1920 -0.2808
f 474/1 473/1 472/1 471/1
v 0.1403 0.6140 0.1553
v 0.1403 0.6260 0.1553
v -0.0247 0.6260 0.3203
v -0.0247 0.6140 0.3203
f 478/1 477/1 476/1 475/1
v 0.0247 0.6140 0.3697
v 0.0247 0.6260 0.3697
v 0.1897 0.6260 0.2047
v 0.1897 0.6140 0.2047
f 482/1 481/1 480/1 479/1
v -0.0247 0.6140 0.3203
v 0.0247 0.6140 0.3697
v 0.1897 0.6140 0.2047
v 0.1403 0.6140 0.1553
f 486/1 485/1 484/1 483/1
v 0.1403 0.6260 0.1553
v 0.1897 0.6260 0.2047
v 0.0247 0.6260 0.3697
v -0.0247 0.6260 0.3203
f 490/1 489/1 488/1 487/1
v -0.0247 0.6260 0.3203
v 0.0247 0.6260 0.3697
v 0.0247 0.6140 0.3697
v -0.0247 0.6140 0.3203
f 494/1 493/1 492/1 491/1
v 0.1403 0.6140 0.1553
v 0.1897 0.6140 0.2047
v 0.1897 0.6260 0.2047
v 0.1403 0.6260 0.1553
f 498/1 497/1 496/1 495/1
v -0.1897 0.6140 0.2047
v -0.1897 0.6260 0.2047
v -0.0247 0.6260 0.3697
v -0.0247 0.6140 0.3697
f 502/1 501/1 500/1 499/1
v 0.0247 0.6140 0.3203
v 0.0247 0.6260 0.3203
v -0.1403 0.6260 0.1553
v -0.1403 0.6140 0.1553
f 506/1 505/1 504/1 503/1
v -0.0247 0.6140 0.3697
v 0.0247 0.6140 0.3203
v -0.1403 0.6140 0.1553
v -0.1897 0.6140 0.2047
f 510/1 509/1 508/1 507/1
v -0.1897 0.6260 0.2047
v -0.1403 0.6260 0.1553
v 0.0247 0.6260 0.3203
v -0.0247 0.6260 0.3697
f 514/1 513/1 512/1 511/1
v -0.0247 0.6260 0.3697
v 0.0247 0.6260 0.3203
v 0.0247 0.6140 0.3203
v -0.0247 0.6140 0.3697
f 518/1 517/1 516/1 515/1
v -0.1897 0.6140 0.2047
v -0.1403 0.6140 0.1553
v -0.1403 0.6260 0.1553
v -0.1897 0.6260 0.2047
f 522/1 521/1 520/1 519/1
o Lamp
usemtl wi_lamp
v -0.3350 0.5950 0.4250
v -0.3350 0.6450 0.4250
v -0.3350 0.6450 0.3750
v -0.3350 0.5950 0.3750
f 526/1 525/1 524/1 523/1
v -0.3850 0.5950 0.3750
v -0.3850 0.6450 0.3750
v -0.3850 0.6450 0.4250
v -0.3850 0.5950 0.4250
f 530/1 529/1 528/1 527/1
v -0.3350 0.5950 0.3750
v -0.3850 0.5950 0.3750
v -0.3850 0.5950 0.4250
v -0.3350 0.5950 0.4250
f 534/1 533/1 532/1 531/1
v -0.3350 0.6450 0.4250
v -0.3850 0.6450 0.4250
v -0.3850 0.6450 0.3750
v -0.3350 0.6450 0.3750
f 538/1 537/1 536/1 535/1
v -0.3350 0.6450 0.3750
v -0.3850 0.6450 0.3750
v -0.3850 0.5950 0.3750
v -0.3350 0.5950 0.3750
f 542/1 541/1 540/1 539/1
v -0.3350 0.5950 0.4250
v -0.3850 0.5950 0.4250
v -0.3850 0.6450 0.4250
v -0.3350 0.6450 0.4250
f 546/1 545/1 544/1 543/1
