# Walk of Industry low-poly (generated, wi_lib.py)
mtllib wi.mtl
vt 0 0
vt 0.03125 0.03125
vt 0.09375 0.03125
vt 0.15625 0.03125
vt 0.21875 0.03125
vt 0.28125 0.03125
vt 0.34375 0.03125
vt 0.40625 0.03125
vt 0.46875 0.03125
vt 0.53125 0.03125
vt 0.59375 0.03125
vt 0.65625 0.03125
vt 0.71875 0.03125
vt 0.78125 0.03125
vt 0.84375 0.03125
vt 0.90625 0.03125
vt 0.96875 0.03125
vt 0.03125 0.09375
vt 0.09375 0.09375
vt 0.15625 0.09375
vt 0.21875 0.09375
vt 0.28125 0.09375
vt 0.34375 0.09375
vt 0.40625 0.09375
vt 0.46875 0.09375
vt 0.53125 0.09375
vt 0.59375 0.09375
vt 0.65625 0.09375
vt 0.71875 0.09375
vt 0.78125 0.09375
vt 0.84375 0.09375
vt 0.90625 0.09375
vt 0.96875 0.09375
o Body
usemtl wi_palette
v 0.4800 0.0000 0.4800
v 0.4800 0.0800 0.4800
v 0.4800 0.0800 -0.4800
v 0.4800 0.0000 -0.4800
f 4/5 3/5 2/5 1/5
v -0.4800 0.0000 -0.4800
v -0.4800 0.0800 -0.4800
v -0.4800 0.0800 0.4800
v -0.4800 0.0000 0.4800
f 8/5 7/5 6/5 5/5
v 0.4800 0.0000 -0.4800
v -0.4800 0.0000 -0.4800
v -0.4800 0.0000 0.4800
v 0.4800 0.0000 0.4800
f 12/5 11/5 10/5 9/5
v 0.4800 0.0800 0.4800
v -0.4800 0.0800 0.4800
v -0.4800 0.0800 -0.4800
v 0.4800 0.0800 -0.4800
f 16/5 15/5 14/5 13/5
v 0.4800 0.0800 -0.4800
v -0.4800 0.0800 -0.4800
v -0.4800 0.0000 -0.4800
v 0.4800 0.0000 -0.4800
f 20/5 19/5 18/5 17/5
v 0.4800 0.0000 0.4800
v -0.4800 0.0000 0.4800
v -0.4800 0.0800 0.4800
v 0.4800 0.0800 0.4800
f 24/5 23/5 22/5 21/5
v 0.4100 0.0800 0.4100
v 0.4100 0.7000 0.4100
v 0.4100 0.7000 -0.4100
v 0.4100 0.0800 -0.4100
f 28/2 27/2 26/2 25/2
v -0.4100 0.0800 -0.4100
v -0.4100 0.7000 -0.4100
v -0.4100 0.7000 0.4100
v -0.4100 0.0800 0.4100
f 32/2 31/2 30/2 29/2
v 0.4100 0.0800 -0.4100
v -0.4100 0.0800 -0.4100
v -0.4100 0.0800 0.4100
v 0.4100 0.0800 0.4100
f 36/2 35/2 34/2 33/2
v 0.4100 0.7000 0.4100
v -0.4100 0.7000 0.4100
v -0.4100 0.7000 -0.4100
v 0.4100 0.7000 -0.4100
f 40/2 39/2 38/2 37/2
v 0.4100 0.7000 -0.4100
v -0.4100 0.7000 -0.4100
v -0.4100 0.0800 -0.4100
v 0.4100 0.0800 -0.4100
f 44/2 43/2 42/2 41/2
v 0.4100 0.0800 0.4100
v -0.4100 0.0800 0.4100
v -0.4100 0.7000 0.4100
v 0.4100 0.7000 0.4100
f 48/2 47/2 46/2 45/2
v 0.4300 0.7000 0.4300
v 0.4300 0.7600 0.4300
v 0.4300 0.7600 -0.4300
v 0.4300 0.7000 -0.4300
f 52/4 51/4 50/4 49/4
v -0.4300 0.7000 -0.4300
v -0.4300 0.7600 -0.4300
v -0.4300 0.7600 0.4300
v -0.4300 0.7000 0.4300
f 56/4 55/4 54/4 53/4
v 0.4300 0.7000 -0.4300
v -0.4300 0.7000 -0.4300
v -0.4300 0.7000 0.4300
v 0.4300 0.7000 0.4300
f 60/4 59/4 58/4 57/4
v 0.4300 0.7600 0.4300
v -0.4300 0.7600 0.4300
v -0.4300 0.7600 -0.4300
v 0.4300 0.7600 -0.4300
f 64/4 63/4 62/4 61/4
v 0.4300 0.7600 -0.4300
v -0.4300 0.7600 -0.4300
v -0.4300 0.7000 -0.4300
v 0.4300 0.7000 -0.4300
f 68/4 67/4 66/4 65/4
v 0.4300 0.7000 0.4300
v -0.4300 0.7000 0.4300
v -0.4300 0.7600 0.4300
v 0.4300 0.7600 0.4300
f 72/4 71/4 70/4 69/4
v -0.4070 0.3210 0.2600
v -0.4070 0.5210 0.2600
v -0.4070 0.5210 -0.1000
v -0.4070 0.3210 -0.1000
f 76/12 75/12 74/12 73/12
v -0.4170 0.3210 -0.1000
v -0.4170 0.5210 -0.1000
v -0.4170 0.5210 0.2600
v -0.4170 0.3210 0.2600
f 80/12 79/12 78/12 77/12
v -0.4070 0.3210 -0.1000
v -0.4170 0.3210 -0.1000
v -0.4170 0.3210 0.2600
v -0.4070 0.3210 0.2600
f 84/12 83/12 82/12 81/12
v -0.4070 0.5210 0.2600
v -0.4170 0.5210 0.2600
v -0.4170 0.5210 -0.1000
v -0.4070 0.5210 -0.1000
f 88/12 87/12 86/12 85/12
v -0.4070 0.5210 -0.1000
v -0.4170 0.5210 -0.1000
v -0.4170 0.3210 -0.1000
v -0.4070 0.3210 -0.1000
f 92/12 91/12 90/12 89/12
v -0.4070 0.3210 0.2600
v -0.4170 0.3210 0.2600
v -0.4170 0.5210 0.2600
v -0.4070 0.5210 0.2600
f 96/12 95/12 94/12 93/12
v 0.3600 0.7300 0.0300
v 0.3600 1.0700 0.0300
v 0.3600 1.0700 -0.0300
v 0.3600 0.7300 -0.0300
f 100/6 99/6 98/6 97/6
v 0.3000 0.7300 -0.0300
v 0.3000 1.0700 -0.0300
v 0.3000 1.0700 0.0300
v 0.3000 0.7300 0.0300
f 104/6 103/6 102/6 101/6
v 0.3600 0.7300 -0.0300
v 0.3000 0.7300 -0.0300
v 0.3000 0.7300 0.0300
v 0.3600 0.7300 0.0300
f 108/6 107/6 106/6 105/6
v 0.3600 1.0700 0.0300
v 0.3000 1.0700 0.0300
v 0.3000 1.0700 -0.0300
v 0.3600 1.0700 -0.0300
f 112/6 111/6 110/6 109/6
v 0.3600 1.0700 -0.0300
v 0.3000 1.0700 -0.0300
v 0.3000 0.7300 -0.0300
v 0.3600 0.7300 -0.0300
f 116/6 115/6 114/6 113/6
v 0.3600 0.7300 0.0300
v 0.3000 0.7300 0.0300
v 0.3000 1.0700 0.0300
v 0.3600 1.0700 0.0300
f 120/6 119/6 118/6 117/6
v -0.3000 0.7300 0.0300
v -0.3000 1.0700 0.0300
v -0.3000 1.0700 -0.0300
v -0.3000 0.7300 -0.0300
f 124/6 123/6 122/6 121/6
v -0.3600 0.7300 -0.0300
v -0.3600 1.0700 -0.0300
v -0.3600 1.0700 0.0300
v -0.3600 0.7300 0.0300
f 128/6 127/6 126/6 125/6
v -0.3000 0.7300 -0.0300
v -0.3600 0.7300 -0.0300
v -0.3600 0.7300 0.0300
v -0.3000 0.7300 0.0300
f 132/6 131/6 130/6 129/6
v -0.3000 1.0700 0.0300
v -0.3600 1.0700 0.0300
v -0.3600 1.0700 -0.0300
v -0.3000 1.0700 -0.0300
f 136/6 135/6 134/6 133/6
v -0.3000 1.0700 -0.0300
v -0.3600 1.0700 -0.0300
v -0.3600 0.7300 -0.0300
v -0.3000 0.7300 -0.0300
f 140/6 139/6 138/6 137/6
v -0.3000 0.7300 0.0300
v -0.3600 0.7300 0.0300
v -0.3600 1.0700 0.0300
v -0.3000 1.0700 0.0300
f 144/6 143/6 142/6 141/6
v 0.3600 1.0500 0.0400
v 0.3600 1.1100 0.0400
v 0.3600 1.1100 -0.0400
v 0.3600 1.0500 -0.0400
f 148/6 147/6 146/6 145/6
v -0.3600 1.0500 -0.0400
v -0.3600 1.1100 -0.0400
v -0.3600 1.1100 0.0400
v -0.3600 1.0500 0.0400
f 152/6 151/6 150/6 149/6
v 0.3600 1.0500 -0.0400
v -0.3600 1.0500 -0.0400
v -0.3600 1.0500 0.0400
v 0.3600 1.0500 0.0400
f 156/6 155/6 154/6 153/6
v 0.3600 1.1100 0.0400
v -0.3600 1.1100 0.0400
v -0.3600 1.1100 -0.0400
v 0.3600 1.1100 -0.0400
f 160/6 159/6 158/6 157/6
v 0.3600 1.1100 -0.0400
v -0.3600 1.1100 -0.0400
v -0.3600 1.0500 -0.0400
v 0.3600 1.0500 -0.0400
f 164/6 163/6 162/6 161/6
v 0.3600 1.0500 0.0400
v -0.3600 1.0500 0.0400
v -0.3600 1.1100 0.0400
v 0.3600 1.1100 0.0400
f 168/6 167/6 166/6 165/6
v 0.4000 0.1700 0.4210
v 0.4000 0.2300 0.4210
v 0.4000 0.2300 0.4090
v 0.4000 0.1700 0.4090
f 172/8 171/8 170/8 169/8
v 0.2667 0.1700 0.4090
v 0.2667 0.2300 0.4090
v 0.2667 0.2300 0.4210
v 0.2667 0.1700 0.4210
f 176/8 175/8 174/8 173/8
v 0.4000 0.1700 0.4090
v 0.2667 0.1700 0.4090
v 0.2667 0.1700 0.4210
v 0.4000 0.1700 0.4210
f 180/8 179/8 178/8 177/8
v 0.4000 0.2300 0.4210
v 0.2667 0.2300 0.4210
v 0.2667 0.2300 0.4090
v 0.4000 0.2300 0.4090
f 184/8 183/8 182/8 181/8
v 0.4000 0.2300 0.4090
v 0.2667 0.2300 0.4090
v 0.2667 0.1700 0.4090
v 0.4000 0.1700 0.4090
f 188/8 187/8 186/8 185/8
v 0.4000 0.1700 0.4210
v 0.2667 0.1700 0.4210
v 0.2667 0.2300 0.4210
v 0.4000 0.2300 0.4210
f 192/8 191/8 190/8 189/8
v 0.2667 0.1700 0.4210
v 0.2667 0.2300 0.4210
v 0.2667 0.2300 0.4090
v 0.2667 0.1700 0.4090
f 196/6 195/6 194/6 193/6
v 0.1333 0.1700 0.4090
v 0.1333 0.2300 0.4090
v 0.1333 0.2300 0.4210
v 0.1333 0.1700 0.4210
f 200/6 199/6 198/6 197/6
v 0.2667 0.1700 0.4090
v 0.1333 0.1700 0.4090
v 0.1333 0.1700 0.4210
v 0.2667 0.1700 0.4210
f 204/6 203/6 202/6 201/6
v 0.2667 0.2300 0.4210
v 0.1333 0.2300 0.4210
v 0.1333 0.2300 0.4090
v 0.2667 0.2300 0.4090
f 208/6 207/6 206/6 205/6
v 0.2667 0.2300 0.4090
v 0.1333 0.2300 0.4090
v 0.1333 0.1700 0.4090
v 0.2667 0.1700 0.4090
f 212/6 211/6 210/6 209/6
v 0.2667 0.1700 0.4210
v 0.1333 0.1700 0.4210
v 0.1333 0.2300 0.4210
v 0.2667 0.2300 0.4210
f 216/6 215/6 214/6 213/6
v 0.1333 0.1700 0.4210
v 0.1333 0.2300 0.4210
v 0.1333 0.2300 0.4090
v 0.1333 0.1700 0.4090
f 220/8 219/8 218/8 217/8
v 0.0000 0.1700 0.4090
v 0.0000 0.2300 0.4090
v 0.0000 0.2300 0.4210
v 0.0000 0.1700 0.4210
f 224/8 223/8 222/8 221/8
v 0.1333 0.1700 0.4090
v 0.0000 0.1700 0.4090
v 0.0000 0.1700 0.4210
v 0.1333 0.1700 0.4210
f 228/8 227/8 226/8 225/8
v 0.1333 0.2300 0.4210
v 0.0000 0.2300 0.4210
v 0.0000 0.2300 0.4090
v 0.1333 0.2300 0.4090
f 232/8 231/8 230/8 229/8
v 0.1333 0.2300 0.4090
v 0.0000 0.2300 0.4090
v 0.0000 0.1700 0.4090
v 0.1333 0.1700 0.4090
f 236/8 235/8 234/8 233/8
v 0.1333 0.1700 0.4210
v 0.0000 0.1700 0.4210
v 0.0000 0.2300 0.4210
v 0.1333 0.2300 0.4210
f 240/8 239/8 238/8 237/8
v 0.0000 0.1700 0.4210
v 0.0000 0.2300 0.4210
v 0.0000 0.2300 0.4090
v 0.0000 0.1700 0.4090
f 244/6 243/6 242/6 241/6
v -0.1333 0.1700 0.4090
v -0.1333 0.2300 0.4090
v -0.1333 0.2300 0.4210
v -0.1333 0.1700 0.4210
f 248/6 247/6 246/6 245/6
v 0.0000 0.1700 0.4090
v -0.1333 0.1700 0.4090
v -0.1333 0.1700 0.4210
v 0.0000 0.1700 0.4210
f 252/6 251/6 250/6 249/6
v 0.0000 0.2300 0.4210
v -0.1333 0.2300 0.4210
v -0.1333 0.2300 0.4090
v 0.0000 0.2300 0.4090
f 256/6 255/6 254/6 253/6
v 0.0000 0.2300 0.4090
v -0.1333 0.2300 0.4090
v -0.1333 0.1700 0.4090
v 0.0000 0.1700 0.4090
f 260/6 259/6 258/6 257/6
v 0.0000 0.1700 0.4210
v -0.1333 0.1700 0.4210
v -0.1333 0.2300 0.4210
v 0.0000 0.2300 0.4210
f 264/6 263/6 262/6 261/6
v -0.1333 0.1700 0.4210
v -0.1333 0.2300 0.4210
v -0.1333 0.2300 0.4090
v -0.1333 0.1700 0.4090
f 268/8 267/8 266/8 265/8
v -0.2667 0.1700 0.4090
v -0.2667 0.2300 0.4090
v -0.2667 0.2300 0.4210
v -0.2667 0.1700 0.4210
f 272/8 271/8 270/8 269/8
v -0.1333 0.1700 0.4090
v -0.2667 0.1700 0.4090
v -0.2667 0.1700 0.4210
v -0.1333 0.1700 0.4210
f 276/8 275/8 274/8 273/8
v -0.1333 0.2300 0.4210
v -0.2667 0.2300 0.4210
v -0.2667 0.2300 0.4090
v -0.1333 0.2300 0.4090
f 280/8 279/8 278/8 277/8
v -0.1333 0.2300 0.4090
v -0.2667 0.2300 0.4090
v -0.2667 0.1700 0.4090
v -0.1333 0.1700 0.4090
f 284/8 283/8 282/8 281/8
v -0.1333 0.1700 0.4210
v -0.2667 0.1700 0.4210
v -0.2667 0.2300 0.4210
v -0.1333 0.2300 0.4210
f 288/8 287/8 286/8 285/8
v -0.2667 0.1700 0.4210
v -0.2667 0.2300 0.4210
v -0.2667 0.2300 0.4090
v -0.2667 0.1700 0.4090
f 292/6 291/6 290/6 289/6
v -0.4000 0.1700 0.4090
v -0.4000 0.2300 0.4090
v -0.4000 0.2300 0.4210
v -0.4000 0.1700 0.4210
f 296/6 295/6 294/6 293/6
v -0.2667 0.1700 0.4090
v -0.4000 0.1700 0.4090
v -0.4000 0.1700 0.4210
v -0.2667 0.1700 0.4210
f 300/6 299/6 298/6 297/6
v -0.2667 0.2300 0.4210
v -0.4000 0.2300 0.4210
v -0.4000 0.2300 0.4090
v -0.2667 0.2300 0.4090
f 304/6 303/6 302/6 301/6
v -0.2667 0.2300 0.4090
v -0.4000 0.2300 0.4090
v -0.4000 0.1700 0.4090
v -0.2667 0.1700 0.4090
f 308/6 307/6 306/6 305/6
v -0.2667 0.1700 0.4210
v -0.4000 0.1700 0.4210
v -0.4000 0.2300 0.4210
v -0.2667 0.2300 0.4210
f 312/6 311/6 310/6 309/6
v 0.4350 0.0800 -0.3850
v 0.4350 0.7000 -0.3850
v 0.4350 0.7000 -0.4350
v 0.4350 0.0800 -0.4350
f 316/4 315/4 314/4 313/4
v 0.3850 0.0800 -0.4350
v 0.3850 0.7000 -0.4350
v 0.3850 0.7000 -0.3850
v 0.3850 0.0800 -0.3850
f 320/4 319/4 318/4 317/4
v 0.4350 0.0800 -0.4350
v 0.3850 0.0800 -0.4350
v 0.3850 0.0800 -0.3850
v 0.4350 0.0800 -0.3850
f 324/4 323/4 322/4 321/4
v 0.4350 0.7000 -0.3850
v 0.3850 0.7000 -0.3850
v 0.3850 0.7000 -0.4350
v 0.4350 0.7000 -0.4350
f 328/4 327/4 326/4 325/4
v 0.4350 0.7000 -0.4350
v 0.3850 0.7000 -0.4350
v 0.3850 0.0800 -0.4350
v 0.4350 0.0800 -0.4350
f 332/4 331/4 330/4 329/4
v 0.4350 0.0800 -0.3850
v 0.3850 0.0800 -0.3850
v 0.3850 0.7000 -0.3850
v 0.4350 0.7000 -0.3850
f 336/4 335/4 334/4 333/4
v 0.4350 0.0800 0.4350
v 0.4350 0.7000 0.4350
v 0.4350 0.7000 0.3850
v 0.4350 0.0800 0.3850
f 340/4 339/4 338/4 337/4
v 0.3850 0.0800 0.3850
v 0.3850 0.7000 0.3850
v 0.3850 0.7000 0.4350
v 0.3850 0.0800 0.4350
f 344/4 343/4 342/4 341/4
v 0.4350 0.0800 0.3850
v 0.3850 0.0800 0.3850
v 0.3850 0.0800 0.4350
v 0.4350 0.0800 0.4350
f 348/4 347/4 346/4 345/4
v 0.4350 0.7000 0.4350
v 0.3850 0.7000 0.4350
v 0.3850 0.7000 0.3850
v 0.4350 0.7000 0.3850
f 352/4 351/4 350/4 349/4
v 0.4350 0.7000 0.3850
v 0.3850 0.7000 0.3850
v 0.3850 0.0800 0.3850
v 0.4350 0.0800 0.3850
f 356/4 355/4 354/4 353/4
v 0.4350 0.0800 0.4350
v 0.3850 0.0800 0.4350
v 0.3850 0.7000 0.4350
v 0.4350 0.7000 0.4350
f 360/4 359/4 358/4 357/4
v -0.3850 0.0800 -0.3850
v -0.3850 0.7000 -0.3850
v -0.3850 0.7000 -0.4350
v -0.3850 0.0800 -0.4350
f 364/4 363/4 362/4 361/4
v -0.4350 0.0800 -0.4350
v -0.4350 0.7000 -0.4350
v -0.4350 0.7000 -0.3850
v -0.4350 0.0800 -0.3850
f 368/4 367/4 366/4 365/4
v -0.3850 0.0800 -0.4350
v -0.4350 0.0800 -0.4350
v -0.4350 0.0800 -0.3850
v -0.3850 0.0800 -0.3850
f 372/4 371/4 370/4 369/4
v -0.3850 0.7000 -0.3850
v -0.4350 0.7000 -0.3850
v -0.4350 0.7000 -0.4350
v -0.3850 0.7000 -0.4350
f 376/4 375/4 374/4 373/4
v -0.3850 0.7000 -0.4350
v -0.4350 0.7000 -0.4350
v -0.4350 0.0800 -0.4350
v -0.3850 0.0800 -0.4350
f 380/4 379/4 378/4 377/4
v -0.3850 0.0800 -0.3850
v -0.4350 0.0800 -0.3850
v -0.4350 0.7000 -0.3850
v -0.3850 0.7000 -0.3850
f 384/4 383/4 382/4 381/4
v -0.3850 0.0800 0.4350
v -0.3850 0.7000 0.4350
v -0.3850 0.7000 0.3850
v -0.3850 0.0800 0.3850
f 388/4 387/4 386/4 385/4
v -0.4350 0.0800 0.3850
v -0.4350 0.7000 0.3850
v -0.4350 0.7000 0.4350
v -0.4350 0.0800 0.4350
f 392/4 391/4 390/4 389/4
v -0.3850 0.0800 0.3850
v -0.4350 0.0800 0.3850
v -0.4350 0.0800 0.4350
v -0.3850 0.0800 0.4350
f 396/4 395/4 394/4 393/4
v -0.3850 0.7000 0.4350
v -0.4350 0.7000 0.4350
v -0.4350 0.7000 0.3850
v -0.3850 0.7000 0.3850
f 400/4 399/4 398/4 397/4
v -0.3850 0.7000 0.3850
v -0.4350 0.7000 0.3850
v -0.4350 0.0800 0.3850
v -0.3850 0.0800 0.3850
f 404/4 403/4 402/4 401/4
v -0.3850 0.0800 0.4350
v -0.4350 0.0800 0.4350
v -0.4350 0.7000 0.4350
v -0.3850 0.7000 0.4350
f 408/4 407/4 406/4 405/4
v 0.3600 1.0500 0.2900
v 0.3600 1.1100 0.2900
v 0.3600 1.1100 0.2100
v 0.3600 1.0500 0.2100
f 412/6 411/6 410/6 409/6
v -0.3600 1.0500 0.2100
v -0.3600 1.1100 0.2100
v -0.3600 1.1100 0.2900
v -0.3600 1.0500 0.2900
f 416/6 415/6 414/6 413/6
v 0.3600 1.0500 0.2100
v -0.3600 1.0500 0.2100
v -0.3600 1.0500 0.2900
v 0.3600 1.0500 0.2900
f 420/6 419/6 418/6 417/6
v 0.3600 1.1100 0.2900
v -0.3600 1.1100 0.2900
v -0.3600 1.1100 0.2100
v 0.3600 1.1100 0.2100
f 424/6 423/6 422/6 421/6
v 0.3600 1.1100 0.2100
v -0.3600 1.1100 0.2100
v -0.3600 1.0500 0.2100
v 0.3600 1.0500 0.2100
f 428/6 427/6 426/6 425/6
v 0.3600 1.0500 0.2900
v -0.3600 1.0500 0.2900
v -0.3600 1.1100 0.2900
v 0.3600 1.1100 0.2900
f 432/6 431/6 430/6 429/6
v 0.2925 0.7600 -0.2870
v 0.2850 0.7600 -0.3000
v 0.2850 1.2000 -0.3000
v 0.2925 1.2000 -0.2870
f 436/7 435/7 434/7 433/7
v 0.2850 0.7600 -0.3000
v 0.2925 0.7600 -0.3130
v 0.2925 1.2000 -0.3130
v 0.2850 1.2000 -0.3000
f 440/7 439/7 438/7 437/7
v 0.2925 0.7600 -0.3130
v 0.3075 0.7600 -0.3130
v 0.3075 1.2000 -0.3130
v 0.2925 1.2000 -0.3130
f 444/7 443/7 442/7 441/7
v 0.3075 0.7600 -0.3130
v 0.3150 0.7600 -0.3000
v 0.3150 1.2000 -0.3000
v 0.3075 1.2000 -0.3130
f 448/7 447/7 446/7 445/7
v 0.3150 0.7600 -0.3000
v 0.3075 0.7600 -0.2870
v 0.3075 1.2000 -0.2870
v 0.3150 1.2000 -0.3000
f 452/7 451/7 450/7 449/7
v 0.3075 0.7600 -0.2870
v 0.2925 0.7600 -0.2870
v 0.2925 1.2000 -0.2870
v 0.3075 1.2000 -0.2870
f 456/7 455/7 454/7 453/7
v 0.3075 0.7600 -0.2870
v 0.3150 0.7600 -0.3000
v 0.3075 0.7600 -0.3130
v 0.2925 0.7600 -0.3130
v 0.2850 0.7600 -0.3000
v 0.2925 0.7600 -0.2870
f 462/7 461/7 460/7 459/7 458/7 457/7
v 0.2925 1.2000 -0.2870
v 0.2850 1.2000 -0.3000
v 0.2925 1.2000 -0.3130
v 0.3075 1.2000 -0.3130
v 0.3150 1.2000 -0.3000
v 0.3075 1.2000 -0.2870
f 468/7 467/7 466/7 465/7 464/7 463/7
v 0.3300 0.7500 0.3300
v 0.3300 0.8100 0.3300
v 0.3300 0.8100 0.2700
v 0.3300 0.7500 0.2700
f 472/16 471/16 470/16 469/16
v 0.2700 0.7500 0.2700
v 0.2700 0.8100 0.2700
v 0.2700 0.8100 0.3300
v 0.2700 0.7500 0.3300
f 476/16 475/16 474/16 473/16
v 0.3300 0.7500 0.2700
v 0.2700 0.7500 0.2700
v 0.2700 0.7500 0.3300
v 0.3300 0.7500 0.3300
f 480/16 479/16 478/16 477/16
v 0.3300 0.8100 0.3300
v 0.2700 0.8100 0.3300
v 0.2700 0.8100 0.2700
v 0.3300 0.8100 0.2700
f 484/16 483/16 482/16 481/16
v 0.3300 0.8100 0.2700
v 0.2700 0.8100 0.2700
v 0.2700 0.7500 0.2700
v 0.3300 0.7500 0.2700
f 488/16 487/16 486/16 485/16
v 0.3300 0.7500 0.3300
v 0.2700 0.7500 0.3300
v 0.2700 0.8100 0.3300
v 0.3300 0.8100 0.3300
f 492/16 491/16 490/16 489/16
v 0.3250 1.1950 -0.2750
v 0.3250 1.2450 -0.2750
v 0.3250 1.2450 -0.3250
v 0.3250 1.1950 -0.3250
f 496/16 495/16 494/16 493/16
v 0.2750 1.1950 -0.3250
v 0.2750 1.2450 -0.3250
v 0.2750 1.2450 -0.2750
v 0.2750 1.1950 -0.2750
f 500/16 499/16 498/16 497/16
v 0.3250 1.1950 -0.3250
v 0.2750 1.1950 -0.3250
v 0.2750 1.1950 -0.2750
v 0.3250 1.1950 -0.2750
f 504/16 503/16 502/16 501/16
v 0.3250 1.2450 -0.2750
v 0.2750 1.2450 -0.2750
v 0.2750 1.2450 -0.3250
v 0.3250 1.2450 -0.3250
f 508/16 507/16 506/16 505/16
v 0.3250 1.2450 -0.3250
v 0.2750 1.2450 -0.3250
v 0.2750 1.1950 -0.3250
v 0.3250 1.1950 -0.3250
f 512/16 511/16 510/16 509/16
v 0.3250 1.1950 -0.2750
v 0.2750 1.1950 -0.2750
v 0.2750 1.2450 -0.2750
v 0.3250 1.2450 -0.2750
f 516/16 515/16 514/16 513/16
