# Walk of Industry low-poly (generated, wi_lib.py)
mtllib wi.mtl
vt 0 0
vt 0.03125 0.03125
vt 0.09375 0.03125
vt 0.15625 0.03125
vt 0.21875 0.03125
vt 0.28125 0.03125
vt 0.34375 0.03125
vt 0.40625 0.03125
vt 0.46875 0.03125
vt 0.53125 0.03125
vt 0.59375 0.03125
vt 0.65625 0.03125
vt 0.71875 0.03125
vt 0.78125 0.03125
vt 0.84375 0.03125
vt 0.90625 0.03125
vt 0.96875 0.03125
vt 0.03125 0.09375
vt 0.09375 0.09375
vt 0.15625 0.09375
vt 0.21875 0.09375
vt 0.28125 0.09375
vt 0.34375 0.09375
vt 0.40625 0.09375
vt 0.46875 0.09375
vt 0.53125 0.09375
vt 0.59375 0.09375
vt 0.65625 0.09375
vt 0.71875 0.09375
vt 0.78125 0.09375
vt 0.84375 0.09375
vt 0.90625 0.09375
vt 0.96875 0.09375
o Body
usemtl wi_palette
v 0.4800 0.0000 0.4800
v 0.4800 0.0800 0.4800
v 0.4800 0.0800 -0.4800
v 0.4800 0.0000 -0.4800
f 4/5 3/5 2/5 1/5
v -0.4800 0.0000 -0.4800
v -0.4800 0.0800 -0.4800
v -0.4800 0.0800 0.4800
v -0.4800 0.0000 0.4800
f 8/5 7/5 6/5 5/5
v 0.4800 0.0000 -0.4800
v -0.4800 0.0000 -0.4800
v -0.4800 0.0000 0.4800
v 0.4800 0.0000 0.4800
f 12/5 11/5 10/5 9/5
v 0.4800 0.0800 0.4800
v -0.4800 0.0800 0.4800
v -0.4800 0.0800 -0.4800
v 0.4800 0.0800 -0.4800
f 16/5 15/5 14/5 13/5
v 0.4800 0.0800 -0.4800
v -0.4800 0.0800 -0.4800
v -0.4800 0.0000 -0.4800
v 0.4800 0.0000 -0.4800
f 20/5 19/5 18/5 17/5
v 0.4800 0.0000 0.4800
v -0.4800 0.0000 0.4800
v -0.4800 0.0800 0.4800
v 0.4800 0.0800 0.4800
f 24/5 23/5 22/5 21/5
v 0.4100 0.0800 0.4100
v 0.4100 0.5800 0.4100
v 0.4100 0.5800 -0.4100
v 0.4100 0.0800 -0.4100
f 28/2 27/2 26/2 25/2
v -0.4100 0.0800 -0.4100
v -0.4100 0.5800 -0.4100
v -0.4100 0.5800 0.4100
v -0.4100 0.0800 0.4100
f 32/2 31/2 30/2 29/2
v 0.4100 0.0800 -0.4100
v -0.4100 0.0800 -0.4100
v -0.4100 0.0800 0.4100
v 0.4100 0.0800 0.4100
f 36/2 35/2 34/2 33/2
v 0.4100 0.5800 0.4100
v -0.4100 0.5800 0.4100
v -0.4100 0.5800 -0.4100
v 0.4100 0.5800 -0.4100
f 40/2 39/2 38/2 37/2
v 0.4100 0.5800 -0.4100
v -0.4100 0.5800 -0.4100
v -0.4100 0.0800 -0.4100
v 0.4100 0.0800 -0.4100
f 44/2 43/2 42/2 41/2
v 0.4100 0.0800 0.4100
v -0.4100 0.0800 0.4100
v -0.4100 0.5800 0.4100
v 0.4100 0.5800 0.4100
f 48/2 47/2 46/2 45/2
v 0.4300 0.5800 0.4300
v 0.4300 0.6400 0.4300
v 0.4300 0.6400 -0.4300
v 0.4300 0.5800 -0.4300
f 52/4 51/4 50/4 49/4
v -0.4300 0.5800 -0.4300
v -0.4300 0.6400 -0.4300
v -0.4300 0.6400 0.4300
v -0.4300 0.5800 0.4300
f 56/4 55/4 54/4 53/4
v 0.4300 0.5800 -0.4300
v -0.4300 0.5800 -0.4300
v -0.4300 0.5800 0.4300
v 0.4300 0.5800 0.4300
f 60/4 59/4 58/4 57/4
v 0.4300 0.6400 0.4300
v -0.4300 0.6400 0.4300
v -0.4300 0.6400 -0.4300
v 0.4300 0.6400 -0.4300
f 64/4 63/4 62/4 61/4
v 0.4300 0.6400 -0.4300
v -0.4300 0.6400 -0.4300
v -0.4300 0.5800 -0.4300
v 0.4300 0.5800 -0.4300
f 68/4 67/4 66/4 65/4
v 0.4300 0.5800 0.4300
v -0.4300 0.5800 0.4300
v -0.4300 0.6400 0.4300
v 0.4300 0.6400 0.4300
f 72/4 71/4 70/4 69/4
v -0.4070 0.2550 0.2600
v -0.4070 0.4550 0.2600
v -0.4070 0.4550 -0.1000
v -0.4070 0.2550 -0.1000
f 76/12 75/12 74/12 73/12
v -0.4170 0.2550 -0.1000
v -0.4170 0.4550 -0.1000
v -0.4170 0.4550 0.2600
v -0.4170 0.2550 0.2600
f 80/12 79/12 78/12 77/12
v -0.4070 0.2550 -0.1000
v -0.4170 0.2550 -0.1000
v -0.4170 0.2550 0.2600
v -0.4070 0.2550 0.2600
f 84/12 83/12 82/12 81/12
v -0.4070 0.4550 0.2600
v -0.4170 0.4550 0.2600
v -0.4170 0.4550 -0.1000
v -0.4070 0.4550 -0.1000
f 88/12 87/12 86/12 85/12
v -0.4070 0.4550 -0.1000
v -0.4170 0.4550 -0.1000
v -0.4170 0.2550 -0.1000
v -0.4070 0.2550 -0.1000
f 92/12 91/12 90/12 89/12
v -0.4070 0.2550 0.2600
v -0.4170 0.2550 0.2600
v -0.4170 0.4550 0.2600
v -0.4070 0.4550 0.2600
f 96/12 95/12 94/12 93/12
v 0.3600 0.6100 0.0300
v 0.3600 0.9500 0.0300
v 0.3600 0.9500 -0.0300
v 0.3600 0.6100 -0.0300
f 100/6 99/6 98/6 97/6
v 0.3000 0.6100 -0.0300
v 0.3000 0.9500 -0.0300
v 0.3000 0.9500 0.0300
v 0.3000 0.6100 0.0300
f 104/6 103/6 102/6 101/6
v 0.3600 0.6100 -0.0300
v 0.3000 0.6100 -0.0300
v 0.3000 0.6100 0.0300
v 0.3600 0.6100 0.0300
f 108/6 107/6 106/6 105/6
v 0.3600 0.9500 0.0300
v 0.3000 0.9500 0.0300
v 0.3000 0.9500 -0.0300
v 0.3600 0.9500 -0.0300
f 112/6 111/6 110/6 109/6
v 0.3600 0.9500 -0.0300
v 0.3000 0.9500 -0.0300
v 0.3000 0.6100 -0.0300
v 0.3600 0.6100 -0.0300
f 116/6 115/6 114/6 113/6
v 0.3600 0.6100 0.0300
v 0.3000 0.6100 0.0300
v 0.3000 0.9500 0.0300
v 0.3600 0.9500 0.0300
f 120/6 119/6 118/6 117/6
v -0.3000 0.6100 0.0300
v -0.3000 0.9500 0.0300
v -0.3000 0.9500 -0.0300
v -0.3000 0.6100 -0.0300
f 124/6 123/6 122/6 121/6
v -0.3600 0.6100 -0.0300
v -0.3600 0.9500 -0.0300
v -0.3600 0.9500 0.0300
v -0.3600 0.6100 0.0300
f 128/6 127/6 126/6 125/6
v -0.3000 0.6100 -0.0300
v -0.3600 0.6100 -0.0300
v -0.3600 0.6100 0.0300
v -0.3000 0.6100 0.0300
f 132/6 131/6 130/6 129/6
v -0.3000 0.9500 0.0300
v -0.3600 0.9500 0.0300
v -0.3600 0.9500 -0.0300
v -0.3000 0.9500 -0.0300
f 136/6 135/6 134/6 133/6
v -0.3000 0.9500 -0.0300
v -0.3600 0.9500 -0.0300
v -0.3600 0.6100 -0.0300
v -0.3000 0.6100 -0.0300
f 140/6 139/6 138/6 137/6
v -0.3000 0.6100 0.0300
v -0.3600 0.6100 0.0300
v -0.3600 0.9500 0.0300
v -0.3000 0.9500 0.0300
f 144/6 143/6 142/6 141/6
v 0.3600 0.9300 0.0400
v 0.3600 0.9900 0.0400
v 0.3600 0.9900 -0.0400
v 0.3600 0.9300 -0.0400
f 148/6 147/6 146/6 145/6
v -0.3600 0.9300 -0.0400
v -0.3600 0.9900 -0.0400
v -0.3600 0.9900 0.0400
v -0.3600 0.9300 0.0400
f 152/6 151/6 150/6 149/6
v 0.3600 0.9300 -0.0400
v -0.3600 0.9300 -0.0400
v -0.3600 0.9300 0.0400
v 0.3600 0.9300 0.0400
f 156/6 155/6 154/6 153/6
v 0.3600 0.9900 0.0400
v -0.3600 0.9900 0.0400
v -0.3600 0.9900 -0.0400
v 0.3600 0.9900 -0.0400
f 160/6 159/6 158/6 157/6
v 0.3600 0.9900 -0.0400
v -0.3600 0.9900 -0.0400
v -0.3600 0.9300 -0.0400
v 0.3600 0.9300 -0.0400
f 164/6 163/6 162/6 161/6
v 0.3600 0.9300 0.0400
v -0.3600 0.9300 0.0400
v -0.3600 0.9900 0.0400
v 0.3600 0.9900 0.0400
f 168/6 167/6 166/6 165/6
v 0.3300 0.6300 0.3300
v 0.3300 0.6900 0.3300
v 0.3300 0.6900 0.2700
v 0.3300 0.6300 0.2700
f 172/16 171/16 170/16 169/16
v 0.2700 0.6300 0.2700
v 0.2700 0.6900 0.2700
v 0.2700 0.6900 0.3300
v 0.2700 0.6300 0.3300
f 176/16 175/16 174/16 173/16
v 0.3300 0.6300 0.2700
v 0.2700 0.6300 0.2700
v 0.2700 0.6300 0.3300
v 0.3300 0.6300 0.3300
f 180/16 179/16 178/16 177/16
v 0.3300 0.6900 0.3300
v 0.2700 0.6900 0.3300
v 0.2700 0.6900 0.2700
v 0.3300 0.6900 0.2700
f 184/16 183/16 182/16 181/16
v 0.3300 0.6900 0.2700
v 0.2700 0.6900 0.2700
v 0.2700 0.6300 0.2700
v 0.3300 0.6300 0.2700
f 188/16 187/16 186/16 185/16
v 0.3300 0.6300 0.3300
v 0.2700 0.6300 0.3300
v 0.2700 0.6900 0.3300
v 0.3300 0.6900 0.3300
f 192/16 191/16 190/16 189/16
