# Walk of Industry low-poly (generated, wi_lib.py)
mtllib wi.mtl
vt 0 0
vt 0.03125 0.03125
vt 0.09375 0.03125
vt 0.15625 0.03125
vt 0.21875 0.03125
vt 0.28125 0.03125
vt 0.34375 0.03125
vt 0.40625 0.03125
vt 0.46875 0.03125
vt 0.53125 0.03125
vt 0.59375 0.03125
vt 0.65625 0.03125
vt 0.71875 0.03125
vt 0.78125 0.03125
vt 0.84375 0.03125
vt 0.90625 0.03125
vt 0.96875 0.03125
vt 0.03125 0.09375
vt 0.09375 0.09375
vt 0.15625 0.09375
vt 0.21875 0.09375
vt 0.28125 0.09375
vt 0.34375 0.09375
vt 0.40625 0.09375
vt 0.46875 0.09375
vt 0.53125 0.09375
vt 0.59375 0.09375
vt 0.65625 0.09375
vt 0.71875 0.09375
vt 0.78125 0.09375
vt 0.84375 0.09375
vt 0.90625 0.09375
vt 0.96875 0.09375
o Belt
usemtl wi_edge
v -0.4750 0.0600 -0.5000
v -0.4750 0.2500 -0.5000
v -0.4750 0.2500 0.5000
v -0.4750 0.0600 0.5000
f 4/1 3/1 2/1 1/1
v -0.4050 0.0600 0.5000
v -0.4050 0.2500 0.5000
v -0.4050 0.2500 -0.5000
v -0.4050 0.0600 -0.5000
f 8/1 7/1 6/1 5/1
v -0.4750 0.0600 0.5000
v -0.4050 0.0600 0.5000
v -0.4050 0.0600 -0.5000
v -0.4750 0.0600 -0.5000
f 12/1 11/1 10/1 9/1
v -0.4750 0.2500 -0.5000
v -0.4050 0.2500 -0.5000
v -0.4050 0.2500 0.5000
v -0.4750 0.2500 0.5000
f 16/1 15/1 14/1 13/1
v -0.4750 0.0600 -0.5000
v -0.4050 0.0600 -0.5000
v -0.4050 0.2500 -0.5000
v -0.4750 0.2500 -0.5000
f 20/1 19/1 18/1 17/1
v -0.4750 0.2500 0.5000
v -0.4050 0.2500 0.5000
v -0.4050 0.0600 0.5000
v -0.4750 0.0600 0.5000
f 24/1 23/1 22/1 21/1
v 0.4400 0.0600 -0.5000
v 0.4400 0.2500 -0.5000
v 0.4400 0.2500 -0.4400
v 0.4400 0.0600 -0.4400
f 28/1 27/1 26/1 25/1
v 0.5000 0.0600 -0.4400
v 0.5000 0.2500 -0.4400
v 0.5000 0.2500 -0.5000
v 0.5000 0.0600 -0.5000
f 32/1 31/1 30/1 29/1
v 0.4400 0.0600 -0.4400
v 0.5000 0.0600 -0.4400
v 0.5000 0.0600 -0.5000
v 0.4400 0.0600 -0.5000
f 36/1 35/1 34/1 33/1
v 0.4400 0.2500 -0.5000
v 0.5000 0.2500 -0.5000
v 0.5000 0.2500 -0.4400
v 0.4400 0.2500 -0.4400
f 40/1 39/1 38/1 37/1
v 0.4400 0.0600 -0.5000
v 0.5000 0.0600 -0.5000
v 0.5000 0.2500 -0.5000
v 0.4400 0.2500 -0.5000
f 44/1 43/1 42/1 41/1
v 0.4400 0.2500 -0.4400
v 0.5000 0.2500 -0.4400
v 0.5000 0.0600 -0.4400
v 0.4400 0.0600 -0.4400
f 48/1 47/1 46/1 45/1
v 0.4400 0.0600 0.4400
v 0.4400 0.2500 0.4400
v 0.4400 0.2500 0.5000
v 0.4400 0.0600 0.5000
f 52/1 51/1 50/1 49/1
v 0.5000 0.0600 0.5000
v 0.5000 0.2500 0.5000
v 0.5000 0.2500 0.4400
v 0.5000 0.0600 0.4400
f 56/1 55/1 54/1 53/1
v 0.4400 0.0600 0.5000
v 0.5000 0.0600 0.5000
v 0.5000 0.0600 0.4400
v 0.4400 0.0600 0.4400
f 60/1 59/1 58/1 57/1
v 0.4400 0.2500 0.4400
v 0.5000 0.2500 0.4400
v 0.5000 0.2500 0.5000
v 0.4400 0.2500 0.5000
f 64/1 63/1 62/1 61/1
v 0.4400 0.0600 0.4400
v 0.5000 0.0600 0.4400
v 0.5000 0.2500 0.4400
v 0.4400 0.2500 0.4400
f 68/1 67/1 66/1 65/1
v 0.4400 0.2500 0.5000
v 0.5000 0.2500 0.5000
v 0.5000 0.0600 0.5000
v 0.4400 0.0600 0.5000
f 72/1 71/1 70/1 69/1
usemtl wi_palette
v -0.3850 0.0700 -0.4800
v -0.3850 0.1300 -0.4800
v -0.3850 0.1300 0.4800
v -0.3850 0.0700 0.4800
f 76/6 75/6 74/6 73/6
v 0.4800 0.0700 0.4800
v 0.4800 0.1300 0.4800
v 0.4800 0.1300 -0.4800
v 0.4800 0.0700 -0.4800
f 80/6 79/6 78/6 77/6
v -0.3850 0.0700 0.4800
v 0.4800 0.0700 0.4800
v 0.4800 0.0700 -0.4800
v -0.3850 0.0700 -0.4800
f 84/6 83/6 82/6 81/6
v -0.3850 0.1300 -0.4800
v 0.4800 0.1300 -0.4800
v 0.4800 0.1300 0.4800
v -0.3850 0.1300 0.4800
f 88/6 87/6 86/6 85/6
v -0.3850 0.0700 -0.4800
v 0.4800 0.0700 -0.4800
v 0.4800 0.1300 -0.4800
v -0.3850 0.1300 -0.4800
f 92/6 91/6 90/6 89/6
v -0.3850 0.1300 0.4800
v 0.4800 0.1300 0.4800
v 0.4800 0.0700 0.4800
v -0.3850 0.0700 0.4800
f 96/6 95/6 94/6 93/6
v -0.4800 0.2475 -0.5000
v -0.4800 0.2725 -0.5000
v -0.4800 0.2725 0.5000
v -0.4800 0.2475 0.5000
f 100/4 99/4 98/4 97/4
v -0.4000 0.2475 0.5000
v -0.4000 0.2725 0.5000
v -0.4000 0.2725 -0.5000
v -0.4000 0.2475 -0.5000
f 104/4 103/4 102/4 101/4
v -0.4800 0.2475 0.5000
v -0.4000 0.2475 0.5000
v -0.4000 0.2475 -0.5000
v -0.4800 0.2475 -0.5000
f 108/4 107/4 106/4 105/4
v -0.4800 0.2725 -0.5000
v -0.4000 0.2725 -0.5000
v -0.4000 0.2725 0.5000
v -0.4800 0.2725 0.5000
f 112/4 111/4 110/4 109/4
v -0.4800 0.2475 -0.5000
v -0.4000 0.2475 -0.5000
v -0.4000 0.2725 -0.5000
v -0.4800 0.2725 -0.5000
f 116/4 115/4 114/4 113/4
v -0.4800 0.2725 0.5000
v -0.4000 0.2725 0.5000
v -0.4000 0.2475 0.5000
v -0.4800 0.2475 0.5000
f 120/4 119/4 118/4 117/4
v -0.4900 0.0000 -0.3600
v -0.4900 0.0600 -0.3600
v -0.4900 0.0600 -0.2400
v -0.4900 0.0000 -0.2400
f 124/6 123/6 122/6 121/6
v -0.3900 0.0000 -0.2400
v -0.3900 0.0600 -0.2400
v -0.3900 0.0600 -0.3600
v -0.3900 0.0000 -0.3600
f 128/6 127/6 126/6 125/6
v -0.4900 0.0000 -0.2400
v -0.3900 0.0000 -0.2400
v -0.3900 0.0000 -0.3600
v -0.4900 0.0000 -0.3600
f 132/6 131/6 130/6 129/6
v -0.4900 0.0600 -0.3600
v -0.3900 0.0600 -0.3600
v -0.3900 0.0600 -0.2400
v -0.4900 0.0600 -0.2400
f 136/6 135/6 134/6 133/6
v -0.4900 0.0000 -0.3600
v -0.3900 0.0000 -0.3600
v -0.3900 0.0600 -0.3600
v -0.4900 0.0600 -0.3600
f 140/6 139/6 138/6 137/6
v -0.4900 0.0600 -0.2400
v -0.3900 0.0600 -0.2400
v -0.3900 0.0000 -0.2400
v -0.4900 0.0000 -0.2400
f 144/6 143/6 142/6 141/6
v -0.4900 0.0000 0.2400
v -0.4900 0.0600 0.2400
v -0.4900 0.0600 0.3600
v -0.4900 0.0000 0.3600
f 148/6 147/6 146/6 145/6
v -0.3900 0.0000 0.3600
v -0.3900 0.0600 0.3600
v -0.3900 0.0600 0.2400
v -0.3900 0.0000 0.2400
f 152/6 151/6 150/6 149/6
v -0.4900 0.0000 0.3600
v -0.3900 0.0000 0.3600
v -0.3900 0.0000 0.2400
v -0.4900 0.0000 0.2400
f 156/6 155/6 154/6 153/6
v -0.4900 0.0600 0.2400
v -0.3900 0.0600 0.2400
v -0.3900 0.0600 0.3600
v -0.4900 0.0600 0.3600
f 160/6 159/6 158/6 157/6
v -0.4900 0.0000 0.2400
v -0.3900 0.0000 0.2400
v -0.3900 0.0600 0.2400
v -0.4900 0.0600 0.2400
f 164/6 163/6 162/6 161/6
v -0.4900 0.0600 0.3600
v -0.3900 0.0600 0.3600
v -0.3900 0.0000 0.3600
v -0.4900 0.0000 0.3600
f 168/6 167/6 166/6 165/6
v 0.3900 0.0000 -0.3600
v 0.3900 0.0600 -0.3600
v 0.3900 0.0600 -0.2400
v 0.3900 0.0000 -0.2400
f 172/6 171/6 170/6 169/6
v 0.4900 0.0000 -0.2400
v 0.4900 0.0600 -0.2400
v 0.4900 0.0600 -0.3600
v 0.4900 0.0000 -0.3600
f 176/6 175/6 174/6 173/6
v 0.3900 0.0000 -0.2400
v 0.4900 0.0000 -0.2400
v 0.4900 0.0000 -0.3600
v 0.3900 0.0000 -0.3600
f 180/6 179/6 178/6 177/6
v 0.3900 0.0600 -0.3600
v 0.4900 0.0600 -0.3600
v 0.4900 0.0600 -0.2400
v 0.3900 0.0600 -0.2400
f 184/6 183/6 182/6 181/6
v 0.3900 0.0000 -0.3600
v 0.4900 0.0000 -0.3600
v 0.4900 0.0600 -0.3600
v 0.3900 0.0600 -0.3600
f 188/6 187/6 186/6 185/6
v 0.3900 0.0600 -0.2400
v 0.4900 0.0600 -0.2400
v 0.4900 0.0000 -0.2400
v 0.3900 0.0000 -0.2400
f 192/6 191/6 190/6 189/6
v 0.3900 0.0000 0.2400
v 0.3900 0.0600 0.2400
v 0.3900 0.0600 0.3600
v 0.3900 0.0000 0.3600
f 196/6 195/6 194/6 193/6
v 0.4900 0.0000 0.3600
v 0.4900 0.0600 0.3600
v 0.4900 0.0600 0.2400
v 0.4900 0.0000 0.2400
f 200/6 199/6 198/6 197/6
v 0.3900 0.0000 0.3600
v 0.4900 0.0000 0.3600
v 0.4900 0.0000 0.2400
v 0.3900 0.0000 0.2400
f 204/6 203/6 202/6 201/6
v 0.3900 0.0600 0.2400
v 0.4900 0.0600 0.2400
v 0.4900 0.0600 0.3600
v 0.3900 0.0600 0.3600
f 208/6 207/6 206/6 205/6
v 0.3900 0.0000 0.2400
v 0.4900 0.0000 0.2400
v 0.4900 0.0600 0.2400
v 0.3900 0.0600 0.2400
f 212/6 211/6 210/6 209/6
v 0.3900 0.0600 0.3600
v 0.4900 0.0600 0.3600
v 0.4900 0.0000 0.3600
v 0.3900 0.0000 0.3600
f 216/6 215/6 214/6 213/6
v -0.0588 0.1800 -0.1702
v -0.0588 0.1920 -0.1702
v -0.2018 0.1920 -0.3132
v -0.2018 0.1800 -0.3132
f 220/8 219/8 218/8 217/8
v -0.2442 0.1800 -0.2708
v -0.2442 0.1920 -0.2708
v -0.1012 0.1920 -0.1278
v -0.1012 0.1800 -0.1278
f 224/8 223/8 222/8 221/8
v -0.2018 0.1800 -0.3132
v -0.2442 0.1800 -0.2708
v -0.1012 0.1800 -0.1278
v -0.0588 0.1800 -0.1702
f 228/8 227/8 226/8 225/8
v -0.0588 0.1920 -0.1702
v -0.1012 0.1920 -0.1278
v -0.2442 0.1920 -0.2708
v -0.2018 0.1920 -0.3132
f 232/8 231/8 230/8 229/8
v -0.0588 0.1800 -0.1702
v -0.1012 0.1800 -0.1278
v -0.1012 0.1920 -0.1278
v -0.0588 0.1920 -0.1702
f 236/8 235/8 234/8 233/8
v -0.2018 0.1920 -0.3132
v -0.2442 0.1920 -0.2708
v -0.2442 0.1800 -0.2708
v -0.2018 0.1800 -0.3132
f 240/8 239/8 238/8 237/8
v -0.0588 0.1800 -0.1278
v -0.0588 0.1920 -0.1278
v 0.0842 0.1920 -0.2708
v 0.0842 0.1800 -0.2708
f 244/8 243/8 242/8 241/8
v 0.0418 0.1800 -0.3132
v 0.0418 0.1920 -0.3132
v -0.1012 0.1920 -0.1702
v -0.1012 0.1800 -0.1702
f 248/8 247/8 246/8 245/8
v 0.0842 0.1800 -0.2708
v 0.0418 0.1800 -0.3132
v -0.1012 0.1800 -0.1702
v -0.0588 0.1800 -0.1278
f 252/8 251/8 250/8 249/8
v -0.0588 0.1920 -0.1278
v -0.1012 0.1920 -0.1702
v 0.0418 0.1920 -0.3132
v 0.0842 0.1920 -0.2708
f 256/8 255/8 254/8 253/8
v -0.0588 0.1800 -0.1278
v -0.1012 0.1800 -0.1702
v -0.1012 0.1920 -0.1702
v -0.0588 0.1920 -0.1278
f 260/8 259/8 258/8 257/8
v 0.0842 0.1920 -0.2708
v 0.0418 0.1920 -0.3132
v 0.0418 0.1800 -0.3132
v 0.0842 0.1800 -0.2708
f 264/8 263/8 262/8 261/8
v -0.0588 0.1800 0.3098
v -0.0588 0.1920 0.3098
v -0.2018 0.1920 0.1668
v -0.2018 0.1800 0.1668
f 268/8 267/8 266/8 265/8
v -0.2442 0.1800 0.2092
v -0.2442 0.1920 0.2092
v -0.1012 0.1920 0.3522
v -0.1012 0.1800 0.3522
f 272/8 271/8 270/8 269/8
v -0.2018 0.1800 0.1668
v -0.2442 0.1800 0.2092
v -0.1012 0.1800 0.3522
v -0.0588 0.1800 0.3098
f 276/8 275/8 274/8 273/8
v -0.0588 0.1920 0.3098
v -0.1012 0.1920 0.3522
v -0.2442 0.1920 0.2092
v -0.2018 0.1920 0.1668
f 280/8 279/8 278/8 277/8
v -0.0588 0.1800 0.3098
v -0.1012 0.1800 0.3522
v -0.1012 0.1920 0.3522
v -0.0588 0.1920 0.3098
f 284/8 283/8 282/8 281/8
v -0.2018 0.1920 0.1668
v -0.2442 0.1920 0.2092
v -0.2442 0.1800 0.2092
v -0.2018 0.1800 0.1668
f 288/8 287/8 286/8 285/8
v -0.0588 0.1800 0.3522
v -0.0588 0.1920 0.3522
v 0.0842 0.1920 0.2092
v 0.0842 0.1800 0.2092
f 292/8 291/8 290/8 289/8
v 0.0418 0.1800 0.1668
v 0.0418 0.1920 0.1668
v -0.1012 0.1920 0.3098
v -0.1012 0.1800 0.3098
f 296/8 295/8 294/8 293/8
v 0.0842 0.1800 0.2092
v 0.0418 0.1800 0.1668
v -0.1012 0.1800 0.3098
v -0.0588 0.1800 0.3522
f 300/8 299/8 298/8 297/8
v -0.0588 0.1920 0.3522
v -0.1012 0.1920 0.3098
v 0.0418 0.1920 0.1668
v 0.0842 0.1920 0.2092
f 304/8 303/8 302/8 301/8
v -0.0588 0.1800 0.3522
v -0.1012 0.1800 0.3098
v -0.1012 0.1920 0.3098
v -0.0588 0.1920 0.3522
f 308/8 307/8 306/8 305/8
v 0.0842 0.1920 0.2092
v 0.0418 0.1920 0.1668
v 0.0418 0.1800 0.1668
v 0.0842 0.1800 0.2092
f 312/8 311/8 310/8 309/8
v 0.2302 0.1800 0.0212
v 0.2302 0.1920 0.0212
v 0.3732 0.1920 -0.1218
v 0.3732 0.1800 -0.1218
f 316/8 315/8 314/8 313/8
v 0.3308 0.1800 -0.1642
v 0.3308 0.1920 -0.1642
v 0.1878 0.1920 -0.0212
v 0.1878 0.1800 -0.0212
f 320/8 319/8 318/8 317/8
v 0.3732 0.1800 -0.1218
v 0.3308 0.1800 -0.1642
v 0.1878 0.1800 -0.0212
v 0.2302 0.1800 0.0212
f 324/8 323/8 322/8 321/8
v 0.2302 0.1920 0.0212
v 0.1878 0.1920 -0.0212
v 0.3308 0.1920 -0.1642
v 0.3732 0.1920 -0.1218
f 328/8 327/8 326/8 325/8
v 0.2302 0.1800 0.0212
v 0.1878 0.1800 -0.0212
v 0.1878 0.1920 -0.0212
v 0.2302 0.1920 0.0212
f 332/8 331/8 330/8 329/8
v 0.3732 0.1920 -0.1218
v 0.3308 0.1920 -0.1642
v 0.3308 0.1800 -0.1642
v 0.3732 0.1800 -0.1218
f 336/8 335/8 334/8 333/8
v 0.1878 0.1800 0.0212
v 0.1878 0.1920 0.0212
v 0.3308 0.1920 0.1642
v 0.3308 0.1800 0.1642
f 340/8 339/8 338/8 337/8
v 0.3732 0.1800 0.1218
v 0.3732 0.1920 0.1218
v 0.2302 0.1920 -0.0212
v 0.2302 0.1800 -0.0212
f 344/8 343/8 342/8 341/8
v 0.3308 0.1800 0.1642
v 0.3732 0.1800 0.1218
v 0.2302 0.1800 -0.0212
v 0.1878 0.1800 0.0212
f 348/8 347/8 346/8 345/8
v 0.1878 0.1920 0.0212
v 0.2302 0.1920 -0.0212
v 0.3732 0.1920 0.1218
v 0.3308 0.1920 0.1642
f 352/8 351/8 350/8 349/8
v 0.1878 0.1800 0.0212
v 0.2302 0.1800 -0.0212
v 0.2302 0.1920 -0.0212
v 0.1878 0.1920 0.0212
f 356/8 355/8 354/8 353/8
v 0.3308 0.1920 0.1642
v 0.3732 0.1920 0.1218
v 0.3732 0.1800 0.1218
v 0.3308 0.1800 0.1642
f 360/8 359/8 358/8 357/8
usemtl wi_rubber
v -0.4050 0.1300 -0.5000
v -0.4050 0.1800 -0.5000
v -0.4050 0.1800 0.5000
v -0.4050 0.1300 0.5000
f 364/1 363/1 362/1 361/1
v 0.5000 0.1300 0.5000
v 0.5000 0.1800 0.5000
v 0.5000 0.1800 -0.5000
v 0.5000 0.1300 -0.5000
f 368/1 367/1 366/1 365/1
v -0.4050 0.1300 0.5000
v 0.5000 0.1300 0.5000
v 0.5000 0.1300 -0.5000
v -0.4050 0.1300 -0.5000
f 372/1 371/1 370/1 369/1
v -0.4050 0.1800 -0.5000
vt 1.0000 -0.5000
v 0.5000 0.1800 -0.5000
vt 1.0000 -0.5000
v 0.5000 0.1800 0.5000
vt 1.0000 0.5000
v -0.4050 0.1800 0.5000
vt 1.0000 0.5000
f 376/37 375/36 374/35 373/34
v -0.4050 0.1300 -0.5000
v 0.5000 0.1300 -0.5000
v 0.5000 0.1800 -0.5000
v -0.4050 0.1800 -0.5000
f 380/1 379/1 378/1 377/1
v -0.4050 0.1800 0.5000
v 0.5000 0.1800 0.5000
v 0.5000 0.1300 0.5000
v -0.4050 0.1300 0.5000
f 384/1 383/1 382/1 381/1
