# Walk of Industry low-poly (generated, wi_lib.py)
mtllib wi.mtl
vt 0 0
vt 0.03125 0.03125
vt 0.09375 0.03125
vt 0.15625 0.03125
vt 0.21875 0.03125
vt 0.28125 0.03125
vt 0.34375 0.03125
vt 0.40625 0.03125
vt 0.46875 0.03125
vt 0.53125 0.03125
vt 0.59375 0.03125
vt 0.65625 0.03125
vt 0.71875 0.03125
vt 0.78125 0.03125
vt 0.84375 0.03125
vt 0.90625 0.03125
vt 0.96875 0.03125
vt 0.03125 0.09375
vt 0.09375 0.09375
vt 0.15625 0.09375
vt 0.21875 0.09375
vt 0.28125 0.09375
vt 0.34375 0.09375
vt 0.40625 0.09375
vt 0.46875 0.09375
vt 0.53125 0.09375
vt 0.59375 0.09375
vt 0.65625 0.09375
vt 0.71875 0.09375
vt 0.78125 0.09375
vt 0.84375 0.09375
vt 0.90625 0.09375
vt 0.96875 0.09375
o Belt
usemtl wi_edge
v -0.3876 0.0600 0.3234
v -0.4563 0.0600 0.3098
v -0.4750 0.0600 0.5000
v -0.4050 0.0600 0.5000
f 4/1 3/1 2/1 1/1
v -0.4050 0.2500 0.5000
v -0.4750 0.2500 0.5000
v -0.4563 0.2500 0.3098
v -0.3876 0.2500 0.3234
f 8/1 7/1 6/1 5/1
v -0.4050 0.0600 0.5000
v -0.4750 0.0600 0.5000
v -0.4750 0.2500 0.5000
v -0.4050 0.2500 0.5000
f 12/1 11/1 10/1 9/1
v -0.4750 0.0600 0.5000
v -0.4563 0.0600 0.3098
v -0.4563 0.2500 0.3098
v -0.4750 0.2500 0.5000
f 16/1 15/1 14/1 13/1
v -0.4563 0.0600 0.3098
v -0.3876 0.0600 0.3234
v -0.3876 0.2500 0.3234
v -0.4563 0.2500 0.3098
f 20/1 19/1 18/1 17/1
v -0.3876 0.0600 0.3234
v -0.4050 0.0600 0.5000
v -0.4050 0.2500 0.5000
v -0.3876 0.2500 0.3234
f 24/1 23/1 22/1 21/1
v -0.3361 0.0600 0.1537
v -0.4008 0.0600 0.1269
v -0.4563 0.0600 0.3098
v -0.3876 0.0600 0.3234
f 28/1 27/1 26/1 25/1
v -0.3876 0.2500 0.3234
v -0.4563 0.2500 0.3098
v -0.4008 0.2500 0.1269
v -0.3361 0.2500 0.1537
f 32/1 31/1 30/1 29/1
v -0.3876 0.0600 0.3234
v -0.4563 0.0600 0.3098
v -0.4563 0.2500 0.3098
v -0.3876 0.2500 0.3234
f 36/1 35/1 34/1 33/1
v -0.4563 0.0600 0.3098
v -0.4008 0.0600 0.1269
v -0.4008 0.2500 0.1269
v -0.4563 0.2500 0.3098
f 40/1 39/1 38/1 37/1
v -0.4008 0.0600 0.1269
v -0.3361 0.0600 0.1537
v -0.3361 0.2500 0.1537
v -0.4008 0.2500 0.1269
f 44/1 43/1 42/1 41/1
v -0.3361 0.0600 0.1537
v -0.3876 0.0600 0.3234
v -0.3876 0.2500 0.3234
v -0.3361 0.2500 0.1537
f 48/1 47/1 46/1 45/1
v -0.2525 0.0600 -0.0028
v -0.3107 0.0600 -0.0417
v -0.4008 0.0600 0.1269
v -0.3361 0.0600 0.1537
f 52/1 51/1 50/1 49/1
v -0.3361 0.2500 0.1537
v -0.4008 0.2500 0.1269
v -0.3107 0.2500 -0.0417
v -0.2525 0.2500 -0.0028
f 56/1 55/1 54/1 53/1
v -0.3361 0.0600 0.1537
v -0.4008 0.0600 0.1269
v -0.4008 0.2500 0.1269
v -0.3361 0.2500 0.1537
f 60/1 59/1 58/1 57/1
v -0.4008 0.0600 0.1269
v -0.3107 0.0600 -0.0417
v -0.3107 0.2500 -0.0417
v -0.4008 0.2500 0.1269
f 64/1 63/1 62/1 61/1
v -0.3107 0.0600 -0.0417
v -0.2525 0.0600 -0.0028
v -0.2525 0.2500 -0.0028
v -0.3107 0.2500 -0.0417
f 68/1 67/1 66/1 65/1
v -0.2525 0.0600 -0.0028
v -0.3361 0.0600 0.1537
v -0.3361 0.2500 0.1537
v -0.2525 0.2500 -0.0028
f 72/1 71/1 70/1 69/1
v -0.1399 0.0600 -0.1399
v -0.1894 0.0600 -0.1894
v -0.3107 0.0600 -0.0417
v -0.2525 0.0600 -0.0028
f 76/1 75/1 74/1 73/1
v -0.2525 0.2500 -0.0028
v -0.3107 0.2500 -0.0417
v -0.1894 0.2500 -0.1894
v -0.1399 0.2500 -0.1399
f 80/1 79/1 78/1 77/1
v -0.2525 0.0600 -0.0028
v -0.3107 0.0600 -0.0417
v -0.3107 0.2500 -0.0417
v -0.2525 0.2500 -0.0028
f 84/1 83/1 82/1 81/1
v -0.3107 0.0600 -0.0417
v -0.1894 0.0600 -0.1894
v -0.1894 0.2500 -0.1894
v -0.3107 0.2500 -0.0417
f 88/1 87/1 86/1 85/1
v -0.1894 0.0600 -0.1894
v -0.1399 0.0600 -0.1399
v -0.1399 0.2500 -0.1399
v -0.1894 0.2500 -0.1894
f 92/1 91/1 90/1 89/1
v -0.1399 0.0600 -0.1399
v -0.2525 0.0600 -0.0028
v -0.2525 0.2500 -0.0028
v -0.1399 0.2500 -0.1399
f 96/1 95/1 94/1 93/1
v -0.0028 0.0600 -0.2525
v -0.0417 0.0600 -0.3107
v -0.1894 0.0600 -0.1894
v -0.1399 0.0600 -0.1399
f 100/1 99/1 98/1 97/1
v -0.1399 0.2500 -0.1399
v -0.1894 0.2500 -0.1894
v -0.0417 0.2500 -0.3107
v -0.0028 0.2500 -0.2525
f 104/1 103/1 102/1 101/1
v -0.1399 0.0600 -0.1399
v -0.1894 0.0600 -0.1894
v -0.1894 0.2500 -0.1894
v -0.1399 0.2500 -0.1399
f 108/1 107/1 106/1 105/1
v -0.1894 0.0600 -0.1894
v -0.0417 0.0600 -0.3107
v -0.0417 0.2500 -0.3107
v -0.1894 0.2500 -0.1894
f 112/1 111/1 110/1 109/1
v -0.0417 0.0600 -0.3107
v -0.0028 0.0600 -0.2525
v -0.0028 0.2500 -0.2525
v -0.0417 0.2500 -0.3107
f 116/1 115/1 114/1 113/1
v -0.0028 0.0600 -0.2525
v -0.1399 0.0600 -0.1399
v -0.1399 0.2500 -0.1399
v -0.0028 0.2500 -0.2525
f 120/1 119/1 118/1 117/1
v 0.1537 0.0600 -0.3361
v 0.1269 0.0600 -0.4008
v -0.0417 0.0600 -0.3107
v -0.0028 0.0600 -0.2525
f 124/1 123/1 122/1 121/1
v -0.0028 0.2500 -0.2525
v -0.0417 0.2500 -0.3107
v 0.1269 0.2500 -0.4008
v 0.1537 0.2500 -0.3361
f 128/1 127/1 126/1 125/1
v -0.0028 0.0600 -0.2525
v -0.0417 0.0600 -0.3107
v -0.0417 0.2500 -0.3107
v -0.0028 0.2500 -0.2525
f 132/1 131/1 130/1 129/1
v -0.0417 0.0600 -0.3107
v 0.1269 0.0600 -0.4008
v 0.1269 0.2500 -0.4008
v -0.0417 0.2500 -0.3107
f 136/1 135/1 134/1 133/1
v 0.1269 0.0600 -0.4008
v 0.1537 0.0600 -0.3361
v 0.1537 0.2500 -0.3361
v 0.1269 0.2500 -0.4008
f 140/1 139/1 138/1 137/1
v 0.1537 0.0600 -0.3361
v -0.0028 0.0600 -0.2525
v -0.0028 0.2500 -0.2525
v 0.1537 0.2500 -0.3361
f 144/1 143/1 142/1 141/1
v 0.3234 0.0600 -0.3876
v 0.3098 0.0600 -0.4563
v 0.1269 0.0600 -0.4008
v 0.1537 0.0600 -0.3361
f 148/1 147/1 146/1 145/1
v 0.1537 0.2500 -0.3361
v 0.1269 0.2500 -0.4008
v 0.3098 0.2500 -0.4563
v 0.3234 0.2500 -0.3876
f 152/1 151/1 150/1 149/1
v 0.1537 0.0600 -0.3361
v 0.1269 0.0600 -0.4008
v 0.1269 0.2500 -0.4008
v 0.1537 0.2500 -0.3361
f 156/1 155/1 154/1 153/1
v 0.1269 0.0600 -0.4008
v 0.3098 0.0600 -0.4563
v 0.3098 0.2500 -0.4563
v 0.1269 0.2500 -0.4008
f 160/1 159/1 158/1 157/1
v 0.3098 0.0600 -0.4563
v 0.3234 0.0600 -0.3876
v 0.3234 0.2500 -0.3876
v 0.3098 0.2500 -0.4563
f 164/1 163/1 162/1 161/1
v 0.3234 0.0600 -0.3876
v 0.1537 0.0600 -0.3361
v 0.1537 0.2500 -0.3361
v 0.3234 0.2500 -0.3876
f 168/1 167/1 166/1 165/1
v 0.5000 0.0600 -0.4050
v 0.5000 0.0600 -0.4750
v 0.3098 0.0600 -0.4563
v 0.3234 0.0600 -0.3876
f 172/1 171/1 170/1 169/1
v 0.3234 0.2500 -0.3876
v 0.3098 0.2500 -0.4563
v 0.5000 0.2500 -0.4750
v 0.5000 0.2500 -0.4050
f 176/1 175/1 174/1 173/1
v 0.3234 0.0600 -0.3876
v 0.3098 0.0600 -0.4563
v 0.3098 0.2500 -0.4563
v 0.3234 0.2500 -0.3876
f 180/1 179/1 178/1 177/1
v 0.3098 0.0600 -0.4563
v 0.5000 0.0600 -0.4750
v 0.5000 0.2500 -0.4750
v 0.3098 0.2500 -0.4563
f 184/1 183/1 182/1 181/1
v 0.5000 0.0600 -0.4750
v 0.5000 0.0600 -0.4050
v 0.5000 0.2500 -0.4050
v 0.5000 0.2500 -0.4750
f 188/1 187/1 186/1 185/1
v 0.5000 0.0600 -0.4050
v 0.3234 0.0600 -0.3876
v 0.3234 0.2500 -0.3876
v 0.5000 0.2500 -0.4050
f 192/1 191/1 190/1 189/1
v 0.4400 0.0600 0.4400
v 0.4400 0.2500 0.4400
v 0.4400 0.2500 0.5000
v 0.4400 0.0600 0.5000
f 196/1 195/1 194/1 193/1
v 0.5000 0.0600 0.5000
v 0.5000 0.2500 0.5000
v 0.5000 0.2500 0.4400
v 0.5000 0.0600 0.4400
f 200/1 199/1 198/1 197/1
v 0.4400 0.0600 0.5000
v 0.5000 0.0600 0.5000
v 0.5000 0.0600 0.4400
v 0.4400 0.0600 0.4400
f 204/1 203/1 202/1 201/1
v 0.4400 0.2500 0.4400
v 0.5000 0.2500 0.4400
v 0.5000 0.2500 0.5000
v 0.4400 0.2500 0.5000
f 208/1 207/1 206/1 205/1
v 0.4400 0.0600 0.4400
v 0.5000 0.0600 0.4400
v 0.5000 0.2500 0.4400
v 0.4400 0.2500 0.4400
f 212/1 211/1 210/1 209/1
v 0.4400 0.2500 0.5000
v 0.5000 0.2500 0.5000
v 0.5000 0.0600 0.5000
v 0.4400 0.0600 0.5000
f 216/1 215/1 214/1 213/1
usemtl wi_palette
v 0.3823 0.0700 0.4766
v -0.3631 0.0700 0.3283
v -0.3800 0.0700 0.5000
v 0.3800 0.0700 0.5000
f 220/6 219/6 218/6 217/6
v 0.3800 0.1300 0.5000
v -0.3800 0.1300 0.5000
v -0.3631 0.1300 0.3283
v 0.3823 0.1300 0.4766
f 224/6 223/6 222/6 221/6
v 0.3800 0.0700 0.5000
v -0.3800 0.0700 0.5000
v -0.3800 0.1300 0.5000
v 0.3800 0.1300 0.5000
f 228/6 227/6 226/6 225/6
v -0.3800 0.0700 0.5000
v -0.3631 0.0700 0.3283
v -0.3631 0.1300 0.3283
v -0.3800 0.1300 0.5000
f 232/6 231/6 230/6 229/6
v -0.3631 0.0700 0.3283
v 0.3823 0.0700 0.4766
v 0.3823 0.1300 0.4766
v -0.3631 0.1300 0.3283
f 236/6 235/6 234/6 233/6
v 0.3823 0.0700 0.4766
v 0.3800 0.0700 0.5000
v 0.3800 0.1300 0.5000
v 0.3823 0.1300 0.4766
f 240/6 239/6 238/6 237/6
v 0.3891 0.0700 0.4541
v -0.3130 0.0700 0.1632
v -0.3631 0.0700 0.3283
v 0.3823 0.0700 0.4766
f 244/6 243/6 242/6 241/6
v 0.3823 0.1300 0.4766
v -0.3631 0.1300 0.3283
v -0.3130 0.1300 0.1632
v 0.3891 0.1300 0.4541
f 248/6 247/6 246/6 245/6
v 0.3823 0.0700 0.4766
v -0.3631 0.0700 0.3283
v -0.3631 0.1300 0.3283
v 0.3823 0.1300 0.4766
f 252/6 251/6 250/6 249/6
v -0.3631 0.0700 0.3283
v -0.3130 0.0700 0.1632
v -0.3130 0.1300 0.1632
v -0.3631 0.1300 0.3283
f 256/6 255/6 254/6 253/6
v -0.3130 0.0700 0.1632
v 0.3891 0.0700 0.4541
v 0.3891 0.1300 0.4541
v -0.3130 0.1300 0.1632
f 260/6 259/6 258/6 257/6
v 0.3891 0.0700 0.4541
v 0.3823 0.0700 0.4766
v 0.3823 0.1300 0.4766
v 0.3891 0.1300 0.4541
f 264/6 263/6 262/6 261/6
v 0.4002 0.0700 0.4333
v -0.2317 0.0700 0.0111
v -0.3130 0.0700 0.1632
v 0.3891 0.0700 0.4541
f 268/6 267/6 266/6 265/6
v 0.3891 0.1300 0.4541
v -0.3130 0.1300 0.1632
v -0.2317 0.1300 0.0111
v 0.4002 0.1300 0.4333
f 272/6 271/6 270/6 269/6
v 0.3891 0.0700 0.4541
v -0.3130 0.0700 0.1632
v -0.3130 0.1300 0.1632
v 0.3891 0.1300 0.4541
f 276/6 275/6 274/6 273/6
v -0.3130 0.0700 0.1632
v -0.2317 0.0700 0.0111
v -0.2317 0.1300 0.0111
v -0.3130 0.1300 0.1632
f 280/6 279/6 278/6 277/6
v -0.2317 0.0700 0.0111
v 0.4002 0.0700 0.4333
v 0.4002 0.1300 0.4333
v -0.2317 0.1300 0.0111
f 284/6 283/6 282/6 281/6
v 0.4002 0.0700 0.4333
v 0.3891 0.0700 0.4541
v 0.3891 0.1300 0.4541
v 0.4002 0.1300 0.4333
f 288/6 287/6 286/6 285/6
v 0.4151 0.0700 0.4151
v -0.1223 0.0700 -0.1223
v -0.2317 0.0700 0.0111
v 0.4002 0.0700 0.4333
f 292/6 291/6 290/6 289/6
v 0.4002 0.1300 0.4333
v -0.2317 0.1300 0.0111
v -0.1223 0.1300 -0.1223
v 0.4151 0.1300 0.4151
f 296/6 295/6 294/6 293/6
v 0.4002 0.0700 0.4333
v -0.2317 0.0700 0.0111
v -0.2317 0.1300 0.0111
v 0.4002 0.1300 0.4333
f 300/6 299/6 298/6 297/6
v -0.2317 0.0700 0.0111
v -0.1223 0.0700 -0.1223
v -0.1223 0.1300 -0.1223
v -0.2317 0.1300 0.0111
f 304/6 303/6 302/6 301/6
v -0.1223 0.0700 -0.1223
v 0.4151 0.0700 0.4151
v 0.4151 0.1300 0.4151
v -0.1223 0.1300 -0.1223
f 308/6 307/6 306/6 305/6
v 0.4151 0.0700 0.4151
v 0.4002 0.0700 0.4333
v 0.4002 0.1300 0.4333
v 0.4151 0.1300 0.4151
f 312/6 311/6 310/6 309/6
v 0.4333 0.0700 0.4002
v 0.0111 0.0700 -0.2317
v -0.1223 0.0700 -0.1223
v 0.4151 0.0700 0.4151
f 316/6 315/6 314/6 313/6
v 0.4151 0.1300 0.4151
v -0.1223 0.1300 -0.1223
v 0.0111 0.1300 -0.2317
v 0.4333 0.1300 0.4002
f 320/6 319/6 318/6 317/6
v 0.4151 0.0700 0.4151
v -0.1223 0.0700 -0.1223
v -0.1223 0.1300 -0.1223
v 0.4151 0.1300 0.4151
f 324/6 323/6 322/6 321/6
v -0.1223 0.0700 -0.1223
v 0.0111 0.0700 -0.2317
v 0.0111 0.1300 -0.2317
v -0.1223 0.1300 -0.1223
f 328/6 327/6 326/6 325/6
v 0.0111 0.0700 -0.2317
v 0.4333 0.0700 0.4002
v 0.4333 0.1300 0.4002
v 0.0111 0.1300 -0.2317
f 332/6 331/6 330/6 329/6
v 0.4333 0.0700 0.4002
v 0.4151 0.0700 0.4151
v 0.4151 0.1300 0.4151
v 0.4333 0.1300 0.4002
f 336/6 335/6 334/6 333/6
v 0.4541 0.0700 0.3891
v 0.1632 0.0700 -0.3130
v 0.0111 0.0700 -0.2317
v 0.4333 0.0700 0.4002
f 340/6 339/6 338/6 337/6
v 0.4333 0.1300 0.4002
v 0.0111 0.1300 -0.2317
v 0.1632 0.1300 -0.3130
v 0.4541 0.1300 0.3891
f 344/6 343/6 342/6 341/6
v 0.4333 0.0700 0.4002
v 0.0111 0.0700 -0.2317
v 0.0111 0.1300 -0.2317
v 0.4333 0.1300 0.4002
f 348/6 347/6 346/6 345/6
v 0.0111 0.0700 -0.2317
v 0.1632 0.0700 -0.3130
v 0.1632 0.1300 -0.3130
v 0.0111 0.1300 -0.2317
f 352/6 351/6 350/6 349/6
v 0.1632 0.0700 -0.3130
v 0.4541 0.0700 0.3891
v 0.4541 0.1300 0.3891
v 0.1632 0.1300 -0.3130
f 356/6 355/6 354/6 353/6
v 0.4541 0.0700 0.3891
v 0.4333 0.0700 0.4002
v 0.4333 0.1300 0.4002
v 0.4541 0.1300 0.3891
f 360/6 359/6 358/6 357/6
v 0.4766 0.0700 0.3823
v 0.3283 0.0700 -0.3631
v 0.1632 0.0700 -0.3130
v 0.4541 0.0700 0.3891
f 364/6 363/6 362/6 361/6
v 0.4541 0.1300 0.3891
v 0.1632 0.1300 -0.3130
v 0.3283 0.1300 -0.3631
v 0.4766 0.1300 0.3823
f 368/6 367/6 366/6 365/6
v 0.4541 0.0700 0.3891
v 0.1632 0.0700 -0.3130
v 0.1632 0.1300 -0.3130
v 0.4541 0.1300 0.3891
f 372/6 371/6 370/6 369/6
v 0.1632 0.0700 -0.3130
v 0.3283 0.0700 -0.3631
v 0.3283 0.1300 -0.3631
v 0.1632 0.1300 -0.3130
f 376/6 375/6 374/6 373/6
v 0.3283 0.0700 -0.3631
v 0.4766 0.0700 0.3823
v 0.4766 0.1300 0.3823
v 0.3283 0.1300 -0.3631
f 380/6 379/6 378/6 377/6
v 0.4766 0.0700 0.3823
v 0.4541 0.0700 0.3891
v 0.4541 0.1300 0.3891
v 0.4766 0.1300 0.3823
f 384/6 383/6 382/6 381/6
v 0.5000 0.0700 0.3800
v 0.5000 0.0700 -0.3800
v 0.3283 0.0700 -0.3631
v 0.4766 0.0700 0.3823
f 388/6 387/6 386/6 385/6
v 0.4766 0.1300 0.3823
v 0.3283 0.1300 -0.3631
v 0.5000 0.1300 -0.3800
v 0.5000 0.1300 0.3800
f 392/6 391/6 390/6 389/6
v 0.4766 0.0700 0.3823
v 0.3283 0.0700 -0.3631
v 0.3283 0.1300 -0.3631
v 0.4766 0.1300 0.3823
f 396/6 395/6 394/6 393/6
v 0.3283 0.0700 -0.3631
v 0.5000 0.0700 -0.3800
v 0.5000 0.1300 -0.3800
v 0.3283 0.1300 -0.3631
f 400/6 399/6 398/6 397/6
v 0.5000 0.0700 -0.3800
v 0.5000 0.0700 0.3800
v 0.5000 0.1300 0.3800
v 0.5000 0.1300 -0.3800
f 404/6 403/6 402/6 401/6
v 0.5000 0.0700 0.3800
v 0.4766 0.0700 0.3823
v 0.4766 0.1300 0.3823
v 0.5000 0.1300 0.3800
f 408/6 407/6 406/6 405/6
v -0.3827 0.2500 0.3244
v -0.4612 0.2500 0.3088
v -0.4800 0.2500 0.5000
v -0.4000 0.2500 0.5000
f 412/4 411/4 410/4 409/4
v -0.4000 0.2750 0.5000
v -0.4800 0.2750 0.5000
v -0.4612 0.2750 0.3088
v -0.3827 0.2750 0.3244
f 416/4 415/4 414/4 413/4
v -0.4000 0.2500 0.5000
v -0.4800 0.2500 0.5000
v -0.4800 0.2750 0.5000
v -0.4000 0.2750 0.5000
f 420/4 419/4 418/4 417/4
v -0.4800 0.2500 0.5000
v -0.4612 0.2500 0.3088
v -0.4612 0.2750 0.3088
v -0.4800 0.2750 0.5000
f 424/4 423/4 422/4 421/4
v -0.4612 0.2500 0.3088
v -0.3827 0.2500 0.3244
v -0.3827 0.2750 0.3244
v -0.4612 0.2750 0.3088
f 428/4 427/4 426/4 425/4
v -0.3827 0.2500 0.3244
v -0.4000 0.2500 0.5000
v -0.4000 0.2750 0.5000
v -0.3827 0.2750 0.3244
f 432/4 431/4 430/4 429/4
v -0.3315 0.2500 0.1556
v -0.4054 0.2500 0.1250
v -0.4612 0.2500 0.3088
v -0.3827 0.2500 0.3244
f 436/4 435/4 434/4 433/4
v -0.3827 0.2750 0.3244
v -0.4612 0.2750 0.3088
v -0.4054 0.2750 0.1250
v -0.3315 0.2750 0.1556
f 440/4 439/4 438/4 437/4
v -0.3827 0.2500 0.3244
v -0.4612 0.2500 0.3088
v -0.4612 0.2750 0.3088
v -0.3827 0.2750 0.3244
f 444/4 443/4 442/4 441/4
v -0.4612 0.2500 0.3088
v -0.4054 0.2500 0.1250
v -0.4054 0.2750 0.1250
v -0.4612 0.2750 0.3088
f 448/4 447/4 446/4 445/4
v -0.4054 0.2500 0.1250
v -0.3315 0.2500 0.1556
v -0.3315 0.2750 0.1556
v -0.4054 0.2750 0.1250
f 452/4 451/4 450/4 449/4
v -0.3315 0.2500 0.1556
v -0.3827 0.2500 0.3244
v -0.3827 0.2750 0.3244
v -0.3315 0.2750 0.1556
f 456/4 455/4 454/4 453/4
v -0.2483 0.2500 -0.0000
v -0.3148 0.2500 -0.0445
v -0.4054 0.2500 0.1250
v -0.3315 0.2500 0.1556
f 460/4 459/4 458/4 457/4
v -0.3315 0.2750 0.1556
v -0.4054 0.2750 0.1250
v -0.3148 0.2750 -0.0445
v -0.2483 0.2750 -0.0000
f 464/4 463/4 462/4 461/4
v -0.3315 0.2500 0.1556
v -0.4054 0.2500 0.1250
v -0.4054 0.2750 0.1250
v -0.3315 0.2750 0.1556
f 468/4 467/4 466/4 465/4
v -0.4054 0.2500 0.1250
v -0.3148 0.2500 -0.0445
v -0.3148 0.2750 -0.0445
v -0.4054 0.2750 0.1250
f 472/4 471/4 470/4 469/4
v -0.3148 0.2500 -0.0445
v -0.2483 0.2500 -0.0000
v -0.2483 0.2750 -0.0000
v -0.3148 0.2750 -0.0445
f 476/4 475/4 474/4 473/4
v -0.2483 0.2500 -0.0000
v -0.3315 0.2500 0.1556
v -0.3315 0.2750 0.1556
v -0.2483 0.2750 -0.0000
f 480/4 479/4 478/4 477/4
v -0.1364 0.2500 -0.1364
v -0.1930 0.2500 -0.1930
v -0.3148 0.2500 -0.0445
v -0.2483 0.2500 -0.0000
f 484/4 483/4 482/4 481/4
v -0.2483 0.2750 -0.0000
v -0.3148 0.2750 -0.0445
v -0.1930 0.2750 -0.1930
v -0.1364 0.2750 -0.1364
f 488/4 487/4 486/4 485/4
v -0.2483 0.2500 -0.0000
v -0.3148 0.2500 -0.0445
v -0.3148 0.2750 -0.0445
v -0.2483 0.2750 -0.0000
f 492/4 491/4 490/4 489/4
v -0.3148 0.2500 -0.0445
v -0.1930 0.2500 -0.1930
v -0.1930 0.2750 -0.1930
v -0.3148 0.2750 -0.0445
f 496/4 495/4 494/4 493/4
v -0.1930 0.2500 -0.1930
v -0.1364 0.2500 -0.1364
v -0.1364 0.2750 -0.1364
v -0.1930 0.2750 -0.1930
f 500/4 499/4 498/4 497/4
v -0.1364 0.2500 -0.1364
v -0.2483 0.2500 -0.0000
v -0.2483 0.2750 -0.0000
v -0.1364 0.2750 -0.1364
f 504/4 503/4 502/4 501/4
v -0.0000 0.2500 -0.2483
v -0.0445 0.2500 -0.3148
v -0.1930 0.2500 -0.1930
v -0.1364 0.2500 -0.1364
f 508/4 507/4 506/4 505/4
v -0.1364 0.2750 -0.1364
v -0.1930 0.2750 -0.1930
v -0.0445 0.2750 -0.3148
v -0.0000 0.2750 -0.2483
f 512/4 511/4 510/4 509/4
v -0.1364 0.2500 -0.1364
v -0.1930 0.2500 -0.1930
v -0.1930 0.2750 -0.1930
v -0.1364 0.2750 -0.1364
f 516/4 515/4 514/4 513/4
v -0.1930 0.2500 -0.1930
v -0.0445 0.2500 -0.3148
v -0.0445 0.2750 -0.3148
v -0.1930 0.2750 -0.1930
f 520/4 519/4 518/4 517/4
v -0.0445 0.2500 -0.3148
v -0.0000 0.2500 -0.2483
v -0.0000 0.2750 -0.2483
v -0.0445 0.2750 -0.3148
f 524/4 523/4 522/4 521/4
v -0.0000 0.2500 -0.2483
v -0.1364 0.2500 -0.1364
v -0.1364 0.2750 -0.1364
v -0.0000 0.2750 -0.2483
f 528/4 527/4 526/4 525/4
v 0.1556 0.2500 -0.3315
v 0.1250 0.2500 -0.4054
v -0.0445 0.2500 -0.3148
v -0.0000 0.2500 -0.2483
f 532/4 531/4 530/4 529/4
v -0.0000 0.2750 -0.2483
v -0.0445 0.2750 -0.3148
v 0.1250 0.2750 -0.4054
v 0.1556 0.2750 -0.3315
f 536/4 535/4 534/4 533/4
v -0.0000 0.2500 -0.2483
v -0.0445 0.2500 -0.3148
v -0.0445 0.2750 -0.3148
v -0.0000 0.2750 -0.2483
f 540/4 539/4 538/4 537/4
v -0.0445 0.2500 -0.3148
v 0.1250 0.2500 -0.4054
v 0.1250 0.2750 -0.4054
v -0.0445 0.2750 -0.3148
f 544/4 543/4 542/4 541/4
v 0.1250 0.2500 -0.4054
v 0.1556 0.2500 -0.3315
v 0.1556 0.2750 -0.3315
v 0.1250 0.2750 -0.4054
f 548/4 547/4 546/4 545/4
v 0.1556 0.2500 -0.3315
v -0.0000 0.2500 -0.2483
v -0.0000 0.2750 -0.2483
v 0.1556 0.2750 -0.3315
f 552/4 551/4 550/4 549/4
v 0.3244 0.2500 -0.3827
v 0.3088 0.2500 -0.4612
v 0.1250 0.2500 -0.4054
v 0.1556 0.2500 -0.3315
f 556/4 555/4 554/4 553/4
v 0.1556 0.2750 -0.3315
v 0.1250 0.2750 -0.4054
v 0.3088 0.2750 -0.4612
v 0.3244 0.2750 -0.3827
f 560/4 559/4 558/4 557/4
v 0.1556 0.2500 -0.3315
v 0.1250 0.2500 -0.4054
v 0.1250 0.2750 -0.4054
v 0.1556 0.2750 -0.3315
f 564/4 563/4 562/4 561/4
v 0.1250 0.2500 -0.4054
v 0.3088 0.2500 -0.4612
v 0.3088 0.2750 -0.4612
v 0.1250 0.2750 -0.4054
f 568/4 567/4 566/4 565/4
v 0.3088 0.2500 -0.4612
v 0.3244 0.2500 -0.3827
v 0.3244 0.2750 -0.3827
v 0.3088 0.2750 -0.4612
f 572/4 571/4 570/4 569/4
v 0.3244 0.2500 -0.3827
v 0.1556 0.2500 -0.3315
v 0.1556 0.2750 -0.3315
v 0.3244 0.2750 -0.3827
f 576/4 575/4 574/4 573/4
v 0.5000 0.2500 -0.4000
v 0.5000 0.2500 -0.4800
v 0.3088 0.2500 -0.4612
v 0.3244 0.2500 -0.3827
f 580/4 579/4 578/4 577/4
v 0.3244 0.2750 -0.3827
v 0.3088 0.2750 -0.4612
v 0.5000 0.2750 -0.4800
v 0.5000 0.2750 -0.4000
f 584/4 583/4 582/4 581/4
v 0.3244 0.2500 -0.3827
v 0.3088 0.2500 -0.4612
v 0.3088 0.2750 -0.4612
v 0.3244 0.2750 -0.3827
f 588/4 587/4 586/4 585/4
v 0.3088 0.2500 -0.4612
v 0.5000 0.2500 -0.4800
v 0.5000 0.2750 -0.4800
v 0.3088 0.2750 -0.4612
f 592/4 591/4 590/4 589/4
v 0.5000 0.2500 -0.4800
v 0.5000 0.2500 -0.4000
v 0.5000 0.2750 -0.4000
v 0.5000 0.2750 -0.4800
f 596/4 595/4 594/4 593/4
v 0.5000 0.2500 -0.4000
v 0.3244 0.2500 -0.3827
v 0.3244 0.2750 -0.3827
v 0.5000 0.2750 -0.4000
f 600/4 599/4 598/4 597/4
v -0.3600 0.0000 -0.3600
v -0.3600 0.0600 -0.3600
v -0.3600 0.0600 -0.2400
v -0.3600 0.0000 -0.2400
f 604/6 603/6 602/6 601/6
v -0.2400 0.0000 -0.2400
v -0.2400 0.0600 -0.2400
v -0.2400 0.0600 -0.3600
v -0.2400 0.0000 -0.3600
f 608/6 607/6 606/6 605/6
v -0.3600 0.0000 -0.2400
v -0.2400 0.0000 -0.2400
v -0.2400 0.0000 -0.3600
v -0.3600 0.0000 -0.3600
f 612/6 611/6 610/6 609/6
v -0.3600 0.0600 -0.3600
v -0.2400 0.0600 -0.3600
v -0.2400 0.0600 -0.2400
v -0.3600 0.0600 -0.2400
f 616/6 615/6 614/6 613/6
v -0.3600 0.0000 -0.3600
v -0.2400 0.0000 -0.3600
v -0.2400 0.0600 -0.3600
v -0.3600 0.0600 -0.3600
f 620/6 619/6 618/6 617/6
v -0.3600 0.0600 -0.2400
v -0.2400 0.0600 -0.2400
v -0.2400 0.0000 -0.2400
v -0.3600 0.0000 -0.2400
f 624/6 623/6 622/6 621/6
v 0.2400 0.0000 -0.4000
v 0.2400 0.0600 -0.4000
v 0.2400 0.0600 -0.3000
v 0.2400 0.0000 -0.3000
f 628/6 627/6 626/6 625/6
v 0.3600 0.0000 -0.3000
v 0.3600 0.0600 -0.3000
v 0.3600 0.0600 -0.4000
v 0.3600 0.0000 -0.4000
f 632/6 631/6 630/6 629/6
v 0.2400 0.0000 -0.3000
v 0.3600 0.0000 -0.3000
v 0.3600 0.0000 -0.4000
v 0.2400 0.0000 -0.4000
f 636/6 635/6 634/6 633/6
v 0.2400 0.0600 -0.4000
v 0.3600 0.0600 -0.4000
v 0.3600 0.0600 -0.3000
v 0.2400 0.0600 -0.3000
f 640/6 639/6 638/6 637/6
v 0.2400 0.0000 -0.4000
v 0.3600 0.0000 -0.4000
v 0.3600 0.0600 -0.4000
v 0.2400 0.0600 -0.4000
f 644/6 643/6 642/6 641/6
v 0.2400 0.0600 -0.3000
v 0.3600 0.0600 -0.3000
v 0.3600 0.0000 -0.3000
v 0.2400 0.0000 -0.3000
f 648/6 647/6 646/6 645/6
v -0.4000 0.0000 0.2400
v -0.4000 0.0600 0.2400
v -0.4000 0.0600 0.3600
v -0.4000 0.0000 0.3600
f 652/6 651/6 650/6 649/6
v -0.3000 0.0000 0.3600
v -0.3000 0.0600 0.3600
v -0.3000 0.0600 0.2400
v -0.3000 0.0000 0.2400
f 656/6 655/6 654/6 653/6
v -0.4000 0.0000 0.3600
v -0.3000 0.0000 0.3600
v -0.3000 0.0000 0.2400
v -0.4000 0.0000 0.2400
f 660/6 659/6 658/6 657/6
v -0.4000 0.0600 0.2400
v -0.3000 0.0600 0.2400
v -0.3000 0.0600 0.3600
v -0.4000 0.0600 0.3600
f 664/6 663/6 662/6 661/6
v -0.4000 0.0000 0.2400
v -0.3000 0.0000 0.2400
v -0.3000 0.0600 0.2400
v -0.4000 0.0600 0.2400
f 668/6 667/6 666/6 665/6
v -0.4000 0.0600 0.3600
v -0.3000 0.0600 0.3600
v -0.3000 0.0000 0.3600
v -0.4000 0.0000 0.3600
f 672/6 671/6 670/6 669/6
v 0.2523 0.1800 0.0844
v 0.2523 0.1920 0.0844
v 0.3297 0.1920 -0.1025
v 0.3297 0.1800 -0.1025
f 676/8 675/8 674/8 673/8
v 0.2743 0.1800 -0.1254
v 0.2743 0.1920 -0.1254
v 0.1969 0.1920 0.0614
v 0.1969 0.1800 0.0614
f 680/8 679/8 678/8 677/8
v 0.3297 0.1800 -0.1025
v 0.2743 0.1800 -0.1254
v 0.1969 0.1800 0.0614
v 0.2523 0.1800 0.0844
f 684/8 683/8 682/8 681/8
v 0.2523 0.1920 0.0844
v 0.1969 0.1920 0.0614
v 0.2743 0.1920 -0.1254
v 0.3297 0.1920 -0.1025
f 688/8 687/8 686/8 685/8
v 0.2523 0.1800 0.0844
v 0.1969 0.1800 0.0614
v 0.1969 0.1920 0.0614
v 0.2523 0.1920 0.0844
f 692/8 691/8 690/8 689/8
v 0.3297 0.1920 -0.1025
v 0.2743 0.1920 -0.1254
v 0.2743 0.1800 -0.1254
v 0.3297 0.1800 -0.1025
f 696/8 695/8 694/8 693/8
v 0.2131 0.1800 0.1006
v 0.2131 0.1920 0.1006
v 0.3999 0.1920 0.1780
v 0.3999 0.1800 0.1780
f 700/8 699/8 698/8 697/8
v 0.4229 0.1800 0.1226
v 0.4229 0.1920 0.1226
v 0.2361 0.1920 0.0452
v 0.2361 0.1800 0.0452
f 704/8 703/8 702/8 701/8
v 0.3999 0.1800 0.1780
v 0.4229 0.1800 0.1226
v 0.2361 0.1800 0.0452
v 0.2131 0.1800 0.1006
f 708/8 707/8 706/8 705/8
v 0.2131 0.1920 0.1006
v 0.2361 0.1920 0.0452
v 0.4229 0.1920 0.1226
v 0.3999 0.1920 0.1780
f 712/8 711/8 710/8 709/8
v 0.2131 0.1800 0.1006
v 0.2361 0.1800 0.0452
v 0.2361 0.1920 0.0452
v 0.2131 0.1920 0.1006
f 716/8 715/8 714/8 713/8
v 0.3999 0.1920 0.1780
v 0.4229 0.1920 0.1226
v 0.4229 0.1800 0.1226
v 0.3999 0.1800 0.1780
f 720/8 719/8 718/8 717/8
v 0.0310 0.1800 0.3813
v 0.0310 0.1920 0.3813
v -0.0464 0.1920 0.1944
v -0.0464 0.1800 0.1944
f 724/8 723/8 722/8 721/8
v -0.1019 0.1800 0.2174
v -0.1019 0.1920 0.2174
v -0.0245 0.1920 0.4042
v -0.0245 0.1800 0.4042
f 728/8 727/8 726/8 725/8
v -0.0464 0.1800 0.1944
v -0.1019 0.1800 0.2174
v -0.0245 0.1800 0.4042
v 0.0310 0.1800 0.3813
f 732/8 731/8 730/8 729/8
v 0.0310 0.1920 0.3813
v -0.0245 0.1920 0.4042
v -0.1019 0.1920 0.2174
v -0.0464 0.1920 0.1944
f 736/8 735/8 734/8 733/8
v 0.0310 0.1800 0.3813
v -0.0245 0.1800 0.4042
v -0.0245 0.1920 0.4042
v 0.0310 0.1920 0.3813
f 740/8 739/8 738/8 737/8
v -0.0464 0.1920 0.1944
v -0.1019 0.1920 0.2174
v -0.1019 0.1800 0.2174
v -0.0464 0.1800 0.1944
f 744/8 743/8 742/8 741/8
v 0.0147 0.1800 0.4204
v 0.0147 0.1920 0.4204
v 0.2016 0.1920 0.3431
v 0.2016 0.1800 0.3431
f 748/8 747/8 746/8 745/8
v 0.1786 0.1800 0.2876
v 0.1786 0.1920 0.2876
v -0.0082 0.1920 0.3650
v -0.0082 0.1800 0.3650
f 752/8 751/8 750/8 749/8
v 0.2016 0.1800 0.3431
v 0.1786 0.1800 0.2876
v -0.0082 0.1800 0.3650
v 0.0147 0.1800 0.4204
f 756/8 755/8 754/8 753/8
v 0.0147 0.1920 0.4204
v -0.0082 0.1920 0.3650
v 0.1786 0.1920 0.2876
v 0.2016 0.1920 0.3431
f 760/8 759/8 758/8 757/8
v 0.0147 0.1800 0.4204
v -0.0082 0.1800 0.3650
v -0.0082 0.1920 0.3650
v 0.0147 0.1920 0.4204
f 764/8 763/8 762/8 761/8
v 0.2016 0.1920 0.3431
v 0.1786 0.1920 0.2876
v 0.1786 0.1800 0.2876
v 0.2016 0.1800 0.3431
f 768/8 767/8 766/8 765/8
usemtl wi_rubber
v 0.5000 0.1300 0.4050
v 0.5000 0.1300 -0.4050
v 0.3234 0.1300 -0.3876
v 0.4815 0.1300 0.4068
f 772/1 771/1 770/1 769/1
v 0.4815 0.1800 0.4068
vt 1.0000 0.0982
v 0.3234 0.1800 -0.3876
vt 1.0000 0.0982
v 0.5000 0.1800 -0.4050
vt 1.0000 0.0000
v 0.5000 0.1800 0.4050
vt 1.0000 0.0000
f 776/37 775/36 774/35 773/34
v 0.5000 0.1800 0.4050
v 0.5000 0.1800 -0.4050
v 0.5000 0.1300 -0.4050
v 0.5000 0.1300 0.4050
f 780/1 779/1 778/1 777/1
v 0.5000 0.1800 -0.4050
v 0.3234 0.1800 -0.3876
v 0.3234 0.1300 -0.3876
v 0.5000 0.1300 -0.4050
f 784/1 783/1 782/1 781/1
v 0.3234 0.1800 -0.3876
v 0.4815 0.1800 0.4068
v 0.4815 0.1300 0.4068
v 0.3234 0.1300 -0.3876
f 788/1 787/1 786/1 785/1
v 0.4815 0.1800 0.4068
v 0.5000 0.1800 0.4050
v 0.5000 0.1300 0.4050
v 0.4815 0.1300 0.4068
f 792/1 791/1 790/1 789/1
v 0.4815 0.1300 0.4068
v 0.3234 0.1300 -0.3876
v 0.1537 0.1300 -0.3361
v 0.4636 0.1300 0.4122
f 796/1 795/1 794/1 793/1
v 0.4636 0.1800 0.4122
vt 1.0000 0.1963
v 0.1537 0.1800 -0.3361
vt 1.0000 0.1963
v 0.3234 0.1800 -0.3876
vt 1.0000 0.0982
v 0.4815 0.1800 0.4068
vt 1.0000 0.0982
f 800/41 799/40 798/39 797/38
v 0.4815 0.1800 0.4068
v 0.3234 0.1800 -0.3876
v 0.3234 0.1300 -0.3876
v 0.4815 0.1300 0.4068
f 804/1 803/1 802/1 801/1
v 0.3234 0.1800 -0.3876
v 0.1537 0.1800 -0.3361
v 0.1537 0.1300 -0.3361
v 0.3234 0.1300 -0.3876
f 808/1 807/1 806/1 805/1
v 0.1537 0.1800 -0.3361
v 0.4636 0.1800 0.4122
v 0.4636 0.1300 0.4122
v 0.1537 0.1300 -0.3361
f 812/1 811/1 810/1 809/1
v 0.4636 0.1800 0.4122
v 0.4815 0.1800 0.4068
v 0.4815 0.1300 0.4068
v 0.4636 0.1300 0.4122
f 816/1 815/1 814/1 813/1
v 0.4636 0.1300 0.4122
v 0.1537 0.1300 -0.3361
v -0.0028 0.1300 -0.2525
v 0.4472 0.1300 0.4210
f 820/1 819/1 818/1 817/1
v 0.4472 0.1800 0.4210
vt 1.0000 0.2945
v -0.0028 0.1800 -0.2525
vt 1.0000 0.2945
v 0.1537 0.1800 -0.3361
vt 1.0000 0.1963
v 0.4636 0.1800 0.4122
vt 1.0000 0.1963
f 824/45 823/44 822/43 821/42
v 0.4636 0.1800 0.4122
v 0.1537 0.1800 -0.3361
v 0.1537 0.1300 -0.3361
v 0.4636 0.1300 0.4122
f 828/1 827/1 826/1 825/1
v 0.1537 0.1800 -0.3361
v -0.0028 0.1800 -0.2525
v -0.0028 0.1300 -0.2525
v 0.1537 0.1300 -0.3361
f 832/1 831/1 830/1 829/1
v -0.0028 0.1800 -0.2525
v 0.4472 0.1800 0.4210
v 0.4472 0.1300 0.4210
v -0.0028 0.1300 -0.2525
f 836/1 835/1 834/1 833/1
v 0.4472 0.1800 0.4210
v 0.4636 0.1800 0.4122
v 0.4636 0.1300 0.4122
v 0.4472 0.1300 0.4210
f 840/1 839/1 838/1 837/1
v 0.4472 0.1300 0.4210
v -0.0028 0.1300 -0.2525
v -0.1399 0.1300 -0.1399
v 0.4328 0.1300 0.4328
f 844/1 843/1 842/1 841/1
v 0.4328 0.1800 0.4328
vt 1.0000 0.3927
v -0.1399 0.1800 -0.1399
vt 1.0000 0.3927
v -0.0028 0.1800 -0.2525
vt 1.0000 0.2945
v 0.4472 0.1800 0.4210
vt 1.0000 0.2945
f 848/49 847/48 846/47 845/46
v 0.4472 0.1800 0.4210
v -0.0028 0.1800 -0.2525
v -0.0028 0.1300 -0.2525
v 0.4472 0.1300 0.4210
f 852/1 851/1 850/1 849/1
v -0.0028 0.1800 -0.2525
v -0.1399 0.1800 -0.1399
v -0.1399 0.1300 -0.1399
v -0.0028 0.1300 -0.2525
f 856/1 855/1 854/1 853/1
v -0.1399 0.1800 -0.1399
v 0.4328 0.1800 0.4328
v 0.4328 0.1300 0.4328
v -0.1399 0.1300 -0.1399
f 860/1 859/1 858/1 857/1
v 0.4328 0.1800 0.4328
v 0.4472 0.1800 0.4210
v 0.4472 0.1300 0.4210
v 0.4328 0.1300 0.4328
f 864/1 863/1 862/1 861/1
v 0.4328 0.1300 0.4328
v -0.1399 0.1300 -0.1399
v -0.2525 0.1300 -0.0028
v 0.4210 0.1300 0.4472
f 868/1 867/1 866/1 865/1
v 0.4210 0.1800 0.4472
vt 1.0000 0.4909
v -0.2525 0.1800 -0.0028
vt 1.0000 0.4909
v -0.1399 0.1800 -0.1399
vt 1.0000 0.3927
v 0.4328 0.1800 0.4328
vt 1.0000 0.3927
f 872/53 871/52 870/51 869/50
v 0.4328 0.1800 0.4328
v -0.1399 0.1800 -0.1399
v -0.1399 0.1300 -0.1399
v 0.4328 0.1300 0.4328
f 876/1 875/1 874/1 873/1
v -0.1399 0.1800 -0.1399
v -0.2525 0.1800 -0.0028
v -0.2525 0.1300 -0.0028
v -0.1399 0.1300 -0.1399
f 880/1 879/1 878/1 877/1
v -0.2525 0.1800 -0.0028
v 0.4210 0.1800 0.4472
v 0.4210 0.1300 0.4472
v -0.2525 0.1300 -0.0028
f 884/1 883/1 882/1 881/1
v 0.4210 0.1800 0.4472
v 0.4328 0.1800 0.4328
v 0.4328 0.1300 0.4328
v 0.4210 0.1300 0.4472
f 888/1 887/1 886/1 885/1
v 0.4210 0.1300 0.4472
v -0.2525 0.1300 -0.0028
v -0.3361 0.1300 0.1537
v 0.4122 0.1300 0.4636
f 892/1 891/1 890/1 889/1
v 0.4122 0.1800 0.4636
vt 1.0000 0.5890
v -0.3361 0.1800 0.1537
vt 1.0000 0.5890
v -0.2525 0.1800 -0.0028
vt 1.0000 0.4909
v 0.4210 0.1800 0.4472
vt 1.0000 0.4909
f 896/57 895/56 894/55 893/54
v 0.4210 0.1800 0.4472
v -0.2525 0.1800 -0.0028
v -0.2525 0.1300 -0.0028
v 0.4210 0.1300 0.4472
f 900/1 899/1 898/1 897/1
v -0.2525 0.1800 -0.0028
v -0.3361 0.1800 0.1537
v -0.3361 0.1300 0.1537
v -0.2525 0.1300 -0.0028
f 904/1 903/1 902/1 901/1
v -0.3361 0.1800 0.1537
v 0.4122 0.1800 0.4636
v 0.4122 0.1300 0.4636
v -0.3361 0.1300 0.1537
f 908/1 907/1 906/1 905/1
v 0.4122 0.1800 0.4636
v 0.4210 0.1800 0.4472
v 0.4210 0.1300 0.4472
v 0.4122 0.1300 0.4636
f 912/1 911/1 910/1 909/1
v 0.4122 0.1300 0.4636
v -0.3361 0.1300 0.1537
v -0.3876 0.1300 0.3234
v 0.4068 0.1300 0.4815
f 916/1 915/1 914/1 913/1
v 0.4068 0.1800 0.4815
vt 1.0000 0.6872
v -0.3876 0.1800 0.3234
vt 1.0000 0.6872
v -0.3361 0.1800 0.1537
vt 1.0000 0.5890
v 0.4122 0.1800 0.4636
vt 1.0000 0.5890
f 920/61 919/60 918/59 917/58
v 0.4122 0.1800 0.4636
v -0.3361 0.1800 0.1537
v -0.3361 0.1300 0.1537
v 0.4122 0.1300 0.4636
f 924/1 923/1 922/1 921/1
v -0.3361 0.1800 0.1537
v -0.3876 0.1800 0.3234
v -0.3876 0.1300 0.3234
v -0.3361 0.1300 0.1537
f 928/1 927/1 926/1 925/1
v -0.3876 0.1800 0.3234
v 0.4068 0.1800 0.4815
v 0.4068 0.1300 0.4815
v -0.3876 0.1300 0.3234
f 932/1 931/1 930/1 929/1
v 0.4068 0.1800 0.4815
v 0.4122 0.1800 0.4636
v 0.4122 0.1300 0.4636
v 0.4068 0.1300 0.4815
f 936/1 935/1 934/1 933/1
v 0.4068 0.1300 0.4815
v -0.3876 0.1300 0.3234
v -0.4050 0.1300 0.5000
v 0.4050 0.1300 0.5000
f 940/1 939/1 938/1 937/1
v 0.4050 0.1800 0.5000
vt 1.0000 0.7854
v -0.4050 0.1800 0.5000
vt 1.0000 0.7854
v -0.3876 0.1800 0.3234
vt 1.0000 0.6872
v 0.4068 0.1800 0.4815
vt 1.0000 0.6872
f 944/65 943/64 942/63 941/62
v 0.4068 0.1800 0.4815
v -0.3876 0.1800 0.3234
v -0.3876 0.1300 0.3234
v 0.4068 0.1300 0.4815
f 948/1 947/1 946/1 945/1
v -0.3876 0.1800 0.3234
v -0.4050 0.1800 0.5000
v -0.4050 0.1300 0.5000
v -0.3876 0.1300 0.3234
f 952/1 951/1 950/1 949/1
v -0.4050 0.1800 0.5000
v 0.4050 0.1800 0.5000
v 0.4050 0.1300 0.5000
v -0.4050 0.1300 0.5000
f 956/1 955/1 954/1 953/1
v 0.4050 0.1800 0.5000
v 0.4068 0.1800 0.4815
v 0.4068 0.1300 0.4815
v 0.4050 0.1300 0.5000
f 960/1 959/1 958/1 957/1
