# Walk of Industry low-poly (generated, wi_lib.py)
mtllib wi.mtl
vt 0 0
vt 0.03125 0.03125
vt 0.09375 0.03125
vt 0.15625 0.03125
vt 0.21875 0.03125
vt 0.28125 0.03125
vt 0.34375 0.03125
vt 0.40625 0.03125
vt 0.46875 0.03125
vt 0.53125 0.03125
vt 0.59375 0.03125
vt 0.65625 0.03125
vt 0.71875 0.03125
vt 0.78125 0.03125
vt 0.84375 0.03125
vt 0.90625 0.03125
vt 0.96875 0.03125
vt 0.03125 0.09375
vt 0.09375 0.09375
vt 0.15625 0.09375
vt 0.21875 0.09375
vt 0.28125 0.09375
vt 0.34375 0.09375
vt 0.40625 0.09375
vt 0.46875 0.09375
vt 0.53125 0.09375
vt 0.59375 0.09375
vt 0.65625 0.09375
vt 0.71875 0.09375
vt 0.78125 0.09375
vt 0.84375 0.09375
vt 0.90625 0.09375
vt 0.96875 0.09375
o Belt
usemtl wi_edge
v 0.4750 0.0600 0.5000
v 0.4750 0.2500 0.5000
v 0.4750 0.2500 -0.5000
v 0.4750 0.0600 -0.5000
f 4/1 3/1 2/1 1/1
v 0.4050 0.0600 -0.5000
v 0.4050 0.2500 -0.5000
v 0.4050 0.2500 0.5000
v 0.4050 0.0600 0.5000
f 8/1 7/1 6/1 5/1
v 0.4750 0.0600 -0.5000
v 0.4050 0.0600 -0.5000
v 0.4050 0.0600 0.5000
v 0.4750 0.0600 0.5000
f 12/1 11/1 10/1 9/1
v 0.4750 0.2500 0.5000
v 0.4050 0.2500 0.5000
v 0.4050 0.2500 -0.5000
v 0.4750 0.2500 -0.5000
f 16/1 15/1 14/1 13/1
v 0.4750 0.2500 -0.5000
v 0.4050 0.2500 -0.5000
v 0.4050 0.0600 -0.5000
v 0.4750 0.0600 -0.5000
f 20/1 19/1 18/1 17/1
v 0.4750 0.0600 0.5000
v 0.4050 0.0600 0.5000
v 0.4050 0.2500 0.5000
v 0.4750 0.2500 0.5000
f 24/1 23/1 22/1 21/1
v -0.4050 0.0600 0.5000
v -0.4050 0.2500 0.5000
v -0.4050 0.2500 -0.5000
v -0.4050 0.0600 -0.5000
f 28/1 27/1 26/1 25/1
v -0.4750 0.0600 -0.5000
v -0.4750 0.2500 -0.5000
v -0.4750 0.2500 0.5000
v -0.4750 0.0600 0.5000
f 32/1 31/1 30/1 29/1
v -0.4050 0.0600 -0.5000
v -0.4750 0.0600 -0.5000
v -0.4750 0.0600 0.5000
v -0.4050 0.0600 0.5000
f 36/1 35/1 34/1 33/1
v -0.4050 0.2500 0.5000
v -0.4750 0.2500 0.5000
v -0.4750 0.2500 -0.5000
v -0.4050 0.2500 -0.5000
f 40/1 39/1 38/1 37/1
v -0.4050 0.2500 -0.5000
v -0.4750 0.2500 -0.5000
v -0.4750 0.0600 -0.5000
v -0.4050 0.0600 -0.5000
f 44/1 43/1 42/1 41/1
v -0.4050 0.0600 0.5000
v -0.4750 0.0600 0.5000
v -0.4750 0.2500 0.5000
v -0.4050 0.2500 0.5000
f 48/1 47/1 46/1 45/1
usemtl wi_palette
v 0.3850 0.0700 0.4800
v 0.3850 0.1300 0.4800
v 0.3850 0.1300 -0.4800
v 0.3850 0.0700 -0.4800
f 52/6 51/6 50/6 49/6
v -0.3850 0.0700 -0.4800
v -0.3850 0.1300 -0.4800
v -0.3850 0.1300 0.4800
v -0.3850 0.0700 0.4800
f 56/6 55/6 54/6 53/6
v 0.3850 0.0700 -0.4800
v -0.3850 0.0700 -0.4800
v -0.3850 0.0700 0.4800
v 0.3850 0.0700 0.4800
f 60/6 59/6 58/6 57/6
v 0.3850 0.1300 0.4800
v -0.3850 0.1300 0.4800
v -0.3850 0.1300 -0.4800
v 0.3850 0.1300 -0.4800
f 64/6 63/6 62/6 61/6
v 0.3850 0.1300 -0.4800
v -0.3850 0.1300 -0.4800
v -0.3850 0.0700 -0.4800
v 0.3850 0.0700 -0.4800
f 68/6 67/6 66/6 65/6
v 0.3850 0.0700 0.4800
v -0.3850 0.0700 0.4800
v -0.3850 0.1300 0.4800
v 0.3850 0.1300 0.4800
f 72/6 71/6 70/6 69/6
v 0.4800 0.2475 0.5000
v 0.4800 0.2725 0.5000
v 0.4800 0.2725 -0.5000
v 0.4800 0.2475 -0.5000
f 76/4 75/4 74/4 73/4
v 0.4000 0.2475 -0.5000
v 0.4000 0.2725 -0.5000
v 0.4000 0.2725 0.5000
v 0.4000 0.2475 0.5000
f 80/4 79/4 78/4 77/4
v 0.4800 0.2475 -0.5000
v 0.4000 0.2475 -0.5000
v 0.4000 0.2475 0.5000
v 0.4800 0.2475 0.5000
f 84/4 83/4 82/4 81/4
v 0.4800 0.2725 0.5000
v 0.4000 0.2725 0.5000
v 0.4000 0.2725 -0.5000
v 0.4800 0.2725 -0.5000
f 88/4 87/4 86/4 85/4
v 0.4800 0.2725 -0.5000
v 0.4000 0.2725 -0.5000
v 0.4000 0.2475 -0.5000
v 0.4800 0.2475 -0.5000
f 92/4 91/4 90/4 89/4
v 0.4800 0.2475 0.5000
v 0.4000 0.2475 0.5000
v 0.4000 0.2725 0.5000
v 0.4800 0.2725 0.5000
f 96/4 95/4 94/4 93/4
v -0.4000 0.2475 0.5000
v -0.4000 0.2725 0.5000
v -0.4000 0.2725 -0.5000
v -0.4000 0.2475 -0.5000
f 100/4 99/4 98/4 97/4
v -0.4800 0.2475 -0.5000
v -0.4800 0.2725 -0.5000
v -0.4800 0.2725 0.5000
v -0.4800 0.2475 0.5000
f 104/4 103/4 102/4 101/4
v -0.4000 0.2475 -0.5000
v -0.4800 0.2475 -0.5000
v -0.4800 0.2475 0.5000
v -0.4000 0.2475 0.5000
f 108/4 107/4 106/4 105/4
v -0.4000 0.2725 0.5000
v -0.4800 0.2725 0.5000
v -0.4800 0.2725 -0.5000
v -0.4000 0.2725 -0.5000
f 112/4 111/4 110/4 109/4
v -0.4000 0.2725 -0.5000
v -0.4800 0.2725 -0.5000
v -0.4800 0.2475 -0.5000
v -0.4000 0.2475 -0.5000
f 116/4 115/4 114/4 113/4
v -0.4000 0.2475 0.5000
v -0.4800 0.2475 0.5000
v -0.4800 0.2725 0.5000
v -0.4000 0.2725 0.5000
f 120/4 119/4 118/4 117/4
v 0.4000 0.1575 -0.4903
v 0.4000 0.1750 -0.4600
v -0.4000 0.1750 -0.4600
v -0.4000 0.1575 -0.4903
f 124/7 123/7 122/7 121/7
v 0.4000 0.1750 -0.4600
v 0.4000 0.1575 -0.4297
v -0.4000 0.1575 -0.4297
v -0.4000 0.1750 -0.4600
f 128/7 127/7 126/7 125/7
v 0.4000 0.1575 -0.4297
v 0.4000 0.1225 -0.4297
v -0.4000 0.1225 -0.4297
v -0.4000 0.1575 -0.4297
f 132/7 131/7 130/7 129/7
v 0.4000 0.1225 -0.4297
v 0.4000 0.1050 -0.4600
v -0.4000 0.1050 -0.4600
v -0.4000 0.1225 -0.4297
f 136/7 135/7 134/7 133/7
v 0.4000 0.1050 -0.4600
v 0.4000 0.1225 -0.4903
v -0.4000 0.1225 -0.4903
v -0.4000 0.1050 -0.4600
f 140/7 139/7 138/7 137/7
v 0.4000 0.1225 -0.4903
v 0.4000 0.1575 -0.4903
v -0.4000 0.1575 -0.4903
v -0.4000 0.1225 -0.4903
f 144/7 143/7 142/7 141/7
v 0.4000 0.1225 -0.4903
v 0.4000 0.1050 -0.4600
v 0.4000 0.1225 -0.4297
v 0.4000 0.1575 -0.4297
v 0.4000 0.1750 -0.4600
v 0.4000 0.1575 -0.4903
f 150/7 149/7 148/7 147/7 146/7 145/7
v -0.4000 0.1575 -0.4903
v -0.4000 0.1750 -0.4600
v -0.4000 0.1575 -0.4297
v -0.4000 0.1225 -0.4297
v -0.4000 0.1050 -0.4600
v -0.4000 0.1225 -0.4903
f 156/7 155/7 154/7 153/7 152/7 151/7
v 0.4000 0.1575 0.4297
v 0.4000 0.1750 0.4600
v -0.4000 0.1750 0.4600
v -0.4000 0.1575 0.4297
f 160/7 159/7 158/7 157/7
v 0.4000 0.1750 0.4600
v 0.4000 0.1575 0.4903
v -0.4000 0.1575 0.4903
v -0.4000 0.1750 0.4600
f 164/7 163/7 162/7 161/7
v 0.4000 0.1575 0.4903
v 0.4000 0.1225 0.4903
v -0.4000 0.1225 0.4903
v -0.4000 0.1575 0.4903
f 168/7 167/7 166/7 165/7
v 0.4000 0.1225 0.4903
v 0.4000 0.1050 0.4600
v -0.4000 0.1050 0.4600
v -0.4000 0.1225 0.4903
f 172/7 171/7 170/7 169/7
v 0.4000 0.1050 0.4600
v 0.4000 0.1225 0.4297
v -0.4000 0.1225 0.4297
v -0.4000 0.1050 0.4600
f 176/7 175/7 174/7 173/7
v 0.4000 0.1225 0.4297
v 0.4000 0.1575 0.4297
v -0.4000 0.1575 0.4297
v -0.4000 0.1225 0.4297
f 180/7 179/7 178/7 177/7
v 0.4000 0.1225 0.4297
v 0.4000 0.1050 0.4600
v 0.4000 0.1225 0.4903
v 0.4000 0.1575 0.4903
v 0.4000 0.1750 0.4600
v 0.4000 0.1575 0.4297
f 186/7 185/7 184/7 183/7 182/7 181/7
v -0.4000 0.1575 0.4297
v -0.4000 0.1750 0.4600
v -0.4000 0.1575 0.4903
v -0.4000 0.1225 0.4903
v -0.4000 0.1050 0.4600
v -0.4000 0.1225 0.4297
f 192/7 191/7 190/7 189/7 188/7 187/7
v 0.4900 0.0000 -0.2400
v 0.4900 0.0600 -0.2400
v 0.4900 0.0600 -0.3600
v 0.4900 0.0000 -0.3600
f 196/6 195/6 194/6 193/6
v 0.3900 0.0000 -0.3600
v 0.3900 0.0600 -0.3600
v 0.3900 0.0600 -0.2400
v 0.3900 0.0000 -0.2400
f 200/6 199/6 198/6 197/6
v 0.4900 0.0000 -0.3600
v 0.3900 0.0000 -0.3600
v 0.3900 0.0000 -0.2400
v 0.4900 0.0000 -0.2400
f 204/6 203/6 202/6 201/6
v 0.4900 0.0600 -0.2400
v 0.3900 0.0600 -0.2400
v 0.3900 0.0600 -0.3600
v 0.4900 0.0600 -0.3600
f 208/6 207/6 206/6 205/6
v 0.4900 0.0600 -0.3600
v 0.3900 0.0600 -0.3600
v 0.3900 0.0000 -0.3600
v 0.4900 0.0000 -0.3600
f 212/6 211/6 210/6 209/6
v 0.4900 0.0000 -0.2400
v 0.3900 0.0000 -0.2400
v 0.3900 0.0600 -0.2400
v 0.4900 0.0600 -0.2400
f 216/6 215/6 214/6 213/6
v 0.4900 0.0000 0.3600
v 0.4900 0.0600 0.3600
v 0.4900 0.0600 0.2400
v 0.4900 0.0000 0.2400
f 220/6 219/6 218/6 217/6
v 0.3900 0.0000 0.2400
v 0.3900 0.0600 0.2400
v 0.3900 0.0600 0.3600
v 0.3900 0.0000 0.3600
f 224/6 223/6 222/6 221/6
v 0.4900 0.0000 0.2400
v 0.3900 0.0000 0.2400
v 0.3900 0.0000 0.3600
v 0.4900 0.0000 0.3600
f 228/6 227/6 226/6 225/6
v 0.4900 0.0600 0.3600
v 0.3900 0.0600 0.3600
v 0.3900 0.0600 0.2400
v 0.4900 0.0600 0.2400
f 232/6 231/6 230/6 229/6
v 0.4900 0.0600 0.2400
v 0.3900 0.0600 0.2400
v 0.3900 0.0000 0.2400
v 0.4900 0.0000 0.2400
f 236/6 235/6 234/6 233/6
v 0.4900 0.0000 0.3600
v 0.3900 0.0000 0.3600
v 0.3900 0.0600 0.3600
v 0.4900 0.0600 0.3600
f 240/6 239/6 238/6 237/6
v -0.3900 0.0000 -0.2400
v -0.3900 0.0600 -0.2400
v -0.3900 0.0600 -0.3600
v -0.3900 0.0000 -0.3600
f 244/6 243/6 242/6 241/6
v -0.4900 0.0000 -0.3600
v -0.4900 0.0600 -0.3600
v -0.4900 0.0600 -0.2400
v -0.4900 0.0000 -0.2400
f 248/6 247/6 246/6 245/6
v -0.3900 0.0000 -0.3600
v -0.4900 0.0000 -0.3600
v -0.4900 0.0000 -0.2400
v -0.3900 0.0000 -0.2400
f 252/6 251/6 250/6 249/6
v -0.3900 0.0600 -0.2400
v -0.4900 0.0600 -0.2400
v -0.4900 0.0600 -0.3600
v -0.3900 0.0600 -0.3600
f 256/6 255/6 254/6 253/6
v -0.3900 0.0600 -0.3600
v -0.4900 0.0600 -0.3600
v -0.4900 0.0000 -0.3600
v -0.3900 0.0000 -0.3600
f 260/6 259/6 258/6 257/6
v -0.3900 0.0000 -0.2400
v -0.4900 0.0000 -0.2400
v -0.4900 0.0600 -0.2400
v -0.3900 0.0600 -0.2400
f 264/6 263/6 262/6 261/6
v -0.3900 0.0000 0.3600
v -0.3900 0.0600 0.3600
v -0.3900 0.0600 0.2400
v -0.3900 0.0000 0.2400
f 268/6 267/6 266/6 265/6
v -0.4900 0.0000 0.2400
v -0.4900 0.0600 0.2400
v -0.4900 0.0600 0.3600
v -0.4900 0.0000 0.3600
f 272/6 271/6 270/6 269/6
v -0.3900 0.0000 0.2400
v -0.4900 0.0000 0.2400
v -0.4900 0.0000 0.3600
v -0.3900 0.0000 0.3600
f 276/6 275/6 274/6 273/6
v -0.3900 0.0600 0.3600
v -0.4900 0.0600 0.3600
v -0.4900 0.0600 0.2400
v -0.3900 0.0600 0.2400
f 280/6 279/6 278/6 277/6
v -0.3900 0.0600 0.2400
v -0.4900 0.0600 0.2400
v -0.4900 0.0000 0.2400
v -0.3900 0.0000 0.2400
f 284/6 283/6 282/6 281/6
v -0.3900 0.0000 0.3600
v -0.4900 0.0000 0.3600
v -0.4900 0.0600 0.3600
v -0.3900 0.0600 0.3600
f 288/6 287/6 286/6 285/6
v 0.1218 0.1800 -0.2932
v 0.1218 0.1920 -0.2932
v -0.0212 0.1920 -0.1502
v -0.0212 0.1800 -0.1502
f 292/8 291/8 290/8 289/8
v 0.0212 0.1800 -0.1078
v 0.0212 0.1920 -0.1078
v 0.1642 0.1920 -0.2508
v 0.1642 0.1800 -0.2508
f 296/8 295/8 294/8 293/8
v -0.0212 0.1800 -0.1502
v 0.0212 0.1800 -0.1078
v 0.1642 0.1800 -0.2508
v 0.1218 0.1800 -0.2932
f 300/8 299/8 298/8 297/8
v 0.1218 0.1920 -0.2932
v 0.1642 0.1920 -0.2508
v 0.0212 0.1920 -0.1078
v -0.0212 0.1920 -0.1502
f 304/8 303/8 302/8 301/8
v -0.0212 0.1920 -0.1502
v 0.0212 0.1920 -0.1078
v 0.0212 0.1800 -0.1078
v -0.0212 0.1800 -0.1502
f 308/8 307/8 306/8 305/8
v 0.1218 0.1800 -0.2932
v 0.1642 0.1800 -0.2508
v 0.1642 0.1920 -0.2508
v 0.1218 0.1920 -0.2932
f 312/8 311/8 310/8 309/8
v -0.1642 0.1800 -0.2508
v -0.1642 0.1920 -0.2508
v -0.0212 0.1920 -0.1078
v -0.0212 0.1800 -0.1078
f 316/8 315/8 314/8 313/8
v 0.0212 0.1800 -0.1502
v 0.0212 0.1920 -0.1502
v -0.1218 0.1920 -0.2932
v -0.1218 0.1800 -0.2932
f 320/8 319/8 318/8 317/8
v -0.0212 0.1800 -0.1078
v 0.0212 0.1800 -0.1502
v -0.1218 0.1800 -0.2932
v -0.1642 0.1800 -0.2508
f 324/8 323/8 322/8 321/8
v -0.1642 0.1920 -0.2508
v -0.1218 0.1920 -0.2932
v 0.0212 0.1920 -0.1502
v -0.0212 0.1920 -0.1078
f 328/8 327/8 326/8 325/8
v -0.0212 0.1920 -0.1078
v 0.0212 0.1920 -0.1502
v 0.0212 0.1800 -0.1502
v -0.0212 0.1800 -0.1078
f 332/8 331/8 330/8 329/8
v -0.1642 0.1800 -0.2508
v -0.1218 0.1800 -0.2932
v -0.1218 0.1920 -0.2932
v -0.1642 0.1920 -0.2508
f 336/8 335/8 334/8 333/8
v 0.1218 0.1800 0.1468
v 0.1218 0.1920 0.1468
v -0.0212 0.1920 0.2898
v -0.0212 0.1800 0.2898
f 340/8 339/8 338/8 337/8
v 0.0212 0.1800 0.3322
v 0.0212 0.1920 0.3322
v 0.1642 0.1920 0.1892
v 0.1642 0.1800 0.1892
f 344/8 343/8 342/8 341/8
v -0.0212 0.1800 0.2898
v 0.0212 0.1800 0.3322
v 0.1642 0.1800 0.1892
v 0.1218 0.1800 0.1468
f 348/8 347/8 346/8 345/8
v 0.1218 0.1920 0.1468
v 0.1642 0.1920 0.1892
v 0.0212 0.1920 0.3322
v -0.0212 0.1920 0.2898
f 352/8 351/8 350/8 349/8
v -0.0212 0.1920 0.2898
v 0.0212 0.1920 0.3322
v 0.0212 0.1800 0.3322
v -0.0212 0.1800 0.2898
f 356/8 355/8 354/8 353/8
v 0.1218 0.1800 0.1468
v 0.1642 0.1800 0.1892
v 0.1642 0.1920 0.1892
v 0.1218 0.1920 0.1468
f 360/8 359/8 358/8 357/8
v -0.1642 0.1800 0.1892
v -0.1642 0.1920 0.1892
v -0.0212 0.1920 0.3322
v -0.0212 0.1800 0.3322
f 364/8 363/8 362/8 361/8
v 0.0212 0.1800 0.2898
v 0.0212 0.1920 0.2898
v -0.1218 0.1920 0.1468
v -0.1218 0.1800 0.1468
f 368/8 367/8 366/8 365/8
v -0.0212 0.1800 0.3322
v 0.0212 0.1800 0.2898
v -0.1218 0.1800 0.1468
v -0.1642 0.1800 0.1892
f 372/8 371/8 370/8 369/8
v -0.1642 0.1920 0.1892
v -0.1218 0.1920 0.1468
v 0.0212 0.1920 0.2898
v -0.0212 0.1920 0.3322
f 376/8 375/8 374/8 373/8
v -0.0212 0.1920 0.3322
v 0.0212 0.1920 0.2898
v 0.0212 0.1800 0.2898
v -0.0212 0.1800 0.3322
f 380/8 379/8 378/8 377/8
v -0.1642 0.1800 0.1892
v -0.1218 0.1800 0.1468
v -0.1218 0.1920 0.1468
v -0.1642 0.1920 0.1892
f 384/8 383/8 382/8 381/8
usemtl wi_rubber
v 0.4050 0.1300 0.5000
v 0.4050 0.1800 0.5000
v 0.4050 0.1800 -0.5000
v 0.4050 0.1300 -0.5000
f 388/1 387/1 386/1 385/1
v -0.4050 0.1300 -0.5000
v -0.4050 0.1800 -0.5000
v -0.4050 0.1800 0.5000
v -0.4050 0.1300 0.5000
f 392/1 391/1 390/1 389/1
v 0.4050 0.1300 -0.5000
v -0.4050 0.1300 -0.5000
v -0.4050 0.1300 0.5000
v 0.4050 0.1300 0.5000
f 396/1 395/1 394/1 393/1
v 0.4050 0.1800 0.5000
vt 1.0000 0.5000
v -0.4050 0.1800 0.5000
vt 1.0000 0.5000
v -0.4050 0.1800 -0.5000
vt 1.0000 -0.5000
v 0.4050 0.1800 -0.5000
vt 1.0000 -0.5000
f 400/37 399/36 398/35 397/34
v 0.4050 0.1800 -0.5000
v -0.4050 0.1800 -0.5000
v -0.4050 0.1300 -0.5000
v 0.4050 0.1300 -0.5000
f 404/1 403/1 402/1 401/1
v 0.4050 0.1300 0.5000
v -0.4050 0.1300 0.5000
v -0.4050 0.1800 0.5000
v 0.4050 0.1800 0.5000
f 408/1 407/1 406/1 405/1
