# Walk of Industry low-poly (generated, wi_lib.py)
mtllib wi.mtl
vt 0 0
vt 0.03125 0.03125
vt 0.09375 0.03125
vt 0.15625 0.03125
vt 0.21875 0.03125
vt 0.28125 0.03125
vt 0.34375 0.03125
vt 0.40625 0.03125
vt 0.46875 0.03125
vt 0.53125 0.03125
vt 0.59375 0.03125
vt 0.65625 0.03125
vt 0.71875 0.03125
vt 0.78125 0.03125
vt 0.84375 0.03125
vt 0.90625 0.03125
vt 0.96875 0.03125
vt 0.03125 0.09375
vt 0.09375 0.09375
vt 0.15625 0.09375
vt 0.21875 0.09375
vt 0.28125 0.09375
vt 0.34375 0.09375
vt 0.40625 0.09375
vt 0.46875 0.09375
vt 0.53125 0.09375
vt 0.59375 0.09375
vt 0.65625 0.09375
vt 0.71875 0.09375
vt 0.78125 0.09375
vt 0.84375 0.09375
vt 0.90625 0.09375
vt 0.96875 0.09375
o Belt
usemtl wi_edge
v 0.5000 0.0600 -0.4400
v 0.5000 0.2500 -0.4400
v 0.5000 0.2500 -0.5000
v 0.5000 0.0600 -0.5000
f 4/1 3/1 2/1 1/1
v 0.4400 0.0600 -0.5000
v 0.4400 0.2500 -0.5000
v 0.4400 0.2500 -0.4400
v 0.4400 0.0600 -0.4400
f 8/1 7/1 6/1 5/1
v 0.5000 0.0600 -0.5000
v 0.4400 0.0600 -0.5000
v 0.4400 0.0600 -0.4400
v 0.5000 0.0600 -0.4400
f 12/1 11/1 10/1 9/1
v 0.5000 0.2500 -0.4400
v 0.4400 0.2500 -0.4400
v 0.4400 0.2500 -0.5000
v 0.5000 0.2500 -0.5000
f 16/1 15/1 14/1 13/1
v 0.5000 0.2500 -0.5000
v 0.4400 0.2500 -0.5000
v 0.4400 0.0600 -0.5000
v 0.5000 0.0600 -0.5000
f 20/1 19/1 18/1 17/1
v 0.5000 0.0600 -0.4400
v 0.4400 0.0600 -0.4400
v 0.4400 0.2500 -0.4400
v 0.5000 0.2500 -0.4400
f 24/1 23/1 22/1 21/1
v 0.5000 0.0600 0.5000
v 0.5000 0.2500 0.5000
v 0.5000 0.2500 0.4400
v 0.5000 0.0600 0.4400
f 28/1 27/1 26/1 25/1
v 0.4400 0.0600 0.4400
v 0.4400 0.2500 0.4400
v 0.4400 0.2500 0.5000
v 0.4400 0.0600 0.5000
f 32/1 31/1 30/1 29/1
v 0.5000 0.0600 0.4400
v 0.4400 0.0600 0.4400
v 0.4400 0.0600 0.5000
v 0.5000 0.0600 0.5000
f 36/1 35/1 34/1 33/1
v 0.5000 0.2500 0.5000
v 0.4400 0.2500 0.5000
v 0.4400 0.2500 0.4400
v 0.5000 0.2500 0.4400
f 40/1 39/1 38/1 37/1
v 0.5000 0.2500 0.4400
v 0.4400 0.2500 0.4400
v 0.4400 0.0600 0.4400
v 0.5000 0.0600 0.4400
f 44/1 43/1 42/1 41/1
v 0.5000 0.0600 0.5000
v 0.4400 0.0600 0.5000
v 0.4400 0.2500 0.5000
v 0.5000 0.2500 0.5000
f 48/1 47/1 46/1 45/1
v -0.4400 0.0600 -0.4400
v -0.4400 0.2500 -0.4400
v -0.4400 0.2500 -0.5000
v -0.4400 0.0600 -0.5000
f 52/1 51/1 50/1 49/1
v -0.5000 0.0600 -0.5000
v -0.5000 0.2500 -0.5000
v -0.5000 0.2500 -0.4400
v -0.5000 0.0600 -0.4400
f 56/1 55/1 54/1 53/1
v -0.4400 0.0600 -0.5000
v -0.5000 0.0600 -0.5000
v -0.5000 0.0600 -0.4400
v -0.4400 0.0600 -0.4400
f 60/1 59/1 58/1 57/1
v -0.4400 0.2500 -0.4400
v -0.5000 0.2500 -0.4400
v -0.5000 0.2500 -0.5000
v -0.4400 0.2500 -0.5000
f 64/1 63/1 62/1 61/1
v -0.4400 0.2500 -0.5000
v -0.5000 0.2500 -0.5000
v -0.5000 0.0600 -0.5000
v -0.4400 0.0600 -0.5000
f 68/1 67/1 66/1 65/1
v -0.4400 0.0600 -0.4400
v -0.5000 0.0600 -0.4400
v -0.5000 0.2500 -0.4400
v -0.4400 0.2500 -0.4400
f 72/1 71/1 70/1 69/1
v -0.4400 0.0600 0.5000
v -0.4400 0.2500 0.5000
v -0.4400 0.2500 0.4400
v -0.4400 0.0600 0.4400
f 76/1 75/1 74/1 73/1
v -0.5000 0.0600 0.4400
v -0.5000 0.2500 0.4400
v -0.5000 0.2500 0.5000
v -0.5000 0.0600 0.5000
f 80/1 79/1 78/1 77/1
v -0.4400 0.0600 0.4400
v -0.5000 0.0600 0.4400
v -0.5000 0.0600 0.5000
v -0.4400 0.0600 0.5000
f 84/1 83/1 82/1 81/1
v -0.4400 0.2500 0.5000
v -0.5000 0.2500 0.5000
v -0.5000 0.2500 0.4400
v -0.4400 0.2500 0.4400
f 88/1 87/1 86/1 85/1
v -0.4400 0.2500 0.4400
v -0.5000 0.2500 0.4400
v -0.5000 0.0600 0.4400
v -0.4400 0.0600 0.4400
f 92/1 91/1 90/1 89/1
v -0.4400 0.0600 0.5000
v -0.5000 0.0600 0.5000
v -0.5000 0.2500 0.5000
v -0.4400 0.2500 0.5000
f 96/1 95/1 94/1 93/1
usemtl wi_palette
v 0.4800 0.0700 0.4800
v 0.4800 0.1300 0.4800
v 0.4800 0.1300 -0.4800
v 0.4800 0.0700 -0.4800
f 100/6 99/6 98/6 97/6
v -0.4800 0.0700 -0.4800
v -0.4800 0.1300 -0.4800
v -0.4800 0.1300 0.4800
v -0.4800 0.0700 0.4800
f 104/6 103/6 102/6 101/6
v 0.4800 0.0700 -0.4800
v -0.4800 0.0700 -0.4800
v -0.4800 0.0700 0.4800
v 0.4800 0.0700 0.4800
f 108/6 107/6 106/6 105/6
v 0.4800 0.1300 0.4800
v -0.4800 0.1300 0.4800
v -0.4800 0.1300 -0.4800
v 0.4800 0.1300 -0.4800
f 112/6 111/6 110/6 109/6
v 0.4800 0.1300 -0.4800
v -0.4800 0.1300 -0.4800
v -0.4800 0.0700 -0.4800
v 0.4800 0.0700 -0.4800
f 116/6 115/6 114/6 113/6
v 0.4800 0.0700 0.4800
v -0.4800 0.0700 0.4800
v -0.4800 0.1300 0.4800
v 0.4800 0.1300 0.4800
f 120/6 119/6 118/6 117/6
v 0.4900 0.0000 -0.2400
v 0.4900 0.0600 -0.2400
v 0.4900 0.0600 -0.3600
v 0.4900 0.0000 -0.3600
f 124/6 123/6 122/6 121/6
v 0.3900 0.0000 -0.3600
v 0.3900 0.0600 -0.3600
v 0.3900 0.0600 -0.2400
v 0.3900 0.0000 -0.2400
f 128/6 127/6 126/6 125/6
v 0.4900 0.0000 -0.3600
v 0.3900 0.0000 -0.3600
v 0.3900 0.0000 -0.2400
v 0.4900 0.0000 -0.2400
f 132/6 131/6 130/6 129/6
v 0.4900 0.0600 -0.2400
v 0.3900 0.0600 -0.2400
v 0.3900 0.0600 -0.3600
v 0.4900 0.0600 -0.3600
f 136/6 135/6 134/6 133/6
v 0.4900 0.0600 -0.3600
v 0.3900 0.0600 -0.3600
v 0.3900 0.0000 -0.3600
v 0.4900 0.0000 -0.3600
f 140/6 139/6 138/6 137/6
v 0.4900 0.0000 -0.2400
v 0.3900 0.0000 -0.2400
v 0.3900 0.0600 -0.2400
v 0.4900 0.0600 -0.2400
f 144/6 143/6 142/6 141/6
v 0.4900 0.0000 0.3600
v 0.4900 0.0600 0.3600
v 0.4900 0.0600 0.2400
v 0.4900 0.0000 0.2400
f 148/6 147/6 146/6 145/6
v 0.3900 0.0000 0.2400
v 0.3900 0.0600 0.2400
v 0.3900 0.0600 0.3600
v 0.3900 0.0000 0.3600
f 152/6 151/6 150/6 149/6
v 0.4900 0.0000 0.2400
v 0.3900 0.0000 0.2400
v 0.3900 0.0000 0.3600
v 0.4900 0.0000 0.3600
f 156/6 155/6 154/6 153/6
v 0.4900 0.0600 0.3600
v 0.3900 0.0600 0.3600
v 0.3900 0.0600 0.2400
v 0.4900 0.0600 0.2400
f 160/6 159/6 158/6 157/6
v 0.4900 0.0600 0.2400
v 0.3900 0.0600 0.2400
v 0.3900 0.0000 0.2400
v 0.4900 0.0000 0.2400
f 164/6 163/6 162/6 161/6
v 0.4900 0.0000 0.3600
v 0.3900 0.0000 0.3600
v 0.3900 0.0600 0.3600
v 0.4900 0.0600 0.3600
f 168/6 167/6 166/6 165/6
v -0.3900 0.0000 -0.2400
v -0.3900 0.0600 -0.2400
v -0.3900 0.0600 -0.3600
v -0.3900 0.0000 -0.3600
f 172/6 171/6 170/6 169/6
v -0.4900 0.0000 -0.3600
v -0.4900 0.0600 -0.3600
v -0.4900 0.0600 -0.2400
v -0.4900 0.0000 -0.2400
f 176/6 175/6 174/6 173/6
v -0.3900 0.0000 -0.3600
v -0.4900 0.0000 -0.3600
v -0.4900 0.0000 -0.2400
v -0.3900 0.0000 -0.2400
f 180/6 179/6 178/6 177/6
v -0.3900 0.0600 -0.2400
v -0.4900 0.0600 -0.2400
v -0.4900 0.0600 -0.3600
v -0.3900 0.0600 -0.3600
f 184/6 183/6 182/6 181/6
v -0.3900 0.0600 -0.3600
v -0.4900 0.0600 -0.3600
v -0.4900 0.0000 -0.3600
v -0.3900 0.0000 -0.3600
f 188/6 187/6 186/6 185/6
v -0.3900 0.0000 -0.2400
v -0.4900 0.0000 -0.2400
v -0.4900 0.0600 -0.2400
v -0.3900 0.0600 -0.2400
f 192/6 191/6 190/6 189/6
v -0.3900 0.0000 0.3600
v -0.3900 0.0600 0.3600
v -0.3900 0.0600 0.2400
v -0.3900 0.0000 0.2400
f 196/6 195/6 194/6 193/6
v -0.4900 0.0000 0.2400
v -0.4900 0.0600 0.2400
v -0.4900 0.0600 0.3600
v -0.4900 0.0000 0.3600
f 200/6 199/6 198/6 197/6
v -0.3900 0.0000 0.2400
v -0.4900 0.0000 0.2400
v -0.4900 0.0000 0.3600
v -0.3900 0.0000 0.3600
f 204/6 203/6 202/6 201/6
v -0.3900 0.0600 0.3600
v -0.4900 0.0600 0.3600
v -0.4900 0.0600 0.2400
v -0.3900 0.0600 0.2400
f 208/6 207/6 206/6 205/6
v -0.3900 0.0600 0.2400
v -0.4900 0.0600 0.2400
v -0.4900 0.0000 0.2400
v -0.3900 0.0000 0.2400
f 212/6 211/6 210/6 209/6
v -0.3900 0.0000 0.3600
v -0.4900 0.0000 0.3600
v -0.4900 0.0600 0.3600
v -0.3900 0.0600 0.3600
f 216/6 215/6 214/6 213/6
v 0.1218 0.1800 -0.3732
v 0.1218 0.1920 -0.3732
v -0.0212 0.1920 -0.2302
v -0.0212 0.1800 -0.2302
f 220/8 219/8 218/8 217/8
v 0.0212 0.1800 -0.1878
v 0.0212 0.1920 -0.1878
v 0.1642 0.1920 -0.3308
v 0.1642 0.1800 -0.3308
f 224/8 223/8 222/8 221/8
v -0.0212 0.1800 -0.2302
v 0.0212 0.1800 -0.1878
v 0.1642 0.1800 -0.3308
v 0.1218 0.1800 -0.3732
f 228/8 227/8 226/8 225/8
v 0.1218 0.1920 -0.3732
v 0.1642 0.1920 -0.3308
v 0.0212 0.1920 -0.1878
v -0.0212 0.1920 -0.2302
f 232/8 231/8 230/8 229/8
v -0.0212 0.1920 -0.2302
v 0.0212 0.1920 -0.1878
v 0.0212 0.1800 -0.1878
v -0.0212 0.1800 -0.2302
f 236/8 235/8 234/8 233/8
v 0.1218 0.1800 -0.3732
v 0.1642 0.1800 -0.3308
v 0.1642 0.1920 -0.3308
v 0.1218 0.1920 -0.3732
f 240/8 239/8 238/8 237/8
v -0.1642 0.1800 -0.3308
v -0.1642 0.1920 -0.3308
v -0.0212 0.1920 -0.1878
v -0.0212 0.1800 -0.1878
f 244/8 243/8 242/8 241/8
v 0.0212 0.1800 -0.2302
v 0.0212 0.1920 -0.2302
v -0.1218 0.1920 -0.3732
v -0.1218 0.1800 -0.3732
f 248/8 247/8 246/8 245/8
v -0.0212 0.1800 -0.1878
v 0.0212 0.1800 -0.2302
v -0.1218 0.1800 -0.3732
v -0.1642 0.1800 -0.3308
f 252/8 251/8 250/8 249/8
v -0.1642 0.1920 -0.3308
v -0.1218 0.1920 -0.3732
v 0.0212 0.1920 -0.2302
v -0.0212 0.1920 -0.1878
f 256/8 255/8 254/8 253/8
v -0.0212 0.1920 -0.1878
v 0.0212 0.1920 -0.2302
v 0.0212 0.1800 -0.2302
v -0.0212 0.1800 -0.1878
f 260/8 259/8 258/8 257/8
v -0.1642 0.1800 -0.3308
v -0.1218 0.1800 -0.3732
v -0.1218 0.1920 -0.3732
v -0.1642 0.1920 -0.3308
f 264/8 263/8 262/8 261/8
v 0.3732 0.1800 0.1018
v 0.3732 0.1920 0.1018
v 0.2302 0.1920 -0.0412
v 0.2302 0.1800 -0.0412
f 268/8 267/8 266/8 265/8
v 0.1878 0.1800 0.0012
v 0.1878 0.1920 0.0012
v 0.3308 0.1920 0.1442
v 0.3308 0.1800 0.1442
f 272/8 271/8 270/8 269/8
v 0.2302 0.1800 -0.0412
v 0.1878 0.1800 0.0012
v 0.3308 0.1800 0.1442
v 0.3732 0.1800 0.1018
f 276/8 275/8 274/8 273/8
v 0.3732 0.1920 0.1018
v 0.3308 0.1920 0.1442
v 0.1878 0.1920 0.0012
v 0.2302 0.1920 -0.0412
f 280/8 279/8 278/8 277/8
v 0.2302 0.1920 -0.0412
v 0.1878 0.1920 0.0012
v 0.1878 0.1800 0.0012
v 0.2302 0.1800 -0.0412
f 284/8 283/8 282/8 281/8
v 0.3732 0.1800 0.1018
v 0.3308 0.1800 0.1442
v 0.3308 0.1920 0.1442
v 0.3732 0.1920 0.1018
f 288/8 287/8 286/8 285/8
v 0.3308 0.1800 -0.1842
v 0.3308 0.1920 -0.1842
v 0.1878 0.1920 -0.0412
v 0.1878 0.1800 -0.0412
f 292/8 291/8 290/8 289/8
v 0.2302 0.1800 0.0012
v 0.2302 0.1920 0.0012
v 0.3732 0.1920 -0.1418
v 0.3732 0.1800 -0.1418
f 296/8 295/8 294/8 293/8
v 0.1878 0.1800 -0.0412
v 0.2302 0.1800 0.0012
v 0.3732 0.1800 -0.1418
v 0.3308 0.1800 -0.1842
f 300/8 299/8 298/8 297/8
v 0.3308 0.1920 -0.1842
v 0.3732 0.1920 -0.1418
v 0.2302 0.1920 0.0012
v 0.1878 0.1920 -0.0412
f 304/8 303/8 302/8 301/8
v 0.1878 0.1920 -0.0412
v 0.2302 0.1920 0.0012
v 0.2302 0.1800 0.0012
v 0.1878 0.1800 -0.0412
f 308/8 307/8 306/8 305/8
v 0.3308 0.1800 -0.1842
v 0.3732 0.1800 -0.1418
v 0.3732 0.1920 -0.1418
v 0.3308 0.1920 -0.1842
f 312/8 311/8 310/8 309/8
v -0.3732 0.1800 -0.1418
v -0.3732 0.1920 -0.1418
v -0.2302 0.1920 0.0012
v -0.2302 0.1800 0.0012
f 316/8 315/8 314/8 313/8
v -0.1878 0.1800 -0.0412
v -0.1878 0.1920 -0.0412
v -0.3308 0.1920 -0.1842
v -0.3308 0.1800 -0.1842
f 320/8 319/8 318/8 317/8
v -0.2302 0.1800 0.0012
v -0.1878 0.1800 -0.0412
v -0.3308 0.1800 -0.1842
v -0.3732 0.1800 -0.1418
f 324/8 323/8 322/8 321/8
v -0.3732 0.1920 -0.1418
v -0.3308 0.1920 -0.1842
v -0.1878 0.1920 -0.0412
v -0.2302 0.1920 0.0012
f 328/8 327/8 326/8 325/8
v -0.2302 0.1920 0.0012
v -0.1878 0.1920 -0.0412
v -0.1878 0.1800 -0.0412
v -0.2302 0.1800 0.0012
f 332/8 331/8 330/8 329/8
v -0.3732 0.1800 -0.1418
v -0.3308 0.1800 -0.1842
v -0.3308 0.1920 -0.1842
v -0.3732 0.1920 -0.1418
f 336/8 335/8 334/8 333/8
v -0.3308 0.1800 0.1442
v -0.3308 0.1920 0.1442
v -0.1878 0.1920 0.0012
v -0.1878 0.1800 0.0012
f 340/8 339/8 338/8 337/8
v -0.2302 0.1800 -0.0412
v -0.2302 0.1920 -0.0412
v -0.3732 0.1920 0.1018
v -0.3732 0.1800 0.1018
f 344/8 343/8 342/8 341/8
v -0.1878 0.1800 0.0012
v -0.2302 0.1800 -0.0412
v -0.3732 0.1800 0.1018
v -0.3308 0.1800 0.1442
f 348/8 347/8 346/8 345/8
v -0.3308 0.1920 0.1442
v -0.3732 0.1920 0.1018
v -0.2302 0.1920 -0.0412
v -0.1878 0.1920 0.0012
f 352/8 351/8 350/8 349/8
v -0.1878 0.1920 0.0012
v -0.2302 0.1920 -0.0412
v -0.2302 0.1800 -0.0412
v -0.1878 0.1800 0.0012
f 356/8 355/8 354/8 353/8
v -0.3308 0.1800 0.1442
v -0.3732 0.1800 0.1018
v -0.3732 0.1920 0.1018
v -0.3308 0.1920 0.1442
f 360/8 359/8 358/8 357/8
v 0.1218 0.1800 0.2268
v 0.1218 0.1920 0.2268
v -0.0212 0.1920 0.3698
v -0.0212 0.1800 0.3698
f 364/8 363/8 362/8 361/8
v 0.0212 0.1800 0.4122
v 0.0212 0.1920 0.4122
v 0.1642 0.1920 0.2692
v 0.1642 0.1800 0.2692
f 368/8 367/8 366/8 365/8
v -0.0212 0.1800 0.3698
v 0.0212 0.1800 0.4122
v 0.1642 0.1800 0.2692
v 0.1218 0.1800 0.2268
f 372/8 371/8 370/8 369/8
v 0.1218 0.1920 0.2268
v 0.1642 0.1920 0.2692
v 0.0212 0.1920 0.4122
v -0.0212 0.1920 0.3698
f 376/8 375/8 374/8 373/8
v -0.0212 0.1920 0.3698
v 0.0212 0.1920 0.4122
v 0.0212 0.1800 0.4122
v -0.0212 0.1800 0.3698
f 380/8 379/8 378/8 377/8
v 0.1218 0.1800 0.2268
v 0.1642 0.1800 0.2692
v 0.1642 0.1920 0.2692
v 0.1218 0.1920 0.2268
f 384/8 383/8 382/8 381/8
v -0.1642 0.1800 0.2692
v -0.1642 0.1920 0.2692
v -0.0212 0.1920 0.4122
v -0.0212 0.1800 0.4122
f 388/8 387/8 386/8 385/8
v 0.0212 0.1800 0.3698
v 0.0212 0.1920 0.3698
v -0.1218 0.1920 0.2268
v -0.1218 0.1800 0.2268
f 392/8 391/8 390/8 389/8
v -0.0212 0.1800 0.4122
v 0.0212 0.1800 0.3698
v -0.1218 0.1800 0.2268
v -0.1642 0.1800 0.2692
f 396/8 395/8 394/8 393/8
v -0.1642 0.1920 0.2692
v -0.1218 0.1920 0.2268
v 0.0212 0.1920 0.3698
v -0.0212 0.1920 0.4122
f 400/8 399/8 398/8 397/8
v -0.0212 0.1920 0.4122
v 0.0212 0.1920 0.3698
v 0.0212 0.1800 0.3698
v -0.0212 0.1800 0.4122
f 404/8 403/8 402/8 401/8
v -0.1642 0.1800 0.2692
v -0.1218 0.1800 0.2268
v -0.1218 0.1920 0.2268
v -0.1642 0.1920 0.2692
f 408/8 407/8 406/8 405/8
usemtl wi_rubber
v 0.5000 0.1300 0.5000
v 0.5000 0.1800 0.5000
v 0.5000 0.1800 -0.5000
v 0.5000 0.1300 -0.5000
f 412/1 411/1 410/1 409/1
v -0.5000 0.1300 -0.5000
v -0.5000 0.1800 -0.5000
v -0.5000 0.1800 0.5000
v -0.5000 0.1300 0.5000
f 416/1 415/1 414/1 413/1
v 0.5000 0.1300 -0.5000
v -0.5000 0.1300 -0.5000
v -0.5000 0.1300 0.5000
v 0.5000 0.1300 0.5000
f 420/1 419/1 418/1 417/1
v 0.5000 0.1800 0.5000
vt 1.0000 0.5000
v -0.5000 0.1800 0.5000
vt 1.0000 0.5000
v -0.5000 0.1800 -0.5000
vt 1.0000 -0.5000
v 0.5000 0.1800 -0.5000
vt 1.0000 -0.5000
f 424/37 423/36 422/35 421/34
v 0.5000 0.1800 -0.5000
v -0.5000 0.1800 -0.5000
v -0.5000 0.1300 -0.5000
v 0.5000 0.1300 -0.5000
f 428/1 427/1 426/1 425/1
v 0.5000 0.1300 0.5000
v -0.5000 0.1300 0.5000
v -0.5000 0.1800 0.5000
v 0.5000 0.1800 0.5000
f 432/1 431/1 430/1 429/1
