# Walk of Industry low-poly (generated, wi_lib.py)
mtllib wi.mtl
vt 0 0
vt 0.03125 0.03125
vt 0.09375 0.03125
vt 0.15625 0.03125
vt 0.21875 0.03125
vt 0.28125 0.03125
vt 0.34375 0.03125
vt 0.40625 0.03125
vt 0.46875 0.03125
vt 0.53125 0.03125
vt 0.59375 0.03125
vt 0.65625 0.03125
vt 0.71875 0.03125
vt 0.78125 0.03125
vt 0.84375 0.03125
vt 0.90625 0.03125
vt 0.96875 0.03125
vt 0.03125 0.09375
vt 0.09375 0.09375
vt 0.15625 0.09375
vt 0.21875 0.09375
vt 0.28125 0.09375
vt 0.34375 0.09375
vt 0.40625 0.09375
vt 0.46875 0.09375
vt 0.53125 0.09375
vt 0.59375 0.09375
vt 0.65625 0.09375
vt 0.71875 0.09375
vt 0.78125 0.09375
vt 0.84375 0.09375
vt 0.90625 0.09375
vt 0.96875 0.09375
o Body
usemtl wi_palette
v 1.4800 0.0000 1.4800
v 1.4800 0.0800 1.4800
v 1.4800 0.0800 -1.4800
v 1.4800 0.0000 -1.4800
f 4/5 3/5 2/5 1/5
v -1.4800 0.0000 -1.4800
v -1.4800 0.0800 -1.4800
v -1.4800 0.0800 1.4800
v -1.4800 0.0000 1.4800
f 8/5 7/5 6/5 5/5
v 1.4800 0.0000 -1.4800
v -1.4800 0.0000 -1.4800
v -1.4800 0.0000 1.4800
v 1.4800 0.0000 1.4800
f 12/5 11/5 10/5 9/5
v 1.4800 0.0800 1.4800
v -1.4800 0.0800 1.4800
v -1.4800 0.0800 -1.4800
v 1.4800 0.0800 -1.4800
f 16/5 15/5 14/5 13/5
v 1.4800 0.0800 -1.4800
v -1.4800 0.0800 -1.4800
v -1.4800 0.0000 -1.4800
v 1.4800 0.0000 -1.4800
f 20/5 19/5 18/5 17/5
v 1.4800 0.0000 1.4800
v -1.4800 0.0000 1.4800
v -1.4800 0.0800 1.4800
v 1.4800 0.0800 1.4800
f 24/5 23/5 22/5 21/5
v 1.4000 0.0800 1.4000
v 1.4000 0.1600 1.4000
v 1.4000 0.1600 -1.4000
v 1.4000 0.0800 -1.4000
f 28/11 27/11 26/11 25/11
v -1.4000 0.0800 -1.4000
v -1.4000 0.1600 -1.4000
v -1.4000 0.1600 1.4000
v -1.4000 0.0800 1.4000
f 32/11 31/11 30/11 29/11
v 1.4000 0.0800 -1.4000
v -1.4000 0.0800 -1.4000
v -1.4000 0.0800 1.4000
v 1.4000 0.0800 1.4000
f 36/11 35/11 34/11 33/11
v 1.4000 0.1600 1.4000
v -1.4000 0.1600 1.4000
v -1.4000 0.1600 -1.4000
v 1.4000 0.1600 -1.4000
f 40/11 39/11 38/11 37/11
v 1.4000 0.1600 -1.4000
v -1.4000 0.1600 -1.4000
v -1.4000 0.0800 -1.4000
v 1.4000 0.0800 -1.4000
f 44/11 43/11 42/11 41/11
v 1.4000 0.0800 1.4000
v -1.4000 0.0800 1.4000
v -1.4000 0.1600 1.4000
v 1.4000 0.1600 1.4000
f 48/11 47/11 46/11 45/11
v 0.6202 0.1600 -0.2506
v 0.4102 0.1600 -0.4031
v 0.4102 1.1600 -0.4031
v 0.6202 1.1600 -0.2506
f 52/14 51/14 50/14 49/14
v 0.4102 0.1600 -0.4031
v 0.3300 0.1600 -0.6500
v 0.3300 1.1600 -0.6500
v 0.4102 1.1600 -0.4031
f 56/14 55/14 54/14 53/14
v 0.3300 0.1600 -0.6500
v 0.4102 0.1600 -0.8969
v 0.4102 1.1600 -0.8969
v 0.3300 1.1600 -0.6500
f 60/14 59/14 58/14 57/14
v 0.4102 0.1600 -0.8969
v 0.6202 0.1600 -1.0494
v 0.6202 1.1600 -1.0494
v 0.4102 1.1600 -0.8969
f 64/14 63/14 62/14 61/14
v 0.6202 0.1600 -1.0494
v 0.8798 0.1600 -1.0494
v 0.8798 1.1600 -1.0494
v 0.6202 1.1600 -1.0494
f 68/14 67/14 66/14 65/14
v 0.8798 0.1600 -1.0494
v 1.0898 0.1600 -0.8969
v 1.0898 1.1600 -0.8969
v 0.8798 1.1600 -1.0494
f 72/14 71/14 70/14 69/14
v 1.0898 0.1600 -0.8969
v 1.1700 0.1600 -0.6500
v 1.1700 1.1600 -0.6500
v 1.0898 1.1600 -0.8969
f 76/14 75/14 74/14 73/14
v 1.1700 0.1600 -0.6500
v 1.0898 0.1600 -0.4031
v 1.0898 1.1600 -0.4031
v 1.1700 1.1600 -0.6500
f 80/14 79/14 78/14 77/14
v 1.0898 0.1600 -0.4031
v 0.8798 0.1600 -0.2506
v 0.8798 1.1600 -0.2506
v 1.0898 1.1600 -0.4031
f 84/14 83/14 82/14 81/14
v 0.8798 0.1600 -0.2506
v 0.6202 0.1600 -0.2506
v 0.6202 1.1600 -0.2506
v 0.8798 1.1600 -0.2506
f 88/14 87/14 86/14 85/14
v 0.8798 0.1600 -0.2506
v 1.0898 0.1600 -0.4031
v 1.1700 0.1600 -0.6500
v 1.0898 0.1600 -0.8969
v 0.8798 0.1600 -1.0494
v 0.6202 0.1600 -1.0494
v 0.4102 0.1600 -0.8969
v 0.3300 0.1600 -0.6500
v 0.4102 0.1600 -0.4031
v 0.6202 0.1600 -0.2506
f 98/14 97/14 96/14 95/14 94/14 93/14 92/14 91/14 90/14 89/14
v 0.6202 1.1600 -0.2506
v 0.4102 1.1600 -0.4031
v 0.3300 1.1600 -0.6500
v 0.4102 1.1600 -0.8969
v 0.6202 1.1600 -1.0494
v 0.8798 1.1600 -1.0494
v 1.0898 1.1600 -0.8969
v 1.1700 1.1600 -0.6500
v 1.0898 1.1600 -0.4031
v 0.8798 1.1600 -0.2506
f 108/14 107/14 106/14 105/14 104/14 103/14 102/14 101/14 100/14 99/14
v 0.6109 1.1600 -0.2220
v 0.3859 1.1600 -0.3855
v 0.6529 1.4100 -0.5795
v 0.7129 1.4100 -0.5359
f 112/4 111/4 110/4 109/4
v 0.3859 1.1600 -0.3855
v 0.3000 1.1600 -0.6500
v 0.6300 1.4100 -0.6500
v 0.6529 1.4100 -0.5795
f 116/4 115/4 114/4 113/4
v 0.3000 1.1600 -0.6500
v 0.3859 1.1600 -0.9145
v 0.6529 1.4100 -0.7205
v 0.6300 1.4100 -0.6500
f 120/4 119/4 118/4 117/4
v 0.3859 1.1600 -0.9145
v 0.6109 1.1600 -1.0780
v 0.7129 1.4100 -0.7641
v 0.6529 1.4100 -0.7205
f 124/4 123/4 122/4 121/4
v 0.6109 1.1600 -1.0780
v 0.8891 1.1600 -1.0780
v 0.7871 1.4100 -0.7641
v 0.7129 1.4100 -0.7641
f 128/4 127/4 126/4 125/4
v 0.8891 1.1600 -1.0780
v 1.1141 1.1600 -0.9145
v 0.8471 1.4100 -0.7205
v 0.7871 1.4100 -0.7641
f 132/4 131/4 130/4 129/4
v 1.1141 1.1600 -0.9145
v 1.2000 1.1600 -0.6500
v 0.8700 1.4100 -0.6500
v 0.8471 1.4100 -0.7205
f 136/4 135/4 134/4 133/4
v 1.2000 1.1600 -0.6500
v 1.1141 1.1600 -0.3855
v 0.8471 1.4100 -0.5795
v 0.8700 1.4100 -0.6500
f 140/4 139/4 138/4 137/4
v 1.1141 1.1600 -0.3855
v 0.8891 1.1600 -0.2220
v 0.7871 1.4100 -0.5359
v 0.8471 1.4100 -0.5795
f 144/4 143/4 142/4 141/4
v 0.8891 1.1600 -0.2220
v 0.6109 1.1600 -0.2220
v 0.7129 1.4100 -0.5359
v 0.7871 1.4100 -0.5359
f 148/4 147/4 146/4 145/4
v 0.8891 1.1600 -0.2220
v 1.1141 1.1600 -0.3855
v 1.2000 1.1600 -0.6500
v 1.1141 1.1600 -0.9145
v 0.8891 1.1600 -1.0780
v 0.6109 1.1600 -1.0780
v 0.3859 1.1600 -0.9145
v 0.3000 1.1600 -0.6500
v 0.3859 1.1600 -0.3855
v 0.6109 1.1600 -0.2220
f 158/4 157/4 156/4 155/4 154/4 153/4 152/4 151/4 150/4 149/4
v 0.7129 1.4100 -0.5359
v 0.6529 1.4100 -0.5795
v 0.6300 1.4100 -0.6500
v 0.6529 1.4100 -0.7205
v 0.7129 1.4100 -0.7641
v 0.7871 1.4100 -0.7641
v 0.8471 1.4100 -0.7205
v 0.8700 1.4100 -0.6500
v 0.8471 1.4100 -0.5795
v 0.7871 1.4100 -0.5359
f 168/4 167/4 166/4 165/4 164/4 163/4 162/4 161/4 160/4 159/4
v 0.6140 0.4300 -0.2315
v 0.3940 0.4300 -0.3914
v 0.3940 0.4700 -0.3914
v 0.6140 0.4700 -0.2315
f 172/7 171/7 170/7 169/7
v 0.3940 0.4300 -0.3914
v 0.3100 0.4300 -0.6500
v 0.3100 0.4700 -0.6500
v 0.3940 0.4700 -0.3914
f 176/7 175/7 174/7 173/7
v 0.3100 0.4300 -0.6500
v 0.3940 0.4300 -0.9086
v 0.3940 0.4700 -0.9086
v 0.3100 0.4700 -0.6500
f 180/7 179/7 178/7 177/7
v 0.3940 0.4300 -0.9086
v 0.6140 0.4300 -1.0685
v 0.6140 0.4700 -1.0685
v 0.3940 0.4700 -0.9086
f 184/7 183/7 182/7 181/7
v 0.6140 0.4300 -1.0685
v 0.8860 0.4300 -1.0685
v 0.8860 0.4700 -1.0685
v 0.6140 0.4700 -1.0685
f 188/7 187/7 186/7 185/7
v 0.8860 0.4300 -1.0685
v 1.1060 0.4300 -0.9086
v 1.1060 0.4700 -0.9086
v 0.8860 0.4700 -1.0685
f 192/7 191/7 190/7 189/7
v 1.1060 0.4300 -0.9086
v 1.1900 0.4300 -0.6500
v 1.1900 0.4700 -0.6500
v 1.1060 0.4700 -0.9086
f 196/7 195/7 194/7 193/7
v 1.1900 0.4300 -0.6500
v 1.1060 0.4300 -0.3914
v 1.1060 0.4700 -0.3914
v 1.1900 0.4700 -0.6500
f 200/7 199/7 198/7 197/7
v 1.1060 0.4300 -0.3914
v 0.8860 0.4300 -0.2315
v 0.8860 0.4700 -0.2315
v 1.1060 0.4700 -0.3914
f 204/7 203/7 202/7 201/7
v 0.8860 0.4300 -0.2315
v 0.6140 0.4300 -0.2315
v 0.6140 0.4700 -0.2315
v 0.8860 0.4700 -0.2315
f 208/7 207/7 206/7 205/7
v 0.8860 0.4300 -0.2315
v 1.1060 0.4300 -0.3914
v 1.1900 0.4300 -0.6500
v 1.1060 0.4300 -0.9086
v 0.8860 0.4300 -1.0685
v 0.6140 0.4300 -1.0685
v 0.3940 0.4300 -0.9086
v 0.3100 0.4300 -0.6500
v 0.3940 0.4300 -0.3914
v 0.6140 0.4300 -0.2315
f 218/7 217/7 216/7 215/7 214/7 213/7 212/7 211/7 210/7 209/7
v 0.6140 0.4700 -0.2315
v 0.3940 0.4700 -0.3914
v 0.3100 0.4700 -0.6500
v 0.3940 0.4700 -0.9086
v 0.6140 0.4700 -1.0685
v 0.8860 0.4700 -1.0685
v 1.1060 0.4700 -0.9086
v 1.1900 0.4700 -0.6500
v 1.1060 0.4700 -0.3914
v 0.8860 0.4700 -0.2315
f 228/7 227/7 226/7 225/7 224/7 223/7 222/7 221/7 220/7 219/7
v 0.6140 0.8300 -0.2315
v 0.3940 0.8300 -0.3914
v 0.3940 0.8700 -0.3914
v 0.6140 0.8700 -0.2315
f 232/7 231/7 230/7 229/7
v 0.3940 0.8300 -0.3914
v 0.3100 0.8300 -0.6500
v 0.3100 0.8700 -0.6500
v 0.3940 0.8700 -0.3914
f 236/7 235/7 234/7 233/7
v 0.3100 0.8300 -0.6500
v 0.3940 0.8300 -0.9086
v 0.3940 0.8700 -0.9086
v 0.3100 0.8700 -0.6500
f 240/7 239/7 238/7 237/7
v 0.3940 0.8300 -0.9086
v 0.6140 0.8300 -1.0685
v 0.6140 0.8700 -1.0685
v 0.3940 0.8700 -0.9086
f 244/7 243/7 242/7 241/7
v 0.6140 0.8300 -1.0685
v 0.8860 0.8300 -1.0685
v 0.8860 0.8700 -1.0685
v 0.6140 0.8700 -1.0685
f 248/7 247/7 246/7 245/7
v 0.8860 0.8300 -1.0685
v 1.1060 0.8300 -0.9086
v 1.1060 0.8700 -0.9086
v 0.8860 0.8700 -1.0685
f 252/7 251/7 250/7 249/7
v 1.1060 0.8300 -0.9086
v 1.1900 0.8300 -0.6500
v 1.1900 0.8700 -0.6500
v 1.1060 0.8700 -0.9086
f 256/7 255/7 254/7 253/7
v 1.1900 0.8300 -0.6500
v 1.1060 0.8300 -0.3914
v 1.1060 0.8700 -0.3914
v 1.1900 0.8700 -0.6500
f 260/7 259/7 258/7 257/7
v 1.1060 0.8300 -0.3914
v 0.8860 0.8300 -0.2315
v 0.8860 0.8700 -0.2315
v 1.1060 0.8700 -0.3914
f 264/7 263/7 262/7 261/7
v 0.8860 0.8300 -0.2315
v 0.6140 0.8300 -0.2315
v 0.6140 0.8700 -0.2315
v 0.8860 0.8700 -0.2315
f 268/7 267/7 266/7 265/7
v 0.8860 0.8300 -0.2315
v 1.1060 0.8300 -0.3914
v 1.1900 0.8300 -0.6500
v 1.1060 0.8300 -0.9086
v 0.8860 0.8300 -1.0685
v 0.6140 0.8300 -1.0685
v 0.3940 0.8300 -0.9086
v 0.3100 0.8300 -0.6500
v 0.3940 0.8300 -0.3914
v 0.6140 0.8300 -0.2315
f 278/7 277/7 276/7 275/7 274/7 273/7 272/7 271/7 270/7 269/7
v 0.6140 0.8700 -0.2315
v 0.3940 0.8700 -0.3914
v 0.3100 0.8700 -0.6500
v 0.3940 0.8700 -0.9086
v 0.6140 0.8700 -1.0685
v 0.8860 0.8700 -1.0685
v 1.1060 0.8700 -0.9086
v 1.1900 0.8700 -0.6500
v 1.1060 0.8700 -0.3914
v 0.8860 0.8700 -0.2315
f 288/7 287/7 286/7 285/7 284/7 283/7 282/7 281/7 280/7 279/7
v 0.6202 0.1600 0.9494
v 0.4102 0.1600 0.7969
v 0.4102 1.1600 0.7969
v 0.6202 1.1600 0.9494
f 292/14 291/14 290/14 289/14
v 0.4102 0.1600 0.7969
v 0.3300 0.1600 0.5500
v 0.3300 1.1600 0.5500
v 0.4102 1.1600 0.7969
f 296/14 295/14 294/14 293/14
v 0.3300 0.1600 0.5500
v 0.4102 0.1600 0.3031
v 0.4102 1.1600 0.3031
v 0.3300 1.1600 0.5500
f 300/14 299/14 298/14 297/14
v 0.4102 0.1600 0.3031
v 0.6202 0.1600 0.1506
v 0.6202 1.1600 0.1506
v 0.4102 1.1600 0.3031
f 304/14 303/14 302/14 301/14
v 0.6202 0.1600 0.1506
v 0.8798 0.1600 0.1506
v 0.8798 1.1600 0.1506
v 0.6202 1.1600 0.1506
f 308/14 307/14 306/14 305/14
v 0.8798 0.1600 0.1506
v 1.0898 0.1600 0.3031
v 1.0898 1.1600 0.3031
v 0.8798 1.1600 0.1506
f 312/14 311/14 310/14 309/14
v 1.0898 0.1600 0.3031
v 1.1700 0.1600 0.5500
v 1.1700 1.1600 0.5500
v 1.0898 1.1600 0.3031
f 316/14 315/14 314/14 313/14
v 1.1700 0.1600 0.5500
v 1.0898 0.1600 0.7969
v 1.0898 1.1600 0.7969
v 1.1700 1.1600 0.5500
f 320/14 319/14 318/14 317/14
v 1.0898 0.1600 0.7969
v 0.8798 0.1600 0.9494
v 0.8798 1.1600 0.9494
v 1.0898 1.1600 0.7969
f 324/14 323/14 322/14 321/14
v 0.8798 0.1600 0.9494
v 0.6202 0.1600 0.9494
v 0.6202 1.1600 0.9494
v 0.8798 1.1600 0.9494
f 328/14 327/14 326/14 325/14
v 0.8798 0.1600 0.9494
v 1.0898 0.1600 0.7969
v 1.1700 0.1600 0.5500
v 1.0898 0.1600 0.3031
v 0.8798 0.1600 0.1506
v 0.6202 0.1600 0.1506
v 0.4102 0.1600 0.3031
v 0.3300 0.1600 0.5500
v 0.4102 0.1600 0.7969
v 0.6202 0.1600 0.9494
f 338/14 337/14 336/14 335/14 334/14 333/14 332/14 331/14 330/14 329/14
v 0.6202 1.1600 0.9494
v 0.4102 1.1600 0.7969
v 0.3300 1.1600 0.5500
v 0.4102 1.1600 0.3031
v 0.6202 1.1600 0.1506
v 0.8798 1.1600 0.1506
v 1.0898 1.1600 0.3031
v 1.1700 1.1600 0.5500
v 1.0898 1.1600 0.7969
v 0.8798 1.1600 0.9494
f 348/14 347/14 346/14 345/14 344/14 343/14 342/14 341/14 340/14 339/14
v 0.6109 1.1600 0.9780
v 0.3859 1.1600 0.8145
v 0.6529 1.4100 0.6205
v 0.7129 1.4100 0.6641
f 352/4 351/4 350/4 349/4
v 0.3859 1.1600 0.8145
v 0.3000 1.1600 0.5500
v 0.6300 1.4100 0.5500
v 0.6529 1.4100 0.6205
f 356/4 355/4 354/4 353/4
v 0.3000 1.1600 0.5500
v 0.3859 1.1600 0.2855
v 0.6529 1.4100 0.4795
v 0.6300 1.4100 0.5500
f 360/4 359/4 358/4 357/4
v 0.3859 1.1600 0.2855
v 0.6109 1.1600 0.1220
v 0.7129 1.4100 0.4359
v 0.6529 1.4100 0.4795
f 364/4 363/4 362/4 361/4
v 0.6109 1.1600 0.1220
v 0.8891 1.1600 0.1220
v 0.7871 1.4100 0.4359
v 0.7129 1.4100 0.4359
f 368/4 367/4 366/4 365/4
v 0.8891 1.1600 0.1220
v 1.1141 1.1600 0.2855
v 0.8471 1.4100 0.4795
v 0.7871 1.4100 0.4359
f 372/4 371/4 370/4 369/4
v 1.1141 1.1600 0.2855
v 1.2000 1.1600 0.5500
v 0.8700 1.4100 0.5500
v 0.8471 1.4100 0.4795
f 376/4 375/4 374/4 373/4
v 1.2000 1.1600 0.5500
v 1.1141 1.1600 0.8145
v 0.8471 1.4100 0.6205
v 0.8700 1.4100 0.5500
f 380/4 379/4 378/4 377/4
v 1.1141 1.1600 0.8145
v 0.8891 1.1600 0.9780
v 0.7871 1.4100 0.6641
v 0.8471 1.4100 0.6205
f 384/4 383/4 382/4 381/4
v 0.8891 1.1600 0.9780
v 0.6109 1.1600 0.9780
v 0.7129 1.4100 0.6641
v 0.7871 1.4100 0.6641
f 388/4 387/4 386/4 385/4
v 0.8891 1.1600 0.9780
v 1.1141 1.1600 0.8145
v 1.2000 1.1600 0.5500
v 1.1141 1.1600 0.2855
v 0.8891 1.1600 0.1220
v 0.6109 1.1600 0.1220
v 0.3859 1.1600 0.2855
v 0.3000 1.1600 0.5500
v 0.3859 1.1600 0.8145
v 0.6109 1.1600 0.9780
f 398/4 397/4 396/4 395/4 394/4 393/4 392/4 391/4 390/4 389/4
v 0.7129 1.4100 0.6641
v 0.6529 1.4100 0.6205
v 0.6300 1.4100 0.5500
v 0.6529 1.4100 0.4795
v 0.7129 1.4100 0.4359
v 0.7871 1.4100 0.4359
v 0.8471 1.4100 0.4795
v 0.8700 1.4100 0.5500
v 0.8471 1.4100 0.6205
v 0.7871 1.4100 0.6641
f 408/4 407/4 406/4 405/4 404/4 403/4 402/4 401/4 400/4 399/4
v 0.6140 0.4300 0.9685
v 0.3940 0.4300 0.8086
v 0.3940 0.4700 0.8086
v 0.6140 0.4700 0.9685
f 412/7 411/7 410/7 409/7
v 0.3940 0.4300 0.8086
v 0.3100 0.4300 0.5500
v 0.3100 0.4700 0.5500
v 0.3940 0.4700 0.8086
f 416/7 415/7 414/7 413/7
v 0.3100 0.4300 0.5500
v 0.3940 0.4300 0.2914
v 0.3940 0.4700 0.2914
v 0.3100 0.4700 0.5500
f 420/7 419/7 418/7 417/7
v 0.3940 0.4300 0.2914
v 0.6140 0.4300 0.1315
v 0.6140 0.4700 0.1315
v 0.3940 0.4700 0.2914
f 424/7 423/7 422/7 421/7
v 0.6140 0.4300 0.1315
v 0.8860 0.4300 0.1315
v 0.8860 0.4700 0.1315
v 0.6140 0.4700 0.1315
f 428/7 427/7 426/7 425/7
v 0.8860 0.4300 0.1315
v 1.1060 0.4300 0.2914
v 1.1060 0.4700 0.2914
v 0.8860 0.4700 0.1315
f 432/7 431/7 430/7 429/7
v 1.1060 0.4300 0.2914
v 1.1900 0.4300 0.5500
v 1.1900 0.4700 0.5500
v 1.1060 0.4700 0.2914
f 436/7 435/7 434/7 433/7
v 1.1900 0.4300 0.5500
v 1.1060 0.4300 0.8086
v 1.1060 0.4700 0.8086
v 1.1900 0.4700 0.5500
f 440/7 439/7 438/7 437/7
v 1.1060 0.4300 0.8086
v 0.8860 0.4300 0.9685
v 0.8860 0.4700 0.9685
v 1.1060 0.4700 0.8086
f 444/7 443/7 442/7 441/7
v 0.8860 0.4300 0.9685
v 0.6140 0.4300 0.9685
v 0.6140 0.4700 0.9685
v 0.8860 0.4700 0.9685
f 448/7 447/7 446/7 445/7
v 0.8860 0.4300 0.9685
v 1.1060 0.4300 0.8086
v 1.1900 0.4300 0.5500
v 1.1060 0.4300 0.2914
v 0.8860 0.4300 0.1315
v 0.6140 0.4300 0.1315
v 0.3940 0.4300 0.2914
v 0.3100 0.4300 0.5500
v 0.3940 0.4300 0.8086
v 0.6140 0.4300 0.9685
f 458/7 457/7 456/7 455/7 454/7 453/7 452/7 451/7 450/7 449/7
v 0.6140 0.4700 0.9685
v 0.3940 0.4700 0.8086
v 0.3100 0.4700 0.5500
v 0.3940 0.4700 0.2914
v 0.6140 0.4700 0.1315
v 0.8860 0.4700 0.1315
v 1.1060 0.4700 0.2914
v 1.1900 0.4700 0.5500
v 1.1060 0.4700 0.8086
v 0.8860 0.4700 0.9685
f 468/7 467/7 466/7 465/7 464/7 463/7 462/7 461/7 460/7 459/7
v 0.6140 0.8300 0.9685
v 0.3940 0.8300 0.8086
v 0.3940 0.8700 0.8086
v 0.6140 0.8700 0.9685
f 472/7 471/7 470/7 469/7
v 0.3940 0.8300 0.8086
v 0.3100 0.8300 0.5500
v 0.3100 0.8700 0.5500
v 0.3940 0.8700 0.8086
f 476/7 475/7 474/7 473/7
v 0.3100 0.8300 0.5500
v 0.3940 0.8300 0.2914
v 0.3940 0.8700 0.2914
v 0.3100 0.8700 0.5500
f 480/7 479/7 478/7 477/7
v 0.3940 0.8300 0.2914
v 0.6140 0.8300 0.1315
v 0.6140 0.8700 0.1315
v 0.3940 0.8700 0.2914
f 484/7 483/7 482/7 481/7
v 0.6140 0.8300 0.1315
v 0.8860 0.8300 0.1315
v 0.8860 0.8700 0.1315
v 0.6140 0.8700 0.1315
f 488/7 487/7 486/7 485/7
v 0.8860 0.8300 0.1315
v 1.1060 0.8300 0.2914
v 1.1060 0.8700 0.2914
v 0.8860 0.8700 0.1315
f 492/7 491/7 490/7 489/7
v 1.1060 0.8300 0.2914
v 1.1900 0.8300 0.5500
v 1.1900 0.8700 0.5500
v 1.1060 0.8700 0.2914
f 496/7 495/7 494/7 493/7
v 1.1900 0.8300 0.5500
v 1.1060 0.8300 0.8086
v 1.1060 0.8700 0.8086
v 1.1900 0.8700 0.5500
f 500/7 499/7 498/7 497/7
v 1.1060 0.8300 0.8086
v 0.8860 0.8300 0.9685
v 0.8860 0.8700 0.9685
v 1.1060 0.8700 0.8086
f 504/7 503/7 502/7 501/7
v 0.8860 0.8300 0.9685
v 0.6140 0.8300 0.9685
v 0.6140 0.8700 0.9685
v 0.8860 0.8700 0.9685
f 508/7 507/7 506/7 505/7
v 0.8860 0.8300 0.9685
v 1.1060 0.8300 0.8086
v 1.1900 0.8300 0.5500
v 1.1060 0.8300 0.2914
v 0.8860 0.8300 0.1315
v 0.6140 0.8300 0.1315
v 0.3940 0.8300 0.2914
v 0.3100 0.8300 0.5500
v 0.3940 0.8300 0.8086
v 0.6140 0.8300 0.9685
f 518/7 517/7 516/7 515/7 514/7 513/7 512/7 511/7 510/7 509/7
v 0.6140 0.8700 0.9685
v 0.3940 0.8700 0.8086
v 0.3100 0.8700 0.5500
v 0.3940 0.8700 0.2914
v 0.6140 0.8700 0.1315
v 0.8860 0.8700 0.1315
v 1.1060 0.8700 0.2914
v 1.1900 0.8700 0.5500
v 1.1060 0.8700 0.8086
v 0.8860 0.8700 0.9685
f 528/7 527/7 526/7 525/7 524/7 523/7 522/7 521/7 520/7 519/7
v -0.6798 0.1600 -0.0506
v -0.8898 0.1600 -0.2031
v -0.8898 1.6600 -0.2031
v -0.6798 1.6600 -0.0506
f 532/2 531/2 530/2 529/2
v -0.8898 0.1600 -0.2031
v -0.9700 0.1600 -0.4500
v -0.9700 1.6600 -0.4500
v -0.8898 1.6600 -0.2031
f 536/2 535/2 534/2 533/2
v -0.9700 0.1600 -0.4500
v -0.8898 0.1600 -0.6969
v -0.8898 1.6600 -0.6969
v -0.9700 1.6600 -0.4500
f 540/2 539/2 538/2 537/2
v -0.8898 0.1600 -0.6969
v -0.6798 0.1600 -0.8494
v -0.6798 1.6600 -0.8494
v -0.8898 1.6600 -0.6969
f 544/2 543/2 542/2 541/2
v -0.6798 0.1600 -0.8494
v -0.4202 0.1600 -0.8494
v -0.4202 1.6600 -0.8494
v -0.6798 1.6600 -0.8494
f 548/2 547/2 546/2 545/2
v -0.4202 0.1600 -0.8494
v -0.2102 0.1600 -0.6969
v -0.2102 1.6600 -0.6969
v -0.4202 1.6600 -0.8494
f 552/2 551/2 550/2 549/2
v -0.2102 0.1600 -0.6969
v -0.1300 0.1600 -0.4500
v -0.1300 1.6600 -0.4500
v -0.2102 1.6600 -0.6969
f 556/2 555/2 554/2 553/2
v -0.1300 0.1600 -0.4500
v -0.2102 0.1600 -0.2031
v -0.2102 1.6600 -0.2031
v -0.1300 1.6600 -0.4500
f 560/2 559/2 558/2 557/2
v -0.2102 0.1600 -0.2031
v -0.4202 0.1600 -0.0506
v -0.4202 1.6600 -0.0506
v -0.2102 1.6600 -0.2031
f 564/2 563/2 562/2 561/2
v -0.4202 0.1600 -0.0506
v -0.6798 0.1600 -0.0506
v -0.6798 1.6600 -0.0506
v -0.4202 1.6600 -0.0506
f 568/2 567/2 566/2 565/2
v -0.4202 0.1600 -0.0506
v -0.2102 0.1600 -0.2031
v -0.1300 0.1600 -0.4500
v -0.2102 0.1600 -0.6969
v -0.4202 0.1600 -0.8494
v -0.6798 0.1600 -0.8494
v -0.8898 0.1600 -0.6969
v -0.9700 0.1600 -0.4500
v -0.8898 0.1600 -0.2031
v -0.6798 0.1600 -0.0506
f 578/2 577/2 576/2 575/2 574/2 573/2 572/2 571/2 570/2 569/2
v -0.6798 1.6600 -0.0506
v -0.8898 1.6600 -0.2031
v -0.9700 1.6600 -0.4500
v -0.8898 1.6600 -0.6969
v -0.6798 1.6600 -0.8494
v -0.4202 1.6600 -0.8494
v -0.2102 1.6600 -0.6969
v -0.1300 1.6600 -0.4500
v -0.2102 1.6600 -0.2031
v -0.4202 1.6600 -0.0506
f 588/2 587/2 586/2 585/2 584/2 583/2 582/2 581/2 580/2 579/2
v -0.6891 1.6600 -0.0220
v -0.9141 1.6600 -0.1855
v -0.6309 2.0100 -0.3912
v -0.5809 2.0100 -0.3549
f 592/4 591/4 590/4 589/4
v -0.9141 1.6600 -0.1855
v -1.0000 1.6600 -0.4500
v -0.6500 2.0100 -0.4500
v -0.6309 2.0100 -0.3912
f 596/4 595/4 594/4 593/4
v -1.0000 1.6600 -0.4500
v -0.9141 1.6600 -0.7145
v -0.6309 2.0100 -0.5088
v -0.6500 2.0100 -0.4500
f 600/4 599/4 598/4 597/4
v -0.9141 1.6600 -0.7145
v -0.6891 1.6600 -0.8780
v -0.5809 2.0100 -0.5451
v -0.6309 2.0100 -0.5088
f 604/4 603/4 602/4 601/4
v -0.6891 1.6600 -0.8780
v -0.4109 1.6600 -0.8780
v -0.5191 2.0100 -0.5451
v -0.5809 2.0100 -0.5451
f 608/4 607/4 606/4 605/4
v -0.4109 1.6600 -0.8780
v -0.1859 1.6600 -0.7145
v -0.4691 2.0100 -0.5088
v -0.5191 2.0100 -0.5451
f 612/4 611/4 610/4 609/4
v -0.1859 1.6600 -0.7145
v -0.1000 1.6600 -0.4500
v -0.4500 2.0100 -0.4500
v -0.4691 2.0100 -0.5088
f 616/4 615/4 614/4 613/4
v -0.1000 1.6600 -0.4500
v -0.1859 1.6600 -0.1855
v -0.4691 2.0100 -0.3912
v -0.4500 2.0100 -0.4500
f 620/4 619/4 618/4 617/4
v -0.1859 1.6600 -0.1855
v -0.4109 1.6600 -0.0220
v -0.5191 2.0100 -0.3549
v -0.4691 2.0100 -0.3912
f 624/4 623/4 622/4 621/4
v -0.4109 1.6600 -0.0220
v -0.6891 1.6600 -0.0220
v -0.5809 2.0100 -0.3549
v -0.5191 2.0100 -0.3549
f 628/4 627/4 626/4 625/4
v -0.4109 1.6600 -0.0220
v -0.1859 1.6600 -0.1855
v -0.1000 1.6600 -0.4500
v -0.1859 1.6600 -0.7145
v -0.4109 1.6600 -0.8780
v -0.6891 1.6600 -0.8780
v -0.9141 1.6600 -0.7145
v -1.0000 1.6600 -0.4500
v -0.9141 1.6600 -0.1855
v -0.6891 1.6600 -0.0220
f 638/4 637/4 636/4 635/4 634/4 633/4 632/4 631/4 630/4 629/4
v -0.5809 2.0100 -0.3549
v -0.6309 2.0100 -0.3912
v -0.6500 2.0100 -0.4500
v -0.6309 2.0100 -0.5088
v -0.5809 2.0100 -0.5451
v -0.5191 2.0100 -0.5451
v -0.4691 2.0100 -0.5088
v -0.4500 2.0100 -0.4500
v -0.4691 2.0100 -0.3912
v -0.5191 2.0100 -0.3549
f 648/4 647/4 646/4 645/4 644/4 643/4 642/4 641/4 640/4 639/4
v -0.6860 0.5800 -0.0315
v -0.9060 0.5800 -0.1914
v -0.9060 0.6400 -0.1914
v -0.6860 0.6400 -0.0315
f 652/8 651/8 650/8 649/8
v -0.9060 0.5800 -0.1914
v -0.9900 0.5800 -0.4500
v -0.9900 0.6400 -0.4500
v -0.9060 0.6400 -0.1914
f 656/8 655/8 654/8 653/8
v -0.9900 0.5800 -0.4500
v -0.9060 0.5800 -0.7086
v -0.9060 0.6400 -0.7086
v -0.9900 0.6400 -0.4500
f 660/8 659/8 658/8 657/8
v -0.9060 0.5800 -0.7086
v -0.6860 0.5800 -0.8685
v -0.6860 0.6400 -0.8685
v -0.9060 0.6400 -0.7086
f 664/8 663/8 662/8 661/8
v -0.6860 0.5800 -0.8685
v -0.4140 0.5800 -0.8685
v -0.4140 0.6400 -0.8685
v -0.6860 0.6400 -0.8685
f 668/8 667/8 666/8 665/8
v -0.4140 0.5800 -0.8685
v -0.1940 0.5800 -0.7086
v -0.1940 0.6400 -0.7086
v -0.4140 0.6400 -0.8685
f 672/8 671/8 670/8 669/8
v -0.1940 0.5800 -0.7086
v -0.1100 0.5800 -0.4500
v -0.1100 0.6400 -0.4500
v -0.1940 0.6400 -0.7086
f 676/8 675/8 674/8 673/8
v -0.1100 0.5800 -0.4500
v -0.1940 0.5800 -0.1914
v -0.1940 0.6400 -0.1914
v -0.1100 0.6400 -0.4500
f 680/8 679/8 678/8 677/8
v -0.1940 0.5800 -0.1914
v -0.4140 0.5800 -0.0315
v -0.4140 0.6400 -0.0315
v -0.1940 0.6400 -0.1914
f 684/8 683/8 682/8 681/8
v -0.4140 0.5800 -0.0315
v -0.6860 0.5800 -0.0315
v -0.6860 0.6400 -0.0315
v -0.4140 0.6400 -0.0315
f 688/8 687/8 686/8 685/8
v -0.4140 0.5800 -0.0315
v -0.1940 0.5800 -0.1914
v -0.1100 0.5800 -0.4500
v -0.1940 0.5800 -0.7086
v -0.4140 0.5800 -0.8685
v -0.6860 0.5800 -0.8685
v -0.9060 0.5800 -0.7086
v -0.9900 0.5800 -0.4500
v -0.9060 0.5800 -0.1914
v -0.6860 0.5800 -0.0315
f 698/8 697/8 696/8 695/8 694/8 693/8 692/8 691/8 690/8 689/8
v -0.6860 0.6400 -0.0315
v -0.9060 0.6400 -0.1914
v -0.9900 0.6400 -0.4500
v -0.9060 0.6400 -0.7086
v -0.6860 0.6400 -0.8685
v -0.4140 0.6400 -0.8685
v -0.1940 0.6400 -0.7086
v -0.1100 0.6400 -0.4500
v -0.1940 0.6400 -0.1914
v -0.4140 0.6400 -0.0315
f 708/8 707/8 706/8 705/8 704/8 703/8 702/8 701/8 700/8 699/8
v -0.6860 1.2800 -0.0315
v -0.9060 1.2800 -0.1914
v -0.9060 1.3400 -0.1914
v -0.6860 1.3400 -0.0315
f 712/4 711/4 710/4 709/4
v -0.9060 1.2800 -0.1914
v -0.9900 1.2800 -0.4500
v -0.9900 1.3400 -0.4500
v -0.9060 1.3400 -0.1914
f 716/4 715/4 714/4 713/4
v -0.9900 1.2800 -0.4500
v -0.9060 1.2800 -0.7086
v -0.9060 1.3400 -0.7086
v -0.9900 1.3400 -0.4500
f 720/4 719/4 718/4 717/4
v -0.9060 1.2800 -0.7086
v -0.6860 1.2800 -0.8685
v -0.6860 1.3400 -0.8685
v -0.9060 1.3400 -0.7086
f 724/4 723/4 722/4 721/4
v -0.6860 1.2800 -0.8685
v -0.4140 1.2800 -0.8685
v -0.4140 1.3400 -0.8685
v -0.6860 1.3400 -0.8685
f 728/4 727/4 726/4 725/4
v -0.4140 1.2800 -0.8685
v -0.1940 1.2800 -0.7086
v -0.1940 1.3400 -0.7086
v -0.4140 1.3400 -0.8685
f 732/4 731/4 730/4 729/4
v -0.1940 1.2800 -0.7086
v -0.1100 1.2800 -0.4500
v -0.1100 1.3400 -0.4500
v -0.1940 1.3400 -0.7086
f 736/4 735/4 734/4 733/4
v -0.1100 1.2800 -0.4500
v -0.1940 1.2800 -0.1914
v -0.1940 1.3400 -0.1914
v -0.1100 1.3400 -0.4500
f 740/4 739/4 738/4 737/4
v -0.1940 1.2800 -0.1914
v -0.4140 1.2800 -0.0315
v -0.4140 1.3400 -0.0315
v -0.1940 1.3400 -0.1914
f 744/4 743/4 742/4 741/4
v -0.4140 1.2800 -0.0315
v -0.6860 1.2800 -0.0315
v -0.6860 1.3400 -0.0315
v -0.4140 1.3400 -0.0315
f 748/4 747/4 746/4 745/4
v -0.4140 1.2800 -0.0315
v -0.1940 1.2800 -0.1914
v -0.1100 1.2800 -0.4500
v -0.1940 1.2800 -0.7086
v -0.4140 1.2800 -0.8685
v -0.6860 1.2800 -0.8685
v -0.9060 1.2800 -0.7086
v -0.9900 1.2800 -0.4500
v -0.9060 1.2800 -0.1914
v -0.6860 1.2800 -0.0315
f 758/4 757/4 756/4 755/4 754/4 753/4 752/4 751/4 750/4 749/4
v -0.6860 1.3400 -0.0315
v -0.9060 1.3400 -0.1914
v -0.9900 1.3400 -0.4500
v -0.9060 1.3400 -0.7086
v -0.6860 1.3400 -0.8685
v -0.4140 1.3400 -0.8685
v -0.1940 1.3400 -0.7086
v -0.1100 1.3400 -0.4500
v -0.1940 1.3400 -0.1914
v -0.4140 1.3400 -0.0315
f 768/4 767/4 766/4 765/4 764/4 763/4 762/4 761/4 760/4 759/4
v -0.4500 0.8800 -0.0100
v -0.4500 1.0800 -0.0100
v -0.4500 1.0800 -0.0500
v -0.4500 0.8800 -0.0500
f 772/12 771/12 770/12 769/12
v -0.6500 0.8800 -0.0500
v -0.6500 1.0800 -0.0500
v -0.6500 1.0800 -0.0100
v -0.6500 0.8800 -0.0100
f 776/12 775/12 774/12 773/12
v -0.4500 0.8800 -0.0500
v -0.6500 0.8800 -0.0500
v -0.6500 0.8800 -0.0100
v -0.4500 0.8800 -0.0100
f 780/12 779/12 778/12 777/12
v -0.4500 1.0800 -0.0100
v -0.6500 1.0800 -0.0100
v -0.6500 1.0800 -0.0500
v -0.4500 1.0800 -0.0500
f 784/12 783/12 782/12 781/12
v -0.4500 1.0800 -0.0500
v -0.6500 1.0800 -0.0500
v -0.6500 0.8800 -0.0500
v -0.4500 0.8800 -0.0500
f 788/12 787/12 786/12 785/12
v -0.4500 0.8800 -0.0100
v -0.6500 0.8800 -0.0100
v -0.6500 1.0800 -0.0100
v -0.4500 1.0800 -0.0100
f 792/12 791/12 790/12 789/12
v 0.3300 1.0100 -0.7020
v 0.3300 1.0400 -0.6500
v -0.1500 1.0400 -0.6500
v -0.1500 1.0100 -0.7020
f 796/7 795/7 794/7 793/7
v 0.3300 1.0400 -0.6500
v 0.3300 1.0100 -0.5980
v -0.1500 1.0100 -0.5980
v -0.1500 1.0400 -0.6500
f 800/7 799/7 798/7 797/7
v 0.3300 1.0100 -0.5980
v 0.3300 0.9500 -0.5980
v -0.1500 0.9500 -0.5980
v -0.1500 1.0100 -0.5980
f 804/7 803/7 802/7 801/7
v 0.3300 0.9500 -0.5980
v 0.3300 0.9200 -0.6500
v -0.1500 0.9200 -0.6500
v -0.1500 0.9500 -0.5980
f 808/7 807/7 806/7 805/7
v 0.3300 0.9200 -0.6500
v 0.3300 0.9500 -0.7020
v -0.1500 0.9500 -0.7020
v -0.1500 0.9200 -0.6500
f 812/7 811/7 810/7 809/7
v 0.3300 0.9500 -0.7020
v 0.3300 1.0100 -0.7020
v -0.1500 1.0100 -0.7020
v -0.1500 0.9500 -0.7020
f 816/7 815/7 814/7 813/7
v 0.3300 0.9500 -0.7020
v 0.3300 0.9200 -0.6500
v 0.3300 0.9500 -0.5980
v 0.3300 1.0100 -0.5980
v 0.3300 1.0400 -0.6500
v 0.3300 1.0100 -0.7020
f 822/7 821/7 820/7 819/7 818/7 817/7
v -0.1500 1.0100 -0.7020
v -0.1500 1.0400 -0.6500
v -0.1500 1.0100 -0.5980
v -0.1500 0.9500 -0.5980
v -0.1500 0.9200 -0.6500
v -0.1500 0.9500 -0.7020
f 828/7 827/7 826/7 825/7 824/7 823/7
v 0.3300 1.0100 0.4980
v 0.3300 1.0400 0.5500
v -0.1500 1.0400 0.5500
v -0.1500 1.0100 0.4980
f 832/7 831/7 830/7 829/7
v 0.3300 1.0400 0.5500
v 0.3300 1.0100 0.6020
v -0.1500 1.0100 0.6020
v -0.1500 1.0400 0.5500
f 836/7 835/7 834/7 833/7
v 0.3300 1.0100 0.6020
v 0.3300 0.9500 0.6020
v -0.1500 0.9500 0.6020
v -0.1500 1.0100 0.6020
f 840/7 839/7 838/7 837/7
v 0.3300 0.9500 0.6020
v 0.3300 0.9200 0.5500
v -0.1500 0.9200 0.5500
v -0.1500 0.9500 0.6020
f 844/7 843/7 842/7 841/7
v 0.3300 0.9200 0.5500
v 0.3300 0.9500 0.4980
v -0.1500 0.9500 0.4980
v -0.1500 0.9200 0.5500
f 848/7 847/7 846/7 845/7
v 0.3300 0.9500 0.4980
v 0.3300 1.0100 0.4980
v -0.1500 1.0100 0.4980
v -0.1500 0.9500 0.4980
f 852/7 851/7 850/7 849/7
v 0.3300 0.9500 0.4980
v 0.3300 0.9200 0.5500
v 0.3300 0.9500 0.6020
v 0.3300 1.0100 0.6020
v 0.3300 1.0400 0.5500
v 0.3300 1.0100 0.4980
f 858/7 857/7 856/7 855/7 854/7 853/7
v -0.1500 1.0100 0.4980
v -0.1500 1.0400 0.5500
v -0.1500 1.0100 0.6020
v -0.1500 0.9500 0.6020
v -0.1500 0.9200 0.5500
v -0.1500 0.9500 0.4980
f 864/7 863/7 862/7 861/7 860/7 859/7
v -0.0980 1.0100 0.5500
v -0.1500 1.0400 0.5500
v -0.1500 1.0400 -0.4500
v -0.0980 1.0100 -0.4500
f 868/7 867/7 866/7 865/7
v -0.1500 1.0400 0.5500
v -0.2020 1.0100 0.5500
v -0.2020 1.0100 -0.4500
v -0.1500 1.0400 -0.4500
f 872/7 871/7 870/7 869/7
v -0.2020 1.0100 0.5500
v -0.2020 0.9500 0.5500
v -0.2020 0.9500 -0.4500
v -0.2020 1.0100 -0.4500
f 876/7 875/7 874/7 873/7
v -0.2020 0.9500 0.5500
v -0.1500 0.9200 0.5500
v -0.1500 0.9200 -0.4500
v -0.2020 0.9500 -0.4500
f 880/7 879/7 878/7 877/7
v -0.1500 0.9200 0.5500
v -0.0980 0.9500 0.5500
v -0.0980 0.9500 -0.4500
v -0.1500 0.9200 -0.4500
f 884/7 883/7 882/7 881/7
v -0.0980 0.9500 0.5500
v -0.0980 1.0100 0.5500
v -0.0980 1.0100 -0.4500
v -0.0980 0.9500 -0.4500
f 888/7 887/7 886/7 885/7
v -0.0980 0.9500 0.5500
v -0.1500 0.9200 0.5500
v -0.2020 0.9500 0.5500
v -0.2020 1.0100 0.5500
v -0.1500 1.0400 0.5500
v -0.0980 1.0100 0.5500
f 894/7 893/7 892/7 891/7 890/7 889/7
v -0.0980 1.0100 -0.4500
v -0.1500 1.0400 -0.4500
v -0.2020 1.0100 -0.4500
v -0.2020 0.9500 -0.4500
v -0.1500 0.9200 -0.4500
v -0.0980 0.9500 -0.4500
f 900/7 899/7 898/7 897/7 896/7 895/7
v -0.2020 1.0100 -0.6500
v -0.1500 1.0400 -0.6500
v -0.1500 1.0400 -0.4500
v -0.2020 1.0100 -0.4500
f 904/7 903/7 902/7 901/7
v -0.1500 1.0400 -0.6500
v -0.0980 1.0100 -0.6500
v -0.0980 1.0100 -0.4500
v -0.1500 1.0400 -0.4500
f 908/7 907/7 906/7 905/7
v -0.0980 1.0100 -0.6500
v -0.0980 0.9500 -0.6500
v -0.0980 0.9500 -0.4500
v -0.0980 1.0100 -0.4500
f 912/7 911/7 910/7 909/7
v -0.0980 0.9500 -0.6500
v -0.1500 0.9200 -0.6500
v -0.1500 0.9200 -0.4500
v -0.0980 0.9500 -0.4500
f 916/7 915/7 914/7 913/7
v -0.1500 0.9200 -0.6500
v -0.2020 0.9500 -0.6500
v -0.2020 0.9500 -0.4500
v -0.1500 0.9200 -0.4500
f 920/7 919/7 918/7 917/7
v -0.2020 0.9500 -0.6500
v -0.2020 1.0100 -0.6500
v -0.2020 1.0100 -0.4500
v -0.2020 0.9500 -0.4500
f 924/7 923/7 922/7 921/7
v -0.2020 0.9500 -0.6500
v -0.1500 0.9200 -0.6500
v -0.0980 0.9500 -0.6500
v -0.0980 1.0100 -0.6500
v -0.1500 1.0400 -0.6500
v -0.2020 1.0100 -0.6500
f 930/7 929/7 928/7 927/7 926/7 925/7
v -0.2020 1.0100 -0.4500
v -0.1500 1.0400 -0.4500
v -0.0980 1.0100 -0.4500
v -0.0980 0.9500 -0.4500
v -0.1500 0.9200 -0.4500
v -0.2020 0.9500 -0.4500
f 936/7 935/7 934/7 933/7 932/7 931/7
v -0.1500 1.0200 -0.3807
v -0.1500 1.0600 -0.4500
v -0.1300 1.0600 -0.4500
v -0.1300 1.0200 -0.3807
f 940/4 939/4 938/4 937/4
v -0.1500 1.0600 -0.4500
v -0.1500 1.0200 -0.5193
v -0.1300 1.0200 -0.5193
v -0.1300 1.0600 -0.4500
f 944/4 943/4 942/4 941/4
v -0.1500 1.0200 -0.5193
v -0.1500 0.9400 -0.5193
v -0.1300 0.9400 -0.5193
v -0.1300 1.0200 -0.5193
f 948/4 947/4 946/4 945/4
v -0.1500 0.9400 -0.5193
v -0.1500 0.9000 -0.4500
v -0.1300 0.9000 -0.4500
v -0.1300 0.9400 -0.5193
f 952/4 951/4 950/4 949/4
v -0.1500 0.9000 -0.4500
v -0.1500 0.9400 -0.3807
v -0.1300 0.9400 -0.3807
v -0.1300 0.9000 -0.4500
f 956/4 955/4 954/4 953/4
v -0.1500 0.9400 -0.3807
v -0.1500 1.0200 -0.3807
v -0.1300 1.0200 -0.3807
v -0.1300 0.9400 -0.3807
f 960/4 959/4 958/4 957/4
v -0.1500 0.9400 -0.3807
v -0.1500 0.9000 -0.4500
v -0.1500 0.9400 -0.5193
v -0.1500 1.0200 -0.5193
v -0.1500 1.0600 -0.4500
v -0.1500 1.0200 -0.3807
f 966/4 965/4 964/4 963/4 962/4 961/4
v -0.1300 1.0200 -0.3807
v -0.1300 1.0600 -0.4500
v -0.1300 1.0200 -0.5193
v -0.1300 0.9400 -0.5193
v -0.1300 0.9000 -0.4500
v -0.1300 0.9400 -0.3807
f 972/4 971/4 970/4 969/4 968/4 967/4
v -0.3500 0.0800 1.1000
v -0.3500 0.6800 1.1000
v -0.3500 0.6800 0.4000
v -0.3500 0.0800 0.4000
f 976/3 975/3 974/3 973/3
v -1.1500 0.0800 0.4000
v -1.1500 0.6800 0.4000
v -1.1500 0.6800 1.1000
v -1.1500 0.0800 1.1000
f 980/3 979/3 978/3 977/3
v -0.3500 0.0800 0.4000
v -1.1500 0.0800 0.4000
v -1.1500 0.0800 1.1000
v -0.3500 0.0800 1.1000
f 984/3 983/3 982/3 981/3
v -0.3500 0.6800 1.1000
v -1.1500 0.6800 1.1000
v -1.1500 0.6800 0.4000
v -0.3500 0.6800 0.4000
f 988/3 987/3 986/3 985/3
v -0.3500 0.6800 0.4000
v -1.1500 0.6800 0.4000
v -1.1500 0.0800 0.4000
v -0.3500 0.0800 0.4000
f 992/3 991/3 990/3 989/3
v -0.3500 0.0800 1.1000
v -1.1500 0.0800 1.1000
v -1.1500 0.6800 1.1000
v -0.3500 0.6800 1.1000
f 996/3 995/3 994/3 993/3
v -0.3200 0.6750 1.1300
v -0.3200 0.7250 1.1300
v -0.3200 0.7250 0.3700
v -0.3200 0.6750 0.3700
f 1000/4 999/4 998/4 997/4
v -1.1800 0.6750 0.3700
v -1.1800 0.7250 0.3700
v -1.1800 0.7250 1.1300
v -1.1800 0.6750 1.1300
f 1004/4 1003/4 1002/4 1001/4
v -0.3200 0.6750 0.3700
v -1.1800 0.6750 0.3700
v -1.1800 0.6750 1.1300
v -0.3200 0.6750 1.1300
f 1008/4 1007/4 1006/4 1005/4
v -0.3200 0.7250 1.1300
v -1.1800 0.7250 1.1300
v -1.1800 0.7250 0.3700
v -0.3200 0.7250 0.3700
f 1012/4 1011/4 1010/4 1009/4
v -0.3200 0.7250 0.3700
v -1.1800 0.7250 0.3700
v -1.1800 0.6750 0.3700
v -0.3200 0.6750 0.3700
f 1016/4 1015/4 1014/4 1013/4
v -0.3200 0.6750 1.1300
v -1.1800 0.6750 1.1300
v -1.1800 0.7250 1.1300
v -0.3200 0.7250 1.1300
f 1020/4 1019/4 1018/4 1017/4
v -0.5000 0.3600 1.1100
v -0.5000 0.5600 1.1100
v -0.5000 0.5600 1.1000
v -0.5000 0.3600 1.1000
f 1024/12 1023/12 1022/12 1021/12
v -1.0000 0.3600 1.1000
v -1.0000 0.5600 1.1000
v -1.0000 0.5600 1.1100
v -1.0000 0.3600 1.1100
f 1028/12 1027/12 1026/12 1025/12
v -0.5000 0.3600 1.1000
v -1.0000 0.3600 1.1000
v -1.0000 0.3600 1.1100
v -0.5000 0.3600 1.1100
f 1032/12 1031/12 1030/12 1029/12
v -0.5000 0.5600 1.1100
v -1.0000 0.5600 1.1100
v -1.0000 0.5600 1.1000
v -0.5000 0.5600 1.1000
f 1036/12 1035/12 1034/12 1033/12
v -0.5000 0.5600 1.1000
v -1.0000 0.5600 1.1000
v -1.0000 0.3600 1.1000
v -0.5000 0.3600 1.1000
f 1040/12 1039/12 1038/12 1037/12
v -0.5000 0.3600 1.1100
v -1.0000 0.3600 1.1100
v -1.0000 0.5600 1.1100
v -0.5000 0.5600 1.1100
f 1044/12 1043/12 1042/12 1041/12
v -0.3500 0.1550 1.1110
v -0.3500 0.2050 1.1110
v -0.3500 0.2050 1.0990
v -0.3500 0.1550 1.0990
f 1048/8 1047/8 1046/8 1045/8
v -0.4833 0.1550 1.0990
v -0.4833 0.2050 1.0990
v -0.4833 0.2050 1.1110
v -0.4833 0.1550 1.1110
f 1052/8 1051/8 1050/8 1049/8
v -0.3500 0.1550 1.0990
v -0.4833 0.1550 1.0990
v -0.4833 0.1550 1.1110
v -0.3500 0.1550 1.1110
f 1056/8 1055/8 1054/8 1053/8
v -0.3500 0.2050 1.1110
v -0.4833 0.2050 1.1110
v -0.4833 0.2050 1.0990
v -0.3500 0.2050 1.0990
f 1060/8 1059/8 1058/8 1057/8
v -0.3500 0.2050 1.0990
v -0.4833 0.2050 1.0990
v -0.4833 0.1550 1.0990
v -0.3500 0.1550 1.0990
f 1064/8 1063/8 1062/8 1061/8
v -0.3500 0.1550 1.1110
v -0.4833 0.1550 1.1110
v -0.4833 0.2050 1.1110
v -0.3500 0.2050 1.1110
f 1068/8 1067/8 1066/8 1065/8
v -0.4833 0.1550 1.1110
v -0.4833 0.2050 1.1110
v -0.4833 0.2050 1.0990
v -0.4833 0.1550 1.0990
f 1072/6 1071/6 1070/6 1069/6
v -0.6167 0.1550 1.0990
v -0.6167 0.2050 1.0990
v -0.6167 0.2050 1.1110
v -0.6167 0.1550 1.1110
f 1076/6 1075/6 1074/6 1073/6
v -0.4833 0.1550 1.0990
v -0.6167 0.1550 1.0990
v -0.6167 0.1550 1.1110
v -0.4833 0.1550 1.1110
f 1080/6 1079/6 1078/6 1077/6
v -0.4833 0.2050 1.1110
v -0.6167 0.2050 1.1110
v -0.6167 0.2050 1.0990
v -0.4833 0.2050 1.0990
f 1084/6 1083/6 1082/6 1081/6
v -0.4833 0.2050 1.0990
v -0.6167 0.2050 1.0990
v -0.6167 0.1550 1.0990
v -0.4833 0.1550 1.0990
f 1088/6 1087/6 1086/6 1085/6
v -0.4833 0.1550 1.1110
v -0.6167 0.1550 1.1110
v -0.6167 0.2050 1.1110
v -0.4833 0.2050 1.1110
f 1092/6 1091/6 1090/6 1089/6
v -0.6167 0.1550 1.1110
v -0.6167 0.2050 1.1110
v -0.6167 0.2050 1.0990
v -0.6167 0.1550 1.0990
f 1096/8 1095/8 1094/8 1093/8
v -0.7500 0.1550 1.0990
v -0.7500 0.2050 1.0990
v -0.7500 0.2050 1.1110
v -0.7500 0.1550 1.1110
f 1100/8 1099/8 1098/8 1097/8
v -0.6167 0.1550 1.0990
v -0.7500 0.1550 1.0990
v -0.7500 0.1550 1.1110
v -0.6167 0.1550 1.1110
f 1104/8 1103/8 1102/8 1101/8
v -0.6167 0.2050 1.1110
v -0.7500 0.2050 1.1110
v -0.7500 0.2050 1.0990
v -0.6167 0.2050 1.0990
f 1108/8 1107/8 1106/8 1105/8
v -0.6167 0.2050 1.0990
v -0.7500 0.2050 1.0990
v -0.7500 0.1550 1.0990
v -0.6167 0.1550 1.0990
f 1112/8 1111/8 1110/8 1109/8
v -0.6167 0.1550 1.1110
v -0.7500 0.1550 1.1110
v -0.7500 0.2050 1.1110
v -0.6167 0.2050 1.1110
f 1116/8 1115/8 1114/8 1113/8
v -0.7500 0.1550 1.1110
v -0.7500 0.2050 1.1110
v -0.7500 0.2050 1.0990
v -0.7500 0.1550 1.0990
f 1120/6 1119/6 1118/6 1117/6
v -0.8833 0.1550 1.0990
v -0.8833 0.2050 1.0990
v -0.8833 0.2050 1.1110
v -0.8833 0.1550 1.1110
f 1124/6 1123/6 1122/6 1121/6
v -0.7500 0.1550 1.0990
v -0.8833 0.1550 1.0990
v -0.8833 0.1550 1.1110
v -0.7500 0.1550 1.1110
f 1128/6 1127/6 1126/6 1125/6
v -0.7500 0.2050 1.1110
v -0.8833 0.2050 1.1110
v -0.8833 0.2050 1.0990
v -0.7500 0.2050 1.0990
f 1132/6 1131/6 1130/6 1129/6
v -0.7500 0.2050 1.0990
v -0.8833 0.2050 1.0990
v -0.8833 0.1550 1.0990
v -0.7500 0.1550 1.0990
f 1136/6 1135/6 1134/6 1133/6
v -0.7500 0.1550 1.1110
v -0.8833 0.1550 1.1110
v -0.8833 0.2050 1.1110
v -0.7500 0.2050 1.1110
f 1140/6 1139/6 1138/6 1137/6
v -0.8833 0.1550 1.1110
v -0.8833 0.2050 1.1110
v -0.8833 0.2050 1.0990
v -0.8833 0.1550 1.0990
f 1144/8 1143/8 1142/8 1141/8
v -1.0167 0.1550 1.0990
v -1.0167 0.2050 1.0990
v -1.0167 0.2050 1.1110
v -1.0167 0.1550 1.1110
f 1148/8 1147/8 1146/8 1145/8
v -0.8833 0.1550 1.0990
v -1.0167 0.1550 1.0990
v -1.0167 0.1550 1.1110
v -0.8833 0.1550 1.1110
f 1152/8 1151/8 1150/8 1149/8
v -0.8833 0.2050 1.1110
v -1.0167 0.2050 1.1110
v -1.0167 0.2050 1.0990
v -0.8833 0.2050 1.0990
f 1156/8 1155/8 1154/8 1153/8
v -0.8833 0.2050 1.0990
v -1.0167 0.2050 1.0990
v -1.0167 0.1550 1.0990
v -0.8833 0.1550 1.0990
f 1160/8 1159/8 1158/8 1157/8
v -0.8833 0.1550 1.1110
v -1.0167 0.1550 1.1110
v -1.0167 0.2050 1.1110
v -0.8833 0.2050 1.1110
f 1164/8 1163/8 1162/8 1161/8
v -1.0167 0.1550 1.1110
v -1.0167 0.2050 1.1110
v -1.0167 0.2050 1.0990
v -1.0167 0.1550 1.0990
f 1168/6 1167/6 1166/6 1165/6
v -1.1500 0.1550 1.0990
v -1.1500 0.2050 1.0990
v -1.1500 0.2050 1.1110
v -1.1500 0.1550 1.1110
f 1172/6 1171/6 1170/6 1169/6
v -1.0167 0.1550 1.0990
v -1.1500 0.1550 1.0990
v -1.1500 0.1550 1.1110
v -1.0167 0.1550 1.1110
f 1176/6 1175/6 1174/6 1173/6
v -1.0167 0.2050 1.1110
v -1.1500 0.2050 1.1110
v -1.1500 0.2050 1.0990
v -1.0167 0.2050 1.0990
f 1180/6 1179/6 1178/6 1177/6
v -1.0167 0.2050 1.0990
v -1.1500 0.2050 1.0990
v -1.1500 0.1550 1.0990
v -1.0167 0.1550 1.0990
f 1184/6 1183/6 1182/6 1181/6
v -1.0167 0.1550 1.1110
v -1.1500 0.1550 1.1110
v -1.1500 0.2050 1.1110
v -1.0167 0.2050 1.1110
f 1188/6 1187/6 1186/6 1185/6
v -1.0075 0.7300 0.6130
v -1.0150 0.7300 0.6000
v -1.0150 1.2800 0.6000
v -1.0075 1.2800 0.6130
f 1192/7 1191/7 1190/7 1189/7
v -1.0150 0.7300 0.6000
v -1.0075 0.7300 0.5870
v -1.0075 1.2800 0.5870
v -1.0150 1.2800 0.6000
f 1196/7 1195/7 1194/7 1193/7
v -1.0075 0.7300 0.5870
v -0.9925 0.7300 0.5870
v -0.9925 1.2800 0.5870
v -1.0075 1.2800 0.5870
f 1200/7 1199/7 1198/7 1197/7
v -0.9925 0.7300 0.5870
v -0.9850 0.7300 0.6000
v -0.9850 1.2800 0.6000
v -0.9925 1.2800 0.5870
f 1204/7 1203/7 1202/7 1201/7
v -0.9850 0.7300 0.6000
v -0.9925 0.7300 0.6130
v -0.9925 1.2800 0.6130
v -0.9850 1.2800 0.6000
f 1208/7 1207/7 1206/7 1205/7
v -0.9925 0.7300 0.6130
v -1.0075 0.7300 0.6130
v -1.0075 1.2800 0.6130
v -0.9925 1.2800 0.6130
f 1212/7 1211/7 1210/7 1209/7
v -0.9925 0.7300 0.6130
v -0.9850 0.7300 0.6000
v -0.9925 0.7300 0.5870
v -1.0075 0.7300 0.5870
v -1.0150 0.7300 0.6000
v -1.0075 0.7300 0.6130
f 1218/7 1217/7 1216/7 1215/7 1214/7 1213/7
v -1.0075 1.2800 0.6130
v -1.0150 1.2800 0.6000
v -1.0075 1.2800 0.5870
v -0.9925 1.2800 0.5870
v -0.9850 1.2800 0.6000
v -0.9925 1.2800 0.6130
f 1224/7 1223/7 1222/7 1221/7 1220/7 1219/7
v -0.9750 1.2750 0.6250
v -0.9750 1.3250 0.6250
v -0.9750 1.3250 0.5750
v -0.9750 1.2750 0.5750
f 1228/16 1227/16 1226/16 1225/16
v -1.0250 1.2750 0.5750
v -1.0250 1.3250 0.5750
v -1.0250 1.3250 0.6250
v -1.0250 1.2750 0.6250
f 1232/16 1231/16 1230/16 1229/16
v -0.9750 1.2750 0.5750
v -1.0250 1.2750 0.5750
v -1.0250 1.2750 0.6250
v -0.9750 1.2750 0.6250
f 1236/16 1235/16 1234/16 1233/16
v -0.9750 1.3250 0.6250
v -1.0250 1.3250 0.6250
v -1.0250 1.3250 0.5750
v -0.9750 1.3250 0.5750
f 1240/16 1239/16 1238/16 1237/16
v -0.9750 1.3250 0.5750
v -1.0250 1.3250 0.5750
v -1.0250 1.2750 0.5750
v -0.9750 1.2750 0.5750
f 1244/16 1243/16 1242/16 1241/16
v -0.9750 1.2750 0.6250
v -1.0250 1.2750 0.6250
v -1.0250 1.3250 0.6250
v -0.9750 1.3250 0.6250
f 1248/16 1247/16 1246/16 1245/16
