# Walk of Industry low-poly (generated, wi_lib.py)
mtllib wi.mtl
vt 0 0
vt 0.03125 0.03125
vt 0.09375 0.03125
vt 0.15625 0.03125
vt 0.21875 0.03125
vt 0.28125 0.03125
vt 0.34375 0.03125
vt 0.40625 0.03125
vt 0.46875 0.03125
vt 0.53125 0.03125
vt 0.59375 0.03125
vt 0.65625 0.03125
vt 0.71875 0.03125
vt 0.78125 0.03125
vt 0.84375 0.03125
vt 0.90625 0.03125
vt 0.96875 0.03125
vt 0.03125 0.09375
vt 0.09375 0.09375
vt 0.15625 0.09375
vt 0.21875 0.09375
vt 0.28125 0.09375
vt 0.34375 0.09375
vt 0.40625 0.09375
vt 0.46875 0.09375
vt 0.53125 0.09375
vt 0.59375 0.09375
vt 0.65625 0.09375
vt 0.71875 0.09375
vt 0.78125 0.09375
vt 0.84375 0.09375
vt 0.90625 0.09375
vt 0.96875 0.09375
o Body
usemtl wi_palette
v 0.0350 -0.0350 0.0350
v 0.0350 0.0350 0.0350
v 0.0350 0.0350 -0.0350
v 0.0350 -0.0350 -0.0350
f 4/16 3/16 2/16 1/16
v -0.0350 -0.0350 -0.0350
v -0.0350 0.0350 -0.0350
v -0.0350 0.0350 0.0350
v -0.0350 -0.0350 0.0350
f 8/16 7/16 6/16 5/16
v 0.0350 -0.0350 -0.0350
v -0.0350 -0.0350 -0.0350
v -0.0350 -0.0350 0.0350
v 0.0350 -0.0350 0.0350
f 12/16 11/16 10/16 9/16
v 0.0350 0.0350 0.0350
v -0.0350 0.0350 0.0350
v -0.0350 0.0350 -0.0350
v 0.0350 0.0350 -0.0350
f 16/16 15/16 14/16 13/16
v 0.0350 0.0350 -0.0350
v -0.0350 0.0350 -0.0350
v -0.0350 -0.0350 -0.0350
v 0.0350 -0.0350 -0.0350
f 20/16 19/16 18/16 17/16
v 0.0350 -0.0350 0.0350
v -0.0350 -0.0350 0.0350
v -0.0350 0.0350 0.0350
v 0.0350 0.0350 0.0350
f 24/16 23/16 22/16 21/16
