# Walk of Industry low-poly (generated, wi_lib.py)
mtllib wi.mtl
vt 0 0
vt 0.03125 0.03125
vt 0.09375 0.03125
vt 0.15625 0.03125
vt 0.21875 0.03125
vt 0.28125 0.03125
vt 0.34375 0.03125
vt 0.40625 0.03125
vt 0.46875 0.03125
vt 0.53125 0.03125
vt 0.59375 0.03125
vt 0.65625 0.03125
vt 0.71875 0.03125
vt 0.78125 0.03125
vt 0.84375 0.03125
vt 0.90625 0.03125
vt 0.96875 0.03125
vt 0.03125 0.09375
vt 0.09375 0.09375
vt 0.15625 0.09375
vt 0.21875 0.09375
vt 0.28125 0.09375
vt 0.34375 0.09375
vt 0.40625 0.09375
vt 0.46875 0.09375
vt 0.53125 0.09375
vt 0.59375 0.09375
vt 0.65625 0.09375
vt 0.71875 0.09375
vt 0.78125 0.09375
vt 0.84375 0.09375
vt 0.90625 0.09375
vt 0.96875 0.09375
o Body
usemtl wi_palette
v 0.9800 0.0000 0.9800
v 0.9800 0.0800 0.9800
v 0.9800 0.0800 -0.9800
v 0.9800 0.0000 -0.9800
f 4/5 3/5 2/5 1/5
v -0.9800 0.0000 -0.9800
v -0.9800 0.0800 -0.9800
v -0.9800 0.0800 0.9800
v -0.9800 0.0000 0.9800
f 8/5 7/5 6/5 5/5
v 0.9800 0.0000 -0.9800
v -0.9800 0.0000 -0.9800
v -0.9800 0.0000 0.9800
v 0.9800 0.0000 0.9800
f 12/5 11/5 10/5 9/5
v 0.9800 0.0800 0.9800
v -0.9800 0.0800 0.9800
v -0.9800 0.0800 -0.9800
v 0.9800 0.0800 -0.9800
f 16/5 15/5 14/5 13/5
v 0.9800 0.0800 -0.9800
v -0.9800 0.0800 -0.9800
v -0.9800 0.0000 -0.9800
v 0.9800 0.0000 -0.9800
f 20/5 19/5 18/5 17/5
v 0.9800 0.0000 0.9800
v -0.9800 0.0000 0.9800
v -0.9800 0.0800 0.9800
v 0.9800 0.0800 0.9800
f 24/5 23/5 22/5 21/5
v 0.8800 0.0800 0.8500
v 0.8800 0.9300 0.8500
v 0.8800 0.9300 -0.8500
v 0.8800 0.0800 -0.8500
f 28/2 27/2 26/2 25/2
v -0.8800 0.0800 -0.8500
v -0.8800 0.9300 -0.8500
v -0.8800 0.9300 0.8500
v -0.8800 0.0800 0.8500
f 32/2 31/2 30/2 29/2
v 0.8800 0.0800 -0.8500
v -0.8800 0.0800 -0.8500
v -0.8800 0.0800 0.8500
v 0.8800 0.0800 0.8500
f 36/2 35/2 34/2 33/2
v 0.8800 0.9300 0.8500
v -0.8800 0.9300 0.8500
v -0.8800 0.9300 -0.8500
v 0.8800 0.9300 -0.8500
f 40/2 39/2 38/2 37/2
v 0.8800 0.9300 -0.8500
v -0.8800 0.9300 -0.8500
v -0.8800 0.0800 -0.8500
v 0.8800 0.0800 -0.8500
f 44/2 43/2 42/2 41/2
v 0.8800 0.0800 0.8500
v -0.8800 0.0800 0.8500
v -0.8800 0.9300 0.8500
v 0.8800 0.9300 0.8500
f 48/2 47/2 46/2 45/2
v 0.9200 0.0700 -0.8100
v 0.9200 0.9400 -0.8100
v 0.9200 0.9400 -0.8900
v 0.9200 0.0700 -0.8900
f 52/4 51/4 50/4 49/4
v 0.8400 0.0700 -0.8900
v 0.8400 0.9400 -0.8900
v 0.8400 0.9400 -0.8100
v 0.8400 0.0700 -0.8100
f 56/4 55/4 54/4 53/4
v 0.9200 0.0700 -0.8900
v 0.8400 0.0700 -0.8900
v 0.8400 0.0700 -0.8100
v 0.9200 0.0700 -0.8100
f 60/4 59/4 58/4 57/4
v 0.9200 0.9400 -0.8100
v 0.8400 0.9400 -0.8100
v 0.8400 0.9400 -0.8900
v 0.9200 0.9400 -0.8900
f 64/4 63/4 62/4 61/4
v 0.9200 0.9400 -0.8900
v 0.8400 0.9400 -0.8900
v 0.8400 0.0700 -0.8900
v 0.9200 0.0700 -0.8900
f 68/4 67/4 66/4 65/4
v 0.9200 0.0700 -0.8100
v 0.8400 0.0700 -0.8100
v 0.8400 0.9400 -0.8100
v 0.9200 0.9400 -0.8100
f 72/4 71/4 70/4 69/4
v 0.9200 0.0700 0.8900
v 0.9200 0.9400 0.8900
v 0.9200 0.9400 0.8100
v 0.9200 0.0700 0.8100
f 76/4 75/4 74/4 73/4
v 0.8400 0.0700 0.8100
v 0.8400 0.9400 0.8100
v 0.8400 0.9400 0.8900
v 0.8400 0.0700 0.8900
f 80/4 79/4 78/4 77/4
v 0.9200 0.0700 0.8100
v 0.8400 0.0700 0.8100
v 0.8400 0.0700 0.8900
v 0.9200 0.0700 0.8900
f 84/4 83/4 82/4 81/4
v 0.9200 0.9400 0.8900
v 0.8400 0.9400 0.8900
v 0.8400 0.9400 0.8100
v 0.9200 0.9400 0.8100
f 88/4 87/4 86/4 85/4
v 0.9200 0.9400 0.8100
v 0.8400 0.9400 0.8100
v 0.8400 0.0700 0.8100
v 0.9200 0.0700 0.8100
f 92/4 91/4 90/4 89/4
v 0.9200 0.0700 0.8900
v 0.8400 0.0700 0.8900
v 0.8400 0.9400 0.8900
v 0.9200 0.9400 0.8900
f 96/4 95/4 94/4 93/4
v -0.8400 0.0700 -0.8100
v -0.8400 0.9400 -0.8100
v -0.8400 0.9400 -0.8900
v -0.8400 0.0700 -0.8900
f 100/4 99/4 98/4 97/4
v -0.9200 0.0700 -0.8900
v -0.9200 0.9400 -0.8900
v -0.9200 0.9400 -0.8100
v -0.9200 0.0700 -0.8100
f 104/4 103/4 102/4 101/4
v -0.8400 0.0700 -0.8900
v -0.9200 0.0700 -0.8900
v -0.9200 0.0700 -0.8100
v -0.8400 0.0700 -0.8100
f 108/4 107/4 106/4 105/4
v -0.8400 0.9400 -0.8100
v -0.9200 0.9400 -0.8100
v -0.9200 0.9400 -0.8900
v -0.8400 0.9400 -0.8900
f 112/4 111/4 110/4 109/4
v -0.8400 0.9400 -0.8900
v -0.9200 0.9400 -0.8900
v -0.9200 0.0700 -0.8900
v -0.8400 0.0700 -0.8900
f 116/4 115/4 114/4 113/4
v -0.8400 0.0700 -0.8100
v -0.9200 0.0700 -0.8100
v -0.9200 0.9400 -0.8100
v -0.8400 0.9400 -0.8100
f 120/4 119/4 118/4 117/4
v -0.8400 0.0700 0.8900
v -0.8400 0.9400 0.8900
v -0.8400 0.9400 0.8100
v -0.8400 0.0700 0.8100
f 124/4 123/4 122/4 121/4
v -0.9200 0.0700 0.8100
v -0.9200 0.9400 0.8100
v -0.9200 0.9400 0.8900
v -0.9200 0.0700 0.8900
f 128/4 127/4 126/4 125/4
v -0.8400 0.0700 0.8100
v -0.9200 0.0700 0.8100
v -0.9200 0.0700 0.8900
v -0.8400 0.0700 0.8900
f 132/4 131/4 130/4 129/4
v -0.8400 0.9400 0.8900
v -0.9200 0.9400 0.8900
v -0.9200 0.9400 0.8100
v -0.8400 0.9400 0.8100
f 136/4 135/4 134/4 133/4
v -0.8400 0.9400 0.8100
v -0.9200 0.9400 0.8100
v -0.9200 0.0700 0.8100
v -0.8400 0.0700 0.8100
f 140/4 139/4 138/4 137/4
v -0.8400 0.0700 0.8900
v -0.9200 0.0700 0.8900
v -0.9200 0.9400 0.8900
v -0.8400 0.9400 0.8900
f 144/4 143/4 142/4 141/4
v 0.9200 0.9050 0.8900
v 0.9200 0.9550 0.8900
v 0.9200 0.9550 -0.8900
v 0.9200 0.9050 -0.8900
f 148/4 147/4 146/4 145/4
v -0.9200 0.9050 -0.8900
v -0.9200 0.9550 -0.8900
v -0.9200 0.9550 0.8900
v -0.9200 0.9050 0.8900
f 152/4 151/4 150/4 149/4
v 0.9200 0.9050 -0.8900
v -0.9200 0.9050 -0.8900
v -0.9200 0.9050 0.8900
v 0.9200 0.9050 0.8900
f 156/4 155/4 154/4 153/4
v 0.9200 0.9550 0.8900
v -0.9200 0.9550 0.8900
v -0.9200 0.9550 -0.8900
v 0.9200 0.9550 -0.8900
f 160/4 159/4 158/4 157/4
v 0.9200 0.9550 -0.8900
v -0.9200 0.9550 -0.8900
v -0.9200 0.9050 -0.8900
v 0.9200 0.9050 -0.8900
f 164/4 163/4 162/4 161/4
v 0.9200 0.9050 0.8900
v -0.9200 0.9050 0.8900
v -0.9200 0.9550 0.8900
v 0.9200 0.9550 0.8900
f 168/4 167/4 166/4 165/4
v 0.4000 0.1000 0.8750
v 0.4000 0.7200 0.8750
v 0.4000 0.7200 0.8450
v 0.4000 0.1000 0.8450
f 172/6 171/6 170/6 169/6
v -0.4000 0.1000 0.8450
v -0.4000 0.7200 0.8450
v -0.4000 0.7200 0.8750
v -0.4000 0.1000 0.8750
f 176/6 175/6 174/6 173/6
v 0.4000 0.1000 0.8450
v -0.4000 0.1000 0.8450
v -0.4000 0.1000 0.8750
v 0.4000 0.1000 0.8750
f 180/6 179/6 178/6 177/6
v 0.4000 0.7200 0.8750
v -0.4000 0.7200 0.8750
v -0.4000 0.7200 0.8450
v 0.4000 0.7200 0.8450
f 184/6 183/6 182/6 181/6
v 0.4000 0.7200 0.8450
v -0.4000 0.7200 0.8450
v -0.4000 0.1000 0.8450
v 0.4000 0.1000 0.8450
f 188/6 187/6 186/6 185/6
v 0.4000 0.1000 0.8750
v -0.4000 0.1000 0.8750
v -0.4000 0.7200 0.8750
v 0.4000 0.7200 0.8750
f 192/6 191/6 190/6 189/6
v 0.3900 0.1500 0.8800
v 0.3900 0.1700 0.8800
v 0.3900 0.1700 0.8700
v 0.3900 0.1500 0.8700
f 196/7 195/7 194/7 193/7
v -0.3900 0.1500 0.8700
v -0.3900 0.1700 0.8700
v -0.3900 0.1700 0.8800
v -0.3900 0.1500 0.8800
f 200/7 199/7 198/7 197/7
v 0.3900 0.1500 0.8700
v -0.3900 0.1500 0.8700
v -0.3900 0.1500 0.8800
v 0.3900 0.1500 0.8800
f 204/7 203/7 202/7 201/7
v 0.3900 0.1700 0.8800
v -0.3900 0.1700 0.8800
v -0.3900 0.1700 0.8700
v 0.3900 0.1700 0.8700
f 208/7 207/7 206/7 205/7
v 0.3900 0.1700 0.8700
v -0.3900 0.1700 0.8700
v -0.3900 0.1500 0.8700
v 0.3900 0.1500 0.8700
f 212/7 211/7 210/7 209/7
v 0.3900 0.1500 0.8800
v -0.3900 0.1500 0.8800
v -0.3900 0.1700 0.8800
v 0.3900 0.1700 0.8800
f 216/7 215/7 214/7 213/7
v 0.3900 0.2700 0.8800
v 0.3900 0.2900 0.8800
v 0.3900 0.2900 0.8700
v 0.3900 0.2700 0.8700
f 220/7 219/7 218/7 217/7
v -0.3900 0.2700 0.8700
v -0.3900 0.2900 0.8700
v -0.3900 0.2900 0.8800
v -0.3900 0.2700 0.8800
f 224/7 223/7 222/7 221/7
v 0.3900 0.2700 0.8700
v -0.3900 0.2700 0.8700
v -0.3900 0.2700 0.8800
v 0.3900 0.2700 0.8800
f 228/7 227/7 226/7 225/7
v 0.3900 0.2900 0.8800
v -0.3900 0.2900 0.8800
v -0.3900 0.2900 0.8700
v 0.3900 0.2900 0.8700
f 232/7 231/7 230/7 229/7
v 0.3900 0.2900 0.8700
v -0.3900 0.2900 0.8700
v -0.3900 0.2700 0.8700
v 0.3900 0.2700 0.8700
f 236/7 235/7 234/7 233/7
v 0.3900 0.2700 0.8800
v -0.3900 0.2700 0.8800
v -0.3900 0.2900 0.8800
v 0.3900 0.2900 0.8800
f 240/7 239/7 238/7 237/7
v 0.3900 0.3900 0.8800
v 0.3900 0.4100 0.8800
v 0.3900 0.4100 0.8700
v 0.3900 0.3900 0.8700
f 244/7 243/7 242/7 241/7
v -0.3900 0.3900 0.8700
v -0.3900 0.4100 0.8700
v -0.3900 0.4100 0.8800
v -0.3900 0.3900 0.8800
f 248/7 247/7 246/7 245/7
v 0.3900 0.3900 0.8700
v -0.3900 0.3900 0.8700
v -0.3900 0.3900 0.8800
v 0.3900 0.3900 0.8800
f 252/7 251/7 250/7 249/7
v 0.3900 0.4100 0.8800
v -0.3900 0.4100 0.8800
v -0.3900 0.4100 0.8700
v 0.3900 0.4100 0.8700
f 256/7 255/7 254/7 253/7
v 0.3900 0.4100 0.8700
v -0.3900 0.4100 0.8700
v -0.3900 0.3900 0.8700
v 0.3900 0.3900 0.8700
f 260/7 259/7 258/7 257/7
v 0.3900 0.3900 0.8800
v -0.3900 0.3900 0.8800
v -0.3900 0.4100 0.8800
v 0.3900 0.4100 0.8800
f 264/7 263/7 262/7 261/7
v 0.3900 0.5100 0.8800
v 0.3900 0.5300 0.8800
v 0.3900 0.5300 0.8700
v 0.3900 0.5100 0.8700
f 268/7 267/7 266/7 265/7
v -0.3900 0.5100 0.8700
v -0.3900 0.5300 0.8700
v -0.3900 0.5300 0.8800
v -0.3900 0.5100 0.8800
f 272/7 271/7 270/7 269/7
v 0.3900 0.5100 0.8700
v -0.3900 0.5100 0.8700
v -0.3900 0.5100 0.8800
v 0.3900 0.5100 0.8800
f 276/7 275/7 274/7 273/7
v 0.3900 0.5300 0.8800
v -0.3900 0.5300 0.8800
v -0.3900 0.5300 0.8700
v 0.3900 0.5300 0.8700
f 280/7 279/7 278/7 277/7
v 0.3900 0.5300 0.8700
v -0.3900 0.5300 0.8700
v -0.3900 0.5100 0.8700
v 0.3900 0.5100 0.8700
f 284/7 283/7 282/7 281/7
v 0.3900 0.5100 0.8800
v -0.3900 0.5100 0.8800
v -0.3900 0.5300 0.8800
v 0.3900 0.5300 0.8800
f 288/7 287/7 286/7 285/7
v 0.3900 0.6300 0.8800
v 0.3900 0.6500 0.8800
v 0.3900 0.6500 0.8700
v 0.3900 0.6300 0.8700
f 292/7 291/7 290/7 289/7
v -0.3900 0.6300 0.8700
v -0.3900 0.6500 0.8700
v -0.3900 0.6500 0.8800
v -0.3900 0.6300 0.8800
f 296/7 295/7 294/7 293/7
v 0.3900 0.6300 0.8700
v -0.3900 0.6300 0.8700
v -0.3900 0.6300 0.8800
v 0.3900 0.6300 0.8800
f 300/7 299/7 298/7 297/7
v 0.3900 0.6500 0.8800
v -0.3900 0.6500 0.8800
v -0.3900 0.6500 0.8700
v 0.3900 0.6500 0.8700
f 304/7 303/7 302/7 301/7
v 0.3900 0.6500 0.8700
v -0.3900 0.6500 0.8700
v -0.3900 0.6300 0.8700
v 0.3900 0.6300 0.8700
f 308/7 307/7 306/7 305/7
v 0.3900 0.6300 0.8800
v -0.3900 0.6300 0.8800
v -0.3900 0.6500 0.8800
v 0.3900 0.6500 0.8800
f 312/7 311/7 310/7 309/7
v 0.4500 0.7700 0.8760
v 0.4500 0.8300 0.8760
v 0.4500 0.8300 0.8640
v 0.4500 0.7700 0.8640
f 316/8 315/8 314/8 313/8
v 0.3214 0.7700 0.8640
v 0.3214 0.8300 0.8640
v 0.3214 0.8300 0.8760
v 0.3214 0.7700 0.8760
f 320/8 319/8 318/8 317/8
v 0.4500 0.7700 0.8640
v 0.3214 0.7700 0.8640
v 0.3214 0.7700 0.8760
v 0.4500 0.7700 0.8760
f 324/8 323/8 322/8 321/8
v 0.4500 0.8300 0.8760
v 0.3214 0.8300 0.8760
v 0.3214 0.8300 0.8640
v 0.4500 0.8300 0.8640
f 328/8 327/8 326/8 325/8
v 0.4500 0.8300 0.8640
v 0.3214 0.8300 0.8640
v 0.3214 0.7700 0.8640
v 0.4500 0.7700 0.8640
f 332/8 331/8 330/8 329/8
v 0.4500 0.7700 0.8760
v 0.3214 0.7700 0.8760
v 0.3214 0.8300 0.8760
v 0.4500 0.8300 0.8760
f 336/8 335/8 334/8 333/8
v 0.3214 0.7700 0.8760
v 0.3214 0.8300 0.8760
v 0.3214 0.8300 0.8640
v 0.3214 0.7700 0.8640
f 340/6 339/6 338/6 337/6
v 0.1929 0.7700 0.8640
v 0.1929 0.8300 0.8640
v 0.1929 0.8300 0.8760
v 0.1929 0.7700 0.8760
f 344/6 343/6 342/6 341/6
v 0.3214 0.7700 0.8640
v 0.1929 0.7700 0.8640
v 0.1929 0.7700 0.8760
v 0.3214 0.7700 0.8760
f 348/6 347/6 346/6 345/6
v 0.3214 0.8300 0.8760
v 0.1929 0.8300 0.8760
v 0.1929 0.8300 0.8640
v 0.3214 0.8300 0.8640
f 352/6 351/6 350/6 349/6
v 0.3214 0.8300 0.8640
v 0.1929 0.8300 0.8640
v 0.1929 0.7700 0.8640
v 0.3214 0.7700 0.8640
f 356/6 355/6 354/6 353/6
v 0.3214 0.7700 0.8760
v 0.1929 0.7700 0.8760
v 0.1929 0.8300 0.8760
v 0.3214 0.8300 0.8760
f 360/6 359/6 358/6 357/6
v 0.1929 0.7700 0.8760
v 0.1929 0.8300 0.8760
v 0.1929 0.8300 0.8640
v 0.1929 0.7700 0.8640
f 364/8 363/8 362/8 361/8
v 0.0643 0.7700 0.8640
v 0.0643 0.8300 0.8640
v 0.0643 0.8300 0.8760
v 0.0643 0.7700 0.8760
f 368/8 367/8 366/8 365/8
v 0.1929 0.7700 0.8640
v 0.0643 0.7700 0.8640
v 0.0643 0.7700 0.8760
v 0.1929 0.7700 0.8760
f 372/8 371/8 370/8 369/8
v 0.1929 0.8300 0.8760
v 0.0643 0.8300 0.8760
v 0.0643 0.8300 0.8640
v 0.1929 0.8300 0.8640
f 376/8 375/8 374/8 373/8
v 0.1929 0.8300 0.8640
v 0.0643 0.8300 0.8640
v 0.0643 0.7700 0.8640
v 0.1929 0.7700 0.8640
f 380/8 379/8 378/8 377/8
v 0.1929 0.7700 0.8760
v 0.0643 0.7700 0.8760
v 0.0643 0.8300 0.8760
v 0.1929 0.8300 0.8760
f 384/8 383/8 382/8 381/8
v 0.0643 0.7700 0.8760
v 0.0643 0.8300 0.8760
v 0.0643 0.8300 0.8640
v 0.0643 0.7700 0.8640
f 388/6 387/6 386/6 385/6
v -0.0643 0.7700 0.8640
v -0.0643 0.8300 0.8640
v -0.0643 0.8300 0.8760
v -0.0643 0.7700 0.8760
f 392/6 391/6 390/6 389/6
v 0.0643 0.7700 0.8640
v -0.0643 0.7700 0.8640
v -0.0643 0.7700 0.8760
v 0.0643 0.7700 0.8760
f 396/6 395/6 394/6 393/6
v 0.0643 0.8300 0.8760
v -0.0643 0.8300 0.8760
v -0.0643 0.8300 0.8640
v 0.0643 0.8300 0.8640
f 400/6 399/6 398/6 397/6
v 0.0643 0.8300 0.8640
v -0.0643 0.8300 0.8640
v -0.0643 0.7700 0.8640
v 0.0643 0.7700 0.8640
f 404/6 403/6 402/6 401/6
v 0.0643 0.7700 0.8760
v -0.0643 0.7700 0.8760
v -0.0643 0.8300 0.8760
v 0.0643 0.8300 0.8760
f 408/6 407/6 406/6 405/6
v -0.0643 0.7700 0.8760
v -0.0643 0.8300 0.8760
v -0.0643 0.8300 0.8640
v -0.0643 0.7700 0.8640
f 412/8 411/8 410/8 409/8
v -0.1929 0.7700 0.8640
v -0.1929 0.8300 0.8640
v -0.1929 0.8300 0.8760
v -0.1929 0.7700 0.8760
f 416/8 415/8 414/8 413/8
v -0.0643 0.7700 0.8640
v -0.1929 0.7700 0.8640
v -0.1929 0.7700 0.8760
v -0.0643 0.7700 0.8760
f 420/8 419/8 418/8 417/8
v -0.0643 0.8300 0.8760
v -0.1929 0.8300 0.8760
v -0.1929 0.8300 0.8640
v -0.0643 0.8300 0.8640
f 424/8 423/8 422/8 421/8
v -0.0643 0.8300 0.8640
v -0.1929 0.8300 0.8640
v -0.1929 0.7700 0.8640
v -0.0643 0.7700 0.8640
f 428/8 427/8 426/8 425/8
v -0.0643 0.7700 0.8760
v -0.1929 0.7700 0.8760
v -0.1929 0.8300 0.8760
v -0.0643 0.8300 0.8760
f 432/8 431/8 430/8 429/8
v -0.1929 0.7700 0.8760
v -0.1929 0.8300 0.8760
v -0.1929 0.8300 0.8640
v -0.1929 0.7700 0.8640
f 436/6 435/6 434/6 433/6
v -0.3214 0.7700 0.8640
v -0.3214 0.8300 0.8640
v -0.3214 0.8300 0.8760
v -0.3214 0.7700 0.8760
f 440/6 439/6 438/6 437/6
v -0.1929 0.7700 0.8640
v -0.3214 0.7700 0.8640
v -0.3214 0.7700 0.8760
v -0.1929 0.7700 0.8760
f 444/6 443/6 442/6 441/6
v -0.1929 0.8300 0.8760
v -0.3214 0.8300 0.8760
v -0.3214 0.8300 0.8640
v -0.1929 0.8300 0.8640
f 448/6 447/6 446/6 445/6
v -0.1929 0.8300 0.8640
v -0.3214 0.8300 0.8640
v -0.3214 0.7700 0.8640
v -0.1929 0.7700 0.8640
f 452/6 451/6 450/6 449/6
v -0.1929 0.7700 0.8760
v -0.3214 0.7700 0.8760
v -0.3214 0.8300 0.8760
v -0.1929 0.8300 0.8760
f 456/6 455/6 454/6 453/6
v -0.3214 0.7700 0.8760
v -0.3214 0.8300 0.8760
v -0.3214 0.8300 0.8640
v -0.3214 0.7700 0.8640
f 460/8 459/8 458/8 457/8
v -0.4500 0.7700 0.8640
v -0.4500 0.8300 0.8640
v -0.4500 0.8300 0.8760
v -0.4500 0.7700 0.8760
f 464/8 463/8 462/8 461/8
v -0.3214 0.7700 0.8640
v -0.4500 0.7700 0.8640
v -0.4500 0.7700 0.8760
v -0.3214 0.7700 0.8760
f 468/8 467/8 466/8 465/8
v -0.3214 0.8300 0.8760
v -0.4500 0.8300 0.8760
v -0.4500 0.8300 0.8640
v -0.3214 0.8300 0.8640
f 472/8 471/8 470/8 469/8
v -0.3214 0.8300 0.8640
v -0.4500 0.8300 0.8640
v -0.4500 0.7700 0.8640
v -0.3214 0.7700 0.8640
f 476/8 475/8 474/8 473/8
v -0.3214 0.7700 0.8760
v -0.4500 0.7700 0.8760
v -0.4500 0.8300 0.8760
v -0.3214 0.8300 0.8760
f 480/8 479/8 478/8 477/8
v 0.5817 0.9300 -0.4576
v 0.5276 0.9300 -0.5117
v 0.5276 1.6300 -0.5117
v 0.5817 1.6300 -0.4576
f 484/7 483/7 482/7 481/7
v 0.5276 0.9300 -0.5117
v 0.5276 0.9300 -0.5883
v 0.5276 1.6300 -0.5883
v 0.5276 1.6300 -0.5117
f 488/7 487/7 486/7 485/7
v 0.5276 0.9300 -0.5883
v 0.5817 0.9300 -0.6424
v 0.5817 1.6300 -0.6424
v 0.5276 1.6300 -0.5883
f 492/7 491/7 490/7 489/7
v 0.5817 0.9300 -0.6424
v 0.6583 0.9300 -0.6424
v 0.6583 1.6300 -0.6424
v 0.5817 1.6300 -0.6424
f 496/7 495/7 494/7 493/7
v 0.6583 0.9300 -0.6424
v 0.7124 0.9300 -0.5883
v 0.7124 1.6300 -0.5883
v 0.6583 1.6300 -0.6424
f 500/7 499/7 498/7 497/7
v 0.7124 0.9300 -0.5883
v 0.7124 0.9300 -0.5117
v 0.7124 1.6300 -0.5117
v 0.7124 1.6300 -0.5883
f 504/7 503/7 502/7 501/7
v 0.7124 0.9300 -0.5117
v 0.6583 0.9300 -0.4576
v 0.6583 1.6300 -0.4576
v 0.7124 1.6300 -0.5117
f 508/7 507/7 506/7 505/7
v 0.6583 0.9300 -0.4576
v 0.5817 0.9300 -0.4576
v 0.5817 1.6300 -0.4576
v 0.6583 1.6300 -0.4576
f 512/7 511/7 510/7 509/7
v 0.6583 0.9300 -0.4576
v 0.7124 0.9300 -0.5117
v 0.7124 0.9300 -0.5883
v 0.6583 0.9300 -0.6424
v 0.5817 0.9300 -0.6424
v 0.5276 0.9300 -0.5883
v 0.5276 0.9300 -0.5117
v 0.5817 0.9300 -0.4576
f 520/7 519/7 518/7 517/7 516/7 515/7 514/7 513/7
v 0.5817 1.6300 -0.4576
v 0.5276 1.6300 -0.5117
v 0.5276 1.6300 -0.5883
v 0.5817 1.6300 -0.6424
v 0.6583 1.6300 -0.6424
v 0.7124 1.6300 -0.5883
v 0.7124 1.6300 -0.5117
v 0.6583 1.6300 -0.4576
f 528/7 527/7 526/7 525/7 524/7 523/7 522/7 521/7
v 0.5703 1.6300 -0.4299
v 0.4999 1.6300 -0.5003
v 0.4999 1.6800 -0.5003
v 0.5703 1.6800 -0.4299
f 532/4 531/4 530/4 529/4
v 0.4999 1.6300 -0.5003
v 0.4999 1.6300 -0.5997
v 0.4999 1.6800 -0.5997
v 0.4999 1.6800 -0.5003
f 536/4 535/4 534/4 533/4
v 0.4999 1.6300 -0.5997
v 0.5703 1.6300 -0.6701
v 0.5703 1.6800 -0.6701
v 0.4999 1.6800 -0.5997
f 540/4 539/4 538/4 537/4
v 0.5703 1.6300 -0.6701
v 0.6697 1.6300 -0.6701
v 0.6697 1.6800 -0.6701
v 0.5703 1.6800 -0.6701
f 544/4 543/4 542/4 541/4
v 0.6697 1.6300 -0.6701
v 0.7401 1.6300 -0.5997
v 0.7401 1.6800 -0.5997
v 0.6697 1.6800 -0.6701
f 548/4 547/4 546/4 545/4
v 0.7401 1.6300 -0.5997
v 0.7401 1.6300 -0.5003
v 0.7401 1.6800 -0.5003
v 0.7401 1.6800 -0.5997
f 552/4 551/4 550/4 549/4
v 0.7401 1.6300 -0.5003
v 0.6697 1.6300 -0.4299
v 0.6697 1.6800 -0.4299
v 0.7401 1.6800 -0.5003
f 556/4 555/4 554/4 553/4
v 0.6697 1.6300 -0.4299
v 0.5703 1.6300 -0.4299
v 0.5703 1.6800 -0.4299
v 0.6697 1.6800 -0.4299
f 560/4 559/4 558/4 557/4
v 0.6697 1.6300 -0.4299
v 0.7401 1.6300 -0.5003
v 0.7401 1.6300 -0.5997
v 0.6697 1.6300 -0.6701
v 0.5703 1.6300 -0.6701
v 0.4999 1.6300 -0.5997
v 0.4999 1.6300 -0.5003
v 0.5703 1.6300 -0.4299
f 568/4 567/4 566/4 565/4 564/4 563/4 562/4 561/4
v 0.5703 1.6800 -0.4299
v 0.4999 1.6800 -0.5003
v 0.4999 1.6800 -0.5997
v 0.5703 1.6800 -0.6701
v 0.6697 1.6800 -0.6701
v 0.7401 1.6800 -0.5997
v 0.7401 1.6800 -0.5003
v 0.6697 1.6800 -0.4299
f 576/4 575/4 574/4 573/4 572/4 571/4 570/4 569/4
v 0.6500 0.1400 -0.8500
v 0.6500 0.3600 -0.8500
v 0.6500 0.3600 -0.8700
v 0.6500 0.1400 -0.8700
f 580/6 579/6 578/6 577/6
v 0.3500 0.1400 -0.8700
v 0.3500 0.3600 -0.8700
v 0.3500 0.3600 -0.8500
v 0.3500 0.1400 -0.8500
f 584/6 583/6 582/6 581/6
v 0.6500 0.1400 -0.8700
v 0.3500 0.1400 -0.8700
v 0.3500 0.1400 -0.8500
v 0.6500 0.1400 -0.8500
f 588/6 587/6 586/6 585/6
v 0.6500 0.3600 -0.8500
v 0.3500 0.3600 -0.8500
v 0.3500 0.3600 -0.8700
v 0.6500 0.3600 -0.8700
f 592/6 591/6 590/6 589/6
v 0.6500 0.3600 -0.8700
v 0.3500 0.3600 -0.8700
v 0.3500 0.1400 -0.8700
v 0.6500 0.1400 -0.8700
f 596/6 595/6 594/6 593/6
v 0.6500 0.1400 -0.8500
v 0.3500 0.1400 -0.8500
v 0.3500 0.3600 -0.8500
v 0.6500 0.3600 -0.8500
f 600/6 599/6 598/6 597/6
v 0.6100 0.0800 -0.8400
v 0.6100 0.1300 -0.8400
v 0.6100 0.1300 -0.9100
v 0.6100 0.0800 -0.9100
f 604/3 603/3 602/3 601/3
v 0.3900 0.0800 -0.9100
v 0.3900 0.1300 -0.9100
v 0.3900 0.1300 -0.8400
v 0.3900 0.0800 -0.8400
f 608/3 607/3 606/3 605/3
v 0.6100 0.0800 -0.9100
v 0.3900 0.0800 -0.9100
v 0.3900 0.0800 -0.8400
v 0.6100 0.0800 -0.8400
f 612/3 611/3 610/3 609/3
v 0.6100 0.1300 -0.8400
v 0.3900 0.1300 -0.8400
v 0.3900 0.1300 -0.9100
v 0.6100 0.1300 -0.9100
f 616/3 615/3 614/3 613/3
v 0.6100 0.1300 -0.9100
v 0.3900 0.1300 -0.9100
v 0.3900 0.0800 -0.9100
v 0.6100 0.0800 -0.9100
f 620/3 619/3 618/3 617/3
v 0.6100 0.0800 -0.8400
v 0.3900 0.0800 -0.8400
v 0.3900 0.1300 -0.8400
v 0.6100 0.1300 -0.8400
f 624/3 623/3 622/3 621/3
v 0.6300 0.1300 -0.8400
v 0.6300 0.1800 -0.8400
v 0.6300 0.1800 -0.9100
v 0.6300 0.1300 -0.9100
f 628/6 627/6 626/6 625/6
v 0.3700 0.1300 -0.9100
v 0.3700 0.1800 -0.9100
v 0.3700 0.1800 -0.8400
v 0.3700 0.1300 -0.8400
f 632/6 631/6 630/6 629/6
v 0.6300 0.1300 -0.9100
v 0.3700 0.1300 -0.9100
v 0.3700 0.1300 -0.8400
v 0.6300 0.1300 -0.8400
f 636/6 635/6 634/6 633/6
v 0.6300 0.1800 -0.8400
v 0.3700 0.1800 -0.8400
v 0.3700 0.1800 -0.9100
v 0.6300 0.1800 -0.9100
f 640/6 639/6 638/6 637/6
v 0.6300 0.1800 -0.9100
v 0.3700 0.1800 -0.9100
v 0.3700 0.1300 -0.9100
v 0.6300 0.1300 -0.9100
f 644/6 643/6 642/6 641/6
v 0.6300 0.1300 -0.8400
v 0.3700 0.1300 -0.8400
v 0.3700 0.1800 -0.8400
v 0.6300 0.1800 -0.8400
f 648/6 647/6 646/6 645/6
v 0.6600 0.1550 -0.8400
v 0.6600 0.2450 -0.8400
v 0.6600 0.2450 -0.9100
v 0.6600 0.1550 -0.9100
f 652/4 651/4 650/4 649/4
v 0.6300 0.1550 -0.9100
v 0.6300 0.2450 -0.9100
v 0.6300 0.2450 -0.8400
v 0.6300 0.1550 -0.8400
f 656/4 655/4 654/4 653/4
v 0.6600 0.1550 -0.9100
v 0.6300 0.1550 -0.9100
v 0.6300 0.1550 -0.8400
v 0.6600 0.1550 -0.8400
f 660/4 659/4 658/4 657/4
v 0.6600 0.2450 -0.8400
v 0.6300 0.2450 -0.8400
v 0.6300 0.2450 -0.9100
v 0.6600 0.2450 -0.9100
f 664/4 663/4 662/4 661/4
v 0.6600 0.2450 -0.9100
v 0.6300 0.2450 -0.9100
v 0.6300 0.1550 -0.9100
v 0.6600 0.1550 -0.9100
f 668/4 667/4 666/4 665/4
v 0.6600 0.1550 -0.8400
v 0.6300 0.1550 -0.8400
v 0.6300 0.2450 -0.8400
v 0.6600 0.2450 -0.8400
f 672/4 671/4 670/4 669/4
v 0.3700 0.1550 -0.8400
v 0.3700 0.2450 -0.8400
v 0.3700 0.2450 -0.9100
v 0.3700 0.1550 -0.9100
f 676/4 675/4 674/4 673/4
v 0.3400 0.1550 -0.9100
v 0.3400 0.2450 -0.9100
v 0.3400 0.2450 -0.8400
v 0.3400 0.1550 -0.8400
f 680/4 679/4 678/4 677/4
v 0.3700 0.1550 -0.9100
v 0.3400 0.1550 -0.9100
v 0.3400 0.1550 -0.8400
v 0.3700 0.1550 -0.8400
f 684/4 683/4 682/4 681/4
v 0.3700 0.2450 -0.8400
v 0.3400 0.2450 -0.8400
v 0.3400 0.2450 -0.9100
v 0.3700 0.2450 -0.9100
f 688/4 687/4 686/4 685/4
v 0.3700 0.2450 -0.9100
v 0.3400 0.2450 -0.9100
v 0.3400 0.1550 -0.9100
v 0.3700 0.1550 -0.9100
f 692/4 691/4 690/4 689/4
v 0.3700 0.1550 -0.8400
v 0.3400 0.1550 -0.8400
v 0.3400 0.2450 -0.8400
v 0.3700 0.2450 -0.8400
f 696/4 695/4 694/4 693/4
v -0.3500 0.1400 -0.8500
v -0.3500 0.3600 -0.8500
v -0.3500 0.3600 -0.8700
v -0.3500 0.1400 -0.8700
f 700/6 699/6 698/6 697/6
v -0.6500 0.1400 -0.8700
v -0.6500 0.3600 -0.8700
v -0.6500 0.3600 -0.8500
v -0.6500 0.1400 -0.8500
f 704/6 703/6 702/6 701/6
v -0.3500 0.1400 -0.8700
v -0.6500 0.1400 -0.8700
v -0.6500 0.1400 -0.8500
v -0.3500 0.1400 -0.8500
f 708/6 707/6 706/6 705/6
v -0.3500 0.3600 -0.8500
v -0.6500 0.3600 -0.8500
v -0.6500 0.3600 -0.8700
v -0.3500 0.3600 -0.8700
f 712/6 711/6 710/6 709/6
v -0.3500 0.3600 -0.8700
v -0.6500 0.3600 -0.8700
v -0.6500 0.1400 -0.8700
v -0.3500 0.1400 -0.8700
f 716/6 715/6 714/6 713/6
v -0.3500 0.1400 -0.8500
v -0.6500 0.1400 -0.8500
v -0.6500 0.3600 -0.8500
v -0.3500 0.3600 -0.8500
f 720/6 719/6 718/6 717/6
v -0.3900 0.0800 -0.8400
v -0.3900 0.1300 -0.8400
v -0.3900 0.1300 -0.9100
v -0.3900 0.0800 -0.9100
f 724/3 723/3 722/3 721/3
v -0.6100 0.0800 -0.9100
v -0.6100 0.1300 -0.9100
v -0.6100 0.1300 -0.8400
v -0.6100 0.0800 -0.8400
f 728/3 727/3 726/3 725/3
v -0.3900 0.0800 -0.9100
v -0.6100 0.0800 -0.9100
v -0.6100 0.0800 -0.8400
v -0.3900 0.0800 -0.8400
f 732/3 731/3 730/3 729/3
v -0.3900 0.1300 -0.8400
v -0.6100 0.1300 -0.8400
v -0.6100 0.1300 -0.9100
v -0.3900 0.1300 -0.9100
f 736/3 735/3 734/3 733/3
v -0.3900 0.1300 -0.9100
v -0.6100 0.1300 -0.9100
v -0.6100 0.0800 -0.9100
v -0.3900 0.0800 -0.9100
f 740/3 739/3 738/3 737/3
v -0.3900 0.0800 -0.8400
v -0.6100 0.0800 -0.8400
v -0.6100 0.1300 -0.8400
v -0.3900 0.1300 -0.8400
f 744/3 743/3 742/3 741/3
v -0.3700 0.1300 -0.8400
v -0.3700 0.1800 -0.8400
v -0.3700 0.1800 -0.9100
v -0.3700 0.1300 -0.9100
f 748/6 747/6 746/6 745/6
v -0.6300 0.1300 -0.9100
v -0.6300 0.1800 -0.9100
v -0.6300 0.1800 -0.8400
v -0.6300 0.1300 -0.8400
f 752/6 751/6 750/6 749/6
v -0.3700 0.1300 -0.9100
v -0.6300 0.1300 -0.9100
v -0.6300 0.1300 -0.8400
v -0.3700 0.1300 -0.8400
f 756/6 755/6 754/6 753/6
v -0.3700 0.1800 -0.8400
v -0.6300 0.1800 -0.8400
v -0.6300 0.1800 -0.9100
v -0.3700 0.1800 -0.9100
f 760/6 759/6 758/6 757/6
v -0.3700 0.1800 -0.9100
v -0.6300 0.1800 -0.9100
v -0.6300 0.1300 -0.9100
v -0.3700 0.1300 -0.9100
f 764/6 763/6 762/6 761/6
v -0.3700 0.1300 -0.8400
v -0.6300 0.1300 -0.8400
v -0.6300 0.1800 -0.8400
v -0.3700 0.1800 -0.8400
f 768/6 767/6 766/6 765/6
v -0.3400 0.1550 -0.8400
v -0.3400 0.2450 -0.8400
v -0.3400 0.2450 -0.9100
v -0.3400 0.1550 -0.9100
f 772/4 771/4 770/4 769/4
v -0.3700 0.1550 -0.9100
v -0.3700 0.2450 -0.9100
v -0.3700 0.2450 -0.8400
v -0.3700 0.1550 -0.8400
f 776/4 775/4 774/4 773/4
v -0.3400 0.1550 -0.9100
v -0.3700 0.1550 -0.9100
v -0.3700 0.1550 -0.8400
v -0.3400 0.1550 -0.8400
f 780/4 779/4 778/4 777/4
v -0.3400 0.2450 -0.8400
v -0.3700 0.2450 -0.8400
v -0.3700 0.2450 -0.9100
v -0.3400 0.2450 -0.9100
f 784/4 783/4 782/4 781/4
v -0.3400 0.2450 -0.9100
v -0.3700 0.2450 -0.9100
v -0.3700 0.1550 -0.9100
v -0.3400 0.1550 -0.9100
f 788/4 787/4 786/4 785/4
v -0.3400 0.1550 -0.8400
v -0.3700 0.1550 -0.8400
v -0.3700 0.2450 -0.8400
v -0.3400 0.2450 -0.8400
f 792/4 791/4 790/4 789/4
v -0.6300 0.1550 -0.8400
v -0.6300 0.2450 -0.8400
v -0.6300 0.2450 -0.9100
v -0.6300 0.1550 -0.9100
f 796/4 795/4 794/4 793/4
v -0.6600 0.1550 -0.9100
v -0.6600 0.2450 -0.9100
v -0.6600 0.2450 -0.8400
v -0.6600 0.1550 -0.8400
f 800/4 799/4 798/4 797/4
v -0.6300 0.1550 -0.9100
v -0.6600 0.1550 -0.9100
v -0.6600 0.1550 -0.8400
v -0.6300 0.1550 -0.8400
f 804/4 803/4 802/4 801/4
v -0.6300 0.2450 -0.8400
v -0.6600 0.2450 -0.8400
v -0.6600 0.2450 -0.9100
v -0.6300 0.2450 -0.9100
f 808/4 807/4 806/4 805/4
v -0.6300 0.2450 -0.9100
v -0.6600 0.2450 -0.9100
v -0.6600 0.1550 -0.9100
v -0.6300 0.1550 -0.9100
f 812/4 811/4 810/4 809/4
v -0.6300 0.1550 -0.8400
v -0.6600 0.1550 -0.8400
v -0.6600 0.2450 -0.8400
v -0.6300 0.2450 -0.8400
f 816/4 815/4 814/4 813/4
v 0.1100 0.0800 0.9100
v 0.1100 0.1300 0.9100
v 0.1100 0.1300 0.8500
v 0.1100 0.0800 0.8500
f 820/3 819/3 818/3 817/3
v -0.1100 0.0800 0.8500
v -0.1100 0.1300 0.8500
v -0.1100 0.1300 0.9100
v -0.1100 0.0800 0.9100
f 824/3 823/3 822/3 821/3
v 0.1100 0.0800 0.8500
v -0.1100 0.0800 0.8500
v -0.1100 0.0800 0.9100
v 0.1100 0.0800 0.9100
f 828/3 827/3 826/3 825/3
v 0.1100 0.1300 0.9100
v -0.1100 0.1300 0.9100
v -0.1100 0.1300 0.8500
v 0.1100 0.1300 0.8500
f 832/3 831/3 830/3 829/3
v 0.1100 0.1300 0.8500
v -0.1100 0.1300 0.8500
v -0.1100 0.0800 0.8500
v 0.1100 0.0800 0.8500
f 836/3 835/3 834/3 833/3
v 0.1100 0.0800 0.9100
v -0.1100 0.0800 0.9100
v -0.1100 0.1300 0.9100
v 0.1100 0.1300 0.9100
f 840/3 839/3 838/3 837/3
v 0.1300 0.1300 0.9100
v 0.1300 0.1800 0.9100
v 0.1300 0.1800 0.8500
v 0.1300 0.1300 0.8500
f 844/6 843/6 842/6 841/6
v -0.1300 0.1300 0.8500
v -0.1300 0.1800 0.8500
v -0.1300 0.1800 0.9100
v -0.1300 0.1300 0.9100
f 848/6 847/6 846/6 845/6
v 0.1300 0.1300 0.8500
v -0.1300 0.1300 0.8500
v -0.1300 0.1300 0.9100
v 0.1300 0.1300 0.9100
f 852/6 851/6 850/6 849/6
v 0.1300 0.1800 0.9100
v -0.1300 0.1800 0.9100
v -0.1300 0.1800 0.8500
v 0.1300 0.1800 0.8500
f 856/6 855/6 854/6 853/6
v 0.1300 0.1800 0.8500
v -0.1300 0.1800 0.8500
v -0.1300 0.1300 0.8500
v 0.1300 0.1300 0.8500
f 860/6 859/6 858/6 857/6
v 0.1300 0.1300 0.9100
v -0.1300 0.1300 0.9100
v -0.1300 0.1800 0.9100
v 0.1300 0.1800 0.9100
f 864/6 863/6 862/6 861/6
v 0.1600 0.1550 0.9100
v 0.1600 0.2450 0.9100
v 0.1600 0.2450 0.8500
v 0.1600 0.1550 0.8500
f 868/4 867/4 866/4 865/4
v 0.1300 0.1550 0.8500
v 0.1300 0.2450 0.8500
v 0.1300 0.2450 0.9100
v 0.1300 0.1550 0.9100
f 872/4 871/4 870/4 869/4
v 0.1600 0.1550 0.8500
v 0.1300 0.1550 0.8500
v 0.1300 0.1550 0.9100
v 0.1600 0.1550 0.9100
f 876/4 875/4 874/4 873/4
v 0.1600 0.2450 0.9100
v 0.1300 0.2450 0.9100
v 0.1300 0.2450 0.8500
v 0.1600 0.2450 0.8500
f 880/4 879/4 878/4 877/4
v 0.1600 0.2450 0.8500
v 0.1300 0.2450 0.8500
v 0.1300 0.1550 0.8500
v 0.1600 0.1550 0.8500
f 884/4 883/4 882/4 881/4
v 0.1600 0.1550 0.9100
v 0.1300 0.1550 0.9100
v 0.1300 0.2450 0.9100
v 0.1600 0.2450 0.9100
f 888/4 887/4 886/4 885/4
v -0.1300 0.1550 0.9100
v -0.1300 0.2450 0.9100
v -0.1300 0.2450 0.8500
v -0.1300 0.1550 0.8500
f 892/4 891/4 890/4 889/4
v -0.1600 0.1550 0.8500
v -0.1600 0.2450 0.8500
v -0.1600 0.2450 0.9100
v -0.1600 0.1550 0.9100
f 896/4 895/4 894/4 893/4
v -0.1300 0.1550 0.8500
v -0.1600 0.1550 0.8500
v -0.1600 0.1550 0.9100
v -0.1300 0.1550 0.9100
f 900/4 899/4 898/4 897/4
v -0.1300 0.2450 0.9100
v -0.1600 0.2450 0.9100
v -0.1600 0.2450 0.8500
v -0.1300 0.2450 0.8500
f 904/4 903/4 902/4 901/4
v -0.1300 0.2450 0.8500
v -0.1600 0.2450 0.8500
v -0.1600 0.1550 0.8500
v -0.1300 0.1550 0.8500
f 908/4 907/4 906/4 905/4
v -0.1300 0.1550 0.9100
v -0.1600 0.1550 0.9100
v -0.1600 0.2450 0.9100
v -0.1300 0.2450 0.9100
f 912/4 911/4 910/4 909/4
v 0.8700 0.9126 -0.2932
v 0.8700 0.9474 -0.2735
v 0.8700 1.2674 -0.8402
v 0.8700 1.2326 -0.8598
f 916/4 915/4 914/4 913/4
v -0.8700 1.2326 -0.8598
v -0.8700 1.2674 -0.8402
v -0.8700 0.9474 -0.2735
v -0.8700 0.9126 -0.2932
f 920/4 919/4 918/4 917/4
v 0.8700 1.2326 -0.8598
v -0.8700 1.2326 -0.8598
v -0.8700 0.9126 -0.2932
v 0.8700 0.9126 -0.2932
f 924/4 923/4 922/4 921/4
v 0.8700 0.9474 -0.2735
v -0.8700 0.9474 -0.2735
v -0.8700 1.2674 -0.8402
v 0.8700 1.2674 -0.8402
f 928/4 927/4 926/4 925/4
v 0.8700 1.2674 -0.8402
v -0.8700 1.2674 -0.8402
v -0.8700 1.2326 -0.8598
v 0.8700 1.2326 -0.8598
f 932/4 931/4 930/4 929/4
v 0.8700 0.9126 -0.2932
v -0.8700 0.9126 -0.2932
v -0.8700 0.9474 -0.2735
v 0.8700 0.9474 -0.2735
f 936/4 935/4 934/4 933/4
v 0.8500 0.9300 -0.8150
v 0.8500 1.2500 -0.8150
v 0.8500 1.2500 -0.8450
v 0.8500 0.9300 -0.8450
f 940/12 939/12 938/12 937/12
v -0.8500 0.9300 -0.8450
v -0.8500 1.2500 -0.8450
v -0.8500 1.2500 -0.8150
v -0.8500 0.9300 -0.8150
f 944/12 943/12 942/12 941/12
v 0.8500 0.9300 -0.8450
v -0.8500 0.9300 -0.8450
v -0.8500 0.9300 -0.8150
v 0.8500 0.9300 -0.8150
f 948/12 947/12 946/12 945/12
v 0.8500 1.2500 -0.8150
v -0.8500 1.2500 -0.8150
v -0.8500 1.2500 -0.8450
v 0.8500 1.2500 -0.8450
f 952/12 951/12 950/12 949/12
v 0.8500 1.2500 -0.8450
v -0.8500 1.2500 -0.8450
v -0.8500 0.9300 -0.8450
v 0.8500 0.9300 -0.8450
f 956/12 955/12 954/12 953/12
v 0.8500 0.9300 -0.8150
v -0.8500 0.9300 -0.8150
v -0.8500 1.2500 -0.8150
v 0.8500 1.2500 -0.8150
f 960/12 959/12 958/12 957/12
v 0.8700 0.9126 0.2735
v 0.8700 0.9474 0.2932
v 0.8700 1.2674 -0.2735
v 0.8700 1.2326 -0.2932
f 964/4 963/4 962/4 961/4
v -0.8700 1.2326 -0.2932
v -0.8700 1.2674 -0.2735
v -0.8700 0.9474 0.2932
v -0.8700 0.9126 0.2735
f 968/4 967/4 966/4 965/4
v 0.8700 1.2326 -0.2932
v -0.8700 1.2326 -0.2932
v -0.8700 0.9126 0.2735
v 0.8700 0.9126 0.2735
f 972/4 971/4 970/4 969/4
v 0.8700 0.9474 0.2932
v -0.8700 0.9474 0.2932
v -0.8700 1.2674 -0.2735
v 0.8700 1.2674 -0.2735
f 976/4 975/4 974/4 973/4
v 0.8700 1.2674 -0.2735
v -0.8700 1.2674 -0.2735
v -0.8700 1.2326 -0.2932
v 0.8700 1.2326 -0.2932
f 980/4 979/4 978/4 977/4
v 0.8700 0.9126 0.2735
v -0.8700 0.9126 0.2735
v -0.8700 0.9474 0.2932
v 0.8700 0.9474 0.2932
f 984/4 983/4 982/4 981/4
v 0.8500 0.9300 -0.2483
v 0.8500 1.2500 -0.2483
v 0.8500 1.2500 -0.2783
v 0.8500 0.9300 -0.2783
f 988/12 987/12 986/12 985/12
v -0.8500 0.9300 -0.2783
v -0.8500 1.2500 -0.2783
v -0.8500 1.2500 -0.2483
v -0.8500 0.9300 -0.2483
f 992/12 991/12 990/12 989/12
v 0.8500 0.9300 -0.2783
v -0.8500 0.9300 -0.2783
v -0.8500 0.9300 -0.2483
v 0.8500 0.9300 -0.2483
f 996/12 995/12 994/12 993/12
v 0.8500 1.2500 -0.2483
v -0.8500 1.2500 -0.2483
v -0.8500 1.2500 -0.2783
v 0.8500 1.2500 -0.2783
f 1000/12 999/12 998/12 997/12
v 0.8500 1.2500 -0.2783
v -0.8500 1.2500 -0.2783
v -0.8500 0.9300 -0.2783
v 0.8500 0.9300 -0.2783
f 1004/12 1003/12 1002/12 1001/12
v 0.8500 0.9300 -0.2483
v -0.8500 0.9300 -0.2483
v -0.8500 1.2500 -0.2483
v 0.8500 1.2500 -0.2483
f 1008/12 1007/12 1006/12 1005/12
v 0.8700 0.9126 0.8402
v 0.8700 0.9474 0.8598
v 0.8700 1.2674 0.2932
v 0.8700 1.2326 0.2735
f 1012/4 1011/4 1010/4 1009/4
v -0.8700 1.2326 0.2735
v -0.8700 1.2674 0.2932
v -0.8700 0.9474 0.8598
v -0.8700 0.9126 0.8402
f 1016/4 1015/4 1014/4 1013/4
v 0.8700 1.2326 0.2735
v -0.8700 1.2326 0.2735
v -0.8700 0.9126 0.8402
v 0.8700 0.9126 0.8402
f 1020/4 1019/4 1018/4 1017/4
v 0.8700 0.9474 0.8598
v -0.8700 0.9474 0.8598
v -0.8700 1.2674 0.2932
v 0.8700 1.2674 0.2932
f 1024/4 1023/4 1022/4 1021/4
v 0.8700 1.2674 0.2932
v -0.8700 1.2674 0.2932
v -0.8700 1.2326 0.2735
v 0.8700 1.2326 0.2735
f 1028/4 1027/4 1026/4 1025/4
v 0.8700 0.9126 0.8402
v -0.8700 0.9126 0.8402
v -0.8700 0.9474 0.8598
v 0.8700 0.9474 0.8598
f 1032/4 1031/4 1030/4 1029/4
v 0.8500 0.9300 0.3183
v 0.8500 1.2500 0.3183
v 0.8500 1.2500 0.2883
v 0.8500 0.9300 0.2883
f 1036/12 1035/12 1034/12 1033/12
v -0.8500 0.9300 0.2883
v -0.8500 1.2500 0.2883
v -0.8500 1.2500 0.3183
v -0.8500 0.9300 0.3183
f 1040/12 1039/12 1038/12 1037/12
v 0.8500 0.9300 0.2883
v -0.8500 0.9300 0.2883
v -0.8500 0.9300 0.3183
v 0.8500 0.9300 0.3183
f 1044/12 1043/12 1042/12 1041/12
v 0.8500 1.2500 0.3183
v -0.8500 1.2500 0.3183
v -0.8500 1.2500 0.2883
v 0.8500 1.2500 0.2883
f 1048/12 1047/12 1046/12 1045/12
v 0.8500 1.2500 0.2883
v -0.8500 1.2500 0.2883
v -0.8500 0.9300 0.2883
v 0.8500 0.9300 0.2883
f 1052/12 1051/12 1050/12 1049/12
v 0.8500 0.9300 0.3183
v -0.8500 0.9300 0.3183
v -0.8500 1.2500 0.3183
v 0.8500 1.2500 0.3183
f 1056/12 1055/12 1054/12 1053/12
v 0.8350 1.1300 0.5850
v 0.8350 1.6300 0.5850
v 0.8350 1.6300 0.5150
v 0.8350 1.1300 0.5150
f 1060/6 1059/6 1058/6 1057/6
v 0.7650 1.1300 0.5150
v 0.7650 1.6300 0.5150
v 0.7650 1.6300 0.5850
v 0.7650 1.1300 0.5850
f 1064/6 1063/6 1062/6 1061/6
v 0.8350 1.1300 0.5150
v 0.7650 1.1300 0.5150
v 0.7650 1.1300 0.5850
v 0.8350 1.1300 0.5850
f 1068/6 1067/6 1066/6 1065/6
v 0.8350 1.6300 0.5850
v 0.7650 1.6300 0.5850
v 0.7650 1.6300 0.5150
v 0.8350 1.6300 0.5150
f 1072/6 1071/6 1070/6 1069/6
v 0.8350 1.6300 0.5150
v 0.7650 1.6300 0.5150
v 0.7650 1.1300 0.5150
v 0.8350 1.1300 0.5150
f 1076/6 1075/6 1074/6 1073/6
v 0.8350 1.1300 0.5850
v 0.7650 1.1300 0.5850
v 0.7650 1.6300 0.5850
v 0.8350 1.6300 0.5850
f 1080/6 1079/6 1078/6 1077/6
v -0.7650 1.1300 0.5850
v -0.7650 1.6300 0.5850
v -0.7650 1.6300 0.5150
v -0.7650 1.1300 0.5150
f 1084/6 1083/6 1082/6 1081/6
v -0.8350 1.1300 0.5150
v -0.8350 1.6300 0.5150
v -0.8350 1.6300 0.5850
v -0.8350 1.1300 0.5850
f 1088/6 1087/6 1086/6 1085/6
v -0.7650 1.1300 0.5150
v -0.8350 1.1300 0.5150
v -0.8350 1.1300 0.5850
v -0.7650 1.1300 0.5850
f 1092/6 1091/6 1090/6 1089/6
v -0.7650 1.6300 0.5850
v -0.8350 1.6300 0.5850
v -0.8350 1.6300 0.5150
v -0.7650 1.6300 0.5150
f 1096/6 1095/6 1094/6 1093/6
v -0.7650 1.6300 0.5150
v -0.8350 1.6300 0.5150
v -0.8350 1.1300 0.5150
v -0.7650 1.1300 0.5150
f 1100/6 1099/6 1098/6 1097/6
v -0.7650 1.1300 0.5850
v -0.8350 1.1300 0.5850
v -0.8350 1.6300 0.5850
v -0.7650 1.6300 0.5850
f 1104/6 1103/6 1102/6 1101/6
v 0.8500 1.6100 0.6000
v 0.8500 1.6900 0.6000
v 0.8500 1.6900 0.5000
v 0.8500 1.6100 0.5000
f 1108/8 1107/8 1106/8 1105/8
v -0.8500 1.6100 0.5000
v -0.8500 1.6900 0.5000
v -0.8500 1.6900 0.6000
v -0.8500 1.6100 0.6000
f 1112/8 1111/8 1110/8 1109/8
v 0.8500 1.6100 0.5000
v -0.8500 1.6100 0.5000
v -0.8500 1.6100 0.6000
v 0.8500 1.6100 0.6000
f 1116/8 1115/8 1114/8 1113/8
v 0.8500 1.6900 0.6000
v -0.8500 1.6900 0.6000
v -0.8500 1.6900 0.5000
v 0.8500 1.6900 0.5000
f 1120/8 1119/8 1118/8 1117/8
v 0.8500 1.6900 0.5000
v -0.8500 1.6900 0.5000
v -0.8500 1.6100 0.5000
v 0.8500 1.6100 0.5000
f 1124/8 1123/8 1122/8 1121/8
v 0.8500 1.6100 0.6000
v -0.8500 1.6100 0.6000
v -0.8500 1.6900 0.6000
v 0.8500 1.6900 0.6000
f 1128/8 1127/8 1126/8 1125/8
v -0.5700 0.9800 0.7300
v -0.5700 1.0400 0.7300
v -0.5700 1.0400 0.6700
v -0.5700 0.9800 0.6700
f 1132/16 1131/16 1130/16 1129/16
v -0.6300 0.9800 0.6700
v -0.6300 1.0400 0.6700
v -0.6300 1.0400 0.7300
v -0.6300 0.9800 0.7300
f 1136/16 1135/16 1134/16 1133/16
v -0.5700 0.9800 0.6700
v -0.6300 0.9800 0.6700
v -0.6300 0.9800 0.7300
v -0.5700 0.9800 0.7300
f 1140/16 1139/16 1138/16 1137/16
v -0.5700 1.0400 0.7300
v -0.6300 1.0400 0.7300
v -0.6300 1.0400 0.6700
v -0.5700 1.0400 0.6700
f 1144/16 1143/16 1142/16 1141/16
v -0.5700 1.0400 0.6700
v -0.6300 1.0400 0.6700
v -0.6300 0.9800 0.6700
v -0.5700 0.9800 0.6700
f 1148/16 1147/16 1146/16 1145/16
v -0.5700 0.9800 0.7300
v -0.6300 0.9800 0.7300
v -0.6300 1.0400 0.7300
v -0.5700 1.0400 0.7300
f 1152/16 1151/16 1150/16 1149/16
v 0.6300 0.9800 0.7300
v 0.6300 1.0400 0.7300
v 0.6300 1.0400 0.6700
v 0.6300 0.9800 0.6700
f 1156/16 1155/16 1154/16 1153/16
v 0.5700 0.9800 0.6700
v 0.5700 1.0400 0.6700
v 0.5700 1.0400 0.7300
v 0.5700 0.9800 0.7300
f 1160/16 1159/16 1158/16 1157/16
v 0.6300 0.9800 0.6700
v 0.5700 0.9800 0.6700
v 0.5700 0.9800 0.7300
v 0.6300 0.9800 0.7300
f 1164/16 1163/16 1162/16 1161/16
v 0.6300 1.0400 0.7300
v 0.5700 1.0400 0.7300
v 0.5700 1.0400 0.6700
v 0.6300 1.0400 0.6700
f 1168/16 1167/16 1166/16 1165/16
v 0.6300 1.0400 0.6700
v 0.5700 1.0400 0.6700
v 0.5700 0.9800 0.6700
v 0.6300 0.9800 0.6700
f 1172/16 1171/16 1170/16 1169/16
v 0.6300 0.9800 0.7300
v 0.5700 0.9800 0.7300
v 0.5700 1.0400 0.7300
v 0.6300 1.0400 0.7300
f 1176/16 1175/16 1174/16 1173/16
