# Walk of Industry low-poly (generated, wi_lib.py)
mtllib wi.mtl
vt 0 0
vt 0.03125 0.03125
vt 0.09375 0.03125
vt 0.15625 0.03125
vt 0.21875 0.03125
vt 0.28125 0.03125
vt 0.34375 0.03125
vt 0.40625 0.03125
vt 0.46875 0.03125
vt 0.53125 0.03125
vt 0.59375 0.03125
vt 0.65625 0.03125
vt 0.71875 0.03125
vt 0.78125 0.03125
vt 0.84375 0.03125
vt 0.90625 0.03125
vt 0.96875 0.03125
vt 0.03125 0.09375
vt 0.09375 0.09375
vt 0.15625 0.09375
vt 0.21875 0.09375
vt 0.28125 0.09375
vt 0.34375 0.09375
vt 0.40625 0.09375
vt 0.46875 0.09375
vt 0.53125 0.09375
vt 0.59375 0.09375
vt 0.65625 0.09375
vt 0.71875 0.09375
vt 0.78125 0.09375
vt 0.84375 0.09375
vt 0.90625 0.09375
vt 0.96875 0.09375
o Body
usemtl wi_palette
v 0.3100 0.2400 0.4100
v 0.3100 0.4800 0.4100
v 0.3100 0.4800 -0.4100
v 0.3100 0.2400 -0.4100
f 4/2 3/2 2/2 1/2
v -0.3100 0.2400 -0.4100
v -0.3100 0.4800 -0.4100
v -0.3100 0.4800 0.4100
v -0.3100 0.2400 0.4100
f 8/2 7/2 6/2 5/2
v 0.3100 0.2400 -0.4100
v -0.3100 0.2400 -0.4100
v -0.3100 0.2400 0.4100
v 0.3100 0.2400 0.4100
f 12/2 11/2 10/2 9/2
v 0.3100 0.4800 0.4100
v -0.3100 0.4800 0.4100
v -0.3100 0.4800 -0.4100
v 0.3100 0.4800 -0.4100
f 16/2 15/2 14/2 13/2
v 0.3100 0.4800 -0.4100
v -0.3100 0.4800 -0.4100
v -0.3100 0.2400 -0.4100
v 0.3100 0.2400 -0.4100
f 20/2 19/2 18/2 17/2
v 0.3100 0.2400 0.4100
v -0.3100 0.2400 0.4100
v -0.3100 0.4800 0.4100
v 0.3100 0.4800 0.4100
f 24/2 23/2 22/2 21/2
v 0.2200 0.4800 0.2600
v 0.2200 0.5600 0.2600
v 0.2200 0.5600 -0.3000
v 0.2200 0.4800 -0.3000
f 28/4 27/4 26/4 25/4
v -0.2200 0.4800 -0.3000
v -0.2200 0.5600 -0.3000
v -0.2200 0.5600 0.2600
v -0.2200 0.4800 0.2600
f 32/4 31/4 30/4 29/4
v 0.2200 0.4800 -0.3000
v -0.2200 0.4800 -0.3000
v -0.2200 0.4800 0.2600
v 0.2200 0.4800 0.2600
f 36/4 35/4 34/4 33/4
v 0.2200 0.5600 0.2600
v -0.2200 0.5600 0.2600
v -0.2200 0.5600 -0.3000
v 0.2200 0.5600 -0.3000
f 40/4 39/4 38/4 37/4
v 0.2200 0.5600 -0.3000
v -0.2200 0.5600 -0.3000
v -0.2200 0.4800 -0.3000
v 0.2200 0.4800 -0.3000
f 44/4 43/4 42/4 41/4
v 0.2200 0.4800 0.2600
v -0.2200 0.4800 0.2600
v -0.2200 0.5600 0.2600
v 0.2200 0.5600 0.2600
f 48/4 47/4 46/4 45/4
v 0.1700 0.3500 0.4500
v 0.1700 0.4500 0.4500
v 0.1700 0.4500 0.3900
v 0.1700 0.3500 0.3900
f 52/12 51/12 50/12 49/12
v -0.1700 0.3500 0.3900
v -0.1700 0.4500 0.3900
v -0.1700 0.4500 0.4500
v -0.1700 0.3500 0.4500
f 56/12 55/12 54/12 53/12
v 0.1700 0.3500 0.3900
v -0.1700 0.3500 0.3900
v -0.1700 0.3500 0.4500
v 0.1700 0.3500 0.4500
f 60/12 59/12 58/12 57/12
v 0.1700 0.4500 0.4500
v -0.1700 0.4500 0.4500
v -0.1700 0.4500 0.3900
v 0.1700 0.4500 0.3900
f 64/12 63/12 62/12 61/12
v 0.1700 0.4500 0.3900
v -0.1700 0.4500 0.3900
v -0.1700 0.3500 0.3900
v 0.1700 0.3500 0.3900
f 68/12 67/12 66/12 65/12
v 0.1700 0.3500 0.4500
v -0.1700 0.3500 0.4500
v -0.1700 0.4500 0.4500
v 0.1700 0.4500 0.4500
f 72/12 71/12 70/12 69/12
v 0.1008 0.3650 -0.0301
v 0.1008 0.4350 -0.0301
v 0.6099 0.4350 -0.5392
v 0.6099 0.3650 -0.5392
f 76/6 75/6 74/6 73/6
v 0.5392 0.3650 -0.6099
v 0.5392 0.4350 -0.6099
v 0.0301 0.4350 -0.1008
v 0.0301 0.3650 -0.1008
f 80/6 79/6 78/6 77/6
v 0.6099 0.3650 -0.5392
v 0.5392 0.3650 -0.6099
v 0.0301 0.3650 -0.1008
v 0.1008 0.3650 -0.0301
f 84/6 83/6 82/6 81/6
v 0.1008 0.4350 -0.0301
v 0.0301 0.4350 -0.1008
v 0.5392 0.4350 -0.6099
v 0.6099 0.4350 -0.5392
f 88/6 87/6 86/6 85/6
v 0.6099 0.4350 -0.5392
v 0.5392 0.4350 -0.6099
v 0.5392 0.3650 -0.6099
v 0.6099 0.3650 -0.5392
f 92/6 91/6 90/6 89/6
v 0.1008 0.3650 -0.0301
v 0.0301 0.3650 -0.1008
v 0.0301 0.4350 -0.1008
v 0.1008 0.4350 -0.0301
f 96/6 95/6 94/6 93/6
v 0.5256 0.3600 -0.4769
v 0.4769 0.3600 -0.5256
v 0.4769 0.5000 -0.5256
v 0.5256 0.5000 -0.4769
f 100/7 99/7 98/7 97/7
v 0.4769 0.3600 -0.5256
v 0.4769 0.3600 -0.5944
v 0.4769 0.5000 -0.5944
v 0.4769 0.5000 -0.5256
f 104/7 103/7 102/7 101/7
v 0.4769 0.3600 -0.5944
v 0.5256 0.3600 -0.6431
v 0.5256 0.5000 -0.6431
v 0.4769 0.5000 -0.5944
f 108/7 107/7 106/7 105/7
v 0.5256 0.3600 -0.6431
v 0.5944 0.3600 -0.6431
v 0.5944 0.5000 -0.6431
v 0.5256 0.5000 -0.6431
f 112/7 111/7 110/7 109/7
v 0.5944 0.3600 -0.6431
v 0.6431 0.3600 -0.5944
v 0.6431 0.5000 -0.5944
v 0.5944 0.5000 -0.6431
f 116/7 115/7 114/7 113/7
v 0.6431 0.3600 -0.5944
v 0.6431 0.3600 -0.5256
v 0.6431 0.5000 -0.5256
v 0.6431 0.5000 -0.5944
f 120/7 119/7 118/7 117/7
v 0.6431 0.3600 -0.5256
v 0.5944 0.3600 -0.4769
v 0.5944 0.5000 -0.4769
v 0.6431 0.5000 -0.5256
f 124/7 123/7 122/7 121/7
v 0.5944 0.3600 -0.4769
v 0.5256 0.3600 -0.4769
v 0.5256 0.5000 -0.4769
v 0.5944 0.5000 -0.4769
f 128/7 127/7 126/7 125/7
v 0.5944 0.3600 -0.4769
v 0.6431 0.3600 -0.5256
v 0.6431 0.3600 -0.5944
v 0.5944 0.3600 -0.6431
v 0.5256 0.3600 -0.6431
v 0.4769 0.3600 -0.5944
v 0.4769 0.3600 -0.5256
v 0.5256 0.3600 -0.4769
f 136/7 135/7 134/7 133/7 132/7 131/7 130/7 129/7
v 0.5256 0.5000 -0.4769
v 0.4769 0.5000 -0.5256
v 0.4769 0.5000 -0.5944
v 0.5256 0.5000 -0.6431
v 0.5944 0.5000 -0.6431
v 0.6431 0.5000 -0.5944
v 0.6431 0.5000 -0.5256
v 0.5944 0.5000 -0.4769
f 144/7 143/7 142/7 141/7 140/7 139/7 138/7 137/7
v 0.5425 0.5000 -0.5297
v 0.5250 0.5000 -0.5600
v 0.5250 0.5500 -0.5600
v 0.5425 0.5500 -0.5297
f 148/6 147/6 146/6 145/6
v 0.5250 0.5000 -0.5600
v 0.5425 0.5000 -0.5903
v 0.5425 0.5500 -0.5903
v 0.5250 0.5500 -0.5600
f 152/6 151/6 150/6 149/6
v 0.5425 0.5000 -0.5903
v 0.5775 0.5000 -0.5903
v 0.5775 0.5500 -0.5903
v 0.5425 0.5500 -0.5903
f 156/6 155/6 154/6 153/6
v 0.5775 0.5000 -0.5903
v 0.5950 0.5000 -0.5600
v 0.5950 0.5500 -0.5600
v 0.5775 0.5500 -0.5903
f 160/6 159/6 158/6 157/6
v 0.5950 0.5000 -0.5600
v 0.5775 0.5000 -0.5297
v 0.5775 0.5500 -0.5297
v 0.5950 0.5500 -0.5600
f 164/6 163/6 162/6 161/6
v 0.5775 0.5000 -0.5297
v 0.5425 0.5000 -0.5297
v 0.5425 0.5500 -0.5297
v 0.5775 0.5500 -0.5297
f 168/6 167/6 166/6 165/6
v 0.5775 0.5000 -0.5297
v 0.5950 0.5000 -0.5600
v 0.5775 0.5000 -0.5903
v 0.5425 0.5000 -0.5903
v 0.5250 0.5000 -0.5600
v 0.5425 0.5000 -0.5297
f 174/6 173/6 172/6 171/6 170/6 169/6
v 0.5425 0.5500 -0.5297
v 0.5250 0.5500 -0.5600
v 0.5425 0.5500 -0.5903
v 0.5775 0.5500 -0.5903
v 0.5950 0.5500 -0.5600
v 0.5775 0.5500 -0.5297
f 180/6 179/6 178/6 177/6 176/6 175/6
v 0.6099 0.3650 0.5392
v 0.6099 0.4350 0.5392
v 0.1008 0.4350 0.0301
v 0.1008 0.3650 0.0301
f 184/6 183/6 182/6 181/6
v 0.0301 0.3650 0.1008
v 0.0301 0.4350 0.1008
v 0.5392 0.4350 0.6099
v 0.5392 0.3650 0.6099
f 188/6 187/6 186/6 185/6
v 0.1008 0.3650 0.0301
v 0.0301 0.3650 0.1008
v 0.5392 0.3650 0.6099
v 0.6099 0.3650 0.5392
f 192/6 191/6 190/6 189/6
v 0.6099 0.4350 0.5392
v 0.5392 0.4350 0.6099
v 0.0301 0.4350 0.1008
v 0.1008 0.4350 0.0301
f 196/6 195/6 194/6 193/6
v 0.1008 0.4350 0.0301
v 0.0301 0.4350 0.1008
v 0.0301 0.3650 0.1008
v 0.1008 0.3650 0.0301
f 200/6 199/6 198/6 197/6
v 0.6099 0.3650 0.5392
v 0.5392 0.3650 0.6099
v 0.5392 0.4350 0.6099
v 0.6099 0.4350 0.5392
f 204/6 203/6 202/6 201/6
v 0.5256 0.3600 0.6431
v 0.4769 0.3600 0.5944
v 0.4769 0.5000 0.5944
v 0.5256 0.5000 0.6431
f 208/7 207/7 206/7 205/7
v 0.4769 0.3600 0.5944
v 0.4769 0.3600 0.5256
v 0.4769 0.5000 0.5256
v 0.4769 0.5000 0.5944
f 212/7 211/7 210/7 209/7
v 0.4769 0.3600 0.5256
v 0.5256 0.3600 0.4769
v 0.5256 0.5000 0.4769
v 0.4769 0.5000 0.5256
f 216/7 215/7 214/7 213/7
v 0.5256 0.3600 0.4769
v 0.5944 0.3600 0.4769
v 0.5944 0.5000 0.4769
v 0.5256 0.5000 0.4769
f 220/7 219/7 218/7 217/7
v 0.5944 0.3600 0.4769
v 0.6431 0.3600 0.5256
v 0.6431 0.5000 0.5256
v 0.5944 0.5000 0.4769
f 224/7 223/7 222/7 221/7
v 0.6431 0.3600 0.5256
v 0.6431 0.3600 0.5944
v 0.6431 0.5000 0.5944
v 0.6431 0.5000 0.5256
f 228/7 227/7 226/7 225/7
v 0.6431 0.3600 0.5944
v 0.5944 0.3600 0.6431
v 0.5944 0.5000 0.6431
v 0.6431 0.5000 0.5944
f 232/7 231/7 230/7 229/7
v 0.5944 0.3600 0.6431
v 0.5256 0.3600 0.6431
v 0.5256 0.5000 0.6431
v 0.5944 0.5000 0.6431
f 236/7 235/7 234/7 233/7
v 0.5944 0.3600 0.6431
v 0.6431 0.3600 0.5944
v 0.6431 0.3600 0.5256
v 0.5944 0.3600 0.4769
v 0.5256 0.3600 0.4769
v 0.4769 0.3600 0.5256
v 0.4769 0.3600 0.5944
v 0.5256 0.3600 0.6431
f 244/7 243/7 242/7 241/7 240/7 239/7 238/7 237/7
v 0.5256 0.5000 0.6431
v 0.4769 0.5000 0.5944
v 0.4769 0.5000 0.5256
v 0.5256 0.5000 0.4769
v 0.5944 0.5000 0.4769
v 0.6431 0.5000 0.5256
v 0.6431 0.5000 0.5944
v 0.5944 0.5000 0.6431
f 252/7 251/7 250/7 249/7 248/7 247/7 246/7 245/7
v 0.5425 0.5000 0.5903
v 0.5250 0.5000 0.5600
v 0.5250 0.5500 0.5600
v 0.5425 0.5500 0.5903
f 256/6 255/6 254/6 253/6
v 0.5250 0.5000 0.5600
v 0.5425 0.5000 0.5297
v 0.5425 0.5500 0.5297
v 0.5250 0.5500 0.5600
f 260/6 259/6 258/6 257/6
v 0.5425 0.5000 0.5297
v 0.5775 0.5000 0.5297
v 0.5775 0.5500 0.5297
v 0.5425 0.5500 0.5297
f 264/6 263/6 262/6 261/6
v 0.5775 0.5000 0.5297
v 0.5950 0.5000 0.5600
v 0.5950 0.5500 0.5600
v 0.5775 0.5500 0.5297
f 268/6 267/6 266/6 265/6
v 0.5950 0.5000 0.5600
v 0.5775 0.5000 0.5903
v 0.5775 0.5500 0.5903
v 0.5950 0.5500 0.5600
f 272/6 271/6 270/6 269/6
v 0.5775 0.5000 0.5903
v 0.5425 0.5000 0.5903
v 0.5425 0.5500 0.5903
v 0.5775 0.5500 0.5903
f 276/6 275/6 274/6 273/6
v 0.5775 0.5000 0.5903
v 0.5950 0.5000 0.5600
v 0.5775 0.5000 0.5297
v 0.5425 0.5000 0.5297
v 0.5250 0.5000 0.5600
v 0.5425 0.5000 0.5903
f 282/6 281/6 280/6 279/6 278/6 277/6
v 0.5425 0.5500 0.5903
v 0.5250 0.5500 0.5600
v 0.5425 0.5500 0.5297
v 0.5775 0.5500 0.5297
v 0.5950 0.5500 0.5600
v 0.5775 0.5500 0.5903
f 288/6 287/6 286/6 285/6 284/6 283/6
v -0.0301 0.3650 -0.1008
v -0.0301 0.4350 -0.1008
v -0.5392 0.4350 -0.6099
v -0.5392 0.3650 -0.6099
f 292/6 291/6 290/6 289/6
v -0.6099 0.3650 -0.5392
v -0.6099 0.4350 -0.5392
v -0.1008 0.4350 -0.0301
v -0.1008 0.3650 -0.0301
f 296/6 295/6 294/6 293/6
v -0.5392 0.3650 -0.6099
v -0.6099 0.3650 -0.5392
v -0.1008 0.3650 -0.0301
v -0.0301 0.3650 -0.1008
f 300/6 299/6 298/6 297/6
v -0.0301 0.4350 -0.1008
v -0.1008 0.4350 -0.0301
v -0.6099 0.4350 -0.5392
v -0.5392 0.4350 -0.6099
f 304/6 303/6 302/6 301/6
v -0.5392 0.4350 -0.6099
v -0.6099 0.4350 -0.5392
v -0.6099 0.3650 -0.5392
v -0.5392 0.3650 -0.6099
f 308/6 307/6 306/6 305/6
v -0.0301 0.3650 -0.1008
v -0.1008 0.3650 -0.0301
v -0.1008 0.4350 -0.0301
v -0.0301 0.4350 -0.1008
f 312/6 311/6 310/6 309/6
v -0.5944 0.3600 -0.4769
v -0.6431 0.3600 -0.5256
v -0.6431 0.5000 -0.5256
v -0.5944 0.5000 -0.4769
f 316/7 315/7 314/7 313/7
v -0.6431 0.3600 -0.5256
v -0.6431 0.3600 -0.5944
v -0.6431 0.5000 -0.5944
v -0.6431 0.5000 -0.5256
f 320/7 319/7 318/7 317/7
v -0.6431 0.3600 -0.5944
v -0.5944 0.3600 -0.6431
v -0.5944 0.5000 -0.6431
v -0.6431 0.5000 -0.5944
f 324/7 323/7 322/7 321/7
v -0.5944 0.3600 -0.6431
v -0.5256 0.3600 -0.6431
v -0.5256 0.5000 -0.6431
v -0.5944 0.5000 -0.6431
f 328/7 327/7 326/7 325/7
v -0.5256 0.3600 -0.6431
v -0.4769 0.3600 -0.5944
v -0.4769 0.5000 -0.5944
v -0.5256 0.5000 -0.6431
f 332/7 331/7 330/7 329/7
v -0.4769 0.3600 -0.5944
v -0.4769 0.3600 -0.5256
v -0.4769 0.5000 -0.5256
v -0.4769 0.5000 -0.5944
f 336/7 335/7 334/7 333/7
v -0.4769 0.3600 -0.5256
v -0.5256 0.3600 -0.4769
v -0.5256 0.5000 -0.4769
v -0.4769 0.5000 -0.5256
f 340/7 339/7 338/7 337/7
v -0.5256 0.3600 -0.4769
v -0.5944 0.3600 -0.4769
v -0.5944 0.5000 -0.4769
v -0.5256 0.5000 -0.4769
f 344/7 343/7 342/7 341/7
v -0.5256 0.3600 -0.4769
v -0.4769 0.3600 -0.5256
v -0.4769 0.3600 -0.5944
v -0.5256 0.3600 -0.6431
v -0.5944 0.3600 -0.6431
v -0.6431 0.3600 -0.5944
v -0.6431 0.3600 -0.5256
v -0.5944 0.3600 -0.4769
f 352/7 351/7 350/7 349/7 348/7 347/7 346/7 345/7
v -0.5944 0.5000 -0.4769
v -0.6431 0.5000 -0.5256
v -0.6431 0.5000 -0.5944
v -0.5944 0.5000 -0.6431
v -0.5256 0.5000 -0.6431
v -0.4769 0.5000 -0.5944
v -0.4769 0.5000 -0.5256
v -0.5256 0.5000 -0.4769
f 360/7 359/7 358/7 357/7 356/7 355/7 354/7 353/7
v -0.5775 0.5000 -0.5297
v -0.5950 0.5000 -0.5600
v -0.5950 0.5500 -0.5600
v -0.5775 0.5500 -0.5297
f 364/6 363/6 362/6 361/6
v -0.5950 0.5000 -0.5600
v -0.5775 0.5000 -0.5903
v -0.5775 0.5500 -0.5903
v -0.5950 0.5500 -0.5600
f 368/6 367/6 366/6 365/6
v -0.5775 0.5000 -0.5903
v -0.5425 0.5000 -0.5903
v -0.5425 0.5500 -0.5903
v -0.5775 0.5500 -0.5903
f 372/6 371/6 370/6 369/6
v -0.5425 0.5000 -0.5903
v -0.5250 0.5000 -0.5600
v -0.5250 0.5500 -0.5600
v -0.5425 0.5500 -0.5903
f 376/6 375/6 374/6 373/6
v -0.5250 0.5000 -0.5600
v -0.5425 0.5000 -0.5297
v -0.5425 0.5500 -0.5297
v -0.5250 0.5500 -0.5600
f 380/6 379/6 378/6 377/6
v -0.5425 0.5000 -0.5297
v -0.5775 0.5000 -0.5297
v -0.5775 0.5500 -0.5297
v -0.5425 0.5500 -0.5297
f 384/6 383/6 382/6 381/6
v -0.5425 0.5000 -0.5297
v -0.5250 0.5000 -0.5600
v -0.5425 0.5000 -0.5903
v -0.5775 0.5000 -0.5903
v -0.5950 0.5000 -0.5600
v -0.5775 0.5000 -0.5297
f 390/6 389/6 388/6 387/6 386/6 385/6
v -0.5775 0.5500 -0.5297
v -0.5950 0.5500 -0.5600
v -0.5775 0.5500 -0.5903
v -0.5425 0.5500 -0.5903
v -0.5250 0.5500 -0.5600
v -0.5425 0.5500 -0.5297
f 396/6 395/6 394/6 393/6 392/6 391/6
v -0.5392 0.3650 0.6099
v -0.5392 0.4350 0.6099
v -0.0301 0.4350 0.1008
v -0.0301 0.3650 0.1008
f 400/6 399/6 398/6 397/6
v -0.1008 0.3650 0.0301
v -0.1008 0.4350 0.0301
v -0.6099 0.4350 0.5392
v -0.6099 0.3650 0.5392
f 404/6 403/6 402/6 401/6
v -0.0301 0.3650 0.1008
v -0.1008 0.3650 0.0301
v -0.6099 0.3650 0.5392
v -0.5392 0.3650 0.6099
f 408/6 407/6 406/6 405/6
v -0.5392 0.4350 0.6099
v -0.6099 0.4350 0.5392
v -0.1008 0.4350 0.0301
v -0.0301 0.4350 0.1008
f 412/6 411/6 410/6 409/6
v -0.0301 0.4350 0.1008
v -0.1008 0.4350 0.0301
v -0.1008 0.3650 0.0301
v -0.0301 0.3650 0.1008
f 416/6 415/6 414/6 413/6
v -0.5392 0.3650 0.6099
v -0.6099 0.3650 0.5392
v -0.6099 0.4350 0.5392
v -0.5392 0.4350 0.6099
f 420/6 419/6 418/6 417/6
v -0.5944 0.3600 0.6431
v -0.6431 0.3600 0.5944
v -0.6431 0.5000 0.5944
v -0.5944 0.5000 0.6431
f 424/7 423/7 422/7 421/7
v -0.6431 0.3600 0.5944
v -0.6431 0.3600 0.5256
v -0.6431 0.5000 0.5256
v -0.6431 0.5000 0.5944
f 428/7 427/7 426/7 425/7
v -0.6431 0.3600 0.5256
v -0.5944 0.3600 0.4769
v -0.5944 0.5000 0.4769
v -0.6431 0.5000 0.5256
f 432/7 431/7 430/7 429/7
v -0.5944 0.3600 0.4769
v -0.5256 0.3600 0.4769
v -0.5256 0.5000 0.4769
v -0.5944 0.5000 0.4769
f 436/7 435/7 434/7 433/7
v -0.5256 0.3600 0.4769
v -0.4769 0.3600 0.5256
v -0.4769 0.5000 0.5256
v -0.5256 0.5000 0.4769
f 440/7 439/7 438/7 437/7
v -0.4769 0.3600 0.5256
v -0.4769 0.3600 0.5944
v -0.4769 0.5000 0.5944
v -0.4769 0.5000 0.5256
f 444/7 443/7 442/7 441/7
v -0.4769 0.3600 0.5944
v -0.5256 0.3600 0.6431
v -0.5256 0.5000 0.6431
v -0.4769 0.5000 0.5944
f 448/7 447/7 446/7 445/7
v -0.5256 0.3600 0.6431
v -0.5944 0.3600 0.6431
v -0.5944 0.5000 0.6431
v -0.5256 0.5000 0.6431
f 452/7 451/7 450/7 449/7
v -0.5256 0.3600 0.6431
v -0.4769 0.3600 0.5944
v -0.4769 0.3600 0.5256
v -0.5256 0.3600 0.4769
v -0.5944 0.3600 0.4769
v -0.6431 0.3600 0.5256
v -0.6431 0.3600 0.5944
v -0.5944 0.3600 0.6431
f 460/7 459/7 458/7 457/7 456/7 455/7 454/7 453/7
v -0.5944 0.5000 0.6431
v -0.6431 0.5000 0.5944
v -0.6431 0.5000 0.5256
v -0.5944 0.5000 0.4769
v -0.5256 0.5000 0.4769
v -0.4769 0.5000 0.5256
v -0.4769 0.5000 0.5944
v -0.5256 0.5000 0.6431
f 468/7 467/7 466/7 465/7 464/7 463/7 462/7 461/7
v -0.5775 0.5000 0.5903
v -0.5950 0.5000 0.5600
v -0.5950 0.5500 0.5600
v -0.5775 0.5500 0.5903
f 472/6 471/6 470/6 469/6
v -0.5950 0.5000 0.5600
v -0.5775 0.5000 0.5297
v -0.5775 0.5500 0.5297
v -0.5950 0.5500 0.5600
f 476/6 475/6 474/6 473/6
v -0.5775 0.5000 0.5297
v -0.5425 0.5000 0.5297
v -0.5425 0.5500 0.5297
v -0.5775 0.5500 0.5297
f 480/6 479/6 478/6 477/6
v -0.5425 0.5000 0.5297
v -0.5250 0.5000 0.5600
v -0.5250 0.5500 0.5600
v -0.5425 0.5500 0.5297
f 484/6 483/6 482/6 481/6
v -0.5250 0.5000 0.5600
v -0.5425 0.5000 0.5903
v -0.5425 0.5500 0.5903
v -0.5250 0.5500 0.5600
f 488/6 487/6 486/6 485/6
v -0.5425 0.5000 0.5903
v -0.5775 0.5000 0.5903
v -0.5775 0.5500 0.5903
v -0.5425 0.5500 0.5903
f 492/6 491/6 490/6 489/6
v -0.5425 0.5000 0.5903
v -0.5250 0.5000 0.5600
v -0.5425 0.5000 0.5297
v -0.5775 0.5000 0.5297
v -0.5950 0.5000 0.5600
v -0.5775 0.5000 0.5903
f 498/6 497/6 496/6 495/6 494/6 493/6
v -0.5775 0.5500 0.5903
v -0.5950 0.5500 0.5600
v -0.5775 0.5500 0.5297
v -0.5425 0.5500 0.5297
v -0.5250 0.5500 0.5600
v -0.5425 0.5500 0.5903
f 504/6 503/6 502/6 501/6 500/6 499/6
v 0.2450 0.0200 0.2050
v 0.2450 0.2400 0.2050
v 0.2450 0.2400 0.1550
v 0.2450 0.0200 0.1550
f 508/6 507/6 506/6 505/6
v 0.1950 0.0200 0.1550
v 0.1950 0.2400 0.1550
v 0.1950 0.2400 0.2050
v 0.1950 0.0200 0.2050
f 512/6 511/6 510/6 509/6
v 0.2450 0.0200 0.1550
v 0.1950 0.0200 0.1550
v 0.1950 0.0200 0.2050
v 0.2450 0.0200 0.2050
f 516/6 515/6 514/6 513/6
v 0.2450 0.2400 0.2050
v 0.1950 0.2400 0.2050
v 0.1950 0.2400 0.1550
v 0.2450 0.2400 0.1550
f 520/6 519/6 518/6 517/6
v 0.2450 0.2400 0.1550
v 0.1950 0.2400 0.1550
v 0.1950 0.0200 0.1550
v 0.2450 0.0200 0.1550
f 524/6 523/6 522/6 521/6
v 0.2450 0.0200 0.2050
v 0.1950 0.0200 0.2050
v 0.1950 0.2400 0.2050
v 0.2450 0.2400 0.2050
f 528/6 527/6 526/6 525/6
v 0.2450 0.0200 -0.1550
v 0.2450 0.2400 -0.1550
v 0.2450 0.2400 -0.2050
v 0.2450 0.0200 -0.2050
f 532/6 531/6 530/6 529/6
v 0.1950 0.0200 -0.2050
v 0.1950 0.2400 -0.2050
v 0.1950 0.2400 -0.1550
v 0.1950 0.0200 -0.1550
f 536/6 535/6 534/6 533/6
v 0.2450 0.0200 -0.2050
v 0.1950 0.0200 -0.2050
v 0.1950 0.0200 -0.1550
v 0.2450 0.0200 -0.1550
f 540/6 539/6 538/6 537/6
v 0.2450 0.2400 -0.1550
v 0.1950 0.2400 -0.1550
v 0.1950 0.2400 -0.2050
v 0.2450 0.2400 -0.2050
f 544/6 543/6 542/6 541/6
v 0.2450 0.2400 -0.2050
v 0.1950 0.2400 -0.2050
v 0.1950 0.0200 -0.2050
v 0.2450 0.0200 -0.2050
f 548/6 547/6 546/6 545/6
v 0.2450 0.0200 -0.1550
v 0.1950 0.0200 -0.1550
v 0.1950 0.2400 -0.1550
v 0.2450 0.2400 -0.1550
f 552/6 551/6 550/6 549/6
v 0.2500 0.0050 0.3600
v 0.2500 0.0550 0.3600
v 0.2500 0.0550 -0.3600
v 0.2500 0.0050 -0.3600
f 556/6 555/6 554/6 553/6
v 0.1900 0.0050 -0.3600
v 0.1900 0.0550 -0.3600
v 0.1900 0.0550 0.3600
v 0.1900 0.0050 0.3600
f 560/6 559/6 558/6 557/6
v 0.2500 0.0050 -0.3600
v 0.1900 0.0050 -0.3600
v 0.1900 0.0050 0.3600
v 0.2500 0.0050 0.3600
f 564/6 563/6 562/6 561/6
v 0.2500 0.0550 0.3600
v 0.1900 0.0550 0.3600
v 0.1900 0.0550 -0.3600
v 0.2500 0.0550 -0.3600
f 568/6 567/6 566/6 565/6
v 0.2500 0.0550 -0.3600
v 0.1900 0.0550 -0.3600
v 0.1900 0.0050 -0.3600
v 0.2500 0.0050 -0.3600
f 572/6 571/6 570/6 569/6
v 0.2500 0.0050 0.3600
v 0.1900 0.0050 0.3600
v 0.1900 0.0550 0.3600
v 0.2500 0.0550 0.3600
f 576/6 575/6 574/6 573/6
v -0.1950 0.0200 0.2050
v -0.1950 0.2400 0.2050
v -0.1950 0.2400 0.1550
v -0.1950 0.0200 0.1550
f 580/6 579/6 578/6 577/6
v -0.2450 0.0200 0.1550
v -0.2450 0.2400 0.1550
v -0.2450 0.2400 0.2050
v -0.2450 0.0200 0.2050
f 584/6 583/6 582/6 581/6
v -0.1950 0.0200 0.1550
v -0.2450 0.0200 0.1550
v -0.2450 0.0200 0.2050
v -0.1950 0.0200 0.2050
f 588/6 587/6 586/6 585/6
v -0.1950 0.2400 0.2050
v -0.2450 0.2400 0.2050
v -0.2450 0.2400 0.1550
v -0.1950 0.2400 0.1550
f 592/6 591/6 590/6 589/6
v -0.1950 0.2400 0.1550
v -0.2450 0.2400 0.1550
v -0.2450 0.0200 0.1550
v -0.1950 0.0200 0.1550
f 596/6 595/6 594/6 593/6
v -0.1950 0.0200 0.2050
v -0.2450 0.0200 0.2050
v -0.2450 0.2400 0.2050
v -0.1950 0.2400 0.2050
f 600/6 599/6 598/6 597/6
v -0.1950 0.0200 -0.1550
v -0.1950 0.2400 -0.1550
v -0.1950 0.2400 -0.2050
v -0.1950 0.0200 -0.2050
f 604/6 603/6 602/6 601/6
v -0.2450 0.0200 -0.2050
v -0.2450 0.2400 -0.2050
v -0.2450 0.2400 -0.1550
v -0.2450 0.0200 -0.1550
f 608/6 607/6 606/6 605/6
v -0.1950 0.0200 -0.2050
v -0.2450 0.0200 -0.2050
v -0.2450 0.0200 -0.1550
v -0.1950 0.0200 -0.1550
f 612/6 611/6 610/6 609/6
v -0.1950 0.2400 -0.1550
v -0.2450 0.2400 -0.1550
v -0.2450 0.2400 -0.2050
v -0.1950 0.2400 -0.2050
f 616/6 615/6 614/6 613/6
v -0.1950 0.2400 -0.2050
v -0.2450 0.2400 -0.2050
v -0.2450 0.0200 -0.2050
v -0.1950 0.0200 -0.2050
f 620/6 619/6 618/6 617/6
v -0.1950 0.0200 -0.1550
v -0.2450 0.0200 -0.1550
v -0.2450 0.2400 -0.1550
v -0.1950 0.2400 -0.1550
f 624/6 623/6 622/6 621/6
v -0.1900 0.0050 0.3600
v -0.1900 0.0550 0.3600
v -0.1900 0.0550 -0.3600
v -0.1900 0.0050 -0.3600
f 628/6 627/6 626/6 625/6
v -0.2500 0.0050 -0.3600
v -0.2500 0.0550 -0.3600
v -0.2500 0.0550 0.3600
v -0.2500 0.0050 0.3600
f 632/6 631/6 630/6 629/6
v -0.1900 0.0050 -0.3600
v -0.2500 0.0050 -0.3600
v -0.2500 0.0050 0.3600
v -0.1900 0.0050 0.3600
f 636/6 635/6 634/6 633/6
v -0.1900 0.0550 0.3600
v -0.2500 0.0550 0.3600
v -0.2500 0.0550 -0.3600
v -0.1900 0.0550 -0.3600
f 640/6 639/6 638/6 637/6
v -0.1900 0.0550 -0.3600
v -0.2500 0.0550 -0.3600
v -0.2500 0.0050 -0.3600
v -0.1900 0.0050 -0.3600
f 644/6 643/6 642/6 641/6
v -0.1900 0.0050 0.3600
v -0.2500 0.0050 0.3600
v -0.2500 0.0550 0.3600
v -0.1900 0.0550 0.3600
f 648/6 647/6 646/6 645/6
v 0.0500 0.5550 0.2300
v 0.0500 0.6050 0.2300
v 0.0500 0.6050 0.1300
v 0.0500 0.5550 0.1300
f 652/16 651/16 650/16 649/16
v -0.0500 0.5550 0.1300
v -0.0500 0.6050 0.1300
v -0.0500 0.6050 0.2300
v -0.0500 0.5550 0.2300
f 656/16 655/16 654/16 653/16
v 0.0500 0.5550 0.1300
v -0.0500 0.5550 0.1300
v -0.0500 0.5550 0.2300
v 0.0500 0.5550 0.2300
f 660/16 659/16 658/16 657/16
v 0.0500 0.6050 0.2300
v -0.0500 0.6050 0.2300
v -0.0500 0.6050 0.1300
v 0.0500 0.6050 0.1300
f 664/16 663/16 662/16 661/16
v 0.0500 0.6050 0.1300
v -0.0500 0.6050 0.1300
v -0.0500 0.5550 0.1300
v 0.0500 0.5550 0.1300
f 668/16 667/16 666/16 665/16
v 0.0500 0.5550 0.2300
v -0.0500 0.5550 0.2300
v -0.0500 0.6050 0.2300
v 0.0500 0.6050 0.2300
f 672/16 671/16 670/16 669/16
o Crate
usemtl wi_palette
v 0.2000 0.0100 0.2300
v 0.2000 0.2700 0.2300
v 0.2000 0.2700 -0.2300
v 0.2000 0.0100 -0.2300
f 676/9 675/9 674/9 673/9
v -0.2000 0.0100 -0.2300
v -0.2000 0.2700 -0.2300
v -0.2000 0.2700 0.2300
v -0.2000 0.0100 0.2300
f 680/9 679/9 678/9 677/9
v 0.2000 0.0100 -0.2300
v -0.2000 0.0100 -0.2300
v -0.2000 0.0100 0.2300
v 0.2000 0.0100 0.2300
f 684/9 683/9 682/9 681/9
v 0.2000 0.2700 0.2300
v -0.2000 0.2700 0.2300
v -0.2000 0.2700 -0.2300
v 0.2000 0.2700 -0.2300
f 688/9 687/9 686/9 685/9
v 0.2000 0.2700 -0.2300
v -0.2000 0.2700 -0.2300
v -0.2000 0.0100 -0.2300
v 0.2000 0.0100 -0.2300
f 692/9 691/9 690/9 689/9
v 0.2000 0.0100 0.2300
v -0.2000 0.0100 0.2300
v -0.2000 0.2700 0.2300
v 0.2000 0.2700 0.2300
f 696/9 695/9 694/9 693/9
v 0.2100 0.1150 0.2400
v 0.2100 0.1650 0.2400
v 0.2100 0.1650 -0.2400
v 0.2100 0.1150 -0.2400
f 700/4 699/4 698/4 697/4
v -0.2100 0.1150 -0.2400
v -0.2100 0.1650 -0.2400
v -0.2100 0.1650 0.2400
v -0.2100 0.1150 0.2400
f 704/4 703/4 702/4 701/4
v 0.2100 0.1150 -0.2400
v -0.2100 0.1150 -0.2400
v -0.2100 0.1150 0.2400
v 0.2100 0.1150 0.2400
f 708/4 707/4 706/4 705/4
v 0.2100 0.1650 0.2400
v -0.2100 0.1650 0.2400
v -0.2100 0.1650 -0.2400
v 0.2100 0.1650 -0.2400
f 712/4 711/4 710/4 709/4
v 0.2100 0.1650 -0.2400
v -0.2100 0.1650 -0.2400
v -0.2100 0.1150 -0.2400
v 0.2100 0.1150 -0.2400
f 716/4 715/4 714/4 713/4
v 0.2100 0.1150 0.2400
v -0.2100 0.1150 0.2400
v -0.2100 0.1650 0.2400
v 0.2100 0.1650 0.2400
f 720/4 719/4 718/4 717/4
v 0.0300 0.0000 0.2400
v 0.0300 0.2800 0.2400
v 0.0300 0.2800 -0.2400
v 0.0300 0.0000 -0.2400
f 724/4 723/4 722/4 721/4
v -0.0300 0.0000 -0.2400
v -0.0300 0.2800 -0.2400
v -0.0300 0.2800 0.2400
v -0.0300 0.0000 0.2400
f 728/4 727/4 726/4 725/4
v 0.0300 0.0000 -0.2400
v -0.0300 0.0000 -0.2400
v -0.0300 0.0000 0.2400
v 0.0300 0.0000 0.2400
f 732/4 731/4 730/4 729/4
v 0.0300 0.2800 0.2400
v -0.0300 0.2800 0.2400
v -0.0300 0.2800 -0.2400
v 0.0300 0.2800 -0.2400
f 736/4 735/4 734/4 733/4
v 0.0300 0.2800 -0.2400
v -0.0300 0.2800 -0.2400
v -0.0300 0.0000 -0.2400
v 0.0300 0.0000 -0.2400
f 740/4 739/4 738/4 737/4
v 0.0300 0.0000 0.2400
v -0.0300 0.0000 0.2400
v -0.0300 0.2800 0.2400
v 0.0300 0.2800 0.2400
f 744/4 743/4 742/4 741/4
