# Walk of Industry low-poly (generated, wi_lib.py)
mtllib wi.mtl
vt 0 0
vt 0.03125 0.03125
vt 0.09375 0.03125
vt 0.15625 0.03125
vt 0.21875 0.03125
vt 0.28125 0.03125
vt 0.34375 0.03125
vt 0.40625 0.03125
vt 0.46875 0.03125
vt 0.53125 0.03125
vt 0.59375 0.03125
vt 0.65625 0.03125
vt 0.71875 0.03125
vt 0.78125 0.03125
vt 0.84375 0.03125
vt 0.90625 0.03125
vt 0.96875 0.03125
vt 0.03125 0.09375
vt 0.09375 0.09375
vt 0.15625 0.09375
vt 0.21875 0.09375
vt 0.28125 0.09375
vt 0.34375 0.09375
vt 0.40625 0.09375
vt 0.46875 0.09375
vt 0.53125 0.09375
vt 0.59375 0.09375
vt 0.65625 0.09375
vt 0.71875 0.09375
vt 0.78125 0.09375
vt 0.84375 0.09375
vt 0.90625 0.09375
vt 0.96875 0.09375
o Base
usemtl wi_palette
v 2.5000 0.0000 2.5000
v 2.5000 0.1600 2.5000
v 2.5000 0.1600 -2.5000
v 2.5000 0.0000 -2.5000
f 4/5 3/5 2/5 1/5
v -2.5000 0.0000 -2.5000
v -2.5000 0.1600 -2.5000
v -2.5000 0.1600 2.5000
v -2.5000 0.0000 2.5000
f 8/5 7/5 6/5 5/5
v 2.5000 0.0000 -2.5000
v -2.5000 0.0000 -2.5000
v -2.5000 0.0000 2.5000
v 2.5000 0.0000 2.5000
f 12/5 11/5 10/5 9/5
v 2.5000 0.1600 2.5000
v -2.5000 0.1600 2.5000
v -2.5000 0.1600 -2.5000
v 2.5000 0.1600 -2.5000
f 16/5 15/5 14/5 13/5
v 2.5000 0.1600 -2.5000
v -2.5000 0.1600 -2.5000
v -2.5000 0.0000 -2.5000
v 2.5000 0.0000 -2.5000
f 20/5 19/5 18/5 17/5
v 2.5000 0.0000 2.5000
v -2.5000 0.0000 2.5000
v -2.5000 0.1600 2.5000
v 2.5000 0.1600 2.5000
f 24/5 23/5 22/5 21/5
v 2.4500 0.0000 2.4500
v 2.4500 0.5000 2.4500
v 2.4500 0.5000 -0.5500
v 2.4500 0.0000 -0.5500
f 28/7 27/7 26/7 25/7
v -2.4500 0.0000 -0.5500
v -2.4500 0.5000 -0.5500
v -2.4500 0.5000 2.4500
v -2.4500 0.0000 2.4500
f 32/7 31/7 30/7 29/7
v 2.4500 0.0000 -0.5500
v -2.4500 0.0000 -0.5500
v -2.4500 0.0000 2.4500
v 2.4500 0.0000 2.4500
f 36/7 35/7 34/7 33/7
v 2.4500 0.5000 2.4500
v -2.4500 0.5000 2.4500
v -2.4500 0.5000 -0.5500
v 2.4500 0.5000 -0.5500
f 40/7 39/7 38/7 37/7
v 2.4500 0.5000 -0.5500
v -2.4500 0.5000 -0.5500
v -2.4500 0.0000 -0.5500
v 2.4500 0.0000 -0.5500
f 44/7 43/7 42/7 41/7
v 2.4500 0.0000 2.4500
v -2.4500 0.0000 2.4500
v -2.4500 0.5000 2.4500
v 2.4500 0.5000 2.4500
f 48/7 47/7 46/7 45/7
v 2.4500 0.5000 2.4500
v 2.4500 0.7400 2.4500
v 2.4500 0.7400 -0.5500
v 2.4500 0.5000 -0.5500
f 52/8 51/8 50/8 49/8
v 2.3900 0.5000 -0.5500
v 2.3900 0.7400 -0.5500
v 2.3900 0.7400 2.4500
v 2.3900 0.5000 2.4500
f 56/8 55/8 54/8 53/8
v 2.4500 0.5000 -0.5500
v 2.3900 0.5000 -0.5500
v 2.3900 0.5000 2.4500
v 2.4500 0.5000 2.4500
f 60/8 59/8 58/8 57/8
v 2.4500 0.7400 2.4500
v 2.3900 0.7400 2.4500
v 2.3900 0.7400 -0.5500
v 2.4500 0.7400 -0.5500
f 64/8 63/8 62/8 61/8
v 2.4500 0.7400 -0.5500
v 2.3900 0.7400 -0.5500
v 2.3900 0.5000 -0.5500
v 2.4500 0.5000 -0.5500
f 68/8 67/8 66/8 65/8
v 2.4500 0.5000 2.4500
v 2.3900 0.5000 2.4500
v 2.3900 0.7400 2.4500
v 2.4500 0.7400 2.4500
f 72/8 71/8 70/8 69/8
v -2.3900 0.5000 2.4500
v -2.3900 0.7400 2.4500
v -2.3900 0.7400 -0.5500
v -2.3900 0.5000 -0.5500
f 76/8 75/8 74/8 73/8
v -2.4500 0.5000 -0.5500
v -2.4500 0.7400 -0.5500
v -2.4500 0.7400 2.4500
v -2.4500 0.5000 2.4500
f 80/8 79/8 78/8 77/8
v -2.3900 0.5000 -0.5500
v -2.4500 0.5000 -0.5500
v -2.4500 0.5000 2.4500
v -2.3900 0.5000 2.4500
f 84/8 83/8 82/8 81/8
v -2.3900 0.7400 2.4500
v -2.4500 0.7400 2.4500
v -2.4500 0.7400 -0.5500
v -2.3900 0.7400 -0.5500
f 88/8 87/8 86/8 85/8
v -2.3900 0.7400 -0.5500
v -2.4500 0.7400 -0.5500
v -2.4500 0.5000 -0.5500
v -2.3900 0.5000 -0.5500
f 92/8 91/8 90/8 89/8
v -2.3900 0.5000 2.4500
v -2.4500 0.5000 2.4500
v -2.4500 0.7400 2.4500
v -2.3900 0.7400 2.4500
f 96/8 95/8 94/8 93/8
v 1.9500 0.5000 1.0500
v 1.9500 0.6200 1.0500
v 1.9500 0.6200 -0.4500
v 1.9500 0.5000 -0.4500
f 100/7 99/7 98/7 97/7
v 0.4500 0.5000 -0.4500
v 0.4500 0.6200 -0.4500
v 0.4500 0.6200 1.0500
v 0.4500 0.5000 1.0500
f 104/7 103/7 102/7 101/7
v 1.9500 0.5000 -0.4500
v 0.4500 0.5000 -0.4500
v 0.4500 0.5000 1.0500
v 1.9500 0.5000 1.0500
f 108/7 107/7 106/7 105/7
v 1.9500 0.6200 1.0500
v 0.4500 0.6200 1.0500
v 0.4500 0.6200 -0.4500
v 1.9500 0.6200 -0.4500
f 112/7 111/7 110/7 109/7
v 1.9500 0.6200 -0.4500
v 0.4500 0.6200 -0.4500
v 0.4500 0.5000 -0.4500
v 1.9500 0.5000 -0.4500
f 116/7 115/7 114/7 113/7
v 1.9500 0.5000 1.0500
v 0.4500 0.5000 1.0500
v 0.4500 0.6200 1.0500
v 1.9500 0.6200 1.0500
f 120/7 119/7 118/7 117/7
v 1.8200 0.6200 0.9200
v 1.8200 0.6300 0.9200
v 1.8200 0.6300 -0.3200
v 1.8200 0.6200 -0.3200
f 124/6 123/6 122/6 121/6
v 0.5800 0.6200 -0.3200
v 0.5800 0.6300 -0.3200
v 0.5800 0.6300 0.9200
v 0.5800 0.6200 0.9200
f 128/6 127/6 126/6 125/6
v 1.8200 0.6200 -0.3200
v 0.5800 0.6200 -0.3200
v 0.5800 0.6200 0.9200
v 1.8200 0.6200 0.9200
f 132/6 131/6 130/6 129/6
v 1.8200 0.6300 0.9200
v 0.5800 0.6300 0.9200
v 0.5800 0.6300 -0.3200
v 1.8200 0.6300 -0.3200
f 136/6 135/6 134/6 133/6
v 1.8200 0.6300 -0.3200
v 0.5800 0.6300 -0.3200
v 0.5800 0.6200 -0.3200
v 1.8200 0.6200 -0.3200
f 140/6 139/6 138/6 137/6
v 1.8200 0.6200 0.9200
v 0.5800 0.6200 0.9200
v 0.5800 0.6300 0.9200
v 1.8200 0.6300 0.9200
f 144/6 143/6 142/6 141/6
v 1.5600 0.6270 0.7000
v 1.5600 0.6370 0.7000
v 1.5600 0.6370 -0.1000
v 1.5600 0.6270 -0.1000
f 148/8 147/8 146/8 145/8
v 1.4400 0.6270 -0.1000
v 1.4400 0.6370 -0.1000
v 1.4400 0.6370 0.7000
v 1.4400 0.6270 0.7000
f 152/8 151/8 150/8 149/8
v 1.5600 0.6270 -0.1000
v 1.4400 0.6270 -0.1000
v 1.4400 0.6270 0.7000
v 1.5600 0.6270 0.7000
f 156/8 155/8 154/8 153/8
v 1.5600 0.6370 0.7000
v 1.4400 0.6370 0.7000
v 1.4400 0.6370 -0.1000
v 1.5600 0.6370 -0.1000
f 160/8 159/8 158/8 157/8
v 1.5600 0.6370 -0.1000
v 1.4400 0.6370 -0.1000
v 1.4400 0.6270 -0.1000
v 1.5600 0.6270 -0.1000
f 164/8 163/8 162/8 161/8
v 1.5600 0.6270 0.7000
v 1.4400 0.6270 0.7000
v 1.4400 0.6370 0.7000
v 1.5600 0.6370 0.7000
f 168/8 167/8 166/8 165/8
v 0.9600 0.6270 0.7000
v 0.9600 0.6370 0.7000
v 0.9600 0.6370 -0.1000
v 0.9600 0.6270 -0.1000
f 172/8 171/8 170/8 169/8
v 0.8400 0.6270 -0.1000
v 0.8400 0.6370 -0.1000
v 0.8400 0.6370 0.7000
v 0.8400 0.6270 0.7000
f 176/8 175/8 174/8 173/8
v 0.9600 0.6270 -0.1000
v 0.8400 0.6270 -0.1000
v 0.8400 0.6270 0.7000
v 0.9600 0.6270 0.7000
f 180/8 179/8 178/8 177/8
v 0.9600 0.6370 0.7000
v 0.8400 0.6370 0.7000
v 0.8400 0.6370 -0.1000
v 0.9600 0.6370 -0.1000
f 184/8 183/8 182/8 181/8
v 0.9600 0.6370 -0.1000
v 0.8400 0.6370 -0.1000
v 0.8400 0.6270 -0.1000
v 0.9600 0.6270 -0.1000
f 188/8 187/8 186/8 185/8
v 0.9600 0.6270 0.7000
v 0.8400 0.6270 0.7000
v 0.8400 0.6370 0.7000
v 0.9600 0.6370 0.7000
f 192/8 191/8 190/8 189/8
v 1.5000 0.6270 0.3600
v 1.5000 0.6370 0.3600
v 1.5000 0.6370 0.2400
v 1.5000 0.6270 0.2400
f 196/8 195/8 194/8 193/8
v 0.9000 0.6270 0.2400
v 0.9000 0.6370 0.2400
v 0.9000 0.6370 0.3600
v 0.9000 0.6270 0.3600
f 200/8 199/8 198/8 197/8
v 1.5000 0.6270 0.2400
v 0.9000 0.6270 0.2400
v 0.9000 0.6270 0.3600
v 1.5000 0.6270 0.3600
f 204/8 203/8 202/8 201/8
v 1.5000 0.6370 0.3600
v 0.9000 0.6370 0.3600
v 0.9000 0.6370 0.2400
v 1.5000 0.6370 0.2400
f 208/8 207/8 206/8 205/8
v 1.5000 0.6370 0.2400
v 0.9000 0.6370 0.2400
v 0.9000 0.6270 0.2400
v 1.5000 0.6270 0.2400
f 212/8 211/8 210/8 209/8
v 1.5000 0.6270 0.3600
v 0.9000 0.6270 0.3600
v 0.9000 0.6370 0.3600
v 1.5000 0.6370 0.3600
f 216/8 215/8 214/8 213/8
v -0.4500 0.5000 1.0500
v -0.4500 0.6200 1.0500
v -0.4500 0.6200 -0.4500
v -0.4500 0.5000 -0.4500
f 220/7 219/7 218/7 217/7
v -1.9500 0.5000 -0.4500
v -1.9500 0.6200 -0.4500
v -1.9500 0.6200 1.0500
v -1.9500 0.5000 1.0500
f 224/7 223/7 222/7 221/7
v -0.4500 0.5000 -0.4500
v -1.9500 0.5000 -0.4500
v -1.9500 0.5000 1.0500
v -0.4500 0.5000 1.0500
f 228/7 227/7 226/7 225/7
v -0.4500 0.6200 1.0500
v -1.9500 0.6200 1.0500
v -1.9500 0.6200 -0.4500
v -0.4500 0.6200 -0.4500
f 232/7 231/7 230/7 229/7
v -0.4500 0.6200 -0.4500
v -1.9500 0.6200 -0.4500
v -1.9500 0.5000 -0.4500
v -0.4500 0.5000 -0.4500
f 236/7 235/7 234/7 233/7
v -0.4500 0.5000 1.0500
v -1.9500 0.5000 1.0500
v -1.9500 0.6200 1.0500
v -0.4500 0.6200 1.0500
f 240/7 239/7 238/7 237/7
v -0.5800 0.6200 0.9200
v -0.5800 0.6300 0.9200
v -0.5800 0.6300 -0.3200
v -0.5800 0.6200 -0.3200
f 244/6 243/6 242/6 241/6
v -1.8200 0.6200 -0.3200
v -1.8200 0.6300 -0.3200
v -1.8200 0.6300 0.9200
v -1.8200 0.6200 0.9200
f 248/6 247/6 246/6 245/6
v -0.5800 0.6200 -0.3200
v -1.8200 0.6200 -0.3200
v -1.8200 0.6200 0.9200
v -0.5800 0.6200 0.9200
f 252/6 251/6 250/6 249/6
v -0.5800 0.6300 0.9200
v -1.8200 0.6300 0.9200
v -1.8200 0.6300 -0.3200
v -0.5800 0.6300 -0.3200
f 256/6 255/6 254/6 253/6
v -0.5800 0.6300 -0.3200
v -1.8200 0.6300 -0.3200
v -1.8200 0.6200 -0.3200
v -0.5800 0.6200 -0.3200
f 260/6 259/6 258/6 257/6
v -0.5800 0.6200 0.9200
v -1.8200 0.6200 0.9200
v -1.8200 0.6300 0.9200
v -0.5800 0.6300 0.9200
f 264/6 263/6 262/6 261/6
v -0.8400 0.6270 0.7000
v -0.8400 0.6370 0.7000
v -0.8400 0.6370 -0.1000
v -0.8400 0.6270 -0.1000
f 268/8 267/8 266/8 265/8
v -0.9600 0.6270 -0.1000
v -0.9600 0.6370 -0.1000
v -0.9600 0.6370 0.7000
v -0.9600 0.6270 0.7000
f 272/8 271/8 270/8 269/8
v -0.8400 0.6270 -0.1000
v -0.9600 0.6270 -0.1000
v -0.9600 0.6270 0.7000
v -0.8400 0.6270 0.7000
f 276/8 275/8 274/8 273/8
v -0.8400 0.6370 0.7000
v -0.9600 0.6370 0.7000
v -0.9600 0.6370 -0.1000
v -0.8400 0.6370 -0.1000
f 280/8 279/8 278/8 277/8
v -0.8400 0.6370 -0.1000
v -0.9600 0.6370 -0.1000
v -0.9600 0.6270 -0.1000
v -0.8400 0.6270 -0.1000
f 284/8 283/8 282/8 281/8
v -0.8400 0.6270 0.7000
v -0.9600 0.6270 0.7000
v -0.9600 0.6370 0.7000
v -0.8400 0.6370 0.7000
f 288/8 287/8 286/8 285/8
v -1.4400 0.6270 0.7000
v -1.4400 0.6370 0.7000
v -1.4400 0.6370 -0.1000
v -1.4400 0.6270 -0.1000
f 292/8 291/8 290/8 289/8
v -1.5600 0.6270 -0.1000
v -1.5600 0.6370 -0.1000
v -1.5600 0.6370 0.7000
v -1.5600 0.6270 0.7000
f 296/8 295/8 294/8 293/8
v -1.4400 0.6270 -0.1000
v -1.5600 0.6270 -0.1000
v -1.5600 0.6270 0.7000
v -1.4400 0.6270 0.7000
f 300/8 299/8 298/8 297/8
v -1.4400 0.6370 0.7000
v -1.5600 0.6370 0.7000
v -1.5600 0.6370 -0.1000
v -1.4400 0.6370 -0.1000
f 304/8 303/8 302/8 301/8
v -1.4400 0.6370 -0.1000
v -1.5600 0.6370 -0.1000
v -1.5600 0.6270 -0.1000
v -1.4400 0.6270 -0.1000
f 308/8 307/8 306/8 305/8
v -1.4400 0.6270 0.7000
v -1.5600 0.6270 0.7000
v -1.5600 0.6370 0.7000
v -1.4400 0.6370 0.7000
f 312/8 311/8 310/8 309/8
v -0.9000 0.6270 0.3600
v -0.9000 0.6370 0.3600
v -0.9000 0.6370 0.2400
v -0.9000 0.6270 0.2400
f 316/8 315/8 314/8 313/8
v -1.5000 0.6270 0.2400
v -1.5000 0.6370 0.2400
v -1.5000 0.6370 0.3600
v -1.5000 0.6270 0.3600
f 320/8 319/8 318/8 317/8
v -0.9000 0.6270 0.2400
v -1.5000 0.6270 0.2400
v -1.5000 0.6270 0.3600
v -0.9000 0.6270 0.3600
f 324/8 323/8 322/8 321/8
v -0.9000 0.6370 0.3600
v -1.5000 0.6370 0.3600
v -1.5000 0.6370 0.2400
v -0.9000 0.6370 0.2400
f 328/8 327/8 326/8 325/8
v -0.9000 0.6370 0.2400
v -1.5000 0.6370 0.2400
v -1.5000 0.6270 0.2400
v -0.9000 0.6270 0.2400
f 332/8 331/8 330/8 329/8
v -0.9000 0.6270 0.3600
v -1.5000 0.6270 0.3600
v -1.5000 0.6370 0.3600
v -0.9000 0.6370 0.3600
f 336/8 335/8 334/8 333/8
v 1.9500 0.5000 2.5000
v 1.9500 0.6200 2.5000
v 1.9500 0.6200 1.0000
v 1.9500 0.5000 1.0000
f 340/7 339/7 338/7 337/7
v 0.4500 0.5000 1.0000
v 0.4500 0.6200 1.0000
v 0.4500 0.6200 2.5000
v 0.4500 0.5000 2.5000
f 344/7 343/7 342/7 341/7
v 1.9500 0.5000 1.0000
v 0.4500 0.5000 1.0000
v 0.4500 0.5000 2.5000
v 1.9500 0.5000 2.5000
f 348/7 347/7 346/7 345/7
v 1.9500 0.6200 2.5000
v 0.4500 0.6200 2.5000
v 0.4500 0.6200 1.0000
v 1.9500 0.6200 1.0000
f 352/7 351/7 350/7 349/7
v 1.9500 0.6200 1.0000
v 0.4500 0.6200 1.0000
v 0.4500 0.5000 1.0000
v 1.9500 0.5000 1.0000
f 356/7 355/7 354/7 353/7
v 1.9500 0.5000 2.5000
v 0.4500 0.5000 2.5000
v 0.4500 0.6200 2.5000
v 1.9500 0.6200 2.5000
f 360/7 359/7 358/7 357/7
v 1.8200 0.6200 2.3700
v 1.8200 0.6300 2.3700
v 1.8200 0.6300 1.1300
v 1.8200 0.6200 1.1300
f 364/6 363/6 362/6 361/6
v 0.5800 0.6200 1.1300
v 0.5800 0.6300 1.1300
v 0.5800 0.6300 2.3700
v 0.5800 0.6200 2.3700
f 368/6 367/6 366/6 365/6
v 1.8200 0.6200 1.1300
v 0.5800 0.6200 1.1300
v 0.5800 0.6200 2.3700
v 1.8200 0.6200 2.3700
f 372/6 371/6 370/6 369/6
v 1.8200 0.6300 2.3700
v 0.5800 0.6300 2.3700
v 0.5800 0.6300 1.1300
v 1.8200 0.6300 1.1300
f 376/6 375/6 374/6 373/6
v 1.8200 0.6300 1.1300
v 0.5800 0.6300 1.1300
v 0.5800 0.6200 1.1300
v 1.8200 0.6200 1.1300
f 380/6 379/6 378/6 377/6
v 1.8200 0.6200 2.3700
v 0.5800 0.6200 2.3700
v 0.5800 0.6300 2.3700
v 1.8200 0.6300 2.3700
f 384/6 383/6 382/6 381/6
v 1.5600 0.6270 2.1500
v 1.5600 0.6370 2.1500
v 1.5600 0.6370 1.3500
v 1.5600 0.6270 1.3500
f 388/8 387/8 386/8 385/8
v 1.4400 0.6270 1.3500
v 1.4400 0.6370 1.3500
v 1.4400 0.6370 2.1500
v 1.4400 0.6270 2.1500
f 392/8 391/8 390/8 389/8
v 1.5600 0.6270 1.3500
v 1.4400 0.6270 1.3500
v 1.4400 0.6270 2.1500
v 1.5600 0.6270 2.1500
f 396/8 395/8 394/8 393/8
v 1.5600 0.6370 2.1500
v 1.4400 0.6370 2.1500
v 1.4400 0.6370 1.3500
v 1.5600 0.6370 1.3500
f 400/8 399/8 398/8 397/8
v 1.5600 0.6370 1.3500
v 1.4400 0.6370 1.3500
v 1.4400 0.6270 1.3500
v 1.5600 0.6270 1.3500
f 404/8 403/8 402/8 401/8
v 1.5600 0.6270 2.1500
v 1.4400 0.6270 2.1500
v 1.4400 0.6370 2.1500
v 1.5600 0.6370 2.1500
f 408/8 407/8 406/8 405/8
v 0.9600 0.6270 2.1500
v 0.9600 0.6370 2.1500
v 0.9600 0.6370 1.3500
v 0.9600 0.6270 1.3500
f 412/8 411/8 410/8 409/8
v 0.8400 0.6270 1.3500
v 0.8400 0.6370 1.3500
v 0.8400 0.6370 2.1500
v 0.8400 0.6270 2.1500
f 416/8 415/8 414/8 413/8
v 0.9600 0.6270 1.3500
v 0.8400 0.6270 1.3500
v 0.8400 0.6270 2.1500
v 0.9600 0.6270 2.1500
f 420/8 419/8 418/8 417/8
v 0.9600 0.6370 2.1500
v 0.8400 0.6370 2.1500
v 0.8400 0.6370 1.3500
v 0.9600 0.6370 1.3500
f 424/8 423/8 422/8 421/8
v 0.9600 0.6370 1.3500
v 0.8400 0.6370 1.3500
v 0.8400 0.6270 1.3500
v 0.9600 0.6270 1.3500
f 428/8 427/8 426/8 425/8
v 0.9600 0.6270 2.1500
v 0.8400 0.6270 2.1500
v 0.8400 0.6370 2.1500
v 0.9600 0.6370 2.1500
f 432/8 431/8 430/8 429/8
v 1.5000 0.6270 1.8100
v 1.5000 0.6370 1.8100
v 1.5000 0.6370 1.6900
v 1.5000 0.6270 1.6900
f 436/8 435/8 434/8 433/8
v 0.9000 0.6270 1.6900
v 0.9000 0.6370 1.6900
v 0.9000 0.6370 1.8100
v 0.9000 0.6270 1.8100
f 440/8 439/8 438/8 437/8
v 1.5000 0.6270 1.6900
v 0.9000 0.6270 1.6900
v 0.9000 0.6270 1.8100
v 1.5000 0.6270 1.8100
f 444/8 443/8 442/8 441/8
v 1.5000 0.6370 1.8100
v 0.9000 0.6370 1.8100
v 0.9000 0.6370 1.6900
v 1.5000 0.6370 1.6900
f 448/8 447/8 446/8 445/8
v 1.5000 0.6370 1.6900
v 0.9000 0.6370 1.6900
v 0.9000 0.6270 1.6900
v 1.5000 0.6270 1.6900
f 452/8 451/8 450/8 449/8
v 1.5000 0.6270 1.8100
v 0.9000 0.6270 1.8100
v 0.9000 0.6370 1.8100
v 1.5000 0.6370 1.8100
f 456/8 455/8 454/8 453/8
v -0.4500 0.5000 2.5000
v -0.4500 0.6200 2.5000
v -0.4500 0.6200 1.0000
v -0.4500 0.5000 1.0000
f 460/7 459/7 458/7 457/7
v -1.9500 0.5000 1.0000
v -1.9500 0.6200 1.0000
v -1.9500 0.6200 2.5000
v -1.9500 0.5000 2.5000
f 464/7 463/7 462/7 461/7
v -0.4500 0.5000 1.0000
v -1.9500 0.5000 1.0000
v -1.9500 0.5000 2.5000
v -0.4500 0.5000 2.5000
f 468/7 467/7 466/7 465/7
v -0.4500 0.6200 2.5000
v -1.9500 0.6200 2.5000
v -1.9500 0.6200 1.0000
v -0.4500 0.6200 1.0000
f 472/7 471/7 470/7 469/7
v -0.4500 0.6200 1.0000
v -1.9500 0.6200 1.0000
v -1.9500 0.5000 1.0000
v -0.4500 0.5000 1.0000
f 476/7 475/7 474/7 473/7
v -0.4500 0.5000 2.5000
v -1.9500 0.5000 2.5000
v -1.9500 0.6200 2.5000
v -0.4500 0.6200 2.5000
f 480/7 479/7 478/7 477/7
v -0.5800 0.6200 2.3700
v -0.5800 0.6300 2.3700
v -0.5800 0.6300 1.1300
v -0.5800 0.6200 1.1300
f 484/6 483/6 482/6 481/6
v -1.8200 0.6200 1.1300
v -1.8200 0.6300 1.1300
v -1.8200 0.6300 2.3700
v -1.8200 0.6200 2.3700
f 488/6 487/6 486/6 485/6
v -0.5800 0.6200 1.1300
v -1.8200 0.6200 1.1300
v -1.8200 0.6200 2.3700
v -0.5800 0.6200 2.3700
f 492/6 491/6 490/6 489/6
v -0.5800 0.6300 2.3700
v -1.8200 0.6300 2.3700
v -1.8200 0.6300 1.1300
v -0.5800 0.6300 1.1300
f 496/6 495/6 494/6 493/6
v -0.5800 0.6300 1.1300
v -1.8200 0.6300 1.1300
v -1.8200 0.6200 1.1300
v -0.5800 0.6200 1.1300
f 500/6 499/6 498/6 497/6
v -0.5800 0.6200 2.3700
v -1.8200 0.6200 2.3700
v -1.8200 0.6300 2.3700
v -0.5800 0.6300 2.3700
f 504/6 503/6 502/6 501/6
v -0.8400 0.6270 2.1500
v -0.8400 0.6370 2.1500
v -0.8400 0.6370 1.3500
v -0.8400 0.6270 1.3500
f 508/8 507/8 506/8 505/8
v -0.9600 0.6270 1.3500
v -0.9600 0.6370 1.3500
v -0.9600 0.6370 2.1500
v -0.9600 0.6270 2.1500
f 512/8 511/8 510/8 509/8
v -0.8400 0.6270 1.3500
v -0.9600 0.6270 1.3500
v -0.9600 0.6270 2.1500
v -0.8400 0.6270 2.1500
f 516/8 515/8 514/8 513/8
v -0.8400 0.6370 2.1500
v -0.9600 0.6370 2.1500
v -0.9600 0.6370 1.3500
v -0.8400 0.6370 1.3500
f 520/8 519/8 518/8 517/8
v -0.8400 0.6370 1.3500
v -0.9600 0.6370 1.3500
v -0.9600 0.6270 1.3500
v -0.8400 0.6270 1.3500
f 524/8 523/8 522/8 521/8
v -0.8400 0.6270 2.1500
v -0.9600 0.6270 2.1500
v -0.9600 0.6370 2.1500
v -0.8400 0.6370 2.1500
f 528/8 527/8 526/8 525/8
v -1.4400 0.6270 2.1500
v -1.4400 0.6370 2.1500
v -1.4400 0.6370 1.3500
v -1.4400 0.6270 1.3500
f 532/8 531/8 530/8 529/8
v -1.5600 0.6270 1.3500
v -1.5600 0.6370 1.3500
v -1.5600 0.6370 2.1500
v -1.5600 0.6270 2.1500
f 536/8 535/8 534/8 533/8
v -1.4400 0.6270 1.3500
v -1.5600 0.6270 1.3500
v -1.5600 0.6270 2.1500
v -1.4400 0.6270 2.1500
f 540/8 539/8 538/8 537/8
v -1.4400 0.6370 2.1500
v -1.5600 0.6370 2.1500
v -1.5600 0.6370 1.3500
v -1.4400 0.6370 1.3500
f 544/8 543/8 542/8 541/8
v -1.4400 0.6370 1.3500
v -1.5600 0.6370 1.3500
v -1.5600 0.6270 1.3500
v -1.4400 0.6270 1.3500
f 548/8 547/8 546/8 545/8
v -1.4400 0.6270 2.1500
v -1.5600 0.6270 2.1500
v -1.5600 0.6370 2.1500
v -1.4400 0.6370 2.1500
f 552/8 551/8 550/8 549/8
v -0.9000 0.6270 1.8100
v -0.9000 0.6370 1.8100
v -0.9000 0.6370 1.6900
v -0.9000 0.6270 1.6900
f 556/8 555/8 554/8 553/8
v -1.5000 0.6270 1.6900
v -1.5000 0.6370 1.6900
v -1.5000 0.6370 1.8100
v -1.5000 0.6270 1.8100
f 560/8 559/8 558/8 557/8
v -0.9000 0.6270 1.6900
v -1.5000 0.6270 1.6900
v -1.5000 0.6270 1.8100
v -0.9000 0.6270 1.8100
f 564/8 563/8 562/8 561/8
v -0.9000 0.6370 1.8100
v -1.5000 0.6370 1.8100
v -1.5000 0.6370 1.6900
v -0.9000 0.6370 1.6900
f 568/8 567/8 566/8 565/8
v -0.9000 0.6370 1.6900
v -1.5000 0.6370 1.6900
v -1.5000 0.6270 1.6900
v -0.9000 0.6270 1.6900
f 572/8 571/8 570/8 569/8
v -0.9000 0.6270 1.8100
v -1.5000 0.6270 1.8100
v -1.5000 0.6370 1.8100
v -0.9000 0.6370 1.8100
f 576/8 575/8 574/8 573/8
v 2.4000 0.1500 -0.5500
v 2.4000 1.8500 -0.5500
v 2.4000 1.8500 -2.4500
v 2.4000 0.1500 -2.4500
f 580/2 579/2 578/2 577/2
v -2.4000 0.1500 -2.4500
v -2.4000 1.8500 -2.4500
v -2.4000 1.8500 -0.5500
v -2.4000 0.1500 -0.5500
f 584/2 583/2 582/2 581/2
v 2.4000 0.1500 -2.4500
v -2.4000 0.1500 -2.4500
v -2.4000 0.1500 -0.5500
v 2.4000 0.1500 -0.5500
f 588/2 587/2 586/2 585/2
v 2.4000 1.8500 -0.5500
v -2.4000 1.8500 -0.5500
v -2.4000 1.8500 -2.4500
v 2.4000 1.8500 -2.4500
f 592/2 591/2 590/2 589/2
v 2.4000 1.8500 -2.4500
v -2.4000 1.8500 -2.4500
v -2.4000 0.1500 -2.4500
v 2.4000 0.1500 -2.4500
f 596/2 595/2 594/2 593/2
v 2.4000 0.1500 -0.5500
v -2.4000 0.1500 -0.5500
v -2.4000 1.8500 -0.5500
v 2.4000 1.8500 -0.5500
f 600/2 599/2 598/2 597/2
v 1.4500 2.5500 -1.5000
v -1.4500 2.5500 -1.5000
v -2.5200 1.8500 -2.5700
v 2.5200 1.8500 -2.5700
f 604/4 603/4 602/4 601/4
v -1.4500 2.5500 -1.5000
v 1.4500 2.5500 -1.5000
v 2.5200 1.8500 -0.4300
v -2.5200 1.8500 -0.4300
f 608/4 607/4 606/4 605/4
v -1.4500 2.5500 -1.5000
v -2.5200 1.8500 -0.4300
v -2.5200 1.8500 -2.5700
f 611/4 610/4 609/4
v 1.4500 2.5500 -1.5000
v 2.5200 1.8500 -2.5700
v 2.5200 1.8500 -0.4300
f 614/4 613/4 612/4
v 2.5200 1.8500 -2.5700
v -2.5200 1.8500 -2.5700
v -2.5200 1.8500 -0.4300
v 2.5200 1.8500 -0.4300
f 618/4 617/4 616/4 615/4
v 2.3500 0.2000 -2.4300
v 2.3500 0.7000 -2.4300
v 2.3500 0.7000 -2.5100
v 2.3500 0.2000 -2.5100
f 622/6 621/6 620/6 619/6
v 1.6500 0.2000 -2.5100
v 1.6500 0.7000 -2.5100
v 1.6500 0.7000 -2.4300
v 1.6500 0.2000 -2.4300
f 626/6 625/6 624/6 623/6
v 2.3500 0.2000 -2.5100
v 1.6500 0.2000 -2.5100
v 1.6500 0.2000 -2.4300
v 2.3500 0.2000 -2.4300
f 630/6 629/6 628/6 627/6
v 2.3500 0.7000 -2.4300
v 1.6500 0.7000 -2.4300
v 1.6500 0.7000 -2.5100
v 2.3500 0.7000 -2.5100
f 634/6 633/6 632/6 631/6
v 2.3500 0.7000 -2.5100
v 1.6500 0.7000 -2.5100
v 1.6500 0.2000 -2.5100
v 2.3500 0.2000 -2.5100
f 638/6 637/6 636/6 635/6
v 2.3500 0.2000 -2.4300
v 1.6500 0.2000 -2.4300
v 1.6500 0.7000 -2.4300
v 2.3500 0.7000 -2.4300
f 642/6 641/6 640/6 639/6
v 2.4000 0.7000 -2.4500
v 2.4000 0.7800 -2.4500
v 2.4000 0.7800 -2.5900
v 2.4000 0.7000 -2.5900
f 646/4 645/4 644/4 643/4
v 1.6000 0.7000 -2.5900
v 1.6000 0.7800 -2.5900
v 1.6000 0.7800 -2.4500
v 1.6000 0.7000 -2.4500
f 650/4 649/4 648/4 647/4
v 2.4000 0.7000 -2.5900
v 1.6000 0.7000 -2.5900
v 1.6000 0.7000 -2.4500
v 2.4000 0.7000 -2.4500
f 654/4 653/4 652/4 651/4
v 2.4000 0.7800 -2.4500
v 1.6000 0.7800 -2.4500
v 1.6000 0.7800 -2.5900
v 2.4000 0.7800 -2.5900
f 658/4 657/4 656/4 655/4
v 2.4000 0.7800 -2.5900
v 1.6000 0.7800 -2.5900
v 1.6000 0.7000 -2.5900
v 2.4000 0.7000 -2.5900
f 662/4 661/4 660/4 659/4
v 2.4000 0.7000 -2.4500
v 1.6000 0.7000 -2.4500
v 1.6000 0.7800 -2.4500
v 2.4000 0.7800 -2.4500
f 666/4 665/4 664/4 663/4
v 1.3500 0.2000 -2.4300
v 1.3500 0.7000 -2.4300
v 1.3500 0.7000 -2.5100
v 1.3500 0.2000 -2.5100
f 670/6 669/6 668/6 667/6
v 0.6500 0.2000 -2.5100
v 0.6500 0.7000 -2.5100
v 0.6500 0.7000 -2.4300
v 0.6500 0.2000 -2.4300
f 674/6 673/6 672/6 671/6
v 1.3500 0.2000 -2.5100
v 0.6500 0.2000 -2.5100
v 0.6500 0.2000 -2.4300
v 1.3500 0.2000 -2.4300
f 678/6 677/6 676/6 675/6
v 1.3500 0.7000 -2.4300
v 0.6500 0.7000 -2.4300
v 0.6500 0.7000 -2.5100
v 1.3500 0.7000 -2.5100
f 682/6 681/6 680/6 679/6
v 1.3500 0.7000 -2.5100
v 0.6500 0.7000 -2.5100
v 0.6500 0.2000 -2.5100
v 1.3500 0.2000 -2.5100
f 686/6 685/6 684/6 683/6
v 1.3500 0.2000 -2.4300
v 0.6500 0.2000 -2.4300
v 0.6500 0.7000 -2.4300
v 1.3500 0.7000 -2.4300
f 690/6 689/6 688/6 687/6
v 1.4000 0.7000 -2.4500
v 1.4000 0.7800 -2.4500
v 1.4000 0.7800 -2.5900
v 1.4000 0.7000 -2.5900
f 694/4 693/4 692/4 691/4
v 0.6000 0.7000 -2.5900
v 0.6000 0.7800 -2.5900
v 0.6000 0.7800 -2.4500
v 0.6000 0.7000 -2.4500
f 698/4 697/4 696/4 695/4
v 1.4000 0.7000 -2.5900
v 0.6000 0.7000 -2.5900
v 0.6000 0.7000 -2.4500
v 1.4000 0.7000 -2.4500
f 702/4 701/4 700/4 699/4
v 1.4000 0.7800 -2.4500
v 0.6000 0.7800 -2.4500
v 0.6000 0.7800 -2.5900
v 1.4000 0.7800 -2.5900
f 706/4 705/4 704/4 703/4
v 1.4000 0.7800 -2.5900
v 0.6000 0.7800 -2.5900
v 0.6000 0.7000 -2.5900
v 1.4000 0.7000 -2.5900
f 710/4 709/4 708/4 707/4
v 1.4000 0.7000 -2.4500
v 0.6000 0.7000 -2.4500
v 0.6000 0.7800 -2.4500
v 1.4000 0.7800 -2.4500
f 714/4 713/4 712/4 711/4
v 0.3500 0.2000 -2.4300
v 0.3500 0.7000 -2.4300
v 0.3500 0.7000 -2.5100
v 0.3500 0.2000 -2.5100
f 718/6 717/6 716/6 715/6
v -0.3500 0.2000 -2.5100
v -0.3500 0.7000 -2.5100
v -0.3500 0.7000 -2.4300
v -0.3500 0.2000 -2.4300
f 722/6 721/6 720/6 719/6
v 0.3500 0.2000 -2.5100
v -0.3500 0.2000 -2.5100
v -0.3500 0.2000 -2.4300
v 0.3500 0.2000 -2.4300
f 726/6 725/6 724/6 723/6
v 0.3500 0.7000 -2.4300
v -0.3500 0.7000 -2.4300
v -0.3500 0.7000 -2.5100
v 0.3500 0.7000 -2.5100
f 730/6 729/6 728/6 727/6
v 0.3500 0.7000 -2.5100
v -0.3500 0.7000 -2.5100
v -0.3500 0.2000 -2.5100
v 0.3500 0.2000 -2.5100
f 734/6 733/6 732/6 731/6
v 0.3500 0.2000 -2.4300
v -0.3500 0.2000 -2.4300
v -0.3500 0.7000 -2.4300
v 0.3500 0.7000 -2.4300
f 738/6 737/6 736/6 735/6
v 0.4000 0.7000 -2.4500
v 0.4000 0.7800 -2.4500
v 0.4000 0.7800 -2.5900
v 0.4000 0.7000 -2.5900
f 742/4 741/4 740/4 739/4
v -0.4000 0.7000 -2.5900
v -0.4000 0.7800 -2.5900
v -0.4000 0.7800 -2.4500
v -0.4000 0.7000 -2.4500
f 746/4 745/4 744/4 743/4
v 0.4000 0.7000 -2.5900
v -0.4000 0.7000 -2.5900
v -0.4000 0.7000 -2.4500
v 0.4000 0.7000 -2.4500
f 750/4 749/4 748/4 747/4
v 0.4000 0.7800 -2.4500
v -0.4000 0.7800 -2.4500
v -0.4000 0.7800 -2.5900
v 0.4000 0.7800 -2.5900
f 754/4 753/4 752/4 751/4
v 0.4000 0.7800 -2.5900
v -0.4000 0.7800 -2.5900
v -0.4000 0.7000 -2.5900
v 0.4000 0.7000 -2.5900
f 758/4 757/4 756/4 755/4
v 0.4000 0.7000 -2.4500
v -0.4000 0.7000 -2.4500
v -0.4000 0.7800 -2.4500
v 0.4000 0.7800 -2.4500
f 762/4 761/4 760/4 759/4
v -0.6500 0.2000 -2.4300
v -0.6500 0.7000 -2.4300
v -0.6500 0.7000 -2.5100
v -0.6500 0.2000 -2.5100
f 766/6 765/6 764/6 763/6
v -1.3500 0.2000 -2.5100
v -1.3500 0.7000 -2.5100
v -1.3500 0.7000 -2.4300
v -1.3500 0.2000 -2.4300
f 770/6 769/6 768/6 767/6
v -0.6500 0.2000 -2.5100
v -1.3500 0.2000 -2.5100
v -1.3500 0.2000 -2.4300
v -0.6500 0.2000 -2.4300
f 774/6 773/6 772/6 771/6
v -0.6500 0.7000 -2.4300
v -1.3500 0.7000 -2.4300
v -1.3500 0.7000 -2.5100
v -0.6500 0.7000 -2.5100
f 778/6 777/6 776/6 775/6
v -0.6500 0.7000 -2.5100
v -1.3500 0.7000 -2.5100
v -1.3500 0.2000 -2.5100
v -0.6500 0.2000 -2.5100
f 782/6 781/6 780/6 779/6
v -0.6500 0.2000 -2.4300
v -1.3500 0.2000 -2.4300
v -1.3500 0.7000 -2.4300
v -0.6500 0.7000 -2.4300
f 786/6 785/6 784/6 783/6
v -0.6000 0.7000 -2.4500
v -0.6000 0.7800 -2.4500
v -0.6000 0.7800 -2.5900
v -0.6000 0.7000 -2.5900
f 790/4 789/4 788/4 787/4
v -1.4000 0.7000 -2.5900
v -1.4000 0.7800 -2.5900
v -1.4000 0.7800 -2.4500
v -1.4000 0.7000 -2.4500
f 794/4 793/4 792/4 791/4
v -0.6000 0.7000 -2.5900
v -1.4000 0.7000 -2.5900
v -1.4000 0.7000 -2.4500
v -0.6000 0.7000 -2.4500
f 798/4 797/4 796/4 795/4
v -0.6000 0.7800 -2.4500
v -1.4000 0.7800 -2.4500
v -1.4000 0.7800 -2.5900
v -0.6000 0.7800 -2.5900
f 802/4 801/4 800/4 799/4
v -0.6000 0.7800 -2.5900
v -1.4000 0.7800 -2.5900
v -1.4000 0.7000 -2.5900
v -0.6000 0.7000 -2.5900
f 806/4 805/4 804/4 803/4
v -0.6000 0.7000 -2.4500
v -1.4000 0.7000 -2.4500
v -1.4000 0.7800 -2.4500
v -0.6000 0.7800 -2.4500
f 810/4 809/4 808/4 807/4
v -1.6500 0.2000 -2.4300
v -1.6500 0.7000 -2.4300
v -1.6500 0.7000 -2.5100
v -1.6500 0.2000 -2.5100
f 814/6 813/6 812/6 811/6
v -2.3500 0.2000 -2.5100
v -2.3500 0.7000 -2.5100
v -2.3500 0.7000 -2.4300
v -2.3500 0.2000 -2.4300
f 818/6 817/6 816/6 815/6
v -1.6500 0.2000 -2.5100
v -2.3500 0.2000 -2.5100
v -2.3500 0.2000 -2.4300
v -1.6500 0.2000 -2.4300
f 822/6 821/6 820/6 819/6
v -1.6500 0.7000 -2.4300
v -2.3500 0.7000 -2.4300
v -2.3500 0.7000 -2.5100
v -1.6500 0.7000 -2.5100
f 826/6 825/6 824/6 823/6
v -1.6500 0.7000 -2.5100
v -2.3500 0.7000 -2.5100
v -2.3500 0.2000 -2.5100
v -1.6500 0.2000 -2.5100
f 830/6 829/6 828/6 827/6
v -1.6500 0.2000 -2.4300
v -2.3500 0.2000 -2.4300
v -2.3500 0.7000 -2.4300
v -1.6500 0.7000 -2.4300
f 834/6 833/6 832/6 831/6
v -1.6000 0.7000 -2.4500
v -1.6000 0.7800 -2.4500
v -1.6000 0.7800 -2.5900
v -1.6000 0.7000 -2.5900
f 838/4 837/4 836/4 835/4
v -2.4000 0.7000 -2.5900
v -2.4000 0.7800 -2.5900
v -2.4000 0.7800 -2.4500
v -2.4000 0.7000 -2.4500
f 842/4 841/4 840/4 839/4
v -1.6000 0.7000 -2.5900
v -2.4000 0.7000 -2.5900
v -2.4000 0.7000 -2.4500
v -1.6000 0.7000 -2.4500
f 846/4 845/4 844/4 843/4
v -1.6000 0.7800 -2.4500
v -2.4000 0.7800 -2.4500
v -2.4000 0.7800 -2.5900
v -1.6000 0.7800 -2.5900
f 850/4 849/4 848/4 847/4
v -1.6000 0.7800 -2.5900
v -2.4000 0.7800 -2.5900
v -2.4000 0.7000 -2.5900
v -1.6000 0.7000 -2.5900
f 854/4 853/4 852/4 851/4
v -1.6000 0.7000 -2.4500
v -2.4000 0.7000 -2.4500
v -2.4000 0.7800 -2.4500
v -1.6000 0.7800 -2.4500
f 858/4 857/4 856/4 855/4
v -1.4250 2.2500 -1.4250
v -1.4250 3.1500 -1.4250
v -1.4250 3.1500 -1.7750
v -1.4250 2.2500 -1.7750
f 862/6 861/6 860/6 859/6
v -1.7750 2.2500 -1.7750
v -1.7750 3.1500 -1.7750
v -1.7750 3.1500 -1.4250
v -1.7750 2.2500 -1.4250
f 866/6 865/6 864/6 863/6
v -1.4250 2.2500 -1.7750
v -1.7750 2.2500 -1.7750
v -1.7750 2.2500 -1.4250
v -1.4250 2.2500 -1.4250
f 870/6 869/6 868/6 867/6
v -1.4250 3.1500 -1.4250
v -1.7750 3.1500 -1.4250
v -1.7750 3.1500 -1.7750
v -1.4250 3.1500 -1.7750
f 874/6 873/6 872/6 871/6
v -1.4250 3.1500 -1.7750
v -1.7750 3.1500 -1.7750
v -1.7750 2.2500 -1.7750
v -1.4250 2.2500 -1.7750
f 878/6 877/6 876/6 875/6
v -1.4250 2.2500 -1.4250
v -1.7750 2.2500 -1.4250
v -1.7750 3.1500 -1.4250
v -1.4250 3.1500 -1.4250
f 882/6 881/6 880/6 879/6
v -1.3750 3.1400 -1.3750
v -1.3750 3.2200 -1.3750
v -1.3750 3.2200 -1.8250
v -1.3750 3.1400 -1.8250
f 886/4 885/4 884/4 883/4
v -1.8250 3.1400 -1.8250
v -1.8250 3.2200 -1.8250
v -1.8250 3.2200 -1.3750
v -1.8250 3.1400 -1.3750
f 890/4 889/4 888/4 887/4
v -1.3750 3.1400 -1.8250
v -1.8250 3.1400 -1.8250
v -1.8250 3.1400 -1.3750
v -1.3750 3.1400 -1.3750
f 894/4 893/4 892/4 891/4
v -1.3750 3.2200 -1.3750
v -1.8250 3.2200 -1.3750
v -1.8250 3.2200 -1.8250
v -1.3750 3.2200 -1.8250
f 898/4 897/4 896/4 895/4
v -1.3750 3.2200 -1.8250
v -1.8250 3.2200 -1.8250
v -1.8250 3.1400 -1.8250
v -1.3750 3.1400 -1.8250
f 902/4 901/4 900/4 899/4
v -1.3750 3.1400 -1.3750
v -1.8250 3.1400 -1.3750
v -1.8250 3.2200 -1.3750
v -1.3750 3.2200 -1.3750
f 906/4 905/4 904/4 903/4
v 1.7000 1.0500 -0.5200
v 1.7000 1.5500 -0.5200
v 1.7000 1.5500 -0.5600
v 1.7000 1.0500 -0.5600
f 910/12 909/12 908/12 907/12
v 0.7000 1.0500 -0.5600
v 0.7000 1.5500 -0.5600
v 0.7000 1.5500 -0.5200
v 0.7000 1.0500 -0.5200
f 914/12 913/12 912/12 911/12
v 1.7000 1.0500 -0.5600
v 0.7000 1.0500 -0.5600
v 0.7000 1.0500 -0.5200
v 1.7000 1.0500 -0.5200
f 918/12 917/12 916/12 915/12
v 1.7000 1.5500 -0.5200
v 0.7000 1.5500 -0.5200
v 0.7000 1.5500 -0.5600
v 1.7000 1.5500 -0.5600
f 922/12 921/12 920/12 919/12
v 1.7000 1.5500 -0.5600
v 0.7000 1.5500 -0.5600
v 0.7000 1.0500 -0.5600
v 1.7000 1.0500 -0.5600
f 926/12 925/12 924/12 923/12
v 1.7000 1.0500 -0.5200
v 0.7000 1.0500 -0.5200
v 0.7000 1.5500 -0.5200
v 1.7000 1.5500 -0.5200
f 930/12 929/12 928/12 927/12
v 1.8000 0.6700 -0.1500
v 1.8000 0.7700 -0.1500
v 1.8000 0.7700 -0.5500
v 1.8000 0.6700 -0.5500
f 934/6 933/6 932/6 931/6
v -1.8000 0.6700 -0.5500
v -1.8000 0.7700 -0.5500
v -1.8000 0.7700 -0.1500
v -1.8000 0.6700 -0.1500
f 938/6 937/6 936/6 935/6
v 1.8000 0.6700 -0.5500
v -1.8000 0.6700 -0.5500
v -1.8000 0.6700 -0.1500
v 1.8000 0.6700 -0.1500
f 942/6 941/6 940/6 939/6
v 1.8000 0.7700 -0.1500
v -1.8000 0.7700 -0.1500
v -1.8000 0.7700 -0.5500
v 1.8000 0.7700 -0.5500
f 946/6 945/6 944/6 943/6
v 1.8000 0.7700 -0.5500
v -1.8000 0.7700 -0.5500
v -1.8000 0.6700 -0.5500
v 1.8000 0.6700 -0.5500
f 950/6 949/6 948/6 947/6
v 1.8000 0.6700 -0.1500
v -1.8000 0.6700 -0.1500
v -1.8000 0.7700 -0.1500
v 1.8000 0.7700 -0.1500
f 954/6 953/6 952/6 951/6
v 1.1700 0.7700 -0.1800
v 1.1700 1.0900 -0.1800
v 1.1700 1.0900 -0.5200
v 1.1700 0.7700 -0.5200
f 958/9 957/9 956/9 955/9
v 0.8300 0.7700 -0.5200
v 0.8300 1.0900 -0.5200
v 0.8300 1.0900 -0.1800
v 0.8300 0.7700 -0.1800
f 962/9 961/9 960/9 959/9
v 1.1700 0.7700 -0.5200
v 0.8300 0.7700 -0.5200
v 0.8300 0.7700 -0.1800
v 1.1700 0.7700 -0.1800
f 966/9 965/9 964/9 963/9
v 1.1700 1.0900 -0.1800
v 0.8300 1.0900 -0.1800
v 0.8300 1.0900 -0.5200
v 1.1700 1.0900 -0.5200
f 970/9 969/9 968/9 967/9
v 1.1700 1.0900 -0.5200
v 0.8300 1.0900 -0.5200
v 0.8300 0.7700 -0.5200
v 1.1700 0.7700 -0.5200
f 974/9 973/9 972/9 971/9
v 1.1700 0.7700 -0.1800
v 0.8300 0.7700 -0.1800
v 0.8300 1.0900 -0.1800
v 1.1700 1.0900 -0.1800
f 978/9 977/9 976/9 975/9
v 0.1700 0.7700 -0.1800
v 0.1700 1.0900 -0.1800
v 0.1700 1.0900 -0.5200
v 0.1700 0.7700 -0.5200
f 982/9 981/9 980/9 979/9
v -0.1700 0.7700 -0.5200
v -0.1700 1.0900 -0.5200
v -0.1700 1.0900 -0.1800
v -0.1700 0.7700 -0.1800
f 986/9 985/9 984/9 983/9
v 0.1700 0.7700 -0.5200
v -0.1700 0.7700 -0.5200
v -0.1700 0.7700 -0.1800
v 0.1700 0.7700 -0.1800
f 990/9 989/9 988/9 987/9
v 0.1700 1.0900 -0.1800
v -0.1700 1.0900 -0.1800
v -0.1700 1.0900 -0.5200
v 0.1700 1.0900 -0.5200
f 994/9 993/9 992/9 991/9
v 0.1700 1.0900 -0.5200
v -0.1700 1.0900 -0.5200
v -0.1700 0.7700 -0.5200
v 0.1700 0.7700 -0.5200
f 998/9 997/9 996/9 995/9
v 0.1700 0.7700 -0.1800
v -0.1700 0.7700 -0.1800
v -0.1700 1.0900 -0.1800
v 0.1700 1.0900 -0.1800
f 1002/9 1001/9 1000/9 999/9
v -0.8300 0.7700 -0.1800
v -0.8300 1.0900 -0.1800
v -0.8300 1.0900 -0.5200
v -0.8300 0.7700 -0.5200
f 1006/9 1005/9 1004/9 1003/9
v -1.1700 0.7700 -0.5200
v -1.1700 1.0900 -0.5200
v -1.1700 1.0900 -0.1800
v -1.1700 0.7700 -0.1800
f 1010/9 1009/9 1008/9 1007/9
v -0.8300 0.7700 -0.5200
v -1.1700 0.7700 -0.5200
v -1.1700 0.7700 -0.1800
v -0.8300 0.7700 -0.1800
f 1014/9 1013/9 1012/9 1011/9
v -0.8300 1.0900 -0.1800
v -1.1700 1.0900 -0.1800
v -1.1700 1.0900 -0.5200
v -0.8300 1.0900 -0.5200
f 1018/9 1017/9 1016/9 1015/9
v -0.8300 1.0900 -0.5200
v -1.1700 1.0900 -0.5200
v -1.1700 0.7700 -0.5200
v -0.8300 0.7700 -0.5200
f 1022/9 1021/9 1020/9 1019/9
v -0.8300 0.7700 -0.1800
v -1.1700 0.7700 -0.1800
v -1.1700 1.0900 -0.1800
v -0.8300 1.0900 -0.1800
f 1026/9 1025/9 1024/9 1023/9
v 0.0900 1.4600 -0.5000
v 0.0900 1.6400 -0.5000
v 0.0900 1.6400 -0.5600
v 0.0900 1.4600 -0.5600
f 1030/16 1029/16 1028/16 1027/16
v -0.0900 1.4600 -0.5600
v -0.0900 1.6400 -0.5600
v -0.0900 1.6400 -0.5000
v -0.0900 1.4600 -0.5000
f 1034/16 1033/16 1032/16 1031/16
v 0.0900 1.4600 -0.5600
v -0.0900 1.4600 -0.5600
v -0.0900 1.4600 -0.5000
v 0.0900 1.4600 -0.5000
f 1038/16 1037/16 1036/16 1035/16
v 0.0900 1.6400 -0.5000
v -0.0900 1.6400 -0.5000
v -0.0900 1.6400 -0.5600
v 0.0900 1.6400 -0.5600
f 1042/16 1041/16 1040/16 1039/16
v 0.0900 1.6400 -0.5600
v -0.0900 1.6400 -0.5600
v -0.0900 1.4600 -0.5600
v 0.0900 1.4600 -0.5600
f 1046/16 1045/16 1044/16 1043/16
v 0.0900 1.4600 -0.5000
v -0.0900 1.4600 -0.5000
v -0.0900 1.6400 -0.5000
v 0.0900 1.6400 -0.5000
f 1050/16 1049/16 1048/16 1047/16
v 1.9000 0.6300 -0.3200
v 1.9000 0.6900 -0.3200
v 1.9000 0.6900 -0.4000
v 1.9000 0.6300 -0.4000
f 1054/16 1053/16 1052/16 1051/16
v 1.8200 0.6300 -0.4000
v 1.8200 0.6900 -0.4000
v 1.8200 0.6900 -0.3200
v 1.8200 0.6300 -0.3200
f 1058/16 1057/16 1056/16 1055/16
v 1.9000 0.6300 -0.4000
v 1.8200 0.6300 -0.4000
v 1.8200 0.6300 -0.3200
v 1.9000 0.6300 -0.3200
f 1062/16 1061/16 1060/16 1059/16
v 1.9000 0.6900 -0.3200
v 1.8200 0.6900 -0.3200
v 1.8200 0.6900 -0.4000
v 1.9000 0.6900 -0.4000
f 1066/16 1065/16 1064/16 1063/16
v 1.9000 0.6900 -0.4000
v 1.8200 0.6900 -0.4000
v 1.8200 0.6300 -0.4000
v 1.9000 0.6300 -0.4000
f 1070/16 1069/16 1068/16 1067/16
v 1.9000 0.6300 -0.3200
v 1.8200 0.6300 -0.3200
v 1.8200 0.6900 -0.3200
v 1.9000 0.6900 -0.3200
f 1074/16 1073/16 1072/16 1071/16
v 1.9000 0.6300 1.0000
v 1.9000 0.6900 1.0000
v 1.9000 0.6900 0.9200
v 1.9000 0.6300 0.9200
f 1078/16 1077/16 1076/16 1075/16
v 1.8200 0.6300 0.9200
v 1.8200 0.6900 0.9200
v 1.8200 0.6900 1.0000
v 1.8200 0.6300 1.0000
f 1082/16 1081/16 1080/16 1079/16
v 1.9000 0.6300 0.9200
v 1.8200 0.6300 0.9200
v 1.8200 0.6300 1.0000
v 1.9000 0.6300 1.0000
f 1086/16 1085/16 1084/16 1083/16
v 1.9000 0.6900 1.0000
v 1.8200 0.6900 1.0000
v 1.8200 0.6900 0.9200
v 1.9000 0.6900 0.9200
f 1090/16 1089/16 1088/16 1087/16
v 1.9000 0.6900 0.9200
v 1.8200 0.6900 0.9200
v 1.8200 0.6300 0.9200
v 1.9000 0.6300 0.9200
f 1094/16 1093/16 1092/16 1091/16
v 1.9000 0.6300 1.0000
v 1.8200 0.6300 1.0000
v 1.8200 0.6900 1.0000
v 1.9000 0.6900 1.0000
f 1098/16 1097/16 1096/16 1095/16
v 0.5800 0.6300 -0.3200
v 0.5800 0.6900 -0.3200
v 0.5800 0.6900 -0.4000
v 0.5800 0.6300 -0.4000
f 1102/16 1101/16 1100/16 1099/16
v 0.5000 0.6300 -0.4000
v 0.5000 0.6900 -0.4000
v 0.5000 0.6900 -0.3200
v 0.5000 0.6300 -0.3200
f 1106/16 1105/16 1104/16 1103/16
v 0.5800 0.6300 -0.4000
v 0.5000 0.6300 -0.4000
v 0.5000 0.6300 -0.3200
v 0.5800 0.6300 -0.3200
f 1110/16 1109/16 1108/16 1107/16
v 0.5800 0.6900 -0.3200
v 0.5000 0.6900 -0.3200
v 0.5000 0.6900 -0.4000
v 0.5800 0.6900 -0.4000
f 1114/16 1113/16 1112/16 1111/16
v 0.5800 0.6900 -0.4000
v 0.5000 0.6900 -0.4000
v 0.5000 0.6300 -0.4000
v 0.5800 0.6300 -0.4000
f 1118/16 1117/16 1116/16 1115/16
v 0.5800 0.6300 -0.3200
v 0.5000 0.6300 -0.3200
v 0.5000 0.6900 -0.3200
v 0.5800 0.6900 -0.3200
f 1122/16 1121/16 1120/16 1119/16
v 0.5800 0.6300 1.0000
v 0.5800 0.6900 1.0000
v 0.5800 0.6900 0.9200
v 0.5800 0.6300 0.9200
f 1126/16 1125/16 1124/16 1123/16
v 0.5000 0.6300 0.9200
v 0.5000 0.6900 0.9200
v 0.5000 0.6900 1.0000
v 0.5000 0.6300 1.0000
f 1130/16 1129/16 1128/16 1127/16
v 0.5800 0.6300 0.9200
v 0.5000 0.6300 0.9200
v 0.5000 0.6300 1.0000
v 0.5800 0.6300 1.0000
f 1134/16 1133/16 1132/16 1131/16
v 0.5800 0.6900 1.0000
v 0.5000 0.6900 1.0000
v 0.5000 0.6900 0.9200
v 0.5800 0.6900 0.9200
f 1138/16 1137/16 1136/16 1135/16
v 0.5800 0.6900 0.9200
v 0.5000 0.6900 0.9200
v 0.5000 0.6300 0.9200
v 0.5800 0.6300 0.9200
f 1142/16 1141/16 1140/16 1139/16
v 0.5800 0.6300 1.0000
v 0.5000 0.6300 1.0000
v 0.5000 0.6900 1.0000
v 0.5800 0.6900 1.0000
f 1146/16 1145/16 1144/16 1143/16
v -0.5000 0.6300 -0.3200
v -0.5000 0.6900 -0.3200
v -0.5000 0.6900 -0.4000
v -0.5000 0.6300 -0.4000
f 1150/16 1149/16 1148/16 1147/16
v -0.5800 0.6300 -0.4000
v -0.5800 0.6900 -0.4000
v -0.5800 0.6900 -0.3200
v -0.5800 0.6300 -0.3200
f 1154/16 1153/16 1152/16 1151/16
v -0.5000 0.6300 -0.4000
v -0.5800 0.6300 -0.4000
v -0.5800 0.6300 -0.3200
v -0.5000 0.6300 -0.3200
f 1158/16 1157/16 1156/16 1155/16
v -0.5000 0.6900 -0.3200
v -0.5800 0.6900 -0.3200
v -0.5800 0.6900 -0.4000
v -0.5000 0.6900 -0.4000
f 1162/16 1161/16 1160/16 1159/16
v -0.5000 0.6900 -0.4000
v -0.5800 0.6900 -0.4000
v -0.5800 0.6300 -0.4000
v -0.5000 0.6300 -0.4000
f 1166/16 1165/16 1164/16 1163/16
v -0.5000 0.6300 -0.3200
v -0.5800 0.6300 -0.3200
v -0.5800 0.6900 -0.3200
v -0.5000 0.6900 -0.3200
f 1170/16 1169/16 1168/16 1167/16
v -0.5000 0.6300 1.0000
v -0.5000 0.6900 1.0000
v -0.5000 0.6900 0.9200
v -0.5000 0.6300 0.9200
f 1174/16 1173/16 1172/16 1171/16
v -0.5800 0.6300 0.9200
v -0.5800 0.6900 0.9200
v -0.5800 0.6900 1.0000
v -0.5800 0.6300 1.0000
f 1178/16 1177/16 1176/16 1175/16
v -0.5000 0.6300 0.9200
v -0.5800 0.6300 0.9200
v -0.5800 0.6300 1.0000
v -0.5000 0.6300 1.0000
f 1182/16 1181/16 1180/16 1179/16
v -0.5000 0.6900 1.0000
v -0.5800 0.6900 1.0000
v -0.5800 0.6900 0.9200
v -0.5000 0.6900 0.9200
f 1186/16 1185/16 1184/16 1183/16
v -0.5000 0.6900 0.9200
v -0.5800 0.6900 0.9200
v -0.5800 0.6300 0.9200
v -0.5000 0.6300 0.9200
f 1190/16 1189/16 1188/16 1187/16
v -0.5000 0.6300 1.0000
v -0.5800 0.6300 1.0000
v -0.5800 0.6900 1.0000
v -0.5000 0.6900 1.0000
f 1194/16 1193/16 1192/16 1191/16
v -1.8200 0.6300 -0.3200
v -1.8200 0.6900 -0.3200
v -1.8200 0.6900 -0.4000
v -1.8200 0.6300 -0.4000
f 1198/16 1197/16 1196/16 1195/16
v -1.9000 0.6300 -0.4000
v -1.9000 0.6900 -0.4000
v -1.9000 0.6900 -0.3200
v -1.9000 0.6300 -0.3200
f 1202/16 1201/16 1200/16 1199/16
v -1.8200 0.6300 -0.4000
v -1.9000 0.6300 -0.4000
v -1.9000 0.6300 -0.3200
v -1.8200 0.6300 -0.3200
f 1206/16 1205/16 1204/16 1203/16
v -1.8200 0.6900 -0.3200
v -1.9000 0.6900 -0.3200
v -1.9000 0.6900 -0.4000
v -1.8200 0.6900 -0.4000
f 1210/16 1209/16 1208/16 1207/16
v -1.8200 0.6900 -0.4000
v -1.9000 0.6900 -0.4000
v -1.9000 0.6300 -0.4000
v -1.8200 0.6300 -0.4000
f 1214/16 1213/16 1212/16 1211/16
v -1.8200 0.6300 -0.3200
v -1.9000 0.6300 -0.3200
v -1.9000 0.6900 -0.3200
v -1.8200 0.6900 -0.3200
f 1218/16 1217/16 1216/16 1215/16
v -1.8200 0.6300 1.0000
v -1.8200 0.6900 1.0000
v -1.8200 0.6900 0.9200
v -1.8200 0.6300 0.9200
f 1222/16 1221/16 1220/16 1219/16
v -1.9000 0.6300 0.9200
v -1.9000 0.6900 0.9200
v -1.9000 0.6900 1.0000
v -1.9000 0.6300 1.0000
f 1226/16 1225/16 1224/16 1223/16
v -1.8200 0.6300 0.9200
v -1.9000 0.6300 0.9200
v -1.9000 0.6300 1.0000
v -1.8200 0.6300 1.0000
f 1230/16 1229/16 1228/16 1227/16
v -1.8200 0.6900 1.0000
v -1.9000 0.6900 1.0000
v -1.9000 0.6900 0.9200
v -1.8200 0.6900 0.9200
f 1234/16 1233/16 1232/16 1231/16
v -1.8200 0.6900 0.9200
v -1.9000 0.6900 0.9200
v -1.9000 0.6300 0.9200
v -1.8200 0.6300 0.9200
f 1238/16 1237/16 1236/16 1235/16
v -1.8200 0.6300 1.0000
v -1.9000 0.6300 1.0000
v -1.9000 0.6900 1.0000
v -1.8200 0.6900 1.0000
f 1242/16 1241/16 1240/16 1239/16
v 1.9000 0.6300 1.1300
v 1.9000 0.6900 1.1300
v 1.9000 0.6900 1.0500
v 1.9000 0.6300 1.0500
f 1246/16 1245/16 1244/16 1243/16
v 1.8200 0.6300 1.0500
v 1.8200 0.6900 1.0500
v 1.8200 0.6900 1.1300
v 1.8200 0.6300 1.1300
f 1250/16 1249/16 1248/16 1247/16
v 1.9000 0.6300 1.0500
v 1.8200 0.6300 1.0500
v 1.8200 0.6300 1.1300
v 1.9000 0.6300 1.1300
f 1254/16 1253/16 1252/16 1251/16
v 1.9000 0.6900 1.1300
v 1.8200 0.6900 1.1300
v 1.8200 0.6900 1.0500
v 1.9000 0.6900 1.0500
f 1258/16 1257/16 1256/16 1255/16
v 1.9000 0.6900 1.0500
v 1.8200 0.6900 1.0500
v 1.8200 0.6300 1.0500
v 1.9000 0.6300 1.0500
f 1262/16 1261/16 1260/16 1259/16
v 1.9000 0.6300 1.1300
v 1.8200 0.6300 1.1300
v 1.8200 0.6900 1.1300
v 1.9000 0.6900 1.1300
f 1266/16 1265/16 1264/16 1263/16
v 1.9000 0.6300 2.4500
v 1.9000 0.6900 2.4500
v 1.9000 0.6900 2.3700
v 1.9000 0.6300 2.3700
f 1270/16 1269/16 1268/16 1267/16
v 1.8200 0.6300 2.3700
v 1.8200 0.6900 2.3700
v 1.8200 0.6900 2.4500
v 1.8200 0.6300 2.4500
f 1274/16 1273/16 1272/16 1271/16
v 1.9000 0.6300 2.3700
v 1.8200 0.6300 2.3700
v 1.8200 0.6300 2.4500
v 1.9000 0.6300 2.4500
f 1278/16 1277/16 1276/16 1275/16
v 1.9000 0.6900 2.4500
v 1.8200 0.6900 2.4500
v 1.8200 0.6900 2.3700
v 1.9000 0.6900 2.3700
f 1282/16 1281/16 1280/16 1279/16
v 1.9000 0.6900 2.3700
v 1.8200 0.6900 2.3700
v 1.8200 0.6300 2.3700
v 1.9000 0.6300 2.3700
f 1286/16 1285/16 1284/16 1283/16
v 1.9000 0.6300 2.4500
v 1.8200 0.6300 2.4500
v 1.8200 0.6900 2.4500
v 1.9000 0.6900 2.4500
f 1290/16 1289/16 1288/16 1287/16
v 0.5800 0.6300 1.1300
v 0.5800 0.6900 1.1300
v 0.5800 0.6900 1.0500
v 0.5800 0.6300 1.0500
f 1294/16 1293/16 1292/16 1291/16
v 0.5000 0.6300 1.0500
v 0.5000 0.6900 1.0500
v 0.5000 0.6900 1.1300
v 0.5000 0.6300 1.1300
f 1298/16 1297/16 1296/16 1295/16
v 0.5800 0.6300 1.0500
v 0.5000 0.6300 1.0500
v 0.5000 0.6300 1.1300
v 0.5800 0.6300 1.1300
f 1302/16 1301/16 1300/16 1299/16
v 0.5800 0.6900 1.1300
v 0.5000 0.6900 1.1300
v 0.5000 0.6900 1.0500
v 0.5800 0.6900 1.0500
f 1306/16 1305/16 1304/16 1303/16
v 0.5800 0.6900 1.0500
v 0.5000 0.6900 1.0500
v 0.5000 0.6300 1.0500
v 0.5800 0.6300 1.0500
f 1310/16 1309/16 1308/16 1307/16
v 0.5800 0.6300 1.1300
v 0.5000 0.6300 1.1300
v 0.5000 0.6900 1.1300
v 0.5800 0.6900 1.1300
f 1314/16 1313/16 1312/16 1311/16
v 0.5800 0.6300 2.4500
v 0.5800 0.6900 2.4500
v 0.5800 0.6900 2.3700
v 0.5800 0.6300 2.3700
f 1318/16 1317/16 1316/16 1315/16
v 0.5000 0.6300 2.3700
v 0.5000 0.6900 2.3700
v 0.5000 0.6900 2.4500
v 0.5000 0.6300 2.4500
f 1322/16 1321/16 1320/16 1319/16
v 0.5800 0.6300 2.3700
v 0.5000 0.6300 2.3700
v 0.5000 0.6300 2.4500
v 0.5800 0.6300 2.4500
f 1326/16 1325/16 1324/16 1323/16
v 0.5800 0.6900 2.4500
v 0.5000 0.6900 2.4500
v 0.5000 0.6900 2.3700
v 0.5800 0.6900 2.3700
f 1330/16 1329/16 1328/16 1327/16
v 0.5800 0.6900 2.3700
v 0.5000 0.6900 2.3700
v 0.5000 0.6300 2.3700
v 0.5800 0.6300 2.3700
f 1334/16 1333/16 1332/16 1331/16
v 0.5800 0.6300 2.4500
v 0.5000 0.6300 2.4500
v 0.5000 0.6900 2.4500
v 0.5800 0.6900 2.4500
f 1338/16 1337/16 1336/16 1335/16
v -0.5000 0.6300 1.1300
v -0.5000 0.6900 1.1300
v -0.5000 0.6900 1.0500
v -0.5000 0.6300 1.0500
f 1342/16 1341/16 1340/16 1339/16
v -0.5800 0.6300 1.0500
v -0.5800 0.6900 1.0500
v -0.5800 0.6900 1.1300
v -0.5800 0.6300 1.1300
f 1346/16 1345/16 1344/16 1343/16
v -0.5000 0.6300 1.0500
v -0.5800 0.6300 1.0500
v -0.5800 0.6300 1.1300
v -0.5000 0.6300 1.1300
f 1350/16 1349/16 1348/16 1347/16
v -0.5000 0.6900 1.1300
v -0.5800 0.6900 1.1300
v -0.5800 0.6900 1.0500
v -0.5000 0.6900 1.0500
f 1354/16 1353/16 1352/16 1351/16
v -0.5000 0.6900 1.0500
v -0.5800 0.6900 1.0500
v -0.5800 0.6300 1.0500
v -0.5000 0.6300 1.0500
f 1358/16 1357/16 1356/16 1355/16
v -0.5000 0.6300 1.1300
v -0.5800 0.6300 1.1300
v -0.5800 0.6900 1.1300
v -0.5000 0.6900 1.1300
f 1362/16 1361/16 1360/16 1359/16
v -0.5000 0.6300 2.4500
v -0.5000 0.6900 2.4500
v -0.5000 0.6900 2.3700
v -0.5000 0.6300 2.3700
f 1366/16 1365/16 1364/16 1363/16
v -0.5800 0.6300 2.3700
v -0.5800 0.6900 2.3700
v -0.5800 0.6900 2.4500
v -0.5800 0.6300 2.4500
f 1370/16 1369/16 1368/16 1367/16
v -0.5000 0.6300 2.3700
v -0.5800 0.6300 2.3700
v -0.5800 0.6300 2.4500
v -0.5000 0.6300 2.4500
f 1374/16 1373/16 1372/16 1371/16
v -0.5000 0.6900 2.4500
v -0.5800 0.6900 2.4500
v -0.5800 0.6900 2.3700
v -0.5000 0.6900 2.3700
f 1378/16 1377/16 1376/16 1375/16
v -0.5000 0.6900 2.3700
v -0.5800 0.6900 2.3700
v -0.5800 0.6300 2.3700
v -0.5000 0.6300 2.3700
f 1382/16 1381/16 1380/16 1379/16
v -0.5000 0.6300 2.4500
v -0.5800 0.6300 2.4500
v -0.5800 0.6900 2.4500
v -0.5000 0.6900 2.4500
f 1386/16 1385/16 1384/16 1383/16
v -1.8200 0.6300 1.1300
v -1.8200 0.6900 1.1300
v -1.8200 0.6900 1.0500
v -1.8200 0.6300 1.0500
f 1390/16 1389/16 1388/16 1387/16
v -1.9000 0.6300 1.0500
v -1.9000 0.6900 1.0500
v -1.9000 0.6900 1.1300
v -1.9000 0.6300 1.1300
f 1394/16 1393/16 1392/16 1391/16
v -1.8200 0.6300 1.0500
v -1.9000 0.6300 1.0500
v -1.9000 0.6300 1.1300
v -1.8200 0.6300 1.1300
f 1398/16 1397/16 1396/16 1395/16
v -1.8200 0.6900 1.1300
v -1.9000 0.6900 1.1300
v -1.9000 0.6900 1.0500
v -1.8200 0.6900 1.0500
f 1402/16 1401/16 1400/16 1399/16
v -1.8200 0.6900 1.0500
v -1.9000 0.6900 1.0500
v -1.9000 0.6300 1.0500
v -1.8200 0.6300 1.0500
f 1406/16 1405/16 1404/16 1403/16
v -1.8200 0.6300 1.1300
v -1.9000 0.6300 1.1300
v -1.9000 0.6900 1.1300
v -1.8200 0.6900 1.1300
f 1410/16 1409/16 1408/16 1407/16
v -1.8200 0.6300 2.4500
v -1.8200 0.6900 2.4500
v -1.8200 0.6900 2.3700
v -1.8200 0.6300 2.3700
f 1414/16 1413/16 1412/16 1411/16
v -1.9000 0.6300 2.3700
v -1.9000 0.6900 2.3700
v -1.9000 0.6900 2.4500
v -1.9000 0.6300 2.4500
f 1418/16 1417/16 1416/16 1415/16
v -1.8200 0.6300 2.3700
v -1.9000 0.6300 2.3700
v -1.9000 0.6300 2.4500
v -1.8200 0.6300 2.4500
f 1422/16 1421/16 1420/16 1419/16
v -1.8200 0.6900 2.4500
v -1.9000 0.6900 2.4500
v -1.9000 0.6900 2.3700
v -1.8200 0.6900 2.3700
f 1426/16 1425/16 1424/16 1423/16
v -1.8200 0.6900 2.3700
v -1.9000 0.6900 2.3700
v -1.9000 0.6300 2.3700
v -1.8200 0.6300 2.3700
f 1430/16 1429/16 1428/16 1427/16
v -1.8200 0.6300 2.4500
v -1.9000 0.6300 2.4500
v -1.9000 0.6900 2.4500
v -1.8200 0.6900 2.4500
f 1434/16 1433/16 1432/16 1431/16
