# Walk of Industry low-poly (generated, wi_lib.py)
mtllib wi.mtl
vt 0 0
vt 0.03125 0.03125
vt 0.09375 0.03125
vt 0.15625 0.03125
vt 0.21875 0.03125
vt 0.28125 0.03125
vt 0.34375 0.03125
vt 0.40625 0.03125
vt 0.46875 0.03125
vt 0.53125 0.03125
vt 0.59375 0.03125
vt 0.65625 0.03125
vt 0.71875 0.03125
vt 0.78125 0.03125
vt 0.84375 0.03125
vt 0.90625 0.03125
vt 0.96875 0.03125
vt 0.03125 0.09375
vt 0.09375 0.09375
vt 0.15625 0.09375
vt 0.21875 0.09375
vt 0.28125 0.09375
vt 0.34375 0.09375
vt 0.40625 0.09375
vt 0.46875 0.09375
vt 0.53125 0.09375
vt 0.59375 0.09375
vt 0.65625 0.09375
vt 0.71875 0.09375
vt 0.78125 0.09375
vt 0.84375 0.09375
vt 0.90625 0.09375
vt 0.96875 0.09375
o Base
usemtl wi_palette
v 2.5000 0.0000 2.5000
v 2.5000 0.1600 2.5000
v 2.5000 0.1600 -2.5000
v 2.5000 0.0000 -2.5000
f 4/5 3/5 2/5 1/5
v -2.5000 0.0000 -2.5000
v -2.5000 0.1600 -2.5000
v -2.5000 0.1600 2.5000
v -2.5000 0.0000 2.5000
f 8/5 7/5 6/5 5/5
v 2.5000 0.0000 -2.5000
v -2.5000 0.0000 -2.5000
v -2.5000 0.0000 2.5000
v 2.5000 0.0000 2.5000
f 12/5 11/5 10/5 9/5
v 2.5000 0.1600 2.5000
v -2.5000 0.1600 2.5000
v -2.5000 0.1600 -2.5000
v 2.5000 0.1600 -2.5000
f 16/5 15/5 14/5 13/5
v 2.5000 0.1600 -2.5000
v -2.5000 0.1600 -2.5000
v -2.5000 0.0000 -2.5000
v 2.5000 0.0000 -2.5000
f 20/5 19/5 18/5 17/5
v 2.5000 0.0000 2.5000
v -2.5000 0.0000 2.5000
v -2.5000 0.1600 2.5000
v 2.5000 0.1600 2.5000
f 24/5 23/5 22/5 21/5
v 2.4500 0.0000 0.5500
v 2.4500 0.5000 0.5500
v 2.4500 0.5000 -2.4500
v 2.4500 0.0000 -2.4500
f 28/7 27/7 26/7 25/7
v -2.4500 0.0000 -2.4500
v -2.4500 0.5000 -2.4500
v -2.4500 0.5000 0.5500
v -2.4500 0.0000 0.5500
f 32/7 31/7 30/7 29/7
v 2.4500 0.0000 -2.4500
v -2.4500 0.0000 -2.4500
v -2.4500 0.0000 0.5500
v 2.4500 0.0000 0.5500
f 36/7 35/7 34/7 33/7
v 2.4500 0.5000 0.5500
v -2.4500 0.5000 0.5500
v -2.4500 0.5000 -2.4500
v 2.4500 0.5000 -2.4500
f 40/7 39/7 38/7 37/7
v 2.4500 0.5000 -2.4500
v -2.4500 0.5000 -2.4500
v -2.4500 0.0000 -2.4500
v 2.4500 0.0000 -2.4500
f 44/7 43/7 42/7 41/7
v 2.4500 0.0000 0.5500
v -2.4500 0.0000 0.5500
v -2.4500 0.5000 0.5500
v 2.4500 0.5000 0.5500
f 48/7 47/7 46/7 45/7
v 2.4500 0.5000 0.5500
v 2.4500 0.7400 0.5500
v 2.4500 0.7400 -2.4500
v 2.4500 0.5000 -2.4500
f 52/8 51/8 50/8 49/8
v 2.3900 0.5000 -2.4500
v 2.3900 0.7400 -2.4500
v 2.3900 0.7400 0.5500
v 2.3900 0.5000 0.5500
f 56/8 55/8 54/8 53/8
v 2.4500 0.5000 -2.4500
v 2.3900 0.5000 -2.4500
v 2.3900 0.5000 0.5500
v 2.4500 0.5000 0.5500
f 60/8 59/8 58/8 57/8
v 2.4500 0.7400 0.5500
v 2.3900 0.7400 0.5500
v 2.3900 0.7400 -2.4500
v 2.4500 0.7400 -2.4500
f 64/8 63/8 62/8 61/8
v 2.4500 0.7400 -2.4500
v 2.3900 0.7400 -2.4500
v 2.3900 0.5000 -2.4500
v 2.4500 0.5000 -2.4500
f 68/8 67/8 66/8 65/8
v 2.4500 0.5000 0.5500
v 2.3900 0.5000 0.5500
v 2.3900 0.7400 0.5500
v 2.4500 0.7400 0.5500
f 72/8 71/8 70/8 69/8
v -2.3900 0.5000 0.5500
v -2.3900 0.7400 0.5500
v -2.3900 0.7400 -2.4500
v -2.3900 0.5000 -2.4500
f 76/8 75/8 74/8 73/8
v -2.4500 0.5000 -2.4500
v -2.4500 0.7400 -2.4500
v -2.4500 0.7400 0.5500
v -2.4500 0.5000 0.5500
f 80/8 79/8 78/8 77/8
v -2.3900 0.5000 -2.4500
v -2.4500 0.5000 -2.4500
v -2.4500 0.5000 0.5500
v -2.3900 0.5000 0.5500
f 84/8 83/8 82/8 81/8
v -2.3900 0.7400 0.5500
v -2.4500 0.7400 0.5500
v -2.4500 0.7400 -2.4500
v -2.3900 0.7400 -2.4500
f 88/8 87/8 86/8 85/8
v -2.3900 0.7400 -2.4500
v -2.4500 0.7400 -2.4500
v -2.4500 0.5000 -2.4500
v -2.3900 0.5000 -2.4500
f 92/8 91/8 90/8 89/8
v -2.3900 0.5000 0.5500
v -2.4500 0.5000 0.5500
v -2.4500 0.7400 0.5500
v -2.3900 0.7400 0.5500
f 96/8 95/8 94/8 93/8
v 1.9500 0.5000 -1.0000
v 1.9500 0.6200 -1.0000
v 1.9500 0.6200 -2.5000
v 1.9500 0.5000 -2.5000
f 100/7 99/7 98/7 97/7
v 0.4500 0.5000 -2.5000
v 0.4500 0.6200 -2.5000
v 0.4500 0.6200 -1.0000
v 0.4500 0.5000 -1.0000
f 104/7 103/7 102/7 101/7
v 1.9500 0.5000 -2.5000
v 0.4500 0.5000 -2.5000
v 0.4500 0.5000 -1.0000
v 1.9500 0.5000 -1.0000
f 108/7 107/7 106/7 105/7
v 1.9500 0.6200 -1.0000
v 0.4500 0.6200 -1.0000
v 0.4500 0.6200 -2.5000
v 1.9500 0.6200 -2.5000
f 112/7 111/7 110/7 109/7
v 1.9500 0.6200 -2.5000
v 0.4500 0.6200 -2.5000
v 0.4500 0.5000 -2.5000
v 1.9500 0.5000 -2.5000
f 116/7 115/7 114/7 113/7
v 1.9500 0.5000 -1.0000
v 0.4500 0.5000 -1.0000
v 0.4500 0.6200 -1.0000
v 1.9500 0.6200 -1.0000
f 120/7 119/7 118/7 117/7
v 1.8200 0.6200 -1.1300
v 1.8200 0.6300 -1.1300
v 1.8200 0.6300 -2.3700
v 1.8200 0.6200 -2.3700
f 124/6 123/6 122/6 121/6
v 0.5800 0.6200 -2.3700
v 0.5800 0.6300 -2.3700
v 0.5800 0.6300 -1.1300
v 0.5800 0.6200 -1.1300
f 128/6 127/6 126/6 125/6
v 1.8200 0.6200 -2.3700
v 0.5800 0.6200 -2.3700
v 0.5800 0.6200 -1.1300
v 1.8200 0.6200 -1.1300
f 132/6 131/6 130/6 129/6
v 1.8200 0.6300 -1.1300
v 0.5800 0.6300 -1.1300
v 0.5800 0.6300 -2.3700
v 1.8200 0.6300 -2.3700
f 136/6 135/6 134/6 133/6
v 1.8200 0.6300 -2.3700
v 0.5800 0.6300 -2.3700
v 0.5800 0.6200 -2.3700
v 1.8200 0.6200 -2.3700
f 140/6 139/6 138/6 137/6
v 1.8200 0.6200 -1.1300
v 0.5800 0.6200 -1.1300
v 0.5800 0.6300 -1.1300
v 1.8200 0.6300 -1.1300
f 144/6 143/6 142/6 141/6
v 1.5600 0.6270 -1.3500
v 1.5600 0.6370 -1.3500
v 1.5600 0.6370 -2.1500
v 1.5600 0.6270 -2.1500
f 148/8 147/8 146/8 145/8
v 1.4400 0.6270 -2.1500
v 1.4400 0.6370 -2.1500
v 1.4400 0.6370 -1.3500
v 1.4400 0.6270 -1.3500
f 152/8 151/8 150/8 149/8
v 1.5600 0.6270 -2.1500
v 1.4400 0.6270 -2.1500
v 1.4400 0.6270 -1.3500
v 1.5600 0.6270 -1.3500
f 156/8 155/8 154/8 153/8
v 1.5600 0.6370 -1.3500
v 1.4400 0.6370 -1.3500
v 1.4400 0.6370 -2.1500
v 1.5600 0.6370 -2.1500
f 160/8 159/8 158/8 157/8
v 1.5600 0.6370 -2.1500
v 1.4400 0.6370 -2.1500
v 1.4400 0.6270 -2.1500
v 1.5600 0.6270 -2.1500
f 164/8 163/8 162/8 161/8
v 1.5600 0.6270 -1.3500
v 1.4400 0.6270 -1.3500
v 1.4400 0.6370 -1.3500
v 1.5600 0.6370 -1.3500
f 168/8 167/8 166/8 165/8
v 0.9600 0.6270 -1.3500
v 0.9600 0.6370 -1.3500
v 0.9600 0.6370 -2.1500
v 0.9600 0.6270 -2.1500
f 172/8 171/8 170/8 169/8
v 0.8400 0.6270 -2.1500
v 0.8400 0.6370 -2.1500
v 0.8400 0.6370 -1.3500
v 0.8400 0.6270 -1.3500
f 176/8 175/8 174/8 173/8
v 0.9600 0.6270 -2.1500
v 0.8400 0.6270 -2.1500
v 0.8400 0.6270 -1.3500
v 0.9600 0.6270 -1.3500
f 180/8 179/8 178/8 177/8
v 0.9600 0.6370 -1.3500
v 0.8400 0.6370 -1.3500
v 0.8400 0.6370 -2.1500
v 0.9600 0.6370 -2.1500
f 184/8 183/8 182/8 181/8
v 0.9600 0.6370 -2.1500
v 0.8400 0.6370 -2.1500
v 0.8400 0.6270 -2.1500
v 0.9600 0.6270 -2.1500
f 188/8 187/8 186/8 185/8
v 0.9600 0.6270 -1.3500
v 0.8400 0.6270 -1.3500
v 0.8400 0.6370 -1.3500
v 0.9600 0.6370 -1.3500
f 192/8 191/8 190/8 189/8
v 1.5000 0.6270 -1.6900
v 1.5000 0.6370 -1.6900
v 1.5000 0.6370 -1.8100
v 1.5000 0.6270 -1.8100
f 196/8 195/8 194/8 193/8
v 0.9000 0.6270 -1.8100
v 0.9000 0.6370 -1.8100
v 0.9000 0.6370 -1.6900
v 0.9000 0.6270 -1.6900
f 200/8 199/8 198/8 197/8
v 1.5000 0.6270 -1.8100
v 0.9000 0.6270 -1.8100
v 0.9000 0.6270 -1.6900
v 1.5000 0.6270 -1.6900
f 204/8 203/8 202/8 201/8
v 1.5000 0.6370 -1.6900
v 0.9000 0.6370 -1.6900
v 0.9000 0.6370 -1.8100
v 1.5000 0.6370 -1.8100
f 208/8 207/8 206/8 205/8
v 1.5000 0.6370 -1.8100
v 0.9000 0.6370 -1.8100
v 0.9000 0.6270 -1.8100
v 1.5000 0.6270 -1.8100
f 212/8 211/8 210/8 209/8
v 1.5000 0.6270 -1.6900
v 0.9000 0.6270 -1.6900
v 0.9000 0.6370 -1.6900
v 1.5000 0.6370 -1.6900
f 216/8 215/8 214/8 213/8
v -0.4500 0.5000 -1.0000
v -0.4500 0.6200 -1.0000
v -0.4500 0.6200 -2.5000
v -0.4500 0.5000 -2.5000
f 220/7 219/7 218/7 217/7
v -1.9500 0.5000 -2.5000
v -1.9500 0.6200 -2.5000
v -1.9500 0.6200 -1.0000
v -1.9500 0.5000 -1.0000
f 224/7 223/7 222/7 221/7
v -0.4500 0.5000 -2.5000
v -1.9500 0.5000 -2.5000
v -1.9500 0.5000 -1.0000
v -0.4500 0.5000 -1.0000
f 228/7 227/7 226/7 225/7
v -0.4500 0.6200 -1.0000
v -1.9500 0.6200 -1.0000
v -1.9500 0.6200 -2.5000
v -0.4500 0.6200 -2.5000
f 232/7 231/7 230/7 229/7
v -0.4500 0.6200 -2.5000
v -1.9500 0.6200 -2.5000
v -1.9500 0.5000 -2.5000
v -0.4500 0.5000 -2.5000
f 236/7 235/7 234/7 233/7
v -0.4500 0.5000 -1.0000
v -1.9500 0.5000 -1.0000
v -1.9500 0.6200 -1.0000
v -0.4500 0.6200 -1.0000
f 240/7 239/7 238/7 237/7
v -0.5800 0.6200 -1.1300
v -0.5800 0.6300 -1.1300
v -0.5800 0.6300 -2.3700
v -0.5800 0.6200 -2.3700
f 244/6 243/6 242/6 241/6
v -1.8200 0.6200 -2.3700
v -1.8200 0.6300 -2.3700
v -1.8200 0.6300 -1.1300
v -1.8200 0.6200 -1.1300
f 248/6 247/6 246/6 245/6
v -0.5800 0.6200 -2.3700
v -1.8200 0.6200 -2.3700
v -1.8200 0.6200 -1.1300
v -0.5800 0.6200 -1.1300
f 252/6 251/6 250/6 249/6
v -0.5800 0.6300 -1.1300
v -1.8200 0.6300 -1.1300
v -1.8200 0.6300 -2.3700
v -0.5800 0.6300 -2.3700
f 256/6 255/6 254/6 253/6
v -0.5800 0.6300 -2.3700
v -1.8200 0.6300 -2.3700
v -1.8200 0.6200 -2.3700
v -0.5800 0.6200 -2.3700
f 260/6 259/6 258/6 257/6
v -0.5800 0.6200 -1.1300
v -1.8200 0.6200 -1.1300
v -1.8200 0.6300 -1.1300
v -0.5800 0.6300 -1.1300
f 264/6 263/6 262/6 261/6
v -0.8400 0.6270 -1.3500
v -0.8400 0.6370 -1.3500
v -0.8400 0.6370 -2.1500
v -0.8400 0.6270 -2.1500
f 268/8 267/8 266/8 265/8
v -0.9600 0.6270 -2.1500
v -0.9600 0.6370 -2.1500
v -0.9600 0.6370 -1.3500
v -0.9600 0.6270 -1.3500
f 272/8 271/8 270/8 269/8
v -0.8400 0.6270 -2.1500
v -0.9600 0.6270 -2.1500
v -0.9600 0.6270 -1.3500
v -0.8400 0.6270 -1.3500
f 276/8 275/8 274/8 273/8
v -0.8400 0.6370 -1.3500
v -0.9600 0.6370 -1.3500
v -0.9600 0.6370 -2.1500
v -0.8400 0.6370 -2.1500
f 280/8 279/8 278/8 277/8
v -0.8400 0.6370 -2.1500
v -0.9600 0.6370 -2.1500
v -0.9600 0.6270 -2.1500
v -0.8400 0.6270 -2.1500
f 284/8 283/8 282/8 281/8
v -0.8400 0.6270 -1.3500
v -0.9600 0.6270 -1.3500
v -0.9600 0.6370 -1.3500
v -0.8400 0.6370 -1.3500
f 288/8 287/8 286/8 285/8
v -1.4400 0.6270 -1.3500
v -1.4400 0.6370 -1.3500
v -1.4400 0.6370 -2.1500
v -1.4400 0.6270 -2.1500
f 292/8 291/8 290/8 289/8
v -1.5600 0.6270 -2.1500
v -1.5600 0.6370 -2.1500
v -1.5600 0.6370 -1.3500
v -1.5600 0.6270 -1.3500
f 296/8 295/8 294/8 293/8
v -1.4400 0.6270 -2.1500
v -1.5600 0.6270 -2.1500
v -1.5600 0.6270 -1.3500
v -1.4400 0.6270 -1.3500
f 300/8 299/8 298/8 297/8
v -1.4400 0.6370 -1.3500
v -1.5600 0.6370 -1.3500
v -1.5600 0.6370 -2.1500
v -1.4400 0.6370 -2.1500
f 304/8 303/8 302/8 301/8
v -1.4400 0.6370 -2.1500
v -1.5600 0.6370 -2.1500
v -1.5600 0.6270 -2.1500
v -1.4400 0.6270 -2.1500
f 308/8 307/8 306/8 305/8
v -1.4400 0.6270 -1.3500
v -1.5600 0.6270 -1.3500
v -1.5600 0.6370 -1.3500
v -1.4400 0.6370 -1.3500
f 312/8 311/8 310/8 309/8
v -0.9000 0.6270 -1.6900
v -0.9000 0.6370 -1.6900
v -0.9000 0.6370 -1.8100
v -0.9000 0.6270 -1.8100
f 316/8 315/8 314/8 313/8
v -1.5000 0.6270 -1.8100
v -1.5000 0.6370 -1.8100
v -1.5000 0.6370 -1.6900
v -1.5000 0.6270 -1.6900
f 320/8 319/8 318/8 317/8
v -0.9000 0.6270 -1.8100
v -1.5000 0.6270 -1.8100
v -1.5000 0.6270 -1.6900
v -0.9000 0.6270 -1.6900
f 324/8 323/8 322/8 321/8
v -0.9000 0.6370 -1.6900
v -1.5000 0.6370 -1.6900
v -1.5000 0.6370 -1.8100
v -0.9000 0.6370 -1.8100
f 328/8 327/8 326/8 325/8
v -0.9000 0.6370 -1.8100
v -1.5000 0.6370 -1.8100
v -1.5000 0.6270 -1.8100
v -0.9000 0.6270 -1.8100
f 332/8 331/8 330/8 329/8
v -0.9000 0.6270 -1.6900
v -1.5000 0.6270 -1.6900
v -1.5000 0.6370 -1.6900
v -0.9000 0.6370 -1.6900
f 336/8 335/8 334/8 333/8
v 1.9500 0.5000 0.4500
v 1.9500 0.6200 0.4500
v 1.9500 0.6200 -1.0500
v 1.9500 0.5000 -1.0500
f 340/7 339/7 338/7 337/7
v 0.4500 0.5000 -1.0500
v 0.4500 0.6200 -1.0500
v 0.4500 0.6200 0.4500
v 0.4500 0.5000 0.4500
f 344/7 343/7 342/7 341/7
v 1.9500 0.5000 -1.0500
v 0.4500 0.5000 -1.0500
v 0.4500 0.5000 0.4500
v 1.9500 0.5000 0.4500
f 348/7 347/7 346/7 345/7
v 1.9500 0.6200 0.4500
v 0.4500 0.6200 0.4500
v 0.4500 0.6200 -1.0500
v 1.9500 0.6200 -1.0500
f 352/7 351/7 350/7 349/7
v 1.9500 0.6200 -1.0500
v 0.4500 0.6200 -1.0500
v 0.4500 0.5000 -1.0500
v 1.9500 0.5000 -1.0500
f 356/7 355/7 354/7 353/7
v 1.9500 0.5000 0.4500
v 0.4500 0.5000 0.4500
v 0.4500 0.6200 0.4500
v 1.9500 0.6200 0.4500
f 360/7 359/7 358/7 357/7
v 1.8200 0.6200 0.3200
v 1.8200 0.6300 0.3200
v 1.8200 0.6300 -0.9200
v 1.8200 0.6200 -0.9200
f 364/6 363/6 362/6 361/6
v 0.5800 0.6200 -0.9200
v 0.5800 0.6300 -0.9200
v 0.5800 0.6300 0.3200
v 0.5800 0.6200 0.3200
f 368/6 367/6 366/6 365/6
v 1.8200 0.6200 -0.9200
v 0.5800 0.6200 -0.9200
v 0.5800 0.6200 0.3200
v 1.8200 0.6200 0.3200
f 372/6 371/6 370/6 369/6
v 1.8200 0.6300 0.3200
v 0.5800 0.6300 0.3200
v 0.5800 0.6300 -0.9200
v 1.8200 0.6300 -0.9200
f 376/6 375/6 374/6 373/6
v 1.8200 0.6300 -0.9200
v 0.5800 0.6300 -0.9200
v 0.5800 0.6200 -0.9200
v 1.8200 0.6200 -0.9200
f 380/6 379/6 378/6 377/6
v 1.8200 0.6200 0.3200
v 0.5800 0.6200 0.3200
v 0.5800 0.6300 0.3200
v 1.8200 0.6300 0.3200
f 384/6 383/6 382/6 381/6
v 1.5600 0.6270 0.1000
v 1.5600 0.6370 0.1000
v 1.5600 0.6370 -0.7000
v 1.5600 0.6270 -0.7000
f 388/8 387/8 386/8 385/8
v 1.4400 0.6270 -0.7000
v 1.4400 0.6370 -0.7000
v 1.4400 0.6370 0.1000
v 1.4400 0.6270 0.1000
f 392/8 391/8 390/8 389/8
v 1.5600 0.6270 -0.7000
v 1.4400 0.6270 -0.7000
v 1.4400 0.6270 0.1000
v 1.5600 0.6270 0.1000
f 396/8 395/8 394/8 393/8
v 1.5600 0.6370 0.1000
v 1.4400 0.6370 0.1000
v 1.4400 0.6370 -0.7000
v 1.5600 0.6370 -0.7000
f 400/8 399/8 398/8 397/8
v 1.5600 0.6370 -0.7000
v 1.4400 0.6370 -0.7000
v 1.4400 0.6270 -0.7000
v 1.5600 0.6270 -0.7000
f 404/8 403/8 402/8 401/8
v 1.5600 0.6270 0.1000
v 1.4400 0.6270 0.1000
v 1.4400 0.6370 0.1000
v 1.5600 0.6370 0.1000
f 408/8 407/8 406/8 405/8
v 0.9600 0.6270 0.1000
v 0.9600 0.6370 0.1000
v 0.9600 0.6370 -0.7000
v 0.9600 0.6270 -0.7000
f 412/8 411/8 410/8 409/8
v 0.8400 0.6270 -0.7000
v 0.8400 0.6370 -0.7000
v 0.8400 0.6370 0.1000
v 0.8400 0.6270 0.1000
f 416/8 415/8 414/8 413/8
v 0.9600 0.6270 -0.7000
v 0.8400 0.6270 -0.7000
v 0.8400 0.6270 0.1000
v 0.9600 0.6270 0.1000
f 420/8 419/8 418/8 417/8
v 0.9600 0.6370 0.1000
v 0.8400 0.6370 0.1000
v 0.8400 0.6370 -0.7000
v 0.9600 0.6370 -0.7000
f 424/8 423/8 422/8 421/8
v 0.9600 0.6370 -0.7000
v 0.8400 0.6370 -0.7000
v 0.8400 0.6270 -0.7000
v 0.9600 0.6270 -0.7000
f 428/8 427/8 426/8 425/8
v 0.9600 0.6270 0.1000
v 0.8400 0.6270 0.1000
v 0.8400 0.6370 0.1000
v 0.9600 0.6370 0.1000
f 432/8 431/8 430/8 429/8
v 1.5000 0.6270 -0.2400
v 1.5000 0.6370 -0.2400
v 1.5000 0.6370 -0.3600
v 1.5000 0.6270 -0.3600
f 436/8 435/8 434/8 433/8
v 0.9000 0.6270 -0.3600
v 0.9000 0.6370 -0.3600
v 0.9000 0.6370 -0.2400
v 0.9000 0.6270 -0.2400
f 440/8 439/8 438/8 437/8
v 1.5000 0.6270 -0.3600
v 0.9000 0.6270 -0.3600
v 0.9000 0.6270 -0.2400
v 1.5000 0.6270 -0.2400
f 444/8 443/8 442/8 441/8
v 1.5000 0.6370 -0.2400
v 0.9000 0.6370 -0.2400
v 0.9000 0.6370 -0.3600
v 1.5000 0.6370 -0.3600
f 448/8 447/8 446/8 445/8
v 1.5000 0.6370 -0.3600
v 0.9000 0.6370 -0.3600
v 0.9000 0.6270 -0.3600
v 1.5000 0.6270 -0.3600
f 452/8 451/8 450/8 449/8
v 1.5000 0.6270 -0.2400
v 0.9000 0.6270 -0.2400
v 0.9000 0.6370 -0.2400
v 1.5000 0.6370 -0.2400
f 456/8 455/8 454/8 453/8
v -0.4500 0.5000 0.4500
v -0.4500 0.6200 0.4500
v -0.4500 0.6200 -1.0500
v -0.4500 0.5000 -1.0500
f 460/7 459/7 458/7 457/7
v -1.9500 0.5000 -1.0500
v -1.9500 0.6200 -1.0500
v -1.9500 0.6200 0.4500
v -1.9500 0.5000 0.4500
f 464/7 463/7 462/7 461/7
v -0.4500 0.5000 -1.0500
v -1.9500 0.5000 -1.0500
v -1.9500 0.5000 0.4500
v -0.4500 0.5000 0.4500
f 468/7 467/7 466/7 465/7
v -0.4500 0.6200 0.4500
v -1.9500 0.6200 0.4500
v -1.9500 0.6200 -1.0500
v -0.4500 0.6200 -1.0500
f 472/7 471/7 470/7 469/7
v -0.4500 0.6200 -1.0500
v -1.9500 0.6200 -1.0500
v -1.9500 0.5000 -1.0500
v -0.4500 0.5000 -1.0500
f 476/7 475/7 474/7 473/7
v -0.4500 0.5000 0.4500
v -1.9500 0.5000 0.4500
v -1.9500 0.6200 0.4500
v -0.4500 0.6200 0.4500
f 480/7 479/7 478/7 477/7
v -0.5800 0.6200 0.3200
v -0.5800 0.6300 0.3200
v -0.5800 0.6300 -0.9200
v -0.5800 0.6200 -0.9200
f 484/6 483/6 482/6 481/6
v -1.8200 0.6200 -0.9200
v -1.8200 0.6300 -0.9200
v -1.8200 0.6300 0.3200
v -1.8200 0.6200 0.3200
f 488/6 487/6 486/6 485/6
v -0.5800 0.6200 -0.9200
v -1.8200 0.6200 -0.9200
v -1.8200 0.6200 0.3200
v -0.5800 0.6200 0.3200
f 492/6 491/6 490/6 489/6
v -0.5800 0.6300 0.3200
v -1.8200 0.6300 0.3200
v -1.8200 0.6300 -0.9200
v -0.5800 0.6300 -0.9200
f 496/6 495/6 494/6 493/6
v -0.5800 0.6300 -0.9200
v -1.8200 0.6300 -0.9200
v -1.8200 0.6200 -0.9200
v -0.5800 0.6200 -0.9200
f 500/6 499/6 498/6 497/6
v -0.5800 0.6200 0.3200
v -1.8200 0.6200 0.3200
v -1.8200 0.6300 0.3200
v -0.5800 0.6300 0.3200
f 504/6 503/6 502/6 501/6
v -0.8400 0.6270 0.1000
v -0.8400 0.6370 0.1000
v -0.8400 0.6370 -0.7000
v -0.8400 0.6270 -0.7000
f 508/8 507/8 506/8 505/8
v -0.9600 0.6270 -0.7000
v -0.9600 0.6370 -0.7000
v -0.9600 0.6370 0.1000
v -0.9600 0.6270 0.1000
f 512/8 511/8 510/8 509/8
v -0.8400 0.6270 -0.7000
v -0.9600 0.6270 -0.7000
v -0.9600 0.6270 0.1000
v -0.8400 0.6270 0.1000
f 516/8 515/8 514/8 513/8
v -0.8400 0.6370 0.1000
v -0.9600 0.6370 0.1000
v -0.9600 0.6370 -0.7000
v -0.8400 0.6370 -0.7000
f 520/8 519/8 518/8 517/8
v -0.8400 0.6370 -0.7000
v -0.9600 0.6370 -0.7000
v -0.9600 0.6270 -0.7000
v -0.8400 0.6270 -0.7000
f 524/8 523/8 522/8 521/8
v -0.8400 0.6270 0.1000
v -0.9600 0.6270 0.1000
v -0.9600 0.6370 0.1000
v -0.8400 0.6370 0.1000
f 528/8 527/8 526/8 525/8
v -1.4400 0.6270 0.1000
v -1.4400 0.6370 0.1000
v -1.4400 0.6370 -0.7000
v -1.4400 0.6270 -0.7000
f 532/8 531/8 530/8 529/8
v -1.5600 0.6270 -0.7000
v -1.5600 0.6370 -0.7000
v -1.5600 0.6370 0.1000
v -1.5600 0.6270 0.1000
f 536/8 535/8 534/8 533/8
v -1.4400 0.6270 -0.7000
v -1.5600 0.6270 -0.7000
v -1.5600 0.6270 0.1000
v -1.4400 0.6270 0.1000
f 540/8 539/8 538/8 537/8
v -1.4400 0.6370 0.1000
v -1.5600 0.6370 0.1000
v -1.5600 0.6370 -0.7000
v -1.4400 0.6370 -0.7000
f 544/8 543/8 542/8 541/8
v -1.4400 0.6370 -0.7000
v -1.5600 0.6370 -0.7000
v -1.5600 0.6270 -0.7000
v -1.4400 0.6270 -0.7000
f 548/8 547/8 546/8 545/8
v -1.4400 0.6270 0.1000
v -1.5600 0.6270 0.1000
v -1.5600 0.6370 0.1000
v -1.4400 0.6370 0.1000
f 552/8 551/8 550/8 549/8
v -0.9000 0.6270 -0.2400
v -0.9000 0.6370 -0.2400
v -0.9000 0.6370 -0.3600
v -0.9000 0.6270 -0.3600
f 556/8 555/8 554/8 553/8
v -1.5000 0.6270 -0.3600
v -1.5000 0.6370 -0.3600
v -1.5000 0.6370 -0.2400
v -1.5000 0.6270 -0.2400
f 560/8 559/8 558/8 557/8
v -0.9000 0.6270 -0.3600
v -1.5000 0.6270 -0.3600
v -1.5000 0.6270 -0.2400
v -0.9000 0.6270 -0.2400
f 564/8 563/8 562/8 561/8
v -0.9000 0.6370 -0.2400
v -1.5000 0.6370 -0.2400
v -1.5000 0.6370 -0.3600
v -0.9000 0.6370 -0.3600
f 568/8 567/8 566/8 565/8
v -0.9000 0.6370 -0.3600
v -1.5000 0.6370 -0.3600
v -1.5000 0.6270 -0.3600
v -0.9000 0.6270 -0.3600
f 572/8 571/8 570/8 569/8
v -0.9000 0.6270 -0.2400
v -1.5000 0.6270 -0.2400
v -1.5000 0.6370 -0.2400
v -0.9000 0.6370 -0.2400
f 576/8 575/8 574/8 573/8
v 1.9000 0.6300 -2.3700
v 1.9000 0.6900 -2.3700
v 1.9000 0.6900 -2.4500
v 1.9000 0.6300 -2.4500
f 580/16 579/16 578/16 577/16
v 1.8200 0.6300 -2.4500
v 1.8200 0.6900 -2.4500
v 1.8200 0.6900 -2.3700
v 1.8200 0.6300 -2.3700
f 584/16 583/16 582/16 581/16
v 1.9000 0.6300 -2.4500
v 1.8200 0.6300 -2.4500
v 1.8200 0.6300 -2.3700
v 1.9000 0.6300 -2.3700
f 588/16 587/16 586/16 585/16
v 1.9000 0.6900 -2.3700
v 1.8200 0.6900 -2.3700
v 1.8200 0.6900 -2.4500
v 1.9000 0.6900 -2.4500
f 592/16 591/16 590/16 589/16
v 1.9000 0.6900 -2.4500
v 1.8200 0.6900 -2.4500
v 1.8200 0.6300 -2.4500
v 1.9000 0.6300 -2.4500
f 596/16 595/16 594/16 593/16
v 1.9000 0.6300 -2.3700
v 1.8200 0.6300 -2.3700
v 1.8200 0.6900 -2.3700
v 1.9000 0.6900 -2.3700
f 600/16 599/16 598/16 597/16
v 1.9000 0.6300 -1.0500
v 1.9000 0.6900 -1.0500
v 1.9000 0.6900 -1.1300
v 1.9000 0.6300 -1.1300
f 604/16 603/16 602/16 601/16
v 1.8200 0.6300 -1.1300
v 1.8200 0.6900 -1.1300
v 1.8200 0.6900 -1.0500
v 1.8200 0.6300 -1.0500
f 608/16 607/16 606/16 605/16
v 1.9000 0.6300 -1.1300
v 1.8200 0.6300 -1.1300
v 1.8200 0.6300 -1.0500
v 1.9000 0.6300 -1.0500
f 612/16 611/16 610/16 609/16
v 1.9000 0.6900 -1.0500
v 1.8200 0.6900 -1.0500
v 1.8200 0.6900 -1.1300
v 1.9000 0.6900 -1.1300
f 616/16 615/16 614/16 613/16
v 1.9000 0.6900 -1.1300
v 1.8200 0.6900 -1.1300
v 1.8200 0.6300 -1.1300
v 1.9000 0.6300 -1.1300
f 620/16 619/16 618/16 617/16
v 1.9000 0.6300 -1.0500
v 1.8200 0.6300 -1.0500
v 1.8200 0.6900 -1.0500
v 1.9000 0.6900 -1.0500
f 624/16 623/16 622/16 621/16
v 0.5800 0.6300 -2.3700
v 0.5800 0.6900 -2.3700
v 0.5800 0.6900 -2.4500
v 0.5800 0.6300 -2.4500
f 628/16 627/16 626/16 625/16
v 0.5000 0.6300 -2.4500
v 0.5000 0.6900 -2.4500
v 0.5000 0.6900 -2.3700
v 0.5000 0.6300 -2.3700
f 632/16 631/16 630/16 629/16
v 0.5800 0.6300 -2.4500
v 0.5000 0.6300 -2.4500
v 0.5000 0.6300 -2.3700
v 0.5800 0.6300 -2.3700
f 636/16 635/16 634/16 633/16
v 0.5800 0.6900 -2.3700
v 0.5000 0.6900 -2.3700
v 0.5000 0.6900 -2.4500
v 0.5800 0.6900 -2.4500
f 640/16 639/16 638/16 637/16
v 0.5800 0.6900 -2.4500
v 0.5000 0.6900 -2.4500
v 0.5000 0.6300 -2.4500
v 0.5800 0.6300 -2.4500
f 644/16 643/16 642/16 641/16
v 0.5800 0.6300 -2.3700
v 0.5000 0.6300 -2.3700
v 0.5000 0.6900 -2.3700
v 0.5800 0.6900 -2.3700
f 648/16 647/16 646/16 645/16
v 0.5800 0.6300 -1.0500
v 0.5800 0.6900 -1.0500
v 0.5800 0.6900 -1.1300
v 0.5800 0.6300 -1.1300
f 652/16 651/16 650/16 649/16
v 0.5000 0.6300 -1.1300
v 0.5000 0.6900 -1.1300
v 0.5000 0.6900 -1.0500
v 0.5000 0.6300 -1.0500
f 656/16 655/16 654/16 653/16
v 0.5800 0.6300 -1.1300
v 0.5000 0.6300 -1.1300
v 0.5000 0.6300 -1.0500
v 0.5800 0.6300 -1.0500
f 660/16 659/16 658/16 657/16
v 0.5800 0.6900 -1.0500
v 0.5000 0.6900 -1.0500
v 0.5000 0.6900 -1.1300
v 0.5800 0.6900 -1.1300
f 664/16 663/16 662/16 661/16
v 0.5800 0.6900 -1.1300
v 0.5000 0.6900 -1.1300
v 0.5000 0.6300 -1.1300
v 0.5800 0.6300 -1.1300
f 668/16 667/16 666/16 665/16
v 0.5800 0.6300 -1.0500
v 0.5000 0.6300 -1.0500
v 0.5000 0.6900 -1.0500
v 0.5800 0.6900 -1.0500
f 672/16 671/16 670/16 669/16
v -0.5000 0.6300 -2.3700
v -0.5000 0.6900 -2.3700
v -0.5000 0.6900 -2.4500
v -0.5000 0.6300 -2.4500
f 676/16 675/16 674/16 673/16
v -0.5800 0.6300 -2.4500
v -0.5800 0.6900 -2.4500
v -0.5800 0.6900 -2.3700
v -0.5800 0.6300 -2.3700
f 680/16 679/16 678/16 677/16
v -0.5000 0.6300 -2.4500
v -0.5800 0.6300 -2.4500
v -0.5800 0.6300 -2.3700
v -0.5000 0.6300 -2.3700
f 684/16 683/16 682/16 681/16
v -0.5000 0.6900 -2.3700
v -0.5800 0.6900 -2.3700
v -0.5800 0.6900 -2.4500
v -0.5000 0.6900 -2.4500
f 688/16 687/16 686/16 685/16
v -0.5000 0.6900 -2.4500
v -0.5800 0.6900 -2.4500
v -0.5800 0.6300 -2.4500
v -0.5000 0.6300 -2.4500
f 692/16 691/16 690/16 689/16
v -0.5000 0.6300 -2.3700
v -0.5800 0.6300 -2.3700
v -0.5800 0.6900 -2.3700
v -0.5000 0.6900 -2.3700
f 696/16 695/16 694/16 693/16
v -0.5000 0.6300 -1.0500
v -0.5000 0.6900 -1.0500
v -0.5000 0.6900 -1.1300
v -0.5000 0.6300 -1.1300
f 700/16 699/16 698/16 697/16
v -0.5800 0.6300 -1.1300
v -0.5800 0.6900 -1.1300
v -0.5800 0.6900 -1.0500
v -0.5800 0.6300 -1.0500
f 704/16 703/16 702/16 701/16
v -0.5000 0.6300 -1.1300
v -0.5800 0.6300 -1.1300
v -0.5800 0.6300 -1.0500
v -0.5000 0.6300 -1.0500
f 708/16 707/16 706/16 705/16
v -0.5000 0.6900 -1.0500
v -0.5800 0.6900 -1.0500
v -0.5800 0.6900 -1.1300
v -0.5000 0.6900 -1.1300
f 712/16 711/16 710/16 709/16
v -0.5000 0.6900 -1.1300
v -0.5800 0.6900 -1.1300
v -0.5800 0.6300 -1.1300
v -0.5000 0.6300 -1.1300
f 716/16 715/16 714/16 713/16
v -0.5000 0.6300 -1.0500
v -0.5800 0.6300 -1.0500
v -0.5800 0.6900 -1.0500
v -0.5000 0.6900 -1.0500
f 720/16 719/16 718/16 717/16
v -1.8200 0.6300 -2.3700
v -1.8200 0.6900 -2.3700
v -1.8200 0.6900 -2.4500
v -1.8200 0.6300 -2.4500
f 724/16 723/16 722/16 721/16
v -1.9000 0.6300 -2.4500
v -1.9000 0.6900 -2.4500
v -1.9000 0.6900 -2.3700
v -1.9000 0.6300 -2.3700
f 728/16 727/16 726/16 725/16
v -1.8200 0.6300 -2.4500
v -1.9000 0.6300 -2.4500
v -1.9000 0.6300 -2.3700
v -1.8200 0.6300 -2.3700
f 732/16 731/16 730/16 729/16
v -1.8200 0.6900 -2.3700
v -1.9000 0.6900 -2.3700
v -1.9000 0.6900 -2.4500
v -1.8200 0.6900 -2.4500
f 736/16 735/16 734/16 733/16
v -1.8200 0.6900 -2.4500
v -1.9000 0.6900 -2.4500
v -1.9000 0.6300 -2.4500
v -1.8200 0.6300 -2.4500
f 740/16 739/16 738/16 737/16
v -1.8200 0.6300 -2.3700
v -1.9000 0.6300 -2.3700
v -1.9000 0.6900 -2.3700
v -1.8200 0.6900 -2.3700
f 744/16 743/16 742/16 741/16
v -1.8200 0.6300 -1.0500
v -1.8200 0.6900 -1.0500
v -1.8200 0.6900 -1.1300
v -1.8200 0.6300 -1.1300
f 748/16 747/16 746/16 745/16
v -1.9000 0.6300 -1.1300
v -1.9000 0.6900 -1.1300
v -1.9000 0.6900 -1.0500
v -1.9000 0.6300 -1.0500
f 752/16 751/16 750/16 749/16
v -1.8200 0.6300 -1.1300
v -1.9000 0.6300 -1.1300
v -1.9000 0.6300 -1.0500
v -1.8200 0.6300 -1.0500
f 756/16 755/16 754/16 753/16
v -1.8200 0.6900 -1.0500
v -1.9000 0.6900 -1.0500
v -1.9000 0.6900 -1.1300
v -1.8200 0.6900 -1.1300
f 760/16 759/16 758/16 757/16
v -1.8200 0.6900 -1.1300
v -1.9000 0.6900 -1.1300
v -1.9000 0.6300 -1.1300
v -1.8200 0.6300 -1.1300
f 764/16 763/16 762/16 761/16
v -1.8200 0.6300 -1.0500
v -1.9000 0.6300 -1.0500
v -1.9000 0.6900 -1.0500
v -1.8200 0.6900 -1.0500
f 768/16 767/16 766/16 765/16
v 1.9000 0.6300 -0.9200
v 1.9000 0.6900 -0.9200
v 1.9000 0.6900 -1.0000
v 1.9000 0.6300 -1.0000
f 772/16 771/16 770/16 769/16
v 1.8200 0.6300 -1.0000
v 1.8200 0.6900 -1.0000
v 1.8200 0.6900 -0.9200
v 1.8200 0.6300 -0.9200
f 776/16 775/16 774/16 773/16
v 1.9000 0.6300 -1.0000
v 1.8200 0.6300 -1.0000
v 1.8200 0.6300 -0.9200
v 1.9000 0.6300 -0.9200
f 780/16 779/16 778/16 777/16
v 1.9000 0.6900 -0.9200
v 1.8200 0.6900 -0.9200
v 1.8200 0.6900 -1.0000
v 1.9000 0.6900 -1.0000
f 784/16 783/16 782/16 781/16
v 1.9000 0.6900 -1.0000
v 1.8200 0.6900 -1.0000
v 1.8200 0.6300 -1.0000
v 1.9000 0.6300 -1.0000
f 788/16 787/16 786/16 785/16
v 1.9000 0.6300 -0.9200
v 1.8200 0.6300 -0.9200
v 1.8200 0.6900 -0.9200
v 1.9000 0.6900 -0.9200
f 792/16 791/16 790/16 789/16
v 1.9000 0.6300 0.4000
v 1.9000 0.6900 0.4000
v 1.9000 0.6900 0.3200
v 1.9000 0.6300 0.3200
f 796/16 795/16 794/16 793/16
v 1.8200 0.6300 0.3200
v 1.8200 0.6900 0.3200
v 1.8200 0.6900 0.4000
v 1.8200 0.6300 0.4000
f 800/16 799/16 798/16 797/16
v 1.9000 0.6300 0.3200
v 1.8200 0.6300 0.3200
v 1.8200 0.6300 0.4000
v 1.9000 0.6300 0.4000
f 804/16 803/16 802/16 801/16
v 1.9000 0.6900 0.4000
v 1.8200 0.6900 0.4000
v 1.8200 0.6900 0.3200
v 1.9000 0.6900 0.3200
f 808/16 807/16 806/16 805/16
v 1.9000 0.6900 0.3200
v 1.8200 0.6900 0.3200
v 1.8200 0.6300 0.3200
v 1.9000 0.6300 0.3200
f 812/16 811/16 810/16 809/16
v 1.9000 0.6300 0.4000
v 1.8200 0.6300 0.4000
v 1.8200 0.6900 0.4000
v 1.9000 0.6900 0.4000
f 816/16 815/16 814/16 813/16
v 0.5800 0.6300 -0.9200
v 0.5800 0.6900 -0.9200
v 0.5800 0.6900 -1.0000
v 0.5800 0.6300 -1.0000
f 820/16 819/16 818/16 817/16
v 0.5000 0.6300 -1.0000
v 0.5000 0.6900 -1.0000
v 0.5000 0.6900 -0.9200
v 0.5000 0.6300 -0.9200
f 824/16 823/16 822/16 821/16
v 0.5800 0.6300 -1.0000
v 0.5000 0.6300 -1.0000
v 0.5000 0.6300 -0.9200
v 0.5800 0.6300 -0.9200
f 828/16 827/16 826/16 825/16
v 0.5800 0.6900 -0.9200
v 0.5000 0.6900 -0.9200
v 0.5000 0.6900 -1.0000
v 0.5800 0.6900 -1.0000
f 832/16 831/16 830/16 829/16
v 0.5800 0.6900 -1.0000
v 0.5000 0.6900 -1.0000
v 0.5000 0.6300 -1.0000
v 0.5800 0.6300 -1.0000
f 836/16 835/16 834/16 833/16
v 0.5800 0.6300 -0.9200
v 0.5000 0.6300 -0.9200
v 0.5000 0.6900 -0.9200
v 0.5800 0.6900 -0.9200
f 840/16 839/16 838/16 837/16
v 0.5800 0.6300 0.4000
v 0.5800 0.6900 0.4000
v 0.5800 0.6900 0.3200
v 0.5800 0.6300 0.3200
f 844/16 843/16 842/16 841/16
v 0.5000 0.6300 0.3200
v 0.5000 0.6900 0.3200
v 0.5000 0.6900 0.4000
v 0.5000 0.6300 0.4000
f 848/16 847/16 846/16 845/16
v 0.5800 0.6300 0.3200
v 0.5000 0.6300 0.3200
v 0.5000 0.6300 0.4000
v 0.5800 0.6300 0.4000
f 852/16 851/16 850/16 849/16
v 0.5800 0.6900 0.4000
v 0.5000 0.6900 0.4000
v 0.5000 0.6900 0.3200
v 0.5800 0.6900 0.3200
f 856/16 855/16 854/16 853/16
v 0.5800 0.6900 0.3200
v 0.5000 0.6900 0.3200
v 0.5000 0.6300 0.3200
v 0.5800 0.6300 0.3200
f 860/16 859/16 858/16 857/16
v 0.5800 0.6300 0.4000
v 0.5000 0.6300 0.4000
v 0.5000 0.6900 0.4000
v 0.5800 0.6900 0.4000
f 864/16 863/16 862/16 861/16
v -0.5000 0.6300 -0.9200
v -0.5000 0.6900 -0.9200
v -0.5000 0.6900 -1.0000
v -0.5000 0.6300 -1.0000
f 868/16 867/16 866/16 865/16
v -0.5800 0.6300 -1.0000
v -0.5800 0.6900 -1.0000
v -0.5800 0.6900 -0.9200
v -0.5800 0.6300 -0.9200
f 872/16 871/16 870/16 869/16
v -0.5000 0.6300 -1.0000
v -0.5800 0.6300 -1.0000
v -0.5800 0.6300 -0.9200
v -0.5000 0.6300 -0.9200
f 876/16 875/16 874/16 873/16
v -0.5000 0.6900 -0.9200
v -0.5800 0.6900 -0.9200
v -0.5800 0.6900 -1.0000
v -0.5000 0.6900 -1.0000
f 880/16 879/16 878/16 877/16
v -0.5000 0.6900 -1.0000
v -0.5800 0.6900 -1.0000
v -0.5800 0.6300 -1.0000
v -0.5000 0.6300 -1.0000
f 884/16 883/16 882/16 881/16
v -0.5000 0.6300 -0.9200
v -0.5800 0.6300 -0.9200
v -0.5800 0.6900 -0.9200
v -0.5000 0.6900 -0.9200
f 888/16 887/16 886/16 885/16
v -0.5000 0.6300 0.4000
v -0.5000 0.6900 0.4000
v -0.5000 0.6900 0.3200
v -0.5000 0.6300 0.3200
f 892/16 891/16 890/16 889/16
v -0.5800 0.6300 0.3200
v -0.5800 0.6900 0.3200
v -0.5800 0.6900 0.4000
v -0.5800 0.6300 0.4000
f 896/16 895/16 894/16 893/16
v -0.5000 0.6300 0.3200
v -0.5800 0.6300 0.3200
v -0.5800 0.6300 0.4000
v -0.5000 0.6300 0.4000
f 900/16 899/16 898/16 897/16
v -0.5000 0.6900 0.4000
v -0.5800 0.6900 0.4000
v -0.5800 0.6900 0.3200
v -0.5000 0.6900 0.3200
f 904/16 903/16 902/16 901/16
v -0.5000 0.6900 0.3200
v -0.5800 0.6900 0.3200
v -0.5800 0.6300 0.3200
v -0.5000 0.6300 0.3200
f 908/16 907/16 906/16 905/16
v -0.5000 0.6300 0.4000
v -0.5800 0.6300 0.4000
v -0.5800 0.6900 0.4000
v -0.5000 0.6900 0.4000
f 912/16 911/16 910/16 909/16
v -1.8200 0.6300 -0.9200
v -1.8200 0.6900 -0.9200
v -1.8200 0.6900 -1.0000
v -1.8200 0.6300 -1.0000
f 916/16 915/16 914/16 913/16
v -1.9000 0.6300 -1.0000
v -1.9000 0.6900 -1.0000
v -1.9000 0.6900 -0.9200
v -1.9000 0.6300 -0.9200
f 920/16 919/16 918/16 917/16
v -1.8200 0.6300 -1.0000
v -1.9000 0.6300 -1.0000
v -1.9000 0.6300 -0.9200
v -1.8200 0.6300 -0.9200
f 924/16 923/16 922/16 921/16
v -1.8200 0.6900 -0.9200
v -1.9000 0.6900 -0.9200
v -1.9000 0.6900 -1.0000
v -1.8200 0.6900 -1.0000
f 928/16 927/16 926/16 925/16
v -1.8200 0.6900 -1.0000
v -1.9000 0.6900 -1.0000
v -1.9000 0.6300 -1.0000
v -1.8200 0.6300 -1.0000
f 932/16 931/16 930/16 929/16
v -1.8200 0.6300 -0.9200
v -1.9000 0.6300 -0.9200
v -1.9000 0.6900 -0.9200
v -1.8200 0.6900 -0.9200
f 936/16 935/16 934/16 933/16
v -1.8200 0.6300 0.4000
v -1.8200 0.6900 0.4000
v -1.8200 0.6900 0.3200
v -1.8200 0.6300 0.3200
f 940/16 939/16 938/16 937/16
v -1.9000 0.6300 0.3200
v -1.9000 0.6900 0.3200
v -1.9000 0.6900 0.4000
v -1.9000 0.6300 0.4000
f 944/16 943/16 942/16 941/16
v -1.8200 0.6300 0.3200
v -1.9000 0.6300 0.3200
v -1.9000 0.6300 0.4000
v -1.8200 0.6300 0.4000
f 948/16 947/16 946/16 945/16
v -1.8200 0.6900 0.4000
v -1.9000 0.6900 0.4000
v -1.9000 0.6900 0.3200
v -1.8200 0.6900 0.3200
f 952/16 951/16 950/16 949/16
v -1.8200 0.6900 0.3200
v -1.9000 0.6900 0.3200
v -1.9000 0.6300 0.3200
v -1.8200 0.6300 0.3200
f 956/16 955/16 954/16 953/16
v -1.8200 0.6300 0.4000
v -1.9000 0.6300 0.4000
v -1.9000 0.6900 0.4000
v -1.8200 0.6900 0.4000
f 960/16 959/16 958/16 957/16
v 2.4000 0.1500 2.4500
v 2.4000 1.8500 2.4500
v 2.4000 1.8500 0.5500
v 2.4000 0.1500 0.5500
f 964/2 963/2 962/2 961/2
v -2.4000 0.1500 0.5500
v -2.4000 1.8500 0.5500
v -2.4000 1.8500 2.4500
v -2.4000 0.1500 2.4500
f 968/2 967/2 966/2 965/2
v 2.4000 0.1500 0.5500
v -2.4000 0.1500 0.5500
v -2.4000 0.1500 2.4500
v 2.4000 0.1500 2.4500
f 972/2 971/2 970/2 969/2
v 2.4000 1.8500 2.4500
v -2.4000 1.8500 2.4500
v -2.4000 1.8500 0.5500
v 2.4000 1.8500 0.5500
f 976/2 975/2 974/2 973/2
v 2.4000 1.8500 0.5500
v -2.4000 1.8500 0.5500
v -2.4000 0.1500 0.5500
v 2.4000 0.1500 0.5500
f 980/2 979/2 978/2 977/2
v 2.4000 0.1500 2.4500
v -2.4000 0.1500 2.4500
v -2.4000 1.8500 2.4500
v 2.4000 1.8500 2.4500
f 984/2 983/2 982/2 981/2
v 1.4500 2.4500 1.5000
v -1.4500 2.4500 1.5000
v -2.5200 1.8500 0.4300
v 2.5200 1.8500 0.4300
f 988/4 987/4 986/4 985/4
v -1.4500 2.4500 1.5000
v 1.4500 2.4500 1.5000
v 2.5200 1.8500 2.5700
v -2.5200 1.8500 2.5700
f 992/4 991/4 990/4 989/4
v -1.4500 2.4500 1.5000
v -2.5200 1.8500 2.5700
v -2.5200 1.8500 0.4300
f 995/4 994/4 993/4
v 1.4500 2.4500 1.5000
v 2.5200 1.8500 0.4300
v 2.5200 1.8500 2.5700
f 998/4 997/4 996/4
v 2.5200 1.8500 0.4300
v -2.5200 1.8500 0.4300
v -2.5200 1.8500 2.5700
v 2.5200 1.8500 2.5700
f 1002/4 1001/4 1000/4 999/4
v 1.3395 1.8500 2.0081
v 1.0419 1.8500 1.7105
v 1.0419 3.1500 1.7105
v 1.3395 3.1500 2.0081
f 1006/7 1005/7 1004/7 1003/7
v 1.0419 1.8500 1.7105
v 1.0419 1.8500 1.2895
v 1.0419 3.1500 1.2895
v 1.0419 3.1500 1.7105
f 1010/7 1009/7 1008/7 1007/7
v 1.0419 1.8500 1.2895
v 1.3395 1.8500 0.9919
v 1.3395 3.1500 0.9919
v 1.0419 3.1500 1.2895
f 1014/7 1013/7 1012/7 1011/7
v 1.3395 1.8500 0.9919
v 1.7605 1.8500 0.9919
v 1.7605 3.1500 0.9919
v 1.3395 3.1500 0.9919
f 1018/7 1017/7 1016/7 1015/7
v 1.7605 1.8500 0.9919
v 2.0581 1.8500 1.2895
v 2.0581 3.1500 1.2895
v 1.7605 3.1500 0.9919
f 1022/7 1021/7 1020/7 1019/7
v 2.0581 1.8500 1.2895
v 2.0581 1.8500 1.7105
v 2.0581 3.1500 1.7105
v 2.0581 3.1500 1.2895
f 1026/7 1025/7 1024/7 1023/7
v 2.0581 1.8500 1.7105
v 1.7605 1.8500 2.0081
v 1.7605 3.1500 2.0081
v 2.0581 3.1500 1.7105
f 1030/7 1029/7 1028/7 1027/7
v 1.7605 1.8500 2.0081
v 1.3395 1.8500 2.0081
v 1.3395 3.1500 2.0081
v 1.7605 3.1500 2.0081
f 1034/7 1033/7 1032/7 1031/7
v 1.7605 1.8500 2.0081
v 2.0581 1.8500 1.7105
v 2.0581 1.8500 1.2895
v 1.7605 1.8500 0.9919
v 1.3395 1.8500 0.9919
v 1.0419 1.8500 1.2895
v 1.0419 1.8500 1.7105
v 1.3395 1.8500 2.0081
f 1042/7 1041/7 1040/7 1039/7 1038/7 1037/7 1036/7 1035/7
v 1.3395 3.1500 2.0081
v 1.0419 3.1500 1.7105
v 1.0419 3.1500 1.2895
v 1.3395 3.1500 0.9919
v 1.7605 3.1500 0.9919
v 2.0581 3.1500 1.2895
v 2.0581 3.1500 1.7105
v 1.7605 3.1500 2.0081
f 1050/7 1049/7 1048/7 1047/7 1046/7 1045/7 1044/7 1043/7
v 1.3127 3.1500 2.0728
v 0.9772 3.1500 1.7373
v 1.5500 3.6000 1.5000
f 1053/4 1052/4 1051/4
v 0.9772 3.1500 1.7373
v 0.9772 3.1500 1.2627
v 1.5500 3.6000 1.5000
f 1056/4 1055/4 1054/4
v 0.9772 3.1500 1.2627
v 1.3127 3.1500 0.9272
v 1.5500 3.6000 1.5000
f 1059/4 1058/4 1057/4
v 1.3127 3.1500 0.9272
v 1.7873 3.1500 0.9272
v 1.5500 3.6000 1.5000
f 1062/4 1061/4 1060/4
v 1.7873 3.1500 0.9272
v 2.1228 3.1500 1.2627
v 1.5500 3.6000 1.5000
f 1065/4 1064/4 1063/4
v 2.1228 3.1500 1.2627
v 2.1228 3.1500 1.7373
v 1.5500 3.6000 1.5000
f 1068/4 1067/4 1066/4
v 2.1228 3.1500 1.7373
v 1.7873 3.1500 2.0728
v 1.5500 3.6000 1.5000
f 1071/4 1070/4 1069/4
v 1.7873 3.1500 2.0728
v 1.3127 3.1500 2.0728
v 1.5500 3.6000 1.5000
f 1074/4 1073/4 1072/4
v 1.7873 3.1500 2.0728
v 2.1228 3.1500 1.7373
v 2.1228 3.1500 1.2627
v 1.7873 3.1500 0.9272
v 1.3127 3.1500 0.9272
v 0.9772 3.1500 1.2627
v 0.9772 3.1500 1.7373
v 1.3127 3.1500 2.0728
f 1082/4 1081/4 1080/4 1079/4 1078/4 1077/4 1076/4 1075/4
v -1.7605 1.8500 2.0081
v -2.0581 1.8500 1.7105
v -2.0581 3.1500 1.7105
v -1.7605 3.1500 2.0081
f 1086/7 1085/7 1084/7 1083/7
v -2.0581 1.8500 1.7105
v -2.0581 1.8500 1.2895
v -2.0581 3.1500 1.2895
v -2.0581 3.1500 1.7105
f 1090/7 1089/7 1088/7 1087/7
v -2.0581 1.8500 1.2895
v -1.7605 1.8500 0.9919
v -1.7605 3.1500 0.9919
v -2.0581 3.1500 1.2895
f 1094/7 1093/7 1092/7 1091/7
v -1.7605 1.8500 0.9919
v -1.3395 1.8500 0.9919
v -1.3395 3.1500 0.9919
v -1.7605 3.1500 0.9919
f 1098/7 1097/7 1096/7 1095/7
v -1.3395 1.8500 0.9919
v -1.0419 1.8500 1.2895
v -1.0419 3.1500 1.2895
v -1.3395 3.1500 0.9919
f 1102/7 1101/7 1100/7 1099/7
v -1.0419 1.8500 1.2895
v -1.0419 1.8500 1.7105
v -1.0419 3.1500 1.7105
v -1.0419 3.1500 1.2895
f 1106/7 1105/7 1104/7 1103/7
v -1.0419 1.8500 1.7105
v -1.3395 1.8500 2.0081
v -1.3395 3.1500 2.0081
v -1.0419 3.1500 1.7105
f 1110/7 1109/7 1108/7 1107/7
v -1.3395 1.8500 2.0081
v -1.7605 1.8500 2.0081
v -1.7605 3.1500 2.0081
v -1.3395 3.1500 2.0081
f 1114/7 1113/7 1112/7 1111/7
v -1.3395 1.8500 2.0081
v -1.0419 1.8500 1.7105
v -1.0419 1.8500 1.2895
v -1.3395 1.8500 0.9919
v -1.7605 1.8500 0.9919
v -2.0581 1.8500 1.2895
v -2.0581 1.8500 1.7105
v -1.7605 1.8500 2.0081
f 1122/7 1121/7 1120/7 1119/7 1118/7 1117/7 1116/7 1115/7
v -1.7605 3.1500 2.0081
v -2.0581 3.1500 1.7105
v -2.0581 3.1500 1.2895
v -1.7605 3.1500 0.9919
v -1.3395 3.1500 0.9919
v -1.0419 3.1500 1.2895
v -1.0419 3.1500 1.7105
v -1.3395 3.1500 2.0081
f 1130/7 1129/7 1128/7 1127/7 1126/7 1125/7 1124/7 1123/7
v -1.7873 3.1500 2.0728
v -2.1228 3.1500 1.7373
v -1.5500 3.6000 1.5000
f 1133/4 1132/4 1131/4
v -2.1228 3.1500 1.7373
v -2.1228 3.1500 1.2627
v -1.5500 3.6000 1.5000
f 1136/4 1135/4 1134/4
v -2.1228 3.1500 1.2627
v -1.7873 3.1500 0.9272
v -1.5500 3.6000 1.5000
f 1139/4 1138/4 1137/4
v -1.7873 3.1500 0.9272
v -1.3127 3.1500 0.9272
v -1.5500 3.6000 1.5000
f 1142/4 1141/4 1140/4
v -1.3127 3.1500 0.9272
v -0.9772 3.1500 1.2627
v -1.5500 3.6000 1.5000
f 1145/4 1144/4 1143/4
v -0.9772 3.1500 1.2627
v -0.9772 3.1500 1.7373
v -1.5500 3.6000 1.5000
f 1148/4 1147/4 1146/4
v -0.9772 3.1500 1.7373
v -1.3127 3.1500 2.0728
v -1.5500 3.6000 1.5000
f 1151/4 1150/4 1149/4
v -1.3127 3.1500 2.0728
v -1.7873 3.1500 2.0728
v -1.5500 3.6000 1.5000
f 1154/4 1153/4 1152/4
v -1.3127 3.1500 2.0728
v -0.9772 3.1500 1.7373
v -0.9772 3.1500 1.2627
v -1.3127 3.1500 0.9272
v -1.7873 3.1500 0.9272
v -2.1228 3.1500 1.2627
v -2.1228 3.1500 1.7373
v -1.7873 3.1500 2.0728
f 1162/4 1161/4 1160/4 1159/4 1158/4 1157/4 1156/4 1155/4
v 2.3500 0.2000 2.5100
v 2.3500 0.7000 2.5100
v 2.3500 0.7000 2.4300
v 2.3500 0.2000 2.4300
f 1166/6 1165/6 1164/6 1163/6
v 1.6500 0.2000 2.4300
v 1.6500 0.7000 2.4300
v 1.6500 0.7000 2.5100
v 1.6500 0.2000 2.5100
f 1170/6 1169/6 1168/6 1167/6
v 2.3500 0.2000 2.4300
v 1.6500 0.2000 2.4300
v 1.6500 0.2000 2.5100
v 2.3500 0.2000 2.5100
f 1174/6 1173/6 1172/6 1171/6
v 2.3500 0.7000 2.5100
v 1.6500 0.7000 2.5100
v 1.6500 0.7000 2.4300
v 2.3500 0.7000 2.4300
f 1178/6 1177/6 1176/6 1175/6
v 2.3500 0.7000 2.4300
v 1.6500 0.7000 2.4300
v 1.6500 0.2000 2.4300
v 2.3500 0.2000 2.4300
f 1182/6 1181/6 1180/6 1179/6
v 2.3500 0.2000 2.5100
v 1.6500 0.2000 2.5100
v 1.6500 0.7000 2.5100
v 2.3500 0.7000 2.5100
f 1186/6 1185/6 1184/6 1183/6
v 2.4000 0.7000 2.5900
v 2.4000 0.7800 2.5900
v 2.4000 0.7800 2.4500
v 2.4000 0.7000 2.4500
f 1190/4 1189/4 1188/4 1187/4
v 1.6000 0.7000 2.4500
v 1.6000 0.7800 2.4500
v 1.6000 0.7800 2.5900
v 1.6000 0.7000 2.5900
f 1194/4 1193/4 1192/4 1191/4
v 2.4000 0.7000 2.4500
v 1.6000 0.7000 2.4500
v 1.6000 0.7000 2.5900
v 2.4000 0.7000 2.5900
f 1198/4 1197/4 1196/4 1195/4
v 2.4000 0.7800 2.5900
v 1.6000 0.7800 2.5900
v 1.6000 0.7800 2.4500
v 2.4000 0.7800 2.4500
f 1202/4 1201/4 1200/4 1199/4
v 2.4000 0.7800 2.4500
v 1.6000 0.7800 2.4500
v 1.6000 0.7000 2.4500
v 2.4000 0.7000 2.4500
f 1206/4 1205/4 1204/4 1203/4
v 2.4000 0.7000 2.5900
v 1.6000 0.7000 2.5900
v 1.6000 0.7800 2.5900
v 2.4000 0.7800 2.5900
f 1210/4 1209/4 1208/4 1207/4
v 1.3500 0.2000 2.5100
v 1.3500 0.7000 2.5100
v 1.3500 0.7000 2.4300
v 1.3500 0.2000 2.4300
f 1214/6 1213/6 1212/6 1211/6
v 0.6500 0.2000 2.4300
v 0.6500 0.7000 2.4300
v 0.6500 0.7000 2.5100
v 0.6500 0.2000 2.5100
f 1218/6 1217/6 1216/6 1215/6
v 1.3500 0.2000 2.4300
v 0.6500 0.2000 2.4300
v 0.6500 0.2000 2.5100
v 1.3500 0.2000 2.5100
f 1222/6 1221/6 1220/6 1219/6
v 1.3500 0.7000 2.5100
v 0.6500 0.7000 2.5100
v 0.6500 0.7000 2.4300
v 1.3500 0.7000 2.4300
f 1226/6 1225/6 1224/6 1223/6
v 1.3500 0.7000 2.4300
v 0.6500 0.7000 2.4300
v 0.6500 0.2000 2.4300
v 1.3500 0.2000 2.4300
f 1230/6 1229/6 1228/6 1227/6
v 1.3500 0.2000 2.5100
v 0.6500 0.2000 2.5100
v 0.6500 0.7000 2.5100
v 1.3500 0.7000 2.5100
f 1234/6 1233/6 1232/6 1231/6
v 1.4000 0.7000 2.5900
v 1.4000 0.7800 2.5900
v 1.4000 0.7800 2.4500
v 1.4000 0.7000 2.4500
f 1238/4 1237/4 1236/4 1235/4
v 0.6000 0.7000 2.4500
v 0.6000 0.7800 2.4500
v 0.6000 0.7800 2.5900
v 0.6000 0.7000 2.5900
f 1242/4 1241/4 1240/4 1239/4
v 1.4000 0.7000 2.4500
v 0.6000 0.7000 2.4500
v 0.6000 0.7000 2.5900
v 1.4000 0.7000 2.5900
f 1246/4 1245/4 1244/4 1243/4
v 1.4000 0.7800 2.5900
v 0.6000 0.7800 2.5900
v 0.6000 0.7800 2.4500
v 1.4000 0.7800 2.4500
f 1250/4 1249/4 1248/4 1247/4
v 1.4000 0.7800 2.4500
v 0.6000 0.7800 2.4500
v 0.6000 0.7000 2.4500
v 1.4000 0.7000 2.4500
f 1254/4 1253/4 1252/4 1251/4
v 1.4000 0.7000 2.5900
v 0.6000 0.7000 2.5900
v 0.6000 0.7800 2.5900
v 1.4000 0.7800 2.5900
f 1258/4 1257/4 1256/4 1255/4
v 0.3500 0.2000 2.5100
v 0.3500 0.7000 2.5100
v 0.3500 0.7000 2.4300
v 0.3500 0.2000 2.4300
f 1262/6 1261/6 1260/6 1259/6
v -0.3500 0.2000 2.4300
v -0.3500 0.7000 2.4300
v -0.3500 0.7000 2.5100
v -0.3500 0.2000 2.5100
f 1266/6 1265/6 1264/6 1263/6
v 0.3500 0.2000 2.4300
v -0.3500 0.2000 2.4300
v -0.3500 0.2000 2.5100
v 0.3500 0.2000 2.5100
f 1270/6 1269/6 1268/6 1267/6
v 0.3500 0.7000 2.5100
v -0.3500 0.7000 2.5100
v -0.3500 0.7000 2.4300
v 0.3500 0.7000 2.4300
f 1274/6 1273/6 1272/6 1271/6
v 0.3500 0.7000 2.4300
v -0.3500 0.7000 2.4300
v -0.3500 0.2000 2.4300
v 0.3500 0.2000 2.4300
f 1278/6 1277/6 1276/6 1275/6
v 0.3500 0.2000 2.5100
v -0.3500 0.2000 2.5100
v -0.3500 0.7000 2.5100
v 0.3500 0.7000 2.5100
f 1282/6 1281/6 1280/6 1279/6
v 0.4000 0.7000 2.5900
v 0.4000 0.7800 2.5900
v 0.4000 0.7800 2.4500
v 0.4000 0.7000 2.4500
f 1286/4 1285/4 1284/4 1283/4
v -0.4000 0.7000 2.4500
v -0.4000 0.7800 2.4500
v -0.4000 0.7800 2.5900
v -0.4000 0.7000 2.5900
f 1290/4 1289/4 1288/4 1287/4
v 0.4000 0.7000 2.4500
v -0.4000 0.7000 2.4500
v -0.4000 0.7000 2.5900
v 0.4000 0.7000 2.5900
f 1294/4 1293/4 1292/4 1291/4
v 0.4000 0.7800 2.5900
v -0.4000 0.7800 2.5900
v -0.4000 0.7800 2.4500
v 0.4000 0.7800 2.4500
f 1298/4 1297/4 1296/4 1295/4
v 0.4000 0.7800 2.4500
v -0.4000 0.7800 2.4500
v -0.4000 0.7000 2.4500
v 0.4000 0.7000 2.4500
f 1302/4 1301/4 1300/4 1299/4
v 0.4000 0.7000 2.5900
v -0.4000 0.7000 2.5900
v -0.4000 0.7800 2.5900
v 0.4000 0.7800 2.5900
f 1306/4 1305/4 1304/4 1303/4
v -0.6500 0.2000 2.5100
v -0.6500 0.7000 2.5100
v -0.6500 0.7000 2.4300
v -0.6500 0.2000 2.4300
f 1310/6 1309/6 1308/6 1307/6
v -1.3500 0.2000 2.4300
v -1.3500 0.7000 2.4300
v -1.3500 0.7000 2.5100
v -1.3500 0.2000 2.5100
f 1314/6 1313/6 1312/6 1311/6
v -0.6500 0.2000 2.4300
v -1.3500 0.2000 2.4300
v -1.3500 0.2000 2.5100
v -0.6500 0.2000 2.5100
f 1318/6 1317/6 1316/6 1315/6
v -0.6500 0.7000 2.5100
v -1.3500 0.7000 2.5100
v -1.3500 0.7000 2.4300
v -0.6500 0.7000 2.4300
f 1322/6 1321/6 1320/6 1319/6
v -0.6500 0.7000 2.4300
v -1.3500 0.7000 2.4300
v -1.3500 0.2000 2.4300
v -0.6500 0.2000 2.4300
f 1326/6 1325/6 1324/6 1323/6
v -0.6500 0.2000 2.5100
v -1.3500 0.2000 2.5100
v -1.3500 0.7000 2.5100
v -0.6500 0.7000 2.5100
f 1330/6 1329/6 1328/6 1327/6
v -0.6000 0.7000 2.5900
v -0.6000 0.7800 2.5900
v -0.6000 0.7800 2.4500
v -0.6000 0.7000 2.4500
f 1334/4 1333/4 1332/4 1331/4
v -1.4000 0.7000 2.4500
v -1.4000 0.7800 2.4500
v -1.4000 0.7800 2.5900
v -1.4000 0.7000 2.5900
f 1338/4 1337/4 1336/4 1335/4
v -0.6000 0.7000 2.4500
v -1.4000 0.7000 2.4500
v -1.4000 0.7000 2.5900
v -0.6000 0.7000 2.5900
f 1342/4 1341/4 1340/4 1339/4
v -0.6000 0.7800 2.5900
v -1.4000 0.7800 2.5900
v -1.4000 0.7800 2.4500
v -0.6000 0.7800 2.4500
f 1346/4 1345/4 1344/4 1343/4
v -0.6000 0.7800 2.4500
v -1.4000 0.7800 2.4500
v -1.4000 0.7000 2.4500
v -0.6000 0.7000 2.4500
f 1350/4 1349/4 1348/4 1347/4
v -0.6000 0.7000 2.5900
v -1.4000 0.7000 2.5900
v -1.4000 0.7800 2.5900
v -0.6000 0.7800 2.5900
f 1354/4 1353/4 1352/4 1351/4
v -1.6500 0.2000 2.5100
v -1.6500 0.7000 2.5100
v -1.6500 0.7000 2.4300
v -1.6500 0.2000 2.4300
f 1358/6 1357/6 1356/6 1355/6
v -2.3500 0.2000 2.4300
v -2.3500 0.7000 2.4300
v -2.3500 0.7000 2.5100
v -2.3500 0.2000 2.5100
f 1362/6 1361/6 1360/6 1359/6
v -1.6500 0.2000 2.4300
v -2.3500 0.2000 2.4300
v -2.3500 0.2000 2.5100
v -1.6500 0.2000 2.5100
f 1366/6 1365/6 1364/6 1363/6
v -1.6500 0.7000 2.5100
v -2.3500 0.7000 2.5100
v -2.3500 0.7000 2.4300
v -1.6500 0.7000 2.4300
f 1370/6 1369/6 1368/6 1367/6
v -1.6500 0.7000 2.4300
v -2.3500 0.7000 2.4300
v -2.3500 0.2000 2.4300
v -1.6500 0.2000 2.4300
f 1374/6 1373/6 1372/6 1371/6
v -1.6500 0.2000 2.5100
v -2.3500 0.2000 2.5100
v -2.3500 0.7000 2.5100
v -1.6500 0.7000 2.5100
f 1378/6 1377/6 1376/6 1375/6
v -1.6000 0.7000 2.5900
v -1.6000 0.7800 2.5900
v -1.6000 0.7800 2.4500
v -1.6000 0.7000 2.4500
f 1382/4 1381/4 1380/4 1379/4
v -2.4000 0.7000 2.4500
v -2.4000 0.7800 2.4500
v -2.4000 0.7800 2.5900
v -2.4000 0.7000 2.5900
f 1386/4 1385/4 1384/4 1383/4
v -1.6000 0.7000 2.4500
v -2.4000 0.7000 2.4500
v -2.4000 0.7000 2.5900
v -1.6000 0.7000 2.5900
f 1390/4 1389/4 1388/4 1387/4
v -1.6000 0.7800 2.5900
v -2.4000 0.7800 2.5900
v -2.4000 0.7800 2.4500
v -1.6000 0.7800 2.4500
f 1394/4 1393/4 1392/4 1391/4
v -1.6000 0.7800 2.4500
v -2.4000 0.7800 2.4500
v -2.4000 0.7000 2.4500
v -1.6000 0.7000 2.4500
f 1398/4 1397/4 1396/4 1395/4
v -1.6000 0.7000 2.5900
v -2.4000 0.7000 2.5900
v -2.4000 0.7800 2.5900
v -1.6000 0.7800 2.5900
f 1402/4 1401/4 1400/4 1399/4
v 0.7000 0.8500 0.5600
v 0.7000 1.7500 0.5600
v 0.7000 1.7500 0.5200
v 0.7000 0.8500 0.5200
f 1406/6 1405/6 1404/6 1403/6
v -0.7000 0.8500 0.5200
v -0.7000 1.7500 0.5200
v -0.7000 1.7500 0.5600
v -0.7000 0.8500 0.5600
f 1410/6 1409/6 1408/6 1407/6
v 0.7000 0.8500 0.5200
v -0.7000 0.8500 0.5200
v -0.7000 0.8500 0.5600
v 0.7000 0.8500 0.5600
f 1414/6 1413/6 1412/6 1411/6
v 0.7000 1.7500 0.5600
v -0.7000 1.7500 0.5600
v -0.7000 1.7500 0.5200
v 0.7000 1.7500 0.5200
f 1418/6 1417/6 1416/6 1415/6
v 0.7000 1.7500 0.5200
v -0.7000 1.7500 0.5200
v -0.7000 0.8500 0.5200
v 0.7000 0.8500 0.5200
f 1422/6 1421/6 1420/6 1419/6
v 0.7000 0.8500 0.5600
v -0.7000 0.8500 0.5600
v -0.7000 1.7500 0.5600
v 0.7000 1.7500 0.5600
f 1426/6 1425/6 1424/6 1423/6
v 1.1700 0.7700 0.5200
v 1.1700 1.0900 0.5200
v 1.1700 1.0900 0.1800
v 1.1700 0.7700 0.1800
f 1430/9 1429/9 1428/9 1427/9
v 0.8300 0.7700 0.1800
v 0.8300 1.0900 0.1800
v 0.8300 1.0900 0.5200
v 0.8300 0.7700 0.5200
f 1434/9 1433/9 1432/9 1431/9
v 1.1700 0.7700 0.1800
v 0.8300 0.7700 0.1800
v 0.8300 0.7700 0.5200
v 1.1700 0.7700 0.5200
f 1438/9 1437/9 1436/9 1435/9
v 1.1700 1.0900 0.5200
v 0.8300 1.0900 0.5200
v 0.8300 1.0900 0.1800
v 1.1700 1.0900 0.1800
f 1442/9 1441/9 1440/9 1439/9
v 1.1700 1.0900 0.1800
v 0.8300 1.0900 0.1800
v 0.8300 0.7700 0.1800
v 1.1700 0.7700 0.1800
f 1446/9 1445/9 1444/9 1443/9
v 1.1700 0.7700 0.5200
v 0.8300 0.7700 0.5200
v 0.8300 1.0900 0.5200
v 1.1700 1.0900 0.5200
f 1450/9 1449/9 1448/9 1447/9
v 0.1700 0.7700 0.5200
v 0.1700 1.0900 0.5200
v 0.1700 1.0900 0.1800
v 0.1700 0.7700 0.1800
f 1454/9 1453/9 1452/9 1451/9
v -0.1700 0.7700 0.1800
v -0.1700 1.0900 0.1800
v -0.1700 1.0900 0.5200
v -0.1700 0.7700 0.5200
f 1458/9 1457/9 1456/9 1455/9
v 0.1700 0.7700 0.1800
v -0.1700 0.7700 0.1800
v -0.1700 0.7700 0.5200
v 0.1700 0.7700 0.5200
f 1462/9 1461/9 1460/9 1459/9
v 0.1700 1.0900 0.5200
v -0.1700 1.0900 0.5200
v -0.1700 1.0900 0.1800
v 0.1700 1.0900 0.1800
f 1466/9 1465/9 1464/9 1463/9
v 0.1700 1.0900 0.1800
v -0.1700 1.0900 0.1800
v -0.1700 0.7700 0.1800
v 0.1700 0.7700 0.1800
f 1470/9 1469/9 1468/9 1467/9
v 0.1700 0.7700 0.5200
v -0.1700 0.7700 0.5200
v -0.1700 1.0900 0.5200
v 0.1700 1.0900 0.5200
f 1474/9 1473/9 1472/9 1471/9
v -0.8300 0.7700 0.5200
v -0.8300 1.0900 0.5200
v -0.8300 1.0900 0.1800
v -0.8300 0.7700 0.1800
f 1478/9 1477/9 1476/9 1475/9
v -1.1700 0.7700 0.1800
v -1.1700 1.0900 0.1800
v -1.1700 1.0900 0.5200
v -1.1700 0.7700 0.5200
f 1482/9 1481/9 1480/9 1479/9
v -0.8300 0.7700 0.1800
v -1.1700 0.7700 0.1800
v -1.1700 0.7700 0.5200
v -0.8300 0.7700 0.5200
f 1486/9 1485/9 1484/9 1483/9
v -0.8300 1.0900 0.5200
v -1.1700 1.0900 0.5200
v -1.1700 1.0900 0.1800
v -0.8300 1.0900 0.1800
f 1490/9 1489/9 1488/9 1487/9
v -0.8300 1.0900 0.1800
v -1.1700 1.0900 0.1800
v -1.1700 0.7700 0.1800
v -0.8300 0.7700 0.1800
f 1494/9 1493/9 1492/9 1491/9
v -0.8300 0.7700 0.5200
v -1.1700 0.7700 0.5200
v -1.1700 1.0900 0.5200
v -0.8300 1.0900 0.5200
f 1498/9 1497/9 1496/9 1495/9
v 1.8000 0.6700 0.5500
v 1.8000 0.7700 0.5500
v 1.8000 0.7700 0.1500
v 1.8000 0.6700 0.1500
f 1502/6 1501/6 1500/6 1499/6
v -1.8000 0.6700 0.1500
v -1.8000 0.7700 0.1500
v -1.8000 0.7700 0.5500
v -1.8000 0.6700 0.5500
f 1506/6 1505/6 1504/6 1503/6
v 1.8000 0.6700 0.1500
v -1.8000 0.6700 0.1500
v -1.8000 0.6700 0.5500
v 1.8000 0.6700 0.5500
f 1510/6 1509/6 1508/6 1507/6
v 1.8000 0.7700 0.5500
v -1.8000 0.7700 0.5500
v -1.8000 0.7700 0.1500
v 1.8000 0.7700 0.1500
f 1514/6 1513/6 1512/6 1511/6
v 1.8000 0.7700 0.1500
v -1.8000 0.7700 0.1500
v -1.8000 0.6700 0.1500
v 1.8000 0.6700 0.1500
f 1518/6 1517/6 1516/6 1515/6
v 1.8000 0.6700 0.5500
v -1.8000 0.6700 0.5500
v -1.8000 0.7700 0.5500
v 1.8000 0.7700 0.5500
f 1522/6 1521/6 1520/6 1519/6
v 0.0900 1.8600 0.5600
v 0.0900 2.0400 0.5600
v 0.0900 2.0400 0.5000
v 0.0900 1.8600 0.5000
f 1526/16 1525/16 1524/16 1523/16
v -0.0900 1.8600 0.5000
v -0.0900 2.0400 0.5000
v -0.0900 2.0400 0.5600
v -0.0900 1.8600 0.5600
f 1530/16 1529/16 1528/16 1527/16
v 0.0900 1.8600 0.5000
v -0.0900 1.8600 0.5000
v -0.0900 1.8600 0.5600
v 0.0900 1.8600 0.5600
f 1534/16 1533/16 1532/16 1531/16
v 0.0900 2.0400 0.5600
v -0.0900 2.0400 0.5600
v -0.0900 2.0400 0.5000
v 0.0900 2.0400 0.5000
f 1538/16 1537/16 1536/16 1535/16
v 0.0900 2.0400 0.5000
v -0.0900 2.0400 0.5000
v -0.0900 1.8600 0.5000
v 0.0900 1.8600 0.5000
f 1542/16 1541/16 1540/16 1539/16
v 0.0900 1.8600 0.5600
v -0.0900 1.8600 0.5600
v -0.0900 2.0400 0.5600
v 0.0900 2.0400 0.5600
f 1546/16 1545/16 1544/16 1543/16
