# Walk of Industry low-poly (generated, wi_lib.py)
mtllib wi.mtl
vt 0 0
vt 0.03125 0.03125
vt 0.09375 0.03125
vt 0.15625 0.03125
vt 0.21875 0.03125
vt 0.28125 0.03125
vt 0.34375 0.03125
vt 0.40625 0.03125
vt 0.46875 0.03125
vt 0.53125 0.03125
vt 0.59375 0.03125
vt 0.65625 0.03125
vt 0.71875 0.03125
vt 0.78125 0.03125
vt 0.84375 0.03125
vt 0.90625 0.03125
vt 0.96875 0.03125
vt 0.03125 0.09375
vt 0.09375 0.09375
vt 0.15625 0.09375
vt 0.21875 0.09375
vt 0.28125 0.09375
vt 0.34375 0.09375
vt 0.40625 0.09375
vt 0.46875 0.09375
vt 0.53125 0.09375
vt 0.59375 0.09375
vt 0.65625 0.09375
vt 0.71875 0.09375
vt 0.78125 0.09375
vt 0.84375 0.09375
vt 0.90625 0.09375
vt 0.96875 0.09375
o Body
usemtl wi_palette
v 0.4800 0.0000 0.4800
v 0.4800 0.0800 0.4800
v 0.4800 0.0800 -0.4800
v 0.4800 0.0000 -0.4800
f 4/5 3/5 2/5 1/5
v -0.4800 0.0000 -0.4800
v -0.4800 0.0800 -0.4800
v -0.4800 0.0800 0.4800
v -0.4800 0.0000 0.4800
f 8/5 7/5 6/5 5/5
v 0.4800 0.0000 -0.4800
v -0.4800 0.0000 -0.4800
v -0.4800 0.0000 0.4800
v 0.4800 0.0000 0.4800
f 12/5 11/5 10/5 9/5
v 0.4800 0.0800 0.4800
v -0.4800 0.0800 0.4800
v -0.4800 0.0800 -0.4800
v 0.4800 0.0800 -0.4800
f 16/5 15/5 14/5 13/5
v 0.4800 0.0800 -0.4800
v -0.4800 0.0800 -0.4800
v -0.4800 0.0000 -0.4800
v 0.4800 0.0000 -0.4800
f 20/5 19/5 18/5 17/5
v 0.4800 0.0000 0.4800
v -0.4800 0.0000 0.4800
v -0.4800 0.0800 0.4800
v 0.4800 0.0800 0.4800
f 24/5 23/5 22/5 21/5
v -0.1378 0.0800 0.3326
v -0.3326 0.0800 0.1378
v -0.3326 0.1600 0.1378
v -0.1378 0.1600 0.3326
f 28/6 27/6 26/6 25/6
v -0.3326 0.0800 0.1378
v -0.3326 0.0800 -0.1378
v -0.3326 0.1600 -0.1378
v -0.3326 0.1600 0.1378
f 32/6 31/6 30/6 29/6
v -0.3326 0.0800 -0.1378
v -0.1378 0.0800 -0.3326
v -0.1378 0.1600 -0.3326
v -0.3326 0.1600 -0.1378
f 36/6 35/6 34/6 33/6
v -0.1378 0.0800 -0.3326
v 0.1378 0.0800 -0.3326
v 0.1378 0.1600 -0.3326
v -0.1378 0.1600 -0.3326
f 40/6 39/6 38/6 37/6
v 0.1378 0.0800 -0.3326
v 0.3326 0.0800 -0.1378
v 0.3326 0.1600 -0.1378
v 0.1378 0.1600 -0.3326
f 44/6 43/6 42/6 41/6
v 0.3326 0.0800 -0.1378
v 0.3326 0.0800 0.1378
v 0.3326 0.1600 0.1378
v 0.3326 0.1600 -0.1378
f 48/6 47/6 46/6 45/6
v 0.3326 0.0800 0.1378
v 0.1378 0.0800 0.3326
v 0.1378 0.1600 0.3326
v 0.3326 0.1600 0.1378
f 52/6 51/6 50/6 49/6
v 0.1378 0.0800 0.3326
v -0.1378 0.0800 0.3326
v -0.1378 0.1600 0.3326
v 0.1378 0.1600 0.3326
f 56/6 55/6 54/6 53/6
v 0.1378 0.0800 0.3326
v 0.3326 0.0800 0.1378
v 0.3326 0.0800 -0.1378
v 0.1378 0.0800 -0.3326
v -0.1378 0.0800 -0.3326
v -0.3326 0.0800 -0.1378
v -0.3326 0.0800 0.1378
v -0.1378 0.0800 0.3326
f 64/6 63/6 62/6 61/6 60/6 59/6 58/6 57/6
v -0.1378 0.1600 0.3326
v -0.3326 0.1600 0.1378
v -0.3326 0.1600 -0.1378
v -0.1378 0.1600 -0.3326
v 0.1378 0.1600 -0.3326
v 0.3326 0.1600 -0.1378
v 0.3326 0.1600 0.1378
v 0.1378 0.1600 0.3326
f 72/6 71/6 70/6 69/6 68/6 67/6 66/6 65/6
v -0.0179 1.2205 0.0188
v -0.0670 1.2298 0.0170
v -0.2932 0.0798 0.2433
v -0.2442 0.0705 0.2451
f 76/2 75/2 74/2 73/2
v -0.2442 0.0802 0.2941
v -0.2932 0.0895 0.2923
v -0.0670 1.2395 0.0660
v -0.0179 1.2302 0.0679
f 80/2 79/2 78/2 77/2
v -0.2442 0.0705 0.2451
v -0.2442 0.0802 0.2941
v -0.0179 1.2302 0.0679
v -0.0179 1.2205 0.0188
f 84/2 83/2 82/2 81/2
v -0.0670 1.2298 0.0170
v -0.0670 1.2395 0.0660
v -0.2932 0.0895 0.2923
v -0.2932 0.0798 0.2433
f 88/2 87/2 86/2 85/2
v -0.2932 0.0798 0.2433
v -0.2932 0.0895 0.2923
v -0.2442 0.0802 0.2941
v -0.2442 0.0705 0.2451
f 92/2 91/2 90/2 89/2
v -0.0179 1.2205 0.0188
v -0.0179 1.2302 0.0679
v -0.0670 1.2395 0.0660
v -0.0670 1.2298 0.0170
f 96/2 95/2 94/2 93/2
v 0.0670 1.2298 0.0170
v 0.0179 1.2205 0.0188
v 0.2442 0.0705 0.2451
v 0.2932 0.0798 0.2433
f 100/2 99/2 98/2 97/2
v 0.2932 0.0895 0.2923
v 0.2442 0.0802 0.2941
v 0.0179 1.2302 0.0679
v 0.0670 1.2395 0.0660
f 104/2 103/2 102/2 101/2
v 0.2932 0.0798 0.2433
v 0.2932 0.0895 0.2923
v 0.0670 1.2395 0.0660
v 0.0670 1.2298 0.0170
f 108/2 107/2 106/2 105/2
v 0.0179 1.2205 0.0188
v 0.0179 1.2302 0.0679
v 0.2442 0.0802 0.2941
v 0.2442 0.0705 0.2451
f 112/2 111/2 110/2 109/2
v 0.2442 0.0705 0.2451
v 0.2442 0.0802 0.2941
v 0.2932 0.0895 0.2923
v 0.2932 0.0798 0.2433
f 116/2 115/2 114/2 113/2
v 0.0670 1.2298 0.0170
v 0.0670 1.2395 0.0660
v 0.0179 1.2302 0.0679
v 0.0179 1.2205 0.0188
f 120/2 119/2 118/2 117/2
v 0.0670 1.2395 -0.0660
v 0.0179 1.2302 -0.0679
v 0.2442 0.0802 -0.2941
v 0.2932 0.0895 -0.2923
f 124/2 123/2 122/2 121/2
v 0.2932 0.0798 -0.2433
v 0.2442 0.0705 -0.2451
v 0.0179 1.2205 -0.0188
v 0.0670 1.2298 -0.0170
f 128/2 127/2 126/2 125/2
v 0.2932 0.0895 -0.2923
v 0.2932 0.0798 -0.2433
v 0.0670 1.2298 -0.0170
v 0.0670 1.2395 -0.0660
f 132/2 131/2 130/2 129/2
v 0.0179 1.2302 -0.0679
v 0.0179 1.2205 -0.0188
v 0.2442 0.0705 -0.2451
v 0.2442 0.0802 -0.2941
f 136/2 135/2 134/2 133/2
v 0.2442 0.0802 -0.2941
v 0.2442 0.0705 -0.2451
v 0.2932 0.0798 -0.2433
v 0.2932 0.0895 -0.2923
f 140/2 139/2 138/2 137/2
v 0.0670 1.2395 -0.0660
v 0.0670 1.2298 -0.0170
v 0.0179 1.2205 -0.0188
v 0.0179 1.2302 -0.0679
f 144/2 143/2 142/2 141/2
v -0.0179 1.2302 -0.0679
v -0.0670 1.2395 -0.0660
v -0.2932 0.0895 -0.2923
v -0.2442 0.0802 -0.2941
f 148/2 147/2 146/2 145/2
v -0.2442 0.0705 -0.2451
v -0.2932 0.0798 -0.2433
v -0.0670 1.2298 -0.0170
v -0.0179 1.2205 -0.0188
f 152/2 151/2 150/2 149/2
v -0.2442 0.0802 -0.2941
v -0.2442 0.0705 -0.2451
v -0.0179 1.2205 -0.0188
v -0.0179 1.2302 -0.0679
f 156/2 155/2 154/2 153/2
v -0.0670 1.2395 -0.0660
v -0.0670 1.2298 -0.0170
v -0.2932 0.0798 -0.2433
v -0.2932 0.0895 -0.2923
f 160/2 159/2 158/2 157/2
v -0.2932 0.0895 -0.2923
v -0.2932 0.0798 -0.2433
v -0.2442 0.0705 -0.2451
v -0.2442 0.0802 -0.2941
f 164/2 163/2 162/2 161/2
v -0.0179 1.2302 -0.0679
v -0.0179 1.2205 -0.0188
v -0.0670 1.2298 -0.0170
v -0.0670 1.2395 -0.0660
f 168/2 167/2 166/2 165/2
v 0.1400 1.1900 0.1400
v 0.1400 1.2700 0.1400
v 0.1400 1.2700 -0.1400
v 0.1400 1.1900 -0.1400
f 172/4 171/4 170/4 169/4
v -0.1400 1.1900 -0.1400
v -0.1400 1.2700 -0.1400
v -0.1400 1.2700 0.1400
v -0.1400 1.1900 0.1400
f 176/4 175/4 174/4 173/4
v 0.1400 1.1900 -0.1400
v -0.1400 1.1900 -0.1400
v -0.1400 1.1900 0.1400
v 0.1400 1.1900 0.1400
f 180/4 179/4 178/4 177/4
v 0.1400 1.2700 0.1400
v -0.1400 1.2700 0.1400
v -0.1400 1.2700 -0.1400
v 0.1400 1.2700 -0.1400
f 184/4 183/4 182/4 181/4
v 0.1400 1.2700 -0.1400
v -0.1400 1.2700 -0.1400
v -0.1400 1.1900 -0.1400
v 0.1400 1.1900 -0.1400
f 188/4 187/4 186/4 185/4
v 0.1400 1.1900 0.1400
v -0.1400 1.1900 0.1400
v -0.1400 1.2700 0.1400
v 0.1400 1.2700 0.1400
f 192/4 191/4 190/4 189/4
v 0.1700 0.3700 0.1700
v 0.1700 0.6300 0.1700
v 0.1700 0.6300 -0.1700
v 0.1700 0.3700 -0.1700
f 196/2 195/2 194/2 193/2
v -0.1700 0.3700 -0.1700
v -0.1700 0.6300 -0.1700
v -0.1700 0.6300 0.1700
v -0.1700 0.3700 0.1700
f 200/2 199/2 198/2 197/2
v 0.1700 0.3700 -0.1700
v -0.1700 0.3700 -0.1700
v -0.1700 0.3700 0.1700
v 0.1700 0.3700 0.1700
f 204/2 203/2 202/2 201/2
v 0.1700 0.6300 0.1700
v -0.1700 0.6300 0.1700
v -0.1700 0.6300 -0.1700
v 0.1700 0.6300 -0.1700
f 208/2 207/2 206/2 205/2
v 0.1700 0.6300 -0.1700
v -0.1700 0.6300 -0.1700
v -0.1700 0.3700 -0.1700
v 0.1700 0.3700 -0.1700
f 212/2 211/2 210/2 209/2
v 0.1700 0.3700 0.1700
v -0.1700 0.3700 0.1700
v -0.1700 0.6300 0.1700
v 0.1700 0.6300 0.1700
f 216/2 215/2 214/2 213/2
v 0.1200 0.6300 0.1200
v 0.1200 0.6900 0.1200
v 0.1200 0.6900 -0.1200
v 0.1200 0.6300 -0.1200
f 220/4 219/4 218/4 217/4
v -0.1200 0.6300 -0.1200
v -0.1200 0.6900 -0.1200
v -0.1200 0.6900 0.1200
v -0.1200 0.6300 0.1200
f 224/4 223/4 222/4 221/4
v 0.1200 0.6300 -0.1200
v -0.1200 0.6300 -0.1200
v -0.1200 0.6300 0.1200
v 0.1200 0.6300 0.1200
f 228/4 227/4 226/4 225/4
v 0.1200 0.6900 0.1200
v -0.1200 0.6900 0.1200
v -0.1200 0.6900 -0.1200
v 0.1200 0.6900 -0.1200
f 232/4 231/4 230/4 229/4
v 0.1200 0.6900 -0.1200
v -0.1200 0.6900 -0.1200
v -0.1200 0.6300 -0.1200
v 0.1200 0.6300 -0.1200
f 236/4 235/4 234/4 233/4
v 0.1200 0.6300 0.1200
v -0.1200 0.6300 0.1200
v -0.1200 0.6900 0.1200
v 0.1200 0.6900 0.1200
f 240/4 239/4 238/4 237/4
v -0.1700 0.4100 0.0900
v -0.1700 0.5900 0.0900
v -0.1700 0.5900 -0.0900
v -0.1700 0.4100 -0.0900
f 244/6 243/6 242/6 241/6
v -0.2300 0.4100 -0.0900
v -0.2300 0.5900 -0.0900
v -0.2300 0.5900 0.0900
v -0.2300 0.4100 0.0900
f 248/6 247/6 246/6 245/6
v -0.1700 0.4100 -0.0900
v -0.2300 0.4100 -0.0900
v -0.2300 0.4100 0.0900
v -0.1700 0.4100 0.0900
f 252/6 251/6 250/6 249/6
v -0.1700 0.5900 0.0900
v -0.2300 0.5900 0.0900
v -0.2300 0.5900 -0.0900
v -0.1700 0.5900 -0.0900
f 256/6 255/6 254/6 253/6
v -0.1700 0.5900 -0.0900
v -0.2300 0.5900 -0.0900
v -0.2300 0.4100 -0.0900
v -0.1700 0.4100 -0.0900
f 260/6 259/6 258/6 257/6
v -0.1700 0.4100 0.0900
v -0.2300 0.4100 0.0900
v -0.2300 0.5900 0.0900
v -0.1700 0.5900 0.0900
f 264/6 263/6 262/6 261/6
v -0.1148 0.2000 0.2772
v -0.2772 0.2000 0.1148
v -0.2772 0.2500 0.1148
v -0.1148 0.2500 0.2772
f 268/4 267/4 266/4 265/4
v -0.2772 0.2000 0.1148
v -0.2772 0.2000 -0.1148
v -0.2772 0.2500 -0.1148
v -0.2772 0.2500 0.1148
f 272/4 271/4 270/4 269/4
v -0.2772 0.2000 -0.1148
v -0.1148 0.2000 -0.2772
v -0.1148 0.2500 -0.2772
v -0.2772 0.2500 -0.1148
f 276/4 275/4 274/4 273/4
v -0.1148 0.2000 -0.2772
v 0.1148 0.2000 -0.2772
v 0.1148 0.2500 -0.2772
v -0.1148 0.2500 -0.2772
f 280/4 279/4 278/4 277/4
v 0.1148 0.2000 -0.2772
v 0.2772 0.2000 -0.1148
v 0.2772 0.2500 -0.1148
v 0.1148 0.2500 -0.2772
f 284/4 283/4 282/4 281/4
v 0.2772 0.2000 -0.1148
v 0.2772 0.2000 0.1148
v 0.2772 0.2500 0.1148
v 0.2772 0.2500 -0.1148
f 288/4 287/4 286/4 285/4
v 0.2772 0.2000 0.1148
v 0.1148 0.2000 0.2772
v 0.1148 0.2500 0.2772
v 0.2772 0.2500 0.1148
f 292/4 291/4 290/4 289/4
v 0.1148 0.2000 0.2772
v -0.1148 0.2000 0.2772
v -0.1148 0.2500 0.2772
v 0.1148 0.2500 0.2772
f 296/4 295/4 294/4 293/4
v 0.1148 0.2000 0.2772
v 0.2772 0.2000 0.1148
v 0.2772 0.2000 -0.1148
v 0.1148 0.2000 -0.2772
v -0.1148 0.2000 -0.2772
v -0.2772 0.2000 -0.1148
v -0.2772 0.2000 0.1148
v -0.1148 0.2000 0.2772
f 304/4 303/4 302/4 301/4 300/4 299/4 298/4 297/4
v -0.1148 0.2500 0.2772
v -0.2772 0.2500 0.1148
v -0.2772 0.2500 -0.1148
v -0.1148 0.2500 -0.2772
v 0.1148 0.2500 -0.2772
v 0.2772 0.2500 -0.1148
v 0.2772 0.2500 0.1148
v 0.1148 0.2500 0.2772
f 312/4 311/4 310/4 309/4 308/4 307/4 306/4 305/4
v 0.2300 0.4100 0.0900
v 0.2300 0.5900 0.0900
v 0.2300 0.5900 -0.0900
v 0.2300 0.4100 -0.0900
f 316/6 315/6 314/6 313/6
v 0.1700 0.4100 -0.0900
v 0.1700 0.5900 -0.0900
v 0.1700 0.5900 0.0900
v 0.1700 0.4100 0.0900
f 320/6 319/6 318/6 317/6
v 0.2300 0.4100 -0.0900
v 0.1700 0.4100 -0.0900
v 0.1700 0.4100 0.0900
v 0.2300 0.4100 0.0900
f 324/6 323/6 322/6 321/6
v 0.2300 0.5900 0.0900
v 0.1700 0.5900 0.0900
v 0.1700 0.5900 -0.0900
v 0.2300 0.5900 -0.0900
f 328/6 327/6 326/6 325/6
v 0.2300 0.5900 -0.0900
v 0.1700 0.5900 -0.0900
v 0.1700 0.4100 -0.0900
v 0.2300 0.4100 -0.0900
f 332/6 331/6 330/6 329/6
v 0.2300 0.4100 0.0900
v 0.1700 0.4100 0.0900
v 0.1700 0.5900 0.0900
v 0.2300 0.5900 0.0900
f 336/6 335/6 334/6 333/6
v 0.1100 0.8200 0.1100
v 0.1100 0.9400 0.1100
v 0.1100 0.9400 -0.1100
v 0.1100 0.8200 -0.1100
f 340/3 339/3 338/3 337/3
v -0.1100 0.8200 -0.1100
v -0.1100 0.9400 -0.1100
v -0.1100 0.9400 0.1100
v -0.1100 0.8200 0.1100
f 344/3 343/3 342/3 341/3
v 0.1100 0.8200 -0.1100
v -0.1100 0.8200 -0.1100
v -0.1100 0.8200 0.1100
v 0.1100 0.8200 0.1100
f 348/3 347/3 346/3 345/3
v 0.1100 0.9400 0.1100
v -0.1100 0.9400 0.1100
v -0.1100 0.9400 -0.1100
v 0.1100 0.9400 -0.1100
f 352/3 351/3 350/3 349/3
v 0.1100 0.9400 -0.1100
v -0.1100 0.9400 -0.1100
v -0.1100 0.8200 -0.1100
v 0.1100 0.8200 -0.1100
f 356/3 355/3 354/3 353/3
v 0.1100 0.8200 0.1100
v -0.1100 0.8200 0.1100
v -0.1100 0.9400 0.1100
v 0.1100 0.9400 0.1100
f 360/3 359/3 358/3 357/3
v 0.1700 0.3600 0.1780
v 0.1700 0.4000 0.1780
v 0.1700 0.4000 0.1660
v 0.1700 0.3600 0.1660
f 364/8 363/8 362/8 361/8
v 0.0850 0.3600 0.1660
v 0.0850 0.4000 0.1660
v 0.0850 0.4000 0.1780
v 0.0850 0.3600 0.1780
f 368/8 367/8 366/8 365/8
v 0.1700 0.3600 0.1660
v 0.0850 0.3600 0.1660
v 0.0850 0.3600 0.1780
v 0.1700 0.3600 0.1780
f 372/8 371/8 370/8 369/8
v 0.1700 0.4000 0.1780
v 0.0850 0.4000 0.1780
v 0.0850 0.4000 0.1660
v 0.1700 0.4000 0.1660
f 376/8 375/8 374/8 373/8
v 0.1700 0.4000 0.1660
v 0.0850 0.4000 0.1660
v 0.0850 0.3600 0.1660
v 0.1700 0.3600 0.1660
f 380/8 379/8 378/8 377/8
v 0.1700 0.3600 0.1780
v 0.0850 0.3600 0.1780
v 0.0850 0.4000 0.1780
v 0.1700 0.4000 0.1780
f 384/8 383/8 382/8 381/8
v 0.0850 0.3600 0.1780
v 0.0850 0.4000 0.1780
v 0.0850 0.4000 0.1660
v 0.0850 0.3600 0.1660
f 388/6 387/6 386/6 385/6
v 0.0000 0.3600 0.1660
v 0.0000 0.4000 0.1660
v 0.0000 0.4000 0.1780
v 0.0000 0.3600 0.1780
f 392/6 391/6 390/6 389/6
v 0.0850 0.3600 0.1660
v 0.0000 0.3600 0.1660
v 0.0000 0.3600 0.1780
v 0.0850 0.3600 0.1780
f 396/6 395/6 394/6 393/6
v 0.0850 0.4000 0.1780
v 0.0000 0.4000 0.1780
v 0.0000 0.4000 0.1660
v 0.0850 0.4000 0.1660
f 400/6 399/6 398/6 397/6
v 0.0850 0.4000 0.1660
v 0.0000 0.4000 0.1660
v 0.0000 0.3600 0.1660
v 0.0850 0.3600 0.1660
f 404/6 403/6 402/6 401/6
v 0.0850 0.3600 0.1780
v 0.0000 0.3600 0.1780
v 0.0000 0.4000 0.1780
v 0.0850 0.4000 0.1780
f 408/6 407/6 406/6 405/6
v -0.0000 0.3600 0.1780
v -0.0000 0.4000 0.1780
v -0.0000 0.4000 0.1660
v -0.0000 0.3600 0.1660
f 412/8 411/8 410/8 409/8
v -0.0850 0.3600 0.1660
v -0.0850 0.4000 0.1660
v -0.0850 0.4000 0.1780
v -0.0850 0.3600 0.1780
f 416/8 415/8 414/8 413/8
v -0.0000 0.3600 0.1660
v -0.0850 0.3600 0.1660
v -0.0850 0.3600 0.1780
v -0.0000 0.3600 0.1780
f 420/8 419/8 418/8 417/8
v -0.0000 0.4000 0.1780
v -0.0850 0.4000 0.1780
v -0.0850 0.4000 0.1660
v -0.0000 0.4000 0.1660
f 424/8 423/8 422/8 421/8
v -0.0000 0.4000 0.1660
v -0.0850 0.4000 0.1660
v -0.0850 0.3600 0.1660
v -0.0000 0.3600 0.1660
f 428/8 427/8 426/8 425/8
v -0.0000 0.3600 0.1780
v -0.0850 0.3600 0.1780
v -0.0850 0.4000 0.1780
v -0.0000 0.4000 0.1780
f 432/8 431/8 430/8 429/8
v -0.0850 0.3600 0.1780
v -0.0850 0.4000 0.1780
v -0.0850 0.4000 0.1660
v -0.0850 0.3600 0.1660
f 436/6 435/6 434/6 433/6
v -0.1700 0.3600 0.1660
v -0.1700 0.4000 0.1660
v -0.1700 0.4000 0.1780
v -0.1700 0.3600 0.1780
f 440/6 439/6 438/6 437/6
v -0.0850 0.3600 0.1660
v -0.1700 0.3600 0.1660
v -0.1700 0.3600 0.1780
v -0.0850 0.3600 0.1780
f 444/6 443/6 442/6 441/6
v -0.0850 0.4000 0.1780
v -0.1700 0.4000 0.1780
v -0.1700 0.4000 0.1660
v -0.0850 0.4000 0.1660
f 448/6 447/6 446/6 445/6
v -0.0850 0.4000 0.1660
v -0.1700 0.4000 0.1660
v -0.1700 0.3600 0.1660
v -0.0850 0.3600 0.1660
f 452/6 451/6 450/6 449/6
v -0.0850 0.3600 0.1780
v -0.1700 0.3600 0.1780
v -0.1700 0.4000 0.1780
v -0.0850 0.4000 0.1780
f 456/6 455/6 454/6 453/6
v -0.1275 1.2700 0.1330
v -0.1350 1.2700 0.1200
v -0.1350 1.5300 0.1200
v -0.1275 1.5300 0.1330
f 460/7 459/7 458/7 457/7
v -0.1350 1.2700 0.1200
v -0.1275 1.2700 0.1070
v -0.1275 1.5300 0.1070
v -0.1350 1.5300 0.1200
f 464/7 463/7 462/7 461/7
v -0.1275 1.2700 0.1070
v -0.1125 1.2700 0.1070
v -0.1125 1.5300 0.1070
v -0.1275 1.5300 0.1070
f 468/7 467/7 466/7 465/7
v -0.1125 1.2700 0.1070
v -0.1050 1.2700 0.1200
v -0.1050 1.5300 0.1200
v -0.1125 1.5300 0.1070
f 472/7 471/7 470/7 469/7
v -0.1050 1.2700 0.1200
v -0.1125 1.2700 0.1330
v -0.1125 1.5300 0.1330
v -0.1050 1.5300 0.1200
f 476/7 475/7 474/7 473/7
v -0.1125 1.2700 0.1330
v -0.1275 1.2700 0.1330
v -0.1275 1.5300 0.1330
v -0.1125 1.5300 0.1330
f 480/7 479/7 478/7 477/7
v -0.1125 1.2700 0.1330
v -0.1050 1.2700 0.1200
v -0.1125 1.2700 0.1070
v -0.1275 1.2700 0.1070
v -0.1350 1.2700 0.1200
v -0.1275 1.2700 0.1330
f 486/7 485/7 484/7 483/7 482/7 481/7
v -0.1275 1.5300 0.1330
v -0.1350 1.5300 0.1200
v -0.1275 1.5300 0.1070
v -0.1125 1.5300 0.1070
v -0.1050 1.5300 0.1200
v -0.1125 1.5300 0.1330
f 492/7 491/7 490/7 489/7 488/7 487/7
v 0.0300 1.2700 0.0300
v 0.0300 1.3300 0.0300
v 0.0300 1.3300 -0.0300
v 0.0300 1.2700 -0.0300
f 496/16 495/16 494/16 493/16
v -0.0300 1.2700 -0.0300
v -0.0300 1.3300 -0.0300
v -0.0300 1.3300 0.0300
v -0.0300 1.2700 0.0300
f 500/16 499/16 498/16 497/16
v 0.0300 1.2700 -0.0300
v -0.0300 1.2700 -0.0300
v -0.0300 1.2700 0.0300
v 0.0300 1.2700 0.0300
f 504/16 503/16 502/16 501/16
v 0.0300 1.3300 0.0300
v -0.0300 1.3300 0.0300
v -0.0300 1.3300 -0.0300
v 0.0300 1.3300 -0.0300
f 508/16 507/16 506/16 505/16
v 0.0300 1.3300 -0.0300
v -0.0300 1.3300 -0.0300
v -0.0300 1.2700 -0.0300
v 0.0300 1.2700 -0.0300
f 512/16 511/16 510/16 509/16
v 0.0300 1.2700 0.0300
v -0.0300 1.2700 0.0300
v -0.0300 1.3300 0.0300
v 0.0300 1.3300 0.0300
f 516/16 515/16 514/16 513/16
v -0.0975 1.5275 0.1425
v -0.0975 1.5725 0.1425
v -0.0975 1.5725 0.0975
v -0.0975 1.5275 0.0975
f 520/16 519/16 518/16 517/16
v -0.1425 1.5275 0.0975
v -0.1425 1.5725 0.0975
v -0.1425 1.5725 0.1425
v -0.1425 1.5275 0.1425
f 524/16 523/16 522/16 521/16
v -0.0975 1.5275 0.0975
v -0.1425 1.5275 0.0975
v -0.1425 1.5275 0.1425
v -0.0975 1.5275 0.1425
f 528/16 527/16 526/16 525/16
v -0.0975 1.5725 0.1425
v -0.1425 1.5725 0.1425
v -0.1425 1.5725 0.0975
v -0.0975 1.5725 0.0975
f 532/16 531/16 530/16 529/16
v -0.0975 1.5725 0.0975
v -0.1425 1.5725 0.0975
v -0.1425 1.5275 0.0975
v -0.0975 1.5275 0.0975
f 536/16 535/16 534/16 533/16
v -0.0975 1.5275 0.1425
v -0.1425 1.5275 0.1425
v -0.1425 1.5725 0.1425
v -0.0975 1.5725 0.1425
f 540/16 539/16 538/16 537/16
