# Walk of Industry low-poly (generated, wi_lib.py)
mtllib wi.mtl
vt 0 0
vt 0.03125 0.03125
vt 0.09375 0.03125
vt 0.15625 0.03125
vt 0.21875 0.03125
vt 0.28125 0.03125
vt 0.34375 0.03125
vt 0.40625 0.03125
vt 0.46875 0.03125
vt 0.53125 0.03125
vt 0.59375 0.03125
vt 0.65625 0.03125
vt 0.71875 0.03125
vt 0.78125 0.03125
vt 0.84375 0.03125
vt 0.90625 0.03125
vt 0.96875 0.03125
vt 0.03125 0.09375
vt 0.09375 0.09375
vt 0.15625 0.09375
vt 0.21875 0.09375
vt 0.28125 0.09375
vt 0.34375 0.09375
vt 0.40625 0.09375
vt 0.46875 0.09375
vt 0.53125 0.09375
vt 0.59375 0.09375
vt 0.65625 0.09375
vt 0.71875 0.09375
vt 0.78125 0.09375
vt 0.84375 0.09375
vt 0.90625 0.09375
vt 0.96875 0.09375
o Body
usemtl wi_palette
v 0.4800 0.0000 0.4800
v 0.4800 0.0800 0.4800
v 0.4800 0.0800 -0.4800
v 0.4800 0.0000 -0.4800
f 4/5 3/5 2/5 1/5
v -0.4800 0.0000 -0.4800
v -0.4800 0.0800 -0.4800
v -0.4800 0.0800 0.4800
v -0.4800 0.0000 0.4800
f 8/5 7/5 6/5 5/5
v 0.4800 0.0000 -0.4800
v -0.4800 0.0000 -0.4800
v -0.4800 0.0000 0.4800
v 0.4800 0.0000 0.4800
f 12/5 11/5 10/5 9/5
v 0.4800 0.0800 0.4800
v -0.4800 0.0800 0.4800
v -0.4800 0.0800 -0.4800
v 0.4800 0.0800 -0.4800
f 16/5 15/5 14/5 13/5
v 0.4800 0.0800 -0.4800
v -0.4800 0.0800 -0.4800
v -0.4800 0.0000 -0.4800
v 0.4800 0.0000 -0.4800
f 20/5 19/5 18/5 17/5
v 0.4800 0.0000 0.4800
v -0.4800 0.0000 0.4800
v -0.4800 0.0800 0.4800
v 0.4800 0.0800 0.4800
f 24/5 23/5 22/5 21/5
v -0.1378 0.0800 0.3326
v -0.3326 0.0800 0.1378
v -0.3326 0.1600 0.1378
v -0.1378 0.1600 0.3326
f 28/6 27/6 26/6 25/6
v -0.3326 0.0800 0.1378
v -0.3326 0.0800 -0.1378
v -0.3326 0.1600 -0.1378
v -0.3326 0.1600 0.1378
f 32/6 31/6 30/6 29/6
v -0.3326 0.0800 -0.1378
v -0.1378 0.0800 -0.3326
v -0.1378 0.1600 -0.3326
v -0.3326 0.1600 -0.1378
f 36/6 35/6 34/6 33/6
v -0.1378 0.0800 -0.3326
v 0.1378 0.0800 -0.3326
v 0.1378 0.1600 -0.3326
v -0.1378 0.1600 -0.3326
f 40/6 39/6 38/6 37/6
v 0.1378 0.0800 -0.3326
v 0.3326 0.0800 -0.1378
v 0.3326 0.1600 -0.1378
v 0.1378 0.1600 -0.3326
f 44/6 43/6 42/6 41/6
v 0.3326 0.0800 -0.1378
v 0.3326 0.0800 0.1378
v 0.3326 0.1600 0.1378
v 0.3326 0.1600 -0.1378
f 48/6 47/6 46/6 45/6
v 0.3326 0.0800 0.1378
v 0.1378 0.0800 0.3326
v 0.1378 0.1600 0.3326
v 0.3326 0.1600 0.1378
f 52/6 51/6 50/6 49/6
v 0.1378 0.0800 0.3326
v -0.1378 0.0800 0.3326
v -0.1378 0.1600 0.3326
v 0.1378 0.1600 0.3326
f 56/6 55/6 54/6 53/6
v 0.1378 0.0800 0.3326
v 0.3326 0.0800 0.1378
v 0.3326 0.0800 -0.1378
v 0.1378 0.0800 -0.3326
v -0.1378 0.0800 -0.3326
v -0.3326 0.0800 -0.1378
v -0.3326 0.0800 0.1378
v -0.1378 0.0800 0.3326
f 64/6 63/6 62/6 61/6 60/6 59/6 58/6 57/6
v -0.1378 0.1600 0.3326
v -0.3326 0.1600 0.1378
v -0.3326 0.1600 -0.1378
v -0.1378 0.1600 -0.3326
v 0.1378 0.1600 -0.3326
v 0.3326 0.1600 -0.1378
v 0.3326 0.1600 0.1378
v 0.1378 0.1600 0.3326
f 72/6 71/6 70/6 69/6 68/6 67/6 66/6 65/6
v -0.0434 1.0220 0.0080
v -0.0769 1.0380 0.0415
v -0.3031 0.0880 0.2678
v -0.2696 0.0720 0.2343
f 76/2 75/2 74/2 73/2
v -0.2343 0.0720 0.2696
v -0.2678 0.0880 0.3031
v -0.0415 1.0380 0.0769
v -0.0080 1.0220 0.0434
f 80/2 79/2 78/2 77/2
v -0.2696 0.0720 0.2343
v -0.2343 0.0720 0.2696
v -0.0080 1.0220 0.0434
v -0.0434 1.0220 0.0080
f 84/2 83/2 82/2 81/2
v -0.0769 1.0380 0.0415
v -0.0415 1.0380 0.0769
v -0.2678 0.0880 0.3031
v -0.3031 0.0880 0.2678
f 88/2 87/2 86/2 85/2
v -0.3031 0.0880 0.2678
v -0.2678 0.0880 0.3031
v -0.2343 0.0720 0.2696
v -0.2696 0.0720 0.2343
f 92/2 91/2 90/2 89/2
v -0.0434 1.0220 0.0080
v -0.0080 1.0220 0.0434
v -0.0415 1.0380 0.0769
v -0.0769 1.0380 0.0415
f 96/2 95/2 94/2 93/2
v 0.0286 1.0220 0.0335
v 0.0744 1.0380 0.0458
v 0.3835 0.0880 0.1286
v 0.3377 0.0720 0.1164
f 100/2 99/2 98/2 97/2
v 0.3506 0.0720 0.0681
v 0.3964 0.0880 0.0803
v 0.0873 1.0380 -0.0025
v 0.0415 1.0220 -0.0148
f 104/2 103/2 102/2 101/2
v 0.3377 0.0720 0.1164
v 0.3506 0.0720 0.0681
v 0.0415 1.0220 -0.0148
v 0.0286 1.0220 0.0335
f 108/2 107/2 106/2 105/2
v 0.0744 1.0380 0.0458
v 0.0873 1.0380 -0.0025
v 0.3964 0.0880 0.0803
v 0.3835 0.0880 0.1286
f 112/2 111/2 110/2 109/2
v 0.3835 0.0880 0.1286
v 0.3964 0.0880 0.0803
v 0.3506 0.0720 0.0681
v 0.3377 0.0720 0.1164
f 116/2 115/2 114/2 113/2
v 0.0286 1.0220 0.0335
v 0.0415 1.0220 -0.0148
v 0.0873 1.0380 -0.0025
v 0.0744 1.0380 0.0458
f 120/2 119/2 118/2 117/2
v 0.0148 1.0220 -0.0415
v 0.0025 1.0380 -0.0873
v -0.0803 0.0880 -0.3964
v -0.0681 0.0720 -0.3506
f 124/2 123/2 122/2 121/2
v -0.1164 0.0720 -0.3377
v -0.1286 0.0880 -0.3835
v -0.0458 1.0380 -0.0744
v -0.0335 1.0220 -0.0286
f 128/2 127/2 126/2 125/2
v -0.0681 0.0720 -0.3506
v -0.1164 0.0720 -0.3377
v -0.0335 1.0220 -0.0286
v 0.0148 1.0220 -0.0415
f 132/2 131/2 130/2 129/2
v 0.0025 1.0380 -0.0873
v -0.0458 1.0380 -0.0744
v -0.1286 0.0880 -0.3835
v -0.0803 0.0880 -0.3964
f 136/2 135/2 134/2 133/2
v -0.0803 0.0880 -0.3964
v -0.1286 0.0880 -0.3835
v -0.1164 0.0720 -0.3377
v -0.0681 0.0720 -0.3506
f 140/2 139/2 138/2 137/2
v 0.0148 1.0220 -0.0415
v -0.0335 1.0220 -0.0286
v -0.0458 1.0380 -0.0744
v 0.0025 1.0380 -0.0873
f 144/2 143/2 142/2 141/2
v 0.1400 0.9900 0.1400
v 0.1400 1.0700 0.1400
v 0.1400 1.0700 -0.1400
v 0.1400 0.9900 -0.1400
f 148/4 147/4 146/4 145/4
v -0.1400 0.9900 -0.1400
v -0.1400 1.0700 -0.1400
v -0.1400 1.0700 0.1400
v -0.1400 0.9900 0.1400
f 152/4 151/4 150/4 149/4
v 0.1400 0.9900 -0.1400
v -0.1400 0.9900 -0.1400
v -0.1400 0.9900 0.1400
v 0.1400 0.9900 0.1400
f 156/4 155/4 154/4 153/4
v 0.1400 1.0700 0.1400
v -0.1400 1.0700 0.1400
v -0.1400 1.0700 -0.1400
v 0.1400 1.0700 -0.1400
f 160/4 159/4 158/4 157/4
v 0.1400 1.0700 -0.1400
v -0.1400 1.0700 -0.1400
v -0.1400 0.9900 -0.1400
v 0.1400 0.9900 -0.1400
f 164/4 163/4 162/4 161/4
v 0.1400 0.9900 0.1400
v -0.1400 0.9900 0.1400
v -0.1400 1.0700 0.1400
v 0.1400 1.0700 0.1400
f 168/4 167/4 166/4 165/4
v 0.1700 0.3700 0.1700
v 0.1700 0.6300 0.1700
v 0.1700 0.6300 -0.1700
v 0.1700 0.3700 -0.1700
f 172/2 171/2 170/2 169/2
v -0.1700 0.3700 -0.1700
v -0.1700 0.6300 -0.1700
v -0.1700 0.6300 0.1700
v -0.1700 0.3700 0.1700
f 176/2 175/2 174/2 173/2
v 0.1700 0.3700 -0.1700
v -0.1700 0.3700 -0.1700
v -0.1700 0.3700 0.1700
v 0.1700 0.3700 0.1700
f 180/2 179/2 178/2 177/2
v 0.1700 0.6300 0.1700
v -0.1700 0.6300 0.1700
v -0.1700 0.6300 -0.1700
v 0.1700 0.6300 -0.1700
f 184/2 183/2 182/2 181/2
v 0.1700 0.6300 -0.1700
v -0.1700 0.6300 -0.1700
v -0.1700 0.3700 -0.1700
v 0.1700 0.3700 -0.1700
f 188/2 187/2 186/2 185/2
v 0.1700 0.3700 0.1700
v -0.1700 0.3700 0.1700
v -0.1700 0.6300 0.1700
v 0.1700 0.6300 0.1700
f 192/2 191/2 190/2 189/2
v 0.1200 0.6300 0.1200
v 0.1200 0.6900 0.1200
v 0.1200 0.6900 -0.1200
v 0.1200 0.6300 -0.1200
f 196/4 195/4 194/4 193/4
v -0.1200 0.6300 -0.1200
v -0.1200 0.6900 -0.1200
v -0.1200 0.6900 0.1200
v -0.1200 0.6300 0.1200
f 200/4 199/4 198/4 197/4
v 0.1200 0.6300 -0.1200
v -0.1200 0.6300 -0.1200
v -0.1200 0.6300 0.1200
v 0.1200 0.6300 0.1200
f 204/4 203/4 202/4 201/4
v 0.1200 0.6900 0.1200
v -0.1200 0.6900 0.1200
v -0.1200 0.6900 -0.1200
v 0.1200 0.6900 -0.1200
f 208/4 207/4 206/4 205/4
v 0.1200 0.6900 -0.1200
v -0.1200 0.6900 -0.1200
v -0.1200 0.6300 -0.1200
v 0.1200 0.6300 -0.1200
f 212/4 211/4 210/4 209/4
v 0.1200 0.6300 0.1200
v -0.1200 0.6300 0.1200
v -0.1200 0.6900 0.1200
v 0.1200 0.6900 0.1200
f 216/4 215/4 214/4 213/4
v -0.1700 0.4100 0.0900
v -0.1700 0.5900 0.0900
v -0.1700 0.5900 -0.0900
v -0.1700 0.4100 -0.0900
f 220/6 219/6 218/6 217/6
v -0.2300 0.4100 -0.0900
v -0.2300 0.5900 -0.0900
v -0.2300 0.5900 0.0900
v -0.2300 0.4100 0.0900
f 224/6 223/6 222/6 221/6
v -0.1700 0.4100 -0.0900
v -0.2300 0.4100 -0.0900
v -0.2300 0.4100 0.0900
v -0.1700 0.4100 0.0900
f 228/6 227/6 226/6 225/6
v -0.1700 0.5900 0.0900
v -0.2300 0.5900 0.0900
v -0.2300 0.5900 -0.0900
v -0.1700 0.5900 -0.0900
f 232/6 231/6 230/6 229/6
v -0.1700 0.5900 -0.0900
v -0.2300 0.5900 -0.0900
v -0.2300 0.4100 -0.0900
v -0.1700 0.4100 -0.0900
f 236/6 235/6 234/6 233/6
v -0.1700 0.4100 0.0900
v -0.2300 0.4100 0.0900
v -0.2300 0.5900 0.0900
v -0.1700 0.5900 0.0900
f 240/6 239/6 238/6 237/6
v 0.0900 0.4200 0.1780
v 0.0900 0.5400 0.1780
v 0.0900 0.5400 0.1660
v 0.0900 0.4200 0.1660
f 244/6 243/6 242/6 241/6
v -0.0900 0.4200 0.1660
v -0.0900 0.5400 0.1660
v -0.0900 0.5400 0.1780
v -0.0900 0.4200 0.1780
f 248/6 247/6 246/6 245/6
v 0.0900 0.4200 0.1660
v -0.0900 0.4200 0.1660
v -0.0900 0.4200 0.1780
v 0.0900 0.4200 0.1780
f 252/6 251/6 250/6 249/6
v 0.0900 0.5400 0.1780
v -0.0900 0.5400 0.1780
v -0.0900 0.5400 0.1660
v 0.0900 0.5400 0.1660
f 256/6 255/6 254/6 253/6
v 0.0900 0.5400 0.1660
v -0.0900 0.5400 0.1660
v -0.0900 0.4200 0.1660
v 0.0900 0.4200 0.1660
f 260/6 259/6 258/6 257/6
v 0.0900 0.4200 0.1780
v -0.0900 0.4200 0.1780
v -0.0900 0.5400 0.1780
v 0.0900 0.5400 0.1780
f 264/6 263/6 262/6 261/6
v 0.0900 0.1836 0.2893
v 0.0900 0.1964 0.3107
v 0.0900 0.4464 0.1607
v 0.0900 0.4336 0.1393
f 268/7 267/7 266/7 265/7
v -0.0900 0.4336 0.1393
v -0.0900 0.4464 0.1607
v -0.0900 0.1964 0.3107
v -0.0900 0.1836 0.2893
f 272/7 271/7 270/7 269/7
v 0.0900 0.4336 0.1393
v -0.0900 0.4336 0.1393
v -0.0900 0.1836 0.2893
v 0.0900 0.1836 0.2893
f 276/7 275/7 274/7 273/7
v 0.0900 0.1964 0.3107
v -0.0900 0.1964 0.3107
v -0.0900 0.4464 0.1607
v 0.0900 0.4464 0.1607
f 280/7 279/7 278/7 277/7
v 0.0900 0.4464 0.1607
v -0.0900 0.4464 0.1607
v -0.0900 0.4336 0.1393
v 0.0900 0.4336 0.1393
f 284/7 283/7 282/7 281/7
v 0.0900 0.1836 0.2893
v -0.0900 0.1836 0.2893
v -0.0900 0.1964 0.3107
v 0.0900 0.1964 0.3107
f 288/7 287/7 286/7 285/7
v 0.1100 0.2020 0.2700
v 0.1100 0.2380 0.3300
v 0.1100 0.4880 0.1800
v 0.1100 0.4520 0.1200
f 292/4 291/4 290/4 289/4
v 0.0900 0.4520 0.1200
v 0.0900 0.4880 0.1800
v 0.0900 0.2380 0.3300
v 0.0900 0.2020 0.2700
f 296/4 295/4 294/4 293/4
v 0.1100 0.4520 0.1200
v 0.0900 0.4520 0.1200
v 0.0900 0.2020 0.2700
v 0.1100 0.2020 0.2700
f 300/4 299/4 298/4 297/4
v 0.1100 0.2380 0.3300
v 0.0900 0.2380 0.3300
v 0.0900 0.4880 0.1800
v 0.1100 0.4880 0.1800
f 304/4 303/4 302/4 301/4
v 0.1100 0.4880 0.1800
v 0.0900 0.4880 0.1800
v 0.0900 0.4520 0.1200
v 0.1100 0.4520 0.1200
f 308/4 307/4 306/4 305/4
v 0.1100 0.2020 0.2700
v 0.0900 0.2020 0.2700
v 0.0900 0.2380 0.3300
v 0.1100 0.2380 0.3300
f 312/4 311/4 310/4 309/4
v -0.0900 0.2020 0.2700
v -0.0900 0.2380 0.3300
v -0.0900 0.4880 0.1800
v -0.0900 0.4520 0.1200
f 316/4 315/4 314/4 313/4
v -0.1100 0.4520 0.1200
v -0.1100 0.4880 0.1800
v -0.1100 0.2380 0.3300
v -0.1100 0.2020 0.2700
f 320/4 319/4 318/4 317/4
v -0.0900 0.4520 0.1200
v -0.1100 0.4520 0.1200
v -0.1100 0.2020 0.2700
v -0.0900 0.2020 0.2700
f 324/4 323/4 322/4 321/4
v -0.0900 0.2380 0.3300
v -0.1100 0.2380 0.3300
v -0.1100 0.4880 0.1800
v -0.0900 0.4880 0.1800
f 328/4 327/4 326/4 325/4
v -0.0900 0.4880 0.1800
v -0.1100 0.4880 0.1800
v -0.1100 0.4520 0.1200
v -0.0900 0.4520 0.1200
f 332/4 331/4 330/4 329/4
v -0.0900 0.2020 0.2700
v -0.1100 0.2020 0.2700
v -0.1100 0.2380 0.3300
v -0.0900 0.2380 0.3300
f 336/4 335/4 334/4 333/4
v 0.1100 0.0800 0.4100
v 0.1100 0.1300 0.4100
v 0.1100 0.1300 0.2200
v 0.1100 0.0800 0.2200
f 340/3 339/3 338/3 337/3
v -0.1100 0.0800 0.2200
v -0.1100 0.1300 0.2200
v -0.1100 0.1300 0.4100
v -0.1100 0.0800 0.4100
f 344/3 343/3 342/3 341/3
v 0.1100 0.0800 0.2200
v -0.1100 0.0800 0.2200
v -0.1100 0.0800 0.4100
v 0.1100 0.0800 0.4100
f 348/3 347/3 346/3 345/3
v 0.1100 0.1300 0.4100
v -0.1100 0.1300 0.4100
v -0.1100 0.1300 0.2200
v 0.1100 0.1300 0.2200
f 352/3 351/3 350/3 349/3
v 0.1100 0.1300 0.2200
v -0.1100 0.1300 0.2200
v -0.1100 0.0800 0.2200
v 0.1100 0.0800 0.2200
f 356/3 355/3 354/3 353/3
v 0.1100 0.0800 0.4100
v -0.1100 0.0800 0.4100
v -0.1100 0.1300 0.4100
v 0.1100 0.1300 0.4100
f 360/3 359/3 358/3 357/3
v 0.1300 0.1300 0.4100
v 0.1300 0.1800 0.4100
v 0.1300 0.1800 0.2200
v 0.1300 0.1300 0.2200
f 364/6 363/6 362/6 361/6
v -0.1300 0.1300 0.2200
v -0.1300 0.1800 0.2200
v -0.1300 0.1800 0.4100
v -0.1300 0.1300 0.4100
f 368/6 367/6 366/6 365/6
v 0.1300 0.1300 0.2200
v -0.1300 0.1300 0.2200
v -0.1300 0.1300 0.4100
v 0.1300 0.1300 0.4100
f 372/6 371/6 370/6 369/6
v 0.1300 0.1800 0.4100
v -0.1300 0.1800 0.4100
v -0.1300 0.1800 0.2200
v 0.1300 0.1800 0.2200
f 376/6 375/6 374/6 373/6
v 0.1300 0.1800 0.2200
v -0.1300 0.1800 0.2200
v -0.1300 0.1300 0.2200
v 0.1300 0.1300 0.2200
f 380/6 379/6 378/6 377/6
v 0.1300 0.1300 0.4100
v -0.1300 0.1300 0.4100
v -0.1300 0.1800 0.4100
v 0.1300 0.1800 0.4100
f 384/6 383/6 382/6 381/6
v 0.1600 0.1550 0.4100
v 0.1600 0.2450 0.4100
v 0.1600 0.2450 0.2200
v 0.1600 0.1550 0.2200
f 388/4 387/4 386/4 385/4
v 0.1300 0.1550 0.2200
v 0.1300 0.2450 0.2200
v 0.1300 0.2450 0.4100
v 0.1300 0.1550 0.4100
f 392/4 391/4 390/4 389/4
v 0.1600 0.1550 0.2200
v 0.1300 0.1550 0.2200
v 0.1300 0.1550 0.4100
v 0.1600 0.1550 0.4100
f 396/4 395/4 394/4 393/4
v 0.1600 0.2450 0.4100
v 0.1300 0.2450 0.4100
v 0.1300 0.2450 0.2200
v 0.1600 0.2450 0.2200
f 400/4 399/4 398/4 397/4
v 0.1600 0.2450 0.2200
v 0.1300 0.2450 0.2200
v 0.1300 0.1550 0.2200
v 0.1600 0.1550 0.2200
f 404/4 403/4 402/4 401/4
v 0.1600 0.1550 0.4100
v 0.1300 0.1550 0.4100
v 0.1300 0.2450 0.4100
v 0.1600 0.2450 0.4100
f 408/4 407/4 406/4 405/4
v -0.1300 0.1550 0.4100
v -0.1300 0.2450 0.4100
v -0.1300 0.2450 0.2200
v -0.1300 0.1550 0.2200
f 412/4 411/4 410/4 409/4
v -0.1600 0.1550 0.2200
v -0.1600 0.2450 0.2200
v -0.1600 0.2450 0.4100
v -0.1600 0.1550 0.4100
f 416/4 415/4 414/4 413/4
v -0.1300 0.1550 0.2200
v -0.1600 0.1550 0.2200
v -0.1600 0.1550 0.4100
v -0.1300 0.1550 0.4100
f 420/4 419/4 418/4 417/4
v -0.1300 0.2450 0.4100
v -0.1600 0.2450 0.4100
v -0.1600 0.2450 0.2200
v -0.1300 0.2450 0.2200
f 424/4 423/4 422/4 421/4
v -0.1300 0.2450 0.2200
v -0.1600 0.2450 0.2200
v -0.1600 0.1550 0.2200
v -0.1300 0.1550 0.2200
f 428/4 427/4 426/4 425/4
v -0.1300 0.1550 0.4100
v -0.1600 0.1550 0.4100
v -0.1600 0.2450 0.4100
v -0.1300 0.2450 0.4100
f 432/4 431/4 430/4 429/4
v 0.0695 0.1810 0.2705
v 0.0695 0.1910 0.2705
v -0.0141 0.1910 0.3541
v -0.0141 0.1810 0.3541
f 436/17 435/17 434/17 433/17
v 0.0141 0.1810 0.3823
v 0.0141 0.1910 0.3823
v 0.0977 0.1910 0.2987
v 0.0977 0.1810 0.2987
f 440/17 439/17 438/17 437/17
v -0.0141 0.1810 0.3541
v 0.0141 0.1810 0.3823
v 0.0977 0.1810 0.2987
v 0.0695 0.1810 0.2705
f 444/17 443/17 442/17 441/17
v 0.0695 0.1910 0.2705
v 0.0977 0.1910 0.2987
v 0.0141 0.1910 0.3823
v -0.0141 0.1910 0.3541
f 448/17 447/17 446/17 445/17
v -0.0141 0.1910 0.3541
v 0.0141 0.1910 0.3823
v 0.0141 0.1810 0.3823
v -0.0141 0.1810 0.3541
f 452/17 451/17 450/17 449/17
v 0.0695 0.1810 0.2705
v 0.0977 0.1810 0.2987
v 0.0977 0.1910 0.2987
v 0.0695 0.1910 0.2705
f 456/17 455/17 454/17 453/17
v -0.0977 0.1810 0.2987
v -0.0977 0.1910 0.2987
v -0.0141 0.1910 0.3823
v -0.0141 0.1810 0.3823
f 460/17 459/17 458/17 457/17
v 0.0141 0.1810 0.3541
v 0.0141 0.1910 0.3541
v -0.0695 0.1910 0.2705
v -0.0695 0.1810 0.2705
f 464/17 463/17 462/17 461/17
v -0.0141 0.1810 0.3823
v 0.0141 0.1810 0.3541
v -0.0695 0.1810 0.2705
v -0.0977 0.1810 0.2987
f 468/17 467/17 466/17 465/17
v -0.0977 0.1910 0.2987
v -0.0695 0.1910 0.2705
v 0.0141 0.1910 0.3541
v -0.0141 0.1910 0.3823
f 472/17 471/17 470/17 469/17
v -0.0141 0.1910 0.3823
v 0.0141 0.1910 0.3541
v 0.0141 0.1810 0.3541
v -0.0141 0.1810 0.3823
f 476/17 475/17 474/17 473/17
v -0.0977 0.1810 0.2987
v -0.0695 0.1810 0.2705
v -0.0695 0.1910 0.2705
v -0.0977 0.1910 0.2987
f 480/17 479/17 478/17 477/17
v 0.0300 1.0700 0.0300
v 0.0300 1.1300 0.0300
v 0.0300 1.1300 -0.0300
v 0.0300 1.0700 -0.0300
f 484/16 483/16 482/16 481/16
v -0.0300 1.0700 -0.0300
v -0.0300 1.1300 -0.0300
v -0.0300 1.1300 0.0300
v -0.0300 1.0700 0.0300
f 488/16 487/16 486/16 485/16
v 0.0300 1.0700 -0.0300
v -0.0300 1.0700 -0.0300
v -0.0300 1.0700 0.0300
v 0.0300 1.0700 0.0300
f 492/16 491/16 490/16 489/16
v 0.0300 1.1300 0.0300
v -0.0300 1.1300 0.0300
v -0.0300 1.1300 -0.0300
v 0.0300 1.1300 -0.0300
f 496/16 495/16 494/16 493/16
v 0.0300 1.1300 -0.0300
v -0.0300 1.1300 -0.0300
v -0.0300 1.0700 -0.0300
v 0.0300 1.0700 -0.0300
f 500/16 499/16 498/16 497/16
v 0.0300 1.0700 0.0300
v -0.0300 1.0700 0.0300
v -0.0300 1.1300 0.0300
v 0.0300 1.1300 0.0300
f 504/16 503/16 502/16 501/16
