# Walk of Industry low-poly (generated, wi_lib.py)
mtllib wi.mtl
vt 0 0
vt 0.03125 0.03125
vt 0.09375 0.03125
vt 0.15625 0.03125
vt 0.21875 0.03125
vt 0.28125 0.03125
vt 0.34375 0.03125
vt 0.40625 0.03125
vt 0.46875 0.03125
vt 0.53125 0.03125
vt 0.59375 0.03125
vt 0.65625 0.03125
vt 0.71875 0.03125
vt 0.78125 0.03125
vt 0.84375 0.03125
vt 0.90625 0.03125
vt 0.96875 0.03125
vt 0.03125 0.09375
vt 0.09375 0.09375
vt 0.15625 0.09375
vt 0.21875 0.09375
vt 0.28125 0.09375
vt 0.34375 0.09375
vt 0.40625 0.09375
vt 0.46875 0.09375
vt 0.53125 0.09375
vt 0.59375 0.09375
vt 0.65625 0.09375
vt 0.71875 0.09375
vt 0.78125 0.09375
vt 0.84375 0.09375
vt 0.90625 0.09375
vt 0.96875 0.09375
o Body
usemtl wi_palette
v 0.9800 0.0000 0.9800
v 0.9800 0.0800 0.9800
v 0.9800 0.0800 -0.9800
v 0.9800 0.0000 -0.9800
f 4/5 3/5 2/5 1/5
v -0.9800 0.0000 -0.9800
v -0.9800 0.0800 -0.9800
v -0.9800 0.0800 0.9800
v -0.9800 0.0000 0.9800
f 8/5 7/5 6/5 5/5
v 0.9800 0.0000 -0.9800
v -0.9800 0.0000 -0.9800
v -0.9800 0.0000 0.9800
v 0.9800 0.0000 0.9800
f 12/5 11/5 10/5 9/5
v 0.9800 0.0800 0.9800
v -0.9800 0.0800 0.9800
v -0.9800 0.0800 -0.9800
v 0.9800 0.0800 -0.9800
f 16/5 15/5 14/5 13/5
v 0.9800 0.0800 -0.9800
v -0.9800 0.0800 -0.9800
v -0.9800 0.0000 -0.9800
v 0.9800 0.0000 -0.9800
f 20/5 19/5 18/5 17/5
v 0.9800 0.0000 0.9800
v -0.9800 0.0000 0.9800
v -0.9800 0.0800 0.9800
v 0.9800 0.0800 0.9800
f 24/5 23/5 22/5 21/5
v 0.8500 0.0800 0.8500
v 0.8500 0.1600 0.8500
v 0.8500 0.1600 -0.8500
v 0.8500 0.0800 -0.8500
f 28/11 27/11 26/11 25/11
v -0.8500 0.0800 -0.8500
v -0.8500 0.1600 -0.8500
v -0.8500 0.1600 0.8500
v -0.8500 0.0800 0.8500
f 32/11 31/11 30/11 29/11
v 0.8500 0.0800 -0.8500
v -0.8500 0.0800 -0.8500
v -0.8500 0.0800 0.8500
v 0.8500 0.0800 0.8500
f 36/11 35/11 34/11 33/11
v 0.8500 0.1600 0.8500
v -0.8500 0.1600 0.8500
v -0.8500 0.1600 -0.8500
v 0.8500 0.1600 -0.8500
f 40/11 39/11 38/11 37/11
v 0.8500 0.1600 -0.8500
v -0.8500 0.1600 -0.8500
v -0.8500 0.0800 -0.8500
v 0.8500 0.0800 -0.8500
f 44/11 43/11 42/11 41/11
v 0.8500 0.0800 0.8500
v -0.8500 0.0800 0.8500
v -0.8500 0.1600 0.8500
v 0.8500 0.1600 0.8500
f 48/11 47/11 46/11 45/11
v -0.0536 0.1600 -0.4907
v -0.1293 0.1600 -0.5664
v -0.1293 0.4600 -0.5664
v -0.0536 0.4600 -0.4907
f 52/7 51/7 50/7 49/7
v -0.1293 0.1600 -0.5664
v -0.1293 0.1600 -0.6736
v -0.1293 0.4600 -0.6736
v -0.1293 0.4600 -0.5664
f 56/7 55/7 54/7 53/7
v -0.1293 0.1600 -0.6736
v -0.0536 0.1600 -0.7493
v -0.0536 0.4600 -0.7493
v -0.1293 0.4600 -0.6736
f 60/7 59/7 58/7 57/7
v -0.0536 0.1600 -0.7493
v 0.0536 0.1600 -0.7493
v 0.0536 0.4600 -0.7493
v -0.0536 0.4600 -0.7493
f 64/7 63/7 62/7 61/7
v 0.0536 0.1600 -0.7493
v 0.1293 0.1600 -0.6736
v 0.1293 0.4600 -0.6736
v 0.0536 0.4600 -0.7493
f 68/7 67/7 66/7 65/7
v 0.1293 0.1600 -0.6736
v 0.1293 0.1600 -0.5664
v 0.1293 0.4600 -0.5664
v 0.1293 0.4600 -0.6736
f 72/7 71/7 70/7 69/7
v 0.1293 0.1600 -0.5664
v 0.0536 0.1600 -0.4907
v 0.0536 0.4600 -0.4907
v 0.1293 0.4600 -0.5664
f 76/7 75/7 74/7 73/7
v 0.0536 0.1600 -0.4907
v -0.0536 0.1600 -0.4907
v -0.0536 0.4600 -0.4907
v 0.0536 0.4600 -0.4907
f 80/7 79/7 78/7 77/7
v 0.0536 0.1600 -0.4907
v 0.1293 0.1600 -0.5664
v 0.1293 0.1600 -0.6736
v 0.0536 0.1600 -0.7493
v -0.0536 0.1600 -0.7493
v -0.1293 0.1600 -0.6736
v -0.1293 0.1600 -0.5664
v -0.0536 0.1600 -0.4907
f 88/7 87/7 86/7 85/7 84/7 83/7 82/7 81/7
v -0.0536 0.4600 -0.4907
v -0.1293 0.4600 -0.5664
v -0.1293 0.4600 -0.6736
v -0.0536 0.4600 -0.7493
v 0.0536 0.4600 -0.7493
v 0.1293 0.4600 -0.6736
v 0.1293 0.4600 -0.5664
v 0.0536 0.4600 -0.4907
f 96/7 95/7 94/7 93/7 92/7 91/7 90/7 89/7
v -0.0689 0.4600 -0.4537
v -0.1663 0.4600 -0.5511
v -0.1663 0.5100 -0.5511
v -0.0689 0.5100 -0.4537
f 100/4 99/4 98/4 97/4
v -0.1663 0.4600 -0.5511
v -0.1663 0.4600 -0.6889
v -0.1663 0.5100 -0.6889
v -0.1663 0.5100 -0.5511
f 104/4 103/4 102/4 101/4
v -0.1663 0.4600 -0.6889
v -0.0689 0.4600 -0.7863
v -0.0689 0.5100 -0.7863
v -0.1663 0.5100 -0.6889
f 108/4 107/4 106/4 105/4
v -0.0689 0.4600 -0.7863
v 0.0689 0.4600 -0.7863
v 0.0689 0.5100 -0.7863
v -0.0689 0.5100 -0.7863
f 112/4 111/4 110/4 109/4
v 0.0689 0.4600 -0.7863
v 0.1663 0.4600 -0.6889
v 0.1663 0.5100 -0.6889
v 0.0689 0.5100 -0.7863
f 116/4 115/4 114/4 113/4
v 0.1663 0.4600 -0.6889
v 0.1663 0.4600 -0.5511
v 0.1663 0.5100 -0.5511
v 0.1663 0.5100 -0.6889
f 120/4 119/4 118/4 117/4
v 0.1663 0.4600 -0.5511
v 0.0689 0.4600 -0.4537
v 0.0689 0.5100 -0.4537
v 0.1663 0.5100 -0.5511
f 124/4 123/4 122/4 121/4
v 0.0689 0.4600 -0.4537
v -0.0689 0.4600 -0.4537
v -0.0689 0.5100 -0.4537
v 0.0689 0.5100 -0.4537
f 128/4 127/4 126/4 125/4
v 0.0689 0.4600 -0.4537
v 0.1663 0.4600 -0.5511
v 0.1663 0.4600 -0.6889
v 0.0689 0.4600 -0.7863
v -0.0689 0.4600 -0.7863
v -0.1663 0.4600 -0.6889
v -0.1663 0.4600 -0.5511
v -0.0689 0.4600 -0.4537
f 136/4 135/4 134/4 133/4 132/4 131/4 130/4 129/4
v -0.0689 0.5100 -0.4537
v -0.1663 0.5100 -0.5511
v -0.1663 0.5100 -0.6889
v -0.0689 0.5100 -0.7863
v 0.0689 0.5100 -0.7863
v 0.1663 0.5100 -0.6889
v 0.1663 0.5100 -0.5511
v 0.0689 0.5100 -0.4537
f 144/4 143/4 142/4 141/4 140/4 139/4 138/4 137/4
v -0.0000 0.4050 -0.6633
v -0.0000 0.4300 -0.6200
v -0.5500 0.4300 -0.6200
v -0.5500 0.4050 -0.6633
f 148/7 147/7 146/7 145/7
v -0.0000 0.4300 -0.6200
v -0.0000 0.4050 -0.5767
v -0.5500 0.4050 -0.5767
v -0.5500 0.4300 -0.6200
f 152/7 151/7 150/7 149/7
v -0.0000 0.4050 -0.5767
v -0.0000 0.3550 -0.5767
v -0.5500 0.3550 -0.5767
v -0.5500 0.4050 -0.5767
f 156/7 155/7 154/7 153/7
v -0.0000 0.3550 -0.5767
v -0.0000 0.3300 -0.6200
v -0.5500 0.3300 -0.6200
v -0.5500 0.3550 -0.5767
f 160/7 159/7 158/7 157/7
v -0.0000 0.3300 -0.6200
v -0.0000 0.3550 -0.6633
v -0.5500 0.3550 -0.6633
v -0.5500 0.3300 -0.6200
f 164/7 163/7 162/7 161/7
v -0.0000 0.3550 -0.6633
v -0.0000 0.4050 -0.6633
v -0.5500 0.4050 -0.6633
v -0.5500 0.3550 -0.6633
f 168/7 167/7 166/7 165/7
v -0.0000 0.3550 -0.6633
v -0.0000 0.3300 -0.6200
v -0.0000 0.3550 -0.5767
v -0.0000 0.4050 -0.5767
v -0.0000 0.4300 -0.6200
v -0.0000 0.4050 -0.6633
f 174/7 173/7 172/7 171/7 170/7 169/7
v -0.5500 0.4050 -0.6633
v -0.5500 0.4300 -0.6200
v -0.5500 0.4050 -0.5767
v -0.5500 0.3550 -0.5767
v -0.5500 0.3300 -0.6200
v -0.5500 0.3550 -0.6633
f 180/7 179/7 178/7 177/7 176/7 175/7
v 0.2250 0.1800 0.7500
v 0.2250 0.6800 0.7500
v 0.2250 0.6800 0.3500
v 0.2250 0.1800 0.3500
f 184/3 183/3 182/3 181/3
v -0.2250 0.1800 0.3500
v -0.2250 0.6800 0.3500
v -0.2250 0.6800 0.7500
v -0.2250 0.1800 0.7500
f 188/3 187/3 186/3 185/3
v 0.2250 0.1800 0.3500
v -0.2250 0.1800 0.3500
v -0.2250 0.1800 0.7500
v 0.2250 0.1800 0.7500
f 192/3 191/3 190/3 189/3
v 0.2250 0.6800 0.7500
v -0.2250 0.6800 0.7500
v -0.2250 0.6800 0.3500
v 0.2250 0.6800 0.3500
f 196/3 195/3 194/3 193/3
v 0.2250 0.6800 0.3500
v -0.2250 0.6800 0.3500
v -0.2250 0.1800 0.3500
v 0.2250 0.1800 0.3500
f 200/3 199/3 198/3 197/3
v 0.2250 0.1800 0.7500
v -0.2250 0.1800 0.7500
v -0.2250 0.6800 0.7500
v 0.2250 0.6800 0.7500
f 204/3 203/3 202/3 201/3
v 0.2200 0.2500 0.7580
v 0.2200 0.3100 0.7580
v 0.2200 0.3100 0.7460
v 0.2200 0.2500 0.7460
f 208/8 207/8 206/8 205/8
v 0.1100 0.2500 0.7460
v 0.1100 0.3100 0.7460
v 0.1100 0.3100 0.7580
v 0.1100 0.2500 0.7580
f 212/8 211/8 210/8 209/8
v 0.2200 0.2500 0.7460
v 0.1100 0.2500 0.7460
v 0.1100 0.2500 0.7580
v 0.2200 0.2500 0.7580
f 216/8 215/8 214/8 213/8
v 0.2200 0.3100 0.7580
v 0.1100 0.3100 0.7580
v 0.1100 0.3100 0.7460
v 0.2200 0.3100 0.7460
f 220/8 219/8 218/8 217/8
v 0.2200 0.3100 0.7460
v 0.1100 0.3100 0.7460
v 0.1100 0.2500 0.7460
v 0.2200 0.2500 0.7460
f 224/8 223/8 222/8 221/8
v 0.2200 0.2500 0.7580
v 0.1100 0.2500 0.7580
v 0.1100 0.3100 0.7580
v 0.2200 0.3100 0.7580
f 228/8 227/8 226/8 225/8
v 0.1100 0.2500 0.7580
v 0.1100 0.3100 0.7580
v 0.1100 0.3100 0.7460
v 0.1100 0.2500 0.7460
f 232/6 231/6 230/6 229/6
v -0.0000 0.2500 0.7460
v -0.0000 0.3100 0.7460
v -0.0000 0.3100 0.7580
v -0.0000 0.2500 0.7580
f 236/6 235/6 234/6 233/6
v 0.1100 0.2500 0.7460
v -0.0000 0.2500 0.7460
v -0.0000 0.2500 0.7580
v 0.1100 0.2500 0.7580
f 240/6 239/6 238/6 237/6
v 0.1100 0.3100 0.7580
v -0.0000 0.3100 0.7580
v -0.0000 0.3100 0.7460
v 0.1100 0.3100 0.7460
f 244/6 243/6 242/6 241/6
v 0.1100 0.3100 0.7460
v -0.0000 0.3100 0.7460
v -0.0000 0.2500 0.7460
v 0.1100 0.2500 0.7460
f 248/6 247/6 246/6 245/6
v 0.1100 0.2500 0.7580
v -0.0000 0.2500 0.7580
v -0.0000 0.3100 0.7580
v 0.1100 0.3100 0.7580
f 252/6 251/6 250/6 249/6
v -0.0000 0.2500 0.7580
v -0.0000 0.3100 0.7580
v -0.0000 0.3100 0.7460
v -0.0000 0.2500 0.7460
f 256/8 255/8 254/8 253/8
v -0.1100 0.2500 0.7460
v -0.1100 0.3100 0.7460
v -0.1100 0.3100 0.7580
v -0.1100 0.2500 0.7580
f 260/8 259/8 258/8 257/8
v -0.0000 0.2500 0.7460
v -0.1100 0.2500 0.7460
v -0.1100 0.2500 0.7580
v -0.0000 0.2500 0.7580
f 264/8 263/8 262/8 261/8
v -0.0000 0.3100 0.7580
v -0.1100 0.3100 0.7580
v -0.1100 0.3100 0.7460
v -0.0000 0.3100 0.7460
f 268/8 267/8 266/8 265/8
v -0.0000 0.3100 0.7460
v -0.1100 0.3100 0.7460
v -0.1100 0.2500 0.7460
v -0.0000 0.2500 0.7460
f 272/8 271/8 270/8 269/8
v -0.0000 0.2500 0.7580
v -0.1100 0.2500 0.7580
v -0.1100 0.3100 0.7580
v -0.0000 0.3100 0.7580
f 276/8 275/8 274/8 273/8
v -0.1100 0.2500 0.7580
v -0.1100 0.3100 0.7580
v -0.1100 0.3100 0.7460
v -0.1100 0.2500 0.7460
f 280/6 279/6 278/6 277/6
v -0.2200 0.2500 0.7460
v -0.2200 0.3100 0.7460
v -0.2200 0.3100 0.7580
v -0.2200 0.2500 0.7580
f 284/6 283/6 282/6 281/6
v -0.1100 0.2500 0.7460
v -0.2200 0.2500 0.7460
v -0.2200 0.2500 0.7580
v -0.1100 0.2500 0.7580
f 288/6 287/6 286/6 285/6
v -0.1100 0.3100 0.7580
v -0.2200 0.3100 0.7580
v -0.2200 0.3100 0.7460
v -0.1100 0.3100 0.7460
f 292/6 291/6 290/6 289/6
v -0.1100 0.3100 0.7460
v -0.2200 0.3100 0.7460
v -0.2200 0.2500 0.7460
v -0.1100 0.2500 0.7460
f 296/6 295/6 294/6 293/6
v -0.1100 0.2500 0.7580
v -0.2200 0.2500 0.7580
v -0.2200 0.3100 0.7580
v -0.1100 0.3100 0.7580
f 300/6 299/6 298/6 297/6
v -0.6765 0.1600 -0.4352
v -0.7848 0.1600 -0.5435
v -0.7848 0.6100 -0.5435
v -0.6765 0.6100 -0.4352
f 304/6 303/6 302/6 301/6
v -0.7848 0.1600 -0.5435
v -0.7848 0.1600 -0.6965
v -0.7848 0.6100 -0.6965
v -0.7848 0.6100 -0.5435
f 308/6 307/6 306/6 305/6
v -0.7848 0.1600 -0.6965
v -0.6765 0.1600 -0.8048
v -0.6765 0.6100 -0.8048
v -0.7848 0.6100 -0.6965
f 312/6 311/6 310/6 309/6
v -0.6765 0.1600 -0.8048
v -0.5235 0.1600 -0.8048
v -0.5235 0.6100 -0.8048
v -0.6765 0.6100 -0.8048
f 316/6 315/6 314/6 313/6
v -0.5235 0.1600 -0.8048
v -0.4152 0.1600 -0.6965
v -0.4152 0.6100 -0.6965
v -0.5235 0.6100 -0.8048
f 320/6 319/6 318/6 317/6
v -0.4152 0.1600 -0.6965
v -0.4152 0.1600 -0.5435
v -0.4152 0.6100 -0.5435
v -0.4152 0.6100 -0.6965
f 324/6 323/6 322/6 321/6
v -0.4152 0.1600 -0.5435
v -0.5235 0.1600 -0.4352
v -0.5235 0.6100 -0.4352
v -0.4152 0.6100 -0.5435
f 328/6 327/6 326/6 325/6
v -0.5235 0.1600 -0.4352
v -0.6765 0.1600 -0.4352
v -0.6765 0.6100 -0.4352
v -0.5235 0.6100 -0.4352
f 332/6 331/6 330/6 329/6
v -0.5235 0.1600 -0.4352
v -0.4152 0.1600 -0.5435
v -0.4152 0.1600 -0.6965
v -0.5235 0.1600 -0.8048
v -0.6765 0.1600 -0.8048
v -0.7848 0.1600 -0.6965
v -0.7848 0.1600 -0.5435
v -0.6765 0.1600 -0.4352
f 340/6 339/6 338/6 337/6 336/6 335/6 334/6 333/6
v -0.6765 0.6100 -0.4352
v -0.7848 0.6100 -0.5435
v -0.7848 0.6100 -0.6965
v -0.6765 0.6100 -0.8048
v -0.5235 0.6100 -0.8048
v -0.4152 0.6100 -0.6965
v -0.4152 0.6100 -0.5435
v -0.5235 0.6100 -0.4352
f 348/6 347/6 346/6 345/6 344/6 343/6 342/6 341/6
v -0.6804 0.3600 -0.4260
v -0.7940 0.3600 -0.5396
v -0.7940 0.4000 -0.5396
v -0.6804 0.4000 -0.4260
f 352/4 351/4 350/4 349/4
v -0.7940 0.3600 -0.5396
v -0.7940 0.3600 -0.7004
v -0.7940 0.4000 -0.7004
v -0.7940 0.4000 -0.5396
f 356/4 355/4 354/4 353/4
v -0.7940 0.3600 -0.7004
v -0.6804 0.3600 -0.8140
v -0.6804 0.4000 -0.8140
v -0.7940 0.4000 -0.7004
f 360/4 359/4 358/4 357/4
v -0.6804 0.3600 -0.8140
v -0.5196 0.3600 -0.8140
v -0.5196 0.4000 -0.8140
v -0.6804 0.4000 -0.8140
f 364/4 363/4 362/4 361/4
v -0.5196 0.3600 -0.8140
v -0.4060 0.3600 -0.7004
v -0.4060 0.4000 -0.7004
v -0.5196 0.4000 -0.8140
f 368/4 367/4 366/4 365/4
v -0.4060 0.3600 -0.7004
v -0.4060 0.3600 -0.5396
v -0.4060 0.4000 -0.5396
v -0.4060 0.4000 -0.7004
f 372/4 371/4 370/4 369/4
v -0.4060 0.3600 -0.5396
v -0.5196 0.3600 -0.4260
v -0.5196 0.4000 -0.4260
v -0.4060 0.4000 -0.5396
f 376/4 375/4 374/4 373/4
v -0.5196 0.3600 -0.4260
v -0.6804 0.3600 -0.4260
v -0.6804 0.4000 -0.4260
v -0.5196 0.4000 -0.4260
f 380/4 379/4 378/4 377/4
v -0.5196 0.3600 -0.4260
v -0.4060 0.3600 -0.5396
v -0.4060 0.3600 -0.7004
v -0.5196 0.3600 -0.8140
v -0.6804 0.3600 -0.8140
v -0.7940 0.3600 -0.7004
v -0.7940 0.3600 -0.5396
v -0.6804 0.3600 -0.4260
f 388/4 387/4 386/4 385/4 384/4 383/4 382/4 381/4
v -0.6804 0.4000 -0.4260
v -0.7940 0.4000 -0.5396
v -0.7940 0.4000 -0.7004
v -0.6804 0.4000 -0.8140
v -0.5196 0.4000 -0.8140
v -0.4060 0.4000 -0.7004
v -0.4060 0.4000 -0.5396
v -0.5196 0.4000 -0.4260
f 396/4 395/4 394/4 393/4 392/4 391/4 390/4 389/4
v 0.0339 1.3326 -0.0859
v -0.0339 1.3156 -0.0831
v 0.2661 0.1456 0.1169
v 0.3339 0.1626 0.1141
f 400/2 399/2 398/2 397/2
v 0.3339 0.1744 0.1831
v 0.2661 0.1574 0.1859
v -0.0339 1.3274 -0.0141
v 0.0339 1.3444 -0.0169
f 404/2 403/2 402/2 401/2
v 0.3339 0.1626 0.1141
v 0.3339 0.1744 0.1831
v 0.0339 1.3444 -0.0169
v 0.0339 1.3326 -0.0859
f 408/2 407/2 406/2 405/2
v -0.0339 1.3156 -0.0831
v -0.0339 1.3274 -0.0141
v 0.2661 0.1574 0.1859
v 0.2661 0.1456 0.1169
f 412/2 411/2 410/2 409/2
v 0.2661 0.1456 0.1169
v 0.2661 0.1574 0.1859
v 0.3339 0.1744 0.1831
v 0.3339 0.1626 0.1141
f 416/2 415/2 414/2 413/2
v 0.0339 1.3326 -0.0859
v 0.0339 1.3444 -0.0169
v -0.0339 1.3274 -0.0141
v -0.0339 1.3156 -0.0831
f 420/2 419/2 418/2 417/2
v 0.0339 1.3444 -0.0831
v -0.0339 1.3274 -0.0859
v 0.2661 0.1574 -0.2859
v 0.3339 0.1744 -0.2831
f 424/2 423/2 422/2 421/2
v 0.3339 0.1626 -0.2141
v 0.2661 0.1456 -0.2169
v -0.0339 1.3156 -0.0169
v 0.0339 1.3326 -0.0141
f 428/2 427/2 426/2 425/2
v 0.3339 0.1744 -0.2831
v 0.3339 0.1626 -0.2141
v 0.0339 1.3326 -0.0141
v 0.0339 1.3444 -0.0831
f 432/2 431/2 430/2 429/2
v -0.0339 1.3274 -0.0859
v -0.0339 1.3156 -0.0169
v 0.2661 0.1456 -0.2169
v 0.2661 0.1574 -0.2859
f 436/2 435/2 434/2 433/2
v 0.2661 0.1574 -0.2859
v 0.2661 0.1456 -0.2169
v 0.3339 0.1626 -0.2141
v 0.3339 0.1744 -0.2831
f 440/2 439/2 438/2 437/2
v 0.0339 1.3444 -0.0831
v 0.0339 1.3326 -0.0141
v -0.0339 1.3156 -0.0169
v -0.0339 1.3274 -0.0859
f 444/2 443/2 442/2 441/2
v 0.0339 1.3156 -0.0831
v -0.0339 1.3326 -0.0859
v -0.3339 0.1626 0.1141
v -0.2661 0.1456 0.1169
f 448/2 447/2 446/2 445/2
v -0.2661 0.1574 0.1859
v -0.3339 0.1744 0.1831
v -0.0339 1.3444 -0.0169
v 0.0339 1.3274 -0.0141
f 452/2 451/2 450/2 449/2
v -0.2661 0.1456 0.1169
v -0.2661 0.1574 0.1859
v 0.0339 1.3274 -0.0141
v 0.0339 1.3156 -0.0831
f 456/2 455/2 454/2 453/2
v -0.0339 1.3326 -0.0859
v -0.0339 1.3444 -0.0169
v -0.3339 0.1744 0.1831
v -0.3339 0.1626 0.1141
f 460/2 459/2 458/2 457/2
v -0.3339 0.1626 0.1141
v -0.3339 0.1744 0.1831
v -0.2661 0.1574 0.1859
v -0.2661 0.1456 0.1169
f 464/2 463/2 462/2 461/2
v 0.0339 1.3156 -0.0831
v 0.0339 1.3274 -0.0141
v -0.0339 1.3444 -0.0169
v -0.0339 1.3326 -0.0859
f 468/2 467/2 466/2 465/2
v 0.0339 1.3274 -0.0859
v -0.0339 1.3444 -0.0831
v -0.3339 0.1744 -0.2831
v -0.2661 0.1574 -0.2859
f 472/2 471/2 470/2 469/2
v -0.2661 0.1456 -0.2169
v -0.3339 0.1626 -0.2141
v -0.0339 1.3326 -0.0141
v 0.0339 1.3156 -0.0169
f 476/2 475/2 474/2 473/2
v -0.2661 0.1574 -0.2859
v -0.2661 0.1456 -0.2169
v 0.0339 1.3156 -0.0169
v 0.0339 1.3274 -0.0859
f 480/2 479/2 478/2 477/2
v -0.0339 1.3444 -0.0831
v -0.0339 1.3326 -0.0141
v -0.3339 0.1626 -0.2141
v -0.3339 0.1744 -0.2831
f 484/2 483/2 482/2 481/2
v -0.3339 0.1744 -0.2831
v -0.3339 0.1626 -0.2141
v -0.2661 0.1456 -0.2169
v -0.2661 0.1574 -0.2859
f 488/2 487/2 486/2 485/2
v 0.0339 1.3274 -0.0859
v 0.0339 1.3156 -0.0169
v -0.0339 1.3326 -0.0141
v -0.0339 1.3444 -0.0831
f 492/2 491/2 490/2 489/2
v 0.0300 1.4700 -0.0200
v 0.0300 1.5300 -0.0200
v 0.0300 1.5300 -0.0800
v 0.0300 1.4700 -0.0800
f 496/16 495/16 494/16 493/16
v -0.0300 1.4700 -0.0800
v -0.0300 1.5300 -0.0800
v -0.0300 1.5300 -0.0200
v -0.0300 1.4700 -0.0200
f 500/16 499/16 498/16 497/16
v 0.0300 1.4700 -0.0800
v -0.0300 1.4700 -0.0800
v -0.0300 1.4700 -0.0200
v 0.0300 1.4700 -0.0200
f 504/16 503/16 502/16 501/16
v 0.0300 1.5300 -0.0200
v -0.0300 1.5300 -0.0200
v -0.0300 1.5300 -0.0800
v 0.0300 1.5300 -0.0800
f 508/16 507/16 506/16 505/16
v 0.0300 1.5300 -0.0800
v -0.0300 1.5300 -0.0800
v -0.0300 1.4700 -0.0800
v 0.0300 1.4700 -0.0800
f 512/16 511/16 510/16 509/16
v 0.0300 1.4700 -0.0200
v -0.0300 1.4700 -0.0200
v -0.0300 1.5300 -0.0200
v 0.0300 1.5300 -0.0200
f 516/16 515/16 514/16 513/16
