# Walk of Industry low-poly (generated, wi_lib.py)
mtllib wi.mtl
vt 0 0
vt 0.03125 0.03125
vt 0.09375 0.03125
vt 0.15625 0.03125
vt 0.21875 0.03125
vt 0.28125 0.03125
vt 0.34375 0.03125
vt 0.40625 0.03125
vt 0.46875 0.03125
vt 0.53125 0.03125
vt 0.59375 0.03125
vt 0.65625 0.03125
vt 0.71875 0.03125
vt 0.78125 0.03125
vt 0.84375 0.03125
vt 0.90625 0.03125
vt 0.96875 0.03125
vt 0.03125 0.09375
vt 0.09375 0.09375
vt 0.15625 0.09375
vt 0.21875 0.09375
vt 0.28125 0.09375
vt 0.34375 0.09375
vt 0.40625 0.09375
vt 0.46875 0.09375
vt 0.53125 0.09375
vt 0.59375 0.09375
vt 0.65625 0.09375
vt 0.71875 0.09375
vt 0.78125 0.09375
vt 0.84375 0.09375
vt 0.90625 0.09375
vt 0.96875 0.09375
o Body
usemtl wi_palette
v 0.2600 0.0927 0.2853
v 0.2600 0.2427 0.1763
v 0.3000 0.2427 0.1763
v 0.3000 0.0927 0.2853
f 4/4 3/4 2/4 1/4
v 0.2600 0.2427 0.1763
v 0.2600 0.3000 0.0000
v 0.3000 0.3000 0.0000
v 0.3000 0.2427 0.1763
f 8/4 7/4 6/4 5/4
v 0.2600 0.3000 0.0000
v 0.2600 0.2427 -0.1763
v 0.3000 0.2427 -0.1763
v 0.3000 0.3000 0.0000
f 12/4 11/4 10/4 9/4
v 0.2600 0.2427 -0.1763
v 0.2600 0.0927 -0.2853
v 0.3000 0.0927 -0.2853
v 0.3000 0.2427 -0.1763
f 16/4 15/4 14/4 13/4
v 0.2600 0.0927 -0.2853
v 0.2600 -0.0927 -0.2853
v 0.3000 -0.0927 -0.2853
v 0.3000 0.0927 -0.2853
f 20/4 19/4 18/4 17/4
v 0.2600 -0.0927 -0.2853
v 0.2600 -0.2427 -0.1763
v 0.3000 -0.2427 -0.1763
v 0.3000 -0.0927 -0.2853
f 24/4 23/4 22/4 21/4
v 0.2600 -0.2427 -0.1763
v 0.2600 -0.3000 0.0000
v 0.3000 -0.3000 0.0000
v 0.3000 -0.2427 -0.1763
f 28/4 27/4 26/4 25/4
v 0.2600 -0.3000 0.0000
v 0.2600 -0.2427 0.1763
v 0.3000 -0.2427 0.1763
v 0.3000 -0.3000 0.0000
f 32/4 31/4 30/4 29/4
v 0.2600 -0.2427 0.1763
v 0.2600 -0.0927 0.2853
v 0.3000 -0.0927 0.2853
v 0.3000 -0.2427 0.1763
f 36/4 35/4 34/4 33/4
v 0.2600 -0.0927 0.2853
v 0.2600 0.0927 0.2853
v 0.3000 0.0927 0.2853
v 0.3000 -0.0927 0.2853
f 40/4 39/4 38/4 37/4
v 0.2600 -0.0927 0.2853
v 0.2600 -0.2427 0.1763
v 0.2600 -0.3000 0.0000
v 0.2600 -0.2427 -0.1763
v 0.2600 -0.0927 -0.2853
v 0.2600 0.0927 -0.2853
v 0.2600 0.2427 -0.1763
v 0.2600 0.3000 0.0000
v 0.2600 0.2427 0.1763
v 0.2600 0.0927 0.2853
f 50/4 49/4 48/4 47/4 46/4 45/4 44/4 43/4 42/4 41/4
v 0.3000 0.0927 0.2853
v 0.3000 0.2427 0.1763
v 0.3000 0.3000 0.0000
v 0.3000 0.2427 -0.1763
v 0.3000 0.0927 -0.2853
v 0.3000 -0.0927 -0.2853
v 0.3000 -0.2427 -0.1763
v 0.3000 -0.3000 0.0000
v 0.3000 -0.2427 0.1763
v 0.3000 -0.0927 0.2853
f 60/4 59/4 58/4 57/4 56/4 55/4 54/4 53/4 52/4 51/4
v 0.3050 0.2800 -0.0250
v 0.2550 0.2800 -0.0250
v 0.2550 0.0000 -0.0250
v 0.3050 0.0000 -0.0250
f 64/7 63/7 62/7 61/7
v 0.3050 0.0000 0.0250
v 0.2550 0.0000 0.0250
v 0.2550 0.2800 0.0250
v 0.3050 0.2800 0.0250
f 68/7 67/7 66/7 65/7
v 0.3050 0.0000 -0.0250
v 0.3050 0.0000 0.0250
v 0.3050 0.2800 0.0250
v 0.3050 0.2800 -0.0250
f 72/7 71/7 70/7 69/7
v 0.2550 0.2800 -0.0250
v 0.2550 0.2800 0.0250
v 0.2550 0.0000 0.0250
v 0.2550 0.0000 -0.0250
f 76/7 75/7 74/7 73/7
v 0.2550 0.0000 -0.0250
v 0.2550 0.0000 0.0250
v 0.3050 0.0000 0.0250
v 0.3050 0.0000 -0.0250
f 80/7 79/7 78/7 77/7
v 0.3050 0.2800 -0.0250
v 0.3050 0.2800 0.0250
v 0.2550 0.2800 0.0250
v 0.2550 0.2800 -0.0250
f 84/7 83/7 82/7 81/7
v -0.2600 0.0927 -0.2853
v -0.2600 0.2427 -0.1763
v -0.3000 0.2427 -0.1763
v -0.3000 0.0927 -0.2853
f 88/4 87/4 86/4 85/4
v -0.2600 0.2427 -0.1763
v -0.2600 0.3000 0.0000
v -0.3000 0.3000 0.0000
v -0.3000 0.2427 -0.1763
f 92/4 91/4 90/4 89/4
v -0.2600 0.3000 0.0000
v -0.2600 0.2427 0.1763
v -0.3000 0.2427 0.1763
v -0.3000 0.3000 0.0000
f 96/4 95/4 94/4 93/4
v -0.2600 0.2427 0.1763
v -0.2600 0.0927 0.2853
v -0.3000 0.0927 0.2853
v -0.3000 0.2427 0.1763
f 100/4 99/4 98/4 97/4
v -0.2600 0.0927 0.2853
v -0.2600 -0.0927 0.2853
v -0.3000 -0.0927 0.2853
v -0.3000 0.0927 0.2853
f 104/4 103/4 102/4 101/4
v -0.2600 -0.0927 0.2853
v -0.2600 -0.2427 0.1763
v -0.3000 -0.2427 0.1763
v -0.3000 -0.0927 0.2853
f 108/4 107/4 106/4 105/4
v -0.2600 -0.2427 0.1763
v -0.2600 -0.3000 0.0000
v -0.3000 -0.3000 0.0000
v -0.3000 -0.2427 0.1763
f 112/4 111/4 110/4 109/4
v -0.2600 -0.3000 0.0000
v -0.2600 -0.2427 -0.1763
v -0.3000 -0.2427 -0.1763
v -0.3000 -0.3000 0.0000
f 116/4 115/4 114/4 113/4
v -0.2600 -0.2427 -0.1763
v -0.2600 -0.0927 -0.2853
v -0.3000 -0.0927 -0.2853
v -0.3000 -0.2427 -0.1763
f 120/4 119/4 118/4 117/4
v -0.2600 -0.0927 -0.2853
v -0.2600 0.0927 -0.2853
v -0.3000 0.0927 -0.2853
v -0.3000 -0.0927 -0.2853
f 124/4 123/4 122/4 121/4
v -0.2600 -0.0927 -0.2853
v -0.2600 -0.2427 -0.1763
v -0.2600 -0.3000 0.0000
v -0.2600 -0.2427 0.1763
v -0.2600 -0.0927 0.2853
v -0.2600 0.0927 0.2853
v -0.2600 0.2427 0.1763
v -0.2600 0.3000 0.0000
v -0.2600 0.2427 -0.1763
v -0.2600 0.0927 -0.2853
f 134/4 133/4 132/4 131/4 130/4 129/4 128/4 127/4 126/4 125/4
v -0.3000 0.0927 -0.2853
v -0.3000 0.2427 -0.1763
v -0.3000 0.3000 0.0000
v -0.3000 0.2427 0.1763
v -0.3000 0.0927 0.2853
v -0.3000 -0.0927 0.2853
v -0.3000 -0.2427 0.1763
v -0.3000 -0.3000 0.0000
v -0.3000 -0.2427 -0.1763
v -0.3000 -0.0927 -0.2853
f 144/4 143/4 142/4 141/4 140/4 139/4 138/4 137/4 136/4 135/4
v -0.2550 0.2800 -0.0250
v -0.3050 0.2800 -0.0250
v -0.3050 0.0000 -0.0250
v -0.2550 0.0000 -0.0250
f 148/7 147/7 146/7 145/7
v -0.2550 0.0000 0.0250
v -0.3050 0.0000 0.0250
v -0.3050 0.2800 0.0250
v -0.2550 0.2800 0.0250
f 152/7 151/7 150/7 149/7
v -0.2550 0.0000 -0.0250
v -0.2550 0.0000 0.0250
v -0.2550 0.2800 0.0250
v -0.2550 0.2800 -0.0250
f 156/7 155/7 154/7 153/7
v -0.3050 0.2800 -0.0250
v -0.3050 0.2800 0.0250
v -0.3050 0.0000 0.0250
v -0.3050 0.0000 -0.0250
f 160/7 159/7 158/7 157/7
v -0.3050 0.0000 -0.0250
v -0.3050 0.0000 0.0250
v -0.2550 0.0000 0.0250
v -0.2550 0.0000 -0.0250
f 164/7 163/7 162/7 161/7
v -0.2550 0.2800 -0.0250
v -0.2550 0.2800 0.0250
v -0.3050 0.2800 0.0250
v -0.3050 0.2800 -0.0250
f 168/7 167/7 166/7 165/7
