# Walk of Industry low-poly (generated, wi_lib.py)
mtllib wi.mtl
vt 0 0
vt 0.03125 0.03125
vt 0.09375 0.03125
vt 0.15625 0.03125
vt 0.21875 0.03125
vt 0.28125 0.03125
vt 0.34375 0.03125
vt 0.40625 0.03125
vt 0.46875 0.03125
vt 0.53125 0.03125
vt 0.59375 0.03125
vt 0.65625 0.03125
vt 0.71875 0.03125
vt 0.78125 0.03125
vt 0.84375 0.03125
vt 0.90625 0.03125
vt 0.96875 0.03125
vt 0.03125 0.09375
vt 0.09375 0.09375
vt 0.15625 0.09375
vt 0.21875 0.09375
vt 0.28125 0.09375
vt 0.34375 0.09375
vt 0.40625 0.09375
vt 0.46875 0.09375
vt 0.53125 0.09375
vt 0.59375 0.09375
vt 0.65625 0.09375
vt 0.71875 0.09375
vt 0.78125 0.09375
vt 0.84375 0.09375
vt 0.90625 0.09375
vt 0.96875 0.09375
o Body
usemtl wi_palette
v 0.4500 0.0000 0.4500
v 0.4500 0.0600 0.4500
v 0.4500 0.0600 -0.4500
v 0.4500 0.0000 -0.4500
f 4/5 3/5 2/5 1/5
v -0.4500 0.0000 -0.4500
v -0.4500 0.0600 -0.4500
v -0.4500 0.0600 0.4500
v -0.4500 0.0000 0.4500
f 8/5 7/5 6/5 5/5
v 0.4500 0.0000 -0.4500
v -0.4500 0.0000 -0.4500
v -0.4500 0.0000 0.4500
v 0.4500 0.0000 0.4500
f 12/5 11/5 10/5 9/5
v 0.4500 0.0600 0.4500
v -0.4500 0.0600 0.4500
v -0.4500 0.0600 -0.4500
v 0.4500 0.0600 -0.4500
f 16/5 15/5 14/5 13/5
v 0.4500 0.0600 -0.4500
v -0.4500 0.0600 -0.4500
v -0.4500 0.0000 -0.4500
v 0.4500 0.0000 -0.4500
f 20/5 19/5 18/5 17/5
v 0.4500 0.0000 0.4500
v -0.4500 0.0000 0.4500
v -0.4500 0.0600 0.4500
v 0.4500 0.0600 0.4500
f 24/5 23/5 22/5 21/5
v 0.1800 0.1200 0.1800
v 0.1800 0.4800 0.1800
v 0.1800 0.4800 -0.1800
v 0.1800 0.1200 -0.1800
f 28/2 27/2 26/2 25/2
v -0.1800 0.1200 -0.1800
v -0.1800 0.4800 -0.1800
v -0.1800 0.4800 0.1800
v -0.1800 0.1200 0.1800
f 32/2 31/2 30/2 29/2
v 0.1800 0.1200 -0.1800
v -0.1800 0.1200 -0.1800
v -0.1800 0.1200 0.1800
v 0.1800 0.1200 0.1800
f 36/2 35/2 34/2 33/2
v 0.1800 0.4800 0.1800
v -0.1800 0.4800 0.1800
v -0.1800 0.4800 -0.1800
v 0.1800 0.4800 -0.1800
f 40/2 39/2 38/2 37/2
v 0.1800 0.4800 -0.1800
v -0.1800 0.4800 -0.1800
v -0.1800 0.1200 -0.1800
v 0.1800 0.1200 -0.1800
f 44/2 43/2 42/2 41/2
v 0.1800 0.1200 0.1800
v -0.1800 0.1200 0.1800
v -0.1800 0.4800 0.1800
v 0.1800 0.4800 0.1800
f 48/2 47/2 46/2 45/2
v 0.2000 0.4750 0.2000
v 0.2000 0.5050 0.2000
v 0.2000 0.5050 -0.2000
v 0.2000 0.4750 -0.2000
f 52/4 51/4 50/4 49/4
v -0.2000 0.4750 -0.2000
v -0.2000 0.5050 -0.2000
v -0.2000 0.5050 0.2000
v -0.2000 0.4750 0.2000
f 56/4 55/4 54/4 53/4
v 0.2000 0.4750 -0.2000
v -0.2000 0.4750 -0.2000
v -0.2000 0.4750 0.2000
v 0.2000 0.4750 0.2000
f 60/4 59/4 58/4 57/4
v 0.2000 0.5050 0.2000
v -0.2000 0.5050 0.2000
v -0.2000 0.5050 -0.2000
v 0.2000 0.5050 -0.2000
f 64/4 63/4 62/4 61/4
v 0.2000 0.5050 -0.2000
v -0.2000 0.5050 -0.2000
v -0.2000 0.4750 -0.2000
v 0.2000 0.4750 -0.2000
f 68/4 67/4 66/4 65/4
v 0.2000 0.4750 0.2000
v -0.2000 0.4750 0.2000
v -0.2000 0.5050 0.2000
v 0.2000 0.5050 0.2000
f 72/4 71/4 70/4 69/4
v 0.2000 0.0950 0.2000
v 0.2000 0.1250 0.2000
v 0.2000 0.1250 -0.2000
v 0.2000 0.0950 -0.2000
f 76/4 75/4 74/4 73/4
v -0.2000 0.0950 -0.2000
v -0.2000 0.1250 -0.2000
v -0.2000 0.1250 0.2000
v -0.2000 0.0950 0.2000
f 80/4 79/4 78/4 77/4
v 0.2000 0.0950 -0.2000
v -0.2000 0.0950 -0.2000
v -0.2000 0.0950 0.2000
v 0.2000 0.0950 0.2000
f 84/4 83/4 82/4 81/4
v 0.2000 0.1250 0.2000
v -0.2000 0.1250 0.2000
v -0.2000 0.1250 -0.2000
v 0.2000 0.1250 -0.2000
f 88/4 87/4 86/4 85/4
v 0.2000 0.1250 -0.2000
v -0.2000 0.1250 -0.2000
v -0.2000 0.0950 -0.2000
v 0.2000 0.0950 -0.2000
f 92/4 91/4 90/4 89/4
v 0.2000 0.0950 0.2000
v -0.2000 0.0950 0.2000
v -0.2000 0.1250 0.2000
v 0.2000 0.1250 0.2000
f 96/4 95/4 94/4 93/4
v 0.1000 0.0600 0.1000
v 0.1000 0.1600 0.1000
v 0.1000 0.1600 -0.1000
v 0.1000 0.0600 -0.1000
f 100/6 99/6 98/6 97/6
v -0.1000 0.0600 -0.1000
v -0.1000 0.1600 -0.1000
v -0.1000 0.1600 0.1000
v -0.1000 0.0600 0.1000
f 104/6 103/6 102/6 101/6
v 0.1000 0.0600 -0.1000
v -0.1000 0.0600 -0.1000
v -0.1000 0.0600 0.1000
v 0.1000 0.0600 0.1000
f 108/6 107/6 106/6 105/6
v 0.1000 0.1600 0.1000
v -0.1000 0.1600 0.1000
v -0.1000 0.1600 -0.1000
v 0.1000 0.1600 -0.1000
f 112/6 111/6 110/6 109/6
v 0.1000 0.1600 -0.1000
v -0.1000 0.1600 -0.1000
v -0.1000 0.0600 -0.1000
v 0.1000 0.0600 -0.1000
f 116/6 115/6 114/6 113/6
v 0.1000 0.0600 0.1000
v -0.1000 0.0600 0.1000
v -0.1000 0.1600 0.1000
v 0.1000 0.1600 0.1000
f 120/6 119/6 118/6 117/6
v -0.1046 0.3340 -0.5000
v -0.0647 0.3890 -0.5000
v -0.0647 0.3890 -0.1800
v -0.1046 0.3340 -0.1800
f 124/7 123/7 122/7 121/7
v -0.0647 0.3890 -0.5000
v -0.0000 0.4100 -0.5000
v -0.0000 0.4100 -0.1800
v -0.0647 0.3890 -0.1800
f 128/7 127/7 126/7 125/7
v -0.0000 0.4100 -0.5000
v 0.0647 0.3890 -0.5000
v 0.0647 0.3890 -0.1800
v -0.0000 0.4100 -0.1800
f 132/7 131/7 130/7 129/7
v 0.0647 0.3890 -0.5000
v 0.1046 0.3340 -0.5000
v 0.1046 0.3340 -0.1800
v 0.0647 0.3890 -0.1800
f 136/7 135/7 134/7 133/7
v 0.1046 0.3340 -0.5000
v 0.1046 0.2660 -0.5000
v 0.1046 0.2660 -0.1800
v 0.1046 0.3340 -0.1800
f 140/7 139/7 138/7 137/7
v 0.1046 0.2660 -0.5000
v 0.0647 0.2110 -0.5000
v 0.0647 0.2110 -0.1800
v 0.1046 0.2660 -0.1800
f 144/7 143/7 142/7 141/7
v 0.0647 0.2110 -0.5000
v 0.0000 0.1900 -0.5000
v 0.0000 0.1900 -0.1800
v 0.0647 0.2110 -0.1800
f 148/7 147/7 146/7 145/7
v 0.0000 0.1900 -0.5000
v -0.0647 0.2110 -0.5000
v -0.0647 0.2110 -0.1800
v 0.0000 0.1900 -0.1800
f 152/7 151/7 150/7 149/7
v -0.0647 0.2110 -0.5000
v -0.1046 0.2660 -0.5000
v -0.1046 0.2660 -0.1800
v -0.0647 0.2110 -0.1800
f 156/7 155/7 154/7 153/7
v -0.1046 0.2660 -0.5000
v -0.1046 0.3340 -0.5000
v -0.1046 0.3340 -0.1800
v -0.1046 0.2660 -0.1800
f 160/7 159/7 158/7 157/7
v -0.1046 0.2660 -0.5000
v -0.0647 0.2110 -0.5000
v 0.0000 0.1900 -0.5000
v 0.0647 0.2110 -0.5000
v 0.1046 0.2660 -0.5000
v 0.1046 0.3340 -0.5000
v 0.0647 0.3890 -0.5000
v -0.0000 0.4100 -0.5000
v -0.0647 0.3890 -0.5000
v -0.1046 0.3340 -0.5000
f 170/7 169/7 168/7 167/7 166/7 165/7 164/7 163/7 162/7 161/7
v -0.1046 0.3340 -0.1800
v -0.0647 0.3890 -0.1800
v -0.0000 0.4100 -0.1800
v 0.0647 0.3890 -0.1800
v 0.1046 0.3340 -0.1800
v 0.1046 0.2660 -0.1800
v 0.0647 0.2110 -0.1800
v 0.0000 0.1900 -0.1800
v -0.0647 0.2110 -0.1800
v -0.1046 0.2660 -0.1800
f 180/7 179/7 178/7 177/7 176/7 175/7 174/7 173/7 172/7 171/7
v -0.1379 0.3448 -0.4820
v -0.0852 0.4173 -0.4820
v -0.0852 0.4173 -0.4380
v -0.1379 0.3448 -0.4380
f 184/4 183/4 182/4 181/4
v -0.0852 0.4173 -0.4820
v -0.0000 0.4450 -0.4820
v -0.0000 0.4450 -0.4380
v -0.0852 0.4173 -0.4380
f 188/4 187/4 186/4 185/4
v -0.0000 0.4450 -0.4820
v 0.0852 0.4173 -0.4820
v 0.0852 0.4173 -0.4380
v -0.0000 0.4450 -0.4380
f 192/4 191/4 190/4 189/4
v 0.0852 0.4173 -0.4820
v 0.1379 0.3448 -0.4820
v 0.1379 0.3448 -0.4380
v 0.0852 0.4173 -0.4380
f 196/4 195/4 194/4 193/4
v 0.1379 0.3448 -0.4820
v 0.1379 0.2552 -0.4820
v 0.1379 0.2552 -0.4380
v 0.1379 0.3448 -0.4380
f 200/4 199/4 198/4 197/4
v 0.1379 0.2552 -0.4820
v 0.0852 0.1827 -0.4820
v 0.0852 0.1827 -0.4380
v 0.1379 0.2552 -0.4380
f 204/4 203/4 202/4 201/4
v 0.0852 0.1827 -0.4820
v 0.0000 0.1550 -0.4820
v 0.0000 0.1550 -0.4380
v 0.0852 0.1827 -0.4380
f 208/4 207/4 206/4 205/4
v 0.0000 0.1550 -0.4820
v -0.0852 0.1827 -0.4820
v -0.0852 0.1827 -0.4380
v 0.0000 0.1550 -0.4380
f 212/4 211/4 210/4 209/4
v -0.0852 0.1827 -0.4820
v -0.1379 0.2552 -0.4820
v -0.1379 0.2552 -0.4380
v -0.0852 0.1827 -0.4380
f 216/4 215/4 214/4 213/4
v -0.1379 0.2552 -0.4820
v -0.1379 0.3448 -0.4820
v -0.1379 0.3448 -0.4380
v -0.1379 0.2552 -0.4380
f 220/4 219/4 218/4 217/4
v -0.1379 0.2552 -0.4820
v -0.0852 0.1827 -0.4820
v 0.0000 0.1550 -0.4820
v 0.0852 0.1827 -0.4820
v 0.1379 0.2552 -0.4820
v 0.1379 0.3448 -0.4820
v 0.0852 0.4173 -0.4820
v -0.0000 0.4450 -0.4820
v -0.0852 0.4173 -0.4820
v -0.1379 0.3448 -0.4820
f 230/4 229/4 228/4 227/4 226/4 225/4 224/4 223/4 222/4 221/4
v -0.1379 0.3448 -0.4380
v -0.0852 0.4173 -0.4380
v -0.0000 0.4450 -0.4380
v 0.0852 0.4173 -0.4380
v 0.1379 0.3448 -0.4380
v 0.1379 0.2552 -0.4380
v 0.0852 0.1827 -0.4380
v 0.0000 0.1550 -0.4380
v -0.0852 0.1827 -0.4380
v -0.1379 0.2552 -0.4380
f 240/4 239/4 238/4 237/4 236/4 235/4 234/4 233/4 232/4 231/4
v -0.1046 0.3340 0.1800
v -0.0647 0.3890 0.1800
v -0.0647 0.3890 0.5000
v -0.1046 0.3340 0.5000
f 244/7 243/7 242/7 241/7
v -0.0647 0.3890 0.1800
v -0.0000 0.4100 0.1800
v -0.0000 0.4100 0.5000
v -0.0647 0.3890 0.5000
f 248/7 247/7 246/7 245/7
v -0.0000 0.4100 0.1800
v 0.0647 0.3890 0.1800
v 0.0647 0.3890 0.5000
v -0.0000 0.4100 0.5000
f 252/7 251/7 250/7 249/7
v 0.0647 0.3890 0.1800
v 0.1046 0.3340 0.1800
v 0.1046 0.3340 0.5000
v 0.0647 0.3890 0.5000
f 256/7 255/7 254/7 253/7
v 0.1046 0.3340 0.1800
v 0.1046 0.2660 0.1800
v 0.1046 0.2660 0.5000
v 0.1046 0.3340 0.5000
f 260/7 259/7 258/7 257/7
v 0.1046 0.2660 0.1800
v 0.0647 0.2110 0.1800
v 0.0647 0.2110 0.5000
v 0.1046 0.2660 0.5000
f 264/7 263/7 262/7 261/7
v 0.0647 0.2110 0.1800
v 0.0000 0.1900 0.1800
v 0.0000 0.1900 0.5000
v 0.0647 0.2110 0.5000
f 268/7 267/7 266/7 265/7
v 0.0000 0.1900 0.1800
v -0.0647 0.2110 0.1800
v -0.0647 0.2110 0.5000
v 0.0000 0.1900 0.5000
f 272/7 271/7 270/7 269/7
v -0.0647 0.2110 0.1800
v -0.1046 0.2660 0.1800
v -0.1046 0.2660 0.5000
v -0.0647 0.2110 0.5000
f 276/7 275/7 274/7 273/7
v -0.1046 0.2660 0.1800
v -0.1046 0.3340 0.1800
v -0.1046 0.3340 0.5000
v -0.1046 0.2660 0.5000
f 280/7 279/7 278/7 277/7
v -0.1046 0.2660 0.1800
v -0.0647 0.2110 0.1800
v 0.0000 0.1900 0.1800
v 0.0647 0.2110 0.1800
v 0.1046 0.2660 0.1800
v 0.1046 0.3340 0.1800
v 0.0647 0.3890 0.1800
v -0.0000 0.4100 0.1800
v -0.0647 0.3890 0.1800
v -0.1046 0.3340 0.1800
f 290/7 289/7 288/7 287/7 286/7 285/7 284/7 283/7 282/7 281/7
v -0.1046 0.3340 0.5000
v -0.0647 0.3890 0.5000
v -0.0000 0.4100 0.5000
v 0.0647 0.3890 0.5000
v 0.1046 0.3340 0.5000
v 0.1046 0.2660 0.5000
v 0.0647 0.2110 0.5000
v 0.0000 0.1900 0.5000
v -0.0647 0.2110 0.5000
v -0.1046 0.2660 0.5000
f 300/7 299/7 298/7 297/7 296/7 295/7 294/7 293/7 292/7 291/7
v -0.1379 0.3448 0.4380
v -0.0852 0.4173 0.4380
v -0.0852 0.4173 0.4820
v -0.1379 0.3448 0.4820
f 304/4 303/4 302/4 301/4
v -0.0852 0.4173 0.4380
v -0.0000 0.4450 0.4380
v -0.0000 0.4450 0.4820
v -0.0852 0.4173 0.4820
f 308/4 307/4 306/4 305/4
v -0.0000 0.4450 0.4380
v 0.0852 0.4173 0.4380
v 0.0852 0.4173 0.4820
v -0.0000 0.4450 0.4820
f 312/4 311/4 310/4 309/4
v 0.0852 0.4173 0.4380
v 0.1379 0.3448 0.4380
v 0.1379 0.3448 0.4820
v 0.0852 0.4173 0.4820
f 316/4 315/4 314/4 313/4
v 0.1379 0.3448 0.4380
v 0.1379 0.2552 0.4380
v 0.1379 0.2552 0.4820
v 0.1379 0.3448 0.4820
f 320/4 319/4 318/4 317/4
v 0.1379 0.2552 0.4380
v 0.0852 0.1827 0.4380
v 0.0852 0.1827 0.4820
v 0.1379 0.2552 0.4820
f 324/4 323/4 322/4 321/4
v 0.0852 0.1827 0.4380
v 0.0000 0.1550 0.4380
v 0.0000 0.1550 0.4820
v 0.0852 0.1827 0.4820
f 328/4 327/4 326/4 325/4
v 0.0000 0.1550 0.4380
v -0.0852 0.1827 0.4380
v -0.0852 0.1827 0.4820
v 0.0000 0.1550 0.4820
f 332/4 331/4 330/4 329/4
v -0.0852 0.1827 0.4380
v -0.1379 0.2552 0.4380
v -0.1379 0.2552 0.4820
v -0.0852 0.1827 0.4820
f 336/4 335/4 334/4 333/4
v -0.1379 0.2552 0.4380
v -0.1379 0.3448 0.4380
v -0.1379 0.3448 0.4820
v -0.1379 0.2552 0.4820
f 340/4 339/4 338/4 337/4
v -0.1379 0.2552 0.4380
v -0.0852 0.1827 0.4380
v 0.0000 0.1550 0.4380
v 0.0852 0.1827 0.4380
v 0.1379 0.2552 0.4380
v 0.1379 0.3448 0.4380
v 0.0852 0.4173 0.4380
v -0.0000 0.4450 0.4380
v -0.0852 0.4173 0.4380
v -0.1379 0.3448 0.4380
f 350/4 349/4 348/4 347/4 346/4 345/4 344/4 343/4 342/4 341/4
v -0.1379 0.3448 0.4820
v -0.0852 0.4173 0.4820
v -0.0000 0.4450 0.4820
v 0.0852 0.4173 0.4820
v 0.1379 0.3448 0.4820
v 0.1379 0.2552 0.4820
v 0.0852 0.1827 0.4820
v 0.0000 0.1550 0.4820
v -0.0852 0.1827 0.4820
v -0.1379 0.2552 0.4820
f 360/4 359/4 358/4 357/4 356/4 355/4 354/4 353/4 352/4 351/4
v -0.1800 0.3340 -0.1046
v -0.1800 0.3890 -0.0647
v -0.5000 0.3890 -0.0647
v -0.5000 0.3340 -0.1046
f 364/7 363/7 362/7 361/7
v -0.1800 0.3890 -0.0647
v -0.1800 0.4100 -0.0000
v -0.5000 0.4100 -0.0000
v -0.5000 0.3890 -0.0647
f 368/7 367/7 366/7 365/7
v -0.1800 0.4100 -0.0000
v -0.1800 0.3890 0.0647
v -0.5000 0.3890 0.0647
v -0.5000 0.4100 -0.0000
f 372/7 371/7 370/7 369/7
v -0.1800 0.3890 0.0647
v -0.1800 0.3340 0.1046
v -0.5000 0.3340 0.1046
v -0.5000 0.3890 0.0647
f 376/7 375/7 374/7 373/7
v -0.1800 0.3340 0.1046
v -0.1800 0.2660 0.1046
v -0.5000 0.2660 0.1046
v -0.5000 0.3340 0.1046
f 380/7 379/7 378/7 377/7
v -0.1800 0.2660 0.1046
v -0.1800 0.2110 0.0647
v -0.5000 0.2110 0.0647
v -0.5000 0.2660 0.1046
f 384/7 383/7 382/7 381/7
v -0.1800 0.2110 0.0647
v -0.1800 0.1900 0.0000
v -0.5000 0.1900 0.0000
v -0.5000 0.2110 0.0647
f 388/7 387/7 386/7 385/7
v -0.1800 0.1900 0.0000
v -0.1800 0.2110 -0.0647
v -0.5000 0.2110 -0.0647
v -0.5000 0.1900 0.0000
f 392/7 391/7 390/7 389/7
v -0.1800 0.2110 -0.0647
v -0.1800 0.2660 -0.1046
v -0.5000 0.2660 -0.1046
v -0.5000 0.2110 -0.0647
f 396/7 395/7 394/7 393/7
v -0.1800 0.2660 -0.1046
v -0.1800 0.3340 -0.1046
v -0.5000 0.3340 -0.1046
v -0.5000 0.2660 -0.1046
f 400/7 399/7 398/7 397/7
v -0.1800 0.2660 -0.1046
v -0.1800 0.2110 -0.0647
v -0.1800 0.1900 0.0000
v -0.1800 0.2110 0.0647
v -0.1800 0.2660 0.1046
v -0.1800 0.3340 0.1046
v -0.1800 0.3890 0.0647
v -0.1800 0.4100 -0.0000
v -0.1800 0.3890 -0.0647
v -0.1800 0.3340 -0.1046
f 410/7 409/7 408/7 407/7 406/7 405/7 404/7 403/7 402/7 401/7
v -0.5000 0.3340 -0.1046
v -0.5000 0.3890 -0.0647
v -0.5000 0.4100 -0.0000
v -0.5000 0.3890 0.0647
v -0.5000 0.3340 0.1046
v -0.5000 0.2660 0.1046
v -0.5000 0.2110 0.0647
v -0.5000 0.1900 0.0000
v -0.5000 0.2110 -0.0647
v -0.5000 0.2660 -0.1046
f 420/7 419/7 418/7 417/7 416/7 415/7 414/7 413/7 412/7 411/7
v -0.4380 0.3448 -0.1379
v -0.4380 0.4173 -0.0852
v -0.4820 0.4173 -0.0852
v -0.4820 0.3448 -0.1379
f 424/4 423/4 422/4 421/4
v -0.4380 0.4173 -0.0852
v -0.4380 0.4450 -0.0000
v -0.4820 0.4450 -0.0000
v -0.4820 0.4173 -0.0852
f 428/4 427/4 426/4 425/4
v -0.4380 0.4450 -0.0000
v -0.4380 0.4173 0.0852
v -0.4820 0.4173 0.0852
v -0.4820 0.4450 -0.0000
f 432/4 431/4 430/4 429/4
v -0.4380 0.4173 0.0852
v -0.4380 0.3448 0.1379
v -0.4820 0.3448 0.1379
v -0.4820 0.4173 0.0852
f 436/4 435/4 434/4 433/4
v -0.4380 0.3448 0.1379
v -0.4380 0.2552 0.1379
v -0.4820 0.2552 0.1379
v -0.4820 0.3448 0.1379
f 440/4 439/4 438/4 437/4
v -0.4380 0.2552 0.1379
v -0.4380 0.1827 0.0852
v -0.4820 0.1827 0.0852
v -0.4820 0.2552 0.1379
f 444/4 443/4 442/4 441/4
v -0.4380 0.1827 0.0852
v -0.4380 0.1550 0.0000
v -0.4820 0.1550 0.0000
v -0.4820 0.1827 0.0852
f 448/4 447/4 446/4 445/4
v -0.4380 0.1550 0.0000
v -0.4380 0.1827 -0.0852
v -0.4820 0.1827 -0.0852
v -0.4820 0.1550 0.0000
f 452/4 451/4 450/4 449/4
v -0.4380 0.1827 -0.0852
v -0.4380 0.2552 -0.1379
v -0.4820 0.2552 -0.1379
v -0.4820 0.1827 -0.0852
f 456/4 455/4 454/4 453/4
v -0.4380 0.2552 -0.1379
v -0.4380 0.3448 -0.1379
v -0.4820 0.3448 -0.1379
v -0.4820 0.2552 -0.1379
f 460/4 459/4 458/4 457/4
v -0.4380 0.2552 -0.1379
v -0.4380 0.1827 -0.0852
v -0.4380 0.1550 0.0000
v -0.4380 0.1827 0.0852
v -0.4380 0.2552 0.1379
v -0.4380 0.3448 0.1379
v -0.4380 0.4173 0.0852
v -0.4380 0.4450 -0.0000
v -0.4380 0.4173 -0.0852
v -0.4380 0.3448 -0.1379
f 470/4 469/4 468/4 467/4 466/4 465/4 464/4 463/4 462/4 461/4
v -0.4820 0.3448 -0.1379
v -0.4820 0.4173 -0.0852
v -0.4820 0.4450 -0.0000
v -0.4820 0.4173 0.0852
v -0.4820 0.3448 0.1379
v -0.4820 0.2552 0.1379
v -0.4820 0.1827 0.0852
v -0.4820 0.1550 0.0000
v -0.4820 0.1827 -0.0852
v -0.4820 0.2552 -0.1379
f 480/4 479/4 478/4 477/4 476/4 475/4 474/4 473/4 472/4 471/4
v 0.5000 0.3340 -0.1046
v 0.5000 0.3890 -0.0647
v 0.1800 0.3890 -0.0647
v 0.1800 0.3340 -0.1046
f 484/7 483/7 482/7 481/7
v 0.5000 0.3890 -0.0647
v 0.5000 0.4100 -0.0000
v 0.1800 0.4100 -0.0000
v 0.1800 0.3890 -0.0647
f 488/7 487/7 486/7 485/7
v 0.5000 0.4100 -0.0000
v 0.5000 0.3890 0.0647
v 0.1800 0.3890 0.0647
v 0.1800 0.4100 -0.0000
f 492/7 491/7 490/7 489/7
v 0.5000 0.3890 0.0647
v 0.5000 0.3340 0.1046
v 0.1800 0.3340 0.1046
v 0.1800 0.3890 0.0647
f 496/7 495/7 494/7 493/7
v 0.5000 0.3340 0.1046
v 0.5000 0.2660 0.1046
v 0.1800 0.2660 0.1046
v 0.1800 0.3340 0.1046
f 500/7 499/7 498/7 497/7
v 0.5000 0.2660 0.1046
v 0.5000 0.2110 0.0647
v 0.1800 0.2110 0.0647
v 0.1800 0.2660 0.1046
f 504/7 503/7 502/7 501/7
v 0.5000 0.2110 0.0647
v 0.5000 0.1900 0.0000
v 0.1800 0.1900 0.0000
v 0.1800 0.2110 0.0647
f 508/7 507/7 506/7 505/7
v 0.5000 0.1900 0.0000
v 0.5000 0.2110 -0.0647
v 0.1800 0.2110 -0.0647
v 0.1800 0.1900 0.0000
f 512/7 511/7 510/7 509/7
v 0.5000 0.2110 -0.0647
v 0.5000 0.2660 -0.1046
v 0.1800 0.2660 -0.1046
v 0.1800 0.2110 -0.0647
f 516/7 515/7 514/7 513/7
v 0.5000 0.2660 -0.1046
v 0.5000 0.3340 -0.1046
v 0.1800 0.3340 -0.1046
v 0.1800 0.2660 -0.1046
f 520/7 519/7 518/7 517/7
v 0.5000 0.2660 -0.1046
v 0.5000 0.2110 -0.0647
v 0.5000 0.1900 0.0000
v 0.5000 0.2110 0.0647
v 0.5000 0.2660 0.1046
v 0.5000 0.3340 0.1046
v 0.5000 0.3890 0.0647
v 0.5000 0.4100 -0.0000
v 0.5000 0.3890 -0.0647
v 0.5000 0.3340 -0.1046
f 530/7 529/7 528/7 527/7 526/7 525/7 524/7 523/7 522/7 521/7
v 0.1800 0.3340 -0.1046
v 0.1800 0.3890 -0.0647
v 0.1800 0.4100 -0.0000
v 0.1800 0.3890 0.0647
v 0.1800 0.3340 0.1046
v 0.1800 0.2660 0.1046
v 0.1800 0.2110 0.0647
v 0.1800 0.1900 0.0000
v 0.1800 0.2110 -0.0647
v 0.1800 0.2660 -0.1046
f 540/7 539/7 538/7 537/7 536/7 535/7 534/7 533/7 532/7 531/7
v 0.4820 0.3448 -0.1379
v 0.4820 0.4173 -0.0852
v 0.4380 0.4173 -0.0852
v 0.4380 0.3448 -0.1379
f 544/4 543/4 542/4 541/4
v 0.4820 0.4173 -0.0852
v 0.4820 0.4450 -0.0000
v 0.4380 0.4450 -0.0000
v 0.4380 0.4173 -0.0852
f 548/4 547/4 546/4 545/4
v 0.4820 0.4450 -0.0000
v 0.4820 0.4173 0.0852
v 0.4380 0.4173 0.0852
v 0.4380 0.4450 -0.0000
f 552/4 551/4 550/4 549/4
v 0.4820 0.4173 0.0852
v 0.4820 0.3448 0.1379
v 0.4380 0.3448 0.1379
v 0.4380 0.4173 0.0852
f 556/4 555/4 554/4 553/4
v 0.4820 0.3448 0.1379
v 0.4820 0.2552 0.1379
v 0.4380 0.2552 0.1379
v 0.4380 0.3448 0.1379
f 560/4 559/4 558/4 557/4
v 0.4820 0.2552 0.1379
v 0.4820 0.1827 0.0852
v 0.4380 0.1827 0.0852
v 0.4380 0.2552 0.1379
f 564/4 563/4 562/4 561/4
v 0.4820 0.1827 0.0852
v 0.4820 0.1550 0.0000
v 0.4380 0.1550 0.0000
v 0.4380 0.1827 0.0852
f 568/4 567/4 566/4 565/4
v 0.4820 0.1550 0.0000
v 0.4820 0.1827 -0.0852
v 0.4380 0.1827 -0.0852
v 0.4380 0.1550 0.0000
f 572/4 571/4 570/4 569/4
v 0.4820 0.1827 -0.0852
v 0.4820 0.2552 -0.1379
v 0.4380 0.2552 -0.1379
v 0.4380 0.1827 -0.0852
f 576/4 575/4 574/4 573/4
v 0.4820 0.2552 -0.1379
v 0.4820 0.3448 -0.1379
v 0.4380 0.3448 -0.1379
v 0.4380 0.2552 -0.1379
f 580/4 579/4 578/4 577/4
v 0.4820 0.2552 -0.1379
v 0.4820 0.1827 -0.0852
v 0.4820 0.1550 0.0000
v 0.4820 0.1827 0.0852
v 0.4820 0.2552 0.1379
v 0.4820 0.3448 0.1379
v 0.4820 0.4173 0.0852
v 0.4820 0.4450 -0.0000
v 0.4820 0.4173 -0.0852
v 0.4820 0.3448 -0.1379
f 590/4 589/4 588/4 587/4 586/4 585/4 584/4 583/4 582/4 581/4
v 0.4380 0.3448 -0.1379
v 0.4380 0.4173 -0.0852
v 0.4380 0.4450 -0.0000
v 0.4380 0.4173 0.0852
v 0.4380 0.3448 0.1379
v 0.4380 0.2552 0.1379
v 0.4380 0.1827 0.0852
v 0.4380 0.1550 0.0000
v 0.4380 0.1827 -0.0852
v 0.4380 0.2552 -0.1379
f 600/4 599/4 598/4 597/4 596/4 595/4 594/4 593/4 592/4 591/4
v 0.0739 0.4160 -0.3761
v 0.0739 0.4280 -0.3761
v -0.0141 0.4280 -0.2881
v -0.0141 0.4160 -0.2881
f 604/8 603/8 602/8 601/8
v 0.0141 0.4160 -0.2599
v 0.0141 0.4280 -0.2599
v 0.1021 0.4280 -0.3479
v 0.1021 0.4160 -0.3479
f 608/8 607/8 606/8 605/8
v -0.0141 0.4160 -0.2881
v 0.0141 0.4160 -0.2599
v 0.1021 0.4160 -0.3479
v 0.0739 0.4160 -0.3761
f 612/8 611/8 610/8 609/8
v 0.0739 0.4280 -0.3761
v 0.1021 0.4280 -0.3479
v 0.0141 0.4280 -0.2599
v -0.0141 0.4280 -0.2881
f 616/8 615/8 614/8 613/8
v -0.0141 0.4280 -0.2881
v 0.0141 0.4280 -0.2599
v 0.0141 0.4160 -0.2599
v -0.0141 0.4160 -0.2881
f 620/8 619/8 618/8 617/8
v 0.0739 0.4160 -0.3761
v 0.1021 0.4160 -0.3479
v 0.1021 0.4280 -0.3479
v 0.0739 0.4280 -0.3761
f 624/8 623/8 622/8 621/8
v -0.1021 0.4160 -0.3479
v -0.1021 0.4280 -0.3479
v -0.0141 0.4280 -0.2599
v -0.0141 0.4160 -0.2599
f 628/8 627/8 626/8 625/8
v 0.0141 0.4160 -0.2881
v 0.0141 0.4280 -0.2881
v -0.0739 0.4280 -0.3761
v -0.0739 0.4160 -0.3761
f 632/8 631/8 630/8 629/8
v -0.0141 0.4160 -0.2599
v 0.0141 0.4160 -0.2881
v -0.0739 0.4160 -0.3761
v -0.1021 0.4160 -0.3479
f 636/8 635/8 634/8 633/8
v -0.1021 0.4280 -0.3479
v -0.0739 0.4280 -0.3761
v 0.0141 0.4280 -0.2881
v -0.0141 0.4280 -0.2599
f 640/8 639/8 638/8 637/8
v -0.0141 0.4280 -0.2599
v 0.0141 0.4280 -0.2881
v 0.0141 0.4160 -0.2881
v -0.0141 0.4160 -0.2599
f 644/8 643/8 642/8 641/8
v -0.1021 0.4160 -0.3479
v -0.0739 0.4160 -0.3761
v -0.0739 0.4280 -0.3761
v -0.1021 0.4280 -0.3479
f 648/8 647/8 646/8 645/8
v 0.0739 0.4160 0.2839
v 0.0739 0.4280 0.2839
v -0.0141 0.4280 0.3719
v -0.0141 0.4160 0.3719
f 652/8 651/8 650/8 649/8
v 0.0141 0.4160 0.4001
v 0.0141 0.4280 0.4001
v 0.1021 0.4280 0.3121
v 0.1021 0.4160 0.3121
f 656/8 655/8 654/8 653/8
v -0.0141 0.4160 0.3719
v 0.0141 0.4160 0.4001
v 0.1021 0.4160 0.3121
v 0.0739 0.4160 0.2839
f 660/8 659/8 658/8 657/8
v 0.0739 0.4280 0.2839
v 0.1021 0.4280 0.3121
v 0.0141 0.4280 0.4001
v -0.0141 0.4280 0.3719
f 664/8 663/8 662/8 661/8
v -0.0141 0.4280 0.3719
v 0.0141 0.4280 0.4001
v 0.0141 0.4160 0.4001
v -0.0141 0.4160 0.3719
f 668/8 667/8 666/8 665/8
v 0.0739 0.4160 0.2839
v 0.1021 0.4160 0.3121
v 0.1021 0.4280 0.3121
v 0.0739 0.4280 0.2839
f 672/8 671/8 670/8 669/8
v -0.1021 0.4160 0.3121
v -0.1021 0.4280 0.3121
v -0.0141 0.4280 0.4001
v -0.0141 0.4160 0.4001
f 676/8 675/8 674/8 673/8
v 0.0141 0.4160 0.3719
v 0.0141 0.4280 0.3719
v -0.0739 0.4280 0.2839
v -0.0739 0.4160 0.2839
f 680/8 679/8 678/8 677/8
v -0.0141 0.4160 0.4001
v 0.0141 0.4160 0.3719
v -0.0739 0.4160 0.2839
v -0.1021 0.4160 0.3121
f 684/8 683/8 682/8 681/8
v -0.1021 0.4280 0.3121
v -0.0739 0.4280 0.2839
v 0.0141 0.4280 0.3719
v -0.0141 0.4280 0.4001
f 688/8 687/8 686/8 685/8
v -0.0141 0.4280 0.4001
v 0.0141 0.4280 0.3719
v 0.0141 0.4160 0.3719
v -0.0141 0.4160 0.4001
f 692/8 691/8 690/8 689/8
v -0.1021 0.4160 0.3121
v -0.0739 0.4160 0.2839
v -0.0739 0.4280 0.2839
v -0.1021 0.4280 0.3121
f 696/8 695/8 694/8 693/8
v -0.2839 0.4160 0.0739
v -0.2839 0.4280 0.0739
v -0.3719 0.4280 -0.0141
v -0.3719 0.4160 -0.0141
f 700/8 699/8 698/8 697/8
v -0.4001 0.4160 0.0141
v -0.4001 0.4280 0.0141
v -0.3121 0.4280 0.1021
v -0.3121 0.4160 0.1021
f 704/8 703/8 702/8 701/8
v -0.3719 0.4160 -0.0141
v -0.4001 0.4160 0.0141
v -0.3121 0.4160 0.1021
v -0.2839 0.4160 0.0739
f 708/8 707/8 706/8 705/8
v -0.2839 0.4280 0.0739
v -0.3121 0.4280 0.1021
v -0.4001 0.4280 0.0141
v -0.3719 0.4280 -0.0141
f 712/8 711/8 710/8 709/8
v -0.3719 0.4280 -0.0141
v -0.4001 0.4280 0.0141
v -0.4001 0.4160 0.0141
v -0.3719 0.4160 -0.0141
f 716/8 715/8 714/8 713/8
v -0.2839 0.4160 0.0739
v -0.3121 0.4160 0.1021
v -0.3121 0.4280 0.1021
v -0.2839 0.4280 0.0739
f 720/8 719/8 718/8 717/8
v -0.3121 0.4160 -0.1021
v -0.3121 0.4280 -0.1021
v -0.4001 0.4280 -0.0141
v -0.4001 0.4160 -0.0141
f 724/8 723/8 722/8 721/8
v -0.3719 0.4160 0.0141
v -0.3719 0.4280 0.0141
v -0.2839 0.4280 -0.0739
v -0.2839 0.4160 -0.0739
f 728/8 727/8 726/8 725/8
v -0.4001 0.4160 -0.0141
v -0.3719 0.4160 0.0141
v -0.2839 0.4160 -0.0739
v -0.3121 0.4160 -0.1021
f 732/8 731/8 730/8 729/8
v -0.3121 0.4280 -0.1021
v -0.2839 0.4280 -0.0739
v -0.3719 0.4280 0.0141
v -0.4001 0.4280 -0.0141
f 736/8 735/8 734/8 733/8
v -0.4001 0.4280 -0.0141
v -0.3719 0.4280 0.0141
v -0.3719 0.4160 0.0141
v -0.4001 0.4160 -0.0141
f 740/8 739/8 738/8 737/8
v -0.3121 0.4160 -0.1021
v -0.2839 0.4160 -0.0739
v -0.2839 0.4280 -0.0739
v -0.3121 0.4280 -0.1021
f 744/8 743/8 742/8 741/8
v 0.2839 0.4160 -0.0739
v 0.2839 0.4280 -0.0739
v 0.3719 0.4280 0.0141
v 0.3719 0.4160 0.0141
f 748/8 747/8 746/8 745/8
v 0.4001 0.4160 -0.0141
v 0.4001 0.4280 -0.0141
v 0.3121 0.4280 -0.1021
v 0.3121 0.4160 -0.1021
f 752/8 751/8 750/8 749/8
v 0.3719 0.4160 0.0141
v 0.4001 0.4160 -0.0141
v 0.3121 0.4160 -0.1021
v 0.2839 0.4160 -0.0739
f 756/8 755/8 754/8 753/8
v 0.2839 0.4280 -0.0739
v 0.3121 0.4280 -0.1021
v 0.4001 0.4280 -0.0141
v 0.3719 0.4280 0.0141
f 760/8 759/8 758/8 757/8
v 0.3719 0.4280 0.0141
v 0.4001 0.4280 -0.0141
v 0.4001 0.4160 -0.0141
v 0.3719 0.4160 0.0141
f 764/8 763/8 762/8 761/8
v 0.2839 0.4160 -0.0739
v 0.3121 0.4160 -0.1021
v 0.3121 0.4280 -0.1021
v 0.2839 0.4280 -0.0739
f 768/8 767/8 766/8 765/8
v 0.3121 0.4160 0.1021
v 0.3121 0.4280 0.1021
v 0.4001 0.4280 0.0141
v 0.4001 0.4160 0.0141
f 772/8 771/8 770/8 769/8
v 0.3719 0.4160 -0.0141
v 0.3719 0.4280 -0.0141
v 0.2839 0.4280 0.0739
v 0.2839 0.4160 0.0739
f 776/8 775/8 774/8 773/8
v 0.4001 0.4160 0.0141
v 0.3719 0.4160 -0.0141
v 0.2839 0.4160 0.0739
v 0.3121 0.4160 0.1021
f 780/8 779/8 778/8 777/8
v 0.3121 0.4280 0.1021
v 0.2839 0.4280 0.0739
v 0.3719 0.4280 -0.0141
v 0.4001 0.4280 0.0141
f 784/8 783/8 782/8 781/8
v 0.4001 0.4280 0.0141
v 0.3719 0.4280 -0.0141
v 0.3719 0.4160 -0.0141
v 0.4001 0.4160 0.0141
f 788/8 787/8 786/8 785/8
v 0.3121 0.4160 0.1021
v 0.2839 0.4160 0.0739
v 0.2839 0.4280 0.0739
v 0.3121 0.4280 0.1021
f 792/8 791/8 790/8 789/8
v -0.1300 0.5000 0.1700
v -0.1300 0.5400 0.1700
v -0.1300 0.5400 0.1300
v -0.1300 0.5000 0.1300
f 796/16 795/16 794/16 793/16
v -0.1700 0.5000 0.1300
v -0.1700 0.5400 0.1300
v -0.1700 0.5400 0.1700
v -0.1700 0.5000 0.1700
f 800/16 799/16 798/16 797/16
v -0.1300 0.5000 0.1300
v -0.1700 0.5000 0.1300
v -0.1700 0.5000 0.1700
v -0.1300 0.5000 0.1700
f 804/16 803/16 802/16 801/16
v -0.1300 0.5400 0.1700
v -0.1700 0.5400 0.1700
v -0.1700 0.5400 0.1300
v -0.1300 0.5400 0.1300
f 808/16 807/16 806/16 805/16
v -0.1300 0.5400 0.1300
v -0.1700 0.5400 0.1300
v -0.1700 0.5000 0.1300
v -0.1300 0.5000 0.1300
f 812/16 811/16 810/16 809/16
v -0.1300 0.5000 0.1700
v -0.1700 0.5000 0.1700
v -0.1700 0.5400 0.1700
v -0.1300 0.5400 0.1700
f 816/16 815/16 814/16 813/16
