# Walk of Industry low-poly (generated, wi_lib.py)
mtllib wi.mtl
vt 0 0
vt 0.03125 0.03125
vt 0.09375 0.03125
vt 0.15625 0.03125
vt 0.21875 0.03125
vt 0.28125 0.03125
vt 0.34375 0.03125
vt 0.40625 0.03125
vt 0.46875 0.03125
vt 0.53125 0.03125
vt 0.59375 0.03125
vt 0.65625 0.03125
vt 0.71875 0.03125
vt 0.78125 0.03125
vt 0.84375 0.03125
vt 0.90625 0.03125
vt 0.96875 0.03125
vt 0.03125 0.09375
vt 0.09375 0.09375
vt 0.15625 0.09375
vt 0.21875 0.09375
vt 0.28125 0.09375
vt 0.34375 0.09375
vt 0.40625 0.09375
vt 0.46875 0.09375
vt 0.53125 0.09375
vt 0.59375 0.09375
vt 0.65625 0.09375
vt 0.71875 0.09375
vt 0.78125 0.09375
vt 0.84375 0.09375
vt 0.90625 0.09375
vt 0.96875 0.09375
o Pipe
usemtl wi_palette
v -0.0689 0.1000 0.1663
v -0.1663 0.1000 0.0689
v -0.1663 0.5000 0.0689
v -0.0689 0.5000 0.1663
f 4/2 3/2 2/2 1/2
v -0.1663 0.1000 0.0689
v -0.1663 0.1000 -0.0689
v -0.1663 0.5000 -0.0689
v -0.1663 0.5000 0.0689
f 8/2 7/2 6/2 5/2
v -0.1663 0.1000 -0.0689
v -0.0689 0.1000 -0.1663
v -0.0689 0.5000 -0.1663
v -0.1663 0.5000 -0.0689
f 12/2 11/2 10/2 9/2
v -0.0689 0.1000 -0.1663
v 0.0689 0.1000 -0.1663
v 0.0689 0.5000 -0.1663
v -0.0689 0.5000 -0.1663
f 16/2 15/2 14/2 13/2
v 0.0689 0.1000 -0.1663
v 0.1663 0.1000 -0.0689
v 0.1663 0.5000 -0.0689
v 0.0689 0.5000 -0.1663
f 20/2 19/2 18/2 17/2
v 0.1663 0.1000 -0.0689
v 0.1663 0.1000 0.0689
v 0.1663 0.5000 0.0689
v 0.1663 0.5000 -0.0689
f 24/2 23/2 22/2 21/2
v 0.1663 0.1000 0.0689
v 0.0689 0.1000 0.1663
v 0.0689 0.5000 0.1663
v 0.1663 0.5000 0.0689
f 28/2 27/2 26/2 25/2
v 0.0689 0.1000 0.1663
v -0.0689 0.1000 0.1663
v -0.0689 0.5000 0.1663
v 0.0689 0.5000 0.1663
f 32/2 31/2 30/2 29/2
v 0.0689 0.1000 0.1663
v 0.1663 0.1000 0.0689
v 0.1663 0.1000 -0.0689
v 0.0689 0.1000 -0.1663
v -0.0689 0.1000 -0.1663
v -0.1663 0.1000 -0.0689
v -0.1663 0.1000 0.0689
v -0.0689 0.1000 0.1663
f 40/2 39/2 38/2 37/2 36/2 35/2 34/2 33/2
v -0.0689 0.5000 0.1663
v -0.1663 0.5000 0.0689
v -0.1663 0.5000 -0.0689
v -0.0689 0.5000 -0.1663
v 0.0689 0.5000 -0.1663
v 0.1663 0.5000 -0.0689
v 0.1663 0.5000 0.0689
v 0.0689 0.5000 0.1663
f 48/2 47/2 46/2 45/2 44/2 43/2 42/2 41/2
v -0.0765 0.5000 0.1848
v -0.1848 0.5000 0.0765
v -0.1848 0.5400 0.0765
v -0.0765 0.5400 0.1848
f 52/4 51/4 50/4 49/4
v -0.1848 0.5000 0.0765
v -0.1848 0.5000 -0.0765
v -0.1848 0.5400 -0.0765
v -0.1848 0.5400 0.0765
f 56/4 55/4 54/4 53/4
v -0.1848 0.5000 -0.0765
v -0.0765 0.5000 -0.1848
v -0.0765 0.5400 -0.1848
v -0.1848 0.5400 -0.0765
f 60/4 59/4 58/4 57/4
v -0.0765 0.5000 -0.1848
v 0.0765 0.5000 -0.1848
v 0.0765 0.5400 -0.1848
v -0.0765 0.5400 -0.1848
f 64/4 63/4 62/4 61/4
v 0.0765 0.5000 -0.1848
v 0.1848 0.5000 -0.0765
v 0.1848 0.5400 -0.0765
v 0.0765 0.5400 -0.1848
f 68/4 67/4 66/4 65/4
v 0.1848 0.5000 -0.0765
v 0.1848 0.5000 0.0765
v 0.1848 0.5400 0.0765
v 0.1848 0.5400 -0.0765
f 72/4 71/4 70/4 69/4
v 0.1848 0.5000 0.0765
v 0.0765 0.5000 0.1848
v 0.0765 0.5400 0.1848
v 0.1848 0.5400 0.0765
f 76/4 75/4 74/4 73/4
v 0.0765 0.5000 0.1848
v -0.0765 0.5000 0.1848
v -0.0765 0.5400 0.1848
v 0.0765 0.5400 0.1848
f 80/4 79/4 78/4 77/4
v 0.0765 0.5000 0.1848
v 0.1848 0.5000 0.0765
v 0.1848 0.5000 -0.0765
v 0.0765 0.5000 -0.1848
v -0.0765 0.5000 -0.1848
v -0.1848 0.5000 -0.0765
v -0.1848 0.5000 0.0765
v -0.0765 0.5000 0.1848
f 88/4 87/4 86/4 85/4 84/4 83/4 82/4 81/4
v -0.0765 0.5400 0.1848
v -0.1848 0.5400 0.0765
v -0.1848 0.5400 -0.0765
v -0.0765 0.5400 -0.1848
v 0.0765 0.5400 -0.1848
v 0.1848 0.5400 -0.0765
v 0.1848 0.5400 0.0765
v 0.0765 0.5400 0.1848
f 96/4 95/4 94/4 93/4 92/4 91/4 90/4 89/4
v -0.0765 0.0000 0.1848
v -0.1848 0.0000 0.0765
v -0.1848 0.1000 0.0765
v -0.0765 0.1000 0.1848
f 100/6 99/6 98/6 97/6
v -0.1848 0.0000 0.0765
v -0.1848 0.0000 -0.0765
v -0.1848 0.1000 -0.0765
v -0.1848 0.1000 0.0765
f 104/6 103/6 102/6 101/6
v -0.1848 0.0000 -0.0765
v -0.0765 0.0000 -0.1848
v -0.0765 0.1000 -0.1848
v -0.1848 0.1000 -0.0765
f 108/6 107/6 106/6 105/6
v -0.0765 0.0000 -0.1848
v 0.0765 0.0000 -0.1848
v 0.0765 0.1000 -0.1848
v -0.0765 0.1000 -0.1848
f 112/6 111/6 110/6 109/6
v 0.0765 0.0000 -0.1848
v 0.1848 0.0000 -0.0765
v 0.1848 0.1000 -0.0765
v 0.0765 0.1000 -0.1848
f 116/6 115/6 114/6 113/6
v 0.1848 0.0000 -0.0765
v 0.1848 0.0000 0.0765
v 0.1848 0.1000 0.0765
v 0.1848 0.1000 -0.0765
f 120/6 119/6 118/6 117/6
v 0.1848 0.0000 0.0765
v 0.0765 0.0000 0.1848
v 0.0765 0.1000 0.1848
v 0.1848 0.1000 0.0765
f 124/6 123/6 122/6 121/6
v 0.0765 0.0000 0.1848
v -0.0765 0.0000 0.1848
v -0.0765 0.1000 0.1848
v 0.0765 0.1000 0.1848
f 128/6 127/6 126/6 125/6
v 0.0765 0.0000 0.1848
v 0.1848 0.0000 0.0765
v 0.1848 0.0000 -0.0765
v 0.0765 0.0000 -0.1848
v -0.0765 0.0000 -0.1848
v -0.1848 0.0000 -0.0765
v -0.1848 0.0000 0.0765
v -0.0765 0.0000 0.1848
f 136/6 135/6 134/6 133/6 132/6 131/6 130/6 129/6
v -0.0765 0.1000 0.1848
v -0.1848 0.1000 0.0765
v -0.1848 0.1000 -0.0765
v -0.0765 0.1000 -0.1848
v 0.0765 0.1000 -0.1848
v 0.1848 0.1000 -0.0765
v 0.1848 0.1000 0.0765
v 0.0765 0.1000 0.1848
f 144/6 143/6 142/6 141/6 140/6 139/6 138/6 137/6
v -0.1046 0.3340 0.1500
v -0.0647 0.3890 0.1500
v -0.0647 0.3890 0.5000
v -0.1046 0.3340 0.5000
f 148/7 147/7 146/7 145/7
v -0.0647 0.3890 0.1500
v -0.0000 0.4100 0.1500
v -0.0000 0.4100 0.5000
v -0.0647 0.3890 0.5000
f 152/7 151/7 150/7 149/7
v -0.0000 0.4100 0.1500
v 0.0647 0.3890 0.1500
v 0.0647 0.3890 0.5000
v -0.0000 0.4100 0.5000
f 156/7 155/7 154/7 153/7
v 0.0647 0.3890 0.1500
v 0.1046 0.3340 0.1500
v 0.1046 0.3340 0.5000
v 0.0647 0.3890 0.5000
f 160/7 159/7 158/7 157/7
v 0.1046 0.3340 0.1500
v 0.1046 0.2660 0.1500
v 0.1046 0.2660 0.5000
v 0.1046 0.3340 0.5000
f 164/7 163/7 162/7 161/7
v 0.1046 0.2660 0.1500
v 0.0647 0.2110 0.1500
v 0.0647 0.2110 0.5000
v 0.1046 0.2660 0.5000
f 168/7 167/7 166/7 165/7
v 0.0647 0.2110 0.1500
v 0.0000 0.1900 0.1500
v 0.0000 0.1900 0.5000
v 0.0647 0.2110 0.5000
f 172/7 171/7 170/7 169/7
v 0.0000 0.1900 0.1500
v -0.0647 0.2110 0.1500
v -0.0647 0.2110 0.5000
v 0.0000 0.1900 0.5000
f 176/7 175/7 174/7 173/7
v -0.0647 0.2110 0.1500
v -0.1046 0.2660 0.1500
v -0.1046 0.2660 0.5000
v -0.0647 0.2110 0.5000
f 180/7 179/7 178/7 177/7
v -0.1046 0.2660 0.1500
v -0.1046 0.3340 0.1500
v -0.1046 0.3340 0.5000
v -0.1046 0.2660 0.5000
f 184/7 183/7 182/7 181/7
v -0.1046 0.2660 0.1500
v -0.0647 0.2110 0.1500
v 0.0000 0.1900 0.1500
v 0.0647 0.2110 0.1500
v 0.1046 0.2660 0.1500
v 0.1046 0.3340 0.1500
v 0.0647 0.3890 0.1500
v -0.0000 0.4100 0.1500
v -0.0647 0.3890 0.1500
v -0.1046 0.3340 0.1500
f 194/7 193/7 192/7 191/7 190/7 189/7 188/7 187/7 186/7 185/7
v -0.1046 0.3340 0.5000
v -0.0647 0.3890 0.5000
v -0.0000 0.4100 0.5000
v 0.0647 0.3890 0.5000
v 0.1046 0.3340 0.5000
v 0.1046 0.2660 0.5000
v 0.0647 0.2110 0.5000
v 0.0000 0.1900 0.5000
v -0.0647 0.2110 0.5000
v -0.1046 0.2660 0.5000
f 204/7 203/7 202/7 201/7 200/7 199/7 198/7 197/7 196/7 195/7
v -0.1379 0.3448 0.4380
v -0.0852 0.4173 0.4380
v -0.0852 0.4173 0.4820
v -0.1379 0.3448 0.4820
f 208/4 207/4 206/4 205/4
v -0.0852 0.4173 0.4380
v -0.0000 0.4450 0.4380
v -0.0000 0.4450 0.4820
v -0.0852 0.4173 0.4820
f 212/4 211/4 210/4 209/4
v -0.0000 0.4450 0.4380
v 0.0852 0.4173 0.4380
v 0.0852 0.4173 0.4820
v -0.0000 0.4450 0.4820
f 216/4 215/4 214/4 213/4
v 0.0852 0.4173 0.4380
v 0.1379 0.3448 0.4380
v 0.1379 0.3448 0.4820
v 0.0852 0.4173 0.4820
f 220/4 219/4 218/4 217/4
v 0.1379 0.3448 0.4380
v 0.1379 0.2552 0.4380
v 0.1379 0.2552 0.4820
v 0.1379 0.3448 0.4820
f 224/4 223/4 222/4 221/4
v 0.1379 0.2552 0.4380
v 0.0852 0.1827 0.4380
v 0.0852 0.1827 0.4820
v 0.1379 0.2552 0.4820
f 228/4 227/4 226/4 225/4
v 0.0852 0.1827 0.4380
v 0.0000 0.1550 0.4380
v 0.0000 0.1550 0.4820
v 0.0852 0.1827 0.4820
f 232/4 231/4 230/4 229/4
v 0.0000 0.1550 0.4380
v -0.0852 0.1827 0.4380
v -0.0852 0.1827 0.4820
v 0.0000 0.1550 0.4820
f 236/4 235/4 234/4 233/4
v -0.0852 0.1827 0.4380
v -0.1379 0.2552 0.4380
v -0.1379 0.2552 0.4820
v -0.0852 0.1827 0.4820
f 240/4 239/4 238/4 237/4
v -0.1379 0.2552 0.4380
v -0.1379 0.3448 0.4380
v -0.1379 0.3448 0.4820
v -0.1379 0.2552 0.4820
f 244/4 243/4 242/4 241/4
v -0.1379 0.2552 0.4380
v -0.0852 0.1827 0.4380
v 0.0000 0.1550 0.4380
v 0.0852 0.1827 0.4380
v 0.1379 0.2552 0.4380
v 0.1379 0.3448 0.4380
v 0.0852 0.4173 0.4380
v -0.0000 0.4450 0.4380
v -0.0852 0.4173 0.4380
v -0.1379 0.3448 0.4380
f 254/4 253/4 252/4 251/4 250/4 249/4 248/4 247/4 246/4 245/4
v -0.1379 0.3448 0.4820
v -0.0852 0.4173 0.4820
v -0.0000 0.4450 0.4820
v 0.0852 0.4173 0.4820
v 0.1379 0.3448 0.4820
v 0.1379 0.2552 0.4820
v 0.0852 0.1827 0.4820
v 0.0000 0.1550 0.4820
v -0.0852 0.1827 0.4820
v -0.1379 0.2552 0.4820
f 264/4 263/4 262/4 261/4 260/4 259/4 258/4 257/4 256/4 255/4
v -0.1046 0.3340 -0.5000
v -0.0647 0.3890 -0.5000
v -0.0647 0.3890 -0.1500
v -0.1046 0.3340 -0.1500
f 268/7 267/7 266/7 265/7
v -0.0647 0.3890 -0.5000
v -0.0000 0.4100 -0.5000
v -0.0000 0.4100 -0.1500
v -0.0647 0.3890 -0.1500
f 272/7 271/7 270/7 269/7
v -0.0000 0.4100 -0.5000
v 0.0647 0.3890 -0.5000
v 0.0647 0.3890 -0.1500
v -0.0000 0.4100 -0.1500
f 276/7 275/7 274/7 273/7
v 0.0647 0.3890 -0.5000
v 0.1046 0.3340 -0.5000
v 0.1046 0.3340 -0.1500
v 0.0647 0.3890 -0.1500
f 280/7 279/7 278/7 277/7
v 0.1046 0.3340 -0.5000
v 0.1046 0.2660 -0.5000
v 0.1046 0.2660 -0.1500
v 0.1046 0.3340 -0.1500
f 284/7 283/7 282/7 281/7
v 0.1046 0.2660 -0.5000
v 0.0647 0.2110 -0.5000
v 0.0647 0.2110 -0.1500
v 0.1046 0.2660 -0.1500
f 288/7 287/7 286/7 285/7
v 0.0647 0.2110 -0.5000
v 0.0000 0.1900 -0.5000
v 0.0000 0.1900 -0.1500
v 0.0647 0.2110 -0.1500
f 292/7 291/7 290/7 289/7
v 0.0000 0.1900 -0.5000
v -0.0647 0.2110 -0.5000
v -0.0647 0.2110 -0.1500
v 0.0000 0.1900 -0.1500
f 296/7 295/7 294/7 293/7
v -0.0647 0.2110 -0.5000
v -0.1046 0.2660 -0.5000
v -0.1046 0.2660 -0.1500
v -0.0647 0.2110 -0.1500
f 300/7 299/7 298/7 297/7
v -0.1046 0.2660 -0.5000
v -0.1046 0.3340 -0.5000
v -0.1046 0.3340 -0.1500
v -0.1046 0.2660 -0.1500
f 304/7 303/7 302/7 301/7
v -0.1046 0.2660 -0.5000
v -0.0647 0.2110 -0.5000
v 0.0000 0.1900 -0.5000
v 0.0647 0.2110 -0.5000
v 0.1046 0.2660 -0.5000
v 0.1046 0.3340 -0.5000
v 0.0647 0.3890 -0.5000
v -0.0000 0.4100 -0.5000
v -0.0647 0.3890 -0.5000
v -0.1046 0.3340 -0.5000
f 314/7 313/7 312/7 311/7 310/7 309/7 308/7 307/7 306/7 305/7
v -0.1046 0.3340 -0.1500
v -0.0647 0.3890 -0.1500
v -0.0000 0.4100 -0.1500
v 0.0647 0.3890 -0.1500
v 0.1046 0.3340 -0.1500
v 0.1046 0.2660 -0.1500
v 0.0647 0.2110 -0.1500
v 0.0000 0.1900 -0.1500
v -0.0647 0.2110 -0.1500
v -0.1046 0.2660 -0.1500
f 324/7 323/7 322/7 321/7 320/7 319/7 318/7 317/7 316/7 315/7
v -0.1379 0.3448 -0.4820
v -0.0852 0.4173 -0.4820
v -0.0852 0.4173 -0.4380
v -0.1379 0.3448 -0.4380
f 328/4 327/4 326/4 325/4
v -0.0852 0.4173 -0.4820
v -0.0000 0.4450 -0.4820
v -0.0000 0.4450 -0.4380
v -0.0852 0.4173 -0.4380
f 332/4 331/4 330/4 329/4
v -0.0000 0.4450 -0.4820
v 0.0852 0.4173 -0.4820
v 0.0852 0.4173 -0.4380
v -0.0000 0.4450 -0.4380
f 336/4 335/4 334/4 333/4
v 0.0852 0.4173 -0.4820
v 0.1379 0.3448 -0.4820
v 0.1379 0.3448 -0.4380
v 0.0852 0.4173 -0.4380
f 340/4 339/4 338/4 337/4
v 0.1379 0.3448 -0.4820
v 0.1379 0.2552 -0.4820
v 0.1379 0.2552 -0.4380
v 0.1379 0.3448 -0.4380
f 344/4 343/4 342/4 341/4
v 0.1379 0.2552 -0.4820
v 0.0852 0.1827 -0.4820
v 0.0852 0.1827 -0.4380
v 0.1379 0.2552 -0.4380
f 348/4 347/4 346/4 345/4
v 0.0852 0.1827 -0.4820
v 0.0000 0.1550 -0.4820
v 0.0000 0.1550 -0.4380
v 0.0852 0.1827 -0.4380
f 352/4 351/4 350/4 349/4
v 0.0000 0.1550 -0.4820
v -0.0852 0.1827 -0.4820
v -0.0852 0.1827 -0.4380
v 0.0000 0.1550 -0.4380
f 356/4 355/4 354/4 353/4
v -0.0852 0.1827 -0.4820
v -0.1379 0.2552 -0.4820
v -0.1379 0.2552 -0.4380
v -0.0852 0.1827 -0.4380
f 360/4 359/4 358/4 357/4
v -0.1379 0.2552 -0.4820
v -0.1379 0.3448 -0.4820
v -0.1379 0.3448 -0.4380
v -0.1379 0.2552 -0.4380
f 364/4 363/4 362/4 361/4
v -0.1379 0.2552 -0.4820
v -0.0852 0.1827 -0.4820
v 0.0000 0.1550 -0.4820
v 0.0852 0.1827 -0.4820
v 0.1379 0.2552 -0.4820
v 0.1379 0.3448 -0.4820
v 0.0852 0.4173 -0.4820
v -0.0000 0.4450 -0.4820
v -0.0852 0.4173 -0.4820
v -0.1379 0.3448 -0.4820
f 374/4 373/4 372/4 371/4 370/4 369/4 368/4 367/4 366/4 365/4
v -0.1379 0.3448 -0.4380
v -0.0852 0.4173 -0.4380
v -0.0000 0.4450 -0.4380
v 0.0852 0.4173 -0.4380
v 0.1379 0.3448 -0.4380
v 0.1379 0.2552 -0.4380
v 0.0852 0.1827 -0.4380
v 0.0000 0.1550 -0.4380
v -0.0852 0.1827 -0.4380
v -0.1379 0.2552 -0.4380
f 384/4 383/4 382/4 381/4 380/4 379/4 378/4 377/4 376/4 375/4
v -0.1500 0.3340 -0.1046
v -0.1500 0.3890 -0.0647
v -0.5000 0.3890 -0.0647
v -0.5000 0.3340 -0.1046
f 388/7 387/7 386/7 385/7
v -0.1500 0.3890 -0.0647
v -0.1500 0.4100 -0.0000
v -0.5000 0.4100 -0.0000
v -0.5000 0.3890 -0.0647
f 392/7 391/7 390/7 389/7
v -0.1500 0.4100 -0.0000
v -0.1500 0.3890 0.0647
v -0.5000 0.3890 0.0647
v -0.5000 0.4100 -0.0000
f 396/7 395/7 394/7 393/7
v -0.1500 0.3890 0.0647
v -0.1500 0.3340 0.1046
v -0.5000 0.3340 0.1046
v -0.5000 0.3890 0.0647
f 400/7 399/7 398/7 397/7
v -0.1500 0.3340 0.1046
v -0.1500 0.2660 0.1046
v -0.5000 0.2660 0.1046
v -0.5000 0.3340 0.1046
f 404/7 403/7 402/7 401/7
v -0.1500 0.2660 0.1046
v -0.1500 0.2110 0.0647
v -0.5000 0.2110 0.0647
v -0.5000 0.2660 0.1046
f 408/7 407/7 406/7 405/7
v -0.1500 0.2110 0.0647
v -0.1500 0.1900 0.0000
v -0.5000 0.1900 0.0000
v -0.5000 0.2110 0.0647
f 412/7 411/7 410/7 409/7
v -0.1500 0.1900 0.0000
v -0.1500 0.2110 -0.0647
v -0.5000 0.2110 -0.0647
v -0.5000 0.1900 0.0000
f 416/7 415/7 414/7 413/7
v -0.1500 0.2110 -0.0647
v -0.1500 0.2660 -0.1046
v -0.5000 0.2660 -0.1046
v -0.5000 0.2110 -0.0647
f 420/7 419/7 418/7 417/7
v -0.1500 0.2660 -0.1046
v -0.1500 0.3340 -0.1046
v -0.5000 0.3340 -0.1046
v -0.5000 0.2660 -0.1046
f 424/7 423/7 422/7 421/7
v -0.1500 0.2660 -0.1046
v -0.1500 0.2110 -0.0647
v -0.1500 0.1900 0.0000
v -0.1500 0.2110 0.0647
v -0.1500 0.2660 0.1046
v -0.1500 0.3340 0.1046
v -0.1500 0.3890 0.0647
v -0.1500 0.4100 -0.0000
v -0.1500 0.3890 -0.0647
v -0.1500 0.3340 -0.1046
f 434/7 433/7 432/7 431/7 430/7 429/7 428/7 427/7 426/7 425/7
v -0.5000 0.3340 -0.1046
v -0.5000 0.3890 -0.0647
v -0.5000 0.4100 -0.0000
v -0.5000 0.3890 0.0647
v -0.5000 0.3340 0.1046
v -0.5000 0.2660 0.1046
v -0.5000 0.2110 0.0647
v -0.5000 0.1900 0.0000
v -0.5000 0.2110 -0.0647
v -0.5000 0.2660 -0.1046
f 444/7 443/7 442/7 441/7 440/7 439/7 438/7 437/7 436/7 435/7
v -0.4380 0.3448 -0.1379
v -0.4380 0.4173 -0.0852
v -0.4820 0.4173 -0.0852
v -0.4820 0.3448 -0.1379
f 448/4 447/4 446/4 445/4
v -0.4380 0.4173 -0.0852
v -0.4380 0.4450 -0.0000
v -0.4820 0.4450 -0.0000
v -0.4820 0.4173 -0.0852
f 452/4 451/4 450/4 449/4
v -0.4380 0.4450 -0.0000
v -0.4380 0.4173 0.0852
v -0.4820 0.4173 0.0852
v -0.4820 0.4450 -0.0000
f 456/4 455/4 454/4 453/4
v -0.4380 0.4173 0.0852
v -0.4380 0.3448 0.1379
v -0.4820 0.3448 0.1379
v -0.4820 0.4173 0.0852
f 460/4 459/4 458/4 457/4
v -0.4380 0.3448 0.1379
v -0.4380 0.2552 0.1379
v -0.4820 0.2552 0.1379
v -0.4820 0.3448 0.1379
f 464/4 463/4 462/4 461/4
v -0.4380 0.2552 0.1379
v -0.4380 0.1827 0.0852
v -0.4820 0.1827 0.0852
v -0.4820 0.2552 0.1379
f 468/4 467/4 466/4 465/4
v -0.4380 0.1827 0.0852
v -0.4380 0.1550 0.0000
v -0.4820 0.1550 0.0000
v -0.4820 0.1827 0.0852
f 472/4 471/4 470/4 469/4
v -0.4380 0.1550 0.0000
v -0.4380 0.1827 -0.0852
v -0.4820 0.1827 -0.0852
v -0.4820 0.1550 0.0000
f 476/4 475/4 474/4 473/4
v -0.4380 0.1827 -0.0852
v -0.4380 0.2552 -0.1379
v -0.4820 0.2552 -0.1379
v -0.4820 0.1827 -0.0852
f 480/4 479/4 478/4 477/4
v -0.4380 0.2552 -0.1379
v -0.4380 0.3448 -0.1379
v -0.4820 0.3448 -0.1379
v -0.4820 0.2552 -0.1379
f 484/4 483/4 482/4 481/4
v -0.4380 0.2552 -0.1379
v -0.4380 0.1827 -0.0852
v -0.4380 0.1550 0.0000
v -0.4380 0.1827 0.0852
v -0.4380 0.2552 0.1379
v -0.4380 0.3448 0.1379
v -0.4380 0.4173 0.0852
v -0.4380 0.4450 -0.0000
v -0.4380 0.4173 -0.0852
v -0.4380 0.3448 -0.1379
f 494/4 493/4 492/4 491/4 490/4 489/4 488/4 487/4 486/4 485/4
v -0.4820 0.3448 -0.1379
v -0.4820 0.4173 -0.0852
v -0.4820 0.4450 -0.0000
v -0.4820 0.4173 0.0852
v -0.4820 0.3448 0.1379
v -0.4820 0.2552 0.1379
v -0.4820 0.1827 0.0852
v -0.4820 0.1550 0.0000
v -0.4820 0.1827 -0.0852
v -0.4820 0.2552 -0.1379
f 504/4 503/4 502/4 501/4 500/4 499/4 498/4 497/4 496/4 495/4
v 0.0739 0.4160 0.2839
v 0.0739 0.4280 0.2839
v -0.0141 0.4280 0.3719
v -0.0141 0.4160 0.3719
f 508/8 507/8 506/8 505/8
v 0.0141 0.4160 0.4001
v 0.0141 0.4280 0.4001
v 0.1021 0.4280 0.3121
v 0.1021 0.4160 0.3121
f 512/8 511/8 510/8 509/8
v -0.0141 0.4160 0.3719
v 0.0141 0.4160 0.4001
v 0.1021 0.4160 0.3121
v 0.0739 0.4160 0.2839
f 516/8 515/8 514/8 513/8
v 0.0739 0.4280 0.2839
v 0.1021 0.4280 0.3121
v 0.0141 0.4280 0.4001
v -0.0141 0.4280 0.3719
f 520/8 519/8 518/8 517/8
v -0.0141 0.4280 0.3719
v 0.0141 0.4280 0.4001
v 0.0141 0.4160 0.4001
v -0.0141 0.4160 0.3719
f 524/8 523/8 522/8 521/8
v 0.0739 0.4160 0.2839
v 0.1021 0.4160 0.3121
v 0.1021 0.4280 0.3121
v 0.0739 0.4280 0.2839
f 528/8 527/8 526/8 525/8
v -0.1021 0.4160 0.3121
v -0.1021 0.4280 0.3121
v -0.0141 0.4280 0.4001
v -0.0141 0.4160 0.4001
f 532/8 531/8 530/8 529/8
v 0.0141 0.4160 0.3719
v 0.0141 0.4280 0.3719
v -0.0739 0.4280 0.2839
v -0.0739 0.4160 0.2839
f 536/8 535/8 534/8 533/8
v -0.0141 0.4160 0.4001
v 0.0141 0.4160 0.3719
v -0.0739 0.4160 0.2839
v -0.1021 0.4160 0.3121
f 540/8 539/8 538/8 537/8
v -0.1021 0.4280 0.3121
v -0.0739 0.4280 0.2839
v 0.0141 0.4280 0.3719
v -0.0141 0.4280 0.4001
f 544/8 543/8 542/8 541/8
v -0.0141 0.4280 0.4001
v 0.0141 0.4280 0.3719
v 0.0141 0.4160 0.3719
v -0.0141 0.4160 0.4001
f 548/8 547/8 546/8 545/8
v -0.1021 0.4160 0.3121
v -0.0739 0.4160 0.2839
v -0.0739 0.4280 0.2839
v -0.1021 0.4280 0.3121
f 552/8 551/8 550/8 549/8
v 0.0739 0.4160 -0.3761
v 0.0739 0.4280 -0.3761
v -0.0141 0.4280 -0.2881
v -0.0141 0.4160 -0.2881
f 556/8 555/8 554/8 553/8
v 0.0141 0.4160 -0.2599
v 0.0141 0.4280 -0.2599
v 0.1021 0.4280 -0.3479
v 0.1021 0.4160 -0.3479
f 560/8 559/8 558/8 557/8
v -0.0141 0.4160 -0.2881
v 0.0141 0.4160 -0.2599
v 0.1021 0.4160 -0.3479
v 0.0739 0.4160 -0.3761
f 564/8 563/8 562/8 561/8
v 0.0739 0.4280 -0.3761
v 0.1021 0.4280 -0.3479
v 0.0141 0.4280 -0.2599
v -0.0141 0.4280 -0.2881
f 568/8 567/8 566/8 565/8
v -0.0141 0.4280 -0.2881
v 0.0141 0.4280 -0.2599
v 0.0141 0.4160 -0.2599
v -0.0141 0.4160 -0.2881
f 572/8 571/8 570/8 569/8
v 0.0739 0.4160 -0.3761
v 0.1021 0.4160 -0.3479
v 0.1021 0.4280 -0.3479
v 0.0739 0.4280 -0.3761
f 576/8 575/8 574/8 573/8
v -0.1021 0.4160 -0.3479
v -0.1021 0.4280 -0.3479
v -0.0141 0.4280 -0.2599
v -0.0141 0.4160 -0.2599
f 580/8 579/8 578/8 577/8
v 0.0141 0.4160 -0.2881
v 0.0141 0.4280 -0.2881
v -0.0739 0.4280 -0.3761
v -0.0739 0.4160 -0.3761
f 584/8 583/8 582/8 581/8
v -0.0141 0.4160 -0.2599
v 0.0141 0.4160 -0.2881
v -0.0739 0.4160 -0.3761
v -0.1021 0.4160 -0.3479
f 588/8 587/8 586/8 585/8
v -0.1021 0.4280 -0.3479
v -0.0739 0.4280 -0.3761
v 0.0141 0.4280 -0.2881
v -0.0141 0.4280 -0.2599
f 592/8 591/8 590/8 589/8
v -0.0141 0.4280 -0.2599
v 0.0141 0.4280 -0.2881
v 0.0141 0.4160 -0.2881
v -0.0141 0.4160 -0.2599
f 596/8 595/8 594/8 593/8
v -0.1021 0.4160 -0.3479
v -0.0739 0.4160 -0.3761
v -0.0739 0.4280 -0.3761
v -0.1021 0.4280 -0.3479
f 600/8 599/8 598/8 597/8
v -0.3761 0.4160 -0.0739
v -0.3761 0.4280 -0.0739
v -0.2881 0.4280 0.0141
v -0.2881 0.4160 0.0141
f 604/8 603/8 602/8 601/8
v -0.2599 0.4160 -0.0141
v -0.2599 0.4280 -0.0141
v -0.3479 0.4280 -0.1021
v -0.3479 0.4160 -0.1021
f 608/8 607/8 606/8 605/8
v -0.2881 0.4160 0.0141
v -0.2599 0.4160 -0.0141
v -0.3479 0.4160 -0.1021
v -0.3761 0.4160 -0.0739
f 612/8 611/8 610/8 609/8
v -0.3761 0.4280 -0.0739
v -0.3479 0.4280 -0.1021
v -0.2599 0.4280 -0.0141
v -0.2881 0.4280 0.0141
f 616/8 615/8 614/8 613/8
v -0.2881 0.4280 0.0141
v -0.2599 0.4280 -0.0141
v -0.2599 0.4160 -0.0141
v -0.2881 0.4160 0.0141
f 620/8 619/8 618/8 617/8
v -0.3761 0.4160 -0.0739
v -0.3479 0.4160 -0.1021
v -0.3479 0.4280 -0.1021
v -0.3761 0.4280 -0.0739
f 624/8 623/8 622/8 621/8
v -0.3479 0.4160 0.1021
v -0.3479 0.4280 0.1021
v -0.2599 0.4280 0.0141
v -0.2599 0.4160 0.0141
f 628/8 627/8 626/8 625/8
v -0.2881 0.4160 -0.0141
v -0.2881 0.4280 -0.0141
v -0.3761 0.4280 0.0739
v -0.3761 0.4160 0.0739
f 632/8 631/8 630/8 629/8
v -0.2599 0.4160 0.0141
v -0.2881 0.4160 -0.0141
v -0.3761 0.4160 0.0739
v -0.3479 0.4160 0.1021
f 636/8 635/8 634/8 633/8
v -0.3479 0.4280 0.1021
v -0.3761 0.4280 0.0739
v -0.2881 0.4280 -0.0141
v -0.2599 0.4280 0.0141
f 640/8 639/8 638/8 637/8
v -0.2599 0.4280 0.0141
v -0.2881 0.4280 -0.0141
v -0.2881 0.4160 -0.0141
v -0.2599 0.4160 0.0141
f 644/8 643/8 642/8 641/8
v -0.3479 0.4160 0.1021
v -0.3761 0.4160 0.0739
v -0.3761 0.4280 0.0739
v -0.3479 0.4280 0.1021
f 648/8 647/8 646/8 645/8
