# Walk of Industry low-poly (generated, wi_lib.py)
mtllib wi.mtl
vt 0 0
vt 0.03125 0.03125
vt 0.09375 0.03125
vt 0.15625 0.03125
vt 0.21875 0.03125
vt 0.28125 0.03125
vt 0.34375 0.03125
vt 0.40625 0.03125
vt 0.46875 0.03125
vt 0.53125 0.03125
vt 0.59375 0.03125
vt 0.65625 0.03125
vt 0.71875 0.03125
vt 0.78125 0.03125
vt 0.84375 0.03125
vt 0.90625 0.03125
vt 0.96875 0.03125
vt 0.03125 0.09375
vt 0.09375 0.09375
vt 0.15625 0.09375
vt 0.21875 0.09375
vt 0.28125 0.09375
vt 0.34375 0.09375
vt 0.40625 0.09375
vt 0.46875 0.09375
vt 0.53125 0.09375
vt 0.59375 0.09375
vt 0.65625 0.09375
vt 0.71875 0.09375
vt 0.78125 0.09375
vt 0.84375 0.09375
vt 0.90625 0.09375
vt 0.96875 0.09375
o Pipe
usemtl wi_palette
v -0.1046 0.3340 -0.5000
v -0.0647 0.3890 -0.5000
v -0.0647 0.3890 0.5000
v -0.1046 0.3340 0.5000
f 4/7 3/7 2/7 1/7
v -0.0647 0.3890 -0.5000
v -0.0000 0.4100 -0.5000
v -0.0000 0.4100 0.5000
v -0.0647 0.3890 0.5000
f 8/7 7/7 6/7 5/7
v -0.0000 0.4100 -0.5000
v 0.0647 0.3890 -0.5000
v 0.0647 0.3890 0.5000
v -0.0000 0.4100 0.5000
f 12/7 11/7 10/7 9/7
v 0.0647 0.3890 -0.5000
v 0.1046 0.3340 -0.5000
v 0.1046 0.3340 0.5000
v 0.0647 0.3890 0.5000
f 16/7 15/7 14/7 13/7
v 0.1046 0.3340 -0.5000
v 0.1046 0.2660 -0.5000
v 0.1046 0.2660 0.5000
v 0.1046 0.3340 0.5000
f 20/7 19/7 18/7 17/7
v 0.1046 0.2660 -0.5000
v 0.0647 0.2110 -0.5000
v 0.0647 0.2110 0.5000
v 0.1046 0.2660 0.5000
f 24/7 23/7 22/7 21/7
v 0.0647 0.2110 -0.5000
v 0.0000 0.1900 -0.5000
v 0.0000 0.1900 0.5000
v 0.0647 0.2110 0.5000
f 28/7 27/7 26/7 25/7
v 0.0000 0.1900 -0.5000
v -0.0647 0.2110 -0.5000
v -0.0647 0.2110 0.5000
v 0.0000 0.1900 0.5000
f 32/7 31/7 30/7 29/7
v -0.0647 0.2110 -0.5000
v -0.1046 0.2660 -0.5000
v -0.1046 0.2660 0.5000
v -0.0647 0.2110 0.5000
f 36/7 35/7 34/7 33/7
v -0.1046 0.2660 -0.5000
v -0.1046 0.3340 -0.5000
v -0.1046 0.3340 0.5000
v -0.1046 0.2660 0.5000
f 40/7 39/7 38/7 37/7
v -0.1046 0.2660 -0.5000
v -0.0647 0.2110 -0.5000
v 0.0000 0.1900 -0.5000
v 0.0647 0.2110 -0.5000
v 0.1046 0.2660 -0.5000
v 0.1046 0.3340 -0.5000
v 0.0647 0.3890 -0.5000
v -0.0000 0.4100 -0.5000
v -0.0647 0.3890 -0.5000
v -0.1046 0.3340 -0.5000
f 50/7 49/7 48/7 47/7 46/7 45/7 44/7 43/7 42/7 41/7
v -0.1046 0.3340 0.5000
v -0.0647 0.3890 0.5000
v -0.0000 0.4100 0.5000
v 0.0647 0.3890 0.5000
v 0.1046 0.3340 0.5000
v 0.1046 0.2660 0.5000
v 0.0647 0.2110 0.5000
v 0.0000 0.1900 0.5000
v -0.0647 0.2110 0.5000
v -0.1046 0.2660 0.5000
f 60/7 59/7 58/7 57/7 56/7 55/7 54/7 53/7 52/7 51/7
v -0.1379 0.3448 -0.4820
v -0.0852 0.4173 -0.4820
v -0.0852 0.4173 -0.4380
v -0.1379 0.3448 -0.4380
f 64/4 63/4 62/4 61/4
v -0.0852 0.4173 -0.4820
v -0.0000 0.4450 -0.4820
v -0.0000 0.4450 -0.4380
v -0.0852 0.4173 -0.4380
f 68/4 67/4 66/4 65/4
v -0.0000 0.4450 -0.4820
v 0.0852 0.4173 -0.4820
v 0.0852 0.4173 -0.4380
v -0.0000 0.4450 -0.4380
f 72/4 71/4 70/4 69/4
v 0.0852 0.4173 -0.4820
v 0.1379 0.3448 -0.4820
v 0.1379 0.3448 -0.4380
v 0.0852 0.4173 -0.4380
f 76/4 75/4 74/4 73/4
v 0.1379 0.3448 -0.4820
v 0.1379 0.2552 -0.4820
v 0.1379 0.2552 -0.4380
v 0.1379 0.3448 -0.4380
f 80/4 79/4 78/4 77/4
v 0.1379 0.2552 -0.4820
v 0.0852 0.1827 -0.4820
v 0.0852 0.1827 -0.4380
v 0.1379 0.2552 -0.4380
f 84/4 83/4 82/4 81/4
v 0.0852 0.1827 -0.4820
v 0.0000 0.1550 -0.4820
v 0.0000 0.1550 -0.4380
v 0.0852 0.1827 -0.4380
f 88/4 87/4 86/4 85/4
v 0.0000 0.1550 -0.4820
v -0.0852 0.1827 -0.4820
v -0.0852 0.1827 -0.4380
v 0.0000 0.1550 -0.4380
f 92/4 91/4 90/4 89/4
v -0.0852 0.1827 -0.4820
v -0.1379 0.2552 -0.4820
v -0.1379 0.2552 -0.4380
v -0.0852 0.1827 -0.4380
f 96/4 95/4 94/4 93/4
v -0.1379 0.2552 -0.4820
v -0.1379 0.3448 -0.4820
v -0.1379 0.3448 -0.4380
v -0.1379 0.2552 -0.4380
f 100/4 99/4 98/4 97/4
v -0.1379 0.2552 -0.4820
v -0.0852 0.1827 -0.4820
v 0.0000 0.1550 -0.4820
v 0.0852 0.1827 -0.4820
v 0.1379 0.2552 -0.4820
v 0.1379 0.3448 -0.4820
v 0.0852 0.4173 -0.4820
v -0.0000 0.4450 -0.4820
v -0.0852 0.4173 -0.4820
v -0.1379 0.3448 -0.4820
f 110/4 109/4 108/4 107/4 106/4 105/4 104/4 103/4 102/4 101/4
v -0.1379 0.3448 -0.4380
v -0.0852 0.4173 -0.4380
v -0.0000 0.4450 -0.4380
v 0.0852 0.4173 -0.4380
v 0.1379 0.3448 -0.4380
v 0.1379 0.2552 -0.4380
v 0.0852 0.1827 -0.4380
v 0.0000 0.1550 -0.4380
v -0.0852 0.1827 -0.4380
v -0.1379 0.2552 -0.4380
f 120/4 119/4 118/4 117/4 116/4 115/4 114/4 113/4 112/4 111/4
v -0.1379 0.3448 0.4380
v -0.0852 0.4173 0.4380
v -0.0852 0.4173 0.4820
v -0.1379 0.3448 0.4820
f 124/4 123/4 122/4 121/4
v -0.0852 0.4173 0.4380
v -0.0000 0.4450 0.4380
v -0.0000 0.4450 0.4820
v -0.0852 0.4173 0.4820
f 128/4 127/4 126/4 125/4
v -0.0000 0.4450 0.4380
v 0.0852 0.4173 0.4380
v 0.0852 0.4173 0.4820
v -0.0000 0.4450 0.4820
f 132/4 131/4 130/4 129/4
v 0.0852 0.4173 0.4380
v 0.1379 0.3448 0.4380
v 0.1379 0.3448 0.4820
v 0.0852 0.4173 0.4820
f 136/4 135/4 134/4 133/4
v 0.1379 0.3448 0.4380
v 0.1379 0.2552 0.4380
v 0.1379 0.2552 0.4820
v 0.1379 0.3448 0.4820
f 140/4 139/4 138/4 137/4
v 0.1379 0.2552 0.4380
v 0.0852 0.1827 0.4380
v 0.0852 0.1827 0.4820
v 0.1379 0.2552 0.4820
f 144/4 143/4 142/4 141/4
v 0.0852 0.1827 0.4380
v 0.0000 0.1550 0.4380
v 0.0000 0.1550 0.4820
v 0.0852 0.1827 0.4820
f 148/4 147/4 146/4 145/4
v 0.0000 0.1550 0.4380
v -0.0852 0.1827 0.4380
v -0.0852 0.1827 0.4820
v 0.0000 0.1550 0.4820
f 152/4 151/4 150/4 149/4
v -0.0852 0.1827 0.4380
v -0.1379 0.2552 0.4380
v -0.1379 0.2552 0.4820
v -0.0852 0.1827 0.4820
f 156/4 155/4 154/4 153/4
v -0.1379 0.2552 0.4380
v -0.1379 0.3448 0.4380
v -0.1379 0.3448 0.4820
v -0.1379 0.2552 0.4820
f 160/4 159/4 158/4 157/4
v -0.1379 0.2552 0.4380
v -0.0852 0.1827 0.4380
v 0.0000 0.1550 0.4380
v 0.0852 0.1827 0.4380
v 0.1379 0.2552 0.4380
v 0.1379 0.3448 0.4380
v 0.0852 0.4173 0.4380
v -0.0000 0.4450 0.4380
v -0.0852 0.4173 0.4380
v -0.1379 0.3448 0.4380
f 170/4 169/4 168/4 167/4 166/4 165/4 164/4 163/4 162/4 161/4
v -0.1379 0.3448 0.4820
v -0.0852 0.4173 0.4820
v -0.0000 0.4450 0.4820
v 0.0852 0.4173 0.4820
v 0.1379 0.3448 0.4820
v 0.1379 0.2552 0.4820
v 0.0852 0.1827 0.4820
v 0.0000 0.1550 0.4820
v -0.0852 0.1827 0.4820
v -0.1379 0.2552 0.4820
f 180/4 179/4 178/4 177/4 176/4 175/4 174/4 173/4 172/4 171/4
v 0.0800 0.0000 0.0500
v 0.0800 0.1900 0.0500
v 0.0800 0.1900 -0.0500
v 0.0800 0.0000 -0.0500
f 184/6 183/6 182/6 181/6
v -0.0800 0.0000 -0.0500
v -0.0800 0.1900 -0.0500
v -0.0800 0.1900 0.0500
v -0.0800 0.0000 0.0500
f 188/6 187/6 186/6 185/6
v 0.0800 0.0000 -0.0500
v -0.0800 0.0000 -0.0500
v -0.0800 0.0000 0.0500
v 0.0800 0.0000 0.0500
f 192/6 191/6 190/6 189/6
v 0.0800 0.1900 0.0500
v -0.0800 0.1900 0.0500
v -0.0800 0.1900 -0.0500
v 0.0800 0.1900 -0.0500
f 196/6 195/6 194/6 193/6
v 0.0800 0.1900 -0.0500
v -0.0800 0.1900 -0.0500
v -0.0800 0.0000 -0.0500
v 0.0800 0.0000 -0.0500
f 200/6 199/6 198/6 197/6
v 0.0800 0.0000 0.0500
v -0.0800 0.0000 0.0500
v -0.0800 0.1900 0.0500
v 0.0800 0.1900 0.0500
f 204/6 203/6 202/6 201/6
v 0.0739 0.4160 -0.0461
v 0.0739 0.4280 -0.0461
v -0.0141 0.4280 0.0419
v -0.0141 0.4160 0.0419
f 208/8 207/8 206/8 205/8
v 0.0141 0.4160 0.0701
v 0.0141 0.4280 0.0701
v 0.1021 0.4280 -0.0179
v 0.1021 0.4160 -0.0179
f 212/8 211/8 210/8 209/8
v -0.0141 0.4160 0.0419
v 0.0141 0.4160 0.0701
v 0.1021 0.4160 -0.0179
v 0.0739 0.4160 -0.0461
f 216/8 215/8 214/8 213/8
v 0.0739 0.4280 -0.0461
v 0.1021 0.4280 -0.0179
v 0.0141 0.4280 0.0701
v -0.0141 0.4280 0.0419
f 220/8 219/8 218/8 217/8
v -0.0141 0.4280 0.0419
v 0.0141 0.4280 0.0701
v 0.0141 0.4160 0.0701
v -0.0141 0.4160 0.0419
f 224/8 223/8 222/8 221/8
v 0.0739 0.4160 -0.0461
v 0.1021 0.4160 -0.0179
v 0.1021 0.4280 -0.0179
v 0.0739 0.4280 -0.0461
f 228/8 227/8 226/8 225/8
v -0.1021 0.4160 -0.0179
v -0.1021 0.4280 -0.0179
v -0.0141 0.4280 0.0701
v -0.0141 0.4160 0.0701
f 232/8 231/8 230/8 229/8
v 0.0141 0.4160 0.0419
v 0.0141 0.4280 0.0419
v -0.0739 0.4280 -0.0461
v -0.0739 0.4160 -0.0461
f 236/8 235/8 234/8 233/8
v -0.0141 0.4160 0.0701
v 0.0141 0.4160 0.0419
v -0.0739 0.4160 -0.0461
v -0.1021 0.4160 -0.0179
f 240/8 239/8 238/8 237/8
v -0.1021 0.4280 -0.0179
v -0.0739 0.4280 -0.0461
v 0.0141 0.4280 0.0419
v -0.0141 0.4280 0.0701
f 244/8 243/8 242/8 241/8
v -0.0141 0.4280 0.0701
v 0.0141 0.4280 0.0419
v 0.0141 0.4160 0.0419
v -0.0141 0.4160 0.0701
f 248/8 247/8 246/8 245/8
v -0.1021 0.4160 -0.0179
v -0.0739 0.4160 -0.0461
v -0.0739 0.4280 -0.0461
v -0.1021 0.4280 -0.0179
f 252/8 251/8 250/8 249/8
