# Walk of Industry low-poly (generated, wi_lib.py)
mtllib wi.mtl
vt 0 0
vt 0.03125 0.03125
vt 0.09375 0.03125
vt 0.15625 0.03125
vt 0.21875 0.03125
vt 0.28125 0.03125
vt 0.34375 0.03125
vt 0.40625 0.03125
vt 0.46875 0.03125
vt 0.53125 0.03125
vt 0.59375 0.03125
vt 0.65625 0.03125
vt 0.71875 0.03125
vt 0.78125 0.03125
vt 0.84375 0.03125
vt 0.90625 0.03125
vt 0.96875 0.03125
vt 0.03125 0.09375
vt 0.09375 0.09375
vt 0.15625 0.09375
vt 0.21875 0.09375
vt 0.28125 0.09375
vt 0.34375 0.09375
vt 0.40625 0.09375
vt 0.46875 0.09375
vt 0.53125 0.09375
vt 0.59375 0.09375
vt 0.65625 0.09375
vt 0.71875 0.09375
vt 0.78125 0.09375
vt 0.84375 0.09375
vt 0.90625 0.09375
vt 0.96875 0.09375
o Body
usemtl wi_palette
v -0.0150 0.0000 0.0260
v -0.0300 0.0000 0.0000
v -0.0300 0.1400 0.0000
v -0.0150 0.1400 0.0260
f 4/7 3/7 2/7 1/7
v -0.0300 0.0000 0.0000
v -0.0150 0.0000 -0.0260
v -0.0150 0.1400 -0.0260
v -0.0300 0.1400 0.0000
f 8/7 7/7 6/7 5/7
v -0.0150 0.0000 -0.0260
v 0.0150 0.0000 -0.0260
v 0.0150 0.1400 -0.0260
v -0.0150 0.1400 -0.0260
f 12/7 11/7 10/7 9/7
v 0.0150 0.0000 -0.0260
v 0.0300 0.0000 -0.0000
v 0.0300 0.1400 -0.0000
v 0.0150 0.1400 -0.0260
f 16/7 15/7 14/7 13/7
v 0.0300 0.0000 -0.0000
v 0.0150 0.0000 0.0260
v 0.0150 0.1400 0.0260
v 0.0300 0.1400 -0.0000
f 20/7 19/7 18/7 17/7
v 0.0150 0.0000 0.0260
v -0.0150 0.0000 0.0260
v -0.0150 0.1400 0.0260
v 0.0150 0.1400 0.0260
f 24/7 23/7 22/7 21/7
v 0.0150 0.0000 0.0260
v 0.0300 0.0000 -0.0000
v 0.0150 0.0000 -0.0260
v -0.0150 0.0000 -0.0260
v -0.0300 0.0000 0.0000
v -0.0150 0.0000 0.0260
f 30/7 29/7 28/7 27/7 26/7 25/7
v -0.0150 0.1400 0.0260
v -0.0300 0.1400 0.0000
v -0.0150 0.1400 -0.0260
v 0.0150 0.1400 -0.0260
v 0.0300 0.1400 -0.0000
v 0.0150 0.1400 0.0260
f 36/7 35/7 34/7 33/7 32/7 31/7
v -0.0433 0.1400 0.1331
v -0.1133 0.1400 0.0823
v -0.1133 0.1700 0.0823
v -0.0433 0.1700 0.1331
f 40/18 39/18 38/18 37/18
v -0.1133 0.1400 0.0823
v -0.1400 0.1400 0.0000
v -0.1400 0.1700 0.0000
v -0.1133 0.1700 0.0823
f 44/18 43/18 42/18 41/18
v -0.1400 0.1400 0.0000
v -0.1133 0.1400 -0.0823
v -0.1133 0.1700 -0.0823
v -0.1400 0.1700 0.0000
f 48/18 47/18 46/18 45/18
v -0.1133 0.1400 -0.0823
v -0.0433 0.1400 -0.1331
v -0.0433 0.1700 -0.1331
v -0.1133 0.1700 -0.0823
f 52/18 51/18 50/18 49/18
v -0.0433 0.1400 -0.1331
v 0.0433 0.1400 -0.1331
v 0.0433 0.1700 -0.1331
v -0.0433 0.1700 -0.1331
f 56/18 55/18 54/18 53/18
v 0.0433 0.1400 -0.1331
v 0.1133 0.1400 -0.0823
v 0.1133 0.1700 -0.0823
v 0.0433 0.1700 -0.1331
f 60/18 59/18 58/18 57/18
v 0.1133 0.1400 -0.0823
v 0.1400 0.1400 -0.0000
v 0.1400 0.1700 -0.0000
v 0.1133 0.1700 -0.0823
f 64/18 63/18 62/18 61/18
v 0.1400 0.1400 -0.0000
v 0.1133 0.1400 0.0823
v 0.1133 0.1700 0.0823
v 0.1400 0.1700 -0.0000
f 68/18 67/18 66/18 65/18
v 0.1133 0.1400 0.0823
v 0.0433 0.1400 0.1331
v 0.0433 0.1700 0.1331
v 0.1133 0.1700 0.0823
f 72/18 71/18 70/18 69/18
v 0.0433 0.1400 0.1331
v -0.0433 0.1400 0.1331
v -0.0433 0.1700 0.1331
v 0.0433 0.1700 0.1331
f 76/18 75/18 74/18 73/18
v 0.0433 0.1400 0.1331
v 0.1133 0.1400 0.0823
v 0.1400 0.1400 -0.0000
v 0.1133 0.1400 -0.0823
v 0.0433 0.1400 -0.1331
v -0.0433 0.1400 -0.1331
v -0.1133 0.1400 -0.0823
v -0.1400 0.1400 0.0000
v -0.1133 0.1400 0.0823
v -0.0433 0.1400 0.1331
f 86/18 85/18 84/18 83/18 82/18 81/18 80/18 79/18 78/18 77/18
v -0.0433 0.1700 0.1331
v -0.1133 0.1700 0.0823
v -0.1400 0.1700 0.0000
v -0.1133 0.1700 -0.0823
v -0.0433 0.1700 -0.1331
v 0.0433 0.1700 -0.1331
v 0.1133 0.1700 -0.0823
v 0.1400 0.1700 -0.0000
v 0.1133 0.1700 0.0823
v 0.0433 0.1700 0.1331
f 96/18 95/18 94/18 93/18 92/18 91/18 90/18 89/18 88/18 87/18
v -0.0278 0.1300 0.0856
v -0.0728 0.1300 0.0529
v -0.0728 0.1800 0.0529
v -0.0278 0.1800 0.0856
f 100/7 99/7 98/7 97/7
v -0.0728 0.1300 0.0529
v -0.0900 0.1300 0.0000
v -0.0900 0.1800 0.0000
v -0.0728 0.1800 0.0529
f 104/7 103/7 102/7 101/7
v -0.0900 0.1300 0.0000
v -0.0728 0.1300 -0.0529
v -0.0728 0.1800 -0.0529
v -0.0900 0.1800 0.0000
f 108/7 107/7 106/7 105/7
v -0.0728 0.1300 -0.0529
v -0.0278 0.1300 -0.0856
v -0.0278 0.1800 -0.0856
v -0.0728 0.1800 -0.0529
f 112/7 111/7 110/7 109/7
v -0.0278 0.1300 -0.0856
v 0.0278 0.1300 -0.0856
v 0.0278 0.1800 -0.0856
v -0.0278 0.1800 -0.0856
f 116/7 115/7 114/7 113/7
v 0.0278 0.1300 -0.0856
v 0.0728 0.1300 -0.0529
v 0.0728 0.1800 -0.0529
v 0.0278 0.1800 -0.0856
f 120/7 119/7 118/7 117/7
v 0.0728 0.1300 -0.0529
v 0.0900 0.1300 -0.0000
v 0.0900 0.1800 -0.0000
v 0.0728 0.1800 -0.0529
f 124/7 123/7 122/7 121/7
v 0.0900 0.1300 -0.0000
v 0.0728 0.1300 0.0529
v 0.0728 0.1800 0.0529
v 0.0900 0.1800 -0.0000
f 128/7 127/7 126/7 125/7
v 0.0728 0.1300 0.0529
v 0.0278 0.1300 0.0856
v 0.0278 0.1800 0.0856
v 0.0728 0.1800 0.0529
f 132/7 131/7 130/7 129/7
v 0.0278 0.1300 0.0856
v -0.0278 0.1300 0.0856
v -0.0278 0.1800 0.0856
v 0.0278 0.1800 0.0856
f 136/7 135/7 134/7 133/7
v 0.0278 0.1300 0.0856
v 0.0728 0.1300 0.0529
v 0.0900 0.1300 -0.0000
v 0.0728 0.1300 -0.0529
v 0.0278 0.1300 -0.0856
v -0.0278 0.1300 -0.0856
v -0.0728 0.1300 -0.0529
v -0.0900 0.1300 0.0000
v -0.0728 0.1300 0.0529
v -0.0278 0.1300 0.0856
f 146/7 145/7 144/7 143/7 142/7 141/7 140/7 139/7 138/7 137/7
v -0.0278 0.1800 0.0856
v -0.0728 0.1800 0.0529
v -0.0900 0.1800 0.0000
v -0.0728 0.1800 -0.0529
v -0.0278 0.1800 -0.0856
v 0.0278 0.1800 -0.0856
v 0.0728 0.1800 -0.0529
v 0.0900 0.1800 -0.0000
v 0.0728 0.1800 0.0529
v 0.0278 0.1800 0.0856
f 156/7 155/7 154/7 153/7 152/7 151/7 150/7 149/7 148/7 147/7
v 0.1300 0.1450 0.0150
v 0.1300 0.1650 0.0150
v 0.1300 0.1650 -0.0150
v 0.1300 0.1450 -0.0150
f 160/18 159/18 158/18 157/18
v -0.1300 0.1450 -0.0150
v -0.1300 0.1650 -0.0150
v -0.1300 0.1650 0.0150
v -0.1300 0.1450 0.0150
f 164/18 163/18 162/18 161/18
v 0.1300 0.1450 -0.0150
v -0.1300 0.1450 -0.0150
v -0.1300 0.1450 0.0150
v 0.1300 0.1450 0.0150
f 168/18 167/18 166/18 165/18
v 0.1300 0.1650 0.0150
v -0.1300 0.1650 0.0150
v -0.1300 0.1650 -0.0150
v 0.1300 0.1650 -0.0150
f 172/18 171/18 170/18 169/18
v 0.1300 0.1650 -0.0150
v -0.1300 0.1650 -0.0150
v -0.1300 0.1450 -0.0150
v 0.1300 0.1450 -0.0150
f 176/18 175/18 174/18 173/18
v 0.1300 0.1450 0.0150
v -0.1300 0.1450 0.0150
v -0.1300 0.1650 0.0150
v 0.1300 0.1650 0.0150
f 180/18 179/18 178/18 177/18
