# Walk of Industry low-poly (generated, wi_lib.py)
mtllib wi.mtl
vt 0 0
vt 0.03125 0.03125
vt 0.09375 0.03125
vt 0.15625 0.03125
vt 0.21875 0.03125
vt 0.28125 0.03125
vt 0.34375 0.03125
vt 0.40625 0.03125
vt 0.46875 0.03125
vt 0.53125 0.03125
vt 0.59375 0.03125
vt 0.65625 0.03125
vt 0.71875 0.03125
vt 0.78125 0.03125
vt 0.84375 0.03125
vt 0.90625 0.03125
vt 0.96875 0.03125
vt 0.03125 0.09375
vt 0.09375 0.09375
vt 0.15625 0.09375
vt 0.21875 0.09375
vt 0.28125 0.09375
vt 0.34375 0.09375
vt 0.40625 0.09375
vt 0.46875 0.09375
vt 0.53125 0.09375
vt 0.59375 0.09375
vt 0.65625 0.09375
vt 0.71875 0.09375
vt 0.78125 0.09375
vt 0.84375 0.09375
vt 0.90625 0.09375
vt 0.96875 0.09375
o Pipe
usemtl wi_palette
v -0.5137 0.3340 0.1037
v -0.5084 0.3890 0.0641
v -0.3790 0.3890 0.0811
v -0.3842 0.3340 0.1208
f 4/7 3/7 2/7 1/7
v -0.5084 0.3890 0.0641
v -0.5000 0.4100 0.0000
v -0.3706 0.4100 0.0170
v -0.3790 0.3890 0.0811
f 8/7 7/7 6/7 5/7
v -0.5000 0.4100 0.0000
v -0.4916 0.3890 -0.0641
v -0.3622 0.3890 -0.0471
v -0.3706 0.4100 0.0170
f 12/7 11/7 10/7 9/7
v -0.4916 0.3890 -0.0641
v -0.4863 0.3340 -0.1037
v -0.3569 0.3340 -0.0867
v -0.3622 0.3890 -0.0471
f 16/7 15/7 14/7 13/7
v -0.4863 0.3340 -0.1037
v -0.4863 0.2660 -0.1037
v -0.3569 0.2660 -0.0867
v -0.3569 0.3340 -0.0867
f 20/7 19/7 18/7 17/7
v -0.4863 0.2660 -0.1037
v -0.4916 0.2110 -0.0641
v -0.3622 0.2110 -0.0471
v -0.3569 0.2660 -0.0867
f 24/7 23/7 22/7 21/7
v -0.4916 0.2110 -0.0641
v -0.5000 0.1900 -0.0000
v -0.3706 0.1900 0.0170
v -0.3622 0.2110 -0.0471
f 28/7 27/7 26/7 25/7
v -0.5000 0.1900 -0.0000
v -0.5084 0.2110 0.0641
v -0.3790 0.2110 0.0811
v -0.3706 0.1900 0.0170
f 32/7 31/7 30/7 29/7
v -0.5084 0.2110 0.0641
v -0.5137 0.2660 0.1037
v -0.3842 0.2660 0.1208
v -0.3790 0.2110 0.0811
f 36/7 35/7 34/7 33/7
v -0.5137 0.2660 0.1037
v -0.5137 0.3340 0.1037
v -0.3842 0.3340 0.1208
v -0.3842 0.2660 0.1208
f 40/7 39/7 38/7 37/7
v -0.5137 0.2660 0.1037
v -0.5084 0.2110 0.0641
v -0.5000 0.1900 -0.0000
v -0.4916 0.2110 -0.0641
v -0.4863 0.2660 -0.1037
v -0.4863 0.3340 -0.1037
v -0.4916 0.3890 -0.0641
v -0.5000 0.4100 0.0000
v -0.5084 0.3890 0.0641
v -0.5137 0.3340 0.1037
f 50/7 49/7 48/7 47/7 46/7 45/7 44/7 43/7 42/7 41/7
v -0.3842 0.3340 0.1208
v -0.3790 0.3890 0.0811
v -0.3706 0.4100 0.0170
v -0.3622 0.3890 -0.0471
v -0.3569 0.3340 -0.0867
v -0.3569 0.2660 -0.0867
v -0.3622 0.2110 -0.0471
v -0.3706 0.1900 0.0170
v -0.3790 0.2110 0.0811
v -0.3842 0.2660 0.1208
f 60/7 59/7 58/7 57/7 56/7 55/7 54/7 53/7 52/7 51/7
v -0.4106 0.3340 0.1137
v -0.3953 0.3890 0.0768
v -0.2747 0.3890 0.1267
v -0.2900 0.3340 0.1636
f 64/7 63/7 62/7 61/7
v -0.3953 0.3890 0.0768
v -0.3706 0.4100 0.0170
v -0.2500 0.4100 0.0670
v -0.2747 0.3890 0.1267
f 68/7 67/7 66/7 65/7
v -0.3706 0.4100 0.0170
v -0.3458 0.3890 -0.0427
v -0.2253 0.3890 0.0073
v -0.2500 0.4100 0.0670
f 72/7 71/7 70/7 69/7
v -0.3458 0.3890 -0.0427
v -0.3306 0.3340 -0.0796
v -0.2100 0.3340 -0.0297
v -0.2253 0.3890 0.0073
f 76/7 75/7 74/7 73/7
v -0.3306 0.3340 -0.0796
v -0.3306 0.2660 -0.0796
v -0.2100 0.2660 -0.0297
v -0.2100 0.3340 -0.0297
f 80/7 79/7 78/7 77/7
v -0.3306 0.2660 -0.0796
v -0.3458 0.2110 -0.0427
v -0.2253 0.2110 0.0073
v -0.2100 0.2660 -0.0297
f 84/7 83/7 82/7 81/7
v -0.3458 0.2110 -0.0427
v -0.3706 0.1900 0.0170
v -0.2500 0.1900 0.0670
v -0.2253 0.2110 0.0073
f 88/7 87/7 86/7 85/7
v -0.3706 0.1900 0.0170
v -0.3953 0.2110 0.0768
v -0.2747 0.2110 0.1267
v -0.2500 0.1900 0.0670
f 92/7 91/7 90/7 89/7
v -0.3953 0.2110 0.0768
v -0.4106 0.2660 0.1137
v -0.2900 0.2660 0.1636
v -0.2747 0.2110 0.1267
f 96/7 95/7 94/7 93/7
v -0.4106 0.2660 0.1137
v -0.4106 0.3340 0.1137
v -0.2900 0.3340 0.1636
v -0.2900 0.2660 0.1636
f 100/7 99/7 98/7 97/7
v -0.4106 0.2660 0.1137
v -0.3953 0.2110 0.0768
v -0.3706 0.1900 0.0170
v -0.3458 0.2110 -0.0427
v -0.3306 0.2660 -0.0796
v -0.3306 0.3340 -0.0796
v -0.3458 0.3890 -0.0427
v -0.3706 0.4100 0.0170
v -0.3953 0.3890 0.0768
v -0.4106 0.3340 0.1137
f 110/7 109/7 108/7 107/7 106/7 105/7 104/7 103/7 102/7 101/7
v -0.2900 0.3340 0.1636
v -0.2747 0.3890 0.1267
v -0.2500 0.4100 0.0670
v -0.2253 0.3890 0.0073
v -0.2100 0.3340 -0.0297
v -0.2100 0.2660 -0.0297
v -0.2253 0.2110 0.0073
v -0.2500 0.1900 0.0670
v -0.2747 0.2110 0.1267
v -0.2900 0.2660 0.1636
f 120/7 119/7 118/7 117/7 116/7 115/7 114/7 113/7 112/7 111/7
v -0.3137 0.3340 0.1500
v -0.2894 0.3890 0.1183
v -0.1858 0.3890 0.1977
v -0.2101 0.3340 0.2294
f 124/7 123/7 122/7 121/7
v -0.2894 0.3890 0.1183
v -0.2500 0.4100 0.0670
v -0.1464 0.4100 0.1464
v -0.1858 0.3890 0.1977
f 128/7 127/7 126/7 125/7
v -0.2500 0.4100 0.0670
v -0.2106 0.3890 0.0157
v -0.1071 0.3890 0.0952
v -0.1464 0.4100 0.1464
f 132/7 131/7 130/7 129/7
v -0.2106 0.3890 0.0157
v -0.1863 0.3340 -0.0160
v -0.0828 0.3340 0.0634
v -0.1071 0.3890 0.0952
f 136/7 135/7 134/7 133/7
v -0.1863 0.3340 -0.0160
v -0.1863 0.2660 -0.0160
v -0.0828 0.2660 0.0634
v -0.0828 0.3340 0.0634
f 140/7 139/7 138/7 137/7
v -0.1863 0.2660 -0.0160
v -0.2106 0.2110 0.0157
v -0.1071 0.2110 0.0952
v -0.0828 0.2660 0.0634
f 144/7 143/7 142/7 141/7
v -0.2106 0.2110 0.0157
v -0.2500 0.1900 0.0670
v -0.1464 0.1900 0.1464
v -0.1071 0.2110 0.0952
f 148/7 147/7 146/7 145/7
v -0.2500 0.1900 0.0670
v -0.2894 0.2110 0.1183
v -0.1858 0.2110 0.1977
v -0.1464 0.1900 0.1464
f 152/7 151/7 150/7 149/7
v -0.2894 0.2110 0.1183
v -0.3137 0.2660 0.1500
v -0.2101 0.2660 0.2294
v -0.1858 0.2110 0.1977
f 156/7 155/7 154/7 153/7
v -0.3137 0.2660 0.1500
v -0.3137 0.3340 0.1500
v -0.2101 0.3340 0.2294
v -0.2101 0.2660 0.2294
f 160/7 159/7 158/7 157/7
v -0.3137 0.2660 0.1500
v -0.2894 0.2110 0.1183
v -0.2500 0.1900 0.0670
v -0.2106 0.2110 0.0157
v -0.1863 0.2660 -0.0160
v -0.1863 0.3340 -0.0160
v -0.2106 0.3890 0.0157
v -0.2500 0.4100 0.0670
v -0.2894 0.3890 0.1183
v -0.3137 0.3340 0.1500
f 170/7 169/7 168/7 167/7 166/7 165/7 164/7 163/7 162/7 161/7
v -0.2101 0.3340 0.2294
v -0.1858 0.3890 0.1977
v -0.1464 0.4100 0.1464
v -0.1071 0.3890 0.0952
v -0.0828 0.3340 0.0634
v -0.0828 0.2660 0.0634
v -0.1071 0.2110 0.0952
v -0.1464 0.1900 0.1464
v -0.1858 0.2110 0.1977
v -0.2101 0.2660 0.2294
f 180/7 179/7 178/7 177/7 176/7 175/7 174/7 173/7 172/7 171/7
v -0.2294 0.3340 0.2101
v -0.1977 0.3890 0.1858
v -0.1183 0.3890 0.2894
v -0.1500 0.3340 0.3137
f 184/7 183/7 182/7 181/7
v -0.1977 0.3890 0.1858
v -0.1464 0.4100 0.1464
v -0.0670 0.4100 0.2500
v -0.1183 0.3890 0.2894
f 188/7 187/7 186/7 185/7
v -0.1464 0.4100 0.1464
v -0.0952 0.3890 0.1071
v -0.0157 0.3890 0.2106
v -0.0670 0.4100 0.2500
f 192/7 191/7 190/7 189/7
v -0.0952 0.3890 0.1071
v -0.0634 0.3340 0.0828
v 0.0160 0.3340 0.1863
v -0.0157 0.3890 0.2106
f 196/7 195/7 194/7 193/7
v -0.0634 0.3340 0.0828
v -0.0634 0.2660 0.0828
v 0.0160 0.2660 0.1863
v 0.0160 0.3340 0.1863
f 200/7 199/7 198/7 197/7
v -0.0634 0.2660 0.0828
v -0.0952 0.2110 0.1071
v -0.0157 0.2110 0.2106
v 0.0160 0.2660 0.1863
f 204/7 203/7 202/7 201/7
v -0.0952 0.2110 0.1071
v -0.1464 0.1900 0.1464
v -0.0670 0.1900 0.2500
v -0.0157 0.2110 0.2106
f 208/7 207/7 206/7 205/7
v -0.1464 0.1900 0.1464
v -0.1977 0.2110 0.1858
v -0.1183 0.2110 0.2894
v -0.0670 0.1900 0.2500
f 212/7 211/7 210/7 209/7
v -0.1977 0.2110 0.1858
v -0.2294 0.2660 0.2101
v -0.1500 0.2660 0.3137
v -0.1183 0.2110 0.2894
f 216/7 215/7 214/7 213/7
v -0.2294 0.2660 0.2101
v -0.2294 0.3340 0.2101
v -0.1500 0.3340 0.3137
v -0.1500 0.2660 0.3137
f 220/7 219/7 218/7 217/7
v -0.2294 0.2660 0.2101
v -0.1977 0.2110 0.1858
v -0.1464 0.1900 0.1464
v -0.0952 0.2110 0.1071
v -0.0634 0.2660 0.0828
v -0.0634 0.3340 0.0828
v -0.0952 0.3890 0.1071
v -0.1464 0.4100 0.1464
v -0.1977 0.3890 0.1858
v -0.2294 0.3340 0.2101
f 230/7 229/7 228/7 227/7 226/7 225/7 224/7 223/7 222/7 221/7
v -0.1500 0.3340 0.3137
v -0.1183 0.3890 0.2894
v -0.0670 0.4100 0.2500
v -0.0157 0.3890 0.2106
v 0.0160 0.3340 0.1863
v 0.0160 0.2660 0.1863
v -0.0157 0.2110 0.2106
v -0.0670 0.1900 0.2500
v -0.1183 0.2110 0.2894
v -0.1500 0.2660 0.3137
f 240/7 239/7 238/7 237/7 236/7 235/7 234/7 233/7 232/7 231/7
v -0.1636 0.3340 0.2900
v -0.1267 0.3890 0.2747
v -0.0768 0.3890 0.3953
v -0.1137 0.3340 0.4106
f 244/7 243/7 242/7 241/7
v -0.1267 0.3890 0.2747
v -0.0670 0.4100 0.2500
v -0.0170 0.4100 0.3706
v -0.0768 0.3890 0.3953
f 248/7 247/7 246/7 245/7
v -0.0670 0.4100 0.2500
v -0.0073 0.3890 0.2253
v 0.0427 0.3890 0.3458
v -0.0170 0.4100 0.3706
f 252/7 251/7 250/7 249/7
v -0.0073 0.3890 0.2253
v 0.0297 0.3340 0.2100
v 0.0796 0.3340 0.3306
v 0.0427 0.3890 0.3458
f 256/7 255/7 254/7 253/7
v 0.0297 0.3340 0.2100
v 0.0297 0.2660 0.2100
v 0.0796 0.2660 0.3306
v 0.0796 0.3340 0.3306
f 260/7 259/7 258/7 257/7
v 0.0297 0.2660 0.2100
v -0.0073 0.2110 0.2253
v 0.0427 0.2110 0.3458
v 0.0796 0.2660 0.3306
f 264/7 263/7 262/7 261/7
v -0.0073 0.2110 0.2253
v -0.0670 0.1900 0.2500
v -0.0170 0.1900 0.3706
v 0.0427 0.2110 0.3458
f 268/7 267/7 266/7 265/7
v -0.0670 0.1900 0.2500
v -0.1267 0.2110 0.2747
v -0.0768 0.2110 0.3953
v -0.0170 0.1900 0.3706
f 272/7 271/7 270/7 269/7
v -0.1267 0.2110 0.2747
v -0.1636 0.2660 0.2900
v -0.1137 0.2660 0.4106
v -0.0768 0.2110 0.3953
f 276/7 275/7 274/7 273/7
v -0.1636 0.2660 0.2900
v -0.1636 0.3340 0.2900
v -0.1137 0.3340 0.4106
v -0.1137 0.2660 0.4106
f 280/7 279/7 278/7 277/7
v -0.1636 0.2660 0.2900
v -0.1267 0.2110 0.2747
v -0.0670 0.1900 0.2500
v -0.0073 0.2110 0.2253
v 0.0297 0.2660 0.2100
v 0.0297 0.3340 0.2100
v -0.0073 0.3890 0.2253
v -0.0670 0.4100 0.2500
v -0.1267 0.3890 0.2747
v -0.1636 0.3340 0.2900
f 290/7 289/7 288/7 287/7 286/7 285/7 284/7 283/7 282/7 281/7
v -0.1137 0.3340 0.4106
v -0.0768 0.3890 0.3953
v -0.0170 0.4100 0.3706
v 0.0427 0.3890 0.3458
v 0.0796 0.3340 0.3306
v 0.0796 0.2660 0.3306
v 0.0427 0.2110 0.3458
v -0.0170 0.1900 0.3706
v -0.0768 0.2110 0.3953
v -0.1137 0.2660 0.4106
f 300/7 299/7 298/7 297/7 296/7 295/7 294/7 293/7 292/7 291/7
v -0.1208 0.3340 0.3842
v -0.0811 0.3890 0.3790
v -0.0641 0.3890 0.5084
v -0.1037 0.3340 0.5137
f 304/7 303/7 302/7 301/7
v -0.0811 0.3890 0.3790
v -0.0170 0.4100 0.3706
v -0.0000 0.4100 0.5000
v -0.0641 0.3890 0.5084
f 308/7 307/7 306/7 305/7
v -0.0170 0.4100 0.3706
v 0.0471 0.3890 0.3622
v 0.0641 0.3890 0.4916
v -0.0000 0.4100 0.5000
f 312/7 311/7 310/7 309/7
v 0.0471 0.3890 0.3622
v 0.0867 0.3340 0.3569
v 0.1037 0.3340 0.4863
v 0.0641 0.3890 0.4916
f 316/7 315/7 314/7 313/7
v 0.0867 0.3340 0.3569
v 0.0867 0.2660 0.3569
v 0.1037 0.2660 0.4863
v 0.1037 0.3340 0.4863
f 320/7 319/7 318/7 317/7
v 0.0867 0.2660 0.3569
v 0.0471 0.2110 0.3622
v 0.0641 0.2110 0.4916
v 0.1037 0.2660 0.4863
f 324/7 323/7 322/7 321/7
v 0.0471 0.2110 0.3622
v -0.0170 0.1900 0.3706
v 0.0000 0.1900 0.5000
v 0.0641 0.2110 0.4916
f 328/7 327/7 326/7 325/7
v -0.0170 0.1900 0.3706
v -0.0811 0.2110 0.3790
v -0.0641 0.2110 0.5084
v 0.0000 0.1900 0.5000
f 332/7 331/7 330/7 329/7
v -0.0811 0.2110 0.3790
v -0.1208 0.2660 0.3842
v -0.1037 0.2660 0.5137
v -0.0641 0.2110 0.5084
f 336/7 335/7 334/7 333/7
v -0.1208 0.2660 0.3842
v -0.1208 0.3340 0.3842
v -0.1037 0.3340 0.5137
v -0.1037 0.2660 0.5137
f 340/7 339/7 338/7 337/7
v -0.1208 0.2660 0.3842
v -0.0811 0.2110 0.3790
v -0.0170 0.1900 0.3706
v 0.0471 0.2110 0.3622
v 0.0867 0.2660 0.3569
v 0.0867 0.3340 0.3569
v 0.0471 0.3890 0.3622
v -0.0170 0.4100 0.3706
v -0.0811 0.3890 0.3790
v -0.1208 0.3340 0.3842
f 350/7 349/7 348/7 347/7 346/7 345/7 344/7 343/7 342/7 341/7
v -0.1037 0.3340 0.5137
v -0.0641 0.3890 0.5084
v -0.0000 0.4100 0.5000
v 0.0641 0.3890 0.4916
v 0.1037 0.3340 0.4863
v 0.1037 0.2660 0.4863
v 0.0641 0.2110 0.4916
v 0.0000 0.1900 0.5000
v -0.0641 0.2110 0.5084
v -0.1037 0.2660 0.5137
f 360/7 359/7 358/7 357/7 356/7 355/7 354/7 353/7 352/7 351/7
v -0.4380 0.3448 -0.1379
v -0.4380 0.4173 -0.0852
v -0.4820 0.4173 -0.0852
v -0.4820 0.3448 -0.1379
f 364/4 363/4 362/4 361/4
v -0.4380 0.4173 -0.0852
v -0.4380 0.4450 -0.0000
v -0.4820 0.4450 -0.0000
v -0.4820 0.4173 -0.0852
f 368/4 367/4 366/4 365/4
v -0.4380 0.4450 -0.0000
v -0.4380 0.4173 0.0852
v -0.4820 0.4173 0.0852
v -0.4820 0.4450 -0.0000
f 372/4 371/4 370/4 369/4
v -0.4380 0.4173 0.0852
v -0.4380 0.3448 0.1379
v -0.4820 0.3448 0.1379
v -0.4820 0.4173 0.0852
f 376/4 375/4 374/4 373/4
v -0.4380 0.3448 0.1379
v -0.4380 0.2552 0.1379
v -0.4820 0.2552 0.1379
v -0.4820 0.3448 0.1379
f 380/4 379/4 378/4 377/4
v -0.4380 0.2552 0.1379
v -0.4380 0.1827 0.0852
v -0.4820 0.1827 0.0852
v -0.4820 0.2552 0.1379
f 384/4 383/4 382/4 381/4
v -0.4380 0.1827 0.0852
v -0.4380 0.1550 0.0000
v -0.4820 0.1550 0.0000
v -0.4820 0.1827 0.0852
f 388/4 387/4 386/4 385/4
v -0.4380 0.1550 0.0000
v -0.4380 0.1827 -0.0852
v -0.4820 0.1827 -0.0852
v -0.4820 0.1550 0.0000
f 392/4 391/4 390/4 389/4
v -0.4380 0.1827 -0.0852
v -0.4380 0.2552 -0.1379
v -0.4820 0.2552 -0.1379
v -0.4820 0.1827 -0.0852
f 396/4 395/4 394/4 393/4
v -0.4380 0.2552 -0.1379
v -0.4380 0.3448 -0.1379
v -0.4820 0.3448 -0.1379
v -0.4820 0.2552 -0.1379
f 400/4 399/4 398/4 397/4
v -0.4380 0.2552 -0.1379
v -0.4380 0.1827 -0.0852
v -0.4380 0.1550 0.0000
v -0.4380 0.1827 0.0852
v -0.4380 0.2552 0.1379
v -0.4380 0.3448 0.1379
v -0.4380 0.4173 0.0852
v -0.4380 0.4450 -0.0000
v -0.4380 0.4173 -0.0852
v -0.4380 0.3448 -0.1379
f 410/4 409/4 408/4 407/4 406/4 405/4 404/4 403/4 402/4 401/4
v -0.4820 0.3448 -0.1379
v -0.4820 0.4173 -0.0852
v -0.4820 0.4450 -0.0000
v -0.4820 0.4173 0.0852
v -0.4820 0.3448 0.1379
v -0.4820 0.2552 0.1379
v -0.4820 0.1827 0.0852
v -0.4820 0.1550 0.0000
v -0.4820 0.1827 -0.0852
v -0.4820 0.2552 -0.1379
f 420/4 419/4 418/4 417/4 416/4 415/4 414/4 413/4 412/4 411/4
v -0.1379 0.3448 0.4380
v -0.0852 0.4173 0.4380
v -0.0852 0.4173 0.4820
v -0.1379 0.3448 0.4820
f 424/4 423/4 422/4 421/4
v -0.0852 0.4173 0.4380
v -0.0000 0.4450 0.4380
v -0.0000 0.4450 0.4820
v -0.0852 0.4173 0.4820
f 428/4 427/4 426/4 425/4
v -0.0000 0.4450 0.4380
v 0.0852 0.4173 0.4380
v 0.0852 0.4173 0.4820
v -0.0000 0.4450 0.4820
f 432/4 431/4 430/4 429/4
v 0.0852 0.4173 0.4380
v 0.1379 0.3448 0.4380
v 0.1379 0.3448 0.4820
v 0.0852 0.4173 0.4820
f 436/4 435/4 434/4 433/4
v 0.1379 0.3448 0.4380
v 0.1379 0.2552 0.4380
v 0.1379 0.2552 0.4820
v 0.1379 0.3448 0.4820
f 440/4 439/4 438/4 437/4
v 0.1379 0.2552 0.4380
v 0.0852 0.1827 0.4380
v 0.0852 0.1827 0.4820
v 0.1379 0.2552 0.4820
f 444/4 443/4 442/4 441/4
v 0.0852 0.1827 0.4380
v 0.0000 0.1550 0.4380
v 0.0000 0.1550 0.4820
v 0.0852 0.1827 0.4820
f 448/4 447/4 446/4 445/4
v 0.0000 0.1550 0.4380
v -0.0852 0.1827 0.4380
v -0.0852 0.1827 0.4820
v 0.0000 0.1550 0.4820
f 452/4 451/4 450/4 449/4
v -0.0852 0.1827 0.4380
v -0.1379 0.2552 0.4380
v -0.1379 0.2552 0.4820
v -0.0852 0.1827 0.4820
f 456/4 455/4 454/4 453/4
v -0.1379 0.2552 0.4380
v -0.1379 0.3448 0.4380
v -0.1379 0.3448 0.4820
v -0.1379 0.2552 0.4820
f 460/4 459/4 458/4 457/4
v -0.1379 0.2552 0.4380
v -0.0852 0.1827 0.4380
v 0.0000 0.1550 0.4380
v 0.0852 0.1827 0.4380
v 0.1379 0.2552 0.4380
v 0.1379 0.3448 0.4380
v 0.0852 0.4173 0.4380
v -0.0000 0.4450 0.4380
v -0.0852 0.4173 0.4380
v -0.1379 0.3448 0.4380
f 470/4 469/4 468/4 467/4 466/4 465/4 464/4 463/4 462/4 461/4
v -0.1379 0.3448 0.4820
v -0.0852 0.4173 0.4820
v -0.0000 0.4450 0.4820
v 0.0852 0.4173 0.4820
v 0.1379 0.3448 0.4820
v 0.1379 0.2552 0.4820
v 0.0852 0.1827 0.4820
v 0.0000 0.1550 0.4820
v -0.0852 0.1827 0.4820
v -0.1379 0.2552 0.4820
f 480/4 479/4 478/4 477/4 476/4 475/4 474/4 473/4 472/4 471/4
v -0.0400 0.0000 0.1700
v -0.0400 0.1900 0.1700
v -0.0400 0.1900 0.0700
v -0.0400 0.0000 0.0700
f 484/6 483/6 482/6 481/6
v -0.2000 0.0000 0.0700
v -0.2000 0.1900 0.0700
v -0.2000 0.1900 0.1700
v -0.2000 0.0000 0.1700
f 488/6 487/6 486/6 485/6
v -0.0400 0.0000 0.0700
v -0.2000 0.0000 0.0700
v -0.2000 0.0000 0.1700
v -0.0400 0.0000 0.1700
f 492/6 491/6 490/6 489/6
v -0.0400 0.1900 0.1700
v -0.2000 0.1900 0.1700
v -0.2000 0.1900 0.0700
v -0.0400 0.1900 0.0700
f 496/6 495/6 494/6 493/6
v -0.0400 0.1900 0.0700
v -0.2000 0.1900 0.0700
v -0.2000 0.0000 0.0700
v -0.0400 0.0000 0.0700
f 500/6 499/6 498/6 497/6
v -0.0400 0.0000 0.1700
v -0.2000 0.0000 0.1700
v -0.2000 0.1900 0.1700
v -0.0400 0.1900 0.1700
f 504/6 503/6 502/6 501/6
v -0.1268 0.4160 0.0616
v -0.1268 0.4280 0.0616
v -0.1268 0.4280 0.1860
v -0.1268 0.4160 0.1860
f 508/8 507/8 506/8 505/8
v -0.0868 0.4160 0.1860
v -0.0868 0.4280 0.1860
v -0.0868 0.4280 0.0616
v -0.0868 0.4160 0.0616
f 512/8 511/8 510/8 509/8
v -0.1268 0.4160 0.1860
v -0.0868 0.4160 0.1860
v -0.0868 0.4160 0.0616
v -0.1268 0.4160 0.0616
f 516/8 515/8 514/8 513/8
v -0.1268 0.4280 0.0616
v -0.0868 0.4280 0.0616
v -0.0868 0.4280 0.1860
v -0.1268 0.4280 0.1860
f 520/8 519/8 518/8 517/8
v -0.1268 0.4280 0.1860
v -0.0868 0.4280 0.1860
v -0.0868 0.4160 0.1860
v -0.1268 0.4160 0.1860
f 524/8 523/8 522/8 521/8
v -0.1268 0.4160 0.0616
v -0.0868 0.4160 0.0616
v -0.0868 0.4280 0.0616
v -0.1268 0.4280 0.0616
f 528/8 527/8 526/8 525/8
v -0.2313 0.4160 0.2060
v -0.2313 0.4280 0.2060
v -0.1068 0.4280 0.2060
v -0.1068 0.4160 0.2060
f 532/8 531/8 530/8 529/8
v -0.1068 0.4160 0.1660
v -0.1068 0.4280 0.1660
v -0.2313 0.4280 0.1660
v -0.2313 0.4160 0.1660
f 536/8 535/8 534/8 533/8
v -0.1068 0.4160 0.2060
v -0.1068 0.4160 0.1660
v -0.2313 0.4160 0.1660
v -0.2313 0.4160 0.2060
f 540/8 539/8 538/8 537/8
v -0.2313 0.4280 0.2060
v -0.2313 0.4280 0.1660
v -0.1068 0.4280 0.1660
v -0.1068 0.4280 0.2060
f 544/8 543/8 542/8 541/8
v -0.1068 0.4280 0.2060
v -0.1068 0.4280 0.1660
v -0.1068 0.4160 0.1660
v -0.1068 0.4160 0.2060
f 548/8 547/8 546/8 545/8
v -0.2313 0.4160 0.2060
v -0.2313 0.4160 0.1660
v -0.2313 0.4280 0.1660
v -0.2313 0.4280 0.2060
f 552/8 551/8 550/8 549/8
