# Walk of Industry low-poly (generated, wi_lib.py)
mtllib wi.mtl
vt 0 0
vt 0.03125 0.03125
vt 0.09375 0.03125
vt 0.15625 0.03125
vt 0.21875 0.03125
vt 0.28125 0.03125
vt 0.34375 0.03125
vt 0.40625 0.03125
vt 0.46875 0.03125
vt 0.53125 0.03125
vt 0.59375 0.03125
vt 0.65625 0.03125
vt 0.71875 0.03125
vt 0.78125 0.03125
vt 0.84375 0.03125
vt 0.90625 0.03125
vt 0.96875 0.03125
vt 0.03125 0.09375
vt 0.09375 0.09375
vt 0.15625 0.09375
vt 0.21875 0.09375
vt 0.28125 0.09375
vt 0.34375 0.09375
vt 0.40625 0.09375
vt 0.46875 0.09375
vt 0.53125 0.09375
vt 0.59375 0.09375
vt 0.65625 0.09375
vt 0.71875 0.09375
vt 0.78125 0.09375
vt 0.84375 0.09375
vt 0.90625 0.09375
vt 0.96875 0.09375
o Port
usemtl wi_palette
v 0.1700 0.1200 0.0000
v 0.1700 0.4000 0.0000
v 0.1700 0.4000 -0.1000
v 0.1700 0.1200 -0.1000
f 4/6 3/6 2/6 1/6
v -0.1700 0.1200 -0.1000
v -0.1700 0.4000 -0.1000
v -0.1700 0.4000 0.0000
v -0.1700 0.1200 0.0000
f 8/6 7/6 6/6 5/6
v 0.1700 0.1200 -0.1000
v -0.1700 0.1200 -0.1000
v -0.1700 0.1200 0.0000
v 0.1700 0.1200 0.0000
f 12/6 11/6 10/6 9/6
v 0.1700 0.4000 0.0000
v -0.1700 0.4000 0.0000
v -0.1700 0.4000 -0.1000
v 0.1700 0.4000 -0.1000
f 16/6 15/6 14/6 13/6
v 0.1700 0.4000 -0.1000
v -0.1700 0.4000 -0.1000
v -0.1700 0.1200 -0.1000
v 0.1700 0.1200 -0.1000
f 20/6 19/6 18/6 17/6
v 0.1700 0.1200 0.0000
v -0.1700 0.1200 0.0000
v -0.1700 0.4000 0.0000
v 0.1700 0.4000 0.0000
f 24/6 23/6 22/6 21/6
v 0.2100 0.3950 0.0100
v 0.2100 0.4450 0.0100
v 0.2100 0.4450 -0.0700
v 0.2100 0.3950 -0.0700
f 28/4 27/4 26/4 25/4
v -0.2100 0.3950 -0.0700
v -0.2100 0.4450 -0.0700
v -0.2100 0.4450 0.0100
v -0.2100 0.3950 0.0100
f 32/4 31/4 30/4 29/4
v 0.2100 0.3950 -0.0700
v -0.2100 0.3950 -0.0700
v -0.2100 0.3950 0.0100
v 0.2100 0.3950 0.0100
f 36/4 35/4 34/4 33/4
v 0.2100 0.4450 0.0100
v -0.2100 0.4450 0.0100
v -0.2100 0.4450 -0.0700
v 0.2100 0.4450 -0.0700
f 40/4 39/4 38/4 37/4
v 0.2100 0.4450 -0.0700
v -0.2100 0.4450 -0.0700
v -0.2100 0.3950 -0.0700
v 0.2100 0.3950 -0.0700
f 44/4 43/4 42/4 41/4
v 0.2100 0.3950 0.0100
v -0.2100 0.3950 0.0100
v -0.2100 0.4450 0.0100
v 0.2100 0.4450 0.0100
f 48/4 47/4 46/4 45/4
v 0.2150 0.1000 0.0100
v 0.2150 0.4200 0.0100
v 0.2150 0.4200 -0.0700
v 0.2150 0.1000 -0.0700
f 52/4 51/4 50/4 49/4
v 0.1650 0.1000 -0.0700
v 0.1650 0.4200 -0.0700
v 0.1650 0.4200 0.0100
v 0.1650 0.1000 0.0100
f 56/4 55/4 54/4 53/4
v 0.2150 0.1000 -0.0700
v 0.1650 0.1000 -0.0700
v 0.1650 0.1000 0.0100
v 0.2150 0.1000 0.0100
f 60/4 59/4 58/4 57/4
v 0.2150 0.4200 0.0100
v 0.1650 0.4200 0.0100
v 0.1650 0.4200 -0.0700
v 0.2150 0.4200 -0.0700
f 64/4 63/4 62/4 61/4
v 0.2150 0.4200 -0.0700
v 0.1650 0.4200 -0.0700
v 0.1650 0.1000 -0.0700
v 0.2150 0.1000 -0.0700
f 68/4 67/4 66/4 65/4
v 0.2150 0.1000 0.0100
v 0.1650 0.1000 0.0100
v 0.1650 0.4200 0.0100
v 0.2150 0.4200 0.0100
f 72/4 71/4 70/4 69/4
v -0.1650 0.1000 0.0100
v -0.1650 0.4200 0.0100
v -0.1650 0.4200 -0.0700
v -0.1650 0.1000 -0.0700
f 76/4 75/4 74/4 73/4
v -0.2150 0.1000 -0.0700
v -0.2150 0.4200 -0.0700
v -0.2150 0.4200 0.0100
v -0.2150 0.1000 0.0100
f 80/4 79/4 78/4 77/4
v -0.1650 0.1000 -0.0700
v -0.2150 0.1000 -0.0700
v -0.2150 0.1000 0.0100
v -0.1650 0.1000 0.0100
f 84/4 83/4 82/4 81/4
v -0.1650 0.4200 0.0100
v -0.2150 0.4200 0.0100
v -0.2150 0.4200 -0.0700
v -0.1650 0.4200 -0.0700
f 88/4 87/4 86/4 85/4
v -0.1650 0.4200 -0.0700
v -0.2150 0.4200 -0.0700
v -0.2150 0.1000 -0.0700
v -0.1650 0.1000 -0.0700
f 92/4 91/4 90/4 89/4
v -0.1650 0.1000 0.0100
v -0.2150 0.1000 0.0100
v -0.2150 0.4200 0.0100
v -0.1650 0.4200 0.0100
f 96/4 95/4 94/4 93/4
v 0.2100 0.0800 0.0100
v 0.2100 0.1200 0.0100
v 0.2100 0.1200 -0.0700
v 0.2100 0.0800 -0.0700
f 100/4 99/4 98/4 97/4
v -0.2100 0.0800 -0.0700
v -0.2100 0.1200 -0.0700
v -0.2100 0.1200 0.0100
v -0.2100 0.0800 0.0100
f 104/4 103/4 102/4 101/4
v 0.2100 0.0800 -0.0700
v -0.2100 0.0800 -0.0700
v -0.2100 0.0800 0.0100
v 0.2100 0.0800 0.0100
f 108/4 107/4 106/4 105/4
v 0.2100 0.1200 0.0100
v -0.2100 0.1200 0.0100
v -0.2100 0.1200 -0.0700
v 0.2100 0.1200 -0.0700
f 112/4 111/4 110/4 109/4
v 0.2100 0.1200 -0.0700
v -0.2100 0.1200 -0.0700
v -0.2100 0.0800 -0.0700
v 0.2100 0.0800 -0.0700
f 116/4 115/4 114/4 113/4
v 0.2100 0.0800 0.0100
v -0.2100 0.0800 0.0100
v -0.2100 0.1200 0.0100
v 0.2100 0.1200 0.0100
f 120/4 119/4 118/4 117/4
v -0.0739 0.4590 0.0161
v -0.0739 0.4710 0.0161
v 0.0141 0.4710 -0.0719
v 0.0141 0.4590 -0.0719
f 124/8 123/8 122/8 121/8
v -0.0141 0.4590 -0.1001
v -0.0141 0.4710 -0.1001
v -0.1021 0.4710 -0.0121
v -0.1021 0.4590 -0.0121
f 128/8 127/8 126/8 125/8
v 0.0141 0.4590 -0.0719
v -0.0141 0.4590 -0.1001
v -0.1021 0.4590 -0.0121
v -0.0739 0.4590 0.0161
f 132/8 131/8 130/8 129/8
v -0.0739 0.4710 0.0161
v -0.1021 0.4710 -0.0121
v -0.0141 0.4710 -0.1001
v 0.0141 0.4710 -0.0719
f 136/8 135/8 134/8 133/8
v 0.0141 0.4710 -0.0719
v -0.0141 0.4710 -0.1001
v -0.0141 0.4590 -0.1001
v 0.0141 0.4590 -0.0719
f 140/8 139/8 138/8 137/8
v -0.0739 0.4590 0.0161
v -0.1021 0.4590 -0.0121
v -0.1021 0.4710 -0.0121
v -0.0739 0.4710 0.0161
f 144/8 143/8 142/8 141/8
v 0.1021 0.4590 -0.0121
v 0.1021 0.4710 -0.0121
v 0.0141 0.4710 -0.1001
v 0.0141 0.4590 -0.1001
f 148/8 147/8 146/8 145/8
v -0.0141 0.4590 -0.0719
v -0.0141 0.4710 -0.0719
v 0.0739 0.4710 0.0161
v 0.0739 0.4590 0.0161
f 152/8 151/8 150/8 149/8
v 0.0141 0.4590 -0.1001
v -0.0141 0.4590 -0.0719
v 0.0739 0.4590 0.0161
v 0.1021 0.4590 -0.0121
f 156/8 155/8 154/8 153/8
v 0.1021 0.4710 -0.0121
v 0.0739 0.4710 0.0161
v -0.0141 0.4710 -0.0719
v 0.0141 0.4710 -0.1001
f 160/8 159/8 158/8 157/8
v 0.0141 0.4710 -0.1001
v -0.0141 0.4710 -0.0719
v -0.0141 0.4590 -0.0719
v 0.0141 0.4590 -0.1001
f 164/8 163/8 162/8 161/8
v 0.1021 0.4590 -0.0121
v 0.0739 0.4590 0.0161
v 0.0739 0.4710 0.0161
v 0.1021 0.4710 -0.0121
f 168/8 167/8 166/8 165/8
