# Walk of Industry low-poly (generated, wi_lib.py)
mtllib wi.mtl
vt 0 0
vt 0.03125 0.03125
vt 0.09375 0.03125
vt 0.15625 0.03125
vt 0.21875 0.03125
vt 0.28125 0.03125
vt 0.34375 0.03125
vt 0.40625 0.03125
vt 0.46875 0.03125
vt 0.53125 0.03125
vt 0.59375 0.03125
vt 0.65625 0.03125
vt 0.71875 0.03125
vt 0.78125 0.03125
vt 0.84375 0.03125
vt 0.90625 0.03125
vt 0.96875 0.03125
vt 0.03125 0.09375
vt 0.09375 0.09375
vt 0.15625 0.09375
vt 0.21875 0.09375
vt 0.28125 0.09375
vt 0.34375 0.09375
vt 0.40625 0.09375
vt 0.46875 0.09375
vt 0.53125 0.09375
vt 0.59375 0.09375
vt 0.65625 0.09375
vt 0.71875 0.09375
vt 0.78125 0.09375
vt 0.84375 0.09375
vt 0.90625 0.09375
vt 0.96875 0.09375
o Port
usemtl wi_palette
v 0.1700 0.1200 0.0000
v 0.1700 0.4000 0.0000
v 0.1700 0.4000 -0.1000
v 0.1700 0.1200 -0.1000
f 4/6 3/6 2/6 1/6
v -0.1700 0.1200 -0.1000
v -0.1700 0.4000 -0.1000
v -0.1700 0.4000 0.0000
v -0.1700 0.1200 0.0000
f 8/6 7/6 6/6 5/6
v 0.1700 0.1200 -0.1000
v -0.1700 0.1200 -0.1000
v -0.1700 0.1200 0.0000
v 0.1700 0.1200 0.0000
f 12/6 11/6 10/6 9/6
v 0.1700 0.4000 0.0000
v -0.1700 0.4000 0.0000
v -0.1700 0.4000 -0.1000
v 0.1700 0.4000 -0.1000
f 16/6 15/6 14/6 13/6
v 0.1700 0.4000 -0.1000
v -0.1700 0.4000 -0.1000
v -0.1700 0.1200 -0.1000
v 0.1700 0.1200 -0.1000
f 20/6 19/6 18/6 17/6
v 0.1700 0.1200 0.0000
v -0.1700 0.1200 0.0000
v -0.1700 0.4000 0.0000
v 0.1700 0.4000 0.0000
f 24/6 23/6 22/6 21/6
v 0.2100 0.3950 0.0100
v 0.2100 0.4450 0.0100
v 0.2100 0.4450 -0.0700
v 0.2100 0.3950 -0.0700
f 28/7 27/7 26/7 25/7
v -0.2100 0.3950 -0.0700
v -0.2100 0.4450 -0.0700
v -0.2100 0.4450 0.0100
v -0.2100 0.3950 0.0100
f 32/7 31/7 30/7 29/7
v 0.2100 0.3950 -0.0700
v -0.2100 0.3950 -0.0700
v -0.2100 0.3950 0.0100
v 0.2100 0.3950 0.0100
f 36/7 35/7 34/7 33/7
v 0.2100 0.4450 0.0100
v -0.2100 0.4450 0.0100
v -0.2100 0.4450 -0.0700
v 0.2100 0.4450 -0.0700
f 40/7 39/7 38/7 37/7
v 0.2100 0.4450 -0.0700
v -0.2100 0.4450 -0.0700
v -0.2100 0.3950 -0.0700
v 0.2100 0.3950 -0.0700
f 44/7 43/7 42/7 41/7
v 0.2100 0.3950 0.0100
v -0.2100 0.3950 0.0100
v -0.2100 0.4450 0.0100
v 0.2100 0.4450 0.0100
f 48/7 47/7 46/7 45/7
v 0.2150 0.1000 0.0100
v 0.2150 0.4200 0.0100
v 0.2150 0.4200 -0.0700
v 0.2150 0.1000 -0.0700
f 52/7 51/7 50/7 49/7
v 0.1650 0.1000 -0.0700
v 0.1650 0.4200 -0.0700
v 0.1650 0.4200 0.0100
v 0.1650 0.1000 0.0100
f 56/7 55/7 54/7 53/7
v 0.2150 0.1000 -0.0700
v 0.1650 0.1000 -0.0700
v 0.1650 0.1000 0.0100
v 0.2150 0.1000 0.0100
f 60/7 59/7 58/7 57/7
v 0.2150 0.4200 0.0100
v 0.1650 0.4200 0.0100
v 0.1650 0.4200 -0.0700
v 0.2150 0.4200 -0.0700
f 64/7 63/7 62/7 61/7
v 0.2150 0.4200 -0.0700
v 0.1650 0.4200 -0.0700
v 0.1650 0.1000 -0.0700
v 0.2150 0.1000 -0.0700
f 68/7 67/7 66/7 65/7
v 0.2150 0.1000 0.0100
v 0.1650 0.1000 0.0100
v 0.1650 0.4200 0.0100
v 0.2150 0.4200 0.0100
f 72/7 71/7 70/7 69/7
v -0.1650 0.1000 0.0100
v -0.1650 0.4200 0.0100
v -0.1650 0.4200 -0.0700
v -0.1650 0.1000 -0.0700
f 76/7 75/7 74/7 73/7
v -0.2150 0.1000 -0.0700
v -0.2150 0.4200 -0.0700
v -0.2150 0.4200 0.0100
v -0.2150 0.1000 0.0100
f 80/7 79/7 78/7 77/7
v -0.1650 0.1000 -0.0700
v -0.2150 0.1000 -0.0700
v -0.2150 0.1000 0.0100
v -0.1650 0.1000 0.0100
f 84/7 83/7 82/7 81/7
v -0.1650 0.4200 0.0100
v -0.2150 0.4200 0.0100
v -0.2150 0.4200 -0.0700
v -0.1650 0.4200 -0.0700
f 88/7 87/7 86/7 85/7
v -0.1650 0.4200 -0.0700
v -0.2150 0.4200 -0.0700
v -0.2150 0.1000 -0.0700
v -0.1650 0.1000 -0.0700
f 92/7 91/7 90/7 89/7
v -0.1650 0.1000 0.0100
v -0.2150 0.1000 0.0100
v -0.2150 0.4200 0.0100
v -0.1650 0.4200 0.0100
f 96/7 95/7 94/7 93/7
v 0.1700 0.1050 0.0400
v 0.1700 0.1350 0.0400
v 0.1700 0.1350 -0.0800
v 0.1700 0.1050 -0.0800
f 100/7 99/7 98/7 97/7
v -0.1700 0.1050 -0.0800
v -0.1700 0.1350 -0.0800
v -0.1700 0.1350 0.0400
v -0.1700 0.1050 0.0400
f 104/7 103/7 102/7 101/7
v 0.1700 0.1050 -0.0800
v -0.1700 0.1050 -0.0800
v -0.1700 0.1050 0.0400
v 0.1700 0.1050 0.0400
f 108/7 107/7 106/7 105/7
v 0.1700 0.1350 0.0400
v -0.1700 0.1350 0.0400
v -0.1700 0.1350 -0.0800
v 0.1700 0.1350 -0.0800
f 112/7 111/7 110/7 109/7
v 0.1700 0.1350 -0.0800
v -0.1700 0.1350 -0.0800
v -0.1700 0.1050 -0.0800
v 0.1700 0.1050 -0.0800
f 116/7 115/7 114/7 113/7
v 0.1700 0.1050 0.0400
v -0.1700 0.1050 0.0400
v -0.1700 0.1350 0.0400
v 0.1700 0.1350 0.0400
f 120/7 119/7 118/7 117/7
v 0.0739 0.4590 -0.0761
v 0.0739 0.4710 -0.0761
v -0.0141 0.4710 0.0119
v -0.0141 0.4590 0.0119
f 124/17 123/17 122/17 121/17
v 0.0141 0.4590 0.0401
v 0.0141 0.4710 0.0401
v 0.1021 0.4710 -0.0479
v 0.1021 0.4590 -0.0479
f 128/17 127/17 126/17 125/17
v -0.0141 0.4590 0.0119
v 0.0141 0.4590 0.0401
v 0.1021 0.4590 -0.0479
v 0.0739 0.4590 -0.0761
f 132/17 131/17 130/17 129/17
v 0.0739 0.4710 -0.0761
v 0.1021 0.4710 -0.0479
v 0.0141 0.4710 0.0401
v -0.0141 0.4710 0.0119
f 136/17 135/17 134/17 133/17
v -0.0141 0.4710 0.0119
v 0.0141 0.4710 0.0401
v 0.0141 0.4590 0.0401
v -0.0141 0.4590 0.0119
f 140/17 139/17 138/17 137/17
v 0.0739 0.4590 -0.0761
v 0.1021 0.4590 -0.0479
v 0.1021 0.4710 -0.0479
v 0.0739 0.4710 -0.0761
f 144/17 143/17 142/17 141/17
v -0.1021 0.4590 -0.0479
v -0.1021 0.4710 -0.0479
v -0.0141 0.4710 0.0401
v -0.0141 0.4590 0.0401
f 148/17 147/17 146/17 145/17
v 0.0141 0.4590 0.0119
v 0.0141 0.4710 0.0119
v -0.0739 0.4710 -0.0761
v -0.0739 0.4590 -0.0761
f 152/17 151/17 150/17 149/17
v -0.0141 0.4590 0.0401
v 0.0141 0.4590 0.0119
v -0.0739 0.4590 -0.0761
v -0.1021 0.4590 -0.0479
f 156/17 155/17 154/17 153/17
v -0.1021 0.4710 -0.0479
v -0.0739 0.4710 -0.0761
v 0.0141 0.4710 0.0119
v -0.0141 0.4710 0.0401
f 160/17 159/17 158/17 157/17
v -0.0141 0.4710 0.0401
v 0.0141 0.4710 0.0119
v 0.0141 0.4590 0.0119
v -0.0141 0.4590 0.0401
f 164/17 163/17 162/17 161/17
v -0.1021 0.4590 -0.0479
v -0.0739 0.4590 -0.0761
v -0.0739 0.4710 -0.0761
v -0.1021 0.4710 -0.0479
f 168/17 167/17 166/17 165/17
