# Walk of Industry low-poly (generated, wi_lib.py)
mtllib wi.mtl
vt 0 0
vt 0.03125 0.03125
vt 0.09375 0.03125
vt 0.15625 0.03125
vt 0.21875 0.03125
vt 0.28125 0.03125
vt 0.34375 0.03125
vt 0.40625 0.03125
vt 0.46875 0.03125
vt 0.53125 0.03125
vt 0.59375 0.03125
vt 0.65625 0.03125
vt 0.71875 0.03125
vt 0.78125 0.03125
vt 0.84375 0.03125
vt 0.90625 0.03125
vt 0.96875 0.03125
vt 0.03125 0.09375
vt 0.09375 0.09375
vt 0.15625 0.09375
vt 0.21875 0.09375
vt 0.28125 0.09375
vt 0.34375 0.09375
vt 0.40625 0.09375
vt 0.46875 0.09375
vt 0.53125 0.09375
vt 0.59375 0.09375
vt 0.65625 0.09375
vt 0.71875 0.09375
vt 0.78125 0.09375
vt 0.84375 0.09375
vt 0.90625 0.09375
vt 0.96875 0.09375
o Body
usemtl wi_palette
v 0.4800 0.0000 0.4800
v 0.4800 0.0800 0.4800
v 0.4800 0.0800 -0.4800
v 0.4800 0.0000 -0.4800
f 4/5 3/5 2/5 1/5
v -0.4800 0.0000 -0.4800
v -0.4800 0.0800 -0.4800
v -0.4800 0.0800 0.4800
v -0.4800 0.0000 0.4800
f 8/5 7/5 6/5 5/5
v 0.4800 0.0000 -0.4800
v -0.4800 0.0000 -0.4800
v -0.4800 0.0000 0.4800
v 0.4800 0.0000 0.4800
f 12/5 11/5 10/5 9/5
v 0.4800 0.0800 0.4800
v -0.4800 0.0800 0.4800
v -0.4800 0.0800 -0.4800
v 0.4800 0.0800 -0.4800
f 16/5 15/5 14/5 13/5
v 0.4800 0.0800 -0.4800
v -0.4800 0.0800 -0.4800
v -0.4800 0.0000 -0.4800
v 0.4800 0.0000 -0.4800
f 20/5 19/5 18/5 17/5
v 0.4800 0.0000 0.4800
v -0.4800 0.0000 0.4800
v -0.4800 0.0800 0.4800
v 0.4800 0.0800 0.4800
f 24/5 23/5 22/5 21/5
v 0.4000 0.0800 0.1400
v 0.4000 0.5800 0.1400
v 0.4000 0.5800 -0.3800
v 0.4000 0.0800 -0.3800
f 28/2 27/2 26/2 25/2
v -0.4000 0.0800 -0.3800
v -0.4000 0.5800 -0.3800
v -0.4000 0.5800 0.1400
v -0.4000 0.0800 0.1400
f 32/2 31/2 30/2 29/2
v 0.4000 0.0800 -0.3800
v -0.4000 0.0800 -0.3800
v -0.4000 0.0800 0.1400
v 0.4000 0.0800 0.1400
f 36/2 35/2 34/2 33/2
v 0.4000 0.5800 0.1400
v -0.4000 0.5800 0.1400
v -0.4000 0.5800 -0.3800
v 0.4000 0.5800 -0.3800
f 40/2 39/2 38/2 37/2
v 0.4000 0.5800 -0.3800
v -0.4000 0.5800 -0.3800
v -0.4000 0.0800 -0.3800
v 0.4000 0.0800 -0.3800
f 44/2 43/2 42/2 41/2
v 0.4000 0.0800 0.1400
v -0.4000 0.0800 0.1400
v -0.4000 0.5800 0.1400
v 0.4000 0.5800 0.1400
f 48/2 47/2 46/2 45/2
v 0.4200 0.5750 0.1600
v 0.4200 0.6250 0.1600
v 0.4200 0.6250 -0.4000
v 0.4200 0.5750 -0.4000
f 52/4 51/4 50/4 49/4
v -0.4200 0.5750 -0.4000
v -0.4200 0.6250 -0.4000
v -0.4200 0.6250 0.1600
v -0.4200 0.5750 0.1600
f 56/4 55/4 54/4 53/4
v 0.4200 0.5750 -0.4000
v -0.4200 0.5750 -0.4000
v -0.4200 0.5750 0.1600
v 0.4200 0.5750 0.1600
f 60/4 59/4 58/4 57/4
v 0.4200 0.6250 0.1600
v -0.4200 0.6250 0.1600
v -0.4200 0.6250 -0.4000
v 0.4200 0.6250 -0.4000
f 64/4 63/4 62/4 61/4
v 0.4200 0.6250 -0.4000
v -0.4200 0.6250 -0.4000
v -0.4200 0.5750 -0.4000
v 0.4200 0.5750 -0.4000
f 68/4 67/4 66/4 65/4
v 0.4200 0.5750 0.1600
v -0.4200 0.5750 0.1600
v -0.4200 0.6250 0.1600
v 0.4200 0.6250 0.1600
f 72/4 71/4 70/4 69/4
v 0.2250 0.1900 0.1550
v 0.2250 0.5300 0.1550
v 0.2250 0.5300 0.1350
v 0.2250 0.1900 0.1350
f 76/6 75/6 74/6 73/6
v 0.1750 0.1900 0.1350
v 0.1750 0.5300 0.1350
v 0.1750 0.5300 0.1550
v 0.1750 0.1900 0.1550
f 80/6 79/6 78/6 77/6
v 0.2250 0.1900 0.1350
v 0.1750 0.1900 0.1350
v 0.1750 0.1900 0.1550
v 0.2250 0.1900 0.1550
f 84/6 83/6 82/6 81/6
v 0.2250 0.5300 0.1550
v 0.1750 0.5300 0.1550
v 0.1750 0.5300 0.1350
v 0.2250 0.5300 0.1350
f 88/6 87/6 86/6 85/6
v 0.2250 0.5300 0.1350
v 0.1750 0.5300 0.1350
v 0.1750 0.1900 0.1350
v 0.2250 0.1900 0.1350
f 92/6 91/6 90/6 89/6
v 0.2250 0.1900 0.1550
v 0.1750 0.1900 0.1550
v 0.1750 0.5300 0.1550
v 0.2250 0.5300 0.1550
f 96/6 95/6 94/6 93/6
v 0.1250 0.1900 0.1550
v 0.1250 0.5300 0.1550
v 0.1250 0.5300 0.1350
v 0.1250 0.1900 0.1350
f 100/6 99/6 98/6 97/6
v 0.0750 0.1900 0.1350
v 0.0750 0.5300 0.1350
v 0.0750 0.5300 0.1550
v 0.0750 0.1900 0.1550
f 104/6 103/6 102/6 101/6
v 0.1250 0.1900 0.1350
v 0.0750 0.1900 0.1350
v 0.0750 0.1900 0.1550
v 0.1250 0.1900 0.1550
f 108/6 107/6 106/6 105/6
v 0.1250 0.5300 0.1550
v 0.0750 0.5300 0.1550
v 0.0750 0.5300 0.1350
v 0.1250 0.5300 0.1350
f 112/6 111/6 110/6 109/6
v 0.1250 0.5300 0.1350
v 0.0750 0.5300 0.1350
v 0.0750 0.1900 0.1350
v 0.1250 0.1900 0.1350
f 116/6 115/6 114/6 113/6
v 0.1250 0.1900 0.1550
v 0.0750 0.1900 0.1550
v 0.0750 0.5300 0.1550
v 0.1250 0.5300 0.1550
f 120/6 119/6 118/6 117/6
v 0.0250 0.1900 0.1550
v 0.0250 0.5300 0.1550
v 0.0250 0.5300 0.1350
v 0.0250 0.1900 0.1350
f 124/6 123/6 122/6 121/6
v -0.0250 0.1900 0.1350
v -0.0250 0.5300 0.1350
v -0.0250 0.5300 0.1550
v -0.0250 0.1900 0.1550
f 128/6 127/6 126/6 125/6
v 0.0250 0.1900 0.1350
v -0.0250 0.1900 0.1350
v -0.0250 0.1900 0.1550
v 0.0250 0.1900 0.1550
f 132/6 131/6 130/6 129/6
v 0.0250 0.5300 0.1550
v -0.0250 0.5300 0.1550
v -0.0250 0.5300 0.1350
v 0.0250 0.5300 0.1350
f 136/6 135/6 134/6 133/6
v 0.0250 0.5300 0.1350
v -0.0250 0.5300 0.1350
v -0.0250 0.1900 0.1350
v 0.0250 0.1900 0.1350
f 140/6 139/6 138/6 137/6
v 0.0250 0.1900 0.1550
v -0.0250 0.1900 0.1550
v -0.0250 0.5300 0.1550
v 0.0250 0.5300 0.1550
f 144/6 143/6 142/6 141/6
v -0.0750 0.1900 0.1550
v -0.0750 0.5300 0.1550
v -0.0750 0.5300 0.1350
v -0.0750 0.1900 0.1350
f 148/6 147/6 146/6 145/6
v -0.1250 0.1900 0.1350
v -0.1250 0.5300 0.1350
v -0.1250 0.5300 0.1550
v -0.1250 0.1900 0.1550
f 152/6 151/6 150/6 149/6
v -0.0750 0.1900 0.1350
v -0.1250 0.1900 0.1350
v -0.1250 0.1900 0.1550
v -0.0750 0.1900 0.1550
f 156/6 155/6 154/6 153/6
v -0.0750 0.5300 0.1550
v -0.1250 0.5300 0.1550
v -0.1250 0.5300 0.1350
v -0.0750 0.5300 0.1350
f 160/6 159/6 158/6 157/6
v -0.0750 0.5300 0.1350
v -0.1250 0.5300 0.1350
v -0.1250 0.1900 0.1350
v -0.0750 0.1900 0.1350
f 164/6 163/6 162/6 161/6
v -0.0750 0.1900 0.1550
v -0.1250 0.1900 0.1550
v -0.1250 0.5300 0.1550
v -0.0750 0.5300 0.1550
f 168/6 167/6 166/6 165/6
v -0.1750 0.1900 0.1550
v -0.1750 0.5300 0.1550
v -0.1750 0.5300 0.1350
v -0.1750 0.1900 0.1350
f 172/6 171/6 170/6 169/6
v -0.2250 0.1900 0.1350
v -0.2250 0.5300 0.1350
v -0.2250 0.5300 0.1550
v -0.2250 0.1900 0.1550
f 176/6 175/6 174/6 173/6
v -0.1750 0.1900 0.1350
v -0.2250 0.1900 0.1350
v -0.2250 0.1900 0.1550
v -0.1750 0.1900 0.1550
f 180/6 179/6 178/6 177/6
v -0.1750 0.5300 0.1550
v -0.2250 0.5300 0.1550
v -0.2250 0.5300 0.1350
v -0.1750 0.5300 0.1350
f 184/6 183/6 182/6 181/6
v -0.1750 0.5300 0.1350
v -0.2250 0.5300 0.1350
v -0.2250 0.1900 0.1350
v -0.1750 0.1900 0.1350
f 188/6 187/6 186/6 185/6
v -0.1750 0.1900 0.1550
v -0.2250 0.1900 0.1550
v -0.2250 0.5300 0.1550
v -0.1750 0.5300 0.1550
f 192/6 191/6 190/6 189/6
v -0.3068 0.6300 0.1147
v -0.3447 0.6300 0.0768
v -0.3447 1.1800 0.0768
v -0.3068 1.1800 0.1147
f 196/7 195/7 194/7 193/7
v -0.3447 0.6300 0.0768
v -0.3447 0.6300 0.0232
v -0.3447 1.1800 0.0232
v -0.3447 1.1800 0.0768
f 200/7 199/7 198/7 197/7
v -0.3447 0.6300 0.0232
v -0.3068 0.6300 -0.0147
v -0.3068 1.1800 -0.0147
v -0.3447 1.1800 0.0232
f 204/7 203/7 202/7 201/7
v -0.3068 0.6300 -0.0147
v -0.2532 0.6300 -0.0147
v -0.2532 1.1800 -0.0147
v -0.3068 1.1800 -0.0147
f 208/7 207/7 206/7 205/7
v -0.2532 0.6300 -0.0147
v -0.2153 0.6300 0.0232
v -0.2153 1.1800 0.0232
v -0.2532 1.1800 -0.0147
f 212/7 211/7 210/7 209/7
v -0.2153 0.6300 0.0232
v -0.2153 0.6300 0.0768
v -0.2153 1.1800 0.0768
v -0.2153 1.1800 0.0232
f 216/7 215/7 214/7 213/7
v -0.2153 0.6300 0.0768
v -0.2532 0.6300 0.1147
v -0.2532 1.1800 0.1147
v -0.2153 1.1800 0.0768
f 220/7 219/7 218/7 217/7
v -0.2532 0.6300 0.1147
v -0.3068 0.6300 0.1147
v -0.3068 1.1800 0.1147
v -0.2532 1.1800 0.1147
f 224/7 223/7 222/7 221/7
v -0.2532 0.6300 0.1147
v -0.2153 0.6300 0.0768
v -0.2153 0.6300 0.0232
v -0.2532 0.6300 -0.0147
v -0.3068 0.6300 -0.0147
v -0.3447 0.6300 0.0232
v -0.3447 0.6300 0.0768
v -0.3068 0.6300 0.1147
f 232/7 231/7 230/7 229/7 228/7 227/7 226/7 225/7
v -0.3068 1.1800 0.1147
v -0.3447 1.1800 0.0768
v -0.3447 1.1800 0.0232
v -0.3068 1.1800 -0.0147
v -0.2532 1.1800 -0.0147
v -0.2153 1.1800 0.0232
v -0.2153 1.1800 0.0768
v -0.2532 1.1800 0.1147
f 240/7 239/7 238/7 237/7 236/7 235/7 234/7 233/7
v -0.3183 1.1800 0.1424
v -0.3724 1.1800 0.0883
v -0.3724 1.2300 0.0883
v -0.3183 1.2300 0.1424
f 244/4 243/4 242/4 241/4
v -0.3724 1.1800 0.0883
v -0.3724 1.1800 0.0117
v -0.3724 1.2300 0.0117
v -0.3724 1.2300 0.0883
f 248/4 247/4 246/4 245/4
v -0.3724 1.1800 0.0117
v -0.3183 1.1800 -0.0424
v -0.3183 1.2300 -0.0424
v -0.3724 1.2300 0.0117
f 252/4 251/4 250/4 249/4
v -0.3183 1.1800 -0.0424
v -0.2417 1.1800 -0.0424
v -0.2417 1.2300 -0.0424
v -0.3183 1.2300 -0.0424
f 256/4 255/4 254/4 253/4
v -0.2417 1.1800 -0.0424
v -0.1876 1.1800 0.0117
v -0.1876 1.2300 0.0117
v -0.2417 1.2300 -0.0424
f 260/4 259/4 258/4 257/4
v -0.1876 1.1800 0.0117
v -0.1876 1.1800 0.0883
v -0.1876 1.2300 0.0883
v -0.1876 1.2300 0.0117
f 264/4 263/4 262/4 261/4
v -0.1876 1.1800 0.0883
v -0.2417 1.1800 0.1424
v -0.2417 1.2300 0.1424
v -0.1876 1.2300 0.0883
f 268/4 267/4 266/4 265/4
v -0.2417 1.1800 0.1424
v -0.3183 1.1800 0.1424
v -0.3183 1.2300 0.1424
v -0.2417 1.2300 0.1424
f 272/4 271/4 270/4 269/4
v -0.2417 1.1800 0.1424
v -0.1876 1.1800 0.0883
v -0.1876 1.1800 0.0117
v -0.2417 1.1800 -0.0424
v -0.3183 1.1800 -0.0424
v -0.3724 1.1800 0.0117
v -0.3724 1.1800 0.0883
v -0.3183 1.1800 0.1424
f 280/4 279/4 278/4 277/4 276/4 275/4 274/4 273/4
v -0.3183 1.2300 0.1424
v -0.3724 1.2300 0.0883
v -0.3724 1.2300 0.0117
v -0.3183 1.2300 -0.0424
v -0.2417 1.2300 -0.0424
v -0.1876 1.2300 0.0117
v -0.1876 1.2300 0.0883
v -0.2417 1.2300 0.1424
f 288/4 287/4 286/4 285/4 284/4 283/4 282/4 281/4
v 0.3600 0.6300 0.1100
v 0.3600 0.7700 0.1100
v 0.3600 0.7700 -0.0100
v 0.3600 0.6300 -0.0100
f 292/8 291/8 290/8 289/8
v 0.2400 0.6300 -0.0100
v 0.2400 0.7700 -0.0100
v 0.2400 0.7700 0.1100
v 0.2400 0.6300 0.1100
f 296/8 295/8 294/8 293/8
v 0.3600 0.6300 -0.0100
v 0.2400 0.6300 -0.0100
v 0.2400 0.6300 0.1100
v 0.3600 0.6300 0.1100
f 300/8 299/8 298/8 297/8
v 0.3600 0.7700 0.1100
v 0.2400 0.7700 0.1100
v 0.2400 0.7700 -0.0100
v 0.3600 0.7700 -0.0100
f 304/8 303/8 302/8 301/8
v 0.3600 0.7700 -0.0100
v 0.2400 0.7700 -0.0100
v 0.2400 0.6300 -0.0100
v 0.3600 0.6300 -0.0100
f 308/8 307/8 306/8 305/8
v 0.3600 0.6300 0.1100
v 0.2400 0.6300 0.1100
v 0.2400 0.7700 0.1100
v 0.3600 0.7700 0.1100
f 312/8 311/8 310/8 309/8
v 0.1694 0.6300 -0.1261
v 0.1261 0.6300 -0.1694
v 0.1261 0.8300 -0.1694
v 0.1694 0.8300 -0.1261
f 316/4 315/4 314/4 313/4
v 0.1261 0.6300 -0.1694
v 0.1261 0.6300 -0.2306
v 0.1261 0.8300 -0.2306
v 0.1261 0.8300 -0.1694
f 320/4 319/4 318/4 317/4
v 0.1261 0.6300 -0.2306
v 0.1694 0.6300 -0.2739
v 0.1694 0.8300 -0.2739
v 0.1261 0.8300 -0.2306
f 324/4 323/4 322/4 321/4
v 0.1694 0.6300 -0.2739
v 0.2306 0.6300 -0.2739
v 0.2306 0.8300 -0.2739
v 0.1694 0.8300 -0.2739
f 328/4 327/4 326/4 325/4
v 0.2306 0.6300 -0.2739
v 0.2739 0.6300 -0.2306
v 0.2739 0.8300 -0.2306
v 0.2306 0.8300 -0.2739
f 332/4 331/4 330/4 329/4
v 0.2739 0.6300 -0.2306
v 0.2739 0.6300 -0.1694
v 0.2739 0.8300 -0.1694
v 0.2739 0.8300 -0.2306
f 336/4 335/4 334/4 333/4
v 0.2739 0.6300 -0.1694
v 0.2306 0.6300 -0.1261
v 0.2306 0.8300 -0.1261
v 0.2739 0.8300 -0.1694
f 340/4 339/4 338/4 337/4
v 0.2306 0.6300 -0.1261
v 0.1694 0.6300 -0.1261
v 0.1694 0.8300 -0.1261
v 0.2306 0.8300 -0.1261
f 344/4 343/4 342/4 341/4
v 0.2306 0.6300 -0.1261
v 0.2739 0.6300 -0.1694
v 0.2739 0.6300 -0.2306
v 0.2306 0.6300 -0.2739
v 0.1694 0.6300 -0.2739
v 0.1261 0.6300 -0.2306
v 0.1261 0.6300 -0.1694
v 0.1694 0.6300 -0.1261
f 352/4 351/4 350/4 349/4 348/4 347/4 346/4 345/4
v 0.1694 0.8300 -0.1261
v 0.1261 0.8300 -0.1694
v 0.1261 0.8300 -0.2306
v 0.1694 0.8300 -0.2739
v 0.2306 0.8300 -0.2739
v 0.2739 0.8300 -0.2306
v 0.2739 0.8300 -0.1694
v 0.2306 0.8300 -0.1261
f 360/4 359/4 358/4 357/4 356/4 355/4 354/4 353/4
v -0.2306 0.6300 -0.1261
v -0.2739 0.6300 -0.1694
v -0.2739 0.8300 -0.1694
v -0.2306 0.8300 -0.1261
f 364/4 363/4 362/4 361/4
v -0.2739 0.6300 -0.1694
v -0.2739 0.6300 -0.2306
v -0.2739 0.8300 -0.2306
v -0.2739 0.8300 -0.1694
f 368/4 367/4 366/4 365/4
v -0.2739 0.6300 -0.2306
v -0.2306 0.6300 -0.2739
v -0.2306 0.8300 -0.2739
v -0.2739 0.8300 -0.2306
f 372/4 371/4 370/4 369/4
v -0.2306 0.6300 -0.2739
v -0.1694 0.6300 -0.2739
v -0.1694 0.8300 -0.2739
v -0.2306 0.8300 -0.2739
f 376/4 375/4 374/4 373/4
v -0.1694 0.6300 -0.2739
v -0.1261 0.6300 -0.2306
v -0.1261 0.8300 -0.2306
v -0.1694 0.8300 -0.2739
f 380/4 379/4 378/4 377/4
v -0.1261 0.6300 -0.2306
v -0.1261 0.6300 -0.1694
v -0.1261 0.8300 -0.1694
v -0.1261 0.8300 -0.2306
f 384/4 383/4 382/4 381/4
v -0.1261 0.6300 -0.1694
v -0.1694 0.6300 -0.1261
v -0.1694 0.8300 -0.1261
v -0.1261 0.8300 -0.1694
f 388/4 387/4 386/4 385/4
v -0.1694 0.6300 -0.1261
v -0.2306 0.6300 -0.1261
v -0.2306 0.8300 -0.1261
v -0.1694 0.8300 -0.1261
f 392/4 391/4 390/4 389/4
v -0.1694 0.6300 -0.1261
v -0.1261 0.6300 -0.1694
v -0.1261 0.6300 -0.2306
v -0.1694 0.6300 -0.2739
v -0.2306 0.6300 -0.2739
v -0.2739 0.6300 -0.2306
v -0.2739 0.6300 -0.1694
v -0.2306 0.6300 -0.1261
f 400/4 399/4 398/4 397/4 396/4 395/4 394/4 393/4
v -0.2306 0.8300 -0.1261
v -0.2739 0.8300 -0.1694
v -0.2739 0.8300 -0.2306
v -0.2306 0.8300 -0.2739
v -0.1694 0.8300 -0.2739
v -0.1261 0.8300 -0.2306
v -0.1261 0.8300 -0.1694
v -0.1694 0.8300 -0.1261
f 408/4 407/4 406/4 405/4 404/4 403/4 402/4 401/4
v 0.3250 0.7750 0.0750
v 0.3250 0.8250 0.0750
v 0.3250 0.8250 0.0250
v 0.3250 0.7750 0.0250
f 412/16 411/16 410/16 409/16
v 0.2750 0.7750 0.0250
v 0.2750 0.8250 0.0250
v 0.2750 0.8250 0.0750
v 0.2750 0.7750 0.0750
f 416/16 415/16 414/16 413/16
v 0.3250 0.7750 0.0250
v 0.2750 0.7750 0.0250
v 0.2750 0.7750 0.0750
v 0.3250 0.7750 0.0750
f 420/16 419/16 418/16 417/16
v 0.3250 0.8250 0.0750
v 0.2750 0.8250 0.0750
v 0.2750 0.8250 0.0250
v 0.3250 0.8250 0.0250
f 424/16 423/16 422/16 421/16
v 0.3250 0.8250 0.0250
v 0.2750 0.8250 0.0250
v 0.2750 0.7750 0.0250
v 0.3250 0.7750 0.0250
f 428/16 427/16 426/16 425/16
v 0.3250 0.7750 0.0750
v 0.2750 0.7750 0.0750
v 0.2750 0.8250 0.0750
v 0.3250 0.8250 0.0750
f 432/16 431/16 430/16 429/16
