# Walk of Industry low-poly (generated, wi_lib.py)
mtllib wi.mtl
vt 0 0
vt 0.03125 0.03125
vt 0.09375 0.03125
vt 0.15625 0.03125
vt 0.21875 0.03125
vt 0.28125 0.03125
vt 0.34375 0.03125
vt 0.40625 0.03125
vt 0.46875 0.03125
vt 0.53125 0.03125
vt 0.59375 0.03125
vt 0.65625 0.03125
vt 0.71875 0.03125
vt 0.78125 0.03125
vt 0.84375 0.03125
vt 0.90625 0.03125
vt 0.96875 0.03125
vt 0.03125 0.09375
vt 0.09375 0.09375
vt 0.15625 0.09375
vt 0.21875 0.09375
vt 0.28125 0.09375
vt 0.34375 0.09375
vt 0.40625 0.09375
vt 0.46875 0.09375
vt 0.53125 0.09375
vt 0.59375 0.09375
vt 0.65625 0.09375
vt 0.71875 0.09375
vt 0.78125 0.09375
vt 0.84375 0.09375
vt 0.90625 0.09375
vt 0.96875 0.09375
o Body
usemtl wi_palette
v 0.4000 0.0618 -0.1902
v 0.4000 0.1618 -0.1176
v -0.4000 0.1618 -0.1176
v -0.4000 0.0618 -0.1902
f 4/7 3/7 2/7 1/7
v 0.4000 0.1618 -0.1176
v 0.4000 0.2000 0.0000
v -0.4000 0.2000 0.0000
v -0.4000 0.1618 -0.1176
f 8/7 7/7 6/7 5/7
v 0.4000 0.2000 0.0000
v 0.4000 0.1618 0.1176
v -0.4000 0.1618 0.1176
v -0.4000 0.2000 0.0000
f 12/7 11/7 10/7 9/7
v 0.4000 0.1618 0.1176
v 0.4000 0.0618 0.1902
v -0.4000 0.0618 0.1902
v -0.4000 0.1618 0.1176
f 16/7 15/7 14/7 13/7
v 0.4000 0.0618 0.1902
v 0.4000 -0.0618 0.1902
v -0.4000 -0.0618 0.1902
v -0.4000 0.0618 0.1902
f 20/7 19/7 18/7 17/7
v 0.4000 -0.0618 0.1902
v 0.4000 -0.1618 0.1176
v -0.4000 -0.1618 0.1176
v -0.4000 -0.0618 0.1902
f 24/7 23/7 22/7 21/7
v 0.4000 -0.1618 0.1176
v 0.4000 -0.2000 0.0000
v -0.4000 -0.2000 0.0000
v -0.4000 -0.1618 0.1176
f 28/7 27/7 26/7 25/7
v 0.4000 -0.2000 0.0000
v 0.4000 -0.1618 -0.1176
v -0.4000 -0.1618 -0.1176
v -0.4000 -0.2000 0.0000
f 32/7 31/7 30/7 29/7
v 0.4000 -0.1618 -0.1176
v 0.4000 -0.0618 -0.1902
v -0.4000 -0.0618 -0.1902
v -0.4000 -0.1618 -0.1176
f 36/7 35/7 34/7 33/7
v 0.4000 -0.0618 -0.1902
v 0.4000 0.0618 -0.1902
v -0.4000 0.0618 -0.1902
v -0.4000 -0.0618 -0.1902
f 40/7 39/7 38/7 37/7
v 0.4000 -0.0618 -0.1902
v 0.4000 -0.1618 -0.1176
v 0.4000 -0.2000 0.0000
v 0.4000 -0.1618 0.1176
v 0.4000 -0.0618 0.1902
v 0.4000 0.0618 0.1902
v 0.4000 0.1618 0.1176
v 0.4000 0.2000 0.0000
v 0.4000 0.1618 -0.1176
v 0.4000 0.0618 -0.1902
f 50/7 49/7 48/7 47/7 46/7 45/7 44/7 43/7 42/7 41/7
v -0.4000 0.0618 -0.1902
v -0.4000 0.1618 -0.1176
v -0.4000 0.2000 0.0000
v -0.4000 0.1618 0.1176
v -0.4000 0.0618 0.1902
v -0.4000 -0.0618 0.1902
v -0.4000 -0.1618 0.1176
v -0.4000 -0.2000 0.0000
v -0.4000 -0.1618 -0.1176
v -0.4000 -0.0618 -0.1902
f 60/7 59/7 58/7 57/7 56/7 55/7 54/7 53/7 52/7 51/7
v 0.3200 0.0664 -0.2045
v 0.3200 0.1739 -0.1264
v 0.2800 0.1739 -0.1264
v 0.2800 0.0664 -0.2045
f 64/4 63/4 62/4 61/4
v 0.3200 0.1739 -0.1264
v 0.3200 0.2150 0.0000
v 0.2800 0.2150 0.0000
v 0.2800 0.1739 -0.1264
f 68/4 67/4 66/4 65/4
v 0.3200 0.2150 0.0000
v 0.3200 0.1739 0.1264
v 0.2800 0.1739 0.1264
v 0.2800 0.2150 0.0000
f 72/4 71/4 70/4 69/4
v 0.3200 0.1739 0.1264
v 0.3200 0.0664 0.2045
v 0.2800 0.0664 0.2045
v 0.2800 0.1739 0.1264
f 76/4 75/4 74/4 73/4
v 0.3200 0.0664 0.2045
v 0.3200 -0.0664 0.2045
v 0.2800 -0.0664 0.2045
v 0.2800 0.0664 0.2045
f 80/4 79/4 78/4 77/4
v 0.3200 -0.0664 0.2045
v 0.3200 -0.1739 0.1264
v 0.2800 -0.1739 0.1264
v 0.2800 -0.0664 0.2045
f 84/4 83/4 82/4 81/4
v 0.3200 -0.1739 0.1264
v 0.3200 -0.2150 0.0000
v 0.2800 -0.2150 0.0000
v 0.2800 -0.1739 0.1264
f 88/4 87/4 86/4 85/4
v 0.3200 -0.2150 0.0000
v 0.3200 -0.1739 -0.1264
v 0.2800 -0.1739 -0.1264
v 0.2800 -0.2150 0.0000
f 92/4 91/4 90/4 89/4
v 0.3200 -0.1739 -0.1264
v 0.3200 -0.0664 -0.2045
v 0.2800 -0.0664 -0.2045
v 0.2800 -0.1739 -0.1264
f 96/4 95/4 94/4 93/4
v 0.3200 -0.0664 -0.2045
v 0.3200 0.0664 -0.2045
v 0.2800 0.0664 -0.2045
v 0.2800 -0.0664 -0.2045
f 100/4 99/4 98/4 97/4
v 0.3200 -0.0664 -0.2045
v 0.3200 -0.1739 -0.1264
v 0.3200 -0.2150 0.0000
v 0.3200 -0.1739 0.1264
v 0.3200 -0.0664 0.2045
v 0.3200 0.0664 0.2045
v 0.3200 0.1739 0.1264
v 0.3200 0.2150 0.0000
v 0.3200 0.1739 -0.1264
v 0.3200 0.0664 -0.2045
f 110/4 109/4 108/4 107/4 106/4 105/4 104/4 103/4 102/4 101/4
v 0.2800 0.0664 -0.2045
v 0.2800 0.1739 -0.1264
v 0.2800 0.2150 0.0000
v 0.2800 0.1739 0.1264
v 0.2800 0.0664 0.2045
v 0.2800 -0.0664 0.2045
v 0.2800 -0.1739 0.1264
v 0.2800 -0.2150 0.0000
v 0.2800 -0.1739 -0.1264
v 0.2800 -0.0664 -0.2045
f 120/4 119/4 118/4 117/4 116/4 115/4 114/4 113/4 112/4 111/4
v 0.0200 0.0664 -0.2045
v 0.0200 0.1739 -0.1264
v -0.0200 0.1739 -0.1264
v -0.0200 0.0664 -0.2045
f 124/4 123/4 122/4 121/4
v 0.0200 0.1739 -0.1264
v 0.0200 0.2150 0.0000
v -0.0200 0.2150 0.0000
v -0.0200 0.1739 -0.1264
f 128/4 127/4 126/4 125/4
v 0.0200 0.2150 0.0000
v 0.0200 0.1739 0.1264
v -0.0200 0.1739 0.1264
v -0.0200 0.2150 0.0000
f 132/4 131/4 130/4 129/4
v 0.0200 0.1739 0.1264
v 0.0200 0.0664 0.2045
v -0.0200 0.0664 0.2045
v -0.0200 0.1739 0.1264
f 136/4 135/4 134/4 133/4
v 0.0200 0.0664 0.2045
v 0.0200 -0.0664 0.2045
v -0.0200 -0.0664 0.2045
v -0.0200 0.0664 0.2045
f 140/4 139/4 138/4 137/4
v 0.0200 -0.0664 0.2045
v 0.0200 -0.1739 0.1264
v -0.0200 -0.1739 0.1264
v -0.0200 -0.0664 0.2045
f 144/4 143/4 142/4 141/4
v 0.0200 -0.1739 0.1264
v 0.0200 -0.2150 0.0000
v -0.0200 -0.2150 0.0000
v -0.0200 -0.1739 0.1264
f 148/4 147/4 146/4 145/4
v 0.0200 -0.2150 0.0000
v 0.0200 -0.1739 -0.1264
v -0.0200 -0.1739 -0.1264
v -0.0200 -0.2150 0.0000
f 152/4 151/4 150/4 149/4
v 0.0200 -0.1739 -0.1264
v 0.0200 -0.0664 -0.2045
v -0.0200 -0.0664 -0.2045
v -0.0200 -0.1739 -0.1264
f 156/4 155/4 154/4 153/4
v 0.0200 -0.0664 -0.2045
v 0.0200 0.0664 -0.2045
v -0.0200 0.0664 -0.2045
v -0.0200 -0.0664 -0.2045
f 160/4 159/4 158/4 157/4
v 0.0200 -0.0664 -0.2045
v 0.0200 -0.1739 -0.1264
v 0.0200 -0.2150 0.0000
v 0.0200 -0.1739 0.1264
v 0.0200 -0.0664 0.2045
v 0.0200 0.0664 0.2045
v 0.0200 0.1739 0.1264
v 0.0200 0.2150 0.0000
v 0.0200 0.1739 -0.1264
v 0.0200 0.0664 -0.2045
f 170/4 169/4 168/4 167/4 166/4 165/4 164/4 163/4 162/4 161/4
v -0.0200 0.0664 -0.2045
v -0.0200 0.1739 -0.1264
v -0.0200 0.2150 0.0000
v -0.0200 0.1739 0.1264
v -0.0200 0.0664 0.2045
v -0.0200 -0.0664 0.2045
v -0.0200 -0.1739 0.1264
v -0.0200 -0.2150 0.0000
v -0.0200 -0.1739 -0.1264
v -0.0200 -0.0664 -0.2045
f 180/4 179/4 178/4 177/4 176/4 175/4 174/4 173/4 172/4 171/4
v -0.2800 0.0664 -0.2045
v -0.2800 0.1739 -0.1264
v -0.3200 0.1739 -0.1264
v -0.3200 0.0664 -0.2045
f 184/4 183/4 182/4 181/4
v -0.2800 0.1739 -0.1264
v -0.2800 0.2150 0.0000
v -0.3200 0.2150 0.0000
v -0.3200 0.1739 -0.1264
f 188/4 187/4 186/4 185/4
v -0.2800 0.2150 0.0000
v -0.2800 0.1739 0.1264
v -0.3200 0.1739 0.1264
v -0.3200 0.2150 0.0000
f 192/4 191/4 190/4 189/4
v -0.2800 0.1739 0.1264
v -0.2800 0.0664 0.2045
v -0.3200 0.0664 0.2045
v -0.3200 0.1739 0.1264
f 196/4 195/4 194/4 193/4
v -0.2800 0.0664 0.2045
v -0.2800 -0.0664 0.2045
v -0.3200 -0.0664 0.2045
v -0.3200 0.0664 0.2045
f 200/4 199/4 198/4 197/4
v -0.2800 -0.0664 0.2045
v -0.2800 -0.1739 0.1264
v -0.3200 -0.1739 0.1264
v -0.3200 -0.0664 0.2045
f 204/4 203/4 202/4 201/4
v -0.2800 -0.1739 0.1264
v -0.2800 -0.2150 0.0000
v -0.3200 -0.2150 0.0000
v -0.3200 -0.1739 0.1264
f 208/4 207/4 206/4 205/4
v -0.2800 -0.2150 0.0000
v -0.2800 -0.1739 -0.1264
v -0.3200 -0.1739 -0.1264
v -0.3200 -0.2150 0.0000
f 212/4 211/4 210/4 209/4
v -0.2800 -0.1739 -0.1264
v -0.2800 -0.0664 -0.2045
v -0.3200 -0.0664 -0.2045
v -0.3200 -0.1739 -0.1264
f 216/4 215/4 214/4 213/4
v -0.2800 -0.0664 -0.2045
v -0.2800 0.0664 -0.2045
v -0.3200 0.0664 -0.2045
v -0.3200 -0.0664 -0.2045
f 220/4 219/4 218/4 217/4
v -0.2800 -0.0664 -0.2045
v -0.2800 -0.1739 -0.1264
v -0.2800 -0.2150 0.0000
v -0.2800 -0.1739 0.1264
v -0.2800 -0.0664 0.2045
v -0.2800 0.0664 0.2045
v -0.2800 0.1739 0.1264
v -0.2800 0.2150 0.0000
v -0.2800 0.1739 -0.1264
v -0.2800 0.0664 -0.2045
f 230/4 229/4 228/4 227/4 226/4 225/4 224/4 223/4 222/4 221/4
v -0.3200 0.0664 -0.2045
v -0.3200 0.1739 -0.1264
v -0.3200 0.2150 0.0000
v -0.3200 0.1739 0.1264
v -0.3200 0.0664 0.2045
v -0.3200 -0.0664 0.2045
v -0.3200 -0.1739 0.1264
v -0.3200 -0.2150 0.0000
v -0.3200 -0.1739 -0.1264
v -0.3200 -0.0664 -0.2045
f 240/4 239/4 238/4 237/4 236/4 235/4 234/4 233/4 232/4 231/4
v 0.3900 -0.0200 0.2200
v 0.3900 0.0200 0.2200
v 0.3900 0.0200 0.1800
v 0.3900 -0.0200 0.1800
f 244/6 243/6 242/6 241/6
v -0.3900 -0.0200 0.1800
v -0.3900 0.0200 0.1800
v -0.3900 0.0200 0.2200
v -0.3900 -0.0200 0.2200
f 248/6 247/6 246/6 245/6
v 0.3900 -0.0200 0.1800
v -0.3900 -0.0200 0.1800
v -0.3900 -0.0200 0.2200
v 0.3900 -0.0200 0.2200
f 252/6 251/6 250/6 249/6
v 0.3900 0.0200 0.2200
v -0.3900 0.0200 0.2200
v -0.3900 0.0200 0.1800
v 0.3900 0.0200 0.1800
f 256/6 255/6 254/6 253/6
v 0.3900 0.0200 0.1800
v -0.3900 0.0200 0.1800
v -0.3900 -0.0200 0.1800
v 0.3900 -0.0200 0.1800
f 260/6 259/6 258/6 257/6
v 0.3900 -0.0200 0.2200
v -0.3900 -0.0200 0.2200
v -0.3900 0.0200 0.2200
v 0.3900 0.0200 0.2200
f 264/6 263/6 262/6 261/6
v 0.3900 0.1532 -0.0800
v 0.3900 0.1932 -0.0800
v 0.3900 0.1932 -0.1200
v 0.3900 0.1532 -0.1200
f 268/6 267/6 266/6 265/6
v -0.3900 0.1532 -0.1200
v -0.3900 0.1932 -0.1200
v -0.3900 0.1932 -0.0800
v -0.3900 0.1532 -0.0800
f 272/6 271/6 270/6 269/6
v 0.3900 0.1532 -0.1200
v -0.3900 0.1532 -0.1200
v -0.3900 0.1532 -0.0800
v 0.3900 0.1532 -0.0800
f 276/6 275/6 274/6 273/6
v 0.3900 0.1932 -0.0800
v -0.3900 0.1932 -0.0800
v -0.3900 0.1932 -0.1200
v 0.3900 0.1932 -0.1200
f 280/6 279/6 278/6 277/6
v 0.3900 0.1932 -0.1200
v -0.3900 0.1932 -0.1200
v -0.3900 0.1532 -0.1200
v 0.3900 0.1532 -0.1200
f 284/6 283/6 282/6 281/6
v 0.3900 0.1532 -0.0800
v -0.3900 0.1532 -0.0800
v -0.3900 0.1932 -0.0800
v 0.3900 0.1932 -0.0800
f 288/6 287/6 286/6 285/6
v 0.3900 -0.1932 -0.0800
v 0.3900 -0.1532 -0.0800
v 0.3900 -0.1532 -0.1200
v 0.3900 -0.1932 -0.1200
f 292/6 291/6 290/6 289/6
v -0.3900 -0.1932 -0.1200
v -0.3900 -0.1532 -0.1200
v -0.3900 -0.1532 -0.0800
v -0.3900 -0.1932 -0.0800
f 296/6 295/6 294/6 293/6
v 0.3900 -0.1932 -0.1200
v -0.3900 -0.1932 -0.1200
v -0.3900 -0.1932 -0.0800
v 0.3900 -0.1932 -0.0800
f 300/6 299/6 298/6 297/6
v 0.3900 -0.1532 -0.0800
v -0.3900 -0.1532 -0.0800
v -0.3900 -0.1532 -0.1200
v 0.3900 -0.1532 -0.1200
f 304/6 303/6 302/6 301/6
v 0.3900 -0.1532 -0.1200
v -0.3900 -0.1532 -0.1200
v -0.3900 -0.1932 -0.1200
v 0.3900 -0.1932 -0.1200
f 308/6 307/6 306/6 305/6
v 0.3900 -0.1932 -0.0800
v -0.3900 -0.1932 -0.0800
v -0.3900 -0.1532 -0.0800
v 0.3900 -0.1532 -0.0800
f 312/6 311/6 310/6 309/6
