# Walk of Industry low-poly (generated, wi_lib.py)
mtllib wi.mtl
vt 0 0
vt 0.03125 0.03125
vt 0.09375 0.03125
vt 0.15625 0.03125
vt 0.21875 0.03125
vt 0.28125 0.03125
vt 0.34375 0.03125
vt 0.40625 0.03125
vt 0.46875 0.03125
vt 0.53125 0.03125
vt 0.59375 0.03125
vt 0.65625 0.03125
vt 0.71875 0.03125
vt 0.78125 0.03125
vt 0.84375 0.03125
vt 0.90625 0.03125
vt 0.96875 0.03125
vt 0.03125 0.09375
vt 0.09375 0.09375
vt 0.15625 0.09375
vt 0.21875 0.09375
vt 0.28125 0.09375
vt 0.34375 0.09375
vt 0.40625 0.09375
vt 0.46875 0.09375
vt 0.53125 0.09375
vt 0.59375 0.09375
vt 0.65625 0.09375
vt 0.71875 0.09375
vt 0.78125 0.09375
vt 0.84375 0.09375
vt 0.90625 0.09375
vt 0.96875 0.09375
o Body
usemtl wi_palette
v 1.4800 0.0000 1.4800
v 1.4800 0.0800 1.4800
v 1.4800 0.0800 -1.4800
v 1.4800 0.0000 -1.4800
f 4/5 3/5 2/5 1/5
v -1.4800 0.0000 -1.4800
v -1.4800 0.0800 -1.4800
v -1.4800 0.0800 1.4800
v -1.4800 0.0000 1.4800
f 8/5 7/5 6/5 5/5
v 1.4800 0.0000 -1.4800
v -1.4800 0.0000 -1.4800
v -1.4800 0.0000 1.4800
v 1.4800 0.0000 1.4800
f 12/5 11/5 10/5 9/5
v 1.4800 0.0800 1.4800
v -1.4800 0.0800 1.4800
v -1.4800 0.0800 -1.4800
v 1.4800 0.0800 -1.4800
f 16/5 15/5 14/5 13/5
v 1.4800 0.0800 -1.4800
v -1.4800 0.0800 -1.4800
v -1.4800 0.0000 -1.4800
v 1.4800 0.0000 -1.4800
f 20/5 19/5 18/5 17/5
v 1.4800 0.0000 1.4800
v -1.4800 0.0000 1.4800
v -1.4800 0.0800 1.4800
v 1.4800 0.0800 1.4800
f 24/5 23/5 22/5 21/5
v 1.4000 0.0800 1.4000
v 1.4000 0.1600 1.4000
v 1.4000 0.1600 -1.4000
v 1.4000 0.0800 -1.4000
f 28/11 27/11 26/11 25/11
v -1.4000 0.0800 -1.4000
v -1.4000 0.1600 -1.4000
v -1.4000 0.1600 1.4000
v -1.4000 0.0800 1.4000
f 32/11 31/11 30/11 29/11
v 1.4000 0.0800 -1.4000
v -1.4000 0.0800 -1.4000
v -1.4000 0.0800 1.4000
v 1.4000 0.0800 1.4000
f 36/11 35/11 34/11 33/11
v 1.4000 0.1600 1.4000
v -1.4000 0.1600 1.4000
v -1.4000 0.1600 -1.4000
v 1.4000 0.1600 -1.4000
f 40/11 39/11 38/11 37/11
v 1.4000 0.1600 -1.4000
v -1.4000 0.1600 -1.4000
v -1.4000 0.0800 -1.4000
v 1.4000 0.0800 -1.4000
f 44/11 43/11 42/11 41/11
v 1.4000 0.0800 1.4000
v -1.4000 0.0800 1.4000
v -1.4000 0.1600 1.4000
v 1.4000 0.1600 1.4000
f 48/11 47/11 46/11 45/11
v 0.6573 0.1600 -0.4147
v 0.5073 0.1600 -0.5237
v 0.5073 2.5600 -0.5237
v 0.6573 2.5600 -0.4147
f 52/7 51/7 50/7 49/7
v 0.5073 0.1600 -0.5237
v 0.4500 0.1600 -0.7000
v 0.4500 2.5600 -0.7000
v 0.5073 2.5600 -0.5237
f 56/7 55/7 54/7 53/7
v 0.4500 0.1600 -0.7000
v 0.5073 0.1600 -0.8763
v 0.5073 2.5600 -0.8763
v 0.4500 2.5600 -0.7000
f 60/7 59/7 58/7 57/7
v 0.5073 0.1600 -0.8763
v 0.6573 0.1600 -0.9853
v 0.6573 2.5600 -0.9853
v 0.5073 2.5600 -0.8763
f 64/7 63/7 62/7 61/7
v 0.6573 0.1600 -0.9853
v 0.8427 0.1600 -0.9853
v 0.8427 2.5600 -0.9853
v 0.6573 2.5600 -0.9853
f 68/7 67/7 66/7 65/7
v 0.8427 0.1600 -0.9853
v 0.9927 0.1600 -0.8763
v 0.9927 2.5600 -0.8763
v 0.8427 2.5600 -0.9853
f 72/7 71/7 70/7 69/7
v 0.9927 0.1600 -0.8763
v 1.0500 0.1600 -0.7000
v 1.0500 2.5600 -0.7000
v 0.9927 2.5600 -0.8763
f 76/7 75/7 74/7 73/7
v 1.0500 0.1600 -0.7000
v 0.9927 0.1600 -0.5237
v 0.9927 2.5600 -0.5237
v 1.0500 2.5600 -0.7000
f 80/7 79/7 78/7 77/7
v 0.9927 0.1600 -0.5237
v 0.8427 0.1600 -0.4147
v 0.8427 2.5600 -0.4147
v 0.9927 2.5600 -0.5237
f 84/7 83/7 82/7 81/7
v 0.8427 0.1600 -0.4147
v 0.6573 0.1600 -0.4147
v 0.6573 2.5600 -0.4147
v 0.8427 2.5600 -0.4147
f 88/7 87/7 86/7 85/7
v 0.8427 0.1600 -0.4147
v 0.9927 0.1600 -0.5237
v 1.0500 0.1600 -0.7000
v 0.9927 0.1600 -0.8763
v 0.8427 0.1600 -0.9853
v 0.6573 0.1600 -0.9853
v 0.5073 0.1600 -0.8763
v 0.4500 0.1600 -0.7000
v 0.5073 0.1600 -0.5237
v 0.6573 0.1600 -0.4147
f 98/7 97/7 96/7 95/7 94/7 93/7 92/7 91/7 90/7 89/7
v 0.6573 2.5600 -0.4147
v 0.5073 2.5600 -0.5237
v 0.4500 2.5600 -0.7000
v 0.5073 2.5600 -0.8763
v 0.6573 2.5600 -0.9853
v 0.8427 2.5600 -0.9853
v 0.9927 2.5600 -0.8763
v 1.0500 2.5600 -0.7000
v 0.9927 2.5600 -0.5237
v 0.8427 2.5600 -0.4147
f 108/7 107/7 106/7 105/7 104/7 103/7 102/7 101/7 100/7 99/7
v 0.6480 2.5600 -0.3862
v 0.4830 2.5600 -0.5060
v 0.7095 2.7800 -0.6706
v 0.7345 2.7800 -0.6524
f 112/4 111/4 110/4 109/4
v 0.4830 2.5600 -0.5060
v 0.4200 2.5600 -0.7000
v 0.7000 2.7800 -0.7000
v 0.7095 2.7800 -0.6706
f 116/4 115/4 114/4 113/4
v 0.4200 2.5600 -0.7000
v 0.4830 2.5600 -0.8940
v 0.7095 2.7800 -0.7294
v 0.7000 2.7800 -0.7000
f 120/4 119/4 118/4 117/4
v 0.4830 2.5600 -0.8940
v 0.6480 2.5600 -1.0138
v 0.7345 2.7800 -0.7476
v 0.7095 2.7800 -0.7294
f 124/4 123/4 122/4 121/4
v 0.6480 2.5600 -1.0138
v 0.8520 2.5600 -1.0138
v 0.7655 2.7800 -0.7476
v 0.7345 2.7800 -0.7476
f 128/4 127/4 126/4 125/4
v 0.8520 2.5600 -1.0138
v 1.0170 2.5600 -0.8940
v 0.7905 2.7800 -0.7294
v 0.7655 2.7800 -0.7476
f 132/4 131/4 130/4 129/4
v 1.0170 2.5600 -0.8940
v 1.0800 2.5600 -0.7000
v 0.8000 2.7800 -0.7000
v 0.7905 2.7800 -0.7294
f 136/4 135/4 134/4 133/4
v 1.0800 2.5600 -0.7000
v 1.0170 2.5600 -0.5060
v 0.7905 2.7800 -0.6706
v 0.8000 2.7800 -0.7000
f 140/4 139/4 138/4 137/4
v 1.0170 2.5600 -0.5060
v 0.8520 2.5600 -0.3862
v 0.7655 2.7800 -0.6524
v 0.7905 2.7800 -0.6706
f 144/4 143/4 142/4 141/4
v 0.8520 2.5600 -0.3862
v 0.6480 2.5600 -0.3862
v 0.7345 2.7800 -0.6524
v 0.7655 2.7800 -0.6524
f 148/4 147/4 146/4 145/4
v 0.8520 2.5600 -0.3862
v 1.0170 2.5600 -0.5060
v 1.0800 2.5600 -0.7000
v 1.0170 2.5600 -0.8940
v 0.8520 2.5600 -1.0138
v 0.6480 2.5600 -1.0138
v 0.4830 2.5600 -0.8940
v 0.4200 2.5600 -0.7000
v 0.4830 2.5600 -0.5060
v 0.6480 2.5600 -0.3862
f 158/4 157/4 156/4 155/4 154/4 153/4 152/4 151/4 150/4 149/4
v 0.7345 2.7800 -0.6524
v 0.7095 2.7800 -0.6706
v 0.7000 2.7800 -0.7000
v 0.7095 2.7800 -0.7294
v 0.7345 2.7800 -0.7476
v 0.7655 2.7800 -0.7476
v 0.7905 2.7800 -0.7294
v 0.8000 2.7800 -0.7000
v 0.7905 2.7800 -0.6706
v 0.7655 2.7800 -0.6524
f 168/4 167/4 166/4 165/4 164/4 163/4 162/4 161/4 160/4 159/4
v 0.6480 0.6100 -0.3862
v 0.4830 0.6100 -0.5060
v 0.4830 0.6500 -0.5060
v 0.6480 0.6500 -0.3862
f 172/4 171/4 170/4 169/4
v 0.4830 0.6100 -0.5060
v 0.4200 0.6100 -0.7000
v 0.4200 0.6500 -0.7000
v 0.4830 0.6500 -0.5060
f 176/4 175/4 174/4 173/4
v 0.4200 0.6100 -0.7000
v 0.4830 0.6100 -0.8940
v 0.4830 0.6500 -0.8940
v 0.4200 0.6500 -0.7000
f 180/4 179/4 178/4 177/4
v 0.4830 0.6100 -0.8940
v 0.6480 0.6100 -1.0138
v 0.6480 0.6500 -1.0138
v 0.4830 0.6500 -0.8940
f 184/4 183/4 182/4 181/4
v 0.6480 0.6100 -1.0138
v 0.8520 0.6100 -1.0138
v 0.8520 0.6500 -1.0138
v 0.6480 0.6500 -1.0138
f 188/4 187/4 186/4 185/4
v 0.8520 0.6100 -1.0138
v 1.0170 0.6100 -0.8940
v 1.0170 0.6500 -0.8940
v 0.8520 0.6500 -1.0138
f 192/4 191/4 190/4 189/4
v 1.0170 0.6100 -0.8940
v 1.0800 0.6100 -0.7000
v 1.0800 0.6500 -0.7000
v 1.0170 0.6500 -0.8940
f 196/4 195/4 194/4 193/4
v 1.0800 0.6100 -0.7000
v 1.0170 0.6100 -0.5060
v 1.0170 0.6500 -0.5060
v 1.0800 0.6500 -0.7000
f 200/4 199/4 198/4 197/4
v 1.0170 0.6100 -0.5060
v 0.8520 0.6100 -0.3862
v 0.8520 0.6500 -0.3862
v 1.0170 0.6500 -0.5060
f 204/4 203/4 202/4 201/4
v 0.8520 0.6100 -0.3862
v 0.6480 0.6100 -0.3862
v 0.6480 0.6500 -0.3862
v 0.8520 0.6500 -0.3862
f 208/4 207/4 206/4 205/4
v 0.8520 0.6100 -0.3862
v 1.0170 0.6100 -0.5060
v 1.0800 0.6100 -0.7000
v 1.0170 0.6100 -0.8940
v 0.8520 0.6100 -1.0138
v 0.6480 0.6100 -1.0138
v 0.4830 0.6100 -0.8940
v 0.4200 0.6100 -0.7000
v 0.4830 0.6100 -0.5060
v 0.6480 0.6100 -0.3862
f 218/4 217/4 216/4 215/4 214/4 213/4 212/4 211/4 210/4 209/4
v 0.6480 0.6500 -0.3862
v 0.4830 0.6500 -0.5060
v 0.4200 0.6500 -0.7000
v 0.4830 0.6500 -0.8940
v 0.6480 0.6500 -1.0138
v 0.8520 0.6500 -1.0138
v 1.0170 0.6500 -0.8940
v 1.0800 0.6500 -0.7000
v 1.0170 0.6500 -0.5060
v 0.8520 0.6500 -0.3862
f 228/4 227/4 226/4 225/4 224/4 223/4 222/4 221/4 220/4 219/4
v 0.6480 1.0600 -0.3862
v 0.4830 1.0600 -0.5060
v 0.4830 1.1000 -0.5060
v 0.6480 1.1000 -0.3862
f 232/4 231/4 230/4 229/4
v 0.4830 1.0600 -0.5060
v 0.4200 1.0600 -0.7000
v 0.4200 1.1000 -0.7000
v 0.4830 1.1000 -0.5060
f 236/4 235/4 234/4 233/4
v 0.4200 1.0600 -0.7000
v 0.4830 1.0600 -0.8940
v 0.4830 1.1000 -0.8940
v 0.4200 1.1000 -0.7000
f 240/4 239/4 238/4 237/4
v 0.4830 1.0600 -0.8940
v 0.6480 1.0600 -1.0138
v 0.6480 1.1000 -1.0138
v 0.4830 1.1000 -0.8940
f 244/4 243/4 242/4 241/4
v 0.6480 1.0600 -1.0138
v 0.8520 1.0600 -1.0138
v 0.8520 1.1000 -1.0138
v 0.6480 1.1000 -1.0138
f 248/4 247/4 246/4 245/4
v 0.8520 1.0600 -1.0138
v 1.0170 1.0600 -0.8940
v 1.0170 1.1000 -0.8940
v 0.8520 1.1000 -1.0138
f 252/4 251/4 250/4 249/4
v 1.0170 1.0600 -0.8940
v 1.0800 1.0600 -0.7000
v 1.0800 1.1000 -0.7000
v 1.0170 1.1000 -0.8940
f 256/4 255/4 254/4 253/4
v 1.0800 1.0600 -0.7000
v 1.0170 1.0600 -0.5060
v 1.0170 1.1000 -0.5060
v 1.0800 1.1000 -0.7000
f 260/4 259/4 258/4 257/4
v 1.0170 1.0600 -0.5060
v 0.8520 1.0600 -0.3862
v 0.8520 1.1000 -0.3862
v 1.0170 1.1000 -0.5060
f 264/4 263/4 262/4 261/4
v 0.8520 1.0600 -0.3862
v 0.6480 1.0600 -0.3862
v 0.6480 1.1000 -0.3862
v 0.8520 1.1000 -0.3862
f 268/4 267/4 266/4 265/4
v 0.8520 1.0600 -0.3862
v 1.0170 1.0600 -0.5060
v 1.0800 1.0600 -0.7000
v 1.0170 1.0600 -0.8940
v 0.8520 1.0600 -1.0138
v 0.6480 1.0600 -1.0138
v 0.4830 1.0600 -0.8940
v 0.4200 1.0600 -0.7000
v 0.4830 1.0600 -0.5060
v 0.6480 1.0600 -0.3862
f 278/4 277/4 276/4 275/4 274/4 273/4 272/4 271/4 270/4 269/4
v 0.6480 1.1000 -0.3862
v 0.4830 1.1000 -0.5060
v 0.4200 1.1000 -0.7000
v 0.4830 1.1000 -0.8940
v 0.6480 1.1000 -1.0138
v 0.8520 1.1000 -1.0138
v 1.0170 1.1000 -0.8940
v 1.0800 1.1000 -0.7000
v 1.0170 1.1000 -0.5060
v 0.8520 1.1000 -0.3862
f 288/4 287/4 286/4 285/4 284/4 283/4 282/4 281/4 280/4 279/4
v 0.6480 1.5100 -0.3862
v 0.4830 1.5100 -0.5060
v 0.4830 1.5500 -0.5060
v 0.6480 1.5500 -0.3862
f 292/4 291/4 290/4 289/4
v 0.4830 1.5100 -0.5060
v 0.4200 1.5100 -0.7000
v 0.4200 1.5500 -0.7000
v 0.4830 1.5500 -0.5060
f 296/4 295/4 294/4 293/4
v 0.4200 1.5100 -0.7000
v 0.4830 1.5100 -0.8940
v 0.4830 1.5500 -0.8940
v 0.4200 1.5500 -0.7000
f 300/4 299/4 298/4 297/4
v 0.4830 1.5100 -0.8940
v 0.6480 1.5100 -1.0138
v 0.6480 1.5500 -1.0138
v 0.4830 1.5500 -0.8940
f 304/4 303/4 302/4 301/4
v 0.6480 1.5100 -1.0138
v 0.8520 1.5100 -1.0138
v 0.8520 1.5500 -1.0138
v 0.6480 1.5500 -1.0138
f 308/4 307/4 306/4 305/4
v 0.8520 1.5100 -1.0138
v 1.0170 1.5100 -0.8940
v 1.0170 1.5500 -0.8940
v 0.8520 1.5500 -1.0138
f 312/4 311/4 310/4 309/4
v 1.0170 1.5100 -0.8940
v 1.0800 1.5100 -0.7000
v 1.0800 1.5500 -0.7000
v 1.0170 1.5500 -0.8940
f 316/4 315/4 314/4 313/4
v 1.0800 1.5100 -0.7000
v 1.0170 1.5100 -0.5060
v 1.0170 1.5500 -0.5060
v 1.0800 1.5500 -0.7000
f 320/4 319/4 318/4 317/4
v 1.0170 1.5100 -0.5060
v 0.8520 1.5100 -0.3862
v 0.8520 1.5500 -0.3862
v 1.0170 1.5500 -0.5060
f 324/4 323/4 322/4 321/4
v 0.8520 1.5100 -0.3862
v 0.6480 1.5100 -0.3862
v 0.6480 1.5500 -0.3862
v 0.8520 1.5500 -0.3862
f 328/4 327/4 326/4 325/4
v 0.8520 1.5100 -0.3862
v 1.0170 1.5100 -0.5060
v 1.0800 1.5100 -0.7000
v 1.0170 1.5100 -0.8940
v 0.8520 1.5100 -1.0138
v 0.6480 1.5100 -1.0138
v 0.4830 1.5100 -0.8940
v 0.4200 1.5100 -0.7000
v 0.4830 1.5100 -0.5060
v 0.6480 1.5100 -0.3862
f 338/4 337/4 336/4 335/4 334/4 333/4 332/4 331/4 330/4 329/4
v 0.6480 1.5500 -0.3862
v 0.4830 1.5500 -0.5060
v 0.4200 1.5500 -0.7000
v 0.4830 1.5500 -0.8940
v 0.6480 1.5500 -1.0138
v 0.8520 1.5500 -1.0138
v 1.0170 1.5500 -0.8940
v 1.0800 1.5500 -0.7000
v 1.0170 1.5500 -0.5060
v 0.8520 1.5500 -0.3862
f 348/4 347/4 346/4 345/4 344/4 343/4 342/4 341/4 340/4 339/4
v 0.6480 1.9600 -0.3862
v 0.4830 1.9600 -0.5060
v 0.4830 2.0000 -0.5060
v 0.6480 2.0000 -0.3862
f 352/4 351/4 350/4 349/4
v 0.4830 1.9600 -0.5060
v 0.4200 1.9600 -0.7000
v 0.4200 2.0000 -0.7000
v 0.4830 2.0000 -0.5060
f 356/4 355/4 354/4 353/4
v 0.4200 1.9600 -0.7000
v 0.4830 1.9600 -0.8940
v 0.4830 2.0000 -0.8940
v 0.4200 2.0000 -0.7000
f 360/4 359/4 358/4 357/4
v 0.4830 1.9600 -0.8940
v 0.6480 1.9600 -1.0138
v 0.6480 2.0000 -1.0138
v 0.4830 2.0000 -0.8940
f 364/4 363/4 362/4 361/4
v 0.6480 1.9600 -1.0138
v 0.8520 1.9600 -1.0138
v 0.8520 2.0000 -1.0138
v 0.6480 2.0000 -1.0138
f 368/4 367/4 366/4 365/4
v 0.8520 1.9600 -1.0138
v 1.0170 1.9600 -0.8940
v 1.0170 2.0000 -0.8940
v 0.8520 2.0000 -1.0138
f 372/4 371/4 370/4 369/4
v 1.0170 1.9600 -0.8940
v 1.0800 1.9600 -0.7000
v 1.0800 2.0000 -0.7000
v 1.0170 2.0000 -0.8940
f 376/4 375/4 374/4 373/4
v 1.0800 1.9600 -0.7000
v 1.0170 1.9600 -0.5060
v 1.0170 2.0000 -0.5060
v 1.0800 2.0000 -0.7000
f 380/4 379/4 378/4 377/4
v 1.0170 1.9600 -0.5060
v 0.8520 1.9600 -0.3862
v 0.8520 2.0000 -0.3862
v 1.0170 2.0000 -0.5060
f 384/4 383/4 382/4 381/4
v 0.8520 1.9600 -0.3862
v 0.6480 1.9600 -0.3862
v 0.6480 2.0000 -0.3862
v 0.8520 2.0000 -0.3862
f 388/4 387/4 386/4 385/4
v 0.8520 1.9600 -0.3862
v 1.0170 1.9600 -0.5060
v 1.0800 1.9600 -0.7000
v 1.0170 1.9600 -0.8940
v 0.8520 1.9600 -1.0138
v 0.6480 1.9600 -1.0138
v 0.4830 1.9600 -0.8940
v 0.4200 1.9600 -0.7000
v 0.4830 1.9600 -0.5060
v 0.6480 1.9600 -0.3862
f 398/4 397/4 396/4 395/4 394/4 393/4 392/4 391/4 390/4 389/4
v 0.6480 2.0000 -0.3862
v 0.4830 2.0000 -0.5060
v 0.4200 2.0000 -0.7000
v 0.4830 2.0000 -0.8940
v 0.6480 2.0000 -1.0138
v 0.8520 2.0000 -1.0138
v 1.0170 2.0000 -0.8940
v 1.0800 2.0000 -0.7000
v 1.0170 2.0000 -0.5060
v 0.8520 2.0000 -0.3862
f 408/4 407/4 406/4 405/4 404/4 403/4 402/4 401/4 400/4 399/4
v 0.6480 2.4100 -0.3862
v 0.4830 2.4100 -0.5060
v 0.4830 2.4500 -0.5060
v 0.6480 2.4500 -0.3862
f 412/4 411/4 410/4 409/4
v 0.4830 2.4100 -0.5060
v 0.4200 2.4100 -0.7000
v 0.4200 2.4500 -0.7000
v 0.4830 2.4500 -0.5060
f 416/4 415/4 414/4 413/4
v 0.4200 2.4100 -0.7000
v 0.4830 2.4100 -0.8940
v 0.4830 2.4500 -0.8940
v 0.4200 2.4500 -0.7000
f 420/4 419/4 418/4 417/4
v 0.4830 2.4100 -0.8940
v 0.6480 2.4100 -1.0138
v 0.6480 2.4500 -1.0138
v 0.4830 2.4500 -0.8940
f 424/4 423/4 422/4 421/4
v 0.6480 2.4100 -1.0138
v 0.8520 2.4100 -1.0138
v 0.8520 2.4500 -1.0138
v 0.6480 2.4500 -1.0138
f 428/4 427/4 426/4 425/4
v 0.8520 2.4100 -1.0138
v 1.0170 2.4100 -0.8940
v 1.0170 2.4500 -0.8940
v 0.8520 2.4500 -1.0138
f 432/4 431/4 430/4 429/4
v 1.0170 2.4100 -0.8940
v 1.0800 2.4100 -0.7000
v 1.0800 2.4500 -0.7000
v 1.0170 2.4500 -0.8940
f 436/4 435/4 434/4 433/4
v 1.0800 2.4100 -0.7000
v 1.0170 2.4100 -0.5060
v 1.0170 2.4500 -0.5060
v 1.0800 2.4500 -0.7000
f 440/4 439/4 438/4 437/4
v 1.0170 2.4100 -0.5060
v 0.8520 2.4100 -0.3862
v 0.8520 2.4500 -0.3862
v 1.0170 2.4500 -0.5060
f 444/4 443/4 442/4 441/4
v 0.8520 2.4100 -0.3862
v 0.6480 2.4100 -0.3862
v 0.6480 2.4500 -0.3862
v 0.8520 2.4500 -0.3862
f 448/4 447/4 446/4 445/4
v 0.8520 2.4100 -0.3862
v 1.0170 2.4100 -0.5060
v 1.0800 2.4100 -0.7000
v 1.0170 2.4100 -0.8940
v 0.8520 2.4100 -1.0138
v 0.6480 2.4100 -1.0138
v 0.4830 2.4100 -0.8940
v 0.4200 2.4100 -0.7000
v 0.4830 2.4100 -0.5060
v 0.6480 2.4100 -0.3862
f 458/4 457/4 456/4 455/4 454/4 453/4 452/4 451/4 450/4 449/4
v 0.6480 2.4500 -0.3862
v 0.4830 2.4500 -0.5060
v 0.4200 2.4500 -0.7000
v 0.4830 2.4500 -0.8940
v 0.6480 2.4500 -1.0138
v 0.8520 2.4500 -1.0138
v 1.0170 2.4500 -0.8940
v 1.0800 2.4500 -0.7000
v 1.0170 2.4500 -0.5060
v 0.8520 2.4500 -0.3862
f 468/4 467/4 466/4 465/4 464/4 463/4 462/4 461/4 460/4 459/4
v 0.4150 2.4800 -0.7150
v 0.3850 2.4800 -0.7150
v 0.3850 0.1800 -0.7150
v 0.4150 0.1800 -0.7150
f 472/8 471/8 470/8 469/8
v 0.4150 0.1800 -0.6850
v 0.3850 0.1800 -0.6850
v 0.3850 2.4800 -0.6850
v 0.4150 2.4800 -0.6850
f 476/8 475/8 474/8 473/8
v 0.4150 0.1800 -0.7150
v 0.4150 0.1800 -0.6850
v 0.4150 2.4800 -0.6850
v 0.4150 2.4800 -0.7150
f 480/8 479/8 478/8 477/8
v 0.3850 2.4800 -0.7150
v 0.3850 2.4800 -0.6850
v 0.3850 0.1800 -0.6850
v 0.3850 0.1800 -0.7150
f 484/8 483/8 482/8 481/8
v 0.3850 0.1800 -0.7150
v 0.3850 0.1800 -0.6850
v 0.4150 0.1800 -0.6850
v 0.4150 0.1800 -0.7150
f 488/8 487/8 486/8 485/8
v 0.4150 2.4800 -0.7150
v 0.4150 2.4800 -0.6850
v 0.3850 2.4800 -0.6850
v 0.3850 2.4800 -0.7150
f 492/8 491/8 490/8 489/8
v -0.0242 0.1600 -0.5717
v -0.1442 0.1600 -0.6589
v -0.1442 2.0600 -0.6589
v -0.0242 2.0600 -0.5717
f 496/7 495/7 494/7 493/7
v -0.1442 0.1600 -0.6589
v -0.1900 0.1600 -0.8000
v -0.1900 2.0600 -0.8000
v -0.1442 2.0600 -0.6589
f 500/7 499/7 498/7 497/7
v -0.1900 0.1600 -0.8000
v -0.1442 0.1600 -0.9411
v -0.1442 2.0600 -0.9411
v -0.1900 2.0600 -0.8000
f 504/7 503/7 502/7 501/7
v -0.1442 0.1600 -0.9411
v -0.0242 0.1600 -1.0283
v -0.0242 2.0600 -1.0283
v -0.1442 2.0600 -0.9411
f 508/7 507/7 506/7 505/7
v -0.0242 0.1600 -1.0283
v 0.1242 0.1600 -1.0283
v 0.1242 2.0600 -1.0283
v -0.0242 2.0600 -1.0283
f 512/7 511/7 510/7 509/7
v 0.1242 0.1600 -1.0283
v 0.2442 0.1600 -0.9411
v 0.2442 2.0600 -0.9411
v 0.1242 2.0600 -1.0283
f 516/7 515/7 514/7 513/7
v 0.2442 0.1600 -0.9411
v 0.2900 0.1600 -0.8000
v 0.2900 2.0600 -0.8000
v 0.2442 2.0600 -0.9411
f 520/7 519/7 518/7 517/7
v 0.2900 0.1600 -0.8000
v 0.2442 0.1600 -0.6589
v 0.2442 2.0600 -0.6589
v 0.2900 2.0600 -0.8000
f 524/7 523/7 522/7 521/7
v 0.2442 0.1600 -0.6589
v 0.1242 0.1600 -0.5717
v 0.1242 2.0600 -0.5717
v 0.2442 2.0600 -0.6589
f 528/7 527/7 526/7 525/7
v 0.1242 0.1600 -0.5717
v -0.0242 0.1600 -0.5717
v -0.0242 2.0600 -0.5717
v 0.1242 2.0600 -0.5717
f 532/7 531/7 530/7 529/7
v 0.1242 0.1600 -0.5717
v 0.2442 0.1600 -0.6589
v 0.2900 0.1600 -0.8000
v 0.2442 0.1600 -0.9411
v 0.1242 0.1600 -1.0283
v -0.0242 0.1600 -1.0283
v -0.1442 0.1600 -0.9411
v -0.1900 0.1600 -0.8000
v -0.1442 0.1600 -0.6589
v -0.0242 0.1600 -0.5717
f 542/7 541/7 540/7 539/7 538/7 537/7 536/7 535/7 534/7 533/7
v -0.0242 2.0600 -0.5717
v -0.1442 2.0600 -0.6589
v -0.1900 2.0600 -0.8000
v -0.1442 2.0600 -0.9411
v -0.0242 2.0600 -1.0283
v 0.1242 2.0600 -1.0283
v 0.2442 2.0600 -0.9411
v 0.2900 2.0600 -0.8000
v 0.2442 2.0600 -0.6589
v 0.1242 2.0600 -0.5717
f 552/7 551/7 550/7 549/7 548/7 547/7 546/7 545/7 544/7 543/7
v -0.0334 2.0600 -0.5432
v -0.1684 2.0600 -0.6413
v 0.0095 2.2800 -0.7706
v 0.0345 2.2800 -0.7524
f 556/4 555/4 554/4 553/4
v -0.1684 2.0600 -0.6413
v -0.2200 2.0600 -0.8000
v -0.0000 2.2800 -0.8000
v 0.0095 2.2800 -0.7706
f 560/4 559/4 558/4 557/4
v -0.2200 2.0600 -0.8000
v -0.1684 2.0600 -0.9587
v 0.0095 2.2800 -0.8294
v -0.0000 2.2800 -0.8000
f 564/4 563/4 562/4 561/4
v -0.1684 2.0600 -0.9587
v -0.0334 2.0600 -1.0568
v 0.0345 2.2800 -0.8476
v 0.0095 2.2800 -0.8294
f 568/4 567/4 566/4 565/4
v -0.0334 2.0600 -1.0568
v 0.1334 2.0600 -1.0568
v 0.0655 2.2800 -0.8476
v 0.0345 2.2800 -0.8476
f 572/4 571/4 570/4 569/4
v 0.1334 2.0600 -1.0568
v 0.2684 2.0600 -0.9587
v 0.0905 2.2800 -0.8294
v 0.0655 2.2800 -0.8476
f 576/4 575/4 574/4 573/4
v 0.2684 2.0600 -0.9587
v 0.3200 2.0600 -0.8000
v 0.1000 2.2800 -0.8000
v 0.0905 2.2800 -0.8294
f 580/4 579/4 578/4 577/4
v 0.3200 2.0600 -0.8000
v 0.2684 2.0600 -0.6413
v 0.0905 2.2800 -0.7706
v 0.1000 2.2800 -0.8000
f 584/4 583/4 582/4 581/4
v 0.2684 2.0600 -0.6413
v 0.1334 2.0600 -0.5432
v 0.0655 2.2800 -0.7524
v 0.0905 2.2800 -0.7706
f 588/4 587/4 586/4 585/4
v 0.1334 2.0600 -0.5432
v -0.0334 2.0600 -0.5432
v 0.0345 2.2800 -0.7524
v 0.0655 2.2800 -0.7524
f 592/4 591/4 590/4 589/4
v 0.1334 2.0600 -0.5432
v 0.2684 2.0600 -0.6413
v 0.3200 2.0600 -0.8000
v 0.2684 2.0600 -0.9587
v 0.1334 2.0600 -1.0568
v -0.0334 2.0600 -1.0568
v -0.1684 2.0600 -0.9587
v -0.2200 2.0600 -0.8000
v -0.1684 2.0600 -0.6413
v -0.0334 2.0600 -0.5432
f 602/4 601/4 600/4 599/4 598/4 597/4 596/4 595/4 594/4 593/4
v 0.0345 2.2800 -0.7524
v 0.0095 2.2800 -0.7706
v -0.0000 2.2800 -0.8000
v 0.0095 2.2800 -0.8294
v 0.0345 2.2800 -0.8476
v 0.0655 2.2800 -0.8476
v 0.0905 2.2800 -0.8294
v 0.1000 2.2800 -0.8000
v 0.0905 2.2800 -0.7706
v 0.0655 2.2800 -0.7524
f 612/4 611/4 610/4 609/4 608/4 607/4 606/4 605/4 604/4 603/4
v -0.0334 0.6100 -0.5432
v -0.1684 0.6100 -0.6413
v -0.1684 0.6500 -0.6413
v -0.0334 0.6500 -0.5432
f 616/4 615/4 614/4 613/4
v -0.1684 0.6100 -0.6413
v -0.2200 0.6100 -0.8000
v -0.2200 0.6500 -0.8000
v -0.1684 0.6500 -0.6413
f 620/4 619/4 618/4 617/4
v -0.2200 0.6100 -0.8000
v -0.1684 0.6100 -0.9587
v -0.1684 0.6500 -0.9587
v -0.2200 0.6500 -0.8000
f 624/4 623/4 622/4 621/4
v -0.1684 0.6100 -0.9587
v -0.0334 0.6100 -1.0568
v -0.0334 0.6500 -1.0568
v -0.1684 0.6500 -0.9587
f 628/4 627/4 626/4 625/4
v -0.0334 0.6100 -1.0568
v 0.1334 0.6100 -1.0568
v 0.1334 0.6500 -1.0568
v -0.0334 0.6500 -1.0568
f 632/4 631/4 630/4 629/4
v 0.1334 0.6100 -1.0568
v 0.2684 0.6100 -0.9587
v 0.2684 0.6500 -0.9587
v 0.1334 0.6500 -1.0568
f 636/4 635/4 634/4 633/4
v 0.2684 0.6100 -0.9587
v 0.3200 0.6100 -0.8000
v 0.3200 0.6500 -0.8000
v 0.2684 0.6500 -0.9587
f 640/4 639/4 638/4 637/4
v 0.3200 0.6100 -0.8000
v 0.2684 0.6100 -0.6413
v 0.2684 0.6500 -0.6413
v 0.3200 0.6500 -0.8000
f 644/4 643/4 642/4 641/4
v 0.2684 0.6100 -0.6413
v 0.1334 0.6100 -0.5432
v 0.1334 0.6500 -0.5432
v 0.2684 0.6500 -0.6413
f 648/4 647/4 646/4 645/4
v 0.1334 0.6100 -0.5432
v -0.0334 0.6100 -0.5432
v -0.0334 0.6500 -0.5432
v 0.1334 0.6500 -0.5432
f 652/4 651/4 650/4 649/4
v 0.1334 0.6100 -0.5432
v 0.2684 0.6100 -0.6413
v 0.3200 0.6100 -0.8000
v 0.2684 0.6100 -0.9587
v 0.1334 0.6100 -1.0568
v -0.0334 0.6100 -1.0568
v -0.1684 0.6100 -0.9587
v -0.2200 0.6100 -0.8000
v -0.1684 0.6100 -0.6413
v -0.0334 0.6100 -0.5432
f 662/4 661/4 660/4 659/4 658/4 657/4 656/4 655/4 654/4 653/4
v -0.0334 0.6500 -0.5432
v -0.1684 0.6500 -0.6413
v -0.2200 0.6500 -0.8000
v -0.1684 0.6500 -0.9587
v -0.0334 0.6500 -1.0568
v 0.1334 0.6500 -1.0568
v 0.2684 0.6500 -0.9587
v 0.3200 0.6500 -0.8000
v 0.2684 0.6500 -0.6413
v 0.1334 0.6500 -0.5432
f 672/4 671/4 670/4 669/4 668/4 667/4 666/4 665/4 664/4 663/4
v -0.0334 1.0600 -0.5432
v -0.1684 1.0600 -0.6413
v -0.1684 1.1000 -0.6413
v -0.0334 1.1000 -0.5432
f 676/4 675/4 674/4 673/4
v -0.1684 1.0600 -0.6413
v -0.2200 1.0600 -0.8000
v -0.2200 1.1000 -0.8000
v -0.1684 1.1000 -0.6413
f 680/4 679/4 678/4 677/4
v -0.2200 1.0600 -0.8000
v -0.1684 1.0600 -0.9587
v -0.1684 1.1000 -0.9587
v -0.2200 1.1000 -0.8000
f 684/4 683/4 682/4 681/4
v -0.1684 1.0600 -0.9587
v -0.0334 1.0600 -1.0568
v -0.0334 1.1000 -1.0568
v -0.1684 1.1000 -0.9587
f 688/4 687/4 686/4 685/4
v -0.0334 1.0600 -1.0568
v 0.1334 1.0600 -1.0568
v 0.1334 1.1000 -1.0568
v -0.0334 1.1000 -1.0568
f 692/4 691/4 690/4 689/4
v 0.1334 1.0600 -1.0568
v 0.2684 1.0600 -0.9587
v 0.2684 1.1000 -0.9587
v 0.1334 1.1000 -1.0568
f 696/4 695/4 694/4 693/4
v 0.2684 1.0600 -0.9587
v 0.3200 1.0600 -0.8000
v 0.3200 1.1000 -0.8000
v 0.2684 1.1000 -0.9587
f 700/4 699/4 698/4 697/4
v 0.3200 1.0600 -0.8000
v 0.2684 1.0600 -0.6413
v 0.2684 1.1000 -0.6413
v 0.3200 1.1000 -0.8000
f 704/4 703/4 702/4 701/4
v 0.2684 1.0600 -0.6413
v 0.1334 1.0600 -0.5432
v 0.1334 1.1000 -0.5432
v 0.2684 1.1000 -0.6413
f 708/4 707/4 706/4 705/4
v 0.1334 1.0600 -0.5432
v -0.0334 1.0600 -0.5432
v -0.0334 1.1000 -0.5432
v 0.1334 1.1000 -0.5432
f 712/4 711/4 710/4 709/4
v 0.1334 1.0600 -0.5432
v 0.2684 1.0600 -0.6413
v 0.3200 1.0600 -0.8000
v 0.2684 1.0600 -0.9587
v 0.1334 1.0600 -1.0568
v -0.0334 1.0600 -1.0568
v -0.1684 1.0600 -0.9587
v -0.2200 1.0600 -0.8000
v -0.1684 1.0600 -0.6413
v -0.0334 1.0600 -0.5432
f 722/4 721/4 720/4 719/4 718/4 717/4 716/4 715/4 714/4 713/4
v -0.0334 1.1000 -0.5432
v -0.1684 1.1000 -0.6413
v -0.2200 1.1000 -0.8000
v -0.1684 1.1000 -0.9587
v -0.0334 1.1000 -1.0568
v 0.1334 1.1000 -1.0568
v 0.2684 1.1000 -0.9587
v 0.3200 1.1000 -0.8000
v 0.2684 1.1000 -0.6413
v 0.1334 1.1000 -0.5432
f 732/4 731/4 730/4 729/4 728/4 727/4 726/4 725/4 724/4 723/4
v -0.0334 1.5100 -0.5432
v -0.1684 1.5100 -0.6413
v -0.1684 1.5500 -0.6413
v -0.0334 1.5500 -0.5432
f 736/4 735/4 734/4 733/4
v -0.1684 1.5100 -0.6413
v -0.2200 1.5100 -0.8000
v -0.2200 1.5500 -0.8000
v -0.1684 1.5500 -0.6413
f 740/4 739/4 738/4 737/4
v -0.2200 1.5100 -0.8000
v -0.1684 1.5100 -0.9587
v -0.1684 1.5500 -0.9587
v -0.2200 1.5500 -0.8000
f 744/4 743/4 742/4 741/4
v -0.1684 1.5100 -0.9587
v -0.0334 1.5100 -1.0568
v -0.0334 1.5500 -1.0568
v -0.1684 1.5500 -0.9587
f 748/4 747/4 746/4 745/4
v -0.0334 1.5100 -1.0568
v 0.1334 1.5100 -1.0568
v 0.1334 1.5500 -1.0568
v -0.0334 1.5500 -1.0568
f 752/4 751/4 750/4 749/4
v 0.1334 1.5100 -1.0568
v 0.2684 1.5100 -0.9587
v 0.2684 1.5500 -0.9587
v 0.1334 1.5500 -1.0568
f 756/4 755/4 754/4 753/4
v 0.2684 1.5100 -0.9587
v 0.3200 1.5100 -0.8000
v 0.3200 1.5500 -0.8000
v 0.2684 1.5500 -0.9587
f 760/4 759/4 758/4 757/4
v 0.3200 1.5100 -0.8000
v 0.2684 1.5100 -0.6413
v 0.2684 1.5500 -0.6413
v 0.3200 1.5500 -0.8000
f 764/4 763/4 762/4 761/4
v 0.2684 1.5100 -0.6413
v 0.1334 1.5100 -0.5432
v 0.1334 1.5500 -0.5432
v 0.2684 1.5500 -0.6413
f 768/4 767/4 766/4 765/4
v 0.1334 1.5100 -0.5432
v -0.0334 1.5100 -0.5432
v -0.0334 1.5500 -0.5432
v 0.1334 1.5500 -0.5432
f 772/4 771/4 770/4 769/4
v 0.1334 1.5100 -0.5432
v 0.2684 1.5100 -0.6413
v 0.3200 1.5100 -0.8000
v 0.2684 1.5100 -0.9587
v 0.1334 1.5100 -1.0568
v -0.0334 1.5100 -1.0568
v -0.1684 1.5100 -0.9587
v -0.2200 1.5100 -0.8000
v -0.1684 1.5100 -0.6413
v -0.0334 1.5100 -0.5432
f 782/4 781/4 780/4 779/4 778/4 777/4 776/4 775/4 774/4 773/4
v -0.0334 1.5500 -0.5432
v -0.1684 1.5500 -0.6413
v -0.2200 1.5500 -0.8000
v -0.1684 1.5500 -0.9587
v -0.0334 1.5500 -1.0568
v 0.1334 1.5500 -1.0568
v 0.2684 1.5500 -0.9587
v 0.3200 1.5500 -0.8000
v 0.2684 1.5500 -0.6413
v 0.1334 1.5500 -0.5432
f 792/4 791/4 790/4 789/4 788/4 787/4 786/4 785/4 784/4 783/4
v -0.0334 1.9600 -0.5432
v -0.1684 1.9600 -0.6413
v -0.1684 2.0000 -0.6413
v -0.0334 2.0000 -0.5432
f 796/4 795/4 794/4 793/4
v -0.1684 1.9600 -0.6413
v -0.2200 1.9600 -0.8000
v -0.2200 2.0000 -0.8000
v -0.1684 2.0000 -0.6413
f 800/4 799/4 798/4 797/4
v -0.2200 1.9600 -0.8000
v -0.1684 1.9600 -0.9587
v -0.1684 2.0000 -0.9587
v -0.2200 2.0000 -0.8000
f 804/4 803/4 802/4 801/4
v -0.1684 1.9600 -0.9587
v -0.0334 1.9600 -1.0568
v -0.0334 2.0000 -1.0568
v -0.1684 2.0000 -0.9587
f 808/4 807/4 806/4 805/4
v -0.0334 1.9600 -1.0568
v 0.1334 1.9600 -1.0568
v 0.1334 2.0000 -1.0568
v -0.0334 2.0000 -1.0568
f 812/4 811/4 810/4 809/4
v 0.1334 1.9600 -1.0568
v 0.2684 1.9600 -0.9587
v 0.2684 2.0000 -0.9587
v 0.1334 2.0000 -1.0568
f 816/4 815/4 814/4 813/4
v 0.2684 1.9600 -0.9587
v 0.3200 1.9600 -0.8000
v 0.3200 2.0000 -0.8000
v 0.2684 2.0000 -0.9587
f 820/4 819/4 818/4 817/4
v 0.3200 1.9600 -0.8000
v 0.2684 1.9600 -0.6413
v 0.2684 2.0000 -0.6413
v 0.3200 2.0000 -0.8000
f 824/4 823/4 822/4 821/4
v 0.2684 1.9600 -0.6413
v 0.1334 1.9600 -0.5432
v 0.1334 2.0000 -0.5432
v 0.2684 2.0000 -0.6413
f 828/4 827/4 826/4 825/4
v 0.1334 1.9600 -0.5432
v -0.0334 1.9600 -0.5432
v -0.0334 2.0000 -0.5432
v 0.1334 2.0000 -0.5432
f 832/4 831/4 830/4 829/4
v 0.1334 1.9600 -0.5432
v 0.2684 1.9600 -0.6413
v 0.3200 1.9600 -0.8000
v 0.2684 1.9600 -0.9587
v 0.1334 1.9600 -1.0568
v -0.0334 1.9600 -1.0568
v -0.1684 1.9600 -0.9587
v -0.2200 1.9600 -0.8000
v -0.1684 1.9600 -0.6413
v -0.0334 1.9600 -0.5432
f 842/4 841/4 840/4 839/4 838/4 837/4 836/4 835/4 834/4 833/4
v -0.0334 2.0000 -0.5432
v -0.1684 2.0000 -0.6413
v -0.2200 2.0000 -0.8000
v -0.1684 2.0000 -0.9587
v -0.0334 2.0000 -1.0568
v 0.1334 2.0000 -1.0568
v 0.2684 2.0000 -0.9587
v 0.3200 2.0000 -0.8000
v 0.2684 2.0000 -0.6413
v 0.1334 2.0000 -0.5432
f 852/4 851/4 850/4 849/4 848/4 847/4 846/4 845/4 844/4 843/4
v -0.2250 1.9800 -0.8150
v -0.2550 1.9800 -0.8150
v -0.2550 0.1800 -0.8150
v -0.2250 0.1800 -0.8150
f 856/8 855/8 854/8 853/8
v -0.2250 0.1800 -0.7850
v -0.2550 0.1800 -0.7850
v -0.2550 1.9800 -0.7850
v -0.2250 1.9800 -0.7850
f 860/8 859/8 858/8 857/8
v -0.2250 0.1800 -0.8150
v -0.2250 0.1800 -0.7850
v -0.2250 1.9800 -0.7850
v -0.2250 1.9800 -0.8150
f 864/8 863/8 862/8 861/8
v -0.2550 1.9800 -0.8150
v -0.2550 1.9800 -0.7850
v -0.2550 0.1800 -0.7850
v -0.2550 0.1800 -0.8150
f 868/8 867/8 866/8 865/8
v -0.2550 0.1800 -0.8150
v -0.2550 0.1800 -0.7850
v -0.2250 0.1800 -0.7850
v -0.2250 0.1800 -0.8150
f 872/8 871/8 870/8 869/8
v -0.2250 1.9800 -0.8150
v -0.2250 1.9800 -0.7850
v -0.2550 1.9800 -0.7850
v -0.2550 1.9800 -0.8150
f 876/8 875/8 874/8 873/8
v -0.1000 0.0800 0.9500
v -0.1000 0.9800 0.9500
v -0.1000 0.9800 -0.0500
v -0.1000 0.0800 -0.0500
f 880/10 879/10 878/10 877/10
v -1.2000 0.0800 -0.0500
v -1.2000 0.9800 -0.0500
v -1.2000 0.9800 0.9500
v -1.2000 0.0800 0.9500
f 884/10 883/10 882/10 881/10
v -0.1000 0.0800 -0.0500
v -1.2000 0.0800 -0.0500
v -1.2000 0.0800 0.9500
v -0.1000 0.0800 0.9500
f 888/10 887/10 886/10 885/10
v -0.1000 0.9800 0.9500
v -1.2000 0.9800 0.9500
v -1.2000 0.9800 -0.0500
v -0.1000 0.9800 -0.0500
f 892/10 891/10 890/10 889/10
v -0.1000 0.9800 -0.0500
v -1.2000 0.9800 -0.0500
v -1.2000 0.0800 -0.0500
v -0.1000 0.0800 -0.0500
f 896/10 895/10 894/10 893/10
v -0.1000 0.0800 0.9500
v -1.2000 0.0800 0.9500
v -1.2000 0.9800 0.9500
v -0.1000 0.9800 0.9500
f 900/10 899/10 898/10 897/10
v -0.6000 1.2300 0.4500
v -0.7000 1.2300 0.4500
v -1.2300 0.9800 -0.0800
v -0.0700 0.9800 -0.0800
f 904/4 903/4 902/4 901/4
v -0.7000 1.2300 0.4500
v -0.6000 1.2300 0.4500
v -0.0700 0.9800 0.9800
v -1.2300 0.9800 0.9800
f 908/4 907/4 906/4 905/4
v -0.7000 1.2300 0.4500
v -1.2300 0.9800 0.9800
v -1.2300 0.9800 -0.0800
f 911/4 910/4 909/4
v -0.6000 1.2300 0.4500
v -0.0700 0.9800 -0.0800
v -0.0700 0.9800 0.9800
f 914/4 913/4 912/4
v -0.0700 0.9800 -0.0800
v -1.2300 0.9800 -0.0800
v -1.2300 0.9800 0.9800
v -0.0700 0.9800 0.9800
f 918/4 917/4 916/4 915/4
v -1.1950 0.2700 0.7000
v -1.1950 0.4900 0.7000
v -1.1950 0.4900 0.2000
v -1.1950 0.2700 0.2000
f 922/17 921/17 920/17 919/17
v -1.2150 0.2700 0.2000
v -1.2150 0.4900 0.2000
v -1.2150 0.4900 0.7000
v -1.2150 0.2700 0.7000
f 926/17 925/17 924/17 923/17
v -1.1950 0.2700 0.2000
v -1.2150 0.2700 0.2000
v -1.2150 0.2700 0.7000
v -1.1950 0.2700 0.7000
f 930/17 929/17 928/17 927/17
v -1.1950 0.4900 0.7000
v -1.2150 0.4900 0.7000
v -1.2150 0.4900 0.2000
v -1.1950 0.4900 0.2000
f 934/17 933/17 932/17 931/17
v -1.1950 0.4900 0.2000
v -1.2150 0.4900 0.2000
v -1.2150 0.2700 0.2000
v -1.1950 0.2700 0.2000
f 938/17 937/17 936/17 935/17
v -1.1950 0.2700 0.7000
v -1.2150 0.2700 0.7000
v -1.2150 0.4900 0.7000
v -1.1950 0.4900 0.7000
f 942/17 941/17 940/17 939/17
v -0.9844 1.0800 0.2831
v -1.0331 1.0800 0.2344
v -1.0331 1.8800 0.2344
v -0.9844 1.8800 0.2831
f 946/7 945/7 944/7 943/7
v -1.0331 1.0800 0.2344
v -1.0331 1.0800 0.1656
v -1.0331 1.8800 0.1656
v -1.0331 1.8800 0.2344
f 950/7 949/7 948/7 947/7
v -1.0331 1.0800 0.1656
v -0.9844 1.0800 0.1169
v -0.9844 1.8800 0.1169
v -1.0331 1.8800 0.1656
f 954/7 953/7 952/7 951/7
v -0.9844 1.0800 0.1169
v -0.9156 1.0800 0.1169
v -0.9156 1.8800 0.1169
v -0.9844 1.8800 0.1169
f 958/7 957/7 956/7 955/7
v -0.9156 1.0800 0.1169
v -0.8669 1.0800 0.1656
v -0.8669 1.8800 0.1656
v -0.9156 1.8800 0.1169
f 962/7 961/7 960/7 959/7
v -0.8669 1.0800 0.1656
v -0.8669 1.0800 0.2344
v -0.8669 1.8800 0.2344
v -0.8669 1.8800 0.1656
f 966/7 965/7 964/7 963/7
v -0.8669 1.0800 0.2344
v -0.9156 1.0800 0.2831
v -0.9156 1.8800 0.2831
v -0.8669 1.8800 0.2344
f 970/7 969/7 968/7 967/7
v -0.9156 1.0800 0.2831
v -0.9844 1.0800 0.2831
v -0.9844 1.8800 0.2831
v -0.9156 1.8800 0.2831
f 974/7 973/7 972/7 971/7
v -0.9156 1.0800 0.2831
v -0.8669 1.0800 0.2344
v -0.8669 1.0800 0.1656
v -0.9156 1.0800 0.1169
v -0.9844 1.0800 0.1169
v -1.0331 1.0800 0.1656
v -1.0331 1.0800 0.2344
v -0.9844 1.0800 0.2831
f 982/7 981/7 980/7 979/7 978/7 977/7 976/7 975/7
v -0.9844 1.8800 0.2831
v -1.0331 1.8800 0.2344
v -1.0331 1.8800 0.1656
v -0.9844 1.8800 0.1169
v -0.9156 1.8800 0.1169
v -0.8669 1.8800 0.1656
v -0.8669 1.8800 0.2344
v -0.9156 1.8800 0.2831
f 990/7 989/7 988/7 987/7 986/7 985/7 984/7 983/7
v 0.6206 0.1600 1.2330
v 0.3964 0.1600 1.1036
v 0.3964 0.7100 1.1036
v 0.6206 0.7100 1.2330
f 994/15 993/15 992/15 991/15
v 0.3964 0.1600 1.1036
v 0.2670 0.1600 0.8794
v 0.2670 0.7100 0.8794
v 0.3964 0.7100 1.1036
f 998/15 997/15 996/15 995/15
v 0.2670 0.1600 0.8794
v 0.2670 0.1600 0.6206
v 0.2670 0.7100 0.6206
v 0.2670 0.7100 0.8794
f 1002/15 1001/15 1000/15 999/15
v 0.2670 0.1600 0.6206
v 0.3964 0.1600 0.3964
v 0.3964 0.7100 0.3964
v 0.2670 0.7100 0.6206
f 1006/15 1005/15 1004/15 1003/15
v 0.3964 0.1600 0.3964
v 0.6206 0.1600 0.2670
v 0.6206 0.7100 0.2670
v 0.3964 0.7100 0.3964
f 1010/15 1009/15 1008/15 1007/15
v 0.6206 0.1600 0.2670
v 0.8794 0.1600 0.2670
v 0.8794 0.7100 0.2670
v 0.6206 0.7100 0.2670
f 1014/15 1013/15 1012/15 1011/15
v 0.8794 0.1600 0.2670
v 1.1036 0.1600 0.3964
v 1.1036 0.7100 0.3964
v 0.8794 0.7100 0.2670
f 1018/15 1017/15 1016/15 1015/15
v 1.1036 0.1600 0.3964
v 1.2330 0.1600 0.6206
v 1.2330 0.7100 0.6206
v 1.1036 0.7100 0.3964
f 1022/15 1021/15 1020/15 1019/15
v 1.2330 0.1600 0.6206
v 1.2330 0.1600 0.8794
v 1.2330 0.7100 0.8794
v 1.2330 0.7100 0.6206
f 1026/15 1025/15 1024/15 1023/15
v 1.2330 0.1600 0.8794
v 1.1036 0.1600 1.1036
v 1.1036 0.7100 1.1036
v 1.2330 0.7100 0.8794
f 1030/15 1029/15 1028/15 1027/15
v 1.1036 0.1600 1.1036
v 0.8794 0.1600 1.2330
v 0.8794 0.7100 1.2330
v 1.1036 0.7100 1.1036
f 1034/15 1033/15 1032/15 1031/15
v 0.8794 0.1600 1.2330
v 0.6206 0.1600 1.2330
v 0.6206 0.7100 1.2330
v 0.8794 0.7100 1.2330
f 1038/15 1037/15 1036/15 1035/15
v 0.8794 0.1600 1.2330
v 1.1036 0.1600 1.1036
v 1.2330 0.1600 0.8794
v 1.2330 0.1600 0.6206
v 1.1036 0.1600 0.3964
v 0.8794 0.1600 0.2670
v 0.6206 0.1600 0.2670
v 0.3964 0.1600 0.3964
v 0.2670 0.1600 0.6206
v 0.2670 0.1600 0.8794
v 0.3964 0.1600 1.1036
v 0.6206 0.1600 1.2330
f 1050/15 1049/15 1048/15 1047/15 1046/15 1045/15 1044/15 1043/15 1042/15 1041/15 1040/15 1039/15
v 0.6206 0.7100 1.2330
v 0.3964 0.7100 1.1036
v 0.2670 0.7100 0.8794
v 0.2670 0.7100 0.6206
v 0.3964 0.7100 0.3964
v 0.6206 0.7100 0.2670
v 0.8794 0.7100 0.2670
v 1.1036 0.7100 0.3964
v 1.2330 0.7100 0.6206
v 1.2330 0.7100 0.8794
v 1.1036 0.7100 1.1036
v 0.8794 0.7100 1.2330
f 1062/15 1061/15 1060/15 1059/15 1058/15 1057/15 1056/15 1055/15 1054/15 1053/15 1052/15 1051/15
v 0.6154 0.7100 1.2523
v 0.3823 0.7100 1.1177
v 0.5379 0.8300 0.9621
v 0.6724 0.8300 1.0398
f 1066/15 1065/15 1064/15 1063/15
v 0.3823 0.7100 1.1177
v 0.2477 0.7100 0.8846
v 0.4602 0.8300 0.8276
v 0.5379 0.8300 0.9621
f 1070/15 1069/15 1068/15 1067/15
v 0.2477 0.7100 0.8846
v 0.2477 0.7100 0.6154
v 0.4602 0.8300 0.6724
v 0.4602 0.8300 0.8276
f 1074/15 1073/15 1072/15 1071/15
v 0.2477 0.7100 0.6154
v 0.3823 0.7100 0.3823
v 0.5379 0.8300 0.5379
v 0.4602 0.8300 0.6724
f 1078/15 1077/15 1076/15 1075/15
v 0.3823 0.7100 0.3823
v 0.6154 0.7100 0.2477
v 0.6724 0.8300 0.4602
v 0.5379 0.8300 0.5379
f 1082/15 1081/15 1080/15 1079/15
v 0.6154 0.7100 0.2477
v 0.8846 0.7100 0.2477
v 0.8276 0.8300 0.4602
v 0.6724 0.8300 0.4602
f 1086/15 1085/15 1084/15 1083/15
v 0.8846 0.7100 0.2477
v 1.1177 0.7100 0.3823
v 0.9621 0.8300 0.5379
v 0.8276 0.8300 0.4602
f 1090/15 1089/15 1088/15 1087/15
v 1.1177 0.7100 0.3823
v 1.2523 0.7100 0.6154
v 1.0398 0.8300 0.6724
v 0.9621 0.8300 0.5379
f 1094/15 1093/15 1092/15 1091/15
v 1.2523 0.7100 0.6154
v 1.2523 0.7100 0.8846
v 1.0398 0.8300 0.8276
v 1.0398 0.8300 0.6724
f 1098/15 1097/15 1096/15 1095/15
v 1.2523 0.7100 0.8846
v 1.1177 0.7100 1.1177
v 0.9621 0.8300 0.9621
v 1.0398 0.8300 0.8276
f 1102/15 1101/15 1100/15 1099/15
v 1.1177 0.7100 1.1177
v 0.8846 0.7100 1.2523
v 0.8276 0.8300 1.0398
v 0.9621 0.8300 0.9621
f 1106/15 1105/15 1104/15 1103/15
v 0.8846 0.7100 1.2523
v 0.6154 0.7100 1.2523
v 0.6724 0.8300 1.0398
v 0.8276 0.8300 1.0398
f 1110/15 1109/15 1108/15 1107/15
v 0.8846 0.7100 1.2523
v 1.1177 0.7100 1.1177
v 1.2523 0.7100 0.8846
v 1.2523 0.7100 0.6154
v 1.1177 0.7100 0.3823
v 0.8846 0.7100 0.2477
v 0.6154 0.7100 0.2477
v 0.3823 0.7100 0.3823
v 0.2477 0.7100 0.6154
v 0.2477 0.7100 0.8846
v 0.3823 0.7100 1.1177
v 0.6154 0.7100 1.2523
f 1122/15 1121/15 1120/15 1119/15 1118/15 1117/15 1116/15 1115/15 1114/15 1113/15 1112/15 1111/15
v 0.6724 0.8300 1.0398
v 0.5379 0.8300 0.9621
v 0.4602 0.8300 0.8276
v 0.4602 0.8300 0.6724
v 0.5379 0.8300 0.5379
v 0.6724 0.8300 0.4602
v 0.8276 0.8300 0.4602
v 0.9621 0.8300 0.5379
v 1.0398 0.8300 0.6724
v 1.0398 0.8300 0.8276
v 0.9621 0.8300 0.9621
v 0.8276 0.8300 1.0398
f 1134/15 1133/15 1132/15 1131/15 1130/15 1129/15 1128/15 1127/15 1126/15 1125/15 1124/15 1123/15
v 0.6180 0.4300 1.2426
v 0.3894 0.4300 1.1106
v 0.3894 0.4800 1.1106
v 0.6180 0.4800 1.2426
f 1138/8 1137/8 1136/8 1135/8
v 0.3894 0.4300 1.1106
v 0.2574 0.4300 0.8820
v 0.2574 0.4800 0.8820
v 0.3894 0.4800 1.1106
f 1142/8 1141/8 1140/8 1139/8
v 0.2574 0.4300 0.8820
v 0.2574 0.4300 0.6180
v 0.2574 0.4800 0.6180
v 0.2574 0.4800 0.8820
f 1146/8 1145/8 1144/8 1143/8
v 0.2574 0.4300 0.6180
v 0.3894 0.4300 0.3894
v 0.3894 0.4800 0.3894
v 0.2574 0.4800 0.6180
f 1150/8 1149/8 1148/8 1147/8
v 0.3894 0.4300 0.3894
v 0.6180 0.4300 0.2574
v 0.6180 0.4800 0.2574
v 0.3894 0.4800 0.3894
f 1154/8 1153/8 1152/8 1151/8
v 0.6180 0.4300 0.2574
v 0.8820 0.4300 0.2574
v 0.8820 0.4800 0.2574
v 0.6180 0.4800 0.2574
f 1158/8 1157/8 1156/8 1155/8
v 0.8820 0.4300 0.2574
v 1.1106 0.4300 0.3894
v 1.1106 0.4800 0.3894
v 0.8820 0.4800 0.2574
f 1162/8 1161/8 1160/8 1159/8
v 1.1106 0.4300 0.3894
v 1.2426 0.4300 0.6180
v 1.2426 0.4800 0.6180
v 1.1106 0.4800 0.3894
f 1166/8 1165/8 1164/8 1163/8
v 1.2426 0.4300 0.6180
v 1.2426 0.4300 0.8820
v 1.2426 0.4800 0.8820
v 1.2426 0.4800 0.6180
f 1170/8 1169/8 1168/8 1167/8
v 1.2426 0.4300 0.8820
v 1.1106 0.4300 1.1106
v 1.1106 0.4800 1.1106
v 1.2426 0.4800 0.8820
f 1174/8 1173/8 1172/8 1171/8
v 1.1106 0.4300 1.1106
v 0.8820 0.4300 1.2426
v 0.8820 0.4800 1.2426
v 1.1106 0.4800 1.1106
f 1178/8 1177/8 1176/8 1175/8
v 0.8820 0.4300 1.2426
v 0.6180 0.4300 1.2426
v 0.6180 0.4800 1.2426
v 0.8820 0.4800 1.2426
f 1182/8 1181/8 1180/8 1179/8
v 0.8820 0.4300 1.2426
v 1.1106 0.4300 1.1106
v 1.2426 0.4300 0.8820
v 1.2426 0.4300 0.6180
v 1.1106 0.4300 0.3894
v 0.8820 0.4300 0.2574
v 0.6180 0.4300 0.2574
v 0.3894 0.4300 0.3894
v 0.2574 0.4300 0.6180
v 0.2574 0.4300 0.8820
v 0.3894 0.4300 1.1106
v 0.6180 0.4300 1.2426
f 1194/8 1193/8 1192/8 1191/8 1190/8 1189/8 1188/8 1187/8 1186/8 1185/8 1184/8 1183/8
v 0.6180 0.4800 1.2426
v 0.3894 0.4800 1.1106
v 0.2574 0.4800 0.8820
v 0.2574 0.4800 0.6180
v 0.3894 0.4800 0.3894
v 0.6180 0.4800 0.2574
v 0.8820 0.4800 0.2574
v 1.1106 0.4800 0.3894
v 1.2426 0.4800 0.6180
v 1.2426 0.4800 0.8820
v 1.1106 0.4800 1.1106
v 0.8820 0.4800 1.2426
f 1206/8 1205/8 1204/8 1203/8 1202/8 1201/8 1200/8 1199/8 1198/8 1197/8 1196/8 1195/8
v -1.1250 0.1600 -0.9567
v -1.1500 0.1600 -1.0000
v -1.1500 2.6800 -1.0000
v -1.1250 2.6800 -0.9567
f 1210/6 1209/6 1208/6 1207/6
v -1.1500 0.1600 -1.0000
v -1.1250 0.1600 -1.0433
v -1.1250 2.6800 -1.0433
v -1.1500 2.6800 -1.0000
f 1214/6 1213/6 1212/6 1211/6
v -1.1250 0.1600 -1.0433
v -1.0750 0.1600 -1.0433
v -1.0750 2.6800 -1.0433
v -1.1250 2.6800 -1.0433
f 1218/6 1217/6 1216/6 1215/6
v -1.0750 0.1600 -1.0433
v -1.0500 0.1600 -1.0000
v -1.0500 2.6800 -1.0000
v -1.0750 2.6800 -1.0433
f 1222/6 1221/6 1220/6 1219/6
v -1.0500 0.1600 -1.0000
v -1.0750 0.1600 -0.9567
v -1.0750 2.6800 -0.9567
v -1.0500 2.6800 -1.0000
f 1226/6 1225/6 1224/6 1223/6
v -1.0750 0.1600 -0.9567
v -1.1250 0.1600 -0.9567
v -1.1250 2.6800 -0.9567
v -1.0750 2.6800 -0.9567
f 1230/6 1229/6 1228/6 1227/6
v -1.0750 0.1600 -0.9567
v -1.0500 0.1600 -1.0000
v -1.0750 0.1600 -1.0433
v -1.1250 0.1600 -1.0433
v -1.1500 0.1600 -1.0000
v -1.1250 0.1600 -0.9567
f 1236/6 1235/6 1234/6 1233/6 1232/6 1231/6
v -1.1250 2.6800 -0.9567
v -1.1500 2.6800 -1.0000
v -1.1250 2.6800 -1.0433
v -1.0750 2.6800 -1.0433
v -1.0500 2.6800 -1.0000
v -1.0750 2.6800 -0.9567
f 1242/6 1241/6 1240/6 1239/6 1238/6 1237/6
v -1.1400 2.6800 -0.9307
v -1.1800 2.6800 -1.0000
v -1.1800 2.7600 -1.0000
v -1.1400 2.7600 -0.9307
f 1246/7 1245/7 1244/7 1243/7
v -1.1800 2.6800 -1.0000
v -1.1400 2.6800 -1.0693
v -1.1400 2.7600 -1.0693
v -1.1800 2.7600 -1.0000
f 1250/7 1249/7 1248/7 1247/7
v -1.1400 2.6800 -1.0693
v -1.0600 2.6800 -1.0693
v -1.0600 2.7600 -1.0693
v -1.1400 2.7600 -1.0693
f 1254/7 1253/7 1252/7 1251/7
v -1.0600 2.6800 -1.0693
v -1.0200 2.6800 -1.0000
v -1.0200 2.7600 -1.0000
v -1.0600 2.7600 -1.0693
f 1258/7 1257/7 1256/7 1255/7
v -1.0200 2.6800 -1.0000
v -1.0600 2.6800 -0.9307
v -1.0600 2.7600 -0.9307
v -1.0200 2.7600 -1.0000
f 1262/7 1261/7 1260/7 1259/7
v -1.0600 2.6800 -0.9307
v -1.1400 2.6800 -0.9307
v -1.1400 2.7600 -0.9307
v -1.0600 2.7600 -0.9307
f 1266/7 1265/7 1264/7 1263/7
v -1.0600 2.6800 -0.9307
v -1.0200 2.6800 -1.0000
v -1.0600 2.6800 -1.0693
v -1.1400 2.6800 -1.0693
v -1.1800 2.6800 -1.0000
v -1.1400 2.6800 -0.9307
f 1272/7 1271/7 1270/7 1269/7 1268/7 1267/7
v -1.1400 2.7600 -0.9307
v -1.1800 2.7600 -1.0000
v -1.1400 2.7600 -1.0693
v -1.0600 2.7600 -1.0693
v -1.0200 2.7600 -1.0000
v -1.0600 2.7600 -0.9307
f 1278/7 1277/7 1276/7 1275/7 1274/7 1273/7
v 0.7500 1.3100 -0.7520
v 0.7500 1.3400 -0.7000
v -0.6500 1.3400 -0.7000
v -0.6500 1.3100 -0.7520
f 1282/7 1281/7 1280/7 1279/7
v 0.7500 1.3400 -0.7000
v 0.7500 1.3100 -0.6480
v -0.6500 1.3100 -0.6480
v -0.6500 1.3400 -0.7000
f 1286/7 1285/7 1284/7 1283/7
v 0.7500 1.3100 -0.6480
v 0.7500 1.2500 -0.6480
v -0.6500 1.2500 -0.6480
v -0.6500 1.3100 -0.6480
f 1290/7 1289/7 1288/7 1287/7
v 0.7500 1.2500 -0.6480
v 0.7500 1.2200 -0.7000
v -0.6500 1.2200 -0.7000
v -0.6500 1.2500 -0.6480
f 1294/7 1293/7 1292/7 1291/7
v 0.7500 1.2200 -0.7000
v 0.7500 1.2500 -0.7520
v -0.6500 1.2500 -0.7520
v -0.6500 1.2200 -0.7000
f 1298/7 1297/7 1296/7 1295/7
v 0.7500 1.2500 -0.7520
v 0.7500 1.3100 -0.7520
v -0.6500 1.3100 -0.7520
v -0.6500 1.2500 -0.7520
f 1302/7 1301/7 1300/7 1299/7
v 0.7500 1.2500 -0.7520
v 0.7500 1.2200 -0.7000
v 0.7500 1.2500 -0.6480
v 0.7500 1.3100 -0.6480
v 0.7500 1.3400 -0.7000
v 0.7500 1.3100 -0.7520
f 1308/7 1307/7 1306/7 1305/7 1304/7 1303/7
v -0.6500 1.3100 -0.7520
v -0.6500 1.3400 -0.7000
v -0.6500 1.3100 -0.6480
v -0.6500 1.2500 -0.6480
v -0.6500 1.2200 -0.7000
v -0.6500 1.2500 -0.7520
f 1314/7 1313/7 1312/7 1311/7 1310/7 1309/7
v -0.7020 1.3100 -0.7000
v -0.6500 1.3400 -0.7000
v -0.6500 1.3400 -0.0500
v -0.7020 1.3100 -0.0500
f 1318/7 1317/7 1316/7 1315/7
v -0.6500 1.3400 -0.7000
v -0.5980 1.3100 -0.7000
v -0.5980 1.3100 -0.0500
v -0.6500 1.3400 -0.0500
f 1322/7 1321/7 1320/7 1319/7
v -0.5980 1.3100 -0.7000
v -0.5980 1.2500 -0.7000
v -0.5980 1.2500 -0.0500
v -0.5980 1.3100 -0.0500
f 1326/7 1325/7 1324/7 1323/7
v -0.5980 1.2500 -0.7000
v -0.6500 1.2200 -0.7000
v -0.6500 1.2200 -0.0500
v -0.5980 1.2500 -0.0500
f 1330/7 1329/7 1328/7 1327/7
v -0.6500 1.2200 -0.7000
v -0.7020 1.2500 -0.7000
v -0.7020 1.2500 -0.0500
v -0.6500 1.2200 -0.0500
f 1334/7 1333/7 1332/7 1331/7
v -0.7020 1.2500 -0.7000
v -0.7020 1.3100 -0.7000
v -0.7020 1.3100 -0.0500
v -0.7020 1.2500 -0.0500
f 1338/7 1337/7 1336/7 1335/7
v -0.7020 1.2500 -0.7000
v -0.6500 1.2200 -0.7000
v -0.5980 1.2500 -0.7000
v -0.5980 1.3100 -0.7000
v -0.6500 1.3400 -0.7000
v -0.7020 1.3100 -0.7000
f 1344/7 1343/7 1342/7 1341/7 1340/7 1339/7
v -0.7020 1.3100 -0.0500
v -0.6500 1.3400 -0.0500
v -0.5980 1.3100 -0.0500
v -0.5980 1.2500 -0.0500
v -0.6500 1.2200 -0.0500
v -0.7020 1.2500 -0.0500
f 1350/7 1349/7 1348/7 1347/7 1346/7 1345/7
v 0.0067 0.7050 -0.8000
v 0.0500 0.7300 -0.8000
v 0.0500 0.7300 0.7500
v 0.0067 0.7050 0.7500
f 1354/7 1353/7 1352/7 1351/7
v 0.0500 0.7300 -0.8000
v 0.0933 0.7050 -0.8000
v 0.0933 0.7050 0.7500
v 0.0500 0.7300 0.7500
f 1358/7 1357/7 1356/7 1355/7
v 0.0933 0.7050 -0.8000
v 0.0933 0.6550 -0.8000
v 0.0933 0.6550 0.7500
v 0.0933 0.7050 0.7500
f 1362/7 1361/7 1360/7 1359/7
v 0.0933 0.6550 -0.8000
v 0.0500 0.6300 -0.8000
v 0.0500 0.6300 0.7500
v 0.0933 0.6550 0.7500
f 1366/7 1365/7 1364/7 1363/7
v 0.0500 0.6300 -0.8000
v 0.0067 0.6550 -0.8000
v 0.0067 0.6550 0.7500
v 0.0500 0.6300 0.7500
f 1370/7 1369/7 1368/7 1367/7
v 0.0067 0.6550 -0.8000
v 0.0067 0.7050 -0.8000
v 0.0067 0.7050 0.7500
v 0.0067 0.6550 0.7500
f 1374/7 1373/7 1372/7 1371/7
v 0.0067 0.6550 -0.8000
v 0.0500 0.6300 -0.8000
v 0.0933 0.6550 -0.8000
v 0.0933 0.7050 -0.8000
v 0.0500 0.7300 -0.8000
v 0.0067 0.7050 -0.8000
f 1380/7 1379/7 1378/7 1377/7 1376/7 1375/7
v 0.0067 0.7050 0.7500
v 0.0500 0.7300 0.7500
v 0.0933 0.7050 0.7500
v 0.0933 0.6550 0.7500
v 0.0500 0.6300 0.7500
v 0.0067 0.6550 0.7500
f 1386/7 1385/7 1384/7 1383/7 1382/7 1381/7
v 0.0500 0.7050 0.7933
v 0.0500 0.7300 0.7500
v 0.3000 0.7300 0.7500
v 0.3000 0.7050 0.7933
f 1390/7 1389/7 1388/7 1387/7
v 0.0500 0.7300 0.7500
v 0.0500 0.7050 0.7067
v 0.3000 0.7050 0.7067
v 0.3000 0.7300 0.7500
f 1394/7 1393/7 1392/7 1391/7
v 0.0500 0.7050 0.7067
v 0.0500 0.6550 0.7067
v 0.3000 0.6550 0.7067
v 0.3000 0.7050 0.7067
f 1398/7 1397/7 1396/7 1395/7
v 0.0500 0.6550 0.7067
v 0.0500 0.6300 0.7500
v 0.3000 0.6300 0.7500
v 0.3000 0.6550 0.7067
f 1402/7 1401/7 1400/7 1399/7
v 0.0500 0.6300 0.7500
v 0.0500 0.6550 0.7933
v 0.3000 0.6550 0.7933
v 0.3000 0.6300 0.7500
f 1406/7 1405/7 1404/7 1403/7
v 0.0500 0.6550 0.7933
v 0.0500 0.7050 0.7933
v 0.3000 0.7050 0.7933
v 0.3000 0.6550 0.7933
f 1410/7 1409/7 1408/7 1407/7
v 0.0500 0.6550 0.7933
v 0.0500 0.6300 0.7500
v 0.0500 0.6550 0.7067
v 0.0500 0.7050 0.7067
v 0.0500 0.7300 0.7500
v 0.0500 0.7050 0.7933
f 1416/7 1415/7 1414/7 1413/7 1412/7 1411/7
v 0.3000 0.7050 0.7933
v 0.3000 0.7300 0.7500
v 0.3000 0.7050 0.7067
v 0.3000 0.6550 0.7067
v 0.3000 0.6300 0.7500
v 0.3000 0.6550 0.7933
f 1422/7 1421/7 1420/7 1419/7 1418/7 1417/7
v 0.7850 2.7650 -0.6650
v 0.7850 2.8350 -0.6650
v 0.7850 2.8350 -0.7350
v 0.7850 2.7650 -0.7350
f 1426/16 1425/16 1424/16 1423/16
v 0.7150 2.7650 -0.7350
v 0.7150 2.8350 -0.7350
v 0.7150 2.8350 -0.6650
v 0.7150 2.7650 -0.6650
f 1430/16 1429/16 1428/16 1427/16
v 0.7850 2.7650 -0.7350
v 0.7150 2.7650 -0.7350
v 0.7150 2.7650 -0.6650
v 0.7850 2.7650 -0.6650
f 1434/16 1433/16 1432/16 1431/16
v 0.7850 2.8350 -0.6650
v 0.7150 2.8350 -0.6650
v 0.7150 2.8350 -0.7350
v 0.7850 2.8350 -0.7350
f 1438/16 1437/16 1436/16 1435/16
v 0.7850 2.8350 -0.7350
v 0.7150 2.8350 -0.7350
v 0.7150 2.7650 -0.7350
v 0.7850 2.7650 -0.7350
f 1442/16 1441/16 1440/16 1439/16
v 0.7850 2.7650 -0.6650
v 0.7150 2.7650 -0.6650
v 0.7150 2.8350 -0.6650
v 0.7850 2.8350 -0.6650
f 1446/16 1445/16 1444/16 1443/16
