# Walk of Industry low-poly (generated, wi_lib.py)
mtllib wi.mtl
vt 0 0
vt 0.03125 0.03125
vt 0.09375 0.03125
vt 0.15625 0.03125
vt 0.21875 0.03125
vt 0.28125 0.03125
vt 0.34375 0.03125
vt 0.40625 0.03125
vt 0.46875 0.03125
vt 0.53125 0.03125
vt 0.59375 0.03125
vt 0.65625 0.03125
vt 0.71875 0.03125
vt 0.78125 0.03125
vt 0.84375 0.03125
vt 0.90625 0.03125
vt 0.96875 0.03125
vt 0.03125 0.09375
vt 0.09375 0.09375
vt 0.15625 0.09375
vt 0.21875 0.09375
vt 0.28125 0.09375
vt 0.34375 0.09375
vt 0.40625 0.09375
vt 0.46875 0.09375
vt 0.53125 0.09375
vt 0.59375 0.09375
vt 0.65625 0.09375
vt 0.71875 0.09375
vt 0.78125 0.09375
vt 0.84375 0.09375
vt 0.90625 0.09375
vt 0.96875 0.09375
o Body
usemtl wi_palette
v 0.4800 0.0000 0.4800
v 0.4800 0.0800 0.4800
v 0.4800 0.0800 -0.4800
v 0.4800 0.0000 -0.4800
f 4/5 3/5 2/5 1/5
v -0.4800 0.0000 -0.4800
v -0.4800 0.0800 -0.4800
v -0.4800 0.0800 0.4800
v -0.4800 0.0000 0.4800
f 8/5 7/5 6/5 5/5
v 0.4800 0.0000 -0.4800
v -0.4800 0.0000 -0.4800
v -0.4800 0.0000 0.4800
v 0.4800 0.0000 0.4800
f 12/5 11/5 10/5 9/5
v 0.4800 0.0800 0.4800
v -0.4800 0.0800 0.4800
v -0.4800 0.0800 -0.4800
v 0.4800 0.0800 -0.4800
f 16/5 15/5 14/5 13/5
v 0.4800 0.0800 -0.4800
v -0.4800 0.0800 -0.4800
v -0.4800 0.0000 -0.4800
v 0.4800 0.0000 -0.4800
f 20/5 19/5 18/5 17/5
v 0.4800 0.0000 0.4800
v -0.4800 0.0000 0.4800
v -0.4800 0.0800 0.4800
v 0.4800 0.0800 0.4800
f 24/5 23/5 22/5 21/5
v 0.3900 0.0800 0.3900
v 0.3900 0.6200 0.3900
v 0.3900 0.6200 -0.3900
v 0.3900 0.0800 -0.3900
f 28/15 27/15 26/15 25/15
v -0.3900 0.0800 -0.3900
v -0.3900 0.6200 -0.3900
v -0.3900 0.6200 0.3900
v -0.3900 0.0800 0.3900
f 32/15 31/15 30/15 29/15
v 0.3900 0.0800 -0.3900
v -0.3900 0.0800 -0.3900
v -0.3900 0.0800 0.3900
v 0.3900 0.0800 0.3900
f 36/15 35/15 34/15 33/15
v 0.3900 0.6200 0.3900
v -0.3900 0.6200 0.3900
v -0.3900 0.6200 -0.3900
v 0.3900 0.6200 -0.3900
f 40/15 39/15 38/15 37/15
v 0.3900 0.6200 -0.3900
v -0.3900 0.6200 -0.3900
v -0.3900 0.0800 -0.3900
v 0.3900 0.0800 -0.3900
f 44/15 43/15 42/15 41/15
v 0.3900 0.0800 0.3900
v -0.3900 0.0800 0.3900
v -0.3900 0.6200 0.3900
v 0.3900 0.6200 0.3900
f 48/15 47/15 46/15 45/15
v 0.4200 0.0700 -0.3600
v 0.4200 0.6300 -0.3600
v 0.4200 0.6300 -0.4200
v 0.4200 0.0700 -0.4200
f 52/2 51/2 50/2 49/2
v 0.3600 0.0700 -0.4200
v 0.3600 0.6300 -0.4200
v 0.3600 0.6300 -0.3600
v 0.3600 0.0700 -0.3600
f 56/2 55/2 54/2 53/2
v 0.4200 0.0700 -0.4200
v 0.3600 0.0700 -0.4200
v 0.3600 0.0700 -0.3600
v 0.4200 0.0700 -0.3600
f 60/2 59/2 58/2 57/2
v 0.4200 0.6300 -0.3600
v 0.3600 0.6300 -0.3600
v 0.3600 0.6300 -0.4200
v 0.4200 0.6300 -0.4200
f 64/2 63/2 62/2 61/2
v 0.4200 0.6300 -0.4200
v 0.3600 0.6300 -0.4200
v 0.3600 0.0700 -0.4200
v 0.4200 0.0700 -0.4200
f 68/2 67/2 66/2 65/2
v 0.4200 0.0700 -0.3600
v 0.3600 0.0700 -0.3600
v 0.3600 0.6300 -0.3600
v 0.4200 0.6300 -0.3600
f 72/2 71/2 70/2 69/2
v 0.4200 0.0700 0.4200
v 0.4200 0.6300 0.4200
v 0.4200 0.6300 0.3600
v 0.4200 0.0700 0.3600
f 76/2 75/2 74/2 73/2
v 0.3600 0.0700 0.3600
v 0.3600 0.6300 0.3600
v 0.3600 0.6300 0.4200
v 0.3600 0.0700 0.4200
f 80/2 79/2 78/2 77/2
v 0.4200 0.0700 0.3600
v 0.3600 0.0700 0.3600
v 0.3600 0.0700 0.4200
v 0.4200 0.0700 0.4200
f 84/2 83/2 82/2 81/2
v 0.4200 0.6300 0.4200
v 0.3600 0.6300 0.4200
v 0.3600 0.6300 0.3600
v 0.4200 0.6300 0.3600
f 88/2 87/2 86/2 85/2
v 0.4200 0.6300 0.3600
v 0.3600 0.6300 0.3600
v 0.3600 0.0700 0.3600
v 0.4200 0.0700 0.3600
f 92/2 91/2 90/2 89/2
v 0.4200 0.0700 0.4200
v 0.3600 0.0700 0.4200
v 0.3600 0.6300 0.4200
v 0.4200 0.6300 0.4200
f 96/2 95/2 94/2 93/2
v -0.3600 0.0700 -0.3600
v -0.3600 0.6300 -0.3600
v -0.3600 0.6300 -0.4200
v -0.3600 0.0700 -0.4200
f 100/2 99/2 98/2 97/2
v -0.4200 0.0700 -0.4200
v -0.4200 0.6300 -0.4200
v -0.4200 0.6300 -0.3600
v -0.4200 0.0700 -0.3600
f 104/2 103/2 102/2 101/2
v -0.3600 0.0700 -0.4200
v -0.4200 0.0700 -0.4200
v -0.4200 0.0700 -0.3600
v -0.3600 0.0700 -0.3600
f 108/2 107/2 106/2 105/2
v -0.3600 0.6300 -0.3600
v -0.4200 0.6300 -0.3600
v -0.4200 0.6300 -0.4200
v -0.3600 0.6300 -0.4200
f 112/2 111/2 110/2 109/2
v -0.3600 0.6300 -0.4200
v -0.4200 0.6300 -0.4200
v -0.4200 0.0700 -0.4200
v -0.3600 0.0700 -0.4200
f 116/2 115/2 114/2 113/2
v -0.3600 0.0700 -0.3600
v -0.4200 0.0700 -0.3600
v -0.4200 0.6300 -0.3600
v -0.3600 0.6300 -0.3600
f 120/2 119/2 118/2 117/2
v -0.3600 0.0700 0.4200
v -0.3600 0.6300 0.4200
v -0.3600 0.6300 0.3600
v -0.3600 0.0700 0.3600
f 124/2 123/2 122/2 121/2
v -0.4200 0.0700 0.3600
v -0.4200 0.6300 0.3600
v -0.4200 0.6300 0.4200
v -0.4200 0.0700 0.4200
f 128/2 127/2 126/2 125/2
v -0.3600 0.0700 0.3600
v -0.4200 0.0700 0.3600
v -0.4200 0.0700 0.4200
v -0.3600 0.0700 0.4200
f 132/2 131/2 130/2 129/2
v -0.3600 0.6300 0.4200
v -0.4200 0.6300 0.4200
v -0.4200 0.6300 0.3600
v -0.3600 0.6300 0.3600
f 136/2 135/2 134/2 133/2
v -0.3600 0.6300 0.3600
v -0.4200 0.6300 0.3600
v -0.4200 0.0700 0.3600
v -0.3600 0.0700 0.3600
f 140/2 139/2 138/2 137/2
v -0.3600 0.0700 0.4200
v -0.4200 0.0700 0.4200
v -0.4200 0.6300 0.4200
v -0.3600 0.6300 0.4200
f 144/2 143/2 142/2 141/2
v 0.4200 0.6150 0.4200
v 0.4200 0.6650 0.4200
v 0.4200 0.6650 -0.4200
v 0.4200 0.6150 -0.4200
f 148/2 147/2 146/2 145/2
v -0.4200 0.6150 -0.4200
v -0.4200 0.6650 -0.4200
v -0.4200 0.6650 0.4200
v -0.4200 0.6150 0.4200
f 152/2 151/2 150/2 149/2
v 0.4200 0.6150 -0.4200
v -0.4200 0.6150 -0.4200
v -0.4200 0.6150 0.4200
v 0.4200 0.6150 0.4200
f 156/2 155/2 154/2 153/2
v 0.4200 0.6650 0.4200
v -0.4200 0.6650 0.4200
v -0.4200 0.6650 -0.4200
v 0.4200 0.6650 -0.4200
f 160/2 159/2 158/2 157/2
v 0.4200 0.6650 -0.4200
v -0.4200 0.6650 -0.4200
v -0.4200 0.6150 -0.4200
v 0.4200 0.6150 -0.4200
f 164/2 163/2 162/2 161/2
v 0.4200 0.6150 0.4200
v -0.4200 0.6150 0.4200
v -0.4200 0.6650 0.4200
v 0.4200 0.6650 0.4200
f 168/2 167/2 166/2 165/2
v 0.1500 0.5000 0.4000
v 0.1500 0.5600 0.4000
v 0.1500 0.5600 0.3900
v 0.1500 0.5000 0.3900
f 172/19 171/19 170/19 169/19
v -0.1500 0.5000 0.3900
v -0.1500 0.5600 0.3900
v -0.1500 0.5600 0.4000
v -0.1500 0.5000 0.4000
f 176/19 175/19 174/19 173/19
v 0.1500 0.5000 0.3900
v -0.1500 0.5000 0.3900
v -0.1500 0.5000 0.4000
v 0.1500 0.5000 0.4000
f 180/19 179/19 178/19 177/19
v 0.1500 0.5600 0.4000
v -0.1500 0.5600 0.4000
v -0.1500 0.5600 0.3900
v 0.1500 0.5600 0.3900
f 184/19 183/19 182/19 181/19
v 0.1500 0.5600 0.3900
v -0.1500 0.5600 0.3900
v -0.1500 0.5000 0.3900
v 0.1500 0.5000 0.3900
f 188/19 187/19 186/19 185/19
v 0.1500 0.5000 0.4000
v -0.1500 0.5000 0.4000
v -0.1500 0.5600 0.4000
v 0.1500 0.5600 0.4000
f 192/19 191/19 190/19 189/19
v 0.1500 0.5000 -0.3900
v 0.1500 0.5600 -0.3900
v 0.1500 0.5600 -0.4000
v 0.1500 0.5000 -0.4000
f 196/19 195/19 194/19 193/19
v -0.1500 0.5000 -0.4000
v -0.1500 0.5600 -0.4000
v -0.1500 0.5600 -0.3900
v -0.1500 0.5000 -0.3900
f 200/19 199/19 198/19 197/19
v 0.1500 0.5000 -0.4000
v -0.1500 0.5000 -0.4000
v -0.1500 0.5000 -0.3900
v 0.1500 0.5000 -0.3900
f 204/19 203/19 202/19 201/19
v 0.1500 0.5600 -0.3900
v -0.1500 0.5600 -0.3900
v -0.1500 0.5600 -0.4000
v 0.1500 0.5600 -0.4000
f 208/19 207/19 206/19 205/19
v 0.1500 0.5600 -0.4000
v -0.1500 0.5600 -0.4000
v -0.1500 0.5000 -0.4000
v 0.1500 0.5000 -0.4000
f 212/19 211/19 210/19 209/19
v 0.1500 0.5000 -0.3900
v -0.1500 0.5000 -0.3900
v -0.1500 0.5600 -0.3900
v 0.1500 0.5600 -0.3900
f 216/19 215/19 214/19 213/19
v -0.3900 0.5000 0.1500
v -0.3900 0.5600 0.1500
v -0.3900 0.5600 -0.1500
v -0.3900 0.5000 -0.1500
f 220/19 219/19 218/19 217/19
v -0.4000 0.5000 -0.1500
v -0.4000 0.5600 -0.1500
v -0.4000 0.5600 0.1500
v -0.4000 0.5000 0.1500
f 224/19 223/19 222/19 221/19
v -0.3900 0.5000 -0.1500
v -0.4000 0.5000 -0.1500
v -0.4000 0.5000 0.1500
v -0.3900 0.5000 0.1500
f 228/19 227/19 226/19 225/19
v -0.3900 0.5600 0.1500
v -0.4000 0.5600 0.1500
v -0.4000 0.5600 -0.1500
v -0.3900 0.5600 -0.1500
f 232/19 231/19 230/19 229/19
v -0.3900 0.5600 -0.1500
v -0.4000 0.5600 -0.1500
v -0.4000 0.5000 -0.1500
v -0.3900 0.5000 -0.1500
f 236/19 235/19 234/19 233/19
v -0.3900 0.5000 0.1500
v -0.4000 0.5000 0.1500
v -0.4000 0.5600 0.1500
v -0.3900 0.5600 0.1500
f 240/19 239/19 238/19 237/19
v 0.4000 0.5000 0.1500
v 0.4000 0.5600 0.1500
v 0.4000 0.5600 -0.1500
v 0.4000 0.5000 -0.1500
f 244/19 243/19 242/19 241/19
v 0.3900 0.5000 -0.1500
v 0.3900 0.5600 -0.1500
v 0.3900 0.5600 0.1500
v 0.3900 0.5000 0.1500
f 248/19 247/19 246/19 245/19
v 0.4000 0.5000 -0.1500
v 0.3900 0.5000 -0.1500
v 0.3900 0.5000 0.1500
v 0.4000 0.5000 0.1500
f 252/19 251/19 250/19 249/19
v 0.4000 0.5600 0.1500
v 0.3900 0.5600 0.1500
v 0.3900 0.5600 -0.1500
v 0.4000 0.5600 -0.1500
f 256/19 255/19 254/19 253/19
v 0.4000 0.5600 -0.1500
v 0.3900 0.5600 -0.1500
v 0.3900 0.5000 -0.1500
v 0.4000 0.5000 -0.1500
f 260/19 259/19 258/19 257/19
v 0.4000 0.5000 0.1500
v 0.3900 0.5000 0.1500
v 0.3900 0.5600 0.1500
v 0.4000 0.5600 0.1500
f 264/19 263/19 262/19 261/19
v -0.0927 0.6600 0.2853
v -0.2427 0.6600 0.1763
v -0.2427 0.8000 0.1763
v -0.0927 0.8000 0.2853
f 268/4 267/4 266/4 265/4
v -0.2427 0.6600 0.1763
v -0.3000 0.6600 0.0000
v -0.3000 0.8000 0.0000
v -0.2427 0.8000 0.1763
f 272/4 271/4 270/4 269/4
v -0.3000 0.6600 0.0000
v -0.2427 0.6600 -0.1763
v -0.2427 0.8000 -0.1763
v -0.3000 0.8000 0.0000
f 276/4 275/4 274/4 273/4
v -0.2427 0.6600 -0.1763
v -0.0927 0.6600 -0.2853
v -0.0927 0.8000 -0.2853
v -0.2427 0.8000 -0.1763
f 280/4 279/4 278/4 277/4
v -0.0927 0.6600 -0.2853
v 0.0927 0.6600 -0.2853
v 0.0927 0.8000 -0.2853
v -0.0927 0.8000 -0.2853
f 284/4 283/4 282/4 281/4
v 0.0927 0.6600 -0.2853
v 0.2427 0.6600 -0.1763
v 0.2427 0.8000 -0.1763
v 0.0927 0.8000 -0.2853
f 288/4 287/4 286/4 285/4
v 0.2427 0.6600 -0.1763
v 0.3000 0.6600 -0.0000
v 0.3000 0.8000 -0.0000
v 0.2427 0.8000 -0.1763
f 292/4 291/4 290/4 289/4
v 0.3000 0.6600 -0.0000
v 0.2427 0.6600 0.1763
v 0.2427 0.8000 0.1763
v 0.3000 0.8000 -0.0000
f 296/4 295/4 294/4 293/4
v 0.2427 0.6600 0.1763
v 0.0927 0.6600 0.2853
v 0.0927 0.8000 0.2853
v 0.2427 0.8000 0.1763
f 300/4 299/4 298/4 297/4
v 0.0927 0.6600 0.2853
v -0.0927 0.6600 0.2853
v -0.0927 0.8000 0.2853
v 0.0927 0.8000 0.2853
f 304/4 303/4 302/4 301/4
v 0.0927 0.6600 0.2853
v 0.2427 0.6600 0.1763
v 0.3000 0.6600 -0.0000
v 0.2427 0.6600 -0.1763
v 0.0927 0.6600 -0.2853
v -0.0927 0.6600 -0.2853
v -0.2427 0.6600 -0.1763
v -0.3000 0.6600 0.0000
v -0.2427 0.6600 0.1763
v -0.0927 0.6600 0.2853
f 314/4 313/4 312/4 311/4 310/4 309/4 308/4 307/4 306/4 305/4
v -0.0927 0.8000 0.2853
v -0.2427 0.8000 0.1763
v -0.3000 0.8000 0.0000
v -0.2427 0.8000 -0.1763
v -0.0927 0.8000 -0.2853
v 0.0927 0.8000 -0.2853
v 0.2427 0.8000 -0.1763
v 0.3000 0.8000 -0.0000
v 0.2427 0.8000 0.1763
v 0.0927 0.8000 0.2853
f 324/4 323/4 322/4 321/4 320/4 319/4 318/4 317/4 316/4 315/4
v -0.0865 0.8000 0.2663
v -0.2265 0.8000 0.1646
v -0.0809 1.0200 0.0588
v -0.0309 1.0200 0.0951
f 328/12 327/12 326/12 325/12
v -0.2265 0.8000 0.1646
v -0.2800 0.8000 0.0000
v -0.1000 1.0200 0.0000
v -0.0809 1.0200 0.0588
f 332/12 331/12 330/12 329/12
v -0.2800 0.8000 0.0000
v -0.2265 0.8000 -0.1646
v -0.0809 1.0200 -0.0588
v -0.1000 1.0200 0.0000
f 336/12 335/12 334/12 333/12
v -0.2265 0.8000 -0.1646
v -0.0865 0.8000 -0.2663
v -0.0309 1.0200 -0.0951
v -0.0809 1.0200 -0.0588
f 340/12 339/12 338/12 337/12
v -0.0865 0.8000 -0.2663
v 0.0865 0.8000 -0.2663
v 0.0309 1.0200 -0.0951
v -0.0309 1.0200 -0.0951
f 344/12 343/12 342/12 341/12
v 0.0865 0.8000 -0.2663
v 0.2265 0.8000 -0.1646
v 0.0809 1.0200 -0.0588
v 0.0309 1.0200 -0.0951
f 348/12 347/12 346/12 345/12
v 0.2265 0.8000 -0.1646
v 0.2800 0.8000 -0.0000
v 0.1000 1.0200 -0.0000
v 0.0809 1.0200 -0.0588
f 352/12 351/12 350/12 349/12
v 0.2800 0.8000 -0.0000
v 0.2265 0.8000 0.1646
v 0.0809 1.0200 0.0588
v 0.1000 1.0200 -0.0000
f 356/12 355/12 354/12 353/12
v 0.2265 0.8000 0.1646
v 0.0865 0.8000 0.2663
v 0.0309 1.0200 0.0951
v 0.0809 1.0200 0.0588
f 360/12 359/12 358/12 357/12
v 0.0865 0.8000 0.2663
v -0.0865 0.8000 0.2663
v -0.0309 1.0200 0.0951
v 0.0309 1.0200 0.0951
f 364/12 363/12 362/12 361/12
v 0.0865 0.8000 0.2663
v 0.2265 0.8000 0.1646
v 0.2800 0.8000 -0.0000
v 0.2265 0.8000 -0.1646
v 0.0865 0.8000 -0.2663
v -0.0865 0.8000 -0.2663
v -0.2265 0.8000 -0.1646
v -0.2800 0.8000 0.0000
v -0.2265 0.8000 0.1646
v -0.0865 0.8000 0.2663
f 374/12 373/12 372/12 371/12 370/12 369/12 368/12 367/12 366/12 365/12
v -0.0309 1.0200 0.0951
v -0.0809 1.0200 0.0588
v -0.1000 1.0200 0.0000
v -0.0809 1.0200 -0.0588
v -0.0309 1.0200 -0.0951
v 0.0309 1.0200 -0.0951
v 0.0809 1.0200 -0.0588
v 0.1000 1.0200 -0.0000
v 0.0809 1.0200 0.0588
v 0.0309 1.0200 0.0951
f 384/12 383/12 382/12 381/12 380/12 379/12 378/12 377/12 376/12 375/12
v -0.0309 1.0200 0.0951
v -0.0809 1.0200 0.0588
v -0.0809 1.0500 0.0588
v -0.0309 1.0500 0.0951
f 388/4 387/4 386/4 385/4
v -0.0809 1.0200 0.0588
v -0.1000 1.0200 0.0000
v -0.1000 1.0500 0.0000
v -0.0809 1.0500 0.0588
f 392/4 391/4 390/4 389/4
v -0.1000 1.0200 0.0000
v -0.0809 1.0200 -0.0588
v -0.0809 1.0500 -0.0588
v -0.1000 1.0500 0.0000
f 396/4 395/4 394/4 393/4
v -0.0809 1.0200 -0.0588
v -0.0309 1.0200 -0.0951
v -0.0309 1.0500 -0.0951
v -0.0809 1.0500 -0.0588
f 400/4 399/4 398/4 397/4
v -0.0309 1.0200 -0.0951
v 0.0309 1.0200 -0.0951
v 0.0309 1.0500 -0.0951
v -0.0309 1.0500 -0.0951
f 404/4 403/4 402/4 401/4
v 0.0309 1.0200 -0.0951
v 0.0809 1.0200 -0.0588
v 0.0809 1.0500 -0.0588
v 0.0309 1.0500 -0.0951
f 408/4 407/4 406/4 405/4
v 0.0809 1.0200 -0.0588
v 0.1000 1.0200 -0.0000
v 0.1000 1.0500 -0.0000
v 0.0809 1.0500 -0.0588
f 412/4 411/4 410/4 409/4
v 0.1000 1.0200 -0.0000
v 0.0809 1.0200 0.0588
v 0.0809 1.0500 0.0588
v 0.1000 1.0500 -0.0000
f 416/4 415/4 414/4 413/4
v 0.0809 1.0200 0.0588
v 0.0309 1.0200 0.0951
v 0.0309 1.0500 0.0951
v 0.0809 1.0500 0.0588
f 420/4 419/4 418/4 417/4
v 0.0309 1.0200 0.0951
v -0.0309 1.0200 0.0951
v -0.0309 1.0500 0.0951
v 0.0309 1.0500 0.0951
f 424/4 423/4 422/4 421/4
v 0.0309 1.0200 0.0951
v 0.0809 1.0200 0.0588
v 0.1000 1.0200 -0.0000
v 0.0809 1.0200 -0.0588
v 0.0309 1.0200 -0.0951
v -0.0309 1.0200 -0.0951
v -0.0809 1.0200 -0.0588
v -0.1000 1.0200 0.0000
v -0.0809 1.0200 0.0588
v -0.0309 1.0200 0.0951
f 434/4 433/4 432/4 431/4 430/4 429/4 428/4 427/4 426/4 425/4
v -0.0309 1.0500 0.0951
v -0.0809 1.0500 0.0588
v -0.1000 1.0500 0.0000
v -0.0809 1.0500 -0.0588
v -0.0309 1.0500 -0.0951
v 0.0309 1.0500 -0.0951
v 0.0809 1.0500 -0.0588
v 0.1000 1.0500 -0.0000
v 0.0809 1.0500 0.0588
v 0.0309 1.0500 0.0951
f 444/4 443/4 442/4 441/4 440/4 439/4 438/4 437/4 436/4 435/4
