# Walk of Industry low-poly (generated, wi_lib.py)
mtllib wi.mtl
vt 0 0
vt 0.03125 0.03125
vt 0.09375 0.03125
vt 0.15625 0.03125
vt 0.21875 0.03125
vt 0.28125 0.03125
vt 0.34375 0.03125
vt 0.40625 0.03125
vt 0.46875 0.03125
vt 0.53125 0.03125
vt 0.59375 0.03125
vt 0.65625 0.03125
vt 0.71875 0.03125
vt 0.78125 0.03125
vt 0.84375 0.03125
vt 0.90625 0.03125
vt 0.96875 0.03125
vt 0.03125 0.09375
vt 0.09375 0.09375
vt 0.15625 0.09375
vt 0.21875 0.09375
vt 0.28125 0.09375
vt 0.34375 0.09375
vt 0.40625 0.09375
vt 0.46875 0.09375
vt 0.53125 0.09375
vt 0.59375 0.09375
vt 0.65625 0.09375
vt 0.71875 0.09375
vt 0.78125 0.09375
vt 0.84375 0.09375
vt 0.90625 0.09375
vt 0.96875 0.09375
o Body
usemtl wi_palette
v -0.0100 -0.0000 0.0173
v -0.0200 -0.0000 0.0000
v -0.0200 0.3200 0.0000
v -0.0100 0.3200 0.0173
f 4/7 3/7 2/7 1/7
v -0.0200 -0.0000 0.0000
v -0.0100 -0.0000 -0.0173
v -0.0100 0.3200 -0.0173
v -0.0200 0.3200 0.0000
f 8/7 7/7 6/7 5/7
v -0.0100 -0.0000 -0.0173
v 0.0100 -0.0000 -0.0173
v 0.0100 0.3200 -0.0173
v -0.0100 0.3200 -0.0173
f 12/7 11/7 10/7 9/7
v 0.0100 -0.0000 -0.0173
v 0.0200 -0.0000 0.0000
v 0.0200 0.3200 0.0000
v 0.0100 0.3200 -0.0173
f 16/7 15/7 14/7 13/7
v 0.0200 -0.0000 0.0000
v 0.0100 -0.0000 0.0173
v 0.0100 0.3200 0.0173
v 0.0200 0.3200 0.0000
f 20/7 19/7 18/7 17/7
v 0.0100 -0.0000 0.0173
v -0.0100 -0.0000 0.0173
v -0.0100 0.3200 0.0173
v 0.0100 0.3200 0.0173
f 24/7 23/7 22/7 21/7
v 0.0100 -0.0000 0.0173
v 0.0200 -0.0000 0.0000
v 0.0100 -0.0000 -0.0173
v -0.0100 -0.0000 -0.0173
v -0.0200 -0.0000 0.0000
v -0.0100 -0.0000 0.0173
f 30/7 29/7 28/7 27/7 26/7 25/7
v -0.0100 0.3200 0.0173
v -0.0200 0.3200 0.0000
v -0.0100 0.3200 -0.0173
v 0.0100 0.3200 -0.0173
v 0.0200 0.3200 0.0000
v 0.0100 0.3200 0.0173
f 36/7 35/7 34/7 33/7 32/7 31/7
v 0.1304 0.4386 -0.0579
v 0.0721 0.5011 -0.0443
v -0.0168 0.3644 -0.0335
v -0.0085 0.3555 -0.0354
f 40/7 39/7 38/7 37/7
v 0.0721 0.5011 -0.0443
v 0.0054 0.5250 0.0054
v -0.0264 0.3679 -0.0264
v -0.0168 0.3644 -0.0335
f 44/7 43/7 42/7 41/7
v 0.0054 0.5250 0.0054
v -0.0443 0.5011 0.0721
v -0.0335 0.3644 -0.0168
v -0.0264 0.3679 -0.0264
f 48/7 47/7 46/7 45/7
v -0.0443 0.5011 0.0721
v -0.0579 0.4386 0.1304
v -0.0354 0.3555 -0.0085
v -0.0335 0.3644 -0.0168
f 52/7 51/7 50/7 49/7
v -0.0579 0.4386 0.1304
v -0.0304 0.3614 0.1579
v -0.0315 0.3445 -0.0046
v -0.0354 0.3555 -0.0085
f 56/7 55/7 54/7 53/7
v -0.0304 0.3614 0.1579
v 0.0279 0.2989 0.1443
v -0.0232 0.3356 -0.0065
v -0.0315 0.3445 -0.0046
f 60/7 59/7 58/7 57/7
v 0.0279 0.2989 0.1443
v 0.0946 0.2750 0.0946
v -0.0136 0.3321 -0.0136
v -0.0232 0.3356 -0.0065
f 64/7 63/7 62/7 61/7
v 0.0946 0.2750 0.0946
v 0.1443 0.2989 0.0279
v -0.0065 0.3356 -0.0232
v -0.0136 0.3321 -0.0136
f 68/7 67/7 66/7 65/7
v 0.1443 0.2989 0.0279
v 0.1579 0.3614 -0.0304
v -0.0046 0.3445 -0.0315
v -0.0065 0.3356 -0.0232
f 72/7 71/7 70/7 69/7
v 0.1579 0.3614 -0.0304
v 0.1304 0.4386 -0.0579
v -0.0085 0.3555 -0.0354
v -0.0046 0.3445 -0.0315
f 76/7 75/7 74/7 73/7
v 0.1579 0.3614 -0.0304
v 0.1443 0.2989 0.0279
v 0.0946 0.2750 0.0946
v 0.0279 0.2989 0.1443
v -0.0304 0.3614 0.1579
v -0.0579 0.4386 0.1304
v -0.0443 0.5011 0.0721
v 0.0054 0.5250 0.0054
v 0.0721 0.5011 -0.0443
v 0.1304 0.4386 -0.0579
f 86/7 85/7 84/7 83/7 82/7 81/7 80/7 79/7 78/7 77/7
v -0.0085 0.3555 -0.0354
v -0.0168 0.3644 -0.0335
v -0.0264 0.3679 -0.0264
v -0.0335 0.3644 -0.0168
v -0.0354 0.3555 -0.0085
v -0.0315 0.3445 -0.0046
v -0.0232 0.3356 -0.0065
v -0.0136 0.3321 -0.0136
v -0.0065 0.3356 -0.0232
v -0.0046 0.3445 -0.0315
f 96/7 95/7 94/7 93/7 92/7 91/7 90/7 89/7 88/7 87/7
