# Walk of Industry low-poly (generated, wi_lib.py)
mtllib wi.mtl
vt 0 0
vt 0.03125 0.03125
vt 0.09375 0.03125
vt 0.15625 0.03125
vt 0.21875 0.03125
vt 0.28125 0.03125
vt 0.34375 0.03125
vt 0.40625 0.03125
vt 0.46875 0.03125
vt 0.53125 0.03125
vt 0.59375 0.03125
vt 0.65625 0.03125
vt 0.71875 0.03125
vt 0.78125 0.03125
vt 0.84375 0.03125
vt 0.90625 0.03125
vt 0.96875 0.03125
vt 0.03125 0.09375
vt 0.09375 0.09375
vt 0.15625 0.09375
vt 0.21875 0.09375
vt 0.28125 0.09375
vt 0.34375 0.09375
vt 0.40625 0.09375
vt 0.46875 0.09375
vt 0.53125 0.09375
vt 0.59375 0.09375
vt 0.65625 0.09375
vt 0.71875 0.09375
vt 0.78125 0.09375
vt 0.84375 0.09375
vt 0.90625 0.09375
vt 0.96875 0.09375
o Body
usemtl wi_palette
v -0.0459 0.0000 0.1109
v -0.1109 0.0000 0.0459
v -0.1109 0.3400 0.0459
v -0.0459 0.3400 0.1109
f 4/2 3/2 2/2 1/2
v -0.1109 0.0000 0.0459
v -0.1109 0.0000 -0.0459
v -0.1109 0.3400 -0.0459
v -0.1109 0.3400 0.0459
f 8/2 7/2 6/2 5/2
v -0.1109 0.0000 -0.0459
v -0.0459 0.0000 -0.1109
v -0.0459 0.3400 -0.1109
v -0.1109 0.3400 -0.0459
f 12/2 11/2 10/2 9/2
v -0.0459 0.0000 -0.1109
v 0.0459 0.0000 -0.1109
v 0.0459 0.3400 -0.1109
v -0.0459 0.3400 -0.1109
f 16/2 15/2 14/2 13/2
v 0.0459 0.0000 -0.1109
v 0.1109 0.0000 -0.0459
v 0.1109 0.3400 -0.0459
v 0.0459 0.3400 -0.1109
f 20/2 19/2 18/2 17/2
v 0.1109 0.0000 -0.0459
v 0.1109 0.0000 0.0459
v 0.1109 0.3400 0.0459
v 0.1109 0.3400 -0.0459
f 24/2 23/2 22/2 21/2
v 0.1109 0.0000 0.0459
v 0.0459 0.0000 0.1109
v 0.0459 0.3400 0.1109
v 0.1109 0.3400 0.0459
f 28/2 27/2 26/2 25/2
v 0.0459 0.0000 0.1109
v -0.0459 0.0000 0.1109
v -0.0459 0.3400 0.1109
v 0.0459 0.3400 0.1109
f 32/2 31/2 30/2 29/2
v 0.0459 0.0000 0.1109
v 0.1109 0.0000 0.0459
v 0.1109 0.0000 -0.0459
v 0.0459 0.0000 -0.1109
v -0.0459 0.0000 -0.1109
v -0.1109 0.0000 -0.0459
v -0.1109 0.0000 0.0459
v -0.0459 0.0000 0.1109
f 40/2 39/2 38/2 37/2 36/2 35/2 34/2 33/2
v -0.0459 0.3400 0.1109
v -0.1109 0.3400 0.0459
v -0.1109 0.3400 -0.0459
v -0.0459 0.3400 -0.1109
v 0.0459 0.3400 -0.1109
v 0.1109 0.3400 -0.0459
v 0.1109 0.3400 0.0459
v 0.0459 0.3400 0.1109
f 48/2 47/2 46/2 45/2 44/2 43/2 42/2 41/2
v 0.1000 0.3000 0.1000
v 0.1000 0.4400 0.1000
v 0.1000 0.4400 -0.1000
v 0.1000 0.3000 -0.1000
f 52/6 51/6 50/6 49/6
v -0.1000 0.3000 -0.1000
v -0.1000 0.4400 -0.1000
v -0.1000 0.4400 0.1000
v -0.1000 0.3000 0.1000
f 56/6 55/6 54/6 53/6
v 0.1000 0.3000 -0.1000
v -0.1000 0.3000 -0.1000
v -0.1000 0.3000 0.1000
v 0.1000 0.3000 0.1000
f 60/6 59/6 58/6 57/6
v 0.1000 0.4400 0.1000
v -0.1000 0.4400 0.1000
v -0.1000 0.4400 -0.1000
v 0.1000 0.4400 -0.1000
f 64/6 63/6 62/6 61/6
v 0.1000 0.4400 -0.1000
v -0.1000 0.4400 -0.1000
v -0.1000 0.3000 -0.1000
v 0.1000 0.3000 -0.1000
f 68/6 67/6 66/6 65/6
v 0.1000 0.3000 0.1000
v -0.1000 0.3000 0.1000
v -0.1000 0.4400 0.1000
v 0.1000 0.4400 0.1000
f 72/6 71/6 70/6 69/6
v -0.0450 0.5989 -0.2325
v -0.0450 0.6611 -0.1675
v -0.0450 0.4311 0.0525
v -0.0450 0.3689 -0.0125
f 76/2 75/2 74/2 73/2
v 0.0450 0.3689 -0.0125
v 0.0450 0.4311 0.0525
v 0.0450 0.6611 -0.1675
v 0.0450 0.5989 -0.2325
f 80/2 79/2 78/2 77/2
v -0.0450 0.3689 -0.0125
v 0.0450 0.3689 -0.0125
v 0.0450 0.5989 -0.2325
v -0.0450 0.5989 -0.2325
f 84/2 83/2 82/2 81/2
v -0.0450 0.6611 -0.1675
v 0.0450 0.6611 -0.1675
v 0.0450 0.4311 0.0525
v -0.0450 0.4311 0.0525
f 88/2 87/2 86/2 85/2
v -0.0450 0.4311 0.0525
v 0.0450 0.4311 0.0525
v 0.0450 0.3689 -0.0125
v -0.0450 0.3689 -0.0125
f 92/2 91/2 90/2 89/2
v -0.0450 0.5989 -0.2325
v 0.0450 0.5989 -0.2325
v 0.0450 0.6611 -0.1675
v -0.0450 0.6611 -0.1675
f 96/2 95/2 94/2 93/2
v -0.0350 0.3326 -0.3296
v -0.0350 0.3674 -0.3904
v -0.0350 0.6474 -0.2304
v -0.0350 0.6126 -0.1696
f 100/3 99/3 98/3 97/3
v 0.0350 0.6126 -0.1696
v 0.0350 0.6474 -0.2304
v 0.0350 0.3674 -0.3904
v 0.0350 0.3326 -0.3296
f 104/3 103/3 102/3 101/3
v -0.0350 0.6126 -0.1696
v 0.0350 0.6126 -0.1696
v 0.0350 0.3326 -0.3296
v -0.0350 0.3326 -0.3296
f 108/3 107/3 106/3 105/3
v -0.0350 0.3674 -0.3904
v 0.0350 0.3674 -0.3904
v 0.0350 0.6474 -0.2304
v -0.0350 0.6474 -0.2304
f 112/3 111/3 110/3 109/3
v -0.0350 0.6474 -0.2304
v 0.0350 0.6474 -0.2304
v 0.0350 0.6126 -0.1696
v -0.0350 0.6126 -0.1696
f 116/3 115/3 114/3 113/3
v -0.0350 0.3326 -0.3296
v 0.0350 0.3326 -0.3296
v 0.0350 0.3674 -0.3904
v -0.0350 0.3674 -0.3904
f 120/3 119/3 118/3 117/3
v -0.0230 0.5900 -0.1446
v -0.0554 0.5900 -0.1770
v -0.0554 0.6700 -0.1770
v -0.0230 0.6700 -0.1446
f 124/4 123/4 122/4 121/4
v -0.0554 0.5900 -0.1770
v -0.0554 0.5900 -0.2230
v -0.0554 0.6700 -0.2230
v -0.0554 0.6700 -0.1770
f 128/4 127/4 126/4 125/4
v -0.0554 0.5900 -0.2230
v -0.0230 0.5900 -0.2554
v -0.0230 0.6700 -0.2554
v -0.0554 0.6700 -0.2230
f 132/4 131/4 130/4 129/4
v -0.0230 0.5900 -0.2554
v 0.0230 0.5900 -0.2554
v 0.0230 0.6700 -0.2554
v -0.0230 0.6700 -0.2554
f 136/4 135/4 134/4 133/4
v 0.0230 0.5900 -0.2554
v 0.0554 0.5900 -0.2230
v 0.0554 0.6700 -0.2230
v 0.0230 0.6700 -0.2554
f 140/4 139/4 138/4 137/4
v 0.0554 0.5900 -0.2230
v 0.0554 0.5900 -0.1770
v 0.0554 0.6700 -0.1770
v 0.0554 0.6700 -0.2230
f 144/4 143/4 142/4 141/4
v 0.0554 0.5900 -0.1770
v 0.0230 0.5900 -0.1446
v 0.0230 0.6700 -0.1446
v 0.0554 0.6700 -0.1770
f 148/4 147/4 146/4 145/4
v 0.0230 0.5900 -0.1446
v -0.0230 0.5900 -0.1446
v -0.0230 0.6700 -0.1446
v 0.0230 0.6700 -0.1446
f 152/4 151/4 150/4 149/4
v 0.0230 0.5900 -0.1446
v 0.0554 0.5900 -0.1770
v 0.0554 0.5900 -0.2230
v 0.0230 0.5900 -0.2554
v -0.0230 0.5900 -0.2554
v -0.0554 0.5900 -0.2230
v -0.0554 0.5900 -0.1770
v -0.0230 0.5900 -0.1446
f 160/4 159/4 158/4 157/4 156/4 155/4 154/4 153/4
v -0.0230 0.6700 -0.1446
v -0.0554 0.6700 -0.1770
v -0.0554 0.6700 -0.2230
v -0.0230 0.6700 -0.2554
v 0.0230 0.6700 -0.2554
v 0.0554 0.6700 -0.2230
v 0.0554 0.6700 -0.1770
v 0.0230 0.6700 -0.1446
f 168/4 167/4 166/4 165/4 164/4 163/4 162/4 161/4
v 0.0700 0.3050 -0.3200
v 0.0700 0.3550 -0.3200
v 0.0700 0.3550 -0.4000
v 0.0700 0.3050 -0.4000
f 172/6 171/6 170/6 169/6
v -0.0700 0.3050 -0.4000
v -0.0700 0.3550 -0.4000
v -0.0700 0.3550 -0.3200
v -0.0700 0.3050 -0.3200
f 176/6 175/6 174/6 173/6
v 0.0700 0.3050 -0.4000
v -0.0700 0.3050 -0.4000
v -0.0700 0.3050 -0.3200
v 0.0700 0.3050 -0.3200
f 180/6 179/6 178/6 177/6
v 0.0700 0.3550 -0.3200
v -0.0700 0.3550 -0.3200
v -0.0700 0.3550 -0.4000
v 0.0700 0.3550 -0.4000
f 184/6 183/6 182/6 181/6
v 0.0700 0.3550 -0.4000
v -0.0700 0.3550 -0.4000
v -0.0700 0.3050 -0.4000
v 0.0700 0.3050 -0.4000
f 188/6 187/6 186/6 185/6
v 0.0700 0.3050 -0.3200
v -0.0700 0.3050 -0.3200
v -0.0700 0.3550 -0.3200
v 0.0700 0.3550 -0.3200
f 192/6 191/6 190/6 189/6
v 0.0625 0.1900 -0.3350
v 0.0625 0.3100 -0.3350
v 0.0625 0.3100 -0.3850
v 0.0625 0.1900 -0.3850
f 196/6 195/6 194/6 193/6
v 0.0375 0.1900 -0.3850
v 0.0375 0.3100 -0.3850
v 0.0375 0.3100 -0.3350
v 0.0375 0.1900 -0.3350
f 200/6 199/6 198/6 197/6
v 0.0625 0.1900 -0.3850
v 0.0375 0.1900 -0.3850
v 0.0375 0.1900 -0.3350
v 0.0625 0.1900 -0.3350
f 204/6 203/6 202/6 201/6
v 0.0625 0.3100 -0.3350
v 0.0375 0.3100 -0.3350
v 0.0375 0.3100 -0.3850
v 0.0625 0.3100 -0.3850
f 208/6 207/6 206/6 205/6
v 0.0625 0.3100 -0.3850
v 0.0375 0.3100 -0.3850
v 0.0375 0.1900 -0.3850
v 0.0625 0.1900 -0.3850
f 212/6 211/6 210/6 209/6
v 0.0625 0.1900 -0.3350
v 0.0375 0.1900 -0.3350
v 0.0375 0.3100 -0.3350
v 0.0625 0.3100 -0.3350
f 216/6 215/6 214/6 213/6
v -0.0375 0.1900 -0.3350
v -0.0375 0.3100 -0.3350
v -0.0375 0.3100 -0.3850
v -0.0375 0.1900 -0.3850
f 220/6 219/6 218/6 217/6
v -0.0625 0.1900 -0.3850
v -0.0625 0.3100 -0.3850
v -0.0625 0.3100 -0.3350
v -0.0625 0.1900 -0.3350
f 224/6 223/6 222/6 221/6
v -0.0375 0.1900 -0.3850
v -0.0625 0.1900 -0.3850
v -0.0625 0.1900 -0.3350
v -0.0375 0.1900 -0.3350
f 228/6 227/6 226/6 225/6
v -0.0375 0.3100 -0.3350
v -0.0625 0.3100 -0.3350
v -0.0625 0.3100 -0.3850
v -0.0375 0.3100 -0.3850
f 232/6 231/6 230/6 229/6
v -0.0375 0.3100 -0.3850
v -0.0625 0.3100 -0.3850
v -0.0625 0.1900 -0.3850
v -0.0375 0.1900 -0.3850
f 236/6 235/6 234/6 233/6
v -0.0375 0.1900 -0.3350
v -0.0625 0.1900 -0.3350
v -0.0625 0.3100 -0.3350
v -0.0375 0.3100 -0.3350
f 240/6 239/6 238/6 237/6
v 0.0250 0.4450 0.1050
v 0.0250 0.4950 0.1050
v 0.0250 0.4950 0.0550
v 0.0250 0.4450 0.0550
f 244/16 243/16 242/16 241/16
v -0.0250 0.4450 0.0550
v -0.0250 0.4950 0.0550
v -0.0250 0.4950 0.1050
v -0.0250 0.4450 0.1050
f 248/16 247/16 246/16 245/16
v 0.0250 0.4450 0.0550
v -0.0250 0.4450 0.0550
v -0.0250 0.4450 0.1050
v 0.0250 0.4450 0.1050
f 252/16 251/16 250/16 249/16
v 0.0250 0.4950 0.1050
v -0.0250 0.4950 0.1050
v -0.0250 0.4950 0.0550
v 0.0250 0.4950 0.0550
f 256/16 255/16 254/16 253/16
v 0.0250 0.4950 0.0550
v -0.0250 0.4950 0.0550
v -0.0250 0.4450 0.0550
v 0.0250 0.4450 0.0550
f 260/16 259/16 258/16 257/16
v 0.0250 0.4450 0.1050
v -0.0250 0.4450 0.1050
v -0.0250 0.4950 0.1050
v 0.0250 0.4950 0.1050
f 264/16 263/16 262/16 261/16
