# Walk of Industry low-poly (generated, wi_lib.py)
mtllib wi.mtl
vt 0 0
vt 0.03125 0.03125
vt 0.09375 0.03125
vt 0.15625 0.03125
vt 0.21875 0.03125
vt 0.28125 0.03125
vt 0.34375 0.03125
vt 0.40625 0.03125
vt 0.46875 0.03125
vt 0.53125 0.03125
vt 0.59375 0.03125
vt 0.65625 0.03125
vt 0.71875 0.03125
vt 0.78125 0.03125
vt 0.84375 0.03125
vt 0.90625 0.03125
vt 0.96875 0.03125
vt 0.03125 0.09375
vt 0.09375 0.09375
vt 0.15625 0.09375
vt 0.21875 0.09375
vt 0.28125 0.09375
vt 0.34375 0.09375
vt 0.40625 0.09375
vt 0.46875 0.09375
vt 0.53125 0.09375
vt 0.59375 0.09375
vt 0.65625 0.09375
vt 0.71875 0.09375
vt 0.78125 0.09375
vt 0.84375 0.09375
vt 0.90625 0.09375
vt 0.96875 0.09375
o Body
usemtl wi_palette
v 0.4800 0.0000 0.4800
v 0.4800 0.0800 0.4800
v 0.4800 0.0800 -0.4800
v 0.4800 0.0000 -0.4800
f 4/5 3/5 2/5 1/5
v -0.4800 0.0000 -0.4800
v -0.4800 0.0800 -0.4800
v -0.4800 0.0800 0.4800
v -0.4800 0.0000 0.4800
f 8/5 7/5 6/5 5/5
v 0.4800 0.0000 -0.4800
v -0.4800 0.0000 -0.4800
v -0.4800 0.0000 0.4800
v 0.4800 0.0000 0.4800
f 12/5 11/5 10/5 9/5
v 0.4800 0.0800 0.4800
v -0.4800 0.0800 0.4800
v -0.4800 0.0800 -0.4800
v 0.4800 0.0800 -0.4800
f 16/5 15/5 14/5 13/5
v 0.4800 0.0800 -0.4800
v -0.4800 0.0800 -0.4800
v -0.4800 0.0000 -0.4800
v 0.4800 0.0000 -0.4800
f 20/5 19/5 18/5 17/5
v 0.4800 0.0000 0.4800
v -0.4800 0.0000 0.4800
v -0.4800 0.0800 0.4800
v 0.4800 0.0800 0.4800
f 24/5 23/5 22/5 21/5
v -0.0927 0.0800 0.2853
v -0.2427 0.0800 0.1763
v -0.2427 0.1500 0.1763
v -0.0927 0.1500 0.2853
f 28/4 27/4 26/4 25/4
v -0.2427 0.0800 0.1763
v -0.3000 0.0800 0.0000
v -0.3000 0.1500 0.0000
v -0.2427 0.1500 0.1763
f 32/4 31/4 30/4 29/4
v -0.3000 0.0800 0.0000
v -0.2427 0.0800 -0.1763
v -0.2427 0.1500 -0.1763
v -0.3000 0.1500 0.0000
f 36/4 35/4 34/4 33/4
v -0.2427 0.0800 -0.1763
v -0.0927 0.0800 -0.2853
v -0.0927 0.1500 -0.2853
v -0.2427 0.1500 -0.1763
f 40/4 39/4 38/4 37/4
v -0.0927 0.0800 -0.2853
v 0.0927 0.0800 -0.2853
v 0.0927 0.1500 -0.2853
v -0.0927 0.1500 -0.2853
f 44/4 43/4 42/4 41/4
v 0.0927 0.0800 -0.2853
v 0.2427 0.0800 -0.1763
v 0.2427 0.1500 -0.1763
v 0.0927 0.1500 -0.2853
f 48/4 47/4 46/4 45/4
v 0.2427 0.0800 -0.1763
v 0.3000 0.0800 -0.0000
v 0.3000 0.1500 -0.0000
v 0.2427 0.1500 -0.1763
f 52/4 51/4 50/4 49/4
v 0.3000 0.0800 -0.0000
v 0.2427 0.0800 0.1763
v 0.2427 0.1500 0.1763
v 0.3000 0.1500 -0.0000
f 56/4 55/4 54/4 53/4
v 0.2427 0.0800 0.1763
v 0.0927 0.0800 0.2853
v 0.0927 0.1500 0.2853
v 0.2427 0.1500 0.1763
f 60/4 59/4 58/4 57/4
v 0.0927 0.0800 0.2853
v -0.0927 0.0800 0.2853
v -0.0927 0.1500 0.2853
v 0.0927 0.1500 0.2853
f 64/4 63/4 62/4 61/4
v 0.0927 0.0800 0.2853
v 0.2427 0.0800 0.1763
v 0.3000 0.0800 -0.0000
v 0.2427 0.0800 -0.1763
v 0.0927 0.0800 -0.2853
v -0.0927 0.0800 -0.2853
v -0.2427 0.0800 -0.1763
v -0.3000 0.0800 0.0000
v -0.2427 0.0800 0.1763
v -0.0927 0.0800 0.2853
f 74/4 73/4 72/4 71/4 70/4 69/4 68/4 67/4 66/4 65/4
v -0.0927 0.1500 0.2853
v -0.2427 0.1500 0.1763
v -0.3000 0.1500 0.0000
v -0.2427 0.1500 -0.1763
v -0.0927 0.1500 -0.2853
v 0.0927 0.1500 -0.2853
v 0.2427 0.1500 -0.1763
v 0.3000 0.1500 -0.0000
v 0.2427 0.1500 0.1763
v 0.0927 0.1500 0.2853
f 84/4 83/4 82/4 81/4 80/4 79/4 78/4 77/4 76/4 75/4
v -0.2077 0.0790 -0.0577
v -0.2077 0.0910 -0.0577
v -0.3177 0.0910 0.0523
v -0.3177 0.0790 0.0523
f 88/8 87/8 86/8 85/8
v -0.2823 0.0790 0.0877
v -0.2823 0.0910 0.0877
v -0.1723 0.0910 -0.0223
v -0.1723 0.0790 -0.0223
f 92/8 91/8 90/8 89/8
v -0.3177 0.0790 0.0523
v -0.2823 0.0790 0.0877
v -0.1723 0.0790 -0.0223
v -0.2077 0.0790 -0.0577
f 96/8 95/8 94/8 93/8
v -0.2077 0.0910 -0.0577
v -0.1723 0.0910 -0.0223
v -0.2823 0.0910 0.0877
v -0.3177 0.0910 0.0523
f 100/8 99/8 98/8 97/8
v -0.3177 0.0910 0.0523
v -0.2823 0.0910 0.0877
v -0.2823 0.0790 0.0877
v -0.3177 0.0790 0.0523
f 104/8 103/8 102/8 101/8
v -0.2077 0.0790 -0.0577
v -0.1723 0.0790 -0.0223
v -0.1723 0.0910 -0.0223
v -0.2077 0.0910 -0.0577
f 108/8 107/8 106/8 105/8
v -0.4277 0.0790 -0.0223
v -0.4277 0.0910 -0.0223
v -0.3177 0.0910 0.0877
v -0.3177 0.0790 0.0877
f 112/8 111/8 110/8 109/8
v -0.2823 0.0790 0.0523
v -0.2823 0.0910 0.0523
v -0.3923 0.0910 -0.0577
v -0.3923 0.0790 -0.0577
f 116/8 115/8 114/8 113/8
v -0.3177 0.0790 0.0877
v -0.2823 0.0790 0.0523
v -0.3923 0.0790 -0.0577
v -0.4277 0.0790 -0.0223
f 120/8 119/8 118/8 117/8
v -0.4277 0.0910 -0.0223
v -0.3923 0.0910 -0.0577
v -0.2823 0.0910 0.0523
v -0.3177 0.0910 0.0877
f 124/8 123/8 122/8 121/8
v -0.3177 0.0910 0.0877
v -0.2823 0.0910 0.0523
v -0.2823 0.0790 0.0523
v -0.3177 0.0790 0.0877
f 128/8 127/8 126/8 125/8
v -0.4277 0.0790 -0.0223
v -0.3923 0.0790 -0.0577
v -0.3923 0.0910 -0.0577
v -0.4277 0.0910 -0.0223
f 132/8 131/8 130/8 129/8
v 0.3923 0.0790 -0.0577
v 0.3923 0.0910 -0.0577
v 0.2823 0.0910 0.0523
v 0.2823 0.0790 0.0523
f 136/8 135/8 134/8 133/8
v 0.3177 0.0790 0.0877
v 0.3177 0.0910 0.0877
v 0.4277 0.0910 -0.0223
v 0.4277 0.0790 -0.0223
f 140/8 139/8 138/8 137/8
v 0.2823 0.0790 0.0523
v 0.3177 0.0790 0.0877
v 0.4277 0.0790 -0.0223
v 0.3923 0.0790 -0.0577
f 144/8 143/8 142/8 141/8
v 0.3923 0.0910 -0.0577
v 0.4277 0.0910 -0.0223
v 0.3177 0.0910 0.0877
v 0.2823 0.0910 0.0523
f 148/8 147/8 146/8 145/8
v 0.2823 0.0910 0.0523
v 0.3177 0.0910 0.0877
v 0.3177 0.0790 0.0877
v 0.2823 0.0790 0.0523
f 152/8 151/8 150/8 149/8
v 0.3923 0.0790 -0.0577
v 0.4277 0.0790 -0.0223
v 0.4277 0.0910 -0.0223
v 0.3923 0.0910 -0.0577
f 156/8 155/8 154/8 153/8
v 0.1723 0.0790 -0.0223
v 0.1723 0.0910 -0.0223
v 0.2823 0.0910 0.0877
v 0.2823 0.0790 0.0877
f 160/8 159/8 158/8 157/8
v 0.3177 0.0790 0.0523
v 0.3177 0.0910 0.0523
v 0.2077 0.0910 -0.0577
v 0.2077 0.0790 -0.0577
f 164/8 163/8 162/8 161/8
v 0.2823 0.0790 0.0877
v 0.3177 0.0790 0.0523
v 0.2077 0.0790 -0.0577
v 0.1723 0.0790 -0.0223
f 168/8 167/8 166/8 165/8
v 0.1723 0.0910 -0.0223
v 0.2077 0.0910 -0.0577
v 0.3177 0.0910 0.0523
v 0.2823 0.0910 0.0877
f 172/8 171/8 170/8 169/8
v 0.2823 0.0910 0.0877
v 0.3177 0.0910 0.0523
v 0.3177 0.0790 0.0523
v 0.2823 0.0790 0.0877
f 176/8 175/8 174/8 173/8
v 0.1723 0.0790 -0.0223
v 0.2077 0.0790 -0.0577
v 0.2077 0.0910 -0.0577
v 0.1723 0.0910 -0.0223
f 180/8 179/8 178/8 177/8
