# Walk of Industry low-poly (generated, wi_lib.py)
mtllib wi.mtl
vt 0 0
vt 0.03125 0.03125
vt 0.09375 0.03125
vt 0.15625 0.03125
vt 0.21875 0.03125
vt 0.28125 0.03125
vt 0.34375 0.03125
vt 0.40625 0.03125
vt 0.46875 0.03125
vt 0.53125 0.03125
vt 0.59375 0.03125
vt 0.65625 0.03125
vt 0.71875 0.03125
vt 0.78125 0.03125
vt 0.84375 0.03125
vt 0.90625 0.03125
vt 0.96875 0.03125
vt 0.03125 0.09375
vt 0.09375 0.09375
vt 0.15625 0.09375
vt 0.21875 0.09375
vt 0.28125 0.09375
vt 0.34375 0.09375
vt 0.40625 0.09375
vt 0.46875 0.09375
vt 0.53125 0.09375
vt 0.59375 0.09375
vt 0.65625 0.09375
vt 0.71875 0.09375
vt 0.78125 0.09375
vt 0.84375 0.09375
vt 0.90625 0.09375
vt 0.96875 0.09375
o Body
usemtl wi_palette
v 0.4800 0.0000 0.4800
v 0.4800 0.0800 0.4800
v 0.4800 0.0800 -0.4800
v 0.4800 0.0000 -0.4800
f 4/5 3/5 2/5 1/5
v -0.4800 0.0000 -0.4800
v -0.4800 0.0800 -0.4800
v -0.4800 0.0800 0.4800
v -0.4800 0.0000 0.4800
f 8/5 7/5 6/5 5/5
v 0.4800 0.0000 -0.4800
v -0.4800 0.0000 -0.4800
v -0.4800 0.0000 0.4800
v 0.4800 0.0000 0.4800
f 12/5 11/5 10/5 9/5
v 0.4800 0.0800 0.4800
v -0.4800 0.0800 0.4800
v -0.4800 0.0800 -0.4800
v 0.4800 0.0800 -0.4800
f 16/5 15/5 14/5 13/5
v 0.4800 0.0800 -0.4800
v -0.4800 0.0800 -0.4800
v -0.4800 0.0000 -0.4800
v 0.4800 0.0000 -0.4800
f 20/5 19/5 18/5 17/5
v 0.4800 0.0000 0.4800
v -0.4800 0.0000 0.4800
v -0.4800 0.0800 0.4800
v 0.4800 0.0800 0.4800
f 24/5 23/5 22/5 21/5
v 0.4000 0.0800 0.3500
v 0.4000 0.6000 0.3500
v 0.4000 0.6000 -0.3900
v 0.4000 0.0800 -0.3900
f 28/10 27/10 26/10 25/10
v -0.4000 0.0800 -0.3900
v -0.4000 0.6000 -0.3900
v -0.4000 0.6000 0.3500
v -0.4000 0.0800 0.3500
f 32/10 31/10 30/10 29/10
v 0.4000 0.0800 -0.3900
v -0.4000 0.0800 -0.3900
v -0.4000 0.0800 0.3500
v 0.4000 0.0800 0.3500
f 36/10 35/10 34/10 33/10
v 0.4000 0.6000 0.3500
v -0.4000 0.6000 0.3500
v -0.4000 0.6000 -0.3900
v 0.4000 0.6000 -0.3900
f 40/10 39/10 38/10 37/10
v 0.4000 0.6000 -0.3900
v -0.4000 0.6000 -0.3900
v -0.4000 0.0800 -0.3900
v 0.4000 0.0800 -0.3900
f 44/10 43/10 42/10 41/10
v 0.4000 0.0800 0.3500
v -0.4000 0.0800 0.3500
v -0.4000 0.6000 0.3500
v 0.4000 0.6000 0.3500
f 48/10 47/10 46/10 45/10
v 0.4100 0.1500 0.3700
v 0.4100 0.1700 0.3700
v 0.4100 0.1700 0.3500
v 0.4100 0.1500 0.3500
f 52/11 51/11 50/11 49/11
v -0.4100 0.1500 0.3500
v -0.4100 0.1700 0.3500
v -0.4100 0.1700 0.3700
v -0.4100 0.1500 0.3700
f 56/11 55/11 54/11 53/11
v 0.4100 0.1500 0.3500
v -0.4100 0.1500 0.3500
v -0.4100 0.1500 0.3700
v 0.4100 0.1500 0.3700
f 60/11 59/11 58/11 57/11
v 0.4100 0.1700 0.3700
v -0.4100 0.1700 0.3700
v -0.4100 0.1700 0.3500
v 0.4100 0.1700 0.3500
f 64/11 63/11 62/11 61/11
v 0.4100 0.1700 0.3500
v -0.4100 0.1700 0.3500
v -0.4100 0.1500 0.3500
v 0.4100 0.1500 0.3500
f 68/11 67/11 66/11 65/11
v 0.4100 0.1500 0.3700
v -0.4100 0.1500 0.3700
v -0.4100 0.1700 0.3700
v 0.4100 0.1700 0.3700
f 72/11 71/11 70/11 69/11
v 0.4100 0.3200 0.3700
v 0.4100 0.3400 0.3700
v 0.4100 0.3400 0.3500
v 0.4100 0.3200 0.3500
f 76/11 75/11 74/11 73/11
v -0.4100 0.3200 0.3500
v -0.4100 0.3400 0.3500
v -0.4100 0.3400 0.3700
v -0.4100 0.3200 0.3700
f 80/11 79/11 78/11 77/11
v 0.4100 0.3200 0.3500
v -0.4100 0.3200 0.3500
v -0.4100 0.3200 0.3700
v 0.4100 0.3200 0.3700
f 84/11 83/11 82/11 81/11
v 0.4100 0.3400 0.3700
v -0.4100 0.3400 0.3700
v -0.4100 0.3400 0.3500
v 0.4100 0.3400 0.3500
f 88/11 87/11 86/11 85/11
v 0.4100 0.3400 0.3500
v -0.4100 0.3400 0.3500
v -0.4100 0.3200 0.3500
v 0.4100 0.3200 0.3500
f 92/11 91/11 90/11 89/11
v 0.4100 0.3200 0.3700
v -0.4100 0.3200 0.3700
v -0.4100 0.3400 0.3700
v 0.4100 0.3400 0.3700
f 96/11 95/11 94/11 93/11
v 0.4100 0.4900 0.3700
v 0.4100 0.5100 0.3700
v 0.4100 0.5100 0.3500
v 0.4100 0.4900 0.3500
f 100/11 99/11 98/11 97/11
v -0.4100 0.4900 0.3500
v -0.4100 0.5100 0.3500
v -0.4100 0.5100 0.3700
v -0.4100 0.4900 0.3700
f 104/11 103/11 102/11 101/11
v 0.4100 0.4900 0.3500
v -0.4100 0.4900 0.3500
v -0.4100 0.4900 0.3700
v 0.4100 0.4900 0.3700
f 108/11 107/11 106/11 105/11
v 0.4100 0.5100 0.3700
v -0.4100 0.5100 0.3700
v -0.4100 0.5100 0.3500
v 0.4100 0.5100 0.3500
f 112/11 111/11 110/11 109/11
v 0.4100 0.5100 0.3500
v -0.4100 0.5100 0.3500
v -0.4100 0.4900 0.3500
v 0.4100 0.4900 0.3500
f 116/11 115/11 114/11 113/11
v 0.4100 0.4900 0.3700
v -0.4100 0.4900 0.3700
v -0.4100 0.5100 0.3700
v 0.4100 0.5100 0.3700
f 120/11 119/11 118/11 117/11
v 0.4300 0.6000 0.3800
v 0.4300 0.6600 0.3800
v 0.4300 0.6600 -0.4200
v 0.4300 0.6000 -0.4200
f 124/11 123/11 122/11 121/11
v -0.4300 0.6000 -0.4200
v -0.4300 0.6600 -0.4200
v -0.4300 0.6600 0.3800
v -0.4300 0.6000 0.3800
f 128/11 127/11 126/11 125/11
v 0.4300 0.6000 -0.4200
v -0.4300 0.6000 -0.4200
v -0.4300 0.6000 0.3800
v 0.4300 0.6000 0.3800
f 132/11 131/11 130/11 129/11
v 0.4300 0.6600 0.3800
v -0.4300 0.6600 0.3800
v -0.4300 0.6600 -0.4200
v 0.4300 0.6600 -0.4200
f 136/11 135/11 134/11 133/11
v 0.4300 0.6600 -0.4200
v -0.4300 0.6600 -0.4200
v -0.4300 0.6000 -0.4200
v 0.4300 0.6000 -0.4200
f 140/11 139/11 138/11 137/11
v 0.4300 0.6000 0.3800
v -0.4300 0.6000 0.3800
v -0.4300 0.6600 0.3800
v 0.4300 0.6600 0.3800
f 144/11 143/11 142/11 141/11
v 0.0300 0.8600 -0.0200
v -0.0300 0.8600 -0.0200
v -0.4100 0.6600 -0.4000
v 0.4100 0.6600 -0.4000
f 148/4 147/4 146/4 145/4
v -0.0300 0.8600 -0.0200
v 0.0300 0.8600 -0.0200
v 0.4100 0.6600 0.3600
v -0.4100 0.6600 0.3600
f 152/4 151/4 150/4 149/4
v -0.0300 0.8600 -0.0200
v -0.4100 0.6600 0.3600
v -0.4100 0.6600 -0.4000
f 155/4 154/4 153/4
v 0.0300 0.8600 -0.0200
v 0.4100 0.6600 -0.4000
v 0.4100 0.6600 0.3600
f 158/4 157/4 156/4
v 0.4100 0.6600 -0.4000
v -0.4100 0.6600 -0.4000
v -0.4100 0.6600 0.3600
v 0.4100 0.6600 0.3600
f 162/4 161/4 160/4 159/4
v -0.3950 0.1800 0.1500
v -0.3950 0.3800 0.1500
v -0.3950 0.3800 -0.1500
v -0.3950 0.1800 -0.1500
f 166/17 165/17 164/17 163/17
v -0.4150 0.1800 -0.1500
v -0.4150 0.3800 -0.1500
v -0.4150 0.3800 0.1500
v -0.4150 0.1800 0.1500
f 170/17 169/17 168/17 167/17
v -0.3950 0.1800 -0.1500
v -0.4150 0.1800 -0.1500
v -0.4150 0.1800 0.1500
v -0.3950 0.1800 0.1500
f 174/17 173/17 172/17 171/17
v -0.3950 0.3800 0.1500
v -0.4150 0.3800 0.1500
v -0.4150 0.3800 -0.1500
v -0.3950 0.3800 -0.1500
f 178/17 177/17 176/17 175/17
v -0.3950 0.3800 -0.1500
v -0.4150 0.3800 -0.1500
v -0.4150 0.1800 -0.1500
v -0.3950 0.1800 -0.1500
f 182/17 181/17 180/17 179/17
v -0.3950 0.1800 0.1500
v -0.4150 0.1800 0.1500
v -0.4150 0.3800 0.1500
v -0.3950 0.3800 0.1500
f 186/17 185/17 184/17 183/17
v -0.3950 0.3850 0.1900
v -0.3950 0.4350 0.1900
v -0.3950 0.4350 -0.1900
v -0.3950 0.3850 -0.1900
f 190/6 189/6 188/6 187/6
v -0.4350 0.3850 -0.1900
v -0.4350 0.4350 -0.1900
v -0.4350 0.4350 0.1900
v -0.4350 0.3850 0.1900
f 194/6 193/6 192/6 191/6
v -0.3950 0.3850 -0.1900
v -0.4350 0.3850 -0.1900
v -0.4350 0.3850 0.1900
v -0.3950 0.3850 0.1900
f 198/6 197/6 196/6 195/6
v -0.3950 0.4350 0.1900
v -0.4350 0.4350 0.1900
v -0.4350 0.4350 -0.1900
v -0.3950 0.4350 -0.1900
f 202/6 201/6 200/6 199/6
v -0.3950 0.4350 -0.1900
v -0.4350 0.4350 -0.1900
v -0.4350 0.3850 -0.1900
v -0.3950 0.3850 -0.1900
f 206/6 205/6 204/6 203/6
v -0.3950 0.3850 0.1900
v -0.4350 0.3850 0.1900
v -0.4350 0.4350 0.1900
v -0.3950 0.4350 0.1900
f 210/6 209/6 208/6 207/6
v -0.3950 0.1250 0.1900
v -0.3950 0.1750 0.1900
v -0.3950 0.1750 -0.1900
v -0.3950 0.1250 -0.1900
f 214/6 213/6 212/6 211/6
v -0.4350 0.1250 -0.1900
v -0.4350 0.1750 -0.1900
v -0.4350 0.1750 0.1900
v -0.4350 0.1250 0.1900
f 218/6 217/6 216/6 215/6
v -0.3950 0.1250 -0.1900
v -0.4350 0.1250 -0.1900
v -0.4350 0.1250 0.1900
v -0.3950 0.1250 0.1900
f 222/6 221/6 220/6 219/6
v -0.3950 0.1750 0.1900
v -0.4350 0.1750 0.1900
v -0.4350 0.1750 -0.1900
v -0.3950 0.1750 -0.1900
f 226/6 225/6 224/6 223/6
v -0.3950 0.1750 -0.1900
v -0.4350 0.1750 -0.1900
v -0.4350 0.1250 -0.1900
v -0.3950 0.1250 -0.1900
f 230/6 229/6 228/6 227/6
v -0.3950 0.1250 0.1900
v -0.4350 0.1250 0.1900
v -0.4350 0.1750 0.1900
v -0.3950 0.1750 0.1900
f 234/6 233/6 232/6 231/6
v 0.2117 0.5800 -0.1276
v 0.1576 0.5800 -0.1817
v 0.1576 1.2000 -0.1817
v 0.2117 1.2000 -0.1276
f 238/7 237/7 236/7 235/7
v 0.1576 0.5800 -0.1817
v 0.1576 0.5800 -0.2583
v 0.1576 1.2000 -0.2583
v 0.1576 1.2000 -0.1817
f 242/7 241/7 240/7 239/7
v 0.1576 0.5800 -0.2583
v 0.2117 0.5800 -0.3124
v 0.2117 1.2000 -0.3124
v 0.1576 1.2000 -0.2583
f 246/7 245/7 244/7 243/7
v 0.2117 0.5800 -0.3124
v 0.2883 0.5800 -0.3124
v 0.2883 1.2000 -0.3124
v 0.2117 1.2000 -0.3124
f 250/7 249/7 248/7 247/7
v 0.2883 0.5800 -0.3124
v 0.3424 0.5800 -0.2583
v 0.3424 1.2000 -0.2583
v 0.2883 1.2000 -0.3124
f 254/7 253/7 252/7 251/7
v 0.3424 0.5800 -0.2583
v 0.3424 0.5800 -0.1817
v 0.3424 1.2000 -0.1817
v 0.3424 1.2000 -0.2583
f 258/7 257/7 256/7 255/7
v 0.3424 0.5800 -0.1817
v 0.2883 0.5800 -0.1276
v 0.2883 1.2000 -0.1276
v 0.3424 1.2000 -0.1817
f 262/7 261/7 260/7 259/7
v 0.2883 0.5800 -0.1276
v 0.2117 0.5800 -0.1276
v 0.2117 1.2000 -0.1276
v 0.2883 1.2000 -0.1276
f 266/7 265/7 264/7 263/7
v 0.2883 0.5800 -0.1276
v 0.3424 0.5800 -0.1817
v 0.3424 0.5800 -0.2583
v 0.2883 0.5800 -0.3124
v 0.2117 0.5800 -0.3124
v 0.1576 0.5800 -0.2583
v 0.1576 0.5800 -0.1817
v 0.2117 0.5800 -0.1276
f 274/7 273/7 272/7 271/7 270/7 269/7 268/7 267/7
v 0.2117 1.2000 -0.1276
v 0.1576 1.2000 -0.1817
v 0.1576 1.2000 -0.2583
v 0.2117 1.2000 -0.3124
v 0.2883 1.2000 -0.3124
v 0.3424 1.2000 -0.2583
v 0.3424 1.2000 -0.1817
v 0.2883 1.2000 -0.1276
f 282/7 281/7 280/7 279/7 278/7 277/7 276/7 275/7
v 0.2003 1.2000 -0.0999
v 0.1299 1.2000 -0.1703
v 0.1299 1.2600 -0.1703
v 0.2003 1.2600 -0.0999
f 286/4 285/4 284/4 283/4
v 0.1299 1.2000 -0.1703
v 0.1299 1.2000 -0.2697
v 0.1299 1.2600 -0.2697
v 0.1299 1.2600 -0.1703
f 290/4 289/4 288/4 287/4
v 0.1299 1.2000 -0.2697
v 0.2003 1.2000 -0.3401
v 0.2003 1.2600 -0.3401
v 0.1299 1.2600 -0.2697
f 294/4 293/4 292/4 291/4
v 0.2003 1.2000 -0.3401
v 0.2997 1.2000 -0.3401
v 0.2997 1.2600 -0.3401
v 0.2003 1.2600 -0.3401
f 298/4 297/4 296/4 295/4
v 0.2997 1.2000 -0.3401
v 0.3701 1.2000 -0.2697
v 0.3701 1.2600 -0.2697
v 0.2997 1.2600 -0.3401
f 302/4 301/4 300/4 299/4
v 0.3701 1.2000 -0.2697
v 0.3701 1.2000 -0.1703
v 0.3701 1.2600 -0.1703
v 0.3701 1.2600 -0.2697
f 306/4 305/4 304/4 303/4
v 0.3701 1.2000 -0.1703
v 0.2997 1.2000 -0.0999
v 0.2997 1.2600 -0.0999
v 0.3701 1.2600 -0.1703
f 310/4 309/4 308/4 307/4
v 0.2997 1.2000 -0.0999
v 0.2003 1.2000 -0.0999
v 0.2003 1.2600 -0.0999
v 0.2997 1.2600 -0.0999
f 314/4 313/4 312/4 311/4
v 0.2997 1.2000 -0.0999
v 0.3701 1.2000 -0.1703
v 0.3701 1.2000 -0.2697
v 0.2997 1.2000 -0.3401
v 0.2003 1.2000 -0.3401
v 0.1299 1.2000 -0.2697
v 0.1299 1.2000 -0.1703
v 0.2003 1.2000 -0.0999
f 322/4 321/4 320/4 319/4 318/4 317/4 316/4 315/4
v 0.2003 1.2600 -0.0999
v 0.1299 1.2600 -0.1703
v 0.1299 1.2600 -0.2697
v 0.2003 1.2600 -0.3401
v 0.2997 1.2600 -0.3401
v 0.3701 1.2600 -0.2697
v 0.3701 1.2600 -0.1703
v 0.2997 1.2600 -0.0999
f 330/4 329/4 328/4 327/4 326/4 325/4 324/4 323/4
v 0.2194 1.2600 -0.1461
v 0.1761 1.2600 -0.1894
v 0.1761 1.2800 -0.1894
v 0.2194 1.2800 -0.1461
f 334/6 333/6 332/6 331/6
v 0.1761 1.2600 -0.1894
v 0.1761 1.2600 -0.2506
v 0.1761 1.2800 -0.2506
v 0.1761 1.2800 -0.1894
f 338/6 337/6 336/6 335/6
v 0.1761 1.2600 -0.2506
v 0.2194 1.2600 -0.2939
v 0.2194 1.2800 -0.2939
v 0.1761 1.2800 -0.2506
f 342/6 341/6 340/6 339/6
v 0.2194 1.2600 -0.2939
v 0.2806 1.2600 -0.2939
v 0.2806 1.2800 -0.2939
v 0.2194 1.2800 -0.2939
f 346/6 345/6 344/6 343/6
v 0.2806 1.2600 -0.2939
v 0.3239 1.2600 -0.2506
v 0.3239 1.2800 -0.2506
v 0.2806 1.2800 -0.2939
f 350/6 349/6 348/6 347/6
v 0.3239 1.2600 -0.2506
v 0.3239 1.2600 -0.1894
v 0.3239 1.2800 -0.1894
v 0.3239 1.2800 -0.2506
f 354/6 353/6 352/6 351/6
v 0.3239 1.2600 -0.1894
v 0.2806 1.2600 -0.1461
v 0.2806 1.2800 -0.1461
v 0.3239 1.2800 -0.1894
f 358/6 357/6 356/6 355/6
v 0.2806 1.2600 -0.1461
v 0.2194 1.2600 -0.1461
v 0.2194 1.2800 -0.1461
v 0.2806 1.2800 -0.1461
f 362/6 361/6 360/6 359/6
v 0.2806 1.2600 -0.1461
v 0.3239 1.2600 -0.1894
v 0.3239 1.2600 -0.2506
v 0.2806 1.2600 -0.2939
v 0.2194 1.2600 -0.2939
v 0.1761 1.2600 -0.2506
v 0.1761 1.2600 -0.1894
v 0.2194 1.2600 -0.1461
f 370/6 369/6 368/6 367/6 366/6 365/6 364/6 363/6
v 0.2194 1.2800 -0.1461
v 0.1761 1.2800 -0.1894
v 0.1761 1.2800 -0.2506
v 0.2194 1.2800 -0.2939
v 0.2806 1.2800 -0.2939
v 0.3239 1.2800 -0.2506
v 0.3239 1.2800 -0.1894
v 0.2806 1.2800 -0.1461
f 378/6 377/6 376/6 375/6 374/6 373/6 372/6 371/6
v -0.1000 0.7200 -0.0500
v -0.1000 0.8400 -0.0500
v -0.1000 0.8400 -0.2500
v -0.1000 0.7200 -0.2500
f 382/6 381/6 380/6 379/6
v -0.3000 0.7200 -0.2500
v -0.3000 0.8400 -0.2500
v -0.3000 0.8400 -0.0500
v -0.3000 0.7200 -0.0500
f 386/6 385/6 384/6 383/6
v -0.1000 0.7200 -0.2500
v -0.3000 0.7200 -0.2500
v -0.3000 0.7200 -0.0500
v -0.1000 0.7200 -0.0500
f 390/6 389/6 388/6 387/6
v -0.1000 0.8400 -0.0500
v -0.3000 0.8400 -0.0500
v -0.3000 0.8400 -0.2500
v -0.1000 0.8400 -0.2500
f 394/6 393/6 392/6 391/6
v -0.1000 0.8400 -0.2500
v -0.3000 0.8400 -0.2500
v -0.3000 0.7200 -0.2500
v -0.1000 0.7200 -0.2500
f 398/6 397/6 396/6 395/6
v -0.1000 0.7200 -0.0500
v -0.3000 0.7200 -0.0500
v -0.3000 0.8400 -0.0500
v -0.1000 0.8400 -0.0500
f 402/6 401/6 400/6 399/6
v -0.2700 0.5100 0.3900
v -0.2700 0.5700 0.3900
v -0.2700 0.5700 0.3300
v -0.2700 0.5100 0.3300
f 406/16 405/16 404/16 403/16
v -0.3300 0.5100 0.3300
v -0.3300 0.5700 0.3300
v -0.3300 0.5700 0.3900
v -0.3300 0.5100 0.3900
f 410/16 409/16 408/16 407/16
v -0.2700 0.5100 0.3300
v -0.3300 0.5100 0.3300
v -0.3300 0.5100 0.3900
v -0.2700 0.5100 0.3900
f 414/16 413/16 412/16 411/16
v -0.2700 0.5700 0.3900
v -0.3300 0.5700 0.3900
v -0.3300 0.5700 0.3300
v -0.2700 0.5700 0.3300
f 418/16 417/16 416/16 415/16
v -0.2700 0.5700 0.3300
v -0.3300 0.5700 0.3300
v -0.3300 0.5100 0.3300
v -0.2700 0.5100 0.3300
f 422/16 421/16 420/16 419/16
v -0.2700 0.5100 0.3900
v -0.3300 0.5100 0.3900
v -0.3300 0.5700 0.3900
v -0.2700 0.5700 0.3900
f 426/16 425/16 424/16 423/16
