# Walk of Industry low-poly (generated, wi_lib.py)
mtllib wi.mtl
vt 0 0
vt 0.03125 0.03125
vt 0.09375 0.03125
vt 0.15625 0.03125
vt 0.21875 0.03125
vt 0.28125 0.03125
vt 0.34375 0.03125
vt 0.40625 0.03125
vt 0.46875 0.03125
vt 0.53125 0.03125
vt 0.59375 0.03125
vt 0.65625 0.03125
vt 0.71875 0.03125
vt 0.78125 0.03125
vt 0.84375 0.03125
vt 0.90625 0.03125
vt 0.96875 0.03125
vt 0.03125 0.09375
vt 0.09375 0.09375
vt 0.15625 0.09375
vt 0.21875 0.09375
vt 0.28125 0.09375
vt 0.34375 0.09375
vt 0.40625 0.09375
vt 0.46875 0.09375
vt 0.53125 0.09375
vt 0.59375 0.09375
vt 0.65625 0.09375
vt 0.71875 0.09375
vt 0.78125 0.09375
vt 0.84375 0.09375
vt 0.90625 0.09375
vt 0.96875 0.09375
o Body
usemtl wi_palette
v -0.0765 0.0000 0.1848
v -0.1848 0.0000 0.0765
v -0.1848 0.0500 0.0765
v -0.0765 0.0500 0.1848
f 4/2 3/2 2/2 1/2
v -0.1848 0.0000 0.0765
v -0.1848 0.0000 -0.0765
v -0.1848 0.0500 -0.0765
v -0.1848 0.0500 0.0765
f 8/2 7/2 6/2 5/2
v -0.1848 0.0000 -0.0765
v -0.0765 0.0000 -0.1848
v -0.0765 0.0500 -0.1848
v -0.1848 0.0500 -0.0765
f 12/2 11/2 10/2 9/2
v -0.0765 0.0000 -0.1848
v 0.0765 0.0000 -0.1848
v 0.0765 0.0500 -0.1848
v -0.0765 0.0500 -0.1848
f 16/2 15/2 14/2 13/2
v 0.0765 0.0000 -0.1848
v 0.1848 0.0000 -0.0765
v 0.1848 0.0500 -0.0765
v 0.0765 0.0500 -0.1848
f 20/2 19/2 18/2 17/2
v 0.1848 0.0000 -0.0765
v 0.1848 0.0000 0.0765
v 0.1848 0.0500 0.0765
v 0.1848 0.0500 -0.0765
f 24/2 23/2 22/2 21/2
v 0.1848 0.0000 0.0765
v 0.0765 0.0000 0.1848
v 0.0765 0.0500 0.1848
v 0.1848 0.0500 0.0765
f 28/2 27/2 26/2 25/2
v 0.0765 0.0000 0.1848
v -0.0765 0.0000 0.1848
v -0.0765 0.0500 0.1848
v 0.0765 0.0500 0.1848
f 32/2 31/2 30/2 29/2
v 0.0765 0.0000 0.1848
v 0.1848 0.0000 0.0765
v 0.1848 0.0000 -0.0765
v 0.0765 0.0000 -0.1848
v -0.0765 0.0000 -0.1848
v -0.1848 0.0000 -0.0765
v -0.1848 0.0000 0.0765
v -0.0765 0.0000 0.1848
f 40/2 39/2 38/2 37/2 36/2 35/2 34/2 33/2
v -0.0765 0.0500 0.1848
v -0.1848 0.0500 0.0765
v -0.1848 0.0500 -0.0765
v -0.0765 0.0500 -0.1848
v 0.0765 0.0500 -0.1848
v 0.1848 0.0500 -0.0765
v 0.1848 0.0500 0.0765
v 0.0765 0.0500 0.1848
f 48/2 47/2 46/2 45/2 44/2 43/2 42/2 41/2
v -0.0459 0.0500 0.1109
v -0.1109 0.0500 0.0459
v -0.1109 0.0800 0.0459
v -0.0459 0.0800 0.1109
f 52/4 51/4 50/4 49/4
v -0.1109 0.0500 0.0459
v -0.1109 0.0500 -0.0459
v -0.1109 0.0800 -0.0459
v -0.1109 0.0800 0.0459
f 56/4 55/4 54/4 53/4
v -0.1109 0.0500 -0.0459
v -0.0459 0.0500 -0.1109
v -0.0459 0.0800 -0.1109
v -0.1109 0.0800 -0.0459
f 60/4 59/4 58/4 57/4
v -0.0459 0.0500 -0.1109
v 0.0459 0.0500 -0.1109
v 0.0459 0.0800 -0.1109
v -0.0459 0.0800 -0.1109
f 64/4 63/4 62/4 61/4
v 0.0459 0.0500 -0.1109
v 0.1109 0.0500 -0.0459
v 0.1109 0.0800 -0.0459
v 0.0459 0.0800 -0.1109
f 68/4 67/4 66/4 65/4
v 0.1109 0.0500 -0.0459
v 0.1109 0.0500 0.0459
v 0.1109 0.0800 0.0459
v 0.1109 0.0800 -0.0459
f 72/4 71/4 70/4 69/4
v 0.1109 0.0500 0.0459
v 0.0459 0.0500 0.1109
v 0.0459 0.0800 0.1109
v 0.1109 0.0800 0.0459
f 76/4 75/4 74/4 73/4
v 0.0459 0.0500 0.1109
v -0.0459 0.0500 0.1109
v -0.0459 0.0800 0.1109
v 0.0459 0.0800 0.1109
f 80/4 79/4 78/4 77/4
v 0.0459 0.0500 0.1109
v 0.1109 0.0500 0.0459
v 0.1109 0.0500 -0.0459
v 0.0459 0.0500 -0.1109
v -0.0459 0.0500 -0.1109
v -0.1109 0.0500 -0.0459
v -0.1109 0.0500 0.0459
v -0.0459 0.0500 0.1109
f 88/4 87/4 86/4 85/4 84/4 83/4 82/4 81/4
v -0.0459 0.0800 0.1109
v -0.1109 0.0800 0.0459
v -0.1109 0.0800 -0.0459
v -0.0459 0.0800 -0.1109
v 0.0459 0.0800 -0.1109
v 0.1109 0.0800 -0.0459
v 0.1109 0.0800 0.0459
v 0.0459 0.0800 0.1109
f 96/4 95/4 94/4 93/4 92/4 91/4 90/4 89/4
v 0.1700 0.0450 0.0250
v 0.1700 0.0650 0.0250
v 0.1700 0.0650 -0.0250
v 0.1700 0.0450 -0.0250
f 100/6 99/6 98/6 97/6
v -0.1700 0.0450 -0.0250
v -0.1700 0.0650 -0.0250
v -0.1700 0.0650 0.0250
v -0.1700 0.0450 0.0250
f 104/6 103/6 102/6 101/6
v 0.1700 0.0450 -0.0250
v -0.1700 0.0450 -0.0250
v -0.1700 0.0450 0.0250
v 0.1700 0.0450 0.0250
f 108/6 107/6 106/6 105/6
v 0.1700 0.0650 0.0250
v -0.1700 0.0650 0.0250
v -0.1700 0.0650 -0.0250
v 0.1700 0.0650 -0.0250
f 112/6 111/6 110/6 109/6
v 0.1700 0.0650 -0.0250
v -0.1700 0.0650 -0.0250
v -0.1700 0.0450 -0.0250
v 0.1700 0.0450 -0.0250
f 116/6 115/6 114/6 113/6
v 0.1700 0.0450 0.0250
v -0.1700 0.0450 0.0250
v -0.1700 0.0650 0.0250
v 0.1700 0.0650 0.0250
f 120/6 119/6 118/6 117/6
