# Walk of Industry low-poly (generated, wi_lib.py)
mtllib wi.mtl
vt 0 0
vt 0.03125 0.03125
vt 0.09375 0.03125
vt 0.15625 0.03125
vt 0.21875 0.03125
vt 0.28125 0.03125
vt 0.34375 0.03125
vt 0.40625 0.03125
vt 0.46875 0.03125
vt 0.53125 0.03125
vt 0.59375 0.03125
vt 0.65625 0.03125
vt 0.71875 0.03125
vt 0.78125 0.03125
vt 0.84375 0.03125
vt 0.90625 0.03125
vt 0.96875 0.03125
vt 0.03125 0.09375
vt 0.09375 0.09375
vt 0.15625 0.09375
vt 0.21875 0.09375
vt 0.28125 0.09375
vt 0.34375 0.09375
vt 0.40625 0.09375
vt 0.46875 0.09375
vt 0.53125 0.09375
vt 0.59375 0.09375
vt 0.65625 0.09375
vt 0.71875 0.09375
vt 0.78125 0.09375
vt 0.84375 0.09375
vt 0.90625 0.09375
vt 0.96875 0.09375
o Body
usemtl wi_palette
v 0.4700 0.0000 0.4700
v 0.4700 0.0800 0.4700
v 0.4700 0.0800 -0.4700
v 0.4700 0.0000 -0.4700
f 4/5 3/5 2/5 1/5
v -0.4700 0.0000 -0.4700
v -0.4700 0.0800 -0.4700
v -0.4700 0.0800 0.4700
v -0.4700 0.0000 0.4700
f 8/5 7/5 6/5 5/5
v 0.4700 0.0000 -0.4700
v -0.4700 0.0000 -0.4700
v -0.4700 0.0000 0.4700
v 0.4700 0.0000 0.4700
f 12/5 11/5 10/5 9/5
v 0.4700 0.0800 0.4700
v -0.4700 0.0800 0.4700
v -0.4700 0.0800 -0.4700
v 0.4700 0.0800 -0.4700
f 16/5 15/5 14/5 13/5
v 0.4700 0.0800 -0.4700
v -0.4700 0.0800 -0.4700
v -0.4700 0.0000 -0.4700
v 0.4700 0.0000 -0.4700
f 20/5 19/5 18/5 17/5
v 0.4700 0.0000 0.4700
v -0.4700 0.0000 0.4700
v -0.4700 0.0800 0.4700
v 0.4700 0.0800 0.4700
f 24/5 23/5 22/5 21/5
v 0.4600 0.0800 -0.3200
v 0.4600 0.2600 -0.3200
v 0.4600 0.2600 -0.4600
v 0.4600 0.0800 -0.4600
f 28/2 27/2 26/2 25/2
v 0.3200 0.0800 -0.4600
v 0.3200 0.2600 -0.4600
v 0.3200 0.2600 -0.3200
v 0.3200 0.0800 -0.3200
f 32/2 31/2 30/2 29/2
v 0.4600 0.0800 -0.4600
v 0.3200 0.0800 -0.4600
v 0.3200 0.0800 -0.3200
v 0.4600 0.0800 -0.3200
f 36/2 35/2 34/2 33/2
v 0.4600 0.2600 -0.3200
v 0.3200 0.2600 -0.3200
v 0.3200 0.2600 -0.4600
v 0.4600 0.2600 -0.4600
f 40/2 39/2 38/2 37/2
v 0.4600 0.2600 -0.4600
v 0.3200 0.2600 -0.4600
v 0.3200 0.0800 -0.4600
v 0.4600 0.0800 -0.4600
f 44/2 43/2 42/2 41/2
v 0.4600 0.0800 -0.3200
v 0.3200 0.0800 -0.3200
v 0.3200 0.2600 -0.3200
v 0.4600 0.2600 -0.3200
f 48/2 47/2 46/2 45/2
v 0.4650 0.2575 -0.3150
v 0.4650 0.2825 -0.3150
v 0.4650 0.2825 -0.4650
v 0.4650 0.2575 -0.4650
f 52/4 51/4 50/4 49/4
v 0.3150 0.2575 -0.4650
v 0.3150 0.2825 -0.4650
v 0.3150 0.2825 -0.3150
v 0.3150 0.2575 -0.3150
f 56/4 55/4 54/4 53/4
v 0.4650 0.2575 -0.4650
v 0.3150 0.2575 -0.4650
v 0.3150 0.2575 -0.3150
v 0.4650 0.2575 -0.3150
f 60/4 59/4 58/4 57/4
v 0.4650 0.2825 -0.3150
v 0.3150 0.2825 -0.3150
v 0.3150 0.2825 -0.4650
v 0.4650 0.2825 -0.4650
f 64/4 63/4 62/4 61/4
v 0.4650 0.2825 -0.4650
v 0.3150 0.2825 -0.4650
v 0.3150 0.2575 -0.4650
v 0.4650 0.2575 -0.4650
f 68/4 67/4 66/4 65/4
v 0.4650 0.2575 -0.3150
v 0.3150 0.2575 -0.3150
v 0.3150 0.2825 -0.3150
v 0.4650 0.2825 -0.3150
f 72/4 71/4 70/4 69/4
v 0.4600 0.0800 0.4600
v 0.4600 0.2600 0.4600
v 0.4600 0.2600 0.3200
v 0.4600 0.0800 0.3200
f 76/2 75/2 74/2 73/2
v 0.3200 0.0800 0.3200
v 0.3200 0.2600 0.3200
v 0.3200 0.2600 0.4600
v 0.3200 0.0800 0.4600
f 80/2 79/2 78/2 77/2
v 0.4600 0.0800 0.3200
v 0.3200 0.0800 0.3200
v 0.3200 0.0800 0.4600
v 0.4600 0.0800 0.4600
f 84/2 83/2 82/2 81/2
v 0.4600 0.2600 0.4600
v 0.3200 0.2600 0.4600
v 0.3200 0.2600 0.3200
v 0.4600 0.2600 0.3200
f 88/2 87/2 86/2 85/2
v 0.4600 0.2600 0.3200
v 0.3200 0.2600 0.3200
v 0.3200 0.0800 0.3200
v 0.4600 0.0800 0.3200
f 92/2 91/2 90/2 89/2
v 0.4600 0.0800 0.4600
v 0.3200 0.0800 0.4600
v 0.3200 0.2600 0.4600
v 0.4600 0.2600 0.4600
f 96/2 95/2 94/2 93/2
v 0.4650 0.2575 0.4650
v 0.4650 0.2825 0.4650
v 0.4650 0.2825 0.3150
v 0.4650 0.2575 0.3150
f 100/4 99/4 98/4 97/4
v 0.3150 0.2575 0.3150
v 0.3150 0.2825 0.3150
v 0.3150 0.2825 0.4650
v 0.3150 0.2575 0.4650
f 104/4 103/4 102/4 101/4
v 0.4650 0.2575 0.3150
v 0.3150 0.2575 0.3150
v 0.3150 0.2575 0.4650
v 0.4650 0.2575 0.4650
f 108/4 107/4 106/4 105/4
v 0.4650 0.2825 0.4650
v 0.3150 0.2825 0.4650
v 0.3150 0.2825 0.3150
v 0.4650 0.2825 0.3150
f 112/4 111/4 110/4 109/4
v 0.4650 0.2825 0.3150
v 0.3150 0.2825 0.3150
v 0.3150 0.2575 0.3150
v 0.4650 0.2575 0.3150
f 116/4 115/4 114/4 113/4
v 0.4650 0.2575 0.4650
v 0.3150 0.2575 0.4650
v 0.3150 0.2825 0.4650
v 0.4650 0.2825 0.4650
f 120/4 119/4 118/4 117/4
v -0.3200 0.0800 -0.3200
v -0.3200 0.2600 -0.3200
v -0.3200 0.2600 -0.4600
v -0.3200 0.0800 -0.4600
f 124/2 123/2 122/2 121/2
v -0.4600 0.0800 -0.4600
v -0.4600 0.2600 -0.4600
v -0.4600 0.2600 -0.3200
v -0.4600 0.0800 -0.3200
f 128/2 127/2 126/2 125/2
v -0.3200 0.0800 -0.4600
v -0.4600 0.0800 -0.4600
v -0.4600 0.0800 -0.3200
v -0.3200 0.0800 -0.3200
f 132/2 131/2 130/2 129/2
v -0.3200 0.2600 -0.3200
v -0.4600 0.2600 -0.3200
v -0.4600 0.2600 -0.4600
v -0.3200 0.2600 -0.4600
f 136/2 135/2 134/2 133/2
v -0.3200 0.2600 -0.4600
v -0.4600 0.2600 -0.4600
v -0.4600 0.0800 -0.4600
v -0.3200 0.0800 -0.4600
f 140/2 139/2 138/2 137/2
v -0.3200 0.0800 -0.3200
v -0.4600 0.0800 -0.3200
v -0.4600 0.2600 -0.3200
v -0.3200 0.2600 -0.3200
f 144/2 143/2 142/2 141/2
v -0.3150 0.2575 -0.3150
v -0.3150 0.2825 -0.3150
v -0.3150 0.2825 -0.4650
v -0.3150 0.2575 -0.4650
f 148/4 147/4 146/4 145/4
v -0.4650 0.2575 -0.4650
v -0.4650 0.2825 -0.4650
v -0.4650 0.2825 -0.3150
v -0.4650 0.2575 -0.3150
f 152/4 151/4 150/4 149/4
v -0.3150 0.2575 -0.4650
v -0.4650 0.2575 -0.4650
v -0.4650 0.2575 -0.3150
v -0.3150 0.2575 -0.3150
f 156/4 155/4 154/4 153/4
v -0.3150 0.2825 -0.3150
v -0.4650 0.2825 -0.3150
v -0.4650 0.2825 -0.4650
v -0.3150 0.2825 -0.4650
f 160/4 159/4 158/4 157/4
v -0.3150 0.2825 -0.4650
v -0.4650 0.2825 -0.4650
v -0.4650 0.2575 -0.4650
v -0.3150 0.2575 -0.4650
f 164/4 163/4 162/4 161/4
v -0.3150 0.2575 -0.3150
v -0.4650 0.2575 -0.3150
v -0.4650 0.2825 -0.3150
v -0.3150 0.2825 -0.3150
f 168/4 167/4 166/4 165/4
v -0.3200 0.0800 0.4600
v -0.3200 0.2600 0.4600
v -0.3200 0.2600 0.3200
v -0.3200 0.0800 0.3200
f 172/2 171/2 170/2 169/2
v -0.4600 0.0800 0.3200
v -0.4600 0.2600 0.3200
v -0.4600 0.2600 0.4600
v -0.4600 0.0800 0.4600
f 176/2 175/2 174/2 173/2
v -0.3200 0.0800 0.3200
v -0.4600 0.0800 0.3200
v -0.4600 0.0800 0.4600
v -0.3200 0.0800 0.4600
f 180/2 179/2 178/2 177/2
v -0.3200 0.2600 0.4600
v -0.4600 0.2600 0.4600
v -0.4600 0.2600 0.3200
v -0.3200 0.2600 0.3200
f 184/2 183/2 182/2 181/2
v -0.3200 0.2600 0.3200
v -0.4600 0.2600 0.3200
v -0.4600 0.0800 0.3200
v -0.3200 0.0800 0.3200
f 188/2 187/2 186/2 185/2
v -0.3200 0.0800 0.4600
v -0.4600 0.0800 0.4600
v -0.4600 0.2600 0.4600
v -0.3200 0.2600 0.4600
f 192/2 191/2 190/2 189/2
v -0.3150 0.2575 0.4650
v -0.3150 0.2825 0.4650
v -0.3150 0.2825 0.3150
v -0.3150 0.2575 0.3150
f 196/4 195/4 194/4 193/4
v -0.4650 0.2575 0.3150
v -0.4650 0.2825 0.3150
v -0.4650 0.2825 0.4650
v -0.4650 0.2575 0.4650
f 200/4 199/4 198/4 197/4
v -0.3150 0.2575 0.3150
v -0.4650 0.2575 0.3150
v -0.4650 0.2575 0.4650
v -0.3150 0.2575 0.4650
f 204/4 203/4 202/4 201/4
v -0.3150 0.2825 0.4650
v -0.4650 0.2825 0.4650
v -0.4650 0.2825 0.3150
v -0.3150 0.2825 0.3150
f 208/4 207/4 206/4 205/4
v -0.3150 0.2825 0.3150
v -0.4650 0.2825 0.3150
v -0.4650 0.2575 0.3150
v -0.3150 0.2575 0.3150
f 212/4 211/4 210/4 209/4
v -0.3150 0.2575 0.4650
v -0.4650 0.2575 0.4650
v -0.4650 0.2825 0.4650
v -0.3150 0.2825 0.4650
f 216/4 215/4 214/4 213/4
v 0.1218 0.1800 -0.4132
v 0.1218 0.1920 -0.4132
v -0.0212 0.1920 -0.2702
v -0.0212 0.1800 -0.2702
f 220/8 219/8 218/8 217/8
v 0.0212 0.1800 -0.2278
v 0.0212 0.1920 -0.2278
v 0.1642 0.1920 -0.3708
v 0.1642 0.1800 -0.3708
f 224/8 223/8 222/8 221/8
v -0.0212 0.1800 -0.2702
v 0.0212 0.1800 -0.2278
v 0.1642 0.1800 -0.3708
v 0.1218 0.1800 -0.4132
f 228/8 227/8 226/8 225/8
v 0.1218 0.1920 -0.4132
v 0.1642 0.1920 -0.3708
v 0.0212 0.1920 -0.2278
v -0.0212 0.1920 -0.2702
f 232/8 231/8 230/8 229/8
v -0.0212 0.1920 -0.2702
v 0.0212 0.1920 -0.2278
v 0.0212 0.1800 -0.2278
v -0.0212 0.1800 -0.2702
f 236/8 235/8 234/8 233/8
v 0.1218 0.1800 -0.4132
v 0.1642 0.1800 -0.3708
v 0.1642 0.1920 -0.3708
v 0.1218 0.1920 -0.4132
f 240/8 239/8 238/8 237/8
v -0.1642 0.1800 -0.3708
v -0.1642 0.1920 -0.3708
v -0.0212 0.1920 -0.2278
v -0.0212 0.1800 -0.2278
f 244/8 243/8 242/8 241/8
v 0.0212 0.1800 -0.2702
v 0.0212 0.1920 -0.2702
v -0.1218 0.1920 -0.4132
v -0.1218 0.1800 -0.4132
f 248/8 247/8 246/8 245/8
v -0.0212 0.1800 -0.2278
v 0.0212 0.1800 -0.2702
v -0.1218 0.1800 -0.4132
v -0.1642 0.1800 -0.3708
f 252/8 251/8 250/8 249/8
v -0.1642 0.1920 -0.3708
v -0.1218 0.1920 -0.4132
v 0.0212 0.1920 -0.2702
v -0.0212 0.1920 -0.2278
f 256/8 255/8 254/8 253/8
v -0.0212 0.1920 -0.2278
v 0.0212 0.1920 -0.2702
v 0.0212 0.1800 -0.2702
v -0.0212 0.1800 -0.2278
f 260/8 259/8 258/8 257/8
v -0.1642 0.1800 -0.3708
v -0.1218 0.1800 -0.4132
v -0.1218 0.1920 -0.4132
v -0.1642 0.1920 -0.3708
f 264/8 263/8 262/8 261/8
v 0.1218 0.1800 0.2668
v 0.1218 0.1920 0.2668
v -0.0212 0.1920 0.4098
v -0.0212 0.1800 0.4098
f 268/8 267/8 266/8 265/8
v 0.0212 0.1800 0.4522
v 0.0212 0.1920 0.4522
v 0.1642 0.1920 0.3092
v 0.1642 0.1800 0.3092
f 272/8 271/8 270/8 269/8
v -0.0212 0.1800 0.4098
v 0.0212 0.1800 0.4522
v 0.1642 0.1800 0.3092
v 0.1218 0.1800 0.2668
f 276/8 275/8 274/8 273/8
v 0.1218 0.1920 0.2668
v 0.1642 0.1920 0.3092
v 0.0212 0.1920 0.4522
v -0.0212 0.1920 0.4098
f 280/8 279/8 278/8 277/8
v -0.0212 0.1920 0.4098
v 0.0212 0.1920 0.4522
v 0.0212 0.1800 0.4522
v -0.0212 0.1800 0.4098
f 284/8 283/8 282/8 281/8
v 0.1218 0.1800 0.2668
v 0.1642 0.1800 0.3092
v 0.1642 0.1920 0.3092
v 0.1218 0.1920 0.2668
f 288/8 287/8 286/8 285/8
v -0.1642 0.1800 0.3092
v -0.1642 0.1920 0.3092
v -0.0212 0.1920 0.4522
v -0.0212 0.1800 0.4522
f 292/8 291/8 290/8 289/8
v 0.0212 0.1800 0.4098
v 0.0212 0.1920 0.4098
v -0.1218 0.1920 0.2668
v -0.1218 0.1800 0.2668
f 296/8 295/8 294/8 293/8
v -0.0212 0.1800 0.4522
v 0.0212 0.1800 0.4098
v -0.1218 0.1800 0.2668
v -0.1642 0.1800 0.3092
f 300/8 299/8 298/8 297/8
v -0.1642 0.1920 0.3092
v -0.1218 0.1920 0.2668
v 0.0212 0.1920 0.4098
v -0.0212 0.1920 0.4522
f 304/8 303/8 302/8 301/8
v -0.0212 0.1920 0.4522
v 0.0212 0.1920 0.4098
v 0.0212 0.1800 0.4098
v -0.0212 0.1800 0.4522
f 308/8 307/8 306/8 305/8
v -0.1642 0.1800 0.3092
v -0.1218 0.1800 0.2668
v -0.1218 0.1920 0.2668
v -0.1642 0.1920 0.3092
f 312/8 311/8 310/8 309/8
v -0.2668 0.1800 0.1218
v -0.2668 0.1920 0.1218
v -0.4098 0.1920 -0.0212
v -0.4098 0.1800 -0.0212
f 316/8 315/8 314/8 313/8
v -0.4522 0.1800 0.0212
v -0.4522 0.1920 0.0212
v -0.3092 0.1920 0.1642
v -0.3092 0.1800 0.1642
f 320/8 319/8 318/8 317/8
v -0.4098 0.1800 -0.0212
v -0.4522 0.1800 0.0212
v -0.3092 0.1800 0.1642
v -0.2668 0.1800 0.1218
f 324/8 323/8 322/8 321/8
v -0.2668 0.1920 0.1218
v -0.3092 0.1920 0.1642
v -0.4522 0.1920 0.0212
v -0.4098 0.1920 -0.0212
f 328/8 327/8 326/8 325/8
v -0.4098 0.1920 -0.0212
v -0.4522 0.1920 0.0212
v -0.4522 0.1800 0.0212
v -0.4098 0.1800 -0.0212
f 332/8 331/8 330/8 329/8
v -0.2668 0.1800 0.1218
v -0.3092 0.1800 0.1642
v -0.3092 0.1920 0.1642
v -0.2668 0.1920 0.1218
f 336/8 335/8 334/8 333/8
v -0.3092 0.1800 -0.1642
v -0.3092 0.1920 -0.1642
v -0.4522 0.1920 -0.0212
v -0.4522 0.1800 -0.0212
f 340/8 339/8 338/8 337/8
v -0.4098 0.1800 0.0212
v -0.4098 0.1920 0.0212
v -0.2668 0.1920 -0.1218
v -0.2668 0.1800 -0.1218
f 344/8 343/8 342/8 341/8
v -0.4522 0.1800 -0.0212
v -0.4098 0.1800 0.0212
v -0.2668 0.1800 -0.1218
v -0.3092 0.1800 -0.1642
f 348/8 347/8 346/8 345/8
v -0.3092 0.1920 -0.1642
v -0.2668 0.1920 -0.1218
v -0.4098 0.1920 0.0212
v -0.4522 0.1920 -0.0212
f 352/8 351/8 350/8 349/8
v -0.4522 0.1920 -0.0212
v -0.4098 0.1920 0.0212
v -0.4098 0.1800 0.0212
v -0.4522 0.1800 -0.0212
f 356/8 355/8 354/8 353/8
v -0.3092 0.1800 -0.1642
v -0.2668 0.1800 -0.1218
v -0.2668 0.1920 -0.1218
v -0.3092 0.1920 -0.1642
f 360/8 359/8 358/8 357/8
v 0.2668 0.1800 -0.1218
v 0.2668 0.1920 -0.1218
v 0.4098 0.1920 0.0212
v 0.4098 0.1800 0.0212
f 364/8 363/8 362/8 361/8
v 0.4522 0.1800 -0.0212
v 0.4522 0.1920 -0.0212
v 0.3092 0.1920 -0.1642
v 0.3092 0.1800 -0.1642
f 368/8 367/8 366/8 365/8
v 0.4098 0.1800 0.0212
v 0.4522 0.1800 -0.0212
v 0.3092 0.1800 -0.1642
v 0.2668 0.1800 -0.1218
f 372/8 371/8 370/8 369/8
v 0.2668 0.1920 -0.1218
v 0.3092 0.1920 -0.1642
v 0.4522 0.1920 -0.0212
v 0.4098 0.1920 0.0212
f 376/8 375/8 374/8 373/8
v 0.4098 0.1920 0.0212
v 0.4522 0.1920 -0.0212
v 0.4522 0.1800 -0.0212
v 0.4098 0.1800 0.0212
f 380/8 379/8 378/8 377/8
v 0.2668 0.1800 -0.1218
v 0.3092 0.1800 -0.1642
v 0.3092 0.1920 -0.1642
v 0.2668 0.1920 -0.1218
f 384/8 383/8 382/8 381/8
v 0.3092 0.1800 0.1642
v 0.3092 0.1920 0.1642
v 0.4522 0.1920 0.0212
v 0.4522 0.1800 0.0212
f 388/8 387/8 386/8 385/8
v 0.4098 0.1800 -0.0212
v 0.4098 0.1920 -0.0212
v 0.2668 0.1920 0.1218
v 0.2668 0.1800 0.1218
f 392/8 391/8 390/8 389/8
v 0.4522 0.1800 0.0212
v 0.4098 0.1800 -0.0212
v 0.2668 0.1800 0.1218
v 0.3092 0.1800 0.1642
f 396/8 395/8 394/8 393/8
v 0.3092 0.1920 0.1642
v 0.2668 0.1920 0.1218
v 0.4098 0.1920 -0.0212
v 0.4522 0.1920 0.0212
f 400/8 399/8 398/8 397/8
v 0.4522 0.1920 0.0212
v 0.4098 0.1920 -0.0212
v 0.4098 0.1800 -0.0212
v 0.4522 0.1800 0.0212
f 404/8 403/8 402/8 401/8
v 0.3092 0.1800 0.1642
v 0.2668 0.1800 0.1218
v 0.2668 0.1920 0.1218
v 0.3092 0.1920 0.1642
f 408/8 407/8 406/8 405/8
v -0.3700 0.2800 0.4100
v -0.3700 0.3200 0.4100
v -0.3700 0.3200 0.3700
v -0.3700 0.2800 0.3700
f 412/16 411/16 410/16 409/16
v -0.4100 0.2800 0.3700
v -0.4100 0.3200 0.3700
v -0.4100 0.3200 0.4100
v -0.4100 0.2800 0.4100
f 416/16 415/16 414/16 413/16
v -0.3700 0.2800 0.3700
v -0.4100 0.2800 0.3700
v -0.4100 0.2800 0.4100
v -0.3700 0.2800 0.4100
f 420/16 419/16 418/16 417/16
v -0.3700 0.3200 0.4100
v -0.4100 0.3200 0.4100
v -0.4100 0.3200 0.3700
v -0.3700 0.3200 0.3700
f 424/16 423/16 422/16 421/16
v -0.3700 0.3200 0.3700
v -0.4100 0.3200 0.3700
v -0.4100 0.2800 0.3700
v -0.3700 0.2800 0.3700
f 428/16 427/16 426/16 425/16
v -0.3700 0.2800 0.4100
v -0.4100 0.2800 0.4100
v -0.4100 0.3200 0.4100
v -0.3700 0.3200 0.4100
f 432/16 431/16 430/16 429/16
usemtl wi_rubber
v 0.4300 0.1300 0.1500
v 0.4300 0.1800 0.1500
v 0.4300 0.1800 -0.1500
v 0.4300 0.1300 -0.1500
f 436/1 435/1 434/1 433/1
v -0.4300 0.1300 -0.1500
v -0.4300 0.1800 -0.1500
v -0.4300 0.1800 0.1500
v -0.4300 0.1300 0.1500
f 440/1 439/1 438/1 437/1
v 0.4300 0.1300 -0.1500
v -0.4300 0.1300 -0.1500
v -0.4300 0.1300 0.1500
v 0.4300 0.1300 0.1500
f 444/1 443/1 442/1 441/1
v 0.4300 0.1800 0.1500
v -0.4300 0.1800 0.1500
v -0.4300 0.1800 -0.1500
v 0.4300 0.1800 -0.1500
f 448/1 447/1 446/1 445/1
v 0.4300 0.1800 -0.1500
v -0.4300 0.1800 -0.1500
v -0.4300 0.1300 -0.1500
v 0.4300 0.1300 -0.1500
f 452/1 451/1 450/1 449/1
v 0.4300 0.1300 0.1500
v -0.4300 0.1300 0.1500
v -0.4300 0.1800 0.1500
v 0.4300 0.1800 0.1500
f 456/1 455/1 454/1 453/1
v 0.1500 0.1300 0.4300
v 0.1500 0.1800 0.4300
v 0.1500 0.1800 -0.4300
v 0.1500 0.1300 -0.4300
f 460/1 459/1 458/1 457/1
v -0.1500 0.1300 -0.4300
v -0.1500 0.1800 -0.4300
v -0.1500 0.1800 0.4300
v -0.1500 0.1300 0.4300
f 464/1 463/1 462/1 461/1
v 0.1500 0.1300 -0.4300
v -0.1500 0.1300 -0.4300
v -0.1500 0.1300 0.4300
v 0.1500 0.1300 0.4300
f 468/1 467/1 466/1 465/1
v 0.1500 0.1800 0.4300
v -0.1500 0.1800 0.4300
v -0.1500 0.1800 -0.4300
v 0.1500 0.1800 -0.4300
f 472/1 471/1 470/1 469/1
v 0.1500 0.1800 -0.4300
v -0.1500 0.1800 -0.4300
v -0.1500 0.1300 -0.4300
v 0.1500 0.1300 -0.4300
f 476/1 475/1 474/1 473/1
v 0.1500 0.1300 0.4300
v -0.1500 0.1300 0.4300
v -0.1500 0.1800 0.4300
v 0.1500 0.1800 0.4300
f 480/1 479/1 478/1 477/1
