# Walk of Industry low-poly (generated, wi_lib.py)
mtllib wi.mtl
vt 0 0
vt 0.03125 0.03125
vt 0.09375 0.03125
vt 0.15625 0.03125
vt 0.21875 0.03125
vt 0.28125 0.03125
vt 0.34375 0.03125
vt 0.40625 0.03125
vt 0.46875 0.03125
vt 0.53125 0.03125
vt 0.59375 0.03125
vt 0.65625 0.03125
vt 0.71875 0.03125
vt 0.78125 0.03125
vt 0.84375 0.03125
vt 0.90625 0.03125
vt 0.96875 0.03125
vt 0.03125 0.09375
vt 0.09375 0.09375
vt 0.15625 0.09375
vt 0.21875 0.09375
vt 0.28125 0.09375
vt 0.34375 0.09375
vt 0.40625 0.09375
vt 0.46875 0.09375
vt 0.53125 0.09375
vt 0.59375 0.09375
vt 0.65625 0.09375
vt 0.71875 0.09375
vt 0.78125 0.09375
vt 0.84375 0.09375
vt 0.90625 0.09375
vt 0.96875 0.09375
o Body
usemtl wi_palette
v 0.4800 0.0000 0.4800
v 0.4800 0.0800 0.4800
v 0.4800 0.0800 -0.4800
v 0.4800 0.0000 -0.4800
f 4/5 3/5 2/5 1/5
v -0.4800 0.0000 -0.4800
v -0.4800 0.0800 -0.4800
v -0.4800 0.0800 0.4800
v -0.4800 0.0000 0.4800
f 8/5 7/5 6/5 5/5
v 0.4800 0.0000 -0.4800
v -0.4800 0.0000 -0.4800
v -0.4800 0.0000 0.4800
v 0.4800 0.0000 0.4800
f 12/5 11/5 10/5 9/5
v 0.4800 0.0800 0.4800
v -0.4800 0.0800 0.4800
v -0.4800 0.0800 -0.4800
v 0.4800 0.0800 -0.4800
f 16/5 15/5 14/5 13/5
v 0.4800 0.0800 -0.4800
v -0.4800 0.0800 -0.4800
v -0.4800 0.0000 -0.4800
v 0.4800 0.0000 -0.4800
f 20/5 19/5 18/5 17/5
v 0.4800 0.0000 0.4800
v -0.4800 0.0000 0.4800
v -0.4800 0.0800 0.4800
v 0.4800 0.0800 0.4800
f 24/5 23/5 22/5 21/5
v 0.4000 0.0800 0.4000
v 0.4000 0.8000 0.4000
v 0.4000 0.8000 -0.4000
v 0.4000 0.0800 -0.4000
f 28/2 27/2 26/2 25/2
v -0.4000 0.0800 -0.4000
v -0.4000 0.8000 -0.4000
v -0.4000 0.8000 0.4000
v -0.4000 0.0800 0.4000
f 32/2 31/2 30/2 29/2
v 0.4000 0.0800 -0.4000
v -0.4000 0.0800 -0.4000
v -0.4000 0.0800 0.4000
v 0.4000 0.0800 0.4000
f 36/2 35/2 34/2 33/2
v 0.4000 0.8000 0.4000
v -0.4000 0.8000 0.4000
v -0.4000 0.8000 -0.4000
v 0.4000 0.8000 -0.4000
f 40/2 39/2 38/2 37/2
v 0.4000 0.8000 -0.4000
v -0.4000 0.8000 -0.4000
v -0.4000 0.0800 -0.4000
v 0.4000 0.0800 -0.4000
f 44/2 43/2 42/2 41/2
v 0.4000 0.0800 0.4000
v -0.4000 0.0800 0.4000
v -0.4000 0.8000 0.4000
v 0.4000 0.8000 0.4000
f 48/2 47/2 46/2 45/2
v 0.4300 0.0700 -0.3700
v 0.4300 0.8100 -0.3700
v 0.4300 0.8100 -0.4300
v 0.4300 0.0700 -0.4300
f 52/4 51/4 50/4 49/4
v 0.3700 0.0700 -0.4300
v 0.3700 0.8100 -0.4300
v 0.3700 0.8100 -0.3700
v 0.3700 0.0700 -0.3700
f 56/4 55/4 54/4 53/4
v 0.4300 0.0700 -0.4300
v 0.3700 0.0700 -0.4300
v 0.3700 0.0700 -0.3700
v 0.4300 0.0700 -0.3700
f 60/4 59/4 58/4 57/4
v 0.4300 0.8100 -0.3700
v 0.3700 0.8100 -0.3700
v 0.3700 0.8100 -0.4300
v 0.4300 0.8100 -0.4300
f 64/4 63/4 62/4 61/4
v 0.4300 0.8100 -0.4300
v 0.3700 0.8100 -0.4300
v 0.3700 0.0700 -0.4300
v 0.4300 0.0700 -0.4300
f 68/4 67/4 66/4 65/4
v 0.4300 0.0700 -0.3700
v 0.3700 0.0700 -0.3700
v 0.3700 0.8100 -0.3700
v 0.4300 0.8100 -0.3700
f 72/4 71/4 70/4 69/4
v 0.4300 0.0700 0.4300
v 0.4300 0.8100 0.4300
v 0.4300 0.8100 0.3700
v 0.4300 0.0700 0.3700
f 76/4 75/4 74/4 73/4
v 0.3700 0.0700 0.3700
v 0.3700 0.8100 0.3700
v 0.3700 0.8100 0.4300
v 0.3700 0.0700 0.4300
f 80/4 79/4 78/4 77/4
v 0.4300 0.0700 0.3700
v 0.3700 0.0700 0.3700
v 0.3700 0.0700 0.4300
v 0.4300 0.0700 0.4300
f 84/4 83/4 82/4 81/4
v 0.4300 0.8100 0.4300
v 0.3700 0.8100 0.4300
v 0.3700 0.8100 0.3700
v 0.4300 0.8100 0.3700
f 88/4 87/4 86/4 85/4
v 0.4300 0.8100 0.3700
v 0.3700 0.8100 0.3700
v 0.3700 0.0700 0.3700
v 0.4300 0.0700 0.3700
f 92/4 91/4 90/4 89/4
v 0.4300 0.0700 0.4300
v 0.3700 0.0700 0.4300
v 0.3700 0.8100 0.4300
v 0.4300 0.8100 0.4300
f 96/4 95/4 94/4 93/4
v -0.3700 0.0700 -0.3700
v -0.3700 0.8100 -0.3700
v -0.3700 0.8100 -0.4300
v -0.3700 0.0700 -0.4300
f 100/4 99/4 98/4 97/4
v -0.4300 0.0700 -0.4300
v -0.4300 0.8100 -0.4300
v -0.4300 0.8100 -0.3700
v -0.4300 0.0700 -0.3700
f 104/4 103/4 102/4 101/4
v -0.3700 0.0700 -0.4300
v -0.4300 0.0700 -0.4300
v -0.4300 0.0700 -0.3700
v -0.3700 0.0700 -0.3700
f 108/4 107/4 106/4 105/4
v -0.3700 0.8100 -0.3700
v -0.4300 0.8100 -0.3700
v -0.4300 0.8100 -0.4300
v -0.3700 0.8100 -0.4300
f 112/4 111/4 110/4 109/4
v -0.3700 0.8100 -0.4300
v -0.4300 0.8100 -0.4300
v -0.4300 0.0700 -0.4300
v -0.3700 0.0700 -0.4300
f 116/4 115/4 114/4 113/4
v -0.3700 0.0700 -0.3700
v -0.4300 0.0700 -0.3700
v -0.4300 0.8100 -0.3700
v -0.3700 0.8100 -0.3700
f 120/4 119/4 118/4 117/4
v -0.3700 0.0700 0.4300
v -0.3700 0.8100 0.4300
v -0.3700 0.8100 0.3700
v -0.3700 0.0700 0.3700
f 124/4 123/4 122/4 121/4
v -0.4300 0.0700 0.3700
v -0.4300 0.8100 0.3700
v -0.4300 0.8100 0.4300
v -0.4300 0.0700 0.4300
f 128/4 127/4 126/4 125/4
v -0.3700 0.0700 0.3700
v -0.4300 0.0700 0.3700
v -0.4300 0.0700 0.4300
v -0.3700 0.0700 0.4300
f 132/4 131/4 130/4 129/4
v -0.3700 0.8100 0.4300
v -0.4300 0.8100 0.4300
v -0.4300 0.8100 0.3700
v -0.3700 0.8100 0.3700
f 136/4 135/4 134/4 133/4
v -0.3700 0.8100 0.3700
v -0.4300 0.8100 0.3700
v -0.4300 0.0700 0.3700
v -0.3700 0.0700 0.3700
f 140/4 139/4 138/4 137/4
v -0.3700 0.0700 0.4300
v -0.4300 0.0700 0.4300
v -0.4300 0.8100 0.4300
v -0.3700 0.8100 0.4300
f 144/4 143/4 142/4 141/4
v 0.4100 0.2400 0.4100
v 0.4100 0.2800 0.4100
v 0.4100 0.2800 -0.4100
v 0.4100 0.2400 -0.4100
f 148/4 147/4 146/4 145/4
v -0.4100 0.2400 -0.4100
v -0.4100 0.2800 -0.4100
v -0.4100 0.2800 0.4100
v -0.4100 0.2400 0.4100
f 152/4 151/4 150/4 149/4
v 0.4100 0.2400 -0.4100
v -0.4100 0.2400 -0.4100
v -0.4100 0.2400 0.4100
v 0.4100 0.2400 0.4100
f 156/4 155/4 154/4 153/4
v 0.4100 0.2800 0.4100
v -0.4100 0.2800 0.4100
v -0.4100 0.2800 -0.4100
v 0.4100 0.2800 -0.4100
f 160/4 159/4 158/4 157/4
v 0.4100 0.2800 -0.4100
v -0.4100 0.2800 -0.4100
v -0.4100 0.2400 -0.4100
v 0.4100 0.2400 -0.4100
f 164/4 163/4 162/4 161/4
v 0.4100 0.2400 0.4100
v -0.4100 0.2400 0.4100
v -0.4100 0.2800 0.4100
v 0.4100 0.2800 0.4100
f 168/4 167/4 166/4 165/4
v 0.4100 0.6000 0.4100
v 0.4100 0.6400 0.4100
v 0.4100 0.6400 -0.4100
v 0.4100 0.6000 -0.4100
f 172/4 171/4 170/4 169/4
v -0.4100 0.6000 -0.4100
v -0.4100 0.6400 -0.4100
v -0.4100 0.6400 0.4100
v -0.4100 0.6000 0.4100
f 176/4 175/4 174/4 173/4
v 0.4100 0.6000 -0.4100
v -0.4100 0.6000 -0.4100
v -0.4100 0.6000 0.4100
v 0.4100 0.6000 0.4100
f 180/4 179/4 178/4 177/4
v 0.4100 0.6400 0.4100
v -0.4100 0.6400 0.4100
v -0.4100 0.6400 -0.4100
v 0.4100 0.6400 -0.4100
f 184/4 183/4 182/4 181/4
v 0.4100 0.6400 -0.4100
v -0.4100 0.6400 -0.4100
v -0.4100 0.6000 -0.4100
v 0.4100 0.6000 -0.4100
f 188/4 187/4 186/4 185/4
v 0.4100 0.6000 0.4100
v -0.4100 0.6000 0.4100
v -0.4100 0.6400 0.4100
v 0.4100 0.6400 0.4100
f 192/4 191/4 190/4 189/4
v 0.4200 0.8050 0.4200
v 0.4200 0.8550 0.4200
v 0.4200 0.8550 -0.4200
v 0.4200 0.8050 -0.4200
f 196/6 195/6 194/6 193/6
v -0.4200 0.8050 -0.4200
v -0.4200 0.8550 -0.4200
v -0.4200 0.8550 0.4200
v -0.4200 0.8050 0.4200
f 200/6 199/6 198/6 197/6
v 0.4200 0.8050 -0.4200
v -0.4200 0.8050 -0.4200
v -0.4200 0.8050 0.4200
v 0.4200 0.8050 0.4200
f 204/6 203/6 202/6 201/6
v 0.4200 0.8550 0.4200
v -0.4200 0.8550 0.4200
v -0.4200 0.8550 -0.4200
v 0.4200 0.8550 -0.4200
f 208/6 207/6 206/6 205/6
v 0.4200 0.8550 -0.4200
v -0.4200 0.8550 -0.4200
v -0.4200 0.8050 -0.4200
v 0.4200 0.8050 -0.4200
f 212/6 211/6 210/6 209/6
v 0.4200 0.8050 0.4200
v -0.4200 0.8050 0.4200
v -0.4200 0.8550 0.4200
v 0.4200 0.8550 0.4200
f 216/6 215/6 214/6 213/6
v 0.2500 0.8550 0.2500
v 0.2500 0.9050 0.2500
v 0.2500 0.9050 -0.2500
v 0.2500 0.8550 -0.2500
f 220/7 219/7 218/7 217/7
v -0.2500 0.8550 -0.2500
v -0.2500 0.9050 -0.2500
v -0.2500 0.9050 0.2500
v -0.2500 0.8550 0.2500
f 224/7 223/7 222/7 221/7
v 0.2500 0.8550 -0.2500
v -0.2500 0.8550 -0.2500
v -0.2500 0.8550 0.2500
v 0.2500 0.8550 0.2500
f 228/7 227/7 226/7 225/7
v 0.2500 0.9050 0.2500
v -0.2500 0.9050 0.2500
v -0.2500 0.9050 -0.2500
v 0.2500 0.9050 -0.2500
f 232/7 231/7 230/7 229/7
v 0.2500 0.9050 -0.2500
v -0.2500 0.9050 -0.2500
v -0.2500 0.8550 -0.2500
v 0.2500 0.8550 -0.2500
f 236/7 235/7 234/7 233/7
v 0.2500 0.8550 0.2500
v -0.2500 0.8550 0.2500
v -0.2500 0.9050 0.2500
v 0.2500 0.9050 0.2500
f 240/7 239/7 238/7 237/7
v -0.4000 0.3800 0.1500
v -0.4000 0.5000 0.1500
v -0.4000 0.5000 -0.1500
v -0.4000 0.3800 -0.1500
f 244/8 243/8 242/8 241/8
v -0.4100 0.3800 -0.1500
v -0.4100 0.5000 -0.1500
v -0.4100 0.5000 0.1500
v -0.4100 0.3800 0.1500
f 248/8 247/8 246/8 245/8
v -0.4000 0.3800 -0.1500
v -0.4100 0.3800 -0.1500
v -0.4100 0.3800 0.1500
v -0.4000 0.3800 0.1500
f 252/8 251/8 250/8 249/8
v -0.4000 0.5000 0.1500
v -0.4100 0.5000 0.1500
v -0.4100 0.5000 -0.1500
v -0.4000 0.5000 -0.1500
f 256/8 255/8 254/8 253/8
v -0.4000 0.5000 -0.1500
v -0.4100 0.5000 -0.1500
v -0.4100 0.3800 -0.1500
v -0.4000 0.3800 -0.1500
f 260/8 259/8 258/8 257/8
v -0.4000 0.3800 0.1500
v -0.4100 0.3800 0.1500
v -0.4100 0.5000 0.1500
v -0.4000 0.5000 0.1500
f 264/8 263/8 262/8 261/8
v 0.4100 0.3800 0.1500
v 0.4100 0.5000 0.1500
v 0.4100 0.5000 -0.1500
v 0.4100 0.3800 -0.1500
f 268/8 267/8 266/8 265/8
v 0.4000 0.3800 -0.1500
v 0.4000 0.5000 -0.1500
v 0.4000 0.5000 0.1500
v 0.4000 0.3800 0.1500
f 272/8 271/8 270/8 269/8
v 0.4100 0.3800 -0.1500
v 0.4000 0.3800 -0.1500
v 0.4000 0.3800 0.1500
v 0.4100 0.3800 0.1500
f 276/8 275/8 274/8 273/8
v 0.4100 0.5000 0.1500
v 0.4000 0.5000 0.1500
v 0.4000 0.5000 -0.1500
v 0.4100 0.5000 -0.1500
f 280/8 279/8 278/8 277/8
v 0.4100 0.5000 -0.1500
v 0.4000 0.5000 -0.1500
v 0.4000 0.3800 -0.1500
v 0.4100 0.3800 -0.1500
f 284/8 283/8 282/8 281/8
v 0.4100 0.3800 0.1500
v 0.4000 0.3800 0.1500
v 0.4000 0.5000 0.1500
v 0.4100 0.5000 0.1500
f 288/8 287/8 286/8 285/8
v -0.2250 0.9050 0.2750
v -0.2250 0.9550 0.2750
v -0.2250 0.9550 0.2250
v -0.2250 0.9050 0.2250
f 292/16 291/16 290/16 289/16
v -0.2750 0.9050 0.2250
v -0.2750 0.9550 0.2250
v -0.2750 0.9550 0.2750
v -0.2750 0.9050 0.2750
f 296/16 295/16 294/16 293/16
v -0.2250 0.9050 0.2250
v -0.2750 0.9050 0.2250
v -0.2750 0.9050 0.2750
v -0.2250 0.9050 0.2750
f 300/16 299/16 298/16 297/16
v -0.2250 0.9550 0.2750
v -0.2750 0.9550 0.2750
v -0.2750 0.9550 0.2250
v -0.2250 0.9550 0.2250
f 304/16 303/16 302/16 301/16
v -0.2250 0.9550 0.2250
v -0.2750 0.9550 0.2250
v -0.2750 0.9050 0.2250
v -0.2250 0.9050 0.2250
f 308/16 307/16 306/16 305/16
v -0.2250 0.9050 0.2750
v -0.2750 0.9050 0.2750
v -0.2750 0.9550 0.2750
v -0.2250 0.9550 0.2750
f 312/16 311/16 310/16 309/16
