# Walk of Industry low-poly (generated, wi_lib.py)
mtllib wi.mtl
vt 0 0
vt 0.03125 0.03125
vt 0.09375 0.03125
vt 0.15625 0.03125
vt 0.21875 0.03125
vt 0.28125 0.03125
vt 0.34375 0.03125
vt 0.40625 0.03125
vt 0.46875 0.03125
vt 0.53125 0.03125
vt 0.59375 0.03125
vt 0.65625 0.03125
vt 0.71875 0.03125
vt 0.78125 0.03125
vt 0.84375 0.03125
vt 0.90625 0.03125
vt 0.96875 0.03125
vt 0.03125 0.09375
vt 0.09375 0.09375
vt 0.15625 0.09375
vt 0.21875 0.09375
vt 0.28125 0.09375
vt 0.34375 0.09375
vt 0.40625 0.09375
vt 0.46875 0.09375
vt 0.53125 0.09375
vt 0.59375 0.09375
vt 0.65625 0.09375
vt 0.71875 0.09375
vt 0.78125 0.09375
vt 0.84375 0.09375
vt 0.90625 0.09375
vt 0.96875 0.09375
o Body
usemtl wi_palette
v 0.4700 0.0000 0.4700
v 0.4700 0.0600 0.4700
v 0.4700 0.0600 -0.4700
v 0.4700 0.0000 -0.4700
f 4/5 3/5 2/5 1/5
v -0.4700 0.0000 -0.4700
v -0.4700 0.0600 -0.4700
v -0.4700 0.0600 0.4700
v -0.4700 0.0000 0.4700
f 8/5 7/5 6/5 5/5
v 0.4700 0.0000 -0.4700
v -0.4700 0.0000 -0.4700
v -0.4700 0.0000 0.4700
v 0.4700 0.0000 0.4700
f 12/5 11/5 10/5 9/5
v 0.4700 0.0600 0.4700
v -0.4700 0.0600 0.4700
v -0.4700 0.0600 -0.4700
v 0.4700 0.0600 -0.4700
f 16/5 15/5 14/5 13/5
v 0.4700 0.0600 -0.4700
v -0.4700 0.0600 -0.4700
v -0.4700 0.0000 -0.4700
v 0.4700 0.0000 -0.4700
f 20/5 19/5 18/5 17/5
v 0.4700 0.0000 0.4700
v -0.4700 0.0000 0.4700
v -0.4700 0.0600 0.4700
v 0.4700 0.0600 0.4700
f 24/5 23/5 22/5 21/5
v 0.4500 0.0500 0.4700
v 0.4500 0.5500 0.4700
v 0.4500 0.5500 0.0100
v 0.4500 0.0500 0.0100
f 28/2 27/2 26/2 25/2
v -0.4500 0.0500 0.0100
v -0.4500 0.5500 0.0100
v -0.4500 0.5500 0.4700
v -0.4500 0.0500 0.4700
f 32/2 31/2 30/2 29/2
v 0.4500 0.0500 0.0100
v -0.4500 0.0500 0.0100
v -0.4500 0.0500 0.4700
v 0.4500 0.0500 0.4700
f 36/2 35/2 34/2 33/2
v 0.4500 0.5500 0.4700
v -0.4500 0.5500 0.4700
v -0.4500 0.5500 0.0100
v 0.4500 0.5500 0.0100
f 40/2 39/2 38/2 37/2
v 0.4500 0.5500 0.0100
v -0.4500 0.5500 0.0100
v -0.4500 0.0500 0.0100
v 0.4500 0.0500 0.0100
f 44/2 43/2 42/2 41/2
v 0.4500 0.0500 0.4700
v -0.4500 0.0500 0.4700
v -0.4500 0.5500 0.4700
v 0.4500 0.5500 0.4700
f 48/2 47/2 46/2 45/2
v 0.4800 0.6900 0.2400
v -0.4800 0.6900 0.2400
v -0.4800 0.5500 -0.0200
v 0.4800 0.5500 -0.0200
f 52/4 51/4 50/4 49/4
v -0.4800 0.6900 0.2400
v 0.4800 0.6900 0.2400
v 0.4800 0.5500 0.5000
v -0.4800 0.5500 0.5000
f 56/4 55/4 54/4 53/4
v -0.4800 0.6900 0.2400
v -0.4800 0.5500 0.5000
v -0.4800 0.5500 -0.0200
f 59/4 58/4 57/4
v 0.4800 0.6900 0.2400
v 0.4800 0.5500 -0.0200
v 0.4800 0.5500 0.5000
f 62/4 61/4 60/4
v 0.4800 0.5500 -0.0200
v -0.4800 0.5500 -0.0200
v -0.4800 0.5500 0.5000
v 0.4800 0.5500 0.5000
f 66/4 65/4 64/4 63/4
v 0.3100 0.0500 0.0200
v 0.3100 0.3500 0.0200
v 0.3100 0.3500 -0.0100
v 0.3100 0.0500 -0.0100
f 70/6 69/6 68/6 67/6
v -0.3100 0.0500 -0.0100
v -0.3100 0.3500 -0.0100
v -0.3100 0.3500 0.0200
v -0.3100 0.0500 0.0200
f 74/6 73/6 72/6 71/6
v 0.3100 0.0500 -0.0100
v -0.3100 0.0500 -0.0100
v -0.3100 0.0500 0.0200
v 0.3100 0.0500 0.0200
f 78/6 77/6 76/6 75/6
v 0.3100 0.3500 0.0200
v -0.3100 0.3500 0.0200
v -0.3100 0.3500 -0.0100
v 0.3100 0.3500 -0.0100
f 82/6 81/6 80/6 79/6
v 0.3100 0.3500 -0.0100
v -0.3100 0.3500 -0.0100
v -0.3100 0.0500 -0.0100
v 0.3100 0.0500 -0.0100
f 86/6 85/6 84/6 83/6
v 0.3100 0.0500 0.0200
v -0.3100 0.0500 0.0200
v -0.3100 0.3500 0.0200
v 0.3100 0.3500 0.0200
f 90/6 89/6 88/6 87/6
v 0.3600 0.3450 0.0250
v 0.3600 0.3950 0.0250
v 0.3600 0.3950 -0.0250
v 0.3600 0.3450 -0.0250
f 94/4 93/4 92/4 91/4
v -0.3600 0.3450 -0.0250
v -0.3600 0.3950 -0.0250
v -0.3600 0.3950 0.0250
v -0.3600 0.3450 0.0250
f 98/4 97/4 96/4 95/4
v 0.3600 0.3450 -0.0250
v -0.3600 0.3450 -0.0250
v -0.3600 0.3450 0.0250
v 0.3600 0.3450 0.0250
f 102/4 101/4 100/4 99/4
v 0.3600 0.3950 0.0250
v -0.3600 0.3950 0.0250
v -0.3600 0.3950 -0.0250
v 0.3600 0.3950 -0.0250
f 106/4 105/4 104/4 103/4
v 0.3600 0.3950 -0.0250
v -0.3600 0.3950 -0.0250
v -0.3600 0.3450 -0.0250
v 0.3600 0.3450 -0.0250
f 110/4 109/4 108/4 107/4
v 0.3600 0.3450 0.0250
v -0.3600 0.3450 0.0250
v -0.3600 0.3950 0.0250
v 0.3600 0.3950 0.0250
f 114/4 113/4 112/4 111/4
v 0.3550 0.0200 0.0250
v 0.3550 0.3800 0.0250
v 0.3550 0.3800 -0.0250
v 0.3550 0.0200 -0.0250
f 118/4 117/4 116/4 115/4
v 0.3050 0.0200 -0.0250
v 0.3050 0.3800 -0.0250
v 0.3050 0.3800 0.0250
v 0.3050 0.0200 0.0250
f 122/4 121/4 120/4 119/4
v 0.3550 0.0200 -0.0250
v 0.3050 0.0200 -0.0250
v 0.3050 0.0200 0.0250
v 0.3550 0.0200 0.0250
f 126/4 125/4 124/4 123/4
v 0.3550 0.3800 0.0250
v 0.3050 0.3800 0.0250
v 0.3050 0.3800 -0.0250
v 0.3550 0.3800 -0.0250
f 130/4 129/4 128/4 127/4
v 0.3550 0.3800 -0.0250
v 0.3050 0.3800 -0.0250
v 0.3050 0.0200 -0.0250
v 0.3550 0.0200 -0.0250
f 134/4 133/4 132/4 131/4
v 0.3550 0.0200 0.0250
v 0.3050 0.0200 0.0250
v 0.3050 0.3800 0.0250
v 0.3550 0.3800 0.0250
f 138/4 137/4 136/4 135/4
v -0.3050 0.0200 0.0250
v -0.3050 0.3800 0.0250
v -0.3050 0.3800 -0.0250
v -0.3050 0.0200 -0.0250
f 142/4 141/4 140/4 139/4
v -0.3550 0.0200 -0.0250
v -0.3550 0.3800 -0.0250
v -0.3550 0.3800 0.0250
v -0.3550 0.0200 0.0250
f 146/4 145/4 144/4 143/4
v -0.3050 0.0200 -0.0250
v -0.3550 0.0200 -0.0250
v -0.3550 0.0200 0.0250
v -0.3050 0.0200 0.0250
f 150/4 149/4 148/4 147/4
v -0.3050 0.3800 0.0250
v -0.3550 0.3800 0.0250
v -0.3550 0.3800 -0.0250
v -0.3050 0.3800 -0.0250
f 154/4 153/4 152/4 151/4
v -0.3050 0.3800 -0.0250
v -0.3550 0.3800 -0.0250
v -0.3550 0.0200 -0.0250
v -0.3050 0.0200 -0.0250
f 158/4 157/4 156/4 155/4
v -0.3050 0.0200 0.0250
v -0.3550 0.0200 0.0250
v -0.3550 0.3800 0.0250
v -0.3050 0.3800 0.0250
f 162/4 161/4 160/4 159/4
v 0.4000 0.4450 -0.0060
v 0.4000 0.4950 -0.0060
v 0.4000 0.4950 -0.0180
v 0.4000 0.4450 -0.0180
f 166/8 165/8 164/8 163/8
v 0.2667 0.4450 -0.0180
v 0.2667 0.4950 -0.0180
v 0.2667 0.4950 -0.0060
v 0.2667 0.4450 -0.0060
f 170/8 169/8 168/8 167/8
v 0.4000 0.4450 -0.0180
v 0.2667 0.4450 -0.0180
v 0.2667 0.4450 -0.0060
v 0.4000 0.4450 -0.0060
f 174/8 173/8 172/8 171/8
v 0.4000 0.4950 -0.0060
v 0.2667 0.4950 -0.0060
v 0.2667 0.4950 -0.0180
v 0.4000 0.4950 -0.0180
f 178/8 177/8 176/8 175/8
v 0.4000 0.4950 -0.0180
v 0.2667 0.4950 -0.0180
v 0.2667 0.4450 -0.0180
v 0.4000 0.4450 -0.0180
f 182/8 181/8 180/8 179/8
v 0.4000 0.4450 -0.0060
v 0.2667 0.4450 -0.0060
v 0.2667 0.4950 -0.0060
v 0.4000 0.4950 -0.0060
f 186/8 185/8 184/8 183/8
v 0.2667 0.4450 -0.0060
v 0.2667 0.4950 -0.0060
v 0.2667 0.4950 -0.0180
v 0.2667 0.4450 -0.0180
f 190/6 189/6 188/6 187/6
v 0.1333 0.4450 -0.0180
v 0.1333 0.4950 -0.0180
v 0.1333 0.4950 -0.0060
v 0.1333 0.4450 -0.0060
f 194/6 193/6 192/6 191/6
v 0.2667 0.4450 -0.0180
v 0.1333 0.4450 -0.0180
v 0.1333 0.4450 -0.0060
v 0.2667 0.4450 -0.0060
f 198/6 197/6 196/6 195/6
v 0.2667 0.4950 -0.0060
v 0.1333 0.4950 -0.0060
v 0.1333 0.4950 -0.0180
v 0.2667 0.4950 -0.0180
f 202/6 201/6 200/6 199/6
v 0.2667 0.4950 -0.0180
v 0.1333 0.4950 -0.0180
v 0.1333 0.4450 -0.0180
v 0.2667 0.4450 -0.0180
f 206/6 205/6 204/6 203/6
v 0.2667 0.4450 -0.0060
v 0.1333 0.4450 -0.0060
v 0.1333 0.4950 -0.0060
v 0.2667 0.4950 -0.0060
f 210/6 209/6 208/6 207/6
v 0.1333 0.4450 -0.0060
v 0.1333 0.4950 -0.0060
v 0.1333 0.4950 -0.0180
v 0.1333 0.4450 -0.0180
f 214/8 213/8 212/8 211/8
v 0.0000 0.4450 -0.0180
v 0.0000 0.4950 -0.0180
v 0.0000 0.4950 -0.0060
v 0.0000 0.4450 -0.0060
f 218/8 217/8 216/8 215/8
v 0.1333 0.4450 -0.0180
v 0.0000 0.4450 -0.0180
v 0.0000 0.4450 -0.0060
v 0.1333 0.4450 -0.0060
f 222/8 221/8 220/8 219/8
v 0.1333 0.4950 -0.0060
v 0.0000 0.4950 -0.0060
v 0.0000 0.4950 -0.0180
v 0.1333 0.4950 -0.0180
f 226/8 225/8 224/8 223/8
v 0.1333 0.4950 -0.0180
v 0.0000 0.4950 -0.0180
v 0.0000 0.4450 -0.0180
v 0.1333 0.4450 -0.0180
f 230/8 229/8 228/8 227/8
v 0.1333 0.4450 -0.0060
v 0.0000 0.4450 -0.0060
v 0.0000 0.4950 -0.0060
v 0.1333 0.4950 -0.0060
f 234/8 233/8 232/8 231/8
v 0.0000 0.4450 -0.0060
v 0.0000 0.4950 -0.0060
v 0.0000 0.4950 -0.0180
v 0.0000 0.4450 -0.0180
f 238/6 237/6 236/6 235/6
v -0.1333 0.4450 -0.0180
v -0.1333 0.4950 -0.0180
v -0.1333 0.4950 -0.0060
v -0.1333 0.4450 -0.0060
f 242/6 241/6 240/6 239/6
v 0.0000 0.4450 -0.0180
v -0.1333 0.4450 -0.0180
v -0.1333 0.4450 -0.0060
v 0.0000 0.4450 -0.0060
f 246/6 245/6 244/6 243/6
v 0.0000 0.4950 -0.0060
v -0.1333 0.4950 -0.0060
v -0.1333 0.4950 -0.0180
v 0.0000 0.4950 -0.0180
f 250/6 249/6 248/6 247/6
v 0.0000 0.4950 -0.0180
v -0.1333 0.4950 -0.0180
v -0.1333 0.4450 -0.0180
v 0.0000 0.4450 -0.0180
f 254/6 253/6 252/6 251/6
v 0.0000 0.4450 -0.0060
v -0.1333 0.4450 -0.0060
v -0.1333 0.4950 -0.0060
v 0.0000 0.4950 -0.0060
f 258/6 257/6 256/6 255/6
v -0.1333 0.4450 -0.0060
v -0.1333 0.4950 -0.0060
v -0.1333 0.4950 -0.0180
v -0.1333 0.4450 -0.0180
f 262/8 261/8 260/8 259/8
v -0.2667 0.4450 -0.0180
v -0.2667 0.4950 -0.0180
v -0.2667 0.4950 -0.0060
v -0.2667 0.4450 -0.0060
f 266/8 265/8 264/8 263/8
v -0.1333 0.4450 -0.0180
v -0.2667 0.4450 -0.0180
v -0.2667 0.4450 -0.0060
v -0.1333 0.4450 -0.0060
f 270/8 269/8 268/8 267/8
v -0.1333 0.4950 -0.0060
v -0.2667 0.4950 -0.0060
v -0.2667 0.4950 -0.0180
v -0.1333 0.4950 -0.0180
f 274/8 273/8 272/8 271/8
v -0.1333 0.4950 -0.0180
v -0.2667 0.4950 -0.0180
v -0.2667 0.4450 -0.0180
v -0.1333 0.4450 -0.0180
f 278/8 277/8 276/8 275/8
v -0.1333 0.4450 -0.0060
v -0.2667 0.4450 -0.0060
v -0.2667 0.4950 -0.0060
v -0.1333 0.4950 -0.0060
f 282/8 281/8 280/8 279/8
v -0.2667 0.4450 -0.0060
v -0.2667 0.4950 -0.0060
v -0.2667 0.4950 -0.0180
v -0.2667 0.4450 -0.0180
f 286/6 285/6 284/6 283/6
v -0.4000 0.4450 -0.0180
v -0.4000 0.4950 -0.0180
v -0.4000 0.4950 -0.0060
v -0.4000 0.4450 -0.0060
f 290/6 289/6 288/6 287/6
v -0.2667 0.4450 -0.0180
v -0.4000 0.4450 -0.0180
v -0.4000 0.4450 -0.0060
v -0.2667 0.4450 -0.0060
f 294/6 293/6 292/6 291/6
v -0.2667 0.4950 -0.0060
v -0.4000 0.4950 -0.0060
v -0.4000 0.4950 -0.0180
v -0.2667 0.4950 -0.0180
f 298/6 297/6 296/6 295/6
v -0.2667 0.4950 -0.0180
v -0.4000 0.4950 -0.0180
v -0.4000 0.4450 -0.0180
v -0.2667 0.4450 -0.0180
f 302/6 301/6 300/6 299/6
v -0.2667 0.4450 -0.0060
v -0.4000 0.4450 -0.0060
v -0.4000 0.4950 -0.0060
v -0.2667 0.4950 -0.0060
f 306/6 305/6 304/6 303/6
v 0.3950 0.0400 0.0000
v 0.3950 0.2400 0.0000
v 0.3950 0.2400 -0.5000
v 0.3950 0.0400 -0.5000
f 310/2 309/2 308/2 307/2
v 0.3250 0.0400 -0.5000
v 0.3250 0.2400 -0.5000
v 0.3250 0.2400 0.0000
v 0.3250 0.0400 0.0000
f 314/2 313/2 312/2 311/2
v 0.3950 0.0400 -0.5000
v 0.3250 0.0400 -0.5000
v 0.3250 0.0400 0.0000
v 0.3950 0.0400 0.0000
f 318/2 317/2 316/2 315/2
v 0.3950 0.2400 0.0000
v 0.3250 0.2400 0.0000
v 0.3250 0.2400 -0.5000
v 0.3950 0.2400 -0.5000
f 322/2 321/2 320/2 319/2
v 0.3950 0.2400 -0.5000
v 0.3250 0.2400 -0.5000
v 0.3250 0.0400 -0.5000
v 0.3950 0.0400 -0.5000
f 326/2 325/2 324/2 323/2
v 0.3950 0.0400 0.0000
v 0.3250 0.0400 0.0000
v 0.3250 0.2400 0.0000
v 0.3950 0.2400 0.0000
f 330/2 329/2 328/2 327/2
v 0.4000 0.2375 0.0000
v 0.4000 0.2625 0.0000
v 0.4000 0.2625 -0.5000
v 0.4000 0.2375 -0.5000
f 334/4 333/4 332/4 331/4
v 0.3200 0.2375 -0.5000
v 0.3200 0.2625 -0.5000
v 0.3200 0.2625 0.0000
v 0.3200 0.2375 0.0000
f 338/4 337/4 336/4 335/4
v 0.4000 0.2375 -0.5000
v 0.3200 0.2375 -0.5000
v 0.3200 0.2375 0.0000
v 0.4000 0.2375 0.0000
f 342/4 341/4 340/4 339/4
v 0.4000 0.2625 0.0000
v 0.3200 0.2625 0.0000
v 0.3200 0.2625 -0.5000
v 0.4000 0.2625 -0.5000
f 346/4 345/4 344/4 343/4
v 0.4000 0.2625 -0.5000
v 0.3200 0.2625 -0.5000
v 0.3200 0.2375 -0.5000
v 0.4000 0.2375 -0.5000
f 350/4 349/4 348/4 347/4
v 0.4000 0.2375 0.0000
v 0.3200 0.2375 0.0000
v 0.3200 0.2625 0.0000
v 0.4000 0.2625 0.0000
f 354/4 353/4 352/4 351/4
v -0.3250 0.0400 0.0000
v -0.3250 0.2400 0.0000
v -0.3250 0.2400 -0.5000
v -0.3250 0.0400 -0.5000
f 358/2 357/2 356/2 355/2
v -0.3950 0.0400 -0.5000
v -0.3950 0.2400 -0.5000
v -0.3950 0.2400 0.0000
v -0.3950 0.0400 0.0000
f 362/2 361/2 360/2 359/2
v -0.3250 0.0400 -0.5000
v -0.3950 0.0400 -0.5000
v -0.3950 0.0400 0.0000
v -0.3250 0.0400 0.0000
f 366/2 365/2 364/2 363/2
v -0.3250 0.2400 0.0000
v -0.3950 0.2400 0.0000
v -0.3950 0.2400 -0.5000
v -0.3250 0.2400 -0.5000
f 370/2 369/2 368/2 367/2
v -0.3250 0.2400 -0.5000
v -0.3950 0.2400 -0.5000
v -0.3950 0.0400 -0.5000
v -0.3250 0.0400 -0.5000
f 374/2 373/2 372/2 371/2
v -0.3250 0.0400 0.0000
v -0.3950 0.0400 0.0000
v -0.3950 0.2400 0.0000
v -0.3250 0.2400 0.0000
f 378/2 377/2 376/2 375/2
v -0.3200 0.2375 0.0000
v -0.3200 0.2625 0.0000
v -0.3200 0.2625 -0.5000
v -0.3200 0.2375 -0.5000
f 382/4 381/4 380/4 379/4
v -0.4000 0.2375 -0.5000
v -0.4000 0.2625 -0.5000
v -0.4000 0.2625 0.0000
v -0.4000 0.2375 0.0000
f 386/4 385/4 384/4 383/4
v -0.3200 0.2375 -0.5000
v -0.4000 0.2375 -0.5000
v -0.4000 0.2375 0.0000
v -0.3200 0.2375 0.0000
f 390/4 389/4 388/4 387/4
v -0.3200 0.2625 0.0000
v -0.4000 0.2625 0.0000
v -0.4000 0.2625 -0.5000
v -0.3200 0.2625 -0.5000
f 394/4 393/4 392/4 391/4
v -0.3200 0.2625 -0.5000
v -0.4000 0.2625 -0.5000
v -0.4000 0.2375 -0.5000
v -0.3200 0.2375 -0.5000
f 398/4 397/4 396/4 395/4
v -0.3200 0.2375 0.0000
v -0.4000 0.2375 0.0000
v -0.4000 0.2625 0.0000
v -0.3200 0.2625 0.0000
f 402/4 401/4 400/4 399/4
v 0.1218 0.1800 -0.3232
v 0.1218 0.1920 -0.3232
v -0.0212 0.1920 -0.1802
v -0.0212 0.1800 -0.1802
f 406/8 405/8 404/8 403/8
v 0.0212 0.1800 -0.1378
v 0.0212 0.1920 -0.1378
v 0.1642 0.1920 -0.2808
v 0.1642 0.1800 -0.2808
f 410/8 409/8 408/8 407/8
v -0.0212 0.1800 -0.1802
v 0.0212 0.1800 -0.1378
v 0.1642 0.1800 -0.2808
v 0.1218 0.1800 -0.3232
f 414/8 413/8 412/8 411/8
v 0.1218 0.1920 -0.3232
v 0.1642 0.1920 -0.2808
v 0.0212 0.1920 -0.1378
v -0.0212 0.1920 -0.1802
f 418/8 417/8 416/8 415/8
v -0.0212 0.1920 -0.1802
v 0.0212 0.1920 -0.1378
v 0.0212 0.1800 -0.1378
v -0.0212 0.1800 -0.1802
f 422/8 421/8 420/8 419/8
v 0.1218 0.1800 -0.3232
v 0.1642 0.1800 -0.2808
v 0.1642 0.1920 -0.2808
v 0.1218 0.1920 -0.3232
f 426/8 425/8 424/8 423/8
v -0.1642 0.1800 -0.2808
v -0.1642 0.1920 -0.2808
v -0.0212 0.1920 -0.1378
v -0.0212 0.1800 -0.1378
f 430/8 429/8 428/8 427/8
v 0.0212 0.1800 -0.1802
v 0.0212 0.1920 -0.1802
v -0.1218 0.1920 -0.3232
v -0.1218 0.1800 -0.3232
f 434/8 433/8 432/8 431/8
v -0.0212 0.1800 -0.1378
v 0.0212 0.1800 -0.1802
v -0.1218 0.1800 -0.3232
v -0.1642 0.1800 -0.2808
f 438/8 437/8 436/8 435/8
v -0.1642 0.1920 -0.2808
v -0.1218 0.1920 -0.3232
v 0.0212 0.1920 -0.1802
v -0.0212 0.1920 -0.1378
f 442/8 441/8 440/8 439/8
v -0.0212 0.1920 -0.1378
v 0.0212 0.1920 -0.1802
v 0.0212 0.1800 -0.1802
v -0.0212 0.1800 -0.1378
f 446/8 445/8 444/8 443/8
v -0.1642 0.1800 -0.2808
v -0.1218 0.1800 -0.3232
v -0.1218 0.1920 -0.3232
v -0.1642 0.1920 -0.2808
f 450/8 449/8 448/8 447/8
v 0.1403 0.6140 0.1553
v 0.1403 0.6260 0.1553
v -0.0247 0.6260 0.3203
v -0.0247 0.6140 0.3203
f 454/8 453/8 452/8 451/8
v 0.0247 0.6140 0.3697
v 0.0247 0.6260 0.3697
v 0.1897 0.6260 0.2047
v 0.1897 0.6140 0.2047
f 458/8 457/8 456/8 455/8
v -0.0247 0.6140 0.3203
v 0.0247 0.6140 0.3697
v 0.1897 0.6140 0.2047
v 0.1403 0.6140 0.1553
f 462/8 461/8 460/8 459/8
v 0.1403 0.6260 0.1553
v 0.1897 0.6260 0.2047
v 0.0247 0.6260 0.3697
v -0.0247 0.6260 0.3203
f 466/8 465/8 464/8 463/8
v -0.0247 0.6260 0.3203
v 0.0247 0.6260 0.3697
v 0.0247 0.6140 0.3697
v -0.0247 0.6140 0.3203
f 470/8 469/8 468/8 467/8
v 0.1403 0.6140 0.1553
v 0.1897 0.6140 0.2047
v 0.1897 0.6260 0.2047
v 0.1403 0.6260 0.1553
f 474/8 473/8 472/8 471/8
v -0.1897 0.6140 0.2047
v -0.1897 0.6260 0.2047
v -0.0247 0.6260 0.3697
v -0.0247 0.6140 0.3697
f 478/8 477/8 476/8 475/8
v 0.0247 0.6140 0.3203
v 0.0247 0.6260 0.3203
v -0.1403 0.6260 0.1553
v -0.1403 0.6140 0.1553
f 482/8 481/8 480/8 479/8
v -0.0247 0.6140 0.3697
v 0.0247 0.6140 0.3203
v -0.1403 0.6140 0.1553
v -0.1897 0.6140 0.2047
f 486/8 485/8 484/8 483/8
v -0.1897 0.6260 0.2047
v -0.1403 0.6260 0.1553
v 0.0247 0.6260 0.3203
v -0.0247 0.6260 0.3697
f 490/8 489/8 488/8 487/8
v -0.0247 0.6260 0.3697
v 0.0247 0.6260 0.3203
v 0.0247 0.6140 0.3203
v -0.0247 0.6140 0.3697
f 494/8 493/8 492/8 491/8
v -0.1897 0.6140 0.2047
v -0.1403 0.6140 0.1553
v -0.1403 0.6260 0.1553
v -0.1897 0.6260 0.2047
f 498/8 497/8 496/8 495/8
v -0.3350 0.5950 0.4250
v -0.3350 0.6450 0.4250
v -0.3350 0.6450 0.3750
v -0.3350 0.5950 0.3750
f 502/16 501/16 500/16 499/16
v -0.3850 0.5950 0.3750
v -0.3850 0.6450 0.3750
v -0.3850 0.6450 0.4250
v -0.3850 0.5950 0.4250
f 506/16 505/16 504/16 503/16
v -0.3350 0.5950 0.3750
v -0.3850 0.5950 0.3750
v -0.3850 0.5950 0.4250
v -0.3350 0.5950 0.4250
f 510/16 509/16 508/16 507/16
v -0.3350 0.6450 0.4250
v -0.3850 0.6450 0.4250
v -0.3850 0.6450 0.3750
v -0.3350 0.6450 0.3750
f 514/16 513/16 512/16 511/16
v -0.3350 0.6450 0.3750
v -0.3850 0.6450 0.3750
v -0.3850 0.5950 0.3750
v -0.3350 0.5950 0.3750
f 518/16 517/16 516/16 515/16
v -0.3350 0.5950 0.4250
v -0.3850 0.5950 0.4250
v -0.3850 0.6450 0.4250
v -0.3350 0.6450 0.4250
f 522/16 521/16 520/16 519/16
usemtl wi_rubber
v 0.3100 0.0305 -0.0043
v 0.3100 0.0695 0.0043
v 0.3100 0.1795 -0.4957
v 0.3100 0.1405 -0.5043
f 526/1 525/1 524/1 523/1
v -0.3100 0.1405 -0.5043
v -0.3100 0.1795 -0.4957
v -0.3100 0.0695 0.0043
v -0.3100 0.0305 -0.0043
f 530/1 529/1 528/1 527/1
v 0.3100 0.1405 -0.5043
v -0.3100 0.1405 -0.5043
v -0.3100 0.0305 -0.0043
v 0.3100 0.0305 -0.0043
f 534/1 533/1 532/1 531/1
v 0.3100 0.0695 0.0043
v -0.3100 0.0695 0.0043
v -0.3100 0.1795 -0.4957
v 0.3100 0.1795 -0.4957
f 538/1 537/1 536/1 535/1
v 0.3100 0.1795 -0.4957
v -0.3100 0.1795 -0.4957
v -0.3100 0.1405 -0.5043
v 0.3100 0.1405 -0.5043
f 542/1 541/1 540/1 539/1
v 0.3100 0.0305 -0.0043
v -0.3100 0.0305 -0.0043
v -0.3100 0.0695 0.0043
v 0.3100 0.0695 0.0043
f 546/1 545/1 544/1 543/1
