# Walk of Industry low-poly (generated, wi_lib.py)
mtllib wi.mtl
vt 0 0
vt 0.03125 0.03125
vt 0.09375 0.03125
vt 0.15625 0.03125
vt 0.21875 0.03125
vt 0.28125 0.03125
vt 0.34375 0.03125
vt 0.40625 0.03125
vt 0.46875 0.03125
vt 0.53125 0.03125
vt 0.59375 0.03125
vt 0.65625 0.03125
vt 0.71875 0.03125
vt 0.78125 0.03125
vt 0.84375 0.03125
vt 0.90625 0.03125
vt 0.96875 0.03125
vt 0.03125 0.09375
vt 0.09375 0.09375
vt 0.15625 0.09375
vt 0.21875 0.09375
vt 0.28125 0.09375
vt 0.34375 0.09375
vt 0.40625 0.09375
vt 0.46875 0.09375
vt 0.53125 0.09375
vt 0.59375 0.09375
vt 0.65625 0.09375
vt 0.71875 0.09375
vt 0.78125 0.09375
vt 0.84375 0.09375
vt 0.90625 0.09375
vt 0.96875 0.09375
o Pier
usemtl wi_palette
v 0.7450 -0.4000 -0.7194
v 0.7100 -0.4000 -0.7800
v 0.7100 0.1500 -0.7800
v 0.7450 0.1500 -0.7194
f 4/5 3/5 2/5 1/5
v 0.7100 -0.4000 -0.7800
v 0.7450 -0.4000 -0.8406
v 0.7450 0.1500 -0.8406
v 0.7100 0.1500 -0.7800
f 8/5 7/5 6/5 5/5
v 0.7450 -0.4000 -0.8406
v 0.8150 -0.4000 -0.8406
v 0.8150 0.1500 -0.8406
v 0.7450 0.1500 -0.8406
f 12/5 11/5 10/5 9/5
v 0.8150 -0.4000 -0.8406
v 0.8500 -0.4000 -0.7800
v 0.8500 0.1500 -0.7800
v 0.8150 0.1500 -0.8406
f 16/5 15/5 14/5 13/5
v 0.8500 -0.4000 -0.7800
v 0.8150 -0.4000 -0.7194
v 0.8150 0.1500 -0.7194
v 0.8500 0.1500 -0.7800
f 20/5 19/5 18/5 17/5
v 0.8150 -0.4000 -0.7194
v 0.7450 -0.4000 -0.7194
v 0.7450 0.1500 -0.7194
v 0.8150 0.1500 -0.7194
f 24/5 23/5 22/5 21/5
v 0.8150 -0.4000 -0.7194
v 0.8500 -0.4000 -0.7800
v 0.8150 -0.4000 -0.8406
v 0.7450 -0.4000 -0.8406
v 0.7100 -0.4000 -0.7800
v 0.7450 -0.4000 -0.7194
f 30/5 29/5 28/5 27/5 26/5 25/5
v 0.7450 0.1500 -0.7194
v 0.7100 0.1500 -0.7800
v 0.7450 0.1500 -0.8406
v 0.8150 0.1500 -0.8406
v 0.8500 0.1500 -0.7800
v 0.8150 0.1500 -0.7194
f 36/5 35/5 34/5 33/5 32/5 31/5
v 0.7450 -0.4000 0.8406
v 0.7100 -0.4000 0.7800
v 0.7100 0.1500 0.7800
v 0.7450 0.1500 0.8406
f 40/5 39/5 38/5 37/5
v 0.7100 -0.4000 0.7800
v 0.7450 -0.4000 0.7194
v 0.7450 0.1500 0.7194
v 0.7100 0.1500 0.7800
f 44/5 43/5 42/5 41/5
v 0.7450 -0.4000 0.7194
v 0.8150 -0.4000 0.7194
v 0.8150 0.1500 0.7194
v 0.7450 0.1500 0.7194
f 48/5 47/5 46/5 45/5
v 0.8150 -0.4000 0.7194
v 0.8500 -0.4000 0.7800
v 0.8500 0.1500 0.7800
v 0.8150 0.1500 0.7194
f 52/5 51/5 50/5 49/5
v 0.8500 -0.4000 0.7800
v 0.8150 -0.4000 0.8406
v 0.8150 0.1500 0.8406
v 0.8500 0.1500 0.7800
f 56/5 55/5 54/5 53/5
v 0.8150 -0.4000 0.8406
v 0.7450 -0.4000 0.8406
v 0.7450 0.1500 0.8406
v 0.8150 0.1500 0.8406
f 60/5 59/5 58/5 57/5
v 0.8150 -0.4000 0.8406
v 0.8500 -0.4000 0.7800
v 0.8150 -0.4000 0.7194
v 0.7450 -0.4000 0.7194
v 0.7100 -0.4000 0.7800
v 0.7450 -0.4000 0.8406
f 66/5 65/5 64/5 63/5 62/5 61/5
v 0.7450 0.1500 0.8406
v 0.7100 0.1500 0.7800
v 0.7450 0.1500 0.7194
v 0.8150 0.1500 0.7194
v 0.8500 0.1500 0.7800
v 0.8150 0.1500 0.8406
f 72/5 71/5 70/5 69/5 68/5 67/5
v -0.8150 -0.4000 -0.7194
v -0.8500 -0.4000 -0.7800
v -0.8500 0.1500 -0.7800
v -0.8150 0.1500 -0.7194
f 76/5 75/5 74/5 73/5
v -0.8500 -0.4000 -0.7800
v -0.8150 -0.4000 -0.8406
v -0.8150 0.1500 -0.8406
v -0.8500 0.1500 -0.7800
f 80/5 79/5 78/5 77/5
v -0.8150 -0.4000 -0.8406
v -0.7450 -0.4000 -0.8406
v -0.7450 0.1500 -0.8406
v -0.8150 0.1500 -0.8406
f 84/5 83/5 82/5 81/5
v -0.7450 -0.4000 -0.8406
v -0.7100 -0.4000 -0.7800
v -0.7100 0.1500 -0.7800
v -0.7450 0.1500 -0.8406
f 88/5 87/5 86/5 85/5
v -0.7100 -0.4000 -0.7800
v -0.7450 -0.4000 -0.7194
v -0.7450 0.1500 -0.7194
v -0.7100 0.1500 -0.7800
f 92/5 91/5 90/5 89/5
v -0.7450 -0.4000 -0.7194
v -0.8150 -0.4000 -0.7194
v -0.8150 0.1500 -0.7194
v -0.7450 0.1500 -0.7194
f 96/5 95/5 94/5 93/5
v -0.7450 -0.4000 -0.7194
v -0.7100 -0.4000 -0.7800
v -0.7450 -0.4000 -0.8406
v -0.8150 -0.4000 -0.8406
v -0.8500 -0.4000 -0.7800
v -0.8150 -0.4000 -0.7194
f 102/5 101/5 100/5 99/5 98/5 97/5
v -0.8150 0.1500 -0.7194
v -0.8500 0.1500 -0.7800
v -0.8150 0.1500 -0.8406
v -0.7450 0.1500 -0.8406
v -0.7100 0.1500 -0.7800
v -0.7450 0.1500 -0.7194
f 108/5 107/5 106/5 105/5 104/5 103/5
v -0.8150 -0.4000 0.8406
v -0.8500 -0.4000 0.7800
v -0.8500 0.1500 0.7800
v -0.8150 0.1500 0.8406
f 112/5 111/5 110/5 109/5
v -0.8500 -0.4000 0.7800
v -0.8150 -0.4000 0.7194
v -0.8150 0.1500 0.7194
v -0.8500 0.1500 0.7800
f 116/5 115/5 114/5 113/5
v -0.8150 -0.4000 0.7194
v -0.7450 -0.4000 0.7194
v -0.7450 0.1500 0.7194
v -0.8150 0.1500 0.7194
f 120/5 119/5 118/5 117/5
v -0.7450 -0.4000 0.7194
v -0.7100 -0.4000 0.7800
v -0.7100 0.1500 0.7800
v -0.7450 0.1500 0.7194
f 124/5 123/5 122/5 121/5
v -0.7100 -0.4000 0.7800
v -0.7450 -0.4000 0.8406
v -0.7450 0.1500 0.8406
v -0.7100 0.1500 0.7800
f 128/5 127/5 126/5 125/5
v -0.7450 -0.4000 0.8406
v -0.8150 -0.4000 0.8406
v -0.8150 0.1500 0.8406
v -0.7450 0.1500 0.8406
f 132/5 131/5 130/5 129/5
v -0.7450 -0.4000 0.8406
v -0.7100 -0.4000 0.7800
v -0.7450 -0.4000 0.7194
v -0.8150 -0.4000 0.7194
v -0.8500 -0.4000 0.7800
v -0.8150 -0.4000 0.8406
f 138/5 137/5 136/5 135/5 134/5 133/5
v -0.8150 0.1500 0.8406
v -0.8500 0.1500 0.7800
v -0.8150 0.1500 0.7194
v -0.7450 0.1500 0.7194
v -0.7100 0.1500 0.7800
v -0.7450 0.1500 0.8406
f 144/5 143/5 142/5 141/5 140/5 139/5
v 0.9500 0.0500 0.9500
v 0.9500 0.1500 0.9500
v 0.9500 0.1500 -0.9500
v 0.9500 0.0500 -0.9500
f 148/9 147/9 146/9 145/9
v -0.9500 0.0500 -0.9500
v -0.9500 0.1500 -0.9500
v -0.9500 0.1500 0.9500
v -0.9500 0.0500 0.9500
f 152/9 151/9 150/9 149/9
v 0.9500 0.0500 -0.9500
v -0.9500 0.0500 -0.9500
v -0.9500 0.0500 0.9500
v 0.9500 0.0500 0.9500
f 156/9 155/9 154/9 153/9
v 0.9500 0.1500 0.9500
v -0.9500 0.1500 0.9500
v -0.9500 0.1500 -0.9500
v 0.9500 0.1500 -0.9500
f 160/9 159/9 158/9 157/9
v 0.9500 0.1500 -0.9500
v -0.9500 0.1500 -0.9500
v -0.9500 0.0500 -0.9500
v 0.9500 0.0500 -0.9500
f 164/9 163/9 162/9 161/9
v 0.9500 0.0500 0.9500
v -0.9500 0.0500 0.9500
v -0.9500 0.1500 0.9500
v 0.9500 0.1500 0.9500
f 168/9 167/9 166/9 165/9
v 0.8100 0.1500 0.9500
v 0.8100 0.1600 0.9500
v 0.8100 0.1600 -0.9500
v 0.8100 0.1500 -0.9500
f 172/5 171/5 170/5 169/5
v 0.7900 0.1500 -0.9500
v 0.7900 0.1600 -0.9500
v 0.7900 0.1600 0.9500
v 0.7900 0.1500 0.9500
f 176/5 175/5 174/5 173/5
v 0.8100 0.1500 -0.9500
v 0.7900 0.1500 -0.9500
v 0.7900 0.1500 0.9500
v 0.8100 0.1500 0.9500
f 180/5 179/5 178/5 177/5
v 0.8100 0.1600 0.9500
v 0.7900 0.1600 0.9500
v 0.7900 0.1600 -0.9500
v 0.8100 0.1600 -0.9500
f 184/5 183/5 182/5 181/5
v 0.8100 0.1600 -0.9500
v 0.7900 0.1600 -0.9500
v 0.7900 0.1500 -0.9500
v 0.8100 0.1500 -0.9500
f 188/5 187/5 186/5 185/5
v 0.8100 0.1500 0.9500
v 0.7900 0.1500 0.9500
v 0.7900 0.1600 0.9500
v 0.8100 0.1600 0.9500
f 192/5 191/5 190/5 189/5
v 0.4900 0.1500 0.9500
v 0.4900 0.1600 0.9500
v 0.4900 0.1600 -0.9500
v 0.4900 0.1500 -0.9500
f 196/5 195/5 194/5 193/5
v 0.4700 0.1500 -0.9500
v 0.4700 0.1600 -0.9500
v 0.4700 0.1600 0.9500
v 0.4700 0.1500 0.9500
f 200/5 199/5 198/5 197/5
v 0.4900 0.1500 -0.9500
v 0.4700 0.1500 -0.9500
v 0.4700 0.1500 0.9500
v 0.4900 0.1500 0.9500
f 204/5 203/5 202/5 201/5
v 0.4900 0.1600 0.9500
v 0.4700 0.1600 0.9500
v 0.4700 0.1600 -0.9500
v 0.4900 0.1600 -0.9500
f 208/5 207/5 206/5 205/5
v 0.4900 0.1600 -0.9500
v 0.4700 0.1600 -0.9500
v 0.4700 0.1500 -0.9500
v 0.4900 0.1500 -0.9500
f 212/5 211/5 210/5 209/5
v 0.4900 0.1500 0.9500
v 0.4700 0.1500 0.9500
v 0.4700 0.1600 0.9500
v 0.4900 0.1600 0.9500
f 216/5 215/5 214/5 213/5
v 0.1700 0.1500 0.9500
v 0.1700 0.1600 0.9500
v 0.1700 0.1600 -0.9500
v 0.1700 0.1500 -0.9500
f 220/5 219/5 218/5 217/5
v 0.1500 0.1500 -0.9500
v 0.1500 0.1600 -0.9500
v 0.1500 0.1600 0.9500
v 0.1500 0.1500 0.9500
f 224/5 223/5 222/5 221/5
v 0.1700 0.1500 -0.9500
v 0.1500 0.1500 -0.9500
v 0.1500 0.1500 0.9500
v 0.1700 0.1500 0.9500
f 228/5 227/5 226/5 225/5
v 0.1700 0.1600 0.9500
v 0.1500 0.1600 0.9500
v 0.1500 0.1600 -0.9500
v 0.1700 0.1600 -0.9500
f 232/5 231/5 230/5 229/5
v 0.1700 0.1600 -0.9500
v 0.1500 0.1600 -0.9500
v 0.1500 0.1500 -0.9500
v 0.1700 0.1500 -0.9500
f 236/5 235/5 234/5 233/5
v 0.1700 0.1500 0.9500
v 0.1500 0.1500 0.9500
v 0.1500 0.1600 0.9500
v 0.1700 0.1600 0.9500
f 240/5 239/5 238/5 237/5
v -0.1500 0.1500 0.9500
v -0.1500 0.1600 0.9500
v -0.1500 0.1600 -0.9500
v -0.1500 0.1500 -0.9500
f 244/5 243/5 242/5 241/5
v -0.1700 0.1500 -0.9500
v -0.1700 0.1600 -0.9500
v -0.1700 0.1600 0.9500
v -0.1700 0.1500 0.9500
f 248/5 247/5 246/5 245/5
v -0.1500 0.1500 -0.9500
v -0.1700 0.1500 -0.9500
v -0.1700 0.1500 0.9500
v -0.1500 0.1500 0.9500
f 252/5 251/5 250/5 249/5
v -0.1500 0.1600 0.9500
v -0.1700 0.1600 0.9500
v -0.1700 0.1600 -0.9500
v -0.1500 0.1600 -0.9500
f 256/5 255/5 254/5 253/5
v -0.1500 0.1600 -0.9500
v -0.1700 0.1600 -0.9500
v -0.1700 0.1500 -0.9500
v -0.1500 0.1500 -0.9500
f 260/5 259/5 258/5 257/5
v -0.1500 0.1500 0.9500
v -0.1700 0.1500 0.9500
v -0.1700 0.1600 0.9500
v -0.1500 0.1600 0.9500
f 264/5 263/5 262/5 261/5
v -0.4700 0.1500 0.9500
v -0.4700 0.1600 0.9500
v -0.4700 0.1600 -0.9500
v -0.4700 0.1500 -0.9500
f 268/5 267/5 266/5 265/5
v -0.4900 0.1500 -0.9500
v -0.4900 0.1600 -0.9500
v -0.4900 0.1600 0.9500
v -0.4900 0.1500 0.9500
f 272/5 271/5 270/5 269/5
v -0.4700 0.1500 -0.9500
v -0.4900 0.1500 -0.9500
v -0.4900 0.1500 0.9500
v -0.4700 0.1500 0.9500
f 276/5 275/5 274/5 273/5
v -0.4700 0.1600 0.9500
v -0.4900 0.1600 0.9500
v -0.4900 0.1600 -0.9500
v -0.4700 0.1600 -0.9500
f 280/5 279/5 278/5 277/5
v -0.4700 0.1600 -0.9500
v -0.4900 0.1600 -0.9500
v -0.4900 0.1500 -0.9500
v -0.4700 0.1500 -0.9500
f 284/5 283/5 282/5 281/5
v -0.4700 0.1500 0.9500
v -0.4900 0.1500 0.9500
v -0.4900 0.1600 0.9500
v -0.4700 0.1600 0.9500
f 288/5 287/5 286/5 285/5
v -0.7900 0.1500 0.9500
v -0.7900 0.1600 0.9500
v -0.7900 0.1600 -0.9500
v -0.7900 0.1500 -0.9500
f 292/5 291/5 290/5 289/5
v -0.8100 0.1500 -0.9500
v -0.8100 0.1600 -0.9500
v -0.8100 0.1600 0.9500
v -0.8100 0.1500 0.9500
f 296/5 295/5 294/5 293/5
v -0.7900 0.1500 -0.9500
v -0.8100 0.1500 -0.9500
v -0.8100 0.1500 0.9500
v -0.7900 0.1500 0.9500
f 300/5 299/5 298/5 297/5
v -0.7900 0.1600 0.9500
v -0.8100 0.1600 0.9500
v -0.8100 0.1600 -0.9500
v -0.7900 0.1600 -0.9500
f 304/5 303/5 302/5 301/5
v -0.7900 0.1600 -0.9500
v -0.8100 0.1600 -0.9500
v -0.8100 0.1500 -0.9500
v -0.7900 0.1500 -0.9500
f 308/5 307/5 306/5 305/5
v -0.7900 0.1500 0.9500
v -0.8100 0.1500 0.9500
v -0.8100 0.1600 0.9500
v -0.7900 0.1600 0.9500
f 312/5 311/5 310/5 309/5
v 0.8000 0.1500 0.5000
v 0.8000 0.9500 0.5000
v 0.8000 0.9500 -0.7000
v 0.8000 0.1500 -0.7000
f 316/2 315/2 314/2 313/2
v -0.3000 0.1500 -0.7000
v -0.3000 0.9500 -0.7000
v -0.3000 0.9500 0.5000
v -0.3000 0.1500 0.5000
f 320/2 319/2 318/2 317/2
v 0.8000 0.1500 -0.7000
v -0.3000 0.1500 -0.7000
v -0.3000 0.1500 0.5000
v 0.8000 0.1500 0.5000
f 324/2 323/2 322/2 321/2
v 0.8000 0.9500 0.5000
v -0.3000 0.9500 0.5000
v -0.3000 0.9500 -0.7000
v 0.8000 0.9500 -0.7000
f 328/2 327/2 326/2 325/2
v 0.8000 0.9500 -0.7000
v -0.3000 0.9500 -0.7000
v -0.3000 0.1500 -0.7000
v 0.8000 0.1500 -0.7000
f 332/2 331/2 330/2 329/2
v 0.8000 0.1500 0.5000
v -0.3000 0.1500 0.5000
v -0.3000 0.9500 0.5000
v 0.8000 0.9500 0.5000
f 336/2 335/2 334/2 333/2
v 0.8500 1.3000 -0.1000
v -0.3500 1.3000 -0.1000
v -0.3500 0.9500 -0.7500
v 0.8500 0.9500 -0.7500
f 340/4 339/4 338/4 337/4
v -0.3500 1.3000 -0.1000
v 0.8500 1.3000 -0.1000
v 0.8500 0.9500 0.5500
v -0.3500 0.9500 0.5500
f 344/4 343/4 342/4 341/4
v -0.3500 1.3000 -0.1000
v -0.3500 0.9500 0.5500
v -0.3500 0.9500 -0.7500
f 347/4 346/4 345/4
v 0.8500 1.3000 -0.1000
v 0.8500 0.9500 -0.7500
v 0.8500 0.9500 0.5500
f 350/4 349/4 348/4
v 0.8500 0.9500 -0.7500
v -0.3500 0.9500 -0.7500
v -0.3500 0.9500 0.5500
v 0.8500 0.9500 0.5500
f 354/4 353/4 352/4 351/4
v 0.4300 0.1700 0.5150
v 0.4300 0.7300 0.5150
v 0.4300 0.7300 0.4950
v 0.4300 0.1700 0.4950
f 358/6 357/6 356/6 355/6
v 0.0700 0.1700 0.4950
v 0.0700 0.7300 0.4950
v 0.0700 0.7300 0.5150
v 0.0700 0.1700 0.5150
f 362/6 361/6 360/6 359/6
v 0.4300 0.1700 0.4950
v 0.0700 0.1700 0.4950
v 0.0700 0.1700 0.5150
v 0.4300 0.1700 0.5150
f 366/6 365/6 364/6 363/6
v 0.4300 0.7300 0.5150
v 0.0700 0.7300 0.5150
v 0.0700 0.7300 0.4950
v 0.4300 0.7300 0.4950
f 370/6 369/6 368/6 367/6
v 0.4300 0.7300 0.4950
v 0.0700 0.7300 0.4950
v 0.0700 0.1700 0.4950
v 0.4300 0.1700 0.4950
f 374/6 373/6 372/6 371/6
v 0.4300 0.1700 0.5150
v 0.0700 0.1700 0.5150
v 0.0700 0.7300 0.5150
v 0.4300 0.7300 0.5150
f 378/6 377/6 376/6 375/6
v -0.2950 0.5400 0.1500
v -0.2950 0.7600 0.1500
v -0.2950 0.7600 -0.3500
v -0.2950 0.5400 -0.3500
f 382/12 381/12 380/12 379/12
v -0.3150 0.5400 -0.3500
v -0.3150 0.7600 -0.3500
v -0.3150 0.7600 0.1500
v -0.3150 0.5400 0.1500
f 386/12 385/12 384/12 383/12
v -0.2950 0.5400 -0.3500
v -0.3150 0.5400 -0.3500
v -0.3150 0.5400 0.1500
v -0.2950 0.5400 0.1500
f 390/12 389/12 388/12 387/12
v -0.2950 0.7600 0.1500
v -0.3150 0.7600 0.1500
v -0.3150 0.7600 -0.3500
v -0.2950 0.7600 -0.3500
f 394/12 393/12 392/12 391/12
v -0.2950 0.7600 -0.3500
v -0.3150 0.7600 -0.3500
v -0.3150 0.5400 -0.3500
v -0.2950 0.5400 -0.3500
f 398/12 397/12 396/12 395/12
v -0.2950 0.5400 0.1500
v -0.3150 0.5400 0.1500
v -0.3150 0.7600 0.1500
v -0.2950 0.7600 0.1500
f 402/12 401/12 400/12 399/12
v -0.6883 0.9000 -0.6924
v -0.7424 0.9000 -0.6383
v -0.7424 -0.3500 -0.6383
v -0.6883 -0.3500 -0.6924
f 406/7 405/7 404/7 403/7
v -0.7424 0.9000 -0.6383
v -0.7424 0.9000 -0.5617
v -0.7424 -0.3500 -0.5617
v -0.7424 -0.3500 -0.6383
f 410/7 409/7 408/7 407/7
v -0.7424 0.9000 -0.5617
v -0.6883 0.9000 -0.5076
v -0.6883 -0.3500 -0.5076
v -0.7424 -0.3500 -0.5617
f 414/7 413/7 412/7 411/7
v -0.6883 0.9000 -0.5076
v -0.6117 0.9000 -0.5076
v -0.6117 -0.3500 -0.5076
v -0.6883 -0.3500 -0.5076
f 418/7 417/7 416/7 415/7
v -0.6117 0.9000 -0.5076
v -0.5576 0.9000 -0.5617
v -0.5576 -0.3500 -0.5617
v -0.6117 -0.3500 -0.5076
f 422/7 421/7 420/7 419/7
v -0.5576 0.9000 -0.5617
v -0.5576 0.9000 -0.6383
v -0.5576 -0.3500 -0.6383
v -0.5576 -0.3500 -0.5617
f 426/7 425/7 424/7 423/7
v -0.5576 0.9000 -0.6383
v -0.6117 0.9000 -0.6924
v -0.6117 -0.3500 -0.6924
v -0.5576 -0.3500 -0.6383
f 430/7 429/7 428/7 427/7
v -0.6117 0.9000 -0.6924
v -0.6883 0.9000 -0.6924
v -0.6883 -0.3500 -0.6924
v -0.6117 -0.3500 -0.6924
f 434/7 433/7 432/7 431/7
v -0.6117 0.9000 -0.6924
v -0.5576 0.9000 -0.6383
v -0.5576 0.9000 -0.5617
v -0.6117 0.9000 -0.5076
v -0.6883 0.9000 -0.5076
v -0.7424 0.9000 -0.5617
v -0.7424 0.9000 -0.6383
v -0.6883 0.9000 -0.6924
f 442/7 441/7 440/7 439/7 438/7 437/7 436/7 435/7
v -0.6883 -0.3500 -0.6924
v -0.7424 -0.3500 -0.6383
v -0.7424 -0.3500 -0.5617
v -0.6883 -0.3500 -0.5076
v -0.6117 -0.3500 -0.5076
v -0.5576 -0.3500 -0.5617
v -0.5576 -0.3500 -0.6383
v -0.6117 -0.3500 -0.6924
f 450/7 449/7 448/7 447/7 446/7 445/7 444/7 443/7
v -0.6500 0.9383 -0.5076
v -0.6500 0.9924 -0.5617
v -0.3000 0.9924 -0.5617
v -0.3000 0.9383 -0.5076
f 454/7 453/7 452/7 451/7
v -0.6500 0.9924 -0.5617
v -0.6500 0.9924 -0.6383
v -0.3000 0.9924 -0.6383
v -0.3000 0.9924 -0.5617
f 458/7 457/7 456/7 455/7
v -0.6500 0.9924 -0.6383
v -0.6500 0.9383 -0.6924
v -0.3000 0.9383 -0.6924
v -0.3000 0.9924 -0.6383
f 462/7 461/7 460/7 459/7
v -0.6500 0.9383 -0.6924
v -0.6500 0.8617 -0.6924
v -0.3000 0.8617 -0.6924
v -0.3000 0.9383 -0.6924
f 466/7 465/7 464/7 463/7
v -0.6500 0.8617 -0.6924
v -0.6500 0.8076 -0.6383
v -0.3000 0.8076 -0.6383
v -0.3000 0.8617 -0.6924
f 470/7 469/7 468/7 467/7
v -0.6500 0.8076 -0.6383
v -0.6500 0.8076 -0.5617
v -0.3000 0.8076 -0.5617
v -0.3000 0.8076 -0.6383
f 474/7 473/7 472/7 471/7
v -0.6500 0.8076 -0.5617
v -0.6500 0.8617 -0.5076
v -0.3000 0.8617 -0.5076
v -0.3000 0.8076 -0.5617
f 478/7 477/7 476/7 475/7
v -0.6500 0.8617 -0.5076
v -0.6500 0.9383 -0.5076
v -0.3000 0.9383 -0.5076
v -0.3000 0.8617 -0.5076
f 482/7 481/7 480/7 479/7
v -0.6500 0.8617 -0.5076
v -0.6500 0.8076 -0.5617
v -0.6500 0.8076 -0.6383
v -0.6500 0.8617 -0.6924
v -0.6500 0.9383 -0.6924
v -0.6500 0.9924 -0.6383
v -0.6500 0.9924 -0.5617
v -0.6500 0.9383 -0.5076
f 490/7 489/7 488/7 487/7 486/7 485/7 484/7 483/7
v -0.3000 0.9383 -0.5076
v -0.3000 0.9924 -0.5617
v -0.3000 0.9924 -0.6383
v -0.3000 0.9383 -0.6924
v -0.3000 0.8617 -0.6924
v -0.3000 0.8076 -0.6383
v -0.3000 0.8076 -0.5617
v -0.3000 0.8617 -0.5076
f 498/7 497/7 496/7 495/7 494/7 493/7 492/7 491/7
v -0.7036 0.0500 -0.4707
v -0.7793 0.0500 -0.5464
v -0.7793 0.1000 -0.5464
v -0.7036 0.1000 -0.4707
f 502/4 501/4 500/4 499/4
v -0.7793 0.0500 -0.5464
v -0.7793 0.0500 -0.6536
v -0.7793 0.1000 -0.6536
v -0.7793 0.1000 -0.5464
f 506/4 505/4 504/4 503/4
v -0.7793 0.0500 -0.6536
v -0.7036 0.0500 -0.7293
v -0.7036 0.1000 -0.7293
v -0.7793 0.1000 -0.6536
f 510/4 509/4 508/4 507/4
v -0.7036 0.0500 -0.7293
v -0.5964 0.0500 -0.7293
v -0.5964 0.1000 -0.7293
v -0.7036 0.1000 -0.7293
f 514/4 513/4 512/4 511/4
v -0.5964 0.0500 -0.7293
v -0.5207 0.0500 -0.6536
v -0.5207 0.1000 -0.6536
v -0.5964 0.1000 -0.7293
f 518/4 517/4 516/4 515/4
v -0.5207 0.0500 -0.6536
v -0.5207 0.0500 -0.5464
v -0.5207 0.1000 -0.5464
v -0.5207 0.1000 -0.6536
f 522/4 521/4 520/4 519/4
v -0.5207 0.0500 -0.5464
v -0.5964 0.0500 -0.4707
v -0.5964 0.1000 -0.4707
v -0.5207 0.1000 -0.5464
f 526/4 525/4 524/4 523/4
v -0.5964 0.0500 -0.4707
v -0.7036 0.0500 -0.4707
v -0.7036 0.1000 -0.4707
v -0.5964 0.1000 -0.4707
f 530/4 529/4 528/4 527/4
v -0.5964 0.0500 -0.4707
v -0.5207 0.0500 -0.5464
v -0.5207 0.0500 -0.6536
v -0.5964 0.0500 -0.7293
v -0.7036 0.0500 -0.7293
v -0.7793 0.0500 -0.6536
v -0.7793 0.0500 -0.5464
v -0.7036 0.0500 -0.4707
f 538/4 537/4 536/4 535/4 534/4 533/4 532/4 531/4
v -0.7036 0.1000 -0.4707
v -0.7793 0.1000 -0.5464
v -0.7793 0.1000 -0.6536
v -0.7036 0.1000 -0.7293
v -0.5964 0.1000 -0.7293
v -0.5207 0.1000 -0.6536
v -0.5207 0.1000 -0.5464
v -0.5964 0.1000 -0.4707
f 546/4 545/4 544/4 543/4 542/4 541/4 540/4 539/4
v -0.6927 0.1500 0.7353
v -0.8427 0.1500 0.6263
v -0.8427 0.7500 0.6263
v -0.6927 0.7500 0.7353
f 550/13 549/13 548/13 547/13
v -0.8427 0.1500 0.6263
v -0.9000 0.1500 0.4500
v -0.9000 0.7500 0.4500
v -0.8427 0.7500 0.6263
f 554/13 553/13 552/13 551/13
v -0.9000 0.1500 0.4500
v -0.8427 0.1500 0.2737
v -0.8427 0.7500 0.2737
v -0.9000 0.7500 0.4500
f 558/13 557/13 556/13 555/13
v -0.8427 0.1500 0.2737
v -0.6927 0.1500 0.1647
v -0.6927 0.7500 0.1647
v -0.8427 0.7500 0.2737
f 562/13 561/13 560/13 559/13
v -0.6927 0.1500 0.1647
v -0.5073 0.1500 0.1647
v -0.5073 0.7500 0.1647
v -0.6927 0.7500 0.1647
f 566/13 565/13 564/13 563/13
v -0.5073 0.1500 0.1647
v -0.3573 0.1500 0.2737
v -0.3573 0.7500 0.2737
v -0.5073 0.7500 0.1647
f 570/13 569/13 568/13 567/13
v -0.3573 0.1500 0.2737
v -0.3000 0.1500 0.4500
v -0.3000 0.7500 0.4500
v -0.3573 0.7500 0.2737
f 574/13 573/13 572/13 571/13
v -0.3000 0.1500 0.4500
v -0.3573 0.1500 0.6263
v -0.3573 0.7500 0.6263
v -0.3000 0.7500 0.4500
f 578/13 577/13 576/13 575/13
v -0.3573 0.1500 0.6263
v -0.5073 0.1500 0.7353
v -0.5073 0.7500 0.7353
v -0.3573 0.7500 0.6263
f 582/13 581/13 580/13 579/13
v -0.5073 0.1500 0.7353
v -0.6927 0.1500 0.7353
v -0.6927 0.7500 0.7353
v -0.5073 0.7500 0.7353
f 586/13 585/13 584/13 583/13
v -0.5073 0.1500 0.7353
v -0.3573 0.1500 0.6263
v -0.3000 0.1500 0.4500
v -0.3573 0.1500 0.2737
v -0.5073 0.1500 0.1647
v -0.6927 0.1500 0.1647
v -0.8427 0.1500 0.2737
v -0.9000 0.1500 0.4500
v -0.8427 0.1500 0.6263
v -0.6927 0.1500 0.7353
f 596/13 595/13 594/13 593/13 592/13 591/13 590/13 589/13 588/13 587/13
v -0.6927 0.7500 0.7353
v -0.8427 0.7500 0.6263
v -0.9000 0.7500 0.4500
v -0.8427 0.7500 0.2737
v -0.6927 0.7500 0.1647
v -0.5073 0.7500 0.1647
v -0.3573 0.7500 0.2737
v -0.3000 0.7500 0.4500
v -0.3573 0.7500 0.6263
v -0.5073 0.7500 0.7353
f 606/13 605/13 604/13 603/13 602/13 601/13 600/13 599/13 598/13 597/13
v -0.6989 0.7500 0.7543
v -0.8589 0.7500 0.6381
v -0.6809 0.8700 0.5088
v -0.6309 0.8700 0.5451
f 610/4 609/4 608/4 607/4
v -0.8589 0.7500 0.6381
v -0.9200 0.7500 0.4500
v -0.7000 0.8700 0.4500
v -0.6809 0.8700 0.5088
f 614/4 613/4 612/4 611/4
v -0.9200 0.7500 0.4500
v -0.8589 0.7500 0.2619
v -0.6809 0.8700 0.3912
v -0.7000 0.8700 0.4500
f 618/4 617/4 616/4 615/4
v -0.8589 0.7500 0.2619
v -0.6989 0.7500 0.1457
v -0.6309 0.8700 0.3549
v -0.6809 0.8700 0.3912
f 622/4 621/4 620/4 619/4
v -0.6989 0.7500 0.1457
v -0.5011 0.7500 0.1457
v -0.5691 0.8700 0.3549
v -0.6309 0.8700 0.3549
f 626/4 625/4 624/4 623/4
v -0.5011 0.7500 0.1457
v -0.3411 0.7500 0.2619
v -0.5191 0.8700 0.3912
v -0.5691 0.8700 0.3549
f 630/4 629/4 628/4 627/4
v -0.3411 0.7500 0.2619
v -0.2800 0.7500 0.4500
v -0.5000 0.8700 0.4500
v -0.5191 0.8700 0.3912
f 634/4 633/4 632/4 631/4
v -0.2800 0.7500 0.4500
v -0.3411 0.7500 0.6381
v -0.5191 0.8700 0.5088
v -0.5000 0.8700 0.4500
f 638/4 637/4 636/4 635/4
v -0.3411 0.7500 0.6381
v -0.5011 0.7500 0.7543
v -0.5691 0.8700 0.5451
v -0.5191 0.8700 0.5088
f 642/4 641/4 640/4 639/4
v -0.5011 0.7500 0.7543
v -0.6989 0.7500 0.7543
v -0.6309 0.8700 0.5451
v -0.5691 0.8700 0.5451
f 646/4 645/4 644/4 643/4
v -0.5011 0.7500 0.7543
v -0.3411 0.7500 0.6381
v -0.2800 0.7500 0.4500
v -0.3411 0.7500 0.2619
v -0.5011 0.7500 0.1457
v -0.6989 0.7500 0.1457
v -0.8589 0.7500 0.2619
v -0.9200 0.7500 0.4500
v -0.8589 0.7500 0.6381
v -0.6989 0.7500 0.7543
f 656/4 655/4 654/4 653/4 652/4 651/4 650/4 649/4 648/4 647/4
v -0.6309 0.8700 0.5451
v -0.6809 0.8700 0.5088
v -0.7000 0.8700 0.4500
v -0.6809 0.8700 0.3912
v -0.6309 0.8700 0.3549
v -0.5691 0.8700 0.3549
v -0.5191 0.8700 0.3912
v -0.5000 0.8700 0.4500
v -0.5191 0.8700 0.5088
v -0.5691 0.8700 0.5451
f 666/4 665/4 664/4 663/4 662/4 661/4 660/4 659/4 658/4 657/4
v -0.3000 0.4250 0.4933
v -0.3000 0.4500 0.4500
v -0.0500 0.4500 0.4500
v -0.0500 0.4250 0.4933
f 670/7 669/7 668/7 667/7
v -0.3000 0.4500 0.4500
v -0.3000 0.4250 0.4067
v -0.0500 0.4250 0.4067
v -0.0500 0.4500 0.4500
f 674/7 673/7 672/7 671/7
v -0.3000 0.4250 0.4067
v -0.3000 0.3750 0.4067
v -0.0500 0.3750 0.4067
v -0.0500 0.4250 0.4067
f 678/7 677/7 676/7 675/7
v -0.3000 0.3750 0.4067
v -0.3000 0.3500 0.4500
v -0.0500 0.3500 0.4500
v -0.0500 0.3750 0.4067
f 682/7 681/7 680/7 679/7
v -0.3000 0.3500 0.4500
v -0.3000 0.3750 0.4933
v -0.0500 0.3750 0.4933
v -0.0500 0.3500 0.4500
f 686/7 685/7 684/7 683/7
v -0.3000 0.3750 0.4933
v -0.3000 0.4250 0.4933
v -0.0500 0.4250 0.4933
v -0.0500 0.3750 0.4933
f 690/7 689/7 688/7 687/7
v -0.3000 0.3750 0.4933
v -0.3000 0.3500 0.4500
v -0.3000 0.3750 0.4067
v -0.3000 0.4250 0.4067
v -0.3000 0.4500 0.4500
v -0.3000 0.4250 0.4933
f 696/7 695/7 694/7 693/7 692/7 691/7
v -0.0500 0.4250 0.4933
v -0.0500 0.4500 0.4500
v -0.0500 0.4250 0.4067
v -0.0500 0.3750 0.4067
v -0.0500 0.3500 0.4500
v -0.0500 0.3750 0.4933
f 702/7 701/7 700/7 699/7 698/7 697/7
v 0.2800 1.2900 -0.0700
v 0.2800 1.3500 -0.0700
v 0.2800 1.3500 -0.1300
v 0.2800 1.2900 -0.1300
f 706/16 705/16 704/16 703/16
v 0.2200 1.2900 -0.1300
v 0.2200 1.3500 -0.1300
v 0.2200 1.3500 -0.0700
v 0.2200 1.2900 -0.0700
f 710/16 709/16 708/16 707/16
v 0.2800 1.2900 -0.1300
v 0.2200 1.2900 -0.1300
v 0.2200 1.2900 -0.0700
v 0.2800 1.2900 -0.0700
f 714/16 713/16 712/16 711/16
v 0.2800 1.3500 -0.0700
v 0.2200 1.3500 -0.0700
v 0.2200 1.3500 -0.1300
v 0.2800 1.3500 -0.1300
f 718/16 717/16 716/16 715/16
v 0.2800 1.3500 -0.1300
v 0.2200 1.3500 -0.1300
v 0.2200 1.2900 -0.1300
v 0.2800 1.2900 -0.1300
f 722/16 721/16 720/16 719/16
v 0.2800 1.2900 -0.0700
v 0.2200 1.2900 -0.0700
v 0.2200 1.3500 -0.0700
v 0.2800 1.3500 -0.0700
f 726/16 725/16 724/16 723/16
